<?xml version="1.0" encoding="UTF-8" standalone="no"?>
<!DOCTYPE svg PUBLIC "-//W3C//DTD SVG 1.1//EN"
 "http://www.w3.org/Graphics/SVG/1.1/DTD/svg11.dtd">
<!-- Generated by graphviz version 7.0.5 (20221223.1930)
 -->
<!-- Title: src/gui/desktop/models/photos_data_guesser.cpp Pages: 1 -->
<svg width="925pt" height="159pt"
 viewBox="0.00 0.00 924.62 159.00" xmlns="http://www.w3.org/2000/svg" xmlns:xlink="http://www.w3.org/1999/xlink">
<g id="graph0" class="graph" transform="scale(1 1) rotate(0) translate(4 155)">
<title>src/gui/desktop/models/photos_data_guesser.cpp</title>
<!-- Node1 -->
<g id="node1" class="node">
<title>Node1</title>
<g id="a_node1"><a xlink:title=" ">
<polygon fill="#999999" stroke="#666666" points="452.12,-151 321.12,-151 321.12,-121 452.12,-121 452.12,-151"/>
<text text-anchor="start" x="329.12" y="-139" font-family="Helvetica,sans-Serif" font-size="10.00">src/gui/desktop/models</text>
<text text-anchor="middle" x="386.62" y="-128" font-family="Helvetica,sans-Serif" font-size="10.00">/photos_data_guesser.cpp</text>
</a>
</g>
</g>
<!-- Node2 -->
<g id="node2" class="node">
<title>Node2</title>
<g id="a_node2"><a xlink:title=" ">
<polygon fill="#e0e0e0" stroke="#999999" points="87.12,-19 28.12,-19 28.12,0 87.12,0 87.12,-19"/>
<text text-anchor="middle" x="57.62" y="-7" font-family="Helvetica,sans-Serif" font-size="10.00">functional</text>
</a>
</g>
</g>
<!-- Node1&#45;&gt;Node2 -->
<g id="edge1" class="edge">
<title>Node1&#45;&gt;Node2</title>
<path fill="none" stroke="#63b8ff" d="M320.91,-131.03C217.42,-124.1 26.05,-108.29 5.62,-85 -11.07,-65.98 13.58,-41.54 34.31,-25.94"/>
<polygon fill="#63b8ff" stroke="#63b8ff" points="36.06,-28.99 42.16,-20.33 31.99,-23.3 36.06,-28.99"/>
</g>
<!-- Node3 -->
<g id="node3" class="node">
<title>Node3</title>
<g id="a_node3"><a xlink:title=" ">
<polygon fill="#e0e0e0" stroke="#999999" points="255.62,-19 151.62,-19 151.62,0 255.62,0 255.62,-19"/>
<text text-anchor="middle" x="203.62" y="-7" font-family="Helvetica,sans-Serif" font-size="10.00">QRegularExpression</text>
</a>
</g>
</g>
<!-- Node1&#45;&gt;Node3 -->
<g id="edge2" class="edge">
<title>Node1&#45;&gt;Node3</title>
<path fill="none" stroke="#63b8ff" d="M320.79,-126.2C272.49,-118.23 212.78,-104.7 197.62,-85 185.64,-69.45 189.92,-46.26 195.41,-29.89"/>
<polygon fill="#63b8ff" stroke="#63b8ff" points="198.59,-31.39 198.88,-20.8 192.05,-28.9 198.59,-31.39"/>
</g>
<!-- Node4 -->
<g id="node4" class="node">
<title>Node4</title>
<g id="a_node4"><a xlink:href="../../d8/dbb/data__from__path__extractor_8hpp.html" target="_top" xlink:title=" ">
<polygon fill="#fff0f0" stroke="red" points="312.62,-85 206.62,-85 206.62,-55 312.62,-55 312.62,-85"/>
<text text-anchor="start" x="214.62" y="-73" font-family="Helvetica,sans-Serif" font-size="10.00">core/data_from_path</text>
<text text-anchor="middle" x="259.62" y="-62" font-family="Helvetica,sans-Serif" font-size="10.00">_extractor.hpp</text>
</a>
</g>
</g>
<!-- Node1&#45;&gt;Node4 -->
<g id="edge3" class="edge">
<title>Node1&#45;&gt;Node4</title>
<path fill="none" stroke="#63b8ff" d="M358.12,-120.64C340.47,-111.74 317.57,-100.21 298.3,-90.49"/>
<polygon fill="#63b8ff" stroke="#63b8ff" points="299.88,-87.37 289.37,-86 296.73,-93.62 299.88,-87.37"/>
</g>
<!-- Node15 -->
<g id="node5" class="node">
<title>Node15</title>
<g id="a_node5"><a xlink:href="../../d0/dd6/function__wrappers_8hpp.html" target="_top" xlink:title=" ">
<polygon fill="#fff0f0" stroke="red" points="150.62,-79.5 14.62,-79.5 14.62,-60.5 150.62,-60.5 150.62,-79.5"/>
<text text-anchor="middle" x="82.62" y="-67.5" font-family="Helvetica,sans-Serif" font-size="10.00">core/function_wrappers.hpp</text>
</a>
</g>
</g>
<!-- Node1&#45;&gt;Node15 -->
<g id="edge5" class="edge">
<title>Node1&#45;&gt;Node15</title>
<path fill="none" stroke="#63b8ff" d="M320.65,-121.11C265.45,-109.49 187.69,-93.12 136.25,-82.29"/>
<polygon fill="#63b8ff" stroke="#63b8ff" points="137.04,-78.88 126.54,-80.25 135.6,-85.73 137.04,-78.88"/>
</g>
<!-- Node20 -->
<g id="node6" class="node">
<title>Node20</title>
<g id="a_node6"><a xlink:href="../../d8/dda/qmodel__utils_8hpp.html" target="_top" xlink:title=" ">
<polygon fill="#fff0f0" stroke="red" points="442.12,-79.5 331.12,-79.5 331.12,-60.5 442.12,-60.5 442.12,-79.5"/>
<text text-anchor="middle" x="386.62" y="-67.5" font-family="Helvetica,sans-Serif" font-size="10.00">core/qmodel_utils.hpp</text>
</a>
</g>
</g>
<!-- Node1&#45;&gt;Node20 -->
<g id="edge7" class="edge">
<title>Node1&#45;&gt;Node20</title>
<path fill="none" stroke="#63b8ff" d="M386.62,-120.8C386.62,-112.09 386.62,-100.81 386.62,-91.18"/>
<polygon fill="#63b8ff" stroke="#63b8ff" points="390.12,-91.36 386.62,-81.36 383.12,-91.36 390.12,-91.36"/>
</g>
<!-- Node25 -->
<g id="node7" class="node">
<title>Node25</title>
<g id="a_node7"><a xlink:href="../../d1/dd2/filter_8hpp.html" target="_top" xlink:title=" ">
<polygon fill="#fff0f0" stroke="red" points="568.12,-19 473.12,-19 473.12,0 568.12,0 568.12,-19"/>
<text text-anchor="middle" x="520.62" y="-7" font-family="Helvetica,sans-Serif" font-size="10.00">database/filter.hpp</text>
</a>
</g>
</g>
<!-- Node1&#45;&gt;Node25 -->
<g id="edge8" class="edge">
<title>Node1&#45;&gt;Node25</title>
<path fill="none" stroke="#63b8ff" d="M406.57,-120.65C419.53,-111.04 436.56,-97.83 450.62,-85 470.81,-66.57 492.04,-43.35 505.76,-27.77"/>
<polygon fill="#63b8ff" stroke="#63b8ff" points="508.32,-30.15 512.25,-20.31 503.04,-25.56 508.32,-30.15"/>
</g>
<!-- Node42 -->
<g id="node8" class="node">
<title>Node42</title>
<g id="a_node8"><a xlink:href="../../d4/d3c/iphoto__operator_8hpp.html" target="_top" xlink:title=" ">
<polygon fill="#fff0f0" stroke="red" points="642.62,-79.5 498.62,-79.5 498.62,-60.5 642.62,-60.5 642.62,-79.5"/>
<text text-anchor="middle" x="570.62" y="-67.5" font-family="Helvetica,sans-Serif" font-size="10.00">database/iphoto_operator.hpp</text>
</a>
</g>
</g>
<!-- Node1&#45;&gt;Node42 -->
<g id="edge9" class="edge">
<title>Node1&#45;&gt;Node42</title>
<path fill="none" stroke="#63b8ff" d="M427.91,-120.64C459.81,-109.54 503.53,-94.34 534.14,-83.69"/>
<polygon fill="#63b8ff" stroke="#63b8ff" points="535.06,-87.07 543.35,-80.48 532.76,-80.46 535.06,-87.07"/>
</g>
<!-- Node47 -->
<g id="node9" class="node">
<title>Node47</title>
<g id="a_node9"><a xlink:href="../../da/d9f/photo__flags__values_8hpp.html" target="_top" xlink:title=" ">
<polygon fill="white" stroke="#666666" points="770.12,-85 661.12,-85 661.12,-55 770.12,-55 770.12,-85"/>
<text text-anchor="start" x="669.12" y="-73" font-family="Helvetica,sans-Serif" font-size="10.00">database/photo_flags</text>
<text text-anchor="middle" x="715.62" y="-62" font-family="Helvetica,sans-Serif" font-size="10.00">_values.hpp</text>
</a>
</g>
</g>
<!-- Node1&#45;&gt;Node47 -->
<g id="edge11" class="edge">
<title>Node1&#45;&gt;Node47</title>
<path fill="none" stroke="#63b8ff" d="M452.61,-123.1C503.66,-113.76 576.42,-100.19 649.56,-85.38"/>
<polygon fill="#63b8ff" stroke="#63b8ff" points="650.24,-88.82 659.34,-83.4 648.85,-81.96 650.24,-88.82"/>
</g>
<!-- Node48 -->
<g id="node10" class="node">
<title>Node48</title>
<g id="a_node10"><a xlink:href="../../d4/d2d/photos__data__guesser_8hpp.html" target="_top" xlink:title=" ">
<polygon fill="#fff0f0" stroke="red" points="916.62,-79.5 788.62,-79.5 788.62,-60.5 916.62,-60.5 916.62,-79.5"/>
<text text-anchor="middle" x="852.62" y="-67.5" font-family="Helvetica,sans-Serif" font-size="10.00">photos_data_guesser.hpp</text>
</a>
</g>
</g>
<!-- Node1&#45;&gt;Node48 -->
<g id="edge12" class="edge">
<title>Node1&#45;&gt;Node48</title>
<path fill="none" stroke="#63b8ff" d="M452.51,-127.9C530.72,-119.18 665,-103.26 779.62,-85 785.29,-84.1 791.19,-83.08 797.07,-82.03"/>
<polygon fill="#63b8ff" stroke="#63b8ff" points="797.61,-85.49 806.81,-80.24 796.34,-78.6 797.61,-85.49"/>
</g>
<!-- Node4&#45;&gt;Node3 -->
<g id="edge4" class="edge">
<title>Node4&#45;&gt;Node3</title>
<path fill="none" stroke="#63b8ff" d="M245.77,-54.54C237.89,-46.3 227.97,-35.94 219.74,-27.34"/>
<polygon fill="#63b8ff" stroke="#63b8ff" points="222.41,-25.07 212.97,-20.27 217.35,-29.91 222.41,-25.07"/>
</g>
<!-- Node15&#45;&gt;Node2 -->
<g id="edge6" class="edge">
<title>Node15&#45;&gt;Node2</title>
<path fill="none" stroke="#63b8ff" d="M78.93,-60.37C75.49,-52.33 70.25,-40.07 65.83,-29.72"/>
<polygon fill="#63b8ff" stroke="#63b8ff" points="69.06,-28.38 61.92,-20.56 62.63,-31.13 69.06,-28.38"/>
</g>
<!-- Node42&#45;&gt;Node25 -->
<g id="edge10" class="edge">
<title>Node42&#45;&gt;Node25</title>
<path fill="none" stroke="#63b8ff" d="M563.24,-60.37C555.93,-51.81 544.52,-38.47 535.35,-27.74"/>
<polygon fill="#63b8ff" stroke="#63b8ff" points="538.17,-25.65 529.01,-20.32 532.84,-30.19 538.17,-25.65"/>
</g>
</g>
</svg>
