<?xml version="1.0" encoding="UTF-8" standalone="no"?>
<!DOCTYPE svg PUBLIC "-//W3C//DTD SVG 1.1//EN"
 "http://www.w3.org/Graphics/SVG/1.1/DTD/svg11.dtd">
<!-- Generated by graphviz version 7.0.5 (20221223.1930)
 -->
<!-- Title: TagsOperator::insert Pages: 1 -->
<svg width="264pt" height="64pt"
 viewBox="0.00 0.00 264.00 64.00" xmlns="http://www.w3.org/2000/svg" xmlns:xlink="http://www.w3.org/1999/xlink">
<g id="graph0" class="graph" transform="scale(1 1) rotate(0) translate(4 60)">
<title>TagsOperator::insert</title>
<!-- Node1 -->
<g id="node1" class="node">
<title>Node1</title>
<g id="a_node1"><a xlink:title=" ">
<polygon fill="#999999" stroke="#666666" points="104,-37 0,-37 0,-18 104,-18 104,-37"/>
<text text-anchor="middle" x="52" y="-25" font-family="Helvetica,sans-Serif" font-size="10.00">TagsOperator::insert</text>
</a>
</g>
</g>
<!-- Node2 -->
<g id="node2" class="node">
<title>Node2</title>
<g id="a_node2"><a xlink:href="../../d8/d67/class_tags_operator.html#ae9000e168deff5584784e21f45952453" target="_top" xlink:title=" ">
<polygon fill="white" stroke="#666666" points="256,-56 140,-56 140,-37 256,-37 256,-56"/>
<text text-anchor="middle" x="198" y="-44" font-family="Helvetica,sans-Serif" font-size="10.00">TagsOperator::getTags</text>
</a>
</g>
</g>
<!-- Node1&#45;&gt;Node2 -->
<g id="edge1" class="edge">
<title>Node1&#45;&gt;Node2</title>
<path fill="none" stroke="#63b8ff" d="M104.17,-34.25C111.98,-35.28 120.14,-36.36 128.24,-37.43"/>
<polygon fill="#63b8ff" stroke="#63b8ff" points="127.75,-40.89 138.12,-38.73 128.66,-33.95 127.75,-40.89"/>
</g>
<!-- Node3 -->
<g id="node3" class="node">
<title>Node3</title>
<g id="a_node3"><a xlink:href="../../d8/d67/class_tags_operator.html#aa6ec7f69096cee8febd2182a882f5bbd" target="_top" xlink:title=" ">
<polygon fill="#fff0f0" stroke="red" points="253,-19 143,-19 143,0 253,0 253,-19"/>
<text text-anchor="middle" x="198" y="-7" font-family="Helvetica,sans-Serif" font-size="10.00">TagsOperator::setTag</text>
</a>
</g>
</g>
<!-- Node1&#45;&gt;Node3 -->
<g id="edge2" class="edge">
<title>Node1&#45;&gt;Node3</title>
<path fill="none" stroke="#63b8ff" d="M104.17,-21.1C112.93,-20.01 122.13,-18.86 131.2,-17.72"/>
<polygon fill="#63b8ff" stroke="#63b8ff" points="131.59,-21.2 141.07,-16.49 130.72,-14.26 131.59,-21.2"/>
</g>
</g>
</svg>
