<?xml version="1.0" encoding="UTF-8" standalone="no"?>
<!DOCTYPE svg PUBLIC "-//W3C//DTD SVG 1.1//EN"
 "http://www.w3.org/Graphics/SVG/1.1/DTD/svg11.dtd">
<!-- Generated by graphviz version 7.0.5 (20221223.1930)
 -->
<!-- Title: ExiftoolUtils::parseOutput Pages: 1 -->
<svg width="286pt" height="76pt"
 viewBox="0.00 0.00 286.00 75.50" xmlns="http://www.w3.org/2000/svg" xmlns:xlink="http://www.w3.org/1999/xlink">
<g id="graph0" class="graph" transform="scale(1 1) rotate(0) translate(4 71.5)">
<title>ExiftoolUtils::parseOutput</title>
<!-- Node1 -->
<g id="node1" class="node">
<title>Node1</title>
<g id="a_node1"><a xlink:title=" ">
<polygon fill="#999999" stroke="#666666" points="278,-40 152,-40 152,-21 278,-21 278,-40"/>
<text text-anchor="middle" x="215" y="-28" font-family="Helvetica,sans-Serif" font-size="10.00">ExiftoolUtils::parseOutput</text>
</a>
</g>
</g>
<!-- Node2 -->
<g id="node2" class="node">
<title>Node2</title>
<g id="a_node2"><a xlink:href="../../d8/de9/class_video_media_information.html#aff55ed26988978d5c685119f7ecda2ca" target="_top" xlink:title=" ">
<polygon fill="#fff0f0" stroke="red" points="116,-67.5 0,-67.5 0,-37.5 116,-37.5 116,-67.5"/>
<text text-anchor="start" x="8" y="-55.5" font-family="Helvetica,sans-Serif" font-size="10.00">VideoMediaInformation</text>
<text text-anchor="middle" x="58" y="-44.5" font-family="Helvetica,sans-Serif" font-size="10.00">::getInformation</text>
</a>
</g>
</g>
<!-- Node1&#45;&gt;Node2 -->
<g id="edge1" class="edge">
<title>Node1&#45;&gt;Node2</title>
<path fill="none" stroke="#63b8ff" d="M140.68,-40.91C132.44,-42.08 124.14,-43.25 116.15,-44.39"/>
<polygon fill="#63b8ff" stroke="#63b8ff" points="140.94,-44.4 150.35,-39.53 139.96,-37.47 140.94,-44.4"/>
</g>
<!-- Node6 -->
<g id="node3" class="node">
<title>Node6</title>
<g id="a_node3"><a xlink:href="../../d2/d40/exiftool__video__details__reader__tests_8cpp.html#ad9a9f43d3187d515e345cbfe4f5472bb" target="_top" xlink:title=" ">
<polygon fill="white" stroke="#666666" points="78.5,-19 37.5,-19 37.5,0 78.5,0 78.5,-19"/>
<text text-anchor="middle" x="58" y="-7" font-family="Helvetica,sans-Serif" font-size="10.00">TEST</text>
</a>
</g>
</g>
<!-- Node1&#45;&gt;Node6 -->
<g id="edge2" class="edge">
<title>Node1&#45;&gt;Node6</title>
<path fill="none" stroke="#63b8ff" d="M140.73,-20.57C117.91,-17.48 94.62,-14.33 78.76,-12.18"/>
<polygon fill="#63b8ff" stroke="#63b8ff" points="139.97,-24 150.35,-21.88 140.91,-17.07 139.97,-24"/>
</g>
</g>
</svg>
