<?xml version="1.0" encoding="UTF-8" standalone="no"?>
<!DOCTYPE svg PUBLIC "-//W3C//DTD SVG 1.1//EN"
 "http://www.w3.org/Graphics/SVG/1.1/DTD/svg11.dtd">
<!-- Generated by graphviz version 9.0.0 (20230911.1827)
 -->
<!-- Title: src/core/iexif_reader.hpp Pages: 1 -->
<!--zoomable 172 -->

<svg id="main" version="1.1" xmlns="http://www.w3.org/2000/svg" xmlns:xlink="http://www.w3.org/1999/xlink" xml:space="preserve" onload="init(evt)">
<style type="text/css"><![CDATA[
.node, .edge {opacity: 0.7;}
.node.selected, .edge.selected {opacity: 1;}
.edge:hover path { stroke: red; }
.edge:hover polygon { stroke: red; fill: red; }
]]></style>

<defs>
  <circle id="rim" cx="0" cy="0" r="7"/>
  <circle id="rim2" cx="0" cy="0" r="3.5"/>
  <g id="zoomPlus">
    <use xlink:href="#rim" fill="#404040"><set attributeName="fill" to="#808080" begin="zoomplus.mouseover" end="zoomplus.mouseout"/></use>
    <path d="M-4,0h8M0,-4v8" fill="none" stroke="white" stroke-width="1.5" pointer-events="none"/>
  </g>
  <g id="zoomMin">
    <use xlink:href="#rim" fill="#404040"><set attributeName="fill" to="#808080" begin="zoomminus.mouseover" end="zoomminus.mouseout"/></use>
    <path d="M-4,0h8" fill="none" stroke="white" stroke-width="1.5" pointer-events="none"/>
  </g>
  <g id="arrowUp" transform="translate(30 24)">
    <use xlink:href="#rim"/>
    <path pointer-events="none" fill="none" stroke="white" stroke-width="1.5" d="M0,-3.0v7 M-2.5,-0.5L0,-3.0L2.5,-0.5"/>
  </g>
  <g id="arrowRight" transform="rotate(90) translate(36 -43)">
    <use xlink:href="#rim"/>
    <path pointer-events="none" fill="none" stroke="white" stroke-width="1.5" d="M0,-3.0v7 M-2.5,-0.5L0,-3.0L2.5,-0.5"/>
  </g>
  <g id="arrowDown" transform="rotate(180) translate(-30 -48)">
    <use xlink:href="#rim"/>
    <path pointer-events="none" fill="none" stroke="white" stroke-width="1.5" d="M0,-3.0v7 M-2.5,-0.5L0,-3.0L2.5,-0.5"/>
  </g>
  <g id="arrowLeft" transform="rotate(270) translate(-36 17)">
    <use xlink:href="#rim"/>
    <path pointer-events="none" fill="none" stroke="white" stroke-width="1.5" d="M0,-3.0v7 M-2.5,-0.5L0,-3.0L2.5,-0.5"/>
  </g>
  <g id="resetDef">
    <use xlink:href="#rim2" fill="#404040"><set attributeName="fill" to="#808080" begin="reset.mouseover" end="reset.mouseout"/></use>
  </g>
</defs>
<script type="application/ecmascript">
var viewWidth = 2452;
var viewHeight = 172;
var sectionId = 'dynsection-1';
</script>
<script type="application/ecmascript" xlink:href="../../svg.min.js"/>
<svg id="graph" class="graph">
<g id="viewport">
<title>src/core/iexif_reader.hpp</title>
<!-- Node1 -->
<g id="Node000001" class="node">
<title>Node1</title>
<g id="a_Node000001"><a xlink:title=" ">
<polygon fill="#999999" stroke="#666666" points="1237,-163.5 1115.25,-163.5 1115.25,-144.25 1237,-144.25 1237,-163.5"/>
<text text-anchor="middle" x="1176.12" y="-150" font-family="Helvetica,sans-Serif" font-size="10.00">src/core/iexif_reader.hpp</text>
</a>
</g>
</g>
<!-- Node2 -->
<g id="Node000002" class="node">
<title>Node2</title>
<g id="a_Node000002"><a xlink:href="../../d2/d0c/exif__reader__factory_8hpp.html" target="_top" xlink:title=" ">
<polygon fill="#fff0f0" stroke="red" points="149.88,-102.62 48.38,-102.62 48.38,-72.12 149.88,-72.12 149.88,-102.62"/>
<text text-anchor="start" x="56.38" y="-89.12" font-family="Helvetica,sans-Serif" font-size="10.00">src/core/exif_reader</text>
<text text-anchor="middle" x="99.12" y="-77.88" font-family="Helvetica,sans-Serif" font-size="10.00">_factory.hpp</text>
</a>
</g>
</g>
<!-- Node1&#45;&gt;Node2 -->
<g id="edge1_Node000001_Node000002" class="edge">
<title>Node1&#45;&gt;Node2</title>
<g id="a_edge1_Node000001_Node000002"><a xlink:title=" ">
<path fill="none" stroke="#63b8ff" d="M1103.72,-152.29C902.71,-150.24 340.61,-141.62 159.12,-108.25 152.33,-107 145.24,-105.16 138.42,-103.1"/>
<polygon fill="#63b8ff" stroke="#63b8ff" points="1103.47,-155.78 1113.5,-152.38 1103.54,-148.79 1103.47,-155.78"/>
</a>
</g>
</g>
<!-- Node3 -->
<g id="Node000003" class="node">
<title>Node3</title>
<g id="a_Node000003"><a xlink:href="../../df/d87/exif__reader__factory_8cpp.html" target="_top" xlink:title=" ">
<polygon fill="white" stroke="#666666" points="120.25,-30.5 0,-30.5 0,0 120.25,0 120.25,-30.5"/>
<text text-anchor="start" x="8" y="-17" font-family="Helvetica,sans-Serif" font-size="10.00">src/core/implementation</text>
<text text-anchor="middle" x="60.12" y="-5.75" font-family="Helvetica,sans-Serif" font-size="10.00">/exif_reader_factory.cpp</text>
</a>
</g>
</g>
<!-- Node1&#45;&gt;Node3 -->
<g id="edge4_Node000001_Node000003" class="edge">
<title>Node1&#45;&gt;Node3</title>
<g id="a_edge4_Node000001_Node000003"><a xlink:title=" ">
<path fill="none" stroke="#63b8ff" d="M1103.63,-152.76C858.85,-152.03 76.06,-146.67 39.12,-108.25 18.91,-87.23 36.96,-50.96 49.84,-30.81"/>
<polygon fill="#63b8ff" stroke="#63b8ff" points="1103.36,-156.26 1113.37,-152.79 1103.37,-149.26 1103.36,-156.26"/>
</a>
</g>
</g>
<!-- Node10 -->
<g id="Node000010" class="node">
<title>Node10</title>
<g id="a_Node000010"><a xlink:href="../../d9/d29/aexif__reader_8hpp.html" target="_top" xlink:title=" ">
<polygon fill="#fff0f0" stroke="red" points="288.25,-102.62 168,-102.62 168,-72.12 288.25,-72.12 288.25,-102.62"/>
<text text-anchor="start" x="176" y="-89.12" font-family="Helvetica,sans-Serif" font-size="10.00">src/core/implementation</text>
<text text-anchor="middle" x="228.12" y="-77.88" font-family="Helvetica,sans-Serif" font-size="10.00">/aexif_reader.hpp</text>
</a>
</g>
</g>
<!-- Node1&#45;&gt;Node10 -->
<g id="edge3_Node000001_Node000010" class="edge">
<title>Node1&#45;&gt;Node10</title>
<g id="a_edge3_Node000001_Node000010"><a xlink:title=" ">
<path fill="none" stroke="#63b8ff" d="M1103.7,-151.34C922.24,-147.15 451.59,-134.06 297.12,-108.25 289.5,-106.98 281.52,-105.15 273.81,-103.12"/>
<polygon fill="#63b8ff" stroke="#63b8ff" points="1103.38,-154.83 1113.46,-151.56 1103.54,-147.84 1103.38,-154.83"/>
</a>
</g>
</g>
<!-- Node16 -->
<g id="Node000016" class="node">
<title>Node16</title>
<g id="a_Node000016"><a xlink:href="../../d4/dd0/image__media__information_8cpp.html" target="_top" xlink:title=" ">
<polygon fill="white" stroke="#666666" points="505.12,-30.5 357.12,-30.5 357.12,0 505.12,0 505.12,-30.5"/>
<text text-anchor="start" x="365.12" y="-17" font-family="Helvetica,sans-Serif" font-size="10.00">src/core/implementation</text>
<text text-anchor="middle" x="431.12" y="-5.75" font-family="Helvetica,sans-Serif" font-size="10.00">/image_media_information.cpp</text>
</a>
</g>
</g>
<!-- Node1&#45;&gt;Node16 -->
<g id="edge5_Node000001_Node000016" class="edge">
<title>Node1&#45;&gt;Node16</title>
<g id="a_edge5_Node000001_Node000016"><a xlink:title=" ">
<path fill="none" stroke="#63b8ff" d="M1103.66,-151.46C940.24,-147.79 553.15,-136.21 501.12,-108.25 484.6,-99.37 454.86,-54.37 440.04,-30.76"/>
<polygon fill="#63b8ff" stroke="#63b8ff" points="1103.44,-154.96 1113.52,-151.68 1103.6,-147.96 1103.44,-154.96"/>
</a>
</g>
</g>
<!-- Node17 -->
<g id="Node000017" class="node">
<title>Node17</title>
<g id="a_Node000017"><a xlink:href="../../df/df0/image__media__information_8hpp.html" target="_top" xlink:title=" ">
<polygon fill="#fff0f0" stroke="red" points="454.12,-102.62 306.12,-102.62 306.12,-72.12 454.12,-72.12 454.12,-102.62"/>
<text text-anchor="start" x="314.12" y="-89.12" font-family="Helvetica,sans-Serif" font-size="10.00">src/core/implementation</text>
<text text-anchor="middle" x="380.12" y="-77.88" font-family="Helvetica,sans-Serif" font-size="10.00">/image_media_information.hpp</text>
</a>
</g>
</g>
<!-- Node1&#45;&gt;Node17 -->
<g id="edge6_Node000001_Node000017" class="edge">
<title>Node1&#45;&gt;Node17</title>
<g id="a_edge6_Node000001_Node000017"><a xlink:title=" ">
<path fill="none" stroke="#63b8ff" d="M1103.96,-152.11C975.47,-149.91 698.89,-141.37 468.12,-108.25 458.67,-106.89 448.72,-105.05 439.05,-103.04"/>
<polygon fill="#63b8ff" stroke="#63b8ff" points="1103.61,-155.6 1113.67,-152.27 1103.72,-148.61 1103.61,-155.6"/>
</a>
</g>
</g>
<!-- Node19 -->
<g id="Node000019" class="node">
<title>Node19</title>
<g id="a_Node000019"><a xlink:href="../../d4/d70/image__tools_8cpp.html" target="_top" xlink:title=" ">
<polygon fill="white" stroke="#666666" points="630.25,-102.62 510,-102.62 510,-72.12 630.25,-72.12 630.25,-102.62"/>
<text text-anchor="start" x="518" y="-89.12" font-family="Helvetica,sans-Serif" font-size="10.00">src/core/implementation</text>
<text text-anchor="middle" x="570.12" y="-77.88" font-family="Helvetica,sans-Serif" font-size="10.00">/image_tools.cpp</text>
</a>
</g>
</g>
<!-- Node1&#45;&gt;Node19 -->
<g id="edge8_Node000001_Node000019" class="edge">
<title>Node1&#45;&gt;Node19</title>
<g id="a_edge8_Node000001_Node000019"><a xlink:title=" ">
<path fill="none" stroke="#63b8ff" d="M1103.53,-151.38C999.77,-148.22 803.42,-138.43 639.12,-108.25 631.77,-106.9 624.07,-105.09 616.59,-103.11"/>
<polygon fill="#63b8ff" stroke="#63b8ff" points="1103.2,-154.87 1113.29,-151.66 1103.4,-147.87 1103.2,-154.87"/>
</a>
</g>
</g>
<!-- Node20 -->
<g id="Node000020" class="node">
<title>Node20</title>
<g id="a_Node000020"><a xlink:href="../../d1/d0f/oriented__image_8cpp.html" target="_top" xlink:title=" ">
<polygon fill="white" stroke="#666666" points="768.25,-102.62 648,-102.62 648,-72.12 768.25,-72.12 768.25,-102.62"/>
<text text-anchor="start" x="656" y="-89.12" font-family="Helvetica,sans-Serif" font-size="10.00">src/core/implementation</text>
<text text-anchor="middle" x="708.12" y="-77.88" font-family="Helvetica,sans-Serif" font-size="10.00">/oriented_image.cpp</text>
</a>
</g>
</g>
<!-- Node1&#45;&gt;Node20 -->
<g id="edge9_Node000001_Node000020" class="edge">
<title>Node1&#45;&gt;Node20</title>
<g id="a_edge9_Node000001_Node000020"><a xlink:title=" ">
<path fill="none" stroke="#63b8ff" d="M1103.32,-148.44C1022.9,-142.69 889.86,-130.62 777.12,-108.25 769.91,-106.82 762.36,-104.99 755,-103.03"/>
<polygon fill="#63b8ff" stroke="#63b8ff" points="1103.07,-151.93 1113.29,-149.14 1103.55,-144.95 1103.07,-151.93"/>
</a>
</g>
</g>
<!-- Node5 -->
<g id="Node000005" class="node">
<title>Node5</title>
<g id="a_Node000005"><a xlink:href="../../d1/d26/thumbnail__generator_8cpp.html" target="_top" xlink:title=" ">
<polygon fill="white" stroke="#666666" points="971.5,-30.5 846.75,-30.5 846.75,0 971.5,0 971.5,-30.5"/>
<text text-anchor="start" x="854.75" y="-17" font-family="Helvetica,sans-Serif" font-size="10.00">src/core/implementation</text>
<text text-anchor="middle" x="909.12" y="-5.75" font-family="Helvetica,sans-Serif" font-size="10.00">/thumbnail_generator.cpp</text>
</a>
</g>
</g>
<!-- Node1&#45;&gt;Node5 -->
<g id="edge10_Node000001_Node000005" class="edge">
<title>Node1&#45;&gt;Node5</title>
<g id="a_edge10_Node000001_Node000005"><a xlink:title=" ">
<path fill="none" stroke="#63b8ff" d="M1103.69,-148.48C1064.29,-143.27 1016.17,-132.08 979.12,-108.25 963.43,-98.15 933.59,-54.16 918.44,-30.86"/>
<polygon fill="#63b8ff" stroke="#63b8ff" points="1103.24,-151.95 1113.58,-149.68 1104.08,-145 1103.24,-151.95"/>
</a>
</g>
</g>
<!-- Node21 -->
<g id="Node000021" class="node">
<title>Node21</title>
<g id="a_Node000021"><a xlink:href="../../db/d7d/video__media__information_8hpp.html" target="_top" xlink:title=" ">
<polygon fill="#fff0f0" stroke="red" points="931.62,-102.62 786.62,-102.62 786.62,-72.12 931.62,-72.12 931.62,-102.62"/>
<text text-anchor="start" x="794.62" y="-89.12" font-family="Helvetica,sans-Serif" font-size="10.00">src/core/implementation</text>
<text text-anchor="middle" x="859.12" y="-77.88" font-family="Helvetica,sans-Serif" font-size="10.00">/video_media_information.hpp</text>
</a>
</g>
</g>
<!-- Node1&#45;&gt;Node21 -->
<g id="edge11_Node000001_Node000021" class="edge">
<title>Node1&#45;&gt;Node21</title>
<g id="a_edge11_Node000001_Node000021"><a xlink:title=" ">
<path fill="none" stroke="#63b8ff" d="M1115.6,-141.69C1069.15,-132.98 1003.48,-120.36 946.12,-108.25 938.39,-106.62 930.29,-104.85 922.27,-103.06"/>
<polygon fill="#63b8ff" stroke="#63b8ff" points="1114.72,-145.09 1125.19,-143.49 1116,-138.21 1114.72,-145.09"/>
</a>
</g>
</g>
<!-- Node23 -->
<g id="Node000023" class="node">
<title>Node23</title>
<g id="a_Node000023"><a xlink:href="../../de/d46/series__detector_8cpp.html" target="_top" xlink:title=" ">
<polygon fill="white" stroke="#666666" points="1103.62,-108.25 988.62,-108.25 988.62,-66.5 1103.62,-66.5 1103.62,-108.25"/>
<text text-anchor="start" x="996.62" y="-94.75" font-family="Helvetica,sans-Serif" font-size="10.00">src/database/database</text>
<text text-anchor="start" x="996.62" y="-83.5" font-family="Helvetica,sans-Serif" font-size="10.00">_tools/implementation</text>
<text text-anchor="middle" x="1046.12" y="-72.25" font-family="Helvetica,sans-Serif" font-size="10.00">/series_detector.cpp</text>
</a>
</g>
</g>
<!-- Node1&#45;&gt;Node23 -->
<g id="edge13_Node000001_Node000023" class="edge">
<title>Node1&#45;&gt;Node23</title>
<g id="a_edge13_Node000001_Node000023"><a xlink:title=" ">
<path fill="none" stroke="#63b8ff" d="M1147.51,-138.68C1129.8,-129.89 1106.78,-118.47 1087.14,-108.73"/>
<polygon fill="#63b8ff" stroke="#63b8ff" points="1145.91,-141.79 1156.42,-143.1 1149.02,-135.52 1145.91,-141.79"/>
</a>
</g>
</g>
<!-- Node24 -->
<g id="Node000024" class="node">
<title>Node24</title>
<g id="a_Node000024"><a xlink:href="../../da/dec/face__recognition_8cpp.html" target="_top" xlink:title=" ">
<polygon fill="white" stroke="#666666" points="1230.25,-102.62 1122,-102.62 1122,-72.12 1230.25,-72.12 1230.25,-102.62"/>
<text text-anchor="start" x="1130" y="-89.12" font-family="Helvetica,sans-Serif" font-size="10.00">src/face_recognition</text>
<text text-anchor="middle" x="1176.12" y="-77.88" font-family="Helvetica,sans-Serif" font-size="10.00">/face_recognition.cpp</text>
</a>
</g>
</g>
<!-- Node1&#45;&gt;Node24 -->
<g id="edge14_Node000001_Node000024" class="edge">
<title>Node1&#45;&gt;Node24</title>
<g id="a_edge14_Node000001_Node000024"><a xlink:title=" ">
<path fill="none" stroke="#63b8ff" d="M1176.12,-132.49C1176.12,-122.81 1176.12,-111.48 1176.12,-102.72"/>
<polygon fill="#63b8ff" stroke="#63b8ff" points="1172.63,-132.39 1176.13,-142.39 1179.63,-132.39 1172.63,-132.39"/>
</a>
</g>
</g>
<!-- Node25 -->
<g id="Node000025" class="node">
<title>Node25</title>
<g id="a_Node000025"><a xlink:href="../../d4/df8/faces__model_8cpp.html" target="_top" xlink:title=" ">
<polygon fill="white" stroke="#666666" points="1365.75,-102.62 1248.5,-102.62 1248.5,-72.12 1365.75,-72.12 1365.75,-102.62"/>
<text text-anchor="start" x="1256.5" y="-89.12" font-family="Helvetica,sans-Serif" font-size="10.00">src/gui/desktop/models</text>
<text text-anchor="middle" x="1307.12" y="-77.88" font-family="Helvetica,sans-Serif" font-size="10.00">/faces_model.cpp</text>
</a>
</g>
</g>
<!-- Node1&#45;&gt;Node25 -->
<g id="edge15_Node000001_Node000025" class="edge">
<title>Node1&#45;&gt;Node25</title>
<g id="a_edge15_Node000001_Node000025"><a xlink:title=" ">
<path fill="none" stroke="#63b8ff" d="M1204.8,-138.76C1226.38,-128.13 1255.85,-113.62 1277.62,-102.9"/>
<polygon fill="#63b8ff" stroke="#63b8ff" points="1203.4,-135.54 1195.97,-143.1 1206.49,-141.82 1203.4,-135.54"/>
</a>
</g>
</g>
<!-- Node26 -->
<g id="Node000026" class="node">
<title>Node26</title>
<g id="a_Node000026"><a xlink:href="../../dd/d30/series__model_8cpp.html" target="_top" xlink:title=" ">
<polygon fill="white" stroke="#666666" points="1570.75,-30.5 1453.5,-30.5 1453.5,0 1570.75,0 1570.75,-30.5"/>
<text text-anchor="start" x="1461.5" y="-17" font-family="Helvetica,sans-Serif" font-size="10.00">src/gui/desktop/models</text>
<text text-anchor="middle" x="1512.12" y="-5.75" font-family="Helvetica,sans-Serif" font-size="10.00">/series_model.cpp</text>
</a>
</g>
</g>
<!-- Node1&#45;&gt;Node26 -->
<g id="edge16_Node000001_Node000026" class="edge">
<title>Node1&#45;&gt;Node26</title>
<g id="a_edge16_Node000001_Node000026"><a xlink:title=" ">
<path fill="none" stroke="#63b8ff" d="M1248.24,-147.37C1287.84,-141.81 1336.59,-130.64 1375.12,-108.25 1396.82,-95.64 1393.17,-81.71 1413.12,-66.5 1432.14,-52.02 1455.96,-39.77 1475.47,-31"/>
<polygon fill="#63b8ff" stroke="#63b8ff" points="1248.03,-143.86 1238.56,-148.63 1248.93,-150.8 1248.03,-143.86"/>
</a>
</g>
</g>
<!-- Node27 -->
<g id="Node000027" class="node">
<title>Node27</title>
<g id="a_Node000027"><a xlink:href="../../d9/d7c/media__view__ctrl_8cpp.html" target="_top" xlink:title=" ">
<polygon fill="white" stroke="#666666" points="1558.5,-102.62 1421.75,-102.62 1421.75,-72.12 1558.5,-72.12 1558.5,-102.62"/>
<text text-anchor="start" x="1429.75" y="-89.12" font-family="Helvetica,sans-Serif" font-size="10.00">src/gui/desktop/quick</text>
<text text-anchor="middle" x="1490.12" y="-77.88" font-family="Helvetica,sans-Serif" font-size="10.00">_items/media_view_ctrl.cpp</text>
</a>
</g>
</g>
<!-- Node1&#45;&gt;Node27 -->
<g id="edge17_Node000001_Node000027" class="edge">
<title>Node1&#45;&gt;Node27</title>
<g id="a_edge17_Node000001_Node000027"><a xlink:title=" ">
<path fill="none" stroke="#63b8ff" d="M1238.14,-141.78C1284.96,-133.2 1350.73,-120.72 1408.12,-108.25 1415.57,-106.63 1423.37,-104.85 1431.08,-103.04"/>
<polygon fill="#63b8ff" stroke="#63b8ff" points="1237.65,-138.31 1228.44,-143.55 1238.91,-145.2 1237.65,-138.31"/>
</a>
</g>
</g>
<!-- Node28 -->
<g id="Node000028" class="node">
<title>Node28</title>
<g id="a_Node000028"><a xlink:href="../../d3/d90/photos__grouping__dialog_8cpp.html" target="_top" xlink:title=" ">
<polygon fill="white" stroke="#666666" points="1852.62,-30.5 1713.62,-30.5 1713.62,0 1852.62,0 1852.62,-30.5"/>
<text text-anchor="start" x="1721.62" y="-17" font-family="Helvetica,sans-Serif" font-size="10.00">src/gui/desktop/ui</text>
<text text-anchor="middle" x="1783.12" y="-5.75" font-family="Helvetica,sans-Serif" font-size="10.00">/photos_grouping_dialog.cpp</text>
</a>
</g>
</g>
<!-- Node1&#45;&gt;Node28 -->
<g id="edge18_Node000001_Node000028" class="edge">
<title>Node1&#45;&gt;Node28</title>
<g id="a_edge18_Node000001_Node000028"><a xlink:title=" ">
<path fill="none" stroke="#63b8ff" d="M1248.73,-151.6C1444.38,-147.8 1969.65,-135.15 1995.12,-108.25 2042.37,-58.36 1931.54,-34.05 1852.98,-23.42"/>
<polygon fill="#63b8ff" stroke="#63b8ff" points="1248.88,-148.09 1238.95,-151.79 1249.01,-155.09 1248.88,-148.09"/>
</a>
</g>
</g>
<!-- Node29 -->
<g id="Node000029" class="node">
<title>Node29</title>
<g id="a_Node000029"><a xlink:href="../../d9/de7/collage__generator_8hpp.html" target="_top" xlink:title=" ">
<polygon fill="#fff0f0" stroke="red" points="1862.75,-102.62 1703.5,-102.62 1703.5,-72.12 1862.75,-72.12 1862.75,-102.62"/>
<text text-anchor="start" x="1711.5" y="-89.12" font-family="Helvetica,sans-Serif" font-size="10.00">src/gui/desktop/utils</text>
<text text-anchor="middle" x="1783.12" y="-77.88" font-family="Helvetica,sans-Serif" font-size="10.00">/grouppers/collage_generator.hpp</text>
</a>
</g>
</g>
<!-- Node1&#45;&gt;Node29 -->
<g id="edge19_Node000001_Node000029" class="edge">
<title>Node1&#45;&gt;Node29</title>
<g id="a_edge19_Node000001_Node000029"><a xlink:title=" ">
<path fill="none" stroke="#63b8ff" d="M1248.67,-149.69C1349.19,-144.58 1536.28,-132.56 1694.12,-108.25 1703.36,-106.83 1713.06,-105.01 1722.53,-103.04"/>
<polygon fill="#63b8ff" stroke="#63b8ff" points="1248.77,-146.18 1238.96,-150.18 1249.12,-153.17 1248.77,-146.18"/>
</a>
</g>
</g>
<!-- Node33 -->
<g id="Node000033" class="node">
<title>Node33</title>
<g id="a_Node000033"><a xlink:href="../../d2/df7/generator__utils_8cpp.html" target="_top" xlink:title=" ">
<polygon fill="white" stroke="#666666" points="1985.75,-108.25 1880.5,-108.25 1880.5,-66.5 1985.75,-66.5 1985.75,-108.25"/>
<text text-anchor="start" x="1888.5" y="-94.75" font-family="Helvetica,sans-Serif" font-size="10.00">src/gui/desktop/utils</text>
<text text-anchor="start" x="1888.5" y="-83.5" font-family="Helvetica,sans-Serif" font-size="10.00">/grouppers/generator</text>
<text text-anchor="middle" x="1933.12" y="-72.25" font-family="Helvetica,sans-Serif" font-size="10.00">_utils.cpp</text>
</a>
</g>
</g>
<!-- Node1&#45;&gt;Node33 -->
<g id="edge21_Node000001_Node000033" class="edge">
<title>Node1&#45;&gt;Node33</title>
<g id="a_edge21_Node000001_Node000033"><a xlink:title=" ">
<path fill="none" stroke="#63b8ff" d="M1248.6,-150.53C1401.84,-145.2 1754.3,-130.85 1872.12,-108.25 1874.75,-107.75 1877.42,-107.16 1880.1,-106.52"/>
<polygon fill="#63b8ff" stroke="#63b8ff" points="1248.86,-147.02 1238.99,-150.86 1249.1,-154.02 1248.86,-147.02"/>
</a>
</g>
</g>
<!-- Node34 -->
<g id="Node000034" class="node">
<title>Node34</title>
<g id="a_Node000034"><a xlink:href="../../dc/db1/groups__manager_8hpp.html" target="_top" xlink:title=" ">
<polygon fill="#fff0f0" stroke="red" points="1685.62,-102.62 1576.62,-102.62 1576.62,-72.12 1685.62,-72.12 1685.62,-102.62"/>
<text text-anchor="start" x="1584.62" y="-89.12" font-family="Helvetica,sans-Serif" font-size="10.00">src/gui/desktop/utils</text>
<text text-anchor="middle" x="1631.12" y="-77.88" font-family="Helvetica,sans-Serif" font-size="10.00">/groups_manager.hpp</text>
</a>
</g>
</g>
<!-- Node1&#45;&gt;Node34 -->
<g id="edge22_Node000001_Node000034" class="edge">
<title>Node1&#45;&gt;Node34</title>
<g id="a_edge22_Node000001_Node000034"><a xlink:title=" ">
<path fill="none" stroke="#63b8ff" d="M1248.59,-148.68C1327.57,-143.17 1457.36,-131.34 1567.12,-108.25 1573.84,-106.84 1580.86,-105.02 1587.69,-103.06"/>
<polygon fill="#63b8ff" stroke="#63b8ff" points="1248.56,-145.18 1238.82,-149.35 1249.03,-152.16 1248.56,-145.18"/>
</a>
</g>
</g>
<!-- Node36 -->
<g id="Node000036" class="node">
<title>Node36</title>
<g id="a_Node000036"><a xlink:href="../../d1/d2f/people__editor_8cpp.html" target="_top" xlink:title=" ">
<polygon fill="white" stroke="#666666" points="2146,-102.62 2042.25,-102.62 2042.25,-72.12 2146,-72.12 2146,-102.62"/>
<text text-anchor="start" x="2050.25" y="-89.12" font-family="Helvetica,sans-Serif" font-size="10.00">src/gui/desktop/utils</text>
<text text-anchor="middle" x="2094.12" y="-77.88" font-family="Helvetica,sans-Serif" font-size="10.00">/people_editor.cpp</text>
</a>
</g>
</g>
<!-- Node1&#45;&gt;Node36 -->
<g id="edge25_Node000001_Node000036" class="edge">
<title>Node1&#45;&gt;Node36</title>
<g id="a_edge25_Node000001_Node000036"><a xlink:title=" ">
<path fill="none" stroke="#63b8ff" d="M1248.51,-151.32C1426,-147.14 1879.18,-134.19 2028.12,-108.25 2035.43,-106.98 2043.07,-105.16 2050.46,-103.12"/>
<polygon fill="#63b8ff" stroke="#63b8ff" points="1248.65,-147.81 1238.73,-151.54 1248.81,-154.81 1248.65,-147.81"/>
</a>
</g>
</g>
<!-- Node37 -->
<g id="Node000037" class="node">
<title>Node37</title>
<g id="a_Node000037"><a xlink:href="../../da/d9a/mock__exif__reader_8hpp.html" target="_top" xlink:title=" ">
<polygon fill="#fff0f0" stroke="red" points="2277.88,-102.62 2164.38,-102.62 2164.38,-72.12 2277.88,-72.12 2277.88,-102.62"/>
<text text-anchor="start" x="2172.38" y="-89.12" font-family="Helvetica,sans-Serif" font-size="10.00">src/unit_tests_utils</text>
<text text-anchor="middle" x="2221.12" y="-77.88" font-family="Helvetica,sans-Serif" font-size="10.00">/mock_exif_reader.hpp</text>
</a>
</g>
</g>
<!-- Node1&#45;&gt;Node37 -->
<g id="edge26_Node000001_Node000037" class="edge">
<title>Node1&#45;&gt;Node37</title>
<g id="a_edge26_Node000001_Node000037"><a xlink:title=" ">
<path fill="none" stroke="#63b8ff" d="M1248.47,-151.89C1444.15,-148.86 1980.82,-138 2155.12,-108.25 2162.56,-106.98 2170.33,-105.13 2177.82,-103.07"/>
<polygon fill="#63b8ff" stroke="#63b8ff" points="1248.65,-148.39 1238.7,-152.04 1248.76,-155.39 1248.65,-148.39"/>
</a>
</g>
</g>
<!-- Node40 -->
<g id="Node000040" class="node">
<title>Node40</title>
<g id="a_Node000040"><a xlink:href="../../d2/ddb/mock__exif__reader__factory_8hpp.html" target="_top" xlink:title=" ">
<polygon fill="white" stroke="#666666" points="2444.12,-102.62 2296.12,-102.62 2296.12,-72.12 2444.12,-72.12 2444.12,-102.62"/>
<text text-anchor="start" x="2304.12" y="-89.12" font-family="Helvetica,sans-Serif" font-size="10.00">src/unit_tests_utils</text>
<text text-anchor="middle" x="2370.12" y="-77.88" font-family="Helvetica,sans-Serif" font-size="10.00">/mock_exif_reader_factory.hpp</text>
</a>
</g>
</g>
<!-- Node1&#45;&gt;Node40 -->
<g id="edge27_Node000001_Node000040" class="edge">
<title>Node1&#45;&gt;Node40</title>
<g id="a_edge27_Node000001_Node000040"><a xlink:title=" ">
<path fill="none" stroke="#63b8ff" d="M1248.74,-151.81C1462.23,-148.37 2085.52,-136.17 2287.12,-108.25 2296.37,-106.97 2306.09,-105.12 2315.5,-103.05"/>
<polygon fill="#63b8ff" stroke="#63b8ff" points="1248.83,-148.3 1238.89,-151.96 1248.94,-155.3 1248.83,-148.3"/>
</a>
</g>
</g>
<!-- Node2&#45;&gt;Node3 -->
<g id="edge2_Node000002_Node000003" class="edge">
<title>Node2&#45;&gt;Node3</title>
<g id="a_edge2_Node000002_Node000003"><a xlink:title=" ">
<path fill="none" stroke="#63b8ff" d="M85.59,-62.04C79.79,-51.61 73.21,-39.78 68.2,-30.76"/>
<polygon fill="#63b8ff" stroke="#63b8ff" points="82.39,-63.48 90.31,-70.52 88.51,-60.08 82.39,-63.48"/>
</a>
</g>
</g>
<!-- Node17&#45;&gt;Node16 -->
<g id="edge7_Node000017_Node000016" class="edge">
<title>Node17&#45;&gt;Node16</title>
<g id="a_edge7_Node000017_Node000016"><a xlink:title=" ">
<path fill="none" stroke="#63b8ff" d="M397.35,-62.69C405.05,-52.11 413.87,-39.97 420.57,-30.76"/>
<polygon fill="#63b8ff" stroke="#63b8ff" points="394.63,-60.48 391.58,-70.62 400.29,-64.59 394.63,-60.48"/>
</a>
</g>
</g>
<!-- Node21&#45;&gt;Node5 -->
<g id="edge12_Node000021_Node000005" class="edge">
<title>Node21&#45;&gt;Node5</title>
<g id="a_edge12_Node000021_Node000005"><a xlink:title=" ">
<path fill="none" stroke="#63b8ff" d="M876.01,-62.69C883.56,-52.11 892.21,-39.97 898.78,-30.76"/>
<polygon fill="#63b8ff" stroke="#63b8ff" points="873.32,-60.44 870.36,-70.61 879.02,-64.5 873.32,-60.44"/>
</a>
</g>
</g>
<!-- Node29&#45;&gt;Node28 -->
<g id="edge20_Node000029_Node000028" class="edge">
<title>Node29&#45;&gt;Node28</title>
<g id="a_edge20_Node000029_Node000028"><a xlink:title=" ">
<path fill="none" stroke="#63b8ff" d="M1783.12,-60.4C1783.12,-50.39 1783.12,-39.31 1783.12,-30.76"/>
<polygon fill="#63b8ff" stroke="#63b8ff" points="1779.63,-60.33 1783.13,-70.33 1786.63,-60.33 1779.63,-60.33"/>
</a>
</g>
</g>
<!-- Node34&#45;&gt;Node26 -->
<g id="edge23_Node000034_Node000026" class="edge">
<title>Node34&#45;&gt;Node26</title>
<g id="a_edge23_Node000034_Node000026"><a xlink:title=" ">
<path fill="none" stroke="#63b8ff" d="M1596.38,-65.9C1577.37,-54.7 1554.25,-41.07 1537.04,-30.93"/>
<polygon fill="#63b8ff" stroke="#63b8ff" points="1594.48,-68.84 1604.87,-70.91 1598.04,-62.81 1594.48,-68.84"/>
</a>
</g>
</g>
<!-- Node34&#45;&gt;Node28 -->
<g id="edge24_Node000034_Node000028" class="edge">
<title>Node34&#45;&gt;Node28</title>
<g id="a_edge24_Node000034_Node000028"><a xlink:title=" ">
<path fill="none" stroke="#63b8ff" d="M1673.17,-66.98C1697.88,-55.58 1728.61,-41.4 1751.3,-30.93"/>
<polygon fill="#63b8ff" stroke="#63b8ff" points="1671.98,-63.67 1664.36,-71.04 1674.91,-70.03 1671.98,-63.67"/>
</a>
</g>
</g>
</g>
</svg>

<g id="navigator" transform="translate(0 0)" fill="#404254">
  <rect fill="#f2f5e9" fill-opacity="0.5" stroke="#606060" stroke-width=".5" x="0" y="0" width="60" height="60"/>
  <use id="zoomplus" xlink:href="#zoomPlus" x="17" y="9" onmousedown="handleZoom(evt,'in')"/>
  <use id="zoomminus" xlink:href="#zoomMin" x="42" y="9" onmousedown="handleZoom(evt,'out')"/>
  <use id="reset" xlink:href="#resetDef" x="30" y="36" onmousedown="handleReset()"/>
   <use id="arrowup" xlink:href="#arrowUp" x="0" y="0" onmousedown="handlePan(0,-1)"/>
  <use id="arrowright" xlink:href="#arrowRight" x="0" y="0" onmousedown="handlePan(1,0)"/>
  <use id="arrowdown" xlink:href="#arrowDown" x="0" y="0" onmousedown="handlePan(0,1)"/>
  <use id="arrowleft" xlink:href="#arrowLeft" x="0" y="0" onmousedown="handlePan(-1,0)"/>
</g>
<svg viewBox="0 0 15 15" width="100%" height="30px" preserveAspectRatio="xMaxYMin meet">
 <g id="arrow_out" transform="scale(0.3 0.3)">
  <a xlink:href="iexif__reader_8hpp__dep__incl_org.svg" target="_base">
   <rect id="button" ry="5" rx="5" y="6" x="6" height="38" width="38"
        fill="#f2f5e9" fill-opacity="0.5" stroke="#606060" stroke-width="1.0"/>
   <path id="arrow"
     d="M 11.500037,31.436501 C 11.940474,20.09759 22.043105,11.32322 32.158766,21.979434 L 37.068811,17.246167 C 37.068811,17.246167 37.088388,32 37.088388,32 L 22.160133,31.978069 C 22.160133,31.978069 26.997745,27.140456 26.997745,27.140456 C 18.528582,18.264221 13.291696,25.230495 11.500037,31.436501 z"
     style="fill:#404040;"/>
  </a>
 </g>
</svg>

<style type='text/css'>
<![CDATA[
[data-mouse-over-selected='false'] { opacity: 0.7; }
[data-mouse-over-selected='true']  { opacity: 1.0; }
]]>
</style>
<script type="application/ecmascript"><![CDATA[
document.addEventListener('DOMContentLoaded', (event) => {
  highlightEdges();
  highlightAdjacentNodes();
});
]]></script>
</svg>
