<?xml version="1.0" encoding="UTF-8" standalone="no"?>
<!DOCTYPE svg PUBLIC "-//W3C//DTD SVG 1.1//EN"
 "http://www.w3.org/Graphics/SVG/1.1/DTD/svg11.dtd">
<!-- Generated by graphviz version 7.0.5 (20221223.1930)
 -->
<!-- Title: PhotosModelControllerComponent::markNewAsReviewed Pages: 1 -->
<svg width="372pt" height="86pt"
 viewBox="0.00 0.00 372.00 86.00" xmlns="http://www.w3.org/2000/svg" xmlns:xlink="http://www.w3.org/1999/xlink">
<g id="graph0" class="graph" transform="scale(1 1) rotate(0) translate(4 82)">
<title>PhotosModelControllerComponent::markNewAsReviewed</title>
<!-- Node1 -->
<g id="node1" class="node">
<title>Node1</title>
<g id="a_node1"><a xlink:title=" ">
<polygon fill="#999999" stroke="#666666" points="164,-54 0,-54 0,-24 164,-24 164,-54"/>
<text text-anchor="start" x="8" y="-42" font-family="Helvetica,sans-Serif" font-size="10.00">PhotosModelControllerComponent</text>
<text text-anchor="middle" x="82" y="-31" font-family="Helvetica,sans-Serif" font-size="10.00">::markNewAsReviewed</text>
</a>
</g>
</g>
<!-- Node2 -->
<g id="node2" class="node">
<title>Node2</title>
<g id="a_node2"><a xlink:href="../../d4/d9f/struct_database_1_1_i_database_thread.html#a6bdc1d4ea20d65caa82f4d732ead6830" target="_top" xlink:title=" ">
<polygon fill="#fff0f0" stroke="red" points="350.5,-78 213.5,-78 213.5,-48 350.5,-48 350.5,-78"/>
<text text-anchor="start" x="221.5" y="-66" font-family="Helvetica,sans-Serif" font-size="10.00">Database::IDatabaseThread</text>
<text text-anchor="middle" x="282" y="-55" font-family="Helvetica,sans-Serif" font-size="10.00">::exec</text>
</a>
</g>
</g>
<!-- Node1&#45;&gt;Node2 -->
<g id="edge1" class="edge">
<title>Node1&#45;&gt;Node2</title>
<path fill="none" stroke="#63b8ff" d="M164.39,-48.87C176.8,-50.37 189.6,-51.92 201.96,-53.42"/>
<polygon fill="#63b8ff" stroke="#63b8ff" points="201.32,-56.87 211.66,-54.6 202.16,-49.92 201.32,-56.87"/>
</g>
<!-- Node5 -->
<g id="node3" class="node">
<title>Node5</title>
<g id="a_node3"><a xlink:href="../../d2/d10/class_photos_model_controller_component.html#aa27d6c4f3ce129b777554aeadcc122b2" target="_top" xlink:title=" ">
<polygon fill="#fff0f0" stroke="red" points="364,-30 200,-30 200,0 364,0 364,-30"/>
<text text-anchor="start" x="208" y="-18" font-family="Helvetica,sans-Serif" font-size="10.00">PhotosModelControllerComponent</text>
<text text-anchor="middle" x="282" y="-7" font-family="Helvetica,sans-Serif" font-size="10.00">::markPhotosAsReviewed</text>
</a>
</g>
</g>
<!-- Node1&#45;&gt;Node5 -->
<g id="edge2" class="edge">
<title>Node1&#45;&gt;Node5</title>
<path fill="none" stroke="#63b8ff" d="M164.39,-29.13C172.29,-28.18 180.35,-27.2 188.35,-26.23"/>
<polygon fill="#63b8ff" stroke="#63b8ff" points="188.6,-29.73 198.1,-25.05 187.75,-22.78 188.6,-29.73"/>
</g>
</g>
</svg>
