<?xml version="1.0" encoding="UTF-8" standalone="no"?>
<!DOCTYPE svg PUBLIC "-//W3C//DTD SVG 1.1//EN"
 "http://www.w3.org/Graphics/SVG/1.1/DTD/svg11.dtd">
<!-- Generated by graphviz version 12.2.0 (20241103.1931)
 -->
<!-- Title: src/database/database_tools/implementation/series_detector.cpp Pages: 1 -->
<!--zoomable 172 -->

<svg id="main" version="1.1" xmlns="http://www.w3.org/2000/svg" xmlns:xlink="http://www.w3.org/1999/xlink" xml:space="preserve" onload="init(evt)">

<style type="text/css"><![CDATA[
.node, .edge {opacity: 0.7;}
.node.selected, .edge.selected {opacity: 1;}
.edge:hover path { stroke: red; }
.edge:hover polygon { stroke: red; fill: red; }
]]></style>

<defs>
  <circle id="rim" cx="0" cy="0" r="7"/>
  <circle id="rim2" cx="0" cy="0" r="3.5"/>
  <g id="zoomPlus">
    <use xlink:href="#rim" fill="#404040"><set attributeName="fill" to="#808080" begin="zoomplus.mouseover" end="zoomplus.mouseout"/></use>
    <path d="M-4,0h8M0,-4v8" fill="none" stroke="white" stroke-width="1.5" pointer-events="none"/>
  </g>
  <g id="zoomMin">
    <use xlink:href="#rim" fill="#404040"><set attributeName="fill" to="#808080" begin="zoomminus.mouseover" end="zoomminus.mouseout"/></use>
    <path d="M-4,0h8" fill="none" stroke="white" stroke-width="1.5" pointer-events="none"/>
  </g>
  <g id="arrowUp" transform="translate(30 24)">
    <use xlink:href="#rim"/>
    <path pointer-events="none" fill="none" stroke="white" stroke-width="1.5" d="M0,-3.0v7 M-2.5,-0.5L0,-3.0L2.5,-0.5"/>
  </g>
  <g id="arrowRight" transform="rotate(90) translate(36 -43)">
    <use xlink:href="#rim"/>
    <path pointer-events="none" fill="none" stroke="white" stroke-width="1.5" d="M0,-3.0v7 M-2.5,-0.5L0,-3.0L2.5,-0.5"/>
  </g>
  <g id="arrowDown" transform="rotate(180) translate(-30 -48)">
    <use xlink:href="#rim"/>
    <path pointer-events="none" fill="none" stroke="white" stroke-width="1.5" d="M0,-3.0v7 M-2.5,-0.5L0,-3.0L2.5,-0.5"/>
  </g>
  <g id="arrowLeft" transform="rotate(270) translate(-36 17)">
    <use xlink:href="#rim"/>
    <path pointer-events="none" fill="none" stroke="white" stroke-width="1.5" d="M0,-3.0v7 M-2.5,-0.5L0,-3.0L2.5,-0.5"/>
  </g>
  <g id="resetDef">
    <use xlink:href="#rim2" fill="#404040"><set attributeName="fill" to="#808080" begin="reset.mouseover" end="reset.mouseout"/></use>
  </g>
</defs>
<script type="application/ecmascript">
var viewWidth = 1247;
var viewHeight = 172;
var sectionId = 'dynsection-0';
</script>
<script type="application/ecmascript" xlink:href="../../svg.min.js"/>
<svg id="graph" class="graph">
<g id="viewport">
<title>src/database/database_tools/implementation/series_detector.cpp</title>
<!-- Node1 -->
<g id="Node000001" class="node">
<title>Node1</title>
<g id="a_Node000001"><a xlink:title=" ">
<polygon fill="#999999" stroke="#666666" points="612.25,-163.5 497.25,-163.5 497.25,-121.75 612.25,-121.75 612.25,-163.5"/>
<text text-anchor="start" x="505.25" y="-150" font-family="Helvetica,sans-Serif" font-size="10.00">src/database/database</text>
<text text-anchor="start" x="505.25" y="-138.75" font-family="Helvetica,sans-Serif" font-size="10.00">_tools/implementation</text>
<text text-anchor="middle" x="554.75" y="-127.5" font-family="Helvetica,sans-Serif" font-size="10.00">/series_detector.cpp</text>
</a>
</g>
</g>
<!-- Node2 -->
<g id="Node000002" class="node">
<title>Node2</title>
<g id="a_Node000002"><a xlink:title=" ">
<polygon fill="#e0e0e0" stroke="#999999" points="77.5,-85.75 0,-85.75 0,-66.5 77.5,-66.5 77.5,-85.75"/>
<text text-anchor="middle" x="38.75" y="-72.25" font-family="Helvetica,sans-Serif" font-size="10.00">unordered_set</text>
</a>
</g>
</g>
<!-- Node1&#45;&gt;Node2 -->
<g id="edge1_Node000001_Node000002" class="edge">
<title>Node1&#45;&gt;Node2</title>
<g id="a_edge1_Node000001_Node000002"><a xlink:title=" ">
<path fill="none" stroke="#63b8ff" d="M496.96,-135.83C410.52,-126.93 242.17,-108.64 88.77,-85.97"/>
<polygon fill="#63b8ff" stroke="#63b8ff" points="89.65,-82.56 79.25,-84.55 88.62,-89.49 89.65,-82.56"/>
</a>
</g>
</g>
<!-- Node3 -->
<g id="Node000003" class="node">
<title>Node3</title>
<g id="a_Node000003"><a xlink:title=" ">
<polygon fill="#e0e0e0" stroke="#999999" points="153.75,-85.75 95.75,-85.75 95.75,-66.5 153.75,-66.5 153.75,-85.75"/>
<text text-anchor="middle" x="124.75" y="-72.25" font-family="Helvetica,sans-Serif" font-size="10.00">functional</text>
</a>
</g>
</g>
<!-- Node1&#45;&gt;Node3 -->
<g id="edge2_Node000001_Node000003" class="edge">
<title>Node1&#45;&gt;Node3</title>
<g id="a_edge2_Node000001_Node000003"><a xlink:title=" ">
<path fill="none" stroke="#63b8ff" d="M497.05,-134.9C422.64,-125.89 289.01,-108.59 165.33,-86.1"/>
<polygon fill="#63b8ff" stroke="#63b8ff" points="166.12,-82.69 155.65,-84.32 164.85,-89.57 166.12,-82.69"/>
</a>
</g>
</g>
<!-- Node4 -->
<g id="Node000004" class="node">
<title>Node4</title>
<g id="a_Node000004"><a xlink:title=" ">
<polygon fill="#e0e0e0" stroke="#999999" points="237.5,-85.75 172,-85.75 172,-66.5 237.5,-66.5 237.5,-85.75"/>
<text text-anchor="middle" x="204.75" y="-72.25" font-family="Helvetica,sans-Serif" font-size="10.00">QDateTime</text>
</a>
</g>
</g>
<!-- Node1&#45;&gt;Node4 -->
<g id="edge3_Node000001_Node000004" class="edge">
<title>Node1&#45;&gt;Node4</title>
<g id="a_edge3_Node000001_Node000004"><a xlink:title=" ">
<path fill="none" stroke="#63b8ff" d="M496.85,-131.66C437.12,-121.27 340.97,-104.23 249.04,-86.36"/>
<polygon fill="#63b8ff" stroke="#63b8ff" points="249.82,-82.94 239.34,-84.46 248.48,-89.81 249.82,-82.94"/>
</a>
</g>
</g>
<!-- Node5 -->
<g id="Node000005" class="node">
<title>Node5</title>
<g id="a_Node000005"><a xlink:href="../../df/d6f/iexif__reader_8hpp.html" target="_top" xlink:title=" ">
<polygon fill="#fff0f0" stroke="red" points="360.38,-85.75 255.12,-85.75 255.12,-66.5 360.38,-66.5 360.38,-85.75"/>
<text text-anchor="middle" x="307.75" y="-72.25" font-family="Helvetica,sans-Serif" font-size="10.00">core/iexif_reader.hpp</text>
</a>
</g>
</g>
<!-- Node1&#45;&gt;Node5 -->
<g id="edge4_Node000001_Node000005" class="edge">
<title>Node1&#45;&gt;Node5</title>
<g id="a_edge4_Node000001_Node000005"><a xlink:title=" ">
<path fill="none" stroke="#63b8ff" d="M496.84,-126.5C453.14,-115.09 394.01,-99.65 353.57,-89.09"/>
<polygon fill="#63b8ff" stroke="#63b8ff" points="354.46,-85.71 343.9,-86.57 352.69,-92.48 354.46,-85.71"/>
</a>
</g>
</g>
<!-- Node18 -->
<g id="Node000018" class="node">
<title>Node18</title>
<g id="a_Node000018"><a xlink:href="../../db/ddc/media__types_8hpp.html" target="_top" xlink:title=" ">
<polygon fill="#fff0f0" stroke="red" points="489,-85.75 378.5,-85.75 378.5,-66.5 489,-66.5 489,-85.75"/>
<text text-anchor="middle" x="433.75" y="-72.25" font-family="Helvetica,sans-Serif" font-size="10.00">core/media_types.hpp</text>
</a>
</g>
</g>
<!-- Node1&#45;&gt;Node18 -->
<g id="edge5_Node000001_Node000018" class="edge">
<title>Node1&#45;&gt;Node18</title>
<g id="a_edge5_Node000001_Node000018"><a xlink:title=" ">
<path fill="none" stroke="#63b8ff" d="M516.8,-121.39C498.6,-111.7 477.24,-100.31 460.73,-91.51"/>
<polygon fill="#63b8ff" stroke="#63b8ff" points="462.48,-88.47 452.01,-86.86 459.18,-94.65 462.48,-88.47"/>
</a>
</g>
</g>
<!-- Node19 -->
<g id="Node000019" class="node">
<title>Node19</title>
<g id="a_Node000019"><a xlink:href="../../d4/d20/task__executor__utils_8hpp.html" target="_top" xlink:title=" ">
<polygon fill="#fff0f0" stroke="red" points="778,-30.5 679.5,-30.5 679.5,0 778,0 778,-30.5"/>
<text text-anchor="start" x="687.5" y="-17" font-family="Helvetica,sans-Serif" font-size="10.00">core/task_executor</text>
<text text-anchor="middle" x="728.75" y="-5.75" font-family="Helvetica,sans-Serif" font-size="10.00">_utils.hpp</text>
</a>
</g>
</g>
<!-- Node1&#45;&gt;Node19 -->
<g id="edge6_Node000001_Node000019" class="edge">
<title>Node1&#45;&gt;Node19</title>
<g id="a_edge6_Node000001_Node000019"><a xlink:title=" ">
<path fill="none" stroke="#63b8ff" d="M541.14,-121.54C531.94,-105.21 523.49,-82.36 535.75,-66.5 551.94,-45.55 617.67,-31.7 667.96,-23.94"/>
<polygon fill="#63b8ff" stroke="#63b8ff" points="668.21,-27.44 677.59,-22.51 667.18,-20.52 668.21,-27.44"/>
</a>
</g>
</g>
<!-- Node29 -->
<g id="Node000029" class="node">
<title>Node29</title>
<g id="a_Node000029"><a xlink:href="../../df/d0c/tags__utils_8hpp.html" target="_top" xlink:title=" ">
<polygon fill="#fff0f0" stroke="red" points="642.62,-85.75 544.88,-85.75 544.88,-66.5 642.62,-66.5 642.62,-85.75"/>
<text text-anchor="middle" x="593.75" y="-72.25" font-family="Helvetica,sans-Serif" font-size="10.00">core/tags_utils.hpp</text>
</a>
</g>
</g>
<!-- Node1&#45;&gt;Node29 -->
<g id="edge7_Node000001_Node000029" class="edge">
<title>Node1&#45;&gt;Node29</title>
<g id="a_edge7_Node000001_Node000029"><a xlink:title=" ">
<path fill="none" stroke="#63b8ff" d="M566.88,-121.57C571.85,-113.34 577.58,-103.87 582.46,-95.79"/>
<polygon fill="#63b8ff" stroke="#63b8ff" points="585.3,-97.86 587.48,-87.49 579.31,-94.24 585.3,-97.86"/>
</a>
</g>
</g>
<!-- Node30 -->
<g id="Node000030" class="node">
<title>Node30</title>
<g id="a_Node000030"><a xlink:href="../../da/d2a/ibackend_8hpp.html" target="_top" xlink:title=" ">
<polygon fill="#fff0f0" stroke="red" points="733.25,-85.75 660.25,-85.75 660.25,-66.5 733.25,-66.5 733.25,-85.75"/>
<text text-anchor="middle" x="696.75" y="-72.25" font-family="Helvetica,sans-Serif" font-size="10.00">ibackend.hpp</text>
</a>
</g>
</g>
<!-- Node1&#45;&gt;Node30 -->
<g id="edge8_Node000001_Node000030" class="edge">
<title>Node1&#45;&gt;Node30</title>
<g id="a_edge8_Node000001_Node000030"><a xlink:title=" ">
<path fill="none" stroke="#63b8ff" d="M599.29,-121.39C621.15,-111.46 646.91,-99.76 666.46,-90.88"/>
<polygon fill="#63b8ff" stroke="#63b8ff" points="667.86,-94.09 675.52,-86.77 664.96,-87.72 667.86,-94.09"/>
</a>
</g>
</g>
<!-- Node58 -->
<g id="Node000058" class="node">
<title>Node58</title>
<g id="a_Node000058"><a xlink:href="../../d4/d3c/iphoto__operator_8hpp.html" target="_top" xlink:title=" ">
<polygon fill="#fff0f0" stroke="red" points="852.12,-85.75 751.38,-85.75 751.38,-66.5 852.12,-66.5 852.12,-85.75"/>
<text text-anchor="middle" x="801.75" y="-72.25" font-family="Helvetica,sans-Serif" font-size="10.00">iphoto_operator.hpp</text>
</a>
</g>
</g>
<!-- Node1&#45;&gt;Node58 -->
<g id="edge9_Node000001_Node000058" class="edge">
<title>Node1&#45;&gt;Node58</title>
<g id="a_edge9_Node000001_Node000058"><a xlink:title=" ">
<path fill="none" stroke="#63b8ff" d="M612.66,-126.5C656.36,-115.09 715.49,-99.65 755.93,-89.09"/>
<polygon fill="#63b8ff" stroke="#63b8ff" points="756.81,-92.48 765.6,-86.57 755.04,-85.71 756.81,-92.48"/>
</a>
</g>
</g>
<!-- Node62 -->
<g id="Node000062" class="node">
<title>Node62</title>
<g id="a_Node000062"><a xlink:href="../../dc/de9/database__executor__traits_8hpp.html" target="_top" xlink:title=" ">
<polygon fill="#fff0f0" stroke="red" points="1013.12,-85.75 870.38,-85.75 870.38,-66.5 1013.12,-66.5 1013.12,-85.75"/>
<text text-anchor="middle" x="941.75" y="-72.25" font-family="Helvetica,sans-Serif" font-size="10.00">database_executor_traits.hpp</text>
</a>
</g>
</g>
<!-- Node1&#45;&gt;Node62 -->
<g id="edge10_Node000001_Node000062" class="edge">
<title>Node1&#45;&gt;Node62</title>
<g id="a_edge10_Node000001_Node000062"><a xlink:title=" ">
<path fill="none" stroke="#63b8ff" d="M612.69,-131.97C683.29,-120.2 802.27,-100.37 876.16,-88.06"/>
<polygon fill="#63b8ff" stroke="#63b8ff" points="876.39,-91.57 885.68,-86.47 875.24,-84.66 876.39,-91.57"/>
</a>
</g>
</g>
<!-- Node65 -->
<g id="Node000065" class="node">
<title>Node65</title>
<g id="a_Node000065"><a xlink:href="../../d9/d71/series__detector_8hpp.html" target="_top" xlink:title=" ">
<polygon fill="#fff0f0" stroke="red" points="1139.88,-85.75 1031.62,-85.75 1031.62,-66.5 1139.88,-66.5 1139.88,-85.75"/>
<text text-anchor="middle" x="1085.75" y="-72.25" font-family="Helvetica,sans-Serif" font-size="10.00">../series_detector.hpp</text>
</a>
</g>
</g>
<!-- Node1&#45;&gt;Node65 -->
<g id="edge12_Node000001_Node000065" class="edge">
<title>Node1&#45;&gt;Node65</title>
<g id="a_edge12_Node000001_Node000065"><a xlink:title=" ">
<path fill="none" stroke="#63b8ff" d="M612.66,-134.98C698.89,-125.02 866.44,-105.42 1020.24,-85.92"/>
<polygon fill="#63b8ff" stroke="#63b8ff" points="1020.31,-89.44 1029.79,-84.71 1019.43,-82.5 1020.31,-89.44"/>
</a>
</g>
</g>
<!-- Node70 -->
<g id="Node000070" class="node">
<title>Node70</title>
<g id="a_Node000070"><a xlink:href="../../da/d1a/photo__utils_8hpp.html" target="_top" xlink:title=" ">
<polygon fill="#fff0f0" stroke="red" points="1239.38,-85.75 1158.12,-85.75 1158.12,-66.5 1239.38,-66.5 1239.38,-85.75"/>
<text text-anchor="middle" x="1198.75" y="-72.25" font-family="Helvetica,sans-Serif" font-size="10.00">photo_utils.hpp</text>
</a>
</g>
</g>
<!-- Node1&#45;&gt;Node70 -->
<g id="edge13_Node000001_Node000070" class="edge">
<title>Node1&#45;&gt;Node70</title>
<g id="a_edge13_Node000001_Node000070"><a xlink:title=" ">
<path fill="none" stroke="#63b8ff" d="M612.68,-137.67C717.2,-130.2 944.49,-112.47 1146.72,-85.92"/>
<polygon fill="#63b8ff" stroke="#63b8ff" points="1146.9,-89.42 1156.36,-84.64 1145.99,-82.48 1146.9,-89.42"/>
</a>
</g>
</g>
<!-- Node62&#45;&gt;Node19 -->
<g id="edge11_Node000062_Node000019" class="edge">
<title>Node62&#45;&gt;Node19</title>
<g id="a_edge11_Node000062_Node000019"><a xlink:title=" ">
<path fill="none" stroke="#63b8ff" d="M908.94,-66.05C877.04,-57.24 827.86,-43.64 788.93,-32.88"/>
<polygon fill="#63b8ff" stroke="#63b8ff" points="790.27,-29.62 779.7,-30.33 788.41,-36.37 790.27,-29.62"/>
</a>
</g>
</g>
</g>
</svg>

<g id="navigator" transform="translate(0 0)" fill="#404254">
  <rect fill="#f2f5e9" fill-opacity="0.5" stroke="#606060" stroke-width=".5" x="0" y="0" width="60" height="60"/>
  <use id="zoomplus" xlink:href="#zoomPlus" x="17" y="9" onmousedown="handleZoom(evt,'in')"/>
  <use id="zoomminus" xlink:href="#zoomMin" x="42" y="9" onmousedown="handleZoom(evt,'out')"/>
  <use id="reset" xlink:href="#resetDef" x="30" y="36" onmousedown="handleReset()"/>
   <use id="arrowup" xlink:href="#arrowUp" x="0" y="0" onmousedown="handlePan(0,-1)"/>
  <use id="arrowright" xlink:href="#arrowRight" x="0" y="0" onmousedown="handlePan(1,0)"/>
  <use id="arrowdown" xlink:href="#arrowDown" x="0" y="0" onmousedown="handlePan(0,1)"/>
  <use id="arrowleft" xlink:href="#arrowLeft" x="0" y="0" onmousedown="handlePan(-1,0)"/>
</g>
<svg viewBox="0 0 15 15" width="100%" height="30px" preserveAspectRatio="xMaxYMin meet">
 <g id="arrow_out" transform="scale(0.3 0.3)">
  <a xlink:href="series__detector_8cpp__incl_org.svg" target="_base">
   <rect id="button" ry="5" rx="5" y="6" x="6" height="38" width="38"
        fill="#f2f5e9" fill-opacity="0.5" stroke="#606060" stroke-width="1.0"/>
   <path id="arrow"
     d="M 11.500037,31.436501 C 11.940474,20.09759 22.043105,11.32322 32.158766,21.979434 L 37.068811,17.246167 C 37.068811,17.246167 37.088388,32 37.088388,32 L 22.160133,31.978069 C 22.160133,31.978069 26.997745,27.140456 26.997745,27.140456 C 18.528582,18.264221 13.291696,25.230495 11.500037,31.436501 z"
     style="fill:#404040;"/>
  </a>
 </g>
</svg>

<style type='text/css'>
<![CDATA[
[data-mouse-over-selected='false'] { opacity: 0.7; }
[data-mouse-over-selected='true']  { opacity: 1.0; }
]]>
</style>
<script type="application/ecmascript"><![CDATA[
document.addEventListener('DOMContentLoaded', (event) => {
  highlightEdges();
  highlightAdjacentNodes();
});
]]></script>
</svg>
