<?xml version="1.0" encoding="UTF-8" standalone="no"?>
<!DOCTYPE svg PUBLIC "-//W3C//DTD SVG 1.1//EN"
 "http://www.w3.org/Graphics/SVG/1.1/DTD/svg11.dtd">
<!-- Generated by graphviz version 7.0.5 (20221223.1930)
 -->
<!-- Title: Database::AsyncDatabase::init Pages: 1 -->
<svg width="306pt" height="134pt"
 viewBox="0.00 0.00 306.00 134.00" xmlns="http://www.w3.org/2000/svg" xmlns:xlink="http://www.w3.org/1999/xlink">
<g id="graph0" class="graph" transform="scale(1 1) rotate(0) translate(4 130)">
<title>Database::AsyncDatabase::init</title>
<!-- Node1 -->
<g id="node1" class="node">
<title>Node1</title>
<g id="a_node1"><a xlink:title=" ">
<polygon fill="#999999" stroke="#666666" points="131,-78 0,-78 0,-48 131,-48 131,-78"/>
<text text-anchor="start" x="8" y="-66" font-family="Helvetica,sans-Serif" font-size="10.00">Database::AsyncDatabase</text>
<text text-anchor="middle" x="65.5" y="-55" font-family="Helvetica,sans-Serif" font-size="10.00">::init</text>
</a>
</g>
</g>
<!-- Node2 -->
<g id="node2" class="node">
<title>Node2</title>
<g id="a_node2"><a xlink:href="../../dc/dc0/class_database_1_1_async_database.html#a6df600dff90daad131f27763f0ff21d7" target="_top" xlink:title=" ">
<polygon fill="white" stroke="#666666" points="298,-126 167,-126 167,-96 298,-96 298,-126"/>
<text text-anchor="start" x="175" y="-114" font-family="Helvetica,sans-Serif" font-size="10.00">Database::AsyncDatabase</text>
<text text-anchor="middle" x="232.5" y="-103" font-family="Helvetica,sans-Serif" font-size="10.00">::backend</text>
</a>
</g>
</g>
<!-- Node1&#45;&gt;Node2 -->
<g id="edge1" class="edge">
<title>Node1&#45;&gt;Node2</title>
<path fill="none" stroke="#63b8ff" d="M119.62,-78.45C134.92,-82.91 151.79,-87.81 167.67,-92.43"/>
<polygon fill="#63b8ff" stroke="#63b8ff" points="166.45,-95.72 177.03,-95.15 168.41,-89 166.45,-95.72"/>
</g>
<!-- Node3 -->
<g id="node3" class="node">
<title>Node3</title>
<g id="a_node3"><a xlink:href="../../d7/da9/struct_database_1_1_i_database.html#ac86cb641a8f5a37a00873df333bb12bb" target="_top" xlink:title=" ">
<polygon fill="#fff0f0" stroke="red" points="286,-78 179,-78 179,-48 286,-48 286,-78"/>
<text text-anchor="start" x="187" y="-66" font-family="Helvetica,sans-Serif" font-size="10.00">Database::IDatabase</text>
<text text-anchor="middle" x="232.5" y="-55" font-family="Helvetica,sans-Serif" font-size="10.00">::exec</text>
</a>
</g>
</g>
<!-- Node1&#45;&gt;Node3 -->
<g id="edge2" class="edge">
<title>Node1&#45;&gt;Node3</title>
<path fill="none" stroke="#63b8ff" d="M131.24,-63C143.14,-63 155.57,-63 167.45,-63"/>
<polygon fill="#63b8ff" stroke="#63b8ff" points="167.13,-66.5 177.13,-63 167.13,-59.5 167.13,-66.5"/>
</g>
<!-- Node6 -->
<g id="node4" class="node">
<title>Node6</title>
<g id="a_node4"><a xlink:href="../../d2/ddd/struct_database_1_1_i_backend.html#a13efb3e12e45bb91857edc7db3328466" target="_top" xlink:title="init backend &#45; connect to database or create new one">
<polygon fill="white" stroke="#666666" points="284.5,-30 180.5,-30 180.5,0 284.5,0 284.5,-30"/>
<text text-anchor="start" x="188.5" y="-18" font-family="Helvetica,sans-Serif" font-size="10.00">Database::IBackend</text>
<text text-anchor="middle" x="232.5" y="-7" font-family="Helvetica,sans-Serif" font-size="10.00">::init</text>
</a>
</g>
</g>
<!-- Node1&#45;&gt;Node6 -->
<g id="edge3" class="edge">
<title>Node1&#45;&gt;Node6</title>
<path fill="none" stroke="#63b8ff" d="M119.62,-47.55C135.54,-42.92 153.13,-37.8 169.57,-33.02"/>
<polygon fill="#63b8ff" stroke="#63b8ff" points="170.1,-36.51 178.72,-30.35 168.14,-29.79 170.1,-36.51"/>
</g>
</g>
</svg>
