<?xml version="1.0" encoding="UTF-8" standalone="no"?>
<!DOCTYPE svg PUBLIC "-//W3C//DTD SVG 1.1//EN"
 "http://www.w3.org/Graphics/SVG/1.1/DTD/svg11.dtd">
<!-- Generated by graphviz version 12.2.0 (20241103.1931)
 -->
<!-- Title: src/gui/desktop/ui_utils/completer_factory.cpp Pages: 1 -->
<!--zoomable 216 -->

<svg id="main" version="1.1" xmlns="http://www.w3.org/2000/svg" xmlns:xlink="http://www.w3.org/1999/xlink" xml:space="preserve" onload="init(evt)">

<style type="text/css"><![CDATA[
.node, .edge {opacity: 0.7;}
.node.selected, .edge.selected {opacity: 1;}
.edge:hover path { stroke: red; }
.edge:hover polygon { stroke: red; fill: red; }
]]></style>

<defs>
  <circle id="rim" cx="0" cy="0" r="7"/>
  <circle id="rim2" cx="0" cy="0" r="3.5"/>
  <g id="zoomPlus">
    <use xlink:href="#rim" fill="#404040"><set attributeName="fill" to="#808080" begin="zoomplus.mouseover" end="zoomplus.mouseout"/></use>
    <path d="M-4,0h8M0,-4v8" fill="none" stroke="white" stroke-width="1.5" pointer-events="none"/>
  </g>
  <g id="zoomMin">
    <use xlink:href="#rim" fill="#404040"><set attributeName="fill" to="#808080" begin="zoomminus.mouseover" end="zoomminus.mouseout"/></use>
    <path d="M-4,0h8" fill="none" stroke="white" stroke-width="1.5" pointer-events="none"/>
  </g>
  <g id="arrowUp" transform="translate(30 24)">
    <use xlink:href="#rim"/>
    <path pointer-events="none" fill="none" stroke="white" stroke-width="1.5" d="M0,-3.0v7 M-2.5,-0.5L0,-3.0L2.5,-0.5"/>
  </g>
  <g id="arrowRight" transform="rotate(90) translate(36 -43)">
    <use xlink:href="#rim"/>
    <path pointer-events="none" fill="none" stroke="white" stroke-width="1.5" d="M0,-3.0v7 M-2.5,-0.5L0,-3.0L2.5,-0.5"/>
  </g>
  <g id="arrowDown" transform="rotate(180) translate(-30 -48)">
    <use xlink:href="#rim"/>
    <path pointer-events="none" fill="none" stroke="white" stroke-width="1.5" d="M0,-3.0v7 M-2.5,-0.5L0,-3.0L2.5,-0.5"/>
  </g>
  <g id="arrowLeft" transform="rotate(270) translate(-36 17)">
    <use xlink:href="#rim"/>
    <path pointer-events="none" fill="none" stroke="white" stroke-width="1.5" d="M0,-3.0v7 M-2.5,-0.5L0,-3.0L2.5,-0.5"/>
  </g>
  <g id="resetDef">
    <use xlink:href="#rim2" fill="#404040"><set attributeName="fill" to="#808080" begin="reset.mouseover" end="reset.mouseout"/></use>
  </g>
</defs>
<script type="application/ecmascript">
var viewWidth = 692;
var viewHeight = 216;
var sectionId = 'dynsection-0';
</script>
<script type="application/ecmascript" xlink:href="../../svg.min.js"/>
<svg id="graph" class="graph">
<g id="viewport">
<title>src/gui/desktop/ui_utils/completer_factory.cpp</title>
<!-- Node1 -->
<g id="Node000001" class="node">
<title>Node1</title>
<g id="a_Node000001"><a xlink:title=" ">
<polygon fill="#999999" stroke="#666666" points="308.38,-207.5 170.88,-207.5 170.88,-177 308.38,-177 308.38,-207.5"/>
<text text-anchor="start" x="178.88" y="-194" font-family="Helvetica,sans-Serif" font-size="10.00">src/gui/desktop/ui</text>
<text text-anchor="middle" x="239.62" y="-182.75" font-family="Helvetica,sans-Serif" font-size="10.00">_utils/completer_factory.cpp</text>
</a>
</g>
</g>
<!-- Node2 -->
<g id="Node000002" class="node">
<title>Node2</title>
<g id="a_Node000002"><a xlink:href="../../de/d29/completer__factory_8hpp.html" target="_top" xlink:title=" ">
<polygon fill="#fff0f0" stroke="red" points="111.25,-141 0,-141 0,-121.75 111.25,-121.75 111.25,-141"/>
<text text-anchor="middle" x="55.62" y="-127.5" font-family="Helvetica,sans-Serif" font-size="10.00">completer_factory.hpp</text>
</a>
</g>
</g>
<!-- Node1&#45;&gt;Node2 -->
<g id="edge1_Node000001_Node000002" class="edge">
<title>Node1&#45;&gt;Node2</title>
<g id="a_edge1_Node000001_Node000002"><a xlink:title=" ">
<path fill="none" stroke="#63b8ff" d="M193.67,-176.55C163.32,-166.83 123.95,-154.24 95.03,-144.98"/>
<polygon fill="#63b8ff" stroke="#63b8ff" points="96.15,-141.67 85.56,-141.95 94.01,-148.33 96.15,-141.67"/>
</a>
</g>
</g>
<!-- Node14 -->
<g id="Node000014" class="node">
<title>Node14</title>
<g id="a_Node000014"><a xlink:href="../../df/d46/tag__info__collector_8hpp.html" target="_top" xlink:title=" ">
<polygon fill="#fff0f0" stroke="red" points="150,-85.75 25.25,-85.75 25.25,-55.25 150,-55.25 150,-85.75"/>
<text text-anchor="start" x="33.25" y="-72.25" font-family="Helvetica,sans-Serif" font-size="10.00">database/database_tools</text>
<text text-anchor="middle" x="87.62" y="-61" font-family="Helvetica,sans-Serif" font-size="10.00">/tag_info_collector.hpp</text>
</a>
</g>
</g>
<!-- Node1&#45;&gt;Node14 -->
<g id="edge8_Node000001_Node000014" class="edge">
<title>Node1&#45;&gt;Node14</title>
<g id="a_edge8_Node000001_Node000014"><a xlink:title=" ">
<path fill="none" stroke="#63b8ff" d="M215.34,-176.56C200.08,-167 180.21,-153.94 163.62,-141 144.77,-126.29 124.87,-107.98 110.17,-93.85"/>
<polygon fill="#63b8ff" stroke="#63b8ff" points="112.85,-91.58 103.24,-87.12 107.98,-96.6 112.85,-91.58"/>
</a>
</g>
</g>
<!-- Node16 -->
<g id="Node000016" class="node">
<title>Node16</title>
<g id="a_Node000016"><a xlink:href="../../d7/dfc/ilogger_8hpp.html" target="_top" xlink:title=" ">
<polygon fill="#fff0f0" stroke="red" points="174.75,-19.25 90.5,-19.25 90.5,0 174.75,0 174.75,-19.25"/>
<text text-anchor="middle" x="132.62" y="-5.75" font-family="Helvetica,sans-Serif" font-size="10.00">core/ilogger.hpp</text>
</a>
</g>
</g>
<!-- Node1&#45;&gt;Node16 -->
<g id="edge6_Node000001_Node000016" class="edge">
<title>Node1&#45;&gt;Node16</title>
<g id="a_edge6_Node000001_Node000016"><a xlink:title=" ">
<path fill="none" stroke="#63b8ff" d="M225.23,-176.76C216.23,-167.17 204.83,-154.02 196.62,-141 174.39,-105.74 177.59,-92.37 158.62,-55.25 154.19,-46.58 148.84,-37.23 144.15,-29.34"/>
<polygon fill="#63b8ff" stroke="#63b8ff" points="147.26,-27.73 139.09,-20.99 141.27,-31.35 147.26,-27.73"/>
</a>
</g>
</g>
<!-- Node29 -->
<g id="Node000029" class="node">
<title>Node29</title>
<g id="a_Node000029"><a xlink:title=" ">
<polygon fill="#e0e0e0" stroke="#999999" points="273.5,-141 205.75,-141 205.75,-121.75 273.5,-121.75 273.5,-141"/>
<text text-anchor="middle" x="239.62" y="-127.5" font-family="Helvetica,sans-Serif" font-size="10.00">QCompleter</text>
</a>
</g>
</g>
<!-- Node1&#45;&gt;Node29 -->
<g id="edge4_Node000001_Node000029" class="edge">
<title>Node1&#45;&gt;Node29</title>
<g id="a_edge4_Node000001_Node000029"><a xlink:title=" ">
<path fill="none" stroke="#63b8ff" d="M239.62,-176.7C239.62,-169.46 239.62,-160.59 239.62,-152.69"/>
<polygon fill="#63b8ff" stroke="#63b8ff" points="243.13,-152.96 239.63,-142.96 236.13,-152.96 243.13,-152.96"/>
</a>
</g>
</g>
<!-- Node30 -->
<g id="Node000030" class="node">
<title>Node30</title>
<g id="a_Node000030"><a xlink:title=" ">
<polygon fill="#e0e0e0" stroke="#999999" points="383.5,-141 291.75,-141 291.75,-121.75 383.5,-121.75 383.5,-141"/>
<text text-anchor="middle" x="337.62" y="-127.5" font-family="Helvetica,sans-Serif" font-size="10.00">QStringListModel</text>
</a>
</g>
</g>
<!-- Node1&#45;&gt;Node30 -->
<g id="edge5_Node000001_Node000030" class="edge">
<title>Node1&#45;&gt;Node30</title>
<g id="a_edge5_Node000001_Node000030"><a xlink:title=" ">
<path fill="none" stroke="#63b8ff" d="M264.1,-176.55C279.03,-167.58 298.04,-156.16 312.99,-147.17"/>
<polygon fill="#63b8ff" stroke="#63b8ff" points="314.53,-150.33 321.3,-142.18 310.92,-144.33 314.53,-150.33"/>
</a>
</g>
</g>
<!-- Node31 -->
<g id="Node000031" class="node">
<title>Node31</title>
<g id="a_Node000031"><a xlink:href="../../d5/d1f/model__compositor_8hpp.html" target="_top" xlink:title=" ">
<polygon fill="#fff0f0" stroke="red" points="537.25,-141 402,-141 402,-121.75 537.25,-121.75 537.25,-141"/>
<text text-anchor="middle" x="469.62" y="-127.5" font-family="Helvetica,sans-Serif" font-size="10.00">core/model_compositor.hpp</text>
</a>
</g>
</g>
<!-- Node1&#45;&gt;Node31 -->
<g id="edge7_Node000001_Node000031" class="edge">
<title>Node1&#45;&gt;Node31</title>
<g id="a_edge7_Node000001_Node000031"><a xlink:title=" ">
<path fill="none" stroke="#63b8ff" d="M297.07,-176.55C336.02,-166.58 386.83,-153.57 423.22,-144.25"/>
<polygon fill="#63b8ff" stroke="#63b8ff" points="423.73,-147.74 432.55,-141.87 421.99,-140.96 423.73,-147.74"/>
</a>
</g>
</g>
<!-- Node33 -->
<g id="Node000033" class="node">
<title>Node33</title>
<g id="a_Node000033"><a xlink:href="../../da/d9f/tag__value__model_8hpp.html" target="_top" xlink:title=" ">
<polygon fill="#fff0f0" stroke="red" points="683.88,-141 555.38,-141 555.38,-121.75 683.88,-121.75 683.88,-141"/>
<text text-anchor="middle" x="619.62" y="-127.5" font-family="Helvetica,sans-Serif" font-size="10.00">utils/tag_value_model.hpp</text>
</a>
</g>
</g>
<!-- Node1&#45;&gt;Node33 -->
<g id="edge9_Node000001_Node000033" class="edge">
<title>Node1&#45;&gt;Node33</title>
<g id="a_edge9_Node000001_Node000033"><a xlink:title=" ">
<path fill="none" stroke="#63b8ff" d="M308.44,-180.59C376.82,-169.99 481.13,-153.83 549.85,-143.19"/>
<polygon fill="#63b8ff" stroke="#63b8ff" points="550.14,-146.68 559.48,-141.69 549.06,-139.77 550.14,-146.68"/>
</a>
</g>
</g>
<!-- Node2&#45;&gt;Node14 -->
<g id="edge2_Node000002_Node000014" class="edge">
<title>Node2&#45;&gt;Node14</title>
<g id="a_edge2_Node000002_Node000014"><a xlink:title=" ">
<path fill="none" stroke="#63b8ff" d="M60.49,-121.43C64.15,-114.68 69.38,-105.08 74.26,-96.09"/>
<polygon fill="#63b8ff" stroke="#63b8ff" points="77.3,-97.82 79,-87.36 71.15,-94.48 77.3,-97.82"/>
</a>
</g>
</g>
<!-- Node14&#45;&gt;Node16 -->
<g id="edge3_Node000014_Node000016" class="edge">
<title>Node14&#45;&gt;Node16</title>
<g id="a_edge3_Node000014_Node000016"><a xlink:title=" ">
<path fill="none" stroke="#63b8ff" d="M98.75,-54.95C104.81,-47.02 112.37,-37.13 118.8,-28.71"/>
<polygon fill="#63b8ff" stroke="#63b8ff" points="121.48,-30.97 124.77,-20.9 115.92,-26.72 121.48,-30.97"/>
</a>
</g>
</g>
</g>
</svg>

<g id="navigator" transform="translate(0 0)" fill="#404254">
  <rect fill="#f2f5e9" fill-opacity="0.5" stroke="#606060" stroke-width=".5" x="0" y="0" width="60" height="60"/>
  <use id="zoomplus" xlink:href="#zoomPlus" x="17" y="9" onmousedown="handleZoom(evt,'in')"/>
  <use id="zoomminus" xlink:href="#zoomMin" x="42" y="9" onmousedown="handleZoom(evt,'out')"/>
  <use id="reset" xlink:href="#resetDef" x="30" y="36" onmousedown="handleReset()"/>
   <use id="arrowup" xlink:href="#arrowUp" x="0" y="0" onmousedown="handlePan(0,-1)"/>
  <use id="arrowright" xlink:href="#arrowRight" x="0" y="0" onmousedown="handlePan(1,0)"/>
  <use id="arrowdown" xlink:href="#arrowDown" x="0" y="0" onmousedown="handlePan(0,1)"/>
  <use id="arrowleft" xlink:href="#arrowLeft" x="0" y="0" onmousedown="handlePan(-1,0)"/>
</g>
<svg viewBox="0 0 15 15" width="100%" height="30px" preserveAspectRatio="xMaxYMin meet">
 <g id="arrow_out" transform="scale(0.3 0.3)">
  <a xlink:href="completer__factory_8cpp__incl_org.svg" target="_base">
   <rect id="button" ry="5" rx="5" y="6" x="6" height="38" width="38"
        fill="#f2f5e9" fill-opacity="0.5" stroke="#606060" stroke-width="1.0"/>
   <path id="arrow"
     d="M 11.500037,31.436501 C 11.940474,20.09759 22.043105,11.32322 32.158766,21.979434 L 37.068811,17.246167 C 37.068811,17.246167 37.088388,32 37.088388,32 L 22.160133,31.978069 C 22.160133,31.978069 26.997745,27.140456 26.997745,27.140456 C 18.528582,18.264221 13.291696,25.230495 11.500037,31.436501 z"
     style="fill:#404040;"/>
  </a>
 </g>
</svg>

<style type='text/css'>
<![CDATA[
[data-mouse-over-selected='false'] { opacity: 0.7; }
[data-mouse-over-selected='true']  { opacity: 1.0; }
]]>
</style>
<script type="application/ecmascript"><![CDATA[
document.addEventListener('DOMContentLoaded', (event) => {
  highlightEdges();
  highlightAdjacentNodes();
});
]]></script>
</svg>
