<?xml version="1.0" encoding="UTF-8" standalone="no"?>
<!DOCTYPE svg PUBLIC "-//W3C//DTD SVG 1.1//EN"
 "http://www.w3.org/Graphics/SVG/1.1/DTD/svg11.dtd">
<!-- Generated by graphviz version 12.2.0 (20241103.1931)
 -->
<!-- Title: PhotoDeltaFetcher::fetchIds Pages: 1 -->
<svg width="264pt" height="162pt"
 viewBox="0.00 0.00 263.50 161.88" xmlns="http://www.w3.org/2000/svg" xmlns:xlink="http://www.w3.org/1999/xlink">
<g id="graph0" class="graph" transform="scale(1 1) rotate(0) translate(4 157.88)">
<title>PhotoDeltaFetcher::fetchIds</title>
<!-- Node1 -->
<g id="Node000001" class="node">
<title>Node1</title>
<g id="a_Node000001"><a xlink:title=" ">
<polygon fill="#999999" stroke="#666666" points="101.5,-94.5 0,-94.5 0,-64 101.5,-64 101.5,-94.5"/>
<text text-anchor="start" x="8" y="-81" font-family="Helvetica,sans-Serif" font-size="10.00">PhotoDeltaFetcher::</text>
<text text-anchor="middle" x="50.75" y="-69.75" font-family="Helvetica,sans-Serif" font-size="10.00">fetchIds</text>
</a>
</g>
</g>
<!-- Node2 -->
<g id="Node000002" class="node">
<title>Node2</title>
<g id="a_Node000002"><a xlink:href="../../d0/d76/namespace_database.html#aa59eca351edcc134a71e2ccc5a59a64a" target="_top" xlink:title=" ">
<polygon fill="#fff0f0" stroke="red" points="247.62,-153.88 145.38,-153.88 145.38,-134.62 247.62,-134.62 247.62,-153.88"/>
<text text-anchor="middle" x="196.5" y="-140.38" font-family="Helvetica,sans-Serif" font-size="10.00">Database::coRunOn</text>
</a>
</g>
</g>
<!-- Node1&#45;&gt;Node2 -->
<g id="edge1_Node000001_Node000002" class="edge">
<title>Node1&#45;&gt;Node2</title>
<g id="a_edge1_Node000001_Node000002"><a xlink:title=" ">
<path fill="none" stroke="#63b8ff" d="M78.19,-95C94.84,-104.52 117,-116.47 137.5,-125.25 141.77,-127.08 146.29,-128.84 150.83,-130.5"/>
<polygon fill="#63b8ff" stroke="#63b8ff" points="149.37,-133.7 159.96,-133.69 151.67,-127.09 149.37,-133.7"/>
</a>
</g>
</g>
<!-- Node5 -->
<g id="Node000005" class="node">
<title>Node5</title>
<g id="a_Node000005"><a xlink:href="../../d2/ddd/struct_database_1_1_i_backend.html#ac762cc3e374776d405c5854a0d7e02d2" target="_top" xlink:title="fetch photo data">
<polygon fill="white" stroke="#666666" points="248,-116.5 145,-116.5 145,-86 248,-86 248,-116.5"/>
<text text-anchor="start" x="153" y="-103" font-family="Helvetica,sans-Serif" font-size="10.00">Database::IBackend</text>
<text text-anchor="middle" x="196.5" y="-91.75" font-family="Helvetica,sans-Serif" font-size="10.00">::getPhotoDelta</text>
</a>
</g>
</g>
<!-- Node1&#45;&gt;Node5 -->
<g id="edge2_Node000001_Node000005" class="edge">
<title>Node1&#45;&gt;Node5</title>
<g id="a_edge2_Node000001_Node000005"><a xlink:title=" ">
<path fill="none" stroke="#63b8ff" d="M101.62,-86.88C111.87,-88.45 122.77,-90.12 133.38,-91.74"/>
<polygon fill="#63b8ff" stroke="#63b8ff" points="132.83,-95.2 143.24,-93.25 133.89,-88.28 132.83,-95.2"/>
</a>
</g>
</g>
<!-- Node6 -->
<g id="Node000006" class="node">
<title>Node6</title>
<g id="a_Node000006"><a xlink:href="../../d0/dd6/function__wrappers_8hpp.html#a3a20aa010dd8bcd80ab59df9e33355e2" target="_top" xlink:title=" ">
<polygon fill="white" stroke="#666666" points="243.5,-67.88 149.5,-67.88 149.5,-48.62 243.5,-48.62 243.5,-67.88"/>
<text text-anchor="middle" x="196.5" y="-54.38" font-family="Helvetica,sans-Serif" font-size="10.00">make_cancellable</text>
</a>
</g>
</g>
<!-- Node1&#45;&gt;Node6 -->
<g id="edge3_Node000001_Node000006" class="edge">
<title>Node1&#45;&gt;Node6</title>
<g id="a_edge3_Node000001_Node000006"><a xlink:title=" ">
<path fill="none" stroke="#63b8ff" d="M101.62,-71.96C113.3,-70.26 125.83,-68.43 137.82,-66.68"/>
<polygon fill="#63b8ff" stroke="#63b8ff" points="138.21,-70.16 147.6,-65.25 137.2,-63.23 138.21,-70.16"/>
</a>
</g>
</g>
<!-- Node7 -->
<g id="Node000007" class="node">
<title>Node7</title>
<g id="a_Node000007"><a xlink:href="../../d9/d95/class_photo_delta_fetcher.html#a894a55c80a8063f71ae1b16291db3d7b" target="_top" xlink:title=" ">
<polygon fill="white" stroke="#666666" points="255.5,-30.5 137.5,-30.5 137.5,0 255.5,0 255.5,-30.5"/>
<text text-anchor="start" x="145.5" y="-17" font-family="Helvetica,sans-Serif" font-size="10.00">PhotoDeltaFetcher::</text>
<text text-anchor="middle" x="196.5" y="-5.75" font-family="Helvetica,sans-Serif" font-size="10.00">photoDataDeltaFetched</text>
</a>
</g>
</g>
<!-- Node1&#45;&gt;Node7 -->
<g id="edge4_Node000001_Node000007" class="edge">
<title>Node1&#45;&gt;Node7</title>
<g id="a_edge4_Node000001_Node000007"><a xlink:title=" ">
<path fill="none" stroke="#63b8ff" d="M84.58,-63.52C100.48,-56.01 119.91,-46.99 137.5,-39.25 140.45,-37.95 143.48,-36.64 146.55,-35.32"/>
<polygon fill="#63b8ff" stroke="#63b8ff" points="147.79,-38.6 155.63,-31.48 145.06,-32.16 147.79,-38.6"/>
</a>
</g>
</g>
</g>
</svg>
