<?xml version="1.0" encoding="UTF-8" standalone="no"?>
<!DOCTYPE svg PUBLIC "-//W3C//DTD SVG 1.1//EN"
 "http://www.w3.org/Graphics/SVG/1.1/DTD/svg11.dtd">
<!-- Generated by graphviz version 7.0.5 (20221223.1930)
 -->
<!-- Title: NotificationsModel::insert Pages: 1 -->
<svg width="238pt" height="76pt"
 viewBox="0.00 0.00 238.00 75.50" xmlns="http://www.w3.org/2000/svg" xmlns:xlink="http://www.w3.org/1999/xlink">
<g id="graph0" class="graph" transform="scale(1 1) rotate(0) translate(4 71.5)">
<title>NotificationsModel::insert</title>
<!-- Node1 -->
<g id="node1" class="node">
<title>Node1</title>
<g id="a_node1"><a xlink:title=" ">
<polygon fill="#999999" stroke="#666666" points="97,-45.5 0,-45.5 0,-15.5 97,-15.5 97,-45.5"/>
<text text-anchor="start" x="8" y="-33.5" font-family="Helvetica,sans-Serif" font-size="10.00">NotificationsModel</text>
<text text-anchor="middle" x="48.5" y="-22.5" font-family="Helvetica,sans-Serif" font-size="10.00">::insert</text>
</a>
</g>
</g>
<!-- Node2 -->
<g id="node2" class="node">
<title>Node2</title>
<g id="a_node2"><a xlink:href="../../d3/d28/class_notifications_model.html#a6ffb6550d9ca7812fa81eb6e77bda561" target="_top" xlink:title=" ">
<polygon fill="white" stroke="#666666" points="230,-67.5 133,-67.5 133,-37.5 230,-37.5 230,-67.5"/>
<text text-anchor="start" x="141" y="-55.5" font-family="Helvetica,sans-Serif" font-size="10.00">NotificationsModel</text>
<text text-anchor="middle" x="181.5" y="-44.5" font-family="Helvetica,sans-Serif" font-size="10.00">::getCount</text>
</a>
</g>
</g>
<!-- Node1&#45;&gt;Node2 -->
<g id="edge1" class="edge">
<title>Node1&#45;&gt;Node2</title>
<path fill="none" stroke="#63b8ff" d="M97.16,-38.5C105.02,-39.82 113.25,-41.21 121.34,-42.57"/>
<polygon fill="#63b8ff" stroke="#63b8ff" points="120.72,-46.01 131.16,-44.21 121.88,-39.11 120.72,-46.01"/>
</g>
<!-- Node3 -->
<g id="node3" class="node">
<title>Node3</title>
<g id="a_node3"><a xlink:href="../../db/dfb/class_id.html#ad393fe2cf06c7d8369ea0da10e0e56ed" target="_top" xlink:title=" ">
<polygon fill="white" stroke="#666666" points="205,-19 158,-19 158,0 205,0 205,-19"/>
<text text-anchor="middle" x="181.5" y="-7" font-family="Helvetica,sans-Serif" font-size="10.00">Id::next</text>
</a>
</g>
</g>
<!-- Node1&#45;&gt;Node3 -->
<g id="edge2" class="edge">
<title>Node1&#45;&gt;Node3</title>
<path fill="none" stroke="#63b8ff" d="M97.16,-22.86C113.44,-20.25 131.31,-17.39 146.32,-14.98"/>
<polygon fill="#63b8ff" stroke="#63b8ff" points="146.83,-18.44 156.15,-13.4 145.73,-11.53 146.83,-18.44"/>
</g>
</g>
</svg>
