<?xml version="1.0" encoding="UTF-8" standalone="no"?>
<!DOCTYPE svg PUBLIC "-//W3C//DTD SVG 1.1//EN"
 "http://www.w3.org/Graphics/SVG/1.1/DTD/svg11.dtd">
<!-- Generated by graphviz version 7.0.5 (20221223.1930)
 -->
<!-- Title: Database::GenericSqlQueryConstructor::insert Pages: 1 -->
<svg width="503pt" height="101pt"
 viewBox="0.00 0.00 503.00 101.39" xmlns="http://www.w3.org/2000/svg" xmlns:xlink="http://www.w3.org/1999/xlink">
<g id="graph0" class="graph" transform="scale(1 1) rotate(0) translate(4 97.39)">
<title>Database::GenericSqlQueryConstructor::insert</title>
<!-- Node1 -->
<g id="node1" class="node">
<title>Node1</title>
<g id="a_node1"><a xlink:title=" ">
<polygon fill="#999999" stroke="#666666" points="136,-78 0,-78 0,-48 136,-48 136,-78"/>
<text text-anchor="start" x="8" y="-66" font-family="Helvetica,sans-Serif" font-size="10.00">Database::GenericSqlQuery</text>
<text text-anchor="middle" x="68" y="-55" font-family="Helvetica,sans-Serif" font-size="10.00">Constructor::insert</text>
</a>
</g>
</g>
<!-- Node2 -->
<g id="node2" class="node">
<title>Node2</title>
<g id="a_node2"><a xlink:href="../../d4/df7/class_database_1_1_insert_query_data.html#a5ce2ce74817343405919a285e452af35" target="_top" xlink:title=" ">
<polygon fill="white" stroke="#666666" points="495,-75 362,-75 362,-45 495,-45 495,-75"/>
<text text-anchor="start" x="370" y="-63" font-family="Helvetica,sans-Serif" font-size="10.00">Database::InsertQueryData</text>
<text text-anchor="middle" x="428.5" y="-52" font-family="Helvetica,sans-Serif" font-size="10.00">::getColumns</text>
</a>
</g>
</g>
<!-- Node1&#45;&gt;Node2 -->
<g id="edge1" class="edge">
<title>Node1&#45;&gt;Node2</title>
<path fill="none" stroke="#63b8ff" d="M124.99,-78.5C140.13,-82.01 156.59,-85.23 172,-87 240,-94.82 258.13,-95.87 326,-87 340.05,-85.16 354.93,-81.95 368.83,-78.37"/>
<polygon fill="#63b8ff" stroke="#63b8ff" points="369.53,-81.81 378.28,-75.83 367.71,-75.05 369.53,-81.81"/>
</g>
<!-- Node3 -->
<g id="node3" class="node">
<title>Node3</title>
<g id="a_node3"><a xlink:href="../../d4/df7/class_database_1_1_insert_query_data.html#a806a9039a26b2b39e58ecac52b25a7e2" target="_top" xlink:title=" ">
<polygon fill="white" stroke="#666666" points="315.5,-78 182.5,-78 182.5,-48 315.5,-48 315.5,-78"/>
<text text-anchor="start" x="190.5" y="-66" font-family="Helvetica,sans-Serif" font-size="10.00">Database::InsertQueryData</text>
<text text-anchor="middle" x="249" y="-55" font-family="Helvetica,sans-Serif" font-size="10.00">::getValues</text>
</a>
</g>
</g>
<!-- Node1&#45;&gt;Node3 -->
<g id="edge2" class="edge">
<title>Node1&#45;&gt;Node3</title>
<path fill="none" stroke="#63b8ff" d="M136.42,-63C147.64,-63 159.36,-63 170.8,-63"/>
<polygon fill="#63b8ff" stroke="#63b8ff" points="170.61,-66.5 180.61,-63 170.61,-59.5 170.61,-66.5"/>
</g>
<!-- Node4 -->
<g id="node4" class="node">
<title>Node4</title>
<g id="a_node4"><a xlink:href="../../d0/d6d/class_database_1_1_generic_sql_query_constructor.html#ac1d513f9a2812a65d663355999d1893a" target="_top" xlink:title=" ">
<polygon fill="#fff0f0" stroke="red" points="326,-30 172,-30 172,0 326,0 326,-30"/>
<text text-anchor="start" x="180" y="-18" font-family="Helvetica,sans-Serif" font-size="10.00">Database::GenericSqlQuery</text>
<text text-anchor="middle" x="249" y="-7" font-family="Helvetica,sans-Serif" font-size="10.00">Constructor::prepareInsertQuery</text>
</a>
</g>
</g>
<!-- Node1&#45;&gt;Node4 -->
<g id="edge3" class="edge">
<title>Node1&#45;&gt;Node4</title>
<path fill="none" stroke="#63b8ff" d="M126.62,-47.55C143.55,-43.01 162.23,-38 179.75,-33.3"/>
<polygon fill="#63b8ff" stroke="#63b8ff" points="180.27,-36.79 189.02,-30.81 178.46,-30.02 180.27,-36.79"/>
</g>
<!-- Node4&#45;&gt;Node2 -->
<g id="edge4" class="edge">
<title>Node4&#45;&gt;Node2</title>
<path fill="none" stroke="#63b8ff" d="M311.09,-30.49C325.39,-34.11 340.76,-38.01 355.49,-41.74"/>
<polygon fill="#63b8ff" stroke="#63b8ff" points="354.58,-45.12 365.14,-44.19 356.3,-38.34 354.58,-45.12"/>
</g>
</g>
</svg>
