<?xml version="1.0" encoding="UTF-8" standalone="no"?>
<!DOCTYPE svg PUBLIC "-//W3C//DTD SVG 1.1//EN"
 "http://www.w3.org/Graphics/SVG/1.1/DTD/svg11.dtd">
<!-- Generated by graphviz version 7.0.5 (20221223.1930)
 -->
<!-- Title: Database::GenericSqlQueryConstructor::prepareUpdateQuery Pages: 1 -->
<svg width="341pt" height="76pt"
 viewBox="0.00 0.00 341.00 75.50" xmlns="http://www.w3.org/2000/svg" xmlns:xlink="http://www.w3.org/1999/xlink">
<g id="graph0" class="graph" transform="scale(1 1) rotate(0) translate(4 71.5)">
<title>Database::GenericSqlQueryConstructor::prepareUpdateQuery</title>
<!-- Node1 -->
<g id="node1" class="node">
<title>Node1</title>
<g id="a_node1"><a xlink:title=" ">
<polygon fill="#999999" stroke="#666666" points="333,-51 172,-51 172,-21 333,-21 333,-51"/>
<text text-anchor="start" x="180" y="-39" font-family="Helvetica,sans-Serif" font-size="10.00">Database::GenericSqlQuery</text>
<text text-anchor="middle" x="252.5" y="-28" font-family="Helvetica,sans-Serif" font-size="10.00">Constructor::prepareUpdateQuery</text>
</a>
</g>
</g>
<!-- Node2 -->
<g id="node2" class="node">
<title>Node2</title>
<g id="a_node2"><a xlink:href="../../dc/d71/generic__sql__query__constructor__tests_8cpp.html#a3eb6598a51e35425b409e6e7976d4daf" target="_top" xlink:title=" ">
<polygon fill="white" stroke="#666666" points="88.5,-67.5 47.5,-67.5 47.5,-48.5 88.5,-48.5 88.5,-67.5"/>
<text text-anchor="middle" x="68" y="-55.5" font-family="Helvetica,sans-Serif" font-size="10.00">TEST</text>
</a>
</g>
</g>
<!-- Node1&#45;&gt;Node2 -->
<g id="edge1" class="edge">
<title>Node1&#45;&gt;Node2</title>
<path fill="none" stroke="#63b8ff" d="M160.59,-46.96C133.59,-50.21 106.55,-53.47 88.93,-55.6"/>
<polygon fill="#63b8ff" stroke="#63b8ff" points="160.71,-50.47 170.22,-45.8 159.87,-43.52 160.71,-50.47"/>
</g>
<!-- Node3 -->
<g id="node3" class="node">
<title>Node3</title>
<g id="a_node3"><a xlink:href="../../d0/d6d/class_database_1_1_generic_sql_query_constructor.html#aa079f18cb94e3d6cf76c4bd2cc95de81" target="_top" xlink:title=" ">
<polygon fill="white" stroke="#666666" points="136,-30 0,-30 0,0 136,0 136,-30"/>
<text text-anchor="start" x="8" y="-18" font-family="Helvetica,sans-Serif" font-size="10.00">Database::GenericSqlQuery</text>
<text text-anchor="middle" x="68" y="-7" font-family="Helvetica,sans-Serif" font-size="10.00">Constructor::update</text>
</a>
</g>
</g>
<!-- Node1&#45;&gt;Node3 -->
<g id="edge2" class="edge">
<title>Node1&#45;&gt;Node3</title>
<path fill="none" stroke="#63b8ff" d="M160.33,-25.51C152.25,-24.58 144.18,-23.65 136.35,-22.75"/>
<polygon fill="#63b8ff" stroke="#63b8ff" points="159.88,-28.98 170.21,-26.65 160.68,-22.03 159.88,-28.98"/>
</g>
</g>
</svg>
