<?xml version="1.0" encoding="UTF-8" standalone="no"?>
<!DOCTYPE svg PUBLIC "-//W3C//DTD SVG 1.1//EN"
 "http://www.w3.org/Graphics/SVG/1.1/DTD/svg11.dtd">
<!-- Generated by graphviz version 12.2.0 (20241103.1931)
 -->
<!-- Title: Database::GenericSqlQueryConstructor::prepareUpdateQuery Pages: 1 -->
<svg width="339pt" height="76pt"
 viewBox="0.00 0.00 339.25 75.88" xmlns="http://www.w3.org/2000/svg" xmlns:xlink="http://www.w3.org/1999/xlink">
<g id="graph0" class="graph" transform="scale(1 1) rotate(0) translate(4 71.88)">
<title>Database::GenericSqlQueryConstructor::prepareUpdateQuery</title>
<!-- Node1 -->
<g id="Node000001" class="node">
<title>Node1</title>
<g id="a_Node000001"><a xlink:title=" ">
<polygon fill="#999999" stroke="#666666" points="331.25,-51.5 171.25,-51.5 171.25,-21 331.25,-21 331.25,-51.5"/>
<text text-anchor="start" x="179.25" y="-38" font-family="Helvetica,sans-Serif" font-size="10.00">Database::GenericSqlQuery</text>
<text text-anchor="middle" x="251.25" y="-26.75" font-family="Helvetica,sans-Serif" font-size="10.00">Constructor::prepareUpdateQuery</text>
</a>
</g>
</g>
<!-- Node2 -->
<g id="Node000002" class="node">
<title>Node2</title>
<g id="a_Node000002"><a xlink:href="../../dc/d71/generic__sql__query__constructor__tests_8cpp.html#a3eb6598a51e35425b409e6e7976d4daf" target="_top" xlink:title=" ">
<polygon fill="white" stroke="#666666" points="88,-67.88 47.25,-67.88 47.25,-48.62 88,-48.62 88,-67.88"/>
<text text-anchor="middle" x="67.62" y="-54.38" font-family="Helvetica,sans-Serif" font-size="10.00">TEST</text>
</a>
</g>
</g>
<!-- Node1&#45;&gt;Node2 -->
<g id="edge1_Node000001_Node000002" class="edge">
<title>Node1&#45;&gt;Node2</title>
<g id="a_edge1_Node000001_Node000002"><a xlink:title=" ">
<path fill="none" stroke="#63b8ff" d="M159.77,-47.21C132.9,-50.46 106,-53.72 88.46,-55.85"/>
<polygon fill="#63b8ff" stroke="#63b8ff" points="159.84,-50.73 169.35,-46.05 159,-43.78 159.84,-50.73"/>
</a>
</g>
</g>
<!-- Node3 -->
<g id="Node000003" class="node">
<title>Node3</title>
<g id="a_Node000003"><a xlink:href="../../d0/d6d/class_database_1_1_generic_sql_query_constructor.html#aa079f18cb94e3d6cf76c4bd2cc95de81" target="_top" xlink:title=" ">
<polygon fill="white" stroke="#666666" points="135.25,-30.5 0,-30.5 0,0 135.25,0 135.25,-30.5"/>
<text text-anchor="start" x="8" y="-17" font-family="Helvetica,sans-Serif" font-size="10.00">Database::GenericSqlQuery</text>
<text text-anchor="middle" x="67.62" y="-5.75" font-family="Helvetica,sans-Serif" font-size="10.00">Constructor::update</text>
</a>
</g>
</g>
<!-- Node1&#45;&gt;Node3 -->
<g id="edge2_Node000001_Node000003" class="edge">
<title>Node1&#45;&gt;Node3</title>
<g id="a_edge2_Node000001_Node000003"><a xlink:title=" ">
<path fill="none" stroke="#63b8ff" d="M159.52,-25.76C151.48,-24.83 143.44,-23.9 135.65,-23"/>
<polygon fill="#63b8ff" stroke="#63b8ff" points="159.01,-29.22 169.35,-26.9 159.82,-22.27 159.01,-29.22"/>
</a>
</g>
</g>
</g>
</svg>
