<?xml version="1.0" encoding="UTF-8" standalone="no"?>
<!DOCTYPE svg PUBLIC "-//W3C//DTD SVG 1.1//EN"
 "http://www.w3.org/Graphics/SVG/1.1/DTD/svg11.dtd">
<!-- Generated by graphviz version 7.0.5 (20221223.1930)
 -->
<!-- Title: Database::GenericSqlQueryConstructor::prepareUpdateQuery Pages: 1 -->
<svg width="534pt" height="155pt"
 viewBox="0.00 0.00 534.00 154.53" xmlns="http://www.w3.org/2000/svg" xmlns:xlink="http://www.w3.org/1999/xlink">
<g id="graph0" class="graph" transform="scale(1 1) rotate(0) translate(4 150.53)">
<title>Database::GenericSqlQueryConstructor::prepareUpdateQuery</title>
<!-- Node1 -->
<g id="node1" class="node">
<title>Node1</title>
<g id="a_node1"><a xlink:title=" ">
<polygon fill="#999999" stroke="#666666" points="161,-102 0,-102 0,-72 161,-72 161,-102"/>
<text text-anchor="start" x="8" y="-90" font-family="Helvetica,sans-Serif" font-size="10.00">Database::GenericSqlQuery</text>
<text text-anchor="middle" x="80.5" y="-79" font-family="Helvetica,sans-Serif" font-size="10.00">Constructor::prepareUpdateQuery</text>
</a>
</g>
</g>
<!-- Node2 -->
<g id="node2" class="node">
<title>Node2</title>
<g id="a_node2"><a xlink:href="../../d4/df7/class_database_1_1_insert_query_data.html#a5ce2ce74817343405919a285e452af35" target="_top" xlink:title=" ">
<polygon fill="white" stroke="#666666" points="526,-99 393,-99 393,-69 526,-69 526,-99"/>
<text text-anchor="start" x="401" y="-87" font-family="Helvetica,sans-Serif" font-size="10.00">Database::InsertQueryData</text>
<text text-anchor="middle" x="459.5" y="-76" font-family="Helvetica,sans-Serif" font-size="10.00">::getColumns</text>
</a>
</g>
</g>
<!-- Node1&#45;&gt;Node2 -->
<g id="edge1" class="edge">
<title>Node1&#45;&gt;Node2</title>
<path fill="none" stroke="#63b8ff" d="M109.46,-102.3C132.26,-113.85 165.7,-128.75 197,-135 266.74,-148.91 287.81,-151.41 357,-135 381.4,-129.21 406.6,-116.6 425.79,-105.36"/>
<polygon fill="#63b8ff" stroke="#63b8ff" points="427.47,-108.43 434.21,-100.26 423.85,-102.44 427.47,-108.43"/>
</g>
<!-- Node3 -->
<g id="node3" class="node">
<title>Node3</title>
<g id="a_node3"><a xlink:href="../../d7/dee/class_database_1_1_update_query_data.html#ac9511faf3860d5cc5124f73e6fab1341" target="_top" xlink:title=" ">
<polygon fill="white" stroke="#666666" points="347,-126 207,-126 207,-96 347,-96 347,-126"/>
<text text-anchor="start" x="215" y="-114" font-family="Helvetica,sans-Serif" font-size="10.00">Database::UpdateQueryData</text>
<text text-anchor="middle" x="277" y="-103" font-family="Helvetica,sans-Serif" font-size="10.00">::getCondition</text>
</a>
</g>
</g>
<!-- Node1&#45;&gt;Node3 -->
<g id="edge2" class="edge">
<title>Node1&#45;&gt;Node3</title>
<path fill="none" stroke="#63b8ff" d="M161.45,-96.87C172.69,-98.25 184.25,-99.68 195.49,-101.07"/>
<polygon fill="#63b8ff" stroke="#63b8ff" points="194.76,-104.5 205.11,-102.25 195.62,-97.55 194.76,-104.5"/>
</g>
<!-- Node4 -->
<g id="node4" class="node">
<title>Node4</title>
<g id="a_node4"><a xlink:href="../../d4/df7/class_database_1_1_insert_query_data.html#a188a061eb08f73b16c23daeaffac182c" target="_top" xlink:title=" ">
<polygon fill="white" stroke="#666666" points="343.5,-78 210.5,-78 210.5,-48 343.5,-48 343.5,-78"/>
<text text-anchor="start" x="218.5" y="-66" font-family="Helvetica,sans-Serif" font-size="10.00">Database::InsertQueryData</text>
<text text-anchor="middle" x="277" y="-55" font-family="Helvetica,sans-Serif" font-size="10.00">::getName</text>
</a>
</g>
</g>
<!-- Node1&#45;&gt;Node4 -->
<g id="edge3" class="edge">
<title>Node1&#45;&gt;Node4</title>
<path fill="none" stroke="#63b8ff" d="M161.45,-77.13C173.89,-75.6 186.71,-74.02 199.08,-72.49"/>
<polygon fill="#63b8ff" stroke="#63b8ff" points="199.28,-75.99 208.78,-71.3 198.42,-69.05 199.28,-75.99"/>
</g>
<!-- Node5 -->
<g id="node5" class="node">
<title>Node5</title>
<g id="a_node5"><a xlink:href="../../d0/d6d/class_database_1_1_generic_sql_query_constructor.html#a2298963eda40bc9908a5f12196744901" target="_top" xlink:title=" ">
<polygon fill="#fff0f0" stroke="red" points="357,-30 197,-30 197,0 357,0 357,-30"/>
<text text-anchor="start" x="205" y="-18" font-family="Helvetica,sans-Serif" font-size="10.00">Database::GenericSqlQuery</text>
<text text-anchor="middle" x="277" y="-7" font-family="Helvetica,sans-Serif" font-size="10.00">Constructor::preparePlaceholders</text>
</a>
</g>
</g>
<!-- Node1&#45;&gt;Node5 -->
<g id="edge4" class="edge">
<title>Node1&#45;&gt;Node5</title>
<path fill="none" stroke="#63b8ff" d="M116.02,-71.6C138.8,-61.7 169.41,-48.9 197,-39 201.76,-37.29 206.7,-35.6 211.7,-33.95"/>
<polygon fill="#63b8ff" stroke="#63b8ff" points="212.76,-37.29 221.2,-30.89 210.61,-30.62 212.76,-37.29"/>
</g>
<!-- Node5&#45;&gt;Node2 -->
<g id="edge5" class="edge">
<title>Node5&#45;&gt;Node2</title>
<path fill="none" stroke="#63b8ff" d="M331.84,-30.39C340.32,-33.09 348.94,-36 357,-39 376.69,-46.32 398.01,-55.57 416.01,-63.77"/>
<polygon fill="#63b8ff" stroke="#63b8ff" points="414.54,-66.95 425.09,-67.95 417.47,-60.59 414.54,-66.95"/>
</g>
</g>
</svg>
