<?xml version="1.0" encoding="UTF-8" standalone="no"?>
<!DOCTYPE svg PUBLIC "-//W3C//DTD SVG 1.1//EN"
 "http://www.w3.org/Graphics/SVG/1.1/DTD/svg11.dtd">
<!-- Generated by graphviz version 7.0.5 (20221223.1930)
 -->
<!-- Title: Logger::log Pages: 1 -->
<svg width="211pt" height="101pt"
 viewBox="0.00 0.00 211.00 101.00" xmlns="http://www.w3.org/2000/svg" xmlns:xlink="http://www.w3.org/1999/xlink">
<g id="graph0" class="graph" transform="scale(1 1) rotate(0) translate(4 97)">
<title>Logger::log</title>
<!-- Node1 -->
<g id="node1" class="node">
<title>Node1</title>
<g id="a_node1"><a xlink:title=" ">
<polygon fill="#999999" stroke="#666666" points="64,-56 0,-56 0,-37 64,-37 64,-56"/>
<text text-anchor="middle" x="32" y="-44" font-family="Helvetica,sans-Serif" font-size="10.00">Logger::log</text>
</a>
</g>
</g>
<!-- Node2 -->
<g id="node2" class="node">
<title>Node2</title>
<g id="a_node2"><a xlink:href="../../d3/d42/class_logger.html#ac081f8418a867effa33c9270d5a2bf9a" target="_top" xlink:title=" ">
<polygon fill="white" stroke="#666666" points="202,-93 101,-93 101,-74 202,-74 202,-93"/>
<text text-anchor="middle" x="151.5" y="-81" font-family="Helvetica,sans-Serif" font-size="10.00">Logger::currentDate</text>
</a>
</g>
</g>
<!-- Node1&#45;&gt;Node2 -->
<g id="edge1" class="edge">
<title>Node1&#45;&gt;Node2</title>
<path fill="none" stroke="#63b8ff" d="M64.49,-56.42C77.92,-60.65 93.8,-65.65 108.23,-70.19"/>
<polygon fill="#63b8ff" stroke="#63b8ff" points="106.89,-73.44 117.48,-73.1 108.99,-66.76 106.89,-73.44"/>
</g>
<!-- Node3 -->
<g id="node3" class="node">
<title>Node3</title>
<g id="a_node3"><a xlink:href="../../d3/d42/class_logger.html#aef8a5056cd0825cb3415656546cf59a9" target="_top" xlink:title=" ">
<polygon fill="white" stroke="#666666" points="203,-56 100,-56 100,-37 203,-37 203,-56"/>
<text text-anchor="middle" x="151.5" y="-44" font-family="Helvetica,sans-Serif" font-size="10.00">Logger::currentTime</text>
</a>
</g>
</g>
<!-- Node1&#45;&gt;Node3 -->
<g id="edge2" class="edge">
<title>Node1&#45;&gt;Node3</title>
<path fill="none" stroke="#63b8ff" d="M64.49,-46.5C71.97,-46.5 80.2,-46.5 88.52,-46.5"/>
<polygon fill="#63b8ff" stroke="#63b8ff" points="88.35,-50 98.35,-46.5 88.35,-43 88.35,-50"/>
</g>
<!-- Node4 -->
<g id="node4" class="node">
<title>Node4</title>
<g id="a_node4"><a xlink:href="../../d3/d42/class_logger.html#a48a9dffeb9b376df414ea5021af387c2" target="_top" xlink:title=" ">
<polygon fill="white" stroke="#666666" points="194,-19 109,-19 109,0 194,0 194,-19"/>
<text text-anchor="middle" x="151.5" y="-7" font-family="Helvetica,sans-Serif" font-size="10.00">Logger::severity</text>
</a>
</g>
</g>
<!-- Node1&#45;&gt;Node4 -->
<g id="edge3" class="edge">
<title>Node1&#45;&gt;Node4</title>
<path fill="none" stroke="#63b8ff" d="M64.49,-36.58C77.92,-32.35 93.8,-27.35 108.23,-22.81"/>
<polygon fill="#63b8ff" stroke="#63b8ff" points="108.99,-26.24 117.48,-19.9 106.89,-19.56 108.99,-26.24"/>
</g>
</g>
</svg>
