<?xml version="1.0" encoding="UTF-8" standalone="no"?>
<!DOCTYPE svg PUBLIC "-//W3C//DTD SVG 1.1//EN"
 "http://www.w3.org/Graphics/SVG/1.1/DTD/svg11.dtd">
<!-- Generated by graphviz version 12.2.0 (20241103.1931)
 -->
<!-- Title: src/unit_tests_utils/printers.hpp Pages: 1 -->
<svg width="1316pt" height="116pt"
 viewBox="0.00 0.00 1315.88 116.25" xmlns="http://www.w3.org/2000/svg" xmlns:xlink="http://www.w3.org/1999/xlink">
<g id="graph0" class="graph" transform="scale(1 1) rotate(0) translate(4 112.25)">
<title>src/unit_tests_utils/printers.hpp</title>
<!-- Node1 -->
<g id="Node000001" class="node">
<title>Node1</title>
<g id="a_Node000001"><a xlink:title=" ">
<polygon fill="#999999" stroke="#666666" points="723.25,-108.25 624.75,-108.25 624.75,-77.75 723.25,-77.75 723.25,-108.25"/>
<text text-anchor="start" x="632.75" y="-94.75" font-family="Helvetica,sans-Serif" font-size="10.00">src/unit_tests_utils</text>
<text text-anchor="middle" x="674" y="-83.5" font-family="Helvetica,sans-Serif" font-size="10.00">/printers.hpp</text>
</a>
</g>
</g>
<!-- Node2 -->
<g id="Node000002" class="node">
<title>Node2</title>
<g id="a_Node000002"><a xlink:href="../../d6/d87/learning__tests_2image__aligner__tests_8cpp.html" target="_top" xlink:title=" ">
<polygon fill="white" stroke="#666666" points="124,-36.12 0,-36.12 0,-5.62 124,-5.62 124,-36.12"/>
<text text-anchor="start" x="8" y="-22.62" font-family="Helvetica,sans-Serif" font-size="10.00">src/core/learning_tests</text>
<text text-anchor="middle" x="62" y="-11.38" font-family="Helvetica,sans-Serif" font-size="10.00">/image_aligner_tests.cpp</text>
</a>
</g>
</g>
<!-- Node1&#45;&gt;Node2 -->
<g id="edge1_Node000001_Node000002" class="edge">
<title>Node1&#45;&gt;Node2</title>
<g id="a_edge1_Node000001_Node000002"><a xlink:title=" ">
<path fill="none" stroke="#63b8ff" d="M612.9,-89.91C512.16,-85.67 305.2,-73.58 133,-41.75 125.45,-40.35 117.54,-38.52 109.85,-36.53"/>
<polygon fill="#63b8ff" stroke="#63b8ff" points="612.71,-93.41 622.85,-90.32 613,-86.41 612.71,-93.41"/>
</a>
</g>
</g>
<!-- Node3 -->
<g id="Node000003" class="node">
<title>Node3</title>
<g id="a_Node000003"><a xlink:href="../../d1/d47/unit__tests_2image__aligner__tests_8cpp.html" target="_top" xlink:title=" ">
<polygon fill="white" stroke="#666666" points="266,-36.12 142,-36.12 142,-5.62 266,-5.62 266,-36.12"/>
<text text-anchor="start" x="150" y="-22.62" font-family="Helvetica,sans-Serif" font-size="10.00">src/core/unit_tests</text>
<text text-anchor="middle" x="204" y="-11.38" font-family="Helvetica,sans-Serif" font-size="10.00">/image_aligner_tests.cpp</text>
</a>
</g>
</g>
<!-- Node1&#45;&gt;Node3 -->
<g id="edge2_Node000001_Node000003" class="edge">
<title>Node1&#45;&gt;Node3</title>
<g id="a_edge2_Node000001_Node000003"><a xlink:title=" ">
<path fill="none" stroke="#63b8ff" d="M613.35,-87.17C534.75,-80.27 393.72,-65.71 275,-41.75 267.85,-40.31 260.36,-38.52 253.04,-36.62"/>
<polygon fill="#63b8ff" stroke="#63b8ff" points="612.71,-90.63 622.97,-88 613.31,-83.65 612.71,-90.63"/>
</a>
</g>
</g>
<!-- Node4 -->
<g id="Node000004" class="node">
<title>Node4</title>
<g id="a_Node000004"><a xlink:href="../../da/dd7/model__compositor__tests_8cpp.html" target="_top" xlink:title=" ">
<polygon fill="white" stroke="#666666" points="427.75,-36.12 284.25,-36.12 284.25,-5.62 427.75,-5.62 427.75,-36.12"/>
<text text-anchor="start" x="292.25" y="-22.62" font-family="Helvetica,sans-Serif" font-size="10.00">src/core/unit_tests</text>
<text text-anchor="middle" x="356" y="-11.38" font-family="Helvetica,sans-Serif" font-size="10.00">/model_compositor_tests.cpp</text>
</a>
</g>
</g>
<!-- Node1&#45;&gt;Node4 -->
<g id="edge3_Node000001_Node000004" class="edge">
<title>Node1&#45;&gt;Node4</title>
<g id="a_edge3_Node000001_Node000004"><a xlink:title=" ">
<path fill="none" stroke="#63b8ff" d="M613.49,-79.84C565.31,-70.01 496.2,-55.58 436,-41.75 428.89,-40.12 421.43,-38.34 414.06,-36.55"/>
<polygon fill="#63b8ff" stroke="#63b8ff" points="612.68,-83.25 623.18,-81.81 614.08,-76.39 612.68,-83.25"/>
</a>
</g>
</g>
<!-- Node5 -->
<g id="Node000005" class="node">
<title>Node5</title>
<g id="a_Node000005"><a xlink:href="../../d4/d28/video__metadata__extraction__tests_8cpp.html" target="_top" xlink:title=" ">
<polygon fill="white" stroke="#666666" points="580.62,-41.75 445.38,-41.75 445.38,0 580.62,0 580.62,-41.75"/>
<text text-anchor="start" x="453.38" y="-28.25" font-family="Helvetica,sans-Serif" font-size="10.00">src/core/unit_tests</text>
<text text-anchor="start" x="453.38" y="-17" font-family="Helvetica,sans-Serif" font-size="10.00">/video_metadata_extraction</text>
<text text-anchor="middle" x="513" y="-5.75" font-family="Helvetica,sans-Serif" font-size="10.00">_tests.cpp</text>
</a>
</g>
</g>
<!-- Node1&#45;&gt;Node5 -->
<g id="edge4_Node000001_Node000005" class="edge">
<title>Node1&#45;&gt;Node5</title>
<g id="a_edge4_Node000001_Node000005"><a xlink:title=" ">
<path fill="none" stroke="#63b8ff" d="M629.93,-72.8C608.08,-63.29 581.7,-51.8 559.53,-42.14"/>
<polygon fill="#63b8ff" stroke="#63b8ff" points="628.3,-75.91 638.86,-76.7 631.09,-69.49 628.3,-75.91"/>
</a>
</g>
</g>
<!-- Node6 -->
<g id="Node000006" class="node">
<title>Node6</title>
<g id="a_Node000006"><a xlink:href="../../dc/d71/generic__sql__query__constructor__tests_8cpp.html" target="_top" xlink:title=" ">
<polygon fill="white" stroke="#666666" points="749.5,-41.75 598.5,-41.75 598.5,0 749.5,0 749.5,-41.75"/>
<text text-anchor="start" x="606.5" y="-28.25" font-family="Helvetica,sans-Serif" font-size="10.00">src/database/unit_tests</text>
<text text-anchor="start" x="606.5" y="-17" font-family="Helvetica,sans-Serif" font-size="10.00">/generic_sql_query_constructor</text>
<text text-anchor="middle" x="674" y="-5.75" font-family="Helvetica,sans-Serif" font-size="10.00">_tests.cpp</text>
</a>
</g>
</g>
<!-- Node1&#45;&gt;Node6 -->
<g id="edge5_Node000001_Node000006" class="edge">
<title>Node1&#45;&gt;Node6</title>
<g id="a_edge5_Node000001_Node000006"><a xlink:title=" ">
<path fill="none" stroke="#63b8ff" d="M674,-66.22C674,-58.31 674,-49.73 674,-42.24"/>
<polygon fill="#63b8ff" stroke="#63b8ff" points="670.5,-65.96 674,-75.96 677.5,-65.96 670.5,-65.96"/>
</a>
</g>
</g>
<!-- Node7 -->
<g id="Node000007" class="node">
<title>Node7</title>
<g id="a_Node000007"><a xlink:href="../../dd/d3c/sql__filter__query__generator__tests_8cpp.html" target="_top" xlink:title=" ">
<polygon fill="white" stroke="#666666" points="896.62,-41.75 767.38,-41.75 767.38,0 896.62,0 896.62,-41.75"/>
<text text-anchor="start" x="775.38" y="-28.25" font-family="Helvetica,sans-Serif" font-size="10.00">src/database/unit_tests</text>
<text text-anchor="start" x="775.38" y="-17" font-family="Helvetica,sans-Serif" font-size="10.00">/sql_filter_query_generator</text>
<text text-anchor="middle" x="832" y="-5.75" font-family="Helvetica,sans-Serif" font-size="10.00">_tests.cpp</text>
</a>
</g>
</g>
<!-- Node1&#45;&gt;Node7 -->
<g id="edge6_Node000001_Node000007" class="edge">
<title>Node1&#45;&gt;Node7</title>
<g id="a_edge6_Node000001_Node000007"><a xlink:title=" ">
<path fill="none" stroke="#63b8ff" d="M717.54,-72.67C738.93,-63.18 764.68,-51.75 786.34,-42.14"/>
<polygon fill="#63b8ff" stroke="#63b8ff" points="716.23,-69.43 708.51,-76.69 719.07,-75.83 716.23,-69.43"/>
</a>
</g>
</g>
<!-- Node8 -->
<g id="Node000008" class="node">
<title>Node8</title>
<g id="a_Node000008"><a xlink:href="../../d0/d51/model__index__utils__tests_8cpp.html" target="_top" xlink:title=" ">
<polygon fill="white" stroke="#666666" points="1031.62,-41.75 914.38,-41.75 914.38,0 1031.62,0 1031.62,-41.75"/>
<text text-anchor="start" x="922.38" y="-28.25" font-family="Helvetica,sans-Serif" font-size="10.00">src/gui/unit_tests</text>
<text text-anchor="start" x="922.38" y="-17" font-family="Helvetica,sans-Serif" font-size="10.00">/utils/model_index_utils</text>
<text text-anchor="middle" x="973" y="-5.75" font-family="Helvetica,sans-Serif" font-size="10.00">_tests.cpp</text>
</a>
</g>
</g>
<!-- Node1&#45;&gt;Node8 -->
<g id="edge7_Node000001_Node000008" class="edge">
<title>Node1&#45;&gt;Node8</title>
<g id="a_edge7_Node000001_Node000008"><a xlink:title=" ">
<path fill="none" stroke="#63b8ff" d="M734.79,-80.13C781.76,-70.65 848.28,-56.54 906,-41.75 908.59,-41.09 911.22,-40.39 913.88,-39.67"/>
<polygon fill="#63b8ff" stroke="#63b8ff" points="734.18,-76.69 725.07,-82.09 735.56,-83.55 734.18,-76.69"/>
</a>
</g>
</g>
<!-- Node9 -->
<g id="Node000009" class="node">
<title>Node9</title>
<g id="a_Node000009"><a xlink:href="../../d5/d72/thumbnails__manager__tests_8cpp.html" target="_top" xlink:title=" ">
<polygon fill="white" stroke="#666666" points="1180,-41.75 1050,-41.75 1050,0 1180,0 1180,-41.75"/>
<text text-anchor="start" x="1058" y="-28.25" font-family="Helvetica,sans-Serif" font-size="10.00">src/gui/unit_tests</text>
<text text-anchor="start" x="1058" y="-17" font-family="Helvetica,sans-Serif" font-size="10.00">/utils/thumbnails_manager</text>
<text text-anchor="middle" x="1115" y="-5.75" font-family="Helvetica,sans-Serif" font-size="10.00">_tests.cpp</text>
</a>
</g>
</g>
<!-- Node1&#45;&gt;Node9 -->
<g id="edge8_Node000001_Node000009" class="edge">
<title>Node1&#45;&gt;Node9</title>
<g id="a_edge8_Node000001_Node000009"><a xlink:title=" ">
<path fill="none" stroke="#63b8ff" d="M734.87,-86.05C808,-78.35 934.19,-63.32 1041,-41.75 1043.87,-41.17 1046.79,-40.54 1049.74,-39.88"/>
<polygon fill="#63b8ff" stroke="#63b8ff" points="734.69,-82.55 725.11,-87.06 735.42,-89.51 734.69,-82.55"/>
</a>
</g>
</g>
<!-- Node10 -->
<g id="Node000010" class="node">
<title>Node10</title>
<g id="a_Node000010"><a xlink:href="../../de/d5c/common__path_8cpp.html" target="_top" xlink:title=" ">
<polygon fill="white" stroke="#666666" points="1307.88,-36.12 1198.12,-36.12 1198.12,-5.62 1307.88,-5.62 1307.88,-36.12"/>
<text text-anchor="start" x="1206.12" y="-22.62" font-family="Helvetica,sans-Serif" font-size="10.00">src/system/unit_tests</text>
<text text-anchor="middle" x="1253" y="-11.38" font-family="Helvetica,sans-Serif" font-size="10.00">/common_path.cpp</text>
</a>
</g>
</g>
<!-- Node1&#45;&gt;Node10 -->
<g id="edge9_Node000001_Node000010" class="edge">
<title>Node1&#45;&gt;Node10</title>
<g id="a_edge9_Node000001_Node000010"><a xlink:title=" ">
<path fill="none" stroke="#63b8ff" d="M734.82,-90.07C831.77,-86.11 1026.96,-74.46 1189,-41.75 1195.84,-40.37 1202.99,-38.54 1209.93,-36.56"/>
<polygon fill="#63b8ff" stroke="#63b8ff" points="734.86,-86.57 725,-90.46 735.13,-93.56 734.86,-86.57"/>
</a>
</g>
</g>
</g>
</svg>
