<?xml version="1.0" encoding="UTF-8" standalone="no"?>
<!DOCTYPE svg PUBLIC "-//W3C//DTD SVG 1.1//EN"
 "http://www.w3.org/Graphics/SVG/1.1/DTD/svg11.dtd">
<!-- Generated by graphviz version 7.0.5 (20221223.1930)
 -->
<!-- Title: src/face_recognition/dlib_wrapper/dlib_face_recognition_api.cpp Pages: 1 -->
<!--zoomable 115 -->
<svg id="main" version="1.1" xmlns="http://www.w3.org/2000/svg" xmlns:xlink="http://www.w3.org/1999/xlink" xml:space="preserve" onload="init(evt)">
<style type="text/css"><![CDATA[
.edge:hover path { stroke: red; }
.edge:hover polygon { stroke: red; fill: red; }
]]></style>
<script type="text/javascript"><![CDATA[
var edges = document.getElementsByTagName('g');
if (edges && edges.length) {
  for (var i=0;i<edges.length;i++) {
    if (edges[i].id.substr(0,4)=='edge') {
      edges[i].setAttribute('class','edge');
    }
  }
}
]]></script>
        <defs>
                <circle id="rim" cx="0" cy="0" r="7"/>
                <circle id="rim2" cx="0" cy="0" r="3.5"/>
                <g id="zoomPlus">
                        <use xlink:href="#rim" fill="#404040">
                                <set attributeName="fill" to="#808080" begin="zoomplus.mouseover" end="zoomplus.mouseout"/>
                        </use>
                        <path d="M-4,0h8M0,-4v8" fill="none" stroke="white" stroke-width="1.5" pointer-events="none"/>
                </g>
                <g id="zoomMin">
                        <use xlink:href="#rim" fill="#404040">
                                <set attributeName="fill" to="#808080" begin="zoomminus.mouseover" end="zoomminus.mouseout"/>
                        </use>
                        <path d="M-4,0h8" fill="none" stroke="white" stroke-width="1.5" pointer-events="none"/>
                </g>
                <g id="dirArrow">
                        <path fill="none" stroke="white" stroke-width="1.5" d="M0,-3.0v7 M-2.5,-0.5L0,-3.0L2.5,-0.5"/>
                </g>
               <g id="resetDef">
                       <use xlink:href="#rim2" fill="#404040">
                               <set attributeName="fill" to="#808080" begin="reset.mouseover" end="reset.mouseout"/>
                       </use>
               </g>
        </defs>

<script type="text/javascript">
var viewWidth = 1072;
var viewHeight = 115;
var sectionId = 'dynsection-0';
</script>
<script xlink:href="../../svgpan.js"/>
<svg id="graph" class="graph">
<g id="viewport">
<title>src/face_recognition/dlib_wrapper/dlib_face_recognition_api.cpp</title>
<!-- Node1 -->
<g id="node1" class="node">
<title>Node1</title>
<g id="a_node1"><a xlink:title=" ">
<polygon fill="#999999" stroke="#666666" points="537.5,-107 421.5,-107 421.5,-66 537.5,-66 537.5,-107"/>
<text text-anchor="start" x="429.5" y="-95" font-family="Helvetica,sans-Serif" font-size="10.00">src/face_recognition</text>
<text text-anchor="start" x="429.5" y="-84" font-family="Helvetica,sans-Serif" font-size="10.00">/dlib_wrapper/dlib_face</text>
<text text-anchor="middle" x="479.5" y="-73" font-family="Helvetica,sans-Serif" font-size="10.00">_recognition_api.cpp</text>
</a>
</g>
</g>
<!-- Node2 -->
<g id="node2" class="node">
<title>Node2</title>
<g id="a_node2"><a xlink:title=" ">
<polygon fill="#e0e0e0" stroke="#999999" points="119,-30 0,-30 0,0 119,0 119,-30"/>
<text text-anchor="start" x="8" y="-18" font-family="Helvetica,sans-Serif" font-size="10.00">dlib/image_processing</text>
<text text-anchor="middle" x="59.5" y="-7" font-family="Helvetica,sans-Serif" font-size="10.00">/frontal_face_detector.h</text>
</a>
</g>
</g>
<!-- Node1&#45;&gt;Node2 -->
<g id="edge1" class="edge">
<title>Node1&#45;&gt;Node2</title>
<path fill="none" stroke="#63b8ff" d="M421.3,-77.09C353.88,-67.16 239.19,-49.75 130.49,-30.31"/>
<polygon fill="#63b8ff" stroke="#63b8ff" points="131.26,-26.89 120.8,-28.57 130.02,-33.78 131.26,-26.89"/>
</g>
<!-- Node3 -->
<g id="node3" class="node">
<title>Node3</title>
<g id="a_node3"><a xlink:title=" ">
<polygon fill="#e0e0e0" stroke="#999999" points="195.5,-24.5 137.5,-24.5 137.5,-5.5 195.5,-5.5 195.5,-24.5"/>
<text text-anchor="middle" x="166.5" y="-12.5" font-family="Helvetica,sans-Serif" font-size="10.00">dlib/dnn.h</text>
</a>
</g>
</g>
<!-- Node1&#45;&gt;Node3 -->
<g id="edge2" class="edge">
<title>Node1&#45;&gt;Node3</title>
<path fill="none" stroke="#63b8ff" d="M421.21,-76.42C365.11,-67.05 278.19,-50.88 204.5,-30 202.89,-29.54 201.26,-29.05 199.61,-28.54"/>
<polygon fill="#63b8ff" stroke="#63b8ff" points="200.84,-25.26 190.25,-25.36 198.59,-31.89 200.84,-25.26"/>
</g>
<!-- Node4 -->
<g id="node4" class="node">
<title>Node4</title>
<g id="a_node4"><a xlink:title=" ">
<polygon fill="#e0e0e0" stroke="#999999" points="255,-24.5 214,-24.5 214,-5.5 255,-5.5 255,-24.5"/>
<text text-anchor="middle" x="234.5" y="-12.5" font-family="Helvetica,sans-Serif" font-size="10.00">QRgb</text>
</a>
</g>
</g>
<!-- Node1&#45;&gt;Node4 -->
<g id="edge3" class="edge">
<title>Node1&#45;&gt;Node4</title>
<path fill="none" stroke="#63b8ff" d="M421.25,-73.82C377.23,-64.21 315.68,-49.08 263.5,-30 263,-29.82 262.5,-29.63 262,-29.44"/>
<polygon fill="#63b8ff" stroke="#63b8ff" points="263.39,-26.23 252.82,-25.47 260.61,-32.65 263.39,-26.23"/>
</g>
<!-- Node5 -->
<g id="node5" class="node">
<title>Node5</title>
<g id="a_node5"><a xlink:href="../../d7/dfc/ilogger_8hpp.html" target="_top" xlink:title=" ">
<polygon fill="#fff0f0" stroke="red" points="358,-24.5 273,-24.5 273,-5.5 358,-5.5 358,-24.5"/>
<text text-anchor="middle" x="315.5" y="-12.5" font-family="Helvetica,sans-Serif" font-size="10.00">core/ilogger.hpp</text>
</a>
</g>
</g>
<!-- Node1&#45;&gt;Node5 -->
<g id="edge4" class="edge">
<title>Node1&#45;&gt;Node5</title>
<path fill="none" stroke="#63b8ff" d="M432.5,-65.58C405.09,-53.97 371.25,-39.62 347.02,-29.36"/>
<polygon fill="#63b8ff" stroke="#63b8ff" points="348.6,-26.22 338.02,-25.54 345.86,-32.67 348.6,-26.22"/>
</g>
<!-- Node10 -->
<g id="node6" class="node">
<title>Node10</title>
<g id="a_node6"><a xlink:href="../../d6/dd3/lazy__ptr_8hpp.html" target="_top" xlink:title=" ">
<polygon fill="#fff0f0" stroke="red" points="465,-24.5 376,-24.5 376,-5.5 465,-5.5 465,-24.5"/>
<text text-anchor="middle" x="420.5" y="-12.5" font-family="Helvetica,sans-Serif" font-size="10.00">core/lazy_ptr.hpp</text>
</a>
</g>
</g>
<!-- Node1&#45;&gt;Node10 -->
<g id="edge5" class="edge">
<title>Node1&#45;&gt;Node10</title>
<path fill="none" stroke="#63b8ff" d="M462.75,-65.77C454.08,-55.55 443.58,-43.19 435.22,-33.34"/>
<polygon fill="#63b8ff" stroke="#63b8ff" points="438.11,-31.33 428.97,-25.97 432.77,-35.86 438.11,-31.33"/>
</g>
<!-- Node14 -->
<g id="node7" class="node">
<title>Node14</title>
<g id="a_node7"><a xlink:href="../../d1/d85/filesystem_8hpp.html" target="_top" xlink:title=" ">
<polygon fill="#fff0f0" stroke="red" points="596,-24.5 483,-24.5 483,-5.5 596,-5.5 596,-24.5"/>
<text text-anchor="middle" x="539.5" y="-12.5" font-family="Helvetica,sans-Serif" font-size="10.00">system/filesystem.hpp</text>
</a>
</g>
</g>
<!-- Node1&#45;&gt;Node14 -->
<g id="edge6" class="edge">
<title>Node1&#45;&gt;Node14</title>
<path fill="none" stroke="#63b8ff" d="M496.53,-65.77C505.35,-55.55 516.03,-43.19 524.53,-33.34"/>
<polygon fill="#63b8ff" stroke="#63b8ff" points="527.01,-35.82 530.9,-25.97 521.71,-31.25 527.01,-35.82"/>
</g>
<!-- Node16 -->
<g id="node8" class="node">
<title>Node16</title>
<g id="a_node8"><a xlink:href="../../d2/d7f/cnn__face__detector_8hpp.html" target="_top" xlink:title=" ">
<polygon fill="#fff0f0" stroke="red" points="729,-24.5 614,-24.5 614,-5.5 729,-5.5 729,-24.5"/>
<text text-anchor="middle" x="671.5" y="-12.5" font-family="Helvetica,sans-Serif" font-size="10.00">cnn_face_detector.hpp</text>
</a>
</g>
</g>
<!-- Node1&#45;&gt;Node16 -->
<g id="edge7" class="edge">
<title>Node1&#45;&gt;Node16</title>
<path fill="none" stroke="#63b8ff" d="M534.52,-65.58C567.19,-53.76 607.66,-39.11 636.12,-28.81"/>
<polygon fill="#63b8ff" stroke="#63b8ff" points="637.13,-32.16 645.34,-25.47 634.75,-25.58 637.13,-32.16"/>
</g>
<!-- Node20 -->
<g id="node9" class="node">
<title>Node20</title>
<g id="a_node9"><a xlink:href="../../dd/d21/dlib__wrapper_2face__recognition_8hpp.html" target="_top" xlink:title=" ">
<polygon fill="#fff0f0" stroke="red" points="853.5,-24.5 747.5,-24.5 747.5,-5.5 853.5,-5.5 853.5,-24.5"/>
<text text-anchor="middle" x="800.5" y="-12.5" font-family="Helvetica,sans-Serif" font-size="10.00">face_recognition.hpp</text>
</a>
</g>
</g>
<!-- Node1&#45;&gt;Node20 -->
<g id="edge8" class="edge">
<title>Node1&#45;&gt;Node20</title>
<path fill="none" stroke="#63b8ff" d="M537.91,-73.17C590.43,-62.05 669.67,-45.14 738.5,-30 742.28,-29.17 746.19,-28.3 750.11,-27.43"/>
<polygon fill="#63b8ff" stroke="#63b8ff" points="750.69,-30.88 759.68,-25.28 749.16,-24.05 750.69,-30.88"/>
</g>
<!-- Node22 -->
<g id="node10" class="node">
<title>Node22</title>
<g id="a_node10"><a xlink:href="../../df/dc1/dlib__face__recognition__api_8hpp.html" target="_top" xlink:title=" ">
<polygon fill="#fff0f0" stroke="red" points="979.5,-30 871.5,-30 871.5,0 979.5,0 979.5,-30"/>
<text text-anchor="start" x="879.5" y="-18" font-family="Helvetica,sans-Serif" font-size="10.00">dlib_face_recognition</text>
<text text-anchor="middle" x="925.5" y="-7" font-family="Helvetica,sans-Serif" font-size="10.00">_api.hpp</text>
</a>
</g>
</g>
<!-- Node1&#45;&gt;Node22 -->
<g id="edge9" class="edge">
<title>Node1&#45;&gt;Node22</title>
<path fill="none" stroke="#63b8ff" d="M537.79,-78.43C610.79,-69.27 739.89,-52.07 860.03,-30.37"/>
<polygon fill="#63b8ff" stroke="#63b8ff" points="860.56,-33.83 869.77,-28.6 859.3,-26.95 860.56,-33.83"/>
</g>
<!-- Node28 -->
<g id="node11" class="node">
<title>Node28</title>
<g id="a_node11"><a xlink:href="../../da/df3/helpers_8hpp.html" target="_top" xlink:title=" ">
<polygon fill="#fff0f0" stroke="red" points="1063.5,-24.5 997.5,-24.5 997.5,-5.5 1063.5,-5.5 1063.5,-24.5"/>
<text text-anchor="middle" x="1030.5" y="-12.5" font-family="Helvetica,sans-Serif" font-size="10.00">helpers.hpp</text>
</a>
</g>
</g>
<!-- Node1&#45;&gt;Node28 -->
<g id="edge10" class="edge">
<title>Node1&#45;&gt;Node28</title>
<path fill="none" stroke="#63b8ff" d="M537.78,-83.18C633.04,-78.5 827.63,-65.16 988.5,-30 990.94,-29.47 993.44,-28.84 995.94,-28.16"/>
<polygon fill="#63b8ff" stroke="#63b8ff" points="996.75,-31.57 1005.31,-25.33 994.73,-24.87 996.75,-31.57"/>
</g>
</g>
</svg>
        <g id="navigator" transform="translate(0 0)" fill="#404254">
                <rect fill="#f2f5e9" fill-opacity="0.5" stroke="#606060" stroke-width=".5" x="0" y="0" width="60" height="60"/>
                <use id="zoomplus" xlink:href="#zoomPlus" x="17" y="9" onmousedown="handleZoom(evt,'in')"/>
                <use id="zoomminus" xlink:href="#zoomMin" x="42" y="9" onmousedown="handleZoom(evt,'out')"/>
                <use id="reset" xlink:href="#resetDef" x="30" y="36" onmousedown="handleReset()"/>
                <g id="arrowUp" xlink:href="#dirArrow" transform="translate(30 24)" onmousedown="handlePan(0,-1)">
                  <use xlink:href="#rim" fill="#404040">
                        <set attributeName="fill" to="#808080" begin="arrowUp.mouseover" end="arrowUp.mouseout"/>
                  </use>
                  <path fill="none" stroke="white" stroke-width="1.5" d="M0,-3.0v7 M-2.5,-0.5L0,-3.0L2.5,-0.5"/>
                </g>
                <g id="arrowRight" xlink:href="#dirArrow" transform="rotate(90) translate(36 -43)" onmousedown="handlePan(1,0)">
                  <use xlink:href="#rim" fill="#404040">
                        <set attributeName="fill" to="#808080" begin="arrowRight.mouseover" end="arrowRight.mouseout"/>
                  </use>
                  <path fill="none" stroke="white" stroke-width="1.5" d="M0,-3.0v7 M-2.5,-0.5L0,-3.0L2.5,-0.5"/>
                </g>
                <g id="arrowDown" xlink:href="#dirArrow" transform="rotate(180) translate(-30 -48)" onmousedown="handlePan(0,1)">
                  <use xlink:href="#rim" fill="#404040">
                        <set attributeName="fill" to="#808080" begin="arrowDown.mouseover" end="arrowDown.mouseout"/>
                  </use>
                  <path fill="none" stroke="white" stroke-width="1.5" d="M0,-3.0v7 M-2.5,-0.5L0,-3.0L2.5,-0.5"/>
                </g>
                <g id="arrowLeft" xlink:href="#dirArrow" transform="rotate(270) translate(-36 17)" onmousedown="handlePan(-1,0)">
                  <use xlink:href="#rim" fill="#404040">
                        <set attributeName="fill" to="#808080" begin="arrowLeft.mouseover" end="arrowLeft.mouseout"/>
                  </use>
                  <path fill="none" stroke="white" stroke-width="1.5" d="M0,-3.0v7 M-2.5,-0.5L0,-3.0L2.5,-0.5"/>
                </g>
        </g>
        <svg viewBox="0 0 15 15" width="100%" height="30px" preserveAspectRatio="xMaxYMin meet">
         <g id="arrow_out" transform="scale(0.3 0.3)">
          <a xlink:href="dlib__face__recognition__api_8cpp__incl_org.svg" target="_base">
           <rect id="button" ry="5" rx="5" y="6" x="6" height="38" width="38"
                fill="#f2f5e9" fill-opacity="0.5" stroke="#606060" stroke-width="1.0"/>
           <path id="arrow"
             d="M 11.500037,31.436501 C 11.940474,20.09759 22.043105,11.32322 32.158766,21.979434 L 37.068811,17.246167 C 37.068811,17.246167 37.088388,32 37.088388,32 L 22.160133,31.978069 C 22.160133,31.978069 26.997745,27.140456 26.997745,27.140456 C 18.528582,18.264221 13.291696,25.230495 11.500037,31.436501 z"
             style="fill:#404040;"/>
          </a>
         </g>
        </svg>
</svg>
