<?xml version="1.0" encoding="UTF-8" standalone="no"?>
<!DOCTYPE svg PUBLIC "-//W3C//DTD SVG 1.1//EN"
 "http://www.w3.org/Graphics/SVG/1.1/DTD/svg11.dtd">
<!-- Generated by graphviz version 12.2.0 (20241103.1931)
 -->
<!-- Title: Gui::Utils::PhotoDeltaFetcherBinding::setDatabase Pages: 1 -->
<svg width="303pt" height="162pt"
 viewBox="0.00 0.00 303.25 161.88" xmlns="http://www.w3.org/2000/svg" xmlns:xlink="http://www.w3.org/1999/xlink">

<svg id="main" version="1.1" xmlns="http://www.w3.org/2000/svg" xmlns:xlink="http://www.w3.org/1999/xlink" xml:space="preserve">

<style type="text/css"><![CDATA[
.node, .edge {opacity: 0.7;}
.node.selected, .edge.selected {opacity: 1;}
.edge:hover path { stroke: red; }
.edge:hover polygon { stroke: red; fill: red; }
]]></style>
<script type="application/ecmascript" xlink:href="../../svg.min.js"/>
<svg id="graph" class="graph">
<g id="graph0" class="graph" transform="scale(1 1) rotate(0) translate(4 157.88)">
<title>Gui::Utils::PhotoDeltaFetcherBinding::setDatabase</title>
<!-- Node1 -->
<g id="Node000001" class="node">
<title>Node1</title>
<g id="a_Node000001"><a xlink:title=" ">
<polygon fill="#999999" stroke="#666666" points="295.25,-100.5 154,-100.5 154,-70 295.25,-70 295.25,-100.5"/>
<text text-anchor="start" x="162" y="-87" font-family="Helvetica,sans-Serif" font-size="10.00">Gui::Utils::PhotoDeltaFetcher</text>
<text text-anchor="middle" x="224.62" y="-75.75" font-family="Helvetica,sans-Serif" font-size="10.00">Binding::setDatabase</text>
</a>
</g>
</g>
<!-- Node2 -->
<g id="Node000002" class="node">
<title>Node2</title>
<g id="a_Node000002"><a xlink:href="../../d0/d5d/class_tags_model.html#a6579f36a9cfd866fe392d926abfa0519" target="_top" xlink:title=" ">
<polygon fill="#fff0f0" stroke="red" points="100,-153.88 18,-153.88 18,-134.62 100,-134.62 100,-153.88"/>
<text text-anchor="middle" x="59" y="-140.38" font-family="Helvetica,sans-Serif" font-size="10.00">TagsModel::set</text>
</a>
</g>
</g>
<!-- Node1&#45;&gt;Node2 -->
<g id="edge1_Node000001_Node000002" class="edge">
<title>Node1&#45;&gt;Node2</title>
<g id="a_edge1_Node000001_Node000002"><a xlink:title=" ">
<path fill="none" stroke="#63b8ff" d="M174.56,-105.11C156.84,-112.07 136.61,-119.76 118,-126.25 110.24,-128.96 101.82,-131.69 93.87,-134.17"/>
<polygon fill="#63b8ff" stroke="#63b8ff" points="175.81,-108.38 183.83,-101.45 173.24,-101.87 175.81,-108.38"/>
</a>
</g>
</g>
<!-- Node4 -->
<g id="Node000004" class="node">
<title>Node4</title>
<g id="a_Node000004"><a xlink:href="../../d1/da6/class_flat_model.html#a2737a8ce4698c5aa45a9b9c50b799aea" target="_top" xlink:title=" ">
<polygon fill="#fff0f0" stroke="red" points="118,-116.88 0,-116.88 0,-97.62 118,-97.62 118,-116.88"/>
<text text-anchor="middle" x="59" y="-103.38" font-family="Helvetica,sans-Serif" font-size="10.00">FlatModel::setDatabase</text>
</a>
</g>
</g>
<!-- Node1&#45;&gt;Node4 -->
<g id="edge2_Node000001_Node000004" class="edge">
<title>Node1&#45;&gt;Node4</title>
<g id="a_edge2_Node000001_Node000004"><a xlink:title=" ">
<path fill="none" stroke="#63b8ff" d="M142.62,-96.14C134.42,-97.24 126.21,-98.35 118.31,-99.41"/>
<polygon fill="#63b8ff" stroke="#63b8ff" points="142.81,-99.65 152.26,-94.85 141.88,-92.71 142.81,-99.65"/>
</a>
</g>
</g>
<!-- Node6 -->
<g id="Node000006" class="node">
<title>Node6</title>
<g id="a_Node000006"><a xlink:href="../../d2/dbb/class_photo_properties_model.html#a99c7564180d10732775b290201f953e6" target="_top" xlink:title=" ">
<polygon fill="white" stroke="#666666" points="115,-79.5 3,-79.5 3,-49 115,-49 115,-79.5"/>
<text text-anchor="start" x="11" y="-66" font-family="Helvetica,sans-Serif" font-size="10.00">PhotoPropertiesModel</text>
<text text-anchor="middle" x="59" y="-54.75" font-family="Helvetica,sans-Serif" font-size="10.00">::setDatabase</text>
</a>
</g>
</g>
<!-- Node1&#45;&gt;Node6 -->
<g id="edge3_Node000001_Node000006" class="edge">
<title>Node1&#45;&gt;Node6</title>
<g id="a_edge3_Node000001_Node000006"><a xlink:title=" ">
<path fill="none" stroke="#63b8ff" d="M142.54,-74.84C133.31,-73.66 124.07,-72.47 115.29,-71.35"/>
<polygon fill="#63b8ff" stroke="#63b8ff" points="141.89,-78.29 152.26,-76.09 142.78,-71.35 141.89,-78.29"/>
</a>
</g>
</g>
<!-- Node7 -->
<g id="Node000007" class="node">
<title>Node7</title>
<g id="a_Node000007"><a xlink:href="../../de/db3/class_context_menu_manager.html#afee82226d8b74d2bd56c575f7c6f10a4" target="_top" xlink:title=" ">
<polygon fill="white" stroke="#666666" points="114.25,-30.5 3.75,-30.5 3.75,0 114.25,0 114.25,-30.5"/>
<text text-anchor="start" x="11.75" y="-17" font-family="Helvetica,sans-Serif" font-size="10.00">ContextMenuManager</text>
<text text-anchor="middle" x="59" y="-5.75" font-family="Helvetica,sans-Serif" font-size="10.00">::setProject</text>
</a>
</g>
</g>
<!-- Node1&#45;&gt;Node7 -->
<g id="edge4_Node000001_Node000007" class="edge">
<title>Node1&#45;&gt;Node7</title>
<g id="a_edge4_Node000001_Node000007"><a xlink:title=" ">
<path fill="none" stroke="#63b8ff" d="M176.39,-65.04C151,-54.18 120.15,-40.98 96.6,-30.91"/>
<polygon fill="#63b8ff" stroke="#63b8ff" points="174.94,-68.23 185.51,-68.95 177.7,-61.79 174.94,-68.23"/>
</a>
</g>
</g>
</g>
</svg>
</svg>

<style type='text/css'>
<![CDATA[
[data-mouse-over-selected='false'] { opacity: 0.7; }
[data-mouse-over-selected='true']  { opacity: 1.0; }
]]>
</style>
<script type="application/ecmascript"><![CDATA[
document.addEventListener('DOMContentLoaded', (event) => {
  highlightEdges();
  highlightAdjacentNodes();
});
]]></script>
</svg>
