<?xml version="1.0" encoding="UTF-8" standalone="no"?>
<!DOCTYPE svg PUBLIC "-//W3C//DTD SVG 1.1//EN"
 "http://www.w3.org/Graphics/SVG/1.1/DTD/svg11.dtd">
<!-- Generated by graphviz version 12.2.0 (20241103.1931)
 -->
<!-- Title: Database::PhotoChangeLogOperator::append Pages: 1 -->
<svg width="323pt" height="223pt"
 viewBox="0.00 0.00 322.75 222.88" xmlns="http://www.w3.org/2000/svg" xmlns:xlink="http://www.w3.org/1999/xlink">

<svg id="main" version="1.1" xmlns="http://www.w3.org/2000/svg" xmlns:xlink="http://www.w3.org/1999/xlink" xml:space="preserve">

<style type="text/css"><![CDATA[
.node, .edge {opacity: 0.7;}
.node.selected, .edge.selected {opacity: 1;}
.edge:hover path { stroke: red; }
.edge:hover polygon { stroke: red; fill: red; }
]]></style>
<script type="application/ecmascript" xlink:href="../../svg.min.js"/>
<svg id="graph" class="graph">
<g id="graph0" class="graph" transform="scale(1 1) rotate(0) translate(4 218.88)">
<title>Database::PhotoChangeLogOperator::append</title>
<!-- Node1 -->
<g id="Node000001" class="node">
<title>Node1</title>
<g id="a_Node000001"><a xlink:title=" ">
<polygon fill="#999999" stroke="#666666" points="136.75,-128.5 0,-128.5 0,-98 136.75,-98 136.75,-128.5"/>
<text text-anchor="start" x="8" y="-115" font-family="Helvetica,sans-Serif" font-size="10.00">Database::PhotoChangeLog</text>
<text text-anchor="middle" x="68.38" y="-103.75" font-family="Helvetica,sans-Serif" font-size="10.00">Operator::append</text>
</a>
</g>
</g>
<!-- Node2 -->
<g id="Node000002" class="node">
<title>Node2</title>
<g id="a_Node000002"><a xlink:href="../../da/d2a/ibackend_8hpp.html#ac6fb985b87586bc7d7e15bfbef46f893" target="_top" xlink:title=" ">
<polygon fill="white" stroke="#666666" points="286.25,-214.88 201.25,-214.88 201.25,-195.62 286.25,-195.62 286.25,-214.88"/>
<text text-anchor="middle" x="243.75" y="-201.38" font-family="Helvetica,sans-Serif" font-size="10.00">DbErrorOnFalse</text>
</a>
</g>
</g>
<!-- Node1&#45;&gt;Node2 -->
<g id="edge1_Node000001_Node000002" class="edge">
<title>Node1&#45;&gt;Node2</title>
<g id="a_edge1_Node000001_Node000002"><a xlink:title=" ">
<path fill="none" stroke="#63b8ff" d="M87.2,-128.81C106.89,-145.26 140.15,-170.9 172.75,-186.25 178.23,-188.83 184.13,-191.11 190.09,-193.12"/>
<polygon fill="#63b8ff" stroke="#63b8ff" points="188.77,-196.37 199.36,-195.98 190.84,-189.69 188.77,-196.37"/>
</a>
</g>
</g>
<!-- Node3 -->
<g id="Node000003" class="node">
<title>Node3</title>
<g id="a_Node000003"><a xlink:href="../../d9/d1b/struct_database_1_1_i_sql_query_executor.html#acfcd209fa4cb62eb1c1f99bbdd653131" target="_top" xlink:title=" ">
<polygon fill="white" stroke="#666666" points="314.75,-177.5 172.75,-177.5 172.75,-147 314.75,-147 314.75,-177.5"/>
<text text-anchor="start" x="180.75" y="-164" font-family="Helvetica,sans-Serif" font-size="10.00">Database::ISqlQueryExecutor</text>
<text text-anchor="middle" x="243.75" y="-152.75" font-family="Helvetica,sans-Serif" font-size="10.00">::exec</text>
</a>
</g>
</g>
<!-- Node1&#45;&gt;Node3 -->
<g id="edge2_Node000001_Node000003" class="edge">
<title>Node1&#45;&gt;Node3</title>
<g id="a_edge2_Node000001_Node000003"><a xlink:title=" ">
<path fill="none" stroke="#63b8ff" d="M124.71,-128.89C141.05,-133.51 159.11,-138.61 176.08,-143.41"/>
<polygon fill="#63b8ff" stroke="#63b8ff" points="175.02,-146.74 185.59,-146.1 176.92,-140.01 175.02,-146.74"/>
</a>
</g>
</g>
<!-- Node4 -->
<g id="Node000004" class="node">
<title>Node4</title>
<g id="a_Node000004"><a xlink:href="../../d1/d71/struct_database_1_1_i_generic_sql_query_generator.html#a30ba93170abc64272718a5fc335b4d7a" target="_top" xlink:title=" ">
<polygon fill="white" stroke="#666666" points="312.88,-128.5 174.62,-128.5 174.62,-98 312.88,-98 312.88,-128.5"/>
<text text-anchor="start" x="182.62" y="-115" font-family="Helvetica,sans-Serif" font-size="10.00">Database::IGenericSqlQuery</text>
<text text-anchor="middle" x="243.75" y="-103.75" font-family="Helvetica,sans-Serif" font-size="10.00">Generator::insert</text>
</a>
</g>
</g>
<!-- Node1&#45;&gt;Node4 -->
<g id="edge3_Node000001_Node000004" class="edge">
<title>Node1&#45;&gt;Node4</title>
<g id="a_edge3_Node000001_Node000004"><a xlink:title=" ">
<path fill="none" stroke="#63b8ff" d="M136.9,-113.25C145.43,-113.25 154.22,-113.25 162.92,-113.25"/>
<polygon fill="#63b8ff" stroke="#63b8ff" points="162.75,-116.75 172.75,-113.25 162.75,-109.75 162.75,-116.75"/>
</a>
</g>
</g>
<!-- Node5 -->
<g id="Node000005" class="node">
<title>Node5</title>
<g id="a_Node000005"><a xlink:href="../../d4/df7/class_database_1_1_insert_query_data.html#ad5559c694413325527ab752c01dd1ca8" target="_top" xlink:title=" ">
<polygon fill="white" stroke="#666666" points="309.88,-79.5 177.62,-79.5 177.62,-49 309.88,-49 309.88,-79.5"/>
<text text-anchor="start" x="185.62" y="-66" font-family="Helvetica,sans-Serif" font-size="10.00">Database::InsertQueryData</text>
<text text-anchor="middle" x="243.75" y="-54.75" font-family="Helvetica,sans-Serif" font-size="10.00">::setColumns</text>
</a>
</g>
</g>
<!-- Node1&#45;&gt;Node5 -->
<g id="edge4_Node000001_Node000005" class="edge">
<title>Node1&#45;&gt;Node5</title>
<g id="a_edge4_Node000001_Node000005"><a xlink:title=" ">
<path fill="none" stroke="#63b8ff" d="M124.71,-97.61C141.05,-92.99 159.11,-87.89 176.08,-83.09"/>
<polygon fill="#63b8ff" stroke="#63b8ff" points="176.92,-86.49 185.59,-80.4 175.02,-79.76 176.92,-86.49"/>
</a>
</g>
</g>
<!-- Node6 -->
<g id="Node000006" class="node">
<title>Node6</title>
<g id="a_Node000006"><a xlink:href="../../d4/df7/class_database_1_1_insert_query_data.html#a5140196bba75c14512d5f967bd6ee152" target="_top" xlink:title=" ">
<polygon fill="white" stroke="#666666" points="309.88,-30.5 177.62,-30.5 177.62,0 309.88,0 309.88,-30.5"/>
<text text-anchor="start" x="185.62" y="-17" font-family="Helvetica,sans-Serif" font-size="10.00">Database::InsertQueryData</text>
<text text-anchor="middle" x="243.75" y="-5.75" font-family="Helvetica,sans-Serif" font-size="10.00">::setValues</text>
</a>
</g>
</g>
<!-- Node1&#45;&gt;Node6 -->
<g id="edge5_Node000001_Node000006" class="edge">
<title>Node1&#45;&gt;Node6</title>
<g id="a_edge5_Node000001_Node000006"><a xlink:title=" ">
<path fill="none" stroke="#63b8ff" d="M88.18,-97.59C108.16,-81.53 141.16,-56.65 172.75,-40.25 176.01,-38.56 179.42,-36.93 182.89,-35.37"/>
<polygon fill="#63b8ff" stroke="#63b8ff" points="184.19,-38.63 192.05,-31.53 181.48,-32.17 184.19,-38.63"/>
</a>
</g>
</g>
</g>
</svg>
</svg>

<style type='text/css'>
<![CDATA[
[data-mouse-over-selected='false'] { opacity: 0.7; }
[data-mouse-over-selected='true']  { opacity: 1.0; }
]]>
</style>
<script type="application/ecmascript"><![CDATA[
document.addEventListener('DOMContentLoaded', (event) => {
  highlightEdges();
  highlightAdjacentNodes();
});
]]></script>
</svg>
