<?xml version="1.0" encoding="UTF-8" standalone="no"?>
<!DOCTYPE svg PUBLIC "-//W3C//DTD SVG 1.1//EN"
 "http://www.w3.org/Graphics/SVG/1.1/DTD/svg11.dtd">
<!-- Generated by graphviz version 7.0.5 (20221223.1930)
 -->
<!-- Title: src/gui/desktop/QmlItems/utils.cpp Pages: 1 -->
<svg width="261pt" height="93pt"
 viewBox="0.00 0.00 260.50 93.00" xmlns="http://www.w3.org/2000/svg" xmlns:xlink="http://www.w3.org/1999/xlink">
<g id="graph0" class="graph" transform="scale(1 1) rotate(0) translate(4 89)">
<title>src/gui/desktop/QmlItems/utils.cpp</title>
<!-- Node1 -->
<g id="node1" class="node">
<title>Node1</title>
<g id="a_node1"><a xlink:title=" ">
<polygon fill="#999999" stroke="#666666" points="210.5,-85 81.5,-85 81.5,-55 210.5,-55 210.5,-85"/>
<text text-anchor="start" x="89.5" y="-73" font-family="Helvetica,sans-Serif" font-size="10.00">src/gui/desktop/QmlItems</text>
<text text-anchor="middle" x="146" y="-62" font-family="Helvetica,sans-Serif" font-size="10.00">/utils.cpp</text>
</a>
</g>
</g>
<!-- Node2 -->
<g id="node2" class="node">
<title>Node2</title>
<g id="a_node2"><a xlink:title=" ">
<polygon fill="#e0e0e0" stroke="#999999" points="92,-19 0,-19 0,0 92,0 92,-19"/>
<text text-anchor="middle" x="46" y="-7" font-family="Helvetica,sans-Serif" font-size="10.00">QCoreApplication</text>
</a>
</g>
</g>
<!-- Node1&#45;&gt;Node2 -->
<g id="edge1" class="edge">
<title>Node1&#45;&gt;Node2</title>
<path fill="none" stroke="#63b8ff" d="M121.28,-54.54C105.96,-45.58 86.34,-34.1 70.98,-25.11"/>
<polygon fill="#63b8ff" stroke="#63b8ff" points="72.83,-22.14 62.43,-20.11 69.29,-28.18 72.83,-22.14"/>
</g>
<!-- Node3 -->
<g id="node3" class="node">
<title>Node3</title>
<g id="a_node3"><a xlink:title=" ">
<polygon fill="#e0e0e0" stroke="#999999" points="181.5,-19 110.5,-19 110.5,0 181.5,0 181.5,-19"/>
<text text-anchor="middle" x="146" y="-7" font-family="Helvetica,sans-Serif" font-size="10.00">QQmlEngine</text>
</a>
</g>
</g>
<!-- Node1&#45;&gt;Node3 -->
<g id="edge2" class="edge">
<title>Node1&#45;&gt;Node3</title>
<path fill="none" stroke="#63b8ff" d="M146,-54.54C146,-47.34 146,-38.53 146,-30.68"/>
<polygon fill="#63b8ff" stroke="#63b8ff" points="149.5,-30.69 146,-20.69 142.5,-30.69 149.5,-30.69"/>
</g>
<!-- Node4 -->
<g id="node4" class="node">
<title>Node4</title>
<g id="a_node4"><a xlink:href="../../db/d61/gui_2desktop_2_qml_items_2utils_8hpp.html" target="_top" xlink:title=" ">
<polygon fill="#fff0f0" stroke="red" points="252.5,-19 199.5,-19 199.5,0 252.5,0 252.5,-19"/>
<text text-anchor="middle" x="226" y="-7" font-family="Helvetica,sans-Serif" font-size="10.00">utils.hpp</text>
</a>
</g>
</g>
<!-- Node1&#45;&gt;Node4 -->
<g id="edge3" class="edge">
<title>Node1&#45;&gt;Node4</title>
<path fill="none" stroke="#63b8ff" d="M165.78,-54.54C177.75,-45.78 193.01,-34.63 205.17,-25.73"/>
<polygon fill="#63b8ff" stroke="#63b8ff" points="206.91,-28.8 212.91,-20.07 202.78,-23.15 206.91,-28.8"/>
</g>
</g>
</svg>
