<?xml version="1.0" encoding="UTF-8" standalone="no"?>
<!DOCTYPE svg PUBLIC "-//W3C//DTD SVG 1.1//EN"
 "http://www.w3.org/Graphics/SVG/1.1/DTD/svg11.dtd">
<!-- Generated by graphviz version 12.2.0 (20241103.1931)
 -->
<!-- Title: src/gui/desktop/utils/grouppers/generator_utils.cpp Pages: 1 -->
<svg width="1078pt" height="105pt"
 viewBox="0.00 0.00 1078.12 105.00" xmlns="http://www.w3.org/2000/svg" xmlns:xlink="http://www.w3.org/1999/xlink">
<g id="graph0" class="graph" transform="scale(1 1) rotate(0) translate(4 101)">
<title>src/gui/desktop/utils/grouppers/generator_utils.cpp</title>
<!-- Node1 -->
<g id="Node000001" class="node">
<title>Node1</title>
<g id="a_Node000001"><a xlink:title=" ">
<polygon fill="#999999" stroke="#666666" points="571.38,-97 466.12,-97 466.12,-55.25 571.38,-55.25 571.38,-97"/>
<text text-anchor="start" x="474.12" y="-83.5" font-family="Helvetica,sans-Serif" font-size="10.00">src/gui/desktop/utils</text>
<text text-anchor="start" x="474.12" y="-72.25" font-family="Helvetica,sans-Serif" font-size="10.00">/grouppers/generator</text>
<text text-anchor="middle" x="518.75" y="-61" font-family="Helvetica,sans-Serif" font-size="10.00">_utils.cpp</text>
</a>
</g>
</g>
<!-- Node2 -->
<g id="Node000002" class="node">
<title>Node2</title>
<g id="a_Node000002"><a xlink:title=" ">
<polygon fill="#e0e0e0" stroke="#999999" points="35.5,-19.25 0,-19.25 0,0 35.5,0 35.5,-19.25"/>
<text text-anchor="middle" x="17.75" y="-5.75" font-family="Helvetica,sans-Serif" font-size="10.00">QDir</text>
</a>
</g>
</g>
<!-- Node1&#45;&gt;Node2 -->
<g id="edge1_Node000001_Node000002" class="edge">
<title>Node1&#45;&gt;Node2</title>
<g id="a_edge1_Node000001_Node000002"><a xlink:title=" ">
<path fill="none" stroke="#63b8ff" d="M465.95,-72.22C379.82,-66.75 203.72,-52.57 46.71,-19.28"/>
<polygon fill="#63b8ff" stroke="#63b8ff" points="47.91,-15.96 37.4,-17.27 46.44,-22.8 47.91,-15.96"/>
</a>
</g>
</g>
<!-- Node3 -->
<g id="Node000003" class="node">
<title>Node3</title>
<g id="a_Node000003"><a xlink:title=" ">
<polygon fill="#e0e0e0" stroke="#999999" points="123.75,-19.25 53.75,-19.25 53.75,0 123.75,0 123.75,-19.25"/>
<text text-anchor="middle" x="88.75" y="-5.75" font-family="Helvetica,sans-Serif" font-size="10.00">QEventLoop</text>
</a>
</g>
</g>
<!-- Node1&#45;&gt;Node3 -->
<g id="edge2_Node000001_Node000003" class="edge">
<title>Node1&#45;&gt;Node3</title>
<g id="a_edge2_Node000001_Node000003"><a xlink:title=" ">
<path fill="none" stroke="#63b8ff" d="M465.86,-68.32C393.56,-58.83 259.55,-40.56 135.03,-19.56"/>
<polygon fill="#63b8ff" stroke="#63b8ff" points="135.72,-16.13 125.28,-17.91 134.55,-23.03 135.72,-16.13"/>
</a>
</g>
</g>
<!-- Node4 -->
<g id="Node000004" class="node">
<title>Node4</title>
<g id="a_Node000004"><a xlink:title=" ">
<polygon fill="#e0e0e0" stroke="#999999" points="245.62,-19.25 141.88,-19.25 141.88,0 245.62,0 245.62,-19.25"/>
<text text-anchor="middle" x="193.75" y="-5.75" font-family="Helvetica,sans-Serif" font-size="10.00">QRegularExpression</text>
</a>
</g>
</g>
<!-- Node1&#45;&gt;Node4 -->
<g id="edge3_Node000001_Node000004" class="edge">
<title>Node1&#45;&gt;Node4</title>
<g id="a_edge3_Node000001_Node000004"><a xlink:title=" ">
<path fill="none" stroke="#63b8ff" d="M465.81,-64.62C406.75,-52.9 311.56,-34 250.86,-21.96"/>
<polygon fill="#63b8ff" stroke="#63b8ff" points="251.55,-18.53 241.06,-20.01 250.18,-25.39 251.55,-18.53"/>
</a>
</g>
</g>
<!-- Node5 -->
<g id="Node000005" class="node">
<title>Node5</title>
<g id="a_Node000005"><a xlink:title=" ">
<polygon fill="#e0e0e0" stroke="#999999" points="384.25,-19.25 263.25,-19.25 263.25,0 384.25,0 384.25,-19.25"/>
<text text-anchor="middle" x="323.75" y="-5.75" font-family="Helvetica,sans-Serif" font-size="10.00">opencv2/imgcodecs.hpp</text>
</a>
</g>
</g>
<!-- Node1&#45;&gt;Node5 -->
<g id="edge4_Node000001_Node000005" class="edge">
<title>Node1&#45;&gt;Node5</title>
<g id="a_edge4_Node000001_Node000005"><a xlink:title=" ">
<path fill="none" stroke="#63b8ff" d="M465.72,-57.59C432.92,-46.74 391.57,-33.06 361.97,-23.27"/>
<polygon fill="#63b8ff" stroke="#63b8ff" points="363.28,-20.01 352.68,-20.2 361.08,-26.66 363.28,-20.01"/>
</a>
</g>
</g>
<!-- Node6 -->
<g id="Node000006" class="node">
<title>Node6</title>
<g id="a_Node000006"><a xlink:href="../../df/d6f/iexif__reader_8hpp.html" target="_top" xlink:title=" ">
<polygon fill="#fff0f0" stroke="red" points="507.38,-19.25 402.12,-19.25 402.12,0 507.38,0 507.38,-19.25"/>
<text text-anchor="middle" x="454.75" y="-5.75" font-family="Helvetica,sans-Serif" font-size="10.00">core/iexif_reader.hpp</text>
</a>
</g>
</g>
<!-- Node1&#45;&gt;Node6 -->
<g id="edge5_Node000001_Node000006" class="edge">
<title>Node1&#45;&gt;Node6</title>
<g id="a_edge5_Node000001_Node000006"><a xlink:title=" ">
<path fill="none" stroke="#63b8ff" d="M498.85,-55.07C490.14,-46.29 480.02,-36.09 471.67,-27.68"/>
<polygon fill="#63b8ff" stroke="#63b8ff" points="474.34,-25.4 464.82,-20.77 469.38,-30.33 474.34,-25.4"/>
</a>
</g>
</g>
<!-- Node19 -->
<g id="Node000019" class="node">
<title>Node19</title>
<g id="a_Node000019"><a xlink:href="../../d6/d1d/image__aligner_8hpp.html" target="_top" xlink:title=" ">
<polygon fill="#fff0f0" stroke="red" points="641.62,-19.25 525.88,-19.25 525.88,0 641.62,0 641.62,-19.25"/>
<text text-anchor="middle" x="583.75" y="-5.75" font-family="Helvetica,sans-Serif" font-size="10.00">core/image_aligner.hpp</text>
</a>
</g>
</g>
<!-- Node1&#45;&gt;Node19 -->
<g id="edge6_Node000001_Node000019" class="edge">
<title>Node1&#45;&gt;Node19</title>
<g id="a_edge6_Node000001_Node000019"><a xlink:title=" ">
<path fill="none" stroke="#63b8ff" d="M538.96,-55.07C547.81,-46.29 558.09,-36.09 566.56,-27.68"/>
<polygon fill="#63b8ff" stroke="#63b8ff" points="568.9,-30.29 573.53,-20.76 563.97,-25.32 568.9,-30.29"/>
</a>
</g>
</g>
<!-- Node25 -->
<g id="Node000025" class="node">
<title>Node25</title>
<g id="a_Node000025"><a xlink:href="../../d9/dfc/image__tools_8hpp.html" target="_top" xlink:title=" ">
<polygon fill="#fff0f0" stroke="red" points="767.88,-19.25 659.62,-19.25 659.62,0 767.88,0 767.88,-19.25"/>
<text text-anchor="middle" x="713.75" y="-5.75" font-family="Helvetica,sans-Serif" font-size="10.00">core/image_tools.hpp</text>
</a>
</g>
</g>
<!-- Node1&#45;&gt;Node25 -->
<g id="edge7_Node000001_Node000025" class="edge">
<title>Node1&#45;&gt;Node25</title>
<g id="a_edge7_Node000001_Node000025"><a xlink:title=" ">
<path fill="none" stroke="#63b8ff" d="M571.78,-57.59C604.58,-46.74 645.93,-33.06 675.53,-23.27"/>
<polygon fill="#63b8ff" stroke="#63b8ff" points="676.42,-26.66 684.82,-20.2 674.22,-20.01 676.42,-26.66"/>
</a>
</g>
</g>
<!-- Node28 -->
<g id="Node000028" class="node">
<title>Node28</title>
<g id="a_Node000028"><a xlink:href="../../d8/d43/core_2utils_8hpp.html" target="_top" xlink:title=" ">
<polygon fill="#fff0f0" stroke="red" points="859.62,-19.25 785.88,-19.25 785.88,0 859.62,0 859.62,-19.25"/>
<text text-anchor="middle" x="822.75" y="-5.75" font-family="Helvetica,sans-Serif" font-size="10.00">core/utils.hpp</text>
</a>
</g>
</g>
<!-- Node1&#45;&gt;Node28 -->
<g id="edge8_Node000001_Node000028" class="edge">
<title>Node1&#45;&gt;Node28</title>
<g id="a_edge8_Node000001_Node000028"><a xlink:title=" ">
<path fill="none" stroke="#63b8ff" d="M571.7,-63.89C628.88,-51.76 719.17,-32.6 774.46,-20.87"/>
<polygon fill="#63b8ff" stroke="#63b8ff" points="775.17,-24.3 784.22,-18.8 773.71,-17.45 775.17,-24.3"/>
</a>
</g>
</g>
<!-- Node31 -->
<g id="Node000031" class="node">
<title>Node31</title>
<g id="a_Node000031"><a xlink:href="../../de/da5/generator__utils_8hpp.html" target="_top" xlink:title=" ">
<polygon fill="#fff0f0" stroke="red" points="975.62,-19.25 877.88,-19.25 877.88,0 975.62,0 975.62,-19.25"/>
<text text-anchor="middle" x="926.75" y="-5.75" font-family="Helvetica,sans-Serif" font-size="10.00">generator_utils.hpp</text>
</a>
</g>
</g>
<!-- Node1&#45;&gt;Node31 -->
<g id="edge9_Node000001_Node000031" class="edge">
<title>Node1&#45;&gt;Node31</title>
<g id="a_edge9_Node000001_Node000031"><a xlink:title=" ">
<path fill="none" stroke="#63b8ff" d="M571.67,-66.76C647.4,-54.79 786.32,-32.82 866.1,-20.21"/>
<polygon fill="#63b8ff" stroke="#63b8ff" points="866.61,-23.68 875.94,-18.66 865.51,-16.76 866.61,-23.68"/>
</a>
</g>
</g>
<!-- Node38 -->
<g id="Node000038" class="node">
<title>Node38</title>
<g id="a_Node000038"><a xlink:title=" ">
<polygon fill="#e0e0e0" stroke="#999999" points="1070.12,-19.25 993.38,-19.25 993.38,0 1070.12,0 1070.12,-19.25"/>
<text text-anchor="middle" x="1031.75" y="-5.75" font-family="Helvetica,sans-Serif" font-size="10.00">broom.system</text>
</a>
</g>
</g>
<!-- Node1&#45;&gt;Node38 -->
<g id="edge10_Node000001_Node000038" class="edge">
<title>Node1&#45;&gt;Node38</title>
<g id="a_edge10_Node000001_Node000038"><a xlink:title=" ">
<path fill="none" stroke="#63b8ff" d="M571.66,-69.86C656.21,-61.22 827.25,-42.76 981.94,-19.6"/>
<polygon fill="#63b8ff" stroke="#63b8ff" points="982.19,-23.1 991.56,-18.15 981.15,-16.18 982.19,-23.1"/>
</a>
</g>
</g>
</g>
</svg>
