<?xml version="1.0" encoding="UTF-8" standalone="no"?>
<!DOCTYPE svg PUBLIC "-//W3C//DTD SVG 1.1//EN"
 "http://www.w3.org/Graphics/SVG/1.1/DTD/svg11.dtd">
<!-- Generated by graphviz version 7.0.5 (20221223.1930)
 -->
<!-- Title: SelectionManagerComponent::selectionChanged Pages: 1 -->
<svg width="332pt" height="76pt"
 viewBox="0.00 0.00 332.00 75.50" xmlns="http://www.w3.org/2000/svg" xmlns:xlink="http://www.w3.org/1999/xlink">
<g id="graph0" class="graph" transform="scale(1 1) rotate(0) translate(4 71.5)">
<title>SelectionManagerComponent::selectionChanged</title>
<!-- Node1 -->
<g id="node1" class="node">
<title>Node1</title>
<g id="a_node1"><a xlink:title=" ">
<polygon fill="#999999" stroke="#666666" points="324,-45.5 180,-45.5 180,-15.5 324,-15.5 324,-45.5"/>
<text text-anchor="start" x="188" y="-33.5" font-family="Helvetica,sans-Serif" font-size="10.00">SelectionManagerComponent</text>
<text text-anchor="middle" x="252" y="-22.5" font-family="Helvetica,sans-Serif" font-size="10.00">::selectionChanged</text>
</a>
</g>
</g>
<!-- Node2 -->
<g id="node2" class="node">
<title>Node2</title>
<g id="a_node2"><a xlink:href="../../d2/de4/class_selection_manager_component.html#a54c8a69bcf0166c3597afcb82adbf692" target="_top" xlink:title=" ">
<polygon fill="#fff0f0" stroke="red" points="144,-67.5 0,-67.5 0,-37.5 144,-37.5 144,-67.5"/>
<text text-anchor="start" x="8" y="-55.5" font-family="Helvetica,sans-Serif" font-size="10.00">SelectionManagerComponent</text>
<text text-anchor="middle" x="72" y="-44.5" font-family="Helvetica,sans-Serif" font-size="10.00">::calculateChange</text>
</a>
</g>
</g>
<!-- Node1&#45;&gt;Node2 -->
<g id="edge1" class="edge">
<title>Node1&#45;&gt;Node2</title>
<path fill="none" stroke="#63b8ff" d="M168.37,-40.71C160.36,-41.7 152.28,-42.7 144.39,-43.68"/>
<polygon fill="#63b8ff" stroke="#63b8ff" points="168.63,-44.21 178.12,-39.51 167.77,-37.26 168.63,-44.21"/>
</g>
<!-- Node8 -->
<g id="node3" class="node">
<title>Node8</title>
<g id="a_node3"><a xlink:href="../../d5/d5e/selection__manager__component__tests_8cpp.html#a093ba5ea7c12e2605ec459166fc6aefc" target="_top" xlink:title=" ">
<polygon fill="white" stroke="#666666" points="92.5,-19 51.5,-19 51.5,0 92.5,0 92.5,-19"/>
<text text-anchor="middle" x="72" y="-7" font-family="Helvetica,sans-Serif" font-size="10.00">TEST</text>
</a>
</g>
</g>
<!-- Node1&#45;&gt;Node8 -->
<g id="edge2" class="edge">
<title>Node1&#45;&gt;Node8</title>
<path fill="none" stroke="#63b8ff" d="M168.51,-20.77C140.42,-17.45 111.45,-14.04 92.9,-11.85"/>
<polygon fill="#63b8ff" stroke="#63b8ff" points="167.78,-24.21 178.12,-21.9 168.6,-17.25 167.78,-24.21"/>
</g>
</g>
</svg>
