<?xml version="1.0" encoding="UTF-8" standalone="no"?>
<!DOCTYPE svg PUBLIC "-//W3C//DTD SVG 1.1//EN"
 "http://www.w3.org/Graphics/SVG/1.1/DTD/svg11.dtd">
<!-- Generated by graphviz version 7.0.5 (20221223.1930)
 -->
<!-- Title: SelectionManagerComponent::selectTo Pages: 1 -->
<svg width="512pt" height="59pt"
 viewBox="0.00 0.00 512.00 59.00" xmlns="http://www.w3.org/2000/svg" xmlns:xlink="http://www.w3.org/1999/xlink">
<g id="graph0" class="graph" transform="scale(1 1) rotate(0) translate(4 55)">
<title>SelectionManagerComponent::selectTo</title>
<!-- Node1 -->
<g id="node1" class="node">
<title>Node1</title>
<g id="a_node1"><a xlink:title=" ">
<polygon fill="#999999" stroke="#666666" points="144,-51 0,-51 0,-21 144,-21 144,-51"/>
<text text-anchor="start" x="8" y="-39" font-family="Helvetica,sans-Serif" font-size="10.00">SelectionManagerComponent</text>
<text text-anchor="middle" x="72" y="-28" font-family="Helvetica,sans-Serif" font-size="10.00">::selectTo</text>
</a>
</g>
</g>
<!-- Node2 -->
<g id="node2" class="node">
<title>Node2</title>
<g id="a_node2"><a xlink:href="../../d2/de4/class_selection_manager_component.html#a54c8a69bcf0166c3597afcb82adbf692" target="_top" xlink:title=" ">
<polygon fill="white" stroke="#666666" points="504,-51 360,-51 360,-21 504,-21 504,-51"/>
<text text-anchor="start" x="368" y="-39" font-family="Helvetica,sans-Serif" font-size="10.00">SelectionManagerComponent</text>
<text text-anchor="middle" x="432" y="-28" font-family="Helvetica,sans-Serif" font-size="10.00">::calculateChange</text>
</a>
</g>
</g>
<!-- Node1&#45;&gt;Node2 -->
<g id="edge1" class="edge">
<title>Node1&#45;&gt;Node2</title>
<path fill="none" stroke="#63b8ff" d="M144.36,-38.28C156.26,-38.58 168.48,-38.84 180,-39 243.99,-39.9 260.01,-39.9 324,-39 331.83,-38.89 339.98,-38.74 348.14,-38.55"/>
<polygon fill="#63b8ff" stroke="#63b8ff" points="348.21,-42.05 358.12,-38.32 348.04,-35.05 348.21,-42.05"/>
</g>
<!-- Node3 -->
<g id="node3" class="node">
<title>Node3</title>
<g id="a_node3"><a xlink:href="../../d2/de4/class_selection_manager_component.html#a848f97d82d9afcbe730ea3613f0c5d2d" target="_top" xlink:title=" ">
<polygon fill="#fff0f0" stroke="red" points="324,-30 180,-30 180,0 324,0 324,-30"/>
<text text-anchor="start" x="188" y="-18" font-family="Helvetica,sans-Serif" font-size="10.00">SelectionManagerComponent</text>
<text text-anchor="middle" x="252" y="-7" font-family="Helvetica,sans-Serif" font-size="10.00">::toggleIndexSelection</text>
</a>
</g>
</g>
<!-- Node1&#45;&gt;Node3 -->
<g id="edge2" class="edge">
<title>Node1&#45;&gt;Node3</title>
<path fill="none" stroke="#63b8ff" d="M144.37,-27.58C152.26,-26.65 160.34,-25.7 168.36,-24.75"/>
<polygon fill="#63b8ff" stroke="#63b8ff" points="168.59,-28.25 178.11,-23.6 167.77,-21.3 168.59,-28.25"/>
</g>
<!-- Node3&#45;&gt;Node2 -->
<g id="edge3" class="edge">
<title>Node3&#45;&gt;Node2</title>
<path fill="none" stroke="#63b8ff" d="M324.37,-23.42C332.26,-24.35 340.34,-25.3 348.36,-26.25"/>
<polygon fill="#63b8ff" stroke="#63b8ff" points="347.77,-29.7 358.11,-27.4 348.59,-22.75 347.77,-29.7"/>
</g>
</g>
</svg>
