<?xml version="1.0" encoding="UTF-8" standalone="no"?>
<!DOCTYPE svg PUBLIC "-//W3C//DTD SVG 1.1//EN"
 "http://www.w3.org/Graphics/SVG/1.1/DTD/svg11.dtd">
<!-- Generated by graphviz version 9.0.0 (20230911.1827)
 -->
<!-- Title: SelectionManagerComponent::clearAndToggleIndexSelection Pages: 1 -->
<svg width="339pt" height="137pt"
 viewBox="0.00 0.00 339.25 136.50" xmlns="http://www.w3.org/2000/svg" xmlns:xlink="http://www.w3.org/1999/xlink">
<g id="graph0" class="graph" transform="scale(1 1) rotate(0) translate(4 132.5)">
<title>SelectionManagerComponent::clearAndToggleIndexSelection</title>
<!-- Node1 -->
<g id="Node000001" class="node">
<title>Node1</title>
<g id="a_Node000001"><a xlink:title=" ">
<polygon fill="#999999" stroke="#666666" points="151.75,-79.5 0,-79.5 0,-49 151.75,-49 151.75,-79.5"/>
<text text-anchor="start" x="8" y="-66" font-family="Helvetica,sans-Serif" font-size="10.00">SelectionManagerComponent</text>
<text text-anchor="middle" x="75.88" y="-54.75" font-family="Helvetica,sans-Serif" font-size="10.00">::clearAndToggleIndexSelection</text>
</a>
</g>
</g>
<!-- Node2 -->
<g id="Node000002" class="node">
<title>Node2</title>
<g id="a_Node000002"><a xlink:href="../../d2/de4/class_selection_manager_component.html#a54c8a69bcf0166c3597afcb82adbf692" target="_top" xlink:title=" ">
<polygon fill="#fff0f0" stroke="red" points="331.25,-128.5 187.75,-128.5 187.75,-98 331.25,-98 331.25,-128.5"/>
<text text-anchor="start" x="195.75" y="-115" font-family="Helvetica,sans-Serif" font-size="10.00">SelectionManagerComponent</text>
<text text-anchor="middle" x="259.5" y="-103.75" font-family="Helvetica,sans-Serif" font-size="10.00">::calculateChange</text>
</a>
</g>
</g>
<!-- Node1&#45;&gt;Node2 -->
<g id="edge1_Node000001_Node000002" class="edge">
<title>Node1&#45;&gt;Node2</title>
<g id="a_edge1_Node000001_Node000002"><a xlink:title=" ">
<path fill="none" stroke="#63b8ff" d="M135.09,-79.96C152.36,-84.62 171.45,-89.76 189.34,-94.59"/>
<polygon fill="#63b8ff" stroke="#63b8ff" points="188.27,-97.93 198.84,-97.15 190.1,-91.17 188.27,-97.93"/>
</a>
</g>
</g>
<!-- Node5 -->
<g id="Node000005" class="node">
<title>Node5</title>
<g id="a_Node000005"><a xlink:href="../../d2/de4/class_selection_manager_component.html#aa492c4e3b2b676292943210b5c60fe9f" target="_top" xlink:title=" ">
<polygon fill="white" stroke="#666666" points="331.25,-79.5 187.75,-79.5 187.75,-49 331.25,-49 331.25,-79.5"/>
<text text-anchor="start" x="195.75" y="-66" font-family="Helvetica,sans-Serif" font-size="10.00">SelectionManagerComponent</text>
<text text-anchor="middle" x="259.5" y="-54.75" font-family="Helvetica,sans-Serif" font-size="10.00">::clear</text>
</a>
</g>
</g>
<!-- Node1&#45;&gt;Node5 -->
<g id="edge2_Node000001_Node000005" class="edge">
<title>Node1&#45;&gt;Node5</title>
<g id="a_edge2_Node000001_Node000005"><a xlink:title=" ">
<path fill="none" stroke="#63b8ff" d="M152.06,-64.25C160.02,-64.25 168.14,-64.25 176.18,-64.25"/>
<polygon fill="#63b8ff" stroke="#63b8ff" points="175.94,-67.75 185.94,-64.25 175.94,-60.75 175.94,-67.75"/>
</a>
</g>
</g>
<!-- Node6 -->
<g id="Node000006" class="node">
<title>Node6</title>
<g id="a_Node000006"><a xlink:href="../../d2/de4/class_selection_manager_component.html#a38832ff1aa0f836191fa3faa39f78491" target="_top" xlink:title=" ">
<polygon fill="white" stroke="#666666" points="331.25,-30.5 187.75,-30.5 187.75,0 331.25,0 331.25,-30.5"/>
<text text-anchor="start" x="195.75" y="-17" font-family="Helvetica,sans-Serif" font-size="10.00">SelectionManagerComponent</text>
<text text-anchor="middle" x="259.5" y="-5.75" font-family="Helvetica,sans-Serif" font-size="10.00">::toggle</text>
</a>
</g>
</g>
<!-- Node1&#45;&gt;Node6 -->
<g id="edge3_Node000001_Node000006" class="edge">
<title>Node1&#45;&gt;Node6</title>
<g id="a_edge3_Node000001_Node000006"><a xlink:title=" ">
<path fill="none" stroke="#63b8ff" d="M135.09,-48.54C152.36,-43.88 171.45,-38.74 189.34,-33.91"/>
<polygon fill="#63b8ff" stroke="#63b8ff" points="190.1,-37.33 198.84,-31.35 188.27,-30.57 190.1,-37.33"/>
</a>
</g>
</g>
</g>
</svg>
