<?xml version="1.0" encoding="UTF-8" standalone="no"?>
<!DOCTYPE svg PUBLIC "-//W3C//DTD SVG 1.1//EN"
 "http://www.w3.org/Graphics/SVG/1.1/DTD/svg11.dtd">
<!-- Generated by graphviz version 7.0.5 (20221223.1930)
 -->
<!-- Title: SelectionManagerComponent::calculateChange Pages: 1 -->
<svg width="520pt" height="172pt"
 viewBox="0.00 0.00 520.00 172.00" xmlns="http://www.w3.org/2000/svg" xmlns:xlink="http://www.w3.org/1999/xlink">
<g id="graph0" class="graph" transform="scale(1 1) rotate(0) translate(4 168)">
<title>SelectionManagerComponent::calculateChange</title>
<!-- Node1 -->
<g id="node1" class="node">
<title>Node1</title>
<g id="a_node1"><a xlink:title=" ">
<polygon fill="#999999" stroke="#666666" points="512,-94 368,-94 368,-64 512,-64 512,-94"/>
<text text-anchor="start" x="376" y="-82" font-family="Helvetica,sans-Serif" font-size="10.00">SelectionManagerComponent</text>
<text text-anchor="middle" x="440" y="-71" font-family="Helvetica,sans-Serif" font-size="10.00">::calculateChange</text>
</a>
</g>
</g>
<!-- Node2 -->
<g id="node2" class="node">
<title>Node2</title>
<g id="a_node2"><a xlink:href="../../d2/de4/class_selection_manager_component.html#ad39791fcf2f87e59eac49322e1d38ee8" target="_top" xlink:title=" ">
<polygon fill="white" stroke="#666666" points="332,-164 180,-164 180,-134 332,-134 332,-164"/>
<text text-anchor="start" x="188" y="-152" font-family="Helvetica,sans-Serif" font-size="10.00">SelectionManagerComponent</text>
<text text-anchor="middle" x="256" y="-141" font-family="Helvetica,sans-Serif" font-size="10.00">::clearAndToggleIndexSelection</text>
</a>
</g>
</g>
<!-- Node1&#45;&gt;Node2 -->
<g id="edge1" class="edge">
<title>Node1&#45;&gt;Node2</title>
<path fill="none" stroke="#63b8ff" d="M395.33,-98.9C376.09,-107.38 353.09,-117.11 332,-125 324.19,-127.92 315.84,-130.81 307.66,-133.52"/>
<polygon fill="#63b8ff" stroke="#63b8ff" points="396.5,-102.21 404.22,-94.96 393.66,-95.82 396.5,-102.21"/>
</g>
<!-- Node3 -->
<g id="node3" class="node">
<title>Node3</title>
<g id="a_node3"><a xlink:href="../../d2/de4/class_selection_manager_component.html#abe5ea44678c4e747f24c1dafe49772d0" target="_top" xlink:title=" ">
<polygon fill="white" stroke="#666666" points="328,-116 184,-116 184,-86 328,-86 328,-116"/>
<text text-anchor="start" x="192" y="-104" font-family="Helvetica,sans-Serif" font-size="10.00">SelectionManagerComponent</text>
<text text-anchor="middle" x="256" y="-93" font-family="Helvetica,sans-Serif" font-size="10.00">::clearSelection</text>
</a>
</g>
</g>
<!-- Node1&#45;&gt;Node3 -->
<g id="edge2" class="edge">
<title>Node1&#45;&gt;Node3</title>
<path fill="none" stroke="#63b8ff" d="M356.25,-89C346.89,-90.13 337.4,-91.28 328.2,-92.39"/>
<polygon fill="#63b8ff" stroke="#63b8ff" points="356.58,-92.49 366.09,-87.81 355.74,-85.54 356.58,-92.49"/>
</g>
<!-- Node4 -->
<g id="node4" class="node">
<title>Node4</title>
<g id="a_node4"><a xlink:href="../../d2/de4/class_selection_manager_component.html#a925c547e294e52b14d4075aa60101c78" target="_top" xlink:title=" ">
<polygon fill="#fff0f0" stroke="red" points="144,-51 0,-51 0,-21 144,-21 144,-51"/>
<text text-anchor="start" x="8" y="-39" font-family="Helvetica,sans-Serif" font-size="10.00">SelectionManagerComponent</text>
<text text-anchor="middle" x="72" y="-28" font-family="Helvetica,sans-Serif" font-size="10.00">::selectTo</text>
</a>
</g>
</g>
<!-- Node1&#45;&gt;Node4 -->
<g id="edge3" class="edge">
<title>Node1&#45;&gt;Node4</title>
<path fill="none" stroke="#63b8ff" d="M356.33,-69.29C292.48,-61.79 205.04,-51.51 144.26,-44.37"/>
<polygon fill="#63b8ff" stroke="#63b8ff" points="355.72,-72.74 366.06,-70.43 356.54,-65.79 355.72,-72.74"/>
</g>
<!-- Node6 -->
<g id="node5" class="node">
<title>Node6</title>
<g id="a_node5"><a xlink:href="../../d2/de4/class_selection_manager_component.html#a848f97d82d9afcbe730ea3613f0c5d2d" target="_top" xlink:title=" ">
<polygon fill="#fff0f0" stroke="red" points="328,-30 184,-30 184,0 328,0 328,-30"/>
<text text-anchor="start" x="192" y="-18" font-family="Helvetica,sans-Serif" font-size="10.00">SelectionManagerComponent</text>
<text text-anchor="middle" x="256" y="-7" font-family="Helvetica,sans-Serif" font-size="10.00">::toggleIndexSelection</text>
</a>
</g>
</g>
<!-- Node1&#45;&gt;Node6 -->
<g id="edge4" class="edge">
<title>Node1&#45;&gt;Node6</title>
<path fill="none" stroke="#63b8ff" d="M384.24,-59.74C357.6,-50.38 326.01,-39.27 300.97,-30.46"/>
<polygon fill="#63b8ff" stroke="#63b8ff" points="382.92,-62.99 393.52,-63.01 385.24,-56.39 382.92,-62.99"/>
</g>
<!-- Node6&#45;&gt;Node4 -->
<g id="edge5" class="edge">
<title>Node6&#45;&gt;Node4</title>
<path fill="none" stroke="#63b8ff" d="M172.25,-24.55C162.89,-25.63 153.4,-26.72 144.2,-27.78"/>
<polygon fill="#63b8ff" stroke="#63b8ff" points="172.55,-28.04 182.09,-23.41 171.75,-21.08 172.55,-28.04"/>
</g>
</g>
</svg>
