<?xml version="1.0" encoding="UTF-8" standalone="no"?>
<!DOCTYPE svg PUBLIC "-//W3C//DTD SVG 1.1//EN"
 "http://www.w3.org/Graphics/SVG/1.1/DTD/svg11.dtd">
<!-- Generated by graphviz version 7.0.5 (20221223.1930)
 -->
<!-- Title: src/database/iphoto_operator.hpp Pages: 1 -->
<svg width="1886pt" height="115pt"
 viewBox="0.00 0.00 1885.50 115.00" xmlns="http://www.w3.org/2000/svg" xmlns:xlink="http://www.w3.org/1999/xlink">
<g id="graph0" class="graph" transform="scale(1 1) rotate(0) translate(4 111)">
<title>src/database/iphoto_operator.hpp</title>
<!-- Node1 -->
<g id="node1" class="node">
<title>Node1</title>
<g id="a_node1"><a xlink:title=" ">
<polygon fill="#999999" stroke="#666666" points="1010,-107 908,-107 908,-77 1010,-77 1010,-107"/>
<text text-anchor="start" x="916" y="-95" font-family="Helvetica,sans-Serif" font-size="10.00">src/database/iphoto</text>
<text text-anchor="middle" x="959" y="-84" font-family="Helvetica,sans-Serif" font-size="10.00">_operator.hpp</text>
</a>
</g>
</g>
<!-- Node2 -->
<g id="node2" class="node">
<title>Node2</title>
<g id="a_node2"><a xlink:href="../../d7/d86/memory__backend_8hpp.html" target="_top" xlink:title=" ">
<polygon fill="#fff0f0" stroke="red" points="134,-41 0,-41 0,0 134,0 134,-41"/>
<text text-anchor="start" x="8" y="-29" font-family="Helvetica,sans-Serif" font-size="10.00">src/database/backends</text>
<text text-anchor="start" x="8" y="-18" font-family="Helvetica,sans-Serif" font-size="10.00">/memory_backend/memory</text>
<text text-anchor="middle" x="67" y="-7" font-family="Helvetica,sans-Serif" font-size="10.00">_backend.hpp</text>
</a>
</g>
</g>
<!-- Node1&#45;&gt;Node2 -->
<g id="edge1" class="edge">
<title>Node1&#45;&gt;Node2</title>
<path fill="none" stroke="#63b8ff" d="M896.04,-91.2C758.51,-90.75 421.26,-84.82 143,-41 140.17,-40.56 137.3,-40.05 134.41,-39.5"/>
<polygon fill="#63b8ff" stroke="#63b8ff" points="896.03,-94.7 906.04,-91.22 896.05,-87.7 896.03,-94.7"/>
</g>
<!-- Node21 -->
<g id="node3" class="node">
<title>Node21</title>
<g id="a_node3"><a xlink:href="../../d9/d5f/photo__operator_8hpp.html" target="_top" xlink:title=" ">
<polygon fill="#fff0f0" stroke="red" points="317.5,-35.5 152.5,-35.5 152.5,-5.5 317.5,-5.5 317.5,-35.5"/>
<text text-anchor="start" x="160.5" y="-23.5" font-family="Helvetica,sans-Serif" font-size="10.00">src/database/backends</text>
<text text-anchor="middle" x="235" y="-12.5" font-family="Helvetica,sans-Serif" font-size="10.00">/sql_backends/photo_operator.hpp</text>
</a>
</g>
</g>
<!-- Node1&#45;&gt;Node21 -->
<g id="edge2" class="edge">
<title>Node1&#45;&gt;Node21</title>
<path fill="none" stroke="#63b8ff" d="M896.3,-88.74C782.41,-84.04 534.2,-71.02 327,-41 317.47,-39.62 307.44,-37.84 297.66,-35.92"/>
<polygon fill="#63b8ff" stroke="#63b8ff" points="895.9,-92.23 906.04,-89.13 896.19,-85.23 895.9,-92.23"/>
</g>
<!-- Node29 -->
<g id="node4" class="node">
<title>Node29</title>
<g id="a_node4"><a xlink:href="../../d7/d45/photos__analyzer_8cpp.html" target="_top" xlink:title=" ">
<polygon fill="white" stroke="#666666" points="452,-41 336,-41 336,0 452,0 452,-41"/>
<text text-anchor="start" x="344" y="-29" font-family="Helvetica,sans-Serif" font-size="10.00">src/database/database</text>
<text text-anchor="start" x="344" y="-18" font-family="Helvetica,sans-Serif" font-size="10.00">_tools/implementation</text>
<text text-anchor="middle" x="394" y="-7" font-family="Helvetica,sans-Serif" font-size="10.00">/photos_analyzer.cpp</text>
</a>
</g>
</g>
<!-- Node1&#45;&gt;Node29 -->
<g id="edge3" class="edge">
<title>Node1&#45;&gt;Node29</title>
<path fill="none" stroke="#63b8ff" d="M896.25,-88.39C801.3,-83.61 615.77,-71.03 461,-41 458.15,-40.45 455.24,-39.82 452.31,-39.15"/>
<polygon fill="#63b8ff" stroke="#63b8ff" points="895.98,-91.88 906.14,-88.87 896.32,-84.89 895.98,-91.88"/>
</g>
<!-- Node30 -->
<g id="node5" class="node">
<title>Node30</title>
<g id="a_node5"><a xlink:href="../../de/d46/series__detector_8cpp.html" target="_top" xlink:title=" ">
<polygon fill="white" stroke="#666666" points="586,-41 470,-41 470,0 586,0 586,-41"/>
<text text-anchor="start" x="478" y="-29" font-family="Helvetica,sans-Serif" font-size="10.00">src/database/database</text>
<text text-anchor="start" x="478" y="-18" font-family="Helvetica,sans-Serif" font-size="10.00">_tools/implementation</text>
<text text-anchor="middle" x="528" y="-7" font-family="Helvetica,sans-Serif" font-size="10.00">/series_detector.cpp</text>
</a>
</g>
</g>
<!-- Node1&#45;&gt;Node30 -->
<g id="edge4" class="edge">
<title>Node1&#45;&gt;Node30</title>
<path fill="none" stroke="#63b8ff" d="M896.4,-85.22C823.49,-77.84 699.67,-63.3 595,-41 592.16,-40.39 589.26,-39.73 586.34,-39.03"/>
<polygon fill="#63b8ff" stroke="#63b8ff" points="895.85,-88.68 906.14,-86.19 896.54,-81.72 895.85,-88.68"/>
</g>
<!-- Node31 -->
<g id="node6" class="node">
<title>Node31</title>
<g id="a_node6"><a xlink:href="../../de/d97/async__database_8cpp.html" target="_top" xlink:title=" ">
<polygon fill="white" stroke="#666666" points="746,-35.5 604,-35.5 604,-5.5 746,-5.5 746,-35.5"/>
<text text-anchor="start" x="612" y="-23.5" font-family="Helvetica,sans-Serif" font-size="10.00">src/database/implementation</text>
<text text-anchor="middle" x="675" y="-12.5" font-family="Helvetica,sans-Serif" font-size="10.00">/async_database.cpp</text>
</a>
</g>
</g>
<!-- Node1&#45;&gt;Node31 -->
<g id="edge5" class="edge">
<title>Node1&#45;&gt;Node31</title>
<path fill="none" stroke="#63b8ff" d="M896.62,-75.73C848.25,-63.9 781.68,-47.61 734.15,-35.97"/>
<polygon fill="#63b8ff" stroke="#63b8ff" points="895.55,-79.08 906.1,-78.05 897.22,-72.28 895.55,-79.08"/>
</g>
<!-- Node32 -->
<g id="node7" class="node">
<title>Node32</title>
<g id="a_node7"><a xlink:href="../../df/d45/duplicates__model_8cpp.html" target="_top" xlink:title=" ">
<polygon fill="white" stroke="#666666" points="882,-35.5 764,-35.5 764,-5.5 882,-5.5 882,-35.5"/>
<text text-anchor="start" x="772" y="-23.5" font-family="Helvetica,sans-Serif" font-size="10.00">src/gui/desktop/models</text>
<text text-anchor="middle" x="823" y="-12.5" font-family="Helvetica,sans-Serif" font-size="10.00">/duplicates_model.cpp</text>
</a>
</g>
</g>
<!-- Node1&#45;&gt;Node32 -->
<g id="edge6" class="edge">
<title>Node1&#45;&gt;Node32</title>
<path fill="none" stroke="#63b8ff" d="M920.75,-71.46C898.64,-60.15 871.28,-46.17 851.14,-35.88"/>
<polygon fill="#63b8ff" stroke="#63b8ff" points="918.98,-74.48 929.47,-75.91 922.16,-68.24 918.98,-74.48"/>
</g>
<!-- Node33 -->
<g id="node8" class="node">
<title>Node33</title>
<g id="a_node8"><a xlink:href="../../da/dff/flat__model_8cpp.html" target="_top" xlink:title=" ">
<polygon fill="white" stroke="#666666" points="1018,-35.5 900,-35.5 900,-5.5 1018,-5.5 1018,-35.5"/>
<text text-anchor="start" x="908" y="-23.5" font-family="Helvetica,sans-Serif" font-size="10.00">src/gui/desktop/models</text>
<text text-anchor="middle" x="959" y="-12.5" font-family="Helvetica,sans-Serif" font-size="10.00">/flat_model.cpp</text>
</a>
</g>
</g>
<!-- Node1&#45;&gt;Node33 -->
<g id="edge7" class="edge">
<title>Node1&#45;&gt;Node33</title>
<path fill="none" stroke="#63b8ff" d="M959,-65.26C959,-55.33 959,-44.36 959,-35.88"/>
<polygon fill="#63b8ff" stroke="#63b8ff" points="955.5,-65.09 959,-75.09 962.5,-65.09 955.5,-65.09"/>
</g>
<!-- Node34 -->
<g id="node9" class="node">
<title>Node34</title>
<g id="a_node9"><a xlink:href="../../dc/d26/photos__data__guesser_8cpp.html" target="_top" xlink:title=" ">
<polygon fill="white" stroke="#666666" points="1167.5,-35.5 1036.5,-35.5 1036.5,-5.5 1167.5,-5.5 1167.5,-35.5"/>
<text text-anchor="start" x="1044.5" y="-23.5" font-family="Helvetica,sans-Serif" font-size="10.00">src/gui/desktop/models</text>
<text text-anchor="middle" x="1102" y="-12.5" font-family="Helvetica,sans-Serif" font-size="10.00">/photos_data_guesser.cpp</text>
</a>
</g>
</g>
<!-- Node1&#45;&gt;Node34 -->
<g id="edge8" class="edge">
<title>Node1&#45;&gt;Node34</title>
<path fill="none" stroke="#63b8ff" d="M998.9,-71.61C1022.21,-60.28 1051.13,-46.22 1072.41,-35.88"/>
<polygon fill="#63b8ff" stroke="#63b8ff" points="997.46,-68.42 989.99,-75.94 1000.51,-74.71 997.46,-68.42"/>
</g>
<!-- Node35 -->
<g id="node10" class="node">
<title>Node35</title>
<g id="a_node10"><a xlink:href="../../da/d07/photos__model__controller__component_8cpp.html" target="_top" xlink:title=" ">
<polygon fill="white" stroke="#666666" points="1340.5,-41 1185.5,-41 1185.5,0 1340.5,0 1340.5,-41"/>
<text text-anchor="start" x="1193.5" y="-29" font-family="Helvetica,sans-Serif" font-size="10.00">src/gui/desktop/quick</text>
<text text-anchor="start" x="1193.5" y="-18" font-family="Helvetica,sans-Serif" font-size="10.00">_items/photos_model_controller</text>
<text text-anchor="middle" x="1263" y="-7" font-family="Helvetica,sans-Serif" font-size="10.00">_component.cpp</text>
</a>
</g>
</g>
<!-- Node1&#45;&gt;Node35 -->
<g id="edge9" class="edge">
<title>Node1&#45;&gt;Node35</title>
<path fill="none" stroke="#63b8ff" d="M1021.27,-76.76C1068.73,-65.91 1134.37,-50.91 1185.27,-39.27"/>
<polygon fill="#63b8ff" stroke="#63b8ff" points="1020.67,-73.31 1011.7,-78.95 1022.23,-80.13 1020.67,-73.31"/>
</g>
<!-- Node36 -->
<g id="node11" class="node">
<title>Node36</title>
<g id="a_node11"><a xlink:href="../../d9/d9b/collection__scanner_8cpp.html" target="_top" xlink:title=" ">
<polygon fill="white" stroke="#666666" points="1477.5,-35.5 1358.5,-35.5 1358.5,-5.5 1477.5,-5.5 1477.5,-35.5"/>
<text text-anchor="start" x="1366.5" y="-23.5" font-family="Helvetica,sans-Serif" font-size="10.00">src/gui/desktop/utils</text>
<text text-anchor="middle" x="1418" y="-12.5" font-family="Helvetica,sans-Serif" font-size="10.00">/collection_scanner.cpp</text>
</a>
</g>
</g>
<!-- Node1&#45;&gt;Node36 -->
<g id="edge10" class="edge">
<title>Node1&#45;&gt;Node36</title>
<path fill="none" stroke="#63b8ff" d="M1021.34,-85.97C1098.92,-79.05 1235.17,-64.66 1350,-41 1356.86,-39.59 1364.03,-37.84 1371.04,-35.97"/>
<polygon fill="#63b8ff" stroke="#63b8ff" points="1021.5,-82.45 1011.84,-86.81 1022.11,-89.42 1021.5,-82.45"/>
</g>
<!-- Node37 -->
<g id="node12" class="node">
<title>Node37</title>
<g id="a_node12"><a xlink:href="../../de/dcd/groups__manager_8cpp.html" target="_top" xlink:title=" ">
<polygon fill="white" stroke="#666666" points="1606,-35.5 1496,-35.5 1496,-5.5 1606,-5.5 1606,-35.5"/>
<text text-anchor="start" x="1504" y="-23.5" font-family="Helvetica,sans-Serif" font-size="10.00">src/gui/desktop/utils</text>
<text text-anchor="middle" x="1551" y="-12.5" font-family="Helvetica,sans-Serif" font-size="10.00">/groups_manager.cpp</text>
</a>
</g>
</g>
<!-- Node1&#45;&gt;Node37 -->
<g id="edge11" class="edge">
<title>Node1&#45;&gt;Node37</title>
<path fill="none" stroke="#63b8ff" d="M1021.81,-89.14C1121.34,-85.27 1321.04,-73.79 1487,-41 1493.84,-39.65 1500.98,-37.86 1507.92,-35.91"/>
<polygon fill="#63b8ff" stroke="#63b8ff" points="1021.84,-85.63 1011.98,-89.5 1022.1,-92.63 1021.84,-85.63"/>
</g>
<!-- Node38 -->
<g id="node13" class="node">
<title>Node38</title>
<g id="a_node13"><a xlink:href="../../d4/dbd/mock__backend_8hpp.html" target="_top" xlink:title=" ">
<polygon fill="#fff0f0" stroke="red" points="1728,-35.5 1624,-35.5 1624,-5.5 1728,-5.5 1728,-35.5"/>
<text text-anchor="start" x="1632" y="-23.5" font-family="Helvetica,sans-Serif" font-size="10.00">src/unit_tests_utils</text>
<text text-anchor="middle" x="1676" y="-12.5" font-family="Helvetica,sans-Serif" font-size="10.00">/mock_backend.hpp</text>
</a>
</g>
</g>
<!-- Node1&#45;&gt;Node38 -->
<g id="edge12" class="edge">
<title>Node1&#45;&gt;Node38</title>
<path fill="none" stroke="#63b8ff" d="M1021.4,-91.06C1138.76,-90.12 1399.92,-82.98 1615,-41 1621.66,-39.7 1628.6,-37.91 1635.33,-35.94"/>
<polygon fill="#63b8ff" stroke="#63b8ff" points="1021.65,-87.56 1011.67,-91.13 1021.69,-94.56 1021.65,-87.56"/>
</g>
<!-- Node41 -->
<g id="node14" class="node">
<title>Node41</title>
<g id="a_node14"><a xlink:href="../../d8/dee/mock__photo__operator_8hpp.html" target="_top" xlink:title=" ">
<polygon fill="#fff0f0" stroke="red" points="1877.5,-35.5 1746.5,-35.5 1746.5,-5.5 1877.5,-5.5 1877.5,-35.5"/>
<text text-anchor="start" x="1754.5" y="-23.5" font-family="Helvetica,sans-Serif" font-size="10.00">src/unit_tests_utils</text>
<text text-anchor="middle" x="1812" y="-12.5" font-family="Helvetica,sans-Serif" font-size="10.00">/mock_photo_operator.hpp</text>
</a>
</g>
</g>
<!-- Node1&#45;&gt;Node41 -->
<g id="edge13" class="edge">
<title>Node1&#45;&gt;Node41</title>
<path fill="none" stroke="#63b8ff" d="M1021.47,-91C1154.13,-90.12 1473.4,-83.34 1737,-41 1745.1,-39.7 1753.6,-37.91 1761.85,-35.94"/>
<polygon fill="#63b8ff" stroke="#63b8ff" points="1021.84,-87.5 1011.86,-91.05 1021.88,-94.5 1021.84,-87.5"/>
</g>
</g>
</svg>
