<?xml version="1.0" encoding="UTF-8" standalone="no"?>
<!DOCTYPE svg PUBLIC "-//W3C//DTD SVG 1.1//EN"
 "http://www.w3.org/Graphics/SVG/1.1/DTD/svg11.dtd">
<!-- Generated by graphviz version 7.0.5 (20221223.1930)
 -->
<!-- Title: src/database/database_tools/series_detector.hpp Pages: 1 -->
<svg width="740pt" height="203pt"
 viewBox="0.00 0.00 740.00 203.00" xmlns="http://www.w3.org/2000/svg" xmlns:xlink="http://www.w3.org/1999/xlink">
<g id="graph0" class="graph" transform="scale(1 1) rotate(0) translate(4 199)">
<title>src/database/database_tools/series_detector.hpp</title>
<!-- Node1 -->
<g id="node1" class="node">
<title>Node1</title>
<g id="a_node1"><a xlink:title=" ">
<polygon fill="#999999" stroke="#666666" points="383.5,-195 252.5,-195 252.5,-165 383.5,-165 383.5,-195"/>
<text text-anchor="start" x="260.5" y="-183" font-family="Helvetica,sans-Serif" font-size="10.00">src/database/database</text>
<text text-anchor="middle" x="318" y="-172" font-family="Helvetica,sans-Serif" font-size="10.00">_tools/series_detector.hpp</text>
</a>
</g>
</g>
<!-- Node2 -->
<g id="node2" class="node">
<title>Node2</title>
<g id="a_node2"><a xlink:title=" ">
<polygon fill="#e0e0e0" stroke="#999999" points="46,-129 0,-129 0,-110 46,-110 46,-129"/>
<text text-anchor="middle" x="23" y="-117" font-family="Helvetica,sans-Serif" font-size="10.00">chrono</text>
</a>
</g>
</g>
<!-- Node1&#45;&gt;Node2 -->
<g id="edge1" class="edge">
<title>Node1&#45;&gt;Node2</title>
<path fill="none" stroke="#63b8ff" d="M252.07,-167.82C201.32,-158.9 129.19,-145.57 57.42,-129.42"/>
<polygon fill="#63b8ff" stroke="#63b8ff" points="58.37,-126.05 47.85,-127.25 56.82,-132.88 58.37,-126.05"/>
</g>
<!-- Node3 -->
<g id="node3" class="node">
<title>Node3</title>
<g id="a_node3"><a xlink:title=" ">
<polygon fill="#e0e0e0" stroke="#999999" points="107.5,-129 64.5,-129 64.5,-110 107.5,-110 107.5,-129"/>
<text text-anchor="middle" x="86" y="-117" font-family="Helvetica,sans-Serif" font-size="10.00">deque</text>
</a>
</g>
</g>
<!-- Node1&#45;&gt;Node3 -->
<g id="edge2" class="edge">
<title>Node1&#45;&gt;Node3</title>
<path fill="none" stroke="#63b8ff" d="M258.54,-164.6C221.06,-155.44 171.39,-143.13 118.89,-129.45"/>
<polygon fill="#63b8ff" stroke="#63b8ff" points="120.02,-126.13 109.46,-126.98 118.25,-132.9 120.02,-126.13"/>
</g>
<!-- Node4 -->
<g id="node4" class="node">
<title>Node4</title>
<g id="a_node4"><a xlink:title=" ">
<polygon fill="#e0e0e0" stroke="#999999" points="186,-129 126,-129 126,-110 186,-110 186,-129"/>
<text text-anchor="middle" x="156" y="-117" font-family="Helvetica,sans-Serif" font-size="10.00">QPromise</text>
</a>
</g>
</g>
<!-- Node1&#45;&gt;Node4 -->
<g id="edge3" class="edge">
<title>Node1&#45;&gt;Node4</title>
<path fill="none" stroke="#63b8ff" d="M277.96,-164.54C251.35,-154.93 216.74,-142.43 191.19,-133.21"/>
<polygon fill="#63b8ff" stroke="#63b8ff" points="192.51,-129.96 181.92,-129.86 190.14,-136.55 192.51,-129.96"/>
</g>
<!-- Node5 -->
<g id="node5" class="node">
<title>Node5</title>
<g id="a_node5"><a xlink:href="../../d7/dfc/ilogger_8hpp.html" target="_top" xlink:title=" ">
<polygon fill="#fff0f0" stroke="red" points="289.5,-129 204.5,-129 204.5,-110 289.5,-110 289.5,-129"/>
<text text-anchor="middle" x="247" y="-117" font-family="Helvetica,sans-Serif" font-size="10.00">core/ilogger.hpp</text>
</a>
</g>
</g>
<!-- Node1&#45;&gt;Node5 -->
<g id="edge4" class="edge">
<title>Node1&#45;&gt;Node5</title>
<path fill="none" stroke="#63b8ff" d="M300.45,-164.54C290.03,-155.96 276.82,-145.07 266.13,-136.26"/>
<polygon fill="#63b8ff" stroke="#63b8ff" points="268.64,-133.8 258.7,-130.14 264.19,-139.2 268.64,-133.8"/>
</g>
<!-- Node10 -->
<g id="node6" class="node">
<title>Node10</title>
<g id="a_node6"><a xlink:href="../../d8/d3d/group_8hpp.html" target="_top" xlink:title=" ">
<polygon fill="#fff0f0" stroke="red" points="535.5,-74 434.5,-74 434.5,-55 535.5,-55 535.5,-74"/>
<text text-anchor="middle" x="485" y="-62" font-family="Helvetica,sans-Serif" font-size="10.00">database/group.hpp</text>
</a>
</g>
</g>
<!-- Node1&#45;&gt;Node10 -->
<g id="edge5" class="edge">
<title>Node1&#45;&gt;Node10</title>
<path fill="none" stroke="#63b8ff" d="M383.73,-173.94C415.85,-167.97 452.36,-155.37 475,-129 485.13,-117.2 487.19,-99.43 486.97,-85.69"/>
<polygon fill="#63b8ff" stroke="#63b8ff" points="490.48,-85.77 486.38,-76 483.5,-86.19 490.48,-85.77"/>
</g>
<!-- Node15 -->
<g id="node7" class="node">
<title>Node15</title>
<g id="a_node7"><a xlink:title=" ">
<polygon fill="#e0e0e0" stroke="#999999" points="492.5,-19 397.5,-19 397.5,0 492.5,0 492.5,-19"/>
<text text-anchor="middle" x="445" y="-7" font-family="Helvetica,sans-Serif" font-size="10.00">database_export.h</text>
</a>
</g>
</g>
<!-- Node1&#45;&gt;Node15 -->
<g id="edge13" class="edge">
<title>Node1&#45;&gt;Node15</title>
<path fill="none" stroke="#63b8ff" d="M319.61,-164.6C321.76,-149.97 326.59,-127.08 337,-110 358.81,-74.22 397.13,-43.37 421.77,-25.87"/>
<polygon fill="#63b8ff" stroke="#63b8ff" points="423.62,-28.85 429.86,-20.28 419.64,-23.09 423.62,-28.85"/>
</g>
<!-- Node16 -->
<g id="node8" class="node">
<title>Node16</title>
<g id="a_node8"><a xlink:href="../../d7/d2b/idatabase_8hpp.html" target="_top" xlink:title=" ">
<polygon fill="#fff0f0" stroke="red" points="465.5,-129 346.5,-129 346.5,-110 465.5,-110 465.5,-129"/>
<text text-anchor="middle" x="406" y="-117" font-family="Helvetica,sans-Serif" font-size="10.00">database/idatabase.hpp</text>
</a>
</g>
</g>
<!-- Node1&#45;&gt;Node16 -->
<g id="edge7" class="edge">
<title>Node1&#45;&gt;Node16</title>
<path fill="none" stroke="#63b8ff" d="M339.75,-164.54C352.97,-155.75 369.83,-144.54 383.24,-135.63"/>
<polygon fill="#63b8ff" stroke="#63b8ff" points="385.04,-138.63 391.43,-130.18 381.17,-132.81 385.04,-138.63"/>
</g>
<!-- Node35 -->
<g id="node9" class="node">
<title>Node35</title>
<g id="a_node9"><a xlink:href="../../db/d39/photo__data_8hpp.html" target="_top" xlink:title=" ">
<polygon fill="#fff0f0" stroke="red" points="605.5,-129 522.5,-129 522.5,-110 605.5,-110 605.5,-129"/>
<text text-anchor="middle" x="564" y="-117" font-family="Helvetica,sans-Serif" font-size="10.00">photo_data.hpp</text>
</a>
</g>
</g>
<!-- Node1&#45;&gt;Node35 -->
<g id="edge10" class="edge">
<title>Node1&#45;&gt;Node35</title>
<path fill="none" stroke="#63b8ff" d="M378.81,-164.54C420.9,-154.53 476.17,-141.39 515.34,-132.07"/>
<polygon fill="#63b8ff" stroke="#63b8ff" points="516.05,-135.5 524.97,-129.78 514.43,-128.69 516.05,-135.5"/>
</g>
<!-- Node49 -->
<g id="node10" class="node">
<title>Node49</title>
<g id="a_node10"><a xlink:href="../../d7/dcd/series__candidate_8hpp.html" target="_top" xlink:title=" ">
<polygon fill="#fff0f0" stroke="red" points="732,-129 624,-129 624,-110 732,-110 732,-129"/>
<text text-anchor="middle" x="678" y="-117" font-family="Helvetica,sans-Serif" font-size="10.00">series_candidate.hpp</text>
</a>
</g>
</g>
<!-- Node1&#45;&gt;Node49 -->
<g id="edge14" class="edge">
<title>Node1&#45;&gt;Node49</title>
<path fill="none" stroke="#63b8ff" d="M383.61,-168.34C448.56,-157.78 547.45,-141.71 612.4,-131.16"/>
<polygon fill="#63b8ff" stroke="#63b8ff" points="612.91,-134.62 622.22,-129.56 611.79,-127.71 612.91,-134.62"/>
</g>
<!-- Node10&#45;&gt;Node15 -->
<g id="edge6" class="edge">
<title>Node10&#45;&gt;Node15</title>
<path fill="none" stroke="#63b8ff" d="M478.39,-54.75C473.04,-47.66 465.32,-37.42 458.65,-28.59"/>
<polygon fill="#63b8ff" stroke="#63b8ff" points="461.48,-26.52 452.66,-20.65 455.89,-30.74 461.48,-26.52"/>
</g>
<!-- Node16&#45;&gt;Node10 -->
<g id="edge8" class="edge">
<title>Node16&#45;&gt;Node10</title>
<path fill="none" stroke="#63b8ff" d="M419.4,-109.51C431.16,-101.62 448.51,-89.98 462.41,-80.65"/>
<polygon fill="#63b8ff" stroke="#63b8ff" points="464.19,-83.68 470.54,-75.2 460.29,-77.87 464.19,-83.68"/>
</g>
<!-- Node16&#45;&gt;Node15 -->
<g id="edge9" class="edge">
<title>Node16&#45;&gt;Node15</title>
<path fill="none" stroke="#63b8ff" d="M408.23,-109.75C411.46,-97.4 417.85,-74.19 425,-55 428.18,-46.47 432.21,-37.25 435.83,-29.44"/>
<polygon fill="#63b8ff" stroke="#63b8ff" points="438.9,-31.13 440.02,-20.59 432.57,-28.13 438.9,-31.13"/>
</g>
<!-- Node35&#45;&gt;Node10 -->
<g id="edge12" class="edge">
<title>Node35&#45;&gt;Node10</title>
<path fill="none" stroke="#63b8ff" d="M550.6,-109.51C538.84,-101.62 521.49,-89.98 507.59,-80.65"/>
<polygon fill="#63b8ff" stroke="#63b8ff" points="509.71,-77.87 499.46,-75.2 505.81,-83.68 509.71,-77.87"/>
</g>
<!-- Node35&#45;&gt;Node15 -->
<g id="edge11" class="edge">
<title>Node35&#45;&gt;Node15</title>
<path fill="none" stroke="#63b8ff" d="M563.62,-109.59C562.6,-96.19 558.83,-70.73 545,-55 531.84,-40.04 512.69,-29.87 494.66,-23.08"/>
<polygon fill="#63b8ff" stroke="#63b8ff" points="495.96,-19.82 485.37,-19.86 493.67,-26.44 495.96,-19.82"/>
</g>
</g>
</svg>
