<?xml version="1.0" encoding="UTF-8" standalone="no"?>
<!DOCTYPE svg PUBLIC "-//W3C//DTD SVG 1.1//EN"
 "http://www.w3.org/Graphics/SVG/1.1/DTD/svg11.dtd">
<!-- Generated by graphviz version 12.2.0 (20241103.1931)
 -->
<!-- Title: ThumbnailGenerator::scaleImage Pages: 1 -->
<svg width="252pt" height="88pt"
 viewBox="0.00 0.00 251.50 87.50" xmlns="http://www.w3.org/2000/svg" xmlns:xlink="http://www.w3.org/1999/xlink">
<g id="graph0" class="graph" transform="scale(1 1) rotate(0) translate(4 83.5)">
<title>ThumbnailGenerator::scaleImage</title>
<!-- Node1 -->
<g id="Node000001" class="node">
<title>Node1</title>
<g id="a_Node000001"><a xlink:title=" ">
<polygon fill="#999999" stroke="#666666" points="243.5,-54.5 139.75,-54.5 139.75,-24 243.5,-24 243.5,-54.5"/>
<text text-anchor="start" x="147.75" y="-41" font-family="Helvetica,sans-Serif" font-size="10.00">ThumbnailGenerator</text>
<text text-anchor="middle" x="191.62" y="-29.75" font-family="Helvetica,sans-Serif" font-size="10.00">::scaleImage</text>
</a>
</g>
</g>
<!-- Node2 -->
<g id="Node000002" class="node">
<title>Node2</title>
<g id="a_Node000002"><a xlink:href="../../d7/d27/class_thumbnail_generator.html#a68ab4be0483963dd100ef7b74b02f857" target="_top" xlink:title=" ">
<polygon fill="white" stroke="#666666" points="103.75,-79.5 0,-79.5 0,-49 103.75,-49 103.75,-79.5"/>
<text text-anchor="start" x="8" y="-66" font-family="Helvetica,sans-Serif" font-size="10.00">ThumbnailGenerator</text>
<text text-anchor="middle" x="51.88" y="-54.75" font-family="Helvetica,sans-Serif" font-size="10.00">::generate</text>
</a>
</g>
</g>
<!-- Node1&#45;&gt;Node2 -->
<g id="edge1_Node000001_Node000002" class="edge">
<title>Node1&#45;&gt;Node2</title>
<g id="a_edge1_Node000001_Node000002"><a xlink:title=" ">
<path fill="none" stroke="#63b8ff" d="M128.14,-50.59C120.13,-52.04 112.01,-53.52 104.21,-54.93"/>
<polygon fill="#63b8ff" stroke="#63b8ff" points="128.63,-54.06 137.84,-48.83 127.38,-47.17 128.63,-54.06"/>
</a>
</g>
</g>
<!-- Node3 -->
<g id="Node000003" class="node">
<title>Node3</title>
<g id="a_Node000003"><a xlink:href="../../d7/d27/class_thumbnail_generator.html#a4a0efa68c4b50af06a7db26478747686" target="_top" xlink:title=" ">
<polygon fill="white" stroke="#666666" points="103.75,-30.5 0,-30.5 0,0 103.75,0 103.75,-30.5"/>
<text text-anchor="start" x="8" y="-17" font-family="Helvetica,sans-Serif" font-size="10.00">ThumbnailGenerator</text>
<text text-anchor="middle" x="51.88" y="-5.75" font-family="Helvetica,sans-Serif" font-size="10.00">::generateFrom</text>
</a>
</g>
</g>
<!-- Node1&#45;&gt;Node3 -->
<g id="edge2_Node000001_Node000003" class="edge">
<title>Node1&#45;&gt;Node3</title>
<g id="a_edge2_Node000001_Node000003"><a xlink:title=" ">
<path fill="none" stroke="#63b8ff" d="M128.14,-28.36C120.13,-26.97 112.01,-25.55 104.21,-24.19"/>
<polygon fill="#63b8ff" stroke="#63b8ff" points="127.39,-31.79 137.84,-30.05 128.59,-24.89 127.39,-31.79"/>
</a>
</g>
</g>
</g>
</svg>
