<?xml version="1.0" encoding="UTF-8" standalone="no"?>
<!DOCTYPE svg PUBLIC "-//W3C//DTD SVG 1.1//EN"
 "http://www.w3.org/Graphics/SVG/1.1/DTD/svg11.dtd">
<!-- Generated by graphviz version 7.0.5 (20221223.1930)
 -->
<!-- Title: src/database/general_flags.hpp Pages: 1 -->
<svg width="951pt" height="115pt"
 viewBox="0.00 0.00 951.00 115.00" xmlns="http://www.w3.org/2000/svg" xmlns:xlink="http://www.w3.org/1999/xlink">
<g id="graph0" class="graph" transform="scale(1 1) rotate(0) translate(4 111)">
<title>src/database/general_flags.hpp</title>
<!-- Node1 -->
<g id="node1" class="node">
<title>Node1</title>
<g id="a_node1"><a xlink:title=" ">
<polygon fill="#999999" stroke="#666666" points="541,-107 434,-107 434,-77 541,-77 541,-107"/>
<text text-anchor="start" x="442" y="-95" font-family="Helvetica,sans-Serif" font-size="10.00">src/database/general</text>
<text text-anchor="middle" x="487.5" y="-84" font-family="Helvetica,sans-Serif" font-size="10.00">_flags.hpp</text>
</a>
</g>
</g>
<!-- Node2 -->
<g id="node2" class="node">
<title>Node2</title>
<g id="a_node2"><a xlink:href="../../db/d47/photo__operator_8cpp.html" target="_top" xlink:title=" ">
<polygon fill="white" stroke="#666666" points="165,-35.5 0,-35.5 0,-5.5 165,-5.5 165,-35.5"/>
<text text-anchor="start" x="8" y="-23.5" font-family="Helvetica,sans-Serif" font-size="10.00">src/database/backends</text>
<text text-anchor="middle" x="82.5" y="-12.5" font-family="Helvetica,sans-Serif" font-size="10.00">/sql_backends/photo_operator.cpp</text>
</a>
</g>
</g>
<!-- Node1&#45;&gt;Node2 -->
<g id="edge1" class="edge">
<title>Node1&#45;&gt;Node2</title>
<path fill="none" stroke="#63b8ff" d="M422.68,-81.71C359.06,-72.34 259.37,-57.03 173.5,-41 165.24,-39.46 156.58,-37.74 148.03,-35.98"/>
<polygon fill="#63b8ff" stroke="#63b8ff" points="421.84,-85.12 432.24,-83.11 422.85,-78.19 421.84,-85.12"/>
</g>
<!-- Node3 -->
<g id="node3" class="node">
<title>Node3</title>
<g id="a_node3"><a xlink:href="../../da/d74/sql__backend_8cpp.html" target="_top" xlink:title=" ">
<polygon fill="white" stroke="#666666" points="338,-35.5 183,-35.5 183,-5.5 338,-5.5 338,-35.5"/>
<text text-anchor="start" x="191" y="-23.5" font-family="Helvetica,sans-Serif" font-size="10.00">src/database/backends</text>
<text text-anchor="middle" x="260.5" y="-12.5" font-family="Helvetica,sans-Serif" font-size="10.00">/sql_backends/sql_backend.cpp</text>
</a>
</g>
</g>
<!-- Node1&#45;&gt;Node3 -->
<g id="edge2" class="edge">
<title>Node1&#45;&gt;Node3</title>
<path fill="none" stroke="#63b8ff" d="M429.36,-73.2C391.63,-61.65 343.09,-46.79 307.75,-35.97"/>
<polygon fill="#63b8ff" stroke="#63b8ff" points="428.16,-76.49 438.74,-76.07 430.21,-69.8 428.16,-76.49"/>
</g>
<!-- Node4 -->
<g id="node4" class="node">
<title>Node4</title>
<g id="a_node4"><a xlink:href="../../d7/d45/photos__analyzer_8cpp.html" target="_top" xlink:title=" ">
<polygon fill="white" stroke="#666666" points="472.5,-41 356.5,-41 356.5,0 472.5,0 472.5,-41"/>
<text text-anchor="start" x="364.5" y="-29" font-family="Helvetica,sans-Serif" font-size="10.00">src/database/database</text>
<text text-anchor="start" x="364.5" y="-18" font-family="Helvetica,sans-Serif" font-size="10.00">_tools/implementation</text>
<text text-anchor="middle" x="414.5" y="-7" font-family="Helvetica,sans-Serif" font-size="10.00">/photos_analyzer.cpp</text>
</a>
</g>
</g>
<!-- Node1&#45;&gt;Node4 -->
<g id="edge3" class="edge">
<title>Node1&#45;&gt;Node4</title>
<path fill="none" stroke="#63b8ff" d="M464.32,-68.93C455.05,-60.1 444.45,-50.01 435.42,-41.42"/>
<polygon fill="#63b8ff" stroke="#63b8ff" points="461.62,-71.2 471.28,-75.56 466.45,-66.13 461.62,-71.2"/>
</g>
<!-- Node5 -->
<g id="node5" class="node">
<title>Node5</title>
<g id="a_node5"><a xlink:href="../../de/d63/filter_8cpp.html" target="_top" xlink:title=" ">
<polygon fill="white" stroke="#666666" points="632.5,-35.5 490.5,-35.5 490.5,-5.5 632.5,-5.5 632.5,-35.5"/>
<text text-anchor="start" x="498.5" y="-23.5" font-family="Helvetica,sans-Serif" font-size="10.00">src/database/implementation</text>
<text text-anchor="middle" x="561.5" y="-12.5" font-family="Helvetica,sans-Serif" font-size="10.00">/filter.cpp</text>
</a>
</g>
</g>
<!-- Node1&#45;&gt;Node5 -->
<g id="edge4" class="edge">
<title>Node1&#45;&gt;Node5</title>
<path fill="none" stroke="#63b8ff" d="M511.13,-68.8C522.61,-58.02 536.07,-45.38 546.19,-35.88"/>
<polygon fill="#63b8ff" stroke="#63b8ff" points="508.83,-66.17 503.94,-75.56 513.62,-71.27 508.83,-66.17"/>
</g>
<!-- Node6 -->
<g id="node6" class="node">
<title>Node6</title>
<g id="a_node6"><a xlink:href="../../da/d07/photos__model__controller__component_8cpp.html" target="_top" xlink:title=" ">
<polygon fill="white" stroke="#666666" points="806,-41 651,-41 651,0 806,0 806,-41"/>
<text text-anchor="start" x="659" y="-29" font-family="Helvetica,sans-Serif" font-size="10.00">src/gui/desktop/quick</text>
<text text-anchor="start" x="659" y="-18" font-family="Helvetica,sans-Serif" font-size="10.00">_items/photos_model_controller</text>
<text text-anchor="middle" x="728.5" y="-7" font-family="Helvetica,sans-Serif" font-size="10.00">_component.cpp</text>
</a>
</g>
</g>
<!-- Node1&#45;&gt;Node6 -->
<g id="edge5" class="edge">
<title>Node1&#45;&gt;Node6</title>
<path fill="none" stroke="#63b8ff" d="M548.41,-73.44C582.27,-63.67 624.53,-51.48 659.6,-41.37"/>
<polygon fill="#63b8ff" stroke="#63b8ff" points="547.82,-69.96 539.18,-76.1 549.76,-76.69 547.82,-69.96"/>
</g>
<!-- Node7 -->
<g id="node7" class="node">
<title>Node7</title>
<g id="a_node7"><a xlink:href="../../d9/d9b/collection__scanner_8cpp.html" target="_top" xlink:title=" ">
<polygon fill="white" stroke="#666666" points="943,-35.5 824,-35.5 824,-5.5 943,-5.5 943,-35.5"/>
<text text-anchor="start" x="832" y="-23.5" font-family="Helvetica,sans-Serif" font-size="10.00">src/gui/desktop/utils</text>
<text text-anchor="middle" x="883.5" y="-12.5" font-family="Helvetica,sans-Serif" font-size="10.00">/collection_scanner.cpp</text>
</a>
</g>
</g>
<!-- Node1&#45;&gt;Node7 -->
<g id="edge6" class="edge">
<title>Node1&#45;&gt;Node7</title>
<path fill="none" stroke="#63b8ff" d="M552.42,-83.59C618.92,-75.43 725.07,-60.77 815.5,-41 822.22,-39.53 829.25,-37.77 836.14,-35.92"/>
<polygon fill="#63b8ff" stroke="#63b8ff" points="552.3,-80.08 542.79,-84.76 553.14,-87.03 552.3,-80.08"/>
</g>
</g>
</svg>
