<?xml version="1.0" encoding="UTF-8" standalone="no"?>
<!DOCTYPE svg PUBLIC "-//W3C//DTD SVG 1.1//EN"
 "http://www.w3.org/Graphics/SVG/1.1/DTD/svg11.dtd">
<!-- Generated by graphviz version 12.2.0 (20241103.1931)
 -->
<!-- Title: coRunOn Pages: 1 -->
<svg width="264pt" height="64pt"
 viewBox="0.00 0.00 264.25 64.25" xmlns="http://www.w3.org/2000/svg" xmlns:xlink="http://www.w3.org/1999/xlink">
<g id="graph0" class="graph" transform="scale(1 1) rotate(0) translate(4 60.25)">
<title>coRunOn</title>
<!-- Node1 -->
<g id="Node000001" class="node">
<title>Node1</title>
<g id="a_Node000001"><a xlink:title=" ">
<polygon fill="#999999" stroke="#666666" points="56.5,-37.25 0,-37.25 0,-18 56.5,-18 56.5,-37.25"/>
<text text-anchor="middle" x="28.25" y="-23.75" font-family="Helvetica,sans-Serif" font-size="10.00">coRunOn</text>
</a>
</g>
</g>
<!-- Node2 -->
<g id="Node000002" class="node">
<title>Node2</title>
<g id="a_Node000002"><a xlink:href="../../d3/dca/namespace_q_coro_task_utils.html#a361da4057f6d087b4c6ec875cdec8b6c" target="_top" xlink:title=" ">
<polygon fill="white" stroke="#666666" points="256.25,-56.25 92.5,-56.25 92.5,-37 256.25,-37 256.25,-56.25"/>
<text text-anchor="middle" x="174.38" y="-42.75" font-family="Helvetica,sans-Serif" font-size="10.00">QCoroTaskUtils::coRunScheduled</text>
</a>
</g>
</g>
<!-- Node1&#45;&gt;Node2 -->
<g id="edge1_Node000001_Node000002" class="edge">
<title>Node1&#45;&gt;Node2</title>
<g id="a_edge1_Node000001_Node000002"><a xlink:title=" ">
<path fill="none" stroke="#63b8ff" d="M56.7,-31.24C65.22,-32.37 75.1,-33.67 85.45,-35.03"/>
<polygon fill="#63b8ff" stroke="#63b8ff" points="84.94,-38.5 95.31,-36.33 85.86,-31.56 84.94,-38.5"/>
</a>
</g>
</g>
<!-- Node3 -->
<g id="Node000003" class="node">
<title>Node3</title>
<g id="a_Node000003"><a xlink:href="../../d4/d20/task__executor__utils_8hpp.html#a2ca7a07566bec22218321fdca74d520f" target="_top" xlink:title=" ">
<polygon fill="#fff0f0" stroke="red" points="195.5,-19.25 153.25,-19.25 153.25,0 195.5,0 195.5,-19.25"/>
<text text-anchor="middle" x="174.38" y="-5.75" font-family="Helvetica,sans-Serif" font-size="10.00">runOn</text>
</a>
</g>
</g>
<!-- Node1&#45;&gt;Node3 -->
<g id="edge2_Node000001_Node000003" class="edge">
<title>Node1&#45;&gt;Node3</title>
<g id="a_edge2_Node000001_Node000003"><a xlink:title=" ">
<path fill="none" stroke="#63b8ff" d="M56.7,-24.2C80.95,-21.17 116.32,-16.75 141.76,-13.57"/>
<polygon fill="#63b8ff" stroke="#63b8ff" points="142.02,-17.07 151.51,-12.36 141.15,-10.12 142.02,-17.07"/>
</a>
</g>
</g>
</g>
</svg>
