<?xml version="1.0" encoding="UTF-8" standalone="no"?>
<!DOCTYPE svg PUBLIC "-//W3C//DTD SVG 1.1//EN"
 "http://www.w3.org/Graphics/SVG/1.1/DTD/svg11.dtd">
<!-- Generated by graphviz version 12.2.0 (20241103.1931)
 -->
<!-- Title: safe_cast Pages: 1 -->
<svg width="213pt" height="76pt"
 viewBox="0.00 0.00 212.50 75.88" xmlns="http://www.w3.org/2000/svg" xmlns:xlink="http://www.w3.org/1999/xlink">
<g id="graph0" class="graph" transform="scale(1 1) rotate(0) translate(4 71.88)">
<title>safe_cast</title>
<!-- Node1 -->
<g id="Node000001" class="node">
<title>Node1</title>
<g id="a_Node000001"><a xlink:title=" ">
<polygon fill="#999999" stroke="#666666" points="204.5,-40.25 145.75,-40.25 145.75,-21 204.5,-21 204.5,-40.25"/>
<text text-anchor="middle" x="175.12" y="-26.75" font-family="Helvetica,sans-Serif" font-size="10.00">safe_cast</text>
</a>
</g>
</g>
<!-- Node2 -->
<g id="Node000002" class="node">
<title>Node2</title>
<g id="a_Node000002"><a xlink:href="../../dc/d96/class_batch_face_detector.html#a6eb91bfbb4741ce8d20c926430a14c07" target="_top" xlink:title=" ">
<polygon fill="white" stroke="#666666" points="107.12,-67.88 2.62,-67.88 2.62,-37.38 107.12,-37.38 107.12,-67.88"/>
<text text-anchor="start" x="10.62" y="-54.38" font-family="Helvetica,sans-Serif" font-size="10.00">BatchFaceDetector::</text>
<text text-anchor="middle" x="54.88" y="-43.12" font-family="Helvetica,sans-Serif" font-size="10.00">accept</text>
</a>
</g>
</g>
<!-- Node1&#45;&gt;Node2 -->
<g id="edge1_Node000001_Node000002" class="edge">
<title>Node1&#45;&gt;Node2</title>
<g id="a_edge1_Node000001_Node000002"><a xlink:title=" ">
<path fill="none" stroke="#63b8ff" d="M134.2,-38.05C125.57,-39.66 116.33,-41.38 107.33,-43.05"/>
<polygon fill="#63b8ff" stroke="#63b8ff" points="134.82,-41.5 144.01,-36.23 133.54,-34.62 134.82,-41.5"/>
</a>
</g>
</g>
<!-- Node3 -->
<g id="Node000003" class="node">
<title>Node3</title>
<g id="a_Node000003"><a xlink:href="../../d3/d26/class_recognizer.html#a1a2b710f9d3e7d3c95c2e71c0a3eb828" target="_top" xlink:title=" ">
<polygon fill="white" stroke="#666666" points="109.75,-19.25 0,-19.25 0,0 109.75,0 109.75,-19.25"/>
<text text-anchor="middle" x="54.88" y="-5.75" font-family="Helvetica,sans-Serif" font-size="10.00">Recognizer::recognize</text>
</a>
</g>
</g>
<!-- Node1&#45;&gt;Node3 -->
<g id="edge2_Node000001_Node000003" class="edge">
<title>Node1&#45;&gt;Node3</title>
<g id="a_edge2_Node000001_Node000003"><a xlink:title=" ">
<path fill="none" stroke="#63b8ff" d="M134.22,-23.54C126.48,-22.16 118.25,-20.7 110.14,-19.26"/>
<polygon fill="#63b8ff" stroke="#63b8ff" points="133.55,-26.97 144.01,-25.28 134.78,-20.08 133.55,-26.97"/>
</a>
</g>
</g>
</g>
</svg>
