<?xml version="1.0" encoding="UTF-8" standalone="no"?>
<!DOCTYPE svg PUBLIC "-//W3C//DTD SVG 1.1//EN"
 "http://www.w3.org/Graphics/SVG/1.1/DTD/svg11.dtd">
<!-- Generated by graphviz version 9.0.0 (20230911.1827)
 -->
<!-- Title: PeopleListModel::setDB Pages: 1 -->
<svg width="303pt" height="162pt"
 viewBox="0.00 0.00 303.25 161.88" xmlns="http://www.w3.org/2000/svg" xmlns:xlink="http://www.w3.org/1999/xlink">
<g id="graph0" class="graph" transform="scale(1 1) rotate(0) translate(4 157.88)">
<title>PeopleListModel::setDB</title>
<!-- Node1 -->
<g id="Node000001" class="node">
<title>Node1</title>
<g id="a_Node000001"><a xlink:title=" ">
<polygon fill="#999999" stroke="#666666" points="120.25,-88.88 0,-88.88 0,-69.62 120.25,-69.62 120.25,-88.88"/>
<text text-anchor="middle" x="60.12" y="-75.38" font-family="Helvetica,sans-Serif" font-size="10.00">PeopleListModel::setDB</text>
</a>
</g>
</g>
<!-- Node2 -->
<g id="Node000002" class="node">
<title>Node2</title>
<g id="a_Node000002"><a xlink:href="../../de/d4e/class_people_list_model.html#aac350ee0f795fd50b571db529234ef17" target="_top" xlink:title=" ">
<polygon fill="#fff0f0" stroke="red" points="282.88,-153.88 168.62,-153.88 168.62,-134.62 282.88,-134.62 282.88,-153.88"/>
<text text-anchor="middle" x="225.75" y="-140.38" font-family="Helvetica,sans-Serif" font-size="10.00">PeopleListModel::clear</text>
</a>
</g>
</g>
<!-- Node1&#45;&gt;Node2 -->
<g id="edge1_Node000001_Node000002" class="edge">
<title>Node1&#45;&gt;Node2</title>
<g id="a_edge1_Node000001_Node000002"><a xlink:title=" ">
<path fill="none" stroke="#63b8ff" d="M79.28,-89.25C98.11,-99.32 128.61,-114.83 156.25,-125.25 161.6,-127.27 167.25,-129.17 172.93,-130.95"/>
<polygon fill="#63b8ff" stroke="#63b8ff" points="171.76,-134.25 182.34,-133.75 173.76,-127.54 171.76,-134.25"/>
</a>
</g>
</g>
<!-- Node4 -->
<g id="Node000004" class="node">
<title>Node4</title>
<g id="a_Node000004"><a xlink:href="../../d7/da9/struct_database_1_1_i_database.html#ac86cb641a8f5a37a00873df333bb12bb" target="_top" xlink:title=" ">
<polygon fill="#fff0f0" stroke="red" points="278.75,-116.5 172.75,-116.5 172.75,-86 278.75,-86 278.75,-116.5"/>
<text text-anchor="start" x="180.75" y="-103" font-family="Helvetica,sans-Serif" font-size="10.00">Database::IDatabase</text>
<text text-anchor="middle" x="225.75" y="-91.75" font-family="Helvetica,sans-Serif" font-size="10.00">::exec</text>
</a>
</g>
</g>
<!-- Node1&#45;&gt;Node4 -->
<g id="edge2_Node000001_Node000004" class="edge">
<title>Node1&#45;&gt;Node4</title>
<g id="a_edge2_Node000001_Node000004"><a xlink:title=" ">
<path fill="none" stroke="#63b8ff" d="M120.66,-87.25C133.87,-89.03 147.91,-90.92 161.27,-92.71"/>
<polygon fill="#63b8ff" stroke="#63b8ff" points="160.42,-96.13 170.79,-94 161.35,-89.19 160.42,-96.13"/>
</a>
</g>
</g>
<!-- Node7 -->
<g id="Node000007" class="node">
<title>Node7</title>
<g id="a_Node000007"><a xlink:href="../../de/d4e/class_people_list_model.html#ac869c873a6df1c1d100ea28d3bac2604" target="_top" xlink:title=" ">
<polygon fill="#fff0f0" stroke="red" points="276.88,-67.88 174.62,-67.88 174.62,-48.62 276.88,-48.62 276.88,-67.88"/>
<text text-anchor="middle" x="225.75" y="-54.38" font-family="Helvetica,sans-Serif" font-size="10.00">PeopleListModel::fill</text>
</a>
</g>
</g>
<!-- Node1&#45;&gt;Node7 -->
<g id="edge3_Node000001_Node000007" class="edge">
<title>Node1&#45;&gt;Node7</title>
<g id="a_edge3_Node000001_Node000007"><a xlink:title=" ">
<path fill="none" stroke="#63b8ff" d="M120.66,-71.61C134.37,-69.85 148.98,-67.98 162.78,-66.2"/>
<polygon fill="#63b8ff" stroke="#63b8ff" points="163.18,-69.68 172.65,-64.94 162.29,-62.74 163.18,-69.68"/>
</a>
</g>
</g>
<!-- Node8 -->
<g id="Node000008" class="node">
<title>Node8</title>
<g id="a_Node000008"><a xlink:href="../../d2/ddd/struct_database_1_1_i_backend.html#a222cff3bd2b3381069cdd58b275d426d" target="_top" xlink:title=" ">
<polygon fill="white" stroke="#666666" points="295.25,-30.5 156.25,-30.5 156.25,0 295.25,0 295.25,-30.5"/>
<text text-anchor="start" x="164.25" y="-17" font-family="Helvetica,sans-Serif" font-size="10.00">Database::IBackend</text>
<text text-anchor="middle" x="225.75" y="-5.75" font-family="Helvetica,sans-Serif" font-size="10.00">::peopleInformationAccessor</text>
</a>
</g>
</g>
<!-- Node1&#45;&gt;Node8 -->
<g id="edge4_Node000001_Node000008" class="edge">
<title>Node1&#45;&gt;Node8</title>
<g id="a_edge4_Node000001_Node000008"><a xlink:title=" ">
<path fill="none" stroke="#63b8ff" d="M84.03,-69.15C103.2,-60.82 131.34,-48.84 156.25,-39.25 160.12,-37.76 164.13,-36.25 168.18,-34.76"/>
<polygon fill="#63b8ff" stroke="#63b8ff" points="169.29,-38.09 177.5,-31.39 166.9,-31.51 169.29,-38.09"/>
</a>
</g>
</g>
</g>
</svg>
