<?xml version="1.0" encoding="UTF-8" standalone="no"?>
<!DOCTYPE svg PUBLIC "-//W3C//DTD SVG 1.1//EN"
 "http://www.w3.org/Graphics/SVG/1.1/DTD/svg11.dtd">
<!-- Generated by graphviz version 7.0.5 (20221223.1930)
 -->
<!-- Title: src/core/ithumbnails_generator.hpp Pages: 1 -->
<svg width="424pt" height="104pt"
 viewBox="0.00 0.00 423.50 104.00" xmlns="http://www.w3.org/2000/svg" xmlns:xlink="http://www.w3.org/1999/xlink">
<g id="graph0" class="graph" transform="scale(1 1) rotate(0) translate(4 100)">
<title>src/core/ithumbnails_generator.hpp</title>
<!-- Node1 -->
<g id="node1" class="node">
<title>Node1</title>
<g id="a_node1"><a xlink:title=" ">
<polygon fill="#999999" stroke="#666666" points="228.5,-96 124.5,-96 124.5,-66 228.5,-66 228.5,-96"/>
<text text-anchor="start" x="132.5" y="-84" font-family="Helvetica,sans-Serif" font-size="10.00">src/core/ithumbnails</text>
<text text-anchor="middle" x="176.5" y="-73" font-family="Helvetica,sans-Serif" font-size="10.00">_generator.hpp</text>
</a>
</g>
</g>
<!-- Node2 -->
<g id="node2" class="node">
<title>Node2</title>
<g id="a_node2"><a xlink:href="../../de/d75/thumbnail__generator_8hpp.html" target="_top" xlink:title=" ">
<polygon fill="#fff0f0" stroke="red" points="97,-30 0,-30 0,0 97,0 97,-30"/>
<text text-anchor="start" x="8" y="-18" font-family="Helvetica,sans-Serif" font-size="10.00">src/core/thumbnail</text>
<text text-anchor="middle" x="48.5" y="-7" font-family="Helvetica,sans-Serif" font-size="10.00">_generator.hpp</text>
</a>
</g>
</g>
<!-- Node1&#45;&gt;Node2 -->
<g id="edge1" class="edge">
<title>Node1&#45;&gt;Node2</title>
<path fill="none" stroke="#63b8ff" d="M137.68,-60.59C118.18,-50.84 94.98,-39.24 77.13,-30.31"/>
<polygon fill="#63b8ff" stroke="#63b8ff" points="135.91,-63.62 146.42,-64.96 139.04,-57.36 135.91,-63.62"/>
</g>
<!-- Node5 -->
<g id="node3" class="node">
<title>Node5</title>
<g id="a_node3"><a xlink:href="../../dc/d5f/thumbnail__manager_8hpp.html" target="_top" xlink:title=" ">
<polygon fill="#fff0f0" stroke="red" points="237.5,-30 115.5,-30 115.5,0 237.5,0 237.5,-30"/>
<text text-anchor="start" x="123.5" y="-18" font-family="Helvetica,sans-Serif" font-size="10.00">src/gui/desktop/utils</text>
<text text-anchor="middle" x="176.5" y="-7" font-family="Helvetica,sans-Serif" font-size="10.00">/thumbnail_manager.hpp</text>
</a>
</g>
</g>
<!-- Node1&#45;&gt;Node5 -->
<g id="edge2" class="edge">
<title>Node1&#45;&gt;Node5</title>
<path fill="none" stroke="#63b8ff" d="M176.5,-54.39C176.5,-46.13 176.5,-37.28 176.5,-30.16"/>
<polygon fill="#63b8ff" stroke="#63b8ff" points="173,-54.28 176.5,-64.28 180,-54.28 173,-54.28"/>
</g>
<!-- Node8 -->
<g id="node4" class="node">
<title>Node8</title>
<g id="a_node4"><a xlink:href="../../d3/dc3/mock__thumbnails__generator_8hpp.html" target="_top" xlink:title=" ">
<polygon fill="#fff0f0" stroke="red" points="415.5,-30 255.5,-30 255.5,0 415.5,0 415.5,-30"/>
<text text-anchor="start" x="263.5" y="-18" font-family="Helvetica,sans-Serif" font-size="10.00">src/unit_tests_utils</text>
<text text-anchor="middle" x="335.5" y="-7" font-family="Helvetica,sans-Serif" font-size="10.00">/mock_thumbnails_generator.hpp</text>
</a>
</g>
</g>
<!-- Node1&#45;&gt;Node8 -->
<g id="edge3" class="edge">
<title>Node1&#45;&gt;Node8</title>
<path fill="none" stroke="#63b8ff" d="M222.69,-61.41C247.21,-51.54 276.9,-39.59 299.66,-30.43"/>
<polygon fill="#63b8ff" stroke="#63b8ff" points="221.56,-58.09 213.59,-65.07 224.17,-64.58 221.56,-58.09"/>
</g>
</g>
</svg>
