<?xml version="1.0" encoding="UTF-8" standalone="no"?>
<!DOCTYPE svg PUBLIC "-//W3C//DTD SVG 1.1//EN"
 "http://www.w3.org/Graphics/SVG/1.1/DTD/svg11.dtd">
<!-- Generated by graphviz version 9.0.0 (20230911.1827)
 -->
<!-- Title: src/core/implementation/hdr_assembler.cpp Pages: 1 -->
<svg width="350pt" height="149pt"
 viewBox="0.00 0.00 349.50 149.00" xmlns="http://www.w3.org/2000/svg" xmlns:xlink="http://www.w3.org/1999/xlink">

<svg id="main" version="1.1" xmlns="http://www.w3.org/2000/svg" xmlns:xlink="http://www.w3.org/1999/xlink" xml:space="preserve" onload="init(evt)">
<style type="text/css"><![CDATA[
.node, .edge {opacity: 0.7;}
.node.selected, .edge.selected {opacity: 1;}
.edge:hover path { stroke: red; }
.edge:hover polygon { stroke: red; fill: red; }
]]></style>
<script type="application/ecmascript" xlink:href="../../svg.min.js"/>
<svg id="graph" class="graph">
<g id="graph0" class="graph" transform="scale(1 1) rotate(0) translate(4 145)">
<title>src/core/implementation/hdr_assembler.cpp</title>
<!-- Node1 -->
<g id="Node000001" class="node">
<title>Node1</title>
<g id="a_Node000001"><a xlink:title=" ">
<polygon fill="#999999" stroke="#666666" points="178.75,-141 58.5,-141 58.5,-110.5 178.75,-110.5 178.75,-141"/>
<text text-anchor="start" x="66.5" y="-127.5" font-family="Helvetica,sans-Serif" font-size="10.00">src/core/implementation</text>
<text text-anchor="middle" x="118.62" y="-116.25" font-family="Helvetica,sans-Serif" font-size="10.00">/hdr_assembler.cpp</text>
</a>
</g>
</g>
<!-- Node2 -->
<g id="Node000002" class="node">
<title>Node2</title>
<g id="a_Node000002"><a xlink:title=" ">
<polygon fill="#e0e0e0" stroke="#999999" points="45.25,-74.5 0,-74.5 0,-55.25 45.25,-55.25 45.25,-74.5"/>
<text text-anchor="middle" x="22.62" y="-61" font-family="Helvetica,sans-Serif" font-size="10.00">ranges</text>
</a>
</g>
</g>
<!-- Node1&#45;&gt;Node2 -->
<g id="edge1_Node000001_Node000002" class="edge">
<title>Node1&#45;&gt;Node2</title>
<g id="a_edge1_Node000001_Node000002"><a xlink:title=" ">
<path fill="none" stroke="#63b8ff" d="M94.89,-110.2C80.28,-101.23 61.59,-89.77 46.87,-80.75"/>
<polygon fill="#63b8ff" stroke="#63b8ff" points="49.07,-77.99 38.71,-75.74 45.41,-83.95 49.07,-77.99"/>
</a>
</g>
</g>
<!-- Node3 -->
<g id="Node000003" class="node">
<title>Node3</title>
<g id="a_Node000003"><a xlink:title=" ">
<polygon fill="#e0e0e0" stroke="#999999" points="235.25,-19.25 130,-19.25 130,0 235.25,0 235.25,-19.25"/>
<text text-anchor="middle" x="182.62" y="-5.75" font-family="Helvetica,sans-Serif" font-size="10.00">opencv2/opencv.hpp</text>
</a>
</g>
</g>
<!-- Node1&#45;&gt;Node3 -->
<g id="edge2_Node000001_Node000003" class="edge">
<title>Node1&#45;&gt;Node3</title>
<g id="a_edge2_Node000001_Node000003"><a xlink:title=" ">
<path fill="none" stroke="#63b8ff" d="M105.81,-110.15C94.63,-95.54 81.76,-72.77 92.62,-55.25 101.83,-40.42 117.59,-30.36 133.37,-23.62"/>
<polygon fill="#63b8ff" stroke="#63b8ff" points="134.2,-27.05 142.27,-20.19 131.68,-20.52 134.2,-27.05"/>
</a>
</g>
</g>
<!-- Node4 -->
<g id="Node000004" class="node">
<title>Node4</title>
<g id="a_Node000004"><a xlink:href="../../de/d87/containers__utils_8hpp.html" target="_top" xlink:title=" ">
<polygon fill="#fff0f0" stroke="red" points="225.62,-74.5 101.62,-74.5 101.62,-55.25 225.62,-55.25 225.62,-74.5"/>
<text text-anchor="middle" x="163.62" y="-61" font-family="Helvetica,sans-Serif" font-size="10.00">core/containers_utils.hpp</text>
</a>
</g>
</g>
<!-- Node1&#45;&gt;Node4 -->
<g id="edge3_Node000001_Node000004" class="edge">
<title>Node1&#45;&gt;Node4</title>
<g id="a_edge3_Node000001_Node000004"><a xlink:title=" ">
<path fill="none" stroke="#63b8ff" d="M129.75,-110.2C135.81,-102.27 143.37,-92.38 149.8,-83.96"/>
<polygon fill="#63b8ff" stroke="#63b8ff" points="152.48,-86.22 155.77,-76.15 146.92,-81.97 152.48,-86.22"/>
</a>
</g>
</g>
<!-- Node12 -->
<g id="Node000012" class="node">
<title>Node12</title>
<g id="a_Node000012"><a xlink:href="../../d8/d68/hdr__assembler_8hpp.html" target="_top" xlink:title=" ">
<polygon fill="#fff0f0" stroke="red" points="341.5,-74.5 243.75,-74.5 243.75,-55.25 341.5,-55.25 341.5,-74.5"/>
<text text-anchor="middle" x="292.62" y="-61" font-family="Helvetica,sans-Serif" font-size="10.00">hdr_assembler.hpp</text>
</a>
</g>
</g>
<!-- Node1&#45;&gt;Node12 -->
<g id="edge4_Node000001_Node000012" class="edge">
<title>Node1&#45;&gt;Node12</title>
<g id="a_edge4_Node000001_Node000012"><a xlink:title=" ">
<path fill="none" stroke="#63b8ff" d="M162.08,-110.05C190.66,-100.38 227.68,-87.85 254.99,-78.61"/>
<polygon fill="#63b8ff" stroke="#63b8ff" points="255.9,-82 264.25,-75.48 253.66,-75.37 255.9,-82"/>
</a>
</g>
</g>
<!-- Node12&#45;&gt;Node3 -->
<g id="edge5_Node000012_Node000003" class="edge">
<title>Node12&#45;&gt;Node3</title>
<g id="a_edge5_Node000012_Node000003"><a xlink:title=" ">
<path fill="none" stroke="#63b8ff" d="M273.96,-54.84C256.9,-46.58 231.38,-34.23 211.65,-24.68"/>
<polygon fill="#63b8ff" stroke="#63b8ff" points="213.26,-21.57 202.74,-20.36 210.21,-27.87 213.26,-21.57"/>
</a>
</g>
</g>
</g>
</svg>
</svg>

<style type='text/css'>
<![CDATA[
[data-mouse-over-selected='false'] { opacity: 0.7; }
[data-mouse-over-selected='true']  { opacity: 1.0; }
]]>
</style>
<script type="application/ecmascript"><![CDATA[
document.addEventListener('DOMContentLoaded', (event) => {
  highlightEdges();
  highlightAdjacentNodes();
});
]]></script>
</svg>
