<?xml version="1.0" encoding="UTF-8" standalone="no"?>
<!DOCTYPE svg PUBLIC "-//W3C//DTD SVG 1.1//EN"
 "http://www.w3.org/Graphics/SVG/1.1/DTD/svg11.dtd">
<!-- Generated by graphviz version 9.0.0 (20230911.1827)
 -->
<!-- Title: Database::ASqlBackend::getGenericQueryGenerator Pages: 1 -->
<svg width="312pt" height="382pt"
 viewBox="0.00 0.00 311.50 381.50" xmlns="http://www.w3.org/2000/svg" xmlns:xlink="http://www.w3.org/1999/xlink">
<g id="graph0" class="graph" transform="scale(1 1) rotate(0) translate(4 377.5)">
<title>Database::ASqlBackend::getGenericQueryGenerator</title>
<!-- Node1 -->
<g id="Node000001" class="node">
<title>Node1</title>
<g id="a_Node000001"><a xlink:title="IGenericSqlQueryGenerator accessor.">
<polygon fill="#999999" stroke="#666666" points="303.5,-201.5 167.5,-201.5 167.5,-171 303.5,-171 303.5,-201.5"/>
<text text-anchor="start" x="175.5" y="-188" font-family="Helvetica,sans-Serif" font-size="10.00">Database::ASqlBackend</text>
<text text-anchor="middle" x="235.5" y="-176.75" font-family="Helvetica,sans-Serif" font-size="10.00">::getGenericQueryGenerator</text>
</a>
</g>
</g>
<!-- Node2 -->
<g id="Node000002" class="node">
<title>Node2</title>
<g id="a_Node000002"><a xlink:href="../../d5/d1b/class_database_1_1_a_sql_backend.html#a0c0603d80337f62fe765d924b23ffd32" target="_top" xlink:title=" ">
<polygon fill="white" stroke="#666666" points="126.25,-373.5 5.25,-373.5 5.25,-343 126.25,-343 126.25,-373.5"/>
<text text-anchor="start" x="13.25" y="-360" font-family="Helvetica,sans-Serif" font-size="10.00">Database::ASqlBackend</text>
<text text-anchor="middle" x="65.75" y="-348.75" font-family="Helvetica,sans-Serif" font-size="10.00">::ASqlBackend</text>
</a>
</g>
</g>
<!-- Node1&#45;&gt;Node2 -->
<g id="edge1_Node000001_Node000002" class="edge">
<title>Node1&#45;&gt;Node2</title>
<g id="a_edge1_Node000001_Node000002"><a xlink:title=" ">
<path fill="none" stroke="#63b8ff" d="M222.54,-211.89C206.22,-244.32 174.05,-299.95 131.5,-333.25 126.95,-336.81 121.82,-339.92 116.5,-342.62"/>
<polygon fill="#63b8ff" stroke="#63b8ff" points="225.54,-213.72 226.8,-203.2 219.25,-210.64 225.54,-213.72"/>
</a>
</g>
</g>
<!-- Node3 -->
<g id="Node000003" class="node">
<title>Node3</title>
<g id="a_Node000003"><a xlink:href="../../d5/d1b/class_database_1_1_a_sql_backend.html#a6b163257b1e7f0027236542016baf8a6" target="_top" xlink:title="Make sure given table exists in database.">
<polygon fill="#fff0f0" stroke="red" points="126.25,-324.5 5.25,-324.5 5.25,-294 126.25,-294 126.25,-324.5"/>
<text text-anchor="start" x="13.25" y="-311" font-family="Helvetica,sans-Serif" font-size="10.00">Database::ASqlBackend</text>
<text text-anchor="middle" x="65.75" y="-299.75" font-family="Helvetica,sans-Serif" font-size="10.00">::ensureTableExists</text>
</a>
</g>
</g>
<!-- Node1&#45;&gt;Node3 -->
<g id="edge2_Node000001_Node000003" class="edge">
<title>Node1&#45;&gt;Node3</title>
<g id="a_edge2_Node000001_Node000003"><a xlink:title=" ">
<path fill="none" stroke="#63b8ff" d="M214.1,-210.47C194.71,-232.22 163.8,-263.8 131.5,-284.25 126,-287.73 119.94,-290.86 113.8,-293.62"/>
<polygon fill="#63b8ff" stroke="#63b8ff" points="216.73,-212.78 220.68,-202.95 211.46,-208.17 216.73,-212.78"/>
</a>
</g>
</g>
<!-- Node8 -->
<g id="Node000008" class="node">
<title>Node8</title>
<g id="a_Node000008"><a xlink:href="../../d5/d1b/class_database_1_1_a_sql_backend.html#a8b66e6fa978d2fbc27e93902776daf90" target="_top" xlink:title="get group operator">
<polygon fill="white" stroke="#666666" points="126.25,-275.5 5.25,-275.5 5.25,-245 126.25,-245 126.25,-275.5"/>
<text text-anchor="start" x="13.25" y="-262" font-family="Helvetica,sans-Serif" font-size="10.00">Database::ASqlBackend</text>
<text text-anchor="middle" x="65.75" y="-250.75" font-family="Helvetica,sans-Serif" font-size="10.00">::groupOperator</text>
</a>
</g>
</g>
<!-- Node1&#45;&gt;Node8 -->
<g id="edge3_Node000001_Node000008" class="edge">
<title>Node1&#45;&gt;Node8</title>
<g id="a_edge3_Node000001_Node000008"><a xlink:title=" ">
<path fill="none" stroke="#63b8ff" d="M193,-206.87C174.35,-215.91 151.97,-226.44 131.5,-235.25 124.19,-238.39 116.35,-241.58 108.73,-244.57"/>
<polygon fill="#63b8ff" stroke="#63b8ff" points="194.41,-210.08 201.87,-202.55 191.34,-203.78 194.41,-210.08"/>
</a>
</g>
</g>
<!-- Node9 -->
<g id="Node000009" class="node">
<title>Node9</title>
<g id="a_Node000009"><a xlink:href="../../d5/d1b/class_database_1_1_a_sql_backend.html#a218cc7555092910cf6c33cab849cc0fb" target="_top" xlink:title="create new entry for photo in database">
<polygon fill="#fff0f0" stroke="red" points="126.25,-226.5 5.25,-226.5 5.25,-196 126.25,-196 126.25,-226.5"/>
<text text-anchor="start" x="13.25" y="-213" font-family="Helvetica,sans-Serif" font-size="10.00">Database::ASqlBackend</text>
<text text-anchor="middle" x="65.75" y="-201.75" font-family="Helvetica,sans-Serif" font-size="10.00">::introduce</text>
</a>
</g>
</g>
<!-- Node1&#45;&gt;Node9 -->
<g id="edge4_Node000001_Node000009" class="edge">
<title>Node1&#45;&gt;Node9</title>
<g id="a_edge4_Node000001_Node000009"><a xlink:title=" ">
<path fill="none" stroke="#63b8ff" d="M156.14,-197.93C146.25,-199.4 136.26,-200.89 126.71,-202.31"/>
<polygon fill="#63b8ff" stroke="#63b8ff" points="156.36,-201.43 165.74,-196.5 155.33,-194.51 156.36,-201.43"/>
</a>
</g>
</g>
<!-- Node12 -->
<g id="Node000012" class="node">
<title>Node12</title>
<g id="a_Node000012"><a xlink:href="../../d5/d1b/class_database_1_1_a_sql_backend.html#a3e9501e1fef2f56f42ebc39c17e8aaab" target="_top" xlink:title="get changelog operator">
<polygon fill="#fff0f0" stroke="red" points="131.5,-177.5 0,-177.5 0,-147 131.5,-147 131.5,-177.5"/>
<text text-anchor="start" x="8" y="-164" font-family="Helvetica,sans-Serif" font-size="10.00">Database::ASqlBackend</text>
<text text-anchor="middle" x="65.75" y="-152.75" font-family="Helvetica,sans-Serif" font-size="10.00">::photoChangeLogOperator</text>
</a>
</g>
</g>
<!-- Node1&#45;&gt;Node12 -->
<g id="edge5_Node000001_Node000012" class="edge">
<title>Node1&#45;&gt;Node12</title>
<g id="a_edge5_Node000001_Node000012"><a xlink:title=" ">
<path fill="none" stroke="#63b8ff" d="M155.92,-175.01C147.86,-173.85 139.74,-172.69 131.85,-171.56"/>
<polygon fill="#63b8ff" stroke="#63b8ff" points="155.34,-178.46 165.74,-176.41 156.33,-171.53 155.34,-178.46"/>
</a>
</g>
</g>
<!-- Node14 -->
<g id="Node000014" class="node">
<title>Node14</title>
<g id="a_Node000014"><a xlink:href="../../d5/d1b/class_database_1_1_a_sql_backend.html#af282cb886405d379b78d19b3af177d03" target="_top" xlink:title="get photo operator">
<polygon fill="#fff0f0" stroke="red" points="126.25,-128.5 5.25,-128.5 5.25,-98 126.25,-98 126.25,-128.5"/>
<text text-anchor="start" x="13.25" y="-115" font-family="Helvetica,sans-Serif" font-size="10.00">Database::ASqlBackend</text>
<text text-anchor="middle" x="65.75" y="-103.75" font-family="Helvetica,sans-Serif" font-size="10.00">::photoOperator</text>
</a>
</g>
</g>
<!-- Node1&#45;&gt;Node14 -->
<g id="edge6_Node000001_Node000014" class="edge">
<title>Node1&#45;&gt;Node14</title>
<g id="a_edge6_Node000001_Node000014"><a xlink:title=" ">
<path fill="none" stroke="#63b8ff" d="M192.12,-165.72C173.64,-156.96 151.62,-146.81 131.5,-138.25 124.18,-135.14 116.33,-131.97 108.71,-128.98"/>
<polygon fill="#63b8ff" stroke="#63b8ff" points="190.38,-168.76 200.91,-169.9 193.39,-162.44 190.38,-168.76"/>
</a>
</g>
</g>
<!-- Node19 -->
<g id="Node000019" class="node">
<title>Node19</title>
<g id="a_Node000019"><a xlink:href="../../d5/d1b/class_database_1_1_a_sql_backend.html#a6142dabb29720404ce3b6765eb2441a5" target="_top" xlink:title="add tag to photo">
<polygon fill="#fff0f0" stroke="red" points="126.25,-79.5 5.25,-79.5 5.25,-49 126.25,-49 126.25,-79.5"/>
<text text-anchor="start" x="13.25" y="-66" font-family="Helvetica,sans-Serif" font-size="10.00">Database::ASqlBackend</text>
<text text-anchor="middle" x="65.75" y="-54.75" font-family="Helvetica,sans-Serif" font-size="10.00">::store</text>
</a>
</g>
</g>
<!-- Node1&#45;&gt;Node19 -->
<g id="edge7_Node000001_Node000019" class="edge">
<title>Node1&#45;&gt;Node19</title>
<g id="a_edge7_Node000001_Node000019"><a xlink:title=" ">
<path fill="none" stroke="#63b8ff" d="M213.72,-161.92C194.28,-140.41 163.51,-109.41 131.5,-89.25 125.99,-85.78 119.93,-82.67 113.79,-79.91"/>
<polygon fill="#63b8ff" stroke="#63b8ff" points="211.07,-164.21 220.32,-169.37 216.31,-159.56 211.07,-164.21"/>
</a>
</g>
</g>
<!-- Node21 -->
<g id="Node000021" class="node">
<title>Node21</title>
<g id="a_Node000021"><a xlink:href="../../d5/d1b/class_database_1_1_a_sql_backend.html#a42b7acb6e6a11a44e53f0ea80c920690" target="_top" xlink:title="insert data to database or upgrade existing entries.">
<polygon fill="#fff0f0" stroke="red" points="126.25,-30.5 5.25,-30.5 5.25,0 126.25,0 126.25,-30.5"/>
<text text-anchor="start" x="13.25" y="-17" font-family="Helvetica,sans-Serif" font-size="10.00">Database::ASqlBackend</text>
<text text-anchor="middle" x="65.75" y="-5.75" font-family="Helvetica,sans-Serif" font-size="10.00">::updateOrInsert</text>
</a>
</g>
</g>
<!-- Node1&#45;&gt;Node21 -->
<g id="edge8_Node000001_Node000021" class="edge">
<title>Node1&#45;&gt;Node21</title>
<g id="a_edge8_Node000001_Node000021"><a xlink:title=" ">
<path fill="none" stroke="#63b8ff" d="M222.5,-160.79C206.12,-128.58 173.91,-73.33 131.5,-40.25 126.94,-36.69 121.81,-33.59 116.49,-30.9"/>
<polygon fill="#63b8ff" stroke="#63b8ff" points="219.19,-162 226.76,-169.41 225.46,-158.89 219.19,-162"/>
</a>
</g>
</g>
</g>
</svg>
