<?xml version="1.0" encoding="UTF-8" standalone="no"?>
<!DOCTYPE svg PUBLIC "-//W3C//DTD SVG 1.1//EN"
 "http://www.w3.org/Graphics/SVG/1.1/DTD/svg11.dtd">
<!-- Generated by graphviz version 9.0.0 (20230911.1827)
 -->
<!-- Title: Database::ASqlBackend::set Pages: 1 -->
<svg width="354pt" height="284pt"
 viewBox="0.00 0.00 353.50 283.50" xmlns="http://www.w3.org/2000/svg" xmlns:xlink="http://www.w3.org/1999/xlink">

<svg id="main" version="1.1" xmlns="http://www.w3.org/2000/svg" xmlns:xlink="http://www.w3.org/1999/xlink" xml:space="preserve" onload="init(evt)">
<style type="text/css"><![CDATA[
.node, .edge {opacity: 0.7;}
.node.selected, .edge.selected {opacity: 1;}
.edge:hover path { stroke: red; }
.edge:hover polygon { stroke: red; fill: red; }
]]></style>
<script type="application/ecmascript" xlink:href="../../svg.min.js"/>
<svg id="graph" class="graph">
<g id="graph0" class="graph" transform="scale(1 1) rotate(0) translate(4 279.5)">
<title>Database::ASqlBackend::set</title>
<!-- Node1 -->
<g id="Node000001" class="node">
<title>Node1</title>
<g id="a_Node000001"><a xlink:title="set flag for photo to given value">
<polygon fill="#999999" stroke="#666666" points="139,-146.88 0,-146.88 0,-127.62 139,-127.62 139,-146.88"/>
<text text-anchor="middle" x="69.5" y="-133.38" font-family="Helvetica,sans-Serif" font-size="10.00">Database::ASqlBackend::set</text>
</a>
</g>
</g>
<!-- Node2 -->
<g id="Node000002" class="node">
<title>Node2</title>
<g id="a_Node000002"><a xlink:href="../../d7/dee/class_database_1_1_update_query_data.html#a442190800f635dc51c4fec6faf02b2b2" target="_top" xlink:title=" ">
<polygon fill="white" stroke="#666666" points="329.75,-275.5 190.75,-275.5 190.75,-245 329.75,-245 329.75,-275.5"/>
<text text-anchor="start" x="198.75" y="-262" font-family="Helvetica,sans-Serif" font-size="10.00">Database::UpdateQueryData</text>
<text text-anchor="middle" x="260.25" y="-250.75" font-family="Helvetica,sans-Serif" font-size="10.00">::addCondition</text>
</a>
</g>
</g>
<!-- Node1&#45;&gt;Node2 -->
<g id="edge1_Node000001_Node000002" class="edge">
<title>Node1&#45;&gt;Node2</title>
<g id="a_edge1_Node000001_Node000002"><a xlink:title=" ">
<path fill="none" stroke="#63b8ff" d="M78.31,-147.18C94.32,-166.89 132.93,-211.11 175,-235.25 178.01,-236.98 181.16,-238.6 184.38,-240.11"/>
<polygon fill="#63b8ff" stroke="#63b8ff" points="182.95,-243.31 193.52,-244.01 185.7,-236.87 182.95,-243.31"/>
</a>
</g>
</g>
<!-- Node3 -->
<g id="Node000003" class="node">
<title>Node3</title>
<g id="a_Node000003"><a xlink:href="../../d5/d1b/class_database_1_1_a_sql_backend.html#a4311855344703cfc5f8a044e1a0303d2" target="_top" xlink:title="begin transaction">
<polygon fill="#fff0f0" stroke="red" points="320.75,-226.5 199.75,-226.5 199.75,-196 320.75,-196 320.75,-226.5"/>
<text text-anchor="start" x="207.75" y="-213" font-family="Helvetica,sans-Serif" font-size="10.00">Database::ASqlBackend</text>
<text text-anchor="middle" x="260.25" y="-201.75" font-family="Helvetica,sans-Serif" font-size="10.00">::openTransaction</text>
</a>
</g>
</g>
<!-- Node1&#45;&gt;Node3 -->
<g id="edge2_Node000001_Node000003" class="edge">
<title>Node1&#45;&gt;Node3</title>
<g id="a_edge2_Node000001_Node000003"><a xlink:title=" ">
<path fill="none" stroke="#63b8ff" d="M89.77,-147.35C110.45,-157.95 144.47,-174.64 175,-186.25 180.3,-188.27 185.84,-190.22 191.43,-192.1"/>
<polygon fill="#63b8ff" stroke="#63b8ff" points="190.18,-195.37 200.77,-195.12 192.34,-188.71 190.18,-195.37"/>
</a>
</g>
</g>
<!-- Node5 -->
<g id="Node000005" class="node">
<title>Node5</title>
<g id="a_Node000005"><a xlink:href="../../d2/deb/class_database_1_1_notifications_accumulator.html#a51f4c9699c114aeb027fea408670c6a8" target="_top" xlink:title=" ">
<polygon fill="white" stroke="#666666" points="345.5,-177.5 175,-177.5 175,-147 345.5,-147 345.5,-177.5"/>
<text text-anchor="start" x="183" y="-164" font-family="Helvetica,sans-Serif" font-size="10.00">Database::NotificationsAccumulator</text>
<text text-anchor="middle" x="260.25" y="-152.75" font-family="Helvetica,sans-Serif" font-size="10.00">::photosModified</text>
</a>
</g>
</g>
<!-- Node1&#45;&gt;Node5 -->
<g id="edge3_Node000001_Node000005" class="edge">
<title>Node1&#45;&gt;Node5</title>
<g id="a_edge3_Node000001_Node000005"><a xlink:title=" ">
<path fill="none" stroke="#63b8ff" d="M139.44,-146.38C147.25,-147.42 155.3,-148.48 163.37,-149.55"/>
<polygon fill="#63b8ff" stroke="#63b8ff" points="162.88,-153.02 173.26,-150.86 163.8,-146.08 162.88,-153.02"/>
</a>
</g>
</g>
<!-- Node6 -->
<g id="Node000006" class="node">
<title>Node6</title>
<g id="a_Node000006"><a xlink:href="../../d4/df7/class_database_1_1_insert_query_data.html#ad5559c694413325527ab752c01dd1ca8" target="_top" xlink:title=" ">
<polygon fill="white" stroke="#666666" points="326.38,-128.5 194.12,-128.5 194.12,-98 326.38,-98 326.38,-128.5"/>
<text text-anchor="start" x="202.12" y="-115" font-family="Helvetica,sans-Serif" font-size="10.00">Database::InsertQueryData</text>
<text text-anchor="middle" x="260.25" y="-103.75" font-family="Helvetica,sans-Serif" font-size="10.00">::setColumns</text>
</a>
</g>
</g>
<!-- Node1&#45;&gt;Node6 -->
<g id="edge4_Node000001_Node000006" class="edge">
<title>Node1&#45;&gt;Node6</title>
<g id="a_edge4_Node000001_Node000006"><a xlink:title=" ">
<path fill="none" stroke="#63b8ff" d="M139.44,-128.48C153.4,-126.71 168.17,-124.83 182.38,-123.02"/>
<polygon fill="#63b8ff" stroke="#63b8ff" points="182.66,-126.52 192.13,-121.78 181.77,-119.57 182.66,-126.52"/>
</a>
</g>
</g>
<!-- Node7 -->
<g id="Node000007" class="node">
<title>Node7</title>
<g id="a_Node000007"><a xlink:href="../../d4/df7/class_database_1_1_insert_query_data.html#a5140196bba75c14512d5f967bd6ee152" target="_top" xlink:title=" ">
<polygon fill="white" stroke="#666666" points="326.38,-79.5 194.12,-79.5 194.12,-49 326.38,-49 326.38,-79.5"/>
<text text-anchor="start" x="202.12" y="-66" font-family="Helvetica,sans-Serif" font-size="10.00">Database::InsertQueryData</text>
<text text-anchor="middle" x="260.25" y="-54.75" font-family="Helvetica,sans-Serif" font-size="10.00">::setValues</text>
</a>
</g>
</g>
<!-- Node1&#45;&gt;Node7 -->
<g id="edge5_Node000001_Node000007" class="edge">
<title>Node1&#45;&gt;Node7</title>
<g id="a_edge5_Node000001_Node000007"><a xlink:title=" ">
<path fill="none" stroke="#63b8ff" d="M90.18,-127.19C110.92,-116.83 144.73,-100.63 175,-89.25 180.31,-87.25 185.85,-85.31 191.45,-83.45"/>
<polygon fill="#63b8ff" stroke="#63b8ff" points="192.35,-86.83 200.79,-80.43 190.2,-80.17 192.35,-86.83"/>
</a>
</g>
</g>
<!-- Node8 -->
<g id="Node000008" class="node">
<title>Node8</title>
<g id="a_Node000008"><a xlink:href="../../d5/d1b/class_database_1_1_a_sql_backend.html#a42b7acb6e6a11a44e53f0ea80c920690" target="_top" xlink:title="insert data to database or upgrade existing entries.">
<polygon fill="#fff0f0" stroke="red" points="320.75,-30.5 199.75,-30.5 199.75,0 320.75,0 320.75,-30.5"/>
<text text-anchor="start" x="207.75" y="-17" font-family="Helvetica,sans-Serif" font-size="10.00">Database::ASqlBackend</text>
<text text-anchor="middle" x="260.25" y="-5.75" font-family="Helvetica,sans-Serif" font-size="10.00">::updateOrInsert</text>
</a>
</g>
</g>
<!-- Node1&#45;&gt;Node8 -->
<g id="edge6_Node000001_Node000008" class="edge">
<title>Node1&#45;&gt;Node8</title>
<g id="a_edge6_Node000001_Node000008"><a xlink:title=" ">
<path fill="none" stroke="#63b8ff" d="M78.33,-127.43C94.39,-107.93 133.07,-64.16 175,-40.25 179.37,-37.76 184.01,-35.5 188.77,-33.44"/>
<polygon fill="#63b8ff" stroke="#63b8ff" points="189.93,-36.75 197.96,-29.83 187.37,-30.23 189.93,-36.75"/>
</a>
</g>
</g>
</g>
</svg>
</svg>

<style type='text/css'>
<![CDATA[
[data-mouse-over-selected='false'] { opacity: 0.7; }
[data-mouse-over-selected='true']  { opacity: 1.0; }
]]>
</style>
<script type="application/ecmascript"><![CDATA[
document.addEventListener('DOMContentLoaded', (event) => {
  highlightEdges();
  highlightAdjacentNodes();
});
]]></script>
</svg>
