<?xml version="1.0" encoding="UTF-8" standalone="no"?>
<!DOCTYPE svg PUBLIC "-//W3C//DTD SVG 1.1//EN"
 "http://www.w3.org/Graphics/SVG/1.1/DTD/svg11.dtd">
<!-- Generated by graphviz version 7.0.5 (20221223.1930)
 -->
<!-- Title: Database::ASqlBackend::checkDBVersion Pages: 1 -->
<svg width="464pt" height="60pt"
 viewBox="0.00 0.00 464.00 60.00" xmlns="http://www.w3.org/2000/svg" xmlns:xlink="http://www.w3.org/1999/xlink">
<g id="graph0" class="graph" transform="scale(1 1) rotate(0) translate(4 56)">
<title>Database::ASqlBackend::checkDBVersion</title>
<!-- Node1 -->
<g id="node1" class="node">
<title>Node1</title>
<g id="a_node1"><a xlink:title="check current db version and upgrade structures if required">
<polygon fill="#999999" stroke="#666666" points="122,-30 0,-30 0,0 122,0 122,-30"/>
<text text-anchor="start" x="8" y="-18" font-family="Helvetica,sans-Serif" font-size="10.00">Database::ASqlBackend</text>
<text text-anchor="middle" x="61" y="-7" font-family="Helvetica,sans-Serif" font-size="10.00">::checkDBVersion</text>
</a>
</g>
</g>
<!-- Node2 -->
<g id="node2" class="node">
<title>Node2</title>
<g id="a_node2"><a xlink:href="../../d5/d1b/class_database_1_1_a_sql_backend.html#a6b163257b1e7f0027236542016baf8a6" target="_top" xlink:title="Make sure given table exists in database.">
<polygon fill="#fff0f0" stroke="red" points="280,-52 158,-52 158,-22 280,-22 280,-52"/>
<text text-anchor="start" x="166" y="-40" font-family="Helvetica,sans-Serif" font-size="10.00">Database::ASqlBackend</text>
<text text-anchor="middle" x="219" y="-29" font-family="Helvetica,sans-Serif" font-size="10.00">::ensureTableExists</text>
</a>
</g>
</g>
<!-- Node1&#45;&gt;Node2 -->
<g id="edge1" class="edge">
<title>Node1&#45;&gt;Node2</title>
<path fill="none" stroke="#63b8ff" d="M122.31,-23.51C130.18,-24.62 138.3,-25.76 146.33,-26.89"/>
<polygon fill="#63b8ff" stroke="#63b8ff" points="145.7,-30.34 156.09,-28.27 146.68,-23.41 145.7,-30.34"/>
</g>
<!-- Node4 -->
<g id="node3" class="node">
<title>Node4</title>
<g id="a_node3"><a xlink:href="../../d3/d47/class_database_1_1_sql_query_executor.html#a92b20d0dac92b5fa49b9184f8e341a94" target="_top" xlink:title=" ">
<polygon fill="white" stroke="#666666" points="456,-30 316,-30 316,0 456,0 456,-30"/>
<text text-anchor="start" x="324" y="-18" font-family="Helvetica,sans-Serif" font-size="10.00">Database::SqlQueryExecutor</text>
<text text-anchor="middle" x="386" y="-7" font-family="Helvetica,sans-Serif" font-size="10.00">::exec</text>
</a>
</g>
</g>
<!-- Node1&#45;&gt;Node4 -->
<g id="edge4" class="edge">
<title>Node1&#45;&gt;Node4</title>
<path fill="none" stroke="#63b8ff" d="M122.43,-13.55C134.22,-13.32 146.5,-13.12 158,-13 212.22,-12.44 225.78,-12.48 280,-13 287.81,-13.07 295.94,-13.18 304.07,-13.3"/>
<polygon fill="#63b8ff" stroke="#63b8ff" points="303.96,-16.8 314.02,-13.47 304.08,-9.8 303.96,-16.8"/>
</g>
<!-- Node2&#45;&gt;Node4 -->
<g id="edge2" class="edge">
<title>Node2&#45;&gt;Node4</title>
<path fill="none" stroke="#63b8ff" d="M280.04,-29C288.02,-27.93 296.3,-26.83 304.56,-25.73"/>
<polygon fill="#63b8ff" stroke="#63b8ff" points="304.82,-29.22 314.27,-24.43 303.9,-22.28 304.82,-29.22"/>
</g>
<!-- Node4&#45;&gt;Node4 -->
<g id="edge3" class="edge">
<title>Node4&#45;&gt;Node4</title>
<path fill="none" stroke="#63b8ff" d="M356.64,-30.28C350.12,-39.41 359.91,-48 386,-48 400.27,-48 409.66,-45.43 414.18,-41.61"/>
<polygon fill="#63b8ff" stroke="#63b8ff" points="417.65,-42.09 415.2,-31.78 410.68,-41.37 417.65,-42.09"/>
</g>
</g>
</svg>
