<?xml version="1.0" encoding="UTF-8" standalone="no"?>
<!DOCTYPE svg PUBLIC "-//W3C//DTD SVG 1.1//EN"
 "http://www.w3.org/Graphics/SVG/1.1/DTD/svg11.dtd">
<!-- Generated by graphviz version 7.0.5 (20221223.1930)
 -->
<!-- Title: Database::ASqlBackend::set Pages: 1 -->
<svg width="306pt" height="86pt"
 viewBox="0.00 0.00 306.00 86.00" xmlns="http://www.w3.org/2000/svg" xmlns:xlink="http://www.w3.org/1999/xlink">
<g id="graph0" class="graph" transform="scale(1 1) rotate(0) translate(4 82)">
<title>Database::ASqlBackend::set</title>
<!-- Node1 -->
<g id="node1" class="node">
<title>Node1</title>
<g id="a_node1"><a xlink:title="set flag for photo to given value">
<polygon fill="#999999" stroke="#666666" points="298,-48.5 158,-48.5 158,-29.5 298,-29.5 298,-48.5"/>
<text text-anchor="middle" x="228" y="-36.5" font-family="Helvetica,sans-Serif" font-size="10.00">Database::ASqlBackend::set</text>
</a>
</g>
</g>
<!-- Node2 -->
<g id="node2" class="node">
<title>Node2</title>
<g id="a_node2"><a xlink:href="../../d5/d1b/class_database_1_1_a_sql_backend.html#a3e487165f32855d9aec8064fa48c65e3" target="_top" xlink:title="clear bits for provided flag">
<polygon fill="white" stroke="#666666" points="122,-78 0,-78 0,-48 122,-48 122,-78"/>
<text text-anchor="start" x="8" y="-66" font-family="Helvetica,sans-Serif" font-size="10.00">Database::ASqlBackend</text>
<text text-anchor="middle" x="61" y="-55" font-family="Helvetica,sans-Serif" font-size="10.00">::clearBits</text>
</a>
</g>
</g>
<!-- Node1&#45;&gt;Node2 -->
<g id="edge1" class="edge">
<title>Node1&#45;&gt;Node2</title>
<path fill="none" stroke="#63b8ff" d="M147.17,-50.61C138.85,-51.82 130.49,-53.04 122.43,-54.21"/>
<polygon fill="#63b8ff" stroke="#63b8ff" points="147.57,-54.09 156.96,-49.19 146.56,-47.16 147.57,-54.09"/>
</g>
<!-- Node3 -->
<g id="node3" class="node">
<title>Node3</title>
<g id="a_node3"><a xlink:href="../../d5/d1b/class_database_1_1_a_sql_backend.html#aa6a769e34be141b0da34148e5a0c9250" target="_top" xlink:title="set bits for provided flag">
<polygon fill="white" stroke="#666666" points="122,-30 0,-30 0,0 122,0 122,-30"/>
<text text-anchor="start" x="8" y="-18" font-family="Helvetica,sans-Serif" font-size="10.00">Database::ASqlBackend</text>
<text text-anchor="middle" x="61" y="-7" font-family="Helvetica,sans-Serif" font-size="10.00">::setBits</text>
</a>
</g>
</g>
<!-- Node1&#45;&gt;Node3 -->
<g id="edge2" class="edge">
<title>Node1&#45;&gt;Node3</title>
<path fill="none" stroke="#63b8ff" d="M147.17,-27.39C138.85,-26.18 130.49,-24.96 122.43,-23.79"/>
<polygon fill="#63b8ff" stroke="#63b8ff" points="146.56,-30.84 156.96,-28.81 147.57,-23.91 146.56,-30.84"/>
</g>
</g>
</svg>
