<?xml version="1.0" encoding="UTF-8" standalone="no"?>
<!DOCTYPE svg PUBLIC "-//W3C//DTD SVG 1.1//EN"
 "http://www.w3.org/Graphics/SVG/1.1/DTD/svg11.dtd">
<!-- Generated by graphviz version 9.0.0 (20230911.1827)
 -->
<!-- Title: Database::ASqlBackend::listTagValues Pages: 1 -->
<svg width="304pt" height="180pt"
 viewBox="0.00 0.00 304.00 179.88" xmlns="http://www.w3.org/2000/svg" xmlns:xlink="http://www.w3.org/1999/xlink">
<g id="graph0" class="graph" transform="scale(1 1) rotate(0) translate(4 175.88)">
<title>Database::ASqlBackend::listTagValues</title>
<!-- Node1 -->
<g id="Node000001" class="node">
<title>Node1</title>
<g id="a_Node000001"><a xlink:title="list all values of tag for photos matching provided filter">
<polygon fill="#999999" stroke="#666666" points="121,-88.88 0,-88.88 0,-58.38 121,-58.38 121,-88.88"/>
<text text-anchor="start" x="8" y="-75.38" font-family="Helvetica,sans-Serif" font-size="10.00">Database::ASqlBackend</text>
<text text-anchor="middle" x="60.5" y="-64.12" font-family="Helvetica,sans-Serif" font-size="10.00">::listTagValues</text>
</a>
</g>
</g>
<!-- Node2 -->
<g id="Node000002" class="node">
<title>Node2</title>
<g id="a_Node000002"><a xlink:href="../../d3/d47/class_database_1_1_sql_query_executor.html#a92b20d0dac92b5fa49b9184f8e341a94" target="_top" xlink:title=" ">
<polygon fill="white" stroke="#666666" points="296,-153.88 157,-153.88 157,-123.38 296,-123.38 296,-153.88"/>
<text text-anchor="start" x="165" y="-140.38" font-family="Helvetica,sans-Serif" font-size="10.00">Database::SqlQueryExecutor</text>
<text text-anchor="middle" x="226.5" y="-129.12" font-family="Helvetica,sans-Serif" font-size="10.00">::exec</text>
</a>
</g>
</g>
<!-- Node1&#45;&gt;Node2 -->
<g id="edge1_Node000001_Node000002" class="edge">
<title>Node1&#45;&gt;Node2</title>
<g id="a_edge1_Node000001_Node000002"><a xlink:title=" ">
<path fill="none" stroke="#63b8ff" d="M96.19,-89.2C114.21,-97.11 136.66,-106.7 157,-114.62 160.81,-116.11 164.74,-117.6 168.72,-119.07"/>
<polygon fill="#63b8ff" stroke="#63b8ff" points="167.27,-122.27 177.86,-122.4 169.66,-115.69 167.27,-122.27"/>
</a>
</g>
</g>
<!-- Node3 -->
<g id="Node000003" class="node">
<title>Node3</title>
<g id="a_Node000003"><a xlink:href="../../df/d7c/class_tag_value.html#a23a09559a3f5de9a89b8a237fc2af081" target="_top" xlink:title=" ">
<polygon fill="#fff0f0" stroke="red" points="276.88,-105.25 176.12,-105.25 176.12,-86 276.88,-86 276.88,-105.25"/>
<text text-anchor="middle" x="226.5" y="-91.75" font-family="Helvetica,sans-Serif" font-size="10.00">TagValue::fromRaw</text>
</a>
</g>
</g>
<!-- Node1&#45;&gt;Node3 -->
<g id="edge3_Node000001_Node000003" class="edge">
<title>Node1&#45;&gt;Node3</title>
<g id="a_edge3_Node000001_Node000003"><a xlink:title=" ">
<path fill="none" stroke="#63b8ff" d="M121.17,-81.63C135.34,-83.53 150.46,-85.56 164.68,-87.47"/>
<polygon fill="#63b8ff" stroke="#63b8ff" points="163.97,-90.9 174.35,-88.76 164.9,-83.96 163.97,-90.9"/>
</a>
</g>
</g>
<!-- Node8 -->
<g id="Node000008" class="node">
<title>Node8</title>
<g id="a_Node000008"><a xlink:href="../../d6/d7f/class_database_1_1_sql_filter_query_generator.html#a41b86be1876d22b283d495106b9bcf0c" target="_top" xlink:title=" ">
<polygon fill="#fff0f0" stroke="red" points="288.12,-67.88 164.88,-67.88 164.88,-37.38 288.12,-37.38 288.12,-67.88"/>
<text text-anchor="start" x="172.88" y="-54.38" font-family="Helvetica,sans-Serif" font-size="10.00">Database::SqlFilterQuery</text>
<text text-anchor="middle" x="226.5" y="-43.12" font-family="Helvetica,sans-Serif" font-size="10.00">Generator::generate</text>
</a>
</g>
</g>
<!-- Node1&#45;&gt;Node8 -->
<g id="edge4_Node000001_Node000008" class="edge">
<title>Node1&#45;&gt;Node8</title>
<g id="a_edge4_Node000001_Node000008"><a xlink:title=" ">
<path fill="none" stroke="#63b8ff" d="M121.17,-65.98C131.64,-64.64 142.63,-63.24 153.4,-61.86"/>
<polygon fill="#63b8ff" stroke="#63b8ff" points="153.52,-65.37 162.99,-60.63 152.63,-58.43 153.52,-65.37"/>
</a>
</g>
</g>
<!-- Node10 -->
<g id="Node000010" class="node">
<title>Node10</title>
<g id="a_Node000010"><a xlink:href="../../de/dd4/class_base_tags.html#a440585d38153e073f47134a7f04e6f5e" target="_top" xlink:title="Get structure describing tag.">
<polygon fill="white" stroke="#666666" points="276.12,-19.25 176.88,-19.25 176.88,0 276.12,0 276.12,-19.25"/>
<text text-anchor="middle" x="226.5" y="-5.75" font-family="Helvetica,sans-Serif" font-size="10.00">BaseTags::getType</text>
</a>
</g>
</g>
<!-- Node1&#45;&gt;Node10 -->
<g id="edge5_Node000001_Node000010" class="edge">
<title>Node1&#45;&gt;Node10</title>
<g id="a_edge5_Node000001_Node000010"><a xlink:title=" ">
<path fill="none" stroke="#63b8ff" d="M91.47,-57.89C110.01,-48.57 134.49,-36.98 157,-28.62 162.43,-26.61 168.17,-24.69 173.92,-22.91"/>
<polygon fill="#63b8ff" stroke="#63b8ff" points="174.88,-26.28 183.48,-20.08 172.9,-19.57 174.88,-26.28"/>
</a>
</g>
</g>
<!-- Node2&#45;&gt;Node2 -->
<g id="edge2_Node000002_Node000002" class="edge">
<title>Node2&#45;&gt;Node2</title>
<g id="a_edge2_Node000002_Node000002"><a xlink:title=" ">
<path fill="none" stroke="#63b8ff" d="M197.08,-154.36C191.08,-163.43 200.89,-171.88 226.5,-171.88 240.51,-171.88 249.79,-169.35 254.34,-165.58"/>
<polygon fill="#63b8ff" stroke="#63b8ff" points="257.78,-166.25 255.7,-155.86 250.85,-165.28 257.78,-166.25"/>
</a>
</g>
</g>
</g>
</svg>
