<?xml version="1.0" encoding="UTF-8" standalone="no"?>
<!DOCTYPE svg PUBLIC "-//W3C//DTD SVG 1.1//EN"
 "http://www.w3.org/Graphics/SVG/1.1/DTD/svg11.dtd">
<!-- Generated by graphviz version 7.0.5 (20221223.1930)
 -->
<!-- Title: Database::ASqlBackend::getGenericQueryGenerator Pages: 1 -->
<svg width="313pt" height="374pt"
 viewBox="0.00 0.00 313.00 374.00" xmlns="http://www.w3.org/2000/svg" xmlns:xlink="http://www.w3.org/1999/xlink">
<g id="graph0" class="graph" transform="scale(1 1) rotate(0) translate(4 370)">
<title>Database::ASqlBackend::getGenericQueryGenerator</title>
<!-- Node1 -->
<g id="node1" class="node">
<title>Node1</title>
<g id="a_node1"><a xlink:title="IGenericSqlQueryGenerator accessor.">
<polygon fill="#999999" stroke="#666666" points="305,-198 168,-198 168,-168 305,-168 305,-198"/>
<text text-anchor="start" x="176" y="-186" font-family="Helvetica,sans-Serif" font-size="10.00">Database::ASqlBackend</text>
<text text-anchor="middle" x="236.5" y="-175" font-family="Helvetica,sans-Serif" font-size="10.00">::getGenericQueryGenerator</text>
</a>
</g>
</g>
<!-- Node2 -->
<g id="node2" class="node">
<title>Node2</title>
<g id="a_node2"><a xlink:href="../../d5/d1b/class_database_1_1_a_sql_backend.html#a0c0603d80337f62fe765d924b23ffd32" target="_top" xlink:title=" ">
<polygon fill="white" stroke="#666666" points="127,-366 5,-366 5,-336 127,-336 127,-366"/>
<text text-anchor="start" x="13" y="-354" font-family="Helvetica,sans-Serif" font-size="10.00">Database::ASqlBackend</text>
<text text-anchor="middle" x="66" y="-343" font-family="Helvetica,sans-Serif" font-size="10.00">::ASqlBackend</text>
</a>
</g>
</g>
<!-- Node1&#45;&gt;Node2 -->
<g id="edge1" class="edge">
<title>Node1&#45;&gt;Node2</title>
<path fill="none" stroke="#63b8ff" d="M223.39,-208.2C206.9,-240.07 174.48,-294.66 132,-327 127.69,-330.28 122.89,-333.15 117.9,-335.65"/>
<polygon fill="#63b8ff" stroke="#63b8ff" points="226.31,-210.19 227.69,-199.68 220.06,-207.04 226.31,-210.19"/>
</g>
<!-- Node3 -->
<g id="node3" class="node">
<title>Node3</title>
<g id="a_node3"><a xlink:href="../../d5/d1b/class_database_1_1_a_sql_backend.html#a6b163257b1e7f0027236542016baf8a6" target="_top" xlink:title="Make sure given table exists in database.">
<polygon fill="#fff0f0" stroke="red" points="127,-318 5,-318 5,-288 127,-288 127,-318"/>
<text text-anchor="start" x="13" y="-306" font-family="Helvetica,sans-Serif" font-size="10.00">Database::ASqlBackend</text>
<text text-anchor="middle" x="66" y="-295" font-family="Helvetica,sans-Serif" font-size="10.00">::ensureTableExists</text>
</a>
</g>
</g>
<!-- Node1&#45;&gt;Node3 -->
<g id="edge2" class="edge">
<title>Node1&#45;&gt;Node3</title>
<path fill="none" stroke="#63b8ff" d="M214.95,-206.81C195.43,-228.17 164.34,-259.14 132,-279 126.87,-282.15 121.27,-284.98 115.57,-287.5"/>
<polygon fill="#63b8ff" stroke="#63b8ff" points="217.5,-209.21 221.56,-199.43 212.28,-204.54 217.5,-209.21"/>
</g>
<!-- Node8 -->
<g id="node4" class="node">
<title>Node8</title>
<g id="a_node4"><a xlink:href="../../d5/d1b/class_database_1_1_a_sql_backend.html#a8b66e6fa978d2fbc27e93902776daf90" target="_top" xlink:title="get group operator">
<polygon fill="white" stroke="#666666" points="127,-270 5,-270 5,-240 127,-240 127,-270"/>
<text text-anchor="start" x="13" y="-258" font-family="Helvetica,sans-Serif" font-size="10.00">Database::ASqlBackend</text>
<text text-anchor="middle" x="66" y="-247" font-family="Helvetica,sans-Serif" font-size="10.00">::groupOperator</text>
</a>
</g>
</g>
<!-- Node1&#45;&gt;Node8 -->
<g id="edge3" class="edge">
<title>Node1&#45;&gt;Node8</title>
<path fill="none" stroke="#63b8ff" d="M193.81,-203.27C175.07,-212.13 152.58,-222.44 132,-231 125,-233.91 117.51,-236.84 110.2,-239.61"/>
<polygon fill="#63b8ff" stroke="#63b8ff" points="195.2,-206.48 202.72,-199.02 192.18,-200.16 195.2,-206.48"/>
</g>
<!-- Node9 -->
<g id="node5" class="node">
<title>Node9</title>
<g id="a_node5"><a xlink:href="../../d5/d1b/class_database_1_1_a_sql_backend.html#a218cc7555092910cf6c33cab849cc0fb" target="_top" xlink:title="create new entry for photo in database">
<polygon fill="#fff0f0" stroke="red" points="127,-222 5,-222 5,-192 127,-192 127,-222"/>
<text text-anchor="start" x="13" y="-210" font-family="Helvetica,sans-Serif" font-size="10.00">Database::ASqlBackend</text>
<text text-anchor="middle" x="66" y="-199" font-family="Helvetica,sans-Serif" font-size="10.00">::introduce</text>
</a>
</g>
</g>
<!-- Node1&#45;&gt;Node9 -->
<g id="edge4" class="edge">
<title>Node1&#45;&gt;Node9</title>
<path fill="none" stroke="#63b8ff" d="M156.79,-194.21C146.86,-195.63 136.82,-197.06 127.23,-198.42"/>
<polygon fill="#63b8ff" stroke="#63b8ff" points="157.03,-197.71 166.44,-192.84 156.04,-190.78 157.03,-197.71"/>
</g>
<!-- Node12 -->
<g id="node6" class="node">
<title>Node12</title>
<g id="a_node6"><a xlink:href="../../d5/d1b/class_database_1_1_a_sql_backend.html#a3e9501e1fef2f56f42ebc39c17e8aaab" target="_top" xlink:title="get changelog operator">
<polygon fill="#fff0f0" stroke="red" points="132,-174 0,-174 0,-144 132,-144 132,-174"/>
<text text-anchor="start" x="8" y="-162" font-family="Helvetica,sans-Serif" font-size="10.00">Database::ASqlBackend</text>
<text text-anchor="middle" x="66" y="-151" font-family="Helvetica,sans-Serif" font-size="10.00">::photoChangeLogOperator</text>
</a>
</g>
</g>
<!-- Node1&#45;&gt;Node12 -->
<g id="edge5" class="edge">
<title>Node1&#45;&gt;Node12</title>
<path fill="none" stroke="#63b8ff" d="M156.57,-171.76C148.47,-170.6 140.31,-169.44 132.39,-168.31"/>
<polygon fill="#63b8ff" stroke="#63b8ff" points="156.04,-175.22 166.44,-173.16 157.03,-168.29 156.04,-175.22"/>
</g>
<!-- Node14 -->
<g id="node7" class="node">
<title>Node14</title>
<g id="a_node7"><a xlink:href="../../d5/d1b/class_database_1_1_a_sql_backend.html#af282cb886405d379b78d19b3af177d03" target="_top" xlink:title="get photo operator">
<polygon fill="#fff0f0" stroke="red" points="127,-126 5,-126 5,-96 127,-96 127,-126"/>
<text text-anchor="start" x="13" y="-114" font-family="Helvetica,sans-Serif" font-size="10.00">Database::ASqlBackend</text>
<text text-anchor="middle" x="66" y="-103" font-family="Helvetica,sans-Serif" font-size="10.00">::photoOperator</text>
</a>
</g>
</g>
<!-- Node1&#45;&gt;Node14 -->
<g id="edge6" class="edge">
<title>Node1&#45;&gt;Node14</title>
<path fill="none" stroke="#63b8ff" d="M193.81,-162.73C175.07,-153.87 152.58,-143.56 132,-135 125,-132.09 117.51,-129.16 110.2,-126.39"/>
<polygon fill="#63b8ff" stroke="#63b8ff" points="192.18,-165.84 202.72,-166.98 195.2,-159.52 192.18,-165.84"/>
</g>
<!-- Node20 -->
<g id="node8" class="node">
<title>Node20</title>
<g id="a_node8"><a xlink:href="../../d5/d1b/class_database_1_1_a_sql_backend.html#a6142dabb29720404ce3b6765eb2441a5" target="_top" xlink:title="add tag to photo">
<polygon fill="#fff0f0" stroke="red" points="127,-78 5,-78 5,-48 127,-48 127,-78"/>
<text text-anchor="start" x="13" y="-66" font-family="Helvetica,sans-Serif" font-size="10.00">Database::ASqlBackend</text>
<text text-anchor="middle" x="66" y="-55" font-family="Helvetica,sans-Serif" font-size="10.00">::store</text>
</a>
</g>
</g>
<!-- Node1&#45;&gt;Node20 -->
<g id="edge7" class="edge">
<title>Node1&#45;&gt;Node20</title>
<path fill="none" stroke="#63b8ff" d="M214.95,-159.19C195.43,-137.83 164.34,-106.86 132,-87 126.87,-83.85 121.27,-81.02 115.57,-78.5"/>
<polygon fill="#63b8ff" stroke="#63b8ff" points="212.28,-161.46 221.56,-166.57 217.5,-156.79 212.28,-161.46"/>
</g>
<!-- Node22 -->
<g id="node9" class="node">
<title>Node22</title>
<g id="a_node9"><a xlink:href="../../d5/d1b/class_database_1_1_a_sql_backend.html#a42b7acb6e6a11a44e53f0ea80c920690" target="_top" xlink:title="insert data to database or upgrade existing entries.">
<polygon fill="#fff0f0" stroke="red" points="127,-30 5,-30 5,0 127,0 127,-30"/>
<text text-anchor="start" x="13" y="-18" font-family="Helvetica,sans-Serif" font-size="10.00">Database::ASqlBackend</text>
<text text-anchor="middle" x="66" y="-7" font-family="Helvetica,sans-Serif" font-size="10.00">::updateOrInsert</text>
</a>
</g>
</g>
<!-- Node1&#45;&gt;Node22 -->
<g id="edge8" class="edge">
<title>Node1&#45;&gt;Node22</title>
<path fill="none" stroke="#63b8ff" d="M223.39,-157.8C206.9,-125.93 174.48,-71.34 132,-39 127.69,-35.72 122.89,-32.85 117.9,-30.35"/>
<polygon fill="#63b8ff" stroke="#63b8ff" points="220.06,-158.96 227.69,-166.32 226.31,-155.81 220.06,-158.96"/>
</g>
</g>
</svg>
