<?xml version="1.0" encoding="UTF-8" standalone="no"?>
<!DOCTYPE svg PUBLIC "-//W3C//DTD SVG 1.1//EN"
 "http://www.w3.org/Graphics/SVG/1.1/DTD/svg11.dtd">
<!-- Generated by graphviz version 12.2.0 (20241103.1931)
 -->
<!-- Title: Database::ASqlBackend::updateOrInsert Pages: 1 -->
<svg width="304pt" height="223pt"
 viewBox="0.00 0.00 304.00 222.88" xmlns="http://www.w3.org/2000/svg" xmlns:xlink="http://www.w3.org/1999/xlink">
<g id="graph0" class="graph" transform="scale(1 1) rotate(0) translate(4 218.88)">
<title>Database::ASqlBackend::updateOrInsert</title>
<!-- Node1 -->
<g id="Node000001" class="node">
<title>Node1</title>
<g id="a_Node000001"><a xlink:title="insert data to database or upgrade existing entries.">
<polygon fill="#999999" stroke="#666666" points="296,-128.5 175,-128.5 175,-98 296,-98 296,-128.5"/>
<text text-anchor="start" x="183" y="-115" font-family="Helvetica,sans-Serif" font-size="10.00">Database::ASqlBackend</text>
<text text-anchor="middle" x="235.5" y="-103.75" font-family="Helvetica,sans-Serif" font-size="10.00">::updateOrInsert</text>
</a>
</g>
</g>
<!-- Node2 -->
<g id="Node000002" class="node">
<title>Node2</title>
<g id="a_Node000002"><a xlink:href="../../d5/d1b/class_database_1_1_a_sql_backend.html#a82939c363f70dc3c14243b7d51f1f33a" target="_top" xlink:title="set flag for photo to given value">
<polygon fill="#fff0f0" stroke="red" points="139,-214.88 0,-214.88 0,-195.62 139,-195.62 139,-214.88"/>
<text text-anchor="middle" x="69.5" y="-201.38" font-family="Helvetica,sans-Serif" font-size="10.00">Database::ASqlBackend::set</text>
</a>
</g>
</g>
<!-- Node1&#45;&gt;Node2 -->
<g id="edge1_Node000001_Node000002" class="edge">
<title>Node1&#45;&gt;Node2</title>
<g id="a_edge1_Node000001_Node000002"><a xlink:title=" ">
<path fill="none" stroke="#63b8ff" d="M209.67,-136.52C191.38,-152.54 165.21,-173.21 139,-186.25 131.93,-189.77 124.11,-192.71 116.36,-195.16"/>
<polygon fill="#63b8ff" stroke="#63b8ff" points="211.99,-139.14 217.11,-129.86 207.32,-133.92 211.99,-139.14"/>
</a>
</g>
</g>
<!-- Node5 -->
<g id="Node000005" class="node">
<title>Node5</title>
<g id="a_Node000005"><a xlink:href="../../d5/d1b/class_database_1_1_a_sql_backend.html#a0ff78d8d57a9eae0213f2f837ddfc6b8" target="_top" xlink:title="store photo&#39;s flags">
<polygon fill="#fff0f0" stroke="red" points="130,-177.5 9,-177.5 9,-147 130,-147 130,-177.5"/>
<text text-anchor="start" x="17" y="-164" font-family="Helvetica,sans-Serif" font-size="10.00">Database::ASqlBackend</text>
<text text-anchor="middle" x="69.5" y="-152.75" font-family="Helvetica,sans-Serif" font-size="10.00">::storeFlags</text>
</a>
</g>
</g>
<!-- Node1&#45;&gt;Node5 -->
<g id="edge2_Node000001_Node000005" class="edge">
<title>Node1&#45;&gt;Node5</title>
<g id="a_edge2_Node000001_Node000005"><a xlink:title=" ">
<path fill="none" stroke="#63b8ff" d="M171.34,-132.12C155.43,-136.87 138.52,-141.93 123.19,-146.51"/>
<polygon fill="#63b8ff" stroke="#63b8ff" points="172.13,-135.54 180.71,-129.32 170.12,-128.83 172.13,-135.54"/>
</a>
</g>
</g>
<!-- Node7 -->
<g id="Node000007" class="node">
<title>Node7</title>
<g id="a_Node000007"><a xlink:href="../../d5/d1b/class_database_1_1_a_sql_backend.html#a5e2dade3290d318258ea503ee1e409cc" target="_top" xlink:title="store photo&#39;s dimensions">
<polygon fill="#fff0f0" stroke="red" points="130,-128.5 9,-128.5 9,-98 130,-98 130,-128.5"/>
<text text-anchor="start" x="17" y="-115" font-family="Helvetica,sans-Serif" font-size="10.00">Database::ASqlBackend</text>
<text text-anchor="middle" x="69.5" y="-103.75" font-family="Helvetica,sans-Serif" font-size="10.00">::storeGeometryFor</text>
</a>
</g>
</g>
<!-- Node1&#45;&gt;Node7 -->
<g id="edge3_Node000001_Node000007" class="edge">
<title>Node1&#45;&gt;Node7</title>
<g id="a_edge3_Node000001_Node000007"><a xlink:title=" ">
<path fill="none" stroke="#63b8ff" d="M163.47,-113.25C152.44,-113.25 141.15,-113.25 130.4,-113.25"/>
<polygon fill="#63b8ff" stroke="#63b8ff" points="163.31,-116.75 173.31,-113.25 163.31,-109.75 163.31,-116.75"/>
</a>
</g>
</g>
<!-- Node8 -->
<g id="Node000008" class="node">
<title>Node8</title>
<g id="a_Node000008"><a xlink:href="../../d5/d1b/class_database_1_1_a_sql_backend.html#af67dc95e772d82537f4d0912868ba235" target="_top" xlink:title="store photo&#39;s group details">
<polygon fill="#fff0f0" stroke="red" points="130,-79.5 9,-79.5 9,-49 130,-49 130,-79.5"/>
<text text-anchor="start" x="17" y="-66" font-family="Helvetica,sans-Serif" font-size="10.00">Database::ASqlBackend</text>
<text text-anchor="middle" x="69.5" y="-54.75" font-family="Helvetica,sans-Serif" font-size="10.00">::storeGroup</text>
</a>
</g>
</g>
<!-- Node1&#45;&gt;Node8 -->
<g id="edge4_Node000001_Node000008" class="edge">
<title>Node1&#45;&gt;Node8</title>
<g id="a_edge4_Node000001_Node000008"><a xlink:title=" ">
<path fill="none" stroke="#63b8ff" d="M171.34,-94.38C155.43,-89.63 138.52,-84.57 123.19,-79.99"/>
<polygon fill="#63b8ff" stroke="#63b8ff" points="170.12,-97.67 180.71,-97.18 172.13,-90.96 170.12,-97.67"/>
</a>
</g>
</g>
<!-- Node9 -->
<g id="Node000009" class="node">
<title>Node9</title>
<g id="a_Node000009"><a xlink:href="../../d5/d1b/class_database_1_1_a_sql_backend.html#a23e52466215b03d13e6955a466bc27a1" target="_top" xlink:title="Write blob of type bt.">
<polygon fill="white" stroke="#666666" points="130,-30.5 9,-30.5 9,0 130,0 130,-30.5"/>
<text text-anchor="start" x="17" y="-17" font-family="Helvetica,sans-Serif" font-size="10.00">Database::ASqlBackend</text>
<text text-anchor="middle" x="69.5" y="-5.75" font-family="Helvetica,sans-Serif" font-size="10.00">::writeBlob</text>
</a>
</g>
</g>
<!-- Node1&#45;&gt;Node9 -->
<g id="edge5_Node000001_Node000009" class="edge">
<title>Node1&#45;&gt;Node9</title>
<g id="a_edge5_Node000001_Node000009"><a xlink:title=" ">
<path fill="none" stroke="#63b8ff" d="M208.67,-90.04C190.25,-74.39 164.36,-54.15 139,-40.25 132.78,-36.84 126.01,-33.73 119.22,-30.95"/>
<polygon fill="#63b8ff" stroke="#63b8ff" points="206.32,-92.64 216.18,-96.53 210.9,-87.34 206.32,-92.64"/>
</a>
</g>
</g>
</g>
</svg>
