<?xml version="1.0" encoding="UTF-8" standalone="no"?>
<!DOCTYPE svg PUBLIC "-//W3C//DTD SVG 1.1//EN"
 "http://www.w3.org/Graphics/SVG/1.1/DTD/svg11.dtd">
<!-- Generated by graphviz version 7.0.5 (20221223.1930)
 -->
<!-- Title: Database::ASqlBackend::listTagValues Pages: 1 -->
<svg width="306pt" height="180pt"
 viewBox="0.00 0.00 306.00 179.50" xmlns="http://www.w3.org/2000/svg" xmlns:xlink="http://www.w3.org/1999/xlink">
<g id="graph0" class="graph" transform="scale(1 1) rotate(0) translate(4 175.5)">
<title>Database::ASqlBackend::listTagValues</title>
<!-- Node1 -->
<g id="node1" class="node">
<title>Node1</title>
<g id="a_node1"><a xlink:title="list all values of tag for photos matching provided filter">
<polygon fill="#999999" stroke="#666666" points="122,-88.5 0,-88.5 0,-58.5 122,-58.5 122,-88.5"/>
<text text-anchor="start" x="8" y="-76.5" font-family="Helvetica,sans-Serif" font-size="10.00">Database::ASqlBackend</text>
<text text-anchor="middle" x="61" y="-65.5" font-family="Helvetica,sans-Serif" font-size="10.00">::listTagValues</text>
</a>
</g>
</g>
<!-- Node2 -->
<g id="node2" class="node">
<title>Node2</title>
<g id="a_node2"><a xlink:href="../../d3/d47/class_database_1_1_sql_query_executor.html#a92b20d0dac92b5fa49b9184f8e341a94" target="_top" xlink:title=" ">
<polygon fill="white" stroke="#666666" points="298,-153.5 158,-153.5 158,-123.5 298,-123.5 298,-153.5"/>
<text text-anchor="start" x="166" y="-141.5" font-family="Helvetica,sans-Serif" font-size="10.00">Database::SqlQueryExecutor</text>
<text text-anchor="middle" x="228" y="-130.5" font-family="Helvetica,sans-Serif" font-size="10.00">::exec</text>
</a>
</g>
</g>
<!-- Node1&#45;&gt;Node2 -->
<g id="edge1" class="edge">
<title>Node1&#45;&gt;Node2</title>
<path fill="none" stroke="#63b8ff" d="M96.42,-88.88C114.61,-96.84 137.38,-106.52 158,-114.5 162.08,-116.08 166.3,-117.66 170.57,-119.23"/>
<polygon fill="#63b8ff" stroke="#63b8ff" points="169.17,-122.45 179.76,-122.55 171.54,-115.86 169.17,-122.45"/>
</g>
<!-- Node3 -->
<g id="node3" class="node">
<title>Node3</title>
<g id="a_node3"><a xlink:href="../../df/d7c/class_tag_value.html#a23a09559a3f5de9a89b8a237fc2af081" target="_top" xlink:title=" ">
<polygon fill="#fff0f0" stroke="red" points="278.5,-105 177.5,-105 177.5,-86 278.5,-86 278.5,-105"/>
<text text-anchor="middle" x="228" y="-93" font-family="Helvetica,sans-Serif" font-size="10.00">TagValue::fromRaw</text>
</a>
</g>
</g>
<!-- Node1&#45;&gt;Node3 -->
<g id="edge3" class="edge">
<title>Node1&#45;&gt;Node3</title>
<path fill="none" stroke="#63b8ff" d="M122.04,-81.5C136.29,-83.4 151.5,-85.43 165.81,-87.34"/>
<polygon fill="#63b8ff" stroke="#63b8ff" points="165.17,-90.79 175.54,-88.64 166.09,-83.85 165.17,-90.79"/>
</g>
<!-- Node6 -->
<g id="node4" class="node">
<title>Node6</title>
<g id="a_node4"><a xlink:href="../../d6/d7f/class_database_1_1_sql_filter_query_generator.html#a41b86be1876d22b283d495106b9bcf0c" target="_top" xlink:title=" ">
<polygon fill="#fff0f0" stroke="red" points="290,-67.5 166,-67.5 166,-37.5 290,-37.5 290,-67.5"/>
<text text-anchor="start" x="174" y="-55.5" font-family="Helvetica,sans-Serif" font-size="10.00">Database::SqlFilterQuery</text>
<text text-anchor="middle" x="228" y="-44.5" font-family="Helvetica,sans-Serif" font-size="10.00">Generator::generate</text>
</a>
</g>
</g>
<!-- Node1&#45;&gt;Node6 -->
<g id="edge4" class="edge">
<title>Node1&#45;&gt;Node6</title>
<path fill="none" stroke="#63b8ff" d="M122.04,-65.86C132.57,-64.52 143.63,-63.11 154.46,-61.73"/>
<polygon fill="#63b8ff" stroke="#63b8ff" points="154.64,-65.24 164.12,-60.5 153.76,-58.29 154.64,-65.24"/>
</g>
<!-- Node8 -->
<g id="node5" class="node">
<title>Node8</title>
<g id="a_node5"><a xlink:href="../../de/dd4/class_base_tags.html#a440585d38153e073f47134a7f04e6f5e" target="_top" xlink:title="Get structure describing tag.">
<polygon fill="white" stroke="#666666" points="278,-19 178,-19 178,0 278,0 278,-19"/>
<text text-anchor="middle" x="228" y="-7" font-family="Helvetica,sans-Serif" font-size="10.00">BaseTags::getType</text>
</a>
</g>
</g>
<!-- Node1&#45;&gt;Node8 -->
<g id="edge5" class="edge">
<title>Node1&#45;&gt;Node8</title>
<path fill="none" stroke="#63b8ff" d="M91.28,-58.19C110.02,-48.79 135.03,-36.98 158,-28.5 163.68,-26.4 169.7,-24.42 175.73,-22.57"/>
<polygon fill="#63b8ff" stroke="#63b8ff" points="176.43,-26.01 185.05,-19.84 174.47,-19.29 176.43,-26.01"/>
</g>
<!-- Node2&#45;&gt;Node2 -->
<g id="edge2" class="edge">
<title>Node2&#45;&gt;Node2</title>
<path fill="none" stroke="#63b8ff" d="M198.64,-153.78C192.12,-162.91 201.91,-171.5 228,-171.5 242.27,-171.5 251.66,-168.93 256.18,-165.11"/>
<polygon fill="#63b8ff" stroke="#63b8ff" points="259.65,-165.59 257.2,-155.28 252.68,-164.87 259.65,-165.59"/>
</g>
</g>
</svg>
