<?xml version="1.0" encoding="UTF-8" standalone="no"?>
<!DOCTYPE svg PUBLIC "-//W3C//DTD SVG 1.1//EN"
 "http://www.w3.org/Graphics/SVG/1.1/DTD/svg11.dtd">
<!-- Generated by graphviz version 7.0.5 (20221223.1930)
 -->
<!-- Title: Database::ASqlBackend::ensureTableExists Pages: 1 -->
<svg width="506pt" height="220pt"
 viewBox="0.00 0.00 506.00 220.00" xmlns="http://www.w3.org/2000/svg" xmlns:xlink="http://www.w3.org/1999/xlink">
<g id="graph0" class="graph" transform="scale(1 1) rotate(0) translate(4 216)">
<title>Database::ASqlBackend::ensureTableExists</title>
<!-- Node1 -->
<g id="node1" class="node">
<title>Node1</title>
<g id="a_node1"><a xlink:title="Make sure given table exists in database.">
<polygon fill="#999999" stroke="#666666" points="122,-126 0,-126 0,-96 122,-96 122,-126"/>
<text text-anchor="start" x="8" y="-114" font-family="Helvetica,sans-Serif" font-size="10.00">Database::ASqlBackend</text>
<text text-anchor="middle" x="61" y="-103" font-family="Helvetica,sans-Serif" font-size="10.00">::ensureTableExists</text>
</a>
</g>
</g>
<!-- Node2 -->
<g id="node2" class="node">
<title>Node2</title>
<g id="a_node2"><a xlink:href="../../d5/d1b/class_database_1_1_a_sql_backend.html#af290d7256ff8cb9c611ffded92447aa6" target="_top" xlink:title="prepare sql statement for KEY creation">
<polygon fill="white" stroke="#666666" points="301,-212 179,-212 179,-182 301,-182 301,-212"/>
<text text-anchor="start" x="187" y="-200" font-family="Helvetica,sans-Serif" font-size="10.00">Database::ASqlBackend</text>
<text text-anchor="middle" x="240" y="-189" font-family="Helvetica,sans-Serif" font-size="10.00">::createKey</text>
</a>
</g>
</g>
<!-- Node1&#45;&gt;Node2 -->
<g id="edge1" class="edge">
<title>Node1&#45;&gt;Node2</title>
<path fill="none" stroke="#63b8ff" d="M84.98,-126.35C104.01,-138.64 132.04,-155.79 158,-168 165.17,-171.37 172.84,-174.59 180.5,-177.58"/>
<polygon fill="#63b8ff" stroke="#63b8ff" points="179.26,-180.85 189.85,-181.1 181.72,-174.3 179.26,-180.85"/>
</g>
<!-- Node3 -->
<g id="node3" class="node">
<title>Node3</title>
<g id="a_node3"><a xlink:href="../../d3/d47/class_database_1_1_sql_query_executor.html#a92b20d0dac92b5fa49b9184f8e341a94" target="_top" xlink:title=" ">
<polygon fill="white" stroke="#666666" points="498,-190 358,-190 358,-160 498,-160 498,-190"/>
<text text-anchor="start" x="366" y="-178" font-family="Helvetica,sans-Serif" font-size="10.00">Database::SqlQueryExecutor</text>
<text text-anchor="middle" x="428" y="-167" font-family="Helvetica,sans-Serif" font-size="10.00">::exec</text>
</a>
</g>
</g>
<!-- Node1&#45;&gt;Node3 -->
<g id="edge4" class="edge">
<title>Node1&#45;&gt;Node3</title>
<path fill="none" stroke="#63b8ff" d="M119.92,-126.45C132.43,-129.51 145.62,-132.54 158,-135 220.9,-147.51 292.79,-158.01 346.42,-165.1"/>
<polygon fill="#63b8ff" stroke="#63b8ff" points="345.7,-168.54 356.07,-166.37 346.61,-161.6 345.7,-168.54"/>
</g>
<!-- Node4 -->
<g id="node4" class="node">
<title>Node4</title>
<g id="a_node4"><a xlink:href="../../d5/d1b/class_database_1_1_a_sql_backend.html#a93ae3e2c2134298784344e2fadd09b6e" target="_top" xlink:title="IGenericSqlQueryGenerator accessor.">
<polygon fill="white" stroke="#666666" points="308.5,-126 171.5,-126 171.5,-96 308.5,-96 308.5,-126"/>
<text text-anchor="start" x="179.5" y="-114" font-family="Helvetica,sans-Serif" font-size="10.00">Database::ASqlBackend</text>
<text text-anchor="middle" x="240" y="-103" font-family="Helvetica,sans-Serif" font-size="10.00">::getGenericQueryGenerator</text>
</a>
</g>
</g>
<!-- Node1&#45;&gt;Node4 -->
<g id="edge5" class="edge">
<title>Node1&#45;&gt;Node4</title>
<path fill="none" stroke="#63b8ff" d="M122.42,-111C134.46,-111 147.27,-111 159.83,-111"/>
<polygon fill="#63b8ff" stroke="#63b8ff" points="159.74,-114.5 169.74,-111 159.74,-107.5 159.74,-114.5"/>
</g>
<!-- Node5 -->
<g id="node5" class="node">
<title>Node5</title>
<g id="a_node5"><a xlink:href="../../d1/d71/struct_database_1_1_i_generic_sql_query_generator.html#aa5f11a368757598ccd2fd2314d245b3f" target="_top" xlink:title=" ">
<polygon fill="white" stroke="#666666" points="309.5,-78 170.5,-78 170.5,-48 309.5,-48 309.5,-78"/>
<text text-anchor="start" x="178.5" y="-66" font-family="Helvetica,sans-Serif" font-size="10.00">Database::IGenericSqlQuery</text>
<text text-anchor="middle" x="240" y="-55" font-family="Helvetica,sans-Serif" font-size="10.00">Generator::getTypeFor</text>
</a>
</g>
</g>
<!-- Node1&#45;&gt;Node5 -->
<g id="edge6" class="edge">
<title>Node1&#45;&gt;Node5</title>
<path fill="none" stroke="#63b8ff" d="M118.98,-95.55C135.56,-91.05 153.84,-86.1 171.02,-81.43"/>
<polygon fill="#63b8ff" stroke="#63b8ff" points="171.93,-84.81 180.67,-78.82 170.1,-78.06 171.93,-84.81"/>
</g>
<!-- Node6 -->
<g id="node6" class="node">
<title>Node6</title>
<g id="a_node6"><a xlink:href="../../d1/d71/struct_database_1_1_i_generic_sql_query_generator.html#ae1b62631e873e11fb6d6205fa274453b" target="_top" xlink:title=" ">
<polygon fill="white" stroke="#666666" points="322,-30 158,-30 158,0 322,0 322,-30"/>
<text text-anchor="start" x="166" y="-18" font-family="Helvetica,sans-Serif" font-size="10.00">Database::IGenericSqlQuery</text>
<text text-anchor="middle" x="240" y="-7" font-family="Helvetica,sans-Serif" font-size="10.00">Generator::prepareFindTableQuery</text>
</a>
</g>
</g>
<!-- Node1&#45;&gt;Node6 -->
<g id="edge7" class="edge">
<title>Node1&#45;&gt;Node6</title>
<path fill="none" stroke="#63b8ff" d="M78.46,-95.73C96.66,-79.58 127.47,-54.34 158,-39 161.11,-37.44 164.34,-35.96 167.64,-34.56"/>
<polygon fill="#63b8ff" stroke="#63b8ff" points="168.91,-37.82 176.95,-30.92 166.36,-31.3 168.91,-37.82"/>
</g>
<!-- Node2&#45;&gt;Node3 -->
<g id="edge2" class="edge">
<title>Node2&#45;&gt;Node3</title>
<path fill="none" stroke="#63b8ff" d="M301.39,-189.86C315.67,-188.17 331.14,-186.34 346.16,-184.56"/>
<polygon fill="#63b8ff" stroke="#63b8ff" points="346.52,-188.04 356.04,-183.39 345.7,-181.09 346.52,-188.04"/>
</g>
<!-- Node3&#45;&gt;Node3 -->
<g id="edge3" class="edge">
<title>Node3&#45;&gt;Node3</title>
<path fill="none" stroke="#63b8ff" d="M394.95,-190.28C387.61,-199.41 398.62,-208 428,-208 444.06,-208 454.64,-205.43 459.72,-201.61"/>
<polygon fill="#63b8ff" stroke="#63b8ff" points="463.19,-202.12 460.87,-191.78 456.23,-201.3 463.19,-202.12"/>
</g>
</g>
</svg>
