<?xml version="1.0" encoding="UTF-8" standalone="no"?>
<!DOCTYPE svg PUBLIC "-//W3C//DTD SVG 1.1//EN"
 "http://www.w3.org/Graphics/SVG/1.1/DTD/svg11.dtd">
<!-- Generated by graphviz version 9.0.0 (20230911.1827)
 -->
<!-- Title: Database::ASqlBackend::ensureTableExists Pages: 1 -->
<svg width="504pt" height="223pt"
 viewBox="0.00 0.00 503.75 222.50" xmlns="http://www.w3.org/2000/svg" xmlns:xlink="http://www.w3.org/1999/xlink">
<g id="graph0" class="graph" transform="scale(1 1) rotate(0) translate(4 218.5)">
<title>Database::ASqlBackend::ensureTableExists</title>
<!-- Node1 -->
<g id="Node000001" class="node">
<title>Node1</title>
<g id="a_Node000001"><a xlink:title="Make sure given table exists in database.">
<polygon fill="#999999" stroke="#666666" points="121,-128.5 0,-128.5 0,-98 121,-98 121,-128.5"/>
<text text-anchor="start" x="8" y="-115" font-family="Helvetica,sans-Serif" font-size="10.00">Database::ASqlBackend</text>
<text text-anchor="middle" x="60.5" y="-103.75" font-family="Helvetica,sans-Serif" font-size="10.00">::ensureTableExists</text>
</a>
</g>
</g>
<!-- Node2 -->
<g id="Node000002" class="node">
<title>Node2</title>
<g id="a_Node000002"><a xlink:href="../../d5/d1b/class_database_1_1_a_sql_backend.html#af290d7256ff8cb9c611ffded92447aa6" target="_top" xlink:title="prepare sql statement for KEY creation">
<polygon fill="white" stroke="#666666" points="299.38,-214.5 178.38,-214.5 178.38,-184 299.38,-184 299.38,-214.5"/>
<text text-anchor="start" x="186.38" y="-201" font-family="Helvetica,sans-Serif" font-size="10.00">Database::ASqlBackend</text>
<text text-anchor="middle" x="238.88" y="-189.75" font-family="Helvetica,sans-Serif" font-size="10.00">::createKey</text>
</a>
</g>
</g>
<!-- Node1&#45;&gt;Node2 -->
<g id="edge1_Node000001_Node000002" class="edge">
<title>Node1&#45;&gt;Node2</title>
<g id="a_edge1_Node000001_Node000002"><a xlink:title=" ">
<path fill="none" stroke="#63b8ff" d="M84.74,-128.86C103.66,-141.13 131.33,-158.13 157,-170.25 163.89,-173.5 171.24,-176.61 178.61,-179.5"/>
<polygon fill="#63b8ff" stroke="#63b8ff" points="177.35,-182.77 187.94,-183.04 179.83,-176.22 177.35,-182.77"/>
</a>
</g>
</g>
<!-- Node3 -->
<g id="Node000003" class="node">
<title>Node3</title>
<g id="a_Node000003"><a xlink:href="../../d3/d47/class_database_1_1_sql_query_executor.html#a92b20d0dac92b5fa49b9184f8e341a94" target="_top" xlink:title=" ">
<polygon fill="white" stroke="#666666" points="495.75,-192.5 356.75,-192.5 356.75,-162 495.75,-162 495.75,-192.5"/>
<text text-anchor="start" x="364.75" y="-179" font-family="Helvetica,sans-Serif" font-size="10.00">Database::SqlQueryExecutor</text>
<text text-anchor="middle" x="426.25" y="-167.75" font-family="Helvetica,sans-Serif" font-size="10.00">::exec</text>
</a>
</g>
</g>
<!-- Node1&#45;&gt;Node3 -->
<g id="edge4_Node000001_Node000003" class="edge">
<title>Node1&#45;&gt;Node3</title>
<g id="a_edge4_Node000001_Node000003"><a xlink:title=" ">
<path fill="none" stroke="#63b8ff" d="M120.13,-128.95C132.27,-131.93 145.01,-134.86 157,-137.25 219.83,-149.8 291.65,-160.31 345.16,-167.4"/>
<polygon fill="#63b8ff" stroke="#63b8ff" points="344.42,-170.83 354.79,-168.66 345.33,-163.89 344.42,-170.83"/>
</a>
</g>
</g>
<!-- Node4 -->
<g id="Node000004" class="node">
<title>Node4</title>
<g id="a_Node000004"><a xlink:href="../../d5/d1b/class_database_1_1_a_sql_backend.html#a93ae3e2c2134298784344e2fadd09b6e" target="_top" xlink:title="IGenericSqlQueryGenerator accessor.">
<polygon fill="white" stroke="#666666" points="306.88,-128.5 170.88,-128.5 170.88,-98 306.88,-98 306.88,-128.5"/>
<text text-anchor="start" x="178.88" y="-115" font-family="Helvetica,sans-Serif" font-size="10.00">Database::ASqlBackend</text>
<text text-anchor="middle" x="238.88" y="-103.75" font-family="Helvetica,sans-Serif" font-size="10.00">::getGenericQueryGenerator</text>
</a>
</g>
</g>
<!-- Node1&#45;&gt;Node4 -->
<g id="edge5_Node000001_Node000004" class="edge">
<title>Node1&#45;&gt;Node4</title>
<g id="a_edge5_Node000001_Node000004"><a xlink:title=" ">
<path fill="none" stroke="#63b8ff" d="M121.21,-113.25C133.5,-113.25 146.62,-113.25 159.46,-113.25"/>
<polygon fill="#63b8ff" stroke="#63b8ff" points="159.12,-116.75 169.12,-113.25 159.12,-109.75 159.12,-116.75"/>
</a>
</g>
</g>
<!-- Node5 -->
<g id="Node000005" class="node">
<title>Node5</title>
<g id="a_Node000005"><a xlink:href="../../d1/d71/struct_database_1_1_i_generic_sql_query_generator.html#aa5f11a368757598ccd2fd2314d245b3f" target="_top" xlink:title=" ">
<polygon fill="white" stroke="#666666" points="308,-79.5 169.75,-79.5 169.75,-49 308,-49 308,-79.5"/>
<text text-anchor="start" x="177.75" y="-66" font-family="Helvetica,sans-Serif" font-size="10.00">Database::IGenericSqlQuery</text>
<text text-anchor="middle" x="238.88" y="-54.75" font-family="Helvetica,sans-Serif" font-size="10.00">Generator::getTypeFor</text>
</a>
</g>
</g>
<!-- Node1&#45;&gt;Node5 -->
<g id="edge6_Node000001_Node000005" class="edge">
<title>Node1&#45;&gt;Node5</title>
<g id="a_edge6_Node000001_Node000005"><a xlink:title=" ">
<path fill="none" stroke="#63b8ff" d="M117.79,-97.61C134.57,-92.95 153.13,-87.79 170.55,-82.96"/>
<polygon fill="#63b8ff" stroke="#63b8ff" points="171.05,-86.45 179.75,-80.4 169.18,-79.7 171.05,-86.45"/>
</a>
</g>
</g>
<!-- Node6 -->
<g id="Node000006" class="node">
<title>Node6</title>
<g id="a_Node000006"><a xlink:href="../../d1/d71/struct_database_1_1_i_generic_sql_query_generator.html#ae1b62631e873e11fb6d6205fa274453b" target="_top" xlink:title=" ">
<polygon fill="white" stroke="#666666" points="320.75,-30.5 157,-30.5 157,0 320.75,0 320.75,-30.5"/>
<text text-anchor="start" x="165" y="-17" font-family="Helvetica,sans-Serif" font-size="10.00">Database::IGenericSqlQuery</text>
<text text-anchor="middle" x="238.88" y="-5.75" font-family="Helvetica,sans-Serif" font-size="10.00">Generator::prepareFindTableQuery</text>
</a>
</g>
</g>
<!-- Node1&#45;&gt;Node6 -->
<g id="edge7_Node000001_Node000006" class="edge">
<title>Node1&#45;&gt;Node6</title>
<g id="a_edge7_Node000001_Node000006"><a xlink:title=" ">
<path fill="none" stroke="#63b8ff" d="M78.18,-97.52C96.32,-81.18 126.77,-55.84 157,-40.25 160.5,-38.44 164.16,-36.74 167.9,-35.14"/>
<polygon fill="#63b8ff" stroke="#63b8ff" points="169.18,-38.4 177.19,-31.46 166.6,-31.89 169.18,-38.4"/>
</a>
</g>
</g>
<!-- Node2&#45;&gt;Node3 -->
<g id="edge2_Node000002_Node000003" class="edge">
<title>Node2&#45;&gt;Node3</title>
<g id="a_edge2_Node000002_Node000003"><a xlink:title=" ">
<path fill="none" stroke="#63b8ff" d="M299.8,-192.14C314.36,-190.41 330.15,-188.54 345.47,-186.72"/>
<polygon fill="#63b8ff" stroke="#63b8ff" points="345.49,-190.24 355,-185.59 344.66,-183.29 345.49,-190.24"/>
</a>
</g>
</g>
<!-- Node3&#45;&gt;Node3 -->
<g id="edge3_Node000003_Node000003" class="edge">
<title>Node3&#45;&gt;Node3</title>
<g id="a_edge3_Node000003_Node000003"><a xlink:title=" ">
<path fill="none" stroke="#63b8ff" d="M393.05,-192.99C386.27,-202.06 397.34,-210.5 426.25,-210.5 442.06,-210.5 452.54,-207.97 457.67,-204.2"/>
<polygon fill="#63b8ff" stroke="#63b8ff" points="461.11,-204.91 459.22,-194.48 454.19,-203.81 461.11,-204.91"/>
</a>
</g>
</g>
</g>
</svg>
