<?xml version="1.0" encoding="UTF-8" standalone="no"?>
<!DOCTYPE svg PUBLIC "-//W3C//DTD SVG 1.1//EN"
 "http://www.w3.org/Graphics/SVG/1.1/DTD/svg11.dtd">
<!-- Generated by graphviz version 7.0.5 (20221223.1930)
 -->
<!-- Title: Database::ASqlBackend::init Pages: 1 -->
<svg width="458pt" height="280pt"
 viewBox="0.00 0.00 458.00 280.00" xmlns="http://www.w3.org/2000/svg" xmlns:xlink="http://www.w3.org/1999/xlink">
<g id="graph0" class="graph" transform="scale(1 1) rotate(0) translate(4 276)">
<title>Database::ASqlBackend::init</title>
<!-- Node1 -->
<g id="node1" class="node">
<title>Node1</title>
<g id="a_node1"><a xlink:title="initialize database connection">
<polygon fill="#999999" stroke="#666666" points="122,-158.5 0,-158.5 0,-128.5 122,-128.5 122,-158.5"/>
<text text-anchor="start" x="8" y="-146.5" font-family="Helvetica,sans-Serif" font-size="10.00">Database::ASqlBackend</text>
<text text-anchor="middle" x="61" y="-135.5" font-family="Helvetica,sans-Serif" font-size="10.00">::init</text>
</a>
</g>
</g>
<!-- Node2 -->
<g id="node2" class="node">
<title>Node2</title>
<g id="a_node2"><a xlink:href="../../d5/d1b/class_database_1_1_a_sql_backend.html#ad00a7bed2c2268620552f6c1a64616f5" target="_top" xlink:title="validate database consistency">
<polygon fill="#fff0f0" stroke="red" points="298,-201.5 176,-201.5 176,-171.5 298,-171.5 298,-201.5"/>
<text text-anchor="start" x="184" y="-189.5" font-family="Helvetica,sans-Serif" font-size="10.00">Database::ASqlBackend</text>
<text text-anchor="middle" x="237" y="-178.5" font-family="Helvetica,sans-Serif" font-size="10.00">::checkStructure</text>
</a>
</g>
</g>
<!-- Node1&#45;&gt;Node2 -->
<g id="edge1" class="edge">
<title>Node1&#45;&gt;Node2</title>
<path fill="none" stroke="#63b8ff" d="M122.37,-158.42C136,-161.79 150.6,-165.39 164.63,-168.86"/>
<polygon fill="#63b8ff" stroke="#63b8ff" points="163.72,-172.24 174.27,-171.24 165.4,-165.45 163.72,-172.24"/>
</g>
<!-- Node10 -->
<g id="node3" class="node">
<title>Node10</title>
<g id="a_node3"><a xlink:href="../../da/d2a/ibackend_8hpp.html#ac6fb985b87586bc7d7e15bfbef46f893" target="_top" xlink:title=" ">
<polygon fill="white" stroke="#666666" points="444,-272 358,-272 358,-253 444,-253 444,-272"/>
<text text-anchor="middle" x="401" y="-260" font-family="Helvetica,sans-Serif" font-size="10.00">DbErrorOnFalse</text>
</a>
</g>
</g>
<!-- Node1&#45;&gt;Node10 -->
<g id="edge5" class="edge">
<title>Node1&#45;&gt;Node10</title>
<path fill="none" stroke="#63b8ff" d="M73.36,-158.85C89.6,-179.48 121.53,-215.53 158,-232.5 218.18,-260.5 295.42,-265.46 346.25,-265.09"/>
<polygon fill="#63b8ff" stroke="#63b8ff" points="346.17,-268.59 356.11,-264.94 346.06,-261.59 346.17,-268.59"/>
</g>
<!-- Node14 -->
<g id="node4" class="node">
<title>Node14</title>
<g id="a_node4"><a xlink:href="../../d5/dcf/class_database_1_1db__error.html#a01059edea5c37cbd55061b53744f4c65" target="_top" xlink:title=" ">
<polygon fill="white" stroke="#666666" points="450,-230.5 352,-230.5 352,-200.5 450,-200.5 450,-230.5"/>
<text text-anchor="start" x="360" y="-218.5" font-family="Helvetica,sans-Serif" font-size="10.00">Database::db_error</text>
<text text-anchor="middle" x="401" y="-207.5" font-family="Helvetica,sans-Serif" font-size="10.00">::status</text>
</a>
</g>
</g>
<!-- Node1&#45;&gt;Node14 -->
<g id="edge9" class="edge">
<title>Node1&#45;&gt;Node14</title>
<path fill="none" stroke="#63b8ff" d="M77.68,-158.94C95.45,-175.28 126.11,-200.11 158,-210.5 217.86,-230.01 290.55,-228.39 340.54,-223.7"/>
<polygon fill="#63b8ff" stroke="#63b8ff" points="340.7,-227.2 350.29,-222.71 339.99,-220.24 340.7,-227.2"/>
</g>
<!-- Node15 -->
<g id="node5" class="node">
<title>Node15</title>
<g id="a_node5"><a xlink:href="../../d5/dcf/class_database_1_1db__error.html#aaf317da7aa6d7286bba22edbdecd747a" target="_top" xlink:title=" ">
<polygon fill="white" stroke="#666666" points="450,-174.5 352,-174.5 352,-144.5 450,-144.5 450,-174.5"/>
<text text-anchor="start" x="360" y="-162.5" font-family="Helvetica,sans-Serif" font-size="10.00">Database::db_error</text>
<text text-anchor="middle" x="401" y="-151.5" font-family="Helvetica,sans-Serif" font-size="10.00">::what</text>
</a>
</g>
</g>
<!-- Node1&#45;&gt;Node15 -->
<g id="edge10" class="edge">
<title>Node1&#45;&gt;Node15</title>
<path fill="none" stroke="#63b8ff" d="M122.43,-146.36C183.97,-149.27 278.83,-153.76 340.16,-156.67"/>
<polygon fill="#63b8ff" stroke="#63b8ff" points="339.92,-160.16 350.07,-157.14 340.25,-153.17 339.92,-160.16"/>
</g>
<!-- Node16 -->
<g id="node6" class="node">
<title>Node16</title>
<g id="a_node6"><a xlink:href="../../d5/d1b/class_database_1_1_a_sql_backend.html#a74b8c5afc2f2d002f98cb47a6b5c183c" target="_top" xlink:title="called when DB was opened.">
<polygon fill="white" stroke="#666666" points="298,-115.5 176,-115.5 176,-85.5 298,-85.5 298,-115.5"/>
<text text-anchor="start" x="184" y="-103.5" font-family="Helvetica,sans-Serif" font-size="10.00">Database::ASqlBackend</text>
<text text-anchor="middle" x="237" y="-92.5" font-family="Helvetica,sans-Serif" font-size="10.00">::dbOpened</text>
</a>
</g>
</g>
<!-- Node1&#45;&gt;Node16 -->
<g id="edge6" class="edge">
<title>Node1&#45;&gt;Node16</title>
<path fill="none" stroke="#63b8ff" d="M122.37,-128.58C136,-125.21 150.6,-121.61 164.63,-118.14"/>
<polygon fill="#63b8ff" stroke="#63b8ff" points="165.4,-121.55 174.27,-115.76 163.72,-114.76 165.4,-121.55"/>
</g>
<!-- Node17 -->
<g id="node7" class="node">
<title>Node17</title>
<g id="a_node7"><a xlink:href="../../d5/d1b/class_database_1_1_a_sql_backend.html#afb2eae3bcae50730d7505d0dc44abec5" target="_top" xlink:title="database preparation">
<polygon fill="white" stroke="#666666" points="298,-67.5 176,-67.5 176,-37.5 298,-37.5 298,-67.5"/>
<text text-anchor="start" x="184" y="-55.5" font-family="Helvetica,sans-Serif" font-size="10.00">Database::ASqlBackend</text>
<text text-anchor="middle" x="237" y="-44.5" font-family="Helvetica,sans-Serif" font-size="10.00">::prepareDB</text>
</a>
</g>
</g>
<!-- Node1&#45;&gt;Node17 -->
<g id="edge7" class="edge">
<title>Node1&#45;&gt;Node17</title>
<path fill="none" stroke="#63b8ff" d="M80.39,-128.04C98.96,-113.08 128.96,-90.67 158,-76.5 161.25,-74.92 164.62,-73.41 168.06,-71.98"/>
<polygon fill="#63b8ff" stroke="#63b8ff" points="169.07,-75.34 177.13,-68.47 166.55,-68.82 169.07,-75.34"/>
</g>
<!-- Node18 -->
<g id="node8" class="node">
<title>Node18</title>
<g id="a_node8"><a xlink:href="../../d3/d47/class_database_1_1_sql_query_executor.html#a6f273a223d8ada6b8ccb9ea37825aced" target="_top" xlink:title=" ">
<polygon fill="white" stroke="#666666" points="316,-19 158,-19 158,0 316,0 316,-19"/>
<text text-anchor="middle" x="237" y="-7" font-family="Helvetica,sans-Serif" font-size="10.00">Database::SqlQueryExecutor::set</text>
</a>
</g>
</g>
<!-- Node1&#45;&gt;Node18 -->
<g id="edge8" class="edge">
<title>Node1&#45;&gt;Node18</title>
<path fill="none" stroke="#63b8ff" d="M70.4,-128.14C84.87,-103.19 116.94,-54.08 158,-28.5 160.77,-26.77 163.69,-25.2 166.71,-23.78"/>
<polygon fill="#63b8ff" stroke="#63b8ff" points="167.93,-27.06 175.85,-20.03 165.27,-20.58 167.93,-27.06"/>
</g>
<!-- Node2&#45;&gt;Node10 -->
<g id="edge2" class="edge">
<title>Node2&#45;&gt;Node10</title>
<path fill="none" stroke="#63b8ff" d="M270.78,-201.88C299.48,-215.34 340.86,-234.76 369.01,-247.96"/>
<polygon fill="#63b8ff" stroke="#63b8ff" points="367.19,-250.97 377.73,-252.05 370.16,-244.63 367.19,-250.97"/>
</g>
<!-- Node2&#45;&gt;Node14 -->
<g id="edge3" class="edge">
<title>Node2&#45;&gt;Node14</title>
<path fill="none" stroke="#63b8ff" d="M298.32,-197.3C312.03,-199.75 326.58,-202.36 340.26,-204.81"/>
<polygon fill="#63b8ff" stroke="#63b8ff" points="339.56,-208.24 350.02,-206.55 340.79,-201.35 339.56,-208.24"/>
</g>
<!-- Node2&#45;&gt;Node15 -->
<g id="edge4" class="edge">
<title>Node2&#45;&gt;Node15</title>
<path fill="none" stroke="#63b8ff" d="M298.32,-176.45C312.03,-174.16 326.58,-171.74 340.26,-169.46"/>
<polygon fill="#63b8ff" stroke="#63b8ff" points="340.73,-172.93 350.01,-167.83 339.58,-166.02 340.73,-172.93"/>
</g>
</g>
</svg>
