<?xml version="1.0" encoding="UTF-8" standalone="no"?>
<!DOCTYPE svg PUBLIC "-//W3C//DTD SVG 1.1//EN"
 "http://www.w3.org/Graphics/SVG/1.1/DTD/svg11.dtd">
<!-- Generated by graphviz version 7.0.5 (20221223.1930)
 -->
<!-- Title: Database::ASqlBackend::get Pages: 1 -->
<svg width="324pt" height="56pt"
 viewBox="0.00 0.00 324.00 56.00" xmlns="http://www.w3.org/2000/svg" xmlns:xlink="http://www.w3.org/1999/xlink">
<g id="graph0" class="graph" transform="scale(1 1) rotate(0) translate(4 52)">
<title>Database::ASqlBackend::get</title>
<!-- Node1 -->
<g id="node1" class="node">
<title>Node1</title>
<g id="a_node1"><a xlink:title="get flag value">
<polygon fill="#999999" stroke="#666666" points="140,-24.5 0,-24.5 0,-5.5 140,-5.5 140,-24.5"/>
<text text-anchor="middle" x="70" y="-12.5" font-family="Helvetica,sans-Serif" font-size="10.00">Database::ASqlBackend::get</text>
</a>
</g>
</g>
<!-- Node2 -->
<g id="node2" class="node">
<title>Node2</title>
<g id="a_node2"><a xlink:href="../../d3/d47/class_database_1_1_sql_query_executor.html#a92b20d0dac92b5fa49b9184f8e341a94" target="_top" xlink:title=" ">
<polygon fill="white" stroke="#666666" points="316,-30 176,-30 176,0 316,0 316,-30"/>
<text text-anchor="start" x="184" y="-18" font-family="Helvetica,sans-Serif" font-size="10.00">Database::SqlQueryExecutor</text>
<text text-anchor="middle" x="246" y="-7" font-family="Helvetica,sans-Serif" font-size="10.00">::exec</text>
</a>
</g>
</g>
<!-- Node1&#45;&gt;Node2 -->
<g id="edge1" class="edge">
<title>Node1&#45;&gt;Node2</title>
<path fill="none" stroke="#63b8ff" d="M140.27,-15C148.19,-15 156.32,-15 164.38,-15"/>
<polygon fill="#63b8ff" stroke="#63b8ff" points="164.17,-18.5 174.17,-15 164.17,-11.5 164.17,-18.5"/>
</g>
<!-- Node2&#45;&gt;Node2 -->
<g id="edge2" class="edge">
<title>Node2&#45;&gt;Node2</title>
<path fill="none" stroke="#63b8ff" d="M215.06,-30.28C208.19,-39.41 218.5,-48 246,-48 261.04,-48 270.94,-45.43 275.7,-41.61"/>
<polygon fill="#63b8ff" stroke="#63b8ff" points="279.16,-42.1 276.77,-31.78 272.2,-41.34 279.16,-42.1"/>
</g>
</g>
</svg>
