<?xml version="1.0" encoding="UTF-8" standalone="no"?>
<!DOCTYPE svg PUBLIC "-//W3C//DTD SVG 1.1//EN"
 "http://www.w3.org/Graphics/SVG/1.1/DTD/svg11.dtd">
<!-- Generated by graphviz version 9.0.0 (20230911.1827)
 -->
<!-- Title: Database::ASqlBackend::getPhotoDelta Pages: 1 -->
<svg width="304pt" height="468pt"
 viewBox="0.00 0.00 304.00 467.50" xmlns="http://www.w3.org/2000/svg" xmlns:xlink="http://www.w3.org/1999/xlink">
<g id="graph0" class="graph" transform="scale(1 1) rotate(0) translate(4 463.5)">
<title>Database::ASqlBackend::getPhotoDelta</title>
<!-- Node1 -->
<g id="Node000001" class="node">
<title>Node1</title>
<g id="a_Node000001"><a xlink:title="fetch photo data">
<polygon fill="#999999" stroke="#666666" points="121,-238.5 0,-238.5 0,-208 121,-208 121,-238.5"/>
<text text-anchor="start" x="8" y="-225" font-family="Helvetica,sans-Serif" font-size="10.00">Database::ASqlBackend</text>
<text text-anchor="middle" x="60.5" y="-213.75" font-family="Helvetica,sans-Serif" font-size="10.00">::getPhotoDelta</text>
</a>
</g>
</g>
<!-- Node2 -->
<g id="Node000002" class="node">
<title>Node2</title>
<g id="a_Node000002"><a xlink:href="../../d5/d1b/class_database_1_1_a_sql_backend.html#a9fa3a0d6b981521fe6d75b116da62fed" target="_top" xlink:title="check if">
<polygon fill="#fff0f0" stroke="red" points="287,-459.5 166,-459.5 166,-429 287,-429 287,-459.5"/>
<text text-anchor="start" x="174" y="-446" font-family="Helvetica,sans-Serif" font-size="10.00">Database::ASqlBackend</text>
<text text-anchor="middle" x="226.5" y="-434.75" font-family="Helvetica,sans-Serif" font-size="10.00">::doesPhotoExist</text>
</a>
</g>
</g>
<!-- Node1&#45;&gt;Node2 -->
<g id="edge1_Node000001_Node000002" class="edge">
<title>Node1&#45;&gt;Node2</title>
<g id="a_edge1_Node000001_Node000002"><a xlink:title=" ">
<path fill="none" stroke="#63b8ff" d="M64.87,-238.9C73.58,-275.62 100.21,-368.05 157,-419.25 158.23,-420.36 159.52,-421.43 160.85,-422.44"/>
<polygon fill="#63b8ff" stroke="#63b8ff" points="158.64,-425.18 168.94,-427.69 162.45,-419.31 158.64,-425.18"/>
</a>
</g>
</g>
<!-- Node6 -->
<g id="Node000006" class="node">
<title>Node6</title>
<g id="a_Node000006"><a xlink:href="../../d5/d1b/class_database_1_1_a_sql_backend.html#abcf031def9563be78611d22e14e94f6f" target="_top" xlink:title="read flags for photo">
<polygon fill="#fff0f0" stroke="red" points="287,-410.5 166,-410.5 166,-380 287,-380 287,-410.5"/>
<text text-anchor="start" x="174" y="-397" font-family="Helvetica,sans-Serif" font-size="10.00">Database::ASqlBackend</text>
<text text-anchor="middle" x="226.5" y="-385.75" font-family="Helvetica,sans-Serif" font-size="10.00">::getFlagsFor</text>
</a>
</g>
</g>
<!-- Node1&#45;&gt;Node6 -->
<g id="edge2_Node000001_Node000006" class="edge">
<title>Node1&#45;&gt;Node6</title>
<g id="a_edge2_Node000001_Node000006"><a xlink:title=" ">
<path fill="none" stroke="#63b8ff" d="M67.65,-238.93C80.1,-268.69 111.04,-333.67 157,-370.25 158.53,-371.47 160.13,-372.63 161.78,-373.74"/>
<polygon fill="#63b8ff" stroke="#63b8ff" points="159.98,-376.75 170.38,-378.76 163.51,-370.7 159.98,-376.75"/>
</a>
</g>
</g>
<!-- Node7 -->
<g id="Node000007" class="node">
<title>Node7</title>
<g id="a_Node000007"><a xlink:href="../../d5/d1b/class_database_1_1_a_sql_backend.html#ac3dff9d69e5311d8e5ac7090c42225f5" target="_top" xlink:title="read photo&#39;s geometry">
<polygon fill="#fff0f0" stroke="red" points="287,-361.5 166,-361.5 166,-331 287,-331 287,-361.5"/>
<text text-anchor="start" x="174" y="-348" font-family="Helvetica,sans-Serif" font-size="10.00">Database::ASqlBackend</text>
<text text-anchor="middle" x="226.5" y="-336.75" font-family="Helvetica,sans-Serif" font-size="10.00">::getGeometryFor</text>
</a>
</g>
</g>
<!-- Node1&#45;&gt;Node7 -->
<g id="edge3_Node000001_Node000007" class="edge">
<title>Node1&#45;&gt;Node7</title>
<g id="a_edge3_Node000001_Node000007"><a xlink:title=" ">
<path fill="none" stroke="#63b8ff" d="M73.08,-238.96C89.56,-260.31 121.69,-298.41 157,-321.25 159.37,-322.78 161.85,-324.24 164.4,-325.62"/>
<polygon fill="#63b8ff" stroke="#63b8ff" points="162.62,-328.65 173.14,-329.91 165.71,-322.36 162.62,-328.65"/>
</a>
</g>
</g>
<!-- Node8 -->
<g id="Node000008" class="node">
<title>Node8</title>
<g id="a_Node000008"><a xlink:href="../../d5/d1b/class_database_1_1_a_sql_backend.html#a8f9836cdac088f4b01cd62b51926a2a0" target="_top" xlink:title="read details about group">
<polygon fill="#fff0f0" stroke="red" points="287,-312.5 166,-312.5 166,-282 287,-282 287,-312.5"/>
<text text-anchor="start" x="174" y="-299" font-family="Helvetica,sans-Serif" font-size="10.00">Database::ASqlBackend</text>
<text text-anchor="middle" x="226.5" y="-287.75" font-family="Helvetica,sans-Serif" font-size="10.00">::getGroupFor</text>
</a>
</g>
</g>
<!-- Node1&#45;&gt;Node8 -->
<g id="edge4_Node000001_Node000008" class="edge">
<title>Node1&#45;&gt;Node8</title>
<g id="a_edge4_Node000001_Node000008"><a xlink:title=" ">
<path fill="none" stroke="#63b8ff" d="M89.89,-238.99C108.65,-249.1 133.95,-262.18 157,-272.25 161.06,-274.02 165.29,-275.78 169.57,-277.49"/>
<polygon fill="#63b8ff" stroke="#63b8ff" points="168.23,-280.73 178.82,-281.08 170.77,-274.2 168.23,-280.73"/>
</a>
</g>
</g>
<!-- Node9 -->
<g id="Node000009" class="node">
<title>Node9</title>
<g id="a_Node000009"><a xlink:href="../../d5/d1b/class_database_1_1_a_sql_backend.html#ad882d8655cd694ff0ba4967c30f36fcf" target="_top" xlink:title="read photo path">
<polygon fill="#fff0f0" stroke="red" points="287,-263.5 166,-263.5 166,-233 287,-233 287,-263.5"/>
<text text-anchor="start" x="174" y="-250" font-family="Helvetica,sans-Serif" font-size="10.00">Database::ASqlBackend</text>
<text text-anchor="middle" x="226.5" y="-238.75" font-family="Helvetica,sans-Serif" font-size="10.00">::getPathFor</text>
</a>
</g>
</g>
<!-- Node1&#45;&gt;Node9 -->
<g id="edge5_Node000001_Node000009" class="edge">
<title>Node1&#45;&gt;Node9</title>
<g id="a_edge5_Node000001_Node000009"><a xlink:title=" ">
<path fill="none" stroke="#63b8ff" d="M121.17,-232.35C131.91,-233.98 143.2,-235.7 154.23,-237.39"/>
<polygon fill="#63b8ff" stroke="#63b8ff" points="153.69,-240.84 164.1,-238.89 154.74,-233.92 153.69,-240.84"/>
</a>
</g>
</g>
<!-- Node10 -->
<g id="Node000010" class="node">
<title>Node10</title>
<g id="a_Node000010"><a xlink:href="../../da/dd9/class_database_1_1_photo_operator.html#afb2efaf2200feb697c51bf35dad19e3d" target="_top" xlink:title=" ">
<polygon fill="#fff0f0" stroke="red" points="288.88,-214.5 164.12,-214.5 164.12,-184 288.88,-184 288.88,-214.5"/>
<text text-anchor="start" x="172.12" y="-201" font-family="Helvetica,sans-Serif" font-size="10.00">Database::PhotoOperator</text>
<text text-anchor="middle" x="226.5" y="-189.75" font-family="Helvetica,sans-Serif" font-size="10.00">::getPHash</text>
</a>
</g>
</g>
<!-- Node1&#45;&gt;Node10 -->
<g id="edge6_Node000001_Node000010" class="edge">
<title>Node1&#45;&gt;Node10</title>
<g id="a_edge6_Node000001_Node000010"><a xlink:title=" ">
<path fill="none" stroke="#63b8ff" d="M121.17,-214.52C131.33,-213.03 141.98,-211.47 152.43,-209.94"/>
<polygon fill="#63b8ff" stroke="#63b8ff" points="152.78,-213.43 162.17,-208.52 151.77,-206.5 152.78,-213.43"/>
</a>
</g>
</g>
<!-- Node12 -->
<g id="Node000012" class="node">
<title>Node12</title>
<g id="a_Node000012"><a xlink:href="../../d5/d1b/class_database_1_1_a_sql_backend.html#adcb6eb7ac6bcd49815d7b7e0f670c602" target="_top" xlink:title="get all tags assigned to photo">
<polygon fill="#fff0f0" stroke="red" points="287,-165.5 166,-165.5 166,-135 287,-135 287,-165.5"/>
<text text-anchor="start" x="174" y="-152" font-family="Helvetica,sans-Serif" font-size="10.00">Database::ASqlBackend</text>
<text text-anchor="middle" x="226.5" y="-140.75" font-family="Helvetica,sans-Serif" font-size="10.00">::getTagsFor</text>
</a>
</g>
</g>
<!-- Node1&#45;&gt;Node12 -->
<g id="edge7_Node000001_Node000012" class="edge">
<title>Node1&#45;&gt;Node12</title>
<g id="a_edge7_Node000001_Node000012"><a xlink:title=" ">
<path fill="none" stroke="#63b8ff" d="M90.34,-207.66C109.08,-197.8 134.17,-185.11 157,-175.25 161.07,-173.49 165.3,-171.75 169.58,-170.05"/>
<polygon fill="#63b8ff" stroke="#63b8ff" points="170.78,-173.34 178.84,-166.47 168.25,-166.81 170.78,-173.34"/>
</a>
</g>
</g>
<!-- Node19 -->
<g id="Node000019" class="node">
<title>Node19</title>
<g id="a_Node000019"><a xlink:href="../../d7/d1e/class_photo_1_1_data_delta.html#a4e20dab36867e0c89032b534c963029f" target="_top" xlink:title=" ">
<polygon fill="white" stroke="#666666" points="285.12,-116.88 167.88,-116.88 167.88,-97.62 285.12,-97.62 285.12,-116.88"/>
<text text-anchor="middle" x="226.5" y="-103.38" font-family="Helvetica,sans-Serif" font-size="10.00">Photo::DataDelta::insert</text>
</a>
</g>
</g>
<!-- Node1&#45;&gt;Node19 -->
<g id="edge8_Node000001_Node000019" class="edge">
<title>Node1&#45;&gt;Node19</title>
<g id="a_edge8_Node000001_Node000019"><a xlink:title=" ">
<path fill="none" stroke="#63b8ff" d="M72.6,-207.66C88.74,-186.15 120.75,-147.58 157,-126.25 159.99,-124.49 163.15,-122.89 166.4,-121.43"/>
<polygon fill="#63b8ff" stroke="#63b8ff" points="167.59,-124.72 175.62,-117.81 165.03,-118.21 167.59,-124.72"/>
</a>
</g>
</g>
<!-- Node20 -->
<g id="Node000020" class="node">
<title>Node20</title>
<g id="a_Node000020"><a xlink:href="../../d5/d1b/class_database_1_1_a_sql_backend.html#affedc37c486bf6ef70dbbcec2392ba42" target="_top" xlink:title=" ">
<polygon fill="white" stroke="#666666" points="296,-79.5 157,-79.5 157,-49 296,-49 296,-79.5"/>
<text text-anchor="start" x="165" y="-66" font-family="Helvetica,sans-Serif" font-size="10.00">Database::ASqlBackend</text>
<text text-anchor="middle" x="226.5" y="-54.75" font-family="Helvetica,sans-Serif" font-size="10.00">::peopleInformationAccessor</text>
</a>
</g>
</g>
<!-- Node1&#45;&gt;Node20 -->
<g id="edge9_Node000001_Node000020" class="edge">
<title>Node1&#45;&gt;Node20</title>
<g id="a_edge9_Node000001_Node000020"><a xlink:title=" ">
<path fill="none" stroke="#63b8ff" d="M68.59,-207.51C81.94,-179.55 113.45,-121.09 157,-88.25 158.32,-87.25 159.69,-86.3 161.09,-85.38"/>
<polygon fill="#63b8ff" stroke="#63b8ff" points="162.52,-88.59 169.47,-80.59 159.05,-82.51 162.52,-88.59"/>
</a>
</g>
</g>
<!-- Node21 -->
<g id="Node000021" class="node">
<title>Node21</title>
<g id="a_Node000021"><a xlink:href="../../d5/d1b/class_database_1_1_a_sql_backend.html#af282cb886405d379b78d19b3af177d03" target="_top" xlink:title="get photo operator">
<polygon fill="#fff0f0" stroke="red" points="287,-30.5 166,-30.5 166,0 287,0 287,-30.5"/>
<text text-anchor="start" x="174" y="-17" font-family="Helvetica,sans-Serif" font-size="10.00">Database::ASqlBackend</text>
<text text-anchor="middle" x="226.5" y="-5.75" font-family="Helvetica,sans-Serif" font-size="10.00">::photoOperator</text>
</a>
</g>
</g>
<!-- Node1&#45;&gt;Node21 -->
<g id="edge10_Node000001_Node000021" class="edge">
<title>Node1&#45;&gt;Node21</title>
<g id="a_edge10_Node000001_Node000021"><a xlink:title=" ">
<path fill="none" stroke="#63b8ff" d="M65.47,-207.59C75.13,-172.62 103.11,-87.5 157,-40.25 158.28,-39.13 159.61,-38.06 160.99,-37.03"/>
<polygon fill="#63b8ff" stroke="#63b8ff" points="162.79,-40.03 169.37,-31.73 159.05,-34.12 162.79,-40.03"/>
</a>
</g>
</g>
</g>
</svg>
