<?xml version="1.0" encoding="UTF-8" standalone="no"?>
<!DOCTYPE svg PUBLIC "-//W3C//DTD SVG 1.1//EN"
 "http://www.w3.org/Graphics/SVG/1.1/DTD/svg11.dtd">
<!-- Generated by graphviz version 7.0.5 (20221223.1930)
 -->
<!-- Title: Database::ASqlBackend::getPhotoDelta Pages: 1 -->
<svg width="291pt" height="412pt"
 viewBox="0.00 0.00 291.00 412.00" xmlns="http://www.w3.org/2000/svg" xmlns:xlink="http://www.w3.org/1999/xlink">
<g id="graph0" class="graph" transform="scale(1 1) rotate(0) translate(4 408)">
<title>Database::ASqlBackend::getPhotoDelta</title>
<!-- Node1 -->
<g id="node1" class="node">
<title>Node1</title>
<g id="a_node1"><a xlink:title=" ">
<polygon fill="#999999" stroke="#666666" points="122,-212 0,-212 0,-182 122,-182 122,-212"/>
<text text-anchor="start" x="8" y="-200" font-family="Helvetica,sans-Serif" font-size="10.00">Database::ASqlBackend</text>
<text text-anchor="middle" x="61" y="-189" font-family="Helvetica,sans-Serif" font-size="10.00">::getPhotoDelta</text>
</a>
</g>
</g>
<!-- Node2 -->
<g id="node2" class="node">
<title>Node2</title>
<g id="a_node2"><a xlink:href="../../d5/d1b/class_database_1_1_a_sql_backend.html#a9fa3a0d6b981521fe6d75b116da62fed" target="_top" xlink:title="check if">
<polygon fill="#fff0f0" stroke="red" points="281.5,-404 159.5,-404 159.5,-374 281.5,-374 281.5,-404"/>
<text text-anchor="start" x="167.5" y="-392" font-family="Helvetica,sans-Serif" font-size="10.00">Database::ASqlBackend</text>
<text text-anchor="middle" x="220.5" y="-381" font-family="Helvetica,sans-Serif" font-size="10.00">::doesPhotoExist</text>
</a>
</g>
</g>
<!-- Node1&#45;&gt;Node2 -->
<g id="edge1" class="edge">
<title>Node1&#45;&gt;Node2</title>
<path fill="none" stroke="#63b8ff" d="M66.8,-212.27C77.75,-244.81 107.64,-321.55 158,-365 159.07,-365.93 160.19,-366.82 161.33,-367.68"/>
<polygon fill="#63b8ff" stroke="#63b8ff" points="159.1,-370.4 169.41,-372.85 162.87,-364.51 159.1,-370.4"/>
</g>
<!-- Node6 -->
<g id="node3" class="node">
<title>Node6</title>
<g id="a_node3"><a xlink:href="../../d5/d1b/class_database_1_1_a_sql_backend.html#abcf031def9563be78611d22e14e94f6f" target="_top" xlink:title="read flags for photo">
<polygon fill="#fff0f0" stroke="red" points="281.5,-356 159.5,-356 159.5,-326 281.5,-326 281.5,-356"/>
<text text-anchor="start" x="167.5" y="-344" font-family="Helvetica,sans-Serif" font-size="10.00">Database::ASqlBackend</text>
<text text-anchor="middle" x="220.5" y="-333" font-family="Helvetica,sans-Serif" font-size="10.00">::getFlagsFor</text>
</a>
</g>
</g>
<!-- Node1&#45;&gt;Node6 -->
<g id="edge2" class="edge">
<title>Node1&#45;&gt;Node6</title>
<path fill="none" stroke="#63b8ff" d="M70.64,-212.42C85.46,-237.58 118.02,-287.6 158,-317 159.36,-318 160.76,-318.96 162.2,-319.89"/>
<polygon fill="#63b8ff" stroke="#63b8ff" points="160.39,-322.88 170.82,-324.77 163.84,-316.79 160.39,-322.88"/>
</g>
<!-- Node7 -->
<g id="node4" class="node">
<title>Node7</title>
<g id="a_node4"><a xlink:href="../../d5/d1b/class_database_1_1_a_sql_backend.html#ac3dff9d69e5311d8e5ac7090c42225f5" target="_top" xlink:title="read photo&#39;s geometry">
<polygon fill="#fff0f0" stroke="red" points="281.5,-308 159.5,-308 159.5,-278 281.5,-278 281.5,-308"/>
<text text-anchor="start" x="167.5" y="-296" font-family="Helvetica,sans-Serif" font-size="10.00">Database::ASqlBackend</text>
<text text-anchor="middle" x="220.5" y="-285" font-family="Helvetica,sans-Serif" font-size="10.00">::getGeometryFor</text>
</a>
</g>
</g>
<!-- Node1&#45;&gt;Node7 -->
<g id="edge3" class="edge">
<title>Node1&#45;&gt;Node7</title>
<path fill="none" stroke="#63b8ff" d="M79.4,-212.36C97.9,-228.12 128.51,-252.59 158,-269 160.32,-270.29 162.73,-271.55 165.19,-272.76"/>
<polygon fill="#63b8ff" stroke="#63b8ff" points="163.56,-275.87 174.11,-276.88 166.5,-269.51 163.56,-275.87"/>
</g>
<!-- Node8 -->
<g id="node5" class="node">
<title>Node8</title>
<g id="a_node5"><a xlink:href="../../d5/d1b/class_database_1_1_a_sql_backend.html#a8f9836cdac088f4b01cd62b51926a2a0" target="_top" xlink:title="read details about group">
<polygon fill="#fff0f0" stroke="red" points="281.5,-260 159.5,-260 159.5,-230 281.5,-230 281.5,-260"/>
<text text-anchor="start" x="167.5" y="-248" font-family="Helvetica,sans-Serif" font-size="10.00">Database::ASqlBackend</text>
<text text-anchor="middle" x="220.5" y="-237" font-family="Helvetica,sans-Serif" font-size="10.00">::getGroupFor</text>
</a>
</g>
</g>
<!-- Node1&#45;&gt;Node8 -->
<g id="edge4" class="edge">
<title>Node1&#45;&gt;Node8</title>
<path fill="none" stroke="#63b8ff" d="M112.7,-212.45C127.17,-216.86 143.1,-221.72 158.14,-226.3"/>
<polygon fill="#63b8ff" stroke="#63b8ff" points="156.86,-229.57 167.45,-229.14 158.9,-222.87 156.86,-229.57"/>
</g>
<!-- Node9 -->
<g id="node6" class="node">
<title>Node9</title>
<g id="a_node6"><a xlink:href="../../d5/d1b/class_database_1_1_a_sql_backend.html#ad882d8655cd694ff0ba4967c30f36fcf" target="_top" xlink:title="read photo path">
<polygon fill="#fff0f0" stroke="red" points="281.5,-212 159.5,-212 159.5,-182 281.5,-182 281.5,-212"/>
<text text-anchor="start" x="167.5" y="-200" font-family="Helvetica,sans-Serif" font-size="10.00">Database::ASqlBackend</text>
<text text-anchor="middle" x="220.5" y="-189" font-family="Helvetica,sans-Serif" font-size="10.00">::getPathFor</text>
</a>
</g>
</g>
<!-- Node1&#45;&gt;Node9 -->
<g id="edge5" class="edge">
<title>Node1&#45;&gt;Node9</title>
<path fill="none" stroke="#63b8ff" d="M122.44,-197C130.73,-197 139.31,-197 147.78,-197"/>
<polygon fill="#63b8ff" stroke="#63b8ff" points="147.71,-200.5 157.71,-197 147.7,-193.5 147.71,-200.5"/>
</g>
<!-- Node10 -->
<g id="node7" class="node">
<title>Node10</title>
<g id="a_node7"><a xlink:href="../../da/dd9/class_database_1_1_photo_operator.html#afb2efaf2200feb697c51bf35dad19e3d" target="_top" xlink:title=" ">
<polygon fill="#fff0f0" stroke="red" points="283,-164 158,-164 158,-134 283,-134 283,-164"/>
<text text-anchor="start" x="166" y="-152" font-family="Helvetica,sans-Serif" font-size="10.00">Database::PhotoOperator</text>
<text text-anchor="middle" x="220.5" y="-141" font-family="Helvetica,sans-Serif" font-size="10.00">::getPHash</text>
</a>
</g>
</g>
<!-- Node1&#45;&gt;Node10 -->
<g id="edge6" class="edge">
<title>Node1&#45;&gt;Node10</title>
<path fill="none" stroke="#63b8ff" d="M112.7,-181.55C127.17,-177.14 143.1,-172.28 158.14,-167.7"/>
<polygon fill="#63b8ff" stroke="#63b8ff" points="158.9,-171.13 167.45,-164.86 156.86,-164.43 158.9,-171.13"/>
</g>
<!-- Node12 -->
<g id="node8" class="node">
<title>Node12</title>
<g id="a_node8"><a xlink:href="../../d5/d1b/class_database_1_1_a_sql_backend.html#adcb6eb7ac6bcd49815d7b7e0f670c602" target="_top" xlink:title="get all tags assigned to photo">
<polygon fill="#fff0f0" stroke="red" points="281.5,-116 159.5,-116 159.5,-86 281.5,-86 281.5,-116"/>
<text text-anchor="start" x="167.5" y="-104" font-family="Helvetica,sans-Serif" font-size="10.00">Database::ASqlBackend</text>
<text text-anchor="middle" x="220.5" y="-93" font-family="Helvetica,sans-Serif" font-size="10.00">::getTagsFor</text>
</a>
</g>
</g>
<!-- Node1&#45;&gt;Node12 -->
<g id="edge7" class="edge">
<title>Node1&#45;&gt;Node12</title>
<path fill="none" stroke="#63b8ff" d="M79.4,-181.64C97.9,-165.88 128.51,-141.41 158,-125 160.32,-123.71 162.73,-122.45 165.19,-121.24"/>
<polygon fill="#63b8ff" stroke="#63b8ff" points="166.5,-124.49 174.11,-117.12 163.56,-118.13 166.5,-124.49"/>
</g>
<!-- Node17 -->
<g id="node9" class="node">
<title>Node17</title>
<g id="a_node9"><a xlink:href="../../d7/d1e/class_photo_1_1_data_delta.html#a4e20dab36867e0c89032b534c963029f" target="_top" xlink:title=" ">
<polygon fill="white" stroke="#666666" points="279.5,-67.5 161.5,-67.5 161.5,-48.5 279.5,-48.5 279.5,-67.5"/>
<text text-anchor="middle" x="220.5" y="-55.5" font-family="Helvetica,sans-Serif" font-size="10.00">Photo::DataDelta::insert</text>
</a>
</g>
</g>
<!-- Node1&#45;&gt;Node17 -->
<g id="edge8" class="edge">
<title>Node1&#45;&gt;Node17</title>
<path fill="none" stroke="#63b8ff" d="M70.18,-181.67C84.55,-156.17 116.76,-105.08 158,-77 160.34,-75.4 162.83,-73.94 165.4,-72.59"/>
<polygon fill="#63b8ff" stroke="#63b8ff" points="166.6,-75.89 174.27,-68.59 163.72,-69.51 166.6,-75.89"/>
</g>
<!-- Node18 -->
<g id="node10" class="node">
<title>Node18</title>
<g id="a_node10"><a xlink:href="../../d5/d1b/class_database_1_1_a_sql_backend.html#af282cb886405d379b78d19b3af177d03" target="_top" xlink:title="get photo operator">
<polygon fill="#fff0f0" stroke="red" points="281.5,-30 159.5,-30 159.5,0 281.5,0 281.5,-30"/>
<text text-anchor="start" x="167.5" y="-18" font-family="Helvetica,sans-Serif" font-size="10.00">Database::ASqlBackend</text>
<text text-anchor="middle" x="220.5" y="-7" font-family="Helvetica,sans-Serif" font-size="10.00">::photoOperator</text>
</a>
</g>
</g>
<!-- Node1&#45;&gt;Node18 -->
<g id="edge9" class="edge">
<title>Node1&#45;&gt;Node18</title>
<path fill="none" stroke="#63b8ff" d="M67.48,-181.85C79.35,-151.03 110.27,-80.53 158,-40 159.48,-38.74 161.03,-37.54 162.64,-36.4"/>
<polygon fill="#63b8ff" stroke="#63b8ff" points="164.37,-39.45 171.05,-31.23 160.7,-33.48 164.37,-39.45"/>
</g>
</g>
</svg>
