<?xml version="1.0" encoding="UTF-8" standalone="no"?>
<!DOCTYPE svg PUBLIC "-//W3C//DTD SVG 1.1//EN"
 "http://www.w3.org/Graphics/SVG/1.1/DTD/svg11.dtd">
<!-- Generated by graphviz version 9.0.0 (20230911.1827)
 -->
<!-- Title: Database::ASqlBackend::getPhotoDelta Pages: 1 -->
<svg width="286pt" height="106pt"
 viewBox="0.00 0.00 286.00 105.50" xmlns="http://www.w3.org/2000/svg" xmlns:xlink="http://www.w3.org/1999/xlink">
<g id="graph0" class="graph" transform="scale(1 1) rotate(0) translate(4 101.5)">
<title>Database::ASqlBackend::getPhotoDelta</title>
<!-- Node1 -->
<g id="Node000001" class="node">
<title>Node1</title>
<g id="a_Node000001"><a xlink:title=" ">
<polygon fill="#999999" stroke="#666666" points="278,-63.5 157,-63.5 157,-33 278,-33 278,-63.5"/>
<text text-anchor="start" x="165" y="-50" font-family="Helvetica,sans-Serif" font-size="10.00">Database::ASqlBackend</text>
<text text-anchor="middle" x="217.5" y="-38.75" font-family="Helvetica,sans-Serif" font-size="10.00">::getPhotoDelta</text>
</a>
</g>
</g>
<!-- Node2 -->
<g id="Node000002" class="node">
<title>Node2</title>
<g id="a_Node000002"><a xlink:href="../../d5/d1b/class_database_1_1_a_sql_backend.html#a93d6664d9c92ca8a176d01c941ea149a" target="_top" xlink:title="get particular photo">
<polygon fill="white" stroke="#666666" points="121,-97.5 0,-97.5 0,-67 121,-67 121,-97.5"/>
<text text-anchor="start" x="8" y="-84" font-family="Helvetica,sans-Serif" font-size="10.00">Database::ASqlBackend</text>
<text text-anchor="middle" x="60.5" y="-72.75" font-family="Helvetica,sans-Serif" font-size="10.00">::getPhoto</text>
</a>
</g>
</g>
<!-- Node1&#45;&gt;Node2 -->
<g id="edge1_Node000001_Node000002" class="edge">
<title>Node1&#45;&gt;Node2</title>
<g id="a_edge1_Node000001_Node000002"><a xlink:title=" ">
<path fill="none" stroke="#63b8ff" d="M145.58,-63.81C137.45,-65.59 129.23,-67.39 121.27,-69.14"/>
<polygon fill="#63b8ff" stroke="#63b8ff" points="146.08,-67.28 155.09,-61.72 144.58,-60.44 146.08,-67.28"/>
</a>
</g>
</g>
<!-- Node3 -->
<g id="Node000003" class="node">
<title>Node3</title>
<g id="a_Node000003"><a xlink:href="../../d5/d1b/class_database_1_1_a_sql_backend.html#aeabaa61a16e3602392353c5ce5727b91" target="_top" xlink:title="store photo data">
<polygon fill="#fff0f0" stroke="red" points="121,-30.5 0,-30.5 0,0 121,0 121,-30.5"/>
<text text-anchor="start" x="8" y="-17" font-family="Helvetica,sans-Serif" font-size="10.00">Database::ASqlBackend</text>
<text text-anchor="middle" x="60.5" y="-5.75" font-family="Helvetica,sans-Serif" font-size="10.00">::storeData</text>
</a>
</g>
</g>
<!-- Node1&#45;&gt;Node3 -->
<g id="edge2_Node000001_Node000003" class="edge">
<title>Node1&#45;&gt;Node3</title>
<g id="a_edge2_Node000001_Node000003"><a xlink:title=" ">
<path fill="none" stroke="#63b8ff" d="M145.58,-33.15C137.45,-31.42 129.23,-29.67 121.27,-27.97"/>
<polygon fill="#63b8ff" stroke="#63b8ff" points="144.58,-36.52 155.09,-35.18 146.04,-29.67 144.58,-36.52"/>
</a>
</g>
</g>
<!-- Node3&#45;&gt;Node3 -->
<g id="edge3_Node000003_Node000003" class="edge">
<title>Node3&#45;&gt;Node3</title>
<g id="a_edge3_Node000003_Node000003"><a xlink:title=" ">
<path fill="none" stroke="#63b8ff" d="M86.83,-42.2C82.52,-45.97 73.75,-48.5 60.5,-48.5 36.28,-48.5 27,-40.06 32.68,-30.99"/>
<polygon fill="#63b8ff" stroke="#63b8ff" points="90.27,-42.86 88.12,-32.49 83.33,-41.94 90.27,-42.86"/>
</a>
</g>
</g>
</g>
</svg>
