<?xml version="1.0" encoding="UTF-8" standalone="no"?>
<!DOCTYPE svg PUBLIC "-//W3C//DTD SVG 1.1//EN"
 "http://www.w3.org/Graphics/SVG/1.1/DTD/svg11.dtd">
<!-- Generated by graphviz version 7.0.5 (20221223.1930)
 -->
<!-- Title: GroupsManager::group Pages: 1 -->
<svg width="295pt" height="458pt"
 viewBox="0.00 0.00 295.00 458.00" xmlns="http://www.w3.org/2000/svg" xmlns:xlink="http://www.w3.org/1999/xlink">
<g id="graph0" class="graph" transform="scale(1 1) rotate(0) translate(4 454)">
<title>GroupsManager::group</title>
<!-- Node1 -->
<g id="node1" class="node">
<title>Node1</title>
<g id="a_node1"><a xlink:title=" ">
<polygon fill="#999999" stroke="#666666" points="114,-217.5 0,-217.5 0,-198.5 114,-198.5 114,-217.5"/>
<text text-anchor="middle" x="57" y="-205.5" font-family="Helvetica,sans-Serif" font-size="10.00">GroupsManager::group</text>
</a>
</g>
</g>
<!-- Node2 -->
<g id="node2" class="node">
<title>Node2</title>
<g id="a_node2"><a xlink:href="../../d8/d5e/struct_database_1_1_i_group_operator.html#accb5783eb399eec5f78866f689fd281e" target="_top" xlink:title=" ">
<polygon fill="white" stroke="#666666" points="283,-450 154,-450 154,-420 283,-420 283,-450"/>
<text text-anchor="start" x="162" y="-438" font-family="Helvetica,sans-Serif" font-size="10.00">Database::IGroupOperator</text>
<text text-anchor="middle" x="218.5" y="-427" font-family="Helvetica,sans-Serif" font-size="10.00">::addGroup</text>
</a>
</g>
</g>
<!-- Node1&#45;&gt;Node2 -->
<g id="edge1" class="edge">
<title>Node1&#45;&gt;Node2</title>
<path fill="none" stroke="#63b8ff" d="M59.61,-217.62C65.49,-249.78 88.76,-354.69 150,-411 150.78,-411.72 151.59,-412.42 152.41,-413.09"/>
<polygon fill="#63b8ff" stroke="#63b8ff" points="150.44,-415.98 160.67,-418.73 154.38,-410.2 150.44,-415.98"/>
</g>
<!-- Node3 -->
<g id="node3" class="node">
<title>Node3</title>
<g id="a_node3"><a xlink:href="../../d2/ddd/struct_database_1_1_i_backend.html#a2f8aca1a1b8a30d97cb01cd6a9a3a347" target="_top" xlink:title="Add photos to database.">
<polygon fill="white" stroke="#666666" points="270.5,-402 166.5,-402 166.5,-372 270.5,-372 270.5,-402"/>
<text text-anchor="start" x="174.5" y="-390" font-family="Helvetica,sans-Serif" font-size="10.00">Database::IBackend</text>
<text text-anchor="middle" x="218.5" y="-379" font-family="Helvetica,sans-Serif" font-size="10.00">::addPhotos</text>
</a>
</g>
</g>
<!-- Node1&#45;&gt;Node3 -->
<g id="edge2" class="edge">
<title>Node1&#45;&gt;Node3</title>
<path fill="none" stroke="#63b8ff" d="M61.19,-217.94C70.42,-245.17 99.73,-321.65 150,-363 151.95,-364.6 154.02,-366.11 156.17,-367.51"/>
<polygon fill="#63b8ff" stroke="#63b8ff" points="154.3,-370.47 164.73,-372.32 157.73,-364.37 154.3,-370.47"/>
</g>
<!-- Node4 -->
<g id="node4" class="node">
<title>Node4</title>
<g id="a_node4"><a xlink:href="../../d4/d9f/struct_database_1_1_i_database_thread.html#a6bdc1d4ea20d65caa82f4d732ead6830" target="_top" xlink:title=" ">
<polygon fill="#fff0f0" stroke="red" points="287,-354 150,-354 150,-324 287,-324 287,-354"/>
<text text-anchor="start" x="158" y="-342" font-family="Helvetica,sans-Serif" font-size="10.00">Database::IDatabaseThread</text>
<text text-anchor="middle" x="218.5" y="-331" font-family="Helvetica,sans-Serif" font-size="10.00">::exec</text>
</a>
</g>
</g>
<!-- Node1&#45;&gt;Node4 -->
<g id="edge3" class="edge">
<title>Node1&#45;&gt;Node4</title>
<path fill="none" stroke="#63b8ff" d="M63.87,-217.76C76.84,-238.56 110,-287.57 150,-315 151.77,-316.21 153.61,-317.37 155.49,-318.48"/>
<polygon fill="#63b8ff" stroke="#63b8ff" points="153.45,-321.36 163.94,-322.88 156.69,-315.15 153.45,-321.36"/>
</g>
<!-- Node7 -->
<g id="node5" class="node">
<title>Node7</title>
<g id="a_node5"><a xlink:href="../../d2/ddd/struct_database_1_1_i_backend.html#a42a4220df0a0e8f90b93249e5dbb905d" target="_top" xlink:title="get particular photo">
<polygon fill="white" stroke="#666666" points="270.5,-306 166.5,-306 166.5,-276 270.5,-276 270.5,-306"/>
<text text-anchor="start" x="174.5" y="-294" font-family="Helvetica,sans-Serif" font-size="10.00">Database::IBackend</text>
<text text-anchor="middle" x="218.5" y="-283" font-family="Helvetica,sans-Serif" font-size="10.00">::getPhoto</text>
</a>
</g>
</g>
<!-- Node1&#45;&gt;Node7 -->
<g id="edge4" class="edge">
<title>Node1&#45;&gt;Node7</title>
<path fill="none" stroke="#63b8ff" d="M71.15,-217.81C88.51,-230.43 120.36,-252.46 150,-267 153.03,-268.49 156.17,-269.93 159.38,-271.31"/>
<polygon fill="#63b8ff" stroke="#63b8ff" points="157.75,-274.43 168.33,-274.98 160.4,-267.95 157.75,-274.43"/>
</g>
<!-- Node8 -->
<g id="node6" class="node">
<title>Node8</title>
<g id="a_node6"><a xlink:href="../../df/d40/namespace_groups_manager.html#aedfbeedbd41e72859f20937b21e139a2" target="_top" xlink:title=" ">
<polygon fill="white" stroke="#666666" points="275.5,-239.5 161.5,-239.5 161.5,-220.5 275.5,-220.5 275.5,-239.5"/>
<text text-anchor="middle" x="218.5" y="-227.5" font-family="Helvetica,sans-Serif" font-size="10.00">GroupsManager::group</text>
</a>
</g>
</g>
<!-- Node1&#45;&gt;Node8 -->
<g id="edge5" class="edge">
<title>Node1&#45;&gt;Node8</title>
<path fill="none" stroke="#63b8ff" d="M114.23,-215.76C125.79,-217.35 138.07,-219.04 149.97,-220.69"/>
<polygon fill="#63b8ff" stroke="#63b8ff" points="149.35,-224.13 159.74,-222.03 150.31,-217.2 149.35,-224.13"/>
</g>
<!-- Node9 -->
<g id="node7" class="node">
<title>Node9</title>
<g id="a_node7"><a xlink:href="../../d2/ddd/struct_database_1_1_i_backend.html#a2ccfb5b341b8063562b4c28d48ed94e5" target="_top" xlink:title="get group operator">
<polygon fill="white" stroke="#666666" points="270.5,-202 166.5,-202 166.5,-172 270.5,-172 270.5,-202"/>
<text text-anchor="start" x="174.5" y="-190" font-family="Helvetica,sans-Serif" font-size="10.00">Database::IBackend</text>
<text text-anchor="middle" x="218.5" y="-179" font-family="Helvetica,sans-Serif" font-size="10.00">::groupOperator</text>
</a>
</g>
</g>
<!-- Node1&#45;&gt;Node9 -->
<g id="edge7" class="edge">
<title>Node1&#45;&gt;Node9</title>
<path fill="none" stroke="#63b8ff" d="M114.23,-200.6C127.41,-198.86 141.52,-197 154.95,-195.24"/>
<polygon fill="#63b8ff" stroke="#63b8ff" points="155.08,-198.75 164.53,-193.97 154.16,-191.81 155.08,-198.75"/>
</g>
<!-- Node10 -->
<g id="node8" class="node">
<title>Node10</title>
<g id="a_node8"><a xlink:href="../../d7/d1e/class_photo_1_1_data_delta.html#a4e20dab36867e0c89032b534c963029f" target="_top" xlink:title=" ">
<polygon fill="white" stroke="#666666" points="277.5,-153.5 159.5,-153.5 159.5,-134.5 277.5,-134.5 277.5,-153.5"/>
<text text-anchor="middle" x="218.5" y="-141.5" font-family="Helvetica,sans-Serif" font-size="10.00">Photo::DataDelta::insert</text>
</a>
</g>
</g>
<!-- Node1&#45;&gt;Node10 -->
<g id="edge8" class="edge">
<title>Node1&#45;&gt;Node10</title>
<path fill="none" stroke="#63b8ff" d="M75.9,-198.04C94.13,-188.19 123.42,-173.15 150,-163 155.34,-160.96 160.98,-159.03 166.65,-157.24"/>
<polygon fill="#63b8ff" stroke="#63b8ff" points="167.48,-160.65 176.04,-154.41 165.46,-153.95 167.48,-160.65"/>
</g>
<!-- Node11 -->
<g id="node9" class="node">
<title>Node11</title>
<g id="a_node9"><a xlink:href="../../d2/ddd/struct_database_1_1_i_backend.html#aa5e1e6e8e5e37e1eea11d6d02dc54abb" target="_top" xlink:title="begin transaction">
<polygon fill="white" stroke="#666666" points="270.5,-116 166.5,-116 166.5,-86 270.5,-86 270.5,-116"/>
<text text-anchor="start" x="174.5" y="-104" font-family="Helvetica,sans-Serif" font-size="10.00">Database::IBackend</text>
<text text-anchor="middle" x="218.5" y="-93" font-family="Helvetica,sans-Serif" font-size="10.00">::openTransaction</text>
</a>
</g>
</g>
<!-- Node1&#45;&gt;Node11 -->
<g id="edge9" class="edge">
<title>Node1&#45;&gt;Node11</title>
<path fill="none" stroke="#63b8ff" d="M66.73,-198.1C82.07,-181.23 115.53,-146.73 150,-126 152.76,-124.34 155.65,-122.76 158.61,-121.26"/>
<polygon fill="#63b8ff" stroke="#63b8ff" points="159.93,-124.51 167.53,-117.12 156.99,-118.16 159.93,-124.51"/>
</g>
<!-- Node12 -->
<g id="node10" class="node">
<title>Node12</title>
<g id="a_node10"><a xlink:href="../../d7/d1e/class_photo_1_1_data_delta.html#a8a610541a977ccd70ba88e4c2315f9b5" target="_top" xlink:title=" ">
<polygon fill="#fff0f0" stroke="red" points="276.5,-67.5 160.5,-67.5 160.5,-48.5 276.5,-48.5 276.5,-67.5"/>
<text text-anchor="middle" x="218.5" y="-55.5" font-family="Helvetica,sans-Serif" font-size="10.00">Photo::DataDelta::setId</text>
</a>
</g>
</g>
<!-- Node1&#45;&gt;Node12 -->
<g id="edge10" class="edge">
<title>Node1&#45;&gt;Node12</title>
<path fill="none" stroke="#63b8ff" d="M62.12,-198.04C72.79,-173.5 103.74,-109.78 150,-77 152.18,-75.46 154.48,-74.04 156.87,-72.73"/>
<polygon fill="#63b8ff" stroke="#63b8ff" points="158.1,-76.02 165.69,-68.63 155.15,-69.67 158.1,-76.02"/>
</g>
<!-- Node14 -->
<g id="node11" class="node">
<title>Node14</title>
<g id="a_node11"><a xlink:href="../../d2/ddd/struct_database_1_1_i_backend.html#a54e72b2ef4e7cde71e7be3b7fd70c03e" target="_top" xlink:title="update photos details">
<polygon fill="white" stroke="#666666" points="270.5,-30 166.5,-30 166.5,0 270.5,0 270.5,-30"/>
<text text-anchor="start" x="174.5" y="-18" font-family="Helvetica,sans-Serif" font-size="10.00">Database::IBackend</text>
<text text-anchor="middle" x="218.5" y="-7" font-family="Helvetica,sans-Serif" font-size="10.00">::update</text>
</a>
</g>
</g>
<!-- Node1&#45;&gt;Node14 -->
<g id="edge11" class="edge">
<title>Node1&#45;&gt;Node14</title>
<path fill="none" stroke="#63b8ff" d="M60.72,-198.1C69.1,-169.45 97.14,-85.64 150,-40 152.04,-38.24 154.2,-36.6 156.47,-35.08"/>
<polygon fill="#63b8ff" stroke="#63b8ff" points="158.05,-38.21 164.94,-30.17 154.53,-32.16 158.05,-38.21"/>
</g>
<!-- Node8&#45;&gt;Node8 -->
<g id="edge6" class="edge">
<title>Node8&#45;&gt;Node8</title>
<path fill="none" stroke="#63b8ff" d="M193.22,-239.87C181.68,-248.44 190.11,-257.5 218.5,-257.5 234.47,-257.5 244.12,-254.63 247.46,-250.6"/>
<polygon fill="#63b8ff" stroke="#63b8ff" points="250.83,-249.63 244.27,-241.3 244.2,-251.89 250.83,-249.63"/>
</g>
</g>
</svg>
