<?xml version="1.0" encoding="UTF-8" standalone="no"?>
<!DOCTYPE svg PUBLIC "-//W3C//DTD SVG 1.1//EN"
 "http://www.w3.org/Graphics/SVG/1.1/DTD/svg11.dtd">
<!-- Generated by graphviz version 9.0.0 (20230911.1827)
 -->
<!-- Title: GroupsManager::group Pages: 1 -->
<svg width="286pt" height="499pt"
 viewBox="0.00 0.00 286.00 498.50" xmlns="http://www.w3.org/2000/svg" xmlns:xlink="http://www.w3.org/1999/xlink">
<g id="graph0" class="graph" transform="scale(1 1) rotate(0) translate(4 494.5)">
<title>GroupsManager::group</title>
<!-- Node1 -->
<g id="Node000001" class="node">
<title>Node1</title>
<g id="a_Node000001"><a xlink:title=" ">
<polygon fill="#999999" stroke="#666666" points="113.5,-239.88 0,-239.88 0,-220.62 113.5,-220.62 113.5,-239.88"/>
<text text-anchor="middle" x="56.75" y="-226.38" font-family="Helvetica,sans-Serif" font-size="10.00">GroupsManager::group</text>
</a>
</g>
</g>
<!-- Node2 -->
<g id="Node000002" class="node">
<title>Node2</title>
<g id="a_Node000002"><a xlink:href="../../d8/d5e/struct_database_1_1_i_group_operator.html#accb5783eb399eec5f78866f689fd281e" target="_top" xlink:title=" ">
<polygon fill="white" stroke="#666666" points="278,-490.5 149.5,-490.5 149.5,-460 278,-460 278,-490.5"/>
<text text-anchor="start" x="157.5" y="-477" font-family="Helvetica,sans-Serif" font-size="10.00">Database::IGroupOperator</text>
<text text-anchor="middle" x="213.75" y="-465.75" font-family="Helvetica,sans-Serif" font-size="10.00">::addGroup</text>
</a>
</g>
</g>
<!-- Node1&#45;&gt;Node2 -->
<g id="edge1_Node000001_Node000002" class="edge">
<title>Node1&#45;&gt;Node2</title>
<g id="a_edge1_Node000001_Node000002"><a xlink:title=" ">
<path fill="none" stroke="#63b8ff" d="M59.1,-240.1C64.25,-274.06 85.71,-387.64 149.5,-450.25 150.52,-451.25 151.58,-452.21 152.69,-453.14"/>
<polygon fill="#63b8ff" stroke="#63b8ff" points="150.34,-455.77 160.54,-458.65 154.36,-450.04 150.34,-455.77"/>
</a>
</g>
</g>
<!-- Node3 -->
<g id="Node000003" class="node">
<title>Node3</title>
<g id="a_Node000003"><a xlink:href="../../d2/ddd/struct_database_1_1_i_backend.html#a2f8aca1a1b8a30d97cb01cd6a9a3a347" target="_top" xlink:title="Add photos to database.">
<polygon fill="white" stroke="#666666" points="265.25,-441.5 162.25,-441.5 162.25,-411 265.25,-411 265.25,-441.5"/>
<text text-anchor="start" x="170.25" y="-428" font-family="Helvetica,sans-Serif" font-size="10.00">Database::IBackend</text>
<text text-anchor="middle" x="213.75" y="-416.75" font-family="Helvetica,sans-Serif" font-size="10.00">::addPhotos</text>
</a>
</g>
</g>
<!-- Node1&#45;&gt;Node3 -->
<g id="edge2_Node000001_Node000003" class="edge">
<title>Node1&#45;&gt;Node3</title>
<g id="a_edge2_Node000001_Node000003"><a xlink:title=" ">
<path fill="none" stroke="#63b8ff" d="M60.45,-240.27C68.77,-269.28 96.65,-354.21 149.5,-401.25 150.77,-402.38 152.09,-403.46 153.46,-404.49"/>
<polygon fill="#63b8ff" stroke="#63b8ff" points="151.5,-407.39 161.81,-409.85 155.29,-401.5 151.5,-407.39"/>
</a>
</g>
</g>
<!-- Node4 -->
<g id="Node000004" class="node">
<title>Node4</title>
<g id="a_Node000004"><a xlink:href="../../d7/da9/struct_database_1_1_i_database.html#ac86cb641a8f5a37a00873df333bb12bb" target="_top" xlink:title=" ">
<polygon fill="#fff0f0" stroke="red" points="266.75,-392.5 160.75,-392.5 160.75,-362 266.75,-362 266.75,-392.5"/>
<text text-anchor="start" x="168.75" y="-379" font-family="Helvetica,sans-Serif" font-size="10.00">Database::IDatabase</text>
<text text-anchor="middle" x="213.75" y="-367.75" font-family="Helvetica,sans-Serif" font-size="10.00">::exec</text>
</a>
</g>
</g>
<!-- Node1&#45;&gt;Node4 -->
<g id="edge3_Node000001_Node000004" class="edge">
<title>Node1&#45;&gt;Node4</title>
<g id="a_edge3_Node000001_Node000004"><a xlink:title=" ">
<path fill="none" stroke="#63b8ff" d="M62.54,-240.03C74.25,-263 106.54,-320.84 149.5,-353.25 150.66,-354.13 151.86,-354.97 153.08,-355.79"/>
<polygon fill="#63b8ff" stroke="#63b8ff" points="151.24,-358.77 161.64,-360.77 154.76,-352.72 151.24,-358.77"/>
</a>
</g>
</g>
<!-- Node7 -->
<g id="Node000007" class="node">
<title>Node7</title>
<g id="a_Node000007"><a xlink:href="../../d7/d1e/class_photo_1_1_data_delta.html#adb6e34500f00515020150df2f9fd0ab7" target="_top" xlink:title=" ">
<polygon fill="white" stroke="#666666" points="267.12,-343.88 160.38,-343.88 160.38,-324.62 267.12,-324.62 267.12,-343.88"/>
<text text-anchor="middle" x="213.75" y="-330.38" font-family="Helvetica,sans-Serif" font-size="10.00">Photo::DataDelta::get</text>
</a>
</g>
</g>
<!-- Node1&#45;&gt;Node7 -->
<g id="edge4_Node000001_Node000007" class="edge">
<title>Node1&#45;&gt;Node7</title>
<g id="a_edge4_Node000001_Node000007"><a xlink:title=" ">
<path fill="none" stroke="#63b8ff" d="M65.76,-240.2C80.49,-257.87 113.69,-294.77 149.5,-315.25 152.49,-316.96 155.65,-318.53 158.89,-319.97"/>
<polygon fill="#63b8ff" stroke="#63b8ff" points="157.47,-323.17 168.06,-323.58 160.04,-316.66 157.47,-323.17"/>
</a>
</g>
</g>
<!-- Node8 -->
<g id="Node000008" class="node">
<title>Node8</title>
<g id="a_Node000008"><a xlink:href="../../d2/ddd/struct_database_1_1_i_backend.html#a439e4f41fce9b9d813000bbcb4c59523" target="_top" xlink:title="get particular photo">
<polygon fill="white" stroke="#666666" points="265.25,-306.5 162.25,-306.5 162.25,-276 265.25,-276 265.25,-306.5"/>
<text text-anchor="start" x="170.25" y="-293" font-family="Helvetica,sans-Serif" font-size="10.00">Database::IBackend</text>
<text text-anchor="middle" x="213.75" y="-281.75" font-family="Helvetica,sans-Serif" font-size="10.00">::getPhotoDelta</text>
</a>
</g>
</g>
<!-- Node1&#45;&gt;Node8 -->
<g id="edge5_Node000001_Node000008" class="edge">
<title>Node1&#45;&gt;Node8</title>
<g id="a_edge5_Node000001_Node000008"><a xlink:title=" ">
<path fill="none" stroke="#63b8ff" d="M82.23,-240.28C100.68,-247.8 126.63,-258.3 149.5,-267.25 153.11,-268.66 156.84,-270.11 160.6,-271.56"/>
<polygon fill="#63b8ff" stroke="#63b8ff" points="159.19,-274.77 169.78,-275.08 161.7,-268.23 159.19,-274.77"/>
</a>
</g>
</g>
<!-- Node9 -->
<g id="Node000009" class="node">
<title>Node9</title>
<g id="a_Node000009"><a xlink:href="../../df/d40/namespace_groups_manager.html#aedfbeedbd41e72859f20937b21e139a2" target="_top" xlink:title=" ">
<polygon fill="white" stroke="#666666" points="270.5,-239.88 157,-239.88 157,-220.62 270.5,-220.62 270.5,-239.88"/>
<text text-anchor="middle" x="213.75" y="-226.38" font-family="Helvetica,sans-Serif" font-size="10.00">GroupsManager::group</text>
</a>
</g>
</g>
<!-- Node1&#45;&gt;Node9 -->
<g id="edge6_Node000001_Node000009" class="edge">
<title>Node1&#45;&gt;Node9</title>
<g id="a_edge6_Node000001_Node000009"><a xlink:title=" ">
<path fill="none" stroke="#63b8ff" d="M113.71,-230.25C123.96,-230.25 134.76,-230.25 145.31,-230.25"/>
<polygon fill="#63b8ff" stroke="#63b8ff" points="145.1,-233.75 155.1,-230.25 145.1,-226.75 145.1,-233.75"/>
</a>
</g>
</g>
<!-- Node10 -->
<g id="Node000010" class="node">
<title>Node10</title>
<g id="a_Node000010"><a xlink:href="../../d2/ddd/struct_database_1_1_i_backend.html#a2ccfb5b341b8063562b4c28d48ed94e5" target="_top" xlink:title="get group operator">
<polygon fill="white" stroke="#666666" points="265.25,-202.5 162.25,-202.5 162.25,-172 265.25,-172 265.25,-202.5"/>
<text text-anchor="start" x="170.25" y="-189" font-family="Helvetica,sans-Serif" font-size="10.00">Database::IBackend</text>
<text text-anchor="middle" x="213.75" y="-177.75" font-family="Helvetica,sans-Serif" font-size="10.00">::groupOperator</text>
</a>
</g>
</g>
<!-- Node1&#45;&gt;Node10 -->
<g id="edge8_Node000001_Node000010" class="edge">
<title>Node1&#45;&gt;Node10</title>
<g id="a_edge8_Node000001_Node000010"><a xlink:title=" ">
<path fill="none" stroke="#63b8ff" d="M94.09,-220.17C111.07,-215.46 131.77,-209.71 151.1,-204.35"/>
<polygon fill="#63b8ff" stroke="#63b8ff" points="151.81,-207.79 160.51,-201.74 149.94,-201.04 151.81,-207.79"/>
</a>
</g>
</g>
<!-- Node11 -->
<g id="Node000011" class="node">
<title>Node11</title>
<g id="a_Node000011"><a xlink:href="../../d7/d1e/class_photo_1_1_data_delta.html#a4e20dab36867e0c89032b534c963029f" target="_top" xlink:title=" ">
<polygon fill="white" stroke="#666666" points="272.38,-153.88 155.12,-153.88 155.12,-134.62 272.38,-134.62 272.38,-153.88"/>
<text text-anchor="middle" x="213.75" y="-140.38" font-family="Helvetica,sans-Serif" font-size="10.00">Photo::DataDelta::insert</text>
</a>
</g>
</g>
<!-- Node1&#45;&gt;Node11 -->
<g id="edge9_Node000001_Node000011" class="edge">
<title>Node1&#45;&gt;Node11</title>
<g id="a_edge9_Node000001_Node000011"><a xlink:title=" ">
<path fill="none" stroke="#63b8ff" d="M68.8,-220.22C85.26,-205.76 117.71,-179.05 149.5,-163.25 153.21,-161.41 157.13,-159.7 161.13,-158.14"/>
<polygon fill="#63b8ff" stroke="#63b8ff" points="162.15,-161.5 170.39,-154.84 159.79,-154.9 162.15,-161.5"/>
</a>
</g>
</g>
<!-- Node12 -->
<g id="Node000012" class="node">
<title>Node12</title>
<g id="a_Node000012"><a xlink:href="../../d2/ddd/struct_database_1_1_i_backend.html#aa5e1e6e8e5e37e1eea11d6d02dc54abb" target="_top" xlink:title="begin transaction">
<polygon fill="white" stroke="#666666" points="265.25,-116.5 162.25,-116.5 162.25,-86 265.25,-86 265.25,-116.5"/>
<text text-anchor="start" x="170.25" y="-103" font-family="Helvetica,sans-Serif" font-size="10.00">Database::IBackend</text>
<text text-anchor="middle" x="213.75" y="-91.75" font-family="Helvetica,sans-Serif" font-size="10.00">::openTransaction</text>
</a>
</g>
</g>
<!-- Node1&#45;&gt;Node12 -->
<g id="edge10_Node000001_Node000012" class="edge">
<title>Node1&#45;&gt;Node12</title>
<g id="a_edge10_Node000001_Node000012"><a xlink:title=" ">
<path fill="none" stroke="#63b8ff" d="M63.88,-220.43C77.12,-199.98 110.35,-152.48 149.5,-125.25 150.89,-124.29 152.32,-123.35 153.78,-122.46"/>
<polygon fill="#63b8ff" stroke="#63b8ff" points="155.41,-125.55 162.52,-117.7 152.06,-119.41 155.41,-125.55"/>
</a>
</g>
</g>
<!-- Node13 -->
<g id="Node000013" class="node">
<title>Node13</title>
<g id="a_Node000013"><a xlink:href="../../d7/d1e/class_photo_1_1_data_delta.html#a8a610541a977ccd70ba88e4c2315f9b5" target="_top" xlink:title=" ">
<polygon fill="#fff0f0" stroke="red" points="271.25,-67.88 156.25,-67.88 156.25,-48.62 271.25,-48.62 271.25,-67.88"/>
<text text-anchor="middle" x="213.75" y="-54.38" font-family="Helvetica,sans-Serif" font-size="10.00">Photo::DataDelta::setId</text>
</a>
</g>
</g>
<!-- Node1&#45;&gt;Node13 -->
<g id="edge11_Node000001_Node000013" class="edge">
<title>Node1&#45;&gt;Node13</title>
<g id="a_edge11_Node000001_Node000013"><a xlink:title=" ">
<path fill="none" stroke="#63b8ff" d="M60.85,-220.3C69.86,-193.09 98.65,-116.81 149.5,-77.25 151.26,-75.88 153.13,-74.6 155.06,-73.42"/>
<polygon fill="#63b8ff" stroke="#63b8ff" points="156.56,-76.59 163.88,-68.93 153.38,-70.35 156.56,-76.59"/>
</a>
</g>
</g>
<!-- Node15 -->
<g id="Node000015" class="node">
<title>Node15</title>
<g id="a_Node000015"><a xlink:href="../../d2/ddd/struct_database_1_1_i_backend.html#a54e72b2ef4e7cde71e7be3b7fd70c03e" target="_top" xlink:title="update photos details">
<polygon fill="white" stroke="#666666" points="265.25,-30.5 162.25,-30.5 162.25,0 265.25,0 265.25,-30.5"/>
<text text-anchor="start" x="170.25" y="-17" font-family="Helvetica,sans-Serif" font-size="10.00">Database::IBackend</text>
<text text-anchor="middle" x="213.75" y="-5.75" font-family="Helvetica,sans-Serif" font-size="10.00">::update</text>
</a>
</g>
</g>
<!-- Node1&#45;&gt;Node15 -->
<g id="edge12_Node000001_Node000015" class="edge">
<title>Node1&#45;&gt;Node15</title>
<g id="a_edge12_Node000001_Node000015"><a xlink:title=" ">
<path fill="none" stroke="#63b8ff" d="M59.76,-220.38C66.6,-189.28 91.79,-92.25 149.5,-39.25 150.55,-38.29 151.63,-37.37 152.76,-36.48"/>
<polygon fill="#63b8ff" stroke="#63b8ff" points="154.33,-39.64 160.72,-31.19 150.45,-33.81 154.33,-39.64"/>
</a>
</g>
</g>
<!-- Node9&#45;&gt;Node9 -->
<g id="edge7_Node000009_Node000009" class="edge">
<title>Node9&#45;&gt;Node9</title>
<g id="a_edge7_Node000009_Node000009"><a xlink:title=" ">
<path fill="none" stroke="#63b8ff" d="M189.17,-240.16C177.96,-248.77 186.15,-257.88 213.75,-257.88 229.27,-257.88 238.66,-254.99 241.9,-250.94"/>
<polygon fill="#63b8ff" stroke="#63b8ff" points="245.27,-249.99 238.81,-241.6 238.63,-252.19 245.27,-249.99"/>
</a>
</g>
</g>
</g>
</svg>
