<?xml version="1.0" encoding="UTF-8" standalone="no"?>
<!DOCTYPE svg PUBLIC "-//W3C//DTD SVG 1.1//EN"
 "http://www.w3.org/Graphics/SVG/1.1/DTD/svg11.dtd">
<!-- Generated by graphviz version 7.0.5 (20221223.1930)
 -->
<!-- Title: GroupsManager::groupIntoUnified Pages: 1 -->
<svg width="297pt" height="76pt"
 viewBox="0.00 0.00 297.00 75.50" xmlns="http://www.w3.org/2000/svg" xmlns:xlink="http://www.w3.org/1999/xlink">
<g id="graph0" class="graph" transform="scale(1 1) rotate(0) translate(4 71.5)">
<title>GroupsManager::groupIntoUnified</title>
<!-- Node1 -->
<g id="node1" class="node">
<title>Node1</title>
<g id="a_node1"><a xlink:title=" ">
<polygon fill="#999999" stroke="#666666" points="289,-51 158,-51 158,-21 289,-21 289,-51"/>
<text text-anchor="start" x="166" y="-39" font-family="Helvetica,sans-Serif" font-size="10.00">GroupsManager::groupInto</text>
<text text-anchor="middle" x="223.5" y="-28" font-family="Helvetica,sans-Serif" font-size="10.00">Unified</text>
</a>
</g>
</g>
<!-- Node2 -->
<g id="node2" class="node">
<title>Node2</title>
<g id="a_node2"><a xlink:href="../../d5/d0f/class_series_model.html#a2caeed0a8014c3f20679d4ea1ff45fef" target="_top" xlink:title=" ">
<polygon fill="white" stroke="#666666" points="122,-67.5 0,-67.5 0,-48.5 122,-48.5 122,-67.5"/>
<text text-anchor="middle" x="61" y="-55.5" font-family="Helvetica,sans-Serif" font-size="10.00">SeriesModel::applyRows</text>
</a>
</g>
</g>
<!-- Node1&#45;&gt;Node2 -->
<g id="edge1" class="edge">
<title>Node1&#45;&gt;Node2</title>
<path fill="none" stroke="#63b8ff" d="M146.37,-46.43C138.33,-47.54 130.22,-48.65 122.39,-49.72"/>
<polygon fill="#63b8ff" stroke="#63b8ff" points="146.75,-49.92 156.18,-45.09 145.8,-42.98 146.75,-49.92"/>
</g>
<!-- Node3 -->
<g id="node3" class="node">
<title>Node3</title>
<g id="a_node3"><a xlink:href="../../de/db3/class_context_menu_manager.html#aff00d39bef03fe6d1651dc2f950b0299" target="_top" xlink:title=" ">
<polygon fill="#fff0f0" stroke="red" points="116.5,-30 5.5,-30 5.5,0 116.5,0 116.5,-30"/>
<text text-anchor="start" x="13.5" y="-18" font-family="Helvetica,sans-Serif" font-size="10.00">ContextMenuManager</text>
<text text-anchor="middle" x="61" y="-7" font-family="Helvetica,sans-Serif" font-size="10.00">::groupPhotosAction</text>
</a>
</g>
</g>
<!-- Node1&#45;&gt;Node3 -->
<g id="edge2" class="edge">
<title>Node1&#45;&gt;Node3</title>
<path fill="none" stroke="#63b8ff" d="M146.44,-26.05C136.43,-24.74 126.33,-23.42 116.76,-22.17"/>
<polygon fill="#63b8ff" stroke="#63b8ff" points="145.81,-29.5 156.18,-27.32 146.72,-22.55 145.81,-29.5"/>
</g>
</g>
</svg>
