<?xml version="1.0" encoding="UTF-8" standalone="no"?>
<!DOCTYPE svg PUBLIC "-//W3C//DTD SVG 1.1//EN"
 "http://www.w3.org/Graphics/SVG/1.1/DTD/svg11.dtd">
<!-- Generated by graphviz version 7.0.5 (20221223.1930)
 -->
<!-- Title: GroupsManager::groupIntoUnified Pages: 1 -->
<svg width="289pt" height="51pt"
 viewBox="0.00 0.00 289.00 50.50" xmlns="http://www.w3.org/2000/svg" xmlns:xlink="http://www.w3.org/1999/xlink">
<g id="graph0" class="graph" transform="scale(1 1) rotate(0) translate(4 46.5)">
<title>GroupsManager::groupIntoUnified</title>
<!-- Node1 -->
<g id="node1" class="node">
<title>Node1</title>
<g id="a_node1"><a xlink:title=" ">
<polygon fill="#999999" stroke="#666666" points="131,-30 0,-30 0,0 131,0 131,-30"/>
<text text-anchor="start" x="8" y="-18" font-family="Helvetica,sans-Serif" font-size="10.00">GroupsManager::groupInto</text>
<text text-anchor="middle" x="65.5" y="-7" font-family="Helvetica,sans-Serif" font-size="10.00">Unified</text>
</a>
</g>
</g>
<!-- Node2 -->
<g id="node2" class="node">
<title>Node2</title>
<g id="a_node2"><a xlink:href="../../df/d40/namespace_groups_manager.html#aedfbeedbd41e72859f20937b21e139a2" target="_top" xlink:title=" ">
<polygon fill="white" stroke="#666666" points="281,-24.5 167,-24.5 167,-5.5 281,-5.5 281,-24.5"/>
<text text-anchor="middle" x="224" y="-12.5" font-family="Helvetica,sans-Serif" font-size="10.00">GroupsManager::group</text>
</a>
</g>
</g>
<!-- Node1&#45;&gt;Node2 -->
<g id="edge1" class="edge">
<title>Node1&#45;&gt;Node2</title>
<path fill="none" stroke="#63b8ff" d="M131.06,-15C139.07,-15 147.28,-15 155.34,-15"/>
<polygon fill="#63b8ff" stroke="#63b8ff" points="155.08,-18.5 165.08,-15 155.08,-11.5 155.08,-18.5"/>
</g>
<!-- Node2&#45;&gt;Node2 -->
<g id="edge2" class="edge">
<title>Node2&#45;&gt;Node2</title>
<path fill="none" stroke="#63b8ff" d="M199.19,-24.87C187.87,-33.44 196.14,-42.5 224,-42.5 239.67,-42.5 249.15,-39.63 252.42,-35.6"/>
<polygon fill="#63b8ff" stroke="#63b8ff" points="255.8,-34.67 249.3,-26.3 249.17,-36.9 255.8,-34.67"/>
</g>
</g>
</svg>
