<?xml version="1.0" encoding="UTF-8" standalone="no"?>
<!DOCTYPE svg PUBLIC "-//W3C//DTD SVG 1.1//EN"
 "http://www.w3.org/Graphics/SVG/1.1/DTD/svg11.dtd">
<!-- Generated by graphviz version 7.0.5 (20221223.1930)
 -->
<!-- Title: src/core/disk_observer.hpp Pages: 1 -->
<svg width="298pt" height="104pt"
 viewBox="0.00 0.00 297.50 104.00" xmlns="http://www.w3.org/2000/svg" xmlns:xlink="http://www.w3.org/1999/xlink">
<g id="graph0" class="graph" transform="scale(1 1) rotate(0) translate(4 100)">
<title>src/core/disk_observer.hpp</title>
<!-- Node1 -->
<g id="node1" class="node">
<title>Node1</title>
<g id="a_node1"><a xlink:title=" ">
<polygon fill="#999999" stroke="#666666" points="204.5,-96 70.5,-96 70.5,-77 204.5,-77 204.5,-96"/>
<text text-anchor="middle" x="137.5" y="-84" font-family="Helvetica,sans-Serif" font-size="10.00">src/core/disk_observer.hpp</text>
</a>
</g>
</g>
<!-- Node2 -->
<g id="node2" class="node">
<title>Node2</title>
<g id="a_node2"><a xlink:href="../../d8/d9b/disk__observer_8cpp.html" target="_top" xlink:title=" ">
<polygon fill="white" stroke="#666666" points="121,-35.5 0,-35.5 0,-5.5 121,-5.5 121,-35.5"/>
<text text-anchor="start" x="8" y="-23.5" font-family="Helvetica,sans-Serif" font-size="10.00">src/core/implementation</text>
<text text-anchor="middle" x="60.5" y="-12.5" font-family="Helvetica,sans-Serif" font-size="10.00">/disk_observer.cpp</text>
</a>
</g>
</g>
<!-- Node1&#45;&gt;Node2 -->
<g id="edge1" class="edge">
<title>Node1&#45;&gt;Node2</title>
<path fill="none" stroke="#63b8ff" d="M118.15,-69.42C105.79,-59.14 89.89,-45.93 77.92,-35.98"/>
<polygon fill="#63b8ff" stroke="#63b8ff" points="115.7,-71.93 125.63,-75.63 120.18,-66.55 115.7,-71.93"/>
</g>
<!-- Node3 -->
<g id="node3" class="node">
<title>Node3</title>
<g id="a_node3"><a xlink:href="../../d7/d27/mysql__server_8cpp.html" target="_top" xlink:title=" ">
<polygon fill="white" stroke="#666666" points="289.5,-41 139.5,-41 139.5,0 289.5,0 289.5,-41"/>
<text text-anchor="start" x="147.5" y="-29" font-family="Helvetica,sans-Serif" font-size="10.00">src/database/backends</text>
<text text-anchor="start" x="147.5" y="-18" font-family="Helvetica,sans-Serif" font-size="10.00">/sql_backends/mysql_backend</text>
<text text-anchor="middle" x="214.5" y="-7" font-family="Helvetica,sans-Serif" font-size="10.00">/mysql_server.cpp</text>
</a>
</g>
</g>
<!-- Node1&#45;&gt;Node3 -->
<g id="edge2" class="edge">
<title>Node1&#45;&gt;Node3</title>
<path fill="none" stroke="#63b8ff" d="M156.81,-69.45C167.05,-60.94 179.72,-50.4 190.59,-41.38"/>
<polygon fill="#63b8ff" stroke="#63b8ff" points="154.82,-66.55 149.37,-75.63 159.3,-71.93 154.82,-66.55"/>
</g>
</g>
</svg>
