<?xml version="1.0" encoding="UTF-8" standalone="no"?>
<!DOCTYPE svg PUBLIC "-//W3C//DTD SVG 1.1//EN"
 "http://www.w3.org/Graphics/SVG/1.1/DTD/svg11.dtd">
<!-- Generated by graphviz version 7.0.5 (20221223.1930)
 -->
<!-- Title: Database::NotificationsAccumulator::photosAdded Pages: 1 -->
<svg width="337pt" height="76pt"
 viewBox="0.00 0.00 337.00 75.50" xmlns="http://www.w3.org/2000/svg" xmlns:xlink="http://www.w3.org/1999/xlink">
<g id="graph0" class="graph" transform="scale(1 1) rotate(0) translate(4 71.5)">
<title>Database::NotificationsAccumulator::photosAdded</title>
<!-- Node1 -->
<g id="node1" class="node">
<title>Node1</title>
<g id="a_node1"><a xlink:title=" ">
<polygon fill="#999999" stroke="#666666" points="329,-45.5 158,-45.5 158,-15.5 329,-15.5 329,-45.5"/>
<text text-anchor="start" x="166" y="-33.5" font-family="Helvetica,sans-Serif" font-size="10.00">Database::NotificationsAccumulator</text>
<text text-anchor="middle" x="243.5" y="-22.5" font-family="Helvetica,sans-Serif" font-size="10.00">::photosAdded</text>
</a>
</g>
</g>
<!-- Node2 -->
<g id="node2" class="node">
<title>Node2</title>
<g id="a_node2"><a xlink:href="../../d5/d1b/class_database_1_1_a_sql_backend.html#a2564c757e1cb2fa493a1905b0c4993be" target="_top" xlink:title="Add photos to database.">
<polygon fill="white" stroke="#666666" points="122,-67.5 0,-67.5 0,-37.5 122,-37.5 122,-67.5"/>
<text text-anchor="start" x="8" y="-55.5" font-family="Helvetica,sans-Serif" font-size="10.00">Database::ASqlBackend</text>
<text text-anchor="middle" x="61" y="-44.5" font-family="Helvetica,sans-Serif" font-size="10.00">::addPhotos</text>
</a>
</g>
</g>
<!-- Node1&#45;&gt;Node2 -->
<g id="edge1" class="edge">
<title>Node1&#45;&gt;Node2</title>
<path fill="none" stroke="#63b8ff" d="M146.38,-42.22C138.21,-43.21 130.11,-44.2 122.34,-45.15"/>
<polygon fill="#63b8ff" stroke="#63b8ff" points="146.53,-45.72 156.03,-41.04 145.68,-38.77 146.53,-45.72"/>
</g>
<!-- Node3 -->
<g id="node3" class="node">
<title>Node3</title>
<g id="a_node3"><a xlink:href="../../d7/d64/notifications__accumulator__tests_8cpp.html#ad6b422e8a242b30e94ad177e48cb6ad1" target="_top" xlink:title=" ">
<polygon fill="white" stroke="#666666" points="81.5,-19 40.5,-19 40.5,0 81.5,0 81.5,-19"/>
<text text-anchor="middle" x="61" y="-7" font-family="Helvetica,sans-Serif" font-size="10.00">TEST</text>
</a>
</g>
</g>
<!-- Node1&#45;&gt;Node3 -->
<g id="edge2" class="edge">
<title>Node1&#45;&gt;Node3</title>
<path fill="none" stroke="#63b8ff" d="M146.23,-19.3C121.66,-16.44 97.69,-13.65 81.64,-11.79"/>
<polygon fill="#63b8ff" stroke="#63b8ff" points="145.69,-22.76 156.03,-20.44 146.5,-15.81 145.69,-22.76"/>
</g>
</g>
</svg>
