<?xml version="1.0" encoding="UTF-8" standalone="no"?>
<!DOCTYPE svg PUBLIC "-//W3C//DTD SVG 1.1//EN"
 "http://www.w3.org/Graphics/SVG/1.1/DTD/svg11.dtd">
<!-- Generated by graphviz version 9.0.0 (20230911.1827)
 -->
<!-- Title: Database::NotificationsAccumulator::photosRemovedSignal Pages: 1 -->
<svg width="462pt" height="238pt"
 viewBox="0.00 0.00 461.75 238.25" xmlns="http://www.w3.org/2000/svg" xmlns:xlink="http://www.w3.org/1999/xlink">
<g id="graph0" class="graph" transform="scale(1 1) rotate(0) translate(4 234.25)">
<title>Database::NotificationsAccumulator::photosRemovedSignal</title>
<!-- Node1 -->
<g id="Node000001" class="node">
<title>Node1</title>
<g id="a_Node000001"><a xlink:title=" ">
<polygon fill="#999999" stroke="#666666" points="453.75,-123.88 283.25,-123.88 283.25,-93.38 453.75,-93.38 453.75,-123.88"/>
<text text-anchor="start" x="291.25" y="-110.38" font-family="Helvetica,sans-Serif" font-size="10.00">Database::NotificationsAccumulator</text>
<text text-anchor="middle" x="368.5" y="-99.12" font-family="Helvetica,sans-Serif" font-size="10.00">::photosRemovedSignal</text>
</a>
</g>
</g>
<!-- Node2 -->
<g id="Node000002" class="node">
<title>Node2</title>
<g id="a_Node000002"><a xlink:href="../../d2/deb/class_database_1_1_notifications_accumulator.html#add8fa9f57c069ec1f5710088b72d4b12" target="_top" xlink:title=" ">
<polygon fill="#fff0f0" stroke="red" points="247.25,-123.88 76.75,-123.88 76.75,-93.38 247.25,-93.38 247.25,-123.88"/>
<text text-anchor="start" x="84.75" y="-110.38" font-family="Helvetica,sans-Serif" font-size="10.00">Database::NotificationsAccumulator</text>
<text text-anchor="middle" x="162" y="-99.12" font-family="Helvetica,sans-Serif" font-size="10.00">::fireChanges</text>
</a>
</g>
</g>
<!-- Node1&#45;&gt;Node2 -->
<g id="edge1_Node000001_Node000002" class="edge">
<title>Node1&#45;&gt;Node2</title>
<g id="a_edge1_Node000001_Node000002"><a xlink:title=" ">
<path fill="none" stroke="#63b8ff" d="M271.58,-108.62C263.57,-108.62 255.51,-108.62 247.59,-108.62"/>
<polygon fill="#63b8ff" stroke="#63b8ff" points="271.33,-112.13 281.33,-108.63 271.33,-105.13 271.33,-112.13"/>
</a>
</g>
</g>
<!-- Node4 -->
<g id="Node000004" class="node">
<title>Node4</title>
<g id="a_Node000004"><a xlink:href="../../d7/d64/notifications__accumulator__tests_8cpp.html#a02ed24c72b3cb6ac497c2c01c5dcafe3" target="_top" xlink:title=" ">
<polygon fill="white" stroke="#666666" points="40.75,-230.25 0,-230.25 0,-211 40.75,-211 40.75,-230.25"/>
<text text-anchor="middle" x="20.38" y="-216.75" font-family="Helvetica,sans-Serif" font-size="10.00">TEST</text>
</a>
</g>
</g>
<!-- Node1&#45;&gt;Node4 -->
<g id="edge8_Node000001_Node000004" class="edge">
<title>Node1&#45;&gt;Node4</title>
<g id="a_edge8_Node000001_Node000004"><a xlink:title=" ">
<path fill="none" stroke="#63b8ff" d="M334.64,-130.2C311.17,-144.72 278.36,-163.22 247.25,-174.62 173.79,-201.56 80.8,-214.18 40.95,-218.64"/>
<polygon fill="#63b8ff" stroke="#63b8ff" points="336.22,-133.35 342.82,-125.06 332.49,-127.42 336.22,-133.35"/>
</a>
</g>
</g>
<!-- Node5 -->
<g id="Node000005" class="node">
<title>Node5</title>
<g id="a_Node000005"><a xlink:href="../../d7/d64/notifications__accumulator__tests_8cpp.html#a08f763b018eac5d9330011721d9c84aa" target="_top" xlink:title=" ">
<polygon fill="white" stroke="#666666" points="40.75,-186.25 0,-186.25 0,-167 40.75,-167 40.75,-186.25"/>
<text text-anchor="middle" x="20.38" y="-172.75" font-family="Helvetica,sans-Serif" font-size="10.00">TEST</text>
</a>
</g>
</g>
<!-- Node1&#45;&gt;Node5 -->
<g id="edge9_Node000001_Node000005" class="edge">
<title>Node1&#45;&gt;Node5</title>
<g id="a_edge9_Node000001_Node000005"><a xlink:title=" ">
<path fill="none" stroke="#63b8ff" d="M316.22,-128.17C295.12,-135.55 270.28,-143.42 247.25,-148.62 172.28,-165.56 80.85,-172.93 41.24,-175.49"/>
<polygon fill="#63b8ff" stroke="#63b8ff" points="317.22,-131.53 325.46,-124.88 314.86,-124.94 317.22,-131.53"/>
</a>
</g>
</g>
<!-- Node6 -->
<g id="Node000006" class="node">
<title>Node6</title>
<g id="a_Node000006"><a xlink:href="../../d7/d64/notifications__accumulator__tests_8cpp.html#ad6b422e8a242b30e94ad177e48cb6ad1" target="_top" xlink:title=" ">
<polygon fill="white" stroke="#666666" points="40.75,-137.25 0,-137.25 0,-118 40.75,-118 40.75,-137.25"/>
<text text-anchor="middle" x="20.38" y="-123.75" font-family="Helvetica,sans-Serif" font-size="10.00">TEST</text>
</a>
</g>
</g>
<!-- Node1&#45;&gt;Node6 -->
<g id="edge10_Node000001_Node000006" class="edge">
<title>Node1&#45;&gt;Node6</title>
<g id="a_edge10_Node000001_Node000006"><a xlink:title=" ">
<path fill="none" stroke="#63b8ff" d="M289.63,-126.49C275.59,-129.04 261.04,-131.26 247.25,-132.62 171.84,-140.08 152.45,-136.04 76.75,-132.62 64.89,-132.09 51.64,-130.92 41.08,-129.84"/>
<polygon fill="#63b8ff" stroke="#63b8ff" points="290.09,-129.96 299.26,-124.66 288.79,-123.08 290.09,-129.96"/>
</a>
</g>
</g>
<!-- Node7 -->
<g id="Node000007" class="node">
<title>Node7</title>
<g id="a_Node000007"><a xlink:href="../../d7/d64/notifications__accumulator__tests_8cpp.html#ad936146d1d6106f75538ab90266d56a0" target="_top" xlink:title=" ">
<polygon fill="white" stroke="#666666" points="40.75,-99.25 0,-99.25 0,-80 40.75,-80 40.75,-99.25"/>
<text text-anchor="middle" x="20.38" y="-85.75" font-family="Helvetica,sans-Serif" font-size="10.00">TEST</text>
</a>
</g>
</g>
<!-- Node1&#45;&gt;Node7 -->
<g id="edge11_Node000001_Node000007" class="edge">
<title>Node1&#45;&gt;Node7</title>
<g id="a_edge11_Node000001_Node000007"><a xlink:title=" ">
<path fill="none" stroke="#63b8ff" d="M289.63,-90.76C275.59,-88.21 261.04,-85.99 247.25,-84.62 171.84,-77.17 152.45,-81.21 76.75,-84.62 64.89,-85.16 51.64,-86.33 41.08,-87.41"/>
<polygon fill="#63b8ff" stroke="#63b8ff" points="288.79,-94.17 299.26,-92.59 290.09,-87.29 288.79,-94.17"/>
</a>
</g>
</g>
<!-- Node8 -->
<g id="Node000008" class="node">
<title>Node8</title>
<g id="a_Node000008"><a xlink:href="../../d7/d64/notifications__accumulator__tests_8cpp.html#a74c45ae6028e08979ae17c0beef7133a" target="_top" xlink:title=" ">
<polygon fill="white" stroke="#666666" points="40.75,-60.25 0,-60.25 0,-41 40.75,-41 40.75,-60.25"/>
<text text-anchor="middle" x="20.38" y="-46.75" font-family="Helvetica,sans-Serif" font-size="10.00">TEST</text>
</a>
</g>
</g>
<!-- Node1&#45;&gt;Node8 -->
<g id="edge12_Node000001_Node000008" class="edge">
<title>Node1&#45;&gt;Node8</title>
<g id="a_edge12_Node000001_Node000008"><a xlink:title=" ">
<path fill="none" stroke="#63b8ff" d="M306.48,-89.88C287.63,-84.63 266.71,-79.35 247.25,-75.62 171.88,-61.21 80.65,-54.27 41.17,-51.76"/>
<polygon fill="#63b8ff" stroke="#63b8ff" points="305.27,-93.17 315.85,-92.54 307.19,-86.44 305.27,-93.17"/>
</a>
</g>
</g>
<!-- Node9 -->
<g id="Node000009" class="node">
<title>Node9</title>
<g id="a_Node000009"><a xlink:href="../../d7/d64/notifications__accumulator__tests_8cpp.html#ae2f03bc9419ec9b63543923b5a21c4e0" target="_top" xlink:title=" ">
<polygon fill="white" stroke="#666666" points="40.75,-19.25 0,-19.25 0,0 40.75,0 40.75,-19.25"/>
<text text-anchor="middle" x="20.38" y="-5.75" font-family="Helvetica,sans-Serif" font-size="10.00">TEST</text>
</a>
</g>
</g>
<!-- Node1&#45;&gt;Node9 -->
<g id="edge13_Node000001_Node000009" class="edge">
<title>Node1&#45;&gt;Node9</title>
<g id="a_edge13_Node000001_Node000009"><a xlink:title=" ">
<path fill="none" stroke="#63b8ff" d="M331.4,-87.58C308.09,-74.84 276.71,-59.25 247.25,-49.62 173.43,-25.51 81.01,-14.93 41.16,-11.25"/>
<polygon fill="#63b8ff" stroke="#63b8ff" points="329.43,-90.49 339.87,-92.29 332.83,-84.37 329.43,-90.49"/>
</a>
</g>
</g>
<!-- Node2&#45;&gt;Node4 -->
<g id="edge2_Node000002_Node000004" class="edge">
<title>Node2&#45;&gt;Node4</title>
<g id="a_edge2_Node000002_Node000004"><a xlink:title=" ">
<path fill="none" stroke="#63b8ff" d="M132.8,-131.25C102.64,-155.44 56.17,-192.71 34,-210.5"/>
<polygon fill="#63b8ff" stroke="#63b8ff" points="134.79,-134.13 140.41,-125.15 130.41,-128.67 134.79,-134.13"/>
</a>
</g>
</g>
<!-- Node2&#45;&gt;Node5 -->
<g id="edge3_Node000002_Node000005" class="edge">
<title>Node2&#45;&gt;Node5</title>
<g id="a_edge3_Node000002_Node000005"><a xlink:title=" ">
<path fill="none" stroke="#63b8ff" d="M118.71,-129.22C92.96,-141.76 61.27,-157.2 41.19,-166.98"/>
<polygon fill="#63b8ff" stroke="#63b8ff" points="120.15,-132.41 127.61,-124.89 117.08,-126.12 120.15,-132.41"/>
</a>
</g>
</g>
<!-- Node2&#45;&gt;Node6 -->
<g id="edge4_Node000002_Node000006" class="edge">
<title>Node2&#45;&gt;Node6</title>
<g id="a_edge4_Node000002_Node000006"><a xlink:title=" ">
<path fill="none" stroke="#63b8ff" d="M65.34,-121.64C56.36,-122.86 48.06,-123.99 41.13,-124.94"/>
<polygon fill="#63b8ff" stroke="#63b8ff" points="65.62,-125.14 75.06,-120.32 64.68,-118.2 65.62,-125.14"/>
</a>
</g>
</g>
<!-- Node2&#45;&gt;Node7 -->
<g id="edge5_Node000002_Node000007" class="edge">
<title>Node2&#45;&gt;Node7</title>
<g id="a_edge5_Node000002_Node000007"><a xlink:title=" ">
<path fill="none" stroke="#63b8ff" d="M65.34,-95.61C56.36,-94.39 48.06,-93.26 41.13,-92.31"/>
<polygon fill="#63b8ff" stroke="#63b8ff" points="64.68,-99.05 75.06,-96.93 65.62,-92.11 64.68,-99.05"/>
</a>
</g>
</g>
<!-- Node2&#45;&gt;Node8 -->
<g id="edge6_Node000002_Node000008" class="edge">
<title>Node2&#45;&gt;Node8</title>
<g id="a_edge6_Node000002_Node000008"><a xlink:title=" ">
<path fill="none" stroke="#63b8ff" d="M112.62,-88.53C88.09,-78.34 59.64,-66.52 41.12,-58.83"/>
<polygon fill="#63b8ff" stroke="#63b8ff" points="111.24,-91.74 121.82,-92.35 113.93,-85.28 111.24,-91.74"/>
</a>
</g>
</g>
<!-- Node2&#45;&gt;Node9 -->
<g id="edge7_Node000002_Node000009" class="edge">
<title>Node2&#45;&gt;Node9</title>
<g id="a_edge7_Node000002_Node000009"><a xlink:title=" ">
<path fill="none" stroke="#63b8ff" d="M129.8,-86.5C100.25,-65.55 57.25,-35.06 35.33,-19.52"/>
<polygon fill="#63b8ff" stroke="#63b8ff" points="127.46,-89.13 137.64,-92.06 131.51,-83.42 127.46,-89.13"/>
</a>
</g>
</g>
</g>
</svg>
