<?xml version="1.0" encoding="UTF-8" standalone="no"?>
<!DOCTYPE svg PUBLIC "-//W3C//DTD SVG 1.1//EN"
 "http://www.w3.org/Graphics/SVG/1.1/DTD/svg11.dtd">
<!-- Generated by graphviz version 7.0.5 (20221223.1930)
 -->
<!-- Title: Database::NotificationsAccumulator::clearNotifications Pages: 1 -->
<svg width="386pt" height="86pt"
 viewBox="0.00 0.00 386.00 86.00" xmlns="http://www.w3.org/2000/svg" xmlns:xlink="http://www.w3.org/1999/xlink">
<g id="graph0" class="graph" transform="scale(1 1) rotate(0) translate(4 82)">
<title>Database::NotificationsAccumulator::clearNotifications</title>
<!-- Node1 -->
<g id="node1" class="node">
<title>Node1</title>
<g id="a_node1"><a xlink:title=" ">
<polygon fill="#999999" stroke="#666666" points="378,-54 207,-54 207,-24 378,-24 378,-54"/>
<text text-anchor="start" x="215" y="-42" font-family="Helvetica,sans-Serif" font-size="10.00">Database::NotificationsAccumulator</text>
<text text-anchor="middle" x="292.5" y="-31" font-family="Helvetica,sans-Serif" font-size="10.00">::clearNotifications</text>
</a>
</g>
</g>
<!-- Node2 -->
<g id="node2" class="node">
<title>Node2</title>
<g id="a_node2"><a xlink:href="../../d2/deb/class_database_1_1_notifications_accumulator.html#add8fa9f57c069ec1f5710088b72d4b12" target="_top" xlink:title=" ">
<polygon fill="#fff0f0" stroke="red" points="171,-78 0,-78 0,-48 171,-48 171,-78"/>
<text text-anchor="start" x="8" y="-66" font-family="Helvetica,sans-Serif" font-size="10.00">Database::NotificationsAccumulator</text>
<text text-anchor="middle" x="85.5" y="-55" font-family="Helvetica,sans-Serif" font-size="10.00">::fireChanges</text>
</a>
</g>
</g>
<!-- Node1&#45;&gt;Node2 -->
<g id="edge1" class="edge">
<title>Node1&#45;&gt;Node2</title>
<path fill="none" stroke="#63b8ff" d="M195.34,-50.26C187.31,-51.2 179.23,-52.14 171.3,-53.07"/>
<polygon fill="#63b8ff" stroke="#63b8ff" points="195.61,-53.75 205.14,-49.11 194.8,-46.8 195.61,-53.75"/>
</g>
<!-- Node5 -->
<g id="node3" class="node">
<title>Node5</title>
<g id="a_node3"><a xlink:href="../../d2/deb/class_database_1_1_notifications_accumulator.html#a6eedbcbd41032d33d263814165278db7" target="_top" xlink:title=" ">
<polygon fill="#fff0f0" stroke="red" points="171,-30 0,-30 0,0 171,0 171,-30"/>
<text text-anchor="start" x="8" y="-18" font-family="Helvetica,sans-Serif" font-size="10.00">Database::NotificationsAccumulator</text>
<text text-anchor="middle" x="85.5" y="-7" font-family="Helvetica,sans-Serif" font-size="10.00">::ignoreChanges</text>
</a>
</g>
</g>
<!-- Node1&#45;&gt;Node5 -->
<g id="edge2" class="edge">
<title>Node1&#45;&gt;Node5</title>
<path fill="none" stroke="#63b8ff" d="M195.34,-27.74C187.31,-26.8 179.23,-25.86 171.3,-24.93"/>
<polygon fill="#63b8ff" stroke="#63b8ff" points="194.8,-31.2 205.14,-28.89 195.61,-24.25 194.8,-31.2"/>
</g>
</g>
</svg>
