<?xml version="1.0" encoding="UTF-8" standalone="no"?>
<!DOCTYPE svg PUBLIC "-//W3C//DTD SVG 1.1//EN"
 "http://www.w3.org/Graphics/SVG/1.1/DTD/svg11.dtd">
<!-- Generated by graphviz version 7.0.5 (20221223.1930)
 -->
<!-- Title: src/database/idatabase.hpp Pages: 1 -->
<svg width="3549pt" height="247pt"
 viewBox="0.00 0.00 3548.50 247.00" xmlns="http://www.w3.org/2000/svg" xmlns:xlink="http://www.w3.org/1999/xlink">
<g id="graph0" class="graph" transform="scale(1 1) rotate(0) translate(4 243)">
<title>src/database/idatabase.hpp</title>
<!-- Node1 -->
<g id="node1" class="node">
<title>Node1</title>
<g id="a_node1"><a xlink:title=" ">
<polygon fill="#999999" stroke="#666666" points="1996,-239 1860,-239 1860,-220 1996,-220 1996,-239"/>
<text text-anchor="middle" x="1928" y="-227" font-family="Helvetica,sans-Serif" font-size="10.00">src/database/idatabase.hpp</text>
</a>
</g>
</g>
<!-- Node2 -->
<g id="node2" class="node">
<title>Node2</title>
<g id="a_node2"><a xlink:href="../../d0/dc6/mysql__backend_2backend_8hpp.html" target="_top" xlink:title=" ">
<polygon fill="#fff0f0" stroke="red" points="150,-184 0,-184 0,-143 150,-143 150,-184"/>
<text text-anchor="start" x="8" y="-172" font-family="Helvetica,sans-Serif" font-size="10.00">src/database/backends</text>
<text text-anchor="start" x="8" y="-161" font-family="Helvetica,sans-Serif" font-size="10.00">/sql_backends/mysql_backend</text>
<text text-anchor="middle" x="75" y="-150" font-family="Helvetica,sans-Serif" font-size="10.00">/backend.hpp</text>
</a>
</g>
</g>
<!-- Node1&#45;&gt;Node2 -->
<g id="edge1" class="edge">
<title>Node1&#45;&gt;Node2</title>
<path fill="none" stroke="#63b8ff" d="M1848.47,-228.64C1549.43,-228.85 492.61,-226.47 159,-184 156.18,-183.64 153.31,-183.23 150.43,-182.77"/>
<polygon fill="#63b8ff" stroke="#63b8ff" points="1848.11,-232.14 1858.11,-228.63 1848.11,-225.14 1848.11,-232.14"/>
</g>
<!-- Node4 -->
<g id="node3" class="node">
<title>Node4</title>
<g id="a_node3"><a xlink:href="../../da/d0e/sqlite__backend_2backend_8hpp.html" target="_top" xlink:title=" ">
<polygon fill="#fff0f0" stroke="red" points="286,-184 168,-184 168,-143 286,-143 286,-184"/>
<text text-anchor="start" x="176" y="-172" font-family="Helvetica,sans-Serif" font-size="10.00">src/database/backends</text>
<text text-anchor="start" x="176" y="-161" font-family="Helvetica,sans-Serif" font-size="10.00">/sql_backends/sqlite</text>
<text text-anchor="middle" x="227" y="-150" font-family="Helvetica,sans-Serif" font-size="10.00">_backend/backend.hpp</text>
</a>
</g>
</g>
<!-- Node1&#45;&gt;Node4 -->
<g id="edge2" class="edge">
<title>Node1&#45;&gt;Node4</title>
<path fill="none" stroke="#63b8ff" d="M1848.24,-228.78C1564.36,-229.41 603.93,-228.13 300,-184 295.46,-183.34 290.79,-182.5 286.12,-181.53"/>
<polygon fill="#63b8ff" stroke="#63b8ff" points="1848.14,-232.28 1858.14,-228.76 1848.13,-225.28 1848.14,-232.28"/>
</g>
<!-- Node18 -->
<g id="node4" class="node">
<title>Node18</title>
<g id="a_node4"><a xlink:href="../../dc/de9/database__executor__traits_8hpp.html" target="_top" xlink:title=" ">
<polygon fill="#fff0f0" stroke="red" points="1102,-101.5 986,-101.5 986,-71.5 1102,-71.5 1102,-101.5"/>
<text text-anchor="start" x="994" y="-89.5" font-family="Helvetica,sans-Serif" font-size="10.00">src/database/database</text>
<text text-anchor="middle" x="1044" y="-78.5" font-family="Helvetica,sans-Serif" font-size="10.00">_executor_traits.hpp</text>
</a>
</g>
</g>
<!-- Node1&#45;&gt;Node18 -->
<g id="edge3" class="edge">
<title>Node1&#45;&gt;Node18</title>
<path fill="none" stroke="#63b8ff" d="M1848.17,-227.92C1616.87,-225.84 960.6,-217.04 929,-184 916.4,-170.83 919.31,-158.43 929,-143 941.67,-122.82 963.98,-109.8 985.6,-101.48"/>
<polygon fill="#63b8ff" stroke="#63b8ff" points="1847.98,-231.42 1858.01,-228 1848.04,-224.42 1847.98,-231.42"/>
</g>
<!-- Node22 -->
<g id="node5" class="node">
<title>Node22</title>
<g id="a_node5"><a xlink:href="../../d8/dd9/mainwindow_8cpp.html" target="_top" xlink:title=" ">
<polygon fill="white" stroke="#666666" points="2324,-30 2230,-30 2230,0 2324,0 2324,-30"/>
<text text-anchor="start" x="2238" y="-18" font-family="Helvetica,sans-Serif" font-size="10.00">src/gui/desktop/ui</text>
<text text-anchor="middle" x="2277" y="-7" font-family="Helvetica,sans-Serif" font-size="10.00">/mainwindow.cpp</text>
</a>
</g>
</g>
<!-- Node1&#45;&gt;Node22 -->
<g id="edge39" class="edge">
<title>Node1&#45;&gt;Node22</title>
<path fill="none" stroke="#63b8ff" d="M1848.35,-229.23C1678.12,-229.94 1291.06,-226.78 1251,-184 1238.54,-170.7 1247.24,-160.83 1251,-143 1258.72,-106.4 1254.18,-87.21 1285,-66 1324.31,-38.95 2037.44,-21.29 2229.62,-17.01"/>
<polygon fill="#63b8ff" stroke="#63b8ff" points="1848.23,-232.73 1858.22,-229.18 1848.2,-225.73 1848.23,-232.73"/>
</g>
<!-- Node25 -->
<g id="node6" class="node">
<title>Node25</title>
<g id="a_node6"><a xlink:href="../../d7/dfc/database__queue_8hpp.html" target="_top" xlink:title=" ">
<polygon fill="#fff0f0" stroke="red" points="882,-178.5 766,-178.5 766,-148.5 882,-148.5 882,-178.5"/>
<text text-anchor="start" x="774" y="-166.5" font-family="Helvetica,sans-Serif" font-size="10.00">src/database/database</text>
<text text-anchor="middle" x="824" y="-155.5" font-family="Helvetica,sans-Serif" font-size="10.00">_queue.hpp</text>
</a>
</g>
</g>
<!-- Node1&#45;&gt;Node25 -->
<g id="edge5" class="edge">
<title>Node1&#45;&gt;Node25</title>
<path fill="none" stroke="#63b8ff" d="M1848.35,-227.34C1639.43,-223.95 1079.17,-212.39 896,-184 887.94,-182.75 879.48,-180.93 871.32,-178.91"/>
<polygon fill="#63b8ff" stroke="#63b8ff" points="1848.25,-230.84 1858.31,-227.5 1848.36,-223.84 1848.25,-230.84"/>
</g>
<!-- Node26 -->
<g id="node7" class="node">
<title>Node26</title>
<g id="a_node7"><a xlink:href="../../d2/d25/photos__analyzer__p_8hpp.html" target="_top" xlink:title=" ">
<polygon fill="#fff0f0" stroke="red" points="865,-107 747,-107 747,-66 865,-66 865,-107"/>
<text text-anchor="start" x="755" y="-95" font-family="Helvetica,sans-Serif" font-size="10.00">src/database/database</text>
<text text-anchor="start" x="755" y="-84" font-family="Helvetica,sans-Serif" font-size="10.00">_tools/implementation</text>
<text text-anchor="middle" x="806" y="-73" font-family="Helvetica,sans-Serif" font-size="10.00">/photos_analyzer_p.hpp</text>
</a>
</g>
</g>
<!-- Node1&#45;&gt;Node26 -->
<g id="edge11" class="edge">
<title>Node1&#45;&gt;Node26</title>
<path fill="none" stroke="#63b8ff" d="M1848.03,-228.47C1590.12,-227.98 794.8,-223.27 757,-184 735.63,-161.8 761.75,-128.44 783.28,-107.33"/>
<polygon fill="#63b8ff" stroke="#63b8ff" points="1848.02,-231.97 1858.02,-228.49 1848.03,-224.97 1848.02,-231.97"/>
</g>
<!-- Node29 -->
<g id="node8" class="node">
<title>Node29</title>
<g id="a_node8"><a xlink:href="../../dc/d99/id__to__data__converter_8hpp.html" target="_top" xlink:title=" ">
<polygon fill="#fff0f0" stroke="red" points="633.5,-178.5 478.5,-178.5 478.5,-148.5 633.5,-148.5 633.5,-178.5"/>
<text text-anchor="start" x="486.5" y="-166.5" font-family="Helvetica,sans-Serif" font-size="10.00">src/database/database</text>
<text text-anchor="middle" x="556" y="-155.5" font-family="Helvetica,sans-Serif" font-size="10.00">_tools/id_to_data_converter.hpp</text>
</a>
</g>
</g>
<!-- Node1&#45;&gt;Node29 -->
<g id="edge7" class="edge">
<title>Node1&#45;&gt;Node29</title>
<path fill="none" stroke="#63b8ff" d="M1848.39,-227.55C1606.42,-224.37 881.98,-212.64 648,-184 637.79,-182.75 627.03,-180.93 616.62,-178.91"/>
<polygon fill="#63b8ff" stroke="#63b8ff" points="1848.33,-231.05 1858.37,-227.68 1848.42,-224.05 1848.33,-231.05"/>
</g>
<!-- Node31 -->
<g id="node9" class="node">
<title>Node31</title>
<g id="a_node9"><a xlink:href="../../df/d86/photo__properties__model_8hpp.html" target="_top" xlink:title=" ">
<polygon fill="#fff0f0" stroke="red" points="658.5,-101.5 517.5,-101.5 517.5,-71.5 658.5,-71.5 658.5,-101.5"/>
<text text-anchor="start" x="525.5" y="-89.5" font-family="Helvetica,sans-Serif" font-size="10.00">src/gui/desktop/models</text>
<text text-anchor="middle" x="588" y="-78.5" font-family="Helvetica,sans-Serif" font-size="10.00">/photo_properties_model.hpp</text>
</a>
</g>
</g>
<!-- Node1&#45;&gt;Node31 -->
<g id="edge26" class="edge">
<title>Node1&#45;&gt;Node31</title>
<path fill="none" stroke="#63b8ff" d="M1848.43,-228.98C1591.15,-230.08 792.18,-229.74 686,-184 680.71,-181.72 627.7,-128.03 601.92,-101.74"/>
<polygon fill="#63b8ff" stroke="#63b8ff" points="1848.41,-232.48 1858.4,-228.94 1848.38,-225.48 1848.41,-232.48"/>
</g>
<!-- Node34 -->
<g id="node10" class="node">
<title>Node34</title>
<g id="a_node10"><a xlink:href="../../dd/d35/tags__model_8hpp.html" target="_top" xlink:title=" ">
<polygon fill="#fff0f0" stroke="red" points="473,-101.5 355,-101.5 355,-71.5 473,-71.5 473,-101.5"/>
<text text-anchor="start" x="363" y="-89.5" font-family="Helvetica,sans-Serif" font-size="10.00">src/gui/desktop/models</text>
<text text-anchor="middle" x="414" y="-78.5" font-family="Helvetica,sans-Serif" font-size="10.00">/tags_model.hpp</text>
</a>
</g>
</g>
<!-- Node1&#45;&gt;Node34 -->
<g id="edge32" class="edge">
<title>Node1&#45;&gt;Node34</title>
<path fill="none" stroke="#63b8ff" d="M1848.29,-227.77C1529.17,-224.67 359.68,-211.43 333,-184 320.3,-170.94 324.5,-159.12 333,-143 342.78,-124.45 361.86,-110.91 379.04,-101.86"/>
<polygon fill="#63b8ff" stroke="#63b8ff" points="1848.18,-231.27 1858.21,-227.87 1848.25,-224.27 1848.18,-231.27"/>
</g>
<!-- Node35 -->
<g id="node11" class="node">
<title>Node35</title>
<g id="a_node11"><a xlink:href="../../db/d3f/tags__model_8cpp.html" target="_top" xlink:title=" ">
<polygon fill="white" stroke="#666666" points="636,-30 518,-30 518,0 636,0 636,-30"/>
<text text-anchor="start" x="526" y="-18" font-family="Helvetica,sans-Serif" font-size="10.00">src/gui/desktop/models</text>
<text text-anchor="middle" x="577" y="-7" font-family="Helvetica,sans-Serif" font-size="10.00">/tags_model.cpp</text>
</a>
</g>
</g>
<!-- Node1&#45;&gt;Node35 -->
<g id="edge31" class="edge">
<title>Node1&#45;&gt;Node35</title>
<path fill="none" stroke="#63b8ff" d="M1848.06,-227.48C1590.17,-223.92 794.04,-210.82 746,-184 690.9,-153.23 713.44,-108.74 667,-66 650.82,-51.11 629.41,-38.99 611.54,-30.41"/>
<polygon fill="#63b8ff" stroke="#63b8ff" points="1848.01,-230.98 1858.06,-227.62 1848.11,-223.98 1848.01,-230.98"/>
</g>
<!-- Node37 -->
<g id="node12" class="node">
<title>Node37</title>
<g id="a_node12"><a xlink:href="../../d8/d41/tag__info__collector_8cpp.html" target="_top" xlink:title=" ">
<polygon fill="white" stroke="#666666" points="1054,-184 938,-184 938,-143 1054,-143 1054,-184"/>
<text text-anchor="start" x="946" y="-172" font-family="Helvetica,sans-Serif" font-size="10.00">src/database/database</text>
<text text-anchor="start" x="946" y="-161" font-family="Helvetica,sans-Serif" font-size="10.00">_tools/implementation</text>
<text text-anchor="middle" x="996" y="-150" font-family="Helvetica,sans-Serif" font-size="10.00">/tag_info_collector.cpp</text>
</a>
</g>
</g>
<!-- Node1&#45;&gt;Node37 -->
<g id="edge12" class="edge">
<title>Node1&#45;&gt;Node37</title>
<path fill="none" stroke="#63b8ff" d="M1848.21,-226.76C1663.84,-222.35 1212.6,-209.27 1063,-184 1060.13,-183.52 1057.21,-182.95 1054.28,-182.32"/>
<polygon fill="#63b8ff" stroke="#63b8ff" points="1848.1,-230.26 1858.18,-226.99 1848.27,-223.26 1848.1,-230.26"/>
</g>
<!-- Node38 -->
<g id="node13" class="node">
<title>Node38</title>
<g id="a_node13"><a xlink:href="../../d9/d71/series__detector_8hpp.html" target="_top" xlink:title=" ">
<polygon fill="#fff0f0" stroke="red" points="1203.5,-178.5 1072.5,-178.5 1072.5,-148.5 1203.5,-148.5 1203.5,-178.5"/>
<text text-anchor="start" x="1080.5" y="-166.5" font-family="Helvetica,sans-Serif" font-size="10.00">src/database/database</text>
<text text-anchor="middle" x="1138" y="-155.5" font-family="Helvetica,sans-Serif" font-size="10.00">_tools/series_detector.hpp</text>
</a>
</g>
</g>
<!-- Node1&#45;&gt;Node38 -->
<g id="edge13" class="edge">
<title>Node1&#45;&gt;Node38</title>
<path fill="none" stroke="#63b8ff" d="M1848.36,-228.08C1716.52,-226.36 1444.91,-218.49 1218,-184 1209.38,-182.69 1200.32,-180.9 1191.53,-178.93"/>
<polygon fill="#63b8ff" stroke="#63b8ff" points="1847.98,-231.57 1858.02,-228.19 1848.06,-224.57 1847.98,-231.57"/>
</g>
<!-- Node40 -->
<g id="node14" class="node">
<title>Node40</title>
<g id="a_node14"><a xlink:href="../../d4/d5e/idatabase__builder_8hpp.html" target="_top" xlink:title=" ">
<polygon fill="#fff0f0" stroke="red" points="1378,-178.5 1260,-178.5 1260,-148.5 1378,-148.5 1378,-178.5"/>
<text text-anchor="start" x="1268" y="-166.5" font-family="Helvetica,sans-Serif" font-size="10.00">src/database/idatabase</text>
<text text-anchor="middle" x="1319" y="-155.5" font-family="Helvetica,sans-Serif" font-size="10.00">_builder.hpp</text>
</a>
</g>
</g>
<!-- Node1&#45;&gt;Node40 -->
<g id="edge14" class="edge">
<title>Node1&#45;&gt;Node40</title>
<path fill="none" stroke="#63b8ff" d="M1848.36,-226.31C1743.17,-222.42 1552.5,-211.87 1392,-184 1384.25,-182.65 1376.12,-180.87 1368.21,-178.92"/>
<polygon fill="#63b8ff" stroke="#63b8ff" points="1848.19,-229.81 1858.3,-226.67 1848.44,-222.82 1848.19,-229.81"/>
</g>
<!-- Node51 -->
<g id="node15" class="node">
<title>Node51</title>
<g id="a_node15"><a xlink:href="../../db/d98/project__manager_8cpp.html" target="_top" xlink:title=" ">
<polygon fill="white" stroke="#666666" points="1449.5,-101.5 1294.5,-101.5 1294.5,-71.5 1449.5,-71.5 1449.5,-101.5"/>
<text text-anchor="start" x="1302.5" y="-89.5" font-family="Helvetica,sans-Serif" font-size="10.00">src/project_utils/implementation</text>
<text text-anchor="middle" x="1372" y="-78.5" font-family="Helvetica,sans-Serif" font-size="10.00">/project_manager.cpp</text>
</a>
</g>
</g>
<!-- Node1&#45;&gt;Node51 -->
<g id="edge54" class="edge">
<title>Node1&#45;&gt;Node51</title>
<path fill="none" stroke="#63b8ff" d="M1848.24,-225.54C1715.31,-220 1459.55,-206.56 1425,-184 1395.71,-164.88 1381.21,-123.78 1375.33,-101.9"/>
<polygon fill="#63b8ff" stroke="#63b8ff" points="1847.9,-229.03 1858.03,-225.94 1848.19,-222.03 1847.9,-229.03"/>
</g>
<!-- Node68 -->
<g id="node16" class="node">
<title>Node68</title>
<g id="a_node16"><a xlink:href="../../d8/da1/async__database_8hpp.html" target="_top" xlink:title=" ">
<polygon fill="#fff0f0" stroke="red" points="1718,-178.5 1576,-178.5 1576,-148.5 1718,-148.5 1718,-178.5"/>
<text text-anchor="start" x="1584" y="-166.5" font-family="Helvetica,sans-Serif" font-size="10.00">src/database/implementation</text>
<text text-anchor="middle" x="1647" y="-155.5" font-family="Helvetica,sans-Serif" font-size="10.00">/async_database.hpp</text>
</a>
</g>
</g>
<!-- Node1&#45;&gt;Node68 -->
<g id="edge16" class="edge">
<title>Node1&#45;&gt;Node68</title>
<path fill="none" stroke="#63b8ff" d="M1875.13,-217.11C1834.55,-208.3 1777.17,-195.67 1727,-184 1720.04,-182.38 1712.74,-180.65 1705.51,-178.91"/>
<polygon fill="#63b8ff" stroke="#63b8ff" points="1874.37,-220.53 1884.89,-219.23 1875.86,-213.69 1874.37,-220.53"/>
</g>
<!-- Node43 -->
<g id="node17" class="node">
<title>Node43</title>
<g id="a_node17"><a xlink:href="../../d6/da5/database__builder_8cpp.html" target="_top" xlink:title=" ">
<polygon fill="white" stroke="#666666" points="1718,-101.5 1576,-101.5 1576,-71.5 1718,-71.5 1718,-101.5"/>
<text text-anchor="start" x="1584" y="-89.5" font-family="Helvetica,sans-Serif" font-size="10.00">src/database/implementation</text>
<text text-anchor="middle" x="1647" y="-78.5" font-family="Helvetica,sans-Serif" font-size="10.00">/database_builder.cpp</text>
</a>
</g>
</g>
<!-- Node1&#45;&gt;Node43 -->
<g id="edge18" class="edge">
<title>Node1&#45;&gt;Node43</title>
<path fill="none" stroke="#63b8ff" d="M2007.76,-220.89C2056.68,-214.39 2112.77,-202.99 2128,-184 2139.4,-169.78 2140.12,-156.6 2128,-143 2101.22,-112.96 1845.35,-96.8 1718.12,-90.57"/>
<polygon fill="#63b8ff" stroke="#63b8ff" points="2007.46,-217.4 1997.98,-222.13 2008.34,-224.35 2007.46,-217.4"/>
</g>
<!-- Node70 -->
<g id="node18" class="node">
<title>Node70</title>
<g id="a_node18"><a xlink:href="../../db/d3e/observable__database_8hpp.html" target="_top" xlink:title=" ">
<polygon fill="white" stroke="#666666" points="1557.5,-178.5 1434.5,-178.5 1434.5,-148.5 1557.5,-148.5 1557.5,-178.5"/>
<text text-anchor="start" x="1442.5" y="-166.5" font-family="Helvetica,sans-Serif" font-size="10.00">src/database/observable</text>
<text text-anchor="middle" x="1496" y="-155.5" font-family="Helvetica,sans-Serif" font-size="10.00">_database.hpp</text>
</a>
</g>
</g>
<!-- Node1&#45;&gt;Node70 -->
<g id="edge19" class="edge">
<title>Node1&#45;&gt;Node70</title>
<path fill="none" stroke="#63b8ff" d="M1848.21,-222.02C1774.7,-215.26 1662.85,-202.96 1567,-184 1559.85,-182.59 1552.37,-180.83 1545.05,-178.97"/>
<polygon fill="#63b8ff" stroke="#63b8ff" points="1847.88,-225.51 1858.16,-222.92 1848.51,-218.53 1847.88,-225.51"/>
</g>
<!-- Node71 -->
<g id="node19" class="node">
<title>Node71</title>
<g id="a_node19"><a xlink:href="../../d9/d4f/database_tests_8cpp.html" target="_top" xlink:title=" ">
<polygon fill="white" stroke="#666666" points="1855.5,-178.5 1736.5,-178.5 1736.5,-148.5 1855.5,-148.5 1855.5,-178.5"/>
<text text-anchor="start" x="1744.5" y="-166.5" font-family="Helvetica,sans-Serif" font-size="10.00">src/database/unit_tests</text>
<text text-anchor="middle" x="1796" y="-155.5" font-family="Helvetica,sans-Serif" font-size="10.00">/databaseTests.cpp</text>
</a>
</g>
</g>
<!-- Node1&#45;&gt;Node71 -->
<g id="edge21" class="edge">
<title>Node1&#45;&gt;Node71</title>
<path fill="none" stroke="#63b8ff" d="M1899.4,-214.63C1877.68,-204.1 1847.89,-189.66 1825.86,-178.98"/>
<polygon fill="#63b8ff" stroke="#63b8ff" points="1897.76,-217.73 1908.28,-218.94 1900.81,-211.43 1897.76,-217.73"/>
</g>
<!-- Node72 -->
<g id="node20" class="node">
<title>Node72</title>
<g id="a_node20"><a xlink:href="../../da/dec/face__recognition_8cpp.html" target="_top" xlink:title=" ">
<polygon fill="white" stroke="#666666" points="1982.5,-178.5 1873.5,-178.5 1873.5,-148.5 1982.5,-148.5 1982.5,-178.5"/>
<text text-anchor="start" x="1881.5" y="-166.5" font-family="Helvetica,sans-Serif" font-size="10.00">src/face_recognition</text>
<text text-anchor="middle" x="1928" y="-155.5" font-family="Helvetica,sans-Serif" font-size="10.00">/face_recognition.cpp</text>
</a>
</g>
</g>
<!-- Node1&#45;&gt;Node72 -->
<g id="edge22" class="edge">
<title>Node1&#45;&gt;Node72</title>
<path fill="none" stroke="#63b8ff" d="M1928,-208.28C1928,-198.67 1928,-187.42 1928,-178.73"/>
<polygon fill="#63b8ff" stroke="#63b8ff" points="1924.5,-208.09 1928,-218.09 1931.5,-208.09 1924.5,-208.09"/>
</g>
<!-- Node73 -->
<g id="node21" class="node">
<title>Node73</title>
<g id="a_node21"><a xlink:href="../../d6/d5c/duplicates__model_8hpp.html" target="_top" xlink:title=" ">
<polygon fill="#fff0f0" stroke="red" points="2119,-178.5 2001,-178.5 2001,-148.5 2119,-148.5 2119,-178.5"/>
<text text-anchor="start" x="2009" y="-166.5" font-family="Helvetica,sans-Serif" font-size="10.00">src/gui/desktop/models</text>
<text text-anchor="middle" x="2060" y="-155.5" font-family="Helvetica,sans-Serif" font-size="10.00">/duplicates_model.hpp</text>
</a>
</g>
</g>
<!-- Node1&#45;&gt;Node73 -->
<g id="edge23" class="edge">
<title>Node1&#45;&gt;Node73</title>
<path fill="none" stroke="#63b8ff" d="M1956.6,-214.63C1978.32,-204.1 2008.11,-189.66 2030.14,-178.98"/>
<polygon fill="#63b8ff" stroke="#63b8ff" points="1955.19,-211.43 1947.72,-218.94 1958.24,-217.73 1955.19,-211.43"/>
</g>
<!-- Node75 -->
<g id="node22" class="node">
<title>Node75</title>
<g id="a_node22"><a xlink:href="../../da/db1/faces__model_8hpp.html" target="_top" xlink:title=" ">
<polygon fill="#fff0f0" stroke="red" points="2864,-101.5 2746,-101.5 2746,-71.5 2864,-71.5 2864,-101.5"/>
<text text-anchor="start" x="2754" y="-89.5" font-family="Helvetica,sans-Serif" font-size="10.00">src/gui/desktop/models</text>
<text text-anchor="middle" x="2805" y="-78.5" font-family="Helvetica,sans-Serif" font-size="10.00">/faces_model.hpp</text>
</a>
</g>
</g>
<!-- Node1&#45;&gt;Node75 -->
<g id="edge24" class="edge">
<title>Node1&#45;&gt;Node75</title>
<path fill="none" stroke="#63b8ff" d="M2007.76,-226.48C2188.86,-221.52 2620.25,-207.39 2682,-184 2728.7,-166.31 2771.81,-124.2 2792.37,-101.91"/>
<polygon fill="#63b8ff" stroke="#63b8ff" points="2007.87,-222.98 1997.97,-226.75 2008.06,-229.98 2007.87,-222.98"/>
</g>
<!-- Node76 -->
<g id="node23" class="node">
<title>Node76</title>
<g id="a_node23"><a xlink:href="../../da/dff/flat__model_8cpp.html" target="_top" xlink:title=" ">
<polygon fill="white" stroke="#666666" points="2293,-178.5 2175,-178.5 2175,-148.5 2293,-148.5 2293,-178.5"/>
<text text-anchor="start" x="2183" y="-166.5" font-family="Helvetica,sans-Serif" font-size="10.00">src/gui/desktop/models</text>
<text text-anchor="middle" x="2234" y="-155.5" font-family="Helvetica,sans-Serif" font-size="10.00">/flat_model.cpp</text>
</a>
</g>
</g>
<!-- Node1&#45;&gt;Node76 -->
<g id="edge25" class="edge">
<title>Node1&#45;&gt;Node76</title>
<path fill="none" stroke="#63b8ff" d="M1992.2,-217.53C2039.14,-209.19 2104.26,-196.98 2161,-184 2167.78,-182.45 2174.88,-180.71 2181.88,-178.91"/>
<polygon fill="#63b8ff" stroke="#63b8ff" points="1991.7,-214.06 1982.46,-219.25 1992.92,-220.95 1991.7,-214.06"/>
</g>
<!-- Node77 -->
<g id="node24" class="node">
<title>Node77</title>
<g id="a_node24"><a xlink:href="../../d4/d2d/photos__data__guesser_8hpp.html" target="_top" xlink:title=" ">
<polygon fill="#fff0f0" stroke="red" points="2442.5,-178.5 2311.5,-178.5 2311.5,-148.5 2442.5,-148.5 2442.5,-178.5"/>
<text text-anchor="start" x="2319.5" y="-166.5" font-family="Helvetica,sans-Serif" font-size="10.00">src/gui/desktop/models</text>
<text text-anchor="middle" x="2377" y="-155.5" font-family="Helvetica,sans-Serif" font-size="10.00">/photos_data_guesser.hpp</text>
</a>
</g>
</g>
<!-- Node1&#45;&gt;Node77 -->
<g id="edge27" class="edge">
<title>Node1&#45;&gt;Node77</title>
<path fill="none" stroke="#63b8ff" d="M2007.7,-222.18C2083.75,-215.41 2201.31,-202.99 2302,-184 2309.54,-182.58 2317.43,-180.82 2325.16,-178.95"/>
<polygon fill="#63b8ff" stroke="#63b8ff" points="2007.49,-218.68 1997.84,-223.05 2008.1,-225.66 2007.49,-218.68"/>
</g>
<!-- Node54 -->
<g id="node25" class="node">
<title>Node54</title>
<g id="a_node25"><a xlink:href="../../d7/d9a/series__model_8hpp.html" target="_top" xlink:title=" ">
<polygon fill="#fff0f0" stroke="red" points="2579,-178.5 2461,-178.5 2461,-148.5 2579,-148.5 2579,-178.5"/>
<text text-anchor="start" x="2469" y="-166.5" font-family="Helvetica,sans-Serif" font-size="10.00">src/gui/desktop/models</text>
<text text-anchor="middle" x="2520" y="-155.5" font-family="Helvetica,sans-Serif" font-size="10.00">/series_model.hpp</text>
</a>
</g>
</g>
<!-- Node1&#45;&gt;Node54 -->
<g id="edge28" class="edge">
<title>Node1&#45;&gt;Node54</title>
<path fill="none" stroke="#63b8ff" d="M2007.48,-226.44C2110.53,-222.7 2295.46,-212.33 2451,-184 2458.35,-182.66 2466.04,-180.88 2473.52,-178.94"/>
<polygon fill="#63b8ff" stroke="#63b8ff" points="2007.63,-222.93 1997.76,-226.78 2007.88,-229.93 2007.63,-222.93"/>
</g>
<!-- Node55 -->
<g id="node26" class="node">
<title>Node55</title>
<g id="a_node26"><a xlink:href="../../df/d50/mainwindow_8hpp.html" target="_top" xlink:title=" ">
<polygon fill="#fff0f0" stroke="red" points="2256,-101.5 2162,-101.5 2162,-71.5 2256,-71.5 2256,-101.5"/>
<text text-anchor="start" x="2170" y="-89.5" font-family="Helvetica,sans-Serif" font-size="10.00">src/gui/desktop/ui</text>
<text text-anchor="middle" x="2209" y="-78.5" font-family="Helvetica,sans-Serif" font-size="10.00">/mainwindow.hpp</text>
</a>
</g>
</g>
<!-- Node1&#45;&gt;Node55 -->
<g id="edge40" class="edge">
<title>Node1&#45;&gt;Node55</title>
<path fill="none" stroke="#63b8ff" d="M2007.5,-229.08C2174.39,-229.45 2549.12,-225.59 2588,-184 2600.44,-170.69 2600.15,-156.58 2588,-143 2539.84,-89.18 2335.43,-122.98 2265,-107 2259.08,-105.66 2252.91,-103.9 2246.92,-101.98"/>
<polygon fill="#63b8ff" stroke="#63b8ff" points="2007.86,-225.58 1997.85,-229.05 2007.84,-232.58 2007.86,-225.58"/>
</g>
<!-- Node79 -->
<g id="node27" class="node">
<title>Node79</title>
<g id="a_node27"><a xlink:href="../../d3/dc3/tags__operator_8hpp.html" target="_top" xlink:title=" ">
<polygon fill="#fff0f0" stroke="red" points="460,-178.5 342,-178.5 342,-148.5 460,-148.5 460,-178.5"/>
<text text-anchor="start" x="350" y="-166.5" font-family="Helvetica,sans-Serif" font-size="10.00">src/gui/desktop/models</text>
<text text-anchor="middle" x="401" y="-155.5" font-family="Helvetica,sans-Serif" font-size="10.00">/tags_operator.hpp</text>
</a>
</g>
</g>
<!-- Node1&#45;&gt;Node79 -->
<g id="edge33" class="edge">
<title>Node1&#45;&gt;Node79</title>
<path fill="none" stroke="#63b8ff" d="M1848.17,-228.68C1583.75,-228.85 738.07,-226.01 469,-184 461.23,-182.79 453.1,-180.96 445.27,-178.91"/>
<polygon fill="#63b8ff" stroke="#63b8ff" points="1848.06,-232.18 1858.06,-228.67 1848.06,-225.18 1848.06,-232.18"/>
</g>
<!-- Node57 -->
<g id="node28" class="node">
<title>Node57</title>
<g id="a_node28"><a xlink:href="../../df/dab/objects__accessor_8hpp.html" target="_top" xlink:title=" ">
<polygon fill="#fff0f0" stroke="red" points="2417.5,-101.5 2274.5,-101.5 2274.5,-71.5 2417.5,-71.5 2417.5,-101.5"/>
<text text-anchor="start" x="2282.5" y="-89.5" font-family="Helvetica,sans-Serif" font-size="10.00">src/gui/desktop/quick</text>
<text text-anchor="middle" x="2346" y="-78.5" font-family="Helvetica,sans-Serif" font-size="10.00">_items/objects_accessor.hpp</text>
</a>
</g>
</g>
<!-- Node1&#45;&gt;Node57 -->
<g id="edge35" class="edge">
<title>Node1&#45;&gt;Node57</title>
<path fill="none" stroke="#63b8ff" d="M2007.89,-229.24C2178.61,-229.99 2566.81,-226.91 2607,-184 2714.05,-69.71 2648.62,-156.25 2426,-107 2418.88,-105.43 2411.42,-103.7 2404.05,-101.96"/>
<polygon fill="#63b8ff" stroke="#63b8ff" points="2008,-225.74 1997.98,-229.19 2007.97,-232.74 2008,-225.74"/>
</g>
<!-- Node81 -->
<g id="node29" class="node">
<title>Node81</title>
<g id="a_node29"><a xlink:href="../../d8/d4e/photos__model__controller__component_8hpp.html" target="_top" xlink:title=" ">
<polygon fill="#fff0f0" stroke="red" points="2590.5,-107 2435.5,-107 2435.5,-66 2590.5,-66 2590.5,-107"/>
<text text-anchor="start" x="2443.5" y="-95" font-family="Helvetica,sans-Serif" font-size="10.00">src/gui/desktop/quick</text>
<text text-anchor="start" x="2443.5" y="-84" font-family="Helvetica,sans-Serif" font-size="10.00">_items/photos_model_controller</text>
<text text-anchor="middle" x="2513" y="-73" font-family="Helvetica,sans-Serif" font-size="10.00">_component.hpp</text>
</a>
</g>
</g>
<!-- Node1&#45;&gt;Node81 -->
<g id="edge37" class="edge">
<title>Node1&#45;&gt;Node81</title>
<path fill="none" stroke="#63b8ff" d="M2007.8,-226.42C2189.41,-221.29 2619.59,-206.79 2641,-184 2653.48,-170.72 2651,-158.23 2641,-143 2629.3,-125.18 2610.52,-113.05 2590.91,-104.81"/>
<polygon fill="#63b8ff" stroke="#63b8ff" points="2007.88,-222.91 1997.98,-226.69 2008.08,-229.91 2007.88,-222.91"/>
</g>
<!-- Node83 -->
<g id="node30" class="node">
<title>Node83</title>
<g id="a_node30"><a xlink:href="../../de/d11/batch__face__detector_8hpp.html" target="_top" xlink:title=" ">
<polygon fill="#fff0f0" stroke="red" points="3008,-101.5 2882,-101.5 2882,-71.5 3008,-71.5 3008,-101.5"/>
<text text-anchor="start" x="2890" y="-89.5" font-family="Helvetica,sans-Serif" font-size="10.00">src/gui/desktop/utils</text>
<text text-anchor="middle" x="2945" y="-78.5" font-family="Helvetica,sans-Serif" font-size="10.00">/batch_face_detector.hpp</text>
</a>
</g>
</g>
<!-- Node1&#45;&gt;Node83 -->
<g id="edge41" class="edge">
<title>Node1&#45;&gt;Node83</title>
<path fill="none" stroke="#63b8ff" d="M2007.72,-228.26C2254.7,-227.14 2992.75,-220.7 3028,-184 3040.62,-170.86 3036.59,-159.07 3028,-143 3018.03,-124.35 2998.72,-110.87 2981.22,-101.87"/>
<polygon fill="#63b8ff" stroke="#63b8ff" points="2007.83,-224.76 1997.84,-228.3 2007.86,-231.76 2007.83,-224.76"/>
</g>
<!-- Node85 -->
<g id="node31" class="node">
<title>Node85</title>
<g id="a_node31"><a xlink:href="../../d8/ddc/collection__scanner_8hpp.html" target="_top" xlink:title=" ">
<polygon fill="#fff0f0" stroke="red" points="2727.5,-101.5 2608.5,-101.5 2608.5,-71.5 2727.5,-71.5 2727.5,-101.5"/>
<text text-anchor="start" x="2616.5" y="-89.5" font-family="Helvetica,sans-Serif" font-size="10.00">src/gui/desktop/utils</text>
<text text-anchor="middle" x="2668" y="-78.5" font-family="Helvetica,sans-Serif" font-size="10.00">/collection_scanner.hpp</text>
</a>
</g>
</g>
<!-- Node1&#45;&gt;Node85 -->
<g id="edge42" class="edge">
<title>Node1&#45;&gt;Node85</title>
<path fill="none" stroke="#63b8ff" d="M2007.5,-226.44C2192.31,-221.26 2636.96,-206.54 2660,-184 2681.87,-162.6 2676.69,-122.86 2671.86,-101.67"/>
<polygon fill="#63b8ff" stroke="#63b8ff" points="2007.65,-222.93 1997.75,-226.71 2007.85,-229.93 2007.65,-222.93"/>
</g>
<!-- Node63 -->
<g id="node32" class="node">
<title>Node63</title>
<g id="a_node32"><a xlink:href="../../de/dcd/groups__manager_8cpp.html" target="_top" xlink:title=" ">
<polygon fill="white" stroke="#666666" points="3019,-178.5 2909,-178.5 2909,-148.5 3019,-148.5 3019,-178.5"/>
<text text-anchor="start" x="2917" y="-166.5" font-family="Helvetica,sans-Serif" font-size="10.00">src/gui/desktop/utils</text>
<text text-anchor="middle" x="2964" y="-155.5" font-family="Helvetica,sans-Serif" font-size="10.00">/groups_manager.cpp</text>
</a>
</g>
</g>
<!-- Node1&#45;&gt;Node63 -->
<g id="edge44" class="edge">
<title>Node1&#45;&gt;Node63</title>
<path fill="none" stroke="#63b8ff" d="M2007.63,-227.42C2207.99,-224.27 2729.25,-213.44 2900,-184 2907.21,-182.76 2914.75,-180.94 2922.02,-178.92"/>
<polygon fill="#63b8ff" stroke="#63b8ff" points="2007.78,-223.91 1997.84,-227.57 2007.89,-230.91 2007.78,-223.91"/>
</g>
<!-- Node86 -->
<g id="node33" class="node">
<title>Node86</title>
<g id="a_node33"><a xlink:href="../../de/d13/people__editor__impl_8hpp.html" target="_top" xlink:title=" ">
<polygon fill="#fff0f0" stroke="red" points="3143.5,-107 3026.5,-107 3026.5,-66 3143.5,-66 3143.5,-107"/>
<text text-anchor="start" x="3034.5" y="-95" font-family="Helvetica,sans-Serif" font-size="10.00">src/gui/desktop/utils</text>
<text text-anchor="start" x="3034.5" y="-84" font-family="Helvetica,sans-Serif" font-size="10.00">/implementation/people</text>
<text text-anchor="middle" x="3085" y="-73" font-family="Helvetica,sans-Serif" font-size="10.00">_editor_impl.hpp</text>
</a>
</g>
</g>
<!-- Node1&#45;&gt;Node86 -->
<g id="edge45" class="edge">
<title>Node1&#45;&gt;Node86</title>
<path fill="none" stroke="#63b8ff" d="M2007.69,-227.7C2256.48,-224.9 3004.75,-214.01 3047,-184 3071.81,-166.38 3080.42,-129.97 3083.41,-107.25"/>
<polygon fill="#63b8ff" stroke="#63b8ff" points="2007.7,-224.2 1997.74,-227.81 2007.78,-231.2 2007.7,-224.2"/>
</g>
<!-- Node87 -->
<g id="node34" class="node">
<title>Node87</title>
<g id="a_node34"><a xlink:href="../../df/d56/ithumbnails__manager_8hpp.html" target="_top" xlink:title=" ">
<polygon fill="#fff0f0" stroke="red" points="3281,-178.5 3151,-178.5 3151,-148.5 3281,-148.5 3281,-178.5"/>
<text text-anchor="start" x="3159" y="-166.5" font-family="Helvetica,sans-Serif" font-size="10.00">src/gui/desktop/utils</text>
<text text-anchor="middle" x="3216" y="-155.5" font-family="Helvetica,sans-Serif" font-size="10.00">/ithumbnails_manager.hpp</text>
</a>
</g>
</g>
<!-- Node1&#45;&gt;Node87 -->
<g id="edge46" class="edge">
<title>Node1&#45;&gt;Node87</title>
<path fill="none" stroke="#63b8ff" d="M2007.61,-227.7C2240.51,-225.02 2917.88,-214.74 3137,-184 3145.81,-182.76 3155.07,-180.95 3164.03,-178.93"/>
<polygon fill="#63b8ff" stroke="#63b8ff" points="2007.67,-224.2 1997.71,-227.81 2007.75,-231.2 2007.67,-224.2"/>
</g>
<!-- Node93 -->
<g id="node35" class="node">
<title>Node93</title>
<g id="a_node35"><a xlink:href="../../dc/d5f/thumbnail__manager_8hpp.html" target="_top" xlink:title=" ">
<polygon fill="#fff0f0" stroke="red" points="3284,-101.5 3162,-101.5 3162,-71.5 3284,-71.5 3284,-101.5"/>
<text text-anchor="start" x="3170" y="-89.5" font-family="Helvetica,sans-Serif" font-size="10.00">src/gui/desktop/utils</text>
<text text-anchor="middle" x="3223" y="-78.5" font-family="Helvetica,sans-Serif" font-size="10.00">/thumbnail_manager.hpp</text>
</a>
</g>
</g>
<!-- Node1&#45;&gt;Node93 -->
<g id="edge53" class="edge">
<title>Node1&#45;&gt;Node93</title>
<path fill="none" stroke="#63b8ff" d="M2007.35,-227.86C2250.39,-225.58 2974.12,-216.12 3075,-184 3088.99,-179.54 3164.87,-127.76 3202.21,-101.94"/>
<polygon fill="#63b8ff" stroke="#63b8ff" points="2007.63,-224.36 1997.66,-227.95 2007.69,-231.36 2007.63,-224.36"/>
</g>
<!-- Node95 -->
<g id="node36" class="node">
<title>Node95</title>
<g id="a_node36"><a xlink:href="../../d9/d19/people__editor_8hpp.html" target="_top" xlink:title=" ">
<polygon fill="#fff0f0" stroke="red" points="2891,-178.5 2787,-178.5 2787,-148.5 2891,-148.5 2891,-178.5"/>
<text text-anchor="start" x="2795" y="-166.5" font-family="Helvetica,sans-Serif" font-size="10.00">src/gui/desktop/utils</text>
<text text-anchor="middle" x="2839" y="-155.5" font-family="Helvetica,sans-Serif" font-size="10.00">/people_editor.hpp</text>
</a>
</g>
</g>
<!-- Node1&#45;&gt;Node95 -->
<g id="edge48" class="edge">
<title>Node1&#45;&gt;Node95</title>
<path fill="none" stroke="#63b8ff" d="M2007.6,-226.69C2188.75,-222.19 2627.35,-208.99 2773,-184 2780.3,-182.75 2787.94,-180.96 2795.32,-178.96"/>
<polygon fill="#63b8ff" stroke="#63b8ff" points="2007.73,-223.19 1997.82,-226.93 2007.9,-230.18 2007.73,-223.19"/>
</g>
<!-- Node96 -->
<g id="node37" class="node">
<title>Node96</title>
<g id="a_node37"><a xlink:href="../../d6/dcc/people__list__model_8cpp.html" target="_top" xlink:title=" ">
<polygon fill="white" stroke="#666666" points="3415,-178.5 3299,-178.5 3299,-148.5 3415,-148.5 3415,-178.5"/>
<text text-anchor="start" x="3307" y="-166.5" font-family="Helvetica,sans-Serif" font-size="10.00">src/gui/desktop/utils</text>
<text text-anchor="middle" x="3357" y="-155.5" font-family="Helvetica,sans-Serif" font-size="10.00">/people_list_model.cpp</text>
</a>
</g>
</g>
<!-- Node1&#45;&gt;Node96 -->
<g id="edge52" class="edge">
<title>Node1&#45;&gt;Node96</title>
<path fill="none" stroke="#63b8ff" d="M2007.64,-228.51C2260.1,-228.14 3040.63,-223.72 3290,-184 3297.54,-182.8 3305.42,-181.01 3313.03,-178.99"/>
<polygon fill="#63b8ff" stroke="#63b8ff" points="2007.88,-225.01 1997.89,-228.52 2007.89,-232.01 2007.88,-225.01"/>
</g>
<!-- Node97 -->
<g id="node38" class="node">
<title>Node97</title>
<g id="a_node38"><a xlink:href="../../d3/d62/mock__database_8hpp.html" target="_top" xlink:title=" ">
<polygon fill="#fff0f0" stroke="red" points="3540.5,-178.5 3433.5,-178.5 3433.5,-148.5 3540.5,-148.5 3540.5,-178.5"/>
<text text-anchor="start" x="3441.5" y="-166.5" font-family="Helvetica,sans-Serif" font-size="10.00">src/unit_tests_utils</text>
<text text-anchor="middle" x="3487" y="-155.5" font-family="Helvetica,sans-Serif" font-size="10.00">/mock_database.hpp</text>
</a>
</g>
</g>
<!-- Node1&#45;&gt;Node97 -->
<g id="edge55" class="edge">
<title>Node1&#45;&gt;Node97</title>
<path fill="none" stroke="#63b8ff" d="M2007.63,-228.96C2276.28,-230.08 3147.79,-229.98 3424,-184 3431.23,-182.8 3438.78,-180.98 3446.04,-178.92"/>
<polygon fill="#63b8ff" stroke="#63b8ff" points="2007.96,-225.46 1997.95,-228.92 2007.93,-232.46 2007.96,-225.46"/>
</g>
<!-- Node18&#45;&gt;Node22 -->
<g id="edge4" class="edge">
<title>Node18&#45;&gt;Node22</title>
<path fill="none" stroke="#63b8ff" d="M1113.7,-76.65C1145.47,-72.88 1183.59,-68.74 1218,-66 1608.12,-34.96 2080.74,-20.99 2229.7,-17.15"/>
<polygon fill="#63b8ff" stroke="#63b8ff" points="1113.32,-73.17 1103.81,-77.84 1114.16,-80.12 1113.32,-73.17"/>
</g>
<!-- Node25&#45;&gt;Node26 -->
<g id="edge6" class="edge">
<title>Node25&#45;&gt;Node26</title>
<path fill="none" stroke="#63b8ff" d="M817.88,-137C815.55,-127.3 812.94,-116.4 810.75,-107.3"/>
<polygon fill="#63b8ff" stroke="#63b8ff" points="814.44,-137.66 820.18,-146.57 821.25,-136.03 814.44,-137.66"/>
</g>
<!-- Node29&#45;&gt;Node31 -->
<g id="edge8" class="edge">
<title>Node29&#45;&gt;Node31</title>
<path fill="none" stroke="#63b8ff" d="M566.68,-137.46C571.72,-125.65 577.56,-111.97 581.85,-101.92"/>
<polygon fill="#63b8ff" stroke="#63b8ff" points="563.47,-136.08 562.76,-146.65 569.91,-138.82 563.47,-136.08"/>
</g>
<!-- Node29&#45;&gt;Node34 -->
<g id="edge9" class="edge">
<title>Node29&#45;&gt;Node34</title>
<path fill="none" stroke="#63b8ff" d="M518.68,-142.79C494.4,-129.96 463.27,-113.52 441.29,-101.92"/>
<polygon fill="#63b8ff" stroke="#63b8ff" points="516.81,-145.76 527.28,-147.33 520.07,-139.57 516.81,-145.76"/>
</g>
<!-- Node34&#45;&gt;Node35 -->
<g id="edge10" class="edge">
<title>Node34&#45;&gt;Node35</title>
<path fill="none" stroke="#63b8ff" d="M458.05,-66.72C484.86,-55.29 518.58,-40.91 543.27,-30.38"/>
<polygon fill="#63b8ff" stroke="#63b8ff" points="456.99,-63.36 449.17,-70.51 459.74,-69.8 456.99,-63.36"/>
</g>
<!-- Node40&#45;&gt;Node51 -->
<g id="edge15" class="edge">
<title>Node40&#45;&gt;Node51</title>
<path fill="none" stroke="#63b8ff" d="M1335.67,-138.91C1344.24,-126.78 1354.41,-112.38 1361.81,-101.92"/>
<polygon fill="#63b8ff" stroke="#63b8ff" points="1333.01,-136.62 1330.09,-146.8 1338.72,-140.66 1333.01,-136.62"/>
</g>
<!-- Node68&#45;&gt;Node43 -->
<g id="edge17" class="edge">
<title>Node68&#45;&gt;Node43</title>
<path fill="none" stroke="#63b8ff" d="M1647,-136.73C1647,-125.08 1647,-111.76 1647,-101.92"/>
<polygon fill="#63b8ff" stroke="#63b8ff" points="1643.5,-136.53 1647,-146.53 1650.5,-136.53 1643.5,-136.53"/>
</g>
<!-- Node70&#45;&gt;Node43 -->
<g id="edge20" class="edge">
<title>Node70&#45;&gt;Node43</title>
<path fill="none" stroke="#63b8ff" d="M1535.34,-142.96C1561.21,-130.11 1594.5,-113.58 1617.98,-101.92"/>
<polygon fill="#63b8ff" stroke="#63b8ff" points="1533.87,-139.78 1526.47,-147.37 1536.98,-146.05 1533.87,-139.78"/>
</g>
<!-- Node54&#45;&gt;Node55 -->
<g id="edge29" class="edge">
<title>Node54&#45;&gt;Node55</title>
<path fill="none" stroke="#63b8ff" d="M2459.87,-145.19C2456.88,-144.42 2453.91,-143.69 2451,-143 2369.08,-123.53 2346.3,-128.9 2265,-107 2259.53,-105.53 2253.83,-103.79 2248.24,-101.96"/>
<polygon fill="#63b8ff" stroke="#63b8ff" points="2458.73,-148.5 2469.29,-147.65 2460.51,-141.73 2458.73,-148.5"/>
</g>
<!-- Node55&#45;&gt;Node22 -->
<g id="edge30" class="edge">
<title>Node55&#45;&gt;Node22</title>
<path fill="none" stroke="#63b8ff" d="M2231.03,-62.98C2241.51,-52.28 2253.72,-39.79 2262.93,-30.38"/>
<polygon fill="#63b8ff" stroke="#63b8ff" points="2228.64,-60.42 2224.15,-70.02 2233.64,-65.32 2228.64,-60.42"/>
</g>
<!-- Node79&#45;&gt;Node34 -->
<g id="edge34" class="edge">
<title>Node79&#45;&gt;Node34</title>
<path fill="none" stroke="#63b8ff" d="M405.47,-136.73C407.49,-125.08 409.79,-111.76 411.5,-101.92"/>
<polygon fill="#63b8ff" stroke="#63b8ff" points="402.02,-136.1 403.77,-146.55 408.92,-137.29 402.02,-136.1"/>
</g>
<!-- Node57&#45;&gt;Node22 -->
<g id="edge36" class="edge">
<title>Node57&#45;&gt;Node22</title>
<path fill="none" stroke="#63b8ff" d="M2323.65,-62.98C2313.01,-52.28 2300.62,-39.79 2291.28,-30.38"/>
<polygon fill="#63b8ff" stroke="#63b8ff" points="2321.11,-65.39 2330.64,-70.03 2326.08,-60.46 2321.11,-65.39"/>
</g>
<!-- Node81&#45;&gt;Node22 -->
<g id="edge38" class="edge">
<title>Node81&#45;&gt;Node22</title>
<path fill="none" stroke="#63b8ff" d="M2434.75,-62.45C2398.24,-51.71 2356,-39.26 2324.42,-29.96"/>
<polygon fill="#63b8ff" stroke="#63b8ff" points="2433.34,-65.69 2443.92,-65.16 2435.32,-58.97 2433.34,-65.69"/>
</g>
<!-- Node85&#45;&gt;Node22 -->
<g id="edge43" class="edge">
<title>Node85&#45;&gt;Node22</title>
<path fill="none" stroke="#63b8ff" d="M2608.57,-68.21C2605.34,-67.43 2602.14,-66.68 2599,-66 2502.27,-44.9 2387.32,-29.28 2324.26,-21.51"/>
<polygon fill="#63b8ff" stroke="#63b8ff" points="2607.54,-71.56 2618.09,-70.64 2609.26,-64.78 2607.54,-71.56"/>
</g>
<!-- Node87&#45;&gt;Node93 -->
<g id="edge47" class="edge">
<title>Node87&#45;&gt;Node93</title>
<path fill="none" stroke="#63b8ff" d="M3218.41,-136.73C3219.49,-125.08 3220.74,-111.76 3221.65,-101.92"/>
<polygon fill="#63b8ff" stroke="#63b8ff" points="3214.93,-136.25 3217.49,-146.53 3221.9,-136.9 3214.93,-136.25"/>
</g>
<!-- Node95&#45;&gt;Node75 -->
<g id="edge49" class="edge">
<title>Node95&#45;&gt;Node75</title>
<path fill="none" stroke="#63b8ff" d="M2827.81,-137.83C2822.42,-125.93 2816.14,-112.07 2811.54,-101.92"/>
<polygon fill="#63b8ff" stroke="#63b8ff" points="2824.5,-139 2831.82,-146.66 2830.88,-136.11 2824.5,-139"/>
</g>
<!-- Node95&#45;&gt;Node83 -->
<g id="edge50" class="edge">
<title>Node95&#45;&gt;Node83</title>
<path fill="none" stroke="#63b8ff" d="M2868.82,-141.4C2886.64,-128.8 2908.8,-113.11 2924.62,-101.92"/>
<polygon fill="#63b8ff" stroke="#63b8ff" points="2866.82,-138.53 2860.67,-147.17 2870.86,-144.25 2866.82,-138.53"/>
</g>
<!-- Node95&#45;&gt;Node86 -->
<g id="edge51" class="edge">
<title>Node95&#45;&gt;Node86</title>
<path fill="none" stroke="#63b8ff" d="M2894.56,-144.69C2896.39,-144.12 2898.21,-143.55 2900,-143 2942.12,-129.95 2989.78,-115.66 3026.18,-104.85"/>
<polygon fill="#63b8ff" stroke="#63b8ff" points="2893.88,-141.24 2885.39,-147.58 2895.98,-147.92 2893.88,-141.24"/>
</g>
</g>
</svg>
