<?xml version="1.0" encoding="UTF-8" standalone="no"?>
<!DOCTYPE svg PUBLIC "-//W3C//DTD SVG 1.1//EN"
 "http://www.w3.org/Graphics/SVG/1.1/DTD/svg11.dtd">
<!-- Generated by graphviz version 12.2.0 (20241103.1931)
 -->
<!-- Title: ITagInfoCollector::setOfValuesChanged Pages: 1 -->
<svg width="308pt" height="76pt"
 viewBox="0.00 0.00 307.75 75.88" xmlns="http://www.w3.org/2000/svg" xmlns:xlink="http://www.w3.org/1999/xlink">
<g id="graph0" class="graph" transform="scale(1 1) rotate(0) translate(4 71.88)">
<title>ITagInfoCollector::setOfValuesChanged</title>
<!-- Node1 -->
<g id="Node000001" class="node">
<title>Node1</title>
<g id="a_Node000001"><a xlink:title=" ">
<polygon fill="#999999" stroke="#666666" points="299.75,-45.88 191.5,-45.88 191.5,-15.37 299.75,-15.37 299.75,-45.88"/>
<text text-anchor="start" x="199.5" y="-32.38" font-family="Helvetica,sans-Serif" font-size="10.00">ITagInfoCollector::</text>
<text text-anchor="middle" x="245.62" y="-21.12" font-family="Helvetica,sans-Serif" font-size="10.00">setOfValuesChanged</text>
</a>
</g>
</g>
<!-- Node2 -->
<g id="Node000002" class="node">
<title>Node2</title>
<g id="a_Node000002"><a xlink:href="../../d6/d99/class_tag_info_collector.html#abf40d1de87194feee9c0b1a23172ff12" target="_top" xlink:title=" ">
<polygon fill="#fff0f0" stroke="red" points="138.62,-67.88 16.87,-67.88 16.87,-37.38 138.62,-37.38 138.62,-67.88"/>
<text text-anchor="start" x="24.88" y="-54.38" font-family="Helvetica,sans-Serif" font-size="10.00">TagInfoCollector::gotTag</text>
<text text-anchor="middle" x="77.75" y="-43.12" font-family="Helvetica,sans-Serif" font-size="10.00">Values</text>
</a>
</g>
</g>
<!-- Node1&#45;&gt;Node2 -->
<g id="edge1_Node000001_Node000002" class="edge">
<title>Node1&#45;&gt;Node2</title>
<g id="a_edge1_Node000001_Node000002"><a xlink:title=" ">
<path fill="none" stroke="#63b8ff" d="M180.06,-39.19C166.53,-40.98 152.32,-42.87 138.96,-44.64"/>
<polygon fill="#63b8ff" stroke="#63b8ff" points="180.27,-42.69 189.73,-37.91 179.35,-35.75 180.27,-42.69"/>
</a>
</g>
</g>
<!-- Node10 -->
<g id="Node000010" class="node">
<title>Node10</title>
<g id="a_Node000010"><a xlink:href="../../df/da1/class_tag_value_model.html#a811947ec1fcd6edd962f6fd581fe72b4" target="_top" xlink:title=" ">
<polygon fill="white" stroke="#666666" points="155.5,-19.25 0,-19.25 0,0 155.5,0 155.5,-19.25"/>
<text text-anchor="middle" x="77.75" y="-5.75" font-family="Helvetica,sans-Serif" font-size="10.00">TagValueModel::TagValueModel</text>
</a>
</g>
</g>
<!-- Node1&#45;&gt;Node10 -->
<g id="edge2_Node000001_Node000010" class="edge">
<title>Node1&#45;&gt;Node10</title>
<g id="a_edge2_Node000001_Node000010"><a xlink:title=" ">
<path fill="none" stroke="#63b8ff" d="M179.9,-22.43C172.03,-21.43 163.93,-20.41 155.9,-19.39"/>
<polygon fill="#63b8ff" stroke="#63b8ff" points="179.37,-25.89 189.73,-23.67 180.25,-18.95 179.37,-25.89"/>
</a>
</g>
</g>
</g>
</svg>
