<?xml version="1.0" encoding="UTF-8" standalone="no"?>
<!DOCTYPE svg PUBLIC "-//W3C//DTD SVG 1.1//EN"
 "http://www.w3.org/Graphics/SVG/1.1/DTD/svg11.dtd">
<!-- Generated by graphviz version 12.2.0 (20241103.1931)
 -->
<!-- Title: src/core/configuration.hpp Pages: 1 -->
<svg width="260pt" height="94pt"
 viewBox="0.00 0.00 259.88 93.75" xmlns="http://www.w3.org/2000/svg" xmlns:xlink="http://www.w3.org/1999/xlink">
<g id="graph0" class="graph" transform="scale(1 1) rotate(0) translate(4 89.75)">
<title>src/core/configuration.hpp</title>
<!-- Node1 -->
<g id="Node000001" class="node">
<title>Node1</title>
<g id="a_Node000001"><a xlink:title=" ">
<polygon fill="#999999" stroke="#666666" points="187.25,-85.75 60.25,-85.75 60.25,-66.5 187.25,-66.5 187.25,-85.75"/>
<text text-anchor="middle" x="123.75" y="-72.25" font-family="Helvetica,sans-Serif" font-size="10.00">src/core/configuration.hpp</text>
</a>
</g>
</g>
<!-- Node2 -->
<g id="Node000002" class="node">
<title>Node2</title>
<g id="a_Node000002"><a xlink:href="../../df/db0/config__storage_8hpp.html" target="_top" xlink:title=" ">
<polygon fill="#fff0f0" stroke="red" points="113.5,-24.88 0,-24.88 0,-5.63 113.5,-5.63 113.5,-24.88"/>
<text text-anchor="middle" x="56.75" y="-11.38" font-family="Helvetica,sans-Serif" font-size="10.00">src/config_storage.hpp</text>
</a>
</g>
</g>
<!-- Node1&#45;&gt;Node2 -->
<g id="edge1_Node000001_Node000002" class="edge">
<title>Node1&#45;&gt;Node2</title>
<g id="a_edge1_Node000001_Node000002"><a xlink:title=" ">
<path fill="none" stroke="#63b8ff" d="M104.97,-58.62C92.68,-47.82 77.09,-34.12 67.02,-25.28"/>
<polygon fill="#63b8ff" stroke="#63b8ff" points="102.61,-61.21 112.44,-65.18 107.24,-55.95 102.61,-61.21"/>
</a>
</g>
</g>
<!-- Node5 -->
<g id="Node000005" class="node">
<title>Node5</title>
<g id="a_Node000005"><a xlink:href="../../df/d22/configuration_8cpp.html" target="_top" xlink:title=" ">
<polygon fill="white" stroke="#666666" points="251.88,-30.5 131.62,-30.5 131.62,0 251.88,0 251.88,-30.5"/>
<text text-anchor="start" x="139.62" y="-17" font-family="Helvetica,sans-Serif" font-size="10.00">src/core/implementation</text>
<text text-anchor="middle" x="191.75" y="-5.75" font-family="Helvetica,sans-Serif" font-size="10.00">/configuration.cpp</text>
</a>
</g>
</g>
<!-- Node1&#45;&gt;Node5 -->
<g id="edge2_Node000001_Node000005" class="edge">
<title>Node1&#45;&gt;Node5</title>
<g id="a_edge2_Node000001_Node000005"><a xlink:title=" ">
<path fill="none" stroke="#63b8ff" d="M142.62,-58.79C152.76,-50.01 165.16,-39.27 174.97,-30.78"/>
<polygon fill="#63b8ff" stroke="#63b8ff" points="140.49,-56 135.22,-65.19 145.07,-61.29 140.49,-56"/>
</a>
</g>
</g>
</g>
</svg>
