<?xml version="1.0" encoding="UTF-8" standalone="no"?>
<!DOCTYPE svg PUBLIC "-//W3C//DTD SVG 1.1//EN"
 "http://www.w3.org/Graphics/SVG/1.1/DTD/svg11.dtd">
<!-- Generated by graphviz version 9.0.0 (20230911.1827)
 -->
<!-- Title: OrientedImage::get Pages: 1 -->
<svg width="294pt" height="199pt"
 viewBox="0.00 0.00 294.25 198.88" xmlns="http://www.w3.org/2000/svg" xmlns:xlink="http://www.w3.org/1999/xlink">

<svg id="main" version="1.1" xmlns="http://www.w3.org/2000/svg" xmlns:xlink="http://www.w3.org/1999/xlink" xml:space="preserve" onload="init(evt)">
<style type="text/css"><![CDATA[
.node, .edge {opacity: 0.7;}
.node.selected, .edge.selected {opacity: 1;}
.edge:hover path { stroke: red; }
.edge:hover polygon { stroke: red; fill: red; }
]]></style>
<script type="application/ecmascript" xlink:href="../../svg.min.js"/>
<svg id="graph" class="graph">
<g id="graph0" class="graph" transform="scale(1 1) rotate(0) translate(4 194.88)">
<title>OrientedImage::get</title>
<!-- Node1 -->
<g id="Node000001" class="node">
<title>Node1</title>
<g id="a_Node000001"><a xlink:title=" ">
<polygon fill="#999999" stroke="#666666" points="286.25,-116.88 188.5,-116.88 188.5,-97.62 286.25,-97.62 286.25,-116.88"/>
<text text-anchor="middle" x="237.38" y="-103.38" font-family="Helvetica,sans-Serif" font-size="10.00">OrientedImage::get</text>
</a>
</g>
</g>
<!-- Node2 -->
<g id="Node000002" class="node">
<title>Node2</title>
<g id="a_Node000002"><a xlink:href="../../de/d37/class_face_recognition.html#ab4e15e6c3e616667525b0c39c95901e6" target="_top" xlink:title=" ">
<polygon fill="white" stroke="#666666" points="147.25,-190.88 5.25,-190.88 5.25,-171.62 147.25,-171.62 147.25,-190.88"/>
<text text-anchor="middle" x="76.25" y="-177.38" font-family="Helvetica,sans-Serif" font-size="10.00">FaceRecognition::fetchFaces</text>
</a>
</g>
</g>
<!-- Node1&#45;&gt;Node2 -->
<g id="edge1_Node000001_Node000002" class="edge">
<title>Node1&#45;&gt;Node2</title>
<g id="a_edge1_Node000001_Node000002"><a xlink:title=" ">
<path fill="none" stroke="#63b8ff" d="M215.74,-124.07C199.46,-136.56 175.7,-153.12 152.5,-163.25 145.36,-166.37 137.59,-169 129.85,-171.2"/>
<polygon fill="#63b8ff" stroke="#63b8ff" points="217.5,-127.14 223.21,-118.2 213.18,-121.63 217.5,-127.14"/>
</a>
</g>
</g>
<!-- Node3 -->
<g id="Node000003" class="node">
<title>Node3</title>
<g id="a_Node000003"><a xlink:href="../../de/d37/class_face_recognition.html#a1f8d75f210b991bf5bfb6e05c6c8c4a0" target="_top" xlink:title=" ">
<polygon fill="white" stroke="#666666" points="152.5,-153.88 0,-153.88 0,-134.62 152.5,-134.62 152.5,-153.88"/>
<text text-anchor="middle" x="76.25" y="-140.38" font-family="Helvetica,sans-Serif" font-size="10.00">FaceRecognition::getFingerprint</text>
</a>
</g>
</g>
<!-- Node1&#45;&gt;Node3 -->
<g id="edge2_Node000001_Node000003" class="edge">
<title>Node1&#45;&gt;Node3</title>
<g id="a_edge2_Node000001_Node000003"><a xlink:title=" ">
<path fill="none" stroke="#63b8ff" d="M181.77,-119.95C161.82,-124.59 139.53,-129.77 120.68,-134.15"/>
<polygon fill="#63b8ff" stroke="#63b8ff" points="182.47,-123.38 191.42,-117.7 180.89,-116.56 182.47,-123.38"/>
</a>
</g>
</g>
<!-- Node4 -->
<g id="Node000004" class="node">
<title>Node4</title>
<g id="a_Node000004"><a xlink:href="../../d5/dab/namespace_image.html#ab62c6b452c8504fc9824b07ab09540b3" target="_top" xlink:title=" ">
<polygon fill="white" stroke="#666666" points="120.62,-116.88 31.88,-116.88 31.88,-97.62 120.62,-97.62 120.62,-116.88"/>
<text text-anchor="middle" x="76.25" y="-103.38" font-family="Helvetica,sans-Serif" font-size="10.00">Image::normalize</text>
</a>
</g>
</g>
<!-- Node1&#45;&gt;Node4 -->
<g id="edge3_Node000001_Node000004" class="edge">
<title>Node1&#45;&gt;Node4</title>
<g id="a_edge3_Node000001_Node000004"><a xlink:title=" ">
<path fill="none" stroke="#63b8ff" d="M176.88,-107.25C158.32,-107.25 138.2,-107.25 120.93,-107.25"/>
<polygon fill="#63b8ff" stroke="#63b8ff" points="176.69,-110.75 186.69,-107.25 176.69,-103.75 176.69,-110.75"/>
</a>
</g>
</g>
<!-- Node5 -->
<g id="Node000005" class="node">
<title>Node5</title>
<g id="a_Node000005"><a xlink:href="../../dc/dc9/class_generator_utils_1_1_breakable_task.html#a32d1b87cb6dcd42a9d9a860d3fcae8f3" target="_top" xlink:title=" ">
<polygon fill="#fff0f0" stroke="red" points="139.75,-79.5 12.75,-79.5 12.75,-49 139.75,-49 139.75,-79.5"/>
<text text-anchor="start" x="20.75" y="-66" font-family="Helvetica,sans-Serif" font-size="10.00">GeneratorUtils::Breakable</text>
<text text-anchor="middle" x="76.25" y="-54.75" font-family="Helvetica,sans-Serif" font-size="10.00">Task::preparePhotos</text>
</a>
</g>
</g>
<!-- Node1&#45;&gt;Node5 -->
<g id="edge4_Node000001_Node000005" class="edge">
<title>Node1&#45;&gt;Node5</title>
<g id="a_edge4_Node000001_Node000005"><a xlink:title=" ">
<path fill="none" stroke="#63b8ff" d="M187.99,-94.18C171.44,-89.7 152.75,-84.65 135.5,-79.99"/>
<polygon fill="#63b8ff" stroke="#63b8ff" points="187.04,-97.54 197.61,-96.77 188.87,-90.79 187.04,-97.54"/>
</a>
</g>
</g>
<!-- Node8 -->
<g id="Node000008" class="node">
<title>Node8</title>
<g id="a_Node000008"><a xlink:href="../../d7/d27/class_thumbnail_generator.html#a3af9631b0f90b5eccc29e2df79a90e0f" target="_top" xlink:title=" ">
<polygon fill="#fff0f0" stroke="red" points="134.5,-30.5 18,-30.5 18,0 134.5,0 134.5,-30.5"/>
<text text-anchor="start" x="26" y="-17" font-family="Helvetica,sans-Serif" font-size="10.00">ThumbnailGenerator</text>
<text text-anchor="middle" x="76.25" y="-5.75" font-family="Helvetica,sans-Serif" font-size="10.00">::readFrameFromImage</text>
</a>
</g>
</g>
<!-- Node1&#45;&gt;Node8 -->
<g id="edge5_Node000001_Node000008" class="edge">
<title>Node1&#45;&gt;Node8</title>
<g id="a_edge5_Node000001_Node000008"><a xlink:title=" ">
<path fill="none" stroke="#63b8ff" d="M218.38,-89.72C202.26,-74.82 177.38,-53.76 152.5,-40.25 146.09,-36.77 139.11,-33.66 132.06,-30.91"/>
<polygon fill="#63b8ff" stroke="#63b8ff" points="215.61,-91.91 225.28,-96.23 220.41,-86.82 215.61,-91.91"/>
</a>
</g>
</g>
</g>
</svg>
</svg>

<style type='text/css'>
<![CDATA[
[data-mouse-over-selected='false'] { opacity: 0.7; }
[data-mouse-over-selected='true']  { opacity: 1.0; }
]]>
</style>
<script type="application/ecmascript"><![CDATA[
document.addEventListener('DOMContentLoaded', (event) => {
  highlightEdges();
  highlightAdjacentNodes();
});
]]></script>
</svg>
