<?xml version="1.0" encoding="UTF-8" standalone="no"?>
<!DOCTYPE svg PUBLIC "-//W3C//DTD SVG 1.1//EN"
 "http://www.w3.org/Graphics/SVG/1.1/DTD/svg11.dtd">
<!-- Generated by graphviz version 12.2.0 (20241103.1931)
 -->
<!-- Title: register_qml_types Pages: 1 -->
<svg width="192pt" height="45pt"
 viewBox="0.00 0.00 192.25 45.25" xmlns="http://www.w3.org/2000/svg" xmlns:xlink="http://www.w3.org/1999/xlink">
<g id="graph0" class="graph" transform="scale(1 1) rotate(0) translate(4 41.25)">
<title>register_qml_types</title>
<!-- Node1 -->
<g id="Node000001" class="node">
<title>Node1</title>
<g id="a_Node000001"><a xlink:title=" ">
<polygon fill="#999999" stroke="#666666" points="184.25,-19.25 86.5,-19.25 86.5,0 184.25,0 184.25,-19.25"/>
<text text-anchor="middle" x="135.38" y="-5.75" font-family="Helvetica,sans-Serif" font-size="10.00">register_qml_types</text>
</a>
</g>
</g>
<!-- Node2 -->
<g id="Node000002" class="node">
<title>Node2</title>
<g id="a_Node000002"><a xlink:href="../../d6/dd6/struct_gui.html#a081e29e8e0411580fff4aba85760efc7" target="_top" xlink:title=" ">
<polygon fill="white" stroke="#666666" points="50.5,-19.25 0,-19.25 0,0 50.5,0 50.5,-19.25"/>
<text text-anchor="middle" x="25.25" y="-5.75" font-family="Helvetica,sans-Serif" font-size="10.00">Gui::Gui</text>
</a>
</g>
</g>
<!-- Node1&#45;&gt;Node2 -->
<g id="edge1_Node000001_Node000002" class="edge">
<title>Node1&#45;&gt;Node2</title>
<g id="a_edge1_Node000001_Node000002"><a xlink:title=" ">
<path fill="none" stroke="#63b8ff" d="M74.58,-9.62C66.23,-9.62 58.07,-9.62 50.9,-9.62"/>
<polygon fill="#63b8ff" stroke="#63b8ff" points="74.49,-13.13 84.49,-9.63 74.49,-6.13 74.49,-13.13"/>
</a>
</g>
</g>
<!-- Node2&#45;&gt;Node2 -->
<g id="edge2_Node000002_Node000002" class="edge">
<title>Node2&#45;&gt;Node2</title>
<g id="a_edge2_Node000002_Node000002"><a xlink:title=" ">
<path fill="none" stroke="#63b8ff" d="M44.8,-30.65C42.35,-34.53 35.84,-37.25 25.25,-37.25 5.89,-37.25 0.15,-28.15 8.01,-19.54"/>
<polygon fill="#63b8ff" stroke="#63b8ff" points="48.26,-30.1 42.8,-21.02 41.4,-31.52 48.26,-30.1"/>
</a>
</g>
</g>
</g>
</svg>
