<?xml version="1.0" encoding="UTF-8" standalone="no"?>
<!DOCTYPE svg PUBLIC "-//W3C//DTD SVG 1.1//EN"
 "http://www.w3.org/Graphics/SVG/1.1/DTD/svg11.dtd">
<!-- Generated by graphviz version 12.2.0 (20241103.1931)
 -->
<!-- Title: src/core/implementation/model_compositor.cpp Pages: 1 -->
<svg width="190pt" height="94pt"
 viewBox="0.00 0.00 190.00 93.75" xmlns="http://www.w3.org/2000/svg" xmlns:xlink="http://www.w3.org/1999/xlink">
<g id="graph0" class="graph" transform="scale(1 1) rotate(0) translate(4 89.75)">
<title>src/core/implementation/model_compositor.cpp</title>
<!-- Node1 -->
<g id="Node000001" class="node">
<title>Node1</title>
<g id="a_Node000001"><a xlink:title=" ">
<polygon fill="#999999" stroke="#666666" points="166.88,-85.75 46.62,-85.75 46.62,-55.25 166.88,-55.25 166.88,-85.75"/>
<text text-anchor="start" x="54.62" y="-72.25" font-family="Helvetica,sans-Serif" font-size="10.00">src/core/implementation</text>
<text text-anchor="middle" x="106.75" y="-61" font-family="Helvetica,sans-Serif" font-size="10.00">/model_compositor.cpp</text>
</a>
</g>
</g>
<!-- Node2 -->
<g id="Node000002" class="node">
<title>Node2</title>
<g id="a_Node000002"><a xlink:href="../../d5/d1f/model__compositor_8hpp.html" target="_top" xlink:title=" ">
<polygon fill="#fff0f0" stroke="red" points="113.5,-19.25 0,-19.25 0,0 113.5,0 113.5,-19.25"/>
<text text-anchor="middle" x="56.75" y="-5.75" font-family="Helvetica,sans-Serif" font-size="10.00">model_compositor.hpp</text>
</a>
</g>
</g>
<!-- Node1&#45;&gt;Node2 -->
<g id="edge1_Node000001_Node000002" class="edge">
<title>Node1&#45;&gt;Node2</title>
<g id="a_edge1_Node000001_Node000002"><a xlink:title=" ">
<path fill="none" stroke="#63b8ff" d="M94.39,-54.95C87.58,-46.93 79.08,-36.92 71.88,-28.44"/>
<polygon fill="#63b8ff" stroke="#63b8ff" points="74.58,-26.21 65.44,-20.85 69.24,-30.74 74.58,-26.21"/>
</a>
</g>
</g>
<!-- Node7 -->
<g id="Node000007" class="node">
<title>Node7</title>
<g id="a_Node000007"><a xlink:title=" ">
<polygon fill="#e0e0e0" stroke="#999999" points="182,-19.25 131.5,-19.25 131.5,0 182,0 182,-19.25"/>
<text text-anchor="middle" x="156.75" y="-5.75" font-family="Helvetica,sans-Serif" font-size="10.00">numeric</text>
</a>
</g>
</g>
<!-- Node1&#45;&gt;Node7 -->
<g id="edge2_Node000001_Node000007" class="edge">
<title>Node1&#45;&gt;Node7</title>
<g id="a_edge2_Node000001_Node000007"><a xlink:title=" ">
<path fill="none" stroke="#63b8ff" d="M119.11,-54.95C125.92,-46.93 134.42,-36.92 141.62,-28.44"/>
<polygon fill="#63b8ff" stroke="#63b8ff" points="144.26,-30.74 148.06,-20.85 138.92,-26.21 144.26,-30.74"/>
</a>
</g>
</g>
</g>
</svg>
