<?xml version="1.0" encoding="UTF-8" standalone="no"?>
<!DOCTYPE svg PUBLIC "-//W3C//DTD SVG 1.1//EN"
 "http://www.w3.org/Graphics/SVG/1.1/DTD/svg11.dtd">
<!-- Generated by graphviz version 9.0.0 (20230911.1827)
 -->
<!-- Title: ThumbnailManager::fetch Pages: 1 -->
<!--zoomable 494 -->

<svg id="main" version="1.1" xmlns="http://www.w3.org/2000/svg" xmlns:xlink="http://www.w3.org/1999/xlink" xml:space="preserve" onload="init(evt)">
<style type="text/css"><![CDATA[
.node, .edge {opacity: 0.7;}
.node.selected, .edge.selected {opacity: 1;}
.edge:hover path { stroke: red; }
.edge:hover polygon { stroke: red; fill: red; }
]]></style>

<defs>
  <circle id="rim" cx="0" cy="0" r="7"/>
  <circle id="rim2" cx="0" cy="0" r="3.5"/>
  <g id="zoomPlus">
    <use xlink:href="#rim" fill="#404040"><set attributeName="fill" to="#808080" begin="zoomplus.mouseover" end="zoomplus.mouseout"/></use>
    <path d="M-4,0h8M0,-4v8" fill="none" stroke="white" stroke-width="1.5" pointer-events="none"/>
  </g>
  <g id="zoomMin">
    <use xlink:href="#rim" fill="#404040"><set attributeName="fill" to="#808080" begin="zoomminus.mouseover" end="zoomminus.mouseout"/></use>
    <path d="M-4,0h8" fill="none" stroke="white" stroke-width="1.5" pointer-events="none"/>
  </g>
  <g id="arrowUp" transform="translate(30 24)">
    <use xlink:href="#rim"/>
    <path pointer-events="none" fill="none" stroke="white" stroke-width="1.5" d="M0,-3.0v7 M-2.5,-0.5L0,-3.0L2.5,-0.5"/>
  </g>
  <g id="arrowRight" transform="rotate(90) translate(36 -43)">
    <use xlink:href="#rim"/>
    <path pointer-events="none" fill="none" stroke="white" stroke-width="1.5" d="M0,-3.0v7 M-2.5,-0.5L0,-3.0L2.5,-0.5"/>
  </g>
  <g id="arrowDown" transform="rotate(180) translate(-30 -48)">
    <use xlink:href="#rim"/>
    <path pointer-events="none" fill="none" stroke="white" stroke-width="1.5" d="M0,-3.0v7 M-2.5,-0.5L0,-3.0L2.5,-0.5"/>
  </g>
  <g id="arrowLeft" transform="rotate(270) translate(-36 17)">
    <use xlink:href="#rim"/>
    <path pointer-events="none" fill="none" stroke="white" stroke-width="1.5" d="M0,-3.0v7 M-2.5,-0.5L0,-3.0L2.5,-0.5"/>
  </g>
  <g id="resetDef">
    <use xlink:href="#rim2" fill="#404040"><set attributeName="fill" to="#808080" begin="reset.mouseover" end="reset.mouseout"/></use>
  </g>
</defs>
<script type="application/ecmascript">
var viewWidth = 343;
var viewHeight = 494;
var sectionId = 'dynsection-5';
</script>
<script type="application/ecmascript" xlink:href="../../svg.min.js"/>
<svg id="graph" class="graph">
<g id="viewport">
<title>ThumbnailManager::fetch</title>
<!-- Node1 -->
<g id="Node000001" class="node">
<title>Node1</title>
<g id="a_Node000001"><a xlink:title=" ">
<polygon fill="#999999" stroke="#666666" points="124.75,-269.88 0,-269.88 0,-250.62 124.75,-250.62 124.75,-269.88"/>
<text text-anchor="middle" x="62.38" y="-256.38" font-family="Helvetica,sans-Serif" font-size="10.00">ThumbnailManager::fetch</text>
</a>
</g>
</g>
<!-- Node2 -->
<g id="Node000002" class="node">
<title>Node2</title>
<g id="a_Node000002"><a xlink:href="../../d5/d65/class_observable_task_executor.html#a45ae8c431e00a9e2b245ba2db9845d01" target="_top" xlink:title=" ">
<polygon fill="white" stroke="#666666" points="320.38,-485.88 175.38,-485.88 175.38,-466.62 320.38,-466.62 320.38,-485.88"/>
<text text-anchor="middle" x="247.88" y="-472.38" font-family="Helvetica,sans-Serif" font-size="10.00">ObservableTaskExecutor::add</text>
</a>
</g>
</g>
<!-- Node1&#45;&gt;Node2 -->
<g id="edge1_Node000001_Node000002" class="edge">
<title>Node1&#45;&gt;Node2</title>
<g id="a_edge1_Node000001_Node000002"><a xlink:title=" ">
<path fill="none" stroke="#63b8ff" d="M65.06,-269.97C71.23,-302.42 95.68,-407.76 160.75,-458.25 162.11,-459.3 163.51,-460.3 164.96,-461.24"/>
<polygon fill="#63b8ff" stroke="#63b8ff" points="163.22,-464.28 173.68,-465.97 166.55,-458.12 163.22,-464.28"/>
</a>
</g>
</g>
<!-- Node3 -->
<g id="Node000003" class="node">
<title>Node3</title>
<g id="a_Node000003"><a xlink:href="../../dd/d17/class_thumbnail_manager.html#a48248deb9928c5aa44e271f177e5f2d4" target="_top" xlink:title=" ">
<polygon fill="#fff0f0" stroke="red" points="312.5,-448.88 183.25,-448.88 183.25,-429.62 312.5,-429.62 312.5,-448.88"/>
<text text-anchor="middle" x="247.88" y="-435.38" font-family="Helvetica,sans-Serif" font-size="10.00">ThumbnailManager::cache</text>
</a>
</g>
</g>
<!-- Node1&#45;&gt;Node3 -->
<g id="edge2_Node000001_Node000003" class="edge">
<title>Node1&#45;&gt;Node3</title>
<g id="a_edge2_Node000001_Node000003"><a xlink:title=" ">
<path fill="none" stroke="#63b8ff" d="M66.26,-270.14C75.11,-298.66 104.78,-381.59 160.75,-421.25 164.36,-423.81 168.26,-426.02 172.33,-427.93"/>
<polygon fill="#63b8ff" stroke="#63b8ff" points="170.77,-431.07 181.35,-431.51 173.35,-424.57 170.77,-431.07"/>
</a>
</g>
</g>
<!-- Node5 -->
<g id="Node000005" class="node">
<title>Node5</title>
<g id="a_Node000005"><a xlink:href="../../d1/d1c/namespace_parameters.html#a2972f2483cb9fecdd3c2b201e15c4a30" target="_top" xlink:title=" ">
<polygon fill="white" stroke="#666666" points="335,-411.88 160.75,-411.88 160.75,-392.62 335,-392.62 335,-411.88"/>
<text text-anchor="middle" x="247.88" y="-398.38" font-family="Helvetica,sans-Serif" font-size="10.00">Parameters::databaseThumbnailSize</text>
</a>
</g>
</g>
<!-- Node1&#45;&gt;Node5 -->
<g id="edge3_Node000001_Node000005" class="edge">
<title>Node1&#45;&gt;Node5</title>
<g id="a_edge3_Node000001_Node000005"><a xlink:title=" ">
<path fill="none" stroke="#63b8ff" d="M68.1,-270.23C79.97,-294.14 113.54,-354.94 160.75,-384.25 162.65,-385.43 164.61,-386.53 166.62,-387.56"/>
<polygon fill="#63b8ff" stroke="#63b8ff" points="165.1,-390.72 175.66,-391.54 167.92,-384.31 165.1,-390.72"/>
</a>
</g>
</g>
<!-- Node6 -->
<g id="Node000006" class="node">
<title>Node6</title>
<g id="a_Node000006"><a xlink:href="../../d4/d20/task__executor__utils_8hpp.html#a3f0aa9b30c11096d7aa5e0e982b1c7a5" target="_top" xlink:title=" ">
<polygon fill="white" stroke="#666666" points="274.25,-374.88 221.5,-374.88 221.5,-355.62 274.25,-355.62 274.25,-374.88"/>
<text text-anchor="middle" x="247.88" y="-361.38" font-family="Helvetica,sans-Serif" font-size="10.00">evaluate</text>
</a>
</g>
</g>
<!-- Node1&#45;&gt;Node6 -->
<g id="edge4_Node000001_Node000006" class="edge">
<title>Node1&#45;&gt;Node6</title>
<g id="a_edge4_Node000001_Node000006"><a xlink:title=" ">
<path fill="none" stroke="#63b8ff" d="M71.3,-270.17C86.55,-288.5 121.9,-327.63 160.75,-347.25 176,-354.95 194.37,-359.36 210.21,-361.88"/>
<polygon fill="#63b8ff" stroke="#63b8ff" points="209.34,-365.29 219.73,-363.2 210.3,-358.36 209.34,-365.29"/>
</a>
</g>
</g>
<!-- Node7 -->
<g id="Node000007" class="node">
<title>Node7</title>
<g id="a_Node000007"><a xlink:href="../../dd/d17/class_thumbnail_manager.html#a7c97ab9eebab7904b0d6e8708d107d5f" target="_top" xlink:title=" ">
<polygon fill="#fff0f0" stroke="red" points="306.88,-337.88 188.88,-337.88 188.88,-318.62 306.88,-318.62 306.88,-337.88"/>
<text text-anchor="middle" x="247.88" y="-324.38" font-family="Helvetica,sans-Serif" font-size="10.00">ThumbnailManager::find</text>
</a>
</g>
</g>
<!-- Node1&#45;&gt;Node7 -->
<g id="edge5_Node000001_Node000007" class="edge">
<title>Node1&#45;&gt;Node7</title>
<g id="a_edge5_Node000001_Node000007"><a xlink:title=" ">
<path fill="none" stroke="#63b8ff" d="M80.04,-270.26C98.99,-281.25 131.15,-298.72 160.75,-309.25 167.19,-311.54 174,-313.61 180.86,-315.46"/>
<polygon fill="#63b8ff" stroke="#63b8ff" points="179.6,-318.76 190.16,-317.83 181.33,-311.97 179.6,-318.76"/>
</a>
</g>
</g>
<!-- Node9 -->
<g id="Node000009" class="node">
<title>Node9</title>
<g id="a_Node000009"><a xlink:href="../../df/d64/class_i_thumbnails_generator.html#a9cb5f9d451440a1d5edbe228f01b0595" target="_top" xlink:title=" ">
<polygon fill="white" stroke="#666666" points="303.88,-300.5 191.88,-300.5 191.88,-270 303.88,-270 303.88,-300.5"/>
<text text-anchor="start" x="199.88" y="-287" font-family="Helvetica,sans-Serif" font-size="10.00">IThumbnailsGenerator</text>
<text text-anchor="middle" x="247.88" y="-275.75" font-family="Helvetica,sans-Serif" font-size="10.00">::generate</text>
</a>
</g>
</g>
<!-- Node1&#45;&gt;Node9 -->
<g id="edge6_Node000001_Node000009" class="edge">
<title>Node1&#45;&gt;Node9</title>
<g id="a_edge6_Node000001_Node000009"><a xlink:title=" ">
<path fill="none" stroke="#63b8ff" d="M125.24,-268.68C142.91,-271.09 162.24,-273.72 180.18,-276.16"/>
<polygon fill="#63b8ff" stroke="#63b8ff" points="179.56,-279.61 189.94,-277.49 180.5,-272.67 179.56,-279.61"/>
</a>
</g>
</g>
<!-- Node10 -->
<g id="Node000010" class="node">
<title>Node10</title>
<g id="a_Node000010"><a xlink:href="../../df/d64/class_i_thumbnails_generator.html#a7d4be3063adc1034883d8b48b53ca4c4" target="_top" xlink:title=" ">
<polygon fill="white" stroke="#666666" points="303.88,-251.5 191.88,-251.5 191.88,-221 303.88,-221 303.88,-251.5"/>
<text text-anchor="start" x="199.88" y="-238" font-family="Helvetica,sans-Serif" font-size="10.00">IThumbnailsGenerator</text>
<text text-anchor="middle" x="247.88" y="-226.75" font-family="Helvetica,sans-Serif" font-size="10.00">::generateFrom</text>
</a>
</g>
</g>
<!-- Node1&#45;&gt;Node10 -->
<g id="edge7_Node000001_Node000010" class="edge">
<title>Node1&#45;&gt;Node10</title>
<g id="a_edge7_Node000001_Node000010"><a xlink:title=" ">
<path fill="none" stroke="#63b8ff" d="M125.24,-252.16C142.91,-249.85 162.24,-247.32 180.18,-244.97"/>
<polygon fill="#63b8ff" stroke="#63b8ff" points="180.47,-248.46 189.94,-243.7 179.57,-241.52 180.47,-248.46"/>
</a>
</g>
</g>
<!-- Node11 -->
<g id="Node000011" class="node">
<title>Node11</title>
<g id="a_Node000011"><a xlink:href="../../d7/d1e/class_photo_1_1_data_delta.html#adb6e34500f00515020150df2f9fd0ab7" target="_top" xlink:title=" ">
<polygon fill="white" stroke="#666666" points="301.25,-202.88 194.5,-202.88 194.5,-183.62 301.25,-183.62 301.25,-202.88"/>
<text text-anchor="middle" x="247.88" y="-189.38" font-family="Helvetica,sans-Serif" font-size="10.00">Photo::DataDelta::get</text>
</a>
</g>
</g>
<!-- Node1&#45;&gt;Node11 -->
<g id="edge8_Node000001_Node000011" class="edge">
<title>Node1&#45;&gt;Node11</title>
<g id="a_edge8_Node000001_Node000011"><a xlink:title=" ">
<path fill="none" stroke="#63b8ff" d="M80.42,-250.27C99.44,-239.51 131.41,-222.55 160.75,-212.25 167.93,-209.73 175.57,-207.47 183.23,-205.47"/>
<polygon fill="#63b8ff" stroke="#63b8ff" points="184.05,-208.87 192.92,-203.08 182.37,-202.07 184.05,-208.87"/>
</a>
</g>
</g>
<!-- Node12 -->
<g id="Node000012" class="node">
<title>Node12</title>
<g id="a_Node000012"><a xlink:href="../../d2/ddd/struct_database_1_1_i_backend.html#ac762cc3e374776d405c5854a0d7e02d2" target="_top" xlink:title="fetch photo data">
<polygon fill="white" stroke="#666666" points="299.38,-165.5 196.38,-165.5 196.38,-135 299.38,-135 299.38,-165.5"/>
<text text-anchor="start" x="204.38" y="-152" font-family="Helvetica,sans-Serif" font-size="10.00">Database::IBackend</text>
<text text-anchor="middle" x="247.88" y="-140.75" font-family="Helvetica,sans-Serif" font-size="10.00">::getPhotoDelta</text>
</a>
</g>
</g>
<!-- Node1&#45;&gt;Node12 -->
<g id="edge9_Node000001_Node000012" class="edge">
<title>Node1&#45;&gt;Node12</title>
<g id="a_edge9_Node000001_Node000012"><a xlink:title=" ">
<path fill="none" stroke="#63b8ff" d="M71.95,-250.13C87.69,-232.17 123.09,-194.71 160.75,-174.25 168.42,-170.08 176.88,-166.59 185.41,-163.67"/>
<polygon fill="#63b8ff" stroke="#63b8ff" points="186.26,-167.07 194.75,-160.73 184.16,-160.39 186.26,-167.07"/>
</a>
</g>
</g>
<!-- Node13 -->
<g id="Node000013" class="node">
<title>Node13</title>
<g id="a_Node000013"><a xlink:href="../../d4/d20/task__executor__utils_8hpp.html#ab5e38eaf971d51a70d22530cccbb27eb" target="_top" xlink:title=" ">
<polygon fill="white" stroke="#666666" points="278,-116.88 217.75,-116.88 217.75,-97.62 278,-97.62 278,-116.88"/>
<text text-anchor="middle" x="247.88" y="-103.38" font-family="Helvetica,sans-Serif" font-size="10.00">inlineTask</text>
</a>
</g>
</g>
<!-- Node1&#45;&gt;Node13 -->
<g id="edge10_Node000001_Node000013" class="edge">
<title>Node1&#45;&gt;Node13</title>
<g id="a_edge10_Node000001_Node000013"><a xlink:title=" ">
<path fill="none" stroke="#63b8ff" d="M67.56,-250.26C78.66,-225.05 111.43,-158.55 160.75,-126.25 174.12,-117.49 190.91,-112.72 206.1,-110.14"/>
<polygon fill="#63b8ff" stroke="#63b8ff" points="206.41,-113.63 215.83,-108.77 205.44,-106.69 206.41,-113.63"/>
</a>
</g>
</g>
<!-- Node14 -->
<g id="Node000014" class="node">
<title>Node14</title>
<g id="a_Node000014"><a xlink:href="../../d2/ddd/struct_database_1_1_i_backend.html#a727dd5575e1ae8565377b4be2df76524" target="_top" xlink:title="Read blob of type bt associated with photo id.">
<polygon fill="white" stroke="#666666" points="299.38,-79.5 196.38,-79.5 196.38,-49 299.38,-49 299.38,-79.5"/>
<text text-anchor="start" x="204.38" y="-66" font-family="Helvetica,sans-Serif" font-size="10.00">Database::IBackend</text>
<text text-anchor="middle" x="247.88" y="-54.75" font-family="Helvetica,sans-Serif" font-size="10.00">::readBlob</text>
</a>
</g>
</g>
<!-- Node1&#45;&gt;Node14 -->
<g id="edge11_Node000001_Node000014" class="edge">
<title>Node1&#45;&gt;Node14</title>
<g id="a_edge11_Node000001_Node000014"><a xlink:title=" ">
<path fill="none" stroke="#63b8ff" d="M66.06,-250.31C74.55,-220.78 103.72,-132.85 160.75,-88.25 167.96,-82.61 176.43,-78.29 185.18,-74.99"/>
<polygon fill="#63b8ff" stroke="#63b8ff" points="186.1,-78.37 194.51,-71.92 183.91,-71.72 186.1,-78.37"/>
</a>
</g>
</g>
<!-- Node15 -->
<g id="Node000015" class="node">
<title>Node15</title>
<g id="a_Node000015"><a xlink:href="../../d2/ddd/struct_database_1_1_i_backend.html#aefdb3497be40914b407537004a76f1d3" target="_top" xlink:title="Write blob of type bt.">
<polygon fill="white" stroke="#666666" points="299.38,-30.5 196.38,-30.5 196.38,0 299.38,0 299.38,-30.5"/>
<text text-anchor="start" x="204.38" y="-17" font-family="Helvetica,sans-Serif" font-size="10.00">Database::IBackend</text>
<text text-anchor="middle" x="247.88" y="-5.75" font-family="Helvetica,sans-Serif" font-size="10.00">::writeBlob</text>
</a>
</g>
</g>
<!-- Node1&#45;&gt;Node15 -->
<g id="edge12_Node000001_Node000015" class="edge">
<title>Node1&#45;&gt;Node15</title>
<g id="a_edge12_Node000001_Node000015"><a xlink:title=" ">
<path fill="none" stroke="#63b8ff" d="M64.79,-250.16C70.2,-215.43 92.82,-99.62 160.75,-40.25 167.91,-33.99 176.56,-29.29 185.58,-25.77"/>
<polygon fill="#63b8ff" stroke="#63b8ff" points="186.48,-29.16 194.83,-22.64 184.24,-22.53 186.48,-29.16"/>
</a>
</g>
</g>
</g>
</svg>

<g id="navigator" transform="translate(0 0)" fill="#404254">
  <rect fill="#f2f5e9" fill-opacity="0.5" stroke="#606060" stroke-width=".5" x="0" y="0" width="60" height="60"/>
  <use id="zoomplus" xlink:href="#zoomPlus" x="17" y="9" onmousedown="handleZoom(evt,'in')"/>
  <use id="zoomminus" xlink:href="#zoomMin" x="42" y="9" onmousedown="handleZoom(evt,'out')"/>
  <use id="reset" xlink:href="#resetDef" x="30" y="36" onmousedown="handleReset()"/>
   <use id="arrowup" xlink:href="#arrowUp" x="0" y="0" onmousedown="handlePan(0,-1)"/>
  <use id="arrowright" xlink:href="#arrowRight" x="0" y="0" onmousedown="handlePan(1,0)"/>
  <use id="arrowdown" xlink:href="#arrowDown" x="0" y="0" onmousedown="handlePan(0,1)"/>
  <use id="arrowleft" xlink:href="#arrowLeft" x="0" y="0" onmousedown="handlePan(-1,0)"/>
</g>
<svg viewBox="0 0 15 15" width="100%" height="30px" preserveAspectRatio="xMaxYMin meet">
 <g id="arrow_out" transform="scale(0.3 0.3)">
  <a xlink:href="class_thumbnail_manager_a23c27b8332708a2e59a6a5ac0c3962fd_cgraph_org.svg" target="_base">
   <rect id="button" ry="5" rx="5" y="6" x="6" height="38" width="38"
        fill="#f2f5e9" fill-opacity="0.5" stroke="#606060" stroke-width="1.0"/>
   <path id="arrow"
     d="M 11.500037,31.436501 C 11.940474,20.09759 22.043105,11.32322 32.158766,21.979434 L 37.068811,17.246167 C 37.068811,17.246167 37.088388,32 37.088388,32 L 22.160133,31.978069 C 22.160133,31.978069 26.997745,27.140456 26.997745,27.140456 C 18.528582,18.264221 13.291696,25.230495 11.500037,31.436501 z"
     style="fill:#404040;"/>
  </a>
 </g>
</svg>

<style type='text/css'>
<![CDATA[
[data-mouse-over-selected='false'] { opacity: 0.7; }
[data-mouse-over-selected='true']  { opacity: 1.0; }
]]>
</style>
<script type="application/ecmascript"><![CDATA[
document.addEventListener('DOMContentLoaded', (event) => {
  highlightEdges();
  highlightAdjacentNodes();
});
]]></script>
</svg>
