<?xml version="1.0" encoding="UTF-8" standalone="no"?>
<!DOCTYPE svg PUBLIC "-//W3C//DTD SVG 1.1//EN"
 "http://www.w3.org/Graphics/SVG/1.1/DTD/svg11.dtd">
<!-- Generated by graphviz version 7.0.5 (20221223.1930)
 -->
<!-- Title: src/database/implementation/database_builder.cpp Pages: 1 -->
<!--zoomable 203 -->
<svg id="main" version="1.1" xmlns="http://www.w3.org/2000/svg" xmlns:xlink="http://www.w3.org/1999/xlink" xml:space="preserve" onload="init(evt)">
<style type="text/css"><![CDATA[
.edge:hover path { stroke: red; }
.edge:hover polygon { stroke: red; fill: red; }
]]></style>
<script type="text/javascript"><![CDATA[
var edges = document.getElementsByTagName('g');
if (edges && edges.length) {
  for (var i=0;i<edges.length;i++) {
    if (edges[i].id.substr(0,4)=='edge') {
      edges[i].setAttribute('class','edge');
    }
  }
}
]]></script>
        <defs>
                <circle id="rim" cx="0" cy="0" r="7"/>
                <circle id="rim2" cx="0" cy="0" r="3.5"/>
                <g id="zoomPlus">
                        <use xlink:href="#rim" fill="#404040">
                                <set attributeName="fill" to="#808080" begin="zoomplus.mouseover" end="zoomplus.mouseout"/>
                        </use>
                        <path d="M-4,0h8M0,-4v8" fill="none" stroke="white" stroke-width="1.5" pointer-events="none"/>
                </g>
                <g id="zoomMin">
                        <use xlink:href="#rim" fill="#404040">
                                <set attributeName="fill" to="#808080" begin="zoomminus.mouseover" end="zoomminus.mouseout"/>
                        </use>
                        <path d="M-4,0h8" fill="none" stroke="white" stroke-width="1.5" pointer-events="none"/>
                </g>
                <g id="dirArrow">
                        <path fill="none" stroke="white" stroke-width="1.5" d="M0,-3.0v7 M-2.5,-0.5L0,-3.0L2.5,-0.5"/>
                </g>
               <g id="resetDef">
                       <use xlink:href="#rim2" fill="#404040">
                               <set attributeName="fill" to="#808080" begin="reset.mouseover" end="reset.mouseout"/>
                       </use>
               </g>
        </defs>

<script type="text/javascript">
var viewWidth = 977;
var viewHeight = 203;
var sectionId = 'dynsection-0';
</script>
<script xlink:href="../../svgpan.js"/>
<svg id="graph" class="graph">
<g id="viewport">
<title>src/database/implementation/database_builder.cpp</title>
<!-- Node1 -->
<g id="node1" class="node">
<title>Node1</title>
<g id="a_node1"><a xlink:title=" ">
<polygon fill="#999999" stroke="#666666" points="518.5,-195 376.5,-195 376.5,-165 518.5,-165 518.5,-195"/>
<text text-anchor="start" x="384.5" y="-183" font-family="Helvetica,sans-Serif" font-size="10.00">src/database/implementation</text>
<text text-anchor="middle" x="447.5" y="-172" font-family="Helvetica,sans-Serif" font-size="10.00">/database_builder.cpp</text>
</a>
</g>
</g>
<!-- Node2 -->
<g id="node2" class="node">
<title>Node2</title>
<g id="a_node2"><a xlink:href="../../d2/def/database__builder_8hpp.html" target="_top" xlink:title=" ">
<polygon fill="#fff0f0" stroke="red" points="275.5,-74 167.5,-74 167.5,-55 275.5,-55 275.5,-74"/>
<text text-anchor="middle" x="221.5" y="-62" font-family="Helvetica,sans-Serif" font-size="10.00">database_builder.hpp</text>
</a>
</g>
</g>
<!-- Node1&#45;&gt;Node2 -->
<g id="edge1" class="edge">
<title>Node1&#45;&gt;Node2</title>
<path fill="none" stroke="#63b8ff" d="M376.02,-179C286.72,-177.29 141.48,-168.34 107.5,-129 86.27,-104.42 124.56,-87.46 162.37,-77.29"/>
<polygon fill="#63b8ff" stroke="#63b8ff" points="163.19,-80.69 172.03,-74.85 161.48,-73.91 163.19,-80.69"/>
</g>
<!-- Node4 -->
<g id="node3" class="node">
<title>Node4</title>
<g id="a_node3"><a xlink:title=" ">
<polygon fill="#e0e0e0" stroke="#999999" points="379,-19 328,-19 328,0 379,0 379,-19"/>
<text text-anchor="middle" x="353.5" y="-7" font-family="Helvetica,sans-Serif" font-size="10.00">memory</text>
</a>
</g>
</g>
<!-- Node1&#45;&gt;Node4 -->
<g id="edge6" class="edge">
<title>Node1&#45;&gt;Node4</title>
<path fill="none" stroke="#63b8ff" d="M383.09,-164.57C364.58,-157.11 346.45,-145.88 335.5,-129 315.66,-98.42 331.4,-54.21 343.32,-29.33"/>
<polygon fill="#63b8ff" stroke="#63b8ff" points="346.28,-31.23 347.69,-20.74 340.04,-28.06 346.28,-31.23"/>
</g>
<!-- Node15 -->
<g id="node4" class="node">
<title>Node15</title>
<g id="a_node4"><a xlink:title=" ">
<polygon fill="#e0e0e0" stroke="#999999" points="165,-129 116,-129 116,-110 165,-110 165,-129"/>
<text text-anchor="middle" x="140.5" y="-117" font-family="Helvetica,sans-Serif" font-size="10.00">cassert</text>
</a>
</g>
</g>
<!-- Node1&#45;&gt;Node15 -->
<g id="edge3" class="edge">
<title>Node1&#45;&gt;Node15</title>
<path fill="none" stroke="#63b8ff" d="M376.26,-167.23C323.62,-158.25 249.97,-145.06 176.22,-129.25"/>
<polygon fill="#63b8ff" stroke="#63b8ff" points="177.33,-125.91 166.82,-127.22 175.85,-132.76 177.33,-125.91"/>
</g>
<!-- Node46 -->
<g id="node5" class="node">
<title>Node46</title>
<g id="a_node5"><a xlink:title=" ">
<polygon fill="#e0e0e0" stroke="#999999" points="233.5,-129 183.5,-129 183.5,-110 233.5,-110 233.5,-129"/>
<text text-anchor="middle" x="208.5" y="-117" font-family="Helvetica,sans-Serif" font-size="10.00">fstream</text>
</a>
</g>
</g>
<!-- Node1&#45;&gt;Node46 -->
<g id="edge4" class="edge">
<title>Node1&#45;&gt;Node46</title>
<path fill="none" stroke="#63b8ff" d="M388.42,-164.54C343.45,-153.53 282.98,-138.73 244.87,-129.4"/>
<polygon fill="#63b8ff" stroke="#63b8ff" points="245.82,-126.03 235.27,-127.05 244.15,-132.83 245.82,-126.03"/>
</g>
<!-- Node17 -->
<g id="node6" class="node">
<title>Node17</title>
<g id="a_node6"><a xlink:title=" ">
<polygon fill="#e0e0e0" stroke="#999999" points="287,-129 252,-129 252,-110 287,-110 287,-129"/>
<text text-anchor="middle" x="269.5" y="-117" font-family="Helvetica,sans-Serif" font-size="10.00">map</text>
</a>
</g>
</g>
<!-- Node1&#45;&gt;Node17 -->
<g id="edge5" class="edge">
<title>Node1&#45;&gt;Node17</title>
<path fill="none" stroke="#63b8ff" d="M403.5,-164.54C370.56,-153.71 326.47,-139.22 298.02,-129.87"/>
<polygon fill="#63b8ff" stroke="#63b8ff" points="299.25,-126.59 288.66,-126.8 297.07,-133.24 299.25,-126.59"/>
</g>
<!-- Node47 -->
<g id="node7" class="node">
<title>Node47</title>
<g id="a_node7"><a xlink:href="../../d7/dfc/ilogger_8hpp.html" target="_top" xlink:title=" ">
<polygon fill="#fff0f0" stroke="red" points="467,-74 382,-74 382,-55 467,-55 467,-74"/>
<text text-anchor="middle" x="424.5" y="-62" font-family="Helvetica,sans-Serif" font-size="10.00">core/ilogger.hpp</text>
</a>
</g>
</g>
<!-- Node1&#45;&gt;Node47 -->
<g id="edge7" class="edge">
<title>Node1&#45;&gt;Node47</title>
<path fill="none" stroke="#63b8ff" d="M459.23,-164.52C469.14,-150.41 480.55,-128.45 472.5,-110 467.45,-98.44 457.76,-88.54 448.4,-81.03"/>
<polygon fill="#63b8ff" stroke="#63b8ff" points="450.67,-78.36 440.55,-75.25 446.52,-84 450.67,-78.36"/>
</g>
<!-- Node49 -->
<g id="node8" class="node">
<title>Node49</title>
<g id="a_node8"><a xlink:href="../../d4/d57/ilogger__factory_8hpp.html" target="_top" xlink:title=" ">
<polygon fill="#fff0f0" stroke="red" points="463,-129 344,-129 344,-110 463,-110 463,-129"/>
<text text-anchor="middle" x="403.5" y="-117" font-family="Helvetica,sans-Serif" font-size="10.00">core/ilogger_factory.hpp</text>
</a>
</g>
</g>
<!-- Node1&#45;&gt;Node49 -->
<g id="edge9" class="edge">
<title>Node1&#45;&gt;Node49</title>
<path fill="none" stroke="#63b8ff" d="M436.62,-164.54C430.62,-156.56 423.13,-146.59 416.78,-138.16"/>
<polygon fill="#63b8ff" stroke="#63b8ff" points="419.74,-136.27 410.93,-130.38 414.15,-140.48 419.74,-136.27"/>
</g>
<!-- Node51 -->
<g id="node9" class="node">
<title>Node51</title>
<g id="a_node9"><a xlink:href="../../d1/d2f/plugin__loader_8hpp.html" target="_top" xlink:title=" ">
<polygon fill="#fff0f0" stroke="red" points="125,-74 0,-74 0,-55 125,-55 125,-74"/>
<text text-anchor="middle" x="62.5" y="-62" font-family="Helvetica,sans-Serif" font-size="10.00">plugins/plugin_loader.hpp</text>
</a>
</g>
</g>
<!-- Node1&#45;&gt;Node51 -->
<g id="edge12" class="edge">
<title>Node1&#45;&gt;Node51</title>
<path fill="none" stroke="#63b8ff" d="M376.04,-176.34C286.77,-171.76 140.38,-159.69 96.5,-129 81.61,-118.58 72.67,-99.53 67.72,-85.01"/>
<polygon fill="#63b8ff" stroke="#63b8ff" points="71.13,-84.18 64.9,-75.61 64.42,-86.19 71.13,-84.18"/>
</g>
<!-- Node53 -->
<g id="node10" class="node">
<title>Node53</title>
<g id="a_node10"><a xlink:href="../../d8/da1/async__database_8hpp.html" target="_top" xlink:title=" ">
<polygon fill="#fff0f0" stroke="red" points="846,-129 741,-129 741,-110 846,-110 846,-129"/>
<text text-anchor="middle" x="793.5" y="-117" font-family="Helvetica,sans-Serif" font-size="10.00">async_database.hpp</text>
</a>
</g>
</g>
<!-- Node1&#45;&gt;Node53 -->
<g id="edge14" class="edge">
<title>Node1&#45;&gt;Node53</title>
<path fill="none" stroke="#63b8ff" d="M518.77,-166.95C580.75,-156.47 669.75,-141.42 729.49,-131.32"/>
<polygon fill="#63b8ff" stroke="#63b8ff" points="729.9,-134.8 739.17,-129.69 728.73,-127.9 729.9,-134.8"/>
</g>
<!-- Node8 -->
<g id="node11" class="node">
<title>Node8</title>
<g id="a_node11"><a xlink:href="../../d7/d2b/idatabase_8hpp.html" target="_top" xlink:title=" ">
<polygon fill="#fff0f0" stroke="red" points="698,-74 621,-74 621,-55 698,-55 698,-74"/>
<text text-anchor="middle" x="659.5" y="-62" font-family="Helvetica,sans-Serif" font-size="10.00">idatabase.hpp</text>
</a>
</g>
</g>
<!-- Node1&#45;&gt;Node8 -->
<g id="edge21" class="edge">
<title>Node1&#45;&gt;Node8</title>
<path fill="none" stroke="#63b8ff" d="M474.35,-164.63C515.16,-142.78 592.33,-101.46 632.96,-79.71"/>
<polygon fill="#63b8ff" stroke="#63b8ff" points="634.42,-82.9 641.59,-75.09 631.12,-76.72 634.42,-82.9"/>
</g>
<!-- Node38 -->
<g id="node12" class="node">
<title>Node38</title>
<g id="a_node12"><a xlink:href="../../da/d2a/ibackend_8hpp.html" target="_top" xlink:title=" ">
<polygon fill="#fff0f0" stroke="red" points="830.5,-19 756.5,-19 756.5,0 830.5,0 830.5,-19"/>
<text text-anchor="middle" x="793.5" y="-7" font-family="Helvetica,sans-Serif" font-size="10.00">ibackend.hpp</text>
</a>
</g>
</g>
<!-- Node1&#45;&gt;Node38 -->
<g id="edge22" class="edge">
<title>Node1&#45;&gt;Node38</title>
<path fill="none" stroke="#63b8ff" d="M518.82,-177.23C652.41,-173.16 929.53,-160.94 958.5,-129 1001.53,-81.56 900.48,-41.8 838.11,-22.69"/>
<polygon fill="#63b8ff" stroke="#63b8ff" points="839.37,-19.41 828.79,-19.91 837.37,-26.12 839.37,-19.41"/>
</g>
<!-- Node56 -->
<g id="node13" class="node">
<title>Node56</title>
<g id="a_node13"><a xlink:href="../../da/d21/idatabase__plugin_8hpp.html" target="_top" xlink:title=" ">
<polygon fill="#fff0f0" stroke="red" points="592,-74 485,-74 485,-55 592,-55 592,-74"/>
<text text-anchor="middle" x="538.5" y="-62" font-family="Helvetica,sans-Serif" font-size="10.00">idatabase_plugin.hpp</text>
</a>
</g>
</g>
<!-- Node1&#45;&gt;Node56 -->
<g id="edge19" class="edge">
<title>Node1&#45;&gt;Node56</title>
<path fill="none" stroke="#63b8ff" d="M459.03,-164.63C475.69,-143.84 506.48,-105.44 524.45,-83.02"/>
<polygon fill="#63b8ff" stroke="#63b8ff" points="527.03,-85.4 530.55,-75.41 521.57,-81.02 527.03,-85.4"/>
</g>
<!-- Node57 -->
<g id="node14" class="node">
<title>Node57</title>
<g id="a_node14"><a xlink:href="../../d3/d41/project__info_8hpp.html" target="_top" xlink:title=" ">
<polygon fill="white" stroke="#666666" points="949,-129 864,-129 864,-110 949,-110 949,-129"/>
<text text-anchor="middle" x="906.5" y="-117" font-family="Helvetica,sans-Serif" font-size="10.00">project_info.hpp</text>
</a>
</g>
</g>
<!-- Node1&#45;&gt;Node57 -->
<g id="edge23" class="edge">
<title>Node1&#45;&gt;Node57</title>
<path fill="none" stroke="#63b8ff" d="M518.75,-171.21C597.89,-162.35 729.72,-146.96 852.57,-129.37"/>
<polygon fill="#63b8ff" stroke="#63b8ff" points="852.77,-132.88 862.17,-127.99 851.77,-125.95 852.77,-132.88"/>
</g>
<!-- Node58 -->
<g id="node15" class="node">
<title>Node58</title>
<g id="a_node15"><a xlink:href="../../db/d3e/observable__database_8hpp.html" target="_top" xlink:title=" ">
<polygon fill="#fff0f0" stroke="red" points="723,-129 596,-129 596,-110 723,-110 723,-129"/>
<text text-anchor="middle" x="659.5" y="-117" font-family="Helvetica,sans-Serif" font-size="10.00">observable_database.hpp</text>
</a>
</g>
</g>
<!-- Node1&#45;&gt;Node58 -->
<g id="edge24" class="edge">
<title>Node1&#45;&gt;Node58</title>
<path fill="none" stroke="#63b8ff" d="M499.9,-164.54C535.71,-154.66 582.58,-141.73 616.25,-132.43"/>
<polygon fill="#63b8ff" stroke="#63b8ff" points="616.96,-135.87 625.67,-129.83 615.1,-129.12 616.96,-135.87"/>
</g>
<!-- Node2&#45;&gt;Node4 -->
<g id="edge2" class="edge">
<title>Node2&#45;&gt;Node4</title>
<path fill="none" stroke="#63b8ff" d="M243.89,-54.51C265.07,-46.01 297.09,-33.15 321.06,-23.53"/>
<polygon fill="#63b8ff" stroke="#63b8ff" points="322.06,-26.9 330.03,-19.92 319.45,-20.4 322.06,-26.9"/>
</g>
<!-- Node47&#45;&gt;Node4 -->
<g id="edge8" class="edge">
<title>Node47&#45;&gt;Node4</title>
<path fill="none" stroke="#63b8ff" d="M412.46,-54.51C402.09,-46.77 386.9,-35.43 374.53,-26.2"/>
<polygon fill="#63b8ff" stroke="#63b8ff" points="376.69,-23.44 366.58,-20.26 372.5,-29.05 376.69,-23.44"/>
</g>
<!-- Node49&#45;&gt;Node4 -->
<g id="edge10" class="edge">
<title>Node49&#45;&gt;Node4</title>
<path fill="none" stroke="#63b8ff" d="M396.49,-109.76C389.82,-101.1 379.89,-87.26 373.5,-74 366.73,-59.96 361.54,-43.08 358.15,-30.26"/>
<polygon fill="#63b8ff" stroke="#63b8ff" points="361.63,-29.76 355.82,-20.9 354.84,-31.45 361.63,-29.76"/>
</g>
<!-- Node49&#45;&gt;Node47 -->
<g id="edge11" class="edge">
<title>Node49&#45;&gt;Node47</title>
<path fill="none" stroke="#63b8ff" d="M406.97,-109.75C409.63,-103.04 413.4,-93.52 416.76,-85.02"/>
<polygon fill="#63b8ff" stroke="#63b8ff" points="419.97,-86.44 420.4,-75.85 413.46,-83.86 419.97,-86.44"/>
</g>
<!-- Node51&#45;&gt;Node4 -->
<g id="edge13" class="edge">
<title>Node51&#45;&gt;Node4</title>
<path fill="none" stroke="#63b8ff" d="M111.86,-54.51C169.9,-43.94 264.89,-26.64 316.79,-17.19"/>
<polygon fill="#63b8ff" stroke="#63b8ff" points="317.1,-20.69 326.31,-15.45 315.84,-13.8 317.1,-20.69"/>
</g>
<!-- Node53&#45;&gt;Node8 -->
<g id="edge15" class="edge">
<title>Node53&#45;&gt;Node8</title>
<path fill="none" stroke="#63b8ff" d="M770.77,-109.51C749.27,-101.01 716.77,-88.15 692.43,-78.53"/>
<polygon fill="#63b8ff" stroke="#63b8ff" points="693.89,-75.34 683.3,-74.91 691.31,-81.85 693.89,-75.34"/>
</g>
<!-- Node53&#45;&gt;Node38 -->
<g id="edge18" class="edge">
<title>Node53&#45;&gt;Node38</title>
<path fill="none" stroke="#63b8ff" d="M793.5,-109.66C793.5,-92.57 793.5,-54.61 793.5,-30.92"/>
<polygon fill="#63b8ff" stroke="#63b8ff" points="797,-30.97 793.5,-20.97 790,-30.97 797,-30.97"/>
</g>
<!-- Node8&#45;&gt;Node4 -->
<g id="edge16" class="edge">
<title>Node8&#45;&gt;Node4</title>
<path fill="none" stroke="#63b8ff" d="M620.74,-56.79C561.47,-46.52 449.03,-27.05 390.7,-16.94"/>
<polygon fill="#63b8ff" stroke="#63b8ff" points="391.39,-13.51 380.94,-15.25 390.19,-20.41 391.39,-13.51"/>
</g>
<!-- Node8&#45;&gt;Node38 -->
<g id="edge17" class="edge">
<title>Node8&#45;&gt;Node38</title>
<path fill="none" stroke="#63b8ff" d="M682.23,-54.51C703.73,-46.01 736.23,-33.15 760.57,-23.53"/>
<polygon fill="#63b8ff" stroke="#63b8ff" points="761.69,-26.85 769.7,-19.91 759.11,-20.34 761.69,-26.85"/>
</g>
<!-- Node56&#45;&gt;Node4 -->
<g id="edge20" class="edge">
<title>Node56&#45;&gt;Node4</title>
<path fill="none" stroke="#63b8ff" d="M507.12,-54.51C474.79,-45.25 424.45,-30.83 390.27,-21.04"/>
<polygon fill="#63b8ff" stroke="#63b8ff" points="391.39,-17.71 380.81,-18.32 389.46,-24.44 391.39,-17.71"/>
</g>
<!-- Node58&#45;&gt;Node8 -->
<g id="edge25" class="edge">
<title>Node58&#45;&gt;Node8</title>
<path fill="none" stroke="#63b8ff" d="M659.5,-109.75C659.5,-103.27 659.5,-94.16 659.5,-85.9"/>
<polygon fill="#63b8ff" stroke="#63b8ff" points="663,-85.96 659.5,-75.96 656,-85.96 663,-85.96"/>
</g>
</g>
</svg>
        <g id="navigator" transform="translate(0 0)" fill="#404254">
                <rect fill="#f2f5e9" fill-opacity="0.5" stroke="#606060" stroke-width=".5" x="0" y="0" width="60" height="60"/>
                <use id="zoomplus" xlink:href="#zoomPlus" x="17" y="9" onmousedown="handleZoom(evt,'in')"/>
                <use id="zoomminus" xlink:href="#zoomMin" x="42" y="9" onmousedown="handleZoom(evt,'out')"/>
                <use id="reset" xlink:href="#resetDef" x="30" y="36" onmousedown="handleReset()"/>
                <g id="arrowUp" xlink:href="#dirArrow" transform="translate(30 24)" onmousedown="handlePan(0,-1)">
                  <use xlink:href="#rim" fill="#404040">
                        <set attributeName="fill" to="#808080" begin="arrowUp.mouseover" end="arrowUp.mouseout"/>
                  </use>
                  <path fill="none" stroke="white" stroke-width="1.5" d="M0,-3.0v7 M-2.5,-0.5L0,-3.0L2.5,-0.5"/>
                </g>
                <g id="arrowRight" xlink:href="#dirArrow" transform="rotate(90) translate(36 -43)" onmousedown="handlePan(1,0)">
                  <use xlink:href="#rim" fill="#404040">
                        <set attributeName="fill" to="#808080" begin="arrowRight.mouseover" end="arrowRight.mouseout"/>
                  </use>
                  <path fill="none" stroke="white" stroke-width="1.5" d="M0,-3.0v7 M-2.5,-0.5L0,-3.0L2.5,-0.5"/>
                </g>
                <g id="arrowDown" xlink:href="#dirArrow" transform="rotate(180) translate(-30 -48)" onmousedown="handlePan(0,1)">
                  <use xlink:href="#rim" fill="#404040">
                        <set attributeName="fill" to="#808080" begin="arrowDown.mouseover" end="arrowDown.mouseout"/>
                  </use>
                  <path fill="none" stroke="white" stroke-width="1.5" d="M0,-3.0v7 M-2.5,-0.5L0,-3.0L2.5,-0.5"/>
                </g>
                <g id="arrowLeft" xlink:href="#dirArrow" transform="rotate(270) translate(-36 17)" onmousedown="handlePan(-1,0)">
                  <use xlink:href="#rim" fill="#404040">
                        <set attributeName="fill" to="#808080" begin="arrowLeft.mouseover" end="arrowLeft.mouseout"/>
                  </use>
                  <path fill="none" stroke="white" stroke-width="1.5" d="M0,-3.0v7 M-2.5,-0.5L0,-3.0L2.5,-0.5"/>
                </g>
        </g>
        <svg viewBox="0 0 15 15" width="100%" height="30px" preserveAspectRatio="xMaxYMin meet">
         <g id="arrow_out" transform="scale(0.3 0.3)">
          <a xlink:href="database__builder_8cpp__incl_org.svg" target="_base">
           <rect id="button" ry="5" rx="5" y="6" x="6" height="38" width="38"
                fill="#f2f5e9" fill-opacity="0.5" stroke="#606060" stroke-width="1.0"/>
           <path id="arrow"
             d="M 11.500037,31.436501 C 11.940474,20.09759 22.043105,11.32322 32.158766,21.979434 L 37.068811,17.246167 C 37.068811,17.246167 37.088388,32 37.088388,32 L 22.160133,31.978069 C 22.160133,31.978069 26.997745,27.140456 26.997745,27.140456 C 18.528582,18.264221 13.291696,25.230495 11.500037,31.436501 z"
             style="fill:#404040;"/>
          </a>
         </g>
        </svg>
</svg>
