<?xml version="1.0" encoding="UTF-8" standalone="no"?>
<!DOCTYPE svg PUBLIC "-//W3C//DTD SVG 1.1//EN"
 "http://www.w3.org/Graphics/SVG/1.1/DTD/svg11.dtd">
<!-- Generated by graphviz version 7.0.5 (20221223.1930)
 -->
<!-- Title: TaskExecutor::ProcessInfo Pages: 1 -->
<svg width="348pt" height="82pt"
 viewBox="0.00 0.00 348.00 82.00" xmlns="http://www.w3.org/2000/svg" xmlns:xlink="http://www.w3.org/1999/xlink">
<g id="graph0" class="graph" transform="scale(1 1) rotate(0) translate(4 78)">
<title>TaskExecutor::ProcessInfo</title>
<!-- Node1 -->
<g id="node1" class="node">
<title>Node1</title>
<g id="a_node1"><a xlink:title=" ">
<polygon fill="#999999" stroke="#666666" points="232,-19 99,-19 99,0 232,0 232,-19"/>
<text text-anchor="middle" x="165.5" y="-7" font-family="Helvetica,sans-Serif" font-size="10.00">TaskExecutor::ProcessInfo</text>
</a>
</g>
</g>
<!-- Node2 -->
<g id="node2" class="node">
<title>Node2</title>
<g id="a_node2"><a xlink:href="../../d6/d3a/struct_i_task_executor_1_1_i_process_control.html" target="_top" xlink:title=" ">
<polygon fill="white" stroke="#666666" points="153,-74 0,-74 0,-55 153,-55 153,-74"/>
<text text-anchor="middle" x="76.5" y="-62" font-family="Helvetica,sans-Serif" font-size="10.00">ITaskExecutor::IProcessControl</text>
</a>
</g>
</g>
<!-- Node2&#45;&gt;Node1 -->
<g id="edge1" class="edge">
<title>Node2&#45;&gt;Node1</title>
<path fill="none" stroke="#63b8ff" d="M101.3,-48.73C117.16,-39.29 137.19,-27.36 150.63,-19.36"/>
<polygon fill="#63b8ff" stroke="#63b8ff" points="99.7,-45.61 92.9,-53.73 103.28,-51.63 99.7,-45.61"/>
</g>
<!-- Node3 -->
<g id="node3" class="node">
<title>Node3</title>
<g id="a_node3"><a xlink:href="../../dd/d3d/struct_i_task_executor_1_1_i_process_supervisor.html" target="_top" xlink:title=" ">
<polygon fill="white" stroke="#666666" points="340,-74 171,-74 171,-55 340,-55 340,-74"/>
<text text-anchor="middle" x="255.5" y="-62" font-family="Helvetica,sans-Serif" font-size="10.00">ITaskExecutor::IProcessSupervisor</text>
</a>
</g>
</g>
<!-- Node3&#45;&gt;Node1 -->
<g id="edge2" class="edge">
<title>Node3&#45;&gt;Node1</title>
<path fill="none" stroke="#63b8ff" d="M230.42,-48.73C214.39,-39.29 194.13,-27.36 180.54,-19.36"/>
<polygon fill="#63b8ff" stroke="#63b8ff" points="228.54,-51.68 238.93,-53.74 232.09,-45.65 228.54,-51.68"/>
</g>
</g>
</svg>
