<?xml version="1.0" encoding="UTF-8" standalone="no"?>
<!DOCTYPE svg PUBLIC "-//W3C//DTD SVG 1.1//EN"
 "http://www.w3.org/Graphics/SVG/1.1/DTD/svg11.dtd">
<!-- Generated by graphviz version 7.0.5 (20221223.1930)
 -->
<!-- Title: src/gui/desktop/utils/qml_setup.cpp Pages: 1 -->
<!--zoomable 104 -->
<svg id="main" version="1.1" xmlns="http://www.w3.org/2000/svg" xmlns:xlink="http://www.w3.org/1999/xlink" xml:space="preserve" onload="init(evt)">
<style type="text/css"><![CDATA[
.edge:hover path { stroke: red; }
.edge:hover polygon { stroke: red; fill: red; }
]]></style>
<script type="text/javascript"><![CDATA[
var edges = document.getElementsByTagName('g');
if (edges && edges.length) {
  for (var i=0;i<edges.length;i++) {
    if (edges[i].id.substr(0,4)=='edge') {
      edges[i].setAttribute('class','edge');
    }
  }
}
]]></script>
        <defs>
                <circle id="rim" cx="0" cy="0" r="7"/>
                <circle id="rim2" cx="0" cy="0" r="3.5"/>
                <g id="zoomPlus">
                        <use xlink:href="#rim" fill="#404040">
                                <set attributeName="fill" to="#808080" begin="zoomplus.mouseover" end="zoomplus.mouseout"/>
                        </use>
                        <path d="M-4,0h8M0,-4v8" fill="none" stroke="white" stroke-width="1.5" pointer-events="none"/>
                </g>
                <g id="zoomMin">
                        <use xlink:href="#rim" fill="#404040">
                                <set attributeName="fill" to="#808080" begin="zoomminus.mouseover" end="zoomminus.mouseout"/>
                        </use>
                        <path d="M-4,0h8" fill="none" stroke="white" stroke-width="1.5" pointer-events="none"/>
                </g>
                <g id="dirArrow">
                        <path fill="none" stroke="white" stroke-width="1.5" d="M0,-3.0v7 M-2.5,-0.5L0,-3.0L2.5,-0.5"/>
                </g>
               <g id="resetDef">
                       <use xlink:href="#rim2" fill="#404040">
                               <set attributeName="fill" to="#808080" begin="reset.mouseover" end="reset.mouseout"/>
                       </use>
               </g>
        </defs>

<script type="text/javascript">
var viewWidth = 1671;
var viewHeight = 104;
var sectionId = 'dynsection-0';
</script>
<script xlink:href="../../svgpan.js"/>
<svg id="graph" class="graph">
<g id="viewport">
<title>src/gui/desktop/utils/qml_setup.cpp</title>
<!-- Node1 -->
<g id="node1" class="node">
<title>Node1</title>
<g id="a_node1"><a xlink:title=" ">
<polygon fill="#999999" stroke="#666666" points="845.5,-96 741.5,-96 741.5,-66 845.5,-66 845.5,-96"/>
<text text-anchor="start" x="749.5" y="-84" font-family="Helvetica,sans-Serif" font-size="10.00">src/gui/desktop/utils</text>
<text text-anchor="middle" x="793.5" y="-73" font-family="Helvetica,sans-Serif" font-size="10.00">/qml_setup.cpp</text>
</a>
</g>
</g>
<!-- Node2 -->
<g id="node2" class="node">
<title>Node2</title>
<g id="a_node2"><a xlink:title=" ">
<polygon fill="#e0e0e0" stroke="#999999" points="71,-24.5 0,-24.5 0,-5.5 71,-5.5 71,-24.5"/>
<text text-anchor="middle" x="35.5" y="-12.5" font-family="Helvetica,sans-Serif" font-size="10.00">QQmlEngine</text>
</a>
</g>
</g>
<!-- Node1&#45;&gt;Node2 -->
<g id="edge1" class="edge">
<title>Node1&#45;&gt;Node2</title>
<path fill="none" stroke="#63b8ff" d="M741.09,-80.45C622.39,-80.58 324.41,-75.85 80.5,-30 77.51,-29.44 74.44,-28.74 71.38,-27.97"/>
<polygon fill="#63b8ff" stroke="#63b8ff" points="72.5,-24.65 61.93,-25.3 70.6,-31.39 72.5,-24.65"/>
</g>
<!-- Node3 -->
<g id="node3" class="node">
<title>Node3</title>
<g id="a_node3"><a xlink:title=" ">
<polygon fill="#e0e0e0" stroke="#999999" points="173.5,-24.5 89.5,-24.5 89.5,-5.5 173.5,-5.5 173.5,-24.5"/>
<text text-anchor="middle" x="131.5" y="-12.5" font-family="Helvetica,sans-Serif" font-size="10.00">QQuickWindow</text>
</a>
</g>
</g>
<!-- Node1&#45;&gt;Node3 -->
<g id="edge2" class="edge">
<title>Node1&#45;&gt;Node3</title>
<path fill="none" stroke="#63b8ff" d="M741.18,-78.99C635.05,-76.24 387.14,-66.14 182.5,-30 178.88,-29.36 175.15,-28.58 171.43,-27.72"/>
<polygon fill="#63b8ff" stroke="#63b8ff" points="172.43,-24.36 161.88,-25.31 170.72,-31.15 172.43,-24.36"/>
</g>
<!-- Node4 -->
<g id="node4" class="node">
<title>Node4</title>
<g id="a_node4"><a xlink:href="../../d7/d0e/qml__setup_8hpp.html" target="_top" xlink:title=" ">
<polygon fill="#fff0f0" stroke="red" points="271.5,-24.5 191.5,-24.5 191.5,-5.5 271.5,-5.5 271.5,-24.5"/>
<text text-anchor="middle" x="231.5" y="-12.5" font-family="Helvetica,sans-Serif" font-size="10.00">qml_setup.hpp</text>
</a>
</g>
</g>
<!-- Node1&#45;&gt;Node4 -->
<g id="edge3" class="edge">
<title>Node1&#45;&gt;Node4</title>
<path fill="none" stroke="#63b8ff" d="M741.36,-78.04C648.15,-73.84 447.09,-61.65 280.5,-30 277.28,-29.39 273.97,-28.66 270.66,-27.86"/>
<polygon fill="#63b8ff" stroke="#63b8ff" points="271.56,-24.48 261,-25.34 269.79,-31.25 271.56,-24.48"/>
</g>
<!-- Node51 -->
<g id="node5" class="node">
<title>Node51</title>
<g id="a_node5"><a xlink:href="../../dd/d35/tags__model_8hpp.html" target="_top" xlink:title=" ">
<polygon fill="#fff0f0" stroke="red" points="409,-24.5 290,-24.5 290,-5.5 409,-5.5 409,-24.5"/>
<text text-anchor="middle" x="349.5" y="-12.5" font-family="Helvetica,sans-Serif" font-size="10.00">models/tags_model.hpp</text>
</a>
</g>
</g>
<!-- Node1&#45;&gt;Node51 -->
<g id="edge4" class="edge">
<title>Node1&#45;&gt;Node51</title>
<path fill="none" stroke="#63b8ff" d="M741.01,-74.21C668.17,-65.9 532.43,-49.45 417.5,-30 412.35,-29.13 406.99,-28.15 401.65,-27.13"/>
<polygon fill="#63b8ff" stroke="#63b8ff" points="402.74,-23.78 392.25,-25.28 401.39,-30.64 402.74,-23.78"/>
</g>
<!-- Node62 -->
<g id="node6" class="node">
<title>Node62</title>
<g id="a_node6"><a xlink:href="../../df/d86/photo__properties__model_8hpp.html" target="_top" xlink:title=" ">
<polygon fill="#fff0f0" stroke="red" points="550,-30 427,-30 427,0 550,0 550,-30"/>
<text text-anchor="start" x="435" y="-18" font-family="Helvetica,sans-Serif" font-size="10.00">models/photo_properties</text>
<text text-anchor="middle" x="488.5" y="-7" font-family="Helvetica,sans-Serif" font-size="10.00">_model.hpp</text>
</a>
</g>
</g>
<!-- Node1&#45;&gt;Node62 -->
<g id="edge5" class="edge">
<title>Node1&#45;&gt;Node62</title>
<path fill="none" stroke="#63b8ff" d="M741.07,-69C691.59,-58.62 616.96,-42.95 561.64,-31.35"/>
<polygon fill="#63b8ff" stroke="#63b8ff" points="562.48,-27.95 551.97,-29.32 561.04,-34.8 562.48,-27.95"/>
</g>
<!-- Node64 -->
<g id="node7" class="node">
<title>Node64</title>
<g id="a_node7"><a xlink:href="../../d6/d5c/duplicates__model_8hpp.html" target="_top" xlink:title=" ">
<polygon fill="#fff0f0" stroke="red" points="713,-24.5 568,-24.5 568,-5.5 713,-5.5 713,-24.5"/>
<text text-anchor="middle" x="640.5" y="-12.5" font-family="Helvetica,sans-Serif" font-size="10.00">models/duplicates_model.hpp</text>
</a>
</g>
</g>
<!-- Node1&#45;&gt;Node64 -->
<g id="edge6" class="edge">
<title>Node1&#45;&gt;Node64</title>
<path fill="none" stroke="#63b8ff" d="M759.16,-65.64C733.22,-54.79 697.88,-40 672.52,-29.39"/>
<polygon fill="#63b8ff" stroke="#63b8ff" points="673.95,-26.2 663.38,-25.57 671.25,-32.66 673.95,-26.2"/>
</g>
<!-- Node67 -->
<g id="node8" class="node">
<title>Node67</title>
<g id="a_node8"><a xlink:href="../../da/db1/faces__model_8hpp.html" target="_top" xlink:title=" ">
<polygon fill="#fff0f0" stroke="red" points="856,-24.5 731,-24.5 731,-5.5 856,-5.5 856,-24.5"/>
<text text-anchor="middle" x="793.5" y="-12.5" font-family="Helvetica,sans-Serif" font-size="10.00">models/faces_model.hpp</text>
</a>
</g>
</g>
<!-- Node1&#45;&gt;Node67 -->
<g id="edge7" class="edge">
<title>Node1&#45;&gt;Node67</title>
<path fill="none" stroke="#63b8ff" d="M793.5,-65.8C793.5,-57.09 793.5,-45.81 793.5,-36.18"/>
<polygon fill="#63b8ff" stroke="#63b8ff" points="797,-36.36 793.5,-26.36 790,-36.36 797,-36.36"/>
</g>
<!-- Node77 -->
<g id="node9" class="node">
<title>Node77</title>
<g id="a_node9"><a xlink:href="../../d4/d2d/photos__data__guesser_8hpp.html" target="_top" xlink:title=" ">
<polygon fill="#fff0f0" stroke="red" points="978.5,-30 874.5,-30 874.5,0 978.5,0 978.5,-30"/>
<text text-anchor="start" x="882.5" y="-18" font-family="Helvetica,sans-Serif" font-size="10.00">models/photos_data</text>
<text text-anchor="middle" x="926.5" y="-7" font-family="Helvetica,sans-Serif" font-size="10.00">_guesser.hpp</text>
</a>
</g>
</g>
<!-- Node1&#45;&gt;Node77 -->
<g id="edge8" class="edge">
<title>Node1&#45;&gt;Node77</title>
<path fill="none" stroke="#63b8ff" d="M823.35,-65.64C842,-56.66 866.25,-44.99 886.55,-35.23"/>
<polygon fill="#63b8ff" stroke="#63b8ff" points="887.89,-38.46 895.39,-30.97 884.86,-32.15 887.89,-38.46"/>
</g>
<!-- Node79 -->
<g id="node10" class="node">
<title>Node79</title>
<g id="a_node10"><a xlink:href="../../db/d24/qml__flat__model_8hpp.html" target="_top" xlink:title=" ">
<polygon fill="#fff0f0" stroke="red" points="1130.5,-24.5 996.5,-24.5 996.5,-5.5 1130.5,-5.5 1130.5,-24.5"/>
<text text-anchor="middle" x="1063.5" y="-12.5" font-family="Helvetica,sans-Serif" font-size="10.00">models/qml_flat_model.hpp</text>
</a>
</g>
</g>
<!-- Node1&#45;&gt;Node79 -->
<g id="edge9" class="edge">
<title>Node1&#45;&gt;Node79</title>
<path fill="none" stroke="#63b8ff" d="M845.88,-67.58C894.72,-56.01 967,-38.87 1014.66,-27.58"/>
<polygon fill="#63b8ff" stroke="#63b8ff" points="1015.23,-31.04 1024.15,-25.33 1013.61,-24.23 1015.23,-31.04"/>
</g>
<!-- Node84 -->
<g id="node11" class="node">
<title>Node84</title>
<g id="a_node11"><a xlink:href="../../d7/d9a/series__model_8hpp.html" target="_top" xlink:title=" ">
<polygon fill="#fff0f0" stroke="red" points="1276,-24.5 1149,-24.5 1149,-5.5 1276,-5.5 1276,-24.5"/>
<text text-anchor="middle" x="1212.5" y="-12.5" font-family="Helvetica,sans-Serif" font-size="10.00">models/series_model.hpp</text>
</a>
</g>
</g>
<!-- Node1&#45;&gt;Node84 -->
<g id="edge10" class="edge">
<title>Node1&#45;&gt;Node84</title>
<path fill="none" stroke="#63b8ff" d="M845.79,-73.21C913.64,-64.21 1035.65,-47.45 1139.5,-30 1145.01,-29.07 1150.74,-28.06 1156.46,-27.02"/>
<polygon fill="#63b8ff" stroke="#63b8ff" points="1156.71,-30.53 1165.9,-25.26 1155.43,-23.65 1156.71,-30.53"/>
</g>
<!-- Node92 -->
<g id="node12" class="node">
<title>Node92</title>
<g id="a_node12"><a xlink:href="../../d3/df9/variant__display_8hpp.html" target="_top" xlink:title=" ">
<polygon fill="#fff0f0" stroke="red" points="1414.5,-24.5 1294.5,-24.5 1294.5,-5.5 1414.5,-5.5 1414.5,-24.5"/>
<text text-anchor="middle" x="1354.5" y="-12.5" font-family="Helvetica,sans-Serif" font-size="10.00">utils/variant_display.hpp</text>
</a>
</g>
</g>
<!-- Node1&#45;&gt;Node92 -->
<g id="edge11" class="edge">
<title>Node1&#45;&gt;Node92</title>
<path fill="none" stroke="#63b8ff" d="M845.78,-76.39C935.89,-69.8 1126.13,-54.21 1285.5,-30 1291.1,-29.15 1296.93,-28.15 1302.72,-27.08"/>
<polygon fill="#63b8ff" stroke="#63b8ff" points="1303.11,-30.57 1312.27,-25.25 1301.79,-23.7 1303.11,-30.57"/>
</g>
<!-- Node95 -->
<g id="node13" class="node">
<title>Node95</title>
<g id="a_node13"><a xlink:href="../../d7/d64/inotifications_8hpp.html" target="_top" xlink:title=" ">
<polygon fill="#fff0f0" stroke="red" points="1522,-24.5 1433,-24.5 1433,-5.5 1522,-5.5 1522,-24.5"/>
<text text-anchor="middle" x="1477.5" y="-12.5" font-family="Helvetica,sans-Serif" font-size="10.00">inotifications.hpp</text>
</a>
</g>
</g>
<!-- Node1&#45;&gt;Node95 -->
<g id="edge12" class="edge">
<title>Node1&#45;&gt;Node95</title>
<path fill="none" stroke="#63b8ff" d="M845.73,-78.93C954.14,-76.04 1211.15,-65.67 1423.5,-30 1427.56,-29.32 1431.76,-28.48 1435.94,-27.55"/>
<polygon fill="#63b8ff" stroke="#63b8ff" points="1436.48,-31.02 1445.39,-25.29 1434.85,-24.21 1436.48,-31.02"/>
</g>
<!-- Node96 -->
<g id="node14" class="node">
<title>Node96</title>
<g id="a_node14"><a xlink:href="../../de/d11/batch__face__detector_8hpp.html" target="_top" xlink:title=" ">
<polygon fill="#fff0f0" stroke="red" points="1663,-24.5 1540,-24.5 1540,-5.5 1663,-5.5 1663,-24.5"/>
<text text-anchor="middle" x="1601.5" y="-12.5" font-family="Helvetica,sans-Serif" font-size="10.00">batch_face_detector.hpp</text>
</a>
</g>
</g>
<!-- Node1&#45;&gt;Node96 -->
<g id="edge13" class="edge">
<title>Node1&#45;&gt;Node96</title>
<path fill="none" stroke="#63b8ff" d="M845.63,-78.79C966.61,-75.48 1275.64,-64.11 1531.5,-30 1537.57,-29.19 1543.9,-28.17 1550.16,-27.06"/>
<polygon fill="#63b8ff" stroke="#63b8ff" points="1550.63,-30.53 1559.81,-25.25 1549.34,-23.65 1550.63,-30.53"/>
</g>
</g>
</svg>
        <g id="navigator" transform="translate(0 0)" fill="#404254">
                <rect fill="#f2f5e9" fill-opacity="0.5" stroke="#606060" stroke-width=".5" x="0" y="0" width="60" height="60"/>
                <use id="zoomplus" xlink:href="#zoomPlus" x="17" y="9" onmousedown="handleZoom(evt,'in')"/>
                <use id="zoomminus" xlink:href="#zoomMin" x="42" y="9" onmousedown="handleZoom(evt,'out')"/>
                <use id="reset" xlink:href="#resetDef" x="30" y="36" onmousedown="handleReset()"/>
                <g id="arrowUp" xlink:href="#dirArrow" transform="translate(30 24)" onmousedown="handlePan(0,-1)">
                  <use xlink:href="#rim" fill="#404040">
                        <set attributeName="fill" to="#808080" begin="arrowUp.mouseover" end="arrowUp.mouseout"/>
                  </use>
                  <path fill="none" stroke="white" stroke-width="1.5" d="M0,-3.0v7 M-2.5,-0.5L0,-3.0L2.5,-0.5"/>
                </g>
                <g id="arrowRight" xlink:href="#dirArrow" transform="rotate(90) translate(36 -43)" onmousedown="handlePan(1,0)">
                  <use xlink:href="#rim" fill="#404040">
                        <set attributeName="fill" to="#808080" begin="arrowRight.mouseover" end="arrowRight.mouseout"/>
                  </use>
                  <path fill="none" stroke="white" stroke-width="1.5" d="M0,-3.0v7 M-2.5,-0.5L0,-3.0L2.5,-0.5"/>
                </g>
                <g id="arrowDown" xlink:href="#dirArrow" transform="rotate(180) translate(-30 -48)" onmousedown="handlePan(0,1)">
                  <use xlink:href="#rim" fill="#404040">
                        <set attributeName="fill" to="#808080" begin="arrowDown.mouseover" end="arrowDown.mouseout"/>
                  </use>
                  <path fill="none" stroke="white" stroke-width="1.5" d="M0,-3.0v7 M-2.5,-0.5L0,-3.0L2.5,-0.5"/>
                </g>
                <g id="arrowLeft" xlink:href="#dirArrow" transform="rotate(270) translate(-36 17)" onmousedown="handlePan(-1,0)">
                  <use xlink:href="#rim" fill="#404040">
                        <set attributeName="fill" to="#808080" begin="arrowLeft.mouseover" end="arrowLeft.mouseout"/>
                  </use>
                  <path fill="none" stroke="white" stroke-width="1.5" d="M0,-3.0v7 M-2.5,-0.5L0,-3.0L2.5,-0.5"/>
                </g>
        </g>
        <svg viewBox="0 0 15 15" width="100%" height="30px" preserveAspectRatio="xMaxYMin meet">
         <g id="arrow_out" transform="scale(0.3 0.3)">
          <a xlink:href="qml__setup_8cpp__incl_org.svg" target="_base">
           <rect id="button" ry="5" rx="5" y="6" x="6" height="38" width="38"
                fill="#f2f5e9" fill-opacity="0.5" stroke="#606060" stroke-width="1.0"/>
           <path id="arrow"
             d="M 11.500037,31.436501 C 11.940474,20.09759 22.043105,11.32322 32.158766,21.979434 L 37.068811,17.246167 C 37.068811,17.246167 37.088388,32 37.088388,32 L 22.160133,31.978069 C 22.160133,31.978069 26.997745,27.140456 26.997745,27.140456 C 18.528582,18.264221 13.291696,25.230495 11.500037,31.436501 z"
             style="fill:#404040;"/>
          </a>
         </g>
        </svg>
</svg>
