<?xml version="1.0" encoding="UTF-8" standalone="no"?>
<!DOCTYPE svg PUBLIC "-//W3C//DTD SVG 1.1//EN"
 "http://www.w3.org/Graphics/SVG/1.1/DTD/svg11.dtd">
<!-- Generated by graphviz version 7.0.5 (20221223.1930)
 -->
<!-- Title: IExifReaderFactory::get Pages: 1 -->
<svg width="288pt" height="258pt"
 viewBox="0.00 0.00 288.00 257.50" xmlns="http://www.w3.org/2000/svg" xmlns:xlink="http://www.w3.org/1999/xlink">
<g id="graph0" class="graph" transform="scale(1 1) rotate(0) translate(4 253.5)">
<title>IExifReaderFactory::get</title>
<!-- Node1 -->
<g id="node1" class="node">
<title>Node1</title>
<g id="a_node1"><a xlink:title=" ">
<polygon fill="#999999" stroke="#666666" points="280,-134 164,-134 164,-115 280,-115 280,-134"/>
<text text-anchor="middle" x="222" y="-122" font-family="Helvetica,sans-Serif" font-size="10.00">IExifReaderFactory::get</text>
</a>
</g>
</g>
<!-- Node2 -->
<g id="node2" class="node">
<title>Node2</title>
<g id="a_node2"><a xlink:href="../../d0/d4e/class_photos_grouping_dialog.html#a5602e18dab61025c041f53bbe3e59254" target="_top" xlink:title=" ">
<polygon fill="#fff0f0" stroke="red" points="120.5,-249.5 7.5,-249.5 7.5,-219.5 120.5,-219.5 120.5,-249.5"/>
<text text-anchor="start" x="15.5" y="-237.5" font-family="Helvetica,sans-Serif" font-size="10.00">PhotosGroupingDialog</text>
<text text-anchor="middle" x="64" y="-226.5" font-family="Helvetica,sans-Serif" font-size="10.00">::fillModel</text>
</a>
</g>
</g>
<!-- Node1&#45;&gt;Node2 -->
<g id="edge1" class="edge">
<title>Node1&#45;&gt;Node2</title>
<path fill="none" stroke="#63b8ff" d="M205.25,-142.72C187.94,-161.81 158.51,-191.57 128,-210.5 122.93,-213.65 117.38,-216.49 111.74,-219.03"/>
<polygon fill="#63b8ff" stroke="#63b8ff" points="207.69,-145.24 211.72,-135.44 202.46,-140.59 207.69,-145.24"/>
</g>
<!-- Node4 -->
<g id="node3" class="node">
<title>Node4</title>
<g id="a_node3"><a xlink:href="../../dd/d0a/class_face_editor.html#adf8745e7dc160e0a546a6137a05f2878" target="_top" xlink:title=" ">
<polygon fill="#fff0f0" stroke="red" points="125,-201 3,-201 3,-182 125,-182 125,-201"/>
<text text-anchor="middle" x="64" y="-189" font-family="Helvetica,sans-Serif" font-size="10.00">FaceEditor::getFacesFor</text>
</a>
</g>
</g>
<!-- Node1&#45;&gt;Node4 -->
<g id="edge2" class="edge">
<title>Node1&#45;&gt;Node4</title>
<path fill="none" stroke="#63b8ff" d="M194.39,-139.9C176.12,-150.05 151.09,-163.15 128,-172.5 119.74,-175.84 110.67,-178.91 102.04,-181.57"/>
<polygon fill="#63b8ff" stroke="#63b8ff" points="195.99,-143.01 202.98,-135.05 192.55,-136.91 195.99,-143.01"/>
</g>
<!-- Node6 -->
<g id="node4" class="node">
<title>Node6</title>
<g id="a_node4"><a xlink:href="../../de/d2a/class_image_media_information.html#ab59a804554c2edf243d753c2730fdf2c" target="_top" xlink:title=" ">
<polygon fill="white" stroke="#666666" points="123.5,-163.5 4.5,-163.5 4.5,-133.5 123.5,-133.5 123.5,-163.5"/>
<text text-anchor="start" x="12.5" y="-151.5" font-family="Helvetica,sans-Serif" font-size="10.00">ImageMediaInformation</text>
<text text-anchor="middle" x="64" y="-140.5" font-family="Helvetica,sans-Serif" font-size="10.00">::getInformation</text>
</a>
</g>
</g>
<!-- Node1&#45;&gt;Node6 -->
<g id="edge3" class="edge">
<title>Node1&#45;&gt;Node6</title>
<path fill="none" stroke="#63b8ff" d="M152.63,-135.02C143.01,-136.5 133.19,-138.01 123.77,-139.46"/>
<polygon fill="#63b8ff" stroke="#63b8ff" points="152.95,-138.51 162.3,-133.53 151.89,-131.59 152.95,-138.51"/>
</g>
<!-- Node7 -->
<g id="node5" class="node">
<title>Node7</title>
<g id="a_node5"><a xlink:href="../../d0/d4e/class_photos_grouping_dialog.html#af6b9b5bf838e92f74c539d4972cabc38" target="_top" xlink:title=" ">
<polygon fill="#fff0f0" stroke="red" points="120.5,-115.5 7.5,-115.5 7.5,-85.5 120.5,-85.5 120.5,-115.5"/>
<text text-anchor="start" x="15.5" y="-103.5" font-family="Helvetica,sans-Serif" font-size="10.00">PhotosGroupingDialog</text>
<text text-anchor="middle" x="64" y="-92.5" font-family="Helvetica,sans-Serif" font-size="10.00">::makeCollage</text>
</a>
</g>
</g>
<!-- Node1&#45;&gt;Node7 -->
<g id="edge4" class="edge">
<title>Node1&#45;&gt;Node7</title>
<path fill="none" stroke="#63b8ff" d="M152.47,-113.96C141.92,-112.33 131.13,-110.67 120.89,-109.1"/>
<polygon fill="#63b8ff" stroke="#63b8ff" points="151.89,-117.41 162.3,-115.47 152.95,-110.49 151.89,-117.41"/>
</g>
<!-- Node9 -->
<g id="node6" class="node">
<title>Node9</title>
<g id="a_node6"><a xlink:href="../../dc/dc9/class_generator_utils_1_1_breakable_task.html#a32d1b87cb6dcd42a9d9a860d3fcae8f3" target="_top" xlink:title=" ">
<polygon fill="#fff0f0" stroke="red" points="128,-67.5 0,-67.5 0,-37.5 128,-37.5 128,-67.5"/>
<text text-anchor="start" x="8" y="-55.5" font-family="Helvetica,sans-Serif" font-size="10.00">GeneratorUtils::Breakable</text>
<text text-anchor="middle" x="64" y="-44.5" font-family="Helvetica,sans-Serif" font-size="10.00">Task::preparePhotos</text>
</a>
</g>
</g>
<!-- Node1&#45;&gt;Node9 -->
<g id="edge5" class="edge">
<title>Node1&#45;&gt;Node9</title>
<path fill="none" stroke="#63b8ff" d="M193.15,-109.08C174.88,-99.23 150.33,-86.48 128,-76.5 121.48,-73.59 114.49,-70.7 107.63,-67.99"/>
<polygon fill="#63b8ff" stroke="#63b8ff" points="191.33,-112.08 201.79,-113.78 194.68,-105.93 191.33,-112.08"/>
</g>
<!-- Node12 -->
<g id="node7" class="node">
<title>Node12</title>
<g id="a_node7"><a xlink:href="../../d3/d07/class_media_view_ctrl.html#aa24ae0b96b7ddfdd731a382f759d429f" target="_top" xlink:title=" ">
<polygon fill="#fff0f0" stroke="red" points="123,-19 5,-19 5,0 123,0 123,-19"/>
<text text-anchor="middle" x="64" y="-7" font-family="Helvetica,sans-Serif" font-size="10.00">MediaViewCtrl::setPath</text>
</a>
</g>
</g>
<!-- Node1&#45;&gt;Node12 -->
<g id="edge6" class="edge">
<title>Node1&#45;&gt;Node12</title>
<path fill="none" stroke="#63b8ff" d="M207.49,-105.59C191.06,-83.93 161.36,-48.82 128,-28.5 122.05,-24.87 115.36,-21.9 108.61,-19.47"/>
<polygon fill="#63b8ff" stroke="#63b8ff" points="204.6,-107.57 213.36,-113.54 210.23,-103.41 204.6,-107.57"/>
</g>
</g>
</svg>
