<?xml version="1.0" encoding="UTF-8" standalone="no"?>
<!DOCTYPE svg PUBLIC "-//W3C//DTD SVG 1.1//EN"
 "http://www.w3.org/Graphics/SVG/1.1/DTD/svg11.dtd">
<!-- Generated by graphviz version 12.2.0 (20241103.1931)
 -->
<!-- Title: IExifReaderFactory::get Pages: 1 -->
<svg width="287pt" height="272pt"
 viewBox="0.00 0.00 286.75 271.50" xmlns="http://www.w3.org/2000/svg" xmlns:xlink="http://www.w3.org/1999/xlink">

<svg id="main" version="1.1" xmlns="http://www.w3.org/2000/svg" xmlns:xlink="http://www.w3.org/1999/xlink" xml:space="preserve">

<style type="text/css"><![CDATA[
.node, .edge {opacity: 0.7;}
.node.selected, .edge.selected {opacity: 1;}
.edge:hover path { stroke: red; }
.edge:hover polygon { stroke: red; fill: red; }
]]></style>
<script type="application/ecmascript" xlink:href="../../svg.min.js"/>
<svg id="graph" class="graph">
<g id="graph0" class="graph" transform="scale(1 1) rotate(0) translate(4 267.5)">
<title>IExifReaderFactory::get</title>
<!-- Node1 -->
<g id="Node000001" class="node">
<title>Node1</title>
<g id="a_Node000001"><a xlink:title=" ">
<polygon fill="#999999" stroke="#666666" points="278.75,-146.88 163,-146.88 163,-127.62 278.75,-127.62 278.75,-146.88"/>
<text text-anchor="middle" x="220.88" y="-133.38" font-family="Helvetica,sans-Serif" font-size="10.00">IExifReaderFactory::get</text>
</a>
</g>
</g>
<!-- Node2 -->
<g id="Node000002" class="node">
<title>Node2</title>
<g id="a_Node000002"><a xlink:href="../../d0/d4e/class_photos_grouping_dialog.html#a5602e18dab61025c041f53bbe3e59254" target="_top" xlink:title=" ">
<polygon fill="#fff0f0" stroke="red" points="119.88,-263.5 7.13,-263.5 7.13,-233 119.88,-233 119.88,-263.5"/>
<text text-anchor="start" x="15.13" y="-250" font-family="Helvetica,sans-Serif" font-size="10.00">PhotosGroupingDialog</text>
<text text-anchor="middle" x="63.5" y="-238.75" font-family="Helvetica,sans-Serif" font-size="10.00">::fillModel</text>
</a>
</g>
</g>
<!-- Node1&#45;&gt;Node2 -->
<g id="edge1_Node000001_Node000002" class="edge">
<title>Node1&#45;&gt;Node2</title>
<g id="a_edge1_Node000001_Node000002"><a xlink:title=" ">
<path fill="none" stroke="#63b8ff" d="M204.18,-155.68C186.93,-174.98 157.57,-205.1 127,-224.25 122.08,-227.34 116.69,-230.13 111.21,-232.63"/>
<polygon fill="#63b8ff" stroke="#63b8ff" points="206.68,-158.14 210.63,-148.31 201.41,-153.53 206.68,-158.14"/>
</a>
</g>
</g>
<!-- Node4 -->
<g id="Node000004" class="node">
<title>Node4</title>
<g id="a_Node000004"><a xlink:href="../../dd/d0a/class_face_editor.html#adf8745e7dc160e0a546a6137a05f2878" target="_top" xlink:title=" ">
<polygon fill="#fff0f0" stroke="red" points="124.38,-214.88 2.62,-214.88 2.62,-195.62 124.38,-195.62 124.38,-214.88"/>
<text text-anchor="middle" x="63.5" y="-201.38" font-family="Helvetica,sans-Serif" font-size="10.00">FaceEditor::getFacesFor</text>
</a>
</g>
</g>
<!-- Node1&#45;&gt;Node4 -->
<g id="edge2_Node000001_Node000004" class="edge">
<title>Node1&#45;&gt;Node4</title>
<g id="a_edge2_Node000001_Node000004"><a xlink:title=" ">
<path fill="none" stroke="#63b8ff" d="M193.34,-152.99C175.11,-163.36 150.11,-176.74 127,-186.25 119.03,-189.53 110.28,-192.54 101.92,-195.14"/>
<polygon fill="#63b8ff" stroke="#63b8ff" points="195,-156.07 201.91,-148.04 191.5,-150.01 195,-156.07"/>
</a>
</g>
</g>
<!-- Node6 -->
<g id="Node000006" class="node">
<title>Node6</title>
<g id="a_Node000006"><a xlink:href="../../de/d2a/class_image_media_information.html#ab59a804554c2edf243d753c2730fdf2c" target="_top" xlink:title=" ">
<polygon fill="white" stroke="#666666" points="122.5,-177.5 4.5,-177.5 4.5,-147 122.5,-147 122.5,-177.5"/>
<text text-anchor="start" x="12.5" y="-164" font-family="Helvetica,sans-Serif" font-size="10.00">ImageMediaInformation</text>
<text text-anchor="middle" x="63.5" y="-152.75" font-family="Helvetica,sans-Serif" font-size="10.00">::getInformation</text>
</a>
</g>
</g>
<!-- Node1&#45;&gt;Node6 -->
<g id="edge3_Node000001_Node000006" class="edge">
<title>Node1&#45;&gt;Node6</title>
<g id="a_edge3_Node000001_Node000006"><a xlink:title=" ">
<path fill="none" stroke="#63b8ff" d="M151.7,-148.22C142.05,-149.77 132.21,-151.36 122.77,-152.87"/>
<polygon fill="#63b8ff" stroke="#63b8ff" points="152.09,-151.7 161.41,-146.66 150.98,-144.79 152.09,-151.7"/>
</a>
</g>
</g>
<!-- Node7 -->
<g id="Node000007" class="node">
<title>Node7</title>
<g id="a_Node000007"><a xlink:href="../../d8/de9/class_video_media_information.html#aff55ed26988978d5c685119f7ecda2ca" target="_top" xlink:title=" ">
<polygon fill="#fff0f0" stroke="red" points="121.38,-128.5 5.63,-128.5 5.63,-98 121.38,-98 121.38,-128.5"/>
<text text-anchor="start" x="13.63" y="-115" font-family="Helvetica,sans-Serif" font-size="10.00">VideoMediaInformation</text>
<text text-anchor="middle" x="63.5" y="-103.75" font-family="Helvetica,sans-Serif" font-size="10.00">::getInformation</text>
</a>
</g>
</g>
<!-- Node1&#45;&gt;Node7 -->
<g id="edge4_Node000001_Node000007" class="edge">
<title>Node1&#45;&gt;Node7</title>
<g id="a_edge4_Node000001_Node000007"><a xlink:title=" ">
<path fill="none" stroke="#63b8ff" d="M151.73,-126.72C141.71,-125.18 131.49,-123.6 121.73,-122.09"/>
<polygon fill="#63b8ff" stroke="#63b8ff" points="150.99,-130.15 161.41,-128.22 152.06,-123.23 150.99,-130.15"/>
</a>
</g>
</g>
<!-- Node11 -->
<g id="Node000011" class="node">
<title>Node11</title>
<g id="a_Node000011"><a xlink:href="../../d0/d4e/class_photos_grouping_dialog.html#af6b9b5bf838e92f74c539d4972cabc38" target="_top" xlink:title=" ">
<polygon fill="#fff0f0" stroke="red" points="119.88,-79.5 7.13,-79.5 7.13,-49 119.88,-49 119.88,-79.5"/>
<text text-anchor="start" x="15.13" y="-66" font-family="Helvetica,sans-Serif" font-size="10.00">PhotosGroupingDialog</text>
<text text-anchor="middle" x="63.5" y="-54.75" font-family="Helvetica,sans-Serif" font-size="10.00">::makeCollage</text>
</a>
</g>
</g>
<!-- Node1&#45;&gt;Node11 -->
<g id="edge5_Node000001_Node000011" class="edge">
<title>Node1&#45;&gt;Node11</title>
<g id="a_edge5_Node000001_Node000011"><a xlink:title=" ">
<path fill="none" stroke="#63b8ff" d="M191.67,-121.77C173.44,-111.99 149.08,-99.34 127,-89.25 120.09,-86.09 112.66,-82.93 105.42,-79.96"/>
<polygon fill="#63b8ff" stroke="#63b8ff" points="189.84,-124.76 200.3,-126.44 193.17,-118.6 189.84,-124.76"/>
</a>
</g>
</g>
<!-- Node13 -->
<g id="Node000013" class="node">
<title>Node13</title>
<g id="a_Node000013"><a xlink:href="../../dc/dc9/class_generator_utils_1_1_breakable_task.html#a32d1b87cb6dcd42a9d9a860d3fcae8f3" target="_top" xlink:title=" ">
<polygon fill="#fff0f0" stroke="red" points="127,-30.5 0,-30.5 0,0 127,0 127,-30.5"/>
<text text-anchor="start" x="8" y="-17" font-family="Helvetica,sans-Serif" font-size="10.00">GeneratorUtils::Breakable</text>
<text text-anchor="middle" x="63.5" y="-5.75" font-family="Helvetica,sans-Serif" font-size="10.00">Task::preparePhotos</text>
</a>
</g>
</g>
<!-- Node1&#45;&gt;Node13 -->
<g id="edge6_Node000001_Node000013" class="edge">
<title>Node1&#45;&gt;Node13</title>
<g id="a_edge6_Node000001_Node000013"><a xlink:title=" ">
<path fill="none" stroke="#63b8ff" d="M205.85,-118.31C189.13,-96.87 159.36,-62.1 127,-40.25 121.87,-36.78 116.18,-33.68 110.39,-30.94"/>
<polygon fill="#63b8ff" stroke="#63b8ff" points="203,-120.36 211.85,-126.19 208.57,-116.11 203,-120.36"/>
</a>
</g>
</g>
</g>
</svg>
</svg>

<style type='text/css'>
<![CDATA[
[data-mouse-over-selected='false'] { opacity: 0.7; }
[data-mouse-over-selected='true']  { opacity: 1.0; }
]]>
</style>
<script type="application/ecmascript"><![CDATA[
document.addEventListener('DOMContentLoaded', (event) => {
  highlightEdges();
  highlightAdjacentNodes();
});
]]></script>
</svg>
