<?xml version="1.0" encoding="UTF-8" standalone="no"?>
<!DOCTYPE svg PUBLIC "-//W3C//DTD SVG 1.1//EN"
 "http://www.w3.org/Graphics/SVG/1.1/DTD/svg11.dtd">
<!-- Generated by graphviz version 9.0.0 (20230911.1827)
 -->
<!-- Title: src/core/features_manager_compositor.hpp Pages: 1 -->
<svg width="310pt" height="105pt"
 viewBox="0.00 0.00 310.38 105.00" xmlns="http://www.w3.org/2000/svg" xmlns:xlink="http://www.w3.org/1999/xlink">
<g id="graph0" class="graph" transform="scale(1 1) rotate(0) translate(4 101)">
<title>src/core/features_manager_compositor.hpp</title>
<!-- Node1 -->
<g id="Node000001" class="node">
<title>Node1</title>
<g id="a_Node000001"><a xlink:title=" ">
<polygon fill="#999999" stroke="#666666" points="230.25,-97 98,-97 98,-66.5 230.25,-66.5 230.25,-97"/>
<text text-anchor="start" x="106" y="-83.5" font-family="Helvetica,sans-Serif" font-size="10.00">src/core/features_manager</text>
<text text-anchor="middle" x="164.12" y="-72.25" font-family="Helvetica,sans-Serif" font-size="10.00">_compositor.hpp</text>
</a>
</g>
</g>
<!-- Node2 -->
<g id="Node000002" class="node">
<title>Node2</title>
<g id="a_Node000002"><a xlink:href="../../dd/d4a/features__manager__compositor_8cpp.html" target="_top" xlink:title=" ">
<polygon fill="white" stroke="#666666" points="168.25,-30.5 0,-30.5 0,0 168.25,0 168.25,-30.5"/>
<text text-anchor="start" x="8" y="-17" font-family="Helvetica,sans-Serif" font-size="10.00">src/core/implementation</text>
<text text-anchor="middle" x="84.12" y="-5.75" font-family="Helvetica,sans-Serif" font-size="10.00">/features_manager_compositor.cpp</text>
</a>
</g>
</g>
<!-- Node1&#45;&gt;Node2 -->
<g id="edge1_Node000001_Node000002" class="edge">
<title>Node1&#45;&gt;Node2</title>
<g id="a_edge1_Node000001_Node000002"><a xlink:title=" ">
<path fill="none" stroke="#63b8ff" d="M137.17,-59.02C125.66,-49.73 112.52,-39.15 102.21,-30.83"/>
<polygon fill="#63b8ff" stroke="#63b8ff" points="134.81,-61.61 144.79,-65.16 139.21,-56.16 134.81,-61.61"/>
</a>
</g>
</g>
<!-- Node3 -->
<g id="Node000003" class="node">
<title>Node3</title>
<g id="a_Node000003"><a xlink:href="../../d4/d46/gui_8cpp.html" target="_top" xlink:title=" ">
<polygon fill="white" stroke="#666666" points="302.38,-24.88 185.88,-24.88 185.88,-5.63 302.38,-5.63 302.38,-24.88"/>
<text text-anchor="middle" x="244.12" y="-11.38" font-family="Helvetica,sans-Serif" font-size="10.00">src/gui/desktop/gui.cpp</text>
</a>
</g>
</g>
<!-- Node1&#45;&gt;Node3 -->
<g id="edge2_Node000001_Node000003" class="edge">
<title>Node1&#45;&gt;Node3</title>
<g id="a_edge2_Node000001_Node000003"><a xlink:title=" ">
<path fill="none" stroke="#63b8ff" d="M190.85,-59.2C205.29,-47.56 222.33,-33.82 233.18,-25.07"/>
<polygon fill="#63b8ff" stroke="#63b8ff" points="189.04,-56.16 183.46,-65.16 193.44,-61.61 189.04,-56.16"/>
</a>
</g>
</g>
</g>
</svg>
