<?xml version="1.0" encoding="UTF-8" standalone="no"?>
<!DOCTYPE svg PUBLIC "-//W3C//DTD SVG 1.1//EN"
 "http://www.w3.org/Graphics/SVG/1.1/DTD/svg11.dtd">
<!-- Generated by graphviz version 7.0.5 (20221223.1930)
 -->
<!-- Title: TaskExecutor::stop Pages: 1 -->
<svg width="303pt" height="64pt"
 viewBox="0.00 0.00 303.00 64.00" xmlns="http://www.w3.org/2000/svg" xmlns:xlink="http://www.w3.org/1999/xlink">
<g id="graph0" class="graph" transform="scale(1 1) rotate(0) translate(4 60)">
<title>TaskExecutor::stop</title>
<!-- Node1 -->
<g id="node1" class="node">
<title>Node1</title>
<g id="a_node1"><a xlink:title=" ">
<polygon fill="#999999" stroke="#666666" points="99,-37 0,-37 0,-18 99,-18 99,-37"/>
<text text-anchor="middle" x="49.5" y="-25" font-family="Helvetica,sans-Serif" font-size="10.00">TaskExecutor::stop</text>
</a>
</g>
</g>
<!-- Node2 -->
<g id="node2" class="node">
<title>Node2</title>
<g id="a_node2"><a xlink:href="../../d2/d36/classol_1_1_t_s___queue.html#a13ca1f0531408de7df95b098a001800e" target="_top" xlink:title="Release all threads waiting in TS_Queue::pop().">
<polygon fill="white" stroke="#666666" points="264,-56 166,-56 166,-37 264,-37 264,-56"/>
<text text-anchor="middle" x="215" y="-44" font-family="Helvetica,sans-Serif" font-size="10.00">ol::TS_Queue::stop</text>
</a>
</g>
</g>
<!-- Node1&#45;&gt;Node2 -->
<g id="edge1" class="edge">
<title>Node1&#45;&gt;Node2</title>
<path fill="none" stroke="#63b8ff" d="M99.11,-33.15C116.41,-35.16 136.1,-37.45 154.23,-39.55"/>
<polygon fill="#63b8ff" stroke="#63b8ff" points="153.73,-43.02 164.07,-40.7 154.54,-36.07 153.73,-43.02"/>
</g>
<!-- Node3 -->
<g id="node3" class="node">
<title>Node3</title>
<g id="a_node3"><a xlink:href="../../de/d64/struct_task_executor.html#ac6200f7cc9d99e7a6f3475a80b54fdca" target="_top" xlink:title=" ">
<polygon fill="white" stroke="#666666" points="295,-19 135,-19 135,0 295,0 295,-19"/>
<text text-anchor="middle" x="215" y="-7" font-family="Helvetica,sans-Serif" font-size="10.00">TaskExecutor::wakeUpScheduler</text>
</a>
</g>
</g>
<!-- Node1&#45;&gt;Node3 -->
<g id="edge2" class="edge">
<title>Node1&#45;&gt;Node3</title>
<path fill="none" stroke="#63b8ff" d="M99.11,-22.15C106.81,-21.3 114.99,-20.4 123.29,-19.49"/>
<polygon fill="#63b8ff" stroke="#63b8ff" points="123.58,-22.98 133.14,-18.4 122.82,-16.02 123.58,-22.98"/>
</g>
</g>
</svg>
