<?xml version="1.0" encoding="UTF-8" standalone="no"?>
<!DOCTYPE svg PUBLIC "-//W3C//DTD SVG 1.1//EN"
 "http://www.w3.org/Graphics/SVG/1.1/DTD/svg11.dtd">
<!-- Generated by graphviz version 12.2.0 (20241103.1931)
 -->
<!-- Title: VideoMediaInformation::getInformation Pages: 1 -->
<svg width="276pt" height="64pt"
 viewBox="0.00 0.00 275.50 64.25" xmlns="http://www.w3.org/2000/svg" xmlns:xlink="http://www.w3.org/1999/xlink">
<g id="graph0" class="graph" transform="scale(1 1) rotate(0) translate(4 60.25)">
<title>VideoMediaInformation::getInformation</title>
<!-- Node1 -->
<g id="Node000001" class="node">
<title>Node1</title>
<g id="a_Node000001"><a xlink:title=" ">
<polygon fill="#999999" stroke="#666666" points="115.75,-42.88 0,-42.88 0,-12.37 115.75,-12.37 115.75,-42.88"/>
<text text-anchor="start" x="8" y="-29.38" font-family="Helvetica,sans-Serif" font-size="10.00">VideoMediaInformation</text>
<text text-anchor="middle" x="57.88" y="-18.12" font-family="Helvetica,sans-Serif" font-size="10.00">::getInformation</text>
</a>
</g>
</g>
<!-- Node2 -->
<g id="Node000002" class="node">
<title>Node2</title>
<g id="a_Node000002"><a xlink:href="../../d5/dd5/struct_i_exif_reader.html#adb056ee84526c248059ae528b57c47d2" target="_top" xlink:title=" ">
<polygon fill="white" stroke="#666666" points="251.38,-56.25 167.88,-56.25 167.88,-37 251.38,-37 251.38,-56.25"/>
<text text-anchor="middle" x="209.62" y="-42.75" font-family="Helvetica,sans-Serif" font-size="10.00">IExifReader::get</text>
</a>
</g>
</g>
<!-- Node1&#45;&gt;Node2 -->
<g id="edge1_Node000001_Node000002" class="edge">
<title>Node1&#45;&gt;Node2</title>
<g id="a_edge1_Node000001_Node000002"><a xlink:title=" ">
<path fill="none" stroke="#63b8ff" d="M115.92,-34.86C129.21,-36.55 143.31,-38.34 156.38,-40"/>
<polygon fill="#63b8ff" stroke="#63b8ff" points="155.71,-43.44 166.07,-41.23 156.59,-36.49 155.71,-43.44"/>
</a>
</g>
</g>
<!-- Node3 -->
<g id="Node000003" class="node">
<title>Node3</title>
<g id="a_Node000003"><a xlink:href="../../db/d10/struct_i_exif_reader_factory.html#a6f4cc75439d6811b6a1d16adde249c48" target="_top" xlink:title=" ">
<polygon fill="white" stroke="#666666" points="267.5,-19.25 151.75,-19.25 151.75,0 267.5,0 267.5,-19.25"/>
<text text-anchor="middle" x="209.62" y="-5.75" font-family="Helvetica,sans-Serif" font-size="10.00">IExifReaderFactory::get</text>
</a>
</g>
</g>
<!-- Node1&#45;&gt;Node3 -->
<g id="edge2_Node000001_Node000003" class="edge">
<title>Node1&#45;&gt;Node3</title>
<g id="a_edge2_Node000001_Node000003"><a xlink:title=" ">
<path fill="none" stroke="#63b8ff" d="M115.92,-20.77C123.89,-19.81 132.16,-18.82 140.32,-17.84"/>
<polygon fill="#63b8ff" stroke="#63b8ff" points="140.73,-21.31 150.24,-16.64 139.89,-14.36 140.73,-21.31"/>
</a>
</g>
</g>
</g>
</svg>
