<?xml version="1.0" encoding="UTF-8" standalone="no"?>
<!DOCTYPE svg PUBLIC "-//W3C//DTD SVG 1.1//EN"
 "http://www.w3.org/Graphics/SVG/1.1/DTD/svg11.dtd">
<!-- Generated by graphviz version 7.0.5 (20221223.1930)
 -->
<!-- Title: src/gui/desktop/models/flat_model.hpp Pages: 1 -->
<svg width="684pt" height="192pt"
 viewBox="0.00 0.00 684.00 192.00" xmlns="http://www.w3.org/2000/svg" xmlns:xlink="http://www.w3.org/1999/xlink">
<g id="graph0" class="graph" transform="scale(1 1) rotate(0) translate(4 188)">
<title>src/gui/desktop/models/flat_model.hpp</title>
<!-- Node1 -->
<g id="node1" class="node">
<title>Node1</title>
<g id="a_node1"><a xlink:title=" ">
<polygon fill="#999999" stroke="#666666" points="364,-184 246,-184 246,-154 364,-154 364,-184"/>
<text text-anchor="start" x="254" y="-172" font-family="Helvetica,sans-Serif" font-size="10.00">src/gui/desktop/models</text>
<text text-anchor="middle" x="305" y="-161" font-family="Helvetica,sans-Serif" font-size="10.00">/flat_model.hpp</text>
</a>
</g>
</g>
<!-- Node2 -->
<g id="node2" class="node">
<title>Node2</title>
<g id="a_node2"><a xlink:href="../../da/dff/flat__model_8cpp.html" target="_top" xlink:title=" ">
<polygon fill="white" stroke="#666666" points="118,-112.5 0,-112.5 0,-82.5 118,-82.5 118,-112.5"/>
<text text-anchor="start" x="8" y="-100.5" font-family="Helvetica,sans-Serif" font-size="10.00">src/gui/desktop/models</text>
<text text-anchor="middle" x="59" y="-89.5" font-family="Helvetica,sans-Serif" font-size="10.00">/flat_model.cpp</text>
</a>
</g>
</g>
<!-- Node1&#45;&gt;Node2 -->
<g id="edge1" class="edge">
<title>Node1&#45;&gt;Node2</title>
<path fill="none" stroke="#63b8ff" d="M242.78,-150.42C201.78,-138.84 148.75,-123.86 110.2,-112.97"/>
<polygon fill="#63b8ff" stroke="#63b8ff" points="241.7,-153.75 252.27,-153.1 243.6,-147.02 241.7,-153.75"/>
</g>
<!-- Node3 -->
<g id="node3" class="node">
<title>Node3</title>
<g id="a_node3"><a xlink:href="../../da/d07/photos__model__controller__component_8cpp.html" target="_top" xlink:title=" ">
<polygon fill="white" stroke="#666666" points="257.5,-41 102.5,-41 102.5,0 257.5,0 257.5,-41"/>
<text text-anchor="start" x="110.5" y="-29" font-family="Helvetica,sans-Serif" font-size="10.00">src/gui/desktop/quick</text>
<text text-anchor="start" x="110.5" y="-18" font-family="Helvetica,sans-Serif" font-size="10.00">_items/photos_model_controller</text>
<text text-anchor="middle" x="180" y="-7" font-family="Helvetica,sans-Serif" font-size="10.00">_component.cpp</text>
</a>
</g>
</g>
<!-- Node1&#45;&gt;Node3 -->
<g id="edge2" class="edge">
<title>Node1&#45;&gt;Node3</title>
<path fill="none" stroke="#63b8ff" d="M234.55,-159.96C208.29,-153.16 181,-140.71 165,-118 148.98,-95.27 159.64,-62.06 169.37,-41.12"/>
<polygon fill="#63b8ff" stroke="#63b8ff" points="233.7,-163.36 244.23,-162.21 235.28,-156.54 233.7,-163.36"/>
</g>
<!-- Node4 -->
<g id="node4" class="node">
<title>Node4</title>
<g id="a_node4"><a xlink:href="../../d8/d4e/photos__model__controller__component_8hpp.html" target="_top" xlink:title=" ">
<polygon fill="white" stroke="#666666" points="329.5,-118 174.5,-118 174.5,-77 329.5,-77 329.5,-118"/>
<text text-anchor="start" x="182.5" y="-106" font-family="Helvetica,sans-Serif" font-size="10.00">src/gui/desktop/quick</text>
<text text-anchor="start" x="182.5" y="-95" font-family="Helvetica,sans-Serif" font-size="10.00">_items/photos_model_controller</text>
<text text-anchor="middle" x="252" y="-84" font-family="Helvetica,sans-Serif" font-size="10.00">_component.hpp</text>
</a>
</g>
</g>
<!-- Node1&#45;&gt;Node4 -->
<g id="edge3" class="edge">
<title>Node1&#45;&gt;Node4</title>
<path fill="none" stroke="#63b8ff" d="M287.13,-144.57C280.66,-136.08 273.41,-126.58 267.19,-118.42"/>
<polygon fill="#63b8ff" stroke="#63b8ff" points="284.25,-146.57 293.1,-152.4 289.82,-142.32 284.25,-146.57"/>
</g>
<!-- Node5 -->
<g id="node5" class="node">
<title>Node5</title>
<g id="a_node5"><a xlink:href="../../d8/dd9/mainwindow_8cpp.html" target="_top" xlink:title=" ">
<polygon fill="white" stroke="#666666" points="387,-35.5 293,-35.5 293,-5.5 387,-5.5 387,-35.5"/>
<text text-anchor="start" x="301" y="-23.5" font-family="Helvetica,sans-Serif" font-size="10.00">src/gui/desktop/ui</text>
<text text-anchor="middle" x="340" y="-12.5" font-family="Helvetica,sans-Serif" font-size="10.00">/mainwindow.cpp</text>
</a>
</g>
</g>
<!-- Node1&#45;&gt;Node5 -->
<g id="edge6" class="edge">
<title>Node1&#45;&gt;Node5</title>
<path fill="none" stroke="#63b8ff" d="M324.84,-144.9C330.54,-136.91 336.01,-127.54 339,-118 347.77,-90.02 345.02,-55.2 342.4,-35.97"/>
<polygon fill="#63b8ff" stroke="#63b8ff" points="322.17,-142.64 318.86,-152.7 327.72,-146.9 322.17,-142.64"/>
</g>
<!-- Node6 -->
<g id="node6" class="node">
<title>Node6</title>
<g id="a_node6"><a xlink:href="../../d2/dca/aphoto__data__model__tests_8cpp.html" target="_top" xlink:title=" ">
<polygon fill="white" stroke="#666666" points="520,-118 386,-118 386,-77 520,-77 520,-118"/>
<text text-anchor="start" x="394" y="-106" font-family="Helvetica,sans-Serif" font-size="10.00">src/gui/unit_tests</text>
<text text-anchor="start" x="394" y="-95" font-family="Helvetica,sans-Serif" font-size="10.00">/model/aphoto_data_model</text>
<text text-anchor="middle" x="453" y="-84" font-family="Helvetica,sans-Serif" font-size="10.00">_tests.cpp</text>
</a>
</g>
</g>
<!-- Node1&#45;&gt;Node6 -->
<g id="edge7" class="edge">
<title>Node1&#45;&gt;Node6</title>
<path fill="none" stroke="#63b8ff" d="M346.06,-148.72C366.15,-139.28 390.32,-127.94 410.59,-118.42"/>
<polygon fill="#63b8ff" stroke="#63b8ff" points="344.6,-145.54 337.04,-152.96 347.58,-151.87 344.6,-145.54"/>
</g>
<!-- Node7 -->
<g id="node7" class="node">
<title>Node7</title>
<g id="a_node7"><a xlink:href="../../d1/dc2/flat__model__tests_8cpp.html" target="_top" xlink:title=" ">
<polygon fill="white" stroke="#666666" points="676,-112.5 538,-112.5 538,-82.5 676,-82.5 676,-112.5"/>
<text text-anchor="start" x="546" y="-100.5" font-family="Helvetica,sans-Serif" font-size="10.00">src/gui/unit_tests</text>
<text text-anchor="middle" x="607" y="-89.5" font-family="Helvetica,sans-Serif" font-size="10.00">/model/flat_model_tests.cpp</text>
</a>
</g>
</g>
<!-- Node1&#45;&gt;Node7 -->
<g id="edge8" class="edge">
<title>Node1&#45;&gt;Node7</title>
<path fill="none" stroke="#63b8ff" d="M375.26,-152.8C419.45,-143.12 477.63,-130.15 529,-118 535.79,-116.39 542.91,-114.67 549.96,-112.94"/>
<polygon fill="#63b8ff" stroke="#63b8ff" points="374.55,-149.37 365.53,-154.92 376.04,-156.21 374.55,-149.37"/>
</g>
<!-- Node4&#45;&gt;Node3 -->
<g id="edge4" class="edge">
<title>Node4&#45;&gt;Node3</title>
<path fill="none" stroke="#63b8ff" d="M225.35,-68.74C216.62,-59.64 207.09,-49.72 199.04,-41.33"/>
<polygon fill="#63b8ff" stroke="#63b8ff" points="222.58,-70.91 232.03,-75.7 227.63,-66.07 222.58,-70.91"/>
</g>
<!-- Node4&#45;&gt;Node5 -->
<g id="edge5" class="edge">
<title>Node4&#45;&gt;Node5</title>
<path fill="none" stroke="#63b8ff" d="M283.6,-69.57C296.96,-58.18 311.97,-45.39 323.15,-35.86"/>
<polygon fill="#63b8ff" stroke="#63b8ff" points="281.61,-66.66 276.27,-75.81 286.15,-71.99 281.61,-66.66"/>
</g>
</g>
</svg>
