<?xml version="1.0" encoding="UTF-8" standalone="no"?>
<!DOCTYPE svg PUBLIC "-//W3C//DTD SVG 1.1//EN"
 "http://www.w3.org/Graphics/SVG/1.1/DTD/svg11.dtd">
<!-- Generated by graphviz version 7.0.5 (20221223.1930)
 -->
<!-- Title: PhotosDataGuesser::applyRows Pages: 1 -->
<svg width="296pt" height="182pt"
 viewBox="0.00 0.00 296.00 182.00" xmlns="http://www.w3.org/2000/svg" xmlns:xlink="http://www.w3.org/1999/xlink">
<g id="graph0" class="graph" transform="scale(1 1) rotate(0) translate(4 178)">
<title>PhotosDataGuesser::applyRows</title>
<!-- Node1 -->
<g id="node1" class="node">
<title>Node1</title>
<g id="a_node1"><a xlink:title=" ">
<polygon fill="#999999" stroke="#666666" points="109,-102 0,-102 0,-72 109,-72 109,-102"/>
<text text-anchor="start" x="8" y="-90" font-family="Helvetica,sans-Serif" font-size="10.00">PhotosDataGuesser::</text>
<text text-anchor="middle" x="54.5" y="-79" font-family="Helvetica,sans-Serif" font-size="10.00">applyRows</text>
</a>
</g>
</g>
<!-- Node2 -->
<g id="node2" class="node">
<title>Node2</title>
<g id="a_node2"><a xlink:href="../../d7/da9/struct_database_1_1_i_database.html#ac86cb641a8f5a37a00873df333bb12bb" target="_top" xlink:title=" ">
<polygon fill="#fff0f0" stroke="red" points="270,-174 163,-174 163,-144 270,-144 270,-174"/>
<text text-anchor="start" x="171" y="-162" font-family="Helvetica,sans-Serif" font-size="10.00">Database::IDatabase</text>
<text text-anchor="middle" x="216.5" y="-151" font-family="Helvetica,sans-Serif" font-size="10.00">::exec</text>
</a>
</g>
</g>
<!-- Node1&#45;&gt;Node2 -->
<g id="edge1" class="edge">
<title>Node1&#45;&gt;Node2</title>
<path fill="none" stroke="#63b8ff" d="M81.56,-102.45C99.13,-112.49 123.01,-125.44 145,-135 148.55,-136.54 152.23,-138.05 155.96,-139.51"/>
<polygon fill="#63b8ff" stroke="#63b8ff" points="154.55,-142.72 165.14,-142.97 157.02,-136.17 154.55,-142.72"/>
</g>
<!-- Node5 -->
<g id="node3" class="node">
<title>Node5</title>
<g id="a_node3"><a xlink:href="../../d2/ddd/struct_database_1_1_i_backend.html#a439e4f41fce9b9d813000bbcb4c59523" target="_top" xlink:title=" ">
<polygon fill="white" stroke="#666666" points="268.5,-126 164.5,-126 164.5,-96 268.5,-96 268.5,-126"/>
<text text-anchor="start" x="172.5" y="-114" font-family="Helvetica,sans-Serif" font-size="10.00">Database::IBackend</text>
<text text-anchor="middle" x="216.5" y="-103" font-family="Helvetica,sans-Serif" font-size="10.00">::getPhotoDelta</text>
</a>
</g>
</g>
<!-- Node1&#45;&gt;Node5 -->
<g id="edge2" class="edge">
<title>Node1&#45;&gt;Node5</title>
<path fill="none" stroke="#63b8ff" d="M109.22,-95.06C123.19,-97.15 138.36,-99.43 152.75,-101.59"/>
<polygon fill="#63b8ff" stroke="#63b8ff" points="152.18,-105.04 162.59,-103.06 153.22,-98.12 152.18,-105.04"/>
</g>
<!-- Node6 -->
<g id="node4" class="node">
<title>Node6</title>
<g id="a_node4"><a xlink:href="../../de/d3a/class_a_heavy_list_model.html#ae349dd2d37ecf62351edb275c39065d3" target="_top" xlink:title=" ">
<polygon fill="white" stroke="#666666" points="288,-78 145,-78 145,-48 288,-48 288,-78"/>
<text text-anchor="start" x="153" y="-66" font-family="Helvetica,sans-Serif" font-size="10.00">AHeavyListModel&lt; Collected</text>
<text text-anchor="middle" x="216.5" y="-55" font-family="Helvetica,sans-Serif" font-size="10.00">Data &gt;::internalData</text>
</a>
</g>
</g>
<!-- Node1&#45;&gt;Node6 -->
<g id="edge3" class="edge">
<title>Node1&#45;&gt;Node6</title>
<path fill="none" stroke="#63b8ff" d="M109.22,-78.94C117.02,-77.77 125.2,-76.54 133.41,-75.31"/>
<polygon fill="#63b8ff" stroke="#63b8ff" points="133.72,-78.81 143.09,-73.86 132.68,-71.88 133.72,-78.81"/>
</g>
<!-- Node7 -->
<g id="node5" class="node">
<title>Node7</title>
<g id="a_node5"><a xlink:href="../../d2/ddd/struct_database_1_1_i_backend.html#a54e72b2ef4e7cde71e7be3b7fd70c03e" target="_top" xlink:title="update photos details">
<polygon fill="white" stroke="#666666" points="268.5,-30 164.5,-30 164.5,0 268.5,0 268.5,-30"/>
<text text-anchor="start" x="172.5" y="-18" font-family="Helvetica,sans-Serif" font-size="10.00">Database::IBackend</text>
<text text-anchor="middle" x="216.5" y="-7" font-family="Helvetica,sans-Serif" font-size="10.00">::update</text>
</a>
</g>
</g>
<!-- Node1&#45;&gt;Node7 -->
<g id="edge4" class="edge">
<title>Node1&#45;&gt;Node7</title>
<path fill="none" stroke="#63b8ff" d="M81.56,-71.55C99.13,-61.51 123.01,-48.56 145,-39 148.55,-37.46 152.23,-35.95 155.96,-34.49"/>
<polygon fill="#63b8ff" stroke="#63b8ff" points="157.02,-37.83 165.14,-31.03 154.55,-31.28 157.02,-37.83"/>
</g>
</g>
</svg>
