<?xml version="1.0" encoding="UTF-8" standalone="no"?>
<!DOCTYPE svg PUBLIC "-//W3C//DTD SVG 1.1//EN"
 "http://www.w3.org/Graphics/SVG/1.1/DTD/svg11.dtd">
<!-- Generated by graphviz version 7.0.5 (20221223.1930)
 -->
<!-- Title: PhotosDataGuesser::apply Pages: 1 -->
<svg width="435pt" height="108pt"
 viewBox="0.00 0.00 435.00 108.00" xmlns="http://www.w3.org/2000/svg" xmlns:xlink="http://www.w3.org/1999/xlink">
<g id="graph0" class="graph" transform="scale(1 1) rotate(0) translate(4 104)">
<title>PhotosDataGuesser::apply</title>
<!-- Node1 -->
<g id="node1" class="node">
<title>Node1</title>
<g id="a_node1"><a xlink:title=" ">
<polygon fill="#999999" stroke="#666666" points="109,-52 0,-52 0,-22 109,-22 109,-52"/>
<text text-anchor="start" x="8" y="-40" font-family="Helvetica,sans-Serif" font-size="10.00">PhotosDataGuesser::</text>
<text text-anchor="middle" x="54.5" y="-29" font-family="Helvetica,sans-Serif" font-size="10.00">apply</text>
</a>
</g>
</g>
<!-- Node2 -->
<g id="node2" class="node">
<title>Node2</title>
<g id="a_node2"><a xlink:href="../../d4/d9f/struct_database_1_1_i_database_thread.html#a6bdc1d4ea20d65caa82f4d732ead6830" target="_top" xlink:title=" ">
<polygon fill="#fff0f0" stroke="red" points="282,-100 145,-100 145,-70 282,-70 282,-100"/>
<text text-anchor="start" x="153" y="-88" font-family="Helvetica,sans-Serif" font-size="10.00">Database::IDatabaseThread</text>
<text text-anchor="middle" x="213.5" y="-77" font-family="Helvetica,sans-Serif" font-size="10.00">::exec</text>
</a>
</g>
</g>
<!-- Node1&#45;&gt;Node2 -->
<g id="edge1" class="edge">
<title>Node1&#45;&gt;Node2</title>
<path fill="none" stroke="#63b8ff" d="M106.04,-52.45C120.47,-56.86 136.34,-61.72 151.33,-66.3"/>
<polygon fill="#63b8ff" stroke="#63b8ff" points="150.02,-69.56 160.61,-69.13 152.07,-62.86 150.02,-69.56"/>
</g>
<!-- Node5 -->
<g id="node3" class="node">
<title>Node5</title>
<g id="a_node3"><a xlink:href="../../d4/dd6/class_photos_data_guesser.html#a871a5f672326c05ca924bd17f41796dc" target="_top" xlink:title=" ">
<polygon fill="#fff0f0" stroke="red" points="268,-52 159,-52 159,-22 268,-22 268,-52"/>
<text text-anchor="start" x="167" y="-40" font-family="Helvetica,sans-Serif" font-size="10.00">PhotosDataGuesser::</text>
<text text-anchor="middle" x="213.5" y="-29" font-family="Helvetica,sans-Serif" font-size="10.00">updatePhotos</text>
</a>
</g>
</g>
<!-- Node1&#45;&gt;Node5 -->
<g id="edge2" class="edge">
<title>Node1&#45;&gt;Node5</title>
<path fill="none" stroke="#63b8ff" d="M109.09,-37C121.33,-37 134.48,-37 147.15,-37"/>
<polygon fill="#63b8ff" stroke="#63b8ff" points="147.1,-40.5 157.1,-37 147.1,-33.5 147.1,-40.5"/>
</g>
<!-- Node9 -->
<g id="node4" class="node">
<title>Node9</title>
<g id="a_node4"><a xlink:href="../../d4/dd6/class_photos_data_guesser.html#aee41834a5811af02abe2abbb549dca4b" target="_top" xlink:title=" ">
<polygon fill="white" stroke="#666666" points="427,-30 318,-30 318,0 427,0 427,-30"/>
<text text-anchor="start" x="326" y="-18" font-family="Helvetica,sans-Serif" font-size="10.00">PhotosDataGuesser::</text>
<text text-anchor="middle" x="372.5" y="-7" font-family="Helvetica,sans-Serif" font-size="10.00">updateUpdateStatus</text>
</a>
</g>
</g>
<!-- Node1&#45;&gt;Node9 -->
<g id="edge4" class="edge">
<title>Node1&#45;&gt;Node9</title>
<path fill="none" stroke="#63b8ff" d="M103.8,-21.57C117.02,-18.03 131.44,-14.79 145,-13 198.98,-5.89 260.82,-7.05 306.23,-9.62"/>
<polygon fill="#63b8ff" stroke="#63b8ff" points="305.99,-13.12 316.19,-10.23 306.42,-6.13 305.99,-13.12"/>
</g>
<!-- Node5&#45;&gt;Node9 -->
<g id="edge3" class="edge">
<title>Node5&#45;&gt;Node9</title>
<path fill="none" stroke="#63b8ff" d="M268.09,-29.49C280.46,-27.76 293.75,-25.9 306.54,-24.1"/>
<polygon fill="#63b8ff" stroke="#63b8ff" points="306.7,-27.61 316.12,-22.76 305.73,-20.68 306.7,-27.61"/>
</g>
</g>
</svg>
