<?xml version="1.0" encoding="UTF-8" standalone="no"?>
<!DOCTYPE svg PUBLIC "-//W3C//DTD SVG 1.1//EN"
 "http://www.w3.org/Graphics/SVG/1.1/DTD/svg11.dtd">
<!-- Generated by graphviz version 7.0.5 (20221223.1930)
 -->
<!-- Title: PhotosDataGuesser::loadData Pages: 1 -->
<svg width="281pt" height="268pt"
 viewBox="0.00 0.00 281.00 267.50" xmlns="http://www.w3.org/2000/svg" xmlns:xlink="http://www.w3.org/1999/xlink">
<g id="graph0" class="graph" transform="scale(1 1) rotate(0) translate(4 263.5)">
<title>PhotosDataGuesser::loadData</title>
<!-- Node1 -->
<g id="node1" class="node">
<title>Node1</title>
<g id="a_node1"><a xlink:title=" ">
<polygon fill="#999999" stroke="#666666" points="109,-150 0,-150 0,-120 109,-120 109,-150"/>
<text text-anchor="start" x="8" y="-138" font-family="Helvetica,sans-Serif" font-size="10.00">PhotosDataGuesser::</text>
<text text-anchor="middle" x="54.5" y="-127" font-family="Helvetica,sans-Serif" font-size="10.00">loadData</text>
</a>
</g>
</g>
<!-- Node2 -->
<g id="node2" class="node">
<title>Node2</title>
<g id="a_node2"><a xlink:href="../../d4/dd6/class_photos_data_guesser.html#a6407dd88379eb705fe612c243968e54e" target="_top" xlink:title=" ">
<polygon fill="#fff0f0" stroke="red" points="273,-259.5 145,-259.5 145,-240.5 273,-240.5 273,-259.5"/>
<text text-anchor="middle" x="209" y="-247.5" font-family="Helvetica,sans-Serif" font-size="10.00">PhotosDataGuesser::data</text>
</a>
</g>
</g>
<!-- Node1&#45;&gt;Node2 -->
<g id="edge1" class="edge">
<title>Node1&#45;&gt;Node2</title>
<path fill="none" stroke="#63b8ff" d="M65.77,-150.34C80.75,-171.53 110.56,-209.57 145,-231 147.73,-232.7 150.62,-234.25 153.6,-235.67"/>
<polygon fill="#63b8ff" stroke="#63b8ff" points="152.02,-238.81 162.6,-239.43 154.72,-232.35 152.02,-238.81"/>
</g>
<!-- Node4 -->
<g id="node3" class="node">
<title>Node4</title>
<g id="a_node3"><a xlink:href="../../d7/da9/struct_database_1_1_i_database.html#ac86cb641a8f5a37a00873df333bb12bb" target="_top" xlink:title=" ">
<polygon fill="#fff0f0" stroke="red" points="262.5,-222 155.5,-222 155.5,-192 262.5,-192 262.5,-222"/>
<text text-anchor="start" x="163.5" y="-210" font-family="Helvetica,sans-Serif" font-size="10.00">Database::IDatabase</text>
<text text-anchor="middle" x="209" y="-199" font-family="Helvetica,sans-Serif" font-size="10.00">::exec</text>
</a>
</g>
</g>
<!-- Node1&#45;&gt;Node4 -->
<g id="edge2" class="edge">
<title>Node1&#45;&gt;Node4</title>
<path fill="none" stroke="#63b8ff" d="M82.07,-150.41C99.64,-160.31 123.35,-173.12 145,-183 148.15,-184.44 151.41,-185.86 154.71,-187.26"/>
<polygon fill="#63b8ff" stroke="#63b8ff" points="153.35,-190.48 163.93,-191.03 156,-184 153.35,-190.48"/>
</g>
<!-- Node7 -->
<g id="node4" class="node">
<title>Node7</title>
<g id="a_node4"><a xlink:href="../../d5/d26/class_data_from_path_extractor.html#a1ecd0e2a673e71024cc5aa528bad1592" target="_top" xlink:title=" ">
<polygon fill="#fff0f0" stroke="red" points="268,-174 150,-174 150,-144 268,-144 268,-174"/>
<text text-anchor="start" x="158" y="-162" font-family="Helvetica,sans-Serif" font-size="10.00">DataFromPathExtractor</text>
<text text-anchor="middle" x="209" y="-151" font-family="Helvetica,sans-Serif" font-size="10.00">::extract</text>
</a>
</g>
</g>
<!-- Node1&#45;&gt;Node7 -->
<g id="edge3" class="edge">
<title>Node1&#45;&gt;Node7</title>
<path fill="none" stroke="#63b8ff" d="M109.27,-143.46C118.63,-144.94 128.5,-146.49 138.22,-148.02"/>
<polygon fill="#63b8ff" stroke="#63b8ff" points="137.62,-151.47 148.04,-149.56 138.71,-144.55 137.62,-151.47"/>
</g>
<!-- Node10 -->
<g id="node5" class="node">
<title>Node10</title>
<g id="a_node5"><a xlink:href="../../d2/ddd/struct_database_1_1_i_backend.html#a439e4f41fce9b9d813000bbcb4c59523" target="_top" xlink:title=" ">
<polygon fill="white" stroke="#666666" points="261,-126 157,-126 157,-96 261,-96 261,-126"/>
<text text-anchor="start" x="165" y="-114" font-family="Helvetica,sans-Serif" font-size="10.00">Database::IBackend</text>
<text text-anchor="middle" x="209" y="-103" font-family="Helvetica,sans-Serif" font-size="10.00">::getPhotoDelta</text>
</a>
</g>
</g>
<!-- Node1&#45;&gt;Node10 -->
<g id="edge4" class="edge">
<title>Node1&#45;&gt;Node10</title>
<path fill="none" stroke="#63b8ff" d="M109.27,-126.54C120.9,-124.71 133.3,-122.76 145.24,-120.88"/>
<polygon fill="#63b8ff" stroke="#63b8ff" points="145.68,-124.35 155.02,-119.34 144.59,-117.44 145.68,-124.35"/>
</g>
<!-- Node11 -->
<g id="node6" class="node">
<title>Node11</title>
<g id="a_node6"><a xlink:href="../../d1/d7e/struct_database_1_1_i_photo_operator.html#af4cadc51c5fb475fc6acf0a78b23193a" target="_top" xlink:title="find all photos matching filters">
<polygon fill="white" stroke="#666666" points="273,-78 145,-78 145,-48 273,-48 273,-78"/>
<text text-anchor="start" x="153" y="-66" font-family="Helvetica,sans-Serif" font-size="10.00">Database::IPhotoOperator</text>
<text text-anchor="middle" x="209" y="-55" font-family="Helvetica,sans-Serif" font-size="10.00">::getPhotos</text>
</a>
</g>
</g>
<!-- Node1&#45;&gt;Node11 -->
<g id="edge5" class="edge">
<title>Node1&#45;&gt;Node11</title>
<path fill="none" stroke="#63b8ff" d="M82.07,-119.59C99.64,-109.69 123.35,-96.88 145,-87 148.15,-85.56 151.41,-84.14 154.71,-82.74"/>
<polygon fill="#63b8ff" stroke="#63b8ff" points="156,-86 163.93,-78.97 153.35,-79.52 156,-86"/>
</g>
<!-- Node12 -->
<g id="node7" class="node">
<title>Node12</title>
<g id="a_node7"><a xlink:href="../../d2/ddd/struct_database_1_1_i_backend.html#adc910ee6092bc177fb89dd8cebca1870" target="_top" xlink:title="get photo operator">
<polygon fill="white" stroke="#666666" points="261,-30 157,-30 157,0 261,0 261,-30"/>
<text text-anchor="start" x="165" y="-18" font-family="Helvetica,sans-Serif" font-size="10.00">Database::IBackend</text>
<text text-anchor="middle" x="209" y="-7" font-family="Helvetica,sans-Serif" font-size="10.00">::photoOperator</text>
</a>
</g>
</g>
<!-- Node1&#45;&gt;Node12 -->
<g id="edge6" class="edge">
<title>Node1&#45;&gt;Node12</title>
<path fill="none" stroke="#63b8ff" d="M66.25,-119.65C81.56,-98.79 111.54,-61.51 145,-39 146.78,-37.8 148.64,-36.65 150.54,-35.54"/>
<polygon fill="#63b8ff" stroke="#63b8ff" points="151.78,-38.84 159.03,-31.12 148.55,-32.64 151.78,-38.84"/>
</g>
</g>
</svg>
