<?xml version="1.0" encoding="UTF-8" standalone="no"?>
<!DOCTYPE svg PUBLIC "-//W3C//DTD SVG 1.1//EN"
 "http://www.w3.org/Graphics/SVG/1.1/DTD/svg11.dtd">
<!-- Generated by graphviz version 9.0.0 (20230911.1827)
 -->
<!-- Title: PhotosDataGuesser::loadData Pages: 1 -->
<svg width="280pt" height="272pt"
 viewBox="0.00 0.00 280.00 271.88" xmlns="http://www.w3.org/2000/svg" xmlns:xlink="http://www.w3.org/1999/xlink">

<svg id="main" version="1.1" xmlns="http://www.w3.org/2000/svg" xmlns:xlink="http://www.w3.org/1999/xlink" xml:space="preserve" onload="init(evt)">
<style type="text/css"><![CDATA[
.node, .edge {opacity: 0.7;}
.node.selected, .edge.selected {opacity: 1;}
.edge:hover path { stroke: red; }
.edge:hover polygon { stroke: red; fill: red; }
]]></style>
<script type="application/ecmascript" xlink:href="../../svg.min.js"/>
<svg id="graph" class="graph">
<g id="graph0" class="graph" transform="scale(1 1) rotate(0) translate(4 267.88)">
<title>PhotosDataGuesser::loadData</title>
<!-- Node1 -->
<g id="Node000001" class="node">
<title>Node1</title>
<g id="a_Node000001"><a xlink:title=" ">
<polygon fill="#999999" stroke="#666666" points="108.25,-152.5 0,-152.5 0,-122 108.25,-122 108.25,-152.5"/>
<text text-anchor="start" x="8" y="-139" font-family="Helvetica,sans-Serif" font-size="10.00">PhotosDataGuesser::</text>
<text text-anchor="middle" x="54.12" y="-127.75" font-family="Helvetica,sans-Serif" font-size="10.00">loadData</text>
</a>
</g>
</g>
<!-- Node2 -->
<g id="Node000002" class="node">
<title>Node2</title>
<g id="a_Node000002"><a xlink:href="../../d4/dd6/class_photos_data_guesser.html#a6407dd88379eb705fe612c243968e54e" target="_top" xlink:title=" ">
<polygon fill="#fff0f0" stroke="red" points="271.62,-263.88 144.62,-263.88 144.62,-244.62 271.62,-244.62 271.62,-263.88"/>
<text text-anchor="middle" x="208.12" y="-250.38" font-family="Helvetica,sans-Serif" font-size="10.00">PhotosDataGuesser::data</text>
</a>
</g>
</g>
<!-- Node1&#45;&gt;Node2 -->
<g id="edge1_Node000001_Node000002" class="edge">
<title>Node1&#45;&gt;Node2</title>
<g id="a_edge1_Node000001_Node000002"><a xlink:title=" ">
<path fill="none" stroke="#63b8ff" d="M65.26,-152.91C80.07,-174.55 109.64,-213.4 144.25,-235.25 146.83,-236.88 149.55,-238.37 152.37,-239.74"/>
<polygon fill="#63b8ff" stroke="#63b8ff" points="150.87,-242.91 161.44,-243.6 153.61,-236.47 150.87,-242.91"/>
</a>
</g>
</g>
<!-- Node4 -->
<g id="Node000004" class="node">
<title>Node4</title>
<g id="a_Node000004"><a xlink:href="../../d7/da9/struct_database_1_1_i_database.html#ac86cb641a8f5a37a00873df333bb12bb" target="_top" xlink:title=" ">
<polygon fill="#fff0f0" stroke="red" points="261.12,-226.5 155.12,-226.5 155.12,-196 261.12,-196 261.12,-226.5"/>
<text text-anchor="start" x="163.12" y="-213" font-family="Helvetica,sans-Serif" font-size="10.00">Database::IDatabase</text>
<text text-anchor="middle" x="208.12" y="-201.75" font-family="Helvetica,sans-Serif" font-size="10.00">::exec</text>
</a>
</g>
</g>
<!-- Node1&#45;&gt;Node4 -->
<g id="edge2_Node000001_Node000004" class="edge">
<title>Node1&#45;&gt;Node4</title>
<g id="a_edge2_Node000001_Node000004"><a xlink:title=" ">
<path fill="none" stroke="#63b8ff" d="M81.58,-152.93C99.08,-163.01 122.69,-176.08 144.25,-186.25 147.76,-187.9 151.4,-189.55 155.1,-191.15"/>
<polygon fill="#63b8ff" stroke="#63b8ff" points="153.58,-194.31 164.16,-194.98 156.3,-187.86 153.58,-194.31"/>
</a>
</g>
</g>
<!-- Node7 -->
<g id="Node000007" class="node">
<title>Node7</title>
<g id="a_Node000007"><a xlink:href="../../d5/d26/class_data_from_path_extractor.html#a1ecd0e2a673e71024cc5aa528bad1592" target="_top" xlink:title=" ">
<polygon fill="#fff0f0" stroke="red" points="266.75,-177.5 149.5,-177.5 149.5,-147 266.75,-147 266.75,-177.5"/>
<text text-anchor="start" x="157.5" y="-164" font-family="Helvetica,sans-Serif" font-size="10.00">DataFromPathExtractor</text>
<text text-anchor="middle" x="208.12" y="-152.75" font-family="Helvetica,sans-Serif" font-size="10.00">::extract</text>
</a>
</g>
</g>
<!-- Node1&#45;&gt;Node7 -->
<g id="edge3_Node000001_Node000007" class="edge">
<title>Node1&#45;&gt;Node7</title>
<g id="a_edge3_Node000001_Node000007"><a xlink:title=" ">
<path fill="none" stroke="#63b8ff" d="M108.71,-146.06C118.11,-147.61 128.02,-149.24 137.77,-150.84"/>
<polygon fill="#63b8ff" stroke="#63b8ff" points="137.19,-154.29 147.62,-152.46 138.32,-147.39 137.19,-154.29"/>
</a>
</g>
</g>
<!-- Node10 -->
<g id="Node000010" class="node">
<title>Node10</title>
<g id="a_Node000010"><a xlink:href="../../d2/ddd/struct_database_1_1_i_backend.html#a439e4f41fce9b9d813000bbcb4c59523" target="_top" xlink:title=" ">
<polygon fill="white" stroke="#666666" points="259.62,-128.5 156.62,-128.5 156.62,-98 259.62,-98 259.62,-128.5"/>
<text text-anchor="start" x="164.62" y="-115" font-family="Helvetica,sans-Serif" font-size="10.00">Database::IBackend</text>
<text text-anchor="middle" x="208.12" y="-103.75" font-family="Helvetica,sans-Serif" font-size="10.00">::getPhotoDelta</text>
</a>
</g>
</g>
<!-- Node1&#45;&gt;Node10 -->
<g id="edge4_Node000001_Node000010" class="edge">
<title>Node1&#45;&gt;Node10</title>
<g id="a_edge4_Node000001_Node000010"><a xlink:title=" ">
<path fill="none" stroke="#63b8ff" d="M108.71,-128.79C120.44,-126.94 132.94,-124.96 144.97,-123.06"/>
<polygon fill="#63b8ff" stroke="#63b8ff" points="145.49,-126.53 154.82,-121.51 144.39,-119.61 145.49,-126.53"/>
</a>
</g>
</g>
<!-- Node11 -->
<g id="Node000011" class="node">
<title>Node11</title>
<g id="a_Node000011"><a xlink:href="../../d1/d7e/struct_database_1_1_i_photo_operator.html#af4cadc51c5fb475fc6acf0a78b23193a" target="_top" xlink:title="find all photos matching filters">
<polygon fill="white" stroke="#666666" points="272,-79.5 144.25,-79.5 144.25,-49 272,-49 272,-79.5"/>
<text text-anchor="start" x="152.25" y="-66" font-family="Helvetica,sans-Serif" font-size="10.00">Database::IPhotoOperator</text>
<text text-anchor="middle" x="208.12" y="-54.75" font-family="Helvetica,sans-Serif" font-size="10.00">::getPhotos</text>
</a>
</g>
</g>
<!-- Node1&#45;&gt;Node11 -->
<g id="edge5_Node000001_Node000011" class="edge">
<title>Node1&#45;&gt;Node11</title>
<g id="a_edge5_Node000001_Node000011"><a xlink:title=" ">
<path fill="none" stroke="#63b8ff" d="M82.01,-121.72C99.49,-111.89 122.91,-99.2 144.25,-89.25 147.76,-87.61 151.42,-85.98 155.11,-84.38"/>
<polygon fill="#63b8ff" stroke="#63b8ff" points="156.32,-87.67 164.18,-80.57 153.6,-81.22 156.32,-87.67"/>
</a>
</g>
</g>
<!-- Node12 -->
<g id="Node000012" class="node">
<title>Node12</title>
<g id="a_Node000012"><a xlink:href="../../d2/ddd/struct_database_1_1_i_backend.html#adc910ee6092bc177fb89dd8cebca1870" target="_top" xlink:title="get photo operator">
<polygon fill="white" stroke="#666666" points="259.62,-30.5 156.62,-30.5 156.62,0 259.62,0 259.62,-30.5"/>
<text text-anchor="start" x="164.62" y="-17" font-family="Helvetica,sans-Serif" font-size="10.00">Database::IBackend</text>
<text text-anchor="middle" x="208.12" y="-5.75" font-family="Helvetica,sans-Serif" font-size="10.00">::photoOperator</text>
</a>
</g>
</g>
<!-- Node1&#45;&gt;Node12 -->
<g id="edge6_Node000001_Node000012" class="edge">
<title>Node1&#45;&gt;Node12</title>
<g id="a_edge6_Node000001_Node000012"><a xlink:title=" ">
<path fill="none" stroke="#63b8ff" d="M65.82,-121.8C81.07,-100.79 110.91,-63.21 144.25,-40.25 146.29,-38.84 148.43,-37.5 150.63,-36.21"/>
<polygon fill="#63b8ff" stroke="#63b8ff" points="152.01,-39.44 159.22,-31.68 148.75,-33.25 152.01,-39.44"/>
</a>
</g>
</g>
</g>
</svg>
</svg>

<style type='text/css'>
<![CDATA[
[data-mouse-over-selected='false'] { opacity: 0.7; }
[data-mouse-over-selected='true']  { opacity: 1.0; }
]]>
</style>
<script type="application/ecmascript"><![CDATA[
document.addEventListener('DOMContentLoaded', (event) => {
  highlightEdges();
  highlightAdjacentNodes();
});
]]></script>
</svg>
