<?xml version="1.0" encoding="UTF-8" standalone="no"?>
<!DOCTYPE svg PUBLIC "-//W3C//DTD SVG 1.1//EN"
 "http://www.w3.org/Graphics/SVG/1.1/DTD/svg11.dtd">
<!-- Generated by graphviz version 9.0.0 (20230911.1827)
 -->
<!-- Title: NotificationsModel Pages: 1 -->
<svg width="289pt" height="94pt"
 viewBox="0.00 0.00 288.75 93.75" xmlns="http://www.w3.org/2000/svg" xmlns:xlink="http://www.w3.org/1999/xlink">
<g id="graph0" class="graph" transform="scale(1 1) rotate(0) translate(4 89.75)">
<title>NotificationsModel</title>
<!-- Node1 -->
<g id="Node000001" class="node">
<title>Node1</title>
<g id="a_Node000001"><a xlink:title=" ">
<polygon fill="#999999" stroke="#666666" points="205.62,-19.25 109.38,-19.25 109.38,0 205.62,0 205.62,-19.25"/>
<text text-anchor="middle" x="157.5" y="-5.75" font-family="Helvetica,sans-Serif" font-size="10.00">NotificationsModel</text>
</a>
</g>
</g>
<!-- Node2 -->
<g id="Node000002" class="node">
<title>Node2</title>
<g id="a_Node000002"><a xlink:title=" ">
<polygon fill="white" stroke="#666666" points="103,-85.75 0,-85.75 0,-66.5 103,-66.5 103,-85.75"/>
<text text-anchor="middle" x="51.5" y="-72.25" font-family="Helvetica,sans-Serif" font-size="10.00">QAbstractListModel</text>
</a>
</g>
</g>
<!-- Node2&#45;&gt;Node1 -->
<g id="edge1_Node000001_Node000002" class="edge">
<title>Node2&#45;&gt;Node1</title>
<g id="a_edge1_Node000001_Node000002"><a xlink:title=" ">
<path fill="none" stroke="#63b8ff" d="M75.86,-60.3C96.43,-47.78 125.22,-30.27 142.54,-19.73"/>
<polygon fill="#63b8ff" stroke="#63b8ff" points="74.26,-57.18 67.53,-65.37 77.89,-63.16 74.26,-57.18"/>
</a>
</g>
</g>
<!-- Node3 -->
<g id="Node000003" class="node">
<title>Node3</title>
<g id="a_Node000003"><a xlink:href="../../d2/d43/class_i_notifications.html" target="_top" xlink:title=" ">
<polygon fill="white" stroke="#666666" points="194,-85.75 121,-85.75 121,-66.5 194,-66.5 194,-85.75"/>
<text text-anchor="middle" x="157.5" y="-72.25" font-family="Helvetica,sans-Serif" font-size="10.00">INotifications</text>
</a>
</g>
</g>
<!-- Node3&#45;&gt;Node1 -->
<g id="edge2_Node000001_Node000003" class="edge">
<title>Node3&#45;&gt;Node1</title>
<g id="a_edge2_Node000001_Node000003"><a xlink:title=" ">
<path fill="none" stroke="#63b8ff" d="M157.5,-54.65C157.5,-42.82 157.5,-28.54 157.5,-19.52"/>
<polygon fill="#63b8ff" stroke="#63b8ff" points="154,-54.64 157.5,-64.64 161,-54.64 154,-54.64"/>
</a>
</g>
</g>
<!-- Node4 -->
<g id="Node000004" class="node">
<title>Node4</title>
<g id="a_Node000004"><a xlink:href="../../db/dfb/class_id.html" target="_top" xlink:title=" ">
<polygon fill="white" stroke="#666666" points="280.75,-85.75 212.25,-85.75 212.25,-66.5 280.75,-66.5 280.75,-85.75"/>
<text text-anchor="middle" x="246.5" y="-72.25" font-family="Helvetica,sans-Serif" font-size="10.00">Id&lt; T, Tag &gt;</text>
</a>
</g>
</g>
<!-- Node4&#45;&gt;Node1 -->
<g id="edge3_Node000001_Node000004" class="edge">
<title>Node4&#45;&gt;Node1</title>
<g id="a_edge3_Node000001_Node000004"><a xlink:title=" ">
<path fill="none" stroke="#9a32cd" stroke-dasharray="5,2" d="M224.85,-59.43C207.68,-46.99 184.27,-30.03 170.06,-19.73"/>
<polygon fill="#9a32cd" stroke="#9a32cd" points="222.75,-62.23 232.9,-65.27 226.86,-56.57 222.75,-62.23"/>
</a>
</g>
<text text-anchor="middle" x="218.12" y="-39" font-family="Helvetica,sans-Serif" font-size="10.00" fill="grey"> m_id</text>
</g>
</g>
</svg>
