<?xml version="1.0" encoding="UTF-8" standalone="no"?>
<!DOCTYPE svg PUBLIC "-//W3C//DTD SVG 1.1//EN"
 "http://www.w3.org/Graphics/SVG/1.1/DTD/svg11.dtd">
<!-- Generated by graphviz version 7.0.5 (20221223.1930)
 -->
<!-- Title: BaseTags::getType Pages: 1 -->
<svg width="266pt" height="86pt"
 viewBox="0.00 0.00 266.00 86.00" xmlns="http://www.w3.org/2000/svg" xmlns:xlink="http://www.w3.org/1999/xlink">
<g id="graph0" class="graph" transform="scale(1 1) rotate(0) translate(4 82)">
<title>BaseTags::getType</title>
<!-- Node1 -->
<g id="node1" class="node">
<title>Node1</title>
<g id="a_node1"><a xlink:title="Get structure describing tag.">
<polygon fill="#999999" stroke="#666666" points="258,-48.5 158,-48.5 158,-29.5 258,-29.5 258,-48.5"/>
<text text-anchor="middle" x="208" y="-36.5" font-family="Helvetica,sans-Serif" font-size="10.00">BaseTags::getType</text>
</a>
</g>
</g>
<!-- Node2 -->
<g id="node2" class="node">
<title>Node2</title>
<g id="a_node2"><a xlink:href="../../d5/d1b/class_database_1_1_a_sql_backend.html#adcb6eb7ac6bcd49815d7b7e0f670c602" target="_top" xlink:title="get all tags assigned to photo">
<polygon fill="#fff0f0" stroke="red" points="122,-78 0,-78 0,-48 122,-48 122,-78"/>
<text text-anchor="start" x="8" y="-66" font-family="Helvetica,sans-Serif" font-size="10.00">Database::ASqlBackend</text>
<text text-anchor="middle" x="61" y="-55" font-family="Helvetica,sans-Serif" font-size="10.00">::getTagsFor</text>
</a>
</g>
</g>
<!-- Node1&#45;&gt;Node2 -->
<g id="edge1" class="edge">
<title>Node1&#45;&gt;Node2</title>
<path fill="none" stroke="#63b8ff" d="M146.41,-49.03C138.44,-50.35 130.27,-51.7 122.31,-53.02"/>
<polygon fill="#63b8ff" stroke="#63b8ff" points="146.72,-52.53 156.01,-47.44 145.57,-45.62 146.72,-52.53"/>
</g>
<!-- Node10 -->
<g id="node3" class="node">
<title>Node10</title>
<g id="a_node3"><a xlink:href="../../d5/d1b/class_database_1_1_a_sql_backend.html#a378dcd419d61056d0fbdf57f969304cb" target="_top" xlink:title="list all values of tag for photos matching provided filter">
<polygon fill="white" stroke="#666666" points="122,-30 0,-30 0,0 122,0 122,-30"/>
<text text-anchor="start" x="8" y="-18" font-family="Helvetica,sans-Serif" font-size="10.00">Database::ASqlBackend</text>
<text text-anchor="middle" x="61" y="-7" font-family="Helvetica,sans-Serif" font-size="10.00">::listTagValues</text>
</a>
</g>
</g>
<!-- Node1&#45;&gt;Node10 -->
<g id="edge2" class="edge">
<title>Node1&#45;&gt;Node10</title>
<path fill="none" stroke="#63b8ff" d="M146.41,-28.97C138.44,-27.65 130.27,-26.3 122.31,-24.98"/>
<polygon fill="#63b8ff" stroke="#63b8ff" points="145.57,-32.38 156.01,-30.56 146.72,-25.47 145.57,-32.38"/>
</g>
</g>
</svg>
