<?xml version="1.0" encoding="UTF-8" standalone="no"?>
<!DOCTYPE svg PUBLIC "-//W3C//DTD SVG 1.1//EN"
 "http://www.w3.org/Graphics/SVG/1.1/DTD/svg11.dtd">
<!-- Generated by graphviz version 12.2.0 (20241103.1931)
 -->
<!-- Title: src/gui/desktop/ui Pages: 1 -->
<!--zoomable 134 -->

<svg id="main" version="1.1" xmlns="http://www.w3.org/2000/svg" xmlns:xlink="http://www.w3.org/1999/xlink" xml:space="preserve" onload="init(evt)">

<style type="text/css"><![CDATA[
.node, .edge {opacity: 0.7;}
.node.selected, .edge.selected {opacity: 1;}
.edge:hover path { stroke: red; }
.edge:hover polygon { stroke: red; fill: red; }
]]></style>

<defs>
  <circle id="rim" cx="0" cy="0" r="7"/>
  <circle id="rim2" cx="0" cy="0" r="3.5"/>
  <g id="zoomPlus">
    <use xlink:href="#rim" fill="#404040"><set attributeName="fill" to="#808080" begin="zoomplus.mouseover" end="zoomplus.mouseout"/></use>
    <path d="M-4,0h8M0,-4v8" fill="none" stroke="white" stroke-width="1.5" pointer-events="none"/>
  </g>
  <g id="zoomMin">
    <use xlink:href="#rim" fill="#404040"><set attributeName="fill" to="#808080" begin="zoomminus.mouseover" end="zoomminus.mouseout"/></use>
    <path d="M-4,0h8" fill="none" stroke="white" stroke-width="1.5" pointer-events="none"/>
  </g>
  <g id="arrowUp" transform="translate(30 24)">
    <use xlink:href="#rim"/>
    <path pointer-events="none" fill="none" stroke="white" stroke-width="1.5" d="M0,-3.0v7 M-2.5,-0.5L0,-3.0L2.5,-0.5"/>
  </g>
  <g id="arrowRight" transform="rotate(90) translate(36 -43)">
    <use xlink:href="#rim"/>
    <path pointer-events="none" fill="none" stroke="white" stroke-width="1.5" d="M0,-3.0v7 M-2.5,-0.5L0,-3.0L2.5,-0.5"/>
  </g>
  <g id="arrowDown" transform="rotate(180) translate(-30 -48)">
    <use xlink:href="#rim"/>
    <path pointer-events="none" fill="none" stroke="white" stroke-width="1.5" d="M0,-3.0v7 M-2.5,-0.5L0,-3.0L2.5,-0.5"/>
  </g>
  <g id="arrowLeft" transform="rotate(270) translate(-36 17)">
    <use xlink:href="#rim"/>
    <path pointer-events="none" fill="none" stroke="white" stroke-width="1.5" d="M0,-3.0v7 M-2.5,-0.5L0,-3.0L2.5,-0.5"/>
  </g>
  <g id="resetDef">
    <use xlink:href="#rim2" fill="#404040"><set attributeName="fill" to="#808080" begin="reset.mouseover" end="reset.mouseout"/></use>
  </g>
</defs>
<script type="application/ecmascript">
var viewWidth = 705;
var viewHeight = 134;
var sectionId = 'dynsection-0';
</script>
<script type="application/ecmascript" xlink:href="svg.min.js"/>
<svg id="graph" class="graph">
<g id="viewport">
<title>src/gui/desktop/ui</title>
<g id="clust1" class="cluster">
<title>clusterdir_c090f567964b7b78a4e63a3af92480e4</title>
<g id="a_clust1"><a xlink:href="dir_c090f567964b7b78a4e63a3af92480e4.html" target="_top" xlink:title="desktop">
<polygon fill="#edf0f7" stroke="#7f7f7f" stroke-dasharray="5,2" points="8,-8 8,-117.75 426,-117.75 426,-8 8,-8"/>
<text text-anchor="middle" x="217" y="-104.25" font-family="Helvetica,sans-Serif" font-size="10.00">desktop</text>
</a>
</g>
</g>
<!-- dir_1b7a27b8217f5e65b22462c5d7f44b93 -->
<g id="node1" class="node">
<title>dir_1b7a27b8217f5e65b22462c5d7f44b93</title>
<g id="a_node1"><a xlink:href="dir_1b7a27b8217f5e65b22462c5d7f44b93.html" target="_top" xlink:title="utils">
<polygon fill="#a2b4d6" stroke="red" points="50,-35.25 16,-35.25 16,-16 50,-16 50,-35.25"/>
<text text-anchor="middle" x="33" y="-21.75" font-family="Helvetica,sans-Serif" font-size="10.00">utils</text>
</a>
</g>
</g>
<!-- dir_1c19ca1a4f7a7d4cea5c037903b88df8 -->
<g id="node2" class="node">
<title>dir_1c19ca1a4f7a7d4cea5c037903b88df8</title>
<g id="a_node2"><a xlink:href="dir_1c19ca1a4f7a7d4cea5c037903b88df8.html" target="_top" xlink:title="ui_utils">
<polygon fill="#a2b4d6" stroke="#404040" points="114.38,-35.25 67.62,-35.25 67.62,-16 114.38,-16 114.38,-35.25"/>
<text text-anchor="middle" x="91" y="-21.75" font-family="Helvetica,sans-Serif" font-size="10.00">ui_utils</text>
</a>
</g>
</g>
<!-- dir_7d467393d560233103ebcba321685010 -->
<g id="node3" class="node">
<title>dir_7d467393d560233103ebcba321685010</title>
<g id="a_node3"><a xlink:href="dir_7d467393d560233103ebcba321685010.html" target="_top" xlink:title="config_tabs">
<polygon fill="#a2b4d6" stroke="#404040" points="197.75,-35.25 132.25,-35.25 132.25,-16 197.75,-16 197.75,-35.25"/>
<text text-anchor="middle" x="165" y="-21.75" font-family="Helvetica,sans-Serif" font-size="10.00">config_tabs</text>
</a>
</g>
</g>
<!-- dir_8dc0b02c5540719e4ed4ca2c28a1216f -->
<g id="node4" class="node">
<title>dir_8dc0b02c5540719e4ed4ca2c28a1216f</title>
<g id="a_node4"><a xlink:href="dir_8dc0b02c5540719e4ed4ca2c28a1216f.html" target="_top" xlink:title="widgets">
<polygon fill="#a2b4d6" stroke="red" points="265.88,-35.25 216.12,-35.25 216.12,-16 265.88,-16 265.88,-35.25"/>
<text text-anchor="middle" x="241" y="-21.75" font-family="Helvetica,sans-Serif" font-size="10.00">widgets</text>
</a>
</g>
</g>
<!-- dir_9f2afc37bbee63264d7dee120a37359d -->
<g id="node5" class="node">
<title>dir_9f2afc37bbee63264d7dee120a37359d</title>
<g id="a_node5"><a xlink:href="dir_9f2afc37bbee63264d7dee120a37359d.html" target="_top" xlink:title="quick_items">
<polygon fill="#a2b4d6" stroke="red" points="352.25,-35.25 283.75,-35.25 283.75,-16 352.25,-16 352.25,-35.25"/>
<text text-anchor="middle" x="318" y="-21.75" font-family="Helvetica,sans-Serif" font-size="10.00">quick_items</text>
</a>
</g>
</g>
<!-- dir_eedf6bf7af32f88c96a361dd896f2edf -->
<g id="node6" class="node">
<title>dir_eedf6bf7af32f88c96a361dd896f2edf</title>
<g id="a_node6"><a xlink:href="dir_eedf6bf7af32f88c96a361dd896f2edf.html" target="_top" xlink:title="models">
<polygon fill="#a2b4d6" stroke="#404040" points="417.75,-35.25 370.25,-35.25 370.25,-16 417.75,-16 417.75,-35.25"/>
<text text-anchor="middle" x="394" y="-21.75" font-family="Helvetica,sans-Serif" font-size="10.00">models</text>
</a>
</g>
</g>
<!-- dir_fcaf3ae3d2d1d53571279bba4994cbf5 -->
<g id="node7" class="node">
<title>dir_fcaf3ae3d2d1d53571279bba4994cbf5</title>
<g id="a_node7"><a xlink:href="dir_fcaf3ae3d2d1d53571279bba4994cbf5.html" target="_top" xlink:title="ui">
<polygon fill="#edf0f7" stroke="#404040" stroke-width="2" points="370.4,-90.5 341.6,-90.5 341.6,-71.25 370.4,-71.25 370.4,-90.5"/>
<text text-anchor="middle" x="356" y="-77" font-family="Helvetica,sans-Serif" font-size="10.00">ui</text>
</a>
</g>
</g>
<!-- dir_fcaf3ae3d2d1d53571279bba4994cbf5&#45;&gt;dir_1b7a27b8217f5e65b22462c5d7f44b93 -->
<g id="edge1" class="edge">
<title>dir_fcaf3ae3d2d1d53571279bba4994cbf5&#45;&gt;dir_1b7a27b8217f5e65b22462c5d7f44b93</title>
<g id="a_edge1"><a xlink:href="dir_000044_000054.html" target="_top">
<path fill="none" stroke="#63b8ff" d="M341.31,-78.57C299.11,-74.62 173.91,-61.62 61.1,-35.38"/>
<polygon fill="#63b8ff" stroke="#63b8ff" points="62.23,-32.05 51.7,-33.15 60.62,-38.86 62.23,-32.05"/>
</a>
</g>
<g id="a_edge1&#45;headlabel"><a xlink:href="dir_000044_000054.html" target="_top" xlink:title="11">
<text text-anchor="middle" x="64.91" y="-25.89" font-family="Helvetica,sans-Serif" font-size="10.00" fill="#63b8ff">11</text>
</a>
</g>
</g>
<!-- dir_fcaf3ae3d2d1d53571279bba4994cbf5&#45;&gt;dir_1c19ca1a4f7a7d4cea5c037903b88df8 -->
<g id="edge2" class="edge">
<title>dir_fcaf3ae3d2d1d53571279bba4994cbf5&#45;&gt;dir_1c19ca1a4f7a7d4cea5c037903b88df8</title>
<g id="a_edge2"><a xlink:href="dir_000044_000045.html" target="_top">
<path fill="none" stroke="#63b8ff" d="M341.2,-77.43C305.74,-71.5 212.92,-55.49 125.85,-35.78"/>
<polygon fill="#63b8ff" stroke="#63b8ff" points="126.72,-32.38 116.19,-33.56 125.16,-39.21 126.72,-32.38"/>
</a>
</g>
<g id="a_edge2&#45;headlabel"><a xlink:href="dir_000044_000045.html" target="_top" xlink:title="2">
<text text-anchor="middle" x="129.38" y="-26.21" font-family="Helvetica,sans-Serif" font-size="10.00" fill="#63b8ff">2</text>
</a>
</g>
</g>
<!-- dir_fcaf3ae3d2d1d53571279bba4994cbf5&#45;&gt;dir_7d467393d560233103ebcba321685010 -->
<g id="edge4" class="edge">
<title>dir_fcaf3ae3d2d1d53571279bba4994cbf5&#45;&gt;dir_7d467393d560233103ebcba321685010</title>
<g id="a_edge4"><a xlink:href="dir_000044_000003.html" target="_top">
<path fill="none" stroke="#63b8ff" d="M341.33,-75.78C313.26,-67.96 250.99,-50.6 208.49,-38.75"/>
<polygon fill="#63b8ff" stroke="#63b8ff" points="209.64,-35.44 199.06,-36.12 207.76,-42.18 209.64,-35.44"/>
</a>
</g>
<g id="a_edge4&#45;headlabel"><a xlink:href="dir_000044_000003.html" target="_top" xlink:title="1">
<text text-anchor="middle" x="212.4" y="-29.38" font-family="Helvetica,sans-Serif" font-size="10.00" fill="#63b8ff">1</text>
</a>
</g>
</g>
<!-- dir_fcaf3ae3d2d1d53571279bba4994cbf5&#45;&gt;dir_8dc0b02c5540719e4ed4ca2c28a1216f -->
<g id="edge6" class="edge">
<title>dir_fcaf3ae3d2d1d53571279bba4994cbf5&#45;&gt;dir_8dc0b02c5540719e4ed4ca2c28a1216f</title>
<g id="a_edge6"><a xlink:href="dir_000044_000056.html" target="_top">
<path fill="none" stroke="#63b8ff" d="M341.44,-73.13C323.78,-64.95 293.56,-50.96 270.88,-40.46"/>
<polygon fill="#63b8ff" stroke="#63b8ff" points="272.35,-37.28 261.8,-36.26 269.41,-43.64 272.35,-37.28"/>
</a>
</g>
<g id="a_edge6&#45;headlabel"><a xlink:href="dir_000044_000056.html" target="_top" xlink:title="2">
<text text-anchor="middle" x="275.43" y="-31.71" font-family="Helvetica,sans-Serif" font-size="10.00" fill="#63b8ff">2</text>
</a>
</g>
</g>
<!-- dir_fcaf3ae3d2d1d53571279bba4994cbf5&#45;&gt;dir_9f2afc37bbee63264d7dee120a37359d -->
<g id="edge7" class="edge">
<title>dir_fcaf3ae3d2d1d53571279bba4994cbf5&#45;&gt;dir_9f2afc37bbee63264d7dee120a37359d</title>
<g id="a_edge7"><a xlink:href="dir_000044_000038.html" target="_top">
<path fill="none" stroke="#63b8ff" d="M349.73,-71.08C344.64,-63.96 337.3,-53.68 330.97,-44.8"/>
<polygon fill="#63b8ff" stroke="#63b8ff" points="333.95,-42.95 325.29,-36.84 328.25,-47.01 333.95,-42.95"/>
</a>
</g>
<g id="a_edge7&#45;headlabel"><a xlink:href="dir_000044_000038.html" target="_top" xlink:title="4">
<text text-anchor="middle" x="337.47" y="-39.12" font-family="Helvetica,sans-Serif" font-size="10.00" fill="#63b8ff">4</text>
</a>
</g>
</g>
<!-- dir_fcaf3ae3d2d1d53571279bba4994cbf5&#45;&gt;dir_eedf6bf7af32f88c96a361dd896f2edf -->
<g id="edge9" class="edge">
<title>dir_fcaf3ae3d2d1d53571279bba4994cbf5&#45;&gt;dir_eedf6bf7af32f88c96a361dd896f2edf</title>
<g id="a_edge9"><a xlink:href="dir_000044_000031.html" target="_top">
<path fill="none" stroke="#63b8ff" d="M362.27,-71.08C367.36,-63.96 374.7,-53.68 381.03,-44.8"/>
<polygon fill="#63b8ff" stroke="#63b8ff" points="383.75,-47.01 386.71,-36.84 378.05,-42.95 383.75,-47.01"/>
</a>
</g>
<g id="a_edge9&#45;headlabel"><a xlink:href="dir_000044_000031.html" target="_top" xlink:title="4">
<text text-anchor="middle" x="384.85" y="-46.48" font-family="Helvetica,sans-Serif" font-size="10.00" fill="#63b8ff">4</text>
</a>
</g>
</g>
<!-- dir_54e6d718270be77f4d294dce82c1c152 -->
<g id="node8" class="node">
<title>dir_54e6d718270be77f4d294dce82c1c152</title>
<g id="a_node8"><a xlink:href="dir_54e6d718270be77f4d294dce82c1c152.html" target="_top" xlink:title="project_utils">
<polygon fill="#edf0f7" stroke="red" stroke-dasharray="5,2" points="504.25,-35.25 435.75,-35.25 435.75,-16 504.25,-16 504.25,-35.25"/>
<text text-anchor="middle" x="470" y="-21.75" font-family="Helvetica,sans-Serif" font-size="10.00">project_utils</text>
</a>
</g>
</g>
<!-- dir_fcaf3ae3d2d1d53571279bba4994cbf5&#45;&gt;dir_54e6d718270be77f4d294dce82c1c152 -->
<g id="edge3" class="edge">
<title>dir_fcaf3ae3d2d1d53571279bba4994cbf5&#45;&gt;dir_54e6d718270be77f4d294dce82c1c152</title>
<g id="a_edge3"><a xlink:href="dir_000044_000036.html" target="_top">
<path fill="none" stroke="#63b8ff" d="M370.44,-73.13C387.94,-64.95 417.89,-50.96 440.38,-40.46"/>
<polygon fill="#63b8ff" stroke="#63b8ff" points="441.79,-43.67 449.37,-36.26 438.83,-37.32 441.79,-43.67"/>
</a>
</g>
<g id="a_edge3&#45;headlabel"><a xlink:href="dir_000044_000036.html" target="_top" xlink:title="4">
<text text-anchor="middle" x="441.1" y="-43.24" font-family="Helvetica,sans-Serif" font-size="10.00" fill="#63b8ff">4</text>
</a>
</g>
</g>
<!-- dir_803ee67260c130b45d29089798491ab2 -->
<g id="node9" class="node">
<title>dir_803ee67260c130b45d29089798491ab2</title>
<g id="a_node9"><a xlink:href="dir_803ee67260c130b45d29089798491ab2.html" target="_top" xlink:title="database">
<polygon fill="#edf0f7" stroke="red" stroke-dasharray="5,2" points="577.88,-35.25 522.12,-35.25 522.12,-16 577.88,-16 577.88,-35.25"/>
<text text-anchor="middle" x="550" y="-21.75" font-family="Helvetica,sans-Serif" font-size="10.00">database</text>
</a>
</g>
</g>
<!-- dir_fcaf3ae3d2d1d53571279bba4994cbf5&#45;&gt;dir_803ee67260c130b45d29089798491ab2 -->
<g id="edge5" class="edge">
<title>dir_fcaf3ae3d2d1d53571279bba4994cbf5&#45;&gt;dir_803ee67260c130b45d29089798491ab2</title>
<g id="a_edge5"><a xlink:href="dir_000044_000006.html" target="_top">
<path fill="none" stroke="#63b8ff" d="M370.58,-75.87C400.03,-67.79 467.45,-49.28 510.75,-37.4"/>
<polygon fill="#63b8ff" stroke="#63b8ff" points="511.56,-40.81 520.27,-34.78 509.7,-34.06 511.56,-40.81"/>
</a>
</g>
<g id="a_edge5&#45;headlabel"><a xlink:href="dir_000044_000006.html" target="_top" xlink:title="8">
<text text-anchor="middle" x="510.3" y="-40.22" font-family="Helvetica,sans-Serif" font-size="10.00" fill="#63b8ff">8</text>
</a>
</g>
</g>
<!-- dir_aebb8dcc11953d78e620bbef0b9e2183 -->
<g id="node10" class="node">
<title>dir_aebb8dcc11953d78e620bbef0b9e2183</title>
<g id="a_node10"><a xlink:href="dir_aebb8dcc11953d78e620bbef0b9e2183.html" target="_top" xlink:title="core">
<polygon fill="#edf0f7" stroke="red" stroke-dasharray="5,2" points="630.38,-35.25 595.62,-35.25 595.62,-16 630.38,-16 630.38,-35.25"/>
<text text-anchor="middle" x="613" y="-21.75" font-family="Helvetica,sans-Serif" font-size="10.00">core</text>
</a>
</g>
</g>
<!-- dir_fcaf3ae3d2d1d53571279bba4994cbf5&#45;&gt;dir_aebb8dcc11953d78e620bbef0b9e2183 -->
<g id="edge8" class="edge">
<title>dir_fcaf3ae3d2d1d53571279bba4994cbf5&#45;&gt;dir_aebb8dcc11953d78e620bbef0b9e2183</title>
<g id="a_edge8"><a xlink:href="dir_000044_000004.html" target="_top">
<path fill="none" stroke="#63b8ff" d="M370.74,-77.71C406.05,-72.37 498.38,-57.6 584.22,-35.72"/>
<polygon fill="#63b8ff" stroke="#63b8ff" points="584.92,-39.15 593.72,-33.25 583.16,-32.37 584.92,-39.15"/>
</a>
</g>
<g id="a_edge8&#45;headlabel"><a xlink:href="dir_000044_000004.html" target="_top" xlink:title="13">
<text text-anchor="middle" x="583.62" y="-38.55" font-family="Helvetica,sans-Serif" font-size="10.00" fill="#63b8ff">13</text>
</a>
</g>
</g>
<!-- dir_f356faf232716eaaa298279b6f90416b -->
<g id="node11" class="node">
<title>dir_f356faf232716eaaa298279b6f90416b</title>
<g id="a_node11"><a xlink:href="dir_f356faf232716eaaa298279b6f90416b.html" target="_top" xlink:title="updater">
<polygon fill="#edf0f7" stroke="red" stroke-dasharray="5,2" points="697.12,-35.25 648.88,-35.25 648.88,-16 697.12,-16 697.12,-35.25"/>
<text text-anchor="middle" x="673" y="-21.75" font-family="Helvetica,sans-Serif" font-size="10.00">updater</text>
</a>
</g>
</g>
<!-- dir_fcaf3ae3d2d1d53571279bba4994cbf5&#45;&gt;dir_f356faf232716eaaa298279b6f90416b -->
<g id="edge10" class="edge">
<title>dir_fcaf3ae3d2d1d53571279bba4994cbf5&#45;&gt;dir_f356faf232716eaaa298279b6f90416b</title>
<g id="a_edge10"><a xlink:href="dir_000044_000053.html" target="_top">
<path fill="none" stroke="#63b8ff" d="M370.82,-78.03C411.58,-72.85 529.01,-57.23 637.41,-35.39"/>
<polygon fill="#63b8ff" stroke="#63b8ff" points="637.97,-38.85 647.07,-33.42 636.57,-31.99 637.97,-38.85"/>
</a>
</g>
<g id="a_edge10&#45;headlabel"><a xlink:href="dir_000044_000053.html" target="_top" xlink:title="1">
<text text-anchor="middle" x="636.5" y="-38.17" font-family="Helvetica,sans-Serif" font-size="10.00" fill="#63b8ff">1</text>
</a>
</g>
</g>
</g>
</svg>

<g id="navigator" transform="translate(0 0)" fill="#404254">
  <rect fill="#f2f5e9" fill-opacity="0.5" stroke="#606060" stroke-width=".5" x="0" y="0" width="60" height="60"/>
  <use id="zoomplus" xlink:href="#zoomPlus" x="17" y="9" onmousedown="handleZoom(evt,'in')"/>
  <use id="zoomminus" xlink:href="#zoomMin" x="42" y="9" onmousedown="handleZoom(evt,'out')"/>
  <use id="reset" xlink:href="#resetDef" x="30" y="36" onmousedown="handleReset()"/>
   <use id="arrowup" xlink:href="#arrowUp" x="0" y="0" onmousedown="handlePan(0,-1)"/>
  <use id="arrowright" xlink:href="#arrowRight" x="0" y="0" onmousedown="handlePan(1,0)"/>
  <use id="arrowdown" xlink:href="#arrowDown" x="0" y="0" onmousedown="handlePan(0,1)"/>
  <use id="arrowleft" xlink:href="#arrowLeft" x="0" y="0" onmousedown="handlePan(-1,0)"/>
</g>
<svg viewBox="0 0 15 15" width="100%" height="30px" preserveAspectRatio="xMaxYMin meet">
 <g id="arrow_out" transform="scale(0.3 0.3)">
  <a xlink:href="dir_fcaf3ae3d2d1d53571279bba4994cbf5_dep_org.svg" target="_base">
   <rect id="button" ry="5" rx="5" y="6" x="6" height="38" width="38"
        fill="#f2f5e9" fill-opacity="0.5" stroke="#606060" stroke-width="1.0"/>
   <path id="arrow"
     d="M 11.500037,31.436501 C 11.940474,20.09759 22.043105,11.32322 32.158766,21.979434 L 37.068811,17.246167 C 37.068811,17.246167 37.088388,32 37.088388,32 L 22.160133,31.978069 C 22.160133,31.978069 26.997745,27.140456 26.997745,27.140456 C 18.528582,18.264221 13.291696,25.230495 11.500037,31.436501 z"
     style="fill:#404040;"/>
  </a>
 </g>
</svg>

<style type='text/css'>
<![CDATA[
[data-mouse-over-selected='false'] { opacity: 0.7; }
[data-mouse-over-selected='true']  { opacity: 1.0; }
]]>
</style>
<script type="application/ecmascript"><![CDATA[
document.addEventListener('DOMContentLoaded', (event) => {
  highlightEdges();
  highlightAdjacentNodes();
});
]]></script>
</svg>
