<?xml version="1.0" encoding="UTF-8" standalone="no"?>
<!DOCTYPE svg PUBLIC "-//W3C//DTD SVG 1.1//EN"
 "http://www.w3.org/Graphics/SVG/1.1/DTD/svg11.dtd">
<!-- Generated by graphviz version 9.0.0 (20230911.1827)
 -->
<!-- Title: src/face_recognition Pages: 1 -->
<svg width="402pt" height="197pt"
 viewBox="0.00 0.00 402.00 197.00" xmlns="http://www.w3.org/2000/svg" xmlns:xlink="http://www.w3.org/1999/xlink">
<g id="graph0" class="graph" transform="scale(1 1) rotate(0) translate(4 193)">
<title>src/face_recognition</title>
<g id="clust1" class="cluster">
<title>clusterdir_68267d1309a1af8e8297ef4c3efbcdba</title>
<g id="a_clust1"><a xlink:href="dir_68267d1309a1af8e8297ef4c3efbcdba.html" target="_top" xlink:title="src">
<polygon fill="#edf0f7" stroke="#404040" stroke-dasharray="5,2" points="8,-8 8,-181 386,-181 386,-8 8,-8"/>
<text text-anchor="middle" x="197" y="-167.5" font-family="Helvetica,sans-Serif" font-size="10.00">src</text>
</a>
</g>
</g>
<g id="clust2" class="cluster">
<title>clusterdir_3b56e0b998da7a2f208daeb459f27765</title>
<g id="a_clust2"><a xlink:href="dir_3b56e0b998da7a2f208daeb459f27765.html" target="_top">
<polygon fill="#edf0f7" stroke="#404040" stroke-width="2" points="180,-63.25 180,-153.75 378,-153.75 378,-63.25 180,-63.25"/>
</a>
</g>
</g>
<!-- dir_7650dacaa557a89ea1c633e1722b48a3 -->
<g id="node1" class="node">
<title>dir_7650dacaa557a89ea1c633e1722b48a3</title>
<g id="a_node1"><a xlink:href="dir_7650dacaa557a89ea1c633e1722b48a3.html" target="_top" xlink:title="unit_tests_utils">
<polygon fill="#a2b4d6" stroke="#404040" points="98,-90.5 16,-90.5 16,-71.25 98,-71.25 98,-90.5"/>
<text text-anchor="middle" x="57" y="-77" font-family="Helvetica,sans-Serif" font-size="10.00">unit_tests_utils</text>
</a>
</g>
</g>
<!-- dir_803ee67260c130b45d29089798491ab2 -->
<g id="node2" class="node">
<title>dir_803ee67260c130b45d29089798491ab2</title>
<g id="a_node2"><a xlink:href="dir_803ee67260c130b45d29089798491ab2.html" target="_top" xlink:title="database">
<polygon fill="#a2b4d6" stroke="red" points="171.88,-90.5 116.12,-90.5 116.12,-71.25 171.88,-71.25 171.88,-90.5"/>
<text text-anchor="middle" x="144" y="-77" font-family="Helvetica,sans-Serif" font-size="10.00">database</text>
</a>
</g>
</g>
<!-- dir_aebb8dcc11953d78e620bbef0b9e2183 -->
<g id="node3" class="node">
<title>dir_aebb8dcc11953d78e620bbef0b9e2183</title>
<g id="a_node3"><a xlink:href="dir_aebb8dcc11953d78e620bbef0b9e2183.html" target="_top" xlink:title="core">
<polygon fill="#a2b4d6" stroke="red" points="267.38,-35.25 232.62,-35.25 232.62,-16 267.38,-16 267.38,-35.25"/>
<text text-anchor="middle" x="250" y="-21.75" font-family="Helvetica,sans-Serif" font-size="10.00">core</text>
</a>
</g>
</g>
<!-- dir_d501334aeb1b78ad67cd3c72c37b1e87 -->
<g id="node4" class="node">
<title>dir_d501334aeb1b78ad67cd3c72c37b1e87</title>
<g id="a_node4"><a xlink:href="dir_d501334aeb1b78ad67cd3c72c37b1e87.html" target="_top" xlink:title="system">
<polygon fill="#a2b4d6" stroke="red" points="356.75,-35.25 309.25,-35.25 309.25,-16 356.75,-16 356.75,-35.25"/>
<text text-anchor="middle" x="333" y="-21.75" font-family="Helvetica,sans-Serif" font-size="10.00">system</text>
</a>
</g>
</g>
<!-- dir_3b56e0b998da7a2f208daeb459f27765 -->
<g id="node5" class="node">
<title>dir_3b56e0b998da7a2f208daeb459f27765</title>
<text text-anchor="middle" x="326" y="-132.25" font-family="Helvetica,sans-Serif" font-size="10.00">face_recognition</text>
</g>
<!-- dir_3b56e0b998da7a2f208daeb459f27765&#45;&gt;dir_7650dacaa557a89ea1c633e1722b48a3 -->
<g id="edge2" class="edge">
<title>dir_3b56e0b998da7a2f208daeb459f27765&#45;&gt;dir_7650dacaa557a89ea1c633e1722b48a3</title>
<g id="a_edge2"><a xlink:href="dir_000012_000052.html" target="_top">
<path fill="none" stroke="#63b8ff" d="M282.48,-126.51C235.2,-117.15 159.69,-102.2 109.24,-92.22"/>
<polygon fill="#63b8ff" stroke="#63b8ff" points="110.22,-88.84 99.73,-90.33 108.86,-95.71 110.22,-88.84"/>
</a>
</g>
<g id="a_edge2&#45;headlabel"><a xlink:href="dir_000012_000052.html" target="_top" xlink:title="4">
<text text-anchor="middle" x="112.81" y="-82.59" font-family="Helvetica,sans-Serif" font-size="10.00" fill="#63b8ff">4</text>
</a>
</g>
</g>
<!-- dir_3b56e0b998da7a2f208daeb459f27765&#45;&gt;dir_803ee67260c130b45d29089798491ab2 -->
<g id="edge3" class="edge">
<title>dir_3b56e0b998da7a2f208daeb459f27765&#45;&gt;dir_803ee67260c130b45d29089798491ab2</title>
<g id="a_edge3"><a xlink:href="dir_000012_000006.html" target="_top">
<path fill="none" stroke="#63b8ff" d="M296.76,-126.57C265.97,-117.56 217.34,-103.33 183.23,-93.35"/>
<polygon fill="#63b8ff" stroke="#63b8ff" points="184.3,-90.02 173.72,-90.57 182.34,-96.74 184.3,-90.02"/>
</a>
</g>
<g id="a_edge3&#45;headlabel"><a xlink:href="dir_000012_000006.html" target="_top" xlink:title="4">
<text text-anchor="middle" x="187.1" y="-84" font-family="Helvetica,sans-Serif" font-size="10.00" fill="#63b8ff">4</text>
</a>
</g>
</g>
<!-- dir_3b56e0b998da7a2f208daeb459f27765&#45;&gt;dir_aebb8dcc11953d78e620bbef0b9e2183 -->
<g id="edge4" class="edge">
<title>dir_3b56e0b998da7a2f208daeb459f27765&#45;&gt;dir_aebb8dcc11953d78e620bbef0b9e2183</title>
<g id="a_edge4"><a xlink:href="dir_000012_000004.html" target="_top">
<path fill="none" stroke="#63b8ff" d="M296.49,-126.55C279.06,-119.79 258.41,-108.45 248,-90.5 240.33,-77.27 241.5,-59.78 244.21,-46.44"/>
<polygon fill="#63b8ff" stroke="#63b8ff" points="247.52,-47.62 246.56,-37.07 240.73,-45.92 247.52,-47.62"/>
</a>
</g>
<g id="a_edge4&#45;headlabel"><a xlink:href="dir_000012_000004.html" target="_top" xlink:title="8">
<text text-anchor="middle" x="249.77" y="-46.46" font-family="Helvetica,sans-Serif" font-size="10.00" fill="#63b8ff">8</text>
</a>
</g>
</g>
<!-- dir_3b56e0b998da7a2f208daeb459f27765&#45;&gt;dir_d501334aeb1b78ad67cd3c72c37b1e87 -->
<g id="edge5" class="edge">
<title>dir_3b56e0b998da7a2f208daeb459f27765&#45;&gt;dir_d501334aeb1b78ad67cd3c72c37b1e87</title>
<g id="a_edge5"><a xlink:href="dir_000012_000042.html" target="_top">
<path fill="none" stroke="#63b8ff" d="M328.48,-126.66C330.96,-117.76 334.59,-103.28 336,-90.5 337.33,-78.46 336.49,-75.35 336,-63.25 335.78,-57.94 335.39,-52.21 334.96,-46.9"/>
<polygon fill="#63b8ff" stroke="#63b8ff" points="338.46,-46.8 334.08,-37.15 331.49,-47.42 338.46,-46.8"/>
</a>
</g>
<g id="a_edge5&#45;headlabel"><a xlink:href="dir_000012_000042.html" target="_top" xlink:title="3">
<text text-anchor="middle" x="341.48" y="-44.74" font-family="Helvetica,sans-Serif" font-size="10.00" fill="#63b8ff">3</text>
</a>
</g>
</g>
<!-- dir_0750a411ff79567b31244e4f1cffe06d -->
<g id="node6" class="node">
<title>dir_0750a411ff79567b31244e4f1cffe06d</title>
<g id="a_node6"><a xlink:href="dir_0750a411ff79567b31244e4f1cffe06d.html" target="_top" xlink:title="dlib_wrapper">
<polygon fill="#a2b4d6" stroke="#404040" points="327.38,-90.5 256.62,-90.5 256.62,-71.25 327.38,-71.25 327.38,-90.5"/>
<text text-anchor="middle" x="292" y="-77" font-family="Helvetica,sans-Serif" font-size="10.00">dlib_wrapper</text>
</a>
</g>
</g>
<!-- dir_3b56e0b998da7a2f208daeb459f27765&#45;&gt;dir_0750a411ff79567b31244e4f1cffe06d -->
<g id="edge1" class="edge">
<title>dir_3b56e0b998da7a2f208daeb459f27765&#45;&gt;dir_0750a411ff79567b31244e4f1cffe06d</title>
<g id="a_edge1"><a xlink:href="dir_000012_000011.html" target="_top">
<path fill="none" stroke="#63b8ff" d="M320.69,-126.8C316.18,-119.74 309.54,-109.34 303.78,-100.33"/>
<polygon fill="#63b8ff" stroke="#63b8ff" points="306.76,-98.49 298.43,-91.94 300.86,-102.26 306.76,-98.49"/>
</a>
</g>
<g id="a_edge1&#45;headlabel"><a xlink:href="dir_000012_000011.html" target="_top" xlink:title="4">
<text text-anchor="middle" x="310.27" y="-94.84" font-family="Helvetica,sans-Serif" font-size="10.00" fill="#63b8ff">4</text>
</a>
</g>
</g>
<!-- dir_0750a411ff79567b31244e4f1cffe06d&#45;&gt;dir_aebb8dcc11953d78e620bbef0b9e2183 -->
<g id="edge6" class="edge">
<title>dir_0750a411ff79567b31244e4f1cffe06d&#45;&gt;dir_aebb8dcc11953d78e620bbef0b9e2183</title>
<g id="a_edge6"><a xlink:href="dir_000011_000004.html" target="_top">
<path fill="none" stroke="#63b8ff" d="M285.06,-71.08C279.38,-63.88 271.16,-53.46 264.11,-44.51"/>
<polygon fill="#63b8ff" stroke="#63b8ff" points="266.96,-42.48 258.02,-36.8 261.47,-46.82 266.96,-42.48"/>
</a>
</g>
<g id="a_edge6&#45;headlabel"><a xlink:href="dir_000011_000004.html" target="_top" xlink:title="2">
<text text-anchor="middle" x="270.48" y="-38.48" font-family="Helvetica,sans-Serif" font-size="10.00" fill="#63b8ff">2</text>
</a>
</g>
</g>
<!-- dir_0750a411ff79567b31244e4f1cffe06d&#45;&gt;dir_d501334aeb1b78ad67cd3c72c37b1e87 -->
<g id="edge7" class="edge">
<title>dir_0750a411ff79567b31244e4f1cffe06d&#45;&gt;dir_d501334aeb1b78ad67cd3c72c37b1e87</title>
<g id="a_edge7"><a xlink:href="dir_000011_000042.html" target="_top">
<path fill="none" stroke="#63b8ff" d="M298.77,-71.08C304.32,-63.88 312.34,-53.46 319.23,-44.51"/>
<polygon fill="#63b8ff" stroke="#63b8ff" points="321.83,-46.87 325.16,-36.81 316.29,-42.6 321.83,-46.87"/>
</a>
</g>
<g id="a_edge7&#45;headlabel"><a xlink:href="dir_000011_000042.html" target="_top" xlink:title="1">
<text text-anchor="middle" x="322.81" y="-46.37" font-family="Helvetica,sans-Serif" font-size="10.00" fill="#63b8ff">1</text>
</a>
</g>
</g>
<!-- dir_7162f29db8f0349467d1883b396b0cfd -->
<g id="node7" class="node">
<title>dir_7162f29db8f0349467d1883b396b0cfd</title>
<g id="a_node7"><a xlink:href="dir_7162f29db8f0349467d1883b396b0cfd.html" target="_top" xlink:title="learning_tests">
<polygon fill="#a2b4d6" stroke="#404040" points="264.38,-145.75 187.62,-145.75 187.62,-126.5 264.38,-126.5 264.38,-145.75"/>
<text text-anchor="middle" x="226" y="-132.25" font-family="Helvetica,sans-Serif" font-size="10.00">learning_tests</text>
</a>
</g>
</g>
<!-- dir_7162f29db8f0349467d1883b396b0cfd&#45;&gt;dir_7650dacaa557a89ea1c633e1722b48a3 -->
<g id="edge9" class="edge">
<title>dir_7162f29db8f0349467d1883b396b0cfd&#45;&gt;dir_7650dacaa557a89ea1c633e1722b48a3</title>
<g id="a_edge9"><a xlink:href="dir_000028_000052.html" target="_top">
<path fill="none" stroke="#63b8ff" d="M197.33,-126.09C169.65,-117.37 127.51,-104.09 96.63,-94.36"/>
<polygon fill="#63b8ff" stroke="#63b8ff" points="97.84,-91.07 87.25,-91.41 95.74,-97.75 97.84,-91.07"/>
</a>
</g>
<g id="a_edge9&#45;headlabel"><a xlink:href="dir_000028_000052.html" target="_top" xlink:title="3">
<text text-anchor="middle" x="100.68" y="-85.12" font-family="Helvetica,sans-Serif" font-size="10.00" fill="#63b8ff">3</text>
</a>
</g>
</g>
<!-- dir_7162f29db8f0349467d1883b396b0cfd&#45;&gt;dir_0750a411ff79567b31244e4f1cffe06d -->
<g id="edge8" class="edge">
<title>dir_7162f29db8f0349467d1883b396b0cfd&#45;&gt;dir_0750a411ff79567b31244e4f1cffe06d</title>
<g id="a_edge8"><a xlink:href="dir_000028_000011.html" target="_top">
<path fill="none" stroke="#63b8ff" d="M237.2,-126.09C246.74,-118.4 260.67,-107.15 272.11,-97.93"/>
<polygon fill="#63b8ff" stroke="#63b8ff" points="274.21,-100.73 279.79,-91.73 269.81,-95.28 274.21,-100.73"/>
</a>
</g>
<g id="a_edge8&#45;headlabel"><a xlink:href="dir_000028_000011.html" target="_top" xlink:title="3">
<text text-anchor="middle" x="274.37" y="-100.37" font-family="Helvetica,sans-Serif" font-size="10.00" fill="#63b8ff">3</text>
</a>
</g>
</g>
</g>
</svg>
