<?xml version="1.0" encoding="UTF-8" standalone="no"?>
<!DOCTYPE svg PUBLIC "-//W3C//DTD SVG 1.1//EN"
 "http://www.w3.org/Graphics/SVG/1.1/DTD/svg11.dtd">
<!-- Generated by graphviz version 9.0.0 (20230911.1827)
 -->
<!-- Title: src/gui/unit_tests Pages: 1 -->
<!--zoomable 142 -->

<svg id="main" version="1.1" xmlns="http://www.w3.org/2000/svg" xmlns:xlink="http://www.w3.org/1999/xlink" xml:space="preserve" onload="init(evt)">
<style type="text/css"><![CDATA[
.node, .edge {opacity: 0.7;}
.node.selected, .edge.selected {opacity: 1;}
.edge:hover path { stroke: red; }
.edge:hover polygon { stroke: red; fill: red; }
]]></style>

<defs>
  <circle id="rim" cx="0" cy="0" r="7"/>
  <circle id="rim2" cx="0" cy="0" r="3.5"/>
  <g id="zoomPlus">
    <use xlink:href="#rim" fill="#404040"><set attributeName="fill" to="#808080" begin="zoomplus.mouseover" end="zoomplus.mouseout"/></use>
    <path d="M-4,0h8M0,-4v8" fill="none" stroke="white" stroke-width="1.5" pointer-events="none"/>
  </g>
  <g id="zoomMin">
    <use xlink:href="#rim" fill="#404040"><set attributeName="fill" to="#808080" begin="zoomminus.mouseover" end="zoomminus.mouseout"/></use>
    <path d="M-4,0h8" fill="none" stroke="white" stroke-width="1.5" pointer-events="none"/>
  </g>
  <g id="arrowUp" transform="translate(30 24)">
    <use xlink:href="#rim"/>
    <path pointer-events="none" fill="none" stroke="white" stroke-width="1.5" d="M0,-3.0v7 M-2.5,-0.5L0,-3.0L2.5,-0.5"/>
  </g>
  <g id="arrowRight" transform="rotate(90) translate(36 -43)">
    <use xlink:href="#rim"/>
    <path pointer-events="none" fill="none" stroke="white" stroke-width="1.5" d="M0,-3.0v7 M-2.5,-0.5L0,-3.0L2.5,-0.5"/>
  </g>
  <g id="arrowDown" transform="rotate(180) translate(-30 -48)">
    <use xlink:href="#rim"/>
    <path pointer-events="none" fill="none" stroke="white" stroke-width="1.5" d="M0,-3.0v7 M-2.5,-0.5L0,-3.0L2.5,-0.5"/>
  </g>
  <g id="arrowLeft" transform="rotate(270) translate(-36 17)">
    <use xlink:href="#rim"/>
    <path pointer-events="none" fill="none" stroke="white" stroke-width="1.5" d="M0,-3.0v7 M-2.5,-0.5L0,-3.0L2.5,-0.5"/>
  </g>
  <g id="resetDef">
    <use xlink:href="#rim2" fill="#404040"><set attributeName="fill" to="#808080" begin="reset.mouseover" end="reset.mouseout"/></use>
  </g>
</defs>
<script type="application/ecmascript">
var viewWidth = 522;
var viewHeight = 142;
var sectionId = 'dynsection-0';
</script>
<script type="application/ecmascript" xlink:href="svg.min.js"/>
<svg id="graph" class="graph">
<g id="viewport">
<title>src/gui/unit_tests</title>
<g id="clust1" class="cluster">
<title>clusterdir_99d0482cf009f9d97a0877749b817f19</title>
<g id="a_clust1"><a xlink:href="dir_99d0482cf009f9d97a0877749b817f19.html" target="_top" xlink:title="gui">
<polygon fill="#edf0f7" stroke="#7f7f7f" stroke-dasharray="5,2" points="8,-8 8,-125.75 298,-125.75 298,-8 8,-8"/>
<text text-anchor="middle" x="153" y="-112.25" font-family="Helvetica,sans-Serif" font-size="10.00">gui</text>
</a>
</g>
</g>
<g id="clust2" class="cluster">
<title>clusterdir_92613d55a3f43e094d610dc2ff26e3ec</title>
<g id="a_clust2"><a xlink:href="dir_92613d55a3f43e094d610dc2ff26e3ec.html" target="_top">
<polygon fill="#edf0f7" stroke="#404040" stroke-width="2" points="16,-63.25 16,-98.5 290,-98.5 290,-63.25 16,-63.25"/>
</a>
</g>
</g>
<!-- dir_c090f567964b7b78a4e63a3af92480e4 -->
<g id="node1" class="node">
<title>dir_c090f567964b7b78a4e63a3af92480e4</title>
<g id="a_node1"><a xlink:href="dir_c090f567964b7b78a4e63a3af92480e4.html" target="_top" xlink:title="desktop">
<polygon fill="#a2b4d6" stroke="red" points="98.25,-35.25 47.75,-35.25 47.75,-16 98.25,-16 98.25,-35.25"/>
<text text-anchor="middle" x="73" y="-21.75" font-family="Helvetica,sans-Serif" font-size="10.00">desktop</text>
</a>
</g>
</g>
<!-- dir_92613d55a3f43e094d610dc2ff26e3ec -->
<g id="node2" class="node">
<title>dir_92613d55a3f43e094d610dc2ff26e3ec</title>
<text text-anchor="middle" x="253" y="-77" font-family="Helvetica,sans-Serif" font-size="10.00">unit_tests</text>
</g>
<!-- dir_69d2fc252aeac487f29e6daafd8f2655 -->
<g id="node3" class="node">
<title>dir_69d2fc252aeac487f29e6daafd8f2655</title>
<g id="a_node3"><a xlink:href="dir_69d2fc252aeac487f29e6daafd8f2655.html" target="_top" xlink:title="model">
<polygon fill="#a2b4d6" stroke="#404040" points="66.12,-90.5 23.88,-90.5 23.88,-71.25 66.12,-71.25 66.12,-90.5"/>
<text text-anchor="middle" x="45" y="-77" font-family="Helvetica,sans-Serif" font-size="10.00">model</text>
</a>
</g>
</g>
<!-- dir_69d2fc252aeac487f29e6daafd8f2655&#45;&gt;dir_c090f567964b7b78a4e63a3af92480e4 -->
<g id="edge3" class="edge">
<title>dir_69d2fc252aeac487f29e6daafd8f2655&#45;&gt;dir_c090f567964b7b78a4e63a3af92480e4</title>
<g id="a_edge3"><a xlink:href="dir_000028_000009.html" target="_top">
<path fill="none" stroke="#63b8ff" d="M49.62,-71.08C53.25,-64.19 58.43,-54.34 62.99,-45.66"/>
<polygon fill="#63b8ff" stroke="#63b8ff" points="66.02,-47.43 67.57,-36.95 59.82,-44.17 66.02,-47.43"/>
</a>
</g>
<g id="a_edge3&#45;headlabel"><a xlink:href="dir_000028_000009.html" target="_top" xlink:title="4">
<text text-anchor="middle" x="67.56" y="-46.72" font-family="Helvetica,sans-Serif" font-size="10.00" fill="#63b8ff">4</text>
</a>
</g>
</g>
<!-- dir_7650dacaa557a89ea1c633e1722b48a3 -->
<g id="node6" class="node">
<title>dir_7650dacaa557a89ea1c633e1722b48a3</title>
<g id="a_node6"><a xlink:href="dir_7650dacaa557a89ea1c633e1722b48a3.html" target="_top" xlink:title="unit_tests_utils">
<polygon fill="#edf0f7" stroke="#7f7f7f" points="462,-35.25 380,-35.25 380,-16 462,-16 462,-35.25"/>
<text text-anchor="middle" x="421" y="-21.75" font-family="Helvetica,sans-Serif" font-size="10.00">unit_tests_utils</text>
</a>
</g>
</g>
<!-- dir_69d2fc252aeac487f29e6daafd8f2655&#45;&gt;dir_7650dacaa557a89ea1c633e1722b48a3 -->
<g id="edge1" class="edge">
<title>dir_69d2fc252aeac487f29e6daafd8f2655&#45;&gt;dir_7650dacaa557a89ea1c633e1722b48a3</title>
<g id="a_edge1"><a xlink:href="dir_000028_000050.html" target="_top">
<path fill="none" stroke="#63b8ff" d="M58.51,-70.84C63.49,-67.93 69.31,-65.01 75,-63.25 197.78,-25.25 237.83,-51.21 368.34,-35.45"/>
<polygon fill="#63b8ff" stroke="#63b8ff" points="368.59,-38.95 378.06,-34.21 367.7,-32.01 368.59,-38.95"/>
</a>
</g>
<g id="a_edge1&#45;headlabel"><a xlink:href="dir_000028_000050.html" target="_top" xlink:title="4">
<text text-anchor="middle" x="366.88" y="-38.15" font-family="Helvetica,sans-Serif" font-size="10.00" fill="#63b8ff">4</text>
</a>
</g>
</g>
<!-- dir_803ee67260c130b45d29089798491ab2 -->
<g id="node7" class="node">
<title>dir_803ee67260c130b45d29089798491ab2</title>
<g id="a_node7"><a xlink:href="dir_803ee67260c130b45d29089798491ab2.html" target="_top" xlink:title="database">
<polygon fill="#edf0f7" stroke="red" stroke-dasharray="5,2" points="361.88,-35.25 306.12,-35.25 306.12,-16 361.88,-16 361.88,-35.25"/>
<text text-anchor="middle" x="334" y="-21.75" font-family="Helvetica,sans-Serif" font-size="10.00">database</text>
</a>
</g>
</g>
<!-- dir_69d2fc252aeac487f29e6daafd8f2655&#45;&gt;dir_803ee67260c130b45d29089798491ab2 -->
<g id="edge2" class="edge">
<title>dir_69d2fc252aeac487f29e6daafd8f2655&#45;&gt;dir_803ee67260c130b45d29089798491ab2</title>
<g id="a_edge2"><a xlink:href="dir_000028_000005.html" target="_top">
<path fill="none" stroke="#63b8ff" d="M58.84,-70.76C63.75,-67.91 69.45,-65.05 75,-63.25 168.08,-32.98 199.87,-53.12 294.55,-36.55"/>
<polygon fill="#63b8ff" stroke="#63b8ff" points="295.1,-40 304.29,-34.74 293.82,-33.12 295.1,-40"/>
</a>
</g>
<g id="a_edge2&#45;headlabel"><a xlink:href="dir_000028_000005.html" target="_top" xlink:title="4">
<text text-anchor="middle" x="293.57" y="-39.3" font-family="Helvetica,sans-Serif" font-size="10.00" fill="#63b8ff">4</text>
</a>
</g>
</g>
<!-- dir_4cab1c72dc71176f3297391ad2e0cd65 -->
<g id="node4" class="node">
<title>dir_4cab1c72dc71176f3297391ad2e0cd65</title>
<g id="a_node4"><a xlink:href="dir_4cab1c72dc71176f3297391ad2e0cd65.html" target="_top" xlink:title="test_helpers">
<polygon fill="#a2b4d6" stroke="#404040" points="205.62,-90.5 136.38,-90.5 136.38,-71.25 205.62,-71.25 205.62,-90.5"/>
<text text-anchor="middle" x="171" y="-77" font-family="Helvetica,sans-Serif" font-size="10.00">test_helpers</text>
</a>
</g>
</g>
<!-- dir_aebb8dcc11953d78e620bbef0b9e2183 -->
<g id="node8" class="node">
<title>dir_aebb8dcc11953d78e620bbef0b9e2183</title>
<g id="a_node8"><a xlink:href="dir_aebb8dcc11953d78e620bbef0b9e2183.html" target="_top" xlink:title="core">
<polygon fill="#edf0f7" stroke="red" stroke-dasharray="5,2" points="514.38,-35.25 479.62,-35.25 479.62,-16 514.38,-16 514.38,-35.25"/>
<text text-anchor="middle" x="497" y="-21.75" font-family="Helvetica,sans-Serif" font-size="10.00">core</text>
</a>
</g>
</g>
<!-- dir_4cab1c72dc71176f3297391ad2e0cd65&#45;&gt;dir_aebb8dcc11953d78e620bbef0b9e2183 -->
<g id="edge4" class="edge">
<title>dir_4cab1c72dc71176f3297391ad2e0cd65&#45;&gt;dir_aebb8dcc11953d78e620bbef0b9e2183</title>
<g id="a_edge4"><a xlink:href="dir_000041_000003.html" target="_top">
<path fill="none" stroke="#63b8ff" d="M191.7,-70.82C198.95,-67.99 207.22,-65.11 215,-63.25 322.83,-37.42 357.04,-58.24 468.23,-35.42"/>
<polygon fill="#63b8ff" stroke="#63b8ff" points="468.71,-38.89 477.76,-33.38 467.25,-32.05 468.71,-38.89"/>
</a>
</g>
<g id="a_edge4&#45;headlabel"><a xlink:href="dir_000041_000003.html" target="_top" xlink:title="2">
<text text-anchor="middle" x="467.26" y="-38.23" font-family="Helvetica,sans-Serif" font-size="10.00" fill="#63b8ff">2</text>
</a>
</g>
</g>
<!-- dir_e9e12dbceb510ac11d1f4692232129d1 -->
<g id="node5" class="node">
<title>dir_e9e12dbceb510ac11d1f4692232129d1</title>
<g id="a_node5"><a xlink:href="dir_e9e12dbceb510ac11d1f4692232129d1.html" target="_top" xlink:title="utils">
<polygon fill="#a2b4d6" stroke="#404040" points="118,-90.5 84,-90.5 84,-71.25 118,-71.25 118,-90.5"/>
<text text-anchor="middle" x="101" y="-77" font-family="Helvetica,sans-Serif" font-size="10.00">utils</text>
</a>
</g>
</g>
<!-- dir_e9e12dbceb510ac11d1f4692232129d1&#45;&gt;dir_c090f567964b7b78a4e63a3af92480e4 -->
<g id="edge7" class="edge">
<title>dir_e9e12dbceb510ac11d1f4692232129d1&#45;&gt;dir_c090f567964b7b78a4e63a3af92480e4</title>
<g id="a_edge7"><a xlink:href="dir_000053_000009.html" target="_top">
<path fill="none" stroke="#63b8ff" d="M96.38,-71.08C92.75,-64.19 87.57,-54.34 83.01,-45.66"/>
<polygon fill="#63b8ff" stroke="#63b8ff" points="86.18,-44.17 78.43,-36.95 79.98,-47.43 86.18,-44.17"/>
</a>
</g>
<g id="a_edge7&#45;headlabel"><a xlink:href="dir_000053_000009.html" target="_top" xlink:title="4">
<text text-anchor="middle" x="89.66" y="-40.82" font-family="Helvetica,sans-Serif" font-size="10.00" fill="#63b8ff">4</text>
</a>
</g>
</g>
<!-- dir_e9e12dbceb510ac11d1f4692232129d1&#45;&gt;dir_7650dacaa557a89ea1c633e1722b48a3 -->
<g id="edge5" class="edge">
<title>dir_e9e12dbceb510ac11d1f4692232129d1&#45;&gt;dir_7650dacaa557a89ea1c633e1722b48a3</title>
<g id="a_edge5"><a xlink:href="dir_000053_000050.html" target="_top">
<path fill="none" stroke="#63b8ff" d="M112.57,-70.88C116.88,-67.97 121.95,-65.04 127,-63.25 226.43,-27.9 260.68,-49.22 368.21,-35.5"/>
<polygon fill="#63b8ff" stroke="#63b8ff" points="368.62,-38.98 378.06,-34.16 367.68,-32.04 368.62,-38.98"/>
</a>
</g>
<g id="a_edge5&#45;headlabel"><a xlink:href="dir_000053_000050.html" target="_top" xlink:title="8">
<text text-anchor="middle" x="366.94" y="-38.2" font-family="Helvetica,sans-Serif" font-size="10.00" fill="#63b8ff">8</text>
</a>
</g>
</g>
<!-- dir_e9e12dbceb510ac11d1f4692232129d1&#45;&gt;dir_aebb8dcc11953d78e620bbef0b9e2183 -->
<g id="edge6" class="edge">
<title>dir_e9e12dbceb510ac11d1f4692232129d1&#45;&gt;dir_aebb8dcc11953d78e620bbef0b9e2183</title>
<g id="a_edge6"><a xlink:href="dir_000053_000003.html" target="_top">
<path fill="none" stroke="#63b8ff" d="M112.54,-70.78C116.84,-67.87 121.92,-64.96 127,-63.25 268.95,-15.41 318.37,-63.48 468.28,-35.3"/>
<polygon fill="#63b8ff" stroke="#63b8ff" points="468.63,-38.8 477.76,-33.43 467.28,-31.93 468.63,-38.8"/>
</a>
</g>
<g id="a_edge6&#45;headlabel"><a xlink:href="dir_000053_000003.html" target="_top" xlink:title="1">
<text text-anchor="middle" x="467.14" y="-38.11" font-family="Helvetica,sans-Serif" font-size="10.00" fill="#63b8ff">1</text>
</a>
</g>
</g>
</g>
</svg>

<g id="navigator" transform="translate(0 0)" fill="#404254">
  <rect fill="#f2f5e9" fill-opacity="0.5" stroke="#606060" stroke-width=".5" x="0" y="0" width="60" height="60"/>
  <use id="zoomplus" xlink:href="#zoomPlus" x="17" y="9" onmousedown="handleZoom(evt,'in')"/>
  <use id="zoomminus" xlink:href="#zoomMin" x="42" y="9" onmousedown="handleZoom(evt,'out')"/>
  <use id="reset" xlink:href="#resetDef" x="30" y="36" onmousedown="handleReset()"/>
   <use id="arrowup" xlink:href="#arrowUp" x="0" y="0" onmousedown="handlePan(0,-1)"/>
  <use id="arrowright" xlink:href="#arrowRight" x="0" y="0" onmousedown="handlePan(1,0)"/>
  <use id="arrowdown" xlink:href="#arrowDown" x="0" y="0" onmousedown="handlePan(0,1)"/>
  <use id="arrowleft" xlink:href="#arrowLeft" x="0" y="0" onmousedown="handlePan(-1,0)"/>
</g>
<svg viewBox="0 0 15 15" width="100%" height="30px" preserveAspectRatio="xMaxYMin meet">
 <g id="arrow_out" transform="scale(0.3 0.3)">
  <a xlink:href="dir_92613d55a3f43e094d610dc2ff26e3ec_dep_org.svg" target="_base">
   <rect id="button" ry="5" rx="5" y="6" x="6" height="38" width="38"
        fill="#f2f5e9" fill-opacity="0.5" stroke="#606060" stroke-width="1.0"/>
   <path id="arrow"
     d="M 11.500037,31.436501 C 11.940474,20.09759 22.043105,11.32322 32.158766,21.979434 L 37.068811,17.246167 C 37.068811,17.246167 37.088388,32 37.088388,32 L 22.160133,31.978069 C 22.160133,31.978069 26.997745,27.140456 26.997745,27.140456 C 18.528582,18.264221 13.291696,25.230495 11.500037,31.436501 z"
     style="fill:#404040;"/>
  </a>
 </g>
</svg>

<style type='text/css'>
<![CDATA[
[data-mouse-over-selected='false'] { opacity: 0.7; }
[data-mouse-over-selected='true']  { opacity: 1.0; }
]]>
</style>
<script type="application/ecmascript"><![CDATA[
document.addEventListener('DOMContentLoaded', (event) => {
  highlightEdges();
  highlightAdjacentNodes();
});
]]></script>
</svg>
