<?xml version="1.0" encoding="UTF-8" standalone="no"?>
<!DOCTYPE svg PUBLIC "-//W3C//DTD SVG 1.1//EN"
 "http://www.w3.org/Graphics/SVG/1.1/DTD/svg11.dtd">
<!-- Generated by graphviz version 7.0.5 (20221223.1930)
 -->
<!-- Title: src/plugins/implementation Pages: 1 -->
<svg width="184pt" height="117pt"
 viewBox="0.00 0.00 184.00 117.00" xmlns="http://www.w3.org/2000/svg" xmlns:xlink="http://www.w3.org/1999/xlink">
<g id="graph0" class="graph" transform="scale(1 1) rotate(0) translate(4 113)">
<title>src/plugins/implementation</title>
<g id="clust1" class="cluster">
<title>clusterdir_7020b8b7abcceffa3f9f7a2d24718f16</title>
<g id="a_clust1"><a xlink:href="dir_7020b8b7abcceffa3f9f7a2d24718f16.html" target="_top" xlink:title="plugins">
<polygon fill="#edf0f7" stroke="#7f7f7f" stroke-dasharray="5,2" points="42,-47 42,-101 142,-101 142,-47 42,-47"/>
<text text-anchor="middle" x="92" y="-89" font-family="Helvetica,sans-Serif" font-size="10.00">plugins</text>
</a>
</g>
</g>
<!-- dir_7bb477bf1f40db3baaf3f600d643570d -->
<g id="node1" class="node">
<title>dir_7bb477bf1f40db3baaf3f600d643570d</title>
<g id="a_node1"><a xlink:href="dir_7bb477bf1f40db3baaf3f600d643570d.html" target="_top" xlink:title="implementation">
<polygon fill="#edf0f7" stroke="#404040" stroke-width="2" points="133.5,-74 50.5,-74 50.5,-55 133.5,-55 133.5,-74"/>
<text text-anchor="middle" x="92" y="-62" font-family="Helvetica,sans-Serif" font-size="10.00">implementation</text>
</a>
</g>
</g>
<!-- dir_803ee67260c130b45d29089798491ab2 -->
<g id="node2" class="node">
<title>dir_803ee67260c130b45d29089798491ab2</title>
<g id="a_node2"><a xlink:href="dir_803ee67260c130b45d29089798491ab2.html" target="_top" xlink:title="database">
<polygon fill="#edf0f7" stroke="red" stroke-dasharray="5,2" points="56,-19 0,-19 0,0 56,0 56,-19"/>
<text text-anchor="middle" x="28" y="-7" font-family="Helvetica,sans-Serif" font-size="10.00">database</text>
</a>
</g>
</g>
<!-- dir_7bb477bf1f40db3baaf3f600d643570d&#45;&gt;dir_803ee67260c130b45d29089798491ab2 -->
<g id="edge1" class="edge">
<title>dir_7bb477bf1f40db3baaf3f600d643570d&#45;&gt;dir_803ee67260c130b45d29089798491ab2</title>
<path fill="none" stroke="#63b8ff" d="M81.14,-54.51C71.89,-46.85 58.38,-35.66 47.29,-26.47"/>
<polygon fill="#63b8ff" stroke="#63b8ff" points="49.8,-24.01 39.86,-20.32 45.33,-29.4 49.8,-24.01"/>
<g id="a_edge1&#45;headlabel"><a xlink:href="dir_000019_000005.html" target="_top" xlink:title="1">
<text text-anchor="middle" x="53.21" y="-20.65" font-family="Helvetica,sans-Serif" font-size="10.00" fill="#63b8ff">1</text>
</a>
</g>
</g>
<!-- dir_aebb8dcc11953d78e620bbef0b9e2183 -->
<g id="node3" class="node">
<title>dir_aebb8dcc11953d78e620bbef0b9e2183</title>
<g id="a_node3"><a xlink:href="dir_aebb8dcc11953d78e620bbef0b9e2183.html" target="_top" xlink:title="core">
<polygon fill="#edf0f7" stroke="red" stroke-dasharray="5,2" points="109.5,-19 74.5,-19 74.5,0 109.5,0 109.5,-19"/>
<text text-anchor="middle" x="92" y="-7" font-family="Helvetica,sans-Serif" font-size="10.00">core</text>
</a>
</g>
</g>
<!-- dir_7bb477bf1f40db3baaf3f600d643570d&#45;&gt;dir_aebb8dcc11953d78e620bbef0b9e2183 -->
<g id="edge2" class="edge">
<title>dir_7bb477bf1f40db3baaf3f600d643570d&#45;&gt;dir_aebb8dcc11953d78e620bbef0b9e2183</title>
<path fill="none" stroke="#63b8ff" d="M92,-54.75C92,-48.27 92,-39.16 92,-30.9"/>
<polygon fill="#63b8ff" stroke="#63b8ff" points="95.5,-30.96 92,-20.96 88.5,-30.96 95.5,-30.96"/>
<g id="a_edge2&#45;headlabel"><a xlink:href="dir_000019_000003.html" target="_top" xlink:title="3">
<text text-anchor="middle" x="98.34" y="-30.54" font-family="Helvetica,sans-Serif" font-size="10.00" fill="#63b8ff">3</text>
</a>
</g>
</g>
<!-- dir_d501334aeb1b78ad67cd3c72c37b1e87 -->
<g id="node4" class="node">
<title>dir_d501334aeb1b78ad67cd3c72c37b1e87</title>
<g id="a_node4"><a xlink:href="dir_d501334aeb1b78ad67cd3c72c37b1e87.html" target="_top" xlink:title="system">
<polygon fill="#edf0f7" stroke="red" stroke-dasharray="5,2" points="176,-19 128,-19 128,0 176,0 176,-19"/>
<text text-anchor="middle" x="152" y="-7" font-family="Helvetica,sans-Serif" font-size="10.00">system</text>
</a>
</g>
</g>
<!-- dir_7bb477bf1f40db3baaf3f600d643570d&#45;&gt;dir_d501334aeb1b78ad67cd3c72c37b1e87 -->
<g id="edge3" class="edge">
<title>dir_7bb477bf1f40db3baaf3f600d643570d&#45;&gt;dir_d501334aeb1b78ad67cd3c72c37b1e87</title>
<path fill="none" stroke="#63b8ff" d="M102.18,-54.51C110.76,-46.93 123.27,-35.88 133.6,-26.75"/>
<polygon fill="#63b8ff" stroke="#63b8ff" points="135.66,-29.6 140.84,-20.36 131.03,-24.36 135.66,-29.6"/>
<g id="a_edge3&#45;headlabel"><a xlink:href="dir_000019_000039.html" target="_top" xlink:title="1">
<text text-anchor="middle" x="135.98" y="-30.61" font-family="Helvetica,sans-Serif" font-size="10.00" fill="#63b8ff">1</text>
</a>
</g>
</g>
</g>
</svg>
