<?xml version="1.0" encoding="UTF-8" standalone="no"?>
<!DOCTYPE svg PUBLIC "-//W3C//DTD SVG 1.1//EN"
 "http://www.w3.org/Graphics/SVG/1.1/DTD/svg11.dtd">
<!-- Generated by graphviz version 12.2.0 (20241103.1931)
 -->
<!-- Title: src/database Pages: 1 -->
<svg width="642pt" height="252pt"
 viewBox="0.00 0.00 642.00 252.25" xmlns="http://www.w3.org/2000/svg" xmlns:xlink="http://www.w3.org/1999/xlink">
<g id="graph0" class="graph" transform="scale(1 1) rotate(0) translate(4 248.25)">
<title>src/database</title>
<g id="clust1" class="cluster">
<title>clusterdir_68267d1309a1af8e8297ef4c3efbcdba</title>
<g id="a_clust1"><a xlink:href="dir_68267d1309a1af8e8297ef4c3efbcdba.html" target="_top" xlink:title="src">
<polygon fill="#edf0f7" stroke="#404040" stroke-dasharray="5,2" points="8,-8 8,-236.25 626,-236.25 626,-8 8,-8"/>
<text text-anchor="middle" x="317" y="-222.75" font-family="Helvetica,sans-Serif" font-size="10.00">src</text>
</a>
</g>
</g>
<g id="clust2" class="cluster">
<title>clusterdir_803ee67260c130b45d29089798491ab2</title>
<g id="a_clust2"><a xlink:href="dir_803ee67260c130b45d29089798491ab2.html" target="_top">
<polygon fill="#edf0f7" stroke="#404040" stroke-width="2" points="16,-63.25 16,-209 488,-209 488,-63.25 16,-63.25"/>
</a>
</g>
</g>
<!-- dir_7650dacaa557a89ea1c633e1722b48a3 -->
<g id="node1" class="node">
<title>dir_7650dacaa557a89ea1c633e1722b48a3</title>
<g id="a_node1"><a xlink:href="dir_7650dacaa557a89ea1c633e1722b48a3.html" target="_top" xlink:title="unit_tests_utils">
<polygon fill="#a2b4d6" stroke="#404040" points="578,-145.75 496,-145.75 496,-126.5 578,-126.5 578,-145.75"/>
<text text-anchor="middle" x="537" y="-132.25" font-family="Helvetica,sans-Serif" font-size="10.00">unit_tests_utils</text>
</a>
</g>
</g>
<!-- dir_aebb8dcc11953d78e620bbef0b9e2183 -->
<g id="node2" class="node">
<title>dir_aebb8dcc11953d78e620bbef0b9e2183</title>
<g id="a_node2"><a xlink:href="dir_aebb8dcc11953d78e620bbef0b9e2183.html" target="_top" xlink:title="core">
<polygon fill="#a2b4d6" stroke="red" points="464.38,-35.25 429.62,-35.25 429.62,-16 464.38,-16 464.38,-35.25"/>
<text text-anchor="middle" x="447" y="-21.75" font-family="Helvetica,sans-Serif" font-size="10.00">core</text>
</a>
</g>
</g>
<!-- dir_7020b8b7abcceffa3f9f7a2d24718f16 -->
<g id="node3" class="node">
<title>dir_7020b8b7abcceffa3f9f7a2d24718f16</title>
<g id="a_node3"><a xlink:href="dir_7020b8b7abcceffa3f9f7a2d24718f16.html" target="_top" xlink:title="plugins">
<polygon fill="#a2b4d6" stroke="red" points="349.38,-35.25 302.62,-35.25 302.62,-16 349.38,-16 349.38,-35.25"/>
<text text-anchor="middle" x="326" y="-21.75" font-family="Helvetica,sans-Serif" font-size="10.00">plugins</text>
</a>
</g>
</g>
<!-- dir_803ee67260c130b45d29089798491ab2 -->
<g id="node4" class="node">
<title>dir_803ee67260c130b45d29089798491ab2</title>
<text text-anchor="middle" x="52" y="-187.5" font-family="Helvetica,sans-Serif" font-size="10.00">database</text>
</g>
<!-- dir_803ee67260c130b45d29089798491ab2&#45;&gt;dir_aebb8dcc11953d78e620bbef0b9e2183 -->
<g id="edge1" class="edge">
<title>dir_803ee67260c130b45d29089798491ab2&#45;&gt;dir_aebb8dcc11953d78e620bbef0b9e2183</title>
<g id="a_edge1"><a xlink:href="dir_000006_000004.html" target="_top">
<path fill="none" stroke="#63b8ff" d="M79.8,-183.48C82.89,-182.84 86.01,-182.24 89,-181.75 170.08,-168.39 401.8,-206.61 457,-145.75 481.67,-118.55 467.47,-72.06 456.34,-45.92"/>
<polygon fill="#63b8ff" stroke="#63b8ff" points="459.54,-44.52 452.22,-36.87 453.17,-47.42 459.54,-44.52"/>
</a>
</g>
<g id="a_edge1&#45;headlabel"><a xlink:href="dir_000006_000004.html" target="_top" xlink:title="71">
<text text-anchor="middle" x="462.99" y="-41.37" font-family="Helvetica,sans-Serif" font-size="10.00" fill="#63b8ff">71</text>
</a>
</g>
</g>
<!-- dir_4a64ab7d9dd723f4f97a4d0759b28b1b -->
<g id="node5" class="node">
<title>dir_4a64ab7d9dd723f4f97a4d0759b28b1b</title>
<g id="a_node5"><a xlink:href="dir_4a64ab7d9dd723f4f97a4d0759b28b1b.html" target="_top" xlink:title="backends">
<polygon fill="#a2b4d6" stroke="#404040" points="348,-145.75 290,-145.75 290,-126.5 348,-126.5 348,-145.75"/>
<text text-anchor="middle" x="319" y="-132.25" font-family="Helvetica,sans-Serif" font-size="10.00">backends</text>
</a>
</g>
</g>
<!-- dir_4a64ab7d9dd723f4f97a4d0759b28b1b&#45;&gt;dir_aebb8dcc11953d78e620bbef0b9e2183 -->
<g id="edge2" class="edge">
<title>dir_4a64ab7d9dd723f4f97a4d0759b28b1b&#45;&gt;dir_aebb8dcc11953d78e620bbef0b9e2183</title>
<g id="a_edge2"><a xlink:href="dir_000000_000004.html" target="_top">
<path fill="none" stroke="#63b8ff" d="M330.98,-126.13C342.64,-117.27 360.79,-103.27 376,-90.5 394.54,-74.93 415.03,-56.34 429.21,-43.24"/>
<polygon fill="#63b8ff" stroke="#63b8ff" points="431.48,-45.91 436.43,-36.55 426.72,-40.78 431.48,-45.91"/>
</a>
</g>
<g id="a_edge2&#45;headlabel"><a xlink:href="dir_000000_000004.html" target="_top" xlink:title="20">
<text text-anchor="middle" x="431.89" y="-45.54" font-family="Helvetica,sans-Serif" font-size="10.00" fill="#63b8ff">20</text>
</a>
</g>
</g>
<!-- dir_33c23cf4335404e238116aa0329c21c1 -->
<g id="node8" class="node">
<title>dir_33c23cf4335404e238116aa0329c21c1</title>
<g id="a_node8"><a xlink:href="dir_33c23cf4335404e238116aa0329c21c1.html" target="_top" xlink:title="implementation">
<polygon fill="#a2b4d6" stroke="#404040" points="367,-90.5 285,-90.5 285,-71.25 367,-71.25 367,-90.5"/>
<text text-anchor="middle" x="326" y="-77" font-family="Helvetica,sans-Serif" font-size="10.00">implementation</text>
</a>
</g>
</g>
<!-- dir_4a64ab7d9dd723f4f97a4d0759b28b1b&#45;&gt;dir_33c23cf4335404e238116aa0329c21c1 -->
<g id="edge3" class="edge">
<title>dir_4a64ab7d9dd723f4f97a4d0759b28b1b&#45;&gt;dir_33c23cf4335404e238116aa0329c21c1</title>
<g id="a_edge3"><a xlink:href="dir_000000_000018.html" target="_top">
<path fill="none" stroke="#63b8ff" d="M320.16,-126.33C321.02,-119.74 322.24,-110.46 323.34,-102.07"/>
<polygon fill="#63b8ff" stroke="#63b8ff" points="326.79,-102.73 324.62,-92.36 319.85,-101.82 326.79,-102.73"/>
</a>
</g>
<g id="a_edge3&#45;headlabel"><a xlink:href="dir_000000_000018.html" target="_top" xlink:title="2">
<text text-anchor="middle" x="329.33" y="-101.29" font-family="Helvetica,sans-Serif" font-size="10.00" fill="#63b8ff">2</text>
</a>
</g>
</g>
<!-- dir_9d821b12a237424b2767fea4a9ba257b -->
<g id="node6" class="node">
<title>dir_9d821b12a237424b2767fea4a9ba257b</title>
<g id="a_node6"><a xlink:href="dir_9d821b12a237424b2767fea4a9ba257b.html" target="_top" xlink:title="benchmarks">
<polygon fill="#a2b4d6" stroke="#404040" points="167.62,-201 98.38,-201 98.38,-181.75 167.62,-181.75 167.62,-201"/>
<text text-anchor="middle" x="133" y="-187.5" font-family="Helvetica,sans-Serif" font-size="10.00">benchmarks</text>
</a>
</g>
</g>
<!-- dir_9d821b12a237424b2767fea4a9ba257b&#45;&gt;dir_7650dacaa557a89ea1c633e1722b48a3 -->
<g id="edge5" class="edge">
<title>dir_9d821b12a237424b2767fea4a9ba257b&#45;&gt;dir_7650dacaa557a89ea1c633e1722b48a3</title>
<g id="a_edge5"><a xlink:href="dir_000001_000052.html" target="_top">
<path fill="none" stroke="#63b8ff" d="M168.02,-183.25C171.05,-182.71 174.08,-182.2 177,-181.75 312.58,-160.75 350.71,-166.69 484.72,-146.82"/>
<polygon fill="#63b8ff" stroke="#63b8ff" points="484.96,-150.32 494.33,-145.37 483.92,-143.4 484.96,-150.32"/>
</a>
</g>
<g id="a_edge5&#45;headlabel"><a xlink:href="dir_000001_000052.html" target="_top" xlink:title="1">
<text text-anchor="middle" x="483.32" y="-149.56" font-family="Helvetica,sans-Serif" font-size="10.00" fill="#63b8ff">1</text>
</a>
</g>
</g>
<!-- dir_9d821b12a237424b2767fea4a9ba257b&#45;&gt;dir_4a64ab7d9dd723f4f97a4d0759b28b1b -->
<g id="edge4" class="edge">
<title>dir_9d821b12a237424b2767fea4a9ba257b&#45;&gt;dir_4a64ab7d9dd723f4f97a4d0759b28b1b</title>
<g id="a_edge4"><a xlink:href="dir_000001_000000.html" target="_top">
<path fill="none" stroke="#63b8ff" d="M164.55,-181.34C196.03,-172.33 244.5,-158.45 278.73,-148.65"/>
<polygon fill="#63b8ff" stroke="#63b8ff" points="279.64,-152.03 288.29,-145.92 277.72,-145.3 279.64,-152.03"/>
</a>
</g>
<g id="a_edge4&#45;headlabel"><a xlink:href="dir_000001_000000.html" target="_top" xlink:title="2">
<text text-anchor="middle" x="278.42" y="-151.46" font-family="Helvetica,sans-Serif" font-size="10.00" fill="#63b8ff">2</text>
</a>
</g>
</g>
<!-- dir_25cd647fda867a7ef4aaf9819f50dd27 -->
<g id="node7" class="node">
<title>dir_25cd647fda867a7ef4aaf9819f50dd27</title>
<g id="a_node7"><a xlink:href="dir_25cd647fda867a7ef4aaf9819f50dd27.html" target="_top" xlink:title="database_tools">
<polygon fill="#a2b4d6" stroke="#404040" points="448,-145.75 366,-145.75 366,-126.5 448,-126.5 448,-145.75"/>
<text text-anchor="middle" x="407" y="-132.25" font-family="Helvetica,sans-Serif" font-size="10.00">database_tools</text>
</a>
</g>
</g>
<!-- dir_25cd647fda867a7ef4aaf9819f50dd27&#45;&gt;dir_aebb8dcc11953d78e620bbef0b9e2183 -->
<g id="edge6" class="edge">
<title>dir_25cd647fda867a7ef4aaf9819f50dd27&#45;&gt;dir_aebb8dcc11953d78e620bbef0b9e2183</title>
<g id="a_edge6"><a xlink:href="dir_000007_000004.html" target="_top">
<path fill="none" stroke="#63b8ff" d="M410.27,-126.25C416.69,-108.84 431.06,-69.87 439.8,-46.16"/>
<polygon fill="#63b8ff" stroke="#63b8ff" points="442.98,-47.64 443.16,-37.05 436.41,-45.22 442.98,-47.64"/>
</a>
</g>
<g id="a_edge6&#45;headlabel"><a xlink:href="dir_000007_000004.html" target="_top" xlink:title="21">
<text text-anchor="middle" x="444.93" y="-46.7" font-family="Helvetica,sans-Serif" font-size="10.00" fill="#63b8ff">21</text>
</a>
</g>
</g>
<!-- dir_33c23cf4335404e238116aa0329c21c1&#45;&gt;dir_aebb8dcc11953d78e620bbef0b9e2183 -->
<g id="edge8" class="edge">
<title>dir_33c23cf4335404e238116aa0329c21c1&#45;&gt;dir_aebb8dcc11953d78e620bbef0b9e2183</title>
<g id="a_edge8"><a xlink:href="dir_000018_000004.html" target="_top">
<path fill="none" stroke="#63b8ff" d="M346.53,-70.84C366.37,-62.11 396.59,-48.81 418.71,-39.07"/>
<polygon fill="#63b8ff" stroke="#63b8ff" points="420.01,-42.33 427.75,-35.1 417.19,-35.92 420.01,-42.33"/>
</a>
</g>
<g id="a_edge8&#45;headlabel"><a xlink:href="dir_000018_000004.html" target="_top" xlink:title="8">
<text text-anchor="middle" x="419.25" y="-41.89" font-family="Helvetica,sans-Serif" font-size="10.00" fill="#63b8ff">8</text>
</a>
</g>
</g>
<!-- dir_33c23cf4335404e238116aa0329c21c1&#45;&gt;dir_7020b8b7abcceffa3f9f7a2d24718f16 -->
<g id="edge7" class="edge">
<title>dir_33c23cf4335404e238116aa0329c21c1&#45;&gt;dir_7020b8b7abcceffa3f9f7a2d24718f16</title>
<g id="a_edge7"><a xlink:href="dir_000018_000034.html" target="_top">
<path fill="none" stroke="#63b8ff" d="M326,-71.08C326,-64.57 326,-55.42 326,-47.12"/>
<polygon fill="#63b8ff" stroke="#63b8ff" points="329.5,-47.12 326,-37.12 322.5,-47.12 329.5,-47.12"/>
</a>
</g>
<g id="a_edge7&#45;headlabel"><a xlink:href="dir_000018_000034.html" target="_top" xlink:title="1">
<text text-anchor="middle" x="332.34" y="-45.33" font-family="Helvetica,sans-Serif" font-size="10.00" fill="#63b8ff">1</text>
</a>
</g>
</g>
<!-- dir_56c4127e98c4379c79e1deceb3f5348e -->
<g id="node9" class="node">
<title>dir_56c4127e98c4379c79e1deceb3f5348e</title>
<g id="a_node9"><a xlink:href="dir_56c4127e98c4379c79e1deceb3f5348e.html" target="_top" xlink:title="learning_tests">
<polygon fill="#a2b4d6" stroke="#404040" points="262.38,-201 185.62,-201 185.62,-181.75 262.38,-181.75 262.38,-201"/>
<text text-anchor="middle" x="224" y="-187.5" font-family="Helvetica,sans-Serif" font-size="10.00">learning_tests</text>
</a>
</g>
</g>
<!-- dir_a062f4c035b7e1315220726e840cdd6b -->
<g id="node10" class="node">
<title>dir_a062f4c035b7e1315220726e840cdd6b</title>
<g id="a_node10"><a xlink:href="dir_a062f4c035b7e1315220726e840cdd6b.html" target="_top" xlink:title="unit_tests">
<polygon fill="#a2b4d6" stroke="#404040" points="339.38,-201 280.62,-201 280.62,-181.75 339.38,-181.75 339.38,-201"/>
<text text-anchor="middle" x="310" y="-187.5" font-family="Helvetica,sans-Serif" font-size="10.00">unit_tests</text>
</a>
</g>
</g>
<!-- dir_a062f4c035b7e1315220726e840cdd6b&#45;&gt;dir_7650dacaa557a89ea1c633e1722b48a3 -->
<g id="edge11" class="edge">
<title>dir_a062f4c035b7e1315220726e840cdd6b&#45;&gt;dir_7650dacaa557a89ea1c633e1722b48a3</title>
<g id="a_edge11"><a xlink:href="dir_000047_000052.html" target="_top">
<path fill="none" stroke="#63b8ff" d="M339.68,-183.41C377.12,-174.63 442.07,-159.39 487.18,-148.81"/>
<polygon fill="#63b8ff" stroke="#63b8ff" points="487.79,-152.27 496.72,-146.57 486.19,-145.45 487.79,-152.27"/>
</a>
</g>
<g id="a_edge11&#45;headlabel"><a xlink:href="dir_000047_000052.html" target="_top" xlink:title="11">
<text text-anchor="middle" x="486.41" y="-151.63" font-family="Helvetica,sans-Serif" font-size="10.00" fill="#63b8ff">11</text>
</a>
</g>
</g>
<!-- dir_a062f4c035b7e1315220726e840cdd6b&#45;&gt;dir_aebb8dcc11953d78e620bbef0b9e2183 -->
<g id="edge12" class="edge">
<title>dir_a062f4c035b7e1315220726e840cdd6b&#45;&gt;dir_aebb8dcc11953d78e620bbef0b9e2183</title>
<g id="a_edge12"><a xlink:href="dir_000047_000004.html" target="_top">
<path fill="none" stroke="#63b8ff" d="M339.77,-183.57C342.88,-182.93 346,-182.31 349,-181.75 401.59,-171.97 552.12,-186.3 587,-145.75 627.15,-99.08 527.29,-55.1 475.63,-36.26"/>
<polygon fill="#63b8ff" stroke="#63b8ff" points="476.84,-32.98 466.25,-32.93 474.5,-39.57 476.84,-32.98"/>
</a>
</g>
<g id="a_edge12&#45;headlabel"><a xlink:href="dir_000047_000004.html" target="_top" xlink:title="2">
<text text-anchor="middle" x="479.75" y="-27.12" font-family="Helvetica,sans-Serif" font-size="10.00" fill="#63b8ff">2</text>
</a>
</g>
</g>
<!-- dir_a062f4c035b7e1315220726e840cdd6b&#45;&gt;dir_4a64ab7d9dd723f4f97a4d0759b28b1b -->
<g id="edge10" class="edge">
<title>dir_a062f4c035b7e1315220726e840cdd6b&#45;&gt;dir_4a64ab7d9dd723f4f97a4d0759b28b1b</title>
<g id="a_edge10"><a xlink:href="dir_000047_000000.html" target="_top">
<path fill="none" stroke="#63b8ff" d="M311.49,-181.58C312.6,-174.99 314.17,-165.71 315.59,-157.32"/>
<polygon fill="#63b8ff" stroke="#63b8ff" points="319.01,-158.05 317.23,-147.6 312.11,-156.88 319.01,-158.05"/>
</a>
</g>
<g id="a_edge10&#45;headlabel"><a xlink:href="dir_000047_000000.html" target="_top" xlink:title="6">
<text text-anchor="middle" x="321.47" y="-156.7" font-family="Helvetica,sans-Serif" font-size="10.00" fill="#63b8ff">6</text>
</a>
</g>
</g>
<!-- dir_a062f4c035b7e1315220726e840cdd6b&#45;&gt;dir_25cd647fda867a7ef4aaf9819f50dd27 -->
<g id="edge9" class="edge">
<title>dir_a062f4c035b7e1315220726e840cdd6b&#45;&gt;dir_25cd647fda867a7ef4aaf9819f50dd27</title>
<g id="a_edge9"><a xlink:href="dir_000047_000007.html" target="_top">
<path fill="none" stroke="#63b8ff" d="M326.45,-181.34C341.23,-173.23 363.18,-161.18 380.43,-151.71"/>
<polygon fill="#63b8ff" stroke="#63b8ff" points="382.06,-154.81 389.14,-146.93 378.69,-148.68 382.06,-154.81"/>
</a>
</g>
<g id="a_edge9&#45;headlabel"><a xlink:href="dir_000047_000007.html" target="_top" xlink:title="5">
<text text-anchor="middle" x="381.6" y="-154.43" font-family="Helvetica,sans-Serif" font-size="10.00" fill="#63b8ff">5</text>
</a>
</g>
</g>
<!-- dir_23cbb662bab5d78107be6e49384c9e19 -->
<g id="node11" class="node">
<title>dir_23cbb662bab5d78107be6e49384c9e19</title>
<g id="a_node11"><a xlink:href="dir_23cbb662bab5d78107be6e49384c9e19.html" target="_top" xlink:title="unit_tests_for_backends">
<polygon fill="#a2b4d6" stroke="#404040" points="480.25,-201 357.75,-201 357.75,-181.75 480.25,-181.75 480.25,-201"/>
<text text-anchor="middle" x="419" y="-187.5" font-family="Helvetica,sans-Serif" font-size="10.00">unit_tests_for_backends</text>
</a>
</g>
</g>
<!-- dir_23cbb662bab5d78107be6e49384c9e19&#45;&gt;dir_7650dacaa557a89ea1c633e1722b48a3 -->
<g id="edge15" class="edge">
<title>dir_23cbb662bab5d78107be6e49384c9e19&#45;&gt;dir_7650dacaa557a89ea1c633e1722b48a3</title>
<g id="a_edge15"><a xlink:href="dir_000051_000052.html" target="_top">
<path fill="none" stroke="#63b8ff" d="M439.02,-181.34C457.49,-173 485.21,-160.5 506.45,-150.91"/>
<polygon fill="#63b8ff" stroke="#63b8ff" points="507.83,-154.13 515.51,-146.83 504.95,-147.75 507.83,-154.13"/>
</a>
</g>
<g id="a_edge15&#45;headlabel"><a xlink:href="dir_000051_000052.html" target="_top" xlink:title="1">
<text text-anchor="middle" x="507.1" y="-153.7" font-family="Helvetica,sans-Serif" font-size="10.00" fill="#63b8ff">1</text>
</a>
</g>
</g>
<!-- dir_23cbb662bab5d78107be6e49384c9e19&#45;&gt;dir_aebb8dcc11953d78e620bbef0b9e2183 -->
<g id="edge16" class="edge">
<title>dir_23cbb662bab5d78107be6e49384c9e19&#45;&gt;dir_aebb8dcc11953d78e620bbef0b9e2183</title>
<g id="a_edge16"><a xlink:href="dir_000051_000004.html" target="_top">
<path fill="none" stroke="#63b8ff" d="M480.3,-183.55C527.43,-176.88 586.95,-164.91 602,-145.75 624.65,-116.91 624.75,-92 602,-63.25 586.57,-43.75 516.34,-33.58 475.91,-29.24"/>
<polygon fill="#63b8ff" stroke="#63b8ff" points="476.45,-25.78 466.15,-28.26 475.75,-32.75 476.45,-25.78"/>
</a>
</g>
<g id="a_edge16&#45;headlabel"><a xlink:href="dir_000051_000004.html" target="_top" xlink:title="2">
<text text-anchor="middle" x="478.81" y="-19.29" font-family="Helvetica,sans-Serif" font-size="10.00" fill="#63b8ff">2</text>
</a>
</g>
</g>
<!-- dir_23cbb662bab5d78107be6e49384c9e19&#45;&gt;dir_4a64ab7d9dd723f4f97a4d0759b28b1b -->
<g id="edge14" class="edge">
<title>dir_23cbb662bab5d78107be6e49384c9e19&#45;&gt;dir_4a64ab7d9dd723f4f97a4d0759b28b1b</title>
<g id="a_edge14"><a xlink:href="dir_000051_000000.html" target="_top">
<path fill="none" stroke="#63b8ff" d="M402.04,-181.34C386.74,-173.19 363.97,-161.07 346.14,-151.58"/>
<polygon fill="#63b8ff" stroke="#63b8ff" points="347.85,-148.52 337.38,-146.91 344.56,-154.7 347.85,-148.52"/>
</a>
</g>
<g id="a_edge14&#45;headlabel"><a xlink:href="dir_000051_000000.html" target="_top" xlink:title="2">
<text text-anchor="middle" x="351.03" y="-143.12" font-family="Helvetica,sans-Serif" font-size="10.00" fill="#63b8ff">2</text>
</a>
</g>
</g>
<!-- dir_23cbb662bab5d78107be6e49384c9e19&#45;&gt;dir_25cd647fda867a7ef4aaf9819f50dd27 -->
<g id="edge13" class="edge">
<title>dir_23cbb662bab5d78107be6e49384c9e19&#45;&gt;dir_25cd647fda867a7ef4aaf9819f50dd27</title>
<g id="a_edge13"><a xlink:href="dir_000051_000007.html" target="_top">
<path fill="none" stroke="#63b8ff" d="M417.02,-181.58C415.53,-174.99 413.44,-165.71 411.55,-157.32"/>
<polygon fill="#63b8ff" stroke="#63b8ff" points="414.97,-156.57 409.36,-147.59 408.14,-158.11 414.97,-156.57"/>
</a>
</g>
<g id="a_edge13&#45;headlabel"><a xlink:href="dir_000051_000007.html" target="_top" xlink:title="7">
<text text-anchor="middle" x="418.2" y="-154.1" font-family="Helvetica,sans-Serif" font-size="10.00" fill="#63b8ff">7</text>
</a>
</g>
</g>
</g>
</svg>
