<?xml version="1.0" encoding="UTF-8" standalone="no"?>
<!DOCTYPE svg PUBLIC "-//W3C//DTD SVG 1.1//EN"
 "http://www.w3.org/Graphics/SVG/1.1/DTD/svg11.dtd">
<!-- Generated by graphviz version 9.0.0 (20230911.1827)
 -->
<!-- Title: src/database/backends Pages: 1 -->
<svg width="418pt" height="142pt"
 viewBox="0.00 0.00 418.38 141.75" xmlns="http://www.w3.org/2000/svg" xmlns:xlink="http://www.w3.org/1999/xlink">
<g id="graph0" class="graph" transform="scale(1 1) rotate(0) translate(4 137.75)">
<title>src/database/backends</title>
<g id="clust1" class="cluster">
<title>clusterdir_803ee67260c130b45d29089798491ab2</title>
<g id="a_clust1"><a xlink:href="dir_803ee67260c130b45d29089798491ab2.html" target="_top" xlink:title="database">
<polygon fill="#edf0f7" stroke="#7f7f7f" stroke-dasharray="5,2" points="8,-8 8,-125.75 302,-125.75 302,-8 8,-8"/>
<text text-anchor="middle" x="155" y="-112.25" font-family="Helvetica,sans-Serif" font-size="10.00">database</text>
</a>
</g>
</g>
<g id="clust2" class="cluster">
<title>clusterdir_4a64ab7d9dd723f4f97a4d0759b28b1b</title>
<g id="a_clust2"><a xlink:href="dir_4a64ab7d9dd723f4f97a4d0759b28b1b.html" target="_top">
<polygon fill="#edf0f7" stroke="#404040" stroke-width="2" points="16,-63.25 16,-98.5 294,-98.5 294,-63.25 16,-63.25"/>
</a>
</g>
</g>
<!-- dir_33c23cf4335404e238116aa0329c21c1 -->
<g id="node1" class="node">
<title>dir_33c23cf4335404e238116aa0329c21c1</title>
<g id="a_node1"><a xlink:href="dir_33c23cf4335404e238116aa0329c21c1.html" target="_top" xlink:title="implementation">
<polygon fill="#a2b4d6" stroke="#404040" points="103,-35.25 21,-35.25 21,-16 103,-16 103,-35.25"/>
<text text-anchor="middle" x="62" y="-21.75" font-family="Helvetica,sans-Serif" font-size="10.00">implementation</text>
</a>
</g>
</g>
<!-- dir_4a64ab7d9dd723f4f97a4d0759b28b1b -->
<g id="node2" class="node">
<title>dir_4a64ab7d9dd723f4f97a4d0759b28b1b</title>
<text text-anchor="middle" x="257" y="-77" font-family="Helvetica,sans-Serif" font-size="10.00">backends</text>
</g>
<!-- dir_61d5aa7f1cbd32e774c0cabeaa317a4d -->
<g id="node3" class="node">
<title>dir_61d5aa7f1cbd32e774c0cabeaa317a4d</title>
<g id="a_node3"><a xlink:href="dir_61d5aa7f1cbd32e774c0cabeaa317a4d.html" target="_top" xlink:title="memory_backend">
<polygon fill="#a2b4d6" stroke="#404040" points="210.25,-90.5 117.75,-90.5 117.75,-71.25 210.25,-71.25 210.25,-90.5"/>
<text text-anchor="middle" x="164" y="-77" font-family="Helvetica,sans-Serif" font-size="10.00">memory_backend</text>
</a>
</g>
</g>
<!-- dir_aebb8dcc11953d78e620bbef0b9e2183 -->
<g id="node5" class="node">
<title>dir_aebb8dcc11953d78e620bbef0b9e2183</title>
<g id="a_node5"><a xlink:href="dir_aebb8dcc11953d78e620bbef0b9e2183.html" target="_top" xlink:title="core">
<polygon fill="#edf0f7" stroke="red" stroke-dasharray="5,2" points="410.38,-35.25 375.62,-35.25 375.62,-16 410.38,-16 410.38,-35.25"/>
<text text-anchor="middle" x="393" y="-21.75" font-family="Helvetica,sans-Serif" font-size="10.00">core</text>
</a>
</g>
</g>
<!-- dir_61d5aa7f1cbd32e774c0cabeaa317a4d&#45;&gt;dir_aebb8dcc11953d78e620bbef0b9e2183 -->
<g id="edge1" class="edge">
<title>dir_61d5aa7f1cbd32e774c0cabeaa317a4d&#45;&gt;dir_aebb8dcc11953d78e620bbef0b9e2183</title>
<g id="a_edge1"><a xlink:href="dir_000029_000004.html" target="_top">
<path fill="none" stroke="#63b8ff" d="M192.1,-70.75C200.68,-68.14 210.18,-65.41 219,-63.25 280.59,-48.16 300.15,-51.61 364.09,-35.72"/>
<polygon fill="#63b8ff" stroke="#63b8ff" points="364.9,-39.12 373.72,-33.26 363.17,-32.34 364.9,-39.12"/>
</a>
</g>
<g id="a_edge1&#45;headlabel"><a xlink:href="dir_000029_000004.html" target="_top" xlink:title="2">
<text text-anchor="middle" x="363.59" y="-38.51" font-family="Helvetica,sans-Serif" font-size="10.00" fill="#63b8ff">2</text>
</a>
</g>
</g>
<!-- dir_5ca624107ebde6d9b802185e46b7d48d -->
<g id="node4" class="node">
<title>dir_5ca624107ebde6d9b802185e46b7d48d</title>
<g id="a_node4"><a xlink:href="dir_5ca624107ebde6d9b802185e46b7d48d.html" target="_top" xlink:title="sql_backends">
<polygon fill="#a2b4d6" stroke="#404040" points="100,-90.5 24,-90.5 24,-71.25 100,-71.25 100,-90.5"/>
<text text-anchor="middle" x="62" y="-77" font-family="Helvetica,sans-Serif" font-size="10.00">sql_backends</text>
</a>
</g>
</g>
<!-- dir_5ca624107ebde6d9b802185e46b7d48d&#45;&gt;dir_33c23cf4335404e238116aa0329c21c1 -->
<g id="edge2" class="edge">
<title>dir_5ca624107ebde6d9b802185e46b7d48d&#45;&gt;dir_33c23cf4335404e238116aa0329c21c1</title>
<g id="a_edge2"><a xlink:href="dir_000039_000018.html" target="_top">
<path fill="none" stroke="#63b8ff" d="M62,-71.08C62,-64.57 62,-55.42 62,-47.12"/>
<polygon fill="#63b8ff" stroke="#63b8ff" points="65.5,-47.12 62,-37.12 58.5,-47.12 65.5,-47.12"/>
</a>
</g>
<g id="a_edge2&#45;headlabel"><a xlink:href="dir_000039_000018.html" target="_top" xlink:title="2">
<text text-anchor="middle" x="68.34" y="-45.33" font-family="Helvetica,sans-Serif" font-size="10.00" fill="#63b8ff">2</text>
</a>
</g>
</g>
<!-- dir_5ca624107ebde6d9b802185e46b7d48d&#45;&gt;dir_aebb8dcc11953d78e620bbef0b9e2183 -->
<g id="edge3" class="edge">
<title>dir_5ca624107ebde6d9b802185e46b7d48d&#45;&gt;dir_aebb8dcc11953d78e620bbef0b9e2183</title>
<g id="a_edge3"><a xlink:href="dir_000039_000004.html" target="_top">
<path fill="none" stroke="#63b8ff" d="M84.16,-70.85C91.9,-68.01 100.73,-65.13 109,-63.25 217.94,-38.42 252.17,-58.43 364.15,-35.43"/>
<polygon fill="#63b8ff" stroke="#63b8ff" points="364.71,-38.89 373.76,-33.39 363.25,-32.05 364.71,-38.89"/>
</a>
</g>
<g id="a_edge3&#45;headlabel"><a xlink:href="dir_000039_000004.html" target="_top" xlink:title="18">
<text text-anchor="middle" x="363.26" y="-38.23" font-family="Helvetica,sans-Serif" font-size="10.00" fill="#63b8ff">18</text>
</a>
</g>
</g>
<!-- dir_d501334aeb1b78ad67cd3c72c37b1e87 -->
<g id="node6" class="node">
<title>dir_d501334aeb1b78ad67cd3c72c37b1e87</title>
<g id="a_node6"><a xlink:href="dir_d501334aeb1b78ad67cd3c72c37b1e87.html" target="_top" xlink:title="system">
<polygon fill="#edf0f7" stroke="red" stroke-dasharray="5,2" points="357.75,-35.25 310.25,-35.25 310.25,-16 357.75,-16 357.75,-35.25"/>
<text text-anchor="middle" x="334" y="-21.75" font-family="Helvetica,sans-Serif" font-size="10.00">system</text>
</a>
</g>
</g>
<!-- dir_5ca624107ebde6d9b802185e46b7d48d&#45;&gt;dir_d501334aeb1b78ad67cd3c72c37b1e87 -->
<g id="edge4" class="edge">
<title>dir_5ca624107ebde6d9b802185e46b7d48d&#45;&gt;dir_d501334aeb1b78ad67cd3c72c37b1e87</title>
<g id="a_edge4"><a xlink:href="dir_000039_000042.html" target="_top">
<path fill="none" stroke="#63b8ff" d="M84.67,-70.83C92.3,-68.06 100.93,-65.23 109,-63.25 191.37,-43.04 217.56,-53.59 299.15,-36.63"/>
<polygon fill="#63b8ff" stroke="#63b8ff" points="299.42,-40.16 308.45,-34.62 297.94,-33.31 299.42,-40.16"/>
</a>
</g>
<g id="a_edge4&#45;headlabel"><a xlink:href="dir_000039_000042.html" target="_top" xlink:title="1">
<text text-anchor="middle" x="297.99" y="-39.5" font-family="Helvetica,sans-Serif" font-size="10.00" fill="#63b8ff">1</text>
</a>
</g>
</g>
</g>
</svg>
