<?xml version="1.0" encoding="UTF-8" standalone="no"?>
<!DOCTYPE svg PUBLIC "-//W3C//DTD SVG 1.1//EN"
 "http://www.w3.org/Graphics/SVG/1.1/DTD/svg11.dtd">
<!-- Generated by graphviz version 12.2.0 (20241103.1931)
 -->
<!-- Title: src/gui/desktop/ui Pages: 1 -->
<!--zoomable 134 -->

<svg id="main" version="1.1" xmlns="http://www.w3.org/2000/svg" xmlns:xlink="http://www.w3.org/1999/xlink" xml:space="preserve" onload="init(evt)">

<style type="text/css"><![CDATA[
.node, .edge {opacity: 0.7;}
.node.selected, .edge.selected {opacity: 1;}
.edge:hover path { stroke: red; }
.edge:hover polygon { stroke: red; fill: red; }
]]></style>

<defs>
  <circle id="rim" cx="0" cy="0" r="7"/>
  <circle id="rim2" cx="0" cy="0" r="3.5"/>
  <g id="zoomPlus">
    <use xlink:href="#rim" fill="#404040"><set attributeName="fill" to="#808080" begin="zoomplus.mouseover" end="zoomplus.mouseout"/></use>
    <path d="M-4,0h8M0,-4v8" fill="none" stroke="white" stroke-width="1.5" pointer-events="none"/>
  </g>
  <g id="zoomMin">
    <use xlink:href="#rim" fill="#404040"><set attributeName="fill" to="#808080" begin="zoomminus.mouseover" end="zoomminus.mouseout"/></use>
    <path d="M-4,0h8" fill="none" stroke="white" stroke-width="1.5" pointer-events="none"/>
  </g>
  <g id="arrowUp" transform="translate(30 24)">
    <use xlink:href="#rim"/>
    <path pointer-events="none" fill="none" stroke="white" stroke-width="1.5" d="M0,-3.0v7 M-2.5,-0.5L0,-3.0L2.5,-0.5"/>
  </g>
  <g id="arrowRight" transform="rotate(90) translate(36 -43)">
    <use xlink:href="#rim"/>
    <path pointer-events="none" fill="none" stroke="white" stroke-width="1.5" d="M0,-3.0v7 M-2.5,-0.5L0,-3.0L2.5,-0.5"/>
  </g>
  <g id="arrowDown" transform="rotate(180) translate(-30 -48)">
    <use xlink:href="#rim"/>
    <path pointer-events="none" fill="none" stroke="white" stroke-width="1.5" d="M0,-3.0v7 M-2.5,-0.5L0,-3.0L2.5,-0.5"/>
  </g>
  <g id="arrowLeft" transform="rotate(270) translate(-36 17)">
    <use xlink:href="#rim"/>
    <path pointer-events="none" fill="none" stroke="white" stroke-width="1.5" d="M0,-3.0v7 M-2.5,-0.5L0,-3.0L2.5,-0.5"/>
  </g>
  <g id="resetDef">
    <use xlink:href="#rim2" fill="#404040"><set attributeName="fill" to="#808080" begin="reset.mouseover" end="reset.mouseout"/></use>
  </g>
</defs>
<script type="application/ecmascript">
var viewWidth = 770;
var viewHeight = 134;
var sectionId = 'dynsection-0';
</script>
<script type="application/ecmascript" xlink:href="svg.min.js"/>
<svg id="graph" class="graph">
<g id="viewport">
<title>src/gui/desktop/ui</title>
<g id="clust1" class="cluster">
<title>clusterdir_c090f567964b7b78a4e63a3af92480e4</title>
<g id="a_clust1"><a xlink:href="dir_c090f567964b7b78a4e63a3af92480e4.html" target="_top" xlink:title="desktop">
<polygon fill="#edf0f7" stroke="#7f7f7f" stroke-dasharray="5,2" points="8,-8 8,-117.75 426,-117.75 426,-8 8,-8"/>
<text text-anchor="middle" x="217" y="-104.25" font-family="Helvetica,sans-Serif" font-size="10.00">desktop</text>
</a>
</g>
</g>
<!-- dir_1b7a27b8217f5e65b22462c5d7f44b93 -->
<g id="node1" class="node">
<title>dir_1b7a27b8217f5e65b22462c5d7f44b93</title>
<g id="a_node1"><a xlink:href="dir_1b7a27b8217f5e65b22462c5d7f44b93.html" target="_top" xlink:title="utils">
<polygon fill="#a2b4d6" stroke="red" points="50,-35.25 16,-35.25 16,-16 50,-16 50,-35.25"/>
<text text-anchor="middle" x="33" y="-21.75" font-family="Helvetica,sans-Serif" font-size="10.00">utils</text>
</a>
</g>
</g>
<!-- dir_1c19ca1a4f7a7d4cea5c037903b88df8 -->
<g id="node2" class="node">
<title>dir_1c19ca1a4f7a7d4cea5c037903b88df8</title>
<g id="a_node2"><a xlink:href="dir_1c19ca1a4f7a7d4cea5c037903b88df8.html" target="_top" xlink:title="ui_utils">
<polygon fill="#a2b4d6" stroke="#404040" points="114.38,-35.25 67.62,-35.25 67.62,-16 114.38,-16 114.38,-35.25"/>
<text text-anchor="middle" x="91" y="-21.75" font-family="Helvetica,sans-Serif" font-size="10.00">ui_utils</text>
</a>
</g>
</g>
<!-- dir_7d467393d560233103ebcba321685010 -->
<g id="node3" class="node">
<title>dir_7d467393d560233103ebcba321685010</title>
<g id="a_node3"><a xlink:href="dir_7d467393d560233103ebcba321685010.html" target="_top" xlink:title="config_tabs">
<polygon fill="#a2b4d6" stroke="#404040" points="197.75,-35.25 132.25,-35.25 132.25,-16 197.75,-16 197.75,-35.25"/>
<text text-anchor="middle" x="165" y="-21.75" font-family="Helvetica,sans-Serif" font-size="10.00">config_tabs</text>
</a>
</g>
</g>
<!-- dir_8dc0b02c5540719e4ed4ca2c28a1216f -->
<g id="node4" class="node">
<title>dir_8dc0b02c5540719e4ed4ca2c28a1216f</title>
<g id="a_node4"><a xlink:href="dir_8dc0b02c5540719e4ed4ca2c28a1216f.html" target="_top" xlink:title="widgets">
<polygon fill="#a2b4d6" stroke="red" points="265.88,-35.25 216.12,-35.25 216.12,-16 265.88,-16 265.88,-35.25"/>
<text text-anchor="middle" x="241" y="-21.75" font-family="Helvetica,sans-Serif" font-size="10.00">widgets</text>
</a>
</g>
</g>
<!-- dir_9f2afc37bbee63264d7dee120a37359d -->
<g id="node5" class="node">
<title>dir_9f2afc37bbee63264d7dee120a37359d</title>
<g id="a_node5"><a xlink:href="dir_9f2afc37bbee63264d7dee120a37359d.html" target="_top" xlink:title="quick_items">
<polygon fill="#a2b4d6" stroke="red" points="352.25,-35.25 283.75,-35.25 283.75,-16 352.25,-16 352.25,-35.25"/>
<text text-anchor="middle" x="318" y="-21.75" font-family="Helvetica,sans-Serif" font-size="10.00">quick_items</text>
</a>
</g>
</g>
<!-- dir_eedf6bf7af32f88c96a361dd896f2edf -->
<g id="node6" class="node">
<title>dir_eedf6bf7af32f88c96a361dd896f2edf</title>
<g id="a_node6"><a xlink:href="dir_eedf6bf7af32f88c96a361dd896f2edf.html" target="_top" xlink:title="models">
<polygon fill="#a2b4d6" stroke="#404040" points="417.75,-35.25 370.25,-35.25 370.25,-16 417.75,-16 417.75,-35.25"/>
<text text-anchor="middle" x="394" y="-21.75" font-family="Helvetica,sans-Serif" font-size="10.00">models</text>
</a>
</g>
</g>
<!-- dir_fcaf3ae3d2d1d53571279bba4994cbf5 -->
<g id="node7" class="node">
<title>dir_fcaf3ae3d2d1d53571279bba4994cbf5</title>
<g id="a_node7"><a xlink:href="dir_fcaf3ae3d2d1d53571279bba4994cbf5.html" target="_top" xlink:title="ui">
<polygon fill="#edf0f7" stroke="#404040" stroke-width="2" points="408.4,-90.5 379.6,-90.5 379.6,-71.25 408.4,-71.25 408.4,-90.5"/>
<text text-anchor="middle" x="394" y="-77" font-family="Helvetica,sans-Serif" font-size="10.00">ui</text>
</a>
</g>
</g>
<!-- dir_fcaf3ae3d2d1d53571279bba4994cbf5&#45;&gt;dir_1b7a27b8217f5e65b22462c5d7f44b93 -->
<g id="edge1" class="edge">
<title>dir_fcaf3ae3d2d1d53571279bba4994cbf5&#45;&gt;dir_1b7a27b8217f5e65b22462c5d7f44b93</title>
<g id="a_edge1"><a xlink:href="dir_000044_000054.html" target="_top">
<path fill="none" stroke="#63b8ff" d="M379.13,-78.89C333.16,-75.66 189.26,-63.99 61.61,-35.46"/>
<polygon fill="#63b8ff" stroke="#63b8ff" points="62.5,-32.07 51.97,-33.26 60.94,-38.9 62.5,-32.07"/>
</a>
</g>
<g id="a_edge1&#45;headlabel"><a xlink:href="dir_000044_000054.html" target="_top" xlink:title="11">
<text text-anchor="middle" x="65.16" y="-25.89" font-family="Helvetica,sans-Serif" font-size="10.00" fill="#63b8ff">11</text>
</a>
</g>
</g>
<!-- dir_fcaf3ae3d2d1d53571279bba4994cbf5&#45;&gt;dir_1c19ca1a4f7a7d4cea5c037903b88df8 -->
<g id="edge2" class="edge">
<title>dir_fcaf3ae3d2d1d53571279bba4994cbf5&#45;&gt;dir_1c19ca1a4f7a7d4cea5c037903b88df8</title>
<g id="a_edge2"><a xlink:href="dir_000044_000045.html" target="_top">
<path fill="none" stroke="#63b8ff" d="M379.21,-77.97C339.69,-72.77 228.16,-57.37 125.84,-35.69"/>
<polygon fill="#63b8ff" stroke="#63b8ff" points="126.69,-32.29 116.18,-33.61 125.22,-39.14 126.69,-32.29"/>
</a>
</g>
<g id="a_edge2&#45;headlabel"><a xlink:href="dir_000044_000045.html" target="_top" xlink:title="2">
<text text-anchor="middle" x="129.32" y="-26.08" font-family="Helvetica,sans-Serif" font-size="10.00" fill="#63b8ff">2</text>
</a>
</g>
</g>
<!-- dir_fcaf3ae3d2d1d53571279bba4994cbf5&#45;&gt;dir_7d467393d560233103ebcba321685010 -->
<g id="edge4" class="edge">
<title>dir_fcaf3ae3d2d1d53571279bba4994cbf5&#45;&gt;dir_7d467393d560233103ebcba321685010</title>
<g id="a_edge4"><a xlink:href="dir_000044_000003.html" target="_top">
<path fill="none" stroke="#63b8ff" d="M379.33,-76.46C345.57,-68.61 261.32,-49.02 209.07,-36.87"/>
<polygon fill="#63b8ff" stroke="#63b8ff" points="210.12,-33.52 199.59,-34.67 208.54,-40.34 210.12,-33.52"/>
</a>
</g>
<g id="a_edge4&#45;headlabel"><a xlink:href="dir_000044_000003.html" target="_top" xlink:title="1">
<text text-anchor="middle" x="212.79" y="-27.36" font-family="Helvetica,sans-Serif" font-size="10.00" fill="#63b8ff">1</text>
</a>
</g>
</g>
<!-- dir_fcaf3ae3d2d1d53571279bba4994cbf5&#45;&gt;dir_8dc0b02c5540719e4ed4ca2c28a1216f -->
<g id="edge6" class="edge">
<title>dir_fcaf3ae3d2d1d53571279bba4994cbf5&#45;&gt;dir_8dc0b02c5540719e4ed4ca2c28a1216f</title>
<g id="a_edge6"><a xlink:href="dir_000044_000056.html" target="_top">
<path fill="none" stroke="#63b8ff" d="M379.33,-74.77C355.88,-66.61 309.27,-50.39 276.66,-39.04"/>
<polygon fill="#63b8ff" stroke="#63b8ff" points="278.22,-35.87 267.63,-35.89 275.92,-42.48 278.22,-35.87"/>
</a>
</g>
<g id="a_edge6&#45;headlabel"><a xlink:href="dir_000044_000056.html" target="_top" xlink:title="2">
<text text-anchor="middle" x="281.12" y="-30" font-family="Helvetica,sans-Serif" font-size="10.00" fill="#63b8ff">2</text>
</a>
</g>
</g>
<!-- dir_fcaf3ae3d2d1d53571279bba4994cbf5&#45;&gt;dir_9f2afc37bbee63264d7dee120a37359d -->
<g id="edge7" class="edge">
<title>dir_fcaf3ae3d2d1d53571279bba4994cbf5&#45;&gt;dir_9f2afc37bbee63264d7dee120a37359d</title>
<g id="a_edge7"><a xlink:href="dir_000044_000038.html" target="_top">
<path fill="none" stroke="#63b8ff" d="M381.11,-70.84C369.97,-63.04 353.63,-51.59 340.36,-42.29"/>
<polygon fill="#63b8ff" stroke="#63b8ff" points="342.39,-39.44 332.2,-36.57 338.38,-45.18 342.39,-39.44"/>
</a>
</g>
<g id="a_edge7&#45;headlabel"><a xlink:href="dir_000044_000038.html" target="_top" xlink:title="4">
<text text-anchor="middle" x="345.73" y="-34.44" font-family="Helvetica,sans-Serif" font-size="10.00" fill="#63b8ff">4</text>
</a>
</g>
</g>
<!-- dir_fcaf3ae3d2d1d53571279bba4994cbf5&#45;&gt;dir_eedf6bf7af32f88c96a361dd896f2edf -->
<g id="edge10" class="edge">
<title>dir_fcaf3ae3d2d1d53571279bba4994cbf5&#45;&gt;dir_eedf6bf7af32f88c96a361dd896f2edf</title>
<g id="a_edge10"><a xlink:href="dir_000044_000031.html" target="_top">
<path fill="none" stroke="#63b8ff" d="M394,-71.08C394,-64.57 394,-55.42 394,-47.12"/>
<polygon fill="#63b8ff" stroke="#63b8ff" points="397.5,-47.12 394,-37.12 390.5,-47.12 397.5,-47.12"/>
</a>
</g>
<g id="a_edge10&#45;headlabel"><a xlink:href="dir_000044_000031.html" target="_top" xlink:title="4">
<text text-anchor="middle" x="400.34" y="-45.33" font-family="Helvetica,sans-Serif" font-size="10.00" fill="#63b8ff">4</text>
</a>
</g>
</g>
<!-- dir_54e6d718270be77f4d294dce82c1c152 -->
<g id="node8" class="node">
<title>dir_54e6d718270be77f4d294dce82c1c152</title>
<g id="a_node8"><a xlink:href="dir_54e6d718270be77f4d294dce82c1c152.html" target="_top" xlink:title="project_utils">
<polygon fill="#edf0f7" stroke="red" stroke-dasharray="5,2" points="504.25,-35.25 435.75,-35.25 435.75,-16 504.25,-16 504.25,-35.25"/>
<text text-anchor="middle" x="470" y="-21.75" font-family="Helvetica,sans-Serif" font-size="10.00">project_utils</text>
</a>
</g>
</g>
<!-- dir_fcaf3ae3d2d1d53571279bba4994cbf5&#45;&gt;dir_54e6d718270be77f4d294dce82c1c152 -->
<g id="edge3" class="edge">
<title>dir_fcaf3ae3d2d1d53571279bba4994cbf5&#45;&gt;dir_54e6d718270be77f4d294dce82c1c152</title>
<g id="a_edge3"><a xlink:href="dir_000044_000036.html" target="_top">
<path fill="none" stroke="#63b8ff" d="M406.89,-70.84C418.03,-63.04 434.37,-51.59 447.64,-42.29"/>
<polygon fill="#63b8ff" stroke="#63b8ff" points="449.62,-45.18 455.8,-36.57 445.61,-39.44 449.62,-45.18"/>
</a>
</g>
<g id="a_edge3&#45;headlabel"><a xlink:href="dir_000044_000036.html" target="_top" xlink:title="4">
<text text-anchor="middle" x="449.55" y="-44.82" font-family="Helvetica,sans-Serif" font-size="10.00" fill="#63b8ff">4</text>
</a>
</g>
</g>
<!-- dir_803ee67260c130b45d29089798491ab2 -->
<g id="node9" class="node">
<title>dir_803ee67260c130b45d29089798491ab2</title>
<g id="a_node9"><a xlink:href="dir_803ee67260c130b45d29089798491ab2.html" target="_top" xlink:title="database">
<polygon fill="#edf0f7" stroke="red" stroke-dasharray="5,2" points="577.88,-35.25 522.12,-35.25 522.12,-16 577.88,-16 577.88,-35.25"/>
<text text-anchor="middle" x="550" y="-21.75" font-family="Helvetica,sans-Serif" font-size="10.00">database</text>
</a>
</g>
</g>
<!-- dir_fcaf3ae3d2d1d53571279bba4994cbf5&#45;&gt;dir_803ee67260c130b45d29089798491ab2 -->
<g id="edge5" class="edge">
<title>dir_fcaf3ae3d2d1d53571279bba4994cbf5&#45;&gt;dir_803ee67260c130b45d29089798491ab2</title>
<g id="a_edge5"><a xlink:href="dir_000044_000006.html" target="_top">
<path fill="none" stroke="#63b8ff" d="M408.68,-74.87C432.25,-66.82 479.3,-50.76 512.62,-39.38"/>
<polygon fill="#63b8ff" stroke="#63b8ff" points="513.58,-42.76 521.91,-36.21 511.32,-36.13 513.58,-42.76"/>
</a>
</g>
<g id="a_edge5&#45;headlabel"><a xlink:href="dir_000044_000006.html" target="_top" xlink:title="8">
<text text-anchor="middle" x="512.52" y="-42.24" font-family="Helvetica,sans-Serif" font-size="10.00" fill="#63b8ff">8</text>
</a>
</g>
</g>
<!-- dir_aebb8dcc11953d78e620bbef0b9e2183 -->
<g id="node10" class="node">
<title>dir_aebb8dcc11953d78e620bbef0b9e2183</title>
<g id="a_node10"><a xlink:href="dir_aebb8dcc11953d78e620bbef0b9e2183.html" target="_top" xlink:title="core">
<polygon fill="#edf0f7" stroke="red" stroke-dasharray="5,2" points="630.38,-35.25 595.62,-35.25 595.62,-16 630.38,-16 630.38,-35.25"/>
<text text-anchor="middle" x="613" y="-21.75" font-family="Helvetica,sans-Serif" font-size="10.00">core</text>
</a>
</g>
</g>
<!-- dir_fcaf3ae3d2d1d53571279bba4994cbf5&#45;&gt;dir_aebb8dcc11953d78e620bbef0b9e2183 -->
<g id="edge8" class="edge">
<title>dir_fcaf3ae3d2d1d53571279bba4994cbf5&#45;&gt;dir_aebb8dcc11953d78e620bbef0b9e2183</title>
<g id="a_edge8"><a xlink:href="dir_000044_000004.html" target="_top">
<path fill="none" stroke="#63b8ff" d="M408.64,-76.98C439.45,-70.77 513.4,-55.36 584.28,-35.82"/>
<polygon fill="#63b8ff" stroke="#63b8ff" points="585.02,-39.25 593.71,-33.19 583.13,-32.51 585.02,-39.25"/>
</a>
</g>
<g id="a_edge8&#45;headlabel"><a xlink:href="dir_000044_000004.html" target="_top" xlink:title="13">
<text text-anchor="middle" x="583.78" y="-38.67" font-family="Helvetica,sans-Serif" font-size="10.00" fill="#63b8ff">13</text>
</a>
</g>
</g>
<!-- dir_d501334aeb1b78ad67cd3c72c37b1e87 -->
<g id="node11" class="node">
<title>dir_d501334aeb1b78ad67cd3c72c37b1e87</title>
<g id="a_node11"><a xlink:href="dir_d501334aeb1b78ad67cd3c72c37b1e87.html" target="_top" xlink:title="system">
<polygon fill="#edf0f7" stroke="red" stroke-dasharray="5,2" points="695.75,-35.25 648.25,-35.25 648.25,-16 695.75,-16 695.75,-35.25"/>
<text text-anchor="middle" x="672" y="-21.75" font-family="Helvetica,sans-Serif" font-size="10.00">system</text>
</a>
</g>
</g>
<!-- dir_fcaf3ae3d2d1d53571279bba4994cbf5&#45;&gt;dir_d501334aeb1b78ad67cd3c72c37b1e87 -->
<g id="edge9" class="edge">
<title>dir_fcaf3ae3d2d1d53571279bba4994cbf5&#45;&gt;dir_d501334aeb1b78ad67cd3c72c37b1e87</title>
<g id="a_edge9"><a xlink:href="dir_000044_000042.html" target="_top">
<path fill="none" stroke="#63b8ff" d="M408.71,-77.59C445.45,-71.81 544.33,-55.75 636.93,-35.56"/>
<polygon fill="#63b8ff" stroke="#63b8ff" points="637.41,-39.04 646.42,-33.47 635.9,-32.21 637.41,-39.04"/>
</a>
</g>
<g id="a_edge9&#45;headlabel"><a xlink:href="dir_000044_000042.html" target="_top" xlink:title="2">
<text text-anchor="middle" x="635.99" y="-38.39" font-family="Helvetica,sans-Serif" font-size="10.00" fill="#63b8ff">2</text>
</a>
</g>
</g>
<!-- dir_f356faf232716eaaa298279b6f90416b -->
<g id="node12" class="node">
<title>dir_f356faf232716eaaa298279b6f90416b</title>
<g id="a_node12"><a xlink:href="dir_f356faf232716eaaa298279b6f90416b.html" target="_top" xlink:title="updater">
<polygon fill="#edf0f7" stroke="red" stroke-dasharray="5,2" points="762.12,-35.25 713.88,-35.25 713.88,-16 762.12,-16 762.12,-35.25"/>
<text text-anchor="middle" x="738" y="-21.75" font-family="Helvetica,sans-Serif" font-size="10.00">updater</text>
</a>
</g>
</g>
<!-- dir_fcaf3ae3d2d1d53571279bba4994cbf5&#45;&gt;dir_f356faf232716eaaa298279b6f90416b -->
<g id="edge11" class="edge">
<title>dir_fcaf3ae3d2d1d53571279bba4994cbf5&#45;&gt;dir_f356faf232716eaaa298279b6f90416b</title>
<g id="a_edge11"><a xlink:href="dir_000044_000053.html" target="_top">
<path fill="none" stroke="#63b8ff" d="M408.67,-78.37C452.05,-73.78 583.61,-59 702.47,-35.56"/>
<polygon fill="#63b8ff" stroke="#63b8ff" points="702.96,-39.03 712.08,-33.64 701.59,-32.17 702.96,-39.03"/>
</a>
</g>
<g id="a_edge11&#45;headlabel"><a xlink:href="dir_000044_000053.html" target="_top" xlink:title="1">
<text text-anchor="middle" x="701.48" y="-38.35" font-family="Helvetica,sans-Serif" font-size="10.00" fill="#63b8ff">1</text>
</a>
</g>
</g>
</g>
</svg>

<g id="navigator" transform="translate(0 0)" fill="#404254">
  <rect fill="#f2f5e9" fill-opacity="0.5" stroke="#606060" stroke-width=".5" x="0" y="0" width="60" height="60"/>
  <use id="zoomplus" xlink:href="#zoomPlus" x="17" y="9" onmousedown="handleZoom(evt,'in')"/>
  <use id="zoomminus" xlink:href="#zoomMin" x="42" y="9" onmousedown="handleZoom(evt,'out')"/>
  <use id="reset" xlink:href="#resetDef" x="30" y="36" onmousedown="handleReset()"/>
   <use id="arrowup" xlink:href="#arrowUp" x="0" y="0" onmousedown="handlePan(0,-1)"/>
  <use id="arrowright" xlink:href="#arrowRight" x="0" y="0" onmousedown="handlePan(1,0)"/>
  <use id="arrowdown" xlink:href="#arrowDown" x="0" y="0" onmousedown="handlePan(0,1)"/>
  <use id="arrowleft" xlink:href="#arrowLeft" x="0" y="0" onmousedown="handlePan(-1,0)"/>
</g>
<svg viewBox="0 0 15 15" width="100%" height="30px" preserveAspectRatio="xMaxYMin meet">
 <g id="arrow_out" transform="scale(0.3 0.3)">
  <a xlink:href="dir_fcaf3ae3d2d1d53571279bba4994cbf5_dep_org.svg" target="_base">
   <rect id="button" ry="5" rx="5" y="6" x="6" height="38" width="38"
        fill="#f2f5e9" fill-opacity="0.5" stroke="#606060" stroke-width="1.0"/>
   <path id="arrow"
     d="M 11.500037,31.436501 C 11.940474,20.09759 22.043105,11.32322 32.158766,21.979434 L 37.068811,17.246167 C 37.068811,17.246167 37.088388,32 37.088388,32 L 22.160133,31.978069 C 22.160133,31.978069 26.997745,27.140456 26.997745,27.140456 C 18.528582,18.264221 13.291696,25.230495 11.500037,31.436501 z"
     style="fill:#404040;"/>
  </a>
 </g>
</svg>

<style type='text/css'>
<![CDATA[
[data-mouse-over-selected='false'] { opacity: 0.7; }
[data-mouse-over-selected='true']  { opacity: 1.0; }
]]>
</style>
<script type="application/ecmascript"><![CDATA[
document.addEventListener('DOMContentLoaded', (event) => {
  highlightEdges();
  highlightAdjacentNodes();
});
]]></script>
</svg>
