<?xml version="1.0" encoding="UTF-8" standalone="no"?>
<!DOCTYPE svg PUBLIC "-//W3C//DTD SVG 1.1//EN"
 "http://www.w3.org/Graphics/SVG/1.1/DTD/svg11.dtd">
<!-- Generated by graphviz version 7.0.5 (20221223.1930)
 -->
<!-- Title: Graphical Class Hierarchy Pages: 1 -->
<svg width="261pt" height="101pt"
 viewBox="0.00 0.00 261.00 101.00" xmlns="http://www.w3.org/2000/svg" xmlns:xlink="http://www.w3.org/1999/xlink">
<g id="graph0" class="graph" transform="scale(1 1) rotate(0) translate(4 97)">
<title>Graphical Class Hierarchy</title>
<!-- Node0 -->
<g id="node1" class="node">
<title>Node0</title>
<g id="a_node1"><a xlink:href="d7/ddf/struct_i_thumbnails_cache.html" target="_top" xlink:title=" ">
<polygon fill="white" stroke="#666666" points="98,-56 0,-56 0,-37 98,-37 98,-56"/>
<text text-anchor="middle" x="49" y="-44" font-family="Helvetica,sans-Serif" font-size="10.00">IThumbnailsCache</text>
</a>
</g>
</g>
<!-- Node1 -->
<g id="node2" class="node">
<title>Node1</title>
<g id="a_node2"><a xlink:href="da/d15/struct_mock_thumbnails_cache.html" target="_top" xlink:title=" ">
<polygon fill="white" stroke="#666666" points="253,-93 134,-93 134,-74 253,-74 253,-93"/>
<text text-anchor="middle" x="193.5" y="-81" font-family="Helvetica,sans-Serif" font-size="10.00">MockThumbnailsCache</text>
</a>
</g>
</g>
<!-- Node0&#45;&gt;Node1 -->
<g id="edge1" class="edge">
<title>Node0&#45;&gt;Node1</title>
<path fill="none" stroke="#63b8ff" d="M99.1,-59.25C117.13,-63.93 137.26,-69.16 154.21,-73.56"/>
<polygon fill="#63b8ff" stroke="#63b8ff" points="100.21,-55.92 89.65,-56.8 98.45,-62.7 100.21,-55.92"/>
</g>
<!-- Node2 -->
<g id="node3" class="node">
<title>Node2</title>
<g id="a_node3"><a xlink:href="d5/dec/struct_null_cache.html" target="_top" xlink:title=" ">
<polygon fill="white" stroke="#666666" points="224.5,-56 162.5,-56 162.5,-37 224.5,-37 224.5,-56"/>
<text text-anchor="middle" x="193.5" y="-44" font-family="Helvetica,sans-Serif" font-size="10.00">NullCache</text>
</a>
</g>
</g>
<!-- Node0&#45;&gt;Node2 -->
<g id="edge2" class="edge">
<title>Node0&#45;&gt;Node2</title>
<path fill="none" stroke="#63b8ff" d="M109.63,-46.5C127.73,-46.5 146.85,-46.5 162.16,-46.5"/>
<polygon fill="#63b8ff" stroke="#63b8ff" points="109.76,-43 99.76,-46.5 109.76,-50 109.76,-43"/>
</g>
<!-- Node3 -->
<g id="node4" class="node">
<title>Node3</title>
<g id="a_node4"><a xlink:href="de/d89/class_thumbnails_cache.html" target="_top" xlink:title=" ">
<polygon fill="white" stroke="#666666" points="241,-19 146,-19 146,0 241,0 241,-19"/>
<text text-anchor="middle" x="193.5" y="-7" font-family="Helvetica,sans-Serif" font-size="10.00">ThumbnailsCache</text>
</a>
</g>
</g>
<!-- Node0&#45;&gt;Node3 -->
<g id="edge3" class="edge">
<title>Node0&#45;&gt;Node3</title>
<path fill="none" stroke="#63b8ff" d="M99.1,-33.75C117.13,-29.07 137.26,-23.84 154.21,-19.44"/>
<polygon fill="#63b8ff" stroke="#63b8ff" points="98.45,-30.3 89.65,-36.2 100.21,-37.08 98.45,-30.3"/>
</g>
</g>
</svg>
