<?xml version="1.0" encoding="UTF-8" standalone="no"?>
<!DOCTYPE svg PUBLIC "-//W3C//DTD SVG 1.1//EN"
 "http://www.w3.org/Graphics/SVG/1.1/DTD/svg11.dtd">
<!-- Generated by graphviz version 12.2.0 (20241103.1931)
 -->
<!-- Title: Graphical Class Hierarchy Pages: 1 -->
<svg width="249pt" height="64pt"
 viewBox="0.00 0.00 248.50 64.25" xmlns="http://www.w3.org/2000/svg" xmlns:xlink="http://www.w3.org/1999/xlink">
<g id="graph0" class="graph" transform="scale(1 1) rotate(0) translate(4 60.25)">
<title>Graphical Class Hierarchy</title>
<!-- Node0 -->
<g id="Node000000" class="node">
<title>Node0</title>
<g id="a_Node000000"><a xlink:href="dc/daa/struct_i_file_system_scanner.html" target="_top" xlink:title=" ">
<polygon fill="white" stroke="#666666" points="103.75,-37.25 0,-37.25 0,-18 103.75,-18 103.75,-37.25"/>
<text text-anchor="middle" x="51.88" y="-23.75" font-family="Helvetica,sans-Serif" font-size="10.00">IFileSystemScanner</text>
</a>
</g>
</g>
<!-- Node1 -->
<g id="Node000001" class="node">
<title>Node1</title>
<g id="a_Node000001"><a xlink:href="d7/d39/struct_file_system_mock.html" target="_top" xlink:title=" ">
<polygon fill="white" stroke="#666666" points="234.5,-56.25 145.75,-56.25 145.75,-37 234.5,-37 234.5,-56.25"/>
<text text-anchor="middle" x="190.12" y="-42.75" font-family="Helvetica,sans-Serif" font-size="10.00">FileSystemMock</text>
</a>
</g>
</g>
<!-- Node0&#45;&gt;Node1 -->
<g id="edge118_Node000000_Node000001" class="edge">
<title>Node0&#45;&gt;Node1</title>
<g id="a_edge118_Node000000_Node000001"><a xlink:title=" ">
<path fill="none" stroke="#63b8ff" d="M115.31,-36.33C125.45,-37.74 135.74,-39.18 145.31,-40.51"/>
<polygon fill="#63b8ff" stroke="#63b8ff" points="115.88,-32.88 105.5,-34.96 114.92,-39.81 115.88,-32.88"/>
</a>
</g>
</g>
<!-- Node2 -->
<g id="Node000002" class="node">
<title>Node2</title>
<g id="a_Node000002"><a xlink:href="d0/d70/class_file_system_scanner.html" target="_top" xlink:title=" ">
<polygon fill="white" stroke="#666666" points="240.5,-19.25 139.75,-19.25 139.75,0 240.5,0 240.5,-19.25"/>
<text text-anchor="middle" x="190.12" y="-5.75" font-family="Helvetica,sans-Serif" font-size="10.00">FileSystemScanner</text>
</a>
</g>
</g>
<!-- Node0&#45;&gt;Node2 -->
<g id="edge119_Node000000_Node000002" class="edge">
<title>Node0&#45;&gt;Node2</title>
<g id="a_edge119_Node000000_Node000002"><a xlink:title=" ">
<path fill="none" stroke="#63b8ff" d="M115.34,-19.37C123.45,-18.3 131.66,-17.22 139.52,-16.18"/>
<polygon fill="#63b8ff" stroke="#63b8ff" points="114.95,-15.89 105.5,-20.67 115.87,-22.83 114.95,-15.89"/>
</a>
</g>
</g>
</g>
</svg>
