<?xml version="1.0" encoding="UTF-8" standalone="no"?>
<!DOCTYPE svg PUBLIC "-//W3C//DTD SVG 1.1//EN"
 "http://www.w3.org/Graphics/SVG/1.1/DTD/svg11.dtd">
<!-- Generated by graphviz version 7.0.5 (20221223.1930)
 -->
<!-- Title: Graphical Class Hierarchy Pages: 1 -->
<svg width="419pt" height="508pt"
 viewBox="0.00 0.00 419.00 508.00" xmlns="http://www.w3.org/2000/svg" xmlns:xlink="http://www.w3.org/1999/xlink">
<g id="graph0" class="graph" transform="scale(1 1) rotate(0) translate(4 504)">
<title>Graphical Class Hierarchy</title>
<!-- Node0 -->
<g id="node1" class="node">
<title>Node0</title>
<g id="a_node1"><a xlink:title=" ">
<polygon fill="#e0e0e0" stroke="#999999" points="70,-185 0,-185 0,-166 70,-166 70,-185"/>
<text text-anchor="middle" x="35" y="-173" font-family="Helvetica,sans-Serif" font-size="10.00">testing::Test</text>
</a>
</g>
</g>
<!-- Node1 -->
<g id="node2" class="node">
<title>Node1</title>
<g id="a_node2"><a xlink:href="d4/d7c/class_a_photo_data_model_test.html" target="_top" xlink:title=" ">
<polygon fill="white" stroke="#666666" points="243,-352 106,-352 106,-333 243,-333 243,-352"/>
<text text-anchor="middle" x="174.5" y="-340" font-family="Helvetica,sans-Serif" font-size="10.00">APhotoDataModelTest&lt; T &gt;</text>
</a>
</g>
</g>
<!-- Node0&#45;&gt;Node1 -->
<g id="edge1" class="edge">
<title>Node0&#45;&gt;Node1</title>
<path fill="none" stroke="#63b8ff" d="M39.96,-196.42C47.21,-228.81 65.73,-290.85 106,-324.5 109.91,-327.77 114.35,-330.45 119.05,-332.64"/>
<polygon fill="#63b8ff" stroke="#63b8ff" points="43.41,-195.8 37.96,-186.71 36.55,-197.21 43.41,-195.8"/>
</g>
<!-- Node2 -->
<g id="node3" class="node">
<title>Node2</title>
<g id="a_node3"><a xlink:href="d3/dd3/struct_database_test.html" target="_top" xlink:title=" ">
<polygon fill="white" stroke="#666666" points="224.5,-315 124.5,-315 124.5,-296 224.5,-296 224.5,-315"/>
<text text-anchor="middle" x="174.5" y="-303" font-family="Helvetica,sans-Serif" font-size="10.00">DatabaseTest&lt; T &gt;</text>
</a>
</g>
</g>
<!-- Node0&#45;&gt;Node2 -->
<g id="edge2" class="edge">
<title>Node0&#45;&gt;Node2</title>
<path fill="none" stroke="#63b8ff" d="M43.3,-195.9C53.43,-221.24 74.16,-263.97 106,-287.5 111.46,-291.54 117.76,-294.67 124.28,-297.1"/>
<polygon fill="#63b8ff" stroke="#63b8ff" points="46.65,-194.84 39.83,-186.74 40.1,-197.33 46.65,-194.84"/>
</g>
<!-- Node14 -->
<g id="node15" class="node">
<title>Node14</title>
<g id="a_node15"><a xlink:href="d9/d98/class_face_scaling_test.html" target="_top" xlink:title=" ">
<polygon fill="white" stroke="#666666" points="219.5,-278 129.5,-278 129.5,-259 219.5,-259 219.5,-278"/>
<text text-anchor="middle" x="174.5" y="-266" font-family="Helvetica,sans-Serif" font-size="10.00">FaceScalingTest</text>
</a>
</g>
</g>
<!-- Node0&#45;&gt;Node14 -->
<g id="edge14" class="edge">
<title>Node0&#45;&gt;Node14</title>
<path fill="none" stroke="#63b8ff" d="M48.92,-194.52C61.53,-211.65 82.25,-236.26 106,-250.5 113.07,-254.74 121.15,-258 129.2,-260.5"/>
<polygon fill="#63b8ff" stroke="#63b8ff" points="51.99,-192.8 43.34,-186.67 46.28,-196.85 51.99,-192.8"/>
</g>
<!-- Node15 -->
<g id="node16" class="node">
<title>Node15</title>
<g id="a_node16"><a xlink:href="d6/d32/class_flat_model_test.html" target="_top" xlink:title=" ">
<polygon fill="white" stroke="#666666" points="214,-241 135,-241 135,-222 214,-222 214,-241"/>
<text text-anchor="middle" x="174.5" y="-229" font-family="Helvetica,sans-Serif" font-size="10.00">FlatModelTest</text>
</a>
</g>
</g>
<!-- Node0&#45;&gt;Node15 -->
<g id="edge15" class="edge">
<title>Node0&#45;&gt;Node15</title>
<path fill="none" stroke="#63b8ff" d="M61.24,-191.09C74.26,-198.64 90.59,-207.36 106,-213.5 115.13,-217.13 125.24,-220.27 134.79,-222.86"/>
<polygon fill="#63b8ff" stroke="#63b8ff" points="63.29,-188.24 52.9,-186.14 59.72,-194.26 63.29,-188.24"/>
</g>
<!-- Node16 -->
<g id="node17" class="node">
<title>Node16</title>
<g id="a_node17"><a xlink:href="df/d12/class_memory_backend_test.html" target="_top" xlink:title=" ">
<polygon fill="white" stroke="#666666" points="229,-204 120,-204 120,-185 229,-185 229,-204"/>
<text text-anchor="middle" x="174.5" y="-192" font-family="Helvetica,sans-Serif" font-size="10.00">MemoryBackendTest</text>
</a>
</g>
</g>
<!-- Node0&#45;&gt;Node16 -->
<g id="edge16" class="edge">
<title>Node0&#45;&gt;Node16</title>
<path fill="none" stroke="#63b8ff" d="M81.6,-181.8C93.75,-183.48 107,-185.31 119.55,-187.05"/>
<polygon fill="#63b8ff" stroke="#63b8ff" points="82.23,-178.35 71.84,-180.45 81.27,-185.29 82.23,-178.35"/>
</g>
<!-- Node17 -->
<g id="node18" class="node">
<title>Node17</title>
<g id="a_node18"><a xlink:href="da/dc7/struct_model_index_utils_test.html" target="_top" xlink:title=" ">
<polygon fill="white" stroke="#666666" points="227.5,-167 121.5,-167 121.5,-148 227.5,-148 227.5,-167"/>
<text text-anchor="middle" x="174.5" y="-155" font-family="Helvetica,sans-Serif" font-size="10.00">ModelIndexUtilsTest</text>
</a>
</g>
</g>
<!-- Node0&#45;&gt;Node17 -->
<g id="edge17" class="edge">
<title>Node0&#45;&gt;Node17</title>
<path fill="none" stroke="#63b8ff" d="M81.59,-169.53C94.26,-167.87 108.12,-166.06 121.14,-164.35"/>
<polygon fill="#63b8ff" stroke="#63b8ff" points="81.3,-166.04 71.84,-170.81 82.21,-172.98 81.3,-166.04"/>
</g>
<!-- Node18 -->
<g id="node19" class="node">
<title>Node18</title>
<g id="a_node19"><a xlink:href="d5/d48/struct_q_model_index_selector_test.html" target="_top" xlink:title=" ">
<polygon fill="white" stroke="#666666" points="239,-130 110,-130 110,-111 239,-111 239,-130"/>
<text text-anchor="middle" x="174.5" y="-118" font-family="Helvetica,sans-Serif" font-size="10.00">QModelIndexSelectorTest</text>
</a>
</g>
</g>
<!-- Node0&#45;&gt;Node18 -->
<g id="edge18" class="edge">
<title>Node0&#45;&gt;Node18</title>
<path fill="none" stroke="#63b8ff" d="M61.81,-160.06C74.75,-152.79 90.85,-144.44 106,-138.5 113.68,-135.49 122.04,-132.81 130.18,-130.5"/>
<polygon fill="#63b8ff" stroke="#63b8ff" points="60.43,-156.82 53.5,-164.84 63.92,-162.89 60.43,-156.82"/>
</g>
<!-- Node19 -->
<g id="node20" class="node">
<title>Node19</title>
<g id="a_node20"><a xlink:href="dc/df7/class_series_detector_test.html" target="_top" xlink:title=" ">
<polygon fill="white" stroke="#666666" points="225,-93 124,-93 124,-74 225,-74 225,-93"/>
<text text-anchor="middle" x="174.5" y="-81" font-family="Helvetica,sans-Serif" font-size="10.00">SeriesDetectorTest</text>
</a>
</g>
</g>
<!-- Node0&#45;&gt;Node19 -->
<g id="edge19" class="edge">
<title>Node0&#45;&gt;Node19</title>
<path fill="none" stroke="#63b8ff" d="M48.97,-156.74C61.62,-139.84 82.37,-115.56 106,-101.5 111.42,-98.27 117.42,-95.62 123.55,-93.43"/>
<polygon fill="#63b8ff" stroke="#63b8ff" points="46.4,-154.32 43.39,-164.47 52.08,-158.42 46.4,-154.32"/>
</g>
<!-- Node20 -->
<g id="node21" class="node">
<title>Node20</title>
<g id="a_node21"><a xlink:href="d9/d83/class_tag_info_collector_test.html" target="_top" xlink:title=" ">
<polygon fill="white" stroke="#666666" points="228,-56 121,-56 121,-37 228,-37 228,-56"/>
<text text-anchor="middle" x="174.5" y="-44" font-family="Helvetica,sans-Serif" font-size="10.00">TagInfoCollectorTest</text>
</a>
</g>
</g>
<!-- Node0&#45;&gt;Node20 -->
<g id="edge20" class="edge">
<title>Node0&#45;&gt;Node20</title>
<path fill="none" stroke="#63b8ff" d="M43.35,-155.28C53.53,-130.17 74.32,-87.81 106,-64.5 110.49,-61.19 115.55,-58.49 120.83,-56.29"/>
<polygon fill="#63b8ff" stroke="#63b8ff" points="40.19,-153.76 39.86,-164.35 46.72,-156.28 40.19,-153.76"/>
</g>
<!-- Node21 -->
<g id="node22" class="node">
<title>Node21</title>
<g id="a_node22"><a xlink:href="de/da7/class_thumbnail_manager_test.html" target="_top" xlink:title=" ">
<polygon fill="white" stroke="#666666" points="234,-19 115,-19 115,0 234,0 234,-19"/>
<text text-anchor="middle" x="174.5" y="-7" font-family="Helvetica,sans-Serif" font-size="10.00">ThumbnailManagerTest</text>
</a>
</g>
</g>
<!-- Node0&#45;&gt;Node21 -->
<g id="edge21" class="edge">
<title>Node0&#45;&gt;Node21</title>
<path fill="none" stroke="#63b8ff" d="M40.01,-154.71C47.32,-122.54 65.91,-60.92 106,-27.5 109.91,-24.24 114.36,-21.56 119.06,-19.37"/>
<polygon fill="#63b8ff" stroke="#63b8ff" points="36.61,-153.85 37.98,-164.35 43.46,-155.29 36.61,-153.85"/>
</g>
<!-- Node3 -->
<g id="node4" class="node">
<title>Node3</title>
<g id="a_node4"><a xlink:href="d6/d38/struct_filters_test.html" target="_top" xlink:title=" ">
<polygon fill="white" stroke="#666666" points="388,-500 302,-500 302,-481 388,-481 388,-500"/>
<text text-anchor="middle" x="345" y="-488" font-family="Helvetica,sans-Serif" font-size="10.00">FiltersTest&lt; T &gt;</text>
</a>
</g>
</g>
<!-- Node2&#45;&gt;Node3 -->
<g id="edge3" class="edge">
<title>Node2&#45;&gt;Node3</title>
<path fill="none" stroke="#63b8ff" d="M234.8,-317.82C237.77,-319.74 240.54,-321.95 243,-324.5 290,-373.22 231.89,-423.88 279,-472.5 285.11,-478.81 293.22,-482.96 301.63,-485.69"/>
<polygon fill="#63b8ff" stroke="#63b8ff" points="236.53,-314.78 226.04,-313.31 233.33,-321 236.53,-314.78"/>
</g>
<!-- Node4 -->
<g id="node5" class="node">
<title>Node4</title>
<g id="a_node5"><a xlink:href="d1/d52/struct_general_flags_test.html" target="_top" xlink:title=" ">
<polygon fill="white" stroke="#666666" points="403,-463 287,-463 287,-444 403,-444 403,-463"/>
<text text-anchor="middle" x="345" y="-451" font-family="Helvetica,sans-Serif" font-size="10.00">GeneralFlagsTest&lt; T &gt;</text>
</a>
</g>
</g>
<!-- Node2&#45;&gt;Node4 -->
<g id="edge4" class="edge">
<title>Node2&#45;&gt;Node4</title>
<path fill="none" stroke="#63b8ff" d="M234.73,-318.13C237.7,-319.98 240.49,-322.09 243,-324.5 280.39,-360.45 241.54,-399.63 279,-435.5 282.38,-438.74 286.3,-441.41 290.49,-443.6"/>
<polygon fill="#63b8ff" stroke="#63b8ff" points="236.56,-315.14 226.05,-313.77 233.41,-321.39 236.56,-315.14"/>
</g>
<!-- Node5 -->
<g id="node6" class="node">
<title>Node5</title>
<g id="a_node6"><a xlink:href="d5/d67/struct_groups_test.html" target="_top" xlink:title=" ">
<polygon fill="white" stroke="#666666" points="390,-426 300,-426 300,-407 390,-407 390,-426"/>
<text text-anchor="middle" x="345" y="-414" font-family="Helvetica,sans-Serif" font-size="10.00">GroupsTest&lt; T &gt;</text>
</a>
</g>
</g>
<!-- Node2&#45;&gt;Node5 -->
<g id="edge5" class="edge">
<title>Node2&#45;&gt;Node5</title>
<path fill="none" stroke="#63b8ff" d="M234.94,-318.9C237.79,-320.56 240.5,-322.41 243,-324.5 271.06,-347.96 250.89,-375.1 279,-398.5 284.94,-403.44 292.14,-407.03 299.55,-409.64"/>
<polygon fill="#63b8ff" stroke="#63b8ff" points="236.69,-315.86 226.16,-314.68 233.66,-322.17 236.69,-315.86"/>
</g>
<!-- Node6 -->
<g id="node7" class="node">
<title>Node6</title>
<g id="a_node7"><a xlink:href="dc/d84/struct_p_hash_test.html" target="_top" xlink:title=" ">
<polygon fill="white" stroke="#666666" points="389.5,-389 300.5,-389 300.5,-370 389.5,-370 389.5,-389"/>
<text text-anchor="middle" x="345" y="-377" font-family="Helvetica,sans-Serif" font-size="10.00">PHashTest&lt; T &gt;</text>
</a>
</g>
</g>
<!-- Node2&#45;&gt;Node6 -->
<g id="edge6" class="edge">
<title>Node2&#45;&gt;Node6</title>
<path fill="none" stroke="#63b8ff" d="M233.59,-319.63C236.85,-321.1 240.01,-322.72 243,-324.5 262.72,-336.23 259.26,-349.81 279,-361.5 285.45,-365.32 292.73,-368.35 300.04,-370.76"/>
<polygon fill="#63b8ff" stroke="#63b8ff" points="234.92,-316.4 224.34,-315.97 232.35,-322.9 234.92,-316.4"/>
</g>
<!-- Node7 -->
<g id="node8" class="node">
<title>Node7</title>
<g id="a_node8"><a xlink:href="d7/d34/struct_people_test.html" target="_top" xlink:title=" ">
<polygon fill="white" stroke="#666666" points="389.5,-352 300.5,-352 300.5,-333 389.5,-333 389.5,-352"/>
<text text-anchor="middle" x="345" y="-340" font-family="Helvetica,sans-Serif" font-size="10.00">PeopleTest&lt; T &gt;</text>
</a>
</g>
</g>
<!-- Node2&#45;&gt;Node7 -->
<g id="edge7" class="edge">
<title>Node2&#45;&gt;Node7</title>
<path fill="none" stroke="#63b8ff" d="M231.67,-317.83C253.98,-322.73 279.26,-328.28 300.18,-332.88"/>
<polygon fill="#63b8ff" stroke="#63b8ff" points="232.65,-314.47 222.13,-315.74 231.15,-321.3 232.65,-314.47"/>
</g>
<!-- Node8 -->
<g id="node9" class="node">
<title>Node8</title>
<g id="a_node9"><a xlink:href="de/dfc/struct_photo_operator_test.html" target="_top" xlink:title=" ">
<polygon fill="white" stroke="#666666" points="406,-315 284,-315 284,-296 406,-296 406,-315"/>
<text text-anchor="middle" x="345" y="-303" font-family="Helvetica,sans-Serif" font-size="10.00">PhotoOperatorTest&lt; T &gt;</text>
</a>
</g>
</g>
<!-- Node2&#45;&gt;Node8 -->
<g id="edge8" class="edge">
<title>Node2&#45;&gt;Node8</title>
<path fill="none" stroke="#63b8ff" d="M235.78,-305.5C251.35,-305.5 268.11,-305.5 283.69,-305.5"/>
<polygon fill="#63b8ff" stroke="#63b8ff" points="236.2,-302 226.2,-305.5 236.2,-309 236.2,-302"/>
</g>
<!-- Node9 -->
<g id="node10" class="node">
<title>Node9</title>
<g id="a_node10"><a xlink:href="d2/d34/struct_photos_change_log.html" target="_top" xlink:title=" ">
<polygon fill="white" stroke="#666666" points="404.5,-278 285.5,-278 285.5,-259 404.5,-259 404.5,-278"/>
<text text-anchor="middle" x="345" y="-266" font-family="Helvetica,sans-Serif" font-size="10.00">PhotosChangeLog&lt; T &gt;</text>
</a>
</g>
</g>
<!-- Node2&#45;&gt;Node9 -->
<g id="edge9" class="edge">
<title>Node2&#45;&gt;Node9</title>
<path fill="none" stroke="#63b8ff" d="M231.75,-293.15C253.53,-288.37 278.12,-282.97 298.72,-278.44"/>
<polygon fill="#63b8ff" stroke="#63b8ff" points="231.15,-289.7 222.13,-295.26 232.65,-296.53 231.15,-289.7"/>
</g>
<!-- Node10 -->
<g id="node11" class="node">
<title>Node10</title>
<g id="a_node11"><a xlink:href="d0/dca/struct_photos_test.html" target="_top" xlink:title=" ">
<polygon fill="white" stroke="#666666" points="389.5,-241 300.5,-241 300.5,-222 389.5,-222 389.5,-241"/>
<text text-anchor="middle" x="345" y="-229" font-family="Helvetica,sans-Serif" font-size="10.00">PhotosTest&lt; T &gt;</text>
</a>
</g>
</g>
<!-- Node2&#45;&gt;Node10 -->
<g id="edge10" class="edge">
<title>Node2&#45;&gt;Node10</title>
<path fill="none" stroke="#63b8ff" d="M235.27,-291.51C237.94,-290.28 240.53,-288.95 243,-287.5 262.8,-275.9 259.34,-262.33 279,-250.5 285.45,-246.62 292.73,-243.49 300.04,-240.98"/>
<polygon fill="#63b8ff" stroke="#63b8ff" points="234.09,-288.22 226.11,-295.18 236.69,-294.71 234.09,-288.22"/>
</g>
<!-- Node11 -->
<g id="node12" class="node">
<title>Node11</title>
<g id="a_node12"><a xlink:href="d0/d60/struct_tags_test.html" target="_top" xlink:title=" ">
<polygon fill="white" stroke="#666666" points="385,-204 305,-204 305,-185 385,-185 385,-204"/>
<text text-anchor="middle" x="345" y="-192" font-family="Helvetica,sans-Serif" font-size="10.00">TagsTest&lt; T &gt;</text>
</a>
</g>
</g>
<!-- Node2&#45;&gt;Node11 -->
<g id="edge11" class="edge">
<title>Node2&#45;&gt;Node11</title>
<path fill="none" stroke="#63b8ff" d="M234.93,-293.01C237.79,-291.39 240.5,-289.56 243,-287.5 271.22,-264.24 251.05,-237.1 279,-213.5 286.28,-207.36 295.46,-203.2 304.6,-200.38"/>
<polygon fill="#63b8ff" stroke="#63b8ff" points="233.73,-289.7 226.15,-297.11 236.69,-296.05 233.73,-289.7"/>
</g>
<!-- Node12 -->
<g id="node13" class="node">
<title>Node12</title>
<g id="a_node13"><a xlink:href="df/dca/struct_thumbnails_test.html" target="_top" xlink:title=" ">
<polygon fill="white" stroke="#666666" points="399.5,-167 290.5,-167 290.5,-148 399.5,-148 399.5,-167"/>
<text text-anchor="middle" x="345" y="-155" font-family="Helvetica,sans-Serif" font-size="10.00">ThumbnailsTest&lt; T &gt;</text>
</a>
</g>
</g>
<!-- Node2&#45;&gt;Node12 -->
<g id="edge12" class="edge">
<title>Node2&#45;&gt;Node12</title>
<path fill="none" stroke="#63b8ff" d="M235,-293.59C237.87,-291.83 240.57,-289.81 243,-287.5 280.63,-251.81 241.8,-212.63 279,-176.5 282.8,-172.81 287.26,-169.84 292.05,-167.43"/>
<polygon fill="#63b8ff" stroke="#63b8ff" points="233.46,-290.45 226.03,-298.01 236.55,-296.73 233.46,-290.45"/>
</g>
<!-- Node13 -->
<g id="node14" class="node">
<title>Node13</title>
<g id="a_node14"><a xlink:href="de/d07/struct_transaction_accumulations_tests.html" target="_top" xlink:title=" ">
<polygon fill="white" stroke="#666666" points="411,-129.5 279,-129.5 279,-99.5 411,-99.5 411,-129.5"/>
<text text-anchor="start" x="287" y="-117.5" font-family="Helvetica,sans-Serif" font-size="10.00">TransactionAccumulations</text>
<text text-anchor="middle" x="345" y="-106.5" font-family="Helvetica,sans-Serif" font-size="10.00">Tests&lt; T &gt;</text>
</a>
</g>
</g>
<!-- Node2&#45;&gt;Node13 -->
<g id="edge13" class="edge">
<title>Node2&#45;&gt;Node13</title>
<path fill="none" stroke="#63b8ff" d="M234.78,-294.09C237.76,-292.2 240.54,-290.02 243,-287.5 290.6,-238.76 233.72,-189.4 279,-138.5 281.96,-135.17 285.42,-132.31 289.18,-129.84"/>
<polygon fill="#63b8ff" stroke="#63b8ff" points="233.4,-290.87 226.03,-298.48 236.53,-297.12 233.4,-290.87"/>
</g>
</g>
</svg>
