<?xml version="1.0" encoding="UTF-8" standalone="no"?>
<!DOCTYPE svg PUBLIC "-//W3C//DTD SVG 1.1//EN"
 "http://www.w3.org/Graphics/SVG/1.1/DTD/svg11.dtd">
<!-- Generated by graphviz version 12.2.0 (20241103.1931)
 -->
<!-- Title: Graphical Class Hierarchy Pages: 1 -->
<svg width="418pt" height="508pt"
 viewBox="0.00 0.00 417.50 508.25" xmlns="http://www.w3.org/2000/svg" xmlns:xlink="http://www.w3.org/1999/xlink">
<g id="graph0" class="graph" transform="scale(1 1) rotate(0) translate(4 504.25)">
<title>Graphical Class Hierarchy</title>
<!-- Node0 -->
<g id="Node000000" class="node">
<title>Node0</title>
<g id="a_Node000000"><a xlink:title=" ">
<polygon fill="#e0e0e0" stroke="#999999" points="69.25,-185.25 0,-185.25 0,-166 69.25,-166 69.25,-185.25"/>
<text text-anchor="middle" x="34.62" y="-171.75" font-family="Helvetica,sans-Serif" font-size="10.00">testing::Test</text>
</a>
</g>
</g>
<!-- Node1 -->
<g id="Node000001" class="node">
<title>Node1</title>
<g id="a_Node000001"><a xlink:href="d4/d7c/class_a_photo_data_model_test.html" target="_top" xlink:title=" ">
<polygon fill="white" stroke="#666666" points="242,-352.25 105.25,-352.25 105.25,-333 242,-333 242,-352.25"/>
<text text-anchor="middle" x="173.62" y="-338.75" font-family="Helvetica,sans-Serif" font-size="10.00">APhotoDataModelTest&lt; T &gt;</text>
</a>
</g>
</g>
<!-- Node0&#45;&gt;Node1 -->
<g id="edge183_Node000000_Node000001" class="edge">
<title>Node0&#45;&gt;Node1</title>
<g id="a_edge183_Node000000_Node000001"><a xlink:title=" ">
<path fill="none" stroke="#63b8ff" d="M39.64,-197.01C46.88,-229.52 65.25,-291.12 105.25,-324.62 109.06,-327.81 113.37,-330.44 117.93,-332.61"/>
<polygon fill="#63b8ff" stroke="#63b8ff" points="43.07,-196.31 37.63,-187.22 36.21,-197.72 43.07,-196.31"/>
</a>
</g>
</g>
<!-- Node2 -->
<g id="Node000002" class="node">
<title>Node2</title>
<g id="a_Node000002"><a xlink:href="d3/dd3/struct_database_test.html" target="_top" xlink:title=" ">
<polygon fill="white" stroke="#666666" points="223.25,-315.25 124,-315.25 124,-296 223.25,-296 223.25,-315.25"/>
<text text-anchor="middle" x="173.62" y="-301.75" font-family="Helvetica,sans-Serif" font-size="10.00">DatabaseTest&lt; T &gt;</text>
</a>
</g>
</g>
<!-- Node0&#45;&gt;Node2 -->
<g id="edge184_Node000000_Node000002" class="edge">
<title>Node0&#45;&gt;Node2</title>
<g id="a_edge184_Node000000_Node000002"><a xlink:title=" ">
<path fill="none" stroke="#63b8ff" d="M42.86,-196.02C52.9,-221.35 73.49,-264.09 105.25,-287.62 110.79,-291.73 117.21,-294.91 123.83,-297.35"/>
<polygon fill="#63b8ff" stroke="#63b8ff" points="46.21,-194.99 39.41,-186.86 39.66,-197.45 46.21,-194.99"/>
</a>
</g>
</g>
<!-- Node14 -->
<g id="Node000014" class="node">
<title>Node14</title>
<g id="a_Node000014"><a xlink:href="d9/d98/class_face_scaling_test.html" target="_top" xlink:title=" ">
<polygon fill="white" stroke="#666666" points="218.38,-278.25 128.88,-278.25 128.88,-259 218.38,-259 218.38,-278.25"/>
<text text-anchor="middle" x="173.62" y="-264.75" font-family="Helvetica,sans-Serif" font-size="10.00">FaceScalingTest</text>
</a>
</g>
</g>
<!-- Node0&#45;&gt;Node14 -->
<g id="edge196_Node000000_Node000014" class="edge">
<title>Node0&#45;&gt;Node14</title>
<g id="a_edge196_Node000000_Node000014"><a xlink:title=" ">
<path fill="none" stroke="#63b8ff" d="M48.45,-194.64C60.98,-211.77 81.58,-236.38 105.25,-250.62 112.3,-254.87 120.36,-258.13 128.4,-260.63"/>
<polygon fill="#63b8ff" stroke="#63b8ff" points="51.54,-192.95 42.92,-186.8 45.82,-196.99 51.54,-192.95"/>
</a>
</g>
</g>
<!-- Node15 -->
<g id="Node000015" class="node">
<title>Node15</title>
<g id="a_Node000015"><a xlink:href="d6/d32/class_flat_model_test.html" target="_top" xlink:title=" ">
<polygon fill="white" stroke="#666666" points="212.75,-241.25 134.5,-241.25 134.5,-222 212.75,-222 212.75,-241.25"/>
<text text-anchor="middle" x="173.62" y="-227.75" font-family="Helvetica,sans-Serif" font-size="10.00">FlatModelTest</text>
</a>
</g>
</g>
<!-- Node0&#45;&gt;Node15 -->
<g id="edge197_Node000000_Node000015" class="edge">
<title>Node0&#45;&gt;Node15</title>
<g id="a_edge197_Node000000_Node000015"><a xlink:title=" ">
<path fill="none" stroke="#63b8ff" d="M60.98,-191.37C73.88,-198.88 90.01,-207.53 105.25,-213.62 114.47,-217.31 124.69,-220.48 134.34,-223.09"/>
<polygon fill="#63b8ff" stroke="#63b8ff" points="63.09,-188.55 52.71,-186.44 59.51,-194.57 63.09,-188.55"/>
</a>
</g>
</g>
<!-- Node16 -->
<g id="Node000016" class="node">
<title>Node16</title>
<g id="a_Node000016"><a xlink:href="df/d12/class_memory_backend_test.html" target="_top" xlink:title=" ">
<polygon fill="white" stroke="#666666" points="227.75,-204.25 119.5,-204.25 119.5,-185 227.75,-185 227.75,-204.25"/>
<text text-anchor="middle" x="173.62" y="-190.75" font-family="Helvetica,sans-Serif" font-size="10.00">MemoryBackendTest</text>
</a>
</g>
</g>
<!-- Node0&#45;&gt;Node16 -->
<g id="edge198_Node000000_Node000016" class="edge">
<title>Node0&#45;&gt;Node16</title>
<g id="a_edge198_Node000000_Node000016"><a xlink:title=" ">
<path fill="none" stroke="#63b8ff" d="M80.84,-181.9C93.1,-183.6 106.49,-185.45 119.16,-187.21"/>
<polygon fill="#63b8ff" stroke="#63b8ff" points="81.38,-178.44 70.99,-180.53 80.41,-185.37 81.38,-178.44"/>
</a>
</g>
</g>
<!-- Node17 -->
<g id="Node000017" class="node">
<title>Node17</title>
<g id="a_Node000017"><a xlink:href="da/dc7/struct_model_index_utils_test.html" target="_top" xlink:title=" ">
<polygon fill="white" stroke="#666666" points="226.25,-167.25 121,-167.25 121,-148 226.25,-148 226.25,-167.25"/>
<text text-anchor="middle" x="173.62" y="-153.75" font-family="Helvetica,sans-Serif" font-size="10.00">ModelIndexUtilsTest</text>
</a>
</g>
</g>
<!-- Node0&#45;&gt;Node17 -->
<g id="edge199_Node000000_Node000017" class="edge">
<title>Node0&#45;&gt;Node17</title>
<g id="a_edge199_Node000000_Node000017"><a xlink:title=" ">
<path fill="none" stroke="#63b8ff" d="M80.82,-169.69C93.6,-168.01 107.61,-166.17 120.74,-164.44"/>
<polygon fill="#63b8ff" stroke="#63b8ff" points="80.45,-166.21 70.99,-170.98 81.36,-173.15 80.45,-166.21"/>
</a>
</g>
</g>
<!-- Node18 -->
<g id="Node000018" class="node">
<title>Node18</title>
<g id="a_Node000018"><a xlink:href="d5/d48/struct_q_model_index_selector_test.html" target="_top" xlink:title=" ">
<polygon fill="white" stroke="#666666" points="237.88,-130.25 109.38,-130.25 109.38,-111 237.88,-111 237.88,-130.25"/>
<text text-anchor="middle" x="173.62" y="-116.75" font-family="Helvetica,sans-Serif" font-size="10.00">QModelIndexSelectorTest</text>
</a>
</g>
</g>
<!-- Node0&#45;&gt;Node18 -->
<g id="edge200_Node000000_Node000018" class="edge">
<title>Node0&#45;&gt;Node18</title>
<g id="a_edge200_Node000000_Node000018"><a xlink:title=" ">
<path fill="none" stroke="#63b8ff" d="M61.93,-159.82C74.68,-152.64 90.42,-144.46 105.25,-138.62 112.8,-135.66 121.01,-133.01 129.02,-130.72"/>
<polygon fill="#63b8ff" stroke="#63b8ff" points="60.22,-156.76 53.31,-164.79 63.72,-162.83 60.22,-156.76"/>
</a>
</g>
</g>
<!-- Node19 -->
<g id="Node000019" class="node">
<title>Node19</title>
<g id="a_Node000019"><a xlink:href="dc/df7/class_series_detector_test.html" target="_top" xlink:title=" ">
<polygon fill="white" stroke="#666666" points="223.62,-93.25 123.62,-93.25 123.62,-74 223.62,-74 223.62,-93.25"/>
<text text-anchor="middle" x="173.62" y="-79.75" font-family="Helvetica,sans-Serif" font-size="10.00">SeriesDetectorTest</text>
</a>
</g>
</g>
<!-- Node0&#45;&gt;Node19 -->
<g id="edge201_Node000000_Node000019" class="edge">
<title>Node0&#45;&gt;Node19</title>
<g id="a_edge201_Node000000_Node000019"><a xlink:title=" ">
<path fill="none" stroke="#63b8ff" d="M48.71,-156.59C61.3,-139.71 81.83,-115.61 105.25,-101.62 110.86,-98.27 117.11,-95.53 123.46,-93.3"/>
<polygon fill="#63b8ff" stroke="#63b8ff" points="46.14,-154.18 43.14,-164.34 51.82,-158.26 46.14,-154.18"/>
</a>
</g>
</g>
<!-- Node20 -->
<g id="Node000020" class="node">
<title>Node20</title>
<g id="a_Node000020"><a xlink:href="d9/d83/class_tag_info_collector_test.html" target="_top" xlink:title=" ">
<polygon fill="white" stroke="#666666" points="227,-56.25 120.25,-56.25 120.25,-37 227,-37 227,-56.25"/>
<text text-anchor="middle" x="173.62" y="-42.75" font-family="Helvetica,sans-Serif" font-size="10.00">TagInfoCollectorTest</text>
</a>
</g>
</g>
<!-- Node0&#45;&gt;Node20 -->
<g id="edge202_Node000000_Node000020" class="edge">
<title>Node0&#45;&gt;Node20</title>
<g id="a_edge202_Node000000_Node000020"><a xlink:title=" ">
<path fill="none" stroke="#63b8ff" d="M43.06,-155.03C53.21,-129.88 73.81,-87.83 105.25,-64.62 109.73,-61.32 114.78,-58.62 120.04,-56.41"/>
<polygon fill="#63b8ff" stroke="#63b8ff" points="39.88,-153.56 39.57,-164.15 46.41,-156.07 39.88,-153.56"/>
</a>
</g>
</g>
<!-- Node21 -->
<g id="Node000021" class="node">
<title>Node21</title>
<g id="a_Node000021"><a xlink:href="de/da7/class_thumbnail_manager_test.html" target="_top" xlink:title=" ">
<polygon fill="white" stroke="#666666" points="232.62,-19.25 114.62,-19.25 114.62,0 232.62,0 232.62,-19.25"/>
<text text-anchor="middle" x="173.62" y="-5.75" font-family="Helvetica,sans-Serif" font-size="10.00">ThumbnailManagerTest</text>
</a>
</g>
</g>
<!-- Node0&#45;&gt;Node21 -->
<g id="edge203_Node000000_Node000021" class="edge">
<title>Node0&#45;&gt;Node21</title>
<g id="a_edge203_Node000000_Node000021"><a xlink:title=" ">
<path fill="none" stroke="#63b8ff" d="M39.68,-154.38C46.98,-122.08 65.43,-60.9 105.25,-27.62 109.06,-24.44 113.38,-21.82 117.94,-19.65"/>
<polygon fill="#63b8ff" stroke="#63b8ff" points="36.27,-153.59 37.65,-164.1 43.12,-155.02 36.27,-153.59"/>
</a>
</g>
</g>
<!-- Node3 -->
<g id="Node000003" class="node">
<title>Node3</title>
<g id="a_Node000003"><a xlink:href="d6/d38/struct_filters_test.html" target="_top" xlink:title=" ">
<polygon fill="white" stroke="#666666" points="386.25,-500.25 301.25,-500.25 301.25,-481 386.25,-481 386.25,-500.25"/>
<text text-anchor="middle" x="343.75" y="-486.75" font-family="Helvetica,sans-Serif" font-size="10.00">FiltersTest&lt; T &gt;</text>
</a>
</g>
</g>
<!-- Node2&#45;&gt;Node3 -->
<g id="edge185_Node000002_Node000003" class="edge">
<title>Node2&#45;&gt;Node3</title>
<g id="a_edge185_Node000002_Node000003"><a xlink:title=" ">
<path fill="none" stroke="#63b8ff" d="M233.8,-317.05C236.77,-318.93 239.54,-321.11 242,-323.62 289.59,-372.37 230.65,-423.64 278,-472.62 284.16,-479 292.37,-483.18 300.87,-485.9"/>
<polygon fill="#63b8ff" stroke="#63b8ff" points="235.57,-314.02 225.06,-312.66 232.43,-320.27 235.57,-314.02"/>
</a>
</g>
</g>
<!-- Node4 -->
<g id="Node000004" class="node">
<title>Node4</title>
<g id="a_Node000004"><a xlink:href="d1/d52/struct_general_flags_test.html" target="_top" xlink:title=" ">
<polygon fill="white" stroke="#666666" points="401.62,-463.25 285.88,-463.25 285.88,-444 401.62,-444 401.62,-463.25"/>
<text text-anchor="middle" x="343.75" y="-449.75" font-family="Helvetica,sans-Serif" font-size="10.00">GeneralFlagsTest&lt; T &gt;</text>
</a>
</g>
</g>
<!-- Node2&#45;&gt;Node4 -->
<g id="edge186_Node000002_Node000004" class="edge">
<title>Node2&#45;&gt;Node4</title>
<g id="a_edge186_Node000002_Node000004"><a xlink:title=" ">
<path fill="none" stroke="#63b8ff" d="M234.02,-317.53C236.89,-319.3 239.57,-321.32 242,-323.62 279.88,-359.66 240.3,-399.4 278,-435.62 281.28,-438.78 285.07,-441.39 289.12,-443.55"/>
<polygon fill="#63b8ff" stroke="#63b8ff" points="235.59,-314.4 225.08,-313.12 232.5,-320.68 235.59,-314.4"/>
</a>
</g>
</g>
<!-- Node5 -->
<g id="Node000005" class="node">
<title>Node5</title>
<g id="a_Node000005"><a xlink:href="d5/d67/struct_groups_test.html" target="_top" xlink:title=" ">
<polygon fill="white" stroke="#666666" points="388.5,-426.25 299,-426.25 299,-407 388.5,-407 388.5,-426.25"/>
<text text-anchor="middle" x="343.75" y="-412.75" font-family="Helvetica,sans-Serif" font-size="10.00">GroupsTest&lt; T &gt;</text>
</a>
</g>
</g>
<!-- Node2&#45;&gt;Node5 -->
<g id="edge187_Node000002_Node000005" class="edge">
<title>Node2&#45;&gt;Node5</title>
<g id="a_edge187_Node000002_Node000005"><a xlink:title=" ">
<path fill="none" stroke="#63b8ff" d="M233.81,-318.02C236.71,-319.67 239.47,-321.52 242,-323.62 270.47,-347.22 249.65,-374.88 278,-398.62 283.99,-403.64 291.28,-407.27 298.78,-409.89"/>
<polygon fill="#63b8ff" stroke="#63b8ff" points="235.41,-314.91 224.86,-313.87 232.46,-321.26 235.41,-314.91"/>
</a>
</g>
</g>
<!-- Node6 -->
<g id="Node000006" class="node">
<title>Node6</title>
<g id="a_Node000006"><a xlink:href="dc/d84/struct_p_hash_test.html" target="_top" xlink:title=" ">
<polygon fill="white" stroke="#666666" points="387.75,-389.25 299.75,-389.25 299.75,-370 387.75,-370 387.75,-389.25"/>
<text text-anchor="middle" x="343.75" y="-375.75" font-family="Helvetica,sans-Serif" font-size="10.00">PHashTest&lt; T &gt;</text>
</a>
</g>
</g>
<!-- Node2&#45;&gt;Node6 -->
<g id="edge188_Node000002_Node000006" class="edge">
<title>Node2&#45;&gt;Node6</title>
<g id="a_edge188_Node000002_Node000006"><a xlink:title=" ">
<path fill="none" stroke="#63b8ff" d="M233.87,-319.38C236.68,-320.67 239.41,-322.08 242,-323.62 261.99,-335.52 258.07,-349.63 278,-361.62 284.5,-365.54 291.87,-368.62 299.25,-371.05"/>
<polygon fill="#63b8ff" stroke="#63b8ff" points="235.41,-316.22 224.83,-315.75 232.81,-322.72 235.41,-316.22"/>
</a>
</g>
</g>
<!-- Node7 -->
<g id="Node000007" class="node">
<title>Node7</title>
<g id="a_Node000007"><a xlink:href="d7/d34/struct_people_test.html" target="_top" xlink:title=" ">
<polygon fill="white" stroke="#666666" points="387.75,-352.25 299.75,-352.25 299.75,-333 387.75,-333 387.75,-352.25"/>
<text text-anchor="middle" x="343.75" y="-338.75" font-family="Helvetica,sans-Serif" font-size="10.00">PeopleTest&lt; T &gt;</text>
</a>
</g>
</g>
<!-- Node2&#45;&gt;Node7 -->
<g id="edge189_Node000002_Node000007" class="edge">
<title>Node2&#45;&gt;Node7</title>
<g id="a_edge189_Node000002_Node000007"><a xlink:title=" ">
<path fill="none" stroke="#63b8ff" d="M231.54,-318.15C253.75,-323.04 278.78,-328.55 299.47,-333.1"/>
<polygon fill="#63b8ff" stroke="#63b8ff" points="232.56,-314.79 222.04,-316.06 231.06,-321.63 232.56,-314.79"/>
</a>
</g>
</g>
<!-- Node8 -->
<g id="Node000008" class="node">
<title>Node8</title>
<g id="a_Node000008"><a xlink:href="de/dfc/struct_photo_operator_test.html" target="_top" xlink:title=" ">
<polygon fill="white" stroke="#666666" points="404.25,-315.25 283.25,-315.25 283.25,-296 404.25,-296 404.25,-315.25"/>
<text text-anchor="middle" x="343.75" y="-301.75" font-family="Helvetica,sans-Serif" font-size="10.00">PhotoOperatorTest&lt; T &gt;</text>
</a>
</g>
</g>
<!-- Node2&#45;&gt;Node8 -->
<g id="edge190_Node000002_Node000008" class="edge">
<title>Node2&#45;&gt;Node8</title>
<g id="a_edge190_Node000002_Node000008"><a xlink:title=" ">
<path fill="none" stroke="#63b8ff" d="M234.83,-305.62C250.45,-305.62 267.27,-305.62 282.88,-305.62"/>
<polygon fill="#63b8ff" stroke="#63b8ff" points="235.22,-302.13 225.22,-305.63 235.22,-309.13 235.22,-302.13"/>
</a>
</g>
</g>
<!-- Node9 -->
<g id="Node000009" class="node">
<title>Node9</title>
<g id="a_Node000009"><a xlink:href="d2/d34/struct_photos_change_log.html" target="_top" xlink:title=" ">
<polygon fill="white" stroke="#666666" points="403.12,-278.25 284.38,-278.25 284.38,-259 403.12,-259 403.12,-278.25"/>
<text text-anchor="middle" x="343.75" y="-264.75" font-family="Helvetica,sans-Serif" font-size="10.00">PhotosChangeLog&lt; T &gt;</text>
</a>
</g>
</g>
<!-- Node2&#45;&gt;Node9 -->
<g id="edge191_Node000002_Node000009" class="edge">
<title>Node2&#45;&gt;Node9</title>
<g id="a_edge191_Node000002_Node000009"><a xlink:title=" ">
<path fill="none" stroke="#63b8ff" d="M231.73,-293.06C252.96,-288.38 276.76,-283.15 296.86,-278.72"/>
<polygon fill="#63b8ff" stroke="#63b8ff" points="231.06,-289.62 222.04,-295.19 232.56,-296.46 231.06,-289.62"/>
</a>
</g>
</g>
<!-- Node10 -->
<g id="Node000010" class="node">
<title>Node10</title>
<g id="a_Node000010"><a xlink:href="d0/dca/struct_photos_test.html" target="_top" xlink:title=" ">
<polygon fill="white" stroke="#666666" points="388.12,-241.25 299.38,-241.25 299.38,-222 388.12,-222 388.12,-241.25"/>
<text text-anchor="middle" x="343.75" y="-227.75" font-family="Helvetica,sans-Serif" font-size="10.00">PhotosTest&lt; T &gt;</text>
</a>
</g>
</g>
<!-- Node2&#45;&gt;Node10 -->
<g id="edge192_Node000002_Node000010" class="edge">
<title>Node2&#45;&gt;Node10</title>
<g id="a_edge192_Node000002_Node000010"><a xlink:title=" ">
<path fill="none" stroke="#63b8ff" d="M233.87,-291.87C236.68,-290.58 239.41,-289.17 242,-287.62 261.99,-275.73 258.07,-261.62 278,-249.62 284.4,-245.77 291.64,-242.72 298.91,-240.31"/>
<polygon fill="#63b8ff" stroke="#63b8ff" points="232.81,-288.53 224.83,-295.5 235.41,-295.03 232.81,-288.53"/>
</a>
</g>
</g>
<!-- Node11 -->
<g id="Node000011" class="node">
<title>Node11</title>
<g id="a_Node000011"><a xlink:href="d0/d60/struct_tags_test.html" target="_top" xlink:title=" ">
<polygon fill="white" stroke="#666666" points="383.62,-204.25 303.88,-204.25 303.88,-185 383.62,-185 383.62,-204.25"/>
<text text-anchor="middle" x="343.75" y="-190.75" font-family="Helvetica,sans-Serif" font-size="10.00">TagsTest&lt; T &gt;</text>
</a>
</g>
</g>
<!-- Node2&#45;&gt;Node11 -->
<g id="edge193_Node000002_Node000011" class="edge">
<title>Node2&#45;&gt;Node11</title>
<g id="a_edge193_Node000002_Node000011"><a xlink:title=" ">
<path fill="none" stroke="#63b8ff" d="M233.81,-293.23C236.71,-291.58 239.47,-289.73 242,-287.62 270.47,-264.03 249.65,-236.37 278,-212.62 285.25,-206.56 294.39,-202.53 303.5,-199.85"/>
<polygon fill="#63b8ff" stroke="#63b8ff" points="232.46,-289.99 224.86,-297.38 235.41,-296.34 232.46,-289.99"/>
</a>
</g>
</g>
<!-- Node12 -->
<g id="Node000012" class="node">
<title>Node12</title>
<g id="a_Node000012"><a xlink:href="df/dca/struct_thumbnails_test.html" target="_top" xlink:title=" ">
<polygon fill="white" stroke="#666666" points="397.88,-167.25 289.62,-167.25 289.62,-148 397.88,-148 397.88,-167.25"/>
<text text-anchor="middle" x="343.75" y="-153.75" font-family="Helvetica,sans-Serif" font-size="10.00">ThumbnailsTest&lt; T &gt;</text>
</a>
</g>
</g>
<!-- Node2&#45;&gt;Node12 -->
<g id="edge194_Node000002_Node000012" class="edge">
<title>Node2&#45;&gt;Node12</title>
<g id="a_edge194_Node000002_Node000012"><a xlink:title=" ">
<path fill="none" stroke="#63b8ff" d="M234.02,-293.72C236.89,-291.95 239.57,-289.93 242,-287.62 279.88,-251.59 240.3,-211.85 278,-175.62 281.37,-172.39 285.26,-169.73 289.44,-167.54"/>
<polygon fill="#63b8ff" stroke="#63b8ff" points="232.5,-290.57 225.08,-298.13 235.59,-296.85 232.5,-290.57"/>
</a>
</g>
</g>
<!-- Node13 -->
<g id="Node000013" class="node">
<title>Node13</title>
<g id="a_Node000013"><a xlink:href="de/d07/struct_transaction_accumulations_tests.html" target="_top" xlink:title=" ">
<polygon fill="white" stroke="#666666" points="409.5,-129.88 278,-129.88 278,-99.38 409.5,-99.38 409.5,-129.88"/>
<text text-anchor="start" x="286" y="-116.38" font-family="Helvetica,sans-Serif" font-size="10.00">TransactionAccumulations</text>
<text text-anchor="middle" x="343.75" y="-105.12" font-family="Helvetica,sans-Serif" font-size="10.00">Tests&lt; T &gt;</text>
</a>
</g>
</g>
<!-- Node2&#45;&gt;Node13 -->
<g id="edge195_Node000002_Node000013" class="edge">
<title>Node2&#45;&gt;Node13</title>
<g id="a_edge195_Node000002_Node000013"><a xlink:title=" ">
<path fill="none" stroke="#63b8ff" d="M233.8,-294.2C236.77,-292.32 239.54,-290.14 242,-287.62 289.59,-238.88 232.75,-189.55 278,-138.62 280.87,-135.4 284.21,-132.61 287.83,-130.19"/>
<polygon fill="#63b8ff" stroke="#63b8ff" points="232.43,-290.98 225.06,-298.59 235.57,-297.23 232.43,-290.98"/>
</a>
</g>
</g>
</g>
</svg>
