<?xml version="1.0" encoding="UTF-8" standalone="no"?>
<!DOCTYPE svg PUBLIC "-//W3C//DTD SVG 1.1//EN"
 "http://www.w3.org/Graphics/SVG/1.1/DTD/svg11.dtd">
<!-- Generated by graphviz version 9.0.0 (20230911.1827)
 -->
<!-- Title: Graphical Class Hierarchy Pages: 1 -->
<svg width="297pt" height="212pt"
 viewBox="0.00 0.00 296.50 212.25" xmlns="http://www.w3.org/2000/svg" xmlns:xlink="http://www.w3.org/1999/xlink">
<g id="graph0" class="graph" transform="scale(1 1) rotate(0) translate(4 208.25)">
<title>Graphical Class Hierarchy</title>
<!-- Node0 -->
<g id="Node000000" class="node">
<title>Node0</title>
<g id="a_Node000000"><a xlink:title=" ">
<polygon fill="#e0e0e0" stroke="#999999" points="117.25,-111.25 0,-111.25 0,-92 117.25,-92 117.25,-111.25"/>
<text text-anchor="middle" x="58.62" y="-97.75" font-family="Helvetica,sans-Serif" font-size="10.00">testing::TestWithParam</text>
</a>
</g>
</g>
<!-- Node1 -->
<g id="Node000001" class="node">
<title>Node1</title>
<g id="a_Node000001"><a xlink:href="dc/d14/struct_file_analyzer_test.html" target="_top" xlink:title=" ">
<polygon fill="white" stroke="#666666" points="264.88,-204.25 176.88,-204.25 176.88,-185 264.88,-185 264.88,-204.25"/>
<text text-anchor="middle" x="220.88" y="-190.75" font-family="Helvetica,sans-Serif" font-size="10.00">FileAnalyzerTest</text>
</a>
</g>
</g>
<!-- Node0&#45;&gt;Node1 -->
<g id="edge203_Node000000_Node000001" class="edge">
<title>Node0&#45;&gt;Node1</title>
<g id="a_edge203_Node000000_Node000001"><a xlink:title=" ">
<path fill="none" stroke="#63b8ff" d="M77.05,-119.32C94.76,-136.34 123.72,-161.64 153.25,-176.62 160.52,-180.31 168.62,-183.31 176.61,-185.73"/>
<polygon fill="#63b8ff" stroke="#63b8ff" points="79.97,-117.28 70.39,-112.77 75.07,-122.27 79.97,-117.28"/>
</a>
</g>
</g>
<!-- Node2 -->
<g id="Node000002" class="node">
<title>Node2</title>
<g id="a_Node000002"><a xlink:href="dd/daa/class_image_aligner_test.html" target="_top" xlink:title=" ">
<polygon fill="white" stroke="#666666" points="267.12,-167.25 174.62,-167.25 174.62,-148 267.12,-148 267.12,-167.25"/>
<text text-anchor="middle" x="220.88" y="-153.75" font-family="Helvetica,sans-Serif" font-size="10.00">ImageAlignerTest</text>
</a>
</g>
</g>
<!-- Node0&#45;&gt;Node2 -->
<g id="edge204_Node000000_Node000002" class="edge">
<title>Node0&#45;&gt;Node2</title>
<g id="a_edge204_Node000000_Node000002"><a xlink:title=" ">
<path fill="none" stroke="#63b8ff" d="M92.45,-116.09C110.25,-123.64 132.74,-132.72 153.25,-139.62 161.65,-142.45 170.77,-145.15 179.47,-147.56"/>
<polygon fill="#63b8ff" stroke="#63b8ff" points="94,-112.95 83.43,-112.22 91.24,-119.38 94,-112.95"/>
</a>
</g>
</g>
<!-- Node3 -->
<g id="Node000003" class="node">
<title>Node3</title>
<g id="a_Node000003"><a xlink:href="da/dcc/class_oriented_image_test.html" target="_top" xlink:title=" ">
<polygon fill="white" stroke="#666666" points="270.5,-130.25 171.25,-130.25 171.25,-111 270.5,-111 270.5,-130.25"/>
<text text-anchor="middle" x="220.88" y="-116.75" font-family="Helvetica,sans-Serif" font-size="10.00">OrientedImageTest</text>
</a>
</g>
</g>
<!-- Node0&#45;&gt;Node3 -->
<g id="edge205_Node000000_Node000003" class="edge">
<title>Node0&#45;&gt;Node3</title>
<g id="a_edge205_Node000000_Node000003"><a xlink:title=" ">
<path fill="none" stroke="#63b8ff" d="M128.71,-109.82C142.89,-111.5 157.53,-113.23 170.83,-114.81"/>
<polygon fill="#63b8ff" stroke="#63b8ff" points="129.32,-106.36 118.98,-108.66 128.5,-113.32 129.32,-106.36"/>
</a>
</g>
</g>
<!-- Node4 -->
<g id="Node000004" class="node">
<title>Node4</title>
<g id="a_Node000004"><a xlink:href="df/dd2/struct_tag_value_raw_setter_test.html" target="_top" xlink:title=" ">
<polygon fill="white" stroke="#666666" points="282.12,-93.25 159.62,-93.25 159.62,-74 282.12,-74 282.12,-93.25"/>
<text text-anchor="middle" x="220.88" y="-79.75" font-family="Helvetica,sans-Serif" font-size="10.00">TagValueRawSetterTest</text>
</a>
</g>
</g>
<!-- Node0&#45;&gt;Node4 -->
<g id="edge206_Node000000_Node000004" class="edge">
<title>Node0&#45;&gt;Node4</title>
<g id="a_edge206_Node000000_Node000004"><a xlink:title=" ">
<path fill="none" stroke="#63b8ff" d="M128.76,-93.86C138.86,-92.72 149.21,-91.56 159.13,-90.45"/>
<polygon fill="#63b8ff" stroke="#63b8ff" points="128.53,-90.36 118.98,-94.96 129.31,-97.32 128.53,-90.36"/>
</a>
</g>
</g>
<!-- Node5 -->
<g id="Node000005" class="node">
<title>Node5</title>
<g id="a_Node000005"><a xlink:href="d4/d06/struct_tag_value_variant_setter_test.html" target="_top" xlink:title=" ">
<polygon fill="white" stroke="#666666" points="287.75,-56.25 154,-56.25 154,-37 287.75,-37 287.75,-56.25"/>
<text text-anchor="middle" x="220.88" y="-42.75" font-family="Helvetica,sans-Serif" font-size="10.00">TagValueVariantSetterTest</text>
</a>
</g>
</g>
<!-- Node0&#45;&gt;Node5 -->
<g id="edge207_Node000000_Node000005" class="edge">
<title>Node0&#45;&gt;Node5</title>
<g id="a_edge207_Node000000_Node000005"><a xlink:title=" ">
<path fill="none" stroke="#63b8ff" d="M93.46,-87.19C111.1,-79.93 133.15,-71.29 153.25,-64.62 161.78,-61.8 171.03,-59.08 179.85,-56.65"/>
<polygon fill="#63b8ff" stroke="#63b8ff" points="92.11,-83.96 84.23,-91.03 94.8,-90.42 92.11,-83.96"/>
</a>
</g>
</g>
<!-- Node6 -->
<g id="Node000006" class="node">
<title>Node6</title>
<g id="a_Node000006"><a xlink:href="d9/d12/class_video_media_information_test.html" target="_top" xlink:title=" ">
<polygon fill="white" stroke="#666666" points="288.5,-19.25 153.25,-19.25 153.25,0 288.5,0 288.5,-19.25"/>
<text text-anchor="middle" x="220.88" y="-5.75" font-family="Helvetica,sans-Serif" font-size="10.00">VideoMediaInformationTest</text>
</a>
</g>
</g>
<!-- Node0&#45;&gt;Node6 -->
<g id="edge208_Node000000_Node000006" class="edge">
<title>Node0&#45;&gt;Node6</title>
<g id="a_edge208_Node000000_Node000006"><a xlink:title=" ">
<path fill="none" stroke="#63b8ff" d="M77.58,-83.72C95.37,-66.94 124.1,-42.3 153.25,-27.62 159.46,-24.5 166.27,-21.87 173.1,-19.66"/>
<polygon fill="#63b8ff" stroke="#63b8ff" points="75.19,-81.17 70.42,-90.63 80.05,-86.2 75.19,-81.17"/>
</a>
</g>
</g>
</g>
</svg>
