<?xml version="1.0" encoding="UTF-8" standalone="no"?>
<!DOCTYPE svg PUBLIC "-//W3C//DTD SVG 1.1//EN"
 "http://www.w3.org/Graphics/SVG/1.1/DTD/svg11.dtd">
<!-- Generated by graphviz version 12.2.0 (20241103.1931)
 -->
<!-- Title: Graphical Class Hierarchy Pages: 1 -->
<svg width="255pt" height="64pt"
 viewBox="0.00 0.00 255.25 64.25" xmlns="http://www.w3.org/2000/svg" xmlns:xlink="http://www.w3.org/1999/xlink">
<g id="graph0" class="graph" transform="scale(1 1) rotate(0) translate(4 60.25)">
<title>Graphical Class Hierarchy</title>
<!-- Node0 -->
<g id="Node000000" class="node">
<title>Node0</title>
<g id="a_Node000000"><a xlink:title=" ">
<polygon fill="#e0e0e0" stroke="#999999" points="78.25,-37.25 0,-37.25 0,-18 78.25,-18 78.25,-37.25"/>
<text text-anchor="middle" x="39.12" y="-23.75" font-family="Helvetica,sans-Serif" font-size="10.00">std::false_type</text>
</a>
</g>
</g>
<!-- Node1 -->
<g id="Node000001" class="node">
<title>Node1</title>
<g id="a_Node000001"><a xlink:href="db/dac/structalways__false.html" target="_top" xlink:title=" ">
<polygon fill="white" stroke="#666666" points="228.12,-56.25 133.38,-56.25 133.38,-37 228.12,-37 228.12,-56.25"/>
<text text-anchor="middle" x="180.75" y="-42.75" font-family="Helvetica,sans-Serif" font-size="10.00">always_false&lt; T &gt;</text>
</a>
</g>
</g>
<!-- Node0&#45;&gt;Node1 -->
<g id="edge179_Node000000_Node000001" class="edge">
<title>Node0&#45;&gt;Node1</title>
<g id="a_edge179_Node000000_Node000001"><a xlink:title=" ">
<path fill="none" stroke="#63b8ff" d="M90.05,-34.42C104.01,-36.32 119.13,-38.38 132.9,-40.25"/>
<polygon fill="#63b8ff" stroke="#63b8ff" points="90.53,-30.95 80.15,-33.07 89.58,-37.89 90.53,-30.95"/>
</a>
</g>
</g>
<!-- Node2 -->
<g id="Node000002" class="node">
<title>Node2</title>
<g id="a_Node000002"><a xlink:href="d9/d61/structis__std__vector.html" target="_top" xlink:title=" ">
<polygon fill="white" stroke="#666666" points="247.25,-19.25 114.25,-19.25 114.25,0 247.25,0 247.25,-19.25"/>
<text text-anchor="middle" x="180.75" y="-5.75" font-family="Helvetica,sans-Serif" font-size="10.00">is_std_vector&lt; typename &gt;</text>
</a>
</g>
</g>
<!-- Node0&#45;&gt;Node2 -->
<g id="edge180_Node000000_Node000002" class="edge">
<title>Node0&#45;&gt;Node2</title>
<g id="a_edge180_Node000000_Node000002"><a xlink:title=" ">
<path fill="none" stroke="#63b8ff" d="M90.01,-21.19C97.71,-20.2 105.76,-19.16 113.75,-18.13"/>
<polygon fill="#63b8ff" stroke="#63b8ff" points="89.62,-17.72 80.15,-22.47 90.51,-24.66 89.62,-17.72"/>
</a>
</g>
</g>
</g>
</svg>
