<?xml version="1.0" encoding="UTF-8" standalone="no"?>
<!DOCTYPE svg PUBLIC "-//W3C//DTD SVG 1.1//EN"
 "http://www.w3.org/Graphics/SVG/1.1/DTD/svg11.dtd">
<!-- Generated by graphviz version 9.0.0 (20230911.1827)
 -->
<!-- Title: Graphical Class Hierarchy Pages: 1 -->
<svg width="331pt" height="82pt"
 viewBox="0.00 0.00 331.25 82.25" xmlns="http://www.w3.org/2000/svg" xmlns:xlink="http://www.w3.org/1999/xlink">
<g id="graph0" class="graph" transform="scale(1 1) rotate(0) translate(4 78.25)">
<title>Graphical Class Hierarchy</title>
<!-- Node0 -->
<g id="Node000000" class="node">
<title>Node0</title>
<g id="a_Node000000"><a xlink:href="d5/dd5/struct_i_exif_reader.html" target="_top" xlink:title=" ">
<polygon fill="white" stroke="#666666" points="65.5,-37.25 0,-37.25 0,-18 65.5,-18 65.5,-37.25"/>
<text text-anchor="middle" x="32.75" y="-23.75" font-family="Helvetica,sans-Serif" font-size="10.00">IExifReader</text>
</a>
</g>
</g>
<!-- Node1 -->
<g id="Node000001" class="node">
<title>Node1</title>
<g id="a_Node000001"><a xlink:href="d1/d85/class_a_exif_reader.html" target="_top" xlink:title=" ">
<polygon fill="white" stroke="#666666" points="179.38,-56.25 110.12,-56.25 110.12,-37 179.38,-37 179.38,-56.25"/>
<text text-anchor="middle" x="144.75" y="-42.75" font-family="Helvetica,sans-Serif" font-size="10.00">AExifReader</text>
</a>
</g>
</g>
<!-- Node0&#45;&gt;Node1 -->
<g id="edge113_Node000000_Node000001" class="edge">
<title>Node0&#45;&gt;Node1</title>
<g id="a_edge113_Node000000_Node000001"><a xlink:title=" ">
<path fill="none" stroke="#63b8ff" d="M76.95,-35.09C87.88,-36.98 99.47,-38.98 109.87,-40.77"/>
<polygon fill="#63b8ff" stroke="#63b8ff" points="77.8,-31.68 67.35,-33.43 76.61,-38.58 77.8,-31.68"/>
</a>
</g>
</g>
<!-- Node4 -->
<g id="Node000004" class="node">
<title>Node4</title>
<g id="a_Node000004"><a xlink:href="d3/d8c/struct_mock_exif_reader.html" target="_top" xlink:title=" ">
<polygon fill="white" stroke="#666666" points="188,-19.25 101.5,-19.25 101.5,0 188,0 188,-19.25"/>
<text text-anchor="middle" x="144.75" y="-5.75" font-family="Helvetica,sans-Serif" font-size="10.00">MockExifReader</text>
</a>
</g>
</g>
<!-- Node0&#45;&gt;Node4 -->
<g id="edge116_Node000000_Node000004" class="edge">
<title>Node0&#45;&gt;Node4</title>
<g id="a_edge116_Node000000_Node000004"><a xlink:title=" ">
<path fill="none" stroke="#63b8ff" d="M77.13,-20.53C85.03,-19.23 93.28,-17.88 101.16,-16.59"/>
<polygon fill="#63b8ff" stroke="#63b8ff" points="76.66,-17.06 67.36,-22.13 77.79,-23.96 76.66,-17.06"/>
</a>
</g>
</g>
<!-- Node2 -->
<g id="Node000002" class="node">
<title>Node2</title>
<g id="a_Node000002"><a xlink:href="df/d97/class_easy_exif_tag_feeder.html" target="_top" xlink:title=" ">
<polygon fill="white" stroke="#666666" points="323.25,-74.25 224,-74.25 224,-55 323.25,-55 323.25,-74.25"/>
<text text-anchor="middle" x="273.62" y="-60.75" font-family="Helvetica,sans-Serif" font-size="10.00">EasyExifTagFeeder</text>
</a>
</g>
</g>
<!-- Node1&#45;&gt;Node2 -->
<g id="edge114_Node000001_Node000002" class="edge">
<title>Node1&#45;&gt;Node2</title>
<g id="a_edge114_Node000001_Node000002"><a xlink:title=" ">
<path fill="none" stroke="#63b8ff" d="M190.93,-53.04C201.57,-54.54 212.95,-56.16 223.74,-57.69"/>
<polygon fill="#63b8ff" stroke="#63b8ff" points="191.64,-49.6 181.25,-51.66 190.66,-56.53 191.64,-49.6"/>
</a>
</g>
</g>
<!-- Node3 -->
<g id="Node000003" class="node">
<title>Node3</title>
<g id="a_Node000003"><a xlink:href="d5/d00/class_exiv2_exif_reader.html" target="_top" xlink:title=" ">
<polygon fill="white" stroke="#666666" points="316.5,-37.25 230.75,-37.25 230.75,-18 316.5,-18 316.5,-37.25"/>
<text text-anchor="middle" x="273.62" y="-23.75" font-family="Helvetica,sans-Serif" font-size="10.00">Exiv2ExifReader</text>
</a>
</g>
</g>
<!-- Node1&#45;&gt;Node3 -->
<g id="edge115_Node000001_Node000003" class="edge">
<title>Node1&#45;&gt;Node3</title>
<g id="a_edge115_Node000001_Node000003"><a xlink:title=" ">
<path fill="none" stroke="#63b8ff" d="M191.13,-39.83C203.91,-37.92 217.77,-35.84 230.36,-33.95"/>
<polygon fill="#63b8ff" stroke="#63b8ff" points="190.62,-36.37 181.25,-41.31 191.66,-43.29 190.62,-36.37"/>
</a>
</g>
</g>
</g>
</svg>
