<?xml version="1.0" encoding="UTF-8" standalone="no"?>
<!DOCTYPE svg PUBLIC "-//W3C//DTD SVG 1.1//EN"
 "http://www.w3.org/Graphics/SVG/1.1/DTD/svg11.dtd">
<!-- Generated by graphviz version 9.0.0 (20230911.1827)
 -->
<!-- Title: Graphical Class Hierarchy Pages: 1 -->
<svg width="267pt" height="180pt"
 viewBox="0.00 0.00 266.50 180.38" xmlns="http://www.w3.org/2000/svg" xmlns:xlink="http://www.w3.org/1999/xlink">
<g id="graph0" class="graph" transform="scale(1 1) rotate(0) translate(4 176.38)">
<title>Graphical Class Hierarchy</title>
<!-- Node0 -->
<g id="Node000000" class="node">
<title>Node0</title>
<g id="a_Node000000"><a xlink:title=" ">
<polygon fill="#e0e0e0" stroke="#999999" points="73.75,-101.12 0,-101.12 0,-81.88 73.75,-81.88 73.75,-101.12"/>
<text text-anchor="middle" x="36.88" y="-87.62" font-family="Helvetica,sans-Serif" font-size="10.00">std::true_type</text>
</a>
</g>
</g>
<!-- Node1 -->
<g id="Node000001" class="node">
<title>Node1</title>
<g id="a_Node000001"><a xlink:href="df/dcc/structhas__auto__ptr__type_3_01_t_00_01std_1_1void__t_3_01typename_01_t_1_1_auto_ptr_01_4_01_4.html" target="_top" xlink:title=" ">
<polygon fill="white" stroke="#666666" points="246.12,-172.38 122.12,-172.38 122.12,-130.62 246.12,-130.62 246.12,-172.38"/>
<text text-anchor="start" x="130.12" y="-158.88" font-family="Helvetica,sans-Serif" font-size="10.00">has_auto_ptr_type&lt;</text>
<text text-anchor="start" x="130.12" y="-147.62" font-family="Helvetica,sans-Serif" font-size="10.00"> T, std::void_t&lt; typename</text>
<text text-anchor="middle" x="184.12" y="-136.38" font-family="Helvetica,sans-Serif" font-size="10.00"> T::AutoPtr &gt; &gt;</text>
</a>
</g>
</g>
<!-- Node0&#45;&gt;Node1 -->
<g id="edge183_Node000000_Node000001" class="edge">
<title>Node0&#45;&gt;Node1</title>
<g id="a_edge183_Node000000_Node000001"><a xlink:title=" ">
<path fill="none" stroke="#63b8ff" d="M72.22,-105.9C84.1,-110.86 97.5,-116.44 109.75,-121.5 116.62,-124.34 123.85,-127.31 131,-130.24"/>
<polygon fill="#63b8ff" stroke="#63b8ff" points="73.79,-102.76 63.21,-102.13 71.09,-109.22 73.79,-102.76"/>
</a>
</g>
</g>
<!-- Node2 -->
<g id="Node000002" class="node">
<title>Node2</title>
<g id="a_Node000002"><a xlink:href="db/db1/structhas__unique__ptr__type_3_01_t_00_01std_1_1void__t_3_01typename_01_t_1_1_unique_ptr_01_4_01_4.html" target="_top" xlink:title=" ">
<polygon fill="white" stroke="#666666" points="249.12,-112.38 119.12,-112.38 119.12,-70.62 249.12,-70.62 249.12,-112.38"/>
<text text-anchor="start" x="127.12" y="-98.88" font-family="Helvetica,sans-Serif" font-size="10.00">has_unique_ptr_type</text>
<text text-anchor="start" x="127.12" y="-87.62" font-family="Helvetica,sans-Serif" font-size="10.00">&lt; T, std::void_t&lt; typename</text>
<text text-anchor="middle" x="184.12" y="-76.38" font-family="Helvetica,sans-Serif" font-size="10.00"> T::UniquePtr &gt; &gt;</text>
</a>
</g>
</g>
<!-- Node0&#45;&gt;Node2 -->
<g id="edge184_Node000000_Node000002" class="edge">
<title>Node0&#45;&gt;Node2</title>
<g id="a_edge184_Node000000_Node000002"><a xlink:title=" ">
<path fill="none" stroke="#63b8ff" d="M85.36,-91.5C96.04,-91.5 107.54,-91.5 118.78,-91.5"/>
<polygon fill="#63b8ff" stroke="#63b8ff" points="85.67,-88 75.67,-91.5 85.67,-95 85.67,-88"/>
</a>
</g>
</g>
<!-- Node3 -->
<g id="Node000003" class="node">
<title>Node3</title>
<g id="a_Node000003"><a xlink:href="dc/dab/structstd_1_1is__copy__constructible_3_01testing_1_1internal_1_1_reference_or_value_wrapper_3_01952bde62fea2a36d77a2dd0efe5f17be.html" target="_top" xlink:title=" ">
<polygon fill="white" stroke="#666666" points="258.5,-53 109.75,-53 109.75,0 258.5,0 258.5,-53"/>
<text text-anchor="start" x="117.75" y="-39.5" font-family="Helvetica,sans-Serif" font-size="10.00">std::is_copy_constructible</text>
<text text-anchor="start" x="117.75" y="-28.25" font-family="Helvetica,sans-Serif" font-size="10.00">&lt; testing::internal::ReferenceOr</text>
<text text-anchor="start" x="117.75" y="-17" font-family="Helvetica,sans-Serif" font-size="10.00">ValueWrapper&lt; std::optional&lt;</text>
<text text-anchor="middle" x="184.12" y="-5.75" font-family="Helvetica,sans-Serif" font-size="10.00"> std::any &gt; &gt; &gt;</text>
</a>
</g>
</g>
<!-- Node0&#45;&gt;Node3 -->
<g id="edge185_Node000000_Node000003" class="edge">
<title>Node0&#45;&gt;Node3</title>
<g id="a_edge185_Node000000_Node000003"><a xlink:title=" ">
<path fill="none" stroke="#63b8ff" d="M70.38,-76.95C85.92,-70 105.03,-61.45 123.07,-53.38"/>
<polygon fill="#63b8ff" stroke="#63b8ff" points="69.33,-73.59 61.63,-80.87 72.19,-79.98 69.33,-73.59"/>
</a>
</g>
</g>
</g>
</svg>
