<?xml version="1.0" encoding="UTF-8" standalone="no"?>
<!DOCTYPE svg PUBLIC "-//W3C//DTD SVG 1.1//EN"
 "http://www.w3.org/Graphics/SVG/1.1/DTD/svg11.dtd">
<!-- Generated by graphviz version 7.0.5 (20221223.1930)
 -->
<!-- Title: Graphical Class Hierarchy Pages: 1 -->
<svg width="267pt" height="179pt"
 viewBox="0.00 0.00 267.00 178.50" xmlns="http://www.w3.org/2000/svg" xmlns:xlink="http://www.w3.org/1999/xlink">
<g id="graph0" class="graph" transform="scale(1 1) rotate(0) translate(4 174.5)">
<title>Graphical Class Hierarchy</title>
<!-- Node0 -->
<g id="node1" class="node">
<title>Node0</title>
<g id="a_node1"><a xlink:title=" ">
<polygon fill="#e0e0e0" stroke="#999999" points="74,-100.5 0,-100.5 0,-81.5 74,-81.5 74,-100.5"/>
<text text-anchor="middle" x="37" y="-88.5" font-family="Helvetica,sans-Serif" font-size="10.00">std::true_type</text>
</a>
</g>
</g>
<!-- Node1 -->
<g id="node2" class="node">
<title>Node1</title>
<g id="a_node2"><a xlink:href="df/dcc/structhas__auto__ptr__type_3_01_t_00_01std_1_1void__t_3_01typename_01_t_1_1_auto_ptr_01_4_01_4.html" target="_top" xlink:title=" ">
<polygon fill="white" stroke="#666666" points="247,-170.5 122,-170.5 122,-129.5 247,-129.5 247,-170.5"/>
<text text-anchor="start" x="130" y="-158.5" font-family="Helvetica,sans-Serif" font-size="10.00">has_auto_ptr_type&lt;</text>
<text text-anchor="start" x="130" y="-147.5" font-family="Helvetica,sans-Serif" font-size="10.00"> T, std::void_t&lt; typename</text>
<text text-anchor="middle" x="184.5" y="-136.5" font-family="Helvetica,sans-Serif" font-size="10.00"> T::AutoPtr &gt; &gt;</text>
</a>
</g>
</g>
<!-- Node0&#45;&gt;Node1 -->
<g id="edge1" class="edge">
<title>Node0&#45;&gt;Node1</title>
<path fill="none" stroke="#63b8ff" d="M72.09,-105.36C84.06,-110.36 97.61,-115.97 110,-121 116.48,-123.63 123.3,-126.36 130.06,-129.05"/>
<polygon fill="#63b8ff" stroke="#63b8ff" points="73.6,-102.2 63.02,-101.56 70.89,-108.65 73.6,-102.2"/>
</g>
<!-- Node2 -->
<g id="node3" class="node">
<title>Node2</title>
<g id="a_node3"><a xlink:href="db/db1/structhas__unique__ptr__type_3_01_t_00_01std_1_1void__t_3_01typename_01_t_1_1_unique_ptr_01_4_01_4.html" target="_top" xlink:title=" ">
<polygon fill="white" stroke="#666666" points="250,-111.5 119,-111.5 119,-70.5 250,-70.5 250,-111.5"/>
<text text-anchor="start" x="127" y="-99.5" font-family="Helvetica,sans-Serif" font-size="10.00">has_unique_ptr_type</text>
<text text-anchor="start" x="127" y="-88.5" font-family="Helvetica,sans-Serif" font-size="10.00">&lt; T, std::void_t&lt; typename</text>
<text text-anchor="middle" x="184.5" y="-77.5" font-family="Helvetica,sans-Serif" font-size="10.00"> T::UniquePtr &gt; &gt;</text>
</a>
</g>
</g>
<!-- Node0&#45;&gt;Node2 -->
<g id="edge2" class="edge">
<title>Node0&#45;&gt;Node2</title>
<path fill="none" stroke="#63b8ff" d="M85.84,-91C96.36,-91 107.68,-91 118.75,-91"/>
<polygon fill="#63b8ff" stroke="#63b8ff" points="85.85,-87.5 75.85,-91 85.85,-94.5 85.85,-87.5"/>
</g>
<!-- Node3 -->
<g id="node4" class="node">
<title>Node3</title>
<g id="a_node4"><a xlink:href="dc/dab/structstd_1_1is__copy__constructible_3_01testing_1_1internal_1_1_reference_or_value_wrapper_3_01952bde62fea2a36d77a2dd0efe5f17be.html" target="_top" xlink:title=" ">
<polygon fill="white" stroke="#666666" points="259,-52 110,-52 110,0 259,0 259,-52"/>
<text text-anchor="start" x="118" y="-40" font-family="Helvetica,sans-Serif" font-size="10.00">std::is_copy_constructible</text>
<text text-anchor="start" x="118" y="-29" font-family="Helvetica,sans-Serif" font-size="10.00">&lt; testing::internal::ReferenceOr</text>
<text text-anchor="start" x="118" y="-18" font-family="Helvetica,sans-Serif" font-size="10.00">ValueWrapper&lt; std::optional&lt;</text>
<text text-anchor="middle" x="184.5" y="-7" font-family="Helvetica,sans-Serif" font-size="10.00"> std::any &gt; &gt; &gt;</text>
</a>
</g>
</g>
<!-- Node0&#45;&gt;Node3 -->
<g id="edge3" class="edge">
<title>Node0&#45;&gt;Node3</title>
<path fill="none" stroke="#63b8ff" d="M70.43,-76.51C86.31,-69.42 105.94,-60.65 124.36,-52.42"/>
<polygon fill="#63b8ff" stroke="#63b8ff" points="69.18,-73.24 61.48,-80.51 72.04,-79.63 69.18,-73.24"/>
</g>
</g>
</svg>
