<?xml version="1.0" encoding="UTF-8" standalone="no"?>
<!DOCTYPE svg PUBLIC "-//W3C//DTD SVG 1.1//EN"
 "http://www.w3.org/Graphics/SVG/1.1/DTD/svg11.dtd">
<!-- Generated by graphviz version 9.0.0 (20230911.1827)
 -->
<!-- Title: Graphical Class Hierarchy Pages: 1 -->
<svg width="207pt" height="101pt"
 viewBox="0.00 0.00 207.25 101.25" xmlns="http://www.w3.org/2000/svg" xmlns:xlink="http://www.w3.org/1999/xlink">
<g id="graph0" class="graph" transform="scale(1 1) rotate(0) translate(4 97.25)">
<title>Graphical Class Hierarchy</title>
<!-- Node0 -->
<g id="Node000000" class="node">
<title>Node0</title>
<g id="a_Node000000"><a xlink:title=" ">
<polygon fill="#e0e0e0" stroke="#999999" points="50.5,-56.25 0,-56.25 0,-37 50.5,-37 50.5,-56.25"/>
<text text-anchor="middle" x="25.25" y="-42.75" font-family="Helvetica,sans-Serif" font-size="10.00">QDialog</text>
</a>
</g>
</g>
<!-- Node1 -->
<g id="Node000001" class="node">
<title>Node1</title>
<g id="a_Node000001"><a xlink:href="de/d11/class_configuration_dialog.html" target="_top" xlink:title=" ">
<polygon fill="white" stroke="#666666" points="192.5,-93.25 93.25,-93.25 93.25,-74 192.5,-74 192.5,-93.25"/>
<text text-anchor="middle" x="142.88" y="-79.75" font-family="Helvetica,sans-Serif" font-size="10.00">ConfigurationDialog</text>
</a>
</g>
</g>
<!-- Node0&#45;&gt;Node1 -->
<g id="edge166_Node000000_Node000001" class="edge">
<title>Node0&#45;&gt;Node1</title>
<g id="a_edge166_Node000000_Node000001"><a xlink:title=" ">
<path fill="none" stroke="#63b8ff" d="M61.56,-57.93C77.12,-62.9 95.25,-68.71 110.35,-73.54"/>
<polygon fill="#63b8ff" stroke="#63b8ff" points="62.8,-54.65 52.21,-54.93 60.67,-61.31 62.8,-54.65"/>
</a>
</g>
</g>
<!-- Node2 -->
<g id="Node000002" class="node">
<title>Node2</title>
<g id="a_Node000002"><a xlink:href="d0/d4e/class_photos_grouping_dialog.html" target="_top" xlink:title=" ">
<polygon fill="white" stroke="#666666" points="199.25,-56.25 86.5,-56.25 86.5,-37 199.25,-37 199.25,-56.25"/>
<text text-anchor="middle" x="142.88" y="-42.75" font-family="Helvetica,sans-Serif" font-size="10.00">PhotosGroupingDialog</text>
</a>
</g>
</g>
<!-- Node0&#45;&gt;Node2 -->
<g id="edge167_Node000000_Node000002" class="edge">
<title>Node0&#45;&gt;Node2</title>
<g id="a_edge167_Node000000_Node000002"><a xlink:title=" ">
<path fill="none" stroke="#63b8ff" d="M62.26,-46.62C69.95,-46.62 78.24,-46.62 86.46,-46.62"/>
<polygon fill="#63b8ff" stroke="#63b8ff" points="62.28,-43.13 52.28,-46.63 62.28,-50.13 62.28,-43.13"/>
</a>
</g>
</g>
<!-- Node3 -->
<g id="Node000003" class="node">
<title>Node3</title>
<g id="a_Node000003"><a xlink:href="db/dd2/class_project_creator_dialog.html" target="_top" xlink:title=" ">
<polygon fill="white" stroke="#666666" points="195.5,-19.25 90.25,-19.25 90.25,0 195.5,0 195.5,-19.25"/>
<text text-anchor="middle" x="142.88" y="-5.75" font-family="Helvetica,sans-Serif" font-size="10.00">ProjectCreatorDialog</text>
</a>
</g>
</g>
<!-- Node0&#45;&gt;Node3 -->
<g id="edge168_Node000000_Node000003" class="edge">
<title>Node0&#45;&gt;Node3</title>
<g id="a_edge168_Node000000_Node000003"><a xlink:title=" ">
<path fill="none" stroke="#63b8ff" d="M61.56,-35.32C77.12,-30.35 95.25,-24.54 110.35,-19.71"/>
<polygon fill="#63b8ff" stroke="#63b8ff" points="60.67,-31.94 52.21,-38.32 62.8,-38.6 60.67,-31.94"/>
</a>
</g>
</g>
</g>
</svg>
