<?xml version="1.0" encoding="UTF-8" standalone="no"?>
<!DOCTYPE svg PUBLIC "-//W3C//DTD SVG 1.1//EN"
 "http://www.w3.org/Graphics/SVG/1.1/DTD/svg11.dtd">
<!-- Generated by graphviz version 9.0.0 (20230911.1827)
 -->
<!-- Title: Graphical Class Hierarchy Pages: 1 -->
<svg width="295pt" height="101pt"
 viewBox="0.00 0.00 295.00 101.25" xmlns="http://www.w3.org/2000/svg" xmlns:xlink="http://www.w3.org/1999/xlink">
<g id="graph0" class="graph" transform="scale(1 1) rotate(0) translate(4 97.25)">
<title>Graphical Class Hierarchy</title>
<!-- Node0 -->
<g id="Node000000" class="node">
<title>Node0</title>
<g id="a_Node000000"><a xlink:title=" ">
<polygon fill="#e0e0e0" stroke="#999999" points="117.25,-56.25 0,-56.25 0,-37 117.25,-37 117.25,-56.25"/>
<text text-anchor="middle" x="58.62" y="-42.75" font-family="Helvetica,sans-Serif" font-size="10.00">testing::TestWithParam</text>
</a>
</g>
</g>
<!-- Node1 -->
<g id="Node000001" class="node">
<title>Node1</title>
<g id="a_Node000001"><a xlink:href="dc/d14/struct_file_analyzer_test.html" target="_top" xlink:title=" ">
<polygon fill="white" stroke="#666666" points="264.12,-93.25 176.12,-93.25 176.12,-74 264.12,-74 264.12,-93.25"/>
<text text-anchor="middle" x="220.12" y="-79.75" font-family="Helvetica,sans-Serif" font-size="10.00">FileAnalyzerTest</text>
</a>
</g>
</g>
<!-- Node0&#45;&gt;Node1 -->
<g id="edge207_Node000000_Node000001" class="edge">
<title>Node0&#45;&gt;Node1</title>
<g id="a_edge207_Node000000_Node000001"><a xlink:title=" ">
<path fill="none" stroke="#63b8ff" d="M114.4,-59.33C134.49,-63.99 156.93,-69.2 175.87,-73.59"/>
<polygon fill="#63b8ff" stroke="#63b8ff" points="115.22,-55.93 104.68,-57.08 113.63,-62.75 115.22,-55.93"/>
</a>
</g>
</g>
<!-- Node2 -->
<g id="Node000002" class="node">
<title>Node2</title>
<g id="a_Node000002"><a xlink:href="df/dd2/struct_tag_value_raw_setter_test.html" target="_top" xlink:title=" ">
<polygon fill="white" stroke="#666666" points="281.38,-56.25 158.88,-56.25 158.88,-37 281.38,-37 281.38,-56.25"/>
<text text-anchor="middle" x="220.12" y="-42.75" font-family="Helvetica,sans-Serif" font-size="10.00">TagValueRawSetterTest</text>
</a>
</g>
</g>
<!-- Node0&#45;&gt;Node2 -->
<g id="edge208_Node000000_Node000002" class="edge">
<title>Node0&#45;&gt;Node2</title>
<g id="a_edge208_Node000000_Node000002"><a xlink:title=" ">
<path fill="none" stroke="#63b8ff" d="M129.03,-46.62C138.82,-46.62 148.83,-46.62 158.45,-46.62"/>
<polygon fill="#63b8ff" stroke="#63b8ff" points="129.17,-43.13 119.17,-46.63 129.17,-50.13 129.17,-43.13"/>
</a>
</g>
</g>
<!-- Node3 -->
<g id="Node000003" class="node">
<title>Node3</title>
<g id="a_Node000003"><a xlink:href="d4/d06/struct_tag_value_variant_setter_test.html" target="_top" xlink:title=" ">
<polygon fill="white" stroke="#666666" points="287,-19.25 153.25,-19.25 153.25,0 287,0 287,-19.25"/>
<text text-anchor="middle" x="220.12" y="-5.75" font-family="Helvetica,sans-Serif" font-size="10.00">TagValueVariantSetterTest</text>
</a>
</g>
</g>
<!-- Node0&#45;&gt;Node3 -->
<g id="edge209_Node000000_Node000003" class="edge">
<title>Node0&#45;&gt;Node3</title>
<g id="a_edge209_Node000000_Node000003"><a xlink:title=" ">
<path fill="none" stroke="#63b8ff" d="M114.36,-33.93C134.36,-29.29 156.7,-24.11 175.59,-19.72"/>
<polygon fill="#63b8ff" stroke="#63b8ff" points="113.63,-30.5 104.68,-36.17 115.22,-37.32 113.63,-30.5"/>
</a>
</g>
</g>
</g>
</svg>
