<?xml version="1.0" encoding="UTF-8" standalone="no"?>
<!DOCTYPE svg PUBLIC "-//W3C//DTD SVG 1.1//EN"
 "http://www.w3.org/Graphics/SVG/1.1/DTD/svg11.dtd">
<!-- Generated by graphviz version 9.0.0 (20230911.1827)
 -->
<!-- Title: Graphical Class Hierarchy Pages: 1 -->
<svg width="297pt" height="175pt"
 viewBox="0.00 0.00 296.50 175.25" xmlns="http://www.w3.org/2000/svg" xmlns:xlink="http://www.w3.org/1999/xlink">
<g id="graph0" class="graph" transform="scale(1 1) rotate(0) translate(4 171.25)">
<title>Graphical Class Hierarchy</title>
<!-- Node0 -->
<g id="Node000000" class="node">
<title>Node0</title>
<g id="a_Node000000"><a xlink:title=" ">
<polygon fill="#e0e0e0" stroke="#999999" points="117.25,-93.25 0,-93.25 0,-74 117.25,-74 117.25,-93.25"/>
<text text-anchor="middle" x="58.62" y="-79.75" font-family="Helvetica,sans-Serif" font-size="10.00">testing::TestWithParam</text>
</a>
</g>
</g>
<!-- Node1 -->
<g id="Node000001" class="node">
<title>Node1</title>
<g id="a_Node000001"><a xlink:href="dc/d14/struct_file_analyzer_test.html" target="_top" xlink:title=" ">
<polygon fill="white" stroke="#666666" points="264.88,-167.25 176.88,-167.25 176.88,-148 264.88,-148 264.88,-167.25"/>
<text text-anchor="middle" x="220.88" y="-153.75" font-family="Helvetica,sans-Serif" font-size="10.00">FileAnalyzerTest</text>
</a>
</g>
</g>
<!-- Node0&#45;&gt;Node1 -->
<g id="edge199_Node000000_Node000001" class="edge">
<title>Node0&#45;&gt;Node1</title>
<g id="a_edge199_Node000000_Node000001"><a xlink:title=" ">
<path fill="none" stroke="#63b8ff" d="M82.86,-100C101.25,-112.32 127.95,-128.88 153.25,-139.62 160.64,-142.76 168.72,-145.49 176.63,-147.81"/>
<polygon fill="#63b8ff" stroke="#63b8ff" points="85.05,-97.25 74.81,-94.5 81.1,-103.03 85.05,-97.25"/>
</a>
</g>
</g>
<!-- Node2 -->
<g id="Node000002" class="node">
<title>Node2</title>
<g id="a_Node000002"><a xlink:href="dd/daa/class_image_aligner_test.html" target="_top" xlink:title=" ">
<polygon fill="white" stroke="#666666" points="267.12,-130.25 174.62,-130.25 174.62,-111 267.12,-111 267.12,-130.25"/>
<text text-anchor="middle" x="220.88" y="-116.75" font-family="Helvetica,sans-Serif" font-size="10.00">ImageAlignerTest</text>
</a>
</g>
</g>
<!-- Node0&#45;&gt;Node2 -->
<g id="edge200_Node000000_Node000002" class="edge">
<title>Node0&#45;&gt;Node2</title>
<g id="a_edge200_Node000000_Node000002"><a xlink:title=" ">
<path fill="none" stroke="#63b8ff" d="M114.61,-96.32C134.71,-100.96 157.16,-106.14 176.14,-110.53"/>
<polygon fill="#63b8ff" stroke="#63b8ff" points="115.42,-92.92 104.89,-94.08 113.84,-99.74 115.42,-92.92"/>
</a>
</g>
</g>
<!-- Node3 -->
<g id="Node000003" class="node">
<title>Node3</title>
<g id="a_Node000003"><a xlink:href="df/dd2/struct_tag_value_raw_setter_test.html" target="_top" xlink:title=" ">
<polygon fill="white" stroke="#666666" points="282.12,-93.25 159.62,-93.25 159.62,-74 282.12,-74 282.12,-93.25"/>
<text text-anchor="middle" x="220.88" y="-79.75" font-family="Helvetica,sans-Serif" font-size="10.00">TagValueRawSetterTest</text>
</a>
</g>
</g>
<!-- Node0&#45;&gt;Node3 -->
<g id="edge201_Node000000_Node000003" class="edge">
<title>Node0&#45;&gt;Node3</title>
<g id="a_edge201_Node000000_Node000003"><a xlink:title=" ">
<path fill="none" stroke="#63b8ff" d="M128.76,-83.62C138.86,-83.62 149.21,-83.62 159.13,-83.62"/>
<polygon fill="#63b8ff" stroke="#63b8ff" points="128.99,-80.13 118.99,-83.63 128.99,-87.13 128.99,-80.13"/>
</a>
</g>
</g>
<!-- Node4 -->
<g id="Node000004" class="node">
<title>Node4</title>
<g id="a_Node000004"><a xlink:href="d4/d06/struct_tag_value_variant_setter_test.html" target="_top" xlink:title=" ">
<polygon fill="white" stroke="#666666" points="287.75,-56.25 154,-56.25 154,-37 287.75,-37 287.75,-56.25"/>
<text text-anchor="middle" x="220.88" y="-42.75" font-family="Helvetica,sans-Serif" font-size="10.00">TagValueVariantSetterTest</text>
</a>
</g>
</g>
<!-- Node0&#45;&gt;Node4 -->
<g id="edge202_Node000000_Node000004" class="edge">
<title>Node0&#45;&gt;Node4</title>
<g id="a_edge202_Node000000_Node000004"><a xlink:title=" ">
<path fill="none" stroke="#63b8ff" d="M114.61,-70.93C134.71,-66.29 157.16,-61.11 176.14,-56.72"/>
<polygon fill="#63b8ff" stroke="#63b8ff" points="113.84,-67.51 104.89,-73.17 115.42,-74.33 113.84,-67.51"/>
</a>
</g>
</g>
<!-- Node5 -->
<g id="Node000005" class="node">
<title>Node5</title>
<g id="a_Node000005"><a xlink:href="d9/d12/class_video_media_information_test.html" target="_top" xlink:title=" ">
<polygon fill="white" stroke="#666666" points="288.5,-19.25 153.25,-19.25 153.25,0 288.5,0 288.5,-19.25"/>
<text text-anchor="middle" x="220.88" y="-5.75" font-family="Helvetica,sans-Serif" font-size="10.00">VideoMediaInformationTest</text>
</a>
</g>
</g>
<!-- Node0&#45;&gt;Node5 -->
<g id="edge203_Node000000_Node000005" class="edge">
<title>Node0&#45;&gt;Node5</title>
<g id="a_edge203_Node000000_Node000005"><a xlink:title=" ">
<path fill="none" stroke="#63b8ff" d="M82.86,-67.25C101.25,-54.93 127.95,-38.37 153.25,-27.62 160.42,-24.58 168.24,-21.92 175.93,-19.65"/>
<polygon fill="#63b8ff" stroke="#63b8ff" points="81.1,-64.22 74.81,-72.75 85.05,-70 81.1,-64.22"/>
</a>
</g>
</g>
</g>
</svg>
