<?xml version="1.0" encoding="UTF-8" standalone="no"?>
<!DOCTYPE svg PUBLIC "-//W3C//DTD SVG 1.1//EN"
 "http://www.w3.org/Graphics/SVG/1.1/DTD/svg11.dtd">
<!-- Generated by graphviz version 7.0.5 (20221223.1930)
 -->
<!-- Title: Graphical Class Hierarchy Pages: 1 -->
<svg width="272pt" height="124pt"
 viewBox="0.00 0.00 272.00 123.50" xmlns="http://www.w3.org/2000/svg" xmlns:xlink="http://www.w3.org/1999/xlink">
<g id="graph0" class="graph" transform="scale(1 1) rotate(0) translate(4 119.5)">
<title>Graphical Class Hierarchy</title>
<!-- Node0 -->
<g id="node1" class="node">
<title>Node0</title>
<g id="a_node1"><a xlink:href="de/d42/struct_database_1_1_i_database_1_1_i_task.html" target="_top" xlink:title=" ">
<polygon fill="white" stroke="#666666" points="107,-78 0,-78 0,-48 107,-48 107,-78"/>
<text text-anchor="start" x="8" y="-66" font-family="Helvetica,sans-Serif" font-size="10.00">Database::IDatabase</text>
<text text-anchor="middle" x="53.5" y="-55" font-family="Helvetica,sans-Serif" font-size="10.00">::ITask</text>
</a>
</g>
</g>
<!-- Node1 -->
<g id="node2" class="node">
<title>Node1</title>
<g id="a_node2"><a xlink:href="d4/d35/struct_database_1_1_db_close_task.html" target="_top" xlink:title=" ">
<polygon fill="white" stroke="#666666" points="264,-115.5 143,-115.5 143,-96.5 264,-96.5 264,-115.5"/>
<text text-anchor="middle" x="203.5" y="-103.5" font-family="Helvetica,sans-Serif" font-size="10.00">Database::DbCloseTask</text>
</a>
</g>
</g>
<!-- Node0&#45;&gt;Node1 -->
<g id="edge1" class="edge">
<title>Node0&#45;&gt;Node1</title>
<path fill="none" stroke="#63b8ff" d="M117.72,-81.37C135.01,-86.39 153.1,-91.65 168.11,-96.01"/>
<polygon fill="#63b8ff" stroke="#63b8ff" points="119.13,-78.13 108.55,-78.7 117.18,-84.85 119.13,-78.13"/>
</g>
<!-- Node2 -->
<g id="node3" class="node">
<title>Node2</title>
<g id="a_node3"><a xlink:href="dd/d3e/struct_database_1_1_i_database_1_1_task.html" target="_top" xlink:title=" ">
<polygon fill="white" stroke="#666666" points="257,-78 150,-78 150,-48 257,-48 257,-78"/>
<text text-anchor="start" x="158" y="-66" font-family="Helvetica,sans-Serif" font-size="10.00">Database::IDatabase</text>
<text text-anchor="middle" x="203.5" y="-55" font-family="Helvetica,sans-Serif" font-size="10.00">::Task&lt; Callable &gt;</text>
</a>
</g>
</g>
<!-- Node0&#45;&gt;Node2 -->
<g id="edge2" class="edge">
<title>Node0&#45;&gt;Node2</title>
<path fill="none" stroke="#63b8ff" d="M118.61,-63C128.94,-63 139.54,-63 149.57,-63"/>
<polygon fill="#63b8ff" stroke="#63b8ff" points="118.61,-59.5 108.61,-63 118.61,-66.5 118.61,-59.5"/>
</g>
<!-- Node3 -->
<g id="node4" class="node">
<title>Node3</title>
<g id="a_node4"><a xlink:href="d0/dd8/class_observable_database_1_1_task.html" target="_top" xlink:title=" ">
<polygon fill="white" stroke="#666666" points="257,-30 150,-30 150,0 257,0 257,-30"/>
<text text-anchor="start" x="158" y="-18" font-family="Helvetica,sans-Serif" font-size="10.00">ObservableDatabase</text>
<text text-anchor="middle" x="203.5" y="-7" font-family="Helvetica,sans-Serif" font-size="10.00">&lt; T &gt;::Task</text>
</a>
</g>
</g>
<!-- Node0&#45;&gt;Node3 -->
<g id="edge3" class="edge">
<title>Node0&#45;&gt;Node3</title>
<path fill="none" stroke="#63b8ff" d="M113.08,-44C126.97,-39.5 141.62,-34.75 154.95,-30.42"/>
<polygon fill="#63b8ff" stroke="#63b8ff" points="112.01,-40.67 103.58,-47.08 114.17,-47.33 112.01,-40.67"/>
</g>
</g>
</svg>
