<?xml version="1.0" encoding="UTF-8" standalone="no"?>
<!DOCTYPE svg PUBLIC "-//W3C//DTD SVG 1.1//EN"
 "http://www.w3.org/Graphics/SVG/1.1/DTD/svg11.dtd">
<!-- Generated by graphviz version 9.0.0 (20230911.1827)
 -->
<!-- Title: Version::build Pages: 1 -->
<svg width="234pt" height="64pt"
 viewBox="0.00 0.00 233.50 64.25" xmlns="http://www.w3.org/2000/svg" xmlns:xlink="http://www.w3.org/1999/xlink">
<g id="graph0" class="graph" transform="scale(1 1) rotate(0) translate(4 60.25)">
<title>Version::build</title>
<!-- Node1 -->
<g id="Node000001" class="node">
<title>Node1</title>
<g id="a_Node000001"><a xlink:title=" ">
<polygon fill="#999999" stroke="#666666" points="225.5,-37.25 151.75,-37.25 151.75,-18 225.5,-18 225.5,-37.25"/>
<text text-anchor="middle" x="188.62" y="-23.75" font-family="Helvetica,sans-Serif" font-size="10.00">Version::build</text>
</a>
</g>
</g>
<!-- Node2 -->
<g id="Node000002" class="node">
<title>Node2</title>
<g id="a_Node000002"><a xlink:href="../../de/d34/class_version.html#ab6fd1cf756f1379ed5e791ec4e29d261" target="_top" xlink:title=" ">
<polygon fill="#fff0f0" stroke="red" points="107.12,-56.25 8.62,-56.25 8.62,-37 107.12,-37 107.12,-56.25"/>
<text text-anchor="middle" x="57.88" y="-42.75" font-family="Helvetica,sans-Serif" font-size="10.00">Version::fromString</text>
</a>
</g>
</g>
<!-- Node1&#45;&gt;Node2 -->
<g id="edge1_Node000001_Node000002" class="edge">
<title>Node1&#45;&gt;Node2</title>
<g id="a_edge1_Node000001_Node000002"><a xlink:title=" ">
<path fill="none" stroke="#63b8ff" d="M140.13,-34.63C129.42,-36.21 118.05,-37.89 107.3,-39.48"/>
<polygon fill="#63b8ff" stroke="#63b8ff" points="140.54,-38.11 149.92,-33.19 139.52,-31.19 140.54,-38.11"/>
</a>
</g>
</g>
<!-- Node4 -->
<g id="Node000004" class="node">
<title>Node4</title>
<g id="a_Node000004"><a xlink:href="../../de/d34/class_version.html#acaa566a12459bc72c5f0755ff1b7fc01" target="_top" xlink:title=" ">
<polygon fill="#fff0f0" stroke="red" points="115.75,-19.25 0,-19.25 0,0 115.75,0 115.75,-19.25"/>
<text text-anchor="middle" x="57.88" y="-5.75" font-family="Helvetica,sans-Serif" font-size="10.00">Version::fromTagName</text>
</a>
</g>
</g>
<!-- Node1&#45;&gt;Node4 -->
<g id="edge2_Node000001_Node000004" class="edge">
<title>Node1&#45;&gt;Node4</title>
<g id="a_edge2_Node000001_Node000004"><a xlink:title=" ">
<path fill="none" stroke="#63b8ff" d="M140.2,-20.99C132.33,-19.89 124.09,-18.74 116,-17.61"/>
<polygon fill="#63b8ff" stroke="#63b8ff" points="139.53,-24.44 149.92,-22.35 140.5,-17.5 139.53,-24.44"/>
</a>
</g>
</g>
</g>
</svg>
