<?xml version="1.0" encoding="UTF-8" standalone="no"?>
<!DOCTYPE svg PUBLIC "-//W3C//DTD SVG 1.1//EN"
 "http://www.w3.org/Graphics/SVG/1.1/DTD/svg11.dtd">
<!-- Generated by graphviz version 12.2.0 (20241103.1931)
 -->
<!-- Title: src/gui/desktop/utils/photo_delta_fetcher_binding.hpp Pages: 1 -->
<svg width="217pt" height="172pt"
 viewBox="0.00 0.00 216.66 171.50" xmlns="http://www.w3.org/2000/svg" xmlns:xlink="http://www.w3.org/1999/xlink">
<g id="graph0" class="graph" transform="scale(1 1) rotate(0) translate(4 167.5)">
<title>src/gui/desktop/utils/photo_delta_fetcher_binding.hpp</title>
<!-- Node1 -->
<g id="Node000001" class="node">
<title>Node1</title>
<g id="a_Node000001"><a xlink:title=" ">
<polygon fill="#999999" stroke="#666666" points="134.96,-163.5 30.46,-163.5 30.46,-121.75 134.96,-121.75 134.96,-163.5"/>
<text text-anchor="start" x="38.46" y="-150" font-family="Helvetica,sans-Serif" font-size="10.00">src/gui/desktop/utils</text>
<text text-anchor="start" x="38.46" y="-138.75" font-family="Helvetica,sans-Serif" font-size="10.00">/photo_delta_fetcher</text>
<text text-anchor="middle" x="82.71" y="-127.5" font-family="Helvetica,sans-Serif" font-size="10.00">_binding.hpp</text>
</a>
</g>
</g>
<!-- Node2 -->
<g id="Node000002" class="node">
<title>Node2</title>
<g id="a_Node000002"><a xlink:title=" ">
<polygon fill="#e0e0e0" stroke="#999999" points="94.96,-19.25 44.46,-19.25 44.46,0 94.96,0 94.96,-19.25"/>
<text text-anchor="middle" x="69.71" y="-5.75" font-family="Helvetica,sans-Serif" font-size="10.00">memory</text>
</a>
</g>
</g>
<!-- Node1&#45;&gt;Node2 -->
<g id="edge1_Node000001_Node000002" class="edge">
<title>Node1&#45;&gt;Node2</title>
<g id="a_edge1_Node000001_Node000002"><a xlink:title=" ">
<path fill="none" stroke="#63b8ff" d="M40,-121.44C26.16,-112.57 12.39,-100.71 4.71,-85.75 -1.49,-73.69 -1.61,-67.24 4.71,-55.25 11.58,-42.19 24.19,-32.22 36.49,-25.05"/>
<polygon fill="#63b8ff" stroke="#63b8ff" points="38.09,-28.16 45.28,-20.38 34.8,-21.98 38.09,-28.16"/>
</a>
</g>
</g>
<!-- Node3 -->
<g id="Node000003" class="node">
<title>Node3</title>
<g id="a_Node000003"><a xlink:title=" ">
<polygon fill="#e0e0e0" stroke="#999999" points="51.96,-80.12 13.46,-80.12 13.46,-60.88 51.96,-60.88 51.96,-80.12"/>
<text text-anchor="middle" x="32.71" y="-66.62" font-family="Helvetica,sans-Serif" font-size="10.00">utility</text>
</a>
</g>
</g>
<!-- Node1&#45;&gt;Node3 -->
<g id="edge2_Node000001_Node000003" class="edge">
<title>Node1&#45;&gt;Node3</title>
<g id="a_edge2_Node000001_Node000003"><a xlink:title=" ">
<path fill="none" stroke="#63b8ff" d="M68.24,-121.34C61.05,-111.25 52.43,-99.17 45.49,-89.43"/>
<polygon fill="#63b8ff" stroke="#63b8ff" points="48.52,-87.64 39.86,-81.53 42.82,-91.71 48.52,-87.64"/>
</a>
</g>
</g>
<!-- Node4 -->
<g id="Node000004" class="node">
<title>Node4</title>
<g id="a_Node000004"><a xlink:title=" ">
<polygon fill="#e0e0e0" stroke="#999999" points="203.71,-19.25 151.71,-19.25 151.71,0 203.71,0 203.71,-19.25"/>
<text text-anchor="middle" x="177.71" y="-5.75" font-family="Helvetica,sans-Serif" font-size="10.00">QObject</text>
</a>
</g>
</g>
<!-- Node1&#45;&gt;Node4 -->
<g id="edge3_Node000001_Node000004" class="edge">
<title>Node1&#45;&gt;Node4</title>
<g id="a_edge3_Node000001_Node000004"><a xlink:title=" ">
<path fill="none" stroke="#63b8ff" d="M135.27,-131.17C160.53,-123.22 188.56,-109.43 203.71,-85.75 215.16,-67.84 203.42,-44.29 192.25,-28.36"/>
<polygon fill="#63b8ff" stroke="#63b8ff" points="195.32,-26.62 186.49,-20.76 189.74,-30.85 195.32,-26.62"/>
</a>
</g>
</g>
<!-- Node5 -->
<g id="Node000005" class="node">
<title>Node5</title>
<g id="a_Node000005"><a xlink:href="../../d7/dfc/photo__delta__fetcher_8hpp.html" target="_top" xlink:title=" ">
<polygon fill="#fff0f0" stroke="red" points="195.08,-85.75 70.33,-85.75 70.33,-55.25 195.08,-55.25 195.08,-85.75"/>
<text text-anchor="start" x="78.33" y="-72.25" font-family="Helvetica,sans-Serif" font-size="10.00">database/database_tools</text>
<text text-anchor="middle" x="132.71" y="-61" font-family="Helvetica,sans-Serif" font-size="10.00">/photo_delta_fetcher.hpp</text>
</a>
</g>
</g>
<!-- Node1&#45;&gt;Node5 -->
<g id="edge4_Node000001_Node000005" class="edge">
<title>Node1&#45;&gt;Node5</title>
<g id="a_edge4_Node000001_Node000005"><a xlink:title=" ">
<path fill="none" stroke="#63b8ff" d="M97.17,-121.34C102.97,-113.2 109.7,-103.76 115.74,-95.3"/>
<polygon fill="#63b8ff" stroke="#63b8ff" points="118.57,-97.36 121.52,-87.18 112.87,-93.29 118.57,-97.36"/>
</a>
</g>
</g>
<!-- Node5&#45;&gt;Node2 -->
<g id="edge5_Node000005_Node000002" class="edge">
<title>Node5&#45;&gt;Node2</title>
<g id="a_edge5_Node000005_Node000002"><a xlink:title=" ">
<path fill="none" stroke="#63b8ff" d="M117.13,-54.95C108.19,-46.59 96.91,-36.05 87.6,-27.35"/>
<polygon fill="#63b8ff" stroke="#63b8ff" points="90.22,-25.01 80.52,-20.73 85.44,-30.12 90.22,-25.01"/>
</a>
</g>
</g>
<!-- Node5&#45;&gt;Node4 -->
<g id="edge6_Node000005_Node000004" class="edge">
<title>Node5&#45;&gt;Node4</title>
<g id="a_edge6_Node000005_Node000004"><a xlink:title=" ">
<path fill="none" stroke="#63b8ff" d="M143.83,-54.95C149.89,-47.02 157.45,-37.13 163.88,-28.71"/>
<polygon fill="#63b8ff" stroke="#63b8ff" points="166.56,-30.97 169.85,-20.9 161,-26.72 166.56,-30.97"/>
</a>
</g>
</g>
</g>
</svg>
