<?xml version="1.0" encoding="UTF-8" standalone="no"?>
<!DOCTYPE svg PUBLIC "-//W3C//DTD SVG 1.1//EN"
 "http://www.w3.org/Graphics/SVG/1.1/DTD/svg11.dtd">
<!-- Generated by graphviz version 12.2.0 (20241103.1931)
 -->
<!-- Title: JSon::deserialize Pages: 1 -->
<svg width="265pt" height="187pt"
 viewBox="0.00 0.00 265.00 186.88" xmlns="http://www.w3.org/2000/svg" xmlns:xlink="http://www.w3.org/1999/xlink">

<svg id="main" version="1.1" xmlns="http://www.w3.org/2000/svg" xmlns:xlink="http://www.w3.org/1999/xlink" xml:space="preserve">

<style type="text/css"><![CDATA[
.node, .edge {opacity: 0.7;}
.node.selected, .edge.selected {opacity: 1;}
.edge:hover path { stroke: red; }
.edge:hover polygon { stroke: red; fill: red; }
]]></style>
<script type="application/ecmascript" xlink:href="../../svg.min.js"/>
<svg id="graph" class="graph">
<g id="graph0" class="graph" transform="scale(1 1) rotate(0) translate(4 182.88)">
<title>JSon::deserialize</title>
<!-- Node1 -->
<g id="Node000001" class="node">
<title>Node1</title>
<g id="a_Node000001"><a xlink:title=" ">
<polygon fill="#999999" stroke="#666666" points="257,-93.25 168.25,-93.25 168.25,-74 257,-74 257,-93.25"/>
<text text-anchor="middle" x="212.62" y="-79.75" font-family="Helvetica,sans-Serif" font-size="10.00">JSon::deserialize</text>
</a>
</g>
</g>
<!-- Node2 -->
<g id="Node000002" class="node">
<title>Node2</title>
<g id="a_Node000002"><a xlink:href="../../d6/db9/class_database_1_1_json_to_backend.html#a312265e80dffd02c61315a8f265e4067" target="_top" xlink:title=" ">
<polygon fill="#fff0f0" stroke="red" points="132.25,-178.88 0,-178.88 0,-148.38 132.25,-148.38 132.25,-178.88"/>
<text text-anchor="start" x="8" y="-165.38" font-family="Helvetica,sans-Serif" font-size="10.00">Database::JsonToBackend</text>
<text text-anchor="middle" x="66.12" y="-154.12" font-family="Helvetica,sans-Serif" font-size="10.00">::parsePhoto</text>
</a>
</g>
</g>
<!-- Node1&#45;&gt;Node2 -->
<g id="edge1_Node000001_Node000002" class="edge">
<title>Node1&#45;&gt;Node2</title>
<g id="a_edge1_Node000001_Node000002"><a xlink:title=" ">
<path fill="none" stroke="#63b8ff" d="M190.91,-100.52C175.43,-112.56 153.39,-128.52 132.25,-139.62 126.6,-142.6 120.49,-145.36 114.37,-147.89"/>
<polygon fill="#63b8ff" stroke="#63b8ff" points="192.78,-103.51 198.44,-94.55 188.43,-98.02 192.78,-103.51"/>
</a>
</g>
</g>
<!-- Node5 -->
<g id="Node000005" class="node">
<title>Node5</title>
<g id="a_Node000005"><a xlink:href="../../dc/d6c/json__serializer__tests_8cpp.html#a63d587b78559ac1c86a9377d8b1a55a6" target="_top" xlink:title=" ">
<polygon fill="white" stroke="#666666" points="86.5,-130.25 45.75,-130.25 45.75,-111 86.5,-111 86.5,-130.25"/>
<text text-anchor="middle" x="66.12" y="-116.75" font-family="Helvetica,sans-Serif" font-size="10.00">TEST</text>
</a>
</g>
</g>
<!-- Node1&#45;&gt;Node5 -->
<g id="edge2_Node000001_Node000005" class="edge">
<title>Node1&#45;&gt;Node5</title>
<g id="a_edge2_Node000001_Node000005"><a xlink:title=" ">
<path fill="none" stroke="#63b8ff" d="M161.05,-96.57C135.37,-103.15 105.66,-110.76 86.65,-115.63"/>
<polygon fill="#63b8ff" stroke="#63b8ff" points="161.85,-99.98 170.67,-94.11 160.12,-93.2 161.85,-99.98"/>
</a>
</g>
</g>
<!-- Node6 -->
<g id="Node000006" class="node">
<title>Node6</title>
<g id="a_Node000006"><a xlink:href="../../dc/d6c/json__serializer__tests_8cpp.html#a8fed0499c4ed8372b77cf8f2fd9ca14b" target="_top" xlink:title=" ">
<polygon fill="white" stroke="#666666" points="86.5,-93.25 45.75,-93.25 45.75,-74 86.5,-74 86.5,-93.25"/>
<text text-anchor="middle" x="66.12" y="-79.75" font-family="Helvetica,sans-Serif" font-size="10.00">TEST</text>
</a>
</g>
</g>
<!-- Node1&#45;&gt;Node6 -->
<g id="edge3_Node000001_Node000006" class="edge">
<title>Node1&#45;&gt;Node6</title>
<g id="a_edge3_Node000001_Node000006"><a xlink:title=" ">
<path fill="none" stroke="#63b8ff" d="M156.46,-83.62C131.89,-83.62 104.52,-83.62 86.63,-83.62"/>
<polygon fill="#63b8ff" stroke="#63b8ff" points="156.36,-87.13 166.36,-83.63 156.36,-80.13 156.36,-87.13"/>
</a>
</g>
</g>
<!-- Node7 -->
<g id="Node000007" class="node">
<title>Node7</title>
<g id="a_Node000007"><a xlink:href="../../dc/d6c/json__serializer__tests_8cpp.html#a3da4d0f76970670f1abcb49aad4dc4ce" target="_top" xlink:title=" ">
<polygon fill="white" stroke="#666666" points="86.5,-56.25 45.75,-56.25 45.75,-37 86.5,-37 86.5,-56.25"/>
<text text-anchor="middle" x="66.12" y="-42.75" font-family="Helvetica,sans-Serif" font-size="10.00">TEST</text>
</a>
</g>
</g>
<!-- Node1&#45;&gt;Node7 -->
<g id="edge4_Node000001_Node000007" class="edge">
<title>Node1&#45;&gt;Node7</title>
<g id="a_edge4_Node000001_Node000007"><a xlink:title=" ">
<path fill="none" stroke="#63b8ff" d="M161.05,-70.68C135.37,-64.1 105.66,-56.49 86.65,-51.62"/>
<polygon fill="#63b8ff" stroke="#63b8ff" points="160.12,-74.05 170.67,-73.14 161.85,-67.27 160.12,-74.05"/>
</a>
</g>
</g>
<!-- Node8 -->
<g id="Node000008" class="node">
<title>Node8</title>
<g id="a_Node000008"><a xlink:href="../../dc/d6c/json__serializer__tests_8cpp.html#a28904473abc9fc922f1ec16240ee112b" target="_top" xlink:title=" ">
<polygon fill="white" stroke="#666666" points="86.5,-19.25 45.75,-19.25 45.75,0 86.5,0 86.5,-19.25"/>
<text text-anchor="middle" x="66.12" y="-5.75" font-family="Helvetica,sans-Serif" font-size="10.00">TEST</text>
</a>
</g>
</g>
<!-- Node1&#45;&gt;Node8 -->
<g id="edge5_Node000001_Node000008" class="edge">
<title>Node1&#45;&gt;Node8</title>
<g id="a_edge5_Node000001_Node000008"><a xlink:title=" ">
<path fill="none" stroke="#63b8ff" d="M191.44,-66.41C176.09,-54.08 153.96,-37.9 132.25,-27.62 117.72,-20.75 100.09,-16.08 86.84,-13.22"/>
<polygon fill="#63b8ff" stroke="#63b8ff" points="188.95,-68.89 198.9,-72.54 193.4,-63.48 188.95,-68.89"/>
</a>
</g>
</g>
</g>
</svg>
</svg>

<style type='text/css'>
<![CDATA[
[data-mouse-over-selected='false'] { opacity: 0.7; }
[data-mouse-over-selected='true']  { opacity: 1.0; }
]]>
</style>
<script type="application/ecmascript"><![CDATA[
document.addEventListener('DOMContentLoaded', (event) => {
  highlightEdges();
  highlightAdjacentNodes();
});
]]></script>
</svg>
