<?xml version="1.0" encoding="UTF-8" standalone="no"?>
<!DOCTYPE svg PUBLIC "-//W3C//DTD SVG 1.1//EN"
 "http://www.w3.org/Graphics/SVG/1.1/DTD/svg11.dtd">
<!-- Generated by graphviz version 12.2.0 (20241103.1931)
 -->
<!-- Title: Database::MemoryBackend::addPhotos Pages: 1 -->
<svg width="318pt" height="174pt"
 viewBox="0.00 0.00 317.50 173.88" xmlns="http://www.w3.org/2000/svg" xmlns:xlink="http://www.w3.org/1999/xlink">

<svg id="main" version="1.1" xmlns="http://www.w3.org/2000/svg" xmlns:xlink="http://www.w3.org/1999/xlink" xml:space="preserve">

<style type="text/css"><![CDATA[
.node, .edge {opacity: 0.7;}
.node.selected, .edge.selected {opacity: 1;}
.edge:hover path { stroke: red; }
.edge:hover polygon { stroke: red; fill: red; }
]]></style>
<script type="application/ecmascript" xlink:href="../../svg.min.js"/>
<svg id="graph" class="graph">
<g id="graph0" class="graph" transform="scale(1 1) rotate(0) translate(4 169.88)">
<title>Database::MemoryBackend::addPhotos</title>
<!-- Node1 -->
<g id="Node000001" class="node">
<title>Node1</title>
<g id="a_Node000001"><a xlink:title="Add photos to database.">
<polygon fill="#999999" stroke="#666666" points="134.5,-103.5 0,-103.5 0,-73 134.5,-73 134.5,-103.5"/>
<text text-anchor="start" x="8" y="-90" font-family="Helvetica,sans-Serif" font-size="10.00">Database::MemoryBackend</text>
<text text-anchor="middle" x="67.25" y="-78.75" font-family="Helvetica,sans-Serif" font-size="10.00">::addPhotos</text>
</a>
</g>
</g>
<!-- Node2 -->
<g id="Node000002" class="node">
<title>Node2</title>
<g id="a_Node000002"><a xlink:href="../../db/de4/class_person_name.html#aee0d4971d8f4ed356107c4b635830e6d" target="_top" xlink:title=" ">
<polygon fill="white" stroke="#666666" points="290.75,-165.88 189.25,-165.88 189.25,-146.62 290.75,-146.62 290.75,-165.88"/>
<text text-anchor="middle" x="240" y="-152.38" font-family="Helvetica,sans-Serif" font-size="10.00">PersonName::name</text>
</a>
</g>
</g>
<!-- Node1&#45;&gt;Node2 -->
<g id="edge1_Node000001_Node000002" class="edge">
<title>Node1&#45;&gt;Node2</title>
<g id="a_edge1_Node000001_Node000002"><a xlink:title=" ">
<path fill="none" stroke="#63b8ff" d="M97.18,-103.81C117.34,-114.22 145.06,-127.71 170.5,-137.25 175.85,-139.26 181.51,-141.16 187.19,-142.93"/>
<polygon fill="#63b8ff" stroke="#63b8ff" points="186.02,-146.23 196.6,-145.73 188.02,-139.52 186.02,-146.23"/>
</a>
</g>
</g>
<!-- Node3 -->
<g id="Node000003" class="node">
<title>Node3</title>
<g id="a_Node000003"><a xlink:href="../../da/dba/class_database_1_1_memory_backend.html#a9a4c01c32827fd52e6491b096165fe1d" target="_top" xlink:title="begin transaction">
<polygon fill="white" stroke="#666666" points="307.25,-128.5 172.75,-128.5 172.75,-98 307.25,-98 307.25,-128.5"/>
<text text-anchor="start" x="180.75" y="-115" font-family="Helvetica,sans-Serif" font-size="10.00">Database::MemoryBackend</text>
<text text-anchor="middle" x="240" y="-103.75" font-family="Helvetica,sans-Serif" font-size="10.00">::openTransaction</text>
</a>
</g>
</g>
<!-- Node1&#45;&gt;Node3 -->
<g id="edge2_Node000001_Node000003" class="edge">
<title>Node1&#45;&gt;Node3</title>
<g id="a_edge2_Node000001_Node000003"><a xlink:title=" ">
<path fill="none" stroke="#63b8ff" d="M134.76,-97.99C143.45,-99.26 152.41,-100.57 161.27,-101.87"/>
<polygon fill="#63b8ff" stroke="#63b8ff" points="160.5,-105.29 170.9,-103.28 161.51,-98.37 160.5,-105.29"/>
</a>
</g>
</g>
<!-- Node4 -->
<g id="Node000004" class="node">
<title>Node4</title>
<g id="a_Node000004"><a xlink:href="../../da/dba/class_database_1_1_memory_backend.html#abf8aee9449839ceacd659cc249f0d26f" target="_top" xlink:title=" ">
<polygon fill="white" stroke="#666666" points="309.5,-79.5 170.5,-79.5 170.5,-49 309.5,-49 309.5,-79.5"/>
<text text-anchor="start" x="178.5" y="-66" font-family="Helvetica,sans-Serif" font-size="10.00">Database::MemoryBackend</text>
<text text-anchor="middle" x="240" y="-54.75" font-family="Helvetica,sans-Serif" font-size="10.00">::peopleInformationAccessor</text>
</a>
</g>
</g>
<!-- Node1&#45;&gt;Node4 -->
<g id="edge3_Node000001_Node000004" class="edge">
<title>Node1&#45;&gt;Node4</title>
<g id="a_edge3_Node000001_Node000004"><a xlink:title=" ">
<path fill="none" stroke="#63b8ff" d="M134.76,-78.9C142.65,-77.79 150.77,-76.65 158.82,-75.52"/>
<polygon fill="#63b8ff" stroke="#63b8ff" points="159.23,-79 168.64,-74.14 158.25,-72.07 159.23,-79"/>
</a>
</g>
</g>
<!-- Node5 -->
<g id="Node000005" class="node">
<title>Node5</title>
<g id="a_Node000005"><a xlink:href="../../da/dba/class_database_1_1_memory_backend.html#ab4a7937bc028e424dc43cafeb61884cd" target="_top" xlink:title="get person details">
<polygon fill="white" stroke="#666666" points="307.25,-30.5 172.75,-30.5 172.75,0 307.25,0 307.25,-30.5"/>
<text text-anchor="start" x="180.75" y="-17" font-family="Helvetica,sans-Serif" font-size="10.00">Database::MemoryBackend</text>
<text text-anchor="middle" x="240" y="-5.75" font-family="Helvetica,sans-Serif" font-size="10.00">::person</text>
</a>
</g>
</g>
<!-- Node1&#45;&gt;Node5 -->
<g id="edge4_Node000001_Node000005" class="edge">
<title>Node1&#45;&gt;Node5</title>
<g id="a_edge4_Node000001_Node000005"><a xlink:title=" ">
<path fill="none" stroke="#63b8ff" d="M99.7,-72.6C119.76,-62.84 146.42,-50.27 170.5,-40.25 174.77,-38.47 179.22,-36.69 183.71,-34.95"/>
<polygon fill="#63b8ff" stroke="#63b8ff" points="184.68,-38.32 192.78,-31.49 182.19,-31.78 184.68,-38.32"/>
</a>
</g>
</g>
</g>
</svg>
</svg>

<style type='text/css'>
<![CDATA[
[data-mouse-over-selected='false'] { opacity: 0.7; }
[data-mouse-over-selected='true']  { opacity: 1.0; }
]]>
</style>
<script type="application/ecmascript"><![CDATA[
document.addEventListener('DOMContentLoaded', (event) => {
  highlightEdges();
  highlightAdjacentNodes();
});
]]></script>
</svg>
