<?xml version="1.0" encoding="UTF-8" standalone="no"?>
<!DOCTYPE svg PUBLIC "-//W3C//DTD SVG 1.1//EN"
 "http://www.w3.org/Graphics/SVG/1.1/DTD/svg11.dtd">
<!-- Generated by graphviz version 7.0.5 (20221223.1930)
 -->
<!-- Title: Database::MemoryBackend::get Pages: 1 -->
<svg width="332pt" height="86pt"
 viewBox="0.00 0.00 332.00 86.00" xmlns="http://www.w3.org/2000/svg" xmlns:xlink="http://www.w3.org/1999/xlink">
<g id="graph0" class="graph" transform="scale(1 1) rotate(0) translate(4 82)">
<title>Database::MemoryBackend::get</title>
<!-- Node1 -->
<g id="node1" class="node">
<title>Node1</title>
<g id="a_node1"><a xlink:title="get flag value">
<polygon fill="#999999" stroke="#666666" points="324,-48.5 171,-48.5 171,-29.5 324,-29.5 324,-48.5"/>
<text text-anchor="middle" x="247.5" y="-36.5" font-family="Helvetica,sans-Serif" font-size="10.00">Database::MemoryBackend::get</text>
</a>
</g>
</g>
<!-- Node2 -->
<g id="node2" class="node">
<title>Node2</title>
<g id="a_node2"><a xlink:href="../../da/dba/class_database_1_1_memory_backend.html#a49d7baf48856e386560b0dde241079f2" target="_top" xlink:title="clear bits for provided flag">
<polygon fill="white" stroke="#666666" points="135,-78 0,-78 0,-48 135,-48 135,-78"/>
<text text-anchor="start" x="8" y="-66" font-family="Helvetica,sans-Serif" font-size="10.00">Database::MemoryBackend</text>
<text text-anchor="middle" x="67.5" y="-55" font-family="Helvetica,sans-Serif" font-size="10.00">::clearBits</text>
</a>
</g>
</g>
<!-- Node1&#45;&gt;Node2 -->
<g id="edge1" class="edge">
<title>Node1&#45;&gt;Node2</title>
<path fill="none" stroke="#63b8ff" d="M161.21,-50.5C152.54,-51.67 143.82,-52.84 135.39,-53.98"/>
<polygon fill="#63b8ff" stroke="#63b8ff" points="161.62,-53.98 171.06,-49.17 160.68,-47.04 161.62,-53.98"/>
</g>
<!-- Node3 -->
<g id="node3" class="node">
<title>Node3</title>
<g id="a_node3"><a xlink:href="../../da/dba/class_database_1_1_memory_backend.html#a68bbcf60445b4c85ddc325e2c70e3fc6" target="_top" xlink:title="set bits for provided flag">
<polygon fill="white" stroke="#666666" points="135,-30 0,-30 0,0 135,0 135,-30"/>
<text text-anchor="start" x="8" y="-18" font-family="Helvetica,sans-Serif" font-size="10.00">Database::MemoryBackend</text>
<text text-anchor="middle" x="67.5" y="-7" font-family="Helvetica,sans-Serif" font-size="10.00">::setBits</text>
</a>
</g>
</g>
<!-- Node1&#45;&gt;Node3 -->
<g id="edge2" class="edge">
<title>Node1&#45;&gt;Node3</title>
<path fill="none" stroke="#63b8ff" d="M161.21,-27.5C152.54,-26.33 143.82,-25.16 135.39,-24.02"/>
<polygon fill="#63b8ff" stroke="#63b8ff" points="160.68,-30.96 171.06,-28.83 161.62,-24.02 160.68,-30.96"/>
</g>
</g>
</svg>
