<?xml version="1.0" encoding="UTF-8" standalone="no"?>
<!DOCTYPE svg PUBLIC "-//W3C//DTD SVG 1.1//EN"
 "http://www.w3.org/Graphics/SVG/1.1/DTD/svg11.dtd">
<!-- Generated by graphviz version 7.0.5 (20221223.1930)
 -->
<!-- Title: src/gui/desktop/utils/batch_face_detector.hpp Pages: 1 -->
<svg width="667pt" height="214pt"
 viewBox="0.00 0.00 666.88 214.00" xmlns="http://www.w3.org/2000/svg" xmlns:xlink="http://www.w3.org/1999/xlink">
<g id="graph0" class="graph" transform="scale(1 1) rotate(0) translate(4 210)">
<title>src/gui/desktop/utils/batch_face_detector.hpp</title>
<!-- Node1 -->
<g id="node1" class="node">
<title>Node1</title>
<g id="a_node1"><a xlink:title=" ">
<polygon fill="#999999" stroke="#666666" points="394.5,-206 268.5,-206 268.5,-176 394.5,-176 394.5,-206"/>
<text text-anchor="start" x="276.5" y="-194" font-family="Helvetica,sans-Serif" font-size="10.00">src/gui/desktop/utils</text>
<text text-anchor="middle" x="331.5" y="-183" font-family="Helvetica,sans-Serif" font-size="10.00">/batch_face_detector.hpp</text>
</a>
</g>
</g>
<!-- Node2 -->
<g id="node2" class="node">
<title>Node2</title>
<g id="a_node2"><a xlink:title=" ">
<polygon fill="#e0e0e0" stroke="#999999" points="43,-134.5 0,-134.5 0,-115.5 43,-115.5 43,-134.5"/>
<text text-anchor="middle" x="21.5" y="-122.5" font-family="Helvetica,sans-Serif" font-size="10.00">deque</text>
</a>
</g>
</g>
<!-- Node1&#45;&gt;Node2 -->
<g id="edge1" class="edge">
<title>Node1&#45;&gt;Node2</title>
<path fill="none" stroke="#63b8ff" d="M268.15,-181.93C212.11,-173.97 128.46,-160.07 57.5,-140 56.12,-139.61 54.72,-139.19 53.31,-138.74"/>
<polygon fill="#63b8ff" stroke="#63b8ff" points="54.61,-135.49 44.02,-135.48 52.29,-142.09 54.61,-135.49"/>
</g>
<!-- Node3 -->
<g id="node3" class="node">
<title>Node3</title>
<g id="a_node3"><a xlink:title=" ">
<polygon fill="#e0e0e0" stroke="#999999" points="534,-19 481,-19 481,0 534,0 534,-19"/>
<text text-anchor="middle" x="507.5" y="-7" font-family="Helvetica,sans-Serif" font-size="10.00">QObject</text>
</a>
</g>
</g>
<!-- Node1&#45;&gt;Node3 -->
<g id="edge2" class="edge">
<title>Node1&#45;&gt;Node3</title>
<path fill="none" stroke="#63b8ff" d="M394.98,-189.34C477.97,-186.98 616.56,-177.38 648.5,-140 688.7,-92.96 595.86,-45.85 542.22,-23.65"/>
<polygon fill="#63b8ff" stroke="#63b8ff" points="543.74,-20.49 533.15,-19.99 541.12,-26.98 543.74,-20.49"/>
</g>
<!-- Node4 -->
<g id="node4" class="node">
<title>Node4</title>
<g id="a_node4"><a xlink:href="../../d7/d2b/idatabase_8hpp.html" target="_top" xlink:title=" ">
<polygon fill="#fff0f0" stroke="red" points="205,-74 86,-74 86,-55 205,-55 205,-74"/>
<text text-anchor="middle" x="145.5" y="-62" font-family="Helvetica,sans-Serif" font-size="10.00">database/idatabase.hpp</text>
</a>
</g>
</g>
<!-- Node1&#45;&gt;Node4 -->
<g id="edge3" class="edge">
<title>Node1&#45;&gt;Node4</title>
<path fill="none" stroke="#63b8ff" d="M268.19,-185.72C204.46,-179.94 112.52,-167.05 90.5,-140 82.08,-129.66 84.76,-122.03 90.5,-110 96.33,-97.78 107.34,-87.83 117.99,-80.46"/>
<polygon fill="#63b8ff" stroke="#63b8ff" points="119.65,-83.55 126.23,-75.24 115.9,-77.64 119.65,-83.55"/>
</g>
<!-- Node46 -->
<g id="node5" class="node">
<title>Node46</title>
<g id="a_node5"><a xlink:href="../../d6/d1f/icore__factory__accessor_8hpp.html" target="_top" xlink:title=" ">
<polygon fill="white" stroke="#666666" points="303.5,-140 209.5,-140 209.5,-110 303.5,-110 303.5,-140"/>
<text text-anchor="start" x="217.5" y="-128" font-family="Helvetica,sans-Serif" font-size="10.00">core/icore_factory</text>
<text text-anchor="middle" x="256.5" y="-117" font-family="Helvetica,sans-Serif" font-size="10.00">_accessor.hpp</text>
</a>
</g>
</g>
<!-- Node1&#45;&gt;Node46 -->
<g id="edge5" class="edge">
<title>Node1&#45;&gt;Node46</title>
<path fill="none" stroke="#63b8ff" d="M314.86,-175.8C305.21,-167.57 292.87,-157.04 282.03,-147.78"/>
<polygon fill="#63b8ff" stroke="#63b8ff" points="284.39,-145.2 274.51,-141.37 279.84,-150.52 284.39,-145.2"/>
</g>
<!-- Node47 -->
<g id="node6" class="node">
<title>Node47</title>
<g id="a_node6"><a xlink:href="../../d7/dfc/ilogger_8hpp.html" target="_top" xlink:title=" ">
<polygon fill="#fff0f0" stroke="red" points="341,-74 256,-74 256,-55 341,-55 341,-74"/>
<text text-anchor="middle" x="298.5" y="-62" font-family="Helvetica,sans-Serif" font-size="10.00">core/ilogger.hpp</text>
</a>
</g>
</g>
<!-- Node1&#45;&gt;Node47 -->
<g id="edge6" class="edge">
<title>Node1&#45;&gt;Node47</title>
<path fill="none" stroke="#63b8ff" d="M328.44,-175.76C324.92,-159.7 318.8,-132.84 312.5,-110 310.24,-101.8 307.48,-92.84 305.01,-85.13"/>
<polygon fill="#63b8ff" stroke="#63b8ff" points="308.38,-84.17 301.95,-75.75 301.72,-86.34 308.38,-84.17"/>
</g>
<!-- Node49 -->
<g id="node7" class="node">
<title>Node49</title>
<g id="a_node7"><a xlink:href="../../d5/d80/itask__executor_8hpp.html" target="_top" xlink:title=" ">
<polygon fill="#fff0f0" stroke="red" points="479,-134.5 360,-134.5 360,-115.5 479,-115.5 479,-134.5"/>
<text text-anchor="middle" x="419.5" y="-122.5" font-family="Helvetica,sans-Serif" font-size="10.00">core/itask_executor.hpp</text>
</a>
</g>
</g>
<!-- Node1&#45;&gt;Node49 -->
<g id="edge7" class="edge">
<title>Node1&#45;&gt;Node49</title>
<path fill="none" stroke="#63b8ff" d="M351.03,-175.8C365.02,-165.62 383.84,-151.93 398.22,-141.48"/>
<polygon fill="#63b8ff" stroke="#63b8ff" points="400.09,-144.45 406.12,-135.73 395.97,-138.79 400.09,-144.45"/>
</g>
<!-- Node51 -->
<g id="node8" class="node">
<title>Node51</title>
<g id="a_node8"><a xlink:href="../../d6/dd3/lazy__ptr_8hpp.html" target="_top" xlink:title=" ">
<polygon fill="#fff0f0" stroke="red" points="552,-74 463,-74 463,-55 552,-55 552,-74"/>
<text text-anchor="middle" x="507.5" y="-62" font-family="Helvetica,sans-Serif" font-size="10.00">core/lazy_ptr.hpp</text>
</a>
</g>
</g>
<!-- Node1&#45;&gt;Node51 -->
<g id="edge8" class="edge">
<title>Node1&#45;&gt;Node51</title>
<path fill="none" stroke="#63b8ff" d="M394.66,-184.34C426.87,-178.24 464.26,-165.7 488.5,-140 502.37,-125.3 506.48,-101.93 507.52,-85.28"/>
<polygon fill="#63b8ff" stroke="#63b8ff" points="511.01,-85.73 507.79,-75.64 504.01,-85.53 511.01,-85.73"/>
</g>
<!-- Node52 -->
<g id="node9" class="node">
<title>Node52</title>
<g id="a_node9"><a xlink:href="../../db/dc4/aphoto__data__model_8hpp.html" target="_top" xlink:title=" ">
<polygon fill="#fff0f0" stroke="red" points="639.5,-140 535.5,-140 535.5,-110 639.5,-110 639.5,-140"/>
<text text-anchor="start" x="543.5" y="-128" font-family="Helvetica,sans-Serif" font-size="10.00">models/aphoto_data</text>
<text text-anchor="middle" x="587.5" y="-117" font-family="Helvetica,sans-Serif" font-size="10.00">_model.hpp</text>
</a>
</g>
</g>
<!-- Node1&#45;&gt;Node52 -->
<g id="edge10" class="edge">
<title>Node1&#45;&gt;Node52</title>
<path fill="none" stroke="#63b8ff" d="M389.27,-175.56C429.39,-165.53 482.84,-152.16 524.13,-141.84"/>
<polygon fill="#63b8ff" stroke="#63b8ff" points="524.84,-145.27 533.69,-139.45 523.14,-138.48 524.84,-145.27"/>
</g>
<!-- Node54 -->
<g id="node10" class="node">
<title>Node54</title>
<g id="a_node10"><a xlink:href="../../d9/d19/people__editor_8hpp.html" target="_top" xlink:title=" ">
<polygon fill="#fff0f0" stroke="red" points="191.5,-134.5 99.5,-134.5 99.5,-115.5 191.5,-115.5 191.5,-134.5"/>
<text text-anchor="middle" x="145.5" y="-122.5" font-family="Helvetica,sans-Serif" font-size="10.00">people_editor.hpp</text>
</a>
</g>
</g>
<!-- Node1&#45;&gt;Node54 -->
<g id="edge11" class="edge">
<title>Node1&#45;&gt;Node54</title>
<path fill="none" stroke="#63b8ff" d="M289.76,-175.64C257.52,-164.54 213.32,-149.34 182.37,-138.69"/>
<polygon fill="#63b8ff" stroke="#63b8ff" points="183.64,-135.42 173.05,-135.48 181.36,-142.04 183.64,-135.42"/>
</g>
<!-- Node4&#45;&gt;Node3 -->
<g id="edge4" class="edge">
<title>Node4&#45;&gt;Node3</title>
<path fill="none" stroke="#63b8ff" d="M205.28,-54.75C280.17,-43.78 406.32,-25.31 469.31,-16.09"/>
<polygon fill="#63b8ff" stroke="#63b8ff" points="469.79,-19.56 479.18,-14.65 468.78,-12.63 469.79,-19.56"/>
</g>
<!-- Node51&#45;&gt;Node3 -->
<g id="edge9" class="edge">
<title>Node51&#45;&gt;Node3</title>
<path fill="none" stroke="#63b8ff" d="M507.5,-54.75C507.5,-48.27 507.5,-39.16 507.5,-30.9"/>
<polygon fill="#63b8ff" stroke="#63b8ff" points="511,-30.96 507.5,-20.96 504,-30.96 511,-30.96"/>
</g>
<!-- Node54&#45;&gt;Node4 -->
<g id="edge13" class="edge">
<title>Node54&#45;&gt;Node4</title>
<path fill="none" stroke="#63b8ff" d="M145.5,-115.37C145.5,-107.5 145.5,-95.6 145.5,-85.39"/>
<polygon fill="#63b8ff" stroke="#63b8ff" points="149,-85.68 145.5,-75.68 142,-85.68 149,-85.68"/>
</g>
<!-- Node54&#45;&gt;Node47 -->
<g id="edge12" class="edge">
<title>Node54&#45;&gt;Node47</title>
<path fill="none" stroke="#63b8ff" d="M168.74,-115.12C194.24,-105.37 235.41,-89.62 264.53,-78.49"/>
<polygon fill="#63b8ff" stroke="#63b8ff" points="265.54,-81.85 273.63,-75.01 263.04,-75.31 265.54,-81.85"/>
</g>
</g>
</svg>
