<?xml version="1.0" encoding="UTF-8" standalone="no"?>
<!DOCTYPE svg PUBLIC "-//W3C//DTD SVG 1.1//EN"
 "http://www.w3.org/Graphics/SVG/1.1/DTD/svg11.dtd">
<!-- Generated by graphviz version 12.2.0 (20241103.1931)
 -->
<!-- Title: src/core/qcoro_task_utils.hpp Pages: 1 -->
<svg width="522pt" height="94pt"
 viewBox="0.00 0.00 521.75 93.75" xmlns="http://www.w3.org/2000/svg" xmlns:xlink="http://www.w3.org/1999/xlink">
<g id="graph0" class="graph" transform="scale(1 1) rotate(0) translate(4 89.75)">
<title>src/core/qcoro_task_utils.hpp</title>
<!-- Node1 -->
<g id="Node000001" class="node">
<title>Node1</title>
<g id="a_Node000001"><a xlink:title=" ">
<polygon fill="#999999" stroke="#666666" points="299.12,-85.75 196.88,-85.75 196.88,-55.25 299.12,-55.25 299.12,-85.75"/>
<text text-anchor="start" x="204.88" y="-72.25" font-family="Helvetica,sans-Serif" font-size="10.00">src/core/qcoro_task</text>
<text text-anchor="middle" x="248" y="-61" font-family="Helvetica,sans-Serif" font-size="10.00">_utils.hpp</text>
</a>
</g>
</g>
<!-- Node2 -->
<g id="Node000002" class="node">
<title>Node2</title>
<g id="a_Node000002"><a xlink:title=" ">
<polygon fill="#e0e0e0" stroke="#999999" points="58,-19.25 0,-19.25 0,0 58,0 58,-19.25"/>
<text text-anchor="middle" x="29" y="-5.75" font-family="Helvetica,sans-Serif" font-size="10.00">functional</text>
</a>
</g>
</g>
<!-- Node1&#45;&gt;Node2 -->
<g id="edge1_Node000001_Node000002" class="edge">
<title>Node1&#45;&gt;Node2</title>
<g id="a_edge1_Node000001_Node000002"><a xlink:title=" ">
<path fill="none" stroke="#63b8ff" d="M196.38,-55.62C157.58,-45.19 105.18,-31.11 69.41,-21.49"/>
<polygon fill="#63b8ff" stroke="#63b8ff" points="70.45,-18.14 59.88,-18.93 68.63,-24.9 70.45,-18.14"/>
</a>
</g>
</g>
<!-- Node3 -->
<g id="Node000003" class="node">
<title>Node3</title>
<g id="a_Node000003"><a xlink:title=" ">
<polygon fill="#e0e0e0" stroke="#999999" points="137.5,-19.25 76.5,-19.25 76.5,0 137.5,0 137.5,-19.25"/>
<text text-anchor="middle" x="107" y="-5.75" font-family="Helvetica,sans-Serif" font-size="10.00">type_traits</text>
</a>
</g>
</g>
<!-- Node1&#45;&gt;Node3 -->
<g id="edge2_Node000001_Node000003" class="edge">
<title>Node1&#45;&gt;Node3</title>
<g id="a_edge2_Node000001_Node000003"><a xlink:title=" ">
<path fill="none" stroke="#63b8ff" d="M212.78,-54.8C190.17,-45.35 161.04,-33.19 139.08,-24.02"/>
<polygon fill="#63b8ff" stroke="#63b8ff" points="140.6,-20.86 130.02,-20.24 137.9,-27.32 140.6,-20.86"/>
</a>
</g>
</g>
<!-- Node4 -->
<g id="Node000004" class="node">
<title>Node4</title>
<g id="a_Node000004"><a xlink:title=" ">
<polygon fill="#e0e0e0" stroke="#999999" points="194.25,-19.25 155.75,-19.25 155.75,0 194.25,0 194.25,-19.25"/>
<text text-anchor="middle" x="175" y="-5.75" font-family="Helvetica,sans-Serif" font-size="10.00">utility</text>
</a>
</g>
</g>
<!-- Node1&#45;&gt;Node4 -->
<g id="edge3_Node000001_Node000004" class="edge">
<title>Node1&#45;&gt;Node4</title>
<g id="a_edge3_Node000001_Node000004"><a xlink:title=" ">
<path fill="none" stroke="#63b8ff" d="M229.96,-54.95C219.37,-46.41 205.99,-35.62 195.07,-26.81"/>
<polygon fill="#63b8ff" stroke="#63b8ff" points="197.41,-24.2 187.43,-20.65 193.02,-29.65 197.41,-24.2"/>
</a>
</g>
</g>
<!-- Node5 -->
<g id="Node000005" class="node">
<title>Node5</title>
<g id="a_Node000005"><a xlink:title=" ">
<polygon fill="#e0e0e0" stroke="#999999" points="283.75,-19.25 212.25,-19.25 212.25,0 283.75,0 283.75,-19.25"/>
<text text-anchor="middle" x="248" y="-5.75" font-family="Helvetica,sans-Serif" font-size="10.00">QCoroFuture</text>
</a>
</g>
</g>
<!-- Node1&#45;&gt;Node5 -->
<g id="edge4_Node000001_Node000005" class="edge">
<title>Node1&#45;&gt;Node5</title>
<g id="a_edge4_Node000001_Node000005"><a xlink:title=" ">
<path fill="none" stroke="#63b8ff" d="M248,-54.95C248,-47.71 248,-38.84 248,-30.94"/>
<polygon fill="#63b8ff" stroke="#63b8ff" points="251.5,-31.21 248,-21.21 244.5,-31.21 251.5,-31.21"/>
</a>
</g>
</g>
<!-- Node6 -->
<g id="Node000006" class="node">
<title>Node6</title>
<g id="a_Node000006"><a xlink:title=" ">
<polygon fill="#e0e0e0" stroke="#999999" points="367.75,-19.25 302.25,-19.25 302.25,0 367.75,0 367.75,-19.25"/>
<text text-anchor="middle" x="335" y="-5.75" font-family="Helvetica,sans-Serif" font-size="10.00">QCoroTask</text>
</a>
</g>
</g>
<!-- Node1&#45;&gt;Node6 -->
<g id="edge5_Node000001_Node000006" class="edge">
<title>Node1&#45;&gt;Node6</title>
<g id="a_edge5_Node000001_Node000006"><a xlink:title=" ">
<path fill="none" stroke="#63b8ff" d="M269.51,-54.95C282.5,-46.15 299.04,-34.96 312.25,-26.02"/>
<polygon fill="#63b8ff" stroke="#63b8ff" points="314.01,-29.05 320.33,-20.55 310.09,-23.26 314.01,-29.05"/>
</a>
</g>
</g>
<!-- Node7 -->
<g id="Node000007" class="node">
<title>Node7</title>
<g id="a_Node000007"><a xlink:title=" ">
<polygon fill="#e0e0e0" stroke="#999999" points="436.62,-19.25 385.38,-19.25 385.38,0 436.62,0 436.62,-19.25"/>
<text text-anchor="middle" x="411" y="-5.75" font-family="Helvetica,sans-Serif" font-size="10.00">QFuture</text>
</a>
</g>
</g>
<!-- Node1&#45;&gt;Node7 -->
<g id="edge6_Node000001_Node000007" class="edge">
<title>Node1&#45;&gt;Node7</title>
<g id="a_edge6_Node000001_Node000007"><a xlink:title=" ">
<path fill="none" stroke="#63b8ff" d="M288.71,-54.8C315.32,-45.18 349.76,-32.75 375.3,-23.52"/>
<polygon fill="#63b8ff" stroke="#63b8ff" points="376.36,-26.86 384.58,-20.17 373.98,-20.27 376.36,-26.86"/>
</a>
</g>
</g>
<!-- Node8 -->
<g id="Node000008" class="node">
<title>Node8</title>
<g id="a_Node000008"><a xlink:title=" ">
<polygon fill="#e0e0e0" stroke="#999999" points="513.75,-19.25 454.25,-19.25 454.25,0 513.75,0 513.75,-19.25"/>
<text text-anchor="middle" x="484" y="-5.75" font-family="Helvetica,sans-Serif" font-size="10.00">QPromise</text>
</a>
</g>
</g>
<!-- Node1&#45;&gt;Node8 -->
<g id="edge7_Node000001_Node000008" class="edge">
<title>Node1&#45;&gt;Node8</title>
<g id="a_edge7_Node000001_Node000008"><a xlink:title=" ">
<path fill="none" stroke="#63b8ff" d="M299.5,-56.65C342.46,-45.94 402.87,-30.86 442.71,-20.93"/>
<polygon fill="#63b8ff" stroke="#63b8ff" points="443.54,-24.33 452.4,-18.51 441.85,-17.53 443.54,-24.33"/>
</a>
</g>
</g>
</g>
</svg>
