<?xml version="1.0" encoding="UTF-8" standalone="no"?>
<!DOCTYPE svg PUBLIC "-//W3C//DTD SVG 1.1//EN"
 "http://www.w3.org/Graphics/SVG/1.1/DTD/svg11.dtd">
<!-- Generated by graphviz version 7.0.5 (20221223.1930)
 -->
<!-- Title: dlib_api::FaceLocator::_face_locations_cnn Pages: 1 -->
<svg width="264pt" height="86pt"
 viewBox="0.00 0.00 264.00 86.00" xmlns="http://www.w3.org/2000/svg" xmlns:xlink="http://www.w3.org/1999/xlink">
<g id="graph0" class="graph" transform="scale(1 1) rotate(0) translate(4 82)">
<title>dlib_api::FaceLocator::_face_locations_cnn</title>
<!-- Node1 -->
<g id="node1" class="node">
<title>Node1</title>
<g id="a_node1"><a xlink:title=" ">
<polygon fill="#999999" stroke="#666666" points="256,-54 146,-54 146,-24 256,-24 256,-54"/>
<text text-anchor="start" x="154" y="-42" font-family="Helvetica,sans-Serif" font-size="10.00">dlib_api::FaceLocator</text>
<text text-anchor="middle" x="201" y="-31" font-family="Helvetica,sans-Serif" font-size="10.00">::_face_locations_cnn</text>
</a>
</g>
</g>
<!-- Node2 -->
<g id="node2" class="node">
<title>Node2</title>
<g id="a_node2"><a xlink:href="../../d7/d20/classdlib__api_1_1_face_locator.html#aeb8c3c9f9151920a434bac684aa4f80f" target="_top" xlink:title=" ">
<polygon fill="white" stroke="#666666" points="110,-78 0,-78 0,-48 110,-48 110,-78"/>
<text text-anchor="start" x="8" y="-66" font-family="Helvetica,sans-Serif" font-size="10.00">dlib_api::FaceLocator</text>
<text text-anchor="middle" x="55" y="-55" font-family="Helvetica,sans-Serif" font-size="10.00">::_face_locations_cnn</text>
</a>
</g>
</g>
<!-- Node1&#45;&gt;Node2 -->
<g id="edge1" class="edge">
<title>Node1&#45;&gt;Node2</title>
<path fill="none" stroke="#63b8ff" d="M134.23,-49.96C126.13,-51.31 117.93,-52.68 110.04,-53.99"/>
<polygon fill="#63b8ff" stroke="#63b8ff" points="134.78,-53.42 144.07,-48.32 133.63,-46.51 134.78,-53.42"/>
</g>
<!-- Node3 -->
<g id="node3" class="node">
<title>Node3</title>
<g id="a_node3"><a xlink:href="../../d7/d20/classdlib__api_1_1_face_locator.html#ad2cfc7bff8535383c0a6e05e78404d86" target="_top" xlink:title=" ">
<polygon fill="#fff0f0" stroke="red" points="109.5,-30 0.5,-30 0.5,0 109.5,0 109.5,-30"/>
<text text-anchor="start" x="8.5" y="-18" font-family="Helvetica,sans-Serif" font-size="10.00">dlib_api::FaceLocator</text>
<text text-anchor="middle" x="55" y="-7" font-family="Helvetica,sans-Serif" font-size="10.00">::face_locations</text>
</a>
</g>
</g>
<!-- Node1&#45;&gt;Node3 -->
<g id="edge2" class="edge">
<title>Node1&#45;&gt;Node3</title>
<path fill="none" stroke="#63b8ff" d="M134.35,-28.06C126.06,-26.68 117.64,-25.27 109.56,-23.93"/>
<polygon fill="#63b8ff" stroke="#63b8ff" points="133.63,-31.49 144.07,-29.68 134.78,-24.58 133.63,-31.49"/>
</g>
</g>
</svg>
