<?xml version="1.0" encoding="UTF-8" standalone="no"?>
<!DOCTYPE svg PUBLIC "-//W3C//DTD SVG 1.1//EN"
 "http://www.w3.org/Graphics/SVG/1.1/DTD/svg11.dtd">
<!-- Generated by graphviz version 7.0.5 (20221223.1930)
 -->
<!-- Title: src/core/task_executor_utils.hpp Pages: 1 -->
<svg width="1028pt" height="181pt"
 viewBox="0.00 0.00 1028.00 181.00" xmlns="http://www.w3.org/2000/svg" xmlns:xlink="http://www.w3.org/1999/xlink">
<g id="graph0" class="graph" transform="scale(1 1) rotate(0) translate(4 177)">
<title>src/core/task_executor_utils.hpp</title>
<!-- Node1 -->
<g id="node1" class="node">
<title>Node1</title>
<g id="a_node1"><a xlink:title=" ">
<polygon fill="#999999" stroke="#666666" points="571,-173 455,-173 455,-143 571,-143 571,-173"/>
<text text-anchor="start" x="463" y="-161" font-family="Helvetica,sans-Serif" font-size="10.00">src/core/task_executor</text>
<text text-anchor="middle" x="513" y="-150" font-family="Helvetica,sans-Serif" font-size="10.00">_utils.hpp</text>
</a>
</g>
</g>
<!-- Node2 -->
<g id="node2" class="node">
<title>Node2</title>
<g id="a_node2"><a xlink:href="../../da/d88/task__executor__utils_8cpp.html" target="_top" xlink:title=" ">
<polygon fill="white" stroke="#666666" points="122,-107 0,-107 0,-77 122,-77 122,-107"/>
<text text-anchor="start" x="8" y="-95" font-family="Helvetica,sans-Serif" font-size="10.00">src/core/implementation</text>
<text text-anchor="middle" x="61" y="-84" font-family="Helvetica,sans-Serif" font-size="10.00">/task_executor_utils.cpp</text>
</a>
</g>
</g>
<!-- Node1&#45;&gt;Node2 -->
<g id="edge1" class="edge">
<title>Node1&#45;&gt;Node2</title>
<path fill="none" stroke="#63b8ff" d="M443.16,-149.29C366.41,-140.48 239.59,-124.94 131,-107 128.19,-106.54 125.32,-106.04 122.42,-105.53"/>
<polygon fill="#63b8ff" stroke="#63b8ff" points="442.74,-152.76 453.07,-150.42 443.53,-145.81 442.74,-152.76"/>
</g>
<!-- Node3 -->
<g id="node3" class="node">
<title>Node3</title>
<g id="a_node3"><a xlink:href="../../d0/d93/task__executor__traits_8hpp.html" target="_top" xlink:title=" ">
<polygon fill="#fff0f0" stroke="red" points="256,-107 140,-107 140,-77 256,-77 256,-107"/>
<text text-anchor="start" x="148" y="-95" font-family="Helvetica,sans-Serif" font-size="10.00">src/core/task_executor</text>
<text text-anchor="middle" x="198" y="-84" font-family="Helvetica,sans-Serif" font-size="10.00">_traits.hpp</text>
</a>
</g>
</g>
<!-- Node1&#45;&gt;Node3 -->
<g id="edge2" class="edge">
<title>Node1&#45;&gt;Node3</title>
<path fill="none" stroke="#63b8ff" d="M443.58,-142.9C387.44,-131.49 309.29,-115.61 256.34,-104.85"/>
<polygon fill="#63b8ff" stroke="#63b8ff" points="442.88,-146.32 453.37,-144.89 444.27,-139.46 442.88,-146.32"/>
</g>
<!-- Node5 -->
<g id="node4" class="node">
<title>Node5</title>
<g id="a_node4"><a xlink:href="../../dc/de9/database__executor__traits_8hpp.html" target="_top" xlink:title=" ">
<polygon fill="#fff0f0" stroke="red" points="466,-107 350,-107 350,-77 466,-77 466,-107"/>
<text text-anchor="start" x="358" y="-95" font-family="Helvetica,sans-Serif" font-size="10.00">src/database/database</text>
<text text-anchor="middle" x="408" y="-84" font-family="Helvetica,sans-Serif" font-size="10.00">_executor_traits.hpp</text>
</a>
</g>
</g>
<!-- Node1&#45;&gt;Node5 -->
<g id="edge3" class="edge">
<title>Node1&#45;&gt;Node5</title>
<path fill="none" stroke="#63b8ff" d="M480.04,-136.91C464.29,-127.31 445.79,-116.03 431.49,-107.31"/>
<polygon fill="#63b8ff" stroke="#63b8ff" points="477.78,-139.63 488.14,-141.85 481.43,-133.66 477.78,-139.63"/>
</g>
<!-- Node6 -->
<g id="node5" class="node">
<title>Node6</title>
<g id="a_node5"><a xlink:href="../../de/d46/series__detector_8cpp.html" target="_top" xlink:title=" ">
<polygon fill="white" stroke="#666666" points="156,-41 40,-41 40,0 156,0 156,-41"/>
<text text-anchor="start" x="48" y="-29" font-family="Helvetica,sans-Serif" font-size="10.00">src/database/database</text>
<text text-anchor="start" x="48" y="-18" font-family="Helvetica,sans-Serif" font-size="10.00">_tools/implementation</text>
<text text-anchor="middle" x="98" y="-7" font-family="Helvetica,sans-Serif" font-size="10.00">/series_detector.cpp</text>
</a>
</g>
</g>
<!-- Node1&#45;&gt;Node6 -->
<g id="edge12" class="edge">
<title>Node1&#45;&gt;Node6</title>
<path fill="none" stroke="#63b8ff" d="M443.16,-149.88C399.49,-143.27 343.17,-130.7 298,-107 280.45,-97.79 282.11,-87.01 265,-77 255.21,-71.27 200.58,-53.51 156.43,-39.61"/>
<polygon fill="#63b8ff" stroke="#63b8ff" points="442.65,-153.34 453.05,-151.3 443.64,-146.41 442.65,-153.34"/>
</g>
<!-- Node7 -->
<g id="node6" class="node">
<title>Node7</title>
<g id="a_node6"><a xlink:href="../../dd/d30/series__model_8cpp.html" target="_top" xlink:title=" ">
<polygon fill="white" stroke="#666666" points="292,-35.5 174,-35.5 174,-5.5 292,-5.5 292,-35.5"/>
<text text-anchor="start" x="182" y="-23.5" font-family="Helvetica,sans-Serif" font-size="10.00">src/gui/desktop/models</text>
<text text-anchor="middle" x="233" y="-12.5" font-family="Helvetica,sans-Serif" font-size="10.00">/series_model.cpp</text>
</a>
</g>
</g>
<!-- Node1&#45;&gt;Node7 -->
<g id="edge14" class="edge">
<title>Node1&#45;&gt;Node7</title>
<path fill="none" stroke="#63b8ff" d="M443.57,-143.3C411.27,-135.32 373.01,-123.52 341,-107 321.55,-96.97 274.72,-57.59 249.59,-35.94"/>
<polygon fill="#63b8ff" stroke="#63b8ff" points="442.72,-146.69 453.26,-145.61 444.34,-139.89 442.72,-146.69"/>
</g>
<!-- Node8 -->
<g id="node7" class="node">
<title>Node8</title>
<g id="a_node7"><a xlink:href="../../dc/dd7/context__menu__manager_8cpp.html" target="_top" xlink:title=" ">
<polygon fill="white" stroke="#666666" points="480,-35.5 310,-35.5 310,-5.5 480,-5.5 480,-35.5"/>
<text text-anchor="start" x="318" y="-23.5" font-family="Helvetica,sans-Serif" font-size="10.00">src/gui/desktop/quick</text>
<text text-anchor="middle" x="395" y="-12.5" font-family="Helvetica,sans-Serif" font-size="10.00">_items/context_menu_manager.cpp</text>
</a>
</g>
</g>
<!-- Node1&#45;&gt;Node8 -->
<g id="edge15" class="edge">
<title>Node1&#45;&gt;Node8</title>
<path fill="none" stroke="#63b8ff" d="M504.99,-132.03C498.72,-115.2 488.74,-93.19 475,-77 460.56,-59.99 439.74,-45.77 422.96,-35.98"/>
<polygon fill="#63b8ff" stroke="#63b8ff" points="501.63,-133.02 508.24,-141.3 508.23,-130.7 501.63,-133.02"/>
</g>
<!-- Node9 -->
<g id="node8" class="node">
<title>Node9</title>
<g id="a_node8"><a xlink:href="../../d8/dd9/mainwindow_8cpp.html" target="_top" xlink:title=" ">
<polygon fill="white" stroke="#666666" points="592,-35.5 498,-35.5 498,-5.5 592,-5.5 592,-35.5"/>
<text text-anchor="start" x="506" y="-23.5" font-family="Helvetica,sans-Serif" font-size="10.00">src/gui/desktop/ui</text>
<text text-anchor="middle" x="545" y="-12.5" font-family="Helvetica,sans-Serif" font-size="10.00">/mainwindow.cpp</text>
</a>
</g>
</g>
<!-- Node1&#45;&gt;Node9 -->
<g id="edge16" class="edge">
<title>Node1&#45;&gt;Node9</title>
<path fill="none" stroke="#63b8ff" d="M518.95,-131.79C525.62,-103.57 536.19,-58.81 541.58,-35.96"/>
<polygon fill="#63b8ff" stroke="#63b8ff" points="515.6,-130.75 516.71,-141.28 522.42,-132.35 515.6,-130.75"/>
</g>
<!-- Node10 -->
<g id="node9" class="node">
<title>Node10</title>
<g id="a_node9"><a xlink:href="../../da/d67/people__manipulator_8cpp.html" target="_top" xlink:title=" ">
<polygon fill="white" stroke="#666666" points="732,-35.5 610,-35.5 610,-5.5 732,-5.5 732,-35.5"/>
<text text-anchor="start" x="618" y="-23.5" font-family="Helvetica,sans-Serif" font-size="10.00">src/gui/desktop/utils</text>
<text text-anchor="middle" x="671" y="-12.5" font-family="Helvetica,sans-Serif" font-size="10.00">/people_manipulator.cpp</text>
</a>
</g>
</g>
<!-- Node1&#45;&gt;Node10 -->
<g id="edge17" class="edge">
<title>Node1&#45;&gt;Node10</title>
<path fill="none" stroke="#63b8ff" d="M533.78,-134.69C549.65,-118.09 572.41,-95.26 594,-77 611.74,-62 633.3,-46.69 649.09,-35.96"/>
<polygon fill="#63b8ff" stroke="#63b8ff" points="531.52,-131.98 527.19,-141.64 536.61,-136.79 531.52,-131.98"/>
</g>
<!-- Node11 -->
<g id="node10" class="node">
<title>Node11</title>
<g id="a_node10"><a xlink:href="../../d7/dfc/database__queue_8hpp.html" target="_top" xlink:title=" ">
<polygon fill="#fff0f0" stroke="red" points="752,-107 636,-107 636,-77 752,-77 752,-107"/>
<text text-anchor="start" x="644" y="-95" font-family="Helvetica,sans-Serif" font-size="10.00">src/database/database</text>
<text text-anchor="middle" x="694" y="-84" font-family="Helvetica,sans-Serif" font-size="10.00">_queue.hpp</text>
</a>
</g>
</g>
<!-- Node1&#45;&gt;Node11 -->
<g id="edge9" class="edge">
<title>Node1&#45;&gt;Node11</title>
<path fill="none" stroke="#63b8ff" d="M564.46,-138.8C592.59,-128.86 626.94,-116.71 653.2,-107.43"/>
<polygon fill="#63b8ff" stroke="#63b8ff" points="563.31,-135.5 555.05,-142.13 565.64,-142.1 563.31,-135.5"/>
</g>
<!-- Node12 -->
<g id="node11" class="node">
<title>Node12</title>
<g id="a_node11"><a xlink:href="../../d2/d25/photos__analyzer__p_8hpp.html" target="_top" xlink:title=" ">
<polygon fill="#fff0f0" stroke="red" points="868,-41 750,-41 750,0 868,0 868,-41"/>
<text text-anchor="start" x="758" y="-29" font-family="Helvetica,sans-Serif" font-size="10.00">src/database/database</text>
<text text-anchor="start" x="758" y="-18" font-family="Helvetica,sans-Serif" font-size="10.00">_tools/implementation</text>
<text text-anchor="middle" x="809" y="-7" font-family="Helvetica,sans-Serif" font-size="10.00">/photos_analyzer_p.hpp</text>
</a>
</g>
</g>
<!-- Node1&#45;&gt;Node12 -->
<g id="edge11" class="edge">
<title>Node1&#45;&gt;Node12</title>
<path fill="none" stroke="#63b8ff" d="M547.61,-136.59C561.69,-127.91 577.92,-117.4 592,-107 608.48,-94.82 609.04,-86.86 627,-77 632.65,-73.9 698.99,-53.97 749.97,-38.87"/>
<polygon fill="#63b8ff" stroke="#63b8ff" points="545.82,-133.59 539.1,-141.78 549.46,-139.57 545.82,-133.59"/>
</g>
<!-- Node15 -->
<g id="node12" class="node">
<title>Node15</title>
<g id="a_node12"><a xlink:href="../../da/dec/face__recognition_8cpp.html" target="_top" xlink:title=" ">
<polygon fill="white" stroke="#666666" points="879.5,-107 770.5,-107 770.5,-77 879.5,-77 879.5,-107"/>
<text text-anchor="start" x="778.5" y="-95" font-family="Helvetica,sans-Serif" font-size="10.00">src/face_recognition</text>
<text text-anchor="middle" x="825" y="-84" font-family="Helvetica,sans-Serif" font-size="10.00">/face_recognition.cpp</text>
</a>
</g>
</g>
<!-- Node1&#45;&gt;Node15 -->
<g id="edge13" class="edge">
<title>Node1&#45;&gt;Node15</title>
<path fill="none" stroke="#63b8ff" d="M582.7,-143.26C632.44,-133.39 700.89,-119.63 761,-107 764.01,-106.37 767.09,-105.71 770.2,-105.05"/>
<polygon fill="#63b8ff" stroke="#63b8ff" points="582.04,-139.83 572.92,-145.21 583.41,-146.69 582.04,-139.83"/>
</g>
<!-- Node16 -->
<g id="node13" class="node">
<title>Node16</title>
<g id="a_node13"><a xlink:href="../../dc/d5f/thumbnail__manager_8hpp.html" target="_top" xlink:title=" ">
<polygon fill="#fff0f0" stroke="red" points="1020,-107 898,-107 898,-77 1020,-77 1020,-107"/>
<text text-anchor="start" x="906" y="-95" font-family="Helvetica,sans-Serif" font-size="10.00">src/gui/desktop/utils</text>
<text text-anchor="middle" x="959" y="-84" font-family="Helvetica,sans-Serif" font-size="10.00">/thumbnail_manager.hpp</text>
</a>
</g>
</g>
<!-- Node1&#45;&gt;Node16 -->
<g id="edge18" class="edge">
<title>Node1&#45;&gt;Node16</title>
<path fill="none" stroke="#63b8ff" d="M582.72,-149.11C658.36,-140.22 782.57,-124.7 889,-107 891.81,-106.53 894.68,-106.04 897.58,-105.52"/>
<polygon fill="#63b8ff" stroke="#63b8ff" points="582.5,-145.61 572.97,-150.25 583.31,-152.56 582.5,-145.61"/>
</g>
<!-- Node5&#45;&gt;Node6 -->
<g id="edge4" class="edge">
<title>Node5&#45;&gt;Node6</title>
<path fill="none" stroke="#63b8ff" d="M338.71,-78.28C289.91,-68.94 223.18,-55.43 165,-41 162.18,-40.3 159.3,-39.56 156.39,-38.79"/>
<polygon fill="#63b8ff" stroke="#63b8ff" points="337.8,-81.67 348.28,-80.1 339.11,-74.79 337.8,-81.67"/>
</g>
<!-- Node5&#45;&gt;Node7 -->
<g id="edge5" class="edge">
<title>Node5&#45;&gt;Node7</title>
<path fill="none" stroke="#63b8ff" d="M361.09,-72.37C332.24,-60.91 295.83,-46.45 269.21,-35.88"/>
<polygon fill="#63b8ff" stroke="#63b8ff" points="359.75,-75.6 370.33,-76.04 362.33,-69.1 359.75,-75.6"/>
</g>
<!-- Node5&#45;&gt;Node8 -->
<g id="edge6" class="edge">
<title>Node5&#45;&gt;Node8</title>
<path fill="none" stroke="#63b8ff" d="M403.25,-65.58C401.37,-55.58 399.29,-44.45 397.69,-35.88"/>
<polygon fill="#63b8ff" stroke="#63b8ff" points="399.75,-65.93 405.03,-75.11 406.63,-64.64 399.75,-65.93"/>
</g>
<!-- Node5&#45;&gt;Node9 -->
<g id="edge7" class="edge">
<title>Node5&#45;&gt;Node9</title>
<path fill="none" stroke="#63b8ff" d="M446.53,-71.46C468.81,-60.15 496.36,-46.17 516.65,-35.88"/>
<polygon fill="#63b8ff" stroke="#63b8ff" points="445.07,-68.27 437.74,-75.91 448.24,-74.51 445.07,-68.27"/>
</g>
<!-- Node5&#45;&gt;Node10 -->
<g id="edge8" class="edge">
<title>Node5&#45;&gt;Node10</title>
<path fill="none" stroke="#63b8ff" d="M476.23,-73.65C513.2,-64.16 559.65,-52.11 601,-41 606.97,-39.4 613.22,-37.69 619.42,-35.98"/>
<polygon fill="#63b8ff" stroke="#63b8ff" points="475.36,-70.26 466.54,-76.13 477.1,-77.04 475.36,-70.26"/>
</g>
<!-- Node11&#45;&gt;Node12 -->
<g id="edge10" class="edge">
<title>Node11&#45;&gt;Node12</title>
<path fill="none" stroke="#63b8ff" d="M727.42,-70.8C742.73,-61.55 760.8,-50.63 776.05,-41.42"/>
<polygon fill="#63b8ff" stroke="#63b8ff" points="725.87,-67.65 719.12,-75.82 729.49,-73.64 725.87,-67.65"/>
</g>
</g>
</svg>
