<?xml version="1.0" encoding="UTF-8" standalone="no"?>
<!DOCTYPE svg PUBLIC "-//W3C//DTD SVG 1.1//EN"
 "http://www.w3.org/Graphics/SVG/1.1/DTD/svg11.dtd">
<!-- Generated by graphviz version 12.2.0 (20241103.1931)
 -->
<!-- Title: src/core/task_executor_utils.hpp Pages: 1 -->
<svg width="1436pt" height="183pt"
 viewBox="0.00 0.00 1436.38 182.75" xmlns="http://www.w3.org/2000/svg" xmlns:xlink="http://www.w3.org/1999/xlink">
<g id="graph0" class="graph" transform="scale(1 1) rotate(0) translate(4 178.75)">
<title>src/core/task_executor_utils.hpp</title>
<!-- Node1 -->
<g id="Node000001" class="node">
<title>Node1</title>
<g id="a_Node000001"><a xlink:title=" ">
<polygon fill="#999999" stroke="#666666" points="721,-174.75 606,-174.75 606,-144.25 721,-144.25 721,-174.75"/>
<text text-anchor="start" x="614" y="-161.25" font-family="Helvetica,sans-Serif" font-size="10.00">src/core/task_executor</text>
<text text-anchor="middle" x="663.5" y="-150" font-family="Helvetica,sans-Serif" font-size="10.00">_utils.hpp</text>
</a>
</g>
</g>
<!-- Node2 -->
<g id="Node000002" class="node">
<title>Node2</title>
<g id="a_Node000002"><a xlink:href="../../da/d88/task__executor__utils_8cpp.html" target="_top" xlink:title=" ">
<polygon fill="white" stroke="#666666" points="121,-108.25 0,-108.25 0,-77.75 121,-77.75 121,-108.25"/>
<text text-anchor="start" x="8" y="-94.75" font-family="Helvetica,sans-Serif" font-size="10.00">src/core/implementation</text>
<text text-anchor="middle" x="60.5" y="-83.5" font-family="Helvetica,sans-Serif" font-size="10.00">/task_executor_utils.cpp</text>
</a>
</g>
</g>
<!-- Node1&#45;&gt;Node2 -->
<g id="edge1_Node000001_Node000002" class="edge">
<title>Node1&#45;&gt;Node2</title>
<g id="a_edge1_Node000001_Node000002"><a xlink:title=" ">
<path fill="none" stroke="#63b8ff" d="M594.18,-154.42C492.05,-147.85 295.32,-133.1 129.5,-108.25 126.84,-107.85 124.13,-107.42 121.39,-106.95"/>
<polygon fill="#63b8ff" stroke="#63b8ff" points="593.85,-157.9 604.05,-155.04 594.29,-150.92 593.85,-157.9"/>
</a>
</g>
</g>
<!-- Node3 -->
<g id="Node000003" class="node">
<title>Node3</title>
<g id="a_Node000003"><a xlink:href="../../de/d18/task__executor__qcoro__utils_8hpp.html" target="_top" xlink:title=" ">
<polygon fill="#fff0f0" stroke="red" points="254,-108.25 139,-108.25 139,-77.75 254,-77.75 254,-108.25"/>
<text text-anchor="start" x="147" y="-94.75" font-family="Helvetica,sans-Serif" font-size="10.00">src/core/task_executor</text>
<text text-anchor="middle" x="196.5" y="-83.5" font-family="Helvetica,sans-Serif" font-size="10.00">_qcoro_utils.hpp</text>
</a>
</g>
</g>
<!-- Node1&#45;&gt;Node3 -->
<g id="edge2_Node000001_Node000003" class="edge">
<title>Node1&#45;&gt;Node3</title>
<g id="a_edge2_Node000001_Node000003"><a xlink:title=" ">
<path fill="none" stroke="#63b8ff" d="M594.26,-151.6C514.3,-143.22 378.94,-127.74 263.5,-108.25 260.45,-107.74 257.33,-107.18 254.18,-106.59"/>
<polygon fill="#63b8ff" stroke="#63b8ff" points="593.83,-155.07 604.14,-152.63 594.56,-148.11 593.83,-155.07"/>
</a>
</g>
</g>
<!-- Node5 -->
<g id="Node000005" class="node">
<title>Node5</title>
<g id="a_Node000005"><a xlink:href="../../d0/d93/task__executor__traits_8hpp.html" target="_top" xlink:title=" ">
<polygon fill="#fff0f0" stroke="red" points="387,-108.25 272,-108.25 272,-77.75 387,-77.75 387,-108.25"/>
<text text-anchor="start" x="280" y="-94.75" font-family="Helvetica,sans-Serif" font-size="10.00">src/core/task_executor</text>
<text text-anchor="middle" x="329.5" y="-83.5" font-family="Helvetica,sans-Serif" font-size="10.00">_traits.hpp</text>
</a>
</g>
</g>
<!-- Node1&#45;&gt;Node5 -->
<g id="edge3_Node000001_Node000005" class="edge">
<title>Node1&#45;&gt;Node5</title>
<g id="a_edge3_Node000001_Node000005"><a xlink:title=" ">
<path fill="none" stroke="#63b8ff" d="M594.46,-145.37C541.61,-135.3 466.93,-121 401.5,-108.25 396.87,-107.35 392.08,-106.41 387.26,-105.46"/>
<polygon fill="#63b8ff" stroke="#63b8ff" points="593.76,-148.8 604.24,-147.24 595.07,-141.93 593.76,-148.8"/>
</a>
</g>
</g>
<!-- Node7 -->
<g id="Node000007" class="node">
<title>Node7</title>
<g id="a_Node000007"><a xlink:href="../../dc/de9/database__executor__traits_8hpp.html" target="_top" xlink:title=" ">
<polygon fill="#fff0f0" stroke="red" points="635,-108.25 520,-108.25 520,-77.75 635,-77.75 635,-108.25"/>
<text text-anchor="start" x="528" y="-94.75" font-family="Helvetica,sans-Serif" font-size="10.00">src/database/database</text>
<text text-anchor="middle" x="577.5" y="-83.5" font-family="Helvetica,sans-Serif" font-size="10.00">_executor_traits.hpp</text>
</a>
</g>
</g>
<!-- Node1&#45;&gt;Node7 -->
<g id="edge4_Node000001_Node000007" class="edge">
<title>Node1&#45;&gt;Node7</title>
<g id="a_edge4_Node000001_Node000007"><a xlink:title=" ">
<path fill="none" stroke="#63b8ff" d="M634.89,-137.04C622.43,-127.69 608.14,-116.98 596.94,-108.58"/>
<polygon fill="#63b8ff" stroke="#63b8ff" points="632.67,-139.76 642.77,-142.96 636.87,-134.16 632.67,-139.76"/>
</a>
</g>
</g>
<!-- Node8 -->
<g id="Node000008" class="node">
<title>Node8</title>
<g id="a_Node000008"><a xlink:href="../../de/d46/series__detector_8cpp.html" target="_top" xlink:title=" ">
<polygon fill="white" stroke="#666666" points="264,-41.75 149,-41.75 149,0 264,0 264,-41.75"/>
<text text-anchor="start" x="157" y="-28.25" font-family="Helvetica,sans-Serif" font-size="10.00">src/database/database</text>
<text text-anchor="start" x="157" y="-17" font-family="Helvetica,sans-Serif" font-size="10.00">_tools/implementation</text>
<text text-anchor="middle" x="206.5" y="-5.75" font-family="Helvetica,sans-Serif" font-size="10.00">/series_detector.cpp</text>
</a>
</g>
</g>
<!-- Node1&#45;&gt;Node8 -->
<g id="edge13_Node000001_Node000008" class="edge">
<title>Node1&#45;&gt;Node8</title>
<g id="a_edge13_Node000001_Node000008"><a xlink:title=" ">
<path fill="none" stroke="#63b8ff" d="M594.43,-153.03C546.33,-147.02 481.86,-134.45 430.5,-108.25 412.42,-99.02 414.25,-87.6 396.5,-77.75 346.33,-49.89 327.53,-58.02 272.5,-41.75 269.86,-40.97 267.16,-40.17 264.44,-39.36"/>
<polygon fill="#63b8ff" stroke="#63b8ff" points="593.82,-156.48 604.16,-154.18 594.64,-149.53 593.82,-156.48"/>
</a>
</g>
</g>
<!-- Node9 -->
<g id="Node000009" class="node">
<title>Node9</title>
<g id="a_Node000009"><a xlink:href="../../dd/d30/series__model_8cpp.html" target="_top" xlink:title=" ">
<polygon fill="white" stroke="#666666" points="399.12,-36.12 281.88,-36.12 281.88,-5.62 399.12,-5.62 399.12,-36.12"/>
<text text-anchor="start" x="289.88" y="-22.62" font-family="Helvetica,sans-Serif" font-size="10.00">src/gui/desktop/models</text>
<text text-anchor="middle" x="340.5" y="-11.38" font-family="Helvetica,sans-Serif" font-size="10.00">/series_model.cpp</text>
</a>
</g>
</g>
<!-- Node1&#45;&gt;Node9 -->
<g id="edge16_Node000001_Node000009" class="edge">
<title>Node1&#45;&gt;Node9</title>
<g id="a_edge16_Node000001_Node000009"><a xlink:title=" ">
<path fill="none" stroke="#63b8ff" d="M594.56,-141.53C563.71,-133.01 527.22,-121.64 495.5,-108.25 446.26,-87.46 392.57,-55.18 363.08,-36.53"/>
<polygon fill="#63b8ff" stroke="#63b8ff" points="593.62,-144.9 604.19,-144.14 595.45,-138.15 593.62,-144.9"/>
</a>
</g>
</g>
<!-- Node10 -->
<g id="Node000010" class="node">
<title>Node10</title>
<g id="a_Node000010"><a xlink:href="../../dc/dd7/context__menu__manager_8cpp.html" target="_top" xlink:title=" ">
<polygon fill="white" stroke="#666666" points="587.38,-36.12 417.62,-36.12 417.62,-5.62 587.38,-5.62 587.38,-36.12"/>
<text text-anchor="start" x="425.62" y="-22.62" font-family="Helvetica,sans-Serif" font-size="10.00">src/gui/desktop/quick</text>
<text text-anchor="middle" x="502.5" y="-11.38" font-family="Helvetica,sans-Serif" font-size="10.00">_items/context_menu_manager.cpp</text>
</a>
</g>
</g>
<!-- Node1&#45;&gt;Node10 -->
<g id="edge17_Node000001_Node000010" class="edge">
<title>Node1&#45;&gt;Node10</title>
<g id="a_edge17_Node000001_Node000010"><a xlink:title=" ">
<path fill="none" stroke="#63b8ff" d="M594.81,-152.35C564.69,-145.99 531.68,-133.32 511.5,-108.25 495.05,-87.81 496.81,-55.25 499.62,-36.49"/>
<polygon fill="#63b8ff" stroke="#63b8ff" points="593.78,-155.72 604.26,-154.14 595.08,-148.84 593.78,-155.72"/>
</a>
</g>
</g>
<!-- Node11 -->
<g id="Node000011" class="node">
<title>Node11</title>
<g id="a_Node000011"><a xlink:href="../../d8/dd9/mainwindow_8cpp.html" target="_top" xlink:title=" ">
<polygon fill="white" stroke="#666666" points="699.12,-36.12 605.88,-36.12 605.88,-5.62 699.12,-5.62 699.12,-36.12"/>
<text text-anchor="start" x="613.88" y="-22.62" font-family="Helvetica,sans-Serif" font-size="10.00">src/gui/desktop/ui</text>
<text text-anchor="middle" x="652.5" y="-11.38" font-family="Helvetica,sans-Serif" font-size="10.00">/mainwindow.cpp</text>
</a>
</g>
</g>
<!-- Node1&#45;&gt;Node11 -->
<g id="edge18_Node000001_Node000011" class="edge">
<title>Node1&#45;&gt;Node11</title>
<g id="a_edge18_Node000001_Node000011"><a xlink:title=" ">
<path fill="none" stroke="#63b8ff" d="M661.4,-132.4C659.1,-103.89 655.51,-59.23 653.67,-36.39"/>
<polygon fill="#63b8ff" stroke="#63b8ff" points="657.91,-132.68 662.2,-142.37 664.89,-132.12 657.91,-132.68"/>
</a>
</g>
</g>
<!-- Node12 -->
<g id="Node000012" class="node">
<title>Node12</title>
<g id="a_Node000012"><a xlink:href="../../d1/d2f/people__editor_8cpp.html" target="_top" xlink:title=" ">
<polygon fill="white" stroke="#666666" points="821.38,-36.12 717.62,-36.12 717.62,-5.62 821.38,-5.62 821.38,-36.12"/>
<text text-anchor="start" x="725.62" y="-22.62" font-family="Helvetica,sans-Serif" font-size="10.00">src/gui/desktop/utils</text>
<text text-anchor="middle" x="769.5" y="-11.38" font-family="Helvetica,sans-Serif" font-size="10.00">/people_editor.cpp</text>
</a>
</g>
</g>
<!-- Node1&#45;&gt;Node12 -->
<g id="edge20_Node000001_Node000012" class="edge">
<title>Node1&#45;&gt;Node12</title>
<g id="a_edge20_Node000001_Node000012"><a xlink:title=" ">
<path fill="none" stroke="#63b8ff" d="M679.86,-134.59C691.19,-118.31 706.83,-96.4 721.5,-77.75 732.88,-63.27 746.65,-47.4 756.51,-36.29"/>
<polygon fill="#63b8ff" stroke="#63b8ff" points="677.07,-132.47 674.26,-142.68 682.83,-136.45 677.07,-132.47"/>
</a>
</g>
</g>
<!-- Node13 -->
<g id="Node000013" class="node">
<title>Node13</title>
<g id="a_Node000013"><a xlink:href="../../d7/dfc/database__queue_8hpp.html" target="_top" xlink:title=" ">
<polygon fill="#fff0f0" stroke="red" points="845,-108.25 730,-108.25 730,-77.75 845,-77.75 845,-108.25"/>
<text text-anchor="start" x="738" y="-94.75" font-family="Helvetica,sans-Serif" font-size="10.00">src/database/database</text>
<text text-anchor="middle" x="787.5" y="-83.5" font-family="Helvetica,sans-Serif" font-size="10.00">_queue.hpp</text>
</a>
</g>
</g>
<!-- Node1&#45;&gt;Node13 -->
<g id="edge10_Node000001_Node000013" class="edge">
<title>Node1&#45;&gt;Node13</title>
<g id="a_edge10_Node000001_Node000013"><a xlink:title=" ">
<path fill="none" stroke="#63b8ff" d="M701.61,-138.68C720.28,-128.96 742.37,-117.47 759.47,-108.58"/>
<polygon fill="#63b8ff" stroke="#63b8ff" points="700.24,-135.45 692.98,-143.17 703.47,-141.66 700.24,-135.45"/>
</a>
</g>
</g>
<!-- Node14 -->
<g id="Node000014" class="node">
<title>Node14</title>
<g id="a_Node000014"><a xlink:href="../../d2/d25/photos__analyzer__p_8hpp.html" target="_top" xlink:title=" ">
<polygon fill="#fff0f0" stroke="red" points="957.12,-41.75 839.88,-41.75 839.88,0 957.12,0 957.12,-41.75"/>
<text text-anchor="start" x="847.88" y="-28.25" font-family="Helvetica,sans-Serif" font-size="10.00">src/database/database</text>
<text text-anchor="start" x="847.88" y="-17" font-family="Helvetica,sans-Serif" font-size="10.00">_tools/implementation</text>
<text text-anchor="middle" x="898.5" y="-5.75" font-family="Helvetica,sans-Serif" font-size="10.00">/photos_analyzer_p.hpp</text>
</a>
</g>
</g>
<!-- Node1&#45;&gt;Node14 -->
<g id="edge12_Node000001_Node000014" class="edge">
<title>Node1&#45;&gt;Node14</title>
<g id="a_edge12_Node000001_Node000014"><a xlink:title=" ">
<path fill="none" stroke="#63b8ff" d="M732.65,-154.14C771.99,-148.51 820.12,-135.96 854.5,-108.25 875.46,-91.35 887.41,-61.84 893.42,-42.08"/>
<polygon fill="#63b8ff" stroke="#63b8ff" points="732.25,-150.66 722.78,-155.41 733.15,-157.6 732.25,-150.66"/>
</a>
</g>
</g>
<!-- Node17 -->
<g id="Node000017" class="node">
<title>Node17</title>
<g id="a_Node000017"><a xlink:href="../../da/dec/face__recognition_8cpp.html" target="_top" xlink:title=" ">
<polygon fill="white" stroke="#666666" points="1009.62,-108.25 901.38,-108.25 901.38,-77.75 1009.62,-77.75 1009.62,-108.25"/>
<text text-anchor="start" x="909.38" y="-94.75" font-family="Helvetica,sans-Serif" font-size="10.00">src/face_recognition</text>
<text text-anchor="middle" x="955.5" y="-83.5" font-family="Helvetica,sans-Serif" font-size="10.00">/face_recognition.cpp</text>
</a>
</g>
</g>
<!-- Node1&#45;&gt;Node17 -->
<g id="edge14_Node000001_Node000017" class="edge">
<title>Node1&#45;&gt;Node17</title>
<g id="a_edge14_Node000001_Node000017"><a xlink:title=" ">
<path fill="none" stroke="#63b8ff" d="M732.21,-143.32C783.69,-131.95 853.18,-116.6 900.89,-106.06"/>
<polygon fill="#63b8ff" stroke="#63b8ff" points="731.68,-139.86 722.67,-145.43 733.19,-146.69 731.68,-139.86"/>
</a>
</g>
</g>
<!-- Node18 -->
<g id="Node000018" class="node">
<title>Node18</title>
<g id="a_Node000018"><a xlink:href="../../d4/df8/faces__model_8cpp.html" target="_top" xlink:title=" ">
<polygon fill="white" stroke="#666666" points="1145.12,-108.25 1027.88,-108.25 1027.88,-77.75 1145.12,-77.75 1145.12,-108.25"/>
<text text-anchor="start" x="1035.88" y="-94.75" font-family="Helvetica,sans-Serif" font-size="10.00">src/gui/desktop/models</text>
<text text-anchor="middle" x="1086.5" y="-83.5" font-family="Helvetica,sans-Serif" font-size="10.00">/faces_model.cpp</text>
</a>
</g>
</g>
<!-- Node1&#45;&gt;Node18 -->
<g id="edge15_Node000001_Node000018" class="edge">
<title>Node1&#45;&gt;Node18</title>
<g id="a_edge15_Node000001_Node000018"><a xlink:title=" ">
<path fill="none" stroke="#63b8ff" d="M732.61,-150.09C804.3,-141.04 919.56,-125.6 1018.5,-108.25 1021.47,-107.73 1024.51,-107.17 1027.57,-106.6"/>
<polygon fill="#63b8ff" stroke="#63b8ff" points="732.47,-146.58 722.99,-151.3 733.34,-153.52 732.47,-146.58"/>
</a>
</g>
</g>
<!-- Node19 -->
<g id="Node000019" class="node">
<title>Node19</title>
<g id="a_Node000019"><a xlink:href="../../d1/da8/batch__face__detector_8cpp.html" target="_top" xlink:title=" ">
<polygon fill="white" stroke="#666666" points="1288.25,-108.25 1162.75,-108.25 1162.75,-77.75 1288.25,-77.75 1288.25,-108.25"/>
<text text-anchor="start" x="1170.75" y="-94.75" font-family="Helvetica,sans-Serif" font-size="10.00">src/gui/desktop/utils</text>
<text text-anchor="middle" x="1225.5" y="-83.5" font-family="Helvetica,sans-Serif" font-size="10.00">/batch_face_detector.cpp</text>
</a>
</g>
</g>
<!-- Node1&#45;&gt;Node19 -->
<g id="edge19_Node000001_Node000019" class="edge">
<title>Node1&#45;&gt;Node19</title>
<g id="a_edge19_Node000001_Node000019"><a xlink:title=" ">
<path fill="none" stroke="#63b8ff" d="M732.37,-153.55C827.6,-146.23 1004.69,-130.9 1154.5,-108.25 1157.11,-107.86 1159.77,-107.43 1162.45,-106.98"/>
<polygon fill="#63b8ff" stroke="#63b8ff" points="732.39,-150.04 722.68,-154.29 732.92,-157.02 732.39,-150.04"/>
</a>
</g>
</g>
<!-- Node20 -->
<g id="Node000020" class="node">
<title>Node20</title>
<g id="a_Node000020"><a xlink:href="../../dc/d5f/thumbnail__manager_8hpp.html" target="_top" xlink:title=" ">
<polygon fill="#fff0f0" stroke="red" points="1428.38,-108.25 1306.62,-108.25 1306.62,-77.75 1428.38,-77.75 1428.38,-108.25"/>
<text text-anchor="start" x="1314.62" y="-94.75" font-family="Helvetica,sans-Serif" font-size="10.00">src/gui/desktop/utils</text>
<text text-anchor="middle" x="1367.5" y="-83.5" font-family="Helvetica,sans-Serif" font-size="10.00">/thumbnail_manager.hpp</text>
</a>
</g>
</g>
<!-- Node1&#45;&gt;Node20 -->
<g id="edge21_Node000001_Node000020" class="edge">
<title>Node1&#45;&gt;Node20</title>
<g id="a_edge21_Node000001_Node000020"><a xlink:title=" ">
<path fill="none" stroke="#63b8ff" d="M732.7,-155.78C849.57,-150.56 1093.28,-137.02 1297.5,-108.25 1300.45,-107.83 1303.46,-107.37 1306.49,-106.87"/>
<polygon fill="#63b8ff" stroke="#63b8ff" points="732.8,-152.27 722.96,-156.2 733.11,-159.26 732.8,-152.27"/>
</a>
</g>
</g>
<!-- Node7&#45;&gt;Node8 -->
<g id="edge5_Node000007_Node000008" class="edge">
<title>Node7&#45;&gt;Node8</title>
<g id="a_edge5_Node000007_Node000008"><a xlink:title=" ">
<path fill="none" stroke="#63b8ff" d="M508.5,-83.23C446.35,-74.71 352.72,-60.35 272.5,-41.75 269.82,-41.13 267.09,-40.46 264.33,-39.75"/>
<polygon fill="#63b8ff" stroke="#63b8ff" points="507.85,-86.67 518.23,-84.54 508.79,-79.73 507.85,-86.67"/>
</a>
</g>
</g>
<!-- Node7&#45;&gt;Node9 -->
<g id="edge6_Node000007_Node000009" class="edge">
<title>Node7&#45;&gt;Node9</title>
<g id="a_edge6_Node000007_Node000009"><a xlink:title=" ">
<path fill="none" stroke="#63b8ff" d="M516.79,-74.04C477.51,-62.41 427,-47.47 390.12,-36.56"/>
<polygon fill="#63b8ff" stroke="#63b8ff" points="515.78,-77.39 526.37,-76.87 517.77,-70.68 515.78,-77.39"/>
</a>
</g>
</g>
<!-- Node7&#45;&gt;Node10 -->
<g id="edge7_Node000007_Node000010" class="edge">
<title>Node7&#45;&gt;Node10</title>
<g id="a_edge7_Node000007_Node000010"><a xlink:title=" ">
<path fill="none" stroke="#63b8ff" d="M553.89,-69.92C542.18,-58.98 528.37,-46.07 518.02,-36.39"/>
<polygon fill="#63b8ff" stroke="#63b8ff" points="551.16,-72.16 560.85,-76.44 555.94,-67.05 551.16,-72.16"/>
</a>
</g>
</g>
<!-- Node7&#45;&gt;Node11 -->
<g id="edge8_Node000007_Node000011" class="edge">
<title>Node7&#45;&gt;Node11</title>
<g id="a_edge8_Node000007_Node000011"><a xlink:title=" ">
<path fill="none" stroke="#63b8ff" d="M601.11,-69.92C612.82,-58.98 626.63,-46.07 636.98,-36.39"/>
<polygon fill="#63b8ff" stroke="#63b8ff" points="599.06,-67.05 594.15,-76.44 603.84,-72.16 599.06,-67.05"/>
</a>
</g>
</g>
<!-- Node7&#45;&gt;Node12 -->
<g id="edge9_Node000007_Node000012" class="edge">
<title>Node7&#45;&gt;Node12</title>
<g id="a_edge9_Node000007_Node000012"><a xlink:title=" ">
<path fill="none" stroke="#63b8ff" d="M628.53,-73.36C660.08,-61.84 700,-47.26 729.3,-36.56"/>
<polygon fill="#63b8ff" stroke="#63b8ff" points="627.36,-70.06 619.17,-76.78 629.77,-76.64 627.36,-70.06"/>
</a>
</g>
</g>
<!-- Node13&#45;&gt;Node14 -->
<g id="edge11_Node000013_Node000014" class="edge">
<title>Node13&#45;&gt;Node14</title>
<g id="a_edge11_Node000013_Node000014"><a xlink:title=" ">
<path fill="none" stroke="#63b8ff" d="M820.38,-71.23C834.92,-62.04 851.97,-51.27 866.42,-42.14"/>
<polygon fill="#63b8ff" stroke="#63b8ff" points="818.63,-68.19 812.05,-76.49 822.37,-74.11 818.63,-68.19"/>
</a>
</g>
</g>
</g>
</svg>
