<?xml version="1.0" encoding="UTF-8" standalone="no"?>
<!DOCTYPE svg PUBLIC "-//W3C//DTD SVG 1.1//EN"
 "http://www.w3.org/Graphics/SVG/1.1/DTD/svg11.dtd">
<!-- Generated by graphviz version 9.0.0 (20230911.1827)
 -->
<!-- Title: src/updater/implementation/updater_impl.hpp Pages: 1 -->
<svg width="473pt" height="94pt"
 viewBox="0.00 0.00 472.50 93.75" xmlns="http://www.w3.org/2000/svg" xmlns:xlink="http://www.w3.org/1999/xlink">
<g id="graph0" class="graph" transform="scale(1 1) rotate(0) translate(4 89.75)">
<title>src/updater/implementation/updater_impl.hpp</title>
<!-- Node1 -->
<g id="Node000001" class="node">
<title>Node1</title>
<g id="a_Node000001"><a xlink:title=" ">
<polygon fill="#999999" stroke="#666666" points="247.12,-85.75 113.38,-85.75 113.38,-55.25 247.12,-55.25 247.12,-85.75"/>
<text text-anchor="start" x="121.38" y="-72.25" font-family="Helvetica,sans-Serif" font-size="10.00">src/updater/implementation</text>
<text text-anchor="middle" x="180.25" y="-61" font-family="Helvetica,sans-Serif" font-size="10.00">/updater_impl.hpp</text>
</a>
</g>
</g>
<!-- Node2 -->
<g id="Node000002" class="node">
<title>Node2</title>
<g id="a_Node000002"><a xlink:title=" ">
<polygon fill="#e0e0e0" stroke="#999999" points="50.5,-19.25 0,-19.25 0,0 50.5,0 50.5,-19.25"/>
<text text-anchor="middle" x="25.25" y="-5.75" font-family="Helvetica,sans-Serif" font-size="10.00">memory</text>
</a>
</g>
</g>
<!-- Node1&#45;&gt;Node2 -->
<g id="edge1_Node000001_Node000002" class="edge">
<title>Node1&#45;&gt;Node2</title>
<g id="a_edge1_Node000001_Node000002"><a xlink:title=" ">
<path fill="none" stroke="#63b8ff" d="M141.54,-54.8C116.34,-45.23 83.78,-32.86 59.52,-23.64"/>
<polygon fill="#63b8ff" stroke="#63b8ff" points="61.03,-20.47 50.44,-20.19 58.54,-27.01 61.03,-20.47"/>
</a>
</g>
</g>
<!-- Node3 -->
<g id="Node000003" class="node">
<title>Node3</title>
<g id="a_Node000003"><a xlink:title=" ">
<polygon fill="#e0e0e0" stroke="#999999" points="120.25,-19.25 68.25,-19.25 68.25,0 120.25,0 120.25,-19.25"/>
<text text-anchor="middle" x="94.25" y="-5.75" font-family="Helvetica,sans-Serif" font-size="10.00">QObject</text>
</a>
</g>
</g>
<!-- Node1&#45;&gt;Node3 -->
<g id="edge2_Node000001_Node000003" class="edge">
<title>Node1&#45;&gt;Node3</title>
<g id="a_edge2_Node000001_Node000003"><a xlink:title=" ">
<path fill="none" stroke="#63b8ff" d="M158.99,-54.95C146.15,-46.15 129.8,-34.96 116.74,-26.02"/>
<polygon fill="#63b8ff" stroke="#63b8ff" points="118.99,-23.32 108.76,-20.56 115.03,-29.09 118.99,-23.32"/>
</a>
</g>
</g>
<!-- Node4 -->
<g id="Node000004" class="node">
<title>Node4</title>
<g id="a_Node000004"><a xlink:title=" ">
<polygon fill="#e0e0e0" stroke="#999999" points="222.38,-19.25 138.12,-19.25 138.12,0 222.38,0 222.38,-19.25"/>
<text text-anchor="middle" x="180.25" y="-5.75" font-family="Helvetica,sans-Serif" font-size="10.00">QNetworkReply</text>
</a>
</g>
</g>
<!-- Node1&#45;&gt;Node4 -->
<g id="edge3_Node000001_Node000004" class="edge">
<title>Node1&#45;&gt;Node4</title>
<g id="a_edge3_Node000001_Node000004"><a xlink:title=" ">
<path fill="none" stroke="#63b8ff" d="M180.25,-54.95C180.25,-47.71 180.25,-38.84 180.25,-30.94"/>
<polygon fill="#63b8ff" stroke="#63b8ff" points="183.75,-31.21 180.25,-21.21 176.75,-31.21 183.75,-31.21"/>
</a>
</g>
</g>
<!-- Node5 -->
<g id="Node000005" class="node">
<title>Node5</title>
<g id="a_Node000005"><a xlink:title=" ">
<polygon fill="#e0e0e0" stroke="#999999" points="377.62,-19.25 240.88,-19.25 240.88,0 377.62,0 377.62,-19.25"/>
<text text-anchor="middle" x="309.25" y="-5.75" font-family="Helvetica,sans-Serif" font-size="10.00">cpp_restapi/iconnection.hpp</text>
</a>
</g>
</g>
<!-- Node1&#45;&gt;Node5 -->
<g id="edge4_Node000001_Node000005" class="edge">
<title>Node1&#45;&gt;Node5</title>
<g id="a_edge4_Node000001_Node000005"><a xlink:title=" ">
<path fill="none" stroke="#63b8ff" d="M212.47,-54.8C232.87,-45.48 259.08,-33.52 279.07,-24.4"/>
<polygon fill="#63b8ff" stroke="#63b8ff" points="280.45,-27.62 288.09,-20.28 277.54,-21.25 280.45,-27.62"/>
</a>
</g>
</g>
<!-- Node6 -->
<g id="Node000006" class="node">
<title>Node6</title>
<g id="a_Node000006"><a xlink:href="../../de/d31/iupdater_8hpp.html" target="_top" xlink:title=" ">
<polygon fill="#fff0f0" stroke="red" points="464.5,-19.25 396,-19.25 396,0 464.5,0 464.5,-19.25"/>
<text text-anchor="middle" x="430.25" y="-5.75" font-family="Helvetica,sans-Serif" font-size="10.00">iupdater.hpp</text>
</a>
</g>
</g>
<!-- Node1&#45;&gt;Node6 -->
<g id="edge5_Node000001_Node000006" class="edge">
<title>Node1&#45;&gt;Node6</title>
<g id="a_edge5_Node000001_Node000006"><a xlink:title=" ">
<path fill="none" stroke="#63b8ff" d="M242.69,-54.8C286.75,-44.42 344.78,-30.75 384.56,-21.39"/>
<polygon fill="#63b8ff" stroke="#63b8ff" points="385.11,-24.85 394.05,-19.15 383.51,-18.04 385.11,-24.85"/>
</a>
</g>
</g>
</g>
</svg>
