<?xml version="1.0" encoding="UTF-8" standalone="no"?>
<!DOCTYPE svg PUBLIC "-//W3C//DTD SVG 1.1//EN"
 "http://www.w3.org/Graphics/SVG/1.1/DTD/svg11.dtd">
<!-- Generated by graphviz version 7.0.5 (20221223.1930)
 -->
<!-- Title: src/database/backends/sql_backends/isql_query_constructor.hpp Pages: 1 -->
<svg width="308pt" height="159pt"
 viewBox="0.00 0.00 308.00 159.00" xmlns="http://www.w3.org/2000/svg" xmlns:xlink="http://www.w3.org/1999/xlink">
<g id="graph0" class="graph" transform="scale(1 1) rotate(0) translate(4 155)">
<title>src/database/backends/sql_backends/isql_query_constructor.hpp</title>
<!-- Node1 -->
<g id="node1" class="node">
<title>Node1</title>
<g id="a_node1"><a xlink:title=" ">
<polygon fill="#999999" stroke="#666666" points="193,-151 67,-151 67,-110 193,-110 193,-151"/>
<text text-anchor="start" x="75" y="-139" font-family="Helvetica,sans-Serif" font-size="10.00">src/database/backends</text>
<text text-anchor="start" x="75" y="-128" font-family="Helvetica,sans-Serif" font-size="10.00">/sql_backends/isql_query</text>
<text text-anchor="middle" x="130" y="-117" font-family="Helvetica,sans-Serif" font-size="10.00">_constructor.hpp</text>
</a>
</g>
</g>
<!-- Node2 -->
<g id="node2" class="node">
<title>Node2</title>
<g id="a_node2"><a xlink:title=" ">
<polygon fill="#e0e0e0" stroke="#999999" points="44,-19 0,-19 0,0 44,0 44,-19"/>
<text text-anchor="middle" x="22" y="-7" font-family="Helvetica,sans-Serif" font-size="10.00">vector</text>
</a>
</g>
</g>
<!-- Node1&#45;&gt;Node2 -->
<g id="edge1" class="edge">
<title>Node1&#45;&gt;Node2</title>
<path fill="none" stroke="#63b8ff" d="M103.56,-109.63C91.14,-99.65 76.57,-86.94 65,-74 52.52,-60.04 40.77,-42.26 32.72,-29.06"/>
<polygon fill="#63b8ff" stroke="#63b8ff" points="35.78,-27.36 27.67,-20.54 29.76,-30.93 35.78,-27.36"/>
</g>
<!-- Node3 -->
<g id="node3" class="node">
<title>Node3</title>
<g id="a_node3"><a xlink:title=" ">
<polygon fill="#e0e0e0" stroke="#999999" points="116,-19 66,-19 66,0 116,0 116,-19"/>
<text text-anchor="middle" x="91" y="-7" font-family="Helvetica,sans-Serif" font-size="10.00">QString</text>
</a>
</g>
</g>
<!-- Node1&#45;&gt;Node3 -->
<g id="edge2" class="edge">
<title>Node1&#45;&gt;Node3</title>
<path fill="none" stroke="#63b8ff" d="M100.8,-109.69C89.58,-100.33 78.02,-88.1 72,-74 65.71,-59.28 71.86,-41.82 78.79,-28.93"/>
<polygon fill="#63b8ff" stroke="#63b8ff" points="81.62,-31.02 83.76,-20.64 75.62,-27.42 81.62,-31.02"/>
</g>
<!-- Node4 -->
<g id="node4" class="node">
<title>Node4</title>
<g id="a_node4"><a xlink:title=" ">
<polygon fill="#e0e0e0" stroke="#999999" points="300,-74 236,-74 236,-55 300,-55 300,-74"/>
<text text-anchor="middle" x="268" y="-62" font-family="Helvetica,sans-Serif" font-size="10.00">QSqlQuery</text>
</a>
</g>
</g>
<!-- Node1&#45;&gt;Node4 -->
<g id="edge3" class="edge">
<title>Node1&#45;&gt;Node4</title>
<path fill="none" stroke="#63b8ff" d="M172.91,-109.6C194.3,-99.68 219.63,-87.93 238.76,-79.06"/>
<polygon fill="#63b8ff" stroke="#63b8ff" points="239.99,-82.35 247.59,-74.97 237.04,-76 239.99,-82.35"/>
</g>
<!-- Node5 -->
<g id="node5" class="node">
<title>Node5</title>
<g id="a_node5"><a xlink:title=" ">
<polygon fill="#e0e0e0" stroke="#999999" points="273.5,-19 136.5,-19 136.5,0 273.5,0 273.5,-19"/>
<text text-anchor="middle" x="205" y="-7" font-family="Helvetica,sans-Serif" font-size="10.00">sql_backend_base_export.h</text>
</a>
</g>
</g>
<!-- Node1&#45;&gt;Node5 -->
<g id="edge4" class="edge">
<title>Node1&#45;&gt;Node5</title>
<path fill="none" stroke="#63b8ff" d="M157.12,-109.72C168.51,-100.12 180.95,-87.7 189,-74 196.86,-60.63 200.88,-43.48 202.93,-30.37"/>
<polygon fill="#63b8ff" stroke="#63b8ff" points="206.36,-31.17 204.16,-20.8 199.42,-30.28 206.36,-31.17"/>
</g>
<!-- Node6 -->
<g id="node6" class="node">
<title>Node6</title>
<g id="a_node6"><a xlink:href="../../dd/d99/table__definition_8hpp.html" target="_top" xlink:title=" ">
<polygon fill="white" stroke="#666666" points="179.5,-74 80.5,-74 80.5,-55 179.5,-55 179.5,-74"/>
<text text-anchor="middle" x="130" y="-62" font-family="Helvetica,sans-Serif" font-size="10.00">table_definition.hpp</text>
</a>
</g>
</g>
<!-- Node1&#45;&gt;Node6 -->
<g id="edge5" class="edge">
<title>Node1&#45;&gt;Node6</title>
<path fill="none" stroke="#63b8ff" d="M130,-109.6C130,-101.98 130,-93.3 130,-85.66"/>
<polygon fill="#63b8ff" stroke="#63b8ff" points="133.5,-85.68 130,-75.68 126.5,-85.68 133.5,-85.68"/>
</g>
<!-- Node6&#45;&gt;Node2 -->
<g id="edge6" class="edge">
<title>Node6&#45;&gt;Node2</title>
<path fill="none" stroke="#63b8ff" d="M111.68,-54.51C94.82,-46.24 69.57,-33.84 50.15,-24.31"/>
<polygon fill="#63b8ff" stroke="#63b8ff" points="51.93,-21.29 41.41,-20.02 48.84,-27.57 51.93,-21.29"/>
</g>
<!-- Node6&#45;&gt;Node3 -->
<g id="edge7" class="edge">
<title>Node6&#45;&gt;Node3</title>
<path fill="none" stroke="#63b8ff" d="M123.56,-54.75C118.34,-47.66 110.81,-37.42 104.31,-28.59"/>
<polygon fill="#63b8ff" stroke="#63b8ff" points="107.22,-26.64 98.48,-20.66 101.58,-30.79 107.22,-26.64"/>
</g>
<!-- Node6&#45;&gt;Node5 -->
<g id="edge8" class="edge">
<title>Node6&#45;&gt;Node5</title>
<path fill="none" stroke="#63b8ff" d="M142.72,-54.51C153.78,-46.7 170.04,-35.21 183.17,-25.93"/>
<polygon fill="#63b8ff" stroke="#63b8ff" points="185.08,-28.86 191.23,-20.23 181.04,-23.14 185.08,-28.86"/>
</g>
</g>
</svg>
