<?xml version="1.0" encoding="UTF-8" standalone="no"?>
<!DOCTYPE svg PUBLIC "-//W3C//DTD SVG 1.1//EN"
 "http://www.w3.org/Graphics/SVG/1.1/DTD/svg11.dtd">
<!-- Generated by graphviz version 12.2.0 (20241103.1931)
 -->
<!-- Title: src/core/unit_tests/json_serializer_tests.cpp Pages: 1 -->
<svg width="332pt" height="94pt"
 viewBox="0.00 0.00 332.25 93.75" xmlns="http://www.w3.org/2000/svg" xmlns:xlink="http://www.w3.org/1999/xlink">
<g id="graph0" class="graph" transform="scale(1 1) rotate(0) translate(4 89.75)">
<title>src/core/unit_tests/json_serializer_tests.cpp</title>
<!-- Node1 -->
<g id="Node000001" class="node">
<title>Node1</title>
<g id="a_Node000001"><a xlink:title=" ">
<polygon fill="#999999" stroke="#666666" points="198.75,-85.75 73.25,-85.75 73.25,-55.25 198.75,-55.25 198.75,-85.75"/>
<text text-anchor="start" x="81.25" y="-72.25" font-family="Helvetica,sans-Serif" font-size="10.00">src/core/unit_tests</text>
<text text-anchor="middle" x="136" y="-61" font-family="Helvetica,sans-Serif" font-size="10.00">/json_serializer_tests.cpp</text>
</a>
</g>
</g>
<!-- Node2 -->
<g id="Node000002" class="node">
<title>Node2</title>
<g id="a_Node000002"><a xlink:title=" ">
<polygon fill="#e0e0e0" stroke="#999999" points="70,-19.25 0,-19.25 0,0 70,0 70,-19.25"/>
<text text-anchor="middle" x="35" y="-5.75" font-family="Helvetica,sans-Serif" font-size="10.00">gtest/gtest.h</text>
</a>
</g>
</g>
<!-- Node1&#45;&gt;Node2 -->
<g id="edge1_Node000001_Node000002" class="edge">
<title>Node1&#45;&gt;Node2</title>
<g id="a_edge1_Node000001_Node000002"><a xlink:title=" ">
<path fill="none" stroke="#63b8ff" d="M110.77,-54.8C95.39,-45.83 75.8,-34.41 60.39,-25.42"/>
<polygon fill="#63b8ff" stroke="#63b8ff" points="62.2,-22.43 51.8,-20.42 58.67,-28.48 62.2,-22.43"/>
</a>
</g>
</g>
<!-- Node3 -->
<g id="Node000003" class="node">
<title>Node3</title>
<g id="a_Node000003"><a xlink:href="../../d2/dc1/json__serializer_8hpp.html" target="_top" xlink:title=" ">
<polygon fill="#fff0f0" stroke="red" points="183.75,-19.25 88.25,-19.25 88.25,0 183.75,0 183.75,-19.25"/>
<text text-anchor="middle" x="136" y="-5.75" font-family="Helvetica,sans-Serif" font-size="10.00">json_serializer.hpp</text>
</a>
</g>
</g>
<!-- Node1&#45;&gt;Node3 -->
<g id="edge2_Node000001_Node000003" class="edge">
<title>Node1&#45;&gt;Node3</title>
<g id="a_edge2_Node000001_Node000003"><a xlink:title=" ">
<path fill="none" stroke="#63b8ff" d="M136,-54.95C136,-47.71 136,-38.84 136,-30.94"/>
<polygon fill="#63b8ff" stroke="#63b8ff" points="139.5,-31.21 136,-21.21 132.5,-31.21 139.5,-31.21"/>
</a>
</g>
</g>
<!-- Node18 -->
<g id="Node000018" class="node">
<title>Node18</title>
<g id="a_Node000018"><a xlink:href="../../d5/d87/json__serializer__tests_8hpp.html" target="_top" xlink:title=" ">
<polygon fill="#fff0f0" stroke="red" points="324.25,-19.25 201.75,-19.25 201.75,0 324.25,0 324.25,-19.25"/>
<text text-anchor="middle" x="263" y="-5.75" font-family="Helvetica,sans-Serif" font-size="10.00">json_serializer_tests.hpp</text>
</a>
</g>
</g>
<!-- Node1&#45;&gt;Node18 -->
<g id="edge3_Node000001_Node000018" class="edge">
<title>Node1&#45;&gt;Node18</title>
<g id="a_edge3_Node000001_Node000018"><a xlink:title=" ">
<path fill="none" stroke="#63b8ff" d="M167.72,-54.8C187.8,-45.48 213.6,-33.52 233.29,-24.4"/>
<polygon fill="#63b8ff" stroke="#63b8ff" points="234.55,-27.67 242.15,-20.29 231.61,-21.32 234.55,-27.67"/>
</a>
</g>
</g>
</g>
</svg>
