<?xml version="1.0" encoding="UTF-8" standalone="no"?>
<!DOCTYPE svg PUBLIC "-//W3C//DTD SVG 1.1//EN"
 "http://www.w3.org/Graphics/SVG/1.1/DTD/svg11.dtd">
<!-- Generated by graphviz version 12.2.0 (20241103.1931)
 -->
<!-- Title: src/core/implementation/task_executor.cpp Pages: 1 -->
<svg width="506pt" height="149pt"
 viewBox="0.00 0.00 506.38 149.00" xmlns="http://www.w3.org/2000/svg" xmlns:xlink="http://www.w3.org/1999/xlink">
<g id="graph0" class="graph" transform="scale(1 1) rotate(0) translate(4 145)">
<title>src/core/implementation/task_executor.cpp</title>
<!-- Node1 -->
<g id="Node000001" class="node">
<title>Node1</title>
<g id="a_Node000001"><a xlink:title=" ">
<polygon fill="#999999" stroke="#666666" points="268.38,-141 148.12,-141 148.12,-110.5 268.38,-110.5 268.38,-141"/>
<text text-anchor="start" x="156.12" y="-127.5" font-family="Helvetica,sans-Serif" font-size="10.00">src/core/implementation</text>
<text text-anchor="middle" x="208.25" y="-116.25" font-family="Helvetica,sans-Serif" font-size="10.00">/task_executor.cpp</text>
</a>
</g>
</g>
<!-- Node2 -->
<g id="Node000002" class="node">
<title>Node2</title>
<g id="a_Node000002"><a xlink:href="../../d7/dfc/ilogger_8hpp.html" target="_top" xlink:title=" ">
<polygon fill="#fff0f0" stroke="red" points="62.5,-74.5 0,-74.5 0,-55.25 62.5,-55.25 62.5,-74.5"/>
<text text-anchor="middle" x="31.25" y="-61" font-family="Helvetica,sans-Serif" font-size="10.00">ilogger.hpp</text>
</a>
</g>
</g>
<!-- Node1&#45;&gt;Node2 -->
<g id="edge1_Node000001_Node000002" class="edge">
<title>Node1&#45;&gt;Node2</title>
<g id="a_edge1_Node000001_Node000002"><a xlink:title=" ">
<path fill="none" stroke="#63b8ff" d="M164.04,-110.05C134.97,-100.38 97.32,-87.85 69.53,-78.61"/>
<polygon fill="#63b8ff" stroke="#63b8ff" points="70.68,-75.3 60.09,-75.47 68.48,-81.95 70.68,-75.3"/>
</a>
</g>
</g>
<!-- Node5 -->
<g id="Node000005" class="node">
<title>Node5</title>
<g id="a_Node000005"><a xlink:title=" ">
<polygon fill="#e0e0e0" stroke="#999999" points="84.75,-19.25 35.75,-19.25 35.75,0 84.75,0 84.75,-19.25"/>
<text text-anchor="middle" x="60.25" y="-5.75" font-family="Helvetica,sans-Serif" font-size="10.00">QString</text>
</a>
</g>
</g>
<!-- Node1&#45;&gt;Node5 -->
<g id="edge6_Node000001_Node000005" class="edge">
<title>Node1&#45;&gt;Node5</title>
<g id="a_edge6_Node000001_Node000005"><a xlink:title=" ">
<path fill="none" stroke="#63b8ff" d="M170.14,-110.21C150.67,-101.64 127.34,-89.52 109.25,-74.5 93.66,-61.55 80,-42.77 71.1,-28.93"/>
<polygon fill="#63b8ff" stroke="#63b8ff" points="74.29,-27.43 66.06,-20.76 68.34,-31.11 74.29,-27.43"/>
</a>
</g>
</g>
<!-- Node7 -->
<g id="Node000007" class="node">
<title>Node7</title>
<g id="a_Node000007"><a xlink:title=" ">
<polygon fill="#e0e0e0" stroke="#999999" points="163.88,-74.5 118.62,-74.5 118.62,-55.25 163.88,-55.25 163.88,-74.5"/>
<text text-anchor="middle" x="141.25" y="-61" font-family="Helvetica,sans-Serif" font-size="10.00">chrono</text>
</a>
</g>
</g>
<!-- Node1&#45;&gt;Node7 -->
<g id="edge3_Node000001_Node000007" class="edge">
<title>Node1&#45;&gt;Node7</title>
<g id="a_edge3_Node000001_Node000007"><a xlink:title=" ">
<path fill="none" stroke="#63b8ff" d="M191.69,-110.2C182.08,-101.75 169.94,-91.08 159.98,-82.33"/>
<polygon fill="#63b8ff" stroke="#63b8ff" points="162.54,-79.92 152.72,-75.95 157.92,-85.18 162.54,-79.92"/>
</a>
</g>
</g>
<!-- Node8 -->
<g id="Node000008" class="node">
<title>Node8</title>
<g id="a_Node000008"><a xlink:title=" ">
<polygon fill="#e0e0e0" stroke="#999999" points="235,-74.5 181.5,-74.5 181.5,-55.25 235,-55.25 235,-74.5"/>
<text text-anchor="middle" x="208.25" y="-61" font-family="Helvetica,sans-Serif" font-size="10.00">iostream</text>
</a>
</g>
</g>
<!-- Node1&#45;&gt;Node8 -->
<g id="edge4_Node000001_Node000008" class="edge">
<title>Node1&#45;&gt;Node8</title>
<g id="a_edge4_Node000001_Node000008"><a xlink:title=" ">
<path fill="none" stroke="#63b8ff" d="M208.25,-110.2C208.25,-102.96 208.25,-94.09 208.25,-86.19"/>
<polygon fill="#63b8ff" stroke="#63b8ff" points="211.75,-86.46 208.25,-76.46 204.75,-86.46 211.75,-86.46"/>
</a>
</g>
</g>
<!-- Node9 -->
<g id="Node000009" class="node">
<title>Node9</title>
<g id="a_Node000009"><a xlink:title=" ">
<polygon fill="#e0e0e0" stroke="#999999" points="283,-74.5 253.5,-74.5 253.5,-55.25 283,-55.25 283,-74.5"/>
<text text-anchor="middle" x="268.25" y="-61" font-family="Helvetica,sans-Serif" font-size="10.00">set</text>
</a>
</g>
</g>
<!-- Node1&#45;&gt;Node9 -->
<g id="edge5_Node000001_Node000009" class="edge">
<title>Node1&#45;&gt;Node9</title>
<g id="a_edge5_Node000001_Node000009"><a xlink:title=" ">
<path fill="none" stroke="#63b8ff" d="M223.08,-110.2C231.51,-101.92 242.12,-91.52 250.93,-82.87"/>
<polygon fill="#63b8ff" stroke="#63b8ff" points="253.23,-85.51 257.92,-76.01 248.33,-80.52 253.23,-85.51"/>
</a>
</g>
</g>
<!-- Node10 -->
<g id="Node000010" class="node">
<title>Node10</title>
<g id="a_Node000010"><a xlink:href="../../dc/dc0/task__executor_8hpp.html" target="_top" xlink:title=" ">
<polygon fill="#fff0f0" stroke="red" points="395.62,-74.5 300.88,-74.5 300.88,-55.25 395.62,-55.25 395.62,-74.5"/>
<text text-anchor="middle" x="348.25" y="-61" font-family="Helvetica,sans-Serif" font-size="10.00">task_executor.hpp</text>
</a>
</g>
</g>
<!-- Node1&#45;&gt;Node10 -->
<g id="edge7_Node000001_Node000010" class="edge">
<title>Node1&#45;&gt;Node10</title>
<g id="a_edge7_Node000001_Node000010"><a xlink:title=" ">
<path fill="none" stroke="#63b8ff" d="M243.22,-110.05C265.66,-100.6 294.59,-88.44 316.4,-79.27"/>
<polygon fill="#63b8ff" stroke="#63b8ff" points="317.52,-82.59 325.38,-75.49 314.81,-76.14 317.52,-82.59"/>
</a>
</g>
</g>
<!-- Node25 -->
<g id="Node000025" class="node">
<title>Node25</title>
<g id="a_Node000025"><a xlink:href="../../d6/d94/thread__utils_8hpp.html" target="_top" xlink:title=" ">
<polygon fill="#fff0f0" stroke="red" points="498.38,-74.5 414.12,-74.5 414.12,-55.25 498.38,-55.25 498.38,-74.5"/>
<text text-anchor="middle" x="456.25" y="-61" font-family="Helvetica,sans-Serif" font-size="10.00">thread_utils.hpp</text>
</a>
</g>
</g>
<!-- Node1&#45;&gt;Node25 -->
<g id="edge8_Node000001_Node000025" class="edge">
<title>Node1&#45;&gt;Node25</title>
<g id="a_edge8_Node000001_Node000025"><a xlink:title=" ">
<path fill="none" stroke="#63b8ff" d="M268.6,-110.42C311.1,-100.33 367.29,-86.99 407.07,-77.55"/>
<polygon fill="#63b8ff" stroke="#63b8ff" points="407.69,-81 416.61,-75.28 406.08,-74.19 407.69,-81"/>
</a>
</g>
</g>
<!-- Node2&#45;&gt;Node5 -->
<g id="edge2_Node000002_Node000005" class="edge">
<title>Node2&#45;&gt;Node5</title>
<g id="a_edge2_Node000002_Node000005"><a xlink:title=" ">
<path fill="none" stroke="#63b8ff" d="M36.04,-55.08C39.79,-48.19 45.16,-38.34 49.88,-29.66"/>
<polygon fill="#63b8ff" stroke="#63b8ff" points="52.92,-31.39 54.63,-20.94 46.78,-28.05 52.92,-31.39"/>
</a>
</g>
</g>
</g>
</svg>
