<?xml version="1.0" encoding="UTF-8" standalone="no"?>
<!DOCTYPE svg PUBLIC "-//W3C//DTD SVG 1.1//EN"
 "http://www.w3.org/Graphics/SVG/1.1/DTD/svg11.dtd">
<!-- Generated by graphviz version 12.2.0 (20241103.1931)
 -->
<!-- Title: AHeavyListModel::applyRows Pages: 1 -->
<svg width="309pt" height="64pt"
 viewBox="0.00 0.00 309.25 64.25" xmlns="http://www.w3.org/2000/svg" xmlns:xlink="http://www.w3.org/1999/xlink">
<g id="graph0" class="graph" transform="scale(1 1) rotate(0) translate(4 60.25)">
<title>AHeavyListModel::applyRows</title>
<!-- Node1 -->
<g id="Node000001" class="node">
<title>Node1</title>
<g id="a_Node000001"><a xlink:title=" ">
<polygon fill="#999999" stroke="#666666" points="301.25,-37.25 156.25,-37.25 156.25,-18 301.25,-18 301.25,-37.25"/>
<text text-anchor="middle" x="228.75" y="-23.75" font-family="Helvetica,sans-Serif" font-size="10.00">AHeavyListModel::applyRows</text>
</a>
</g>
</g>
<!-- Node2 -->
<g id="Node000002" class="node">
<title>Node2</title>
<g id="a_Node000002"><a xlink:href="../../de/d3a/class_a_heavy_list_model.html#acb3c4fb0237ca9be8821ed73be40a74d" target="_top" xlink:title=" ">
<polygon fill="white" stroke="#666666" points="120.25,-56.25 0,-56.25 0,-37 120.25,-37 120.25,-56.25"/>
<text text-anchor="middle" x="60.12" y="-42.75" font-family="Helvetica,sans-Serif" font-size="10.00">AHeavyListModel::apply</text>
</a>
</g>
</g>
<!-- Node1&#45;&gt;Node2 -->
<g id="edge1_Node000001_Node000002" class="edge">
<title>Node1&#45;&gt;Node2</title>
<g id="a_edge1_Node000001_Node000002"><a xlink:title=" ">
<path fill="none" stroke="#63b8ff" d="M144.69,-37.1C136.59,-38.02 128.48,-38.94 120.68,-39.83"/>
<polygon fill="#63b8ff" stroke="#63b8ff" points="145.08,-40.57 154.62,-35.96 144.28,-33.62 145.08,-40.57"/>
</a>
</g>
</g>
<!-- Node3 -->
<g id="Node000003" class="node">
<title>Node3</title>
<g id="a_Node000003"><a xlink:href="../../de/d3a/class_a_heavy_list_model.html#a84d3e51feb6c9ab922c793462d4fd6ad" target="_top" xlink:title=" ">
<polygon fill="white" stroke="#666666" points="120.25,-19.25 0,-19.25 0,0 120.25,0 120.25,-19.25"/>
<text text-anchor="middle" x="60.12" y="-5.75" font-family="Helvetica,sans-Serif" font-size="10.00">AHeavyListModel::apply</text>
</a>
</g>
</g>
<!-- Node1&#45;&gt;Node3 -->
<g id="edge2_Node000001_Node000003" class="edge">
<title>Node1&#45;&gt;Node3</title>
<g id="a_edge2_Node000001_Node000003"><a xlink:title=" ">
<path fill="none" stroke="#63b8ff" d="M144.69,-18.65C136.59,-17.78 128.48,-16.9 120.68,-16.06"/>
<polygon fill="#63b8ff" stroke="#63b8ff" points="144.3,-22.13 154.61,-19.72 145.05,-15.17 144.3,-22.13"/>
</a>
</g>
</g>
</g>
</svg>
