<?xml version="1.0" encoding="UTF-8" standalone="no"?>
<!DOCTYPE svg PUBLIC "-//W3C//DTD SVG 1.1//EN"
 "http://www.w3.org/Graphics/SVG/1.1/DTD/svg11.dtd">
<!-- Generated by graphviz version 7.0.5 (20221223.1930)
 -->
<!-- Title: AHeavyListModel::setState Pages: 1 -->
<svg width="497pt" height="162pt"
 viewBox="0.00 0.00 497.00 162.00" xmlns="http://www.w3.org/2000/svg" xmlns:xlink="http://www.w3.org/1999/xlink">
<g id="graph0" class="graph" transform="scale(1 1) rotate(0) translate(4 158)">
<title>AHeavyListModel::setState</title>
<!-- Node1 -->
<g id="node1" class="node">
<title>Node1</title>
<g id="a_node1"><a xlink:title=" ">
<polygon fill="#999999" stroke="#666666" points="489,-86.5 354,-86.5 354,-67.5 489,-67.5 489,-86.5"/>
<text text-anchor="middle" x="421.5" y="-74.5" font-family="Helvetica,sans-Serif" font-size="10.00">AHeavyListModel::setState</text>
</a>
</g>
</g>
<!-- Node2 -->
<g id="node2" class="node">
<title>Node2</title>
<g id="a_node2"><a xlink:href="../../d8/d15/struct_a_heavy_list_model_1_1_apply_finisher.html#a0d667b5e7ed0e9daffc42841d1a9ceca" target="_top" xlink:title=" ">
<polygon fill="white" stroke="#666666" points="318,-154 161,-154 161,-124 318,-124 318,-154"/>
<text text-anchor="start" x="169" y="-142" font-family="Helvetica,sans-Serif" font-size="10.00">AHeavyListModel::ApplyFinisher</text>
<text text-anchor="middle" x="239.5" y="-131" font-family="Helvetica,sans-Serif" font-size="10.00">::ApplyFinisher</text>
</a>
</g>
</g>
<!-- Node1&#45;&gt;Node2 -->
<g id="edge1" class="edge">
<title>Node1&#45;&gt;Node2</title>
<path fill="none" stroke="#63b8ff" d="M384.36,-90.95C364.81,-98.35 340.18,-107.46 318,-115 309.6,-117.86 300.64,-120.76 291.9,-123.51"/>
<polygon fill="#63b8ff" stroke="#63b8ff" points="385.43,-94.29 393.53,-87.46 382.94,-87.74 385.43,-94.29"/>
</g>
<!-- Node3 -->
<g id="node3" class="node">
<title>Node3</title>
<g id="a_node3"><a xlink:href="../../de/d3a/class_a_heavy_list_model.html#aaa54e16d09fe76e0625716de53319966" target="_top" xlink:title=" ">
<polygon fill="#fff0f0" stroke="red" points="299,-105.5 180,-105.5 180,-86.5 299,-86.5 299,-105.5"/>
<text text-anchor="middle" x="239.5" y="-93.5" font-family="Helvetica,sans-Serif" font-size="10.00">AHeavyListModel::clear</text>
</a>
</g>
</g>
<!-- Node1&#45;&gt;Node3 -->
<g id="edge2" class="edge">
<title>Node1&#45;&gt;Node3</title>
<path fill="none" stroke="#63b8ff" d="M342.32,-85.25C327.94,-86.77 313.15,-88.33 299.45,-89.78"/>
<polygon fill="#63b8ff" stroke="#63b8ff" points="342.65,-88.74 352.23,-84.21 341.91,-81.78 342.65,-88.74"/>
</g>
<!-- Node4 -->
<g id="node4" class="node">
<title>Node4</title>
<g id="a_node4"><a xlink:href="../../de/d3a/class_a_heavy_list_model.html#a6b6c46a6ea7bbe5b06b07ee783836204" target="_top" xlink:title=" ">
<polygon fill="#fff0f0" stroke="red" points="125,-86.5 0,-86.5 0,-67.5 125,-67.5 125,-86.5"/>
<text text-anchor="middle" x="62.5" y="-74.5" font-family="Helvetica,sans-Serif" font-size="10.00">AHeavyListModel::reload</text>
</a>
</g>
</g>
<!-- Node1&#45;&gt;Node4 -->
<g id="edge4" class="edge">
<title>Node1&#45;&gt;Node4</title>
<path fill="none" stroke="#63b8ff" d="M342.33,-77C277.17,-77 185.59,-77 125.42,-77"/>
<polygon fill="#63b8ff" stroke="#63b8ff" points="342.26,-80.5 352.26,-77 342.26,-73.5 342.26,-80.5"/>
</g>
<!-- Node6 -->
<g id="node5" class="node">
<title>Node6</title>
<g id="a_node5"><a xlink:href="../../d8/d15/struct_a_heavy_list_model_1_1_apply_finisher.html#ab39a5a9450ecb485a53d758622f89191" target="_top" xlink:title=" ">
<polygon fill="white" stroke="#666666" points="318,-30 161,-30 161,0 318,0 318,-30"/>
<text text-anchor="start" x="169" y="-18" font-family="Helvetica,sans-Serif" font-size="10.00">AHeavyListModel::ApplyFinisher</text>
<text text-anchor="middle" x="239.5" y="-7" font-family="Helvetica,sans-Serif" font-size="10.00">::~ApplyFinisher</text>
</a>
</g>
</g>
<!-- Node1&#45;&gt;Node6 -->
<g id="edge5" class="edge">
<title>Node1&#45;&gt;Node6</title>
<path fill="none" stroke="#63b8ff" d="M380.88,-63.35C352.6,-53.61 314.53,-40.5 285.17,-30.39"/>
<polygon fill="#63b8ff" stroke="#63b8ff" points="379.55,-66.6 390.15,-66.55 381.83,-59.98 379.55,-66.6"/>
</g>
<!-- Node3&#45;&gt;Node4 -->
<g id="edge3" class="edge">
<title>Node3&#45;&gt;Node4</title>
<path fill="none" stroke="#63b8ff" d="M168.48,-88.4C154.23,-86.85 139.34,-85.23 125.4,-83.72"/>
<polygon fill="#63b8ff" stroke="#63b8ff" points="167.92,-91.86 178.24,-89.46 168.67,-84.9 167.92,-91.86"/>
</g>
</g>
</svg>
