<?xml version="1.0" encoding="UTF-8" standalone="no"?>
<!DOCTYPE svg PUBLIC "-//W3C//DTD SVG 1.1//EN"
 "http://www.w3.org/Graphics/SVG/1.1/DTD/svg11.dtd">
<!-- Generated by graphviz version 7.0.5 (20221223.1930)
 -->
<!-- Title: AHeavyListModel::state Pages: 1 -->
<svg width="460pt" height="83pt"
 viewBox="0.00 0.00 460.00 83.00" xmlns="http://www.w3.org/2000/svg" xmlns:xlink="http://www.w3.org/1999/xlink">
<g id="graph0" class="graph" transform="scale(1 1) rotate(0) translate(4 79)">
<title>AHeavyListModel::state</title>
<!-- Node1 -->
<g id="node1" class="node">
<title>Node1</title>
<g id="a_node1"><a xlink:title=" ">
<polygon fill="#999999" stroke="#666666" points="452,-56 332,-56 332,-37 452,-37 452,-56"/>
<text text-anchor="middle" x="392" y="-44" font-family="Helvetica,sans-Serif" font-size="10.00">AHeavyListModel::state</text>
</a>
</g>
</g>
<!-- Node2 -->
<g id="node2" class="node">
<title>Node2</title>
<g id="a_node2"><a xlink:href="../../de/d3a/class_a_heavy_list_model.html#a6b6c46a6ea7bbe5b06b07ee783836204" target="_top" xlink:title=" ">
<polygon fill="#fff0f0" stroke="red" points="125,-75 0,-75 0,-56 125,-56 125,-75"/>
<text text-anchor="middle" x="62.5" y="-63" font-family="Helvetica,sans-Serif" font-size="10.00">AHeavyListModel::reload</text>
</a>
</g>
</g>
<!-- Node1&#45;&gt;Node2 -->
<g id="edge1" class="edge">
<title>Node1&#45;&gt;Node2</title>
<path fill="none" stroke="#63b8ff" d="M339.62,-58.7C325.56,-61.51 310.26,-64.09 296,-65.5 238.36,-71.21 172.28,-70.52 125.34,-68.81"/>
<polygon fill="#63b8ff" stroke="#63b8ff" points="340.03,-62.19 349.1,-56.72 338.6,-55.34 340.03,-62.19"/>
</g>
<!-- Node4 -->
<g id="node3" class="node">
<title>Node4</title>
<g id="a_node3"><a xlink:href="../../de/d3a/class_a_heavy_list_model.html#a3f74439b0a0c0be1c78be4a2c14c0f5d" target="_top" xlink:title=" ">
<polygon fill="#fff0f0" stroke="red" points="296,-56 161,-56 161,-37 296,-37 296,-56"/>
<text text-anchor="middle" x="228.5" y="-44" font-family="Helvetica,sans-Serif" font-size="10.00">AHeavyListModel::setState</text>
</a>
</g>
</g>
<!-- Node1&#45;&gt;Node4 -->
<g id="edge2" class="edge">
<title>Node1&#45;&gt;Node4</title>
<path fill="none" stroke="#63b8ff" d="M320.27,-46.5C312.32,-46.5 304.25,-46.5 296.35,-46.5"/>
<polygon fill="#63b8ff" stroke="#63b8ff" points="320.27,-50 330.27,-46.5 320.27,-43 320.27,-50"/>
</g>
<!-- Node8 -->
<g id="node4" class="node">
<title>Node8</title>
<g id="a_node4"><a xlink:href="../../d4/d99/aheavy__list__model__tests_8cpp.html#a7e58629244174a46fa958321db30f731" target="_top" xlink:title=" ">
<polygon fill="white" stroke="#666666" points="249,-19 208,-19 208,0 249,0 249,-19"/>
<text text-anchor="middle" x="228.5" y="-7" font-family="Helvetica,sans-Serif" font-size="10.00">TEST</text>
</a>
</g>
</g>
<!-- Node1&#45;&gt;Node8 -->
<g id="edge4" class="edge">
<title>Node1&#45;&gt;Node8</title>
<path fill="none" stroke="#63b8ff" d="M336.51,-34.02C306.47,-27.13 270.99,-19.01 249.38,-14.05"/>
<polygon fill="#63b8ff" stroke="#63b8ff" points="335.72,-37.43 346.25,-36.25 337.28,-30.6 335.72,-37.43"/>
</g>
<!-- Node4&#45;&gt;Node2 -->
<g id="edge3" class="edge">
<title>Node4&#45;&gt;Node2</title>
<path fill="none" stroke="#63b8ff" d="M149.45,-55.54C141.37,-56.48 133.25,-57.42 125.38,-58.33"/>
<polygon fill="#63b8ff" stroke="#63b8ff" points="149.76,-59.03 159.29,-54.4 148.96,-52.08 149.76,-59.03"/>
</g>
</g>
</svg>
