<?xml version="1.0" encoding="UTF-8" standalone="no"?>
<!DOCTYPE svg PUBLIC "-//W3C//DTD SVG 1.1//EN"
 "http://www.w3.org/Graphics/SVG/1.1/DTD/svg11.dtd">
<!-- Generated by graphviz version 7.0.5 (20221223.1930)
 -->
<!-- Title: AHeavyListModel::clear Pages: 1 -->
<svg width="303pt" height="64pt"
 viewBox="0.00 0.00 303.00 64.00" xmlns="http://www.w3.org/2000/svg" xmlns:xlink="http://www.w3.org/1999/xlink">
<g id="graph0" class="graph" transform="scale(1 1) rotate(0) translate(4 60)">
<title>AHeavyListModel::clear</title>
<!-- Node1 -->
<g id="node1" class="node">
<title>Node1</title>
<g id="a_node1"><a xlink:title=" ">
<polygon fill="#999999" stroke="#666666" points="119,-37 0,-37 0,-18 119,-18 119,-37"/>
<text text-anchor="middle" x="59.5" y="-25" font-family="Helvetica,sans-Serif" font-size="10.00">AHeavyListModel::clear</text>
</a>
</g>
</g>
<!-- Node2 -->
<g id="node2" class="node">
<title>Node2</title>
<g id="a_node2"><a xlink:href="../../de/d3a/class_a_heavy_list_model.html#ab7aee988f0813763f9d75498a5076c07" target="_top" xlink:title=" ">
<polygon fill="white" stroke="#666666" points="295,-56 155,-56 155,-37 295,-37 295,-56"/>
<text text-anchor="middle" x="225" y="-44" font-family="Helvetica,sans-Serif" font-size="10.00">AHeavyListModel::clearData</text>
</a>
</g>
</g>
<!-- Node1&#45;&gt;Node2 -->
<g id="edge1" class="edge">
<title>Node1&#45;&gt;Node2</title>
<path fill="none" stroke="#63b8ff" d="M119.07,-34.31C127,-35.23 135.26,-36.19 143.5,-37.14"/>
<polygon fill="#63b8ff" stroke="#63b8ff" points="142.85,-40.59 153.19,-38.27 143.66,-33.64 142.85,-40.59"/>
</g>
<!-- Node3 -->
<g id="node3" class="node">
<title>Node3</title>
<g id="a_node3"><a xlink:href="../../de/d3a/class_a_heavy_list_model.html#a3f74439b0a0c0be1c78be4a2c14c0f5d" target="_top" xlink:title=" ">
<polygon fill="#fff0f0" stroke="red" points="292.5,-19 157.5,-19 157.5,0 292.5,0 292.5,-19"/>
<text text-anchor="middle" x="225" y="-7" font-family="Helvetica,sans-Serif" font-size="10.00">AHeavyListModel::setState</text>
</a>
</g>
</g>
<!-- Node1&#45;&gt;Node3 -->
<g id="edge2" class="edge">
<title>Node1&#45;&gt;Node3</title>
<path fill="none" stroke="#63b8ff" d="M119.07,-21.05C127.76,-20.09 136.84,-19.1 145.86,-18.1"/>
<polygon fill="#63b8ff" stroke="#63b8ff" points="146.16,-21.59 155.72,-17.02 145.4,-14.63 146.16,-21.59"/>
</g>
</g>
</svg>
