<?xml version="1.0" encoding="UTF-8" standalone="no"?>
<!DOCTYPE svg PUBLIC "-//W3C//DTD SVG 1.1//EN"
 "http://www.w3.org/Graphics/SVG/1.1/DTD/svg11.dtd">
<!-- Generated by graphviz version 7.0.5 (20221223.1930)
 -->
<!-- Title: src/photos_crawler/default_analyzers/file_analyzer.hpp Pages: 1 -->
<svg width="407pt" height="126pt"
 viewBox="0.00 0.00 407.00 126.00" xmlns="http://www.w3.org/2000/svg" xmlns:xlink="http://www.w3.org/1999/xlink">
<g id="graph0" class="graph" transform="scale(1 1) rotate(0) translate(4 122)">
<title>src/photos_crawler/default_analyzers/file_analyzer.hpp</title>
<!-- Node1 -->
<g id="node1" class="node">
<title>Node1</title>
<g id="a_node1"><a xlink:title=" ">
<polygon fill="#999999" stroke="#666666" points="237.5,-118 127.5,-118 127.5,-77 237.5,-77 237.5,-118"/>
<text text-anchor="start" x="135.5" y="-106" font-family="Helvetica,sans-Serif" font-size="10.00">src/photos_crawler</text>
<text text-anchor="start" x="135.5" y="-95" font-family="Helvetica,sans-Serif" font-size="10.00">/default_analyzers/file</text>
<text text-anchor="middle" x="182.5" y="-84" font-family="Helvetica,sans-Serif" font-size="10.00">_analyzer.hpp</text>
</a>
</g>
</g>
<!-- Node2 -->
<g id="node2" class="node">
<title>Node2</title>
<g id="a_node2"><a xlink:href="../../d9/d7b/photos__collector_8cpp.html" target="_top" xlink:title=" ">
<polygon fill="white" stroke="#666666" points="109,-35.5 0,-35.5 0,-5.5 109,-5.5 109,-35.5"/>
<text text-anchor="start" x="8" y="-23.5" font-family="Helvetica,sans-Serif" font-size="10.00">src/gui/desktop/utils</text>
<text text-anchor="middle" x="54.5" y="-12.5" font-family="Helvetica,sans-Serif" font-size="10.00">/photos_collector.cpp</text>
</a>
</g>
</g>
<!-- Node1&#45;&gt;Node2 -->
<g id="edge1" class="edge">
<title>Node1&#45;&gt;Node2</title>
<path fill="none" stroke="#63b8ff" d="M138.69,-70.83C118.69,-59.11 95.76,-45.67 78.88,-35.79"/>
<polygon fill="#63b8ff" stroke="#63b8ff" points="136.83,-73.8 147.23,-75.83 140.37,-67.76 136.83,-73.8"/>
</g>
<!-- Node3 -->
<g id="node3" class="node">
<title>Node3</title>
<g id="a_node3"><a xlink:href="../../dc/d93/file__analyzer_8cpp.html" target="_top" xlink:title=" ">
<polygon fill="white" stroke="#666666" points="237.5,-41 127.5,-41 127.5,0 237.5,0 237.5,-41"/>
<text text-anchor="start" x="135.5" y="-29" font-family="Helvetica,sans-Serif" font-size="10.00">src/photos_crawler</text>
<text text-anchor="start" x="135.5" y="-18" font-family="Helvetica,sans-Serif" font-size="10.00">/default_analyzers/file</text>
<text text-anchor="middle" x="182.5" y="-7" font-family="Helvetica,sans-Serif" font-size="10.00">_analyzer.cpp</text>
</a>
</g>
</g>
<!-- Node1&#45;&gt;Node3 -->
<g id="edge2" class="edge">
<title>Node1&#45;&gt;Node3</title>
<path fill="none" stroke="#63b8ff" d="M182.5,-65.36C182.5,-57.24 182.5,-48.7 182.5,-41.33"/>
<polygon fill="#63b8ff" stroke="#63b8ff" points="179,-65.28 182.5,-75.28 186,-65.28 179,-65.28"/>
</g>
<!-- Node4 -->
<g id="node4" class="node">
<title>Node4</title>
<g id="a_node4"><a xlink:href="../../dc/d2e/analyzer_tests_8cpp.html" target="_top" xlink:title=" ">
<polygon fill="white" stroke="#666666" points="399,-35.5 256,-35.5 256,-5.5 399,-5.5 399,-35.5"/>
<text text-anchor="start" x="264" y="-23.5" font-family="Helvetica,sans-Serif" font-size="10.00">src/photos_crawler</text>
<text text-anchor="middle" x="327.5" y="-12.5" font-family="Helvetica,sans-Serif" font-size="10.00">/unit_tests/analyzerTests.cpp</text>
</a>
</g>
</g>
<!-- Node1&#45;&gt;Node4 -->
<g id="edge3" class="edge">
<title>Node1&#45;&gt;Node4</title>
<path fill="none" stroke="#63b8ff" d="M231.2,-71.31C254.07,-59.48 280.5,-45.81 299.88,-35.79"/>
<polygon fill="#63b8ff" stroke="#63b8ff" points="229.6,-68.2 222.32,-75.9 232.81,-74.42 229.6,-68.2"/>
</g>
</g>
</svg>
