<?xml version="1.0" encoding="UTF-8" standalone="no"?>
<!DOCTYPE svg PUBLIC "-//W3C//DTD SVG 1.1//EN"
 "http://www.w3.org/Graphics/SVG/1.1/DTD/svg11.dtd">
<!-- Generated by graphviz version 12.2.0 (20241103.1931)
 -->
<!-- Title: src/gui/desktop/models/faces_model.hpp Pages: 1 -->
<svg width="595pt" height="227pt"
 viewBox="0.00 0.00 595.00 226.75" xmlns="http://www.w3.org/2000/svg" xmlns:xlink="http://www.w3.org/1999/xlink">
<g id="graph0" class="graph" transform="scale(1 1) rotate(0) translate(4 222.75)">
<title>src/gui/desktop/models/faces_model.hpp</title>
<!-- Node1 -->
<g id="Node000001" class="node">
<title>Node1</title>
<g id="a_Node000001"><a xlink:title=" ">
<polygon fill="#999999" stroke="#666666" points="386.12,-218.75 268.88,-218.75 268.88,-188.25 386.12,-188.25 386.12,-218.75"/>
<text text-anchor="start" x="276.88" y="-205.25" font-family="Helvetica,sans-Serif" font-size="10.00">src/gui/desktop/models</text>
<text text-anchor="middle" x="327.5" y="-194" font-family="Helvetica,sans-Serif" font-size="10.00">/faces_model.hpp</text>
</a>
</g>
</g>
<!-- Node2 -->
<g id="Node000002" class="node">
<title>Node2</title>
<g id="a_Node000002"><a xlink:title=" ">
<polygon fill="#e0e0e0" stroke="#999999" points="103,-146.62 0,-146.62 0,-127.38 103,-127.38 103,-146.62"/>
<text text-anchor="middle" x="51.5" y="-133.12" font-family="Helvetica,sans-Serif" font-size="10.00">QAbstractListModel</text>
</a>
</g>
</g>
<!-- Node1&#45;&gt;Node2 -->
<g id="edge1_Node000001_Node000002" class="edge">
<title>Node1&#45;&gt;Node2</title>
<g id="a_edge1_Node000001_Node000002"><a xlink:title=" ">
<path fill="none" stroke="#63b8ff" d="M268.63,-188.74C218.9,-177.12 148.47,-160.66 101.45,-149.67"/>
<polygon fill="#63b8ff" stroke="#63b8ff" points="102.33,-146.29 91.8,-147.42 100.74,-153.1 102.33,-146.29"/>
</a>
</g>
</g>
<!-- Node3 -->
<g id="Node000003" class="node">
<title>Node3</title>
<g id="a_Node000003"><a xlink:href="../../d0/dd6/function__wrappers_8hpp.html" target="_top" xlink:title=" ">
<polygon fill="#fff0f0" stroke="red" points="242.12,-80.12 106.88,-80.12 106.88,-60.88 242.12,-60.88 242.12,-80.12"/>
<text text-anchor="middle" x="174.5" y="-66.62" font-family="Helvetica,sans-Serif" font-size="10.00">core/function_wrappers.hpp</text>
</a>
</g>
</g>
<!-- Node1&#45;&gt;Node3 -->
<g id="edge2_Node000001_Node000003" class="edge">
<title>Node1&#45;&gt;Node3</title>
<g id="a_edge2_Node000001_Node000003"><a xlink:title=" ">
<path fill="none" stroke="#63b8ff" d="M268.56,-193.54C222.84,-185.24 164.9,-171.3 150.5,-152.25 136.5,-133.72 149.11,-107.1 160.7,-89.56"/>
<polygon fill="#63b8ff" stroke="#63b8ff" points="163.38,-91.83 166.32,-81.65 157.68,-87.77 163.38,-91.83"/>
</a>
</g>
</g>
<!-- Node11 -->
<g id="Node000011" class="node">
<title>Node11</title>
<g id="a_Node000011"><a xlink:href="../../d6/d1f/icore__factory__accessor_8hpp.html" target="_top" xlink:title=" ">
<polygon fill="white" stroke="#666666" points="253.12,-152.25 159.88,-152.25 159.88,-121.75 253.12,-121.75 253.12,-152.25"/>
<text text-anchor="start" x="167.88" y="-138.75" font-family="Helvetica,sans-Serif" font-size="10.00">core/icore_factory</text>
<text text-anchor="middle" x="206.5" y="-127.5" font-family="Helvetica,sans-Serif" font-size="10.00">_accessor.hpp</text>
</a>
</g>
</g>
<!-- Node1&#45;&gt;Node11 -->
<g id="edge3_Node000001_Node000011" class="edge">
<title>Node1&#45;&gt;Node11</title>
<g id="a_edge3_Node000001_Node000011"><a xlink:title=" ">
<path fill="none" stroke="#63b8ff" d="M300.04,-187.86C283.41,-179 261.98,-167.57 243.82,-157.89"/>
<polygon fill="#63b8ff" stroke="#63b8ff" points="245.65,-154.91 235.18,-153.29 242.36,-161.08 245.65,-154.91"/>
</a>
</g>
</g>
<!-- Node12 -->
<g id="Node000012" class="node">
<title>Node12</title>
<g id="a_Node000012"><a xlink:href="../../d7/d2b/idatabase_8hpp.html" target="_top" xlink:title=" ">
<polygon fill="#fff0f0" stroke="red" points="421.88,-80.12 303.12,-80.12 303.12,-60.88 421.88,-60.88 421.88,-80.12"/>
<text text-anchor="middle" x="362.5" y="-66.62" font-family="Helvetica,sans-Serif" font-size="10.00">database/idatabase.hpp</text>
</a>
</g>
</g>
<!-- Node1&#45;&gt;Node12 -->
<g id="edge4_Node000001_Node000012" class="edge">
<title>Node1&#45;&gt;Node12</title>
<g id="a_edge4_Node000001_Node000012"><a xlink:title=" ">
<path fill="none" stroke="#63b8ff" d="M357,-187.82C370.45,-179.42 385.02,-167.49 392.5,-152.25 402.86,-131.15 389.19,-105.53 377.1,-88.88"/>
<polygon fill="#63b8ff" stroke="#63b8ff" points="380.19,-87.15 371.28,-81.42 374.66,-91.46 380.19,-87.15"/>
</a>
</g>
</g>
<!-- Node32 -->
<g id="Node000032" class="node">
<title>Node32</title>
<g id="a_Node000032"><a xlink:href="../../d9/d0f/person__data_8hpp.html" target="_top" xlink:title=" ">
<polygon fill="#fff0f0" stroke="red" points="493.12,-19.25 405.88,-19.25 405.88,0 493.12,0 493.12,-19.25"/>
<text text-anchor="middle" x="449.5" y="-5.75" font-family="Helvetica,sans-Serif" font-size="10.00">person_data.hpp</text>
</a>
</g>
</g>
<!-- Node1&#45;&gt;Node32 -->
<g id="edge6_Node000001_Node000032" class="edge">
<title>Node1&#45;&gt;Node32</title>
<g id="a_edge6_Node000001_Node000032"><a xlink:title=" ">
<path fill="none" stroke="#63b8ff" d="M362.2,-187.81C378.26,-179.46 396.41,-167.59 408.5,-152.25 437.07,-116 445.74,-60.55 448.36,-30.94"/>
<polygon fill="#63b8ff" stroke="#63b8ff" points="451.84,-31.37 449.07,-21.14 444.86,-30.86 451.84,-31.37"/>
</a>
</g>
</g>
<!-- Node54 -->
<g id="Node000054" class="node">
<title>Node54</title>
<g id="a_Node000054"><a xlink:href="../../dd/d86/face__recognition_8hpp.html" target="_top" xlink:title=" ">
<polygon fill="#fff0f0" stroke="red" points="587,-85.75 478,-85.75 478,-55.25 587,-55.25 587,-85.75"/>
<text text-anchor="start" x="486" y="-72.25" font-family="Helvetica,sans-Serif" font-size="10.00">face_recognition/face</text>
<text text-anchor="middle" x="532.5" y="-61" font-family="Helvetica,sans-Serif" font-size="10.00">_recognition.hpp</text>
</a>
</g>
</g>
<!-- Node1&#45;&gt;Node54 -->
<g id="edge7_Node000001_Node000054" class="edge">
<title>Node1&#45;&gt;Node54</title>
<g id="a_edge7_Node000001_Node000054"><a xlink:title=" ">
<path fill="none" stroke="#63b8ff" d="M386.57,-187.89C411.71,-179.9 440.48,-168.3 463.5,-152.25 485.45,-136.95 504.69,-113.04 517.24,-95.21"/>
<polygon fill="#63b8ff" stroke="#63b8ff" points="519.91,-97.51 522.64,-87.27 514.12,-93.57 519.91,-97.51"/>
</a>
</g>
</g>
<!-- Node57 -->
<g id="Node000057" class="node">
<title>Node57</title>
<g id="a_Node000057"><a xlink:href="../../d9/d19/people__editor_8hpp.html" target="_top" xlink:title=" ">
<polygon fill="#fff0f0" stroke="red" points="383.88,-146.62 271.12,-146.62 271.12,-127.38 383.88,-127.38 383.88,-146.62"/>
<text text-anchor="middle" x="327.5" y="-133.12" font-family="Helvetica,sans-Serif" font-size="10.00">utils/people_editor.hpp</text>
</a>
</g>
</g>
<!-- Node1&#45;&gt;Node57 -->
<g id="edge9_Node000001_Node000057" class="edge">
<title>Node1&#45;&gt;Node57</title>
<g id="a_edge9_Node000001_Node000057"><a xlink:title=" ">
<path fill="none" stroke="#63b8ff" d="M327.5,-187.86C327.5,-179.08 327.5,-167.77 327.5,-158.15"/>
<polygon fill="#63b8ff" stroke="#63b8ff" points="331,-158.34 327.5,-148.34 324,-158.34 331,-158.34"/>
</a>
</g>
</g>
<!-- Node12&#45;&gt;Node32 -->
<g id="edge5_Node000012_Node000032" class="edge">
<title>Node12&#45;&gt;Node32</title>
<g id="a_edge5_Node000012_Node000032"><a xlink:title=" ">
<path fill="none" stroke="#63b8ff" d="M375.71,-60.56C389.25,-51.39 410.57,-36.97 426.82,-25.98"/>
<polygon fill="#63b8ff" stroke="#63b8ff" points="428.59,-29 434.91,-20.5 424.67,-23.21 428.59,-29"/>
</a>
</g>
</g>
<!-- Node54&#45;&gt;Node32 -->
<g id="edge8_Node000054_Node000032" class="edge">
<title>Node54&#45;&gt;Node32</title>
<g id="a_edge8_Node000054_Node000032"><a xlink:title=" ">
<path fill="none" stroke="#63b8ff" d="M511.98,-54.95C499.71,-46.24 484.11,-35.18 471.58,-26.28"/>
<polygon fill="#63b8ff" stroke="#63b8ff" points="473.71,-23.51 463.53,-20.58 469.66,-29.22 473.71,-23.51"/>
</a>
</g>
</g>
<!-- Node57&#45;&gt;Node3 -->
<g id="edge10_Node000057_Node000003" class="edge">
<title>Node57&#45;&gt;Node3</title>
<g id="a_edge10_Node000057_Node000003"><a xlink:title=" ">
<path fill="none" stroke="#63b8ff" d="M305.9,-126.9C279.93,-115.95 236.12,-97.48 206.29,-84.9"/>
<polygon fill="#63b8ff" stroke="#63b8ff" points="207.96,-81.81 197.38,-81.15 205.24,-88.26 207.96,-81.81"/>
</a>
</g>
</g>
<!-- Node57&#45;&gt;Node12 -->
<g id="edge11_Node000057_Node000012" class="edge">
<title>Node57&#45;&gt;Node12</title>
<g id="a_edge11_Node000057_Node000012"><a xlink:title=" ">
<path fill="none" stroke="#63b8ff" d="M332.37,-127.03C337.49,-117.6 345.69,-102.47 352.25,-90.38"/>
<polygon fill="#63b8ff" stroke="#63b8ff" points="355.26,-92.18 356.95,-81.72 349.11,-88.84 355.26,-92.18"/>
</a>
</g>
</g>
</g>
</svg>
