<?xml version="1.0" encoding="UTF-8" standalone="no"?>
<!DOCTYPE svg PUBLIC "-//W3C//DTD SVG 1.1//EN"
 "http://www.w3.org/Graphics/SVG/1.1/DTD/svg11.dtd">
<!-- Generated by graphviz version 12.2.0 (20241103.1931)
 -->
<!-- Title: src/core/implementation/observable_executor.cpp Pages: 1 -->
<svg width="630pt" height="204pt"
 viewBox="0.00 0.00 629.75 204.25" xmlns="http://www.w3.org/2000/svg" xmlns:xlink="http://www.w3.org/1999/xlink">
<g id="graph0" class="graph" transform="scale(1 1) rotate(0) translate(4 200.25)">
<title>src/core/implementation/observable_executor.cpp</title>
<!-- Node1 -->
<g id="Node000001" class="node">
<title>Node1</title>
<g id="a_Node000001"><a xlink:title=" ">
<polygon fill="#999999" stroke="#666666" points="298.25,-196.25 172,-196.25 172,-165.75 298.25,-165.75 298.25,-196.25"/>
<text text-anchor="start" x="180" y="-182.75" font-family="Helvetica,sans-Serif" font-size="10.00">src/core/implementation</text>
<text text-anchor="middle" x="235.12" y="-171.5" font-family="Helvetica,sans-Serif" font-size="10.00">/observable_executor.cpp</text>
</a>
</g>
</g>
<!-- Node2 -->
<g id="Node000002" class="node">
<title>Node2</title>
<g id="a_Node000002"><a xlink:title=" ">
<polygon fill="#e0e0e0" stroke="#999999" points="48.25,-129.75 0,-129.75 0,-110.5 48.25,-110.5 48.25,-129.75"/>
<text text-anchor="middle" x="24.12" y="-116.25" font-family="Helvetica,sans-Serif" font-size="10.00">cassert</text>
</a>
</g>
</g>
<!-- Node1&#45;&gt;Node2 -->
<g id="edge1_Node000001_Node000002" class="edge">
<title>Node1&#45;&gt;Node2</title>
<g id="a_edge1_Node000001_Node000002"><a xlink:title=" ">
<path fill="none" stroke="#63b8ff" d="M182.43,-165.3C143.93,-154.55 92.8,-140.29 59.21,-130.91"/>
<polygon fill="#63b8ff" stroke="#63b8ff" points="60.56,-127.66 49.99,-128.34 58.68,-134.4 60.56,-127.66"/>
</a>
</g>
</g>
<!-- Node3 -->
<g id="Node000003" class="node">
<title>Node3</title>
<g id="a_Node000003"><a xlink:title=" ">
<polygon fill="#e0e0e0" stroke="#999999" points="111.75,-129.75 66.5,-129.75 66.5,-110.5 111.75,-110.5 111.75,-129.75"/>
<text text-anchor="middle" x="89.12" y="-116.25" font-family="Helvetica,sans-Serif" font-size="10.00">chrono</text>
</a>
</g>
</g>
<!-- Node1&#45;&gt;Node3 -->
<g id="edge2_Node000001_Node000003" class="edge">
<title>Node1&#45;&gt;Node3</title>
<g id="a_edge2_Node000001_Node000003"><a xlink:title=" ">
<path fill="none" stroke="#63b8ff" d="M198.66,-165.3C175.14,-155.81 144.81,-143.58 122.03,-134.39"/>
<polygon fill="#63b8ff" stroke="#63b8ff" points="123.5,-131.21 112.92,-130.72 120.88,-137.71 123.5,-131.21"/>
</a>
</g>
</g>
<!-- Node4 -->
<g id="Node000004" class="node">
<title>Node4</title>
<g id="a_Node000004"><a xlink:title=" ">
<polygon fill="#e0e0e0" stroke="#999999" points="180.38,-129.75 129.88,-129.75 129.88,-110.5 180.38,-110.5 180.38,-129.75"/>
<text text-anchor="middle" x="155.12" y="-116.25" font-family="Helvetica,sans-Serif" font-size="10.00">numeric</text>
</a>
</g>
</g>
<!-- Node1&#45;&gt;Node4 -->
<g id="edge3_Node000001_Node000004" class="edge">
<title>Node1&#45;&gt;Node4</title>
<g id="a_edge3_Node000001_Node000004"><a xlink:title=" ">
<path fill="none" stroke="#63b8ff" d="M215.35,-165.45C203.52,-156.74 188.49,-145.68 176.4,-136.78"/>
<polygon fill="#63b8ff" stroke="#63b8ff" points="178.81,-134.21 168.68,-131.1 174.66,-139.84 178.81,-134.21"/>
</a>
</g>
</g>
<!-- Node5 -->
<g id="Node000005" class="node">
<title>Node5</title>
<g id="a_Node000005"><a xlink:title=" ">
<polygon fill="#e0e0e0" stroke="#999999" points="362.5,-19.25 315.75,-19.25 315.75,0 362.5,0 362.5,-19.25"/>
<text text-anchor="middle" x="339.12" y="-5.75" font-family="Helvetica,sans-Serif" font-size="10.00">QHash</text>
</a>
</g>
</g>
<!-- Node1&#45;&gt;Node5 -->
<g id="edge4_Node000001_Node000005" class="edge">
<title>Node1&#45;&gt;Node5</title>
<g id="a_edge4_Node000001_Node000005"><a xlink:title=" ">
<path fill="none" stroke="#63b8ff" d="M229.24,-165.49C224.29,-150.95 219.18,-128.23 227.12,-110.5 244.41,-71.92 284.78,-42.12 312.03,-25.47"/>
<polygon fill="#63b8ff" stroke="#63b8ff" points="313.61,-28.6 320.45,-20.51 310.06,-22.57 313.61,-28.6"/>
</a>
</g>
</g>
<!-- Node6 -->
<g id="Node000006" class="node">
<title>Node6</title>
<g id="a_Node000006"><a xlink:title=" ">
<polygon fill="#e0e0e0" stroke="#999999" points="288.12,-129.75 236.12,-129.75 236.12,-110.5 288.12,-110.5 288.12,-129.75"/>
<text text-anchor="middle" x="262.12" y="-116.25" font-family="Helvetica,sans-Serif" font-size="10.00">QVector</text>
</a>
</g>
</g>
<!-- Node1&#45;&gt;Node6 -->
<g id="edge5_Node000001_Node000006" class="edge">
<title>Node1&#45;&gt;Node6</title>
<g id="a_edge5_Node000001_Node000006"><a xlink:title=" ">
<path fill="none" stroke="#63b8ff" d="M241.8,-165.45C245.24,-157.95 249.48,-148.7 253.2,-140.6"/>
<polygon fill="#63b8ff" stroke="#63b8ff" points="256.34,-142.13 257.33,-131.58 249.98,-139.21 256.34,-142.13"/>
</a>
</g>
</g>
<!-- Node7 -->
<g id="Node000007" class="node">
<title>Node7</title>
<g id="a_Node000007"><a xlink:href="../../d0/dd6/function__wrappers_8hpp.html" target="_top" xlink:title=" ">
<polygon fill="#fff0f0" stroke="red" points="441.75,-129.75 306.5,-129.75 306.5,-110.5 441.75,-110.5 441.75,-129.75"/>
<text text-anchor="middle" x="374.12" y="-116.25" font-family="Helvetica,sans-Serif" font-size="10.00">core/function_wrappers.hpp</text>
</a>
</g>
</g>
<!-- Node1&#45;&gt;Node7 -->
<g id="edge6_Node000001_Node000007" class="edge">
<title>Node1&#45;&gt;Node7</title>
<g id="a_edge6_Node000001_Node000007"><a xlink:title=" ">
<path fill="none" stroke="#63b8ff" d="M269.84,-165.3C292.13,-155.85 320.85,-143.69 342.5,-134.52"/>
<polygon fill="#63b8ff" stroke="#63b8ff" points="343.57,-137.87 351.41,-130.74 340.84,-131.42 343.57,-137.87"/>
</a>
</g>
</g>
<!-- Node15 -->
<g id="Node000015" class="node">
<title>Node15</title>
<g id="a_Node000015"><a xlink:href="../../d2/de0/observable__executor_8hpp.html" target="_top" xlink:title=" ">
<polygon fill="#fff0f0" stroke="red" points="531.75,-74.5 408.5,-74.5 408.5,-55.25 531.75,-55.25 531.75,-74.5"/>
<text text-anchor="middle" x="470.12" y="-61" font-family="Helvetica,sans-Serif" font-size="10.00">observable_executor.hpp</text>
</a>
</g>
</g>
<!-- Node1&#45;&gt;Node15 -->
<g id="edge7_Node000001_Node000015" class="edge">
<title>Node1&#45;&gt;Node15</title>
<g id="a_edge7_Node000001_Node000015"><a xlink:title=" ">
<path fill="none" stroke="#63b8ff" d="M298.51,-172.37C354.07,-164.44 429.29,-150.3 451.12,-129.75 463.11,-118.47 467.65,-99.99 469.31,-85.8"/>
<polygon fill="#63b8ff" stroke="#63b8ff" points="472.76,-86.47 470.03,-76.24 465.78,-85.95 472.76,-86.47"/>
</a>
</g>
</g>
<!-- Node24 -->
<g id="Node000024" class="node">
<title>Node24</title>
<g id="a_Node000024"><a xlink:href="../../d6/d8d/observables__registry_8hpp.html" target="_top" xlink:title=" ">
<polygon fill="#fff0f0" stroke="red" points="621.75,-129.75 498.5,-129.75 498.5,-110.5 621.75,-110.5 621.75,-129.75"/>
<text text-anchor="middle" x="560.12" y="-116.25" font-family="Helvetica,sans-Serif" font-size="10.00">observables_registry.hpp</text>
</a>
</g>
</g>
<!-- Node1&#45;&gt;Node24 -->
<g id="edge9_Node000001_Node000024" class="edge">
<title>Node1&#45;&gt;Node24</title>
<g id="a_edge9_Node000001_Node000024"><a xlink:title=" ">
<path fill="none" stroke="#63b8ff" d="M298.56,-168.51C356.49,-158.01 441.58,-142.6 498.83,-132.23"/>
<polygon fill="#63b8ff" stroke="#63b8ff" points="499.19,-135.72 508.4,-130.49 497.94,-128.83 499.19,-135.72"/>
</a>
</g>
</g>
<!-- Node15&#45;&gt;Node5 -->
<g id="edge8_Node000015_Node000005" class="edge">
<title>Node15&#45;&gt;Node5</title>
<g id="a_edge8_Node000015_Node000005"><a xlink:title=" ">
<path fill="none" stroke="#63b8ff" d="M447.9,-54.84C427.11,-46.39 395.78,-33.65 372.07,-24.02"/>
<polygon fill="#63b8ff" stroke="#63b8ff" points="373.44,-20.8 362.86,-20.27 370.8,-27.28 373.44,-20.8"/>
</a>
</g>
</g>
<!-- Node24&#45;&gt;Node15 -->
<g id="edge10_Node000024_Node000015" class="edge">
<title>Node24&#45;&gt;Node15</title>
<g id="a_edge10_Node000024_Node000015"><a xlink:title=" ">
<path fill="none" stroke="#63b8ff" d="M544.86,-110.09C531.28,-102.06 511.17,-90.16 495.23,-80.73"/>
<polygon fill="#63b8ff" stroke="#63b8ff" points="497.16,-77.8 486.77,-75.72 493.59,-83.83 497.16,-77.8"/>
</a>
</g>
</g>
</g>
</svg>
