<?xml version="1.0" encoding="UTF-8" standalone="no"?>
<!DOCTYPE svg PUBLIC "-//W3C//DTD SVG 1.1//EN"
 "http://www.w3.org/Graphics/SVG/1.1/DTD/svg11.dtd">
<!-- Generated by graphviz version 7.0.5 (20221223.1930)
 -->
<!-- Title: src/core/implementation/observable_executor.cpp Pages: 1 -->
<svg width="179pt" height="148pt"
 viewBox="0.00 0.00 178.50 148.00" xmlns="http://www.w3.org/2000/svg" xmlns:xlink="http://www.w3.org/1999/xlink">
<g id="graph0" class="graph" transform="scale(1 1) rotate(0) translate(4 144)">
<title>src/core/implementation/observable_executor.cpp</title>
<!-- Node1 -->
<g id="node1" class="node">
<title>Node1</title>
<g id="a_node1"><a xlink:title=" ">
<polygon fill="#999999" stroke="#666666" points="127,-140 0,-140 0,-110 127,-110 127,-140"/>
<text text-anchor="start" x="8" y="-128" font-family="Helvetica,sans-Serif" font-size="10.00">src/core/implementation</text>
<text text-anchor="middle" x="63.5" y="-117" font-family="Helvetica,sans-Serif" font-size="10.00">/observable_executor.cpp</text>
</a>
</g>
</g>
<!-- Node2 -->
<g id="node2" class="node">
<title>Node2</title>
<g id="a_node2"><a xlink:href="../../d2/de0/observable__executor_8hpp.html" target="_top" xlink:title=" ">
<polygon fill="#fff0f0" stroke="red" points="125.5,-19 1.5,-19 1.5,0 125.5,0 125.5,-19"/>
<text text-anchor="middle" x="63.5" y="-7" font-family="Helvetica,sans-Serif" font-size="10.00">observable_executor.hpp</text>
</a>
</g>
</g>
<!-- Node1&#45;&gt;Node2 -->
<g id="edge1" class="edge">
<title>Node1&#45;&gt;Node2</title>
<path fill="none" stroke="#63b8ff" d="M52.49,-109.73C43.22,-95.96 32.25,-74.4 37.5,-55 40.01,-45.74 44.98,-36.42 49.91,-28.73"/>
<polygon fill="#63b8ff" stroke="#63b8ff" points="52.69,-30.86 55.51,-20.64 46.94,-26.87 52.69,-30.86"/>
</g>
<!-- Node5 -->
<g id="node3" class="node">
<title>Node5</title>
<g id="a_node3"><a xlink:href="../../d6/d8d/observables__registry_8hpp.html" target="_top" xlink:title=" ">
<polygon fill="#fff0f0" stroke="red" points="170.5,-74 46.5,-74 46.5,-55 170.5,-55 170.5,-74"/>
<text text-anchor="middle" x="108.5" y="-62" font-family="Helvetica,sans-Serif" font-size="10.00">observables_registry.hpp</text>
</a>
</g>
</g>
<!-- Node1&#45;&gt;Node5 -->
<g id="edge2" class="edge">
<title>Node1&#45;&gt;Node5</title>
<path fill="none" stroke="#63b8ff" d="M74.62,-109.54C80.76,-101.56 88.43,-91.59 94.91,-83.16"/>
<polygon fill="#63b8ff" stroke="#63b8ff" points="97.58,-85.44 100.9,-75.37 92.03,-81.17 97.58,-85.44"/>
</g>
<!-- Node5&#45;&gt;Node2 -->
<g id="edge3" class="edge">
<title>Node5&#45;&gt;Node2</title>
<path fill="none" stroke="#63b8ff" d="M101.07,-54.75C94.92,-47.5 85.99,-36.98 78.37,-28.02"/>
<polygon fill="#63b8ff" stroke="#63b8ff" points="81.21,-25.95 72.07,-20.6 75.88,-30.48 81.21,-25.95"/>
</g>
</g>
</svg>
