<?xml version="1.0" encoding="UTF-8" standalone="no"?>
<!DOCTYPE svg PUBLIC "-//W3C//DTD SVG 1.1//EN"
 "http://www.w3.org/Graphics/SVG/1.1/DTD/svg11.dtd">
<!-- Generated by graphviz version 12.2.0 (20241103.1931)
 -->
<!-- Title: src/database/benchmarks/photo_fetch_benchmarks.cpp Pages: 1 -->
<svg width="962pt" height="116pt"
 viewBox="0.00 0.00 962.38 116.25" xmlns="http://www.w3.org/2000/svg" xmlns:xlink="http://www.w3.org/1999/xlink">
<g id="graph0" class="graph" transform="scale(1 1) rotate(0) translate(4 112.25)">
<title>src/database/benchmarks/photo_fetch_benchmarks.cpp</title>
<!-- Node1 -->
<g id="Node000001" class="node">
<title>Node1</title>
<g id="a_Node000001"><a xlink:title=" ">
<polygon fill="#999999" stroke="#666666" points="455,-108.25 308.5,-108.25 308.5,-77.75 455,-77.75 455,-108.25"/>
<text text-anchor="start" x="316.5" y="-94.75" font-family="Helvetica,sans-Serif" font-size="10.00">src/database/benchmarks</text>
<text text-anchor="middle" x="381.75" y="-83.5" font-family="Helvetica,sans-Serif" font-size="10.00">/photo_fetch_benchmarks.cpp</text>
</a>
</g>
</g>
<!-- Node2 -->
<g id="Node000002" class="node">
<title>Node2</title>
<g id="a_Node000002"><a xlink:title=" ">
<polygon fill="#e0e0e0" stroke="#999999" points="35.5,-30.5 0,-30.5 0,-11.25 35.5,-11.25 35.5,-30.5"/>
<text text-anchor="middle" x="17.75" y="-17" font-family="Helvetica,sans-Serif" font-size="10.00">QDir</text>
</a>
</g>
</g>
<!-- Node1&#45;&gt;Node2 -->
<g id="edge1_Node000001_Node000002" class="edge">
<title>Node1&#45;&gt;Node2</title>
<g id="a_edge1_Node000001_Node000002"><a xlink:title=" ">
<path fill="none" stroke="#63b8ff" d="M308.02,-91.56C237.57,-88.75 129.67,-78.09 43.75,-41.75 41.19,-40.67 38.66,-39.27 36.24,-37.72"/>
<polygon fill="#63b8ff" stroke="#63b8ff" points="38.44,-35 28.34,-31.81 34.25,-40.6 38.44,-35"/>
</a>
</g>
</g>
<!-- Node3 -->
<g id="Node000003" class="node">
<title>Node3</title>
<g id="a_Node000003"><a xlink:title=" ">
<polygon fill="#e0e0e0" stroke="#999999" points="98.38,-30.5 53.12,-30.5 53.12,-11.25 98.38,-11.25 98.38,-30.5"/>
<text text-anchor="middle" x="75.75" y="-17" font-family="Helvetica,sans-Serif" font-size="10.00">QTime</text>
</a>
</g>
</g>
<!-- Node1&#45;&gt;Node3 -->
<g id="edge2_Node000001_Node000003" class="edge">
<title>Node1&#45;&gt;Node3</title>
<g id="a_edge2_Node000001_Node000003"><a xlink:title=" ">
<path fill="none" stroke="#63b8ff" d="M308.12,-86.37C251.48,-80.2 172.11,-67.51 106.75,-41.75 103.47,-40.46 100.16,-38.79 96.98,-36.99"/>
<polygon fill="#63b8ff" stroke="#63b8ff" points="99.12,-34.2 88.8,-31.78 95.36,-40.1 99.12,-34.2"/>
</a>
</g>
</g>
<!-- Node4 -->
<g id="Node000004" class="node">
<title>Node4</title>
<g id="a_Node000004"><a xlink:title=" ">
<polygon fill="#e0e0e0" stroke="#999999" points="197.38,-30.5 116.12,-30.5 116.12,-11.25 197.38,-11.25 197.38,-30.5"/>
<text text-anchor="middle" x="156.75" y="-17" font-family="Helvetica,sans-Serif" font-size="10.00">QTemporaryDir</text>
</a>
</g>
</g>
<!-- Node1&#45;&gt;Node4 -->
<g id="edge3_Node000001_Node000004" class="edge">
<title>Node1&#45;&gt;Node4</title>
<g id="a_edge3_Node000001_Node000004"><a xlink:title=" ">
<path fill="none" stroke="#63b8ff" d="M325.36,-77.33C290.84,-67.97 245.94,-55.13 206.75,-41.75 200.78,-39.71 194.49,-37.37 188.45,-35.02"/>
<polygon fill="#63b8ff" stroke="#63b8ff" points="189.98,-31.86 179.39,-31.41 187.39,-38.37 189.98,-31.86"/>
</a>
</g>
</g>
<!-- Node5 -->
<g id="Node000005" class="node">
<title>Node5</title>
<g id="a_Node000005"><a xlink:title=" ">
<polygon fill="#e0e0e0" stroke="#999999" points="286.12,-30.5 215.38,-30.5 215.38,-11.25 286.12,-11.25 286.12,-30.5"/>
<text text-anchor="middle" x="250.75" y="-17" font-family="Helvetica,sans-Serif" font-size="10.00">nanobench.h</text>
</a>
</g>
</g>
<!-- Node1&#45;&gt;Node5 -->
<g id="edge4_Node000001_Node000005" class="edge">
<title>Node1&#45;&gt;Node5</title>
<g id="a_edge4_Node000001_Node000005"><a xlink:title=" ">
<path fill="none" stroke="#63b8ff" d="M354.29,-77.3C331.75,-65.23 300.01,-48.25 277.63,-36.27"/>
<polygon fill="#63b8ff" stroke="#63b8ff" points="279.58,-33.34 269.11,-31.7 276.28,-39.51 279.58,-33.34"/>
</a>
</g>
</g>
<!-- Node6 -->
<g id="Node000006" class="node">
<title>Node6</title>
<g id="a_Node000006"><a xlink:href="../../d7/d86/memory__backend_8hpp.html" target="_top" xlink:title=" ">
<polygon fill="#fff0f0" stroke="red" points="459.5,-36.12 304,-36.12 304,-5.62 459.5,-5.62 459.5,-36.12"/>
<text text-anchor="start" x="312" y="-22.62" font-family="Helvetica,sans-Serif" font-size="10.00">database/backends/memory</text>
<text text-anchor="middle" x="381.75" y="-11.38" font-family="Helvetica,sans-Serif" font-size="10.00">_backend/memory_backend.hpp</text>
</a>
</g>
</g>
<!-- Node1&#45;&gt;Node6 -->
<g id="edge5_Node000001_Node000006" class="edge">
<title>Node1&#45;&gt;Node6</title>
<g id="a_edge5_Node000001_Node000006"><a xlink:title=" ">
<path fill="none" stroke="#63b8ff" d="M381.75,-77.47C381.75,-68.91 381.75,-57.84 381.75,-47.83"/>
<polygon fill="#63b8ff" stroke="#63b8ff" points="385.25,-47.9 381.75,-37.9 378.25,-47.9 385.25,-47.9"/>
</a>
</g>
</g>
<!-- Node58 -->
<g id="Node000058" class="node">
<title>Node58</title>
<g id="a_Node000058"><a xlink:href="../../da/d0e/sqlite__backend_2backend_8hpp.html" target="_top" xlink:title=" ">
<polygon fill="#fff0f0" stroke="red" points="609.5,-41.75 478,-41.75 478,0 609.5,0 609.5,-41.75"/>
<text text-anchor="start" x="486" y="-28.25" font-family="Helvetica,sans-Serif" font-size="10.00">database/backends/sql</text>
<text text-anchor="start" x="486" y="-17" font-family="Helvetica,sans-Serif" font-size="10.00">_backends/sqlite_backend</text>
<text text-anchor="middle" x="543.75" y="-5.75" font-family="Helvetica,sans-Serif" font-size="10.00">/backend.hpp</text>
</a>
</g>
</g>
<!-- Node1&#45;&gt;Node58 -->
<g id="edge6_Node000001_Node000058" class="edge">
<title>Node1&#45;&gt;Node58</title>
<g id="a_edge6_Node000001_Node000058"><a xlink:title=" ">
<path fill="none" stroke="#63b8ff" d="M415.71,-77.3C436.24,-68.41 462.94,-56.86 486.64,-46.6"/>
<polygon fill="#63b8ff" stroke="#63b8ff" points="487.76,-49.93 495.54,-42.74 484.98,-43.5 487.76,-49.93"/>
</a>
</g>
</g>
<!-- Node48 -->
<g id="Node000048" class="node">
<title>Node48</title>
<g id="a_Node000048"><a xlink:href="../../d1/dd2/filter_8hpp.html" target="_top" xlink:title=" ">
<polygon fill="#fff0f0" stroke="red" points="679.75,-30.5 627.75,-30.5 627.75,-11.25 679.75,-11.25 679.75,-30.5"/>
<text text-anchor="middle" x="653.75" y="-17" font-family="Helvetica,sans-Serif" font-size="10.00">filter.hpp</text>
</a>
</g>
</g>
<!-- Node1&#45;&gt;Node48 -->
<g id="edge7_Node000001_Node000048" class="edge">
<title>Node1&#45;&gt;Node48</title>
<g id="a_edge7_Node000001_Node000048"><a xlink:title=" ">
<path fill="none" stroke="#63b8ff" d="M455.49,-82.35C503.12,-74.67 565.86,-61.82 618.75,-41.75 622.59,-40.29 626.51,-38.46 630.28,-36.49"/>
<polygon fill="#63b8ff" stroke="#63b8ff" points="631.98,-39.55 638.95,-31.57 628.52,-33.46 631.98,-39.55"/>
</a>
</g>
</g>
<!-- Node80 -->
<g id="Node000080" class="node">
<title>Node80</title>
<g id="a_Node000080"><a xlink:href="../../d3/d41/project__info_8hpp.html" target="_top" xlink:title=" ">
<polygon fill="white" stroke="#666666" points="825.25,-30.5 698.25,-30.5 698.25,-11.25 825.25,-11.25 825.25,-30.5"/>
<text text-anchor="middle" x="761.75" y="-17" font-family="Helvetica,sans-Serif" font-size="10.00">database/project_info.hpp</text>
</a>
</g>
</g>
<!-- Node1&#45;&gt;Node80 -->
<g id="edge8_Node000001_Node000080" class="edge">
<title>Node1&#45;&gt;Node80</title>
<g id="a_edge8_Node000001_Node000080"><a xlink:title=" ">
<path fill="none" stroke="#63b8ff" d="M455.35,-82.14C517.79,-73.25 609.59,-58.96 688.75,-41.75 699.12,-39.5 710.21,-36.69 720.54,-33.89"/>
<polygon fill="#63b8ff" stroke="#63b8ff" points="721.21,-37.34 729.92,-31.3 719.35,-30.59 721.21,-37.34"/>
</a>
</g>
</g>
<!-- Node81 -->
<g id="Node000081" class="node">
<title>Node81</title>
<g id="a_Node000081"><a xlink:href="../../d9/d0f/empty__logger_8hpp.html" target="_top" xlink:title=" ">
<polygon fill="#fff0f0" stroke="red" points="954.38,-36.12 843.12,-36.12 843.12,-5.62 954.38,-5.62 954.38,-36.12"/>
<text text-anchor="start" x="851.12" y="-22.62" font-family="Helvetica,sans-Serif" font-size="10.00">unit_tests_utils/empty</text>
<text text-anchor="middle" x="898.75" y="-11.38" font-family="Helvetica,sans-Serif" font-size="10.00">_logger.hpp</text>
</a>
</g>
</g>
<!-- Node1&#45;&gt;Node81 -->
<g id="edge9_Node000001_Node000081" class="edge">
<title>Node1&#45;&gt;Node81</title>
<g id="a_edge9_Node000001_Node000081"><a xlink:title=" ">
<path fill="none" stroke="#63b8ff" d="M455.39,-88.15C545.59,-82.45 702.68,-69.32 834.75,-41.75 837.9,-41.09 841.12,-40.35 844.35,-39.53"/>
<polygon fill="#63b8ff" stroke="#63b8ff" points="845.11,-42.95 853.86,-36.97 843.29,-36.19 845.11,-42.95"/>
</a>
</g>
</g>
</g>
</svg>
