<?xml version="1.0" encoding="UTF-8" standalone="no"?>
<!DOCTYPE svg PUBLIC "-//W3C//DTD SVG 1.1//EN"
 "http://www.w3.org/Graphics/SVG/1.1/DTD/svg11.dtd">
<!-- Generated by graphviz version 9.0.0 (20230911.1827)
 -->
<!-- Title: src/database/backends/sql_backends/people_information_accessor.cpp Pages: 1 -->
<!--zoomable 172 -->

<svg id="main" version="1.1" xmlns="http://www.w3.org/2000/svg" xmlns:xlink="http://www.w3.org/1999/xlink" xml:space="preserve" onload="init(evt)">
<style type="text/css"><![CDATA[
.node, .edge {opacity: 0.7;}
.node.selected, .edge.selected {opacity: 1;}
.edge:hover path { stroke: red; }
.edge:hover polygon { stroke: red; fill: red; }
]]></style>

<defs>
  <circle id="rim" cx="0" cy="0" r="7"/>
  <circle id="rim2" cx="0" cy="0" r="3.5"/>
  <g id="zoomPlus">
    <use xlink:href="#rim" fill="#404040"><set attributeName="fill" to="#808080" begin="zoomplus.mouseover" end="zoomplus.mouseout"/></use>
    <path d="M-4,0h8M0,-4v8" fill="none" stroke="white" stroke-width="1.5" pointer-events="none"/>
  </g>
  <g id="zoomMin">
    <use xlink:href="#rim" fill="#404040"><set attributeName="fill" to="#808080" begin="zoomminus.mouseover" end="zoomminus.mouseout"/></use>
    <path d="M-4,0h8" fill="none" stroke="white" stroke-width="1.5" pointer-events="none"/>
  </g>
  <g id="arrowUp" transform="translate(30 24)">
    <use xlink:href="#rim"/>
    <path pointer-events="none" fill="none" stroke="white" stroke-width="1.5" d="M0,-3.0v7 M-2.5,-0.5L0,-3.0L2.5,-0.5"/>
  </g>
  <g id="arrowRight" transform="rotate(90) translate(36 -43)">
    <use xlink:href="#rim"/>
    <path pointer-events="none" fill="none" stroke="white" stroke-width="1.5" d="M0,-3.0v7 M-2.5,-0.5L0,-3.0L2.5,-0.5"/>
  </g>
  <g id="arrowDown" transform="rotate(180) translate(-30 -48)">
    <use xlink:href="#rim"/>
    <path pointer-events="none" fill="none" stroke="white" stroke-width="1.5" d="M0,-3.0v7 M-2.5,-0.5L0,-3.0L2.5,-0.5"/>
  </g>
  <g id="arrowLeft" transform="rotate(270) translate(-36 17)">
    <use xlink:href="#rim"/>
    <path pointer-events="none" fill="none" stroke="white" stroke-width="1.5" d="M0,-3.0v7 M-2.5,-0.5L0,-3.0L2.5,-0.5"/>
  </g>
  <g id="resetDef">
    <use xlink:href="#rim2" fill="#404040"><set attributeName="fill" to="#808080" begin="reset.mouseover" end="reset.mouseout"/></use>
  </g>
</defs>
<script type="application/ecmascript">
var viewWidth = 990;
var viewHeight = 172;
var sectionId = 'dynsection-0';
</script>
<script type="application/ecmascript" xlink:href="../../svg.min.js"/>
<svg id="graph" class="graph">
<g id="viewport">
<title>src/database/backends/sql_backends/people_information_accessor.cpp</title>
<!-- Node1 -->
<g id="Node000001" class="node">
<title>Node1</title>
<g id="a_Node000001"><a xlink:title=" ">
<polygon fill="#999999" stroke="#666666" points="536,-163.5 403.75,-163.5 403.75,-121.75 536,-121.75 536,-163.5"/>
<text text-anchor="start" x="411.75" y="-150" font-family="Helvetica,sans-Serif" font-size="10.00">src/database/backends</text>
<text text-anchor="start" x="411.75" y="-138.75" font-family="Helvetica,sans-Serif" font-size="10.00">/sql_backends/people</text>
<text text-anchor="middle" x="469.88" y="-127.5" font-family="Helvetica,sans-Serif" font-size="10.00">_information_accessor.cpp</text>
</a>
</g>
</g>
<!-- Node2 -->
<g id="Node000002" class="node">
<title>Node2</title>
<g id="a_Node000002"><a xlink:href="../../d9/d9b/people__information__accessor_8hpp.html" target="_top" xlink:title=" ">
<polygon fill="#fff0f0" stroke="red" points="97.75,-85.75 0,-85.75 0,-55.25 97.75,-55.25 97.75,-85.75"/>
<text text-anchor="start" x="8" y="-72.25" font-family="Helvetica,sans-Serif" font-size="10.00">people_information</text>
<text text-anchor="middle" x="48.88" y="-61" font-family="Helvetica,sans-Serif" font-size="10.00">_accessor.hpp</text>
</a>
</g>
</g>
<!-- Node1&#45;&gt;Node2 -->
<g id="edge1_Node000001_Node000002" class="edge">
<title>Node1&#45;&gt;Node2</title>
<g id="a_edge1_Node000001_Node000002"><a xlink:title=" ">
<path fill="none" stroke="#63b8ff" d="M403.33,-133.17C332.72,-123.81 217.69,-107.4 109.31,-86.13"/>
<polygon fill="#63b8ff" stroke="#63b8ff" points="110.14,-82.73 99.65,-84.22 108.78,-89.6 110.14,-82.73"/>
</a>
</g>
</g>
<!-- Node20 -->
<g id="Node000020" class="node">
<title>Node20</title>
<g id="a_Node000020"><a xlink:title=" ">
<polygon fill="#e0e0e0" stroke="#999999" points="219.75,-80.12 116,-80.12 116,-60.88 219.75,-60.88 219.75,-80.12"/>
<text text-anchor="middle" x="167.88" y="-66.62" font-family="Helvetica,sans-Serif" font-size="10.00">QRegularExpression</text>
</a>
</g>
</g>
<!-- Node1&#45;&gt;Node20 -->
<g id="edge2_Node000001_Node000020" class="edge">
<title>Node1&#45;&gt;Node20</title>
<g id="a_edge2_Node000001_Node000020"><a xlink:title=" ">
<path fill="none" stroke="#63b8ff" d="M403.38,-126.24C354.98,-115.03 287.86,-99.48 228.88,-85.75 225.27,-84.91 221.55,-84.04 217.81,-83.17"/>
<polygon fill="#63b8ff" stroke="#63b8ff" points="218.6,-79.76 208.07,-80.9 217.01,-86.58 218.6,-79.76"/>
</a>
</g>
</g>
<!-- Node21 -->
<g id="Node000021" class="node">
<title>Node21</title>
<g id="a_Node000021"><a xlink:title=" ">
<polygon fill="#e0e0e0" stroke="#999999" points="316.38,-80.12 237.38,-80.12 237.38,-60.88 316.38,-60.88 316.38,-80.12"/>
<text text-anchor="middle" x="276.88" y="-66.62" font-family="Helvetica,sans-Serif" font-size="10.00">QSqlDatabase</text>
</a>
</g>
</g>
<!-- Node1&#45;&gt;Node21 -->
<g id="edge3_Node000001_Node000021" class="edge">
<title>Node1&#45;&gt;Node21</title>
<g id="a_edge3_Node000001_Node000021"><a xlink:title=" ">
<path fill="none" stroke="#63b8ff" d="M414.05,-121.34C381.32,-109.45 340.95,-94.78 312.51,-84.45"/>
<polygon fill="#63b8ff" stroke="#63b8ff" points="313.87,-81.22 303.28,-81.09 311.48,-87.8 313.87,-81.22"/>
</a>
</g>
</g>
<!-- Node22 -->
<g id="Node000022" class="node">
<title>Node22</title>
<g id="a_Node000022"><a xlink:title=" ">
<polygon fill="#e0e0e0" stroke="#999999" points="397.5,-80.12 334.25,-80.12 334.25,-60.88 397.5,-60.88 397.5,-80.12"/>
<text text-anchor="middle" x="365.88" y="-66.62" font-family="Helvetica,sans-Serif" font-size="10.00">QSqlDriver</text>
</a>
</g>
</g>
<!-- Node1&#45;&gt;Node22 -->
<g id="edge4_Node000001_Node000022" class="edge">
<title>Node1&#45;&gt;Node22</title>
<g id="a_edge4_Node000001_Node000022"><a xlink:title=" ">
<path fill="none" stroke="#63b8ff" d="M439.79,-121.34C423.51,-110.36 403.73,-97.02 388.72,-86.9"/>
<polygon fill="#63b8ff" stroke="#63b8ff" points="390.7,-84.02 380.46,-81.33 386.79,-89.82 390.7,-84.02"/>
</a>
</g>
</g>
<!-- Node23 -->
<g id="Node000023" class="node">
<title>Node23</title>
<g id="a_Node000023"><a xlink:title=" ">
<polygon fill="#e0e0e0" stroke="#999999" points="573.5,-19.25 510.25,-19.25 510.25,0 573.5,0 573.5,-19.25"/>
<text text-anchor="middle" x="541.88" y="-5.75" font-family="Helvetica,sans-Serif" font-size="10.00">QSqlQuery</text>
</a>
</g>
</g>
<!-- Node1&#45;&gt;Node23 -->
<g id="edge5_Node000001_Node000023" class="edge">
<title>Node1&#45;&gt;Node23</title>
<g id="a_edge5_Node000001_Node000023"><a xlink:title=" ">
<path fill="none" stroke="#63b8ff" d="M455.18,-121.41C443.74,-102.99 431.82,-75.62 444.88,-55.25 456.94,-36.42 479.18,-25.42 499.32,-19.06"/>
<polygon fill="#63b8ff" stroke="#63b8ff" points="500.09,-22.48 508.76,-16.4 498.19,-15.75 500.09,-22.48"/>
</a>
</g>
</g>
<!-- Node24 -->
<g id="Node000024" class="node">
<title>Node24</title>
<g id="a_Node000024"><a xlink:href="../../df/d40/isql__query__executor_8hpp.html" target="_top" xlink:title=" ">
<polygon fill="#fff0f0" stroke="red" points="573.62,-80.12 454.12,-80.12 454.12,-60.88 573.62,-60.88 573.62,-80.12"/>
<text text-anchor="middle" x="513.88" y="-66.62" font-family="Helvetica,sans-Serif" font-size="10.00">isql_query_executor.hpp</text>
</a>
</g>
</g>
<!-- Node1&#45;&gt;Node24 -->
<g id="edge6_Node000001_Node000024" class="edge">
<title>Node1&#45;&gt;Node24</title>
<g id="a_edge6_Node000001_Node000024"><a xlink:title=" ">
<path fill="none" stroke="#63b8ff" d="M482.6,-121.34C488.8,-111.47 496.19,-99.68 502.24,-90.04"/>
<polygon fill="#63b8ff" stroke="#63b8ff" points="505.2,-91.91 507.55,-81.58 499.27,-88.19 505.2,-91.91"/>
</a>
</g>
</g>
<!-- Node27 -->
<g id="Node000027" class="node">
<title>Node27</title>
<g id="a_Node000027"><a xlink:href="../../dc/d48/isql__query__constructor_8hpp.html" target="_top" xlink:title=" ">
<polygon fill="#fff0f0" stroke="red" points="723.62,-80.12 592.12,-80.12 592.12,-60.88 723.62,-60.88 723.62,-80.12"/>
<text text-anchor="middle" x="657.88" y="-66.62" font-family="Helvetica,sans-Serif" font-size="10.00">isql_query_constructor.hpp</text>
</a>
</g>
</g>
<!-- Node1&#45;&gt;Node27 -->
<g id="edge7_Node000001_Node000027" class="edge">
<title>Node1&#45;&gt;Node27</title>
<g id="a_edge7_Node000001_Node000027"><a xlink:title=" ">
<path fill="none" stroke="#63b8ff" d="M524.25,-121.34C556.09,-109.47 595.34,-94.83 623.04,-84.49"/>
<polygon fill="#63b8ff" stroke="#63b8ff" points="624.22,-87.79 632.37,-81.01 621.78,-81.23 624.22,-87.79"/>
</a>
</g>
</g>
<!-- Node30 -->
<g id="Node000030" class="node">
<title>Node30</title>
<g id="a_Node000030"><a xlink:href="../../dd/dbe/query__structs_8hpp.html" target="_top" xlink:title=" ">
<polygon fill="#fff0f0" stroke="red" points="834.12,-80.12 741.62,-80.12 741.62,-60.88 834.12,-60.88 834.12,-80.12"/>
<text text-anchor="middle" x="787.88" y="-66.62" font-family="Helvetica,sans-Serif" font-size="10.00">query_structs.hpp</text>
</a>
</g>
</g>
<!-- Node1&#45;&gt;Node30 -->
<g id="edge9_Node000001_Node000030" class="edge">
<title>Node1&#45;&gt;Node30</title>
<g id="a_edge9_Node000001_Node000030"><a xlink:title=" ">
<path fill="none" stroke="#63b8ff" d="M536.26,-128.37C589.54,-117.52 666.2,-101.46 732.88,-85.75 736.18,-84.97 739.58,-84.15 743.01,-83.3"/>
<polygon fill="#63b8ff" stroke="#63b8ff" points="743.59,-86.76 752.43,-80.92 741.88,-79.97 743.59,-86.76"/>
</a>
</g>
</g>
<!-- Node33 -->
<g id="Node000033" class="node">
<title>Node33</title>
<g id="a_Node000033"><a xlink:href="../../d0/d08/tables_8hpp.html" target="_top" xlink:title=" ">
<polygon fill="#fff0f0" stroke="red" points="912,-80.12 851.75,-80.12 851.75,-60.88 912,-60.88 912,-80.12"/>
<text text-anchor="middle" x="881.88" y="-66.62" font-family="Helvetica,sans-Serif" font-size="10.00">tables.hpp</text>
</a>
</g>
</g>
<!-- Node1&#45;&gt;Node33 -->
<g id="edge10_Node000001_Node000033" class="edge">
<title>Node1&#45;&gt;Node33</title>
<g id="a_edge10_Node000001_Node000033"><a xlink:title=" ">
<path fill="none" stroke="#63b8ff" d="M536.37,-135.75C611.6,-128.16 737.39,-112.63 842.88,-85.75 844.75,-85.27 846.66,-84.74 848.57,-84.17"/>
<polygon fill="#63b8ff" stroke="#63b8ff" points="849.6,-87.51 858,-81.05 847.4,-80.87 849.6,-87.51"/>
</a>
</g>
</g>
<!-- Node34 -->
<g id="Node000034" class="node">
<title>Node34</title>
<g id="a_Node000034"><a xlink:href="../../d2/dbb/database_2backends_2sql__backends_2utils_8hpp.html" target="_top" xlink:title=" ">
<polygon fill="#fff0f0" stroke="red" points="981.88,-80.12 929.88,-80.12 929.88,-60.88 981.88,-60.88 981.88,-80.12"/>
<text text-anchor="middle" x="955.88" y="-66.62" font-family="Helvetica,sans-Serif" font-size="10.00">utils.hpp</text>
</a>
</g>
</g>
<!-- Node1&#45;&gt;Node34 -->
<g id="edge11_Node000001_Node000034" class="edge">
<title>Node1&#45;&gt;Node34</title>
<g id="a_edge11_Node000001_Node000034"><a xlink:title=" ">
<path fill="none" stroke="#63b8ff" d="M536.25,-138.86C625.11,-133.93 787.08,-120.62 920.88,-85.75 922.46,-85.34 924.07,-84.87 925.69,-84.36"/>
<polygon fill="#63b8ff" stroke="#63b8ff" points="926.55,-87.77 934.77,-81.08 924.18,-81.18 926.55,-87.77"/>
</a>
</g>
</g>
<!-- Node27&#45;&gt;Node23 -->
<g id="edge8_Node000027_Node000023" class="edge">
<title>Node27&#45;&gt;Node23</title>
<g id="a_edge8_Node000027_Node000023"><a xlink:title=" ">
<path fill="none" stroke="#63b8ff" d="M640,-60.43C621.22,-50.89 591.41,-35.77 569.57,-24.68"/>
<polygon fill="#63b8ff" stroke="#63b8ff" points="571.43,-21.7 560.93,-20.29 568.26,-27.94 571.43,-21.7"/>
</a>
</g>
</g>
</g>
</svg>

<g id="navigator" transform="translate(0 0)" fill="#404254">
  <rect fill="#f2f5e9" fill-opacity="0.5" stroke="#606060" stroke-width=".5" x="0" y="0" width="60" height="60"/>
  <use id="zoomplus" xlink:href="#zoomPlus" x="17" y="9" onmousedown="handleZoom(evt,'in')"/>
  <use id="zoomminus" xlink:href="#zoomMin" x="42" y="9" onmousedown="handleZoom(evt,'out')"/>
  <use id="reset" xlink:href="#resetDef" x="30" y="36" onmousedown="handleReset()"/>
   <use id="arrowup" xlink:href="#arrowUp" x="0" y="0" onmousedown="handlePan(0,-1)"/>
  <use id="arrowright" xlink:href="#arrowRight" x="0" y="0" onmousedown="handlePan(1,0)"/>
  <use id="arrowdown" xlink:href="#arrowDown" x="0" y="0" onmousedown="handlePan(0,1)"/>
  <use id="arrowleft" xlink:href="#arrowLeft" x="0" y="0" onmousedown="handlePan(-1,0)"/>
</g>
<svg viewBox="0 0 15 15" width="100%" height="30px" preserveAspectRatio="xMaxYMin meet">
 <g id="arrow_out" transform="scale(0.3 0.3)">
  <a xlink:href="people__information__accessor_8cpp__incl_org.svg" target="_base">
   <rect id="button" ry="5" rx="5" y="6" x="6" height="38" width="38"
        fill="#f2f5e9" fill-opacity="0.5" stroke="#606060" stroke-width="1.0"/>
   <path id="arrow"
     d="M 11.500037,31.436501 C 11.940474,20.09759 22.043105,11.32322 32.158766,21.979434 L 37.068811,17.246167 C 37.068811,17.246167 37.088388,32 37.088388,32 L 22.160133,31.978069 C 22.160133,31.978069 26.997745,27.140456 26.997745,27.140456 C 18.528582,18.264221 13.291696,25.230495 11.500037,31.436501 z"
     style="fill:#404040;"/>
  </a>
 </g>
</svg>

<style type='text/css'>
<![CDATA[
[data-mouse-over-selected='false'] { opacity: 0.7; }
[data-mouse-over-selected='true']  { opacity: 1.0; }
]]>
</style>
<script type="application/ecmascript"><![CDATA[
document.addEventListener('DOMContentLoaded', (event) => {
  highlightEdges();
  highlightAdjacentNodes();
});
]]></script>
</svg>
