<?xml version="1.0" encoding="UTF-8" standalone="no"?>
<!DOCTYPE svg PUBLIC "-//W3C//DTD SVG 1.1//EN"
 "http://www.w3.org/Graphics/SVG/1.1/DTD/svg11.dtd">
<!-- Generated by graphviz version 12.2.0 (20241103.1931)
 -->
<!-- Title: FlatModel::data Pages: 1 -->
<svg width="249pt" height="101pt"
 viewBox="0.00 0.00 248.50 101.25" xmlns="http://www.w3.org/2000/svg" xmlns:xlink="http://www.w3.org/1999/xlink">

<svg id="main" version="1.1" xmlns="http://www.w3.org/2000/svg" xmlns:xlink="http://www.w3.org/1999/xlink" xml:space="preserve">

<style type="text/css"><![CDATA[
.node, .edge {opacity: 0.7;}
.node.selected, .edge.selected {opacity: 1;}
.edge:hover path { stroke: red; }
.edge:hover polygon { stroke: red; fill: red; }
]]></style>
<script type="application/ecmascript" xlink:href="../../svg.min.js"/>
<svg id="graph" class="graph">
<g id="graph0" class="graph" transform="scale(1 1) rotate(0) translate(4 97.25)">
<title>FlatModel::data</title>
<!-- Node1 -->
<g id="Node000001" class="node">
<title>Node1</title>
<g id="a_Node000001"><a xlink:title=" ">
<polygon fill="#999999" stroke="#666666" points="240.5,-74.25 158.5,-74.25 158.5,-55 240.5,-55 240.5,-74.25"/>
<text text-anchor="middle" x="199.5" y="-60.75" font-family="Helvetica,sans-Serif" font-size="10.00">FlatModel::data</text>
</a>
</g>
</g>
<!-- Node1&#45;&gt;Node1 -->
<g id="edge1_Node000001_Node000001" class="edge">
<title>Node1&#45;&gt;Node1</title>
<g id="a_edge1_Node000001_Node000001"><a xlink:title=" ">
<path fill="none" stroke="#63b8ff" d="M224.04,-85.65C220.97,-89.53 212.79,-92.25 199.5,-92.25 175.2,-92.25 167.98,-83.15 177.86,-74.54"/>
<polygon fill="#63b8ff" stroke="#63b8ff" points="227.43,-84.8 221.53,-76 220.66,-86.56 227.43,-84.8"/>
</a>
</g>
</g>
<!-- Node2 -->
<g id="Node000002" class="node">
<title>Node2</title>
<g id="a_Node000002"><a xlink:href="../../d1/da6/class_flat_model.html#ac4a1ff4ff16b5950efb7bf2b2f7dbd35" target="_top" xlink:title=" ">
<polygon fill="white" stroke="#666666" points="122.5,-93.25 0,-93.25 0,-74 122.5,-74 122.5,-93.25"/>
<text text-anchor="middle" x="61.25" y="-79.75" font-family="Helvetica,sans-Serif" font-size="10.00">FlatModel::getPhotoData</text>
</a>
</g>
</g>
<!-- Node1&#45;&gt;Node2 -->
<g id="edge2_Node000001_Node000002" class="edge">
<title>Node1&#45;&gt;Node2</title>
<g id="a_edge2_Node000001_Node000002"><a xlink:title=" ">
<path fill="none" stroke="#63b8ff" d="M147.01,-65.24C128.82,-67.37 108.96,-70.41 93.03,-73.58"/>
<polygon fill="#63b8ff" stroke="#63b8ff" points="147.29,-68.73 156.85,-64.17 146.53,-61.77 147.29,-68.73"/>
</a>
</g>
</g>
<!-- Node3 -->
<g id="Node000003" class="node">
<title>Node3</title>
<g id="a_Node000003"><a xlink:href="../../d1/da6/class_flat_model.html#a14ac44a426e0bb34556272a1e2538c09" target="_top" xlink:title=" ">
<polygon fill="white" stroke="#666666" points="122.5,-56.25 0,-56.25 0,-37 122.5,-37 122.5,-56.25"/>
<text text-anchor="middle" x="61.25" y="-42.75" font-family="Helvetica,sans-Serif" font-size="10.00">FlatModel::getPhotoPath</text>
</a>
</g>
</g>
<!-- Node1&#45;&gt;Node3 -->
<g id="edge4_Node000001_Node000003" class="edge">
<title>Node1&#45;&gt;Node3</title>
<g id="a_edge4_Node000001_Node000003"><a xlink:title=" ">
<path fill="none" stroke="#63b8ff" d="M147.05,-57.83C139.14,-56.78 130.9,-55.69 122.82,-54.63"/>
<polygon fill="#63b8ff" stroke="#63b8ff" points="146.48,-61.28 156.86,-59.12 147.4,-54.34 146.48,-61.28"/>
</a>
</g>
</g>
<!-- Node4 -->
<g id="Node000004" class="node">
<title>Node4</title>
<g id="a_Node000004"><a xlink:href="../../d1/da6/class_flat_model.html#a61bc149b096363862dbe1369d8bf4865" target="_top" xlink:title=" ">
<polygon fill="white" stroke="#666666" points="122.5,-19.25 0,-19.25 0,0 122.5,0 122.5,-19.25"/>
<text text-anchor="middle" x="61.25" y="-5.75" font-family="Helvetica,sans-Serif" font-size="10.00">FlatModel::gotPhotoData</text>
</a>
</g>
</g>
<!-- Node1&#45;&gt;Node4 -->
<g id="edge5_Node000001_Node000004" class="edge">
<title>Node1&#45;&gt;Node4</title>
<g id="a_edge5_Node000001_Node000004"><a xlink:title=" ">
<path fill="none" stroke="#63b8ff" d="M170.1,-49.43C156.02,-42.26 138.63,-33.91 122.5,-27.62 115.18,-24.77 107.21,-22.1 99.53,-19.73"/>
<polygon fill="#63b8ff" stroke="#63b8ff" points="168.31,-52.45 178.79,-53.94 171.53,-46.23 168.31,-52.45"/>
</a>
</g>
</g>
<!-- Node2&#45;&gt;Node1 -->
<g id="edge3_Node000002_Node000001" class="edge">
<title>Node2&#45;&gt;Node1</title>
<g id="a_edge3_Node000002_Node000001"><a xlink:title=" ">
<path fill="none" stroke="#63b8ff" d="M134.15,-80.34C145.91,-78.64 157.53,-76.7 167.58,-74.7"/>
<polygon fill="#63b8ff" stroke="#63b8ff" points="133.8,-76.85 124.36,-81.68 134.75,-83.79 133.8,-76.85"/>
</a>
</g>
</g>
</g>
</svg>
</svg>

<style type='text/css'>
<![CDATA[
[data-mouse-over-selected='false'] { opacity: 0.7; }
[data-mouse-over-selected='true']  { opacity: 1.0; }
]]>
</style>
<script type="application/ecmascript"><![CDATA[
document.addEventListener('DOMContentLoaded', (event) => {
  highlightEdges();
  highlightAdjacentNodes();
});
]]></script>
</svg>
