<?xml version="1.0" encoding="UTF-8" standalone="no"?>
<!DOCTYPE svg PUBLIC "-//W3C//DTD SVG 1.1//EN"
 "http://www.w3.org/Graphics/SVG/1.1/DTD/svg11.dtd">
<!-- Generated by graphviz version 9.0.0 (20230911.1827)
 -->
<!-- Title: FlatModel::filters Pages: 1 -->
<svg width="436pt" height="95pt"
 viewBox="0.00 0.00 435.50 94.88" xmlns="http://www.w3.org/2000/svg" xmlns:xlink="http://www.w3.org/1999/xlink">

<svg id="main" version="1.1" xmlns="http://www.w3.org/2000/svg" xmlns:xlink="http://www.w3.org/1999/xlink" xml:space="preserve" onload="init(evt)">
<style type="text/css"><![CDATA[
.node, .edge {opacity: 0.7;}
.node.selected, .edge.selected {opacity: 1;}
.edge:hover path { stroke: red; }
.edge:hover polygon { stroke: red; fill: red; }
]]></style>
<script type="application/ecmascript" xlink:href="../../svg.min.js"/>
<svg id="graph" class="graph">
<g id="graph0" class="graph" transform="scale(1 1) rotate(0) translate(4 90.88)">
<title>FlatModel::filters</title>
<!-- Node1 -->
<g id="Node000001" class="node">
<title>Node1</title>
<g id="a_Node000001"><a xlink:title=" ">
<polygon fill="#999999" stroke="#666666" points="427.5,-38.25 341,-38.25 341,-19 427.5,-19 427.5,-38.25"/>
<text text-anchor="middle" x="384.25" y="-24.75" font-family="Helvetica,sans-Serif" font-size="10.00">FlatModel::filters</text>
</a>
</g>
</g>
<!-- Node2 -->
<g id="Node000002" class="node">
<title>Node2</title>
<g id="a_Node000002"><a xlink:href="../../d1/da6/class_flat_model.html#acc2c349e5c72dd41696538dbb93c92f0" target="_top" xlink:title=" ">
<polygon fill="#fff0f0" stroke="red" points="305,-86.88 180.25,-86.88 180.25,-56.38 305,-56.38 305,-86.88"/>
<text text-anchor="start" x="188.25" y="-73.38" font-family="Helvetica,sans-Serif" font-size="10.00">FlatModel::fetchMatching</text>
<text text-anchor="middle" x="242.62" y="-62.12" font-family="Helvetica,sans-Serif" font-size="10.00">Photos</text>
</a>
</g>
</g>
<!-- Node1&#45;&gt;Node2 -->
<g id="edge1_Node000001_Node000002" class="edge">
<title>Node1&#45;&gt;Node2</title>
<g id="a_edge1_Node000001_Node000002"><a xlink:title=" ">
<path fill="none" stroke="#63b8ff" d="M339.54,-42.09C325.33,-46.46 309.43,-51.36 294.74,-55.88"/>
<polygon fill="#63b8ff" stroke="#63b8ff" points="340.54,-45.44 349.07,-39.15 338.48,-38.75 340.54,-45.44"/>
</a>
</g>
</g>
<!-- Node8 -->
<g id="Node000008" class="node">
<title>Node8</title>
<g id="a_Node000008"><a xlink:href="../../d1/da6/class_flat_model.html#af51f25af75e7a1a221ef40a69715d621" target="_top" xlink:title=" ">
<polygon fill="#fff0f0" stroke="red" points="291.88,-38.25 193.38,-38.25 193.38,-19 291.88,-19 291.88,-38.25"/>
<text text-anchor="middle" x="242.62" y="-24.75" font-family="Helvetica,sans-Serif" font-size="10.00">FlatModel::setFilter</text>
</a>
</g>
</g>
<!-- Node1&#45;&gt;Node8 -->
<g id="edge2_Node000001_Node000008" class="edge">
<title>Node1&#45;&gt;Node8</title>
<g id="a_edge2_Node000001_Node000008"><a xlink:title=" ">
<path fill="none" stroke="#63b8ff" d="M329.22,-28.62C317.08,-28.62 304.27,-28.62 292.37,-28.62"/>
<polygon fill="#63b8ff" stroke="#63b8ff" points="329.09,-32.13 339.09,-28.63 329.09,-25.13 329.09,-32.13"/>
</a>
</g>
</g>
<!-- Node9 -->
<g id="Node000009" class="node">
<title>Node9</title>
<g id="a_Node000009"><a xlink:href="../../d5/d40/class_q_m_l_flat_model.html#ae78f682c929dd3a633ed772fa9e0a36e" target="_top" xlink:title=" ">
<polygon fill="white" stroke="#666666" points="144.25,-19.25 0,-19.25 0,0 144.25,0 144.25,-19.25"/>
<text text-anchor="middle" x="72.12" y="-5.75" font-family="Helvetica,sans-Serif" font-size="10.00">QMLFlatModel::setTextFilters</text>
</a>
</g>
</g>
<!-- Node1&#45;&gt;Node9 -->
<g id="edge4_Node000001_Node000009" class="edge">
<title>Node1&#45;&gt;Node9</title>
<g id="a_edge4_Node000001_Node000009"><a xlink:title=" ">
<path fill="none" stroke="#63b8ff" d="M338.35,-15.79C327.52,-13.23 315.92,-10.93 305,-9.62 251.54,-3.23 190.65,-3.51 144.68,-5.25"/>
<polygon fill="#63b8ff" stroke="#63b8ff" points="337.27,-19.13 347.82,-18.15 338.97,-12.33 337.27,-19.13"/>
</a>
</g>
</g>
<!-- Node8&#45;&gt;Node9 -->
<g id="edge3_Node000008_Node000009" class="edge">
<title>Node8&#45;&gt;Node9</title>
<g id="a_edge3_Node000008_Node000009"><a xlink:title=" ">
<path fill="none" stroke="#63b8ff" d="M181.65,-21.86C169.66,-20.51 156.96,-19.08 144.63,-17.69"/>
<polygon fill="#63b8ff" stroke="#63b8ff" points="181.05,-25.32 191.38,-22.96 181.84,-18.36 181.05,-25.32"/>
</a>
</g>
</g>
</g>
</svg>
</svg>

<style type='text/css'>
<![CDATA[
[data-mouse-over-selected='false'] { opacity: 0.7; }
[data-mouse-over-selected='true']  { opacity: 1.0; }
]]>
</style>
<script type="application/ecmascript"><![CDATA[
document.addEventListener('DOMContentLoaded', (event) => {
  highlightEdges();
  highlightAdjacentNodes();
});
]]></script>
</svg>
