<?xml version="1.0" encoding="UTF-8" standalone="no"?>
<!DOCTYPE svg PUBLIC "-//W3C//DTD SVG 1.1//EN"
 "http://www.w3.org/Graphics/SVG/1.1/DTD/svg11.dtd">
<!-- Generated by graphviz version 9.0.0 (20230911.1827)
 -->
<!-- Title: FlatModel::setDatabase Pages: 1 -->
<svg width="457pt" height="335pt"
 viewBox="0.00 0.00 456.50 334.88" xmlns="http://www.w3.org/2000/svg" xmlns:xlink="http://www.w3.org/1999/xlink">

<svg id="main" version="1.1" xmlns="http://www.w3.org/2000/svg" xmlns:xlink="http://www.w3.org/1999/xlink" xml:space="preserve" onload="init(evt)">
<style type="text/css"><![CDATA[
.node, .edge {opacity: 0.7;}
.node.selected, .edge.selected {opacity: 1;}
.edge:hover path { stroke: red; }
.edge:hover polygon { stroke: red; fill: red; }
]]></style>
<script type="application/ecmascript" xlink:href="../../svg.min.js"/>
<svg id="graph" class="graph">
<g id="graph0" class="graph" transform="scale(1 1) rotate(0) translate(4 330.88)">
<title>FlatModel::setDatabase</title>
<!-- Node1 -->
<g id="Node000001" class="node">
<title>Node1</title>
<g id="a_Node000001"><a xlink:title=" ">
<polygon fill="#999999" stroke="#666666" points="118,-172.25 0,-172.25 0,-153 118,-153 118,-172.25"/>
<text text-anchor="middle" x="59" y="-158.75" font-family="Helvetica,sans-Serif" font-size="10.00">FlatModel::setDatabase</text>
</a>
</g>
</g>
<!-- Node2 -->
<g id="Node000002" class="node">
<title>Node2</title>
<g id="a_Node000002"><a xlink:href="../../d7/da9/struct_database_1_1_i_database.html#a0b95fea80210ee6657d79a0f8a266aa7" target="_top" xlink:title=" ">
<polygon fill="white" stroke="#666666" points="274.62,-326.88 168.62,-326.88 168.62,-296.38 274.62,-296.38 274.62,-326.88"/>
<text text-anchor="start" x="176.62" y="-313.38" font-family="Helvetica,sans-Serif" font-size="10.00">Database::IDatabase</text>
<text text-anchor="middle" x="221.62" y="-302.12" font-family="Helvetica,sans-Serif" font-size="10.00">::backend</text>
</a>
</g>
</g>
<!-- Node1&#45;&gt;Node2 -->
<g id="edge1_Node000001_Node000002" class="edge">
<title>Node1&#45;&gt;Node2</title>
<g id="a_edge1_Node000001_Node000002"><a xlink:title=" ">
<path fill="none" stroke="#63b8ff" d="M64.89,-172.62C76.86,-196.06 109.87,-255.05 154,-287.62 155.36,-288.63 156.77,-289.59 158.21,-290.52"/>
<polygon fill="#63b8ff" stroke="#63b8ff" points="156.43,-293.54 166.86,-295.38 159.85,-287.43 156.43,-293.54"/>
</a>
</g>
</g>
<!-- Node3 -->
<g id="Node000003" class="node">
<title>Node3</title>
<g id="a_Node000003"><a xlink:href="../../d1/da6/class_flat_model.html#aca8c6652eb792b0e2658ba35c85c85a0" target="_top" xlink:title=" ">
<polygon fill="#fff0f0" stroke="red" points="289.25,-278.25 154,-278.25 154,-259 289.25,-259 289.25,-278.25"/>
<text text-anchor="middle" x="221.62" y="-264.75" font-family="Helvetica,sans-Serif" font-size="10.00">FlatModel::invalidatePhotos</text>
</a>
</g>
</g>
<!-- Node1&#45;&gt;Node3 -->
<g id="edge2_Node000001_Node000003" class="edge">
<title>Node1&#45;&gt;Node3</title>
<g id="a_edge2_Node000001_Node000003"><a xlink:title=" ">
<path fill="none" stroke="#63b8ff" d="M68.94,-172.54C84.66,-189.44 118.9,-223.99 154,-244.62 160.41,-248.39 167.51,-251.72 174.61,-254.6"/>
<polygon fill="#63b8ff" stroke="#63b8ff" points="172.94,-257.71 183.53,-257.98 175.41,-251.17 172.94,-257.71"/>
</a>
</g>
</g>
<!-- Node6 -->
<g id="Node000006" class="node">
<title>Node6</title>
<g id="a_Node000006"><a xlink:href="../../d1/da6/class_flat_model.html#ab787f239714891d0dbea80843b519bf2" target="_top" xlink:title=" ">
<polygon fill="#fff0f0" stroke="red" points="448.5,-259.25 325.25,-259.25 325.25,-240 448.5,-240 448.5,-259.25"/>
<text text-anchor="middle" x="386.88" y="-245.75" font-family="Helvetica,sans-Serif" font-size="10.00">FlatModel::updatePhotos</text>
</a>
</g>
</g>
<!-- Node1&#45;&gt;Node6 -->
<g id="edge9_Node000001_Node000006" class="edge">
<title>Node1&#45;&gt;Node6</title>
<g id="a_edge9_Node000001_Node000006"><a xlink:title=" ">
<path fill="none" stroke="#63b8ff" d="M75.29,-172.55C93.35,-183.81 124.67,-201.86 154,-211.62 206.02,-228.95 267.34,-238.56 313.85,-243.78"/>
<polygon fill="#63b8ff" stroke="#63b8ff" points="313.22,-247.23 323.54,-244.82 313.97,-240.27 313.22,-247.23"/>
</a>
</g>
</g>
<!-- Node19 -->
<g id="Node000019" class="node">
<title>Node19</title>
<g id="a_Node000019"><a xlink:href="../../d2/ddd/struct_database_1_1_i_backend.html#a009667e29a73bb7772829d8dcf208a92" target="_top" xlink:title="emited after new photos were added to database">
<polygon fill="white" stroke="#666666" points="273.12,-202.88 170.12,-202.88 170.12,-172.38 273.12,-172.38 273.12,-202.88"/>
<text text-anchor="start" x="178.12" y="-189.38" font-family="Helvetica,sans-Serif" font-size="10.00">Database::IBackend</text>
<text text-anchor="middle" x="221.62" y="-178.12" font-family="Helvetica,sans-Serif" font-size="10.00">::photosAdded</text>
</a>
</g>
</g>
<!-- Node1&#45;&gt;Node19 -->
<g id="edge4_Node000001_Node000019" class="edge">
<title>Node1&#45;&gt;Node19</title>
<g id="a_edge4_Node000001_Node000019"><a xlink:title=" ">
<path fill="none" stroke="#63b8ff" d="M118.44,-171.72C131.42,-173.74 145.22,-175.89 158.34,-177.93"/>
<polygon fill="#63b8ff" stroke="#63b8ff" points="157.74,-181.38 168.16,-179.46 158.82,-174.46 157.74,-181.38"/>
</a>
</g>
</g>
<!-- Node20 -->
<g id="Node000020" class="node">
<title>Node20</title>
<g id="a_Node000020"><a xlink:href="../../d2/ddd/struct_database_1_1_i_backend.html#a5d5cd941849fe3dcc48b738414b14190" target="_top" xlink:title="emited after photos removal">
<polygon fill="white" stroke="#666666" points="273.12,-153.88 170.12,-153.88 170.12,-123.38 273.12,-123.38 273.12,-153.88"/>
<text text-anchor="start" x="178.12" y="-140.38" font-family="Helvetica,sans-Serif" font-size="10.00">Database::IBackend</text>
<text text-anchor="middle" x="221.62" y="-129.12" font-family="Helvetica,sans-Serif" font-size="10.00">::photosModified</text>
</a>
</g>
</g>
<!-- Node1&#45;&gt;Node20 -->
<g id="edge5_Node000001_Node000020" class="edge">
<title>Node1&#45;&gt;Node20</title>
<g id="a_edge5_Node000001_Node000020"><a xlink:title=" ">
<path fill="none" stroke="#63b8ff" d="M118.44,-153.89C131.42,-151.95 145.22,-149.89 158.34,-147.93"/>
<polygon fill="#63b8ff" stroke="#63b8ff" points="158.78,-151.4 168.16,-146.46 157.75,-144.48 158.78,-151.4"/>
</a>
</g>
</g>
<!-- Node21 -->
<g id="Node000021" class="node">
<title>Node21</title>
<g id="a_Node000021"><a xlink:href="../../d2/ddd/struct_database_1_1_i_backend.html#aa465f3d4f7e0f238701a19edfb2b30e1" target="_top" xlink:title="emited when done with photos marking">
<polygon fill="white" stroke="#666666" points="273.12,-104.88 170.12,-104.88 170.12,-74.38 273.12,-74.38 273.12,-104.88"/>
<text text-anchor="start" x="178.12" y="-91.38" font-family="Helvetica,sans-Serif" font-size="10.00">Database::IBackend</text>
<text text-anchor="middle" x="221.62" y="-80.12" font-family="Helvetica,sans-Serif" font-size="10.00">::photosRemoved</text>
</a>
</g>
</g>
<!-- Node1&#45;&gt;Node21 -->
<g id="edge6_Node000001_Node000021" class="edge">
<title>Node1&#45;&gt;Node21</title>
<g id="a_edge6_Node000001_Node000021"><a xlink:title=" ">
<path fill="none" stroke="#63b8ff" d="M78.08,-152.62C96.79,-142.45 127.01,-126.53 154,-114.62 157.96,-112.88 162.08,-111.14 166.24,-109.45"/>
<polygon fill="#63b8ff" stroke="#63b8ff" points="167.21,-112.83 175.21,-105.89 164.62,-106.32 167.21,-112.83"/>
</a>
</g>
</g>
<!-- Node22 -->
<g id="Node000022" class="node">
<title>Node22</title>
<g id="a_Node000022"><a xlink:href="../../d1/da6/class_flat_model.html#ad7e7b563526a60acc35ccbf1d2491ba3" target="_top" xlink:title=" ">
<polygon fill="#fff0f0" stroke="red" points="281.75,-56.25 161.5,-56.25 161.5,-37 281.75,-37 281.75,-56.25"/>
<text text-anchor="middle" x="221.62" y="-42.75" font-family="Helvetica,sans-Serif" font-size="10.00">FlatModel::reloadPhotos</text>
</a>
</g>
</g>
<!-- Node1&#45;&gt;Node22 -->
<g id="edge7_Node000001_Node000022" class="edge">
<title>Node1&#45;&gt;Node22</title>
<g id="a_edge7_Node000001_Node000022"><a xlink:title=" ">
<path fill="none" stroke="#63b8ff" d="M66.78,-152.73C80.76,-133.1 114.77,-89.11 154,-65.62 156.81,-63.95 159.77,-62.41 162.82,-61"/>
<polygon fill="#63b8ff" stroke="#63b8ff" points="164.09,-64.27 172.05,-57.28 161.47,-57.77 164.09,-64.27"/>
</a>
</g>
</g>
<!-- Node25 -->
<g id="Node000025" class="node">
<title>Node25</title>
<g id="a_Node000025"><a xlink:href="../../d1/da6/class_flat_model.html#ab9fb6e274371e14fefea22b94235d657" target="_top" xlink:title=" ">
<polygon fill="#fff0f0" stroke="red" points="284.75,-19.25 158.5,-19.25 158.5,0 284.75,0 284.75,-19.25"/>
<text text-anchor="middle" x="221.62" y="-5.75" font-family="Helvetica,sans-Serif" font-size="10.00">FlatModel::removePhotos</text>
</a>
</g>
</g>
<!-- Node1&#45;&gt;Node25 -->
<g id="edge8_Node000001_Node000025" class="edge">
<title>Node1&#45;&gt;Node25</title>
<g id="a_edge8_Node000001_Node000025"><a xlink:title=" ">
<path fill="none" stroke="#63b8ff" d="M64,-152.7C74.65,-127.62 106.12,-61.32 154,-27.62 155.55,-26.53 157.16,-25.51 158.82,-24.55"/>
<polygon fill="#63b8ff" stroke="#63b8ff" points="159.97,-27.88 167.42,-20.35 156.9,-21.59 159.97,-27.88"/>
</a>
</g>
</g>
<!-- Node3&#45;&gt;Node6 -->
<g id="edge3_Node000003_Node000006" class="edge">
<title>Node3&#45;&gt;Node6</title>
<g id="a_edge3_Node000003_Node000006"><a xlink:title=" ">
<path fill="none" stroke="#63b8ff" d="M289.5,-260.84C297.46,-259.92 305.61,-258.97 313.64,-258.03"/>
<polygon fill="#63b8ff" stroke="#63b8ff" points="313.85,-261.53 323.38,-256.9 313.04,-254.58 313.85,-261.53"/>
</a>
</g>
</g>
</g>
</svg>
</svg>

<style type='text/css'>
<![CDATA[
[data-mouse-over-selected='false'] { opacity: 0.7; }
[data-mouse-over-selected='true']  { opacity: 1.0; }
]]>
</style>
<script type="application/ecmascript"><![CDATA[
document.addEventListener('DOMContentLoaded', (event) => {
  highlightEdges();
  highlightAdjacentNodes();
});
]]></script>
</svg>
