<?xml version="1.0" encoding="UTF-8" standalone="no"?>
<!DOCTYPE svg PUBLIC "-//W3C//DTD SVG 1.1//EN"
 "http://www.w3.org/Graphics/SVG/1.1/DTD/svg11.dtd">
<!-- Generated by graphviz version 9.0.0 (20230911.1827)
 -->
<!-- Title: FlatModel::getPhotoData Pages: 1 -->
<svg width="396pt" height="121pt"
 viewBox="0.00 0.00 395.75 121.25" xmlns="http://www.w3.org/2000/svg" xmlns:xlink="http://www.w3.org/1999/xlink">

<svg id="main" version="1.1" xmlns="http://www.w3.org/2000/svg" xmlns:xlink="http://www.w3.org/1999/xlink" xml:space="preserve" onload="init(evt)">
<style type="text/css"><![CDATA[
.node, .edge {opacity: 0.7;}
.node.selected, .edge.selected {opacity: 1;}
.edge:hover path { stroke: red; }
.edge:hover polygon { stroke: red; fill: red; }
]]></style>
<script type="application/ecmascript" xlink:href="../../svg.min.js"/>
<svg id="graph" class="graph">
<g id="graph0" class="graph" transform="scale(1 1) rotate(0) translate(4 117.25)">
<title>FlatModel::getPhotoData</title>
<!-- Node1 -->
<g id="Node000001" class="node">
<title>Node1</title>
<g id="a_Node000001"><a xlink:title=" ">
<polygon fill="#999999" stroke="#666666" points="122.5,-76.25 0,-76.25 0,-57 122.5,-57 122.5,-76.25"/>
<text text-anchor="middle" x="61.25" y="-62.75" font-family="Helvetica,sans-Serif" font-size="10.00">FlatModel::getPhotoData</text>
</a>
</g>
</g>
<!-- Node2 -->
<g id="Node000002" class="node">
<title>Node2</title>
<g id="a_Node000002"><a xlink:href="../../d1/da6/class_flat_model.html#a2fc0d267fad3b42f6696fed5e392d443" target="_top" xlink:title=" ">
<polygon fill="#fff0f0" stroke="red" points="253.25,-95.25 171.25,-95.25 171.25,-76 253.25,-76 253.25,-95.25"/>
<text text-anchor="middle" x="212.25" y="-81.75" font-family="Helvetica,sans-Serif" font-size="10.00">FlatModel::data</text>
</a>
</g>
</g>
<!-- Node1&#45;&gt;Node2 -->
<g id="edge1_Node000001_Node000002" class="edge">
<title>Node1&#45;&gt;Node2</title>
<g id="a_edge1_Node000001_Node000002"><a xlink:title=" ">
<path fill="none" stroke="#63b8ff" d="M122.85,-67.71C137.33,-69.33 152.53,-71.4 166.17,-73.62"/>
<polygon fill="#63b8ff" stroke="#63b8ff" points="165.27,-77.01 175.71,-75.25 166.45,-70.11 165.27,-77.01"/>
</a>
</g>
</g>
<!-- Node3 -->
<g id="Node000003" class="node">
<title>Node3</title>
<g id="a_Node000003"><a xlink:href="../../d1/da6/class_flat_model.html#a058935a0be53ef7083acac2fc7e1efbc" target="_top" xlink:title=" ">
<polygon fill="white" stroke="#666666" points="387.75,-76.25 302,-76.25 302,-57 387.75,-57 387.75,-76.25"/>
<text text-anchor="middle" x="344.88" y="-62.75" font-family="Helvetica,sans-Serif" font-size="10.00">FlatModel::index</text>
</a>
</g>
</g>
<!-- Node1&#45;&gt;Node3 -->
<g id="edge5_Node000001_Node000003" class="edge">
<title>Node1&#45;&gt;Node3</title>
<g id="a_edge5_Node000001_Node000003"><a xlink:title=" ">
<path fill="none" stroke="#63b8ff" d="M122.67,-66.62C172.54,-66.62 242.64,-66.62 290.47,-66.62"/>
<polygon fill="#63b8ff" stroke="#63b8ff" points="290.32,-70.13 300.32,-66.63 290.32,-63.13 290.32,-70.13"/>
</a>
</g>
</g>
<!-- Node5 -->
<g id="Node000005" class="node">
<title>Node5</title>
<g id="a_Node000005"><a xlink:href="../../d1/da6/class_flat_model.html#a4fc6cdcc57bfa8297d806d6bc694d92c" target="_top" xlink:title=" ">
<polygon fill="#fff0f0" stroke="red" points="266,-19.25 158.5,-19.25 158.5,0 266,0 266,-19.25"/>
<text text-anchor="middle" x="212.25" y="-5.75" font-family="Helvetica,sans-Serif" font-size="10.00">FlatModel::photoData</text>
</a>
</g>
</g>
<!-- Node1&#45;&gt;Node5 -->
<g id="edge6_Node000001_Node000005" class="edge">
<title>Node1&#45;&gt;Node5</title>
<g id="a_edge6_Node000001_Node000005"><a xlink:title=" ">
<path fill="none" stroke="#63b8ff" d="M88.55,-56.57C112.41,-47.44 147.84,-33.88 174.5,-23.68"/>
<polygon fill="#63b8ff" stroke="#63b8ff" points="175.46,-27.06 183.55,-20.22 172.96,-20.52 175.46,-27.06"/>
</a>
</g>
</g>
<!-- Node2&#45;&gt;Node1 -->
<g id="edge3_Node000002_Node000001" class="edge">
<title>Node2&#45;&gt;Node1</title>
<g id="a_edge3_Node000002_Node000001"><a xlink:title=" ">
<path fill="none" stroke="#63b8ff" d="M170.96,-86.56C151.27,-84.89 127.51,-81.92 107.23,-78.62"/>
<polygon fill="#63b8ff" stroke="#63b8ff" points="108,-75.2 97.55,-76.95 106.82,-82.1 108,-75.2"/>
</a>
</g>
</g>
<!-- Node2&#45;&gt;Node2 -->
<g id="edge2_Node000002_Node000002" class="edge">
<title>Node2&#45;&gt;Node2</title>
<g id="a_edge2_Node000002_Node000002"><a xlink:title=" ">
<path fill="none" stroke="#63b8ff" d="M191.49,-95.54C182.02,-104.15 188.94,-113.25 212.25,-113.25 225,-113.25 232.85,-110.53 235.79,-106.65"/>
<polygon fill="#63b8ff" stroke="#63b8ff" points="239.2,-105.86 233.38,-97.01 232.41,-107.56 239.2,-105.86"/>
</a>
</g>
</g>
<!-- Node2&#45;&gt;Node3 -->
<g id="edge4_Node000002_Node000003" class="edge">
<title>Node2&#45;&gt;Node3</title>
<g id="a_edge4_Node000002_Node000003"><a xlink:title=" ">
<path fill="none" stroke="#63b8ff" d="M253.51,-79.77C265.22,-78.07 278.19,-76.18 290.57,-74.38"/>
<polygon fill="#63b8ff" stroke="#63b8ff" points="290.83,-77.88 300.22,-72.98 289.82,-70.95 290.83,-77.88"/>
</a>
</g>
</g>
</g>
</svg>
</svg>

<style type='text/css'>
<![CDATA[
[data-mouse-over-selected='false'] { opacity: 0.7; }
[data-mouse-over-selected='true']  { opacity: 1.0; }
]]>
</style>
<script type="application/ecmascript"><![CDATA[
document.addEventListener('DOMContentLoaded', (event) => {
  highlightEdges();
  highlightAdjacentNodes();
});
]]></script>
</svg>
