<?xml version="1.0" encoding="UTF-8" standalone="no"?>
<!DOCTYPE svg PUBLIC "-//W3C//DTD SVG 1.1//EN"
 "http://www.w3.org/Graphics/SVG/1.1/DTD/svg11.dtd">
<!-- Generated by graphviz version 12.2.0 (20241103.1931)
 -->
<!-- Title: FlatModel::data Pages: 1 -->
<svg width="370pt" height="103pt"
 viewBox="0.00 0.00 370.25 103.25" xmlns="http://www.w3.org/2000/svg" xmlns:xlink="http://www.w3.org/1999/xlink">
<g id="graph0" class="graph" transform="scale(1 1) rotate(0) translate(4 99.25)">
<title>FlatModel::data</title>
<!-- Node1 -->
<g id="Node000001" class="node">
<title>Node1</title>
<g id="a_Node000001"><a xlink:title=" ">
<polygon fill="#999999" stroke="#666666" points="82,-76.25 0,-76.25 0,-57 82,-57 82,-76.25"/>
<text text-anchor="middle" x="41" y="-62.75" font-family="Helvetica,sans-Serif" font-size="10.00">FlatModel::data</text>
</a>
</g>
</g>
<!-- Node1&#45;&gt;Node1 -->
<g id="edge1_Node000001_Node000001" class="edge">
<title>Node1&#45;&gt;Node1</title>
<g id="a_edge1_Node000001_Node000001"><a xlink:title=" ">
<path fill="none" stroke="#63b8ff" d="M19.36,-76.54C9.48,-85.15 16.7,-94.25 41,-94.25 54.29,-94.25 62.47,-91.53 65.54,-87.65"/>
<polygon fill="#63b8ff" stroke="#63b8ff" points="68.93,-86.8 63.03,-78 62.16,-88.56 68.93,-86.8"/>
</a>
</g>
</g>
<!-- Node2 -->
<g id="Node000002" class="node">
<title>Node2</title>
<g id="a_Node000002"><a xlink:href="../../d1/da6/class_flat_model.html#ac4a1ff4ff16b5950efb7bf2b2f7dbd35" target="_top" xlink:title=" ">
<polygon fill="#fff0f0" stroke="red" points="240.5,-95.25 118,-95.25 118,-76 240.5,-76 240.5,-95.25"/>
<text text-anchor="middle" x="179.25" y="-81.75" font-family="Helvetica,sans-Serif" font-size="10.00">FlatModel::getPhotoData</text>
</a>
</g>
</g>
<!-- Node1&#45;&gt;Node2 -->
<g id="edge2_Node000001_Node000002" class="edge">
<title>Node1&#45;&gt;Node2</title>
<g id="a_edge2_Node000001_Node000002"><a xlink:title=" ">
<path fill="none" stroke="#63b8ff" d="M82.14,-66.01C99.27,-67.7 119.26,-70.47 136.55,-73.53"/>
<polygon fill="#63b8ff" stroke="#63b8ff" points="135.51,-76.9 145.98,-75.3 136.8,-70.02 135.51,-76.9"/>
</a>
</g>
</g>
<!-- Node3 -->
<g id="Node000003" class="node">
<title>Node3</title>
<g id="a_Node000003"><a xlink:href="../../d1/da6/class_flat_model.html#a058935a0be53ef7083acac2fc7e1efbc" target="_top" xlink:title=" ">
<polygon fill="white" stroke="#666666" points="362.25,-76.25 276.5,-76.25 276.5,-57 362.25,-57 362.25,-76.25"/>
<text text-anchor="middle" x="319.38" y="-62.75" font-family="Helvetica,sans-Serif" font-size="10.00">FlatModel::index</text>
</a>
</g>
</g>
<!-- Node1&#45;&gt;Node3 -->
<g id="edge5_Node000001_Node000003" class="edge">
<title>Node1&#45;&gt;Node3</title>
<g id="a_edge5_Node000001_Node000003"><a xlink:title=" ">
<path fill="none" stroke="#63b8ff" d="M82.48,-66.62C130.81,-66.62 211.79,-66.62 265.15,-66.62"/>
<polygon fill="#63b8ff" stroke="#63b8ff" points="264.91,-70.13 274.91,-66.63 264.91,-63.13 264.91,-70.13"/>
</a>
</g>
</g>
<!-- Node7 -->
<g id="Node000007" class="node">
<title>Node7</title>
<g id="a_Node000007"><a xlink:href="../../db/dfb/class_id.html#adfb3ccab511cef367bfa72b0a870b151" target="_top" xlink:title=" ">
<polygon fill="white" stroke="#666666" points="208.25,-19.25 150.25,-19.25 150.25,0 208.25,0 208.25,-19.25"/>
<text text-anchor="middle" x="179.25" y="-5.75" font-family="Helvetica,sans-Serif" font-size="10.00">Id::variant</text>
</a>
</g>
</g>
<!-- Node1&#45;&gt;Node7 -->
<g id="edge6_Node000001_Node000007" class="edge">
<title>Node1&#45;&gt;Node7</title>
<g id="a_edge6_Node000001_Node000007"><a xlink:title=" ">
<path fill="none" stroke="#63b8ff" d="M64.54,-56.62C79.62,-49.99 99.94,-41.14 118,-33.62 125.72,-30.41 134.03,-27.05 141.94,-23.88"/>
<polygon fill="#63b8ff" stroke="#63b8ff" points="142.97,-27.24 150.97,-20.29 140.39,-20.73 142.97,-27.24"/>
</a>
</g>
</g>
<!-- Node2&#45;&gt;Node1 -->
<g id="edge3_Node000002_Node000001" class="edge">
<title>Node2&#45;&gt;Node1</title>
<g id="a_edge3_Node000002_Node000001"><a xlink:title=" ">
<path fill="none" stroke="#63b8ff" d="M117.63,-83.89C106.28,-82.41 94.64,-80.65 84.01,-78.77"/>
<polygon fill="#63b8ff" stroke="#63b8ff" points="84.88,-75.37 74.4,-76.98 83.59,-82.25 84.88,-75.37"/>
</a>
</g>
</g>
<!-- Node2&#45;&gt;Node3 -->
<g id="edge4_Node000002_Node000003" class="edge">
<title>Node2&#45;&gt;Node3</title>
<g id="a_edge4_Node000002_Node000003"><a xlink:title=" ">
<path fill="none" stroke="#63b8ff" d="M240.83,-77.29C248.82,-76.19 256.96,-75.07 264.82,-73.99"/>
<polygon fill="#63b8ff" stroke="#63b8ff" points="265.15,-77.48 274.58,-72.65 264.2,-70.54 265.15,-77.48"/>
</a>
</g>
</g>
</g>
</svg>
