<?xml version="1.0" encoding="UTF-8" standalone="no"?>
<!DOCTYPE svg PUBLIC "-//W3C//DTD SVG 1.1//EN"
 "http://www.w3.org/Graphics/SVG/1.1/DTD/svg11.dtd">
<!-- Generated by graphviz version 12.2.0 (20241103.1931)
 -->
<!-- Title: FlatModel::gotPhotoData Pages: 1 -->
<svg width="332pt" height="119pt"
 viewBox="0.00 0.00 331.75 119.25" xmlns="http://www.w3.org/2000/svg" xmlns:xlink="http://www.w3.org/1999/xlink">
<g id="graph0" class="graph" transform="scale(1 1) rotate(0) translate(4 115.25)">
<title>FlatModel::gotPhotoData</title>
<!-- Node1 -->
<g id="Node000001" class="node">
<title>Node1</title>
<g id="a_Node000001"><a xlink:title=" ">
<polygon fill="#999999" stroke="#666666" points="122.5,-56.25 0,-56.25 0,-37 122.5,-37 122.5,-56.25"/>
<text text-anchor="middle" x="61.25" y="-42.75" font-family="Helvetica,sans-Serif" font-size="10.00">FlatModel::gotPhotoData</text>
</a>
</g>
</g>
<!-- Node2 -->
<g id="Node000002" class="node">
<title>Node2</title>
<g id="a_Node000002"><a xlink:href="../../d1/da6/class_flat_model.html#a2fc0d267fad3b42f6696fed5e392d443" target="_top" xlink:title=" ">
<polygon fill="#fff0f0" stroke="red" points="282.12,-93.25 200.12,-93.25 200.12,-74 282.12,-74 282.12,-93.25"/>
<text text-anchor="middle" x="241.12" y="-79.75" font-family="Helvetica,sans-Serif" font-size="10.00">FlatModel::data</text>
</a>
</g>
</g>
<!-- Node1&#45;&gt;Node2 -->
<g id="edge1_Node000001_Node000002" class="edge">
<title>Node1&#45;&gt;Node2</title>
<g id="a_edge1_Node000001_Node000002"><a xlink:title=" ">
<path fill="none" stroke="#63b8ff" d="M110.86,-56.74C134.92,-61.74 163.98,-67.79 188.45,-72.88"/>
<polygon fill="#63b8ff" stroke="#63b8ff" points="187.71,-76.3 198.21,-74.91 189.13,-69.44 187.71,-76.3"/>
</a>
</g>
</g>
<!-- Node9 -->
<g id="Node000009" class="node">
<title>Node9</title>
<g id="a_Node000009"><a xlink:href="../../d4/d50/namespace_photo.html#a594c3d326153119c0f9358f4277d62b9" target="_top" xlink:title=" ">
<polygon fill="white" stroke="#666666" points="273.88,-56.25 208.38,-56.25 208.38,-37 273.88,-37 273.88,-56.25"/>
<text text-anchor="middle" x="241.12" y="-42.75" font-family="Helvetica,sans-Serif" font-size="10.00">Photo::EDV</text>
</a>
</g>
</g>
<!-- Node1&#45;&gt;Node9 -->
<g id="edge3_Node000001_Node000009" class="edge">
<title>Node1&#45;&gt;Node9</title>
<g id="a_edge3_Node000001_Node000009"><a xlink:title=" ">
<path fill="none" stroke="#63b8ff" d="M122.97,-46.62C147.2,-46.62 174.54,-46.62 196.72,-46.62"/>
<polygon fill="#63b8ff" stroke="#63b8ff" points="196.61,-50.13 206.61,-46.63 196.61,-43.13 196.61,-50.13"/>
</a>
</g>
</g>
<!-- Node10 -->
<g id="Node000010" class="node">
<title>Node10</title>
<g id="a_Node000010"><a xlink:href="../../d1/da6/class_flat_model.html#a10e9daef6f559197140e219b1ffbd36c" target="_top" xlink:title=" ">
<polygon fill="white" stroke="#666666" points="323.75,-19.25 158.5,-19.25 158.5,0 323.75,0 323.75,-19.25"/>
<text text-anchor="middle" x="241.12" y="-5.75" font-family="Helvetica,sans-Serif" font-size="10.00">FlatModel::fetchedPhotoProperties</text>
</a>
</g>
</g>
<!-- Node1&#45;&gt;Node10 -->
<g id="edge4_Node000001_Node000010" class="edge">
<title>Node1&#45;&gt;Node10</title>
<g id="a_edge4_Node000001_Node000010"><a xlink:title=" ">
<path fill="none" stroke="#63b8ff" d="M110.86,-36.51C132.33,-32.05 157.78,-26.75 180.39,-22.05"/>
<polygon fill="#63b8ff" stroke="#63b8ff" points="181.02,-25.49 190.1,-20.03 179.59,-18.64 181.02,-25.49"/>
</a>
</g>
</g>
<!-- Node2&#45;&gt;Node2 -->
<g id="edge2_Node000002_Node000002" class="edge">
<title>Node2&#45;&gt;Node2</title>
<g id="a_edge2_Node000002_Node000002"><a xlink:title=" ">
<path fill="none" stroke="#63b8ff" d="M212.96,-93.54C200.12,-102.15 209.51,-111.25 241.12,-111.25 259.4,-111.25 270.25,-108.21 273.67,-103.98"/>
<polygon fill="#63b8ff" stroke="#63b8ff" points="276.97,-102.8 269.87,-94.93 270.52,-105.51 276.97,-102.8"/>
</a>
</g>
</g>
</g>
</svg>
