<?xml version="1.0" encoding="UTF-8" standalone="no"?>
<!DOCTYPE svg PUBLIC "-//W3C//DTD SVG 1.1//EN"
 "http://www.w3.org/Graphics/SVG/1.1/DTD/svg11.dtd">
<!-- Generated by graphviz version 7.0.5 (20221223.1930)
 -->
<!-- Title: FlatModel::filters Pages: 1 -->
<svg width="437pt" height="95pt"
 viewBox="0.00 0.00 437.00 94.50" xmlns="http://www.w3.org/2000/svg" xmlns:xlink="http://www.w3.org/1999/xlink">
<g id="graph0" class="graph" transform="scale(1 1) rotate(0) translate(4 90.5)">
<title>FlatModel::filters</title>
<!-- Node1 -->
<g id="node1" class="node">
<title>Node1</title>
<g id="a_node1"><a xlink:title=" ">
<polygon fill="#999999" stroke="#666666" points="429,-38 342,-38 342,-19 429,-19 429,-38"/>
<text text-anchor="middle" x="385.5" y="-26" font-family="Helvetica,sans-Serif" font-size="10.00">FlatModel::filters</text>
</a>
</g>
</g>
<!-- Node2 -->
<g id="node2" class="node">
<title>Node2</title>
<g id="a_node2"><a xlink:href="../../d1/da6/class_flat_model.html#acc2c349e5c72dd41696538dbb93c92f0" target="_top" xlink:title=" ">
<polygon fill="#fff0f0" stroke="red" points="306,-86.5 181,-86.5 181,-56.5 306,-56.5 306,-86.5"/>
<text text-anchor="start" x="189" y="-74.5" font-family="Helvetica,sans-Serif" font-size="10.00">FlatModel::fetchMatching</text>
<text text-anchor="middle" x="243.5" y="-63.5" font-family="Helvetica,sans-Serif" font-size="10.00">Photos</text>
</a>
</g>
</g>
<!-- Node1&#45;&gt;Node2 -->
<g id="edge1" class="edge">
<title>Node1&#45;&gt;Node2</title>
<path fill="none" stroke="#63b8ff" d="M341.23,-41.79C326.57,-46.29 310.06,-51.36 294.89,-56.02"/>
<polygon fill="#63b8ff" stroke="#63b8ff" points="342.05,-45.2 350.58,-38.92 340,-38.51 342.05,-45.2"/>
</g>
<!-- Node8 -->
<g id="node3" class="node">
<title>Node8</title>
<g id="a_node3"><a xlink:href="../../d1/da6/class_flat_model.html#af51f25af75e7a1a221ef40a69715d621" target="_top" xlink:title=" ">
<polygon fill="#fff0f0" stroke="red" points="293,-38 194,-38 194,-19 293,-19 293,-38"/>
<text text-anchor="middle" x="243.5" y="-26" font-family="Helvetica,sans-Serif" font-size="10.00">FlatModel::setFilter</text>
</a>
</g>
</g>
<!-- Node1&#45;&gt;Node8 -->
<g id="edge2" class="edge">
<title>Node1&#45;&gt;Node8</title>
<path fill="none" stroke="#63b8ff" d="M330.32,-28.5C318.15,-28.5 305.31,-28.5 293.37,-28.5"/>
<polygon fill="#63b8ff" stroke="#63b8ff" points="330.22,-32 340.22,-28.5 330.22,-25 330.22,-32"/>
</g>
<!-- Node9 -->
<g id="node4" class="node">
<title>Node9</title>
<g id="a_node4"><a xlink:href="../../d5/d40/class_q_m_l_flat_model.html#ae78f682c929dd3a633ed772fa9e0a36e" target="_top" xlink:title=" ">
<polygon fill="white" stroke="#666666" points="145,-19 0,-19 0,0 145,0 145,-19"/>
<text text-anchor="middle" x="72.5" y="-7" font-family="Helvetica,sans-Serif" font-size="10.00">QMLFlatModel::setTextFilters</text>
</a>
</g>
</g>
<!-- Node1&#45;&gt;Node9 -->
<g id="edge4" class="edge">
<title>Node1&#45;&gt;Node9</title>
<path fill="none" stroke="#63b8ff" d="M337.85,-16.02C327.44,-13.74 316.4,-11.7 306,-10.5 252.47,-4.32 191.54,-4.32 145.49,-5.73"/>
<polygon fill="#63b8ff" stroke="#63b8ff" points="336.83,-19.38 347.36,-18.23 338.41,-12.56 336.83,-19.38"/>
</g>
<!-- Node8&#45;&gt;Node9 -->
<g id="edge3" class="edge">
<title>Node8&#45;&gt;Node9</title>
<path fill="none" stroke="#63b8ff" d="M182.35,-21.74C170.33,-20.39 157.59,-18.95 145.22,-17.56"/>
<polygon fill="#63b8ff" stroke="#63b8ff" points="181.79,-25.2 192.11,-22.84 182.57,-18.24 181.79,-25.2"/>
</g>
</g>
</svg>
