<?xml version="1.0" encoding="UTF-8" standalone="no"?>
<!DOCTYPE svg PUBLIC "-//W3C//DTD SVG 1.1//EN"
 "http://www.w3.org/Graphics/SVG/1.1/DTD/svg11.dtd">
<!-- Generated by graphviz version 7.0.5 (20221223.1930)
 -->
<!-- Title: FlatModel::fetchPhotoData Pages: 1 -->
<svg width="330pt" height="76pt"
 viewBox="0.00 0.00 330.00 75.50" xmlns="http://www.w3.org/2000/svg" xmlns:xlink="http://www.w3.org/1999/xlink">
<g id="graph0" class="graph" transform="scale(1 1) rotate(0) translate(4 71.5)">
<title>FlatModel::fetchPhotoData</title>
<!-- Node1 -->
<g id="node1" class="node">
<title>Node1</title>
<g id="a_node1"><a xlink:title=" ">
<polygon fill="#999999" stroke="#666666" points="131,-40 0,-40 0,-21 131,-21 131,-40"/>
<text text-anchor="middle" x="65.5" y="-28" font-family="Helvetica,sans-Serif" font-size="10.00">FlatModel::fetchPhotoData</text>
</a>
</g>
</g>
<!-- Node2 -->
<g id="node2" class="node">
<title>Node2</title>
<g id="a_node2"><a xlink:href="../../d4/d9f/struct_database_1_1_i_database_thread.html#a6bdc1d4ea20d65caa82f4d732ead6830" target="_top" xlink:title=" ">
<polygon fill="#fff0f0" stroke="red" points="313,-67.5 176,-67.5 176,-37.5 313,-37.5 313,-67.5"/>
<text text-anchor="start" x="184" y="-55.5" font-family="Helvetica,sans-Serif" font-size="10.00">Database::IDatabaseThread</text>
<text text-anchor="middle" x="244.5" y="-44.5" font-family="Helvetica,sans-Serif" font-size="10.00">::exec</text>
</a>
</g>
</g>
<!-- Node1&#45;&gt;Node2 -->
<g id="edge1" class="edge">
<title>Node1&#45;&gt;Node2</title>
<path fill="none" stroke="#63b8ff" d="M131.4,-38.57C142.09,-39.9 153.28,-41.29 164.27,-42.65"/>
<polygon fill="#63b8ff" stroke="#63b8ff" points="163.78,-46.12 174.13,-43.88 164.64,-39.17 163.78,-46.12"/>
</g>
<!-- Node5 -->
<g id="node3" class="node">
<title>Node5</title>
<g id="a_node3"><a xlink:href="../../d1/da6/class_flat_model.html#a7b363b60e1ec6b187585a70b748b30f5" target="_top" xlink:title=" ">
<polygon fill="#fff0f0" stroke="red" points="322,-19 167,-19 167,0 322,0 322,-19"/>
<text text-anchor="middle" x="244.5" y="-7" font-family="Helvetica,sans-Serif" font-size="10.00">FlatModel::fetchPhotoProperties</text>
</a>
</g>
</g>
<!-- Node1&#45;&gt;Node5 -->
<g id="edge2" class="edge">
<title>Node1&#45;&gt;Node5</title>
<path fill="none" stroke="#63b8ff" d="M131.4,-22.8C139.18,-21.88 147.22,-20.92 155.26,-19.97"/>
<polygon fill="#63b8ff" stroke="#63b8ff" points="155.58,-23.46 165.09,-18.8 154.75,-16.51 155.58,-23.46"/>
</g>
</g>
</svg>
