<?xml version="1.0" encoding="UTF-8" standalone="no"?>
<!DOCTYPE svg PUBLIC "-//W3C//DTD SVG 1.1//EN"
 "http://www.w3.org/Graphics/SVG/1.1/DTD/svg11.dtd">
<!-- Generated by graphviz version 7.0.5 (20221223.1930)
 -->
<!-- Title: FlatModel::parent Pages: 1 -->
<svg width="256pt" height="64pt"
 viewBox="0.00 0.00 256.00 64.00" xmlns="http://www.w3.org/2000/svg" xmlns:xlink="http://www.w3.org/1999/xlink">
<g id="graph0" class="graph" transform="scale(1 1) rotate(0) translate(4 60)">
<title>FlatModel::parent</title>
<!-- Node1 -->
<g id="node1" class="node">
<title>Node1</title>
<g id="a_node1"><a xlink:title=" ">
<polygon fill="#999999" stroke="#666666" points="248,-37 157,-37 157,-18 248,-18 248,-37"/>
<text text-anchor="middle" x="202.5" y="-25" font-family="Helvetica,sans-Serif" font-size="10.00">FlatModel::parent</text>
</a>
</g>
</g>
<!-- Node2 -->
<g id="node2" class="node">
<title>Node2</title>
<g id="a_node2"><a xlink:href="../../d1/da6/class_flat_model.html#a9bfa27c0da4c51942e8600aa04411925" target="_top" xlink:title=" ">
<polygon fill="white" stroke="#666666" points="121,-56 0,-56 0,-37 121,-37 121,-56"/>
<text text-anchor="middle" x="60.5" y="-44" font-family="Helvetica,sans-Serif" font-size="10.00">FlatModel::columnCount</text>
</a>
</g>
</g>
<!-- Node1&#45;&gt;Node2 -->
<g id="edge1" class="edge">
<title>Node1&#45;&gt;Node2</title>
<path fill="none" stroke="#63b8ff" d="M145.43,-35.11C137.51,-36.18 129.33,-37.29 121.34,-38.38"/>
<polygon fill="#63b8ff" stroke="#63b8ff" points="145.88,-38.58 155.32,-33.77 144.94,-31.64 145.88,-38.58"/>
</g>
<!-- Node3 -->
<g id="node3" class="node">
<title>Node3</title>
<g id="a_node3"><a xlink:href="../../d1/da6/class_flat_model.html#abeb2d563300749d664eaf2d817d5a545" target="_top" xlink:title=" ">
<polygon fill="white" stroke="#666666" points="113,-19 8,-19 8,0 113,0 113,-19"/>
<text text-anchor="middle" x="60.5" y="-7" font-family="Helvetica,sans-Serif" font-size="10.00">FlatModel::rowCount</text>
</a>
</g>
</g>
<!-- Node1&#45;&gt;Node3 -->
<g id="edge2" class="edge">
<title>Node1&#45;&gt;Node3</title>
<path fill="none" stroke="#63b8ff" d="M145.45,-20.29C134.75,-18.92 123.61,-17.49 113.07,-16.13"/>
<polygon fill="#63b8ff" stroke="#63b8ff" points="144.95,-23.76 155.32,-21.56 145.85,-16.82 144.95,-23.76"/>
</g>
</g>
</svg>
