<?xml version="1.0" encoding="UTF-8" standalone="no"?>
<!DOCTYPE svg PUBLIC "-//W3C//DTD SVG 1.1//EN"
 "http://www.w3.org/Graphics/SVG/1.1/DTD/svg11.dtd">
<!-- Generated by graphviz version 9.0.0 (20230911.1827)
 -->
<!-- Title: FlatModel::getPhotoPath Pages: 1 -->
<svg width="274pt" height="82pt"
 viewBox="0.00 0.00 274.00 82.25" xmlns="http://www.w3.org/2000/svg" xmlns:xlink="http://www.w3.org/1999/xlink">
<g id="graph0" class="graph" transform="scale(1 1) rotate(0) translate(4 78.25)">
<title>FlatModel::getPhotoPath</title>
<!-- Node1 -->
<g id="Node000001" class="node">
<title>Node1</title>
<g id="a_Node000001"><a xlink:title=" ">
<polygon fill="#999999" stroke="#666666" points="122.5,-37.25 0,-37.25 0,-18 122.5,-18 122.5,-37.25"/>
<text text-anchor="middle" x="61.25" y="-23.75" font-family="Helvetica,sans-Serif" font-size="10.00">FlatModel::getPhotoPath</text>
</a>
</g>
</g>
<!-- Node2 -->
<g id="Node000002" class="node">
<title>Node2</title>
<g id="a_Node000002"><a xlink:href="../../d1/da6/class_flat_model.html#a2fc0d267fad3b42f6696fed5e392d443" target="_top" xlink:title=" ">
<polygon fill="#fff0f0" stroke="red" points="253.25,-56.25 171.25,-56.25 171.25,-37 253.25,-37 253.25,-56.25"/>
<text text-anchor="middle" x="212.25" y="-42.75" font-family="Helvetica,sans-Serif" font-size="10.00">FlatModel::data</text>
</a>
</g>
</g>
<!-- Node1&#45;&gt;Node2 -->
<g id="edge1_Node000001_Node000002" class="edge">
<title>Node1&#45;&gt;Node2</title>
<g id="a_edge1_Node000001_Node000002"><a xlink:title=" ">
<path fill="none" stroke="#63b8ff" d="M122.85,-35.35C135.19,-36.93 148.05,-38.57 160.02,-40.09"/>
<polygon fill="#63b8ff" stroke="#63b8ff" points="159.31,-43.53 169.67,-41.32 160.2,-36.59 159.31,-43.53"/>
</a>
</g>
</g>
<!-- Node5 -->
<g id="Node000005" class="node">
<title>Node5</title>
<g id="a_Node000005"><a xlink:href="../../d1/da6/class_flat_model.html#a4fc6cdcc57bfa8297d806d6bc694d92c" target="_top" xlink:title=" ">
<polygon fill="#fff0f0" stroke="red" points="266,-19.25 158.5,-19.25 158.5,0 266,0 266,-19.25"/>
<text text-anchor="middle" x="212.25" y="-5.75" font-family="Helvetica,sans-Serif" font-size="10.00">FlatModel::photoData</text>
</a>
</g>
</g>
<!-- Node1&#45;&gt;Node5 -->
<g id="edge3_Node000001_Node000005" class="edge">
<title>Node1&#45;&gt;Node5</title>
<g id="a_edge3_Node000001_Node000005"><a xlink:title=" ">
<path fill="none" stroke="#63b8ff" d="M122.85,-20.3C130.85,-19.34 139.07,-18.35 147.12,-17.37"/>
<polygon fill="#63b8ff" stroke="#63b8ff" points="147.34,-20.87 156.85,-16.2 146.5,-13.92 147.34,-20.87"/>
</a>
</g>
</g>
<!-- Node2&#45;&gt;Node2 -->
<g id="edge2_Node000002_Node000002" class="edge">
<title>Node2&#45;&gt;Node2</title>
<g id="a_edge2_Node000002_Node000002"><a xlink:title=" ">
<path fill="none" stroke="#63b8ff" d="M188.61,-56.54C177.83,-65.15 185.71,-74.25 212.25,-74.25 227.18,-74.25 236.21,-71.37 239.33,-67.32"/>
<polygon fill="#63b8ff" stroke="#63b8ff" points="242.72,-66.44 236.35,-57.98 236.05,-68.57 242.72,-66.44"/>
</a>
</g>
</g>
</g>
</svg>
