<?xml version="1.0" encoding="UTF-8" standalone="no"?>
<!DOCTYPE svg PUBLIC "-//W3C//DTD SVG 1.1//EN"
 "http://www.w3.org/Graphics/SVG/1.1/DTD/svg11.dtd">
<!-- Generated by graphviz version 7.0.5 (20221223.1930)
 -->
<!-- Title: src/database/backends/sql_backends/mysql_backend/backend.hpp Pages: 1 -->
<!--zoomable 181 -->
<svg id="main" version="1.1" xmlns="http://www.w3.org/2000/svg" xmlns:xlink="http://www.w3.org/1999/xlink" xml:space="preserve" onload="init(evt)">
<style type="text/css"><![CDATA[
.edge:hover path { stroke: red; }
.edge:hover polygon { stroke: red; fill: red; }
]]></style>
<script type="text/javascript"><![CDATA[
var edges = document.getElementsByTagName('g');
if (edges && edges.length) {
  for (var i=0;i<edges.length;i++) {
    if (edges[i].id.substr(0,4)=='edge') {
      edges[i].setAttribute('class','edge');
    }
  }
}
]]></script>
        <defs>
                <circle id="rim" cx="0" cy="0" r="7"/>
                <circle id="rim2" cx="0" cy="0" r="3.5"/>
                <g id="zoomPlus">
                        <use xlink:href="#rim" fill="#404040">
                                <set attributeName="fill" to="#808080" begin="zoomplus.mouseover" end="zoomplus.mouseout"/>
                        </use>
                        <path d="M-4,0h8M0,-4v8" fill="none" stroke="white" stroke-width="1.5" pointer-events="none"/>
                </g>
                <g id="zoomMin">
                        <use xlink:href="#rim" fill="#404040">
                                <set attributeName="fill" to="#808080" begin="zoomminus.mouseover" end="zoomminus.mouseout"/>
                        </use>
                        <path d="M-4,0h8" fill="none" stroke="white" stroke-width="1.5" pointer-events="none"/>
                </g>
                <g id="dirArrow">
                        <path fill="none" stroke="white" stroke-width="1.5" d="M0,-3.0v7 M-2.5,-0.5L0,-3.0L2.5,-0.5"/>
                </g>
               <g id="resetDef">
                       <use xlink:href="#rim2" fill="#404040">
                               <set attributeName="fill" to="#808080" begin="reset.mouseover" end="reset.mouseout"/>
                       </use>
               </g>
        </defs>

<script type="text/javascript">
var viewWidth = 736;
var viewHeight = 181;
var sectionId = 'dynsection-0';
</script>
<script xlink:href="../../svgpan.js"/>
<svg id="graph" class="graph">
<g id="viewport">
<title>src/database/backends/sql_backends/mysql_backend/backend.hpp</title>
<!-- Node1 -->
<g id="node1" class="node">
<title>Node1</title>
<g id="a_node1"><a xlink:title=" ">
<polygon fill="#999999" stroke="#666666" points="372.8,-173 222.8,-173 222.8,-132 372.8,-132 372.8,-173"/>
<text text-anchor="start" x="230.8" y="-161" font-family="Helvetica,sans-Serif" font-size="10.00">src/database/backends</text>
<text text-anchor="start" x="230.8" y="-150" font-family="Helvetica,sans-Serif" font-size="10.00">/sql_backends/mysql_backend</text>
<text text-anchor="middle" x="297.8" y="-139" font-family="Helvetica,sans-Serif" font-size="10.00">/backend.hpp</text>
</a>
</g>
</g>
<!-- Node2 -->
<g id="node2" class="node">
<title>Node2</title>
<g id="a_node2"><a xlink:title=" ">
<polygon fill="#e0e0e0" stroke="#999999" points="102.3,-19 51.3,-19 51.3,0 102.3,0 102.3,-19"/>
<text text-anchor="middle" x="76.8" y="-7" font-family="Helvetica,sans-Serif" font-size="10.00">memory</text>
</a>
</g>
</g>
<!-- Node1&#45;&gt;Node2 -->
<g id="edge1" class="edge">
<title>Node1&#45;&gt;Node2</title>
<path fill="none" stroke="#63b8ff" d="M222.39,-147.67C145.73,-142.02 34.55,-128.35 7.8,-96 -3.81,-81.96 -0.92,-71 7.8,-55 15.13,-41.57 28.43,-31.58 41.42,-24.5"/>
<polygon fill="#63b8ff" stroke="#63b8ff" points="42.88,-27.69 50.29,-20.12 39.78,-21.41 42.88,-27.69"/>
</g>
<!-- Node3 -->
<g id="node3" class="node">
<title>Node3</title>
<g id="a_node3"><a xlink:href="../../d7/d2b/idatabase_8hpp.html" target="_top" xlink:title=" ">
<polygon fill="#fff0f0" stroke="red" points="136.3,-85 17.3,-85 17.3,-66 136.3,-66 136.3,-85"/>
<text text-anchor="middle" x="76.8" y="-73" font-family="Helvetica,sans-Serif" font-size="10.00">database/idatabase.hpp</text>
</a>
</g>
</g>
<!-- Node1&#45;&gt;Node3 -->
<g id="edge2" class="edge">
<title>Node1&#45;&gt;Node3</title>
<path fill="none" stroke="#63b8ff" d="M239.16,-131.6C199.35,-118.09 147.93,-100.64 113.74,-89.03"/>
<polygon fill="#63b8ff" stroke="#63b8ff" points="115.3,-85.87 104.71,-85.97 113.05,-92.5 115.3,-85.87"/>
</g>
<!-- Node44 -->
<g id="node4" class="node">
<title>Node44</title>
<g id="a_node4"><a xlink:href="../../df/df4/sql__backend_8hpp.html" target="_top" xlink:title=" ">
<polygon fill="#fff0f0" stroke="red" points="294.8,-90.5 154.8,-90.5 154.8,-60.5 294.8,-60.5 294.8,-90.5"/>
<text text-anchor="start" x="162.8" y="-78.5" font-family="Helvetica,sans-Serif" font-size="10.00">database/backends/sql</text>
<text text-anchor="middle" x="224.8" y="-67.5" font-family="Helvetica,sans-Serif" font-size="10.00">_backends/sql_backend.hpp</text>
</a>
</g>
</g>
<!-- Node1&#45;&gt;Node44 -->
<g id="edge4" class="edge">
<title>Node1&#45;&gt;Node44</title>
<path fill="none" stroke="#63b8ff" d="M278.63,-131.79C268.86,-121.76 256.93,-109.51 246.79,-99.09"/>
<polygon fill="#63b8ff" stroke="#63b8ff" points="249.32,-96.67 239.84,-91.95 244.31,-101.55 249.32,-96.67"/>
</g>
<!-- Node69 -->
<g id="node5" class="node">
<title>Node69</title>
<g id="a_node5"><a xlink:href="../../d1/d77/generic__sql__query__constructor_8hpp.html" target="_top" xlink:title=" ">
<polygon fill="#fff0f0" stroke="red" points="430.3,-96 313.3,-96 313.3,-55 430.3,-55 430.3,-96"/>
<text text-anchor="start" x="321.3" y="-84" font-family="Helvetica,sans-Serif" font-size="10.00">database/backends/sql</text>
<text text-anchor="start" x="321.3" y="-73" font-family="Helvetica,sans-Serif" font-size="10.00">_backends/generic_sql</text>
<text text-anchor="middle" x="371.8" y="-62" font-family="Helvetica,sans-Serif" font-size="10.00">_query_constructor.hpp</text>
</a>
</g>
</g>
<!-- Node1&#45;&gt;Node69 -->
<g id="edge6" class="edge">
<title>Node1&#45;&gt;Node69</title>
<path fill="none" stroke="#63b8ff" d="M317.25,-131.79C325.51,-123.42 335.29,-113.51 344.28,-104.4"/>
<polygon fill="#63b8ff" stroke="#63b8ff" points="346.64,-106.99 351.17,-97.41 341.66,-102.07 346.64,-106.99"/>
</g>
<!-- Node70 -->
<g id="node6" class="node">
<title>Node70</title>
<g id="a_node6"><a xlink:href="../../d4/d34/ibackend__qt__interface_8hpp.html" target="_top" xlink:title=" ">
<polygon fill="#fff0f0" stroke="red" points="581.3,-90.5 448.3,-90.5 448.3,-60.5 581.3,-60.5 581.3,-90.5"/>
<text text-anchor="start" x="456.3" y="-78.5" font-family="Helvetica,sans-Serif" font-size="10.00">database/implementation</text>
<text text-anchor="middle" x="514.8" y="-67.5" font-family="Helvetica,sans-Serif" font-size="10.00">/ibackend_qt_interface.hpp</text>
</a>
</g>
</g>
<!-- Node1&#45;&gt;Node70 -->
<g id="edge7" class="edge">
<title>Node1&#45;&gt;Node70</title>
<path fill="none" stroke="#63b8ff" d="M355.39,-131.6C388.67,-120.1 430.21,-105.74 462.54,-94.56"/>
<polygon fill="#63b8ff" stroke="#63b8ff" points="463.39,-97.97 471.7,-91.4 461.11,-91.36 463.39,-97.97"/>
</g>
<!-- Node74 -->
<g id="node7" class="node">
<title>Node74</title>
<g id="a_node7"><a xlink:title=" ">
<polygon fill="#e0e0e0" stroke="#999999" points="728.3,-90.5 599.3,-90.5 599.3,-60.5 728.3,-60.5 728.3,-90.5"/>
<text text-anchor="start" x="607.3" y="-78.5" font-family="Helvetica,sans-Serif" font-size="10.00">database_mysql_backend</text>
<text text-anchor="middle" x="663.8" y="-67.5" font-family="Helvetica,sans-Serif" font-size="10.00">_export.h</text>
</a>
</g>
</g>
<!-- Node1&#45;&gt;Node74 -->
<g id="edge8" class="edge">
<title>Node1&#45;&gt;Node74</title>
<path fill="none" stroke="#63b8ff" d="M373.09,-138.82C432.46,-128.43 517.23,-112.77 590.8,-96 594.09,-95.25 597.45,-94.46 600.83,-93.63"/>
<polygon fill="#63b8ff" stroke="#63b8ff" points="601.36,-97.11 610.21,-91.29 599.66,-90.32 601.36,-97.11"/>
</g>
<!-- Node3&#45;&gt;Node2 -->
<g id="edge3" class="edge">
<title>Node3&#45;&gt;Node2</title>
<path fill="none" stroke="#63b8ff" d="M76.8,-65.6C76.8,-56.62 76.8,-42.45 76.8,-30.72"/>
<polygon fill="#63b8ff" stroke="#63b8ff" points="80.31,-30.84 76.8,-20.84 73.31,-30.84 80.31,-30.84"/>
</g>
<!-- Node44&#45;&gt;Node2 -->
<g id="edge5" class="edge">
<title>Node44&#45;&gt;Node2</title>
<path fill="none" stroke="#63b8ff" d="M191.59,-60.14C166.61,-49.33 132.61,-34.63 108.11,-24.04"/>
<polygon fill="#63b8ff" stroke="#63b8ff" points="109.54,-20.84 98.97,-20.09 106.76,-27.27 109.54,-20.84"/>
</g>
</g>
</svg>
        <g id="navigator" transform="translate(0 0)" fill="#404254">
                <rect fill="#f2f5e9" fill-opacity="0.5" stroke="#606060" stroke-width=".5" x="0" y="0" width="60" height="60"/>
                <use id="zoomplus" xlink:href="#zoomPlus" x="17" y="9" onmousedown="handleZoom(evt,'in')"/>
                <use id="zoomminus" xlink:href="#zoomMin" x="42" y="9" onmousedown="handleZoom(evt,'out')"/>
                <use id="reset" xlink:href="#resetDef" x="30" y="36" onmousedown="handleReset()"/>
                <g id="arrowUp" xlink:href="#dirArrow" transform="translate(30 24)" onmousedown="handlePan(0,-1)">
                  <use xlink:href="#rim" fill="#404040">
                        <set attributeName="fill" to="#808080" begin="arrowUp.mouseover" end="arrowUp.mouseout"/>
                  </use>
                  <path fill="none" stroke="white" stroke-width="1.5" d="M0,-3.0v7 M-2.5,-0.5L0,-3.0L2.5,-0.5"/>
                </g>
                <g id="arrowRight" xlink:href="#dirArrow" transform="rotate(90) translate(36 -43)" onmousedown="handlePan(1,0)">
                  <use xlink:href="#rim" fill="#404040">
                        <set attributeName="fill" to="#808080" begin="arrowRight.mouseover" end="arrowRight.mouseout"/>
                  </use>
                  <path fill="none" stroke="white" stroke-width="1.5" d="M0,-3.0v7 M-2.5,-0.5L0,-3.0L2.5,-0.5"/>
                </g>
                <g id="arrowDown" xlink:href="#dirArrow" transform="rotate(180) translate(-30 -48)" onmousedown="handlePan(0,1)">
                  <use xlink:href="#rim" fill="#404040">
                        <set attributeName="fill" to="#808080" begin="arrowDown.mouseover" end="arrowDown.mouseout"/>
                  </use>
                  <path fill="none" stroke="white" stroke-width="1.5" d="M0,-3.0v7 M-2.5,-0.5L0,-3.0L2.5,-0.5"/>
                </g>
                <g id="arrowLeft" xlink:href="#dirArrow" transform="rotate(270) translate(-36 17)" onmousedown="handlePan(-1,0)">
                  <use xlink:href="#rim" fill="#404040">
                        <set attributeName="fill" to="#808080" begin="arrowLeft.mouseover" end="arrowLeft.mouseout"/>
                  </use>
                  <path fill="none" stroke="white" stroke-width="1.5" d="M0,-3.0v7 M-2.5,-0.5L0,-3.0L2.5,-0.5"/>
                </g>
        </g>
        <svg viewBox="0 0 15 15" width="100%" height="30px" preserveAspectRatio="xMaxYMin meet">
         <g id="arrow_out" transform="scale(0.3 0.3)">
          <a xlink:href="mysql__backend_2backend_8hpp__incl_org.svg" target="_base">
           <rect id="button" ry="5" rx="5" y="6" x="6" height="38" width="38"
                fill="#f2f5e9" fill-opacity="0.5" stroke="#606060" stroke-width="1.0"/>
           <path id="arrow"
             d="M 11.500037,31.436501 C 11.940474,20.09759 22.043105,11.32322 32.158766,21.979434 L 37.068811,17.246167 C 37.068811,17.246167 37.088388,32 37.088388,32 L 22.160133,31.978069 C 22.160133,31.978069 26.997745,27.140456 26.997745,27.140456 C 18.528582,18.264221 13.291696,25.230495 11.500037,31.436501 z"
             style="fill:#404040;"/>
          </a>
         </g>
        </svg>
</svg>
