<?xml version="1.0" encoding="UTF-8" standalone="no"?>
<!DOCTYPE svg PUBLIC "-//W3C//DTD SVG 1.1//EN"
 "http://www.w3.org/Graphics/SVG/1.1/DTD/svg11.dtd">
<!-- Generated by graphviz version 12.2.0 (20241103.1931)
 -->
<!-- Title: src/core/function_wrappers.hpp Pages: 1 -->
<!--zoomable 172 -->

<svg id="main" version="1.1" xmlns="http://www.w3.org/2000/svg" xmlns:xlink="http://www.w3.org/1999/xlink" xml:space="preserve" onload="init(evt)">

<style type="text/css"><![CDATA[
.node, .edge {opacity: 0.7;}
.node.selected, .edge.selected {opacity: 1;}
.edge:hover path { stroke: red; }
.edge:hover polygon { stroke: red; fill: red; }
]]></style>

<defs>
  <circle id="rim" cx="0" cy="0" r="7"/>
  <circle id="rim2" cx="0" cy="0" r="3.5"/>
  <g id="zoomPlus">
    <use xlink:href="#rim" fill="#404040"><set attributeName="fill" to="#808080" begin="zoomplus.mouseover" end="zoomplus.mouseout"/></use>
    <path d="M-4,0h8M0,-4v8" fill="none" stroke="white" stroke-width="1.5" pointer-events="none"/>
  </g>
  <g id="zoomMin">
    <use xlink:href="#rim" fill="#404040"><set attributeName="fill" to="#808080" begin="zoomminus.mouseover" end="zoomminus.mouseout"/></use>
    <path d="M-4,0h8" fill="none" stroke="white" stroke-width="1.5" pointer-events="none"/>
  </g>
  <g id="arrowUp" transform="translate(30 24)">
    <use xlink:href="#rim"/>
    <path pointer-events="none" fill="none" stroke="white" stroke-width="1.5" d="M0,-3.0v7 M-2.5,-0.5L0,-3.0L2.5,-0.5"/>
  </g>
  <g id="arrowRight" transform="rotate(90) translate(36 -43)">
    <use xlink:href="#rim"/>
    <path pointer-events="none" fill="none" stroke="white" stroke-width="1.5" d="M0,-3.0v7 M-2.5,-0.5L0,-3.0L2.5,-0.5"/>
  </g>
  <g id="arrowDown" transform="rotate(180) translate(-30 -48)">
    <use xlink:href="#rim"/>
    <path pointer-events="none" fill="none" stroke="white" stroke-width="1.5" d="M0,-3.0v7 M-2.5,-0.5L0,-3.0L2.5,-0.5"/>
  </g>
  <g id="arrowLeft" transform="rotate(270) translate(-36 17)">
    <use xlink:href="#rim"/>
    <path pointer-events="none" fill="none" stroke="white" stroke-width="1.5" d="M0,-3.0v7 M-2.5,-0.5L0,-3.0L2.5,-0.5"/>
  </g>
  <g id="resetDef">
    <use xlink:href="#rim2" fill="#404040"><set attributeName="fill" to="#808080" begin="reset.mouseover" end="reset.mouseout"/></use>
  </g>
</defs>
<script type="application/ecmascript">
var viewWidth = 1954;
var viewHeight = 172;
var sectionId = 'dynsection-1';
</script>
<script type="application/ecmascript" xlink:href="../../svg.min.js"/>
<svg id="graph" class="graph">
<g id="viewport">
<title>src/core/function_wrappers.hpp</title>
<!-- Node1 -->
<g id="Node000001" class="node">
<title>Node1</title>
<g id="a_Node000001"><a xlink:title=" ">
<polygon fill="#999999" stroke="#666666" points="1010,-163.5 858.25,-163.5 858.25,-144.25 1010,-144.25 1010,-163.5"/>
<text text-anchor="middle" x="934.12" y="-150" font-family="Helvetica,sans-Serif" font-size="10.00">src/core/function_wrappers.hpp</text>
</a>
</g>
</g>
<!-- Node2 -->
<g id="Node000002" class="node">
<title>Node2</title>
<g id="a_Node000002"><a xlink:href="../../db/d84/observable__executor_8cpp.html" target="_top" xlink:title=" ">
<polygon fill="white" stroke="#666666" points="126.25,-102.62 0,-102.62 0,-72.12 126.25,-72.12 126.25,-102.62"/>
<text text-anchor="start" x="8" y="-89.12" font-family="Helvetica,sans-Serif" font-size="10.00">src/core/implementation</text>
<text text-anchor="middle" x="63.12" y="-77.88" font-family="Helvetica,sans-Serif" font-size="10.00">/observable_executor.cpp</text>
</a>
</g>
</g>
<!-- Node1&#45;&gt;Node2 -->
<g id="edge1_Node000001_Node000002" class="edge">
<title>Node1&#45;&gt;Node2</title>
<g id="a_edge1_Node000001_Node000002"><a xlink:title=" ">
<path fill="none" stroke="#63b8ff" d="M846.36,-150.34C668.24,-144.8 269.78,-130.34 135.12,-108.25 127.19,-106.95 118.88,-105.11 110.83,-103.08"/>
<polygon fill="#63b8ff" stroke="#63b8ff" points="846.15,-153.83 856.26,-150.64 846.37,-146.84 846.15,-153.83"/>
</a>
</g>
</g>
<!-- Node3 -->
<g id="Node000003" class="node">
<title>Node3</title>
<g id="a_Node000003"><a xlink:href="../../dd/d55/photo__delta__fetcher_8cpp.html" target="_top" xlink:title=" ">
<polygon fill="white" stroke="#666666" points="266.38,-108.25 143.88,-108.25 143.88,-66.5 266.38,-66.5 266.38,-108.25"/>
<text text-anchor="start" x="151.88" y="-94.75" font-family="Helvetica,sans-Serif" font-size="10.00">src/database/database</text>
<text text-anchor="start" x="151.88" y="-83.5" font-family="Helvetica,sans-Serif" font-size="10.00">_tools/implementation</text>
<text text-anchor="middle" x="205.12" y="-72.25" font-family="Helvetica,sans-Serif" font-size="10.00">/photo_delta_fetcher.cpp</text>
</a>
</g>
</g>
<!-- Node1&#45;&gt;Node3 -->
<g id="edge2_Node000001_Node000003" class="edge">
<title>Node1&#45;&gt;Node3</title>
<g id="a_edge2_Node000001_Node000003"><a xlink:title=" ">
<path fill="none" stroke="#63b8ff" d="M846.74,-152.74C719.88,-151.25 477.74,-143.47 275.12,-108.25 272.39,-107.77 269.6,-107.23 266.8,-106.64"/>
<polygon fill="#63b8ff" stroke="#63b8ff" points="846.35,-156.24 856.39,-152.85 846.43,-149.24 846.35,-156.24"/>
</a>
</g>
</g>
<!-- Node4 -->
<g id="Node000004" class="node">
<title>Node4</title>
<g id="a_Node000004"><a xlink:href="../../d7/d45/photos__analyzer_8cpp.html" target="_top" xlink:title=" ">
<polygon fill="white" stroke="#666666" points="399.62,-108.25 284.62,-108.25 284.62,-66.5 399.62,-66.5 399.62,-108.25"/>
<text text-anchor="start" x="292.62" y="-94.75" font-family="Helvetica,sans-Serif" font-size="10.00">src/database/database</text>
<text text-anchor="start" x="292.62" y="-83.5" font-family="Helvetica,sans-Serif" font-size="10.00">_tools/implementation</text>
<text text-anchor="middle" x="342.12" y="-72.25" font-family="Helvetica,sans-Serif" font-size="10.00">/photos_analyzer.cpp</text>
</a>
</g>
</g>
<!-- Node1&#45;&gt;Node4 -->
<g id="edge3_Node000001_Node000004" class="edge">
<title>Node1&#45;&gt;Node4</title>
<g id="a_edge3_Node000001_Node000004"><a xlink:title=" ">
<path fill="none" stroke="#63b8ff" d="M846.62,-151C741.62,-147.48 560.62,-137.35 408.12,-108.25 405.42,-107.73 402.67,-107.15 399.9,-106.52"/>
<polygon fill="#63b8ff" stroke="#63b8ff" points="846.49,-154.5 856.59,-151.32 846.71,-147.5 846.49,-154.5"/>
</a>
</g>
</g>
<!-- Node5 -->
<g id="Node000005" class="node">
<title>Node5</title>
<g id="a_Node000005"><a xlink:href="../../d2/d72/aheavy__list__model_8hpp.html" target="_top" xlink:title=" ">
<polygon fill="#fff0f0" stroke="red" points="534.75,-102.62 417.5,-102.62 417.5,-72.12 534.75,-72.12 534.75,-102.62"/>
<text text-anchor="start" x="425.5" y="-89.12" font-family="Helvetica,sans-Serif" font-size="10.00">src/gui/desktop/models</text>
<text text-anchor="middle" x="476.12" y="-77.88" font-family="Helvetica,sans-Serif" font-size="10.00">/aheavy_list_model.hpp</text>
</a>
</g>
</g>
<!-- Node1&#45;&gt;Node5 -->
<g id="edge4_Node000001_Node000005" class="edge">
<title>Node1&#45;&gt;Node5</title>
<g id="a_edge4_Node000001_Node000005"><a xlink:title=" ">
<path fill="none" stroke="#63b8ff" d="M846.73,-146.52C768.32,-139.92 650.35,-127.78 549.12,-108.25 541.64,-106.81 533.81,-105 526.16,-103.06"/>
<polygon fill="#63b8ff" stroke="#63b8ff" points="846.24,-149.99 856.49,-147.32 846.82,-143.01 846.24,-149.99"/>
</a>
</g>
</g>
<!-- Node17 -->
<g id="Node000017" class="node">
<title>Node17</title>
<g id="a_Node000017"><a xlink:href="../../da/db1/faces__model_8hpp.html" target="_top" xlink:title=" ">
<polygon fill="#fff0f0" stroke="red" points="1220.75,-30.5 1103.5,-30.5 1103.5,0 1220.75,0 1220.75,-30.5"/>
<text text-anchor="start" x="1111.5" y="-17" font-family="Helvetica,sans-Serif" font-size="10.00">src/gui/desktop/models</text>
<text text-anchor="middle" x="1162.12" y="-5.75" font-family="Helvetica,sans-Serif" font-size="10.00">/faces_model.hpp</text>
</a>
</g>
</g>
<!-- Node1&#45;&gt;Node17 -->
<g id="edge5_Node000001_Node000017" class="edge">
<title>Node1&#45;&gt;Node17</title>
<g id="a_edge5_Node000001_Node000017"><a xlink:title=" ">
<path fill="none" stroke="#63b8ff" d="M846.7,-147.75C748.17,-141.05 599.39,-127.84 582.12,-108.25 569.86,-94.33 569.58,-80.18 582.12,-66.5 616.86,-28.63 962.46,-19.22 1103.08,-16.95"/>
<polygon fill="#63b8ff" stroke="#63b8ff" points="846.43,-151.24 856.64,-148.41 846.9,-144.25 846.43,-151.24"/>
</a>
</g>
</g>
<!-- Node19 -->
<g id="Node000019" class="node">
<title>Node19</title>
<g id="a_Node000019"><a xlink:href="../../da/dff/flat__model_8cpp.html" target="_top" xlink:title=" ">
<polygon fill="white" stroke="#666666" points="708.75,-102.62 591.5,-102.62 591.5,-72.12 708.75,-72.12 708.75,-102.62"/>
<text text-anchor="start" x="599.5" y="-89.12" font-family="Helvetica,sans-Serif" font-size="10.00">src/gui/desktop/models</text>
<text text-anchor="middle" x="650.12" y="-77.88" font-family="Helvetica,sans-Serif" font-size="10.00">/flat_model.cpp</text>
</a>
</g>
</g>
<!-- Node1&#45;&gt;Node19 -->
<g id="edge6_Node000001_Node000019" class="edge">
<title>Node1&#45;&gt;Node19</title>
<g id="a_edge6_Node000001_Node000019"><a xlink:title=" ">
<path fill="none" stroke="#63b8ff" d="M873.3,-141.67C829.86,-133.33 770.14,-121.2 718.12,-108.25 711.8,-106.67 705.18,-104.9 698.66,-103.08"/>
<polygon fill="#63b8ff" stroke="#63b8ff" points="872.58,-145.09 883.05,-143.53 873.89,-138.22 872.58,-145.09"/>
</a>
</g>
</g>
<!-- Node10 -->
<g id="Node000010" class="node">
<title>Node10</title>
<g id="a_Node000010"><a xlink:href="../../dc/d26/photos__data__guesser_8cpp.html" target="_top" xlink:title=" ">
<polygon fill="white" stroke="#666666" points="857.12,-102.62 727.12,-102.62 727.12,-72.12 857.12,-72.12 857.12,-102.62"/>
<text text-anchor="start" x="735.12" y="-89.12" font-family="Helvetica,sans-Serif" font-size="10.00">src/gui/desktop/models</text>
<text text-anchor="middle" x="792.12" y="-77.88" font-family="Helvetica,sans-Serif" font-size="10.00">/photos_data_guesser.cpp</text>
</a>
</g>
</g>
<!-- Node1&#45;&gt;Node10 -->
<g id="edge7_Node000001_Node000010" class="edge">
<title>Node1&#45;&gt;Node10</title>
<g id="a_edge7_Node000001_Node000010"><a xlink:title=" ">
<path fill="none" stroke="#63b8ff" d="M903.72,-139.06C880.36,-128.45 848.18,-113.84 824.38,-103.02"/>
<polygon fill="#63b8ff" stroke="#63b8ff" points="902.15,-142.2 912.7,-143.14 905.05,-135.82 902.15,-142.2"/>
</a>
</g>
</g>
<!-- Node12 -->
<g id="Node000012" class="node">
<title>Node12</title>
<g id="a_Node000012"><a xlink:href="../../dd/d30/series__model_8cpp.html" target="_top" xlink:title=" ">
<polygon fill="white" stroke="#666666" points="992.75,-102.62 875.5,-102.62 875.5,-72.12 992.75,-72.12 992.75,-102.62"/>
<text text-anchor="start" x="883.5" y="-89.12" font-family="Helvetica,sans-Serif" font-size="10.00">src/gui/desktop/models</text>
<text text-anchor="middle" x="934.12" y="-77.88" font-family="Helvetica,sans-Serif" font-size="10.00">/series_model.cpp</text>
</a>
</g>
</g>
<!-- Node1&#45;&gt;Node12 -->
<g id="edge8_Node000001_Node000012" class="edge">
<title>Node1&#45;&gt;Node12</title>
<g id="a_edge8_Node000001_Node000012"><a xlink:title=" ">
<path fill="none" stroke="#63b8ff" d="M934.12,-132.49C934.12,-122.81 934.12,-111.48 934.12,-102.72"/>
<polygon fill="#63b8ff" stroke="#63b8ff" points="930.63,-132.39 934.13,-142.39 937.63,-132.39 930.63,-132.39"/>
</a>
</g>
</g>
<!-- Node20 -->
<g id="Node000020" class="node">
<title>Node20</title>
<g id="a_Node000020"><a xlink:href="../../db/d3f/tags__model_8cpp.html" target="_top" xlink:title=" ">
<polygon fill="white" stroke="#666666" points="1127.75,-102.62 1010.5,-102.62 1010.5,-72.12 1127.75,-72.12 1127.75,-102.62"/>
<text text-anchor="start" x="1018.5" y="-89.12" font-family="Helvetica,sans-Serif" font-size="10.00">src/gui/desktop/models</text>
<text text-anchor="middle" x="1069.12" y="-77.88" font-family="Helvetica,sans-Serif" font-size="10.00">/tags_model.cpp</text>
</a>
</g>
</g>
<!-- Node1&#45;&gt;Node20 -->
<g id="edge9_Node000001_Node000020" class="edge">
<title>Node1&#45;&gt;Node20</title>
<g id="a_edge9_Node000001_Node000020"><a xlink:title=" ">
<path fill="none" stroke="#63b8ff" d="M963.34,-138.92C985.52,-128.32 1015.94,-113.79 1038.46,-103.02"/>
<polygon fill="#63b8ff" stroke="#63b8ff" points="962.06,-135.65 954.55,-143.12 965.08,-141.97 962.06,-135.65"/>
</a>
</g>
</g>
<!-- Node21 -->
<g id="Node000021" class="node">
<title>Node21</title>
<g id="a_Node000021"><a xlink:href="../../da/d07/photos__model__controller__component_8cpp.html" target="_top" xlink:title=" ">
<polygon fill="white" stroke="#666666" points="1300.12,-108.25 1146.12,-108.25 1146.12,-66.5 1300.12,-66.5 1300.12,-108.25"/>
<text text-anchor="start" x="1154.12" y="-94.75" font-family="Helvetica,sans-Serif" font-size="10.00">src/gui/desktop/quick</text>
<text text-anchor="start" x="1154.12" y="-83.5" font-family="Helvetica,sans-Serif" font-size="10.00">_items/photos_model_controller</text>
<text text-anchor="middle" x="1223.12" y="-72.25" font-family="Helvetica,sans-Serif" font-size="10.00">_component.cpp</text>
</a>
</g>
</g>
<!-- Node1&#45;&gt;Node21 -->
<g id="edge10_Node000001_Node000021" class="edge">
<title>Node1&#45;&gt;Node21</title>
<g id="a_edge10_Node000001_Node000021"><a xlink:title=" ">
<path fill="none" stroke="#63b8ff" d="M987.23,-141.36C1028.2,-132.44 1086.29,-119.71 1137.12,-108.25 1139.97,-107.61 1142.86,-106.95 1145.78,-106.29"/>
<polygon fill="#63b8ff" stroke="#63b8ff" points="986.65,-137.91 977.62,-143.45 988.14,-144.75 986.65,-137.91"/>
</a>
</g>
</g>
<!-- Node22 -->
<g id="Node000022" class="node">
<title>Node22</title>
<g id="a_Node000022"><a xlink:href="../../d3/d75/thumbnail__image__provider_8cpp.html" target="_top" xlink:title=" ">
<polygon fill="white" stroke="#666666" points="1440,-108.25 1318.25,-108.25 1318.25,-66.5 1440,-66.5 1440,-108.25"/>
<text text-anchor="start" x="1326.25" y="-94.75" font-family="Helvetica,sans-Serif" font-size="10.00">src/gui/desktop/quick</text>
<text text-anchor="start" x="1326.25" y="-83.5" font-family="Helvetica,sans-Serif" font-size="10.00">_items/thumbnail_image</text>
<text text-anchor="middle" x="1379.12" y="-72.25" font-family="Helvetica,sans-Serif" font-size="10.00">_provider.cpp</text>
</a>
</g>
</g>
<!-- Node1&#45;&gt;Node22 -->
<g id="edge11_Node000001_Node000022" class="edge">
<title>Node1&#45;&gt;Node22</title>
<g id="a_edge11_Node000001_Node000022"><a xlink:title=" ">
<path fill="none" stroke="#63b8ff" d="M1021.92,-146.38C1098.31,-139.79 1211.74,-127.74 1309.12,-108.25 1311.97,-107.68 1314.88,-107.05 1317.8,-106.38"/>
<polygon fill="#63b8ff" stroke="#63b8ff" points="1021.63,-142.89 1011.96,-147.22 1022.22,-149.87 1021.63,-142.89"/>
</a>
</g>
</g>
<!-- Node23 -->
<g id="Node000023" class="node">
<title>Node23</title>
<g id="a_Node000023"><a xlink:href="../../dd/dd1/animation__generator_8cpp.html" target="_top" xlink:title=" ">
<polygon fill="white" stroke="#666666" points="1564.5,-108.25 1457.75,-108.25 1457.75,-66.5 1564.5,-66.5 1564.5,-108.25"/>
<text text-anchor="start" x="1465.75" y="-94.75" font-family="Helvetica,sans-Serif" font-size="10.00">src/gui/desktop/utils</text>
<text text-anchor="start" x="1465.75" y="-83.5" font-family="Helvetica,sans-Serif" font-size="10.00">/grouppers/animation</text>
<text text-anchor="middle" x="1511.12" y="-72.25" font-family="Helvetica,sans-Serif" font-size="10.00">_generator.cpp</text>
</a>
</g>
</g>
<!-- Node1&#45;&gt;Node23 -->
<g id="edge12_Node000001_Node000023" class="edge">
<title>Node1&#45;&gt;Node23</title>
<g id="a_edge12_Node000001_Node000023"><a xlink:title=" ">
<path fill="none" stroke="#63b8ff" d="M1021.65,-151.24C1124.8,-147.94 1300.93,-138.03 1449.12,-108.25 1451.9,-107.69 1454.72,-107.06 1457.55,-106.36"/>
<polygon fill="#63b8ff" stroke="#63b8ff" points="1021.76,-147.73 1011.87,-151.53 1021.98,-154.73 1021.76,-147.73"/>
</a>
</g>
</g>
<!-- Node24 -->
<g id="Node000024" class="node">
<title>Node24</title>
<g id="a_Node000024"><a xlink:href="../../de/dcd/groups__manager_8cpp.html" target="_top" xlink:title=" ">
<polygon fill="white" stroke="#666666" points="1691.62,-102.62 1582.62,-102.62 1582.62,-72.12 1691.62,-72.12 1691.62,-102.62"/>
<text text-anchor="start" x="1590.62" y="-89.12" font-family="Helvetica,sans-Serif" font-size="10.00">src/gui/desktop/utils</text>
<text text-anchor="middle" x="1637.12" y="-77.88" font-family="Helvetica,sans-Serif" font-size="10.00">/groups_manager.cpp</text>
</a>
</g>
</g>
<!-- Node1&#45;&gt;Node24 -->
<g id="edge13_Node000001_Node000024" class="edge">
<title>Node1&#45;&gt;Node24</title>
<g id="a_edge13_Node000001_Node000024"><a xlink:title=" ">
<path fill="none" stroke="#63b8ff" d="M1021.36,-153.14C1145.15,-152.08 1378.36,-144.78 1573.12,-108.25 1580.1,-106.94 1587.39,-105.13 1594.44,-103.12"/>
<polygon fill="#63b8ff" stroke="#63b8ff" points="1021.58,-149.64 1011.61,-153.21 1021.63,-156.64 1021.58,-149.64"/>
</a>
</g>
</g>
<!-- Node25 -->
<g id="Node000025" class="node">
<title>Node25</title>
<g id="a_Node000025"><a xlink:href="../../d9/d19/people__editor_8hpp.html" target="_top" xlink:title=" ">
<polygon fill="#fff0f0" stroke="red" points="1813,-102.62 1709.25,-102.62 1709.25,-72.12 1813,-72.12 1813,-102.62"/>
<text text-anchor="start" x="1717.25" y="-89.12" font-family="Helvetica,sans-Serif" font-size="10.00">src/gui/desktop/utils</text>
<text text-anchor="middle" x="1761.12" y="-77.88" font-family="Helvetica,sans-Serif" font-size="10.00">/people_editor.hpp</text>
</a>
</g>
</g>
<!-- Node1&#45;&gt;Node25 -->
<g id="edge14_Node000001_Node000025" class="edge">
<title>Node1&#45;&gt;Node25</title>
<g id="a_edge14_Node000001_Node000025"><a xlink:title=" ">
<path fill="none" stroke="#63b8ff" d="M1021.63,-150.66C1194.3,-145.82 1573.23,-132.71 1701.12,-108.25 1707.81,-106.97 1714.77,-105.15 1721.49,-103.12"/>
<polygon fill="#63b8ff" stroke="#63b8ff" points="1021.72,-147.16 1011.82,-150.93 1021.91,-154.15 1021.72,-147.16"/>
</a>
</g>
</g>
<!-- Node30 -->
<g id="Node000030" class="node">
<title>Node30</title>
<g id="a_Node000030"><a xlink:href="../../d6/dcc/people__list__model_8cpp.html" target="_top" xlink:title=" ">
<polygon fill="white" stroke="#666666" points="1945.62,-102.62 1830.62,-102.62 1830.62,-72.12 1945.62,-72.12 1945.62,-102.62"/>
<text text-anchor="start" x="1838.62" y="-89.12" font-family="Helvetica,sans-Serif" font-size="10.00">src/gui/desktop/utils</text>
<text text-anchor="middle" x="1888.12" y="-77.88" font-family="Helvetica,sans-Serif" font-size="10.00">/people_list_model.cpp</text>
</a>
</g>
</g>
<!-- Node1&#45;&gt;Node30 -->
<g id="edge16_Node000001_Node000030" class="edge">
<title>Node1&#45;&gt;Node30</title>
<g id="a_edge16_Node000001_Node000030"><a xlink:title=" ">
<path fill="none" stroke="#63b8ff" d="M1021.77,-151.17C1214.53,-146.98 1670.18,-134.54 1822.12,-108.25 1829.55,-106.96 1837.32,-105.11 1844.82,-103.04"/>
<polygon fill="#63b8ff" stroke="#63b8ff" points="1021.73,-147.67 1011.81,-151.38 1021.88,-154.67 1021.73,-147.67"/>
</a>
</g>
</g>
<!-- Node25&#45;&gt;Node17 -->
<g id="edge15_Node000025_Node000017" class="edge">
<title>Node25&#45;&gt;Node17</title>
<g id="a_edge15_Node000025_Node000017"><a xlink:title=" ">
<path fill="none" stroke="#63b8ff" d="M1710.01,-68.59C1707.02,-67.82 1704.05,-67.11 1701.12,-66.5 1529.11,-30.48 1320.8,-20.27 1221,-17.38"/>
<polygon fill="#63b8ff" stroke="#63b8ff" points="1708.77,-71.88 1719.34,-71.23 1710.67,-65.14 1708.77,-71.88"/>
</a>
</g>
</g>
</g>
</svg>

<g id="navigator" transform="translate(0 0)" fill="#404254">
  <rect fill="#f2f5e9" fill-opacity="0.5" stroke="#606060" stroke-width=".5" x="0" y="0" width="60" height="60"/>
  <use id="zoomplus" xlink:href="#zoomPlus" x="17" y="9" onmousedown="handleZoom(evt,'in')"/>
  <use id="zoomminus" xlink:href="#zoomMin" x="42" y="9" onmousedown="handleZoom(evt,'out')"/>
  <use id="reset" xlink:href="#resetDef" x="30" y="36" onmousedown="handleReset()"/>
   <use id="arrowup" xlink:href="#arrowUp" x="0" y="0" onmousedown="handlePan(0,-1)"/>
  <use id="arrowright" xlink:href="#arrowRight" x="0" y="0" onmousedown="handlePan(1,0)"/>
  <use id="arrowdown" xlink:href="#arrowDown" x="0" y="0" onmousedown="handlePan(0,1)"/>
  <use id="arrowleft" xlink:href="#arrowLeft" x="0" y="0" onmousedown="handlePan(-1,0)"/>
</g>
<svg viewBox="0 0 15 15" width="100%" height="30px" preserveAspectRatio="xMaxYMin meet">
 <g id="arrow_out" transform="scale(0.3 0.3)">
  <a xlink:href="function__wrappers_8hpp__dep__incl_org.svg" target="_base">
   <rect id="button" ry="5" rx="5" y="6" x="6" height="38" width="38"
        fill="#f2f5e9" fill-opacity="0.5" stroke="#606060" stroke-width="1.0"/>
   <path id="arrow"
     d="M 11.500037,31.436501 C 11.940474,20.09759 22.043105,11.32322 32.158766,21.979434 L 37.068811,17.246167 C 37.068811,17.246167 37.088388,32 37.088388,32 L 22.160133,31.978069 C 22.160133,31.978069 26.997745,27.140456 26.997745,27.140456 C 18.528582,18.264221 13.291696,25.230495 11.500037,31.436501 z"
     style="fill:#404040;"/>
  </a>
 </g>
</svg>

<style type='text/css'>
<![CDATA[
[data-mouse-over-selected='false'] { opacity: 0.7; }
[data-mouse-over-selected='true']  { opacity: 1.0; }
]]>
</style>
<script type="application/ecmascript"><![CDATA[
document.addEventListener('DOMContentLoaded', (event) => {
  highlightEdges();
  highlightAdjacentNodes();
});
]]></script>
</svg>
