<?xml version="1.0" encoding="UTF-8" standalone="no"?>
<!DOCTYPE svg PUBLIC "-//W3C//DTD SVG 1.1//EN"
 "http://www.w3.org/Graphics/SVG/1.1/DTD/svg11.dtd">
<!-- Generated by graphviz version 7.0.5 (20221223.1930)
 -->
<!-- Title: src/core/function_wrappers.hpp Pages: 1 -->
<svg width="2368pt" height="170pt"
 viewBox="0.00 0.00 2368.00 170.00" xmlns="http://www.w3.org/2000/svg" xmlns:xlink="http://www.w3.org/1999/xlink">
<g id="graph0" class="graph" transform="scale(1 1) rotate(0) translate(4 166)">
<title>src/core/function_wrappers.hpp</title>
<!-- Node1 -->
<g id="node1" class="node">
<title>Node1</title>
<g id="a_node1"><a xlink:title=" ">
<polygon fill="#999999" stroke="#666666" points="1362,-162 1210,-162 1210,-143 1362,-143 1362,-162"/>
<text text-anchor="middle" x="1286" y="-150" font-family="Helvetica,sans-Serif" font-size="10.00">src/core/function_wrappers.hpp</text>
</a>
</g>
</g>
<!-- Node2 -->
<g id="node2" class="node">
<title>Node2</title>
<g id="a_node2"><a xlink:href="../../da/d6f/function__wrappers__tests_8cpp.html" target="_top" xlink:title=" ">
<polygon fill="white" stroke="#666666" points="144,-101.5 0,-101.5 0,-71.5 144,-71.5 144,-101.5"/>
<text text-anchor="start" x="8" y="-89.5" font-family="Helvetica,sans-Serif" font-size="10.00">src/core/unit_tests</text>
<text text-anchor="middle" x="72" y="-78.5" font-family="Helvetica,sans-Serif" font-size="10.00">/function_wrappers_tests.cpp</text>
</a>
</g>
</g>
<!-- Node1&#45;&gt;Node2 -->
<g id="edge1" class="edge">
<title>Node1&#45;&gt;Node2</title>
<path fill="none" stroke="#63b8ff" d="M1198.34,-150.29C968.88,-146.76 354.46,-134.93 153,-107 143.97,-105.75 134.48,-103.93 125.31,-101.9"/>
<polygon fill="#63b8ff" stroke="#63b8ff" points="1198.06,-153.79 1208.11,-150.44 1198.17,-146.79 1198.06,-153.79"/>
</g>
<!-- Node3 -->
<g id="node3" class="node">
<title>Node3</title>
<g id="a_node3"><a xlink:href="../../dc/d99/id__to__data__converter_8hpp.html" target="_top" xlink:title=" ">
<polygon fill="#fff0f0" stroke="red" points="317.5,-101.5 162.5,-101.5 162.5,-71.5 317.5,-71.5 317.5,-101.5"/>
<text text-anchor="start" x="170.5" y="-89.5" font-family="Helvetica,sans-Serif" font-size="10.00">src/database/database</text>
<text text-anchor="middle" x="240" y="-78.5" font-family="Helvetica,sans-Serif" font-size="10.00">_tools/id_to_data_converter.hpp</text>
</a>
</g>
</g>
<!-- Node1&#45;&gt;Node3 -->
<g id="edge2" class="edge">
<title>Node1&#45;&gt;Node3</title>
<path fill="none" stroke="#63b8ff" d="M1198.43,-149.39C994.75,-144.16 493.89,-129.4 327,-107 317.49,-105.72 307.48,-103.92 297.78,-101.92"/>
<polygon fill="#63b8ff" stroke="#63b8ff" points="1198.06,-152.88 1208.14,-149.64 1198.24,-145.88 1198.06,-152.88"/>
</g>
<!-- Node12 -->
<g id="node4" class="node">
<title>Node12</title>
<g id="a_node4"><a xlink:href="../../d7/d45/photos__analyzer_8cpp.html" target="_top" xlink:title=" ">
<polygon fill="white" stroke="#666666" points="452,-107 336,-107 336,-66 452,-66 452,-107"/>
<text text-anchor="start" x="344" y="-95" font-family="Helvetica,sans-Serif" font-size="10.00">src/database/database</text>
<text text-anchor="start" x="344" y="-84" font-family="Helvetica,sans-Serif" font-size="10.00">_tools/implementation</text>
<text text-anchor="middle" x="394" y="-73" font-family="Helvetica,sans-Serif" font-size="10.00">/photos_analyzer.cpp</text>
</a>
</g>
</g>
<!-- Node1&#45;&gt;Node12 -->
<g id="edge3" class="edge">
<title>Node1&#45;&gt;Node12</title>
<path fill="none" stroke="#63b8ff" d="M1198.36,-149.31C1015.91,-144.35 600.65,-130.76 461,-107 458.13,-106.51 455.22,-105.94 452.28,-105.32"/>
<polygon fill="#63b8ff" stroke="#63b8ff" points="1198.17,-152.81 1208.26,-149.58 1198.36,-145.81 1198.17,-152.81"/>
</g>
<!-- Node13 -->
<g id="node5" class="node">
<title>Node13</title>
<g id="a_node5"><a xlink:href="../../dc/d26/photos__data__guesser_8cpp.html" target="_top" xlink:title=" ">
<polygon fill="white" stroke="#666666" points="601.5,-107 470.5,-107 470.5,-66 601.5,-66 601.5,-107"/>
<text text-anchor="start" x="478.5" y="-95" font-family="Helvetica,sans-Serif" font-size="10.00">src/database/database</text>
<text text-anchor="start" x="478.5" y="-84" font-family="Helvetica,sans-Serif" font-size="10.00">_tools/implementation</text>
<text text-anchor="middle" x="536" y="-73" font-family="Helvetica,sans-Serif" font-size="10.00">/photos_data_guesser.cpp</text>
</a>
</g>
</g>
<!-- Node1&#45;&gt;Node13 -->
<g id="edge4" class="edge">
<title>Node1&#45;&gt;Node13</title>
<path fill="none" stroke="#63b8ff" d="M1198.17,-150.98C1068.8,-149.02 819.77,-140.71 611,-107 607.95,-106.51 604.83,-105.94 601.7,-105.33"/>
<polygon fill="#63b8ff" stroke="#63b8ff" points="1197.99,-154.47 1208.04,-151.11 1198.09,-147.47 1197.99,-154.47"/>
</g>
<!-- Node14 -->
<g id="node6" class="node">
<title>Node14</title>
<g id="a_node6"><a xlink:href="../../df/d45/duplicates__model_8cpp.html" target="_top" xlink:title=" ">
<polygon fill="white" stroke="#666666" points="738,-101.5 620,-101.5 620,-71.5 738,-71.5 738,-101.5"/>
<text text-anchor="start" x="628" y="-89.5" font-family="Helvetica,sans-Serif" font-size="10.00">src/gui/desktop/models</text>
<text text-anchor="middle" x="679" y="-78.5" font-family="Helvetica,sans-Serif" font-size="10.00">/duplicates_model.cpp</text>
</a>
</g>
</g>
<!-- Node1&#45;&gt;Node14 -->
<g id="edge5" class="edge">
<title>Node1&#45;&gt;Node14</title>
<path fill="none" stroke="#63b8ff" d="M1198.1,-149.55C1090.83,-145.95 904.29,-135.76 747,-107 739.75,-105.67 732.17,-103.9 724.8,-101.96"/>
<polygon fill="#63b8ff" stroke="#63b8ff" points="1197.89,-153.04 1208,-149.86 1198.11,-146.04 1197.89,-153.04"/>
</g>
<!-- Node15 -->
<g id="node7" class="node">
<title>Node15</title>
<g id="a_node7"><a xlink:href="../../da/db1/faces__model_8hpp.html" target="_top" xlink:title=" ">
<polygon fill="#fff0f0" stroke="red" points="1580,-30 1462,-30 1462,0 1580,0 1580,-30"/>
<text text-anchor="start" x="1470" y="-18" font-family="Helvetica,sans-Serif" font-size="10.00">src/gui/desktop/models</text>
<text text-anchor="middle" x="1521" y="-7" font-family="Helvetica,sans-Serif" font-size="10.00">/faces_model.hpp</text>
</a>
</g>
</g>
<!-- Node1&#45;&gt;Node15 -->
<g id="edge6" class="edge">
<title>Node1&#45;&gt;Node15</title>
<path fill="none" stroke="#63b8ff" d="M1302.46,-134.61C1321.58,-115.78 1354.76,-85.42 1388,-66 1413.77,-50.95 1444.9,-38.95 1470.55,-30.49"/>
<polygon fill="#63b8ff" stroke="#63b8ff" points="1300.15,-131.98 1295.56,-141.53 1305.1,-136.92 1300.15,-131.98"/>
</g>
<!-- Node17 -->
<g id="node8" class="node">
<title>Node17</title>
<g id="a_node8"><a xlink:href="../../da/dff/flat__model_8cpp.html" target="_top" xlink:title=" ">
<polygon fill="white" stroke="#666666" points="1030,-101.5 912,-101.5 912,-71.5 1030,-71.5 1030,-101.5"/>
<text text-anchor="start" x="920" y="-89.5" font-family="Helvetica,sans-Serif" font-size="10.00">src/gui/desktop/models</text>
<text text-anchor="middle" x="971" y="-78.5" font-family="Helvetica,sans-Serif" font-size="10.00">/flat_model.cpp</text>
</a>
</g>
</g>
<!-- Node1&#45;&gt;Node17 -->
<g id="edge7" class="edge">
<title>Node1&#45;&gt;Node17</title>
<path fill="none" stroke="#63b8ff" d="M1215.27,-140.71C1165.67,-132.66 1097.96,-120.73 1039,-107 1032.54,-105.5 1025.78,-103.76 1019.13,-101.95"/>
<polygon fill="#63b8ff" stroke="#63b8ff" points="1214.59,-144.14 1225.02,-142.27 1215.7,-137.23 1214.59,-144.14"/>
</g>
<!-- Node18 -->
<g id="node9" class="node">
<title>Node18</title>
<g id="a_node9"><a xlink:href="../../dd/d30/series__model_8cpp.html" target="_top" xlink:title=" ">
<polygon fill="white" stroke="#666666" points="1166,-101.5 1048,-101.5 1048,-71.5 1166,-71.5 1166,-101.5"/>
<text text-anchor="start" x="1056" y="-89.5" font-family="Helvetica,sans-Serif" font-size="10.00">src/gui/desktop/models</text>
<text text-anchor="middle" x="1107" y="-78.5" font-family="Helvetica,sans-Serif" font-size="10.00">/series_model.cpp</text>
</a>
</g>
</g>
<!-- Node1&#45;&gt;Node18 -->
<g id="edge8" class="edge">
<title>Node1&#45;&gt;Node18</title>
<path fill="none" stroke="#63b8ff" d="M1250.4,-138.77C1220.73,-128.16 1178.45,-113.05 1147.49,-101.98"/>
<polygon fill="#63b8ff" stroke="#63b8ff" points="1249.09,-142.02 1259.69,-142.09 1251.45,-135.43 1249.09,-142.02"/>
</g>
<!-- Node9 -->
<g id="node10" class="node">
<title>Node9</title>
<g id="a_node10"><a xlink:href="../../db/d3f/tags__model_8cpp.html" target="_top" xlink:title=" ">
<polygon fill="white" stroke="#666666" points="1302,-101.5 1184,-101.5 1184,-71.5 1302,-71.5 1302,-101.5"/>
<text text-anchor="start" x="1192" y="-89.5" font-family="Helvetica,sans-Serif" font-size="10.00">src/gui/desktop/models</text>
<text text-anchor="middle" x="1243" y="-78.5" font-family="Helvetica,sans-Serif" font-size="10.00">/tags_model.cpp</text>
</a>
</g>
</g>
<!-- Node1&#45;&gt;Node9 -->
<g id="edge9" class="edge">
<title>Node1&#45;&gt;Node9</title>
<path fill="none" stroke="#63b8ff" d="M1273.7,-133.2C1266.99,-123.2 1258.8,-111.01 1252.56,-101.73"/>
<polygon fill="#63b8ff" stroke="#63b8ff" points="1270.69,-135 1279.18,-141.34 1276.51,-131.09 1270.69,-135"/>
</g>
<!-- Node19 -->
<g id="node11" class="node">
<title>Node19</title>
<g id="a_node11"><a xlink:href="../../d9/d7c/media__view__ctrl_8cpp.html" target="_top" xlink:title=" ">
<polygon fill="white" stroke="#666666" points="1245.5,-30 1108.5,-30 1108.5,0 1245.5,0 1245.5,-30"/>
<text text-anchor="start" x="1116.5" y="-18" font-family="Helvetica,sans-Serif" font-size="10.00">src/gui/desktop/quick</text>
<text text-anchor="middle" x="1177" y="-7" font-family="Helvetica,sans-Serif" font-size="10.00">_items/media_view_ctrl.cpp</text>
</a>
</g>
</g>
<!-- Node1&#45;&gt;Node19 -->
<g id="edge10" class="edge">
<title>Node1&#45;&gt;Node19</title>
<path fill="none" stroke="#63b8ff" d="M1299.58,-133.45C1311.61,-115.09 1325.22,-86.49 1311,-66 1296.06,-44.48 1270.68,-32.21 1245.99,-25.21"/>
<polygon fill="#63b8ff" stroke="#63b8ff" points="1296.83,-131.28 1293.95,-141.48 1302.56,-135.3 1296.83,-131.28"/>
</g>
<!-- Node20 -->
<g id="node12" class="node">
<title>Node20</title>
<g id="a_node12"><a xlink:href="../../d9/d3b/media__view__ctrl_8hpp.html" target="_top" xlink:title=" ">
<polygon fill="white" stroke="#666666" points="893.5,-101.5 756.5,-101.5 756.5,-71.5 893.5,-71.5 893.5,-101.5"/>
<text text-anchor="start" x="764.5" y="-89.5" font-family="Helvetica,sans-Serif" font-size="10.00">src/gui/desktop/quick</text>
<text text-anchor="middle" x="825" y="-78.5" font-family="Helvetica,sans-Serif" font-size="10.00">_items/media_view_ctrl.hpp</text>
</a>
</g>
</g>
<!-- Node1&#45;&gt;Node20 -->
<g id="edge11" class="edge">
<title>Node1&#45;&gt;Node20</title>
<path fill="none" stroke="#63b8ff" d="M1198.42,-144.57C1120.48,-137.63 1003.59,-125.34 903,-107 895.17,-105.57 886.96,-103.81 878.93,-101.94"/>
<polygon fill="#63b8ff" stroke="#63b8ff" points="1197.86,-148.03 1208.12,-145.42 1198.47,-141.06 1197.86,-148.03"/>
</g>
<!-- Node21 -->
<g id="node13" class="node">
<title>Node21</title>
<g id="a_node13"><a xlink:href="../../da/d07/photos__model__controller__component_8cpp.html" target="_top" xlink:title=" ">
<polygon fill="white" stroke="#666666" points="1551.5,-107 1396.5,-107 1396.5,-66 1551.5,-66 1551.5,-107"/>
<text text-anchor="start" x="1404.5" y="-95" font-family="Helvetica,sans-Serif" font-size="10.00">src/gui/desktop/quick</text>
<text text-anchor="start" x="1404.5" y="-84" font-family="Helvetica,sans-Serif" font-size="10.00">_items/photos_model_controller</text>
<text text-anchor="middle" x="1474" y="-73" font-family="Helvetica,sans-Serif" font-size="10.00">_component.cpp</text>
</a>
</g>
</g>
<!-- Node1&#45;&gt;Node21 -->
<g id="edge13" class="edge">
<title>Node1&#45;&gt;Node21</title>
<path fill="none" stroke="#63b8ff" d="M1322.81,-138.97C1349.21,-129.98 1385.31,-117.69 1415.61,-107.38"/>
<polygon fill="#63b8ff" stroke="#63b8ff" points="1321.91,-135.58 1313.57,-142.11 1324.17,-142.2 1321.91,-135.58"/>
</g>
<!-- Node22 -->
<g id="node14" class="node">
<title>Node22</title>
<g id="a_node14"><a xlink:href="../../d3/d75/thumbnail__image__provider_8cpp.html" target="_top" xlink:title=" ">
<polygon fill="white" stroke="#666666" points="1692,-107 1570,-107 1570,-66 1692,-66 1692,-107"/>
<text text-anchor="start" x="1578" y="-95" font-family="Helvetica,sans-Serif" font-size="10.00">src/gui/desktop/quick</text>
<text text-anchor="start" x="1578" y="-84" font-family="Helvetica,sans-Serif" font-size="10.00">_items/thumbnail_image</text>
<text text-anchor="middle" x="1631" y="-73" font-family="Helvetica,sans-Serif" font-size="10.00">_provider.cpp</text>
</a>
</g>
</g>
<!-- Node1&#45;&gt;Node22 -->
<g id="edge14" class="edge">
<title>Node1&#45;&gt;Node22</title>
<path fill="none" stroke="#63b8ff" d="M1365.88,-140.97C1421,-133.12 1495.81,-121.31 1561,-107 1563.83,-106.38 1566.72,-105.71 1569.64,-105.01"/>
<polygon fill="#63b8ff" stroke="#63b8ff" points="1365.69,-137.46 1356.27,-142.33 1366.66,-144.39 1365.69,-137.46"/>
</g>
<!-- Node23 -->
<g id="node15" class="node">
<title>Node23</title>
<g id="a_node15"><a xlink:href="../../dd/dd1/animation__generator_8cpp.html" target="_top" xlink:title=" ">
<polygon fill="white" stroke="#666666" points="1817.5,-107 1710.5,-107 1710.5,-66 1817.5,-66 1817.5,-107"/>
<text text-anchor="start" x="1718.5" y="-95" font-family="Helvetica,sans-Serif" font-size="10.00">src/gui/desktop/utils</text>
<text text-anchor="start" x="1718.5" y="-84" font-family="Helvetica,sans-Serif" font-size="10.00">/grouppers/animation</text>
<text text-anchor="middle" x="1764" y="-73" font-family="Helvetica,sans-Serif" font-size="10.00">_generator.cpp</text>
</a>
</g>
</g>
<!-- Node1&#45;&gt;Node23 -->
<g id="edge15" class="edge">
<title>Node1&#45;&gt;Node23</title>
<path fill="none" stroke="#63b8ff" d="M1373.76,-147.03C1458.29,-141.56 1589.39,-130.03 1701,-107 1704.03,-106.38 1707.12,-105.67 1710.22,-104.9"/>
<polygon fill="#63b8ff" stroke="#63b8ff" points="1373.68,-143.52 1363.92,-147.65 1374.12,-150.51 1373.68,-143.52"/>
</g>
<!-- Node24 -->
<g id="node16" class="node">
<title>Node24</title>
<g id="a_node16"><a xlink:href="../../de/dcd/groups__manager_8cpp.html" target="_top" xlink:title=" ">
<polygon fill="white" stroke="#666666" points="1946,-101.5 1836,-101.5 1836,-71.5 1946,-71.5 1946,-101.5"/>
<text text-anchor="start" x="1844" y="-89.5" font-family="Helvetica,sans-Serif" font-size="10.00">src/gui/desktop/utils</text>
<text text-anchor="middle" x="1891" y="-78.5" font-family="Helvetica,sans-Serif" font-size="10.00">/groups_manager.cpp</text>
</a>
</g>
</g>
<!-- Node1&#45;&gt;Node24 -->
<g id="edge16" class="edge">
<title>Node1&#45;&gt;Node24</title>
<path fill="none" stroke="#63b8ff" d="M1373.85,-150.02C1481.53,-146.9 1669.14,-137.18 1827,-107 1833.85,-105.69 1841,-103.92 1847.94,-101.99"/>
<polygon fill="#63b8ff" stroke="#63b8ff" points="1373.81,-146.52 1363.91,-150.3 1374.01,-153.52 1373.81,-146.52"/>
</g>
<!-- Node25 -->
<g id="node17" class="node">
<title>Node25</title>
<g id="a_node17"><a xlink:href="../../d6/dcc/people__list__model_8cpp.html" target="_top" xlink:title=" ">
<polygon fill="white" stroke="#666666" points="2080,-101.5 1964,-101.5 1964,-71.5 2080,-71.5 2080,-101.5"/>
<text text-anchor="start" x="1972" y="-89.5" font-family="Helvetica,sans-Serif" font-size="10.00">src/gui/desktop/utils</text>
<text text-anchor="middle" x="2022" y="-78.5" font-family="Helvetica,sans-Serif" font-size="10.00">/people_list_model.cpp</text>
</a>
</g>
</g>
<!-- Node1&#45;&gt;Node25 -->
<g id="edge17" class="edge">
<title>Node1&#45;&gt;Node25</title>
<path fill="none" stroke="#63b8ff" d="M1373.7,-151.7C1502.23,-150.62 1748.87,-143.41 1955,-107 1962.28,-105.71 1969.89,-103.93 1977.27,-101.97"/>
<polygon fill="#63b8ff" stroke="#63b8ff" points="1373.88,-148.19 1363.91,-151.77 1373.93,-155.19 1373.88,-148.19"/>
</g>
<!-- Node26 -->
<g id="node18" class="node">
<title>Node26</title>
<g id="a_node18"><a xlink:href="../../d5/d1e/people__manipulator_8hpp.html" target="_top" xlink:title=" ">
<polygon fill="#fff0f0" stroke="red" points="2220,-101.5 2098,-101.5 2098,-71.5 2220,-71.5 2220,-101.5"/>
<text text-anchor="start" x="2106" y="-89.5" font-family="Helvetica,sans-Serif" font-size="10.00">src/gui/desktop/utils</text>
<text text-anchor="middle" x="2159" y="-78.5" font-family="Helvetica,sans-Serif" font-size="10.00">/people_manipulator.hpp</text>
</a>
</g>
</g>
<!-- Node1&#45;&gt;Node26 -->
<g id="edge18" class="edge">
<title>Node1&#45;&gt;Node26</title>
<path fill="none" stroke="#63b8ff" d="M1373.87,-149.03C1552.73,-143.61 1953.61,-129.34 2089,-107 2096.72,-105.73 2104.8,-103.93 2112.62,-101.93"/>
<polygon fill="#63b8ff" stroke="#63b8ff" points="1373.82,-145.53 1363.93,-149.33 1374.03,-152.53 1373.82,-145.53"/>
</g>
<!-- Node28 -->
<g id="node19" class="node">
<title>Node28</title>
<g id="a_node19"><a xlink:href="../../dc/d5f/thumbnail__manager_8hpp.html" target="_top" xlink:title=" ">
<polygon fill="#fff0f0" stroke="red" points="2360,-101.5 2238,-101.5 2238,-71.5 2360,-71.5 2360,-101.5"/>
<text text-anchor="start" x="2246" y="-89.5" font-family="Helvetica,sans-Serif" font-size="10.00">src/gui/desktop/utils</text>
<text text-anchor="middle" x="2299" y="-78.5" font-family="Helvetica,sans-Serif" font-size="10.00">/thumbnail_manager.hpp</text>
</a>
</g>
</g>
<!-- Node1&#45;&gt;Node28 -->
<g id="edge20" class="edge">
<title>Node1&#45;&gt;Node28</title>
<path fill="none" stroke="#63b8ff" d="M1373.59,-149.88C1574.93,-145.74 2065.9,-133.22 2229,-107 2236.72,-105.76 2244.81,-103.97 2252.63,-101.98"/>
<polygon fill="#63b8ff" stroke="#63b8ff" points="1373.64,-146.38 1363.71,-150.08 1373.78,-153.37 1373.64,-146.38"/>
</g>
<!-- Node20&#45;&gt;Node19 -->
<g id="edge12" class="edge">
<title>Node20&#45;&gt;Node19</title>
<path fill="none" stroke="#63b8ff" d="M892.16,-68.42C895.82,-67.58 899.45,-66.77 903,-66 972.48,-50.99 1052.51,-36.73 1108.07,-27.31"/>
<polygon fill="#63b8ff" stroke="#63b8ff" points="891.55,-64.97 882.61,-70.66 893.15,-71.78 891.55,-64.97"/>
</g>
<!-- Node26&#45;&gt;Node15 -->
<g id="edge19" class="edge">
<title>Node26&#45;&gt;Node15</title>
<path fill="none" stroke="#63b8ff" d="M2100.72,-68.4C2096.77,-67.51 2092.84,-66.7 2089,-66 1905.41,-32.64 1684.22,-21.3 1580.35,-17.64"/>
<polygon fill="#63b8ff" stroke="#63b8ff" points="2099.82,-71.78 2110.36,-70.74 2101.46,-64.98 2099.82,-71.78"/>
</g>
</g>
</svg>
