<?xml version="1.0" encoding="UTF-8" standalone="no"?>
<!DOCTYPE svg PUBLIC "-//W3C//DTD SVG 1.1//EN"
 "http://www.w3.org/Graphics/SVG/1.1/DTD/svg11.dtd">
<!-- Generated by graphviz version 9.0.0 (20230911.1827)
 -->
<!-- Title: src/gui/desktop/utils/thumbnail_manager.hpp Pages: 1 -->
<svg width="1029pt" height="216pt"
 viewBox="0.00 0.00 1028.94 215.50" xmlns="http://www.w3.org/2000/svg" xmlns:xlink="http://www.w3.org/1999/xlink">
<g id="graph0" class="graph" transform="scale(1 1) rotate(0) translate(4 211.5)">
<title>src/gui/desktop/utils/thumbnail_manager.hpp</title>
<!-- Node1 -->
<g id="Node000001" class="node">
<title>Node1</title>
<g id="a_Node000001"><a xlink:title=" ">
<polygon fill="#999999" stroke="#666666" points="486.31,-207.5 364.56,-207.5 364.56,-177 486.31,-177 486.31,-207.5"/>
<text text-anchor="start" x="372.56" y="-194" font-family="Helvetica,sans-Serif" font-size="10.00">src/gui/desktop/utils</text>
<text text-anchor="middle" x="425.44" y="-182.75" font-family="Helvetica,sans-Serif" font-size="10.00">/thumbnail_manager.hpp</text>
</a>
</g>
</g>
<!-- Node2 -->
<g id="Node000002" class="node">
<title>Node2</title>
<g id="a_Node000002"><a xlink:title=" ">
<polygon fill="#e0e0e0" stroke="#999999" points="171.69,-19.25 121.19,-19.25 121.19,0 171.69,0 171.69,-19.25"/>
<text text-anchor="middle" x="146.44" y="-5.75" font-family="Helvetica,sans-Serif" font-size="10.00">memory</text>
</a>
</g>
</g>
<!-- Node1&#45;&gt;Node2 -->
<g id="edge1_Node000001_Node000002" class="edge">
<title>Node1&#45;&gt;Node2</title>
<g id="a_edge1_Node000001_Node000002"><a xlink:title=" ">
<path fill="none" stroke="#63b8ff" d="M364.37,-184.02C257.68,-169.9 44.92,-134.7 5.44,-74.5 -21.1,-34.03 59.45,-18.89 109.58,-13.47"/>
<polygon fill="#63b8ff" stroke="#63b8ff" points="109.86,-16.96 119.47,-12.49 109.17,-9.99 109.86,-16.96"/>
</a>
</g>
</g>
<!-- Node3 -->
<g id="Node000003" class="node">
<title>Node3</title>
<g id="a_Node000003"><a xlink:title=" ">
<polygon fill="#e0e0e0" stroke="#999999" points="457.31,-74.5 407.56,-74.5 407.56,-55.25 457.31,-55.25 457.31,-74.5"/>
<text text-anchor="middle" x="432.44" y="-61" font-family="Helvetica,sans-Serif" font-size="10.00">optional</text>
</a>
</g>
</g>
<!-- Node1&#45;&gt;Node3 -->
<g id="edge2_Node000001_Node000003" class="edge">
<title>Node1&#45;&gt;Node3</title>
<g id="a_edge2_Node000001_Node000003"><a xlink:title=" ">
<path fill="none" stroke="#63b8ff" d="M426.24,-176.87C427.49,-154.53 429.9,-111.42 431.31,-86"/>
<polygon fill="#63b8ff" stroke="#63b8ff" points="434.79,-86.51 431.85,-76.33 427.8,-86.12 434.79,-86.51"/>
</a>
</g>
</g>
<!-- Node4 -->
<g id="Node000004" class="node">
<title>Node4</title>
<g id="a_Node000004"><a xlink:title=" ">
<polygon fill="#e0e0e0" stroke="#999999" points="622.69,-74.5 572.19,-74.5 572.19,-55.25 622.69,-55.25 622.69,-74.5"/>
<text text-anchor="middle" x="597.44" y="-61" font-family="Helvetica,sans-Serif" font-size="10.00">QImage</text>
</a>
</g>
</g>
<!-- Node1&#45;&gt;Node4 -->
<g id="edge3_Node000001_Node000004" class="edge">
<title>Node1&#45;&gt;Node4</title>
<g id="a_edge3_Node000001_Node000004"><a xlink:title=" ">
<path fill="none" stroke="#63b8ff" d="M486.66,-185.17C518.16,-178.93 554.79,-166.35 578.44,-141 592.33,-126.1 596.44,-102.55 597.47,-85.79"/>
<polygon fill="#63b8ff" stroke="#63b8ff" points="600.96,-86.16 597.74,-76.07 593.97,-85.97 600.96,-86.16"/>
</a>
</g>
</g>
<!-- Node5 -->
<g id="Node000005" class="node">
<title>Node5</title>
<g id="a_Node000005"><a xlink:href="../../d4/d20/task__executor__utils_8hpp.html" target="_top" xlink:title=" ">
<polygon fill="#fff0f0" stroke="red" points="893.69,-141 795.19,-141 795.19,-110.5 893.69,-110.5 893.69,-141"/>
<text text-anchor="start" x="803.19" y="-127.5" font-family="Helvetica,sans-Serif" font-size="10.00">core/task_executor</text>
<text text-anchor="middle" x="844.44" y="-116.25" font-family="Helvetica,sans-Serif" font-size="10.00">_utils.hpp</text>
</a>
</g>
</g>
<!-- Node1&#45;&gt;Node5 -->
<g id="edge4_Node000001_Node000005" class="edge">
<title>Node1&#45;&gt;Node5</title>
<g id="a_edge4_Node000001_Node000005"><a xlink:title=" ">
<path fill="none" stroke="#63b8ff" d="M486.75,-184.66C556.43,-176.73 673.77,-162.08 783.56,-141.44"/>
<polygon fill="#63b8ff" stroke="#63b8ff" points="784.18,-144.88 793.35,-139.57 782.87,-138.01 784.18,-144.88"/>
</a>
</g>
</g>
<!-- Node18 -->
<g id="Node000018" class="node">
<title>Node18</title>
<g id="a_Node000018"><a xlink:href="../../d0/dd6/function__wrappers_8hpp.html" target="_top" xlink:title=" ">
<polygon fill="#fff0f0" stroke="red" points="150.06,-74.5 14.81,-74.5 14.81,-55.25 150.06,-55.25 150.06,-74.5"/>
<text text-anchor="middle" x="82.44" y="-61" font-family="Helvetica,sans-Serif" font-size="10.00">core/function_wrappers.hpp</text>
</a>
</g>
</g>
<!-- Node1&#45;&gt;Node18 -->
<g id="edge5_Node000001_Node000018" class="edge">
<title>Node1&#45;&gt;Node18</title>
<g id="a_edge5_Node000001_Node000018"><a xlink:title=" ">
<path fill="none" stroke="#63b8ff" d="M364.22,-179.67C324.27,-171.17 271.39,-158.13 226.44,-141 182.51,-124.26 134.73,-97.47 106.74,-80.81"/>
<polygon fill="#63b8ff" stroke="#63b8ff" points="108.71,-77.9 98.33,-75.75 105.09,-83.9 108.71,-77.9"/>
</a>
</g>
</g>
<!-- Node22 -->
<g id="Node000022" class="node">
<title>Node22</title>
<g id="a_Node000022"><a xlink:href="../../d7/dfc/ilogger_8hpp.html" target="_top" xlink:title=" ">
<polygon fill="#fff0f0" stroke="red" points="252.56,-74.5 168.31,-74.5 168.31,-55.25 252.56,-55.25 252.56,-74.5"/>
<text text-anchor="middle" x="210.44" y="-61" font-family="Helvetica,sans-Serif" font-size="10.00">core/ilogger.hpp</text>
</a>
</g>
</g>
<!-- Node1&#45;&gt;Node22 -->
<g id="edge7_Node000001_Node000022" class="edge">
<title>Node1&#45;&gt;Node22</title>
<g id="a_edge7_Node000001_Node000022"><a xlink:title=" ">
<path fill="none" stroke="#63b8ff" d="M364.13,-184.84C328.72,-178.51 285.08,-165.94 253.44,-141 235.22,-126.64 223.34,-102.28 216.77,-85.2"/>
<polygon fill="#63b8ff" stroke="#63b8ff" points="220.22,-84.44 213.57,-76.18 213.62,-86.78 220.22,-84.44"/>
</a>
</g>
</g>
<!-- Node25 -->
<g id="Node000025" class="node">
<title>Node25</title>
<g id="a_Node000025"><a xlink:href="../../d3/d4c/ithumbnails__generator_8hpp.html" target="_top" xlink:title=" ">
<polygon fill="white" stroke="#666666" points="776.94,-135.38 625.94,-135.38 625.94,-116.12 776.94,-116.12 776.94,-135.38"/>
<text text-anchor="middle" x="701.44" y="-121.88" font-family="Helvetica,sans-Serif" font-size="10.00">core/ithumbnails_generator.hpp</text>
</a>
</g>
</g>
<!-- Node1&#45;&gt;Node25 -->
<g id="edge9_Node000001_Node000025" class="edge">
<title>Node1&#45;&gt;Node25</title>
<g id="a_edge9_Node000001_Node000025"><a xlink:title=" ">
<path fill="none" stroke="#63b8ff" d="M486.69,-176.94C536.28,-165.35 605.26,-149.23 651.53,-138.41"/>
<polygon fill="#63b8ff" stroke="#63b8ff" points="652.07,-141.88 661.02,-136.2 650.48,-135.06 652.07,-141.88"/>
</a>
</g>
</g>
<!-- Node26 -->
<g id="Node000026" class="node">
<title>Node26</title>
<g id="a_Node000026"><a xlink:href="../../d5/d23/observable__task__executor_8hpp.html" target="_top" xlink:title=" ">
<polygon fill="#fff0f0" stroke="red" points="1020.94,-141 911.94,-141 911.94,-110.5 1020.94,-110.5 1020.94,-141"/>
<text text-anchor="start" x="919.94" y="-127.5" font-family="Helvetica,sans-Serif" font-size="10.00">core/observable_task</text>
<text text-anchor="middle" x="966.44" y="-116.25" font-family="Helvetica,sans-Serif" font-size="10.00">_executor.hpp</text>
</a>
</g>
</g>
<!-- Node1&#45;&gt;Node26 -->
<g id="edge11_Node000001_Node000026" class="edge">
<title>Node1&#45;&gt;Node26</title>
<g id="a_edge11_Node000001_Node000026"><a xlink:title=" ">
<path fill="none" stroke="#63b8ff" d="M486.73,-187.04C575.68,-180.44 745.89,-165.95 900.59,-141.17"/>
<polygon fill="#63b8ff" stroke="#63b8ff" points="900.9,-144.67 910.21,-139.61 899.78,-137.76 900.9,-144.67"/>
</a>
</g>
</g>
<!-- Node29 -->
<g id="Node000029" class="node">
<title>Node29</title>
<g id="a_Node000029"><a xlink:href="../../d7/d2b/idatabase_8hpp.html" target="_top" xlink:title=" ">
<polygon fill="#fff0f0" stroke="red" points="389.81,-74.5 271.06,-74.5 271.06,-55.25 389.81,-55.25 389.81,-74.5"/>
<text text-anchor="middle" x="330.44" y="-61" font-family="Helvetica,sans-Serif" font-size="10.00">database/idatabase.hpp</text>
</a>
</g>
</g>
<!-- Node1&#45;&gt;Node29 -->
<g id="edge12_Node000001_Node000029" class="edge">
<title>Node1&#45;&gt;Node29</title>
<g id="a_edge12_Node000001_Node000029"><a xlink:title=" ">
<path fill="none" stroke="#63b8ff" d="M364.1,-189.44C328.26,-184.83 285.65,-172.45 262.44,-141 254.39,-130.09 256,-122.43 262.44,-110.5 269.64,-97.17 282.75,-87.17 295.55,-80.06"/>
<polygon fill="#63b8ff" stroke="#63b8ff" points="296.94,-83.28 304.28,-75.64 293.78,-77.03 296.94,-83.28"/>
</a>
</g>
</g>
<!-- Node65 -->
<g id="Node000065" class="node">
<title>Node65</title>
<g id="a_Node000065"><a xlink:href="../../d6/db9/ithumbnails__cache_8hpp.html" target="_top" xlink:title=" ">
<polygon fill="#fff0f0" stroke="red" points="568.94,-135.38 453.94,-135.38 453.94,-116.12 568.94,-116.12 568.94,-135.38"/>
<text text-anchor="middle" x="511.44" y="-121.88" font-family="Helvetica,sans-Serif" font-size="10.00">ithumbnails_cache.hpp</text>
</a>
</g>
</g>
<!-- Node1&#45;&gt;Node65 -->
<g id="edge14_Node000001_Node000065" class="edge">
<title>Node1&#45;&gt;Node65</title>
<g id="a_edge14_Node000001_Node000065"><a xlink:title=" ">
<path fill="none" stroke="#63b8ff" d="M444.95,-176.61C458.64,-166.35 476.92,-152.64 490.84,-142.2"/>
<polygon fill="#63b8ff" stroke="#63b8ff" points="492.56,-145.28 498.46,-136.48 488.36,-139.68 492.56,-145.28"/>
</a>
</g>
</g>
<!-- Node66 -->
<g id="Node000066" class="node">
<title>Node66</title>
<g id="a_Node000066"><a xlink:href="../../df/d56/ithumbnails__manager_8hpp.html" target="_top" xlink:title=" ">
<polygon fill="#fff0f0" stroke="red" points="397.56,-135.38 271.31,-135.38 271.31,-116.12 397.56,-116.12 397.56,-135.38"/>
<text text-anchor="middle" x="334.44" y="-121.88" font-family="Helvetica,sans-Serif" font-size="10.00">ithumbnails_manager.hpp</text>
</a>
</g>
</g>
<!-- Node1&#45;&gt;Node66 -->
<g id="edge17_Node000001_Node000066" class="edge">
<title>Node1&#45;&gt;Node66</title>
<g id="a_edge17_Node000001_Node000066"><a xlink:title=" ">
<path fill="none" stroke="#63b8ff" d="M404.79,-176.61C390.39,-166.41 371.2,-152.8 356.5,-142.38"/>
<polygon fill="#63b8ff" stroke="#63b8ff" points="358.57,-139.56 348.38,-136.64 354.52,-145.27 358.57,-139.56"/>
</a>
</g>
</g>
<!-- Node18&#45;&gt;Node2 -->
<g id="edge6_Node000018_Node000002" class="edge">
<title>Node18&#45;&gt;Node2</title>
<g id="a_edge6_Node000018_Node000002"><a xlink:title=" ">
<path fill="none" stroke="#63b8ff" d="M93.3,-54.84C102.55,-47.15 116.06,-35.9 127.15,-26.68"/>
<polygon fill="#63b8ff" stroke="#63b8ff" points="129.13,-29.58 134.58,-20.49 124.65,-24.2 129.13,-29.58"/>
</a>
</g>
</g>
<!-- Node22&#45;&gt;Node2 -->
<g id="edge8_Node000022_Node000002" class="edge">
<title>Node22&#45;&gt;Node2</title>
<g id="a_edge8_Node000022_Node000002"><a xlink:title=" ">
<path fill="none" stroke="#63b8ff" d="M199.58,-54.84C190.33,-47.15 176.82,-35.9 165.73,-26.68"/>
<polygon fill="#63b8ff" stroke="#63b8ff" points="168.22,-24.2 158.3,-20.49 163.75,-29.58 168.22,-24.2"/>
</a>
</g>
</g>
<!-- Node25&#45;&gt;Node4 -->
<g id="edge10_Node000025_Node000004" class="edge">
<title>Node25&#45;&gt;Node4</title>
<g id="a_edge10_Node000025_Node000004"><a xlink:title=" ">
<path fill="none" stroke="#63b8ff" d="M685.64,-115.81C669.07,-106.43 642.77,-91.54 623.19,-80.45"/>
<polygon fill="#63b8ff" stroke="#63b8ff" points="625.13,-77.53 614.7,-75.65 621.68,-83.62 625.13,-77.53"/>
</a>
</g>
</g>
<!-- Node29&#45;&gt;Node2 -->
<g id="edge13_Node000029_Node000002" class="edge">
<title>Node29&#45;&gt;Node2</title>
<g id="a_edge13_Node000029_Node000002"><a xlink:title=" ">
<path fill="none" stroke="#63b8ff" d="M299.23,-54.84C267.08,-45.54 217,-31.05 183.01,-21.21"/>
<polygon fill="#63b8ff" stroke="#63b8ff" points="184.19,-17.91 173.61,-18.49 182.24,-24.63 184.19,-17.91"/>
</a>
</g>
</g>
<!-- Node65&#45;&gt;Node3 -->
<g id="edge15_Node000065_Node000003" class="edge">
<title>Node65&#45;&gt;Node3</title>
<g id="a_edge15_Node000065_Node000003"><a xlink:title=" ">
<path fill="none" stroke="#63b8ff" d="M499.44,-115.81C487.26,-106.73 468.15,-92.49 453.45,-81.54"/>
<polygon fill="#63b8ff" stroke="#63b8ff" points="455.87,-78.97 445.76,-75.81 451.69,-84.59 455.87,-78.97"/>
</a>
</g>
</g>
<!-- Node65&#45;&gt;Node4 -->
<g id="edge16_Node000065_Node000004" class="edge">
<title>Node65&#45;&gt;Node4</title>
<g id="a_edge16_Node000065_Node000004"><a xlink:title=" ">
<path fill="none" stroke="#63b8ff" d="M524.5,-115.81C537.89,-106.64 558.96,-92.22 575.02,-81.23"/>
<polygon fill="#63b8ff" stroke="#63b8ff" points="576.73,-84.29 583.01,-75.76 572.78,-78.52 576.73,-84.29"/>
</a>
</g>
</g>
<!-- Node66&#45;&gt;Node3 -->
<g id="edge18_Node000066_Node000003" class="edge">
<title>Node66&#45;&gt;Node3</title>
<g id="a_edge18_Node000066_Node000003"><a xlink:title=" ">
<path fill="none" stroke="#63b8ff" d="M349.32,-115.81C364.79,-106.51 389.27,-91.81 407.66,-80.76"/>
<polygon fill="#63b8ff" stroke="#63b8ff" points="409.35,-83.83 416.12,-75.68 405.74,-77.83 409.35,-83.83"/>
</a>
</g>
</g>
<!-- Node66&#45;&gt;Node29 -->
<g id="edge19_Node000066_Node000029" class="edge">
<title>Node66&#45;&gt;Node29</title>
<g id="a_edge19_Node000066_Node000029"><a xlink:title=" ">
<path fill="none" stroke="#63b8ff" d="M333.83,-115.81C333.3,-107.94 332.5,-96.2 331.81,-86.07"/>
<polygon fill="#63b8ff" stroke="#63b8ff" points="335.32,-86.15 331.15,-76.41 328.34,-86.63 335.32,-86.15"/>
</a>
</g>
</g>
</g>
</svg>
