<?xml version="1.0" encoding="UTF-8" standalone="no"?>
<!DOCTYPE svg PUBLIC "-//W3C//DTD SVG 1.1//EN"
 "http://www.w3.org/Graphics/SVG/1.1/DTD/svg11.dtd">
<!-- Generated by graphviz version 9.0.0 (20230911.1827)
 -->
<!-- Title: src/gui/desktop/utils/thumbnail_manager.hpp Pages: 1 -->
<svg width="915pt" height="216pt"
 viewBox="0.00 0.00 914.89 215.50" xmlns="http://www.w3.org/2000/svg" xmlns:xlink="http://www.w3.org/1999/xlink">
<g id="graph0" class="graph" transform="scale(1 1) rotate(0) translate(4 211.5)">
<title>src/gui/desktop/utils/thumbnail_manager.hpp</title>
<!-- Node1 -->
<g id="Node000001" class="node">
<title>Node1</title>
<g id="a_Node000001"><a xlink:title=" ">
<polygon fill="#999999" stroke="#666666" points="420.27,-207.5 298.52,-207.5 298.52,-177 420.27,-177 420.27,-207.5"/>
<text text-anchor="start" x="306.52" y="-194" font-family="Helvetica,sans-Serif" font-size="10.00">src/gui/desktop/utils</text>
<text text-anchor="middle" x="359.39" y="-182.75" font-family="Helvetica,sans-Serif" font-size="10.00">/thumbnail_manager.hpp</text>
</a>
</g>
</g>
<!-- Node2 -->
<g id="Node000002" class="node">
<title>Node2</title>
<g id="a_Node000002"><a xlink:title=" ">
<polygon fill="#e0e0e0" stroke="#999999" points="78.64,-19.25 28.14,-19.25 28.14,0 78.64,0 78.64,-19.25"/>
<text text-anchor="middle" x="53.39" y="-5.75" font-family="Helvetica,sans-Serif" font-size="10.00">memory</text>
</a>
</g>
</g>
<!-- Node1&#45;&gt;Node2 -->
<g id="edge1_Node000001_Node000002" class="edge">
<title>Node1&#45;&gt;Node2</title>
<g id="a_edge1_Node000001_Node000002"><a xlink:title=" ">
<path fill="none" stroke="#63b8ff" d="M298.26,-191C237.38,-188.45 142.81,-178.08 70.39,-141 32.76,-121.74 18.78,-113.46 2.39,-74.5 -5.48,-55.8 11.34,-38.07 27.73,-26.06"/>
<polygon fill="#63b8ff" stroke="#63b8ff" points="29.58,-29.03 35.89,-20.53 25.65,-23.24 29.58,-29.03"/>
</a>
</g>
</g>
<!-- Node3 -->
<g id="Node000003" class="node">
<title>Node3</title>
<g id="a_Node000003"><a xlink:title=" ">
<polygon fill="#e0e0e0" stroke="#999999" points="300.27,-74.5 250.52,-74.5 250.52,-55.25 300.27,-55.25 300.27,-74.5"/>
<text text-anchor="middle" x="275.39" y="-61" font-family="Helvetica,sans-Serif" font-size="10.00">optional</text>
</a>
</g>
</g>
<!-- Node1&#45;&gt;Node3 -->
<g id="edge2_Node000001_Node000003" class="edge">
<title>Node1&#45;&gt;Node3</title>
<g id="a_edge2_Node000001_Node000003"><a xlink:title=" ">
<path fill="none" stroke="#63b8ff" d="M331.47,-176.6C317.7,-168 302.04,-155.89 292.39,-141 281.72,-124.53 277.7,-102.25 276.21,-86.24"/>
<polygon fill="#63b8ff" stroke="#63b8ff" points="279.71,-86.23 275.57,-76.48 272.73,-86.69 279.71,-86.23"/>
</a>
</g>
</g>
<!-- Node4 -->
<g id="Node000004" class="node">
<title>Node4</title>
<g id="a_Node000004"><a xlink:title=" ">
<polygon fill="#e0e0e0" stroke="#999999" points="470.64,-74.5 420.14,-74.5 420.14,-55.25 470.64,-55.25 470.64,-74.5"/>
<text text-anchor="middle" x="445.39" y="-61" font-family="Helvetica,sans-Serif" font-size="10.00">QImage</text>
</a>
</g>
</g>
<!-- Node1&#45;&gt;Node4 -->
<g id="edge3_Node000001_Node000004" class="edge">
<title>Node1&#45;&gt;Node4</title>
<g id="a_edge3_Node000001_Node000004"><a xlink:title=" ">
<path fill="none" stroke="#63b8ff" d="M386.34,-176.57C399.91,-167.89 415.53,-155.72 425.39,-141 436.41,-124.54 441.37,-102.26 443.59,-86.25"/>
<polygon fill="#63b8ff" stroke="#63b8ff" points="447.05,-86.81 444.69,-76.48 440.1,-86.03 447.05,-86.81"/>
</a>
</g>
</g>
<!-- Node5 -->
<g id="Node000005" class="node">
<title>Node5</title>
<g id="a_Node000005"><a xlink:title=" ">
<polygon fill="#e0e0e0" stroke="#999999" points="717.02,-74.5 665.77,-74.5 665.77,-55.25 717.02,-55.25 717.02,-74.5"/>
<text text-anchor="middle" x="691.39" y="-61" font-family="Helvetica,sans-Serif" font-size="10.00">QFuture</text>
</a>
</g>
</g>
<!-- Node1&#45;&gt;Node5 -->
<g id="edge4_Node000001_Node000005" class="edge">
<title>Node1&#45;&gt;Node5</title>
<g id="a_edge4_Node000001_Node000005"><a xlink:title=" ">
<path fill="none" stroke="#63b8ff" d="M420.73,-185.15C490.26,-177.36 598.49,-162.27 633.39,-141 655.44,-127.56 672.22,-102.43 681.93,-84.96"/>
<polygon fill="#63b8ff" stroke="#63b8ff" points="685.02,-86.6 686.57,-76.12 678.82,-83.35 685.02,-86.6"/>
</a>
</g>
</g>
<!-- Node6 -->
<g id="Node000006" class="node">
<title>Node6</title>
<g id="a_Node000006"><a xlink:href="../../d4/d20/task__executor__utils_8hpp.html" target="_top" xlink:title=" ">
<polygon fill="#fff0f0" stroke="red" points="779.64,-141 681.14,-141 681.14,-110.5 779.64,-110.5 779.64,-141"/>
<text text-anchor="start" x="689.14" y="-127.5" font-family="Helvetica,sans-Serif" font-size="10.00">core/task_executor</text>
<text text-anchor="middle" x="730.39" y="-116.25" font-family="Helvetica,sans-Serif" font-size="10.00">_utils.hpp</text>
</a>
</g>
</g>
<!-- Node1&#45;&gt;Node6 -->
<g id="edge5_Node000001_Node000006" class="edge">
<title>Node1&#45;&gt;Node6</title>
<g id="a_edge5_Node000001_Node000006"><a xlink:title=" ">
<path fill="none" stroke="#63b8ff" d="M420.65,-182.38C482.95,-173.09 582.17,-157.57 667.39,-141 668.22,-140.84 669.05,-140.68 669.88,-140.51"/>
<polygon fill="#63b8ff" stroke="#63b8ff" points="670.36,-143.99 679.45,-138.54 668.95,-137.13 670.36,-143.99"/>
</a>
</g>
</g>
<!-- Node18 -->
<g id="Node000018" class="node">
<title>Node18</title>
<g id="a_Node000018"><a xlink:href="../../d7/dfc/ilogger_8hpp.html" target="_top" xlink:title=" ">
<polygon fill="#fff0f0" stroke="red" points="95.52,-74.5 11.27,-74.5 11.27,-55.25 95.52,-55.25 95.52,-74.5"/>
<text text-anchor="middle" x="53.39" y="-61" font-family="Helvetica,sans-Serif" font-size="10.00">core/ilogger.hpp</text>
</a>
</g>
</g>
<!-- Node1&#45;&gt;Node18 -->
<g id="edge7_Node000001_Node000018" class="edge">
<title>Node1&#45;&gt;Node18</title>
<g id="a_edge7_Node000001_Node000018"><a xlink:title=" ">
<path fill="none" stroke="#63b8ff" d="M298.06,-184.92C232.19,-177.15 132.76,-162.33 101.39,-141 81.63,-127.56 68.25,-103.01 60.74,-85.64"/>
<polygon fill="#63b8ff" stroke="#63b8ff" points="64,-84.37 57.03,-76.39 57.5,-86.97 64,-84.37"/>
</a>
</g>
</g>
<!-- Node21 -->
<g id="Node000021" class="node">
<title>Node21</title>
<g id="a_Node000021"><a xlink:href="../../d3/d4c/ithumbnails__generator_8hpp.html" target="_top" xlink:title=" ">
<polygon fill="white" stroke="#666666" points="624.89,-135.38 473.89,-135.38 473.89,-116.12 624.89,-116.12 624.89,-135.38"/>
<text text-anchor="middle" x="549.39" y="-121.88" font-family="Helvetica,sans-Serif" font-size="10.00">core/ithumbnails_generator.hpp</text>
</a>
</g>
</g>
<!-- Node1&#45;&gt;Node21 -->
<g id="edge9_Node000001_Node000021" class="edge">
<title>Node1&#45;&gt;Node21</title>
<g id="a_edge9_Node000001_Node000021"><a xlink:title=" ">
<path fill="none" stroke="#63b8ff" d="M402.5,-176.61C435.51,-165.41 480.57,-150.11 512.05,-139.43"/>
<polygon fill="#63b8ff" stroke="#63b8ff" points="512.8,-142.87 521.14,-136.34 510.55,-136.24 512.8,-142.87"/>
</a>
</g>
</g>
<!-- Node22 -->
<g id="Node000022" class="node">
<title>Node22</title>
<g id="a_Node000022"><a xlink:href="../../d5/d23/observable__task__executor_8hpp.html" target="_top" xlink:title=" ">
<polygon fill="#fff0f0" stroke="red" points="906.89,-141 797.89,-141 797.89,-110.5 906.89,-110.5 906.89,-141"/>
<text text-anchor="start" x="805.89" y="-127.5" font-family="Helvetica,sans-Serif" font-size="10.00">core/observable_task</text>
<text text-anchor="middle" x="852.39" y="-116.25" font-family="Helvetica,sans-Serif" font-size="10.00">_executor.hpp</text>
</a>
</g>
</g>
<!-- Node1&#45;&gt;Node22 -->
<g id="edge11_Node000001_Node000022" class="edge">
<title>Node1&#45;&gt;Node22</title>
<g id="a_edge11_Node000001_Node000022"><a xlink:title=" ">
<path fill="none" stroke="#63b8ff" d="M420.41,-186.09C501.66,-178.77 650,-163.89 786.58,-141.19"/>
<polygon fill="#63b8ff" stroke="#63b8ff" points="786.88,-144.69 796.16,-139.58 785.72,-137.78 786.88,-144.69"/>
</a>
</g>
</g>
<!-- Node25 -->
<g id="Node000025" class="node">
<title>Node25</title>
<g id="a_Node000025"><a xlink:href="../../d7/d2b/idatabase_8hpp.html" target="_top" xlink:title=" ">
<polygon fill="#fff0f0" stroke="red" points="232.77,-74.5 114.02,-74.5 114.02,-55.25 232.77,-55.25 232.77,-74.5"/>
<text text-anchor="middle" x="173.39" y="-61" font-family="Helvetica,sans-Serif" font-size="10.00">database/idatabase.hpp</text>
</a>
</g>
</g>
<!-- Node1&#45;&gt;Node25 -->
<g id="edge12_Node000001_Node000025" class="edge">
<title>Node1&#45;&gt;Node25</title>
<g id="a_edge12_Node000001_Node000025"><a xlink:title=" ">
<path fill="none" stroke="#63b8ff" d="M298.19,-187.56C232.27,-182.16 133.68,-169.46 110.39,-141 101.81,-130.51 104.16,-122.54 110.39,-110.5 117.08,-97.57 129.43,-87.58 141.43,-80.36"/>
<polygon fill="#63b8ff" stroke="#63b8ff" points="142.89,-83.55 149.98,-75.68 139.53,-77.42 142.89,-83.55"/>
</a>
</g>
</g>
<!-- Node61 -->
<g id="Node000061" class="node">
<title>Node61</title>
<g id="a_Node000061"><a xlink:href="../../d6/db9/ithumbnails__cache_8hpp.html" target="_top" xlink:title=" ">
<polygon fill="#fff0f0" stroke="red" points="416.89,-135.38 301.89,-135.38 301.89,-116.12 416.89,-116.12 416.89,-135.38"/>
<text text-anchor="middle" x="359.39" y="-121.88" font-family="Helvetica,sans-Serif" font-size="10.00">ithumbnails_cache.hpp</text>
</a>
</g>
</g>
<!-- Node1&#45;&gt;Node61 -->
<g id="edge14_Node000001_Node000061" class="edge">
<title>Node1&#45;&gt;Node61</title>
<g id="a_edge14_Node000001_Node000061"><a xlink:title=" ">
<path fill="none" stroke="#63b8ff" d="M359.39,-176.61C359.39,-167.83 359.39,-156.52 359.39,-146.9"/>
<polygon fill="#63b8ff" stroke="#63b8ff" points="362.89,-147.09 359.39,-137.09 355.89,-147.09 362.89,-147.09"/>
</a>
</g>
</g>
<!-- Node62 -->
<g id="Node000062" class="node">
<title>Node62</title>
<g id="a_Node000062"><a xlink:href="../../df/d56/ithumbnails__manager_8hpp.html" target="_top" xlink:title=" ">
<polygon fill="#fff0f0" stroke="red" points="245.52,-135.38 119.27,-135.38 119.27,-116.12 245.52,-116.12 245.52,-135.38"/>
<text text-anchor="middle" x="182.39" y="-121.88" font-family="Helvetica,sans-Serif" font-size="10.00">ithumbnails_manager.hpp</text>
</a>
</g>
</g>
<!-- Node1&#45;&gt;Node62 -->
<g id="edge17_Node000001_Node000062" class="edge">
<title>Node1&#45;&gt;Node62</title>
<g id="a_edge17_Node000001_Node000062"><a xlink:title=" ">
<path fill="none" stroke="#63b8ff" d="M319.23,-176.61C288.75,-165.51 247.23,-150.38 217.95,-139.71"/>
<polygon fill="#63b8ff" stroke="#63b8ff" points="219.39,-136.51 208.8,-136.37 216.99,-143.08 219.39,-136.51"/>
</a>
</g>
</g>
<!-- Node6&#45;&gt;Node5 -->
<g id="edge6_Node000006_Node000005" class="edge">
<title>Node6&#45;&gt;Node5</title>
<g id="a_edge6_Node000006_Node000005"><a xlink:title=" ">
<path fill="none" stroke="#63b8ff" d="M720.75,-110.2C715.61,-102.44 709.23,-92.81 703.74,-84.51"/>
<polygon fill="#63b8ff" stroke="#63b8ff" points="706.68,-82.62 698.24,-76.21 700.84,-86.48 706.68,-82.62"/>
</a>
</g>
</g>
<!-- Node18&#45;&gt;Node2 -->
<g id="edge8_Node000018_Node000002" class="edge">
<title>Node18&#45;&gt;Node2</title>
<g id="a_edge8_Node000018_Node000002"><a xlink:title=" ">
<path fill="none" stroke="#63b8ff" d="M53.39,-55.08C53.39,-48.57 53.39,-39.42 53.39,-31.12"/>
<polygon fill="#63b8ff" stroke="#63b8ff" points="56.89,-31.12 53.39,-21.12 49.89,-31.12 56.89,-31.12"/>
</a>
</g>
</g>
<!-- Node21&#45;&gt;Node4 -->
<g id="edge10_Node000021_Node000004" class="edge">
<title>Node21&#45;&gt;Node4</title>
<g id="a_edge10_Node000021_Node000004"><a xlink:title=" ">
<path fill="none" stroke="#63b8ff" d="M533.6,-115.81C517.03,-106.43 490.72,-91.54 471.14,-80.45"/>
<polygon fill="#63b8ff" stroke="#63b8ff" points="473.08,-77.53 462.65,-75.65 469.63,-83.62 473.08,-77.53"/>
</a>
</g>
</g>
<!-- Node25&#45;&gt;Node2 -->
<g id="edge13_Node000025_Node000002" class="edge">
<title>Node25&#45;&gt;Node2</title>
<g id="a_edge13_Node000025_Node000002"><a xlink:title=" ">
<path fill="none" stroke="#63b8ff" d="M153.03,-54.84C134.16,-46.47 105.8,-33.88 84.16,-24.28"/>
<polygon fill="#63b8ff" stroke="#63b8ff" points="85.79,-21.17 75.23,-20.32 82.95,-27.57 85.79,-21.17"/>
</a>
</g>
</g>
<!-- Node61&#45;&gt;Node3 -->
<g id="edge15_Node000061_Node000003" class="edge">
<title>Node61&#45;&gt;Node3</title>
<g id="a_edge15_Node000061_Node000003"><a xlink:title=" ">
<path fill="none" stroke="#63b8ff" d="M346.63,-115.81C333.56,-106.64 312.98,-92.22 297.29,-81.23"/>
<polygon fill="#63b8ff" stroke="#63b8ff" points="299.71,-78.64 289.51,-75.77 295.69,-84.38 299.71,-78.64"/>
</a>
</g>
</g>
<!-- Node61&#45;&gt;Node4 -->
<g id="edge16_Node000061_Node000004" class="edge">
<title>Node61&#45;&gt;Node4</title>
<g id="a_edge16_Node000061_Node000004"><a xlink:title=" ">
<path fill="none" stroke="#63b8ff" d="M372.45,-115.81C385.84,-106.64 406.91,-92.22 422.97,-81.23"/>
<polygon fill="#63b8ff" stroke="#63b8ff" points="424.68,-84.29 430.96,-75.76 420.73,-78.52 424.68,-84.29"/>
</a>
</g>
</g>
<!-- Node62&#45;&gt;Node3 -->
<g id="edge18_Node000062_Node000003" class="edge">
<title>Node62&#45;&gt;Node3</title>
<g id="a_edge18_Node000062_Node000003"><a xlink:title=" ">
<path fill="none" stroke="#63b8ff" d="M196.52,-115.81C211.13,-106.56 234.21,-91.95 251.63,-80.92"/>
<polygon fill="#63b8ff" stroke="#63b8ff" points="253.28,-84.02 259.85,-75.71 249.53,-78.1 253.28,-84.02"/>
</a>
</g>
</g>
<!-- Node62&#45;&gt;Node25 -->
<g id="edge19_Node000062_Node000025" class="edge">
<title>Node62&#45;&gt;Node25</title>
<g id="a_edge19_Node000062_Node000025"><a xlink:title=" ">
<path fill="none" stroke="#63b8ff" d="M181.02,-115.81C179.82,-107.94 178.03,-96.2 176.48,-86.07"/>
<polygon fill="#63b8ff" stroke="#63b8ff" points="179.97,-85.75 175,-76.4 173.05,-86.81 179.97,-85.75"/>
</a>
</g>
</g>
</g>
</svg>
