<?xml version="1.0" encoding="UTF-8" standalone="no"?>
<!DOCTYPE svg PUBLIC "-//W3C//DTD SVG 1.1//EN"
 "http://www.w3.org/Graphics/SVG/1.1/DTD/svg11.dtd">
<!-- Generated by graphviz version 12.2.0 (20241103.1931)
 -->
<!-- Title: src/gui/desktop/utils/thumbnail_manager.hpp Pages: 1 -->
<!--zoomable 216 -->

<svg id="main" version="1.1" xmlns="http://www.w3.org/2000/svg" xmlns:xlink="http://www.w3.org/1999/xlink" xml:space="preserve" onload="init(evt)">

<style type="text/css"><![CDATA[
.node, .edge {opacity: 0.7;}
.node.selected, .edge.selected {opacity: 1;}
.edge:hover path { stroke: red; }
.edge:hover polygon { stroke: red; fill: red; }
]]></style>

<defs>
  <circle id="rim" cx="0" cy="0" r="7"/>
  <circle id="rim2" cx="0" cy="0" r="3.5"/>
  <g id="zoomPlus">
    <use xlink:href="#rim" fill="#404040"><set attributeName="fill" to="#808080" begin="zoomplus.mouseover" end="zoomplus.mouseout"/></use>
    <path d="M-4,0h8M0,-4v8" fill="none" stroke="white" stroke-width="1.5" pointer-events="none"/>
  </g>
  <g id="zoomMin">
    <use xlink:href="#rim" fill="#404040"><set attributeName="fill" to="#808080" begin="zoomminus.mouseover" end="zoomminus.mouseout"/></use>
    <path d="M-4,0h8" fill="none" stroke="white" stroke-width="1.5" pointer-events="none"/>
  </g>
  <g id="arrowUp" transform="translate(30 24)">
    <use xlink:href="#rim"/>
    <path pointer-events="none" fill="none" stroke="white" stroke-width="1.5" d="M0,-3.0v7 M-2.5,-0.5L0,-3.0L2.5,-0.5"/>
  </g>
  <g id="arrowRight" transform="rotate(90) translate(36 -43)">
    <use xlink:href="#rim"/>
    <path pointer-events="none" fill="none" stroke="white" stroke-width="1.5" d="M0,-3.0v7 M-2.5,-0.5L0,-3.0L2.5,-0.5"/>
  </g>
  <g id="arrowDown" transform="rotate(180) translate(-30 -48)">
    <use xlink:href="#rim"/>
    <path pointer-events="none" fill="none" stroke="white" stroke-width="1.5" d="M0,-3.0v7 M-2.5,-0.5L0,-3.0L2.5,-0.5"/>
  </g>
  <g id="arrowLeft" transform="rotate(270) translate(-36 17)">
    <use xlink:href="#rim"/>
    <path pointer-events="none" fill="none" stroke="white" stroke-width="1.5" d="M0,-3.0v7 M-2.5,-0.5L0,-3.0L2.5,-0.5"/>
  </g>
  <g id="resetDef">
    <use xlink:href="#rim2" fill="#404040"><set attributeName="fill" to="#808080" begin="reset.mouseover" end="reset.mouseout"/></use>
  </g>
</defs>
<script type="application/ecmascript">
var viewWidth = 915;
var viewHeight = 216;
var sectionId = 'dynsection-0';
</script>
<script type="application/ecmascript" xlink:href="../../svg.min.js"/>
<svg id="graph" class="graph">
<g id="viewport">
<title>src/gui/desktop/utils/thumbnail_manager.hpp</title>
<!-- Node1 -->
<g id="Node000001" class="node">
<title>Node1</title>
<g id="a_Node000001"><a xlink:title=" ">
<polygon fill="#999999" stroke="#666666" points="420.24,-207.5 298.49,-207.5 298.49,-177 420.24,-177 420.24,-207.5"/>
<text text-anchor="start" x="306.49" y="-194" font-family="Helvetica,sans-Serif" font-size="10.00">src/gui/desktop/utils</text>
<text text-anchor="middle" x="359.36" y="-182.75" font-family="Helvetica,sans-Serif" font-size="10.00">/thumbnail_manager.hpp</text>
</a>
</g>
</g>
<!-- Node2 -->
<g id="Node000002" class="node">
<title>Node2</title>
<g id="a_Node000002"><a xlink:title=" ">
<polygon fill="#e0e0e0" stroke="#999999" points="78.61,-19.25 28.11,-19.25 28.11,0 78.61,0 78.61,-19.25"/>
<text text-anchor="middle" x="53.36" y="-5.75" font-family="Helvetica,sans-Serif" font-size="10.00">memory</text>
</a>
</g>
</g>
<!-- Node1&#45;&gt;Node2 -->
<g id="edge1_Node000001_Node000002" class="edge">
<title>Node1&#45;&gt;Node2</title>
<g id="a_edge1_Node000001_Node000002"><a xlink:title=" ">
<path fill="none" stroke="#63b8ff" d="M298.25,-191.17C237.13,-188.76 142.01,-178.51 69.36,-141 32.08,-121.75 18.49,-113.23 2.36,-74.5 -5.44,-55.77 11.37,-38.04 27.74,-26.04"/>
<polygon fill="#63b8ff" stroke="#63b8ff" points="29.58,-29.02 35.89,-20.51 25.65,-23.23 29.58,-29.02"/>
</a>
</g>
</g>
<!-- Node3 -->
<g id="Node000003" class="node">
<title>Node3</title>
<g id="a_Node000003"><a xlink:title=" ">
<polygon fill="#e0e0e0" stroke="#999999" points="300.24,-74.5 250.49,-74.5 250.49,-55.25 300.24,-55.25 300.24,-74.5"/>
<text text-anchor="middle" x="275.36" y="-61" font-family="Helvetica,sans-Serif" font-size="10.00">optional</text>
</a>
</g>
</g>
<!-- Node1&#45;&gt;Node3 -->
<g id="edge2_Node000001_Node000003" class="edge">
<title>Node1&#45;&gt;Node3</title>
<g id="a_edge2_Node000001_Node000003"><a xlink:title=" ">
<path fill="none" stroke="#63b8ff" d="M332.26,-176.67C318.65,-168.02 303.03,-155.84 293.36,-141 282.61,-124.51 278.27,-102.24 276.53,-86.23"/>
<polygon fill="#63b8ff" stroke="#63b8ff" points="280.03,-86.16 275.73,-76.47 273.05,-86.73 280.03,-86.16"/>
</a>
</g>
</g>
<!-- Node4 -->
<g id="Node000004" class="node">
<title>Node4</title>
<g id="a_Node000004"><a xlink:title=" ">
<polygon fill="#e0e0e0" stroke="#999999" points="470.61,-74.5 420.11,-74.5 420.11,-55.25 470.61,-55.25 470.61,-74.5"/>
<text text-anchor="middle" x="445.36" y="-61" font-family="Helvetica,sans-Serif" font-size="10.00">QImage</text>
</a>
</g>
</g>
<!-- Node1&#45;&gt;Node4 -->
<g id="edge3_Node000001_Node000004" class="edge">
<title>Node1&#45;&gt;Node4</title>
<g id="a_edge3_Node000001_Node000004"><a xlink:title=" ">
<path fill="none" stroke="#63b8ff" d="M386.8,-176.71C400.59,-168.07 416.45,-155.89 426.36,-141 437.3,-124.57 441.95,-102.28 443.91,-86.26"/>
<polygon fill="#63b8ff" stroke="#63b8ff" points="447.38,-86.78 444.84,-76.49 440.41,-86.11 447.38,-86.78"/>
</a>
</g>
</g>
<!-- Node5 -->
<g id="Node000005" class="node">
<title>Node5</title>
<g id="a_Node000005"><a xlink:title=" ">
<polygon fill="#e0e0e0" stroke="#999999" points="716.99,-74.5 665.74,-74.5 665.74,-55.25 716.99,-55.25 716.99,-74.5"/>
<text text-anchor="middle" x="691.36" y="-61" font-family="Helvetica,sans-Serif" font-size="10.00">QFuture</text>
</a>
</g>
</g>
<!-- Node1&#45;&gt;Node5 -->
<g id="edge4_Node000001_Node000005" class="edge">
<title>Node1&#45;&gt;Node5</title>
<g id="a_edge4_Node000001_Node000005"><a xlink:title=" ">
<path fill="none" stroke="#63b8ff" d="M420.64,-185.26C490.45,-177.54 599.37,-162.51 634.36,-141 656.21,-127.57 672.67,-102.44 682.15,-84.96"/>
<polygon fill="#63b8ff" stroke="#63b8ff" points="685.23,-86.62 686.67,-76.13 678.99,-83.43 685.23,-86.62"/>
</a>
</g>
</g>
<!-- Node6 -->
<g id="Node000006" class="node">
<title>Node6</title>
<g id="a_Node000006"><a xlink:href="../../d4/d20/task__executor__utils_8hpp.html" target="_top" xlink:title=" ">
<polygon fill="#fff0f0" stroke="red" points="779.61,-141 681.11,-141 681.11,-110.5 779.61,-110.5 779.61,-141"/>
<text text-anchor="start" x="689.11" y="-127.5" font-family="Helvetica,sans-Serif" font-size="10.00">core/task_executor</text>
<text text-anchor="middle" x="730.36" y="-116.25" font-family="Helvetica,sans-Serif" font-size="10.00">_utils.hpp</text>
</a>
</g>
</g>
<!-- Node1&#45;&gt;Node6 -->
<g id="edge5_Node000001_Node000006" class="edge">
<title>Node1&#45;&gt;Node6</title>
<g id="a_edge5_Node000001_Node000006"><a xlink:title=" ">
<path fill="none" stroke="#63b8ff" d="M420.62,-182.38C482.92,-173.09 582.14,-157.57 667.36,-141 668.19,-140.84 669.02,-140.68 669.85,-140.51"/>
<polygon fill="#63b8ff" stroke="#63b8ff" points="670.33,-143.99 679.42,-138.54 668.92,-137.13 670.33,-143.99"/>
</a>
</g>
</g>
<!-- Node20 -->
<g id="Node000020" class="node">
<title>Node20</title>
<g id="a_Node000020"><a xlink:href="../../d7/dfc/ilogger_8hpp.html" target="_top" xlink:title=" ">
<polygon fill="#fff0f0" stroke="red" points="95.49,-74.5 11.24,-74.5 11.24,-55.25 95.49,-55.25 95.49,-74.5"/>
<text text-anchor="middle" x="53.36" y="-61" font-family="Helvetica,sans-Serif" font-size="10.00">core/ilogger.hpp</text>
</a>
</g>
</g>
<!-- Node1&#45;&gt;Node20 -->
<g id="edge7_Node000001_Node000020" class="edge">
<title>Node1&#45;&gt;Node20</title>
<g id="a_edge7_Node000001_Node000020"><a xlink:title=" ">
<path fill="none" stroke="#63b8ff" d="M298.05,-185.03C231.9,-177.35 131.8,-162.58 100.36,-141 80.78,-127.56 67.72,-103.01 60.44,-85.64"/>
<polygon fill="#63b8ff" stroke="#63b8ff" points="63.74,-84.45 56.86,-76.39 57.21,-86.98 63.74,-84.45"/>
</a>
</g>
</g>
<!-- Node23 -->
<g id="Node000023" class="node">
<title>Node23</title>
<g id="a_Node000023"><a xlink:href="../../d3/d4c/ithumbnails__generator_8hpp.html" target="_top" xlink:title=" ">
<polygon fill="white" stroke="#666666" points="624.86,-135.38 473.86,-135.38 473.86,-116.12 624.86,-116.12 624.86,-135.38"/>
<text text-anchor="middle" x="549.36" y="-121.88" font-family="Helvetica,sans-Serif" font-size="10.00">core/ithumbnails_generator.hpp</text>
</a>
</g>
</g>
<!-- Node1&#45;&gt;Node23 -->
<g id="edge9_Node000001_Node000023" class="edge">
<title>Node1&#45;&gt;Node23</title>
<g id="a_edge9_Node000001_Node000023"><a xlink:title=" ">
<path fill="none" stroke="#63b8ff" d="M402.47,-176.61C435.48,-165.41 480.54,-150.11 512.02,-139.43"/>
<polygon fill="#63b8ff" stroke="#63b8ff" points="512.77,-142.87 521.11,-136.34 510.52,-136.24 512.77,-142.87"/>
</a>
</g>
</g>
<!-- Node24 -->
<g id="Node000024" class="node">
<title>Node24</title>
<g id="a_Node000024"><a xlink:href="../../d5/d23/observable__task__executor_8hpp.html" target="_top" xlink:title=" ">
<polygon fill="#fff0f0" stroke="red" points="906.86,-141 797.86,-141 797.86,-110.5 906.86,-110.5 906.86,-141"/>
<text text-anchor="start" x="805.86" y="-127.5" font-family="Helvetica,sans-Serif" font-size="10.00">core/observable_task</text>
<text text-anchor="middle" x="852.36" y="-116.25" font-family="Helvetica,sans-Serif" font-size="10.00">_executor.hpp</text>
</a>
</g>
</g>
<!-- Node1&#45;&gt;Node24 -->
<g id="edge11_Node000001_Node000024" class="edge">
<title>Node1&#45;&gt;Node24</title>
<g id="a_edge11_Node000001_Node000024"><a xlink:title=" ">
<path fill="none" stroke="#63b8ff" d="M420.38,-186.09C501.63,-178.77 649.97,-163.89 786.55,-141.19"/>
<polygon fill="#63b8ff" stroke="#63b8ff" points="786.85,-144.69 796.13,-139.58 785.69,-137.78 786.85,-144.69"/>
</a>
</g>
</g>
<!-- Node33 -->
<g id="Node000033" class="node">
<title>Node33</title>
<g id="a_Node000033"><a xlink:href="../../d7/d2b/idatabase_8hpp.html" target="_top" xlink:title=" ">
<polygon fill="#fff0f0" stroke="red" points="232.74,-74.5 113.99,-74.5 113.99,-55.25 232.74,-55.25 232.74,-74.5"/>
<text text-anchor="middle" x="173.36" y="-61" font-family="Helvetica,sans-Serif" font-size="10.00">database/idatabase.hpp</text>
</a>
</g>
</g>
<!-- Node1&#45;&gt;Node33 -->
<g id="edge12_Node000001_Node000033" class="edge">
<title>Node1&#45;&gt;Node33</title>
<g id="a_edge12_Node000001_Node000033"><a xlink:title=" ">
<path fill="none" stroke="#63b8ff" d="M298.16,-187.56C232.24,-182.16 133.65,-169.46 110.36,-141 101.78,-130.51 104.13,-122.54 110.36,-110.5 117.05,-97.57 129.4,-87.58 141.4,-80.36"/>
<polygon fill="#63b8ff" stroke="#63b8ff" points="142.86,-83.55 149.95,-75.68 139.5,-77.42 142.86,-83.55"/>
</a>
</g>
</g>
<!-- Node67 -->
<g id="Node000067" class="node">
<title>Node67</title>
<g id="a_Node000067"><a xlink:href="../../d6/db9/ithumbnails__cache_8hpp.html" target="_top" xlink:title=" ">
<polygon fill="#fff0f0" stroke="red" points="416.86,-135.38 301.86,-135.38 301.86,-116.12 416.86,-116.12 416.86,-135.38"/>
<text text-anchor="middle" x="359.36" y="-121.88" font-family="Helvetica,sans-Serif" font-size="10.00">ithumbnails_cache.hpp</text>
</a>
</g>
</g>
<!-- Node1&#45;&gt;Node67 -->
<g id="edge14_Node000001_Node000067" class="edge">
<title>Node1&#45;&gt;Node67</title>
<g id="a_edge14_Node000001_Node000067"><a xlink:title=" ">
<path fill="none" stroke="#63b8ff" d="M359.36,-176.61C359.36,-167.83 359.36,-156.52 359.36,-146.9"/>
<polygon fill="#63b8ff" stroke="#63b8ff" points="362.86,-147.09 359.36,-137.09 355.86,-147.09 362.86,-147.09"/>
</a>
</g>
</g>
<!-- Node68 -->
<g id="Node000068" class="node">
<title>Node68</title>
<g id="a_Node000068"><a xlink:href="../../df/d56/ithumbnails__manager_8hpp.html" target="_top" xlink:title=" ">
<polygon fill="#fff0f0" stroke="red" points="245.49,-135.38 119.24,-135.38 119.24,-116.12 245.49,-116.12 245.49,-135.38"/>
<text text-anchor="middle" x="182.36" y="-121.88" font-family="Helvetica,sans-Serif" font-size="10.00">ithumbnails_manager.hpp</text>
</a>
</g>
</g>
<!-- Node1&#45;&gt;Node68 -->
<g id="edge17_Node000001_Node000068" class="edge">
<title>Node1&#45;&gt;Node68</title>
<g id="a_edge17_Node000001_Node000068"><a xlink:title=" ">
<path fill="none" stroke="#63b8ff" d="M319.2,-176.61C288.72,-165.51 247.2,-150.38 217.92,-139.71"/>
<polygon fill="#63b8ff" stroke="#63b8ff" points="219.36,-136.51 208.77,-136.37 216.96,-143.08 219.36,-136.51"/>
</a>
</g>
</g>
<!-- Node6&#45;&gt;Node5 -->
<g id="edge6_Node000006_Node000005" class="edge">
<title>Node6&#45;&gt;Node5</title>
<g id="a_edge6_Node000006_Node000005"><a xlink:title=" ">
<path fill="none" stroke="#63b8ff" d="M720.72,-110.2C715.58,-102.44 709.2,-92.81 703.71,-84.51"/>
<polygon fill="#63b8ff" stroke="#63b8ff" points="706.65,-82.62 698.21,-76.21 700.81,-86.48 706.65,-82.62"/>
</a>
</g>
</g>
<!-- Node20&#45;&gt;Node2 -->
<g id="edge8_Node000020_Node000002" class="edge">
<title>Node20&#45;&gt;Node2</title>
<g id="a_edge8_Node000020_Node000002"><a xlink:title=" ">
<path fill="none" stroke="#63b8ff" d="M53.36,-55.08C53.36,-48.57 53.36,-39.42 53.36,-31.12"/>
<polygon fill="#63b8ff" stroke="#63b8ff" points="56.86,-31.12 53.36,-21.12 49.86,-31.12 56.86,-31.12"/>
</a>
</g>
</g>
<!-- Node23&#45;&gt;Node4 -->
<g id="edge10_Node000023_Node000004" class="edge">
<title>Node23&#45;&gt;Node4</title>
<g id="a_edge10_Node000023_Node000004"><a xlink:title=" ">
<path fill="none" stroke="#63b8ff" d="M533.57,-115.81C517,-106.43 490.69,-91.54 471.11,-80.45"/>
<polygon fill="#63b8ff" stroke="#63b8ff" points="473.05,-77.53 462.62,-75.65 469.6,-83.62 473.05,-77.53"/>
</a>
</g>
</g>
<!-- Node33&#45;&gt;Node2 -->
<g id="edge13_Node000033_Node000002" class="edge">
<title>Node33&#45;&gt;Node2</title>
<g id="a_edge13_Node000033_Node000002"><a xlink:title=" ">
<path fill="none" stroke="#63b8ff" d="M153,-54.84C134.13,-46.47 105.77,-33.88 84.13,-24.28"/>
<polygon fill="#63b8ff" stroke="#63b8ff" points="85.76,-21.17 75.2,-20.32 82.92,-27.57 85.76,-21.17"/>
</a>
</g>
</g>
<!-- Node67&#45;&gt;Node3 -->
<g id="edge15_Node000067_Node000003" class="edge">
<title>Node67&#45;&gt;Node3</title>
<g id="a_edge15_Node000067_Node000003"><a xlink:title=" ">
<path fill="none" stroke="#63b8ff" d="M346.6,-115.81C333.53,-106.64 312.95,-92.22 297.26,-81.23"/>
<polygon fill="#63b8ff" stroke="#63b8ff" points="299.68,-78.64 289.48,-75.77 295.66,-84.38 299.68,-78.64"/>
</a>
</g>
</g>
<!-- Node67&#45;&gt;Node4 -->
<g id="edge16_Node000067_Node000004" class="edge">
<title>Node67&#45;&gt;Node4</title>
<g id="a_edge16_Node000067_Node000004"><a xlink:title=" ">
<path fill="none" stroke="#63b8ff" d="M372.42,-115.81C385.81,-106.64 406.88,-92.22 422.94,-81.23"/>
<polygon fill="#63b8ff" stroke="#63b8ff" points="424.65,-84.29 430.93,-75.76 420.7,-78.52 424.65,-84.29"/>
</a>
</g>
</g>
<!-- Node68&#45;&gt;Node3 -->
<g id="edge18_Node000068_Node000003" class="edge">
<title>Node68&#45;&gt;Node3</title>
<g id="a_edge18_Node000068_Node000003"><a xlink:title=" ">
<path fill="none" stroke="#63b8ff" d="M196.49,-115.81C211.1,-106.56 234.18,-91.95 251.6,-80.92"/>
<polygon fill="#63b8ff" stroke="#63b8ff" points="253.25,-84.02 259.82,-75.71 249.5,-78.1 253.25,-84.02"/>
</a>
</g>
</g>
<!-- Node68&#45;&gt;Node33 -->
<g id="edge19_Node000068_Node000033" class="edge">
<title>Node68&#45;&gt;Node33</title>
<g id="a_edge19_Node000068_Node000033"><a xlink:title=" ">
<path fill="none" stroke="#63b8ff" d="M180.99,-115.81C179.79,-107.94 178,-96.2 176.45,-86.07"/>
<polygon fill="#63b8ff" stroke="#63b8ff" points="179.94,-85.75 174.97,-76.4 173.02,-86.81 179.94,-85.75"/>
</a>
</g>
</g>
</g>
</svg>

<g id="navigator" transform="translate(0 0)" fill="#404254">
  <rect fill="#f2f5e9" fill-opacity="0.5" stroke="#606060" stroke-width=".5" x="0" y="0" width="60" height="60"/>
  <use id="zoomplus" xlink:href="#zoomPlus" x="17" y="9" onmousedown="handleZoom(evt,'in')"/>
  <use id="zoomminus" xlink:href="#zoomMin" x="42" y="9" onmousedown="handleZoom(evt,'out')"/>
  <use id="reset" xlink:href="#resetDef" x="30" y="36" onmousedown="handleReset()"/>
   <use id="arrowup" xlink:href="#arrowUp" x="0" y="0" onmousedown="handlePan(0,-1)"/>
  <use id="arrowright" xlink:href="#arrowRight" x="0" y="0" onmousedown="handlePan(1,0)"/>
  <use id="arrowdown" xlink:href="#arrowDown" x="0" y="0" onmousedown="handlePan(0,1)"/>
  <use id="arrowleft" xlink:href="#arrowLeft" x="0" y="0" onmousedown="handlePan(-1,0)"/>
</g>
<svg viewBox="0 0 15 15" width="100%" height="30px" preserveAspectRatio="xMaxYMin meet">
 <g id="arrow_out" transform="scale(0.3 0.3)">
  <a xlink:href="thumbnail__manager_8hpp__incl_org.svg" target="_base">
   <rect id="button" ry="5" rx="5" y="6" x="6" height="38" width="38"
        fill="#f2f5e9" fill-opacity="0.5" stroke="#606060" stroke-width="1.0"/>
   <path id="arrow"
     d="M 11.500037,31.436501 C 11.940474,20.09759 22.043105,11.32322 32.158766,21.979434 L 37.068811,17.246167 C 37.068811,17.246167 37.088388,32 37.088388,32 L 22.160133,31.978069 C 22.160133,31.978069 26.997745,27.140456 26.997745,27.140456 C 18.528582,18.264221 13.291696,25.230495 11.500037,31.436501 z"
     style="fill:#404040;"/>
  </a>
 </g>
</svg>

<style type='text/css'>
<![CDATA[
[data-mouse-over-selected='false'] { opacity: 0.7; }
[data-mouse-over-selected='true']  { opacity: 1.0; }
]]>
</style>
<script type="application/ecmascript"><![CDATA[
document.addEventListener('DOMContentLoaded', (event) => {
  highlightEdges();
  highlightAdjacentNodes();
});
]]></script>
</svg>
