<?xml version="1.0" encoding="UTF-8" standalone="no"?>
<!DOCTYPE svg PUBLIC "-//W3C//DTD SVG 1.1//EN"
 "http://www.w3.org/Graphics/SVG/1.1/DTD/svg11.dtd">
<!-- Generated by graphviz version 12.2.0 (20241103.1931)
 -->
<!-- Title: PhotosGroupingDialog Pages: 1 -->
<svg width="348pt" height="249pt"
 viewBox="0.00 0.00 348.25 249.25" xmlns="http://www.w3.org/2000/svg" xmlns:xlink="http://www.w3.org/1999/xlink">
<g id="graph0" class="graph" transform="scale(1 1) rotate(0) translate(4 245.25)">
<title>PhotosGroupingDialog</title>
<!-- Node1 -->
<g id="Node000001" class="node">
<title>Node1</title>
<g id="a_Node000001"><a xlink:title=" ">
<polygon fill="#999999" stroke="#666666" points="340.25,-130.25 227.5,-130.25 227.5,-111 340.25,-111 340.25,-130.25"/>
<text text-anchor="middle" x="283.88" y="-116.75" font-family="Helvetica,sans-Serif" font-size="10.00">PhotosGroupingDialog</text>
</a>
</g>
</g>
<!-- Node2 -->
<g id="Node000002" class="node">
<title>Node2</title>
<g id="a_Node000002"><a xlink:title=" ">
<polygon fill="white" stroke="#666666" points="74.12,-241.25 23.62,-241.25 23.62,-222 74.12,-222 74.12,-241.25"/>
<text text-anchor="middle" x="48.88" y="-227.75" font-family="Helvetica,sans-Serif" font-size="10.00">QDialog</text>
</a>
</g>
</g>
<!-- Node2&#45;&gt;Node1 -->
<g id="edge1_Node000001_Node000002" class="edge">
<title>Node2&#45;&gt;Node1</title>
<g id="a_edge1_Node000001_Node000002"><a xlink:title=" ">
<path fill="none" stroke="#63b8ff" d="M85.72,-231.66C119.62,-230.24 170.91,-224.22 209.5,-202.62 241.17,-184.9 266.25,-148.31 277.07,-130.63"/>
<polygon fill="#63b8ff" stroke="#63b8ff" points="85.91,-228.15 76.02,-231.94 86.12,-235.15 85.91,-228.15"/>
</a>
</g>
</g>
<!-- Node3 -->
<g id="Node000003" class="node">
<title>Node3</title>
<g id="a_Node000003"><a xlink:href="../../d4/d03/class_sorting_proxy.html" target="_top" xlink:title=" ">
<polygon fill="#fff0f0" stroke="red" points="84.25,-204.25 13.5,-204.25 13.5,-185 84.25,-185 84.25,-204.25"/>
<text text-anchor="middle" x="48.88" y="-190.75" font-family="Helvetica,sans-Serif" font-size="10.00">SortingProxy</text>
</a>
</g>
</g>
<!-- Node3&#45;&gt;Node1 -->
<g id="edge2_Node000001_Node000003" class="edge">
<title>Node3&#45;&gt;Node1</title>
<g id="a_edge2_Node000001_Node000003"><a xlink:title=" ">
<path fill="none" stroke="#9a32cd" stroke-dasharray="5,2" d="M95.88,-190.35C128.42,-186.28 172.64,-178.62 209.5,-164.62 231.99,-156.08 255.4,-140.73 269.56,-130.61"/>
<polygon fill="#9a32cd" stroke="#9a32cd" points="95.49,-186.87 85.96,-191.51 96.3,-193.82 95.49,-186.87"/>
</a>
</g>
<text text-anchor="middle" x="162.62" y="-189.3" font-family="Helvetica,sans-Serif" font-size="10.00" fill="grey"> m_sortProxy</text>
</g>
<!-- Node5 -->
<g id="Node000005" class="node">
<title>Node5</title>
<g id="a_Node000005"><a xlink:href="../../de/d4c/class_media_preview.html" target="_top" xlink:title=" ">
<polygon fill="#fff0f0" stroke="red" points="87.62,-167.25 10.12,-167.25 10.12,-148 87.62,-148 87.62,-167.25"/>
<text text-anchor="middle" x="48.88" y="-153.75" font-family="Helvetica,sans-Serif" font-size="10.00">MediaPreview</text>
</a>
</g>
</g>
<!-- Node5&#45;&gt;Node1 -->
<g id="edge3_Node000001_Node000005" class="edge">
<title>Node5&#45;&gt;Node1</title>
<g id="a_edge3_Node000001_Node000005"><a xlink:title=" ">
<path fill="none" stroke="#9a32cd" stroke-dasharray="5,2" d="M99.19,-151.66C130.8,-147.64 172.66,-141.92 209.5,-135.62 218.09,-134.16 227.21,-132.43 235.99,-130.68"/>
<polygon fill="#9a32cd" stroke="#9a32cd" points="99.03,-148.16 89.54,-152.88 99.9,-155.1 99.03,-148.16"/>
</a>
</g>
<text text-anchor="middle" x="162.62" y="-150.87" font-family="Helvetica,sans-Serif" font-size="10.00" fill="grey"> m_preview</text>
</g>
<!-- Node8 -->
<g id="Node000008" class="node">
<title>Node8</title>
<g id="a_Node000008"><a xlink:href="../../db/d10/struct_i_exif_reader_factory.html" target="_top" xlink:title=" ">
<polygon fill="white" stroke="#666666" points="97.75,-130.25 0,-130.25 0,-111 97.75,-111 97.75,-130.25"/>
<text text-anchor="middle" x="48.88" y="-116.75" font-family="Helvetica,sans-Serif" font-size="10.00">IExifReaderFactory</text>
</a>
</g>
</g>
<!-- Node8&#45;&gt;Node1 -->
<g id="edge4_Node000001_Node000008" class="edge">
<title>Node8&#45;&gt;Node1</title>
<g id="a_edge4_Node000001_Node000008"><a xlink:title=" ">
<path fill="none" stroke="#9a32cd" stroke-dasharray="5,2" d="M109.56,-120.62C145.82,-120.62 191.8,-120.62 227.29,-120.62"/>
<polygon fill="#9a32cd" stroke="#9a32cd" points="109.67,-117.13 99.67,-120.63 109.67,-124.13 109.67,-117.13"/>
</a>
</g>
<text text-anchor="middle" x="162.62" y="-122.38" font-family="Helvetica,sans-Serif" font-size="10.00" fill="grey"> m_exifReaderFactory</text>
</g>
<!-- Node9 -->
<g id="Node000009" class="node">
<title>Node9</title>
<g id="a_Node000009"><a xlink:href="../../d7/db4/struct_i_configuration.html" target="_top" xlink:title=" ">
<polygon fill="white" stroke="#666666" points="86.5,-93.25 11.25,-93.25 11.25,-74 86.5,-74 86.5,-93.25"/>
<text text-anchor="middle" x="48.88" y="-79.75" font-family="Helvetica,sans-Serif" font-size="10.00">IConfiguration</text>
</a>
</g>
</g>
<!-- Node9&#45;&gt;Node1 -->
<g id="edge5_Node000001_Node000009" class="edge">
<title>Node9&#45;&gt;Node1</title>
<g id="a_edge5_Node000001_Node000009"><a xlink:title=" ">
<path fill="none" stroke="#9a32cd" stroke-dasharray="5,2" d="M97.94,-89.29C129.7,-93.25 172.18,-98.96 209.5,-105.38 218.35,-106.9 227.76,-108.7 236.78,-110.54"/>
<polygon fill="#9a32cd" stroke="#9a32cd" points="98.61,-85.85 88.26,-88.1 97.76,-92.79 98.61,-85.85"/>
</a>
</g>
<text text-anchor="middle" x="162.62" y="-107.12" font-family="Helvetica,sans-Serif" font-size="10.00" fill="grey"> m_config</text>
</g>
<!-- Node10 -->
<g id="Node000010" class="node">
<title>Node10</title>
<g id="a_Node000010"><a xlink:href="../../df/ddd/struct_i_logger.html" target="_top" xlink:title=" ">
<polygon fill="white" stroke="#666666" points="73.38,-56.25 24.38,-56.25 24.38,-37 73.38,-37 73.38,-56.25"/>
<text text-anchor="middle" x="48.88" y="-42.75" font-family="Helvetica,sans-Serif" font-size="10.00">ILogger</text>
</a>
</g>
</g>
<!-- Node10&#45;&gt;Node1 -->
<g id="edge6_Node000001_Node000010" class="edge">
<title>Node10&#45;&gt;Node1</title>
<g id="a_edge6_Node000001_Node000010"><a xlink:title=" ">
<path fill="none" stroke="#9a32cd" stroke-dasharray="5,2" d="M85.19,-49.55C118.2,-53.13 168.43,-60.75 209.5,-76.38 232.02,-84.94 255.42,-100.39 269.57,-110.57"/>
<polygon fill="#9a32cd" stroke="#9a32cd" points="85.66,-46.08 75.36,-48.56 84.96,-53.04 85.66,-46.08"/>
</a>
</g>
<text text-anchor="middle" x="162.62" y="-78.12" font-family="Helvetica,sans-Serif" font-size="10.00" fill="grey"> m_logger</text>
</g>
<!-- Node11 -->
<g id="Node000011" class="node">
<title>Node11</title>
<g id="a_Node000011"><a xlink:href="../../d5/d45/struct_i_task_executor.html" target="_top" xlink:title=" ">
<polygon fill="white" stroke="#666666" points="88,-19.25 9.75,-19.25 9.75,0 88,0 88,-19.25"/>
<text text-anchor="middle" x="48.88" y="-5.75" font-family="Helvetica,sans-Serif" font-size="10.00">ITaskExecutor</text>
</a>
</g>
</g>
<!-- Node11&#45;&gt;Node1 -->
<g id="edge7_Node000001_Node000011" class="edge">
<title>Node11&#45;&gt;Node1</title>
<g id="a_edge7_Node000001_Node000011"><a xlink:title=" ">
<path fill="none" stroke="#9a32cd" stroke-dasharray="5,2" d="M99.56,-10.28C132.58,-12.64 175.87,-19.55 209.5,-38.38 241.23,-56.13 266.28,-92.84 277.08,-110.58"/>
<polygon fill="#9a32cd" stroke="#9a32cd" points="100.04,-6.8 89.86,-9.71 99.63,-13.79 100.04,-6.8"/>
</a>
</g>
<text text-anchor="middle" x="162.62" y="-40.12" font-family="Helvetica,sans-Serif" font-size="10.00" fill="grey"> m_executor</text>
</g>
</g>
</svg>
