<?xml version="1.0" encoding="UTF-8" standalone="no"?>
<!DOCTYPE svg PUBLIC "-//W3C//DTD SVG 1.1//EN"
 "http://www.w3.org/Graphics/SVG/1.1/DTD/svg11.dtd">
<!-- Generated by graphviz version 12.2.0 (20241103.1931)
 -->
<!-- Title: src/database/database_qcoro_utils.hpp Pages: 1 -->
<svg width="510pt" height="149pt"
 viewBox="0.00 0.00 510.12 149.00" xmlns="http://www.w3.org/2000/svg" xmlns:xlink="http://www.w3.org/1999/xlink">
<g id="graph0" class="graph" transform="scale(1 1) rotate(0) translate(4 145)">
<title>src/database/database_qcoro_utils.hpp</title>
<!-- Node1 -->
<g id="Node000001" class="node">
<title>Node1</title>
<g id="a_Node000001"><a xlink:title=" ">
<polygon fill="#999999" stroke="#666666" points="291.62,-141 176.62,-141 176.62,-110.5 291.62,-110.5 291.62,-141"/>
<text text-anchor="start" x="184.62" y="-127.5" font-family="Helvetica,sans-Serif" font-size="10.00">src/database/database</text>
<text text-anchor="middle" x="234.12" y="-116.25" font-family="Helvetica,sans-Serif" font-size="10.00">_qcoro_utils.hpp</text>
</a>
</g>
</g>
<!-- Node2 -->
<g id="Node000002" class="node">
<title>Node2</title>
<g id="a_Node000002"><a xlink:title=" ">
<polygon fill="#e0e0e0" stroke="#999999" points="84.25,-19.25 0,-19.25 0,0 84.25,0 84.25,-19.25"/>
<text text-anchor="middle" x="42.12" y="-5.75" font-family="Helvetica,sans-Serif" font-size="10.00">source_location</text>
</a>
</g>
</g>
<!-- Node1&#45;&gt;Node2 -->
<g id="edge1_Node000001_Node000002" class="edge">
<title>Node1&#45;&gt;Node2</title>
<g id="a_edge1_Node000001_Node000002"><a xlink:title=" ">
<path fill="none" stroke="#63b8ff" d="M176.15,-117.83C124.37,-110.32 54.12,-96.38 37.12,-74.5 27.52,-62.14 29.99,-44.06 34.16,-30.28"/>
<polygon fill="#63b8ff" stroke="#63b8ff" points="37.42,-31.56 37.49,-20.97 30.83,-29.21 37.42,-31.56"/>
</a>
</g>
</g>
<!-- Node3 -->
<g id="Node000003" class="node">
<title>Node3</title>
<g id="a_Node000003"><a xlink:title=" ">
<polygon fill="#e0e0e0" stroke="#999999" points="152.12,-19.25 112.12,-19.25 112.12,0 152.12,0 152.12,-19.25"/>
<text text-anchor="middle" x="132.12" y="-5.75" font-family="Helvetica,sans-Serif" font-size="10.00">string</text>
</a>
</g>
</g>
<!-- Node1&#45;&gt;Node3 -->
<g id="edge2_Node000001_Node000003" class="edge">
<title>Node1&#45;&gt;Node3</title>
<g id="a_edge2_Node000001_Node000003"><a xlink:title=" ">
<path fill="none" stroke="#63b8ff" d="M221.21,-110.3C202.54,-89.41 168.05,-50.82 147.9,-28.28"/>
<polygon fill="#63b8ff" stroke="#63b8ff" points="150.52,-25.95 141.24,-20.83 145.3,-30.61 150.52,-25.95"/>
</a>
</g>
</g>
<!-- Node4 -->
<g id="Node000004" class="node">
<title>Node4</title>
<g id="a_Node000004"><a xlink:title=" ">
<polygon fill="#e0e0e0" stroke="#999999" points="236.62,-19.25 175.62,-19.25 175.62,0 236.62,0 236.62,-19.25"/>
<text text-anchor="middle" x="206.12" y="-5.75" font-family="Helvetica,sans-Serif" font-size="10.00">type_traits</text>
</a>
</g>
</g>
<!-- Node1&#45;&gt;Node4 -->
<g id="edge3_Node000001_Node000004" class="edge">
<title>Node1&#45;&gt;Node4</title>
<g id="a_edge3_Node000001_Node000004"><a xlink:title=" ">
<path fill="none" stroke="#63b8ff" d="M224.3,-110.07C218.41,-100.41 211.44,-87.24 208.12,-74.5 204.4,-60.17 204.01,-43.41 204.5,-30.66"/>
<polygon fill="#63b8ff" stroke="#63b8ff" points="207.97,-31.18 205.09,-20.99 200.99,-30.76 207.97,-31.18"/>
</a>
</g>
</g>
<!-- Node5 -->
<g id="Node000005" class="node">
<title>Node5</title>
<g id="a_Node000005"><a xlink:title=" ">
<polygon fill="#e0e0e0" stroke="#999999" points="314.38,-19.25 275.88,-19.25 275.88,0 314.38,0 314.38,-19.25"/>
<text text-anchor="middle" x="295.12" y="-5.75" font-family="Helvetica,sans-Serif" font-size="10.00">utility</text>
</a>
</g>
</g>
<!-- Node1&#45;&gt;Node5 -->
<g id="edge4_Node000001_Node000005" class="edge">
<title>Node1&#45;&gt;Node5</title>
<g id="a_edge4_Node000001_Node000005"><a xlink:title=" ">
<path fill="none" stroke="#63b8ff" d="M291.86,-114.71C314.95,-107.56 339.3,-95.34 353.12,-74.5 365.38,-56.03 344.08,-37.56 323.93,-25.27"/>
<polygon fill="#63b8ff" stroke="#63b8ff" points="325.71,-22.26 315.29,-20.35 322.25,-28.35 325.71,-22.26"/>
</a>
</g>
</g>
<!-- Node6 -->
<g id="Node000006" class="node">
<title>Node6</title>
<g id="a_Node000006"><a xlink:title=" ">
<polygon fill="#e0e0e0" stroke="#999999" points="502.12,-74.5 438.12,-74.5 438.12,-55.25 502.12,-55.25 502.12,-74.5"/>
<text text-anchor="middle" x="470.12" y="-61" font-family="Helvetica,sans-Serif" font-size="10.00">QCoroCore</text>
</a>
</g>
</g>
<!-- Node1&#45;&gt;Node6 -->
<g id="edge5_Node000001_Node000006" class="edge">
<title>Node1&#45;&gt;Node6</title>
<g id="a_edge5_Node000001_Node000006"><a xlink:title=" ">
<path fill="none" stroke="#63b8ff" d="M291.86,-110.35C333.59,-99.94 389.07,-86.1 426.98,-76.64"/>
<polygon fill="#63b8ff" stroke="#63b8ff" points="427.34,-80.16 436.2,-74.34 425.65,-73.36 427.34,-80.16"/>
</a>
</g>
</g>
<!-- Node7 -->
<g id="Node000007" class="node">
<title>Node7</title>
<g id="a_Node000007"><a xlink:title=" ">
<polygon fill="#e0e0e0" stroke="#999999" points="427.88,-19.25 362.38,-19.25 362.38,0 427.88,0 427.88,-19.25"/>
<text text-anchor="middle" x="395.12" y="-5.75" font-family="Helvetica,sans-Serif" font-size="10.00">QCoroTask</text>
</a>
</g>
</g>
<!-- Node1&#45;&gt;Node7 -->
<g id="edge6_Node000001_Node000007" class="edge">
<title>Node1&#45;&gt;Node7</title>
<g id="a_edge6_Node000001_Node000007"><a xlink:title=" ">
<path fill="none" stroke="#63b8ff" d="M292.07,-114.32C318.38,-107.02 348.21,-94.79 369.12,-74.5 381.22,-62.76 387.88,-44.62 391.42,-30.67"/>
<polygon fill="#63b8ff" stroke="#63b8ff" points="394.76,-31.74 393.46,-21.23 387.92,-30.26 394.76,-31.74"/>
</a>
</g>
</g>
<!-- Node8 -->
<g id="Node000008" class="node">
<title>Node8</title>
<g id="a_Node000008"><a xlink:href="../../d3/db0/qcoro__task__utils_8hpp.html" target="_top" xlink:title=" ">
<polygon fill="#fff0f0" stroke="red" points="343.62,-74.5 216.62,-74.5 216.62,-55.25 343.62,-55.25 343.62,-74.5"/>
<text text-anchor="middle" x="280.12" y="-61" font-family="Helvetica,sans-Serif" font-size="10.00">core/qcoro_task_utils.hpp</text>
</a>
</g>
</g>
<!-- Node1&#45;&gt;Node8 -->
<g id="edge7_Node000001_Node000008" class="edge">
<title>Node1&#45;&gt;Node8</title>
<g id="a_edge7_Node000001_Node000008"><a xlink:title=" ">
<path fill="none" stroke="#63b8ff" d="M245.5,-110.2C251.69,-102.27 259.42,-92.38 265.99,-83.96"/>
<polygon fill="#63b8ff" stroke="#63b8ff" points="268.7,-86.18 272.1,-76.14 263.19,-81.87 268.7,-86.18"/>
</a>
</g>
</g>
<!-- Node13 -->
<g id="Node000013" class="node">
<title>Node13</title>
<g id="a_Node000013"><a xlink:href="../../d7/d2b/idatabase_8hpp.html" target="_top" xlink:title=" ">
<polygon fill="#fff0f0" stroke="red" points="122.12,-74.5 46.12,-74.5 46.12,-55.25 122.12,-55.25 122.12,-74.5"/>
<text text-anchor="middle" x="84.12" y="-61" font-family="Helvetica,sans-Serif" font-size="10.00">idatabase.hpp</text>
</a>
</g>
</g>
<!-- Node1&#45;&gt;Node13 -->
<g id="edge11_Node000001_Node000013" class="edge">
<title>Node1&#45;&gt;Node13</title>
<g id="a_edge11_Node000001_Node000013"><a xlink:title=" ">
<path fill="none" stroke="#63b8ff" d="M196.66,-110.05C172.39,-100.52 141.05,-88.22 117.61,-79.02"/>
<polygon fill="#63b8ff" stroke="#63b8ff" points="119.13,-75.85 108.54,-75.46 116.57,-82.37 119.13,-75.85"/>
</a>
</g>
</g>
<!-- Node8&#45;&gt;Node4 -->
<g id="edge8_Node000008_Node000004" class="edge">
<title>Node8&#45;&gt;Node4</title>
<g id="a_edge8_Node000008_Node000004"><a xlink:title=" ">
<path fill="none" stroke="#63b8ff" d="M267.57,-54.84C256.66,-46.99 240.62,-35.45 227.66,-26.12"/>
<polygon fill="#63b8ff" stroke="#63b8ff" points="229.88,-23.41 219.72,-20.41 225.79,-29.09 229.88,-23.41"/>
</a>
</g>
</g>
<!-- Node8&#45;&gt;Node5 -->
<g id="edge9_Node000008_Node000005" class="edge">
<title>Node8&#45;&gt;Node5</title>
<g id="a_edge9_Node000008_Node000005"><a xlink:title=" ">
<path fill="none" stroke="#63b8ff" d="M282.6,-55.08C284.48,-48.42 287.13,-38.99 289.52,-30.53"/>
<polygon fill="#63b8ff" stroke="#63b8ff" points="292.84,-31.64 292.18,-21.07 286.1,-29.74 292.84,-31.64"/>
</a>
</g>
</g>
<!-- Node8&#45;&gt;Node7 -->
<g id="edge10_Node000008_Node000007" class="edge">
<title>Node8&#45;&gt;Node7</title>
<g id="a_edge10_Node000008_Node000007"><a xlink:title=" ">
<path fill="none" stroke="#63b8ff" d="M299.63,-54.84C317.64,-46.5 344.65,-34 365.35,-24.41"/>
<polygon fill="#63b8ff" stroke="#63b8ff" points="366.54,-27.72 374.15,-20.34 363.6,-21.36 366.54,-27.72"/>
</a>
</g>
</g>
<!-- Node13&#45;&gt;Node2 -->
<g id="edge12_Node000013_Node000002" class="edge">
<title>Node13&#45;&gt;Node2</title>
<g id="a_edge12_Node000013_Node000002"><a xlink:title=" ">
<path fill="none" stroke="#63b8ff" d="M77.19,-55.08C71.51,-47.88 63.29,-37.46 56.23,-28.51"/>
<polygon fill="#63b8ff" stroke="#63b8ff" points="59.09,-26.48 50.15,-20.8 53.59,-30.82 59.09,-26.48"/>
</a>
</g>
</g>
<!-- Node13&#45;&gt;Node3 -->
<g id="edge13_Node000013_Node000003" class="edge">
<title>Node13&#45;&gt;Node3</title>
<g id="a_edge13_Node000013_Node000003"><a xlink:title=" ">
<path fill="none" stroke="#63b8ff" d="M92.05,-55.08C98.68,-47.73 108.34,-37.01 116.51,-27.94"/>
<polygon fill="#63b8ff" stroke="#63b8ff" points="118.92,-30.5 123.01,-20.73 113.72,-25.82 118.92,-30.5"/>
</a>
</g>
</g>
</g>
</svg>
