<?xml version="1.0" encoding="UTF-8" standalone="no"?>
<!DOCTYPE svg PUBLIC "-//W3C//DTD SVG 1.1//EN"
 "http://www.w3.org/Graphics/SVG/1.1/DTD/svg11.dtd">
<!-- Generated by graphviz version 12.2.0 (20241103.1931)
 -->
<!-- Title: MySqlServer::run_server Pages: 1 -->
<svg width="312pt" height="64pt"
 viewBox="0.00 0.00 311.50 64.25" xmlns="http://www.w3.org/2000/svg" xmlns:xlink="http://www.w3.org/1999/xlink">
<g id="graph0" class="graph" transform="scale(1 1) rotate(0) translate(4 60.25)">
<title>MySqlServer::run_server</title>
<!-- Node1 -->
<g id="Node000001" class="node">
<title>Node1</title>
<g id="a_Node000001"><a xlink:title=" ">
<polygon fill="#999999" stroke="#666666" points="121.75,-37.25 0,-37.25 0,-18 121.75,-18 121.75,-37.25"/>
<text text-anchor="middle" x="60.88" y="-23.75" font-family="Helvetica,sans-Serif" font-size="10.00">MySqlServer::run_server</text>
</a>
</g>
</g>
<!-- Node2 -->
<g id="Node000002" class="node">
<title>Node2</title>
<g id="a_Node000002"><a xlink:href="../../d9/d03/class_my_sql_server.html#a78c509c67fe9febe29d735d9a5115e03" target="_top" xlink:title=" ">
<polygon fill="#fff0f0" stroke="red" points="303.5,-56.25 157.75,-56.25 157.75,-37 303.5,-37 303.5,-56.25"/>
<text text-anchor="middle" x="230.62" y="-42.75" font-family="Helvetica,sans-Serif" font-size="10.00">MySqlServer::getDaemonPath</text>
</a>
</g>
</g>
<!-- Node1&#45;&gt;Node2 -->
<g id="edge1_Node000001_Node000002" class="edge">
<title>Node1&#45;&gt;Node2</title>
<g id="a_edge1_Node000001_Node000002"><a xlink:title=" ">
<path fill="none" stroke="#63b8ff" d="M121.96,-34.43C129.76,-35.31 137.85,-36.23 145.95,-37.15"/>
<polygon fill="#63b8ff" stroke="#63b8ff" points="145.52,-40.62 155.85,-38.27 146.31,-33.67 145.52,-40.62"/>
</a>
</g>
</g>
<!-- Node5 -->
<g id="Node000005" class="node">
<title>Node5</title>
<g id="a_Node000005"><a xlink:href="../../d9/d03/class_my_sql_server.html#afb0b8bfb0be38b2fdb3d5dd1bcaccfa6" target="_top" xlink:title=" ">
<polygon fill="#fff0f0" stroke="red" points="296.38,-19.25 164.88,-19.25 164.88,0 296.38,0 296.38,-19.25"/>
<text text-anchor="middle" x="230.62" y="-5.75" font-family="Helvetica,sans-Serif" font-size="10.00">MySqlServer::startProcess</text>
</a>
</g>
</g>
<!-- Node1&#45;&gt;Node5 -->
<g id="edge2_Node000001_Node000005" class="edge">
<title>Node1&#45;&gt;Node5</title>
<g id="a_edge2_Node000001_Node000005"><a xlink:title=" ">
<path fill="none" stroke="#63b8ff" d="M121.96,-21.18C132.11,-20.09 142.77,-18.95 153.26,-17.82"/>
<polygon fill="#63b8ff" stroke="#63b8ff" points="153.49,-21.32 163.06,-16.77 152.74,-14.35 153.49,-21.32"/>
</a>
</g>
</g>
</g>
</svg>
