<?xml version="1.0" encoding="UTF-8" standalone="no"?>
<!DOCTYPE svg PUBLIC "-//W3C//DTD SVG 1.1//EN"
 "http://www.w3.org/Graphics/SVG/1.1/DTD/svg11.dtd">
<!-- Generated by graphviz version 7.0.5 (20221223.1930)
 -->
<!-- Title: MySqlServer::startProcess Pages: 1 -->
<svg width="324pt" height="150pt"
 viewBox="0.00 0.00 324.00 149.50" xmlns="http://www.w3.org/2000/svg" xmlns:xlink="http://www.w3.org/1999/xlink">
<g id="graph0" class="graph" transform="scale(1 1) rotate(0) translate(4 145.5)">
<title>MySqlServer::startProcess</title>
<!-- Node1 -->
<g id="node1" class="node">
<title>Node1</title>
<g id="a_node1"><a xlink:title=" ">
<polygon fill="#999999" stroke="#666666" points="132,-85.5 0,-85.5 0,-66.5 132,-66.5 132,-85.5"/>
<text text-anchor="middle" x="66" y="-73.5" font-family="Helvetica,sans-Serif" font-size="10.00">MySqlServer::startProcess</text>
</a>
</g>
</g>
<!-- Node2 -->
<g id="node2" class="node">
<title>Node2</title>
<g id="a_node2"><a xlink:href="../../d9/d03/class_my_sql_server.html#a418a76f8d1058a15325053abd41538b9" target="_top" xlink:title=" ">
<polygon fill="white" stroke="#666666" points="307.5,-141.5 176.5,-141.5 176.5,-122.5 307.5,-122.5 307.5,-141.5"/>
<text text-anchor="middle" x="242" y="-129.5" font-family="Helvetica,sans-Serif" font-size="10.00">MySqlServer::createConfig</text>
</a>
</g>
</g>
<!-- Node1&#45;&gt;Node2 -->
<g id="edge1" class="edge">
<title>Node1&#45;&gt;Node2</title>
<path fill="none" stroke="#63b8ff" d="M90.8,-85.87C111.1,-94.06 141.16,-105.67 168,-114 173.84,-115.81 180,-117.57 186.15,-119.22"/>
<polygon fill="#63b8ff" stroke="#63b8ff" points="185.12,-122.57 195.68,-121.7 186.89,-115.79 185.12,-122.57"/>
</g>
<!-- Node3 -->
<g id="node3" class="node">
<title>Node3</title>
<g id="a_node3"><a xlink:href="../../d9/d03/class_my_sql_server.html#a583229c52a733da0c6f6a26aee8f5dca" target="_top" xlink:title=" ">
<polygon fill="#fff0f0" stroke="red" points="293.5,-104.5 190.5,-104.5 190.5,-85.5 293.5,-85.5 293.5,-104.5"/>
<text text-anchor="middle" x="242" y="-92.5" font-family="Helvetica,sans-Serif" font-size="10.00">MySqlServer::initDB</text>
</a>
</g>
</g>
<!-- Node1&#45;&gt;Node3 -->
<g id="edge2" class="edge">
<title>Node1&#45;&gt;Node3</title>
<path fill="none" stroke="#63b8ff" d="M132.29,-83.13C147.5,-84.79 163.66,-86.56 178.74,-88.2"/>
<polygon fill="#63b8ff" stroke="#63b8ff" points="178.2,-91.66 188.53,-89.27 178.96,-84.71 178.2,-91.66"/>
</g>
<!-- Node5 -->
<g id="node4" class="node">
<title>Node5</title>
<g id="a_node4"><a xlink:href="../../d9/d03/class_my_sql_server.html#a8d6d47675907007d77adf236aa57dd6b" target="_top" xlink:title=" ">
<polygon fill="white" stroke="#666666" points="316,-67.5 168,-67.5 168,-48.5 316,-48.5 316,-67.5"/>
<text text-anchor="middle" x="242" y="-55.5" font-family="Helvetica,sans-Serif" font-size="10.00">MySqlServer::initDBStructures</text>
</a>
</g>
</g>
<!-- Node1&#45;&gt;Node5 -->
<g id="edge3" class="edge">
<title>Node1&#45;&gt;Node5</title>
<path fill="none" stroke="#63b8ff" d="M132.29,-69.25C140.15,-68.43 148.27,-67.59 156.36,-66.76"/>
<polygon fill="#63b8ff" stroke="#63b8ff" points="156.66,-70.24 166.25,-65.73 155.94,-63.28 156.66,-70.24"/>
</g>
<!-- Node6 -->
<g id="node5" class="node">
<title>Node6</title>
<g id="a_node5"><a xlink:href="../../d9/d03/class_my_sql_server.html#adc915b0ef6cf734d665735e4343578aa" target="_top" xlink:title=" ">
<polygon fill="#fff0f0" stroke="red" points="310.5,-30 173.5,-30 173.5,0 310.5,0 310.5,-30"/>
<text text-anchor="start" x="181.5" y="-18" font-family="Helvetica,sans-Serif" font-size="10.00">MySqlServer::waitForServer</text>
<text text-anchor="middle" x="242" y="-7" font-family="Helvetica,sans-Serif" font-size="10.00">ToStart</text>
</a>
</g>
</g>
<!-- Node1&#45;&gt;Node6 -->
<g id="edge4" class="edge">
<title>Node1&#45;&gt;Node6</title>
<path fill="none" stroke="#63b8ff" d="M94.4,-66.13C114.7,-58.84 143.05,-48.72 168,-40 173.61,-38.04 179.47,-36.01 185.32,-33.99"/>
<polygon fill="#63b8ff" stroke="#63b8ff" points="186.05,-37.44 194.37,-30.87 183.77,-30.82 186.05,-37.44"/>
</g>
</g>
</svg>
