<?xml version="1.0" encoding="UTF-8" standalone="no"?>
<!DOCTYPE svg PUBLIC "-//W3C//DTD SVG 1.1//EN"
 "http://www.w3.org/Graphics/SVG/1.1/DTD/svg11.dtd">
<!-- Generated by graphviz version 12.2.0 (20241103.1931)
 -->
<!-- Title: Id::value Pages: 1 -->
<!--zoomable 666 -->

<svg id="main" version="1.1" xmlns="http://www.w3.org/2000/svg" xmlns:xlink="http://www.w3.org/1999/xlink" xml:space="preserve" onload="init(evt)">

<style type="text/css"><![CDATA[
.node, .edge {opacity: 0.7;}
.node.selected, .edge.selected {opacity: 1;}
.edge:hover path { stroke: red; }
.edge:hover polygon { stroke: red; fill: red; }
]]></style>

<defs>
  <circle id="rim" cx="0" cy="0" r="7"/>
  <circle id="rim2" cx="0" cy="0" r="3.5"/>
  <g id="zoomPlus">
    <use xlink:href="#rim" fill="#404040"><set attributeName="fill" to="#808080" begin="zoomplus.mouseover" end="zoomplus.mouseout"/></use>
    <path d="M-4,0h8M0,-4v8" fill="none" stroke="white" stroke-width="1.5" pointer-events="none"/>
  </g>
  <g id="zoomMin">
    <use xlink:href="#rim" fill="#404040"><set attributeName="fill" to="#808080" begin="zoomminus.mouseover" end="zoomminus.mouseout"/></use>
    <path d="M-4,0h8" fill="none" stroke="white" stroke-width="1.5" pointer-events="none"/>
  </g>
  <g id="arrowUp" transform="translate(30 24)">
    <use xlink:href="#rim"/>
    <path pointer-events="none" fill="none" stroke="white" stroke-width="1.5" d="M0,-3.0v7 M-2.5,-0.5L0,-3.0L2.5,-0.5"/>
  </g>
  <g id="arrowRight" transform="rotate(90) translate(36 -43)">
    <use xlink:href="#rim"/>
    <path pointer-events="none" fill="none" stroke="white" stroke-width="1.5" d="M0,-3.0v7 M-2.5,-0.5L0,-3.0L2.5,-0.5"/>
  </g>
  <g id="arrowDown" transform="rotate(180) translate(-30 -48)">
    <use xlink:href="#rim"/>
    <path pointer-events="none" fill="none" stroke="white" stroke-width="1.5" d="M0,-3.0v7 M-2.5,-0.5L0,-3.0L2.5,-0.5"/>
  </g>
  <g id="arrowLeft" transform="rotate(270) translate(-36 17)">
    <use xlink:href="#rim"/>
    <path pointer-events="none" fill="none" stroke="white" stroke-width="1.5" d="M0,-3.0v7 M-2.5,-0.5L0,-3.0L2.5,-0.5"/>
  </g>
  <g id="resetDef">
    <use xlink:href="#rim2" fill="#404040"><set attributeName="fill" to="#808080" begin="reset.mouseover" end="reset.mouseout"/></use>
  </g>
</defs>
<script type="application/ecmascript">
var viewWidth = 401;
var viewHeight = 666;
var sectionId = 'dynsection-6';
</script>
<script type="application/ecmascript" xlink:href="../../svg.min.js"/>
<svg id="graph" class="graph">
<g id="viewport">
<title>Id::value</title>
<!-- Node1 -->
<g id="Node000001" class="node">
<title>Node1</title>
<g id="a_Node000001"><a xlink:title=" ">
<polygon fill="#999999" stroke="#666666" points="393,-337.88 341,-337.88 341,-318.62 393,-318.62 393,-337.88"/>
<text text-anchor="middle" x="367" y="-324.38" font-family="Helvetica,sans-Serif" font-size="10.00">Id::value</text>
</a>
</g>
</g>
<!-- Node2 -->
<g id="Node000002" class="node">
<title>Node2</title>
<g id="a_Node000002"><a xlink:href="../../d5/d1b/class_database_1_1_a_sql_backend.html#adcb6eb7ac6bcd49815d7b7e0f670c602" target="_top" xlink:title="get all tags assigned to photo">
<polygon fill="#fff0f0" stroke="red" points="293.75,-657.5 172.75,-657.5 172.75,-627 293.75,-627 293.75,-657.5"/>
<text text-anchor="start" x="180.75" y="-644" font-family="Helvetica,sans-Serif" font-size="10.00">Database::ASqlBackend</text>
<text text-anchor="middle" x="233.25" y="-632.75" font-family="Helvetica,sans-Serif" font-size="10.00">::getTagsFor</text>
</a>
</g>
</g>
<!-- Node1&#45;&gt;Node2 -->
<g id="edge1_Node000001_Node000002" class="edge">
<title>Node1&#45;&gt;Node2</title>
<g id="a_edge1_Node000001_Node000002"><a xlink:title=" ">
<path fill="none" stroke="#63b8ff" d="M364.17,-349.69C358.65,-409.58 340.34,-576.92 305,-617.25 301.82,-620.88 298.09,-623.97 294.02,-626.62"/>
<polygon fill="#63b8ff" stroke="#63b8ff" points="367.65,-350.11 365.05,-339.84 360.67,-349.49 367.65,-350.11"/>
</a>
</g>
</g>
<!-- Node9 -->
<g id="Node000009" class="node">
<title>Node9</title>
<g id="a_Node000009"><a xlink:href="../../db/dd9/class_database_1_1_people_information_accessor.html#a176ddb886b5d84ba4714f5f317713499" target="_top" xlink:title="list people on photo">
<polygon fill="white" stroke="#666666" points="303.5,-608.5 163,-608.5 163,-578 303.5,-578 303.5,-608.5"/>
<text text-anchor="start" x="171" y="-595" font-family="Helvetica,sans-Serif" font-size="10.00">Database::PeopleInformation</text>
<text text-anchor="middle" x="233.25" y="-583.75" font-family="Helvetica,sans-Serif" font-size="10.00">Accessor::listPeople</text>
</a>
</g>
</g>
<!-- Node1&#45;&gt;Node9 -->
<g id="edge2_Node000001_Node000009" class="edge">
<title>Node1&#45;&gt;Node9</title>
<g id="a_edge2_Node000001_Node000009"><a xlink:title=" ">
<path fill="none" stroke="#63b8ff" d="M366.86,-349.36C367.54,-395.27 362.64,-505.12 305,-568.25 301.66,-571.91 297.76,-575.03 293.52,-577.69"/>
<polygon fill="#63b8ff" stroke="#63b8ff" points="370.36,-349.38 366.59,-339.48 363.36,-349.57 370.36,-349.38"/>
</a>
</g>
</g>
<!-- Node10 -->
<g id="Node000010" class="node">
<title>Node10</title>
<g id="a_Node000010"><a xlink:href="../../d5/d6b/class_database_1_1_group_operator.html#a6bbdf8576bf3ee2b776b83145de18f6a" target="_top" xlink:title=" ">
<polygon fill="white" stroke="#666666" points="296,-559.5 170.5,-559.5 170.5,-529 296,-529 296,-559.5"/>
<text text-anchor="start" x="178.5" y="-546" font-family="Helvetica,sans-Serif" font-size="10.00">Database::GroupOperator</text>
<text text-anchor="middle" x="233.25" y="-534.75" font-family="Helvetica,sans-Serif" font-size="10.00">::membersOf</text>
</a>
</g>
</g>
<!-- Node1&#45;&gt;Node10 -->
<g id="edge3_Node000001_Node000010" class="edge">
<title>Node1&#45;&gt;Node10</title>
<g id="a_edge3_Node000001_Node000010"><a xlink:title=" ">
<path fill="none" stroke="#63b8ff" d="M364.76,-349.37C361.43,-387.34 349.27,-467.59 305,-515.25 300.03,-520.6 293.93,-524.99 287.42,-528.58"/>
<polygon fill="#63b8ff" stroke="#63b8ff" points="368.22,-349.96 365.47,-339.73 361.24,-349.45 368.22,-349.96"/>
</a>
</g>
</g>
<!-- Node11 -->
<g id="Node000011" class="node">
<title>Node11</title>
<g id="a_Node000011"><a xlink:href="../../d5/d6b/class_database_1_1_group_operator.html#a44f76a88b5837cadec2a921400d33315" target="_top" xlink:title=" ">
<polygon fill="white" stroke="#666666" points="125.5,-537.5 0,-537.5 0,-507 125.5,-507 125.5,-537.5"/>
<text text-anchor="start" x="8" y="-524" font-family="Helvetica,sans-Serif" font-size="10.00">Database::GroupOperator</text>
<text text-anchor="middle" x="62.75" y="-512.75" font-family="Helvetica,sans-Serif" font-size="10.00">::removeGroup</text>
</a>
</g>
</g>
<!-- Node1&#45;&gt;Node11 -->
<g id="edge11_Node000001_Node000011" class="edge">
<title>Node1&#45;&gt;Node11</title>
<g id="a_edge11_Node000001_Node000011"><a xlink:title=" ">
<path fill="none" stroke="#63b8ff" d="M364.1,-349.33C359.87,-383.06 346.47,-448.78 305,-482.25 278.11,-503.95 187.91,-514.22 125.76,-518.83"/>
<polygon fill="#63b8ff" stroke="#63b8ff" points="367.56,-349.92 365.15,-339.6 360.6,-349.17 367.56,-349.92"/>
</a>
</g>
</g>
<!-- Node12 -->
<g id="Node000012" class="node">
<title>Node12</title>
<g id="a_Node000012"><a xlink:href="../../d1/dc6/struct_photo_1_1_id_hash.html#a63405fc509a655aa14b12e9d042001b7" target="_top" xlink:title=" ">
<polygon fill="white" stroke="#666666" points="294.88,-472.88 171.62,-472.88 171.62,-453.62 294.88,-453.62 294.88,-472.88"/>
<text text-anchor="middle" x="233.25" y="-459.38" font-family="Helvetica,sans-Serif" font-size="10.00">Photo::IdHash::operator()</text>
</a>
</g>
</g>
<!-- Node1&#45;&gt;Node12 -->
<g id="edge5_Node000001_Node000012" class="edge">
<title>Node1&#45;&gt;Node12</title>
<g id="a_edge5_Node000001_Node000012"><a xlink:title=" ">
<path fill="none" stroke="#63b8ff" d="M360.69,-348.94C352.89,-375.07 335.84,-419.59 305,-444.25 300.43,-447.9 295.22,-450.86 289.74,-453.25"/>
<polygon fill="#63b8ff" stroke="#63b8ff" points="364,-350.09 363.3,-339.52 357.25,-348.21 364,-350.09"/>
</a>
</g>
</g>
<!-- Node13 -->
<g id="Node000013" class="node">
<title>Node13</title>
<g id="a_Node000013"><a xlink:href="../../d1/dea/structstd_1_1hash_3_01_id_3_01_t_00_01_tag_01_4_01_4.html#a76a56fb6d993acb0dd8963c7f3c2fec3" target="_top" xlink:title=" ">
<polygon fill="white" stroke="#666666" points="287,-435.5 179.5,-435.5 179.5,-405 287,-405 287,-435.5"/>
<text text-anchor="start" x="187.5" y="-422" font-family="Helvetica,sans-Serif" font-size="10.00">std::hash&lt; Id&lt; T, Tag</text>
<text text-anchor="middle" x="233.25" y="-410.75" font-family="Helvetica,sans-Serif" font-size="10.00"> &gt; &gt;::operator()</text>
</a>
</g>
</g>
<!-- Node1&#45;&gt;Node13 -->
<g id="edge6_Node000001_Node000013" class="edge">
<title>Node1&#45;&gt;Node13</title>
<g id="a_edge6_Node000001_Node000013"><a xlink:title=" ">
<path fill="none" stroke="#63b8ff" d="M352.55,-347.62C341.34,-362.47 324.17,-382.53 305,-395.25 299.57,-398.85 293.57,-402 287.42,-404.74"/>
<polygon fill="#63b8ff" stroke="#63b8ff" points="355.37,-349.69 358.41,-339.54 349.7,-345.58 355.37,-349.69"/>
</a>
</g>
</g>
<!-- Node14 -->
<g id="Node000014" class="node">
<title>Node14</title>
<g id="a_Node000014"><a xlink:href="../../db/dd9/class_database_1_1_people_information_accessor.html#a68e4ff266d1c8a9b2ada19811c972ea7" target="_top" xlink:title="get person name for given person id">
<polygon fill="#fff0f0" stroke="red" points="303.5,-386.5 163,-386.5 163,-356 303.5,-356 303.5,-386.5"/>
<text text-anchor="start" x="171" y="-373" font-family="Helvetica,sans-Serif" font-size="10.00">Database::PeopleInformation</text>
<text text-anchor="middle" x="233.25" y="-361.75" font-family="Helvetica,sans-Serif" font-size="10.00">Accessor::person</text>
</a>
</g>
</g>
<!-- Node1&#45;&gt;Node14 -->
<g id="edge7_Node000001_Node000014" class="edge">
<title>Node1&#45;&gt;Node14</title>
<g id="a_edge7_Node000001_Node000014"><a xlink:title=" ">
<path fill="none" stroke="#63b8ff" d="M329.91,-340.03C315.2,-344.83 297.99,-350.45 282.25,-355.59"/>
<polygon fill="#63b8ff" stroke="#63b8ff" points="330.74,-343.44 339.16,-337.01 328.57,-336.79 330.74,-343.44"/>
</a>
</g>
</g>
<!-- Node16 -->
<g id="Node000016" class="node">
<title>Node16</title>
<g id="a_Node000016"><a xlink:href="../../d3/d07/class_media_view_ctrl.html#ace0b532b452e5d3bab8a29f508f49156" target="_top" xlink:title=" ">
<polygon fill="white" stroke="#666666" points="304.62,-337.88 161.88,-337.88 161.88,-318.62 304.62,-318.62 304.62,-337.88"/>
<text text-anchor="middle" x="233.25" y="-324.38" font-family="Helvetica,sans-Serif" font-size="10.00">MediaViewCtrl::photoIDString</text>
</a>
</g>
</g>
<!-- Node1&#45;&gt;Node16 -->
<g id="edge8_Node000001_Node000016" class="edge">
<title>Node1&#45;&gt;Node16</title>
<g id="a_edge8_Node000001_Node000016"><a xlink:title=" ">
<path fill="none" stroke="#63b8ff" d="M329.27,-328.25C321.67,-328.25 313.42,-328.25 305.07,-328.25"/>
<polygon fill="#63b8ff" stroke="#63b8ff" points="329.08,-331.75 339.08,-328.25 329.08,-324.75 329.08,-331.75"/>
</a>
</g>
</g>
<!-- Node17 -->
<g id="Node000017" class="node">
<title>Node17</title>
<g id="a_Node000017"><a xlink:href="../../d4/d50/namespace_photo.html#a3465206306cc8533a564db51af37ce83" target="_top" xlink:title=" ">
<polygon fill="white" stroke="#666666" points="272,-300.88 194.5,-300.88 194.5,-281.62 272,-281.62 272,-300.88"/>
<text text-anchor="middle" x="233.25" y="-287.38" font-family="Helvetica,sans-Serif" font-size="10.00">Photo::PrintTo</text>
</a>
</g>
</g>
<!-- Node1&#45;&gt;Node17 -->
<g id="edge9_Node000001_Node000017" class="edge">
<title>Node1&#45;&gt;Node17</title>
<g id="a_edge9_Node000001_Node000017"><a xlink:title=" ">
<path fill="none" stroke="#63b8ff" d="M329.85,-316.64C321.7,-314.12 313.07,-311.53 305,-309.25 294.39,-306.25 282.82,-303.21 272.17,-300.5"/>
<polygon fill="#63b8ff" stroke="#63b8ff" points="328.53,-319.9 339.12,-319.55 330.62,-313.22 328.53,-319.9"/>
</a>
</g>
</g>
<!-- Node18 -->
<g id="Node000018" class="node">
<title>Node18</title>
<g id="a_Node000018"><a xlink:href="../../d0/d89/class_database_1_1_a_photo_change_log_operator.html#a60f421a38c172aec7b8bcf4d7ee819c2" target="_top" xlink:title=" ">
<polygon fill="white" stroke="#666666" points="305,-263.5 161.5,-263.5 161.5,-233 305,-233 305,-263.5"/>
<text text-anchor="start" x="169.5" y="-250" font-family="Helvetica,sans-Serif" font-size="10.00">Database::APhotoChangeLog</text>
<text text-anchor="middle" x="233.25" y="-238.75" font-family="Helvetica,sans-Serif" font-size="10.00">Operator::process</text>
</a>
</g>
</g>
<!-- Node1&#45;&gt;Node18 -->
<g id="edge10_Node000001_Node000018" class="edge">
<title>Node1&#45;&gt;Node18</title>
<g id="a_edge10_Node000001_Node000018"><a xlink:title=" ">
<path fill="none" stroke="#63b8ff" d="M349.71,-309.72C338.24,-297.64 321.95,-282.29 305,-272.25 299.76,-269.14 294.05,-266.37 288.23,-263.91"/>
<polygon fill="#63b8ff" stroke="#63b8ff" points="347.12,-312.07 356.46,-317.07 352.27,-307.34 347.12,-312.07"/>
</a>
</g>
</g>
<!-- Node19 -->
<g id="Node000019" class="node">
<title>Node19</title>
<g id="a_Node000019"><a xlink:href="../../d5/d1b/class_database_1_1_a_sql_backend.html#a5e2dade3290d318258ea503ee1e409cc" target="_top" xlink:title="store photo&#39;s dimensions">
<polygon fill="#fff0f0" stroke="red" points="293.75,-214.5 172.75,-214.5 172.75,-184 293.75,-184 293.75,-214.5"/>
<text text-anchor="start" x="180.75" y="-201" font-family="Helvetica,sans-Serif" font-size="10.00">Database::ASqlBackend</text>
<text text-anchor="middle" x="233.25" y="-189.75" font-family="Helvetica,sans-Serif" font-size="10.00">::storeGeometryFor</text>
</a>
</g>
</g>
<!-- Node1&#45;&gt;Node19 -->
<g id="edge12_Node000001_Node000019" class="edge">
<title>Node1&#45;&gt;Node19</title>
<g id="a_edge12_Node000001_Node000019"><a xlink:title=" ">
<path fill="none" stroke="#63b8ff" d="M358.91,-307.67C349.87,-284.32 332.08,-246.6 305,-224.25 300.68,-220.68 295.81,-217.61 290.71,-214.97"/>
<polygon fill="#63b8ff" stroke="#63b8ff" points="355.59,-308.8 362.32,-316.99 362.17,-306.39 355.59,-308.8"/>
</a>
</g>
</g>
<!-- Node21 -->
<g id="Node000021" class="node">
<title>Node21</title>
<g id="a_Node000021"><a xlink:href="../../d5/d1b/class_database_1_1_a_sql_backend.html#a21c7b6005ea9c9e59adc7166f978111b" target="_top" xlink:title="store photo&#39;s tags in database">
<polygon fill="#fff0f0" stroke="red" points="293.75,-165.5 172.75,-165.5 172.75,-135 293.75,-135 293.75,-165.5"/>
<text text-anchor="start" x="180.75" y="-152" font-family="Helvetica,sans-Serif" font-size="10.00">Database::ASqlBackend</text>
<text text-anchor="middle" x="233.25" y="-140.75" font-family="Helvetica,sans-Serif" font-size="10.00">::storeTags</text>
</a>
</g>
</g>
<!-- Node1&#45;&gt;Node21 -->
<g id="edge13_Node000001_Node000021" class="edge">
<title>Node1&#45;&gt;Node21</title>
<g id="a_edge13_Node000001_Node000021"><a xlink:title=" ">
<path fill="none" stroke="#63b8ff" d="M363.21,-307.2C357.79,-274.54 342.86,-211.63 305,-175.25 301.24,-171.64 296.93,-168.55 292.33,-165.9"/>
<polygon fill="#63b8ff" stroke="#63b8ff" points="359.73,-307.61 364.67,-316.98 366.65,-306.57 359.73,-307.61"/>
</a>
</g>
</g>
<!-- Node22 -->
<g id="Node000022" class="node">
<title>Node22</title>
<g id="a_Node000022"><a xlink:href="../../d7/d06/photos__change__log__tests_8cpp.html#ad09fd0ce4c5f6a37cb3c0163bfba98ae" target="_top" xlink:title=" ">
<polygon fill="white" stroke="#666666" points="272.38,-116.88 194.12,-116.88 194.12,-97.62 272.38,-97.62 272.38,-116.88"/>
<text text-anchor="middle" x="233.25" y="-103.38" font-family="Helvetica,sans-Serif" font-size="10.00">TYPED_TEST</text>
</a>
</g>
</g>
<!-- Node1&#45;&gt;Node22 -->
<g id="edge14_Node000001_Node000022" class="edge">
<title>Node1&#45;&gt;Node22</title>
<g id="a_edge14_Node000001_Node000022"><a xlink:title=" ">
<path fill="none" stroke="#63b8ff" d="M365.97,-306.84C364.7,-265.77 355.9,-175.6 305,-126.25 296.33,-117.84 284.35,-113.05 272.71,-110.36"/>
<polygon fill="#63b8ff" stroke="#63b8ff" points="362.46,-306.68 366.13,-316.62 369.46,-306.56 362.46,-306.68"/>
</a>
</g>
</g>
<!-- Node23 -->
<g id="Node000023" class="node">
<title>Node23</title>
<g id="a_Node000023"><a xlink:href="../../d6/d7f/class_database_1_1_sql_filter_query_generator.html#a35fdb4e9821b85212c8a40079515cf4d" target="_top" xlink:title=" ">
<polygon fill="white" stroke="#666666" points="294.88,-79.5 171.62,-79.5 171.62,-49 294.88,-49 294.88,-79.5"/>
<text text-anchor="start" x="179.62" y="-66" font-family="Helvetica,sans-Serif" font-size="10.00">Database::SqlFilterQuery</text>
<text text-anchor="middle" x="233.25" y="-54.75" font-family="Helvetica,sans-Serif" font-size="10.00">Generator::visit</text>
</a>
</g>
</g>
<!-- Node1&#45;&gt;Node23 -->
<g id="edge15_Node000001_Node000023" class="edge">
<title>Node1&#45;&gt;Node23</title>
<g id="a_edge15_Node000001_Node000023"><a xlink:title=" ">
<path fill="none" stroke="#63b8ff" d="M366.92,-307.08C367.72,-261.07 363.04,-151.01 305,-88.25 302.01,-85.01 298.56,-82.21 294.83,-79.79"/>
<polygon fill="#63b8ff" stroke="#63b8ff" points="363.42,-306.89 366.62,-316.99 370.42,-307.1 363.42,-306.89"/>
</a>
</g>
</g>
<!-- Node24 -->
<g id="Node000024" class="node">
<title>Node24</title>
<g id="a_Node000024"><a xlink:href="../../d6/d7f/class_database_1_1_sql_filter_query_generator.html#a1141dd12554c44d0750c4c417204d5ef" target="_top" xlink:title=" ">
<polygon fill="white" stroke="#666666" points="294.88,-30.5 171.62,-30.5 171.62,0 294.88,0 294.88,-30.5"/>
<text text-anchor="start" x="179.62" y="-17" font-family="Helvetica,sans-Serif" font-size="10.00">Database::SqlFilterQuery</text>
<text text-anchor="middle" x="233.25" y="-5.75" font-family="Helvetica,sans-Serif" font-size="10.00">Generator::visit</text>
</a>
</g>
</g>
<!-- Node1&#45;&gt;Node24 -->
<g id="edge16_Node000001_Node000024" class="edge">
<title>Node1&#45;&gt;Node24</title>
<g id="a_edge16_Node000001_Node000024"><a xlink:title=" ">
<path fill="none" stroke="#63b8ff" d="M364.16,-306.88C358.61,-247.2 340.24,-80.44 305,-40.25 301.82,-36.63 298.08,-33.53 294.02,-30.88"/>
<polygon fill="#63b8ff" stroke="#63b8ff" points="360.66,-307.05 365.04,-316.69 367.63,-306.42 360.66,-307.05"/>
</a>
</g>
</g>
<!-- Node10&#45;&gt;Node11 -->
<g id="edge4_Node000010_Node000011" class="edge">
<title>Node10&#45;&gt;Node11</title>
<g id="a_edge4_Node000010_Node000011"><a xlink:title=" ">
<path fill="none" stroke="#63b8ff" d="M159.39,-534.74C148.2,-533.28 136.74,-531.78 125.81,-530.35"/>
<polygon fill="#63b8ff" stroke="#63b8ff" points="158.59,-538.16 168.96,-535.99 159.5,-531.22 158.59,-538.16"/>
</a>
</g>
</g>
</g>
</svg>

<g id="navigator" transform="translate(0 0)" fill="#404254">
  <rect fill="#f2f5e9" fill-opacity="0.5" stroke="#606060" stroke-width=".5" x="0" y="0" width="60" height="60"/>
  <use id="zoomplus" xlink:href="#zoomPlus" x="17" y="9" onmousedown="handleZoom(evt,'in')"/>
  <use id="zoomminus" xlink:href="#zoomMin" x="42" y="9" onmousedown="handleZoom(evt,'out')"/>
  <use id="reset" xlink:href="#resetDef" x="30" y="36" onmousedown="handleReset()"/>
   <use id="arrowup" xlink:href="#arrowUp" x="0" y="0" onmousedown="handlePan(0,-1)"/>
  <use id="arrowright" xlink:href="#arrowRight" x="0" y="0" onmousedown="handlePan(1,0)"/>
  <use id="arrowdown" xlink:href="#arrowDown" x="0" y="0" onmousedown="handlePan(0,1)"/>
  <use id="arrowleft" xlink:href="#arrowLeft" x="0" y="0" onmousedown="handlePan(-1,0)"/>
</g>
<svg viewBox="0 0 15 15" width="100%" height="30px" preserveAspectRatio="xMaxYMin meet">
 <g id="arrow_out" transform="scale(0.3 0.3)">
  <a xlink:href="class_id_ae90d3cdcd4103e44499e82622a27e4cb_icgraph_org.svg" target="_base">
   <rect id="button" ry="5" rx="5" y="6" x="6" height="38" width="38"
        fill="#f2f5e9" fill-opacity="0.5" stroke="#606060" stroke-width="1.0"/>
   <path id="arrow"
     d="M 11.500037,31.436501 C 11.940474,20.09759 22.043105,11.32322 32.158766,21.979434 L 37.068811,17.246167 C 37.068811,17.246167 37.088388,32 37.088388,32 L 22.160133,31.978069 C 22.160133,31.978069 26.997745,27.140456 26.997745,27.140456 C 18.528582,18.264221 13.291696,25.230495 11.500037,31.436501 z"
     style="fill:#404040;"/>
  </a>
 </g>
</svg>

<style type='text/css'>
<![CDATA[
[data-mouse-over-selected='false'] { opacity: 0.7; }
[data-mouse-over-selected='true']  { opacity: 1.0; }
]]>
</style>
<script type="application/ecmascript"><![CDATA[
document.addEventListener('DOMContentLoaded', (event) => {
  highlightEdges();
  highlightAdjacentNodes();
});
]]></script>
</svg>
