<?xml version="1.0" encoding="UTF-8" standalone="no"?>
<!DOCTYPE svg PUBLIC "-//W3C//DTD SVG 1.1//EN"
 "http://www.w3.org/Graphics/SVG/1.1/DTD/svg11.dtd">
<!-- Generated by graphviz version 7.0.5 (20221223.1930)
 -->
<!-- Title: Id::value Pages: 1 -->
<!--zoomable 574 -->
<svg id="main" version="1.1" xmlns="http://www.w3.org/2000/svg" xmlns:xlink="http://www.w3.org/1999/xlink" xml:space="preserve" onload="init(evt)">
<style type="text/css"><![CDATA[
.edge:hover path { stroke: red; }
.edge:hover polygon { stroke: red; fill: red; }
]]></style>
<script type="text/javascript"><![CDATA[
var edges = document.getElementsByTagName('g');
if (edges && edges.length) {
  for (var i=0;i<edges.length;i++) {
    if (edges[i].id.substr(0,4)=='edge') {
      edges[i].setAttribute('class','edge');
    }
  }
}
]]></script>
        <defs>
                <circle id="rim" cx="0" cy="0" r="7"/>
                <circle id="rim2" cx="0" cy="0" r="3.5"/>
                <g id="zoomPlus">
                        <use xlink:href="#rim" fill="#404040">
                                <set attributeName="fill" to="#808080" begin="zoomplus.mouseover" end="zoomplus.mouseout"/>
                        </use>
                        <path d="M-4,0h8M0,-4v8" fill="none" stroke="white" stroke-width="1.5" pointer-events="none"/>
                </g>
                <g id="zoomMin">
                        <use xlink:href="#rim" fill="#404040">
                                <set attributeName="fill" to="#808080" begin="zoomminus.mouseover" end="zoomminus.mouseout"/>
                        </use>
                        <path d="M-4,0h8" fill="none" stroke="white" stroke-width="1.5" pointer-events="none"/>
                </g>
                <g id="dirArrow">
                        <path fill="none" stroke="white" stroke-width="1.5" d="M0,-3.0v7 M-2.5,-0.5L0,-3.0L2.5,-0.5"/>
                </g>
               <g id="resetDef">
                       <use xlink:href="#rim2" fill="#404040">
                               <set attributeName="fill" to="#808080" begin="reset.mouseover" end="reset.mouseout"/>
                       </use>
               </g>
        </defs>

<script type="text/javascript">
var viewWidth = 403;
var viewHeight = 574;
var sectionId = 'dynsection-6';
</script>
<script xlink:href="../../svgpan.js"/>
<svg id="graph" class="graph">
<g id="viewport">
<title>Id::value</title>
<!-- Node1 -->
<g id="node1" class="node">
<title>Node1</title>
<g id="a_node1"><a xlink:title=" ">
<polygon fill="#999999" stroke="#666666" points="395,-292.5 342,-292.5 342,-273.5 395,-273.5 395,-292.5"/>
<text text-anchor="middle" x="368.5" y="-280.5" font-family="Helvetica,sans-Serif" font-size="10.00">Id::value</text>
</a>
</g>
</g>
<!-- Node2 -->
<g id="node2" class="node">
<title>Node2</title>
<g id="a_node2"><a xlink:href="../../d5/d1b/class_database_1_1_a_sql_backend.html#a9fa3a0d6b981521fe6d75b116da62fed" target="_top" xlink:title="check if">
<polygon fill="#fff0f0" stroke="red" points="295,-566 173,-566 173,-536 295,-536 295,-566"/>
<text text-anchor="start" x="181" y="-554" font-family="Helvetica,sans-Serif" font-size="10.00">Database::ASqlBackend</text>
<text text-anchor="middle" x="234" y="-543" font-family="Helvetica,sans-Serif" font-size="10.00">::doesPhotoExist</text>
</a>
</g>
</g>
<!-- Node1&#45;&gt;Node2 -->
<g id="edge1" class="edge">
<title>Node1&#45;&gt;Node2</title>
<path fill="none" stroke="#63b8ff" d="M364.78,-304.21C357.56,-357.31 336.4,-494.1 306,-527 302.91,-530.34 299.34,-533.22 295.47,-535.7"/>
<polygon fill="#63b8ff" stroke="#63b8ff" points="368.24,-304.76 366.08,-294.38 361.3,-303.84 368.24,-304.76"/>
</g>
<!-- Node10 -->
<g id="node3" class="node">
<title>Node10</title>
<g id="a_node3"><a xlink:href="../../d5/d1b/class_database_1_1_a_sql_backend.html#adcb6eb7ac6bcd49815d7b7e0f670c602" target="_top" xlink:title="get all tags assigned to photo">
<polygon fill="#fff0f0" stroke="red" points="295,-518 173,-518 173,-488 295,-488 295,-518"/>
<text text-anchor="start" x="181" y="-506" font-family="Helvetica,sans-Serif" font-size="10.00">Database::ASqlBackend</text>
<text text-anchor="middle" x="234" y="-495" font-family="Helvetica,sans-Serif" font-size="10.00">::getTagsFor</text>
</a>
</g>
</g>
<!-- Node1&#45;&gt;Node10 -->
<g id="edge2" class="edge">
<title>Node1&#45;&gt;Node10</title>
<path fill="none" stroke="#63b8ff" d="M366.89,-304.02C364.61,-343.67 354.06,-429.88 306,-479 302.82,-482.26 299.17,-485.07 295.26,-487.5"/>
<polygon fill="#63b8ff" stroke="#63b8ff" points="370.38,-304.35 367.32,-294.2 363.39,-304.04 370.38,-304.35"/>
</g>
<!-- Node11 -->
<g id="node4" class="node">
<title>Node11</title>
<g id="a_node4"><a xlink:href="../../db/dd9/class_database_1_1_people_information_accessor.html#a176ddb886b5d84ba4714f5f317713499" target="_top" xlink:title="list people on photo">
<polygon fill="white" stroke="#666666" points="304.5,-470 163.5,-470 163.5,-440 304.5,-440 304.5,-470"/>
<text text-anchor="start" x="171.5" y="-458" font-family="Helvetica,sans-Serif" font-size="10.00">Database::PeopleInformation</text>
<text text-anchor="middle" x="234" y="-447" font-family="Helvetica,sans-Serif" font-size="10.00">Accessor::listPeople</text>
</a>
</g>
</g>
<!-- Node1&#45;&gt;Node11 -->
<g id="edge3" class="edge">
<title>Node1&#45;&gt;Node11</title>
<path fill="none" stroke="#63b8ff" d="M364.4,-303.89C358.6,-335.72 343.15,-396.29 306,-431 302.48,-434.29 298.5,-437.12 294.26,-439.58"/>
<polygon fill="#63b8ff" stroke="#63b8ff" points="367.8,-304.8 365.98,-294.36 360.89,-303.66 367.8,-304.8"/>
</g>
<!-- Node12 -->
<g id="node5" class="node">
<title>Node12</title>
<g id="a_node5"><a xlink:href="../../d5/d6b/class_database_1_1_group_operator.html#a6bbdf8576bf3ee2b776b83145de18f6a" target="_top" xlink:title=" ">
<polygon fill="white" stroke="#666666" points="297,-422 171,-422 171,-392 297,-392 297,-422"/>
<text text-anchor="start" x="179" y="-410" font-family="Helvetica,sans-Serif" font-size="10.00">Database::GroupOperator</text>
<text text-anchor="middle" x="234" y="-399" font-family="Helvetica,sans-Serif" font-size="10.00">::membersOf</text>
</a>
</g>
</g>
<!-- Node1&#45;&gt;Node12 -->
<g id="edge4" class="edge">
<title>Node1&#45;&gt;Node12</title>
<path fill="none" stroke="#63b8ff" d="M358.94,-303.14C349,-324.36 330.76,-357.48 306,-378 299.54,-383.35 291.96,-387.83 284.2,-391.53"/>
<polygon fill="#63b8ff" stroke="#63b8ff" points="362.08,-304.68 362.97,-294.12 355.69,-301.82 362.08,-304.68"/>
</g>
<!-- Node13 -->
<g id="node6" class="node">
<title>Node13</title>
<g id="a_node6"><a xlink:href="../../d5/d6b/class_database_1_1_group_operator.html#a44f76a88b5837cadec2a921400d33315" target="_top" xlink:title=" ">
<polygon fill="white" stroke="#666666" points="126,-400 0,-400 0,-370 126,-370 126,-400"/>
<text text-anchor="start" x="8" y="-388" font-family="Helvetica,sans-Serif" font-size="10.00">Database::GroupOperator</text>
<text text-anchor="middle" x="63" y="-377" font-family="Helvetica,sans-Serif" font-size="10.00">::removeGroup</text>
</a>
</g>
</g>
<!-- Node1&#45;&gt;Node13 -->
<g id="edge10" class="edge">
<title>Node1&#45;&gt;Node13</title>
<path fill="none" stroke="#63b8ff" d="M354.15,-301.81C342.96,-316.04 325.7,-334.83 306,-345 249.81,-374.01 177.38,-382.83 126.46,-385.11"/>
<polygon fill="#63b8ff" stroke="#63b8ff" points="356.76,-304.15 359.96,-294.05 351.16,-299.95 356.76,-304.15"/>
</g>
<!-- Node14 -->
<g id="node7" class="node">
<title>Node14</title>
<g id="a_node7"><a xlink:href="../../d1/dc6/struct_photo_1_1_id_hash.html#a63405fc509a655aa14b12e9d042001b7" target="_top" xlink:title=" ">
<polygon fill="white" stroke="#666666" points="296,-335.5 172,-335.5 172,-316.5 296,-316.5 296,-335.5"/>
<text text-anchor="middle" x="234" y="-323.5" font-family="Helvetica,sans-Serif" font-size="10.00">Photo::IdHash::operator()</text>
</a>
</g>
</g>
<!-- Node1&#45;&gt;Node14 -->
<g id="edge6" class="edge">
<title>Node1&#45;&gt;Node14</title>
<path fill="none" stroke="#63b8ff" d="M333.12,-297.19C324.35,-300.6 314.88,-304.09 306,-307 296.18,-310.22 285.46,-313.3 275.41,-316.02"/>
<polygon fill="#63b8ff" stroke="#63b8ff" points="334.36,-300.46 342.37,-293.52 331.78,-293.96 334.36,-300.46"/>
</g>
<!-- Node15 -->
<g id="node8" class="node">
<title>Node15</title>
<g id="a_node8"><a xlink:href="../../db/dd9/class_database_1_1_people_information_accessor.html#a68e4ff266d1c8a9b2ada19811c972ea7" target="_top" xlink:title="get person name for given person id">
<polygon fill="#fff0f0" stroke="red" points="304.5,-298 163.5,-298 163.5,-268 304.5,-268 304.5,-298"/>
<text text-anchor="start" x="171.5" y="-286" font-family="Helvetica,sans-Serif" font-size="10.00">Database::PeopleInformation</text>
<text text-anchor="middle" x="234" y="-275" font-family="Helvetica,sans-Serif" font-size="10.00">Accessor::person</text>
</a>
</g>
</g>
<!-- Node1&#45;&gt;Node15 -->
<g id="edge7" class="edge">
<title>Node1&#45;&gt;Node15</title>
<path fill="none" stroke="#63b8ff" d="M330.17,-283C322.21,-283 313.56,-283 304.83,-283"/>
<polygon fill="#63b8ff" stroke="#63b8ff" points="330.12,-286.5 340.12,-283 330.12,-279.5 330.12,-286.5"/>
</g>
<!-- Node17 -->
<g id="node9" class="node">
<title>Node17</title>
<g id="a_node9"><a xlink:href="../../d3/d07/class_media_view_ctrl.html#ace0b532b452e5d3bab8a29f508f49156" target="_top" xlink:title=" ">
<polygon fill="white" stroke="#666666" points="305.5,-249.5 162.5,-249.5 162.5,-230.5 305.5,-230.5 305.5,-249.5"/>
<text text-anchor="middle" x="234" y="-237.5" font-family="Helvetica,sans-Serif" font-size="10.00">MediaViewCtrl::photoIDString</text>
</a>
</g>
</g>
<!-- Node1&#45;&gt;Node17 -->
<g id="edge8" class="edge">
<title>Node1&#45;&gt;Node17</title>
<path fill="none" stroke="#63b8ff" d="M333.12,-268.81C324.35,-265.4 314.88,-261.91 306,-259 296.18,-255.78 285.46,-252.7 275.41,-249.98"/>
<polygon fill="#63b8ff" stroke="#63b8ff" points="331.78,-272.04 342.37,-272.48 334.36,-265.54 331.78,-272.04"/>
</g>
<!-- Node18 -->
<g id="node10" class="node">
<title>Node18</title>
<g id="a_node10"><a xlink:href="../../d0/d89/class_database_1_1_a_photo_change_log_operator.html#a60f421a38c172aec7b8bcf4d7ee819c2" target="_top" xlink:title=" ">
<polygon fill="white" stroke="#666666" points="306,-212 162,-212 162,-182 306,-182 306,-212"/>
<text text-anchor="start" x="170" y="-200" font-family="Helvetica,sans-Serif" font-size="10.00">Database::APhotoChangeLog</text>
<text text-anchor="middle" x="234" y="-189" font-family="Helvetica,sans-Serif" font-size="10.00">Operator::process</text>
</a>
</g>
</g>
<!-- Node1&#45;&gt;Node18 -->
<g id="edge9" class="edge">
<title>Node1&#45;&gt;Node18</title>
<path fill="none" stroke="#63b8ff" d="M352.84,-264.58C341.33,-251.18 324.25,-233.44 306,-222 300.24,-218.39 293.89,-215.22 287.43,-212.45"/>
<polygon fill="#63b8ff" stroke="#63b8ff" points="350.13,-266.79 359.2,-272.26 355.51,-262.32 350.13,-266.79"/>
</g>
<!-- Node19 -->
<g id="node11" class="node">
<title>Node19</title>
<g id="a_node11"><a xlink:href="../../d5/d1b/class_database_1_1_a_sql_backend.html#a5e2dade3290d318258ea503ee1e409cc" target="_top" xlink:title="store photo&#39;s dimensions">
<polygon fill="#fff0f0" stroke="red" points="295,-164 173,-164 173,-134 295,-134 295,-164"/>
<text text-anchor="start" x="181" y="-152" font-family="Helvetica,sans-Serif" font-size="10.00">Database::ASqlBackend</text>
<text text-anchor="middle" x="234" y="-141" font-family="Helvetica,sans-Serif" font-size="10.00">::storeGeometryFor</text>
</a>
</g>
</g>
<!-- Node1&#45;&gt;Node19 -->
<g id="edge11" class="edge">
<title>Node1&#45;&gt;Node19</title>
<path fill="none" stroke="#63b8ff" d="M361.18,-262.59C352.55,-237.97 334.77,-196.92 306,-173 302,-169.67 297.51,-166.8 292.79,-164.32"/>
<polygon fill="#63b8ff" stroke="#63b8ff" points="357.75,-263.37 364.22,-271.77 364.4,-261.18 357.75,-263.37"/>
</g>
<!-- Node21 -->
<g id="node12" class="node">
<title>Node21</title>
<g id="a_node12"><a xlink:href="../../d5/d1b/class_database_1_1_a_sql_backend.html#a21c7b6005ea9c9e59adc7166f978111b" target="_top" xlink:title="store photo&#39;s tags in database">
<polygon fill="#fff0f0" stroke="red" points="295,-116 173,-116 173,-86 295,-86 295,-116"/>
<text text-anchor="start" x="181" y="-104" font-family="Helvetica,sans-Serif" font-size="10.00">Database::ASqlBackend</text>
<text text-anchor="middle" x="234" y="-93" font-family="Helvetica,sans-Serif" font-size="10.00">::storeTags</text>
</a>
</g>
</g>
<!-- Node1&#45;&gt;Node21 -->
<g id="edge12" class="edge">
<title>Node1&#45;&gt;Node21</title>
<path fill="none" stroke="#63b8ff" d="M365.04,-262.14C360,-228.61 345.44,-162.69 306,-125 302.52,-121.67 298.56,-118.81 294.34,-116.34"/>
<polygon fill="#63b8ff" stroke="#63b8ff" points="361.54,-262.33 366.34,-271.78 368.47,-261.4 361.54,-262.33"/>
</g>
<!-- Node22 -->
<g id="node13" class="node">
<title>Node22</title>
<g id="a_node13"><a xlink:href="../../d7/d06/photos__change__log__tests_8cpp.html#ad09fd0ce4c5f6a37cb3c0163bfba98ae" target="_top" xlink:title=" ">
<polygon fill="white" stroke="#666666" points="273.5,-67.5 194.5,-67.5 194.5,-48.5 273.5,-48.5 273.5,-67.5"/>
<text text-anchor="middle" x="234" y="-55.5" font-family="Helvetica,sans-Serif" font-size="10.00">TYPED_TEST</text>
</a>
</g>
</g>
<!-- Node1&#45;&gt;Node22 -->
<g id="edge13" class="edge">
<title>Node1&#45;&gt;Node22</title>
<path fill="none" stroke="#63b8ff" d="M367.57,-261.76C366.51,-220.15 358.04,-127.57 306,-77 297.4,-68.64 285.54,-63.86 273.98,-61.15"/>
<polygon fill="#63b8ff" stroke="#63b8ff" points="364.07,-261.67 367.68,-271.63 371.07,-261.59 364.07,-261.67"/>
</g>
<!-- Node23 -->
<g id="node14" class="node">
<title>Node23</title>
<g id="a_node14"><a xlink:href="../../d6/d7f/class_database_1_1_sql_filter_query_generator.html#a35fdb4e9821b85212c8a40079515cf4d" target="_top" xlink:title=" ">
<polygon fill="white" stroke="#666666" points="296,-30 172,-30 172,0 296,0 296,-30"/>
<text text-anchor="start" x="180" y="-18" font-family="Helvetica,sans-Serif" font-size="10.00">Database::SqlFilterQuery</text>
<text text-anchor="middle" x="234" y="-7" font-family="Helvetica,sans-Serif" font-size="10.00">Generator::visit</text>
</a>
</g>
</g>
<!-- Node1&#45;&gt;Node23 -->
<g id="edge14" class="edge">
<title>Node1&#45;&gt;Node23</title>
<path fill="none" stroke="#63b8ff" d="M368.39,-261.92C369.18,-215.61 364.48,-104.03 306,-40 302.56,-36.24 298.53,-33.04 294.15,-30.32"/>
<polygon fill="#63b8ff" stroke="#63b8ff" points="364.9,-261.55 368.11,-271.64 371.9,-261.75 364.9,-261.55"/>
</g>
<!-- Node12&#45;&gt;Node13 -->
<g id="edge5" class="edge">
<title>Node12&#45;&gt;Node13</title>
<path fill="none" stroke="#63b8ff" d="M159.27,-397.4C148.33,-395.98 137.15,-394.52 126.47,-393.13"/>
<polygon fill="#63b8ff" stroke="#63b8ff" points="158.68,-400.85 169.05,-398.68 159.59,-393.91 158.68,-400.85"/>
</g>
</g>
</svg>
        <g id="navigator" transform="translate(0 0)" fill="#404254">
                <rect fill="#f2f5e9" fill-opacity="0.5" stroke="#606060" stroke-width=".5" x="0" y="0" width="60" height="60"/>
                <use id="zoomplus" xlink:href="#zoomPlus" x="17" y="9" onmousedown="handleZoom(evt,'in')"/>
                <use id="zoomminus" xlink:href="#zoomMin" x="42" y="9" onmousedown="handleZoom(evt,'out')"/>
                <use id="reset" xlink:href="#resetDef" x="30" y="36" onmousedown="handleReset()"/>
                <g id="arrowUp" xlink:href="#dirArrow" transform="translate(30 24)" onmousedown="handlePan(0,-1)">
                  <use xlink:href="#rim" fill="#404040">
                        <set attributeName="fill" to="#808080" begin="arrowUp.mouseover" end="arrowUp.mouseout"/>
                  </use>
                  <path fill="none" stroke="white" stroke-width="1.5" d="M0,-3.0v7 M-2.5,-0.5L0,-3.0L2.5,-0.5"/>
                </g>
                <g id="arrowRight" xlink:href="#dirArrow" transform="rotate(90) translate(36 -43)" onmousedown="handlePan(1,0)">
                  <use xlink:href="#rim" fill="#404040">
                        <set attributeName="fill" to="#808080" begin="arrowRight.mouseover" end="arrowRight.mouseout"/>
                  </use>
                  <path fill="none" stroke="white" stroke-width="1.5" d="M0,-3.0v7 M-2.5,-0.5L0,-3.0L2.5,-0.5"/>
                </g>
                <g id="arrowDown" xlink:href="#dirArrow" transform="rotate(180) translate(-30 -48)" onmousedown="handlePan(0,1)">
                  <use xlink:href="#rim" fill="#404040">
                        <set attributeName="fill" to="#808080" begin="arrowDown.mouseover" end="arrowDown.mouseout"/>
                  </use>
                  <path fill="none" stroke="white" stroke-width="1.5" d="M0,-3.0v7 M-2.5,-0.5L0,-3.0L2.5,-0.5"/>
                </g>
                <g id="arrowLeft" xlink:href="#dirArrow" transform="rotate(270) translate(-36 17)" onmousedown="handlePan(-1,0)">
                  <use xlink:href="#rim" fill="#404040">
                        <set attributeName="fill" to="#808080" begin="arrowLeft.mouseover" end="arrowLeft.mouseout"/>
                  </use>
                  <path fill="none" stroke="white" stroke-width="1.5" d="M0,-3.0v7 M-2.5,-0.5L0,-3.0L2.5,-0.5"/>
                </g>
        </g>
        <svg viewBox="0 0 15 15" width="100%" height="30px" preserveAspectRatio="xMaxYMin meet">
         <g id="arrow_out" transform="scale(0.3 0.3)">
          <a xlink:href="class_id_ae90d3cdcd4103e44499e82622a27e4cb_icgraph_org.svg" target="_base">
           <rect id="button" ry="5" rx="5" y="6" x="6" height="38" width="38"
                fill="#f2f5e9" fill-opacity="0.5" stroke="#606060" stroke-width="1.0"/>
           <path id="arrow"
             d="M 11.500037,31.436501 C 11.940474,20.09759 22.043105,11.32322 32.158766,21.979434 L 37.068811,17.246167 C 37.068811,17.246167 37.088388,32 37.088388,32 L 22.160133,31.978069 C 22.160133,31.978069 26.997745,27.140456 26.997745,27.140456 C 18.528582,18.264221 13.291696,25.230495 11.500037,31.436501 z"
             style="fill:#404040;"/>
          </a>
         </g>
        </svg>
</svg>
