<?xml version="1.0" encoding="UTF-8" standalone="no"?>
<!DOCTYPE svg PUBLIC "-//W3C//DTD SVG 1.1//EN"
 "http://www.w3.org/Graphics/SVG/1.1/DTD/svg11.dtd">
<!-- Generated by graphviz version 12.2.0 (20241103.1931)
 -->
<!-- Title: ProjectManager Pages: 1 -->
<svg width="208pt" height="94pt"
 viewBox="0.00 0.00 208.00 93.75" xmlns="http://www.w3.org/2000/svg" xmlns:xlink="http://www.w3.org/1999/xlink">
<g id="graph0" class="graph" transform="scale(1 1) rotate(0) translate(4 89.75)">
<title>ProjectManager</title>
<!-- Node1 -->
<g id="Node000001" class="node">
<title>Node1</title>
<g id="a_Node000001"><a xlink:title=" ">
<polygon fill="#999999" stroke="#666666" points="139.75,-19.25 55.5,-19.25 55.5,0 139.75,0 139.75,-19.25"/>
<text text-anchor="middle" x="97.62" y="-5.75" font-family="Helvetica,sans-Serif" font-size="10.00">ProjectManager</text>
</a>
</g>
</g>
<!-- Node2 -->
<g id="Node000002" class="node">
<title>Node2</title>
<g id="a_Node000002"><a xlink:href="../../d7/dc8/class_i_project_manager.html" target="_top" xlink:title=" ">
<polygon fill="white" stroke="#666666" points="87.25,-85.75 0,-85.75 0,-66.5 87.25,-66.5 87.25,-85.75"/>
<text text-anchor="middle" x="43.62" y="-72.25" font-family="Helvetica,sans-Serif" font-size="10.00">IProjectManager</text>
</a>
</g>
</g>
<!-- Node2&#45;&gt;Node1 -->
<g id="edge1_Node000001_Node000002" class="edge">
<title>Node2&#45;&gt;Node1</title>
<g id="a_edge1_Node000001_Node000002"><a xlink:title=" ">
<path fill="none" stroke="#63b8ff" d="M58.29,-57.61C68.61,-45.28 81.99,-29.31 90.18,-19.52"/>
<polygon fill="#63b8ff" stroke="#63b8ff" points="55.84,-55.08 52.11,-65 61.21,-59.58 55.84,-55.08"/>
</a>
</g>
</g>
<!-- Node3 -->
<g id="Node000003" class="node">
<title>Node3</title>
<g id="a_Node000003"><a xlink:href="../../dc/d82/struct_database_1_1_i_builder.html" target="_top" xlink:title=" ">
<polygon fill="white" stroke="#666666" points="200,-85.75 105.25,-85.75 105.25,-66.5 200,-66.5 200,-85.75"/>
<text text-anchor="middle" x="152.62" y="-72.25" font-family="Helvetica,sans-Serif" font-size="10.00">Database::IBuilder</text>
</a>
</g>
</g>
<!-- Node3&#45;&gt;Node1 -->
<g id="edge2_Node000001_Node000003" class="edge">
<title>Node3&#45;&gt;Node1</title>
<g id="a_edge2_Node000001_Node000003"><a xlink:title=" ">
<path fill="none" stroke="#9a32cd" stroke-dasharray="5,2" d="M137.69,-57.61C127.18,-45.28 113.55,-29.31 105.21,-19.52"/>
<polygon fill="#9a32cd" stroke="#9a32cd" points="134.84,-59.67 144,-65 140.17,-55.12 134.84,-59.67"/>
</a>
</g>
<text text-anchor="middle" x="156.54" y="-39" font-family="Helvetica,sans-Serif" font-size="10.00" fill="grey"> m_dbBuilder</text>
</g>
</g>
</svg>
