<?xml version="1.0" encoding="UTF-8" standalone="no"?>
<!DOCTYPE svg PUBLIC "-//W3C//DTD SVG 1.1//EN"
 "http://www.w3.org/Graphics/SVG/1.1/DTD/svg11.dtd">
<!-- Generated by graphviz version 7.0.5 (20221223.1930)
 -->
<!-- Title: src/core/implementation/disk_observer.cpp Pages: 1 -->
<svg width="580pt" height="93pt"
 viewBox="0.00 0.00 580.00 93.00" xmlns="http://www.w3.org/2000/svg" xmlns:xlink="http://www.w3.org/1999/xlink">
<g id="graph0" class="graph" transform="scale(1 1) rotate(0) translate(4 89)">
<title>src/core/implementation/disk_observer.cpp</title>
<!-- Node1 -->
<g id="node1" class="node">
<title>Node1</title>
<g id="a_node1"><a xlink:title=" ">
<polygon fill="#999999" stroke="#666666" points="364,-85 243,-85 243,-55 364,-55 364,-85"/>
<text text-anchor="start" x="251" y="-73" font-family="Helvetica,sans-Serif" font-size="10.00">src/core/implementation</text>
<text text-anchor="middle" x="303.5" y="-62" font-family="Helvetica,sans-Serif" font-size="10.00">/disk_observer.cpp</text>
</a>
</g>
</g>
<!-- Node2 -->
<g id="node2" class="node">
<title>Node2</title>
<g id="a_node2"><a xlink:href="../../d2/dce/disk__observer_8hpp.html" target="_top" xlink:title=" ">
<polygon fill="#fff0f0" stroke="red" points="95,-19 0,-19 0,0 95,0 95,-19"/>
<text text-anchor="middle" x="47.5" y="-7" font-family="Helvetica,sans-Serif" font-size="10.00">disk_observer.hpp</text>
</a>
</g>
</g>
<!-- Node1&#45;&gt;Node2 -->
<g id="edge1" class="edge">
<title>Node1&#45;&gt;Node2</title>
<path fill="none" stroke="#63b8ff" d="M242.51,-55.06C198.3,-44.96 139.25,-31.47 97.75,-21.98"/>
<polygon fill="#63b8ff" stroke="#63b8ff" points="98.54,-18.57 88.01,-19.76 96.98,-25.4 98.54,-18.57"/>
</g>
<!-- Node7 -->
<g id="node3" class="node">
<title>Node7</title>
<g id="a_node3"><a xlink:title=" ">
<polygon fill="#e0e0e0" stroke="#999999" points="222,-19 113,-19 113,0 222,0 222,-19"/>
<text text-anchor="middle" x="167.5" y="-7" font-family="Helvetica,sans-Serif" font-size="10.00">QFileSystemWatcher</text>
</a>
</g>
</g>
<!-- Node1&#45;&gt;Node7 -->
<g id="edge2" class="edge">
<title>Node1&#45;&gt;Node7</title>
<path fill="none" stroke="#63b8ff" d="M269.88,-54.54C248.05,-45.15 219.79,-32.99 198.5,-23.83"/>
<polygon fill="#63b8ff" stroke="#63b8ff" points="200.03,-20.68 189.46,-19.94 197.26,-27.11 200.03,-20.68"/>
</g>
<!-- Node8 -->
<g id="node4" class="node">
<title>Node8</title>
<g id="a_node4"><a xlink:title=" ">
<polygon fill="#e0e0e0" stroke="#999999" points="289,-19 240,-19 240,0 289,0 289,-19"/>
<text text-anchor="middle" x="264.5" y="-7" font-family="Helvetica,sans-Serif" font-size="10.00">QTimer</text>
</a>
</g>
</g>
<!-- Node1&#45;&gt;Node8 -->
<g id="edge3" class="edge">
<title>Node1&#45;&gt;Node8</title>
<path fill="none" stroke="#63b8ff" d="M293.86,-54.54C288.66,-46.74 282.18,-37.03 276.64,-28.71"/>
<polygon fill="#63b8ff" stroke="#63b8ff" points="279.58,-26.81 271.12,-20.43 273.76,-30.7 279.58,-26.81"/>
</g>
<!-- Node9 -->
<g id="node5" class="node">
<title>Node9</title>
<g id="a_node5"><a xlink:title=" ">
<polygon fill="#e0e0e0" stroke="#999999" points="378,-19 307,-19 307,0 378,0 378,-19"/>
<text text-anchor="middle" x="342.5" y="-7" font-family="Helvetica,sans-Serif" font-size="10.00">QEventLoop</text>
</a>
</g>
</g>
<!-- Node1&#45;&gt;Node9 -->
<g id="edge4" class="edge">
<title>Node1&#45;&gt;Node9</title>
<path fill="none" stroke="#63b8ff" d="M313.14,-54.54C318.34,-46.74 324.82,-37.03 330.36,-28.71"/>
<polygon fill="#63b8ff" stroke="#63b8ff" points="333.24,-30.7 335.88,-20.43 327.42,-26.81 333.24,-30.7"/>
</g>
<!-- Node10 -->
<g id="node6" class="node">
<title>Node10</title>
<g id="a_node6"><a xlink:title=" ">
<polygon fill="#e0e0e0" stroke="#999999" points="452.5,-19 396.5,-19 396.5,0 452.5,0 452.5,-19"/>
<text text-anchor="middle" x="424.5" y="-7" font-family="Helvetica,sans-Serif" font-size="10.00">QFileInfo</text>
</a>
</g>
</g>
<!-- Node1&#45;&gt;Node10 -->
<g id="edge5" class="edge">
<title>Node1&#45;&gt;Node10</title>
<path fill="none" stroke="#63b8ff" d="M333.41,-54.54C352.48,-45.32 377.06,-33.44 395.87,-24.34"/>
<polygon fill="#63b8ff" stroke="#63b8ff" points="397.36,-27.51 404.84,-20 394.31,-21.21 397.36,-27.51"/>
</g>
<!-- Node11 -->
<g id="node7" class="node">
<title>Node11</title>
<g id="a_node7"><a xlink:title=" ">
<polygon fill="#e0e0e0" stroke="#999999" points="572,-19 471,-19 471,0 572,0 572,-19"/>
<text text-anchor="middle" x="521.5" y="-7" font-family="Helvetica,sans-Serif" font-size="10.00">QEventLoopLocker</text>
</a>
</g>
</g>
<!-- Node1&#45;&gt;Node11 -->
<g id="edge6" class="edge">
<title>Node1&#45;&gt;Node11</title>
<path fill="none" stroke="#63b8ff" d="M357.39,-54.54C394.36,-44.62 442.82,-31.61 477.48,-22.31"/>
<polygon fill="#63b8ff" stroke="#63b8ff" points="478,-25.8 486.75,-19.82 476.19,-19.04 478,-25.8"/>
</g>
</g>
</svg>
