<?xml version="1.0" encoding="UTF-8" standalone="no"?>
<!DOCTYPE svg PUBLIC "-//W3C//DTD SVG 1.1//EN"
 "http://www.w3.org/Graphics/SVG/1.1/DTD/svg11.dtd">
<!-- Generated by graphviz version 12.2.0 (20241103.1931)
 -->
<!-- Title: FaceEditor::findFaces Pages: 1 -->
<svg width="312pt" height="346pt"
 viewBox="0.00 0.00 311.50 345.88" xmlns="http://www.w3.org/2000/svg" xmlns:xlink="http://www.w3.org/1999/xlink">
<g id="graph0" class="graph" transform="scale(1 1) rotate(0) translate(4 341.88)">
<title>FaceEditor::findFaces</title>
<!-- Node1 -->
<g id="Node000001" class="node">
<title>Node1</title>
<g id="a_Node000001"><a xlink:title=" ">
<polygon fill="#999999" stroke="#666666" points="109,-180.88 0,-180.88 0,-161.62 109,-161.62 109,-180.88"/>
<text text-anchor="middle" x="54.5" y="-167.38" font-family="Helvetica,sans-Serif" font-size="10.00">FaceEditor::findFaces</text>
</a>
</g>
</g>
<!-- Node2 -->
<g id="Node000002" class="node">
<title>Node2</title>
<g id="a_Node000002"><a xlink:href="../../d4/d20/task__executor__utils_8hpp.html#a3f0aa9b30c11096d7aa5e0e982b1c7a5" target="_top" xlink:title=" ">
<polygon fill="white" stroke="#666666" points="250.62,-337.88 197.88,-337.88 197.88,-318.62 250.62,-318.62 250.62,-337.88"/>
<text text-anchor="middle" x="224.25" y="-324.38" font-family="Helvetica,sans-Serif" font-size="10.00">evaluate</text>
</a>
</g>
</g>
<!-- Node1&#45;&gt;Node2 -->
<g id="edge1_Node000001_Node000002" class="edge">
<title>Node1&#45;&gt;Node2</title>
<g id="a_edge1_Node000001_Node000002"><a xlink:title=" ">
<path fill="none" stroke="#63b8ff" d="M58.92,-181.09C68.3,-206.6 97.02,-275.22 145,-309.25 157.03,-317.78 172.43,-322.51 186.38,-325.11"/>
<polygon fill="#63b8ff" stroke="#63b8ff" points="185.74,-328.56 196.15,-326.62 186.8,-321.64 185.74,-328.56"/>
</a>
</g>
</g>
<!-- Node3 -->
<g id="Node000003" class="node">
<title>Node3</title>
<g id="a_Node000003"><a xlink:href="../../d7/da9/struct_database_1_1_i_database.html#ac86cb641a8f5a37a00873df333bb12bb" target="_top" xlink:title=" ">
<polygon fill="#fff0f0" stroke="red" points="277.25,-300.5 171.25,-300.5 171.25,-270 277.25,-270 277.25,-300.5"/>
<text text-anchor="start" x="179.25" y="-287" font-family="Helvetica,sans-Serif" font-size="10.00">Database::IDatabase</text>
<text text-anchor="middle" x="224.25" y="-275.75" font-family="Helvetica,sans-Serif" font-size="10.00">::exec</text>
</a>
</g>
</g>
<!-- Node1&#45;&gt;Node3 -->
<g id="edge2_Node000001_Node000003" class="edge">
<title>Node1&#45;&gt;Node3</title>
<g id="a_edge2_Node000001_Node000003"><a xlink:title=" ">
<path fill="none" stroke="#63b8ff" d="M62.96,-181.35C77.01,-199.67 109.23,-238.52 145,-260.25 149.83,-263.18 155.04,-265.81 160.39,-268.15"/>
<polygon fill="#63b8ff" stroke="#63b8ff" points="158.81,-271.29 169.4,-271.74 161.41,-264.79 158.81,-271.29"/>
</a>
</g>
</g>
<!-- Node6 -->
<g id="Node000006" class="node">
<title>Node6</title>
<g id="a_Node000006"><a xlink:href="../../d2/dbd/namespace_database_1_1_common_general_flags.html#afc9e76cdb4731506c7f06857205615e7" target="_top" xlink:title=" ">
<polygon fill="white" stroke="#666666" points="303.5,-251.5 145,-251.5 145,-221 303.5,-221 303.5,-251.5"/>
<text text-anchor="start" x="153" y="-238" font-family="Helvetica,sans-Serif" font-size="10.00">Database::CommonGeneralFlags</text>
<text text-anchor="middle" x="224.25" y="-226.75" font-family="Helvetica,sans-Serif" font-size="10.00">::FacesAnalysisState</text>
</a>
</g>
</g>
<!-- Node1&#45;&gt;Node6 -->
<g id="edge3_Node000001_Node000006" class="edge">
<title>Node1&#45;&gt;Node6</title>
<g id="a_edge3_Node000001_Node000006"><a xlink:title=" ">
<path fill="none" stroke="#63b8ff" d="M75.44,-181.3C93.36,-190.12 120.56,-202.95 145,-212.25 149.14,-213.83 153.43,-215.37 157.78,-216.88"/>
<polygon fill="#63b8ff" stroke="#63b8ff" points="156.6,-220.17 167.2,-220.03 158.83,-213.54 156.6,-220.17"/>
</a>
</g>
</g>
<!-- Node7 -->
<g id="Node000007" class="node">
<title>Node7</title>
<g id="a_Node000007"><a xlink:href="../../db/d29/class_photo_1_1_explicit_delta.html#aa17dc0e526caaa840d26a44e3b0d9b40" target="_top" xlink:title=" ">
<polygon fill="#fff0f0" stroke="red" points="282.88,-202.88 165.62,-202.88 165.62,-183.62 282.88,-183.62 282.88,-202.88"/>
<text text-anchor="middle" x="224.25" y="-189.38" font-family="Helvetica,sans-Serif" font-size="10.00">Photo::ExplicitDelta::get</text>
</a>
</g>
</g>
<!-- Node1&#45;&gt;Node7 -->
<g id="edge4_Node000001_Node000007" class="edge">
<title>Node1&#45;&gt;Node7</title>
<g id="a_edge4_Node000001_Node000007"><a xlink:title=" ">
<path fill="none" stroke="#63b8ff" d="M109.04,-178.27C123.33,-180.15 138.97,-182.2 153.98,-184.16"/>
<polygon fill="#63b8ff" stroke="#63b8ff" points="153.42,-187.62 163.79,-185.45 154.33,-180.68 153.42,-187.62"/>
</a>
</g>
</g>
<!-- Node11 -->
<g id="Node000011" class="node">
<title>Node11</title>
<g id="a_Node000011"><a xlink:href="../../db/d29/class_photo_1_1_explicit_delta.html#a17a99123198a14dfec77677700c8d2ad" target="_top" xlink:title=" ">
<polygon fill="#fff0f0" stroke="red" points="273.88,-165.5 174.62,-165.5 174.62,-135 273.88,-135 273.88,-165.5"/>
<text text-anchor="start" x="182.62" y="-152" font-family="Helvetica,sans-Serif" font-size="10.00">Photo::ExplicitDelta</text>
<text text-anchor="middle" x="224.25" y="-140.75" font-family="Helvetica,sans-Serif" font-size="10.00">::getId</text>
</a>
</g>
</g>
<!-- Node1&#45;&gt;Node11 -->
<g id="edge5_Node000001_Node000011" class="edge">
<title>Node1&#45;&gt;Node11</title>
<g id="a_edge5_Node000001_Node000011"><a xlink:title=" ">
<path fill="none" stroke="#63b8ff" d="M109.04,-164.55C126.19,-162.4 145.29,-160.01 162.89,-157.81"/>
<polygon fill="#63b8ff" stroke="#63b8ff" points="163.21,-161.29 172.7,-156.58 162.34,-154.35 163.21,-161.29"/>
</a>
</g>
</g>
<!-- Node13 -->
<g id="Node000013" class="node">
<title>Node13</title>
<g id="a_Node000013"><a xlink:href="../../d2/ddd/struct_database_1_1_i_backend.html#ac762cc3e374776d405c5854a0d7e02d2" target="_top" xlink:title="fetch photo data">
<polygon fill="white" stroke="#666666" points="275.75,-116.5 172.75,-116.5 172.75,-86 275.75,-86 275.75,-116.5"/>
<text text-anchor="start" x="180.75" y="-103" font-family="Helvetica,sans-Serif" font-size="10.00">Database::IBackend</text>
<text text-anchor="middle" x="224.25" y="-91.75" font-family="Helvetica,sans-Serif" font-size="10.00">::getPhotoDelta</text>
</a>
</g>
</g>
<!-- Node1&#45;&gt;Node13 -->
<g id="edge6_Node000001_Node000013" class="edge">
<title>Node1&#45;&gt;Node13</title>
<g id="a_edge6_Node000001_Node000013"><a xlink:title=" ">
<path fill="none" stroke="#63b8ff" d="M73.28,-161.27C91.07,-151.53 119.4,-136.7 145,-126.25 150.31,-124.08 155.88,-121.98 161.51,-119.97"/>
<polygon fill="#63b8ff" stroke="#63b8ff" points="162.58,-123.3 170.89,-116.74 160.3,-116.69 162.58,-123.3"/>
</a>
</g>
</g>
<!-- Node14 -->
<g id="Node000014" class="node">
<title>Node14</title>
<g id="a_Node000014"><a xlink:href="../../d2/ddd/struct_database_1_1_i_backend.html#a1e061ef0e8b1c3645f134171c4869bba" target="_top" xlink:title="set flag for photo to given value">
<polygon fill="white" stroke="#666666" points="284.75,-67.88 163.75,-67.88 163.75,-48.62 284.75,-48.62 284.75,-67.88"/>
<text text-anchor="middle" x="224.25" y="-54.38" font-family="Helvetica,sans-Serif" font-size="10.00">Database::IBackend::set</text>
</a>
</g>
</g>
<!-- Node1&#45;&gt;Node14 -->
<g id="edge7_Node000001_Node000014" class="edge">
<title>Node1&#45;&gt;Node14</title>
<g id="a_edge7_Node000001_Node000014"><a xlink:title=" ">
<path fill="none" stroke="#63b8ff" d="M62.05,-161.23C75.27,-141.83 107.15,-99.12 145,-77.25 148.15,-75.43 151.46,-73.79 154.88,-72.3"/>
<polygon fill="#63b8ff" stroke="#63b8ff" points="155.86,-75.67 163.95,-68.83 153.36,-69.13 155.86,-75.67"/>
</a>
</g>
</g>
<!-- Node15 -->
<g id="Node000015" class="node">
<title>Node15</title>
<g id="a_Node000015"><a xlink:href="../../d2/ddd/struct_database_1_1_i_backend.html#a54e72b2ef4e7cde71e7be3b7fd70c03e" target="_top" xlink:title="update photos details">
<polygon fill="white" stroke="#666666" points="275.75,-30.5 172.75,-30.5 172.75,0 275.75,0 275.75,-30.5"/>
<text text-anchor="start" x="180.75" y="-17" font-family="Helvetica,sans-Serif" font-size="10.00">Database::IBackend</text>
<text text-anchor="middle" x="224.25" y="-5.75" font-family="Helvetica,sans-Serif" font-size="10.00">::update</text>
</a>
</g>
</g>
<!-- Node1&#45;&gt;Node15 -->
<g id="edge8_Node000001_Node000015" class="edge">
<title>Node1&#45;&gt;Node15</title>
<g id="a_edge8_Node000001_Node000015"><a xlink:title=" ">
<path fill="none" stroke="#63b8ff" d="M59.45,-161.28C69.71,-136.71 99.57,-72.81 145,-39.25 150.2,-35.41 156.02,-32.18 162.08,-29.46"/>
<polygon fill="#63b8ff" stroke="#63b8ff" points="163.02,-32.85 171.02,-25.9 160.44,-26.34 163.02,-32.85"/>
</a>
</g>
</g>
</g>
</svg>
