<?xml version="1.0" encoding="UTF-8" standalone="no"?>
<!DOCTYPE svg PUBLIC "-//W3C//DTD SVG 1.1//EN"
 "http://www.w3.org/Graphics/SVG/1.1/DTD/svg11.dtd">
<!-- Generated by graphviz version 9.0.0 (20230911.1827)
 -->
<!-- Title: FaceEditor::findFaces Pages: 1 -->
<svg width="312pt" height="309pt"
 viewBox="0.00 0.00 311.50 308.50" xmlns="http://www.w3.org/2000/svg" xmlns:xlink="http://www.w3.org/1999/xlink">
<g id="graph0" class="graph" transform="scale(1 1) rotate(0) translate(4 304.5)">
<title>FaceEditor::findFaces</title>
<!-- Node1 -->
<g id="Node000001" class="node">
<title>Node1</title>
<g id="a_Node000001"><a xlink:title=" ">
<polygon fill="#999999" stroke="#666666" points="109,-159.88 0,-159.88 0,-140.62 109,-140.62 109,-159.88"/>
<text text-anchor="middle" x="54.5" y="-146.38" font-family="Helvetica,sans-Serif" font-size="10.00">FaceEditor::findFaces</text>
</a>
</g>
</g>
<!-- Node2 -->
<g id="Node000002" class="node">
<title>Node2</title>
<g id="a_Node000002"><a xlink:href="../../d7/da9/struct_database_1_1_i_database.html#ac86cb641a8f5a37a00873df333bb12bb" target="_top" xlink:title=" ">
<polygon fill="#fff0f0" stroke="red" points="277.25,-300.5 171.25,-300.5 171.25,-270 277.25,-270 277.25,-300.5"/>
<text text-anchor="start" x="179.25" y="-287" font-family="Helvetica,sans-Serif" font-size="10.00">Database::IDatabase</text>
<text text-anchor="middle" x="224.25" y="-275.75" font-family="Helvetica,sans-Serif" font-size="10.00">::exec</text>
</a>
</g>
</g>
<!-- Node1&#45;&gt;Node2 -->
<g id="edge1_Node000001_Node000002" class="edge">
<title>Node1&#45;&gt;Node2</title>
<g id="a_edge1_Node000001_Node000002"><a xlink:title=" ">
<path fill="none" stroke="#63b8ff" d="M60.82,-160.08C72.89,-181.49 104.52,-232.65 145,-260.25 149.74,-263.48 154.92,-266.31 160.29,-268.8"/>
<polygon fill="#63b8ff" stroke="#63b8ff" points="158.8,-271.97 169.37,-272.56 161.48,-265.5 158.8,-271.97"/>
</a>
</g>
</g>
<!-- Node5 -->
<g id="Node000005" class="node">
<title>Node5</title>
<g id="a_Node000005"><a xlink:href="../../d2/dbd/namespace_database_1_1_common_general_flags.html#afc9e76cdb4731506c7f06857205615e7" target="_top" xlink:title=" ">
<polygon fill="white" stroke="#666666" points="303.5,-251.5 145,-251.5 145,-221 303.5,-221 303.5,-251.5"/>
<text text-anchor="start" x="153" y="-238" font-family="Helvetica,sans-Serif" font-size="10.00">Database::CommonGeneralFlags</text>
<text text-anchor="middle" x="224.25" y="-226.75" font-family="Helvetica,sans-Serif" font-size="10.00">::FacesAnalysisState</text>
</a>
</g>
</g>
<!-- Node1&#45;&gt;Node5 -->
<g id="edge2_Node000001_Node000005" class="edge">
<title>Node1&#45;&gt;Node5</title>
<g id="a_edge2_Node000001_Node000005"><a xlink:title=" ">
<path fill="none" stroke="#63b8ff" d="M67.21,-160.15C83.64,-173.6 114.9,-197.65 145,-212.25 147.94,-213.67 150.98,-215.04 154.08,-216.34"/>
<polygon fill="#63b8ff" stroke="#63b8ff" points="152.79,-219.59 163.38,-219.96 155.33,-213.07 152.79,-219.59"/>
</a>
</g>
</g>
<!-- Node6 -->
<g id="Node000006" class="node">
<title>Node6</title>
<g id="a_Node000006"><a xlink:href="../../db/d29/class_photo_1_1_explicit_delta.html#aa17dc0e526caaa840d26a44e3b0d9b40" target="_top" xlink:title=" ">
<polygon fill="#fff0f0" stroke="red" points="282.88,-202.88 165.62,-202.88 165.62,-183.62 282.88,-183.62 282.88,-202.88"/>
<text text-anchor="middle" x="224.25" y="-189.38" font-family="Helvetica,sans-Serif" font-size="10.00">Photo::ExplicitDelta::get</text>
</a>
</g>
</g>
<!-- Node1&#45;&gt;Node6 -->
<g id="edge3_Node000001_Node000006" class="edge">
<title>Node1&#45;&gt;Node6</title>
<g id="a_edge3_Node000001_Node000006"><a xlink:title=" ">
<path fill="none" stroke="#63b8ff" d="M92.46,-160.37C108.57,-164.73 127.7,-169.83 145,-174.25 153.01,-176.3 161.49,-178.41 169.8,-180.45"/>
<polygon fill="#63b8ff" stroke="#63b8ff" points="168.95,-183.85 179.5,-182.82 170.61,-177.05 168.95,-183.85"/>
</a>
</g>
</g>
<!-- Node8 -->
<g id="Node000008" class="node">
<title>Node8</title>
<g id="a_Node000008"><a xlink:href="../../db/d29/class_photo_1_1_explicit_delta.html#a17a99123198a14dfec77677700c8d2ad" target="_top" xlink:title=" ">
<polygon fill="#fff0f0" stroke="red" points="273.88,-165.5 174.62,-165.5 174.62,-135 273.88,-135 273.88,-165.5"/>
<text text-anchor="start" x="182.62" y="-152" font-family="Helvetica,sans-Serif" font-size="10.00">Photo::ExplicitDelta</text>
<text text-anchor="middle" x="224.25" y="-140.75" font-family="Helvetica,sans-Serif" font-size="10.00">::getId</text>
</a>
</g>
</g>
<!-- Node1&#45;&gt;Node8 -->
<g id="edge4_Node000001_Node000008" class="edge">
<title>Node1&#45;&gt;Node8</title>
<g id="a_edge4_Node000001_Node000008"><a xlink:title=" ">
<path fill="none" stroke="#63b8ff" d="M109.04,-150.25C126.19,-150.25 145.29,-150.25 162.89,-150.25"/>
<polygon fill="#63b8ff" stroke="#63b8ff" points="162.69,-153.75 172.69,-150.25 162.69,-146.75 162.69,-153.75"/>
</a>
</g>
</g>
<!-- Node10 -->
<g id="Node000010" class="node">
<title>Node10</title>
<g id="a_Node000010"><a xlink:href="../../d2/ddd/struct_database_1_1_i_backend.html#a439e4f41fce9b9d813000bbcb4c59523" target="_top" xlink:title=" ">
<polygon fill="white" stroke="#666666" points="275.75,-116.5 172.75,-116.5 172.75,-86 275.75,-86 275.75,-116.5"/>
<text text-anchor="start" x="180.75" y="-103" font-family="Helvetica,sans-Serif" font-size="10.00">Database::IBackend</text>
<text text-anchor="middle" x="224.25" y="-91.75" font-family="Helvetica,sans-Serif" font-size="10.00">::getPhotoDelta</text>
</a>
</g>
</g>
<!-- Node1&#45;&gt;Node10 -->
<g id="edge5_Node000001_Node000010" class="edge">
<title>Node1&#45;&gt;Node10</title>
<g id="a_edge5_Node000001_Node000010"><a xlink:title=" ">
<path fill="none" stroke="#63b8ff" d="M89.85,-140.22C110.47,-134.19 137.3,-126.36 161.49,-119.29"/>
<polygon fill="#63b8ff" stroke="#63b8ff" points="162.32,-122.7 170.93,-116.53 160.35,-115.98 162.32,-122.7"/>
</a>
</g>
</g>
<!-- Node11 -->
<g id="Node000011" class="node">
<title>Node11</title>
<g id="a_Node000011"><a xlink:href="../../d2/ddd/struct_database_1_1_i_backend.html#a1e061ef0e8b1c3645f134171c4869bba" target="_top" xlink:title="set flag for photo to given value">
<polygon fill="white" stroke="#666666" points="284.75,-67.88 163.75,-67.88 163.75,-48.62 284.75,-48.62 284.75,-67.88"/>
<text text-anchor="middle" x="224.25" y="-54.38" font-family="Helvetica,sans-Serif" font-size="10.00">Database::IBackend::set</text>
</a>
</g>
</g>
<!-- Node1&#45;&gt;Node11 -->
<g id="edge6_Node000001_Node000011" class="edge">
<title>Node1&#45;&gt;Node11</title>
<g id="a_edge6_Node000001_Node000011"><a xlink:title=" ">
<path fill="none" stroke="#63b8ff" d="M64.67,-140.33C79.83,-124.53 111.78,-93.76 145,-77.25 148.97,-75.28 153.16,-73.5 157.45,-71.9"/>
<polygon fill="#63b8ff" stroke="#63b8ff" points="158.45,-75.26 166.83,-68.77 156.23,-68.62 158.45,-75.26"/>
</a>
</g>
</g>
<!-- Node12 -->
<g id="Node000012" class="node">
<title>Node12</title>
<g id="a_Node000012"><a xlink:href="../../d2/ddd/struct_database_1_1_i_backend.html#a54e72b2ef4e7cde71e7be3b7fd70c03e" target="_top" xlink:title="update photos details">
<polygon fill="white" stroke="#666666" points="275.75,-30.5 172.75,-30.5 172.75,0 275.75,0 275.75,-30.5"/>
<text text-anchor="start" x="180.75" y="-17" font-family="Helvetica,sans-Serif" font-size="10.00">Database::IBackend</text>
<text text-anchor="middle" x="224.25" y="-5.75" font-family="Helvetica,sans-Serif" font-size="10.00">::update</text>
</a>
</g>
</g>
<!-- Node1&#45;&gt;Node12 -->
<g id="edge7_Node000001_Node000012" class="edge">
<title>Node1&#45;&gt;Node12</title>
<g id="a_edge7_Node000001_Node000012"><a xlink:title=" ">
<path fill="none" stroke="#63b8ff" d="M60.77,-140.3C72.75,-118.62 104.2,-66.86 145,-39.25 150.15,-35.77 155.82,-32.77 161.69,-30.2"/>
<polygon fill="#63b8ff" stroke="#63b8ff" points="162.95,-33.47 170.99,-26.57 160.4,-26.95 162.95,-33.47"/>
</a>
</g>
</g>
</g>
</svg>
