<?xml version="1.0" encoding="UTF-8" standalone="no"?>
<!DOCTYPE svg PUBLIC "-//W3C//DTD SVG 1.1//EN"
 "http://www.w3.org/Graphics/SVG/1.1/DTD/svg11.dtd">
<!-- Generated by graphviz version 7.0.5 (20221223.1930)
 -->
<!-- Title: ol::data_ptr::data_ptr Pages: 1 -->
<svg width="237pt" height="45pt"
 viewBox="0.00 0.00 237.00 45.00" xmlns="http://www.w3.org/2000/svg" xmlns:xlink="http://www.w3.org/1999/xlink">
<g id="graph0" class="graph" transform="scale(1 1) rotate(0) translate(4 41)">
<title>ol::data_ptr::data_ptr</title>
<!-- Node1 -->
<g id="node1" class="node">
<title>Node1</title>
<g id="a_node1"><a xlink:title="Copy constructor.">
<polygon fill="#999999" stroke="#666666" points="104,-19 0,-19 0,0 104,0 104,-19"/>
<text text-anchor="middle" x="52" y="-7" font-family="Helvetica,sans-Serif" font-size="10.00">ol::data_ptr::data_ptr</text>
</a>
</g>
</g>
<!-- Node2 -->
<g id="node2" class="node">
<title>Node2</title>
<g id="a_node2"><a xlink:href="../../d1/da1/classol_1_1data__ptr.html#a63823ed63077e7c35a4089c7ac936287" target="_top" xlink:title=" ">
<polygon fill="white" stroke="#666666" points="229,-19 140,-19 140,0 229,0 229,-19"/>
<text text-anchor="middle" x="184.5" y="-7" font-family="Helvetica,sans-Serif" font-size="10.00">ol::data_ptr::copy</text>
</a>
</g>
</g>
<!-- Node1&#45;&gt;Node2 -->
<g id="edge1" class="edge">
<title>Node1&#45;&gt;Node2</title>
<path fill="none" stroke="#63b8ff" d="M104.2,-9.5C112.07,-9.5 120.22,-9.5 128.18,-9.5"/>
<polygon fill="#63b8ff" stroke="#63b8ff" points="128.11,-13 138.11,-9.5 128.11,-6 128.11,-13"/>
</g>
<!-- Node2&#45;&gt;Node2 -->
<g id="edge2" class="edge">
<title>Node2&#45;&gt;Node2</title>
<path fill="none" stroke="#63b8ff" d="M163.76,-19.37C154.29,-27.94 161.21,-37 184.5,-37 197.24,-37 205.08,-34.29 208.02,-30.43"/>
<polygon fill="#63b8ff" stroke="#63b8ff" points="211.44,-29.68 205.61,-20.84 204.65,-31.39 211.44,-29.68"/>
</g>
</g>
</svg>
