<?xml version="1.0" encoding="UTF-8" standalone="no"?>
<!DOCTYPE svg PUBLIC "-//W3C//DTD SVG 1.1//EN"
 "http://www.w3.org/Graphics/SVG/1.1/DTD/svg11.dtd">
<!-- Generated by graphviz version 9.0.0 (20230911.1827)
 -->
<!-- Title: ol::data_ptr::copy Pages: 1 -->
<svg width="241pt" height="64pt"
 viewBox="0.00 0.00 241.00 64.25" xmlns="http://www.w3.org/2000/svg" xmlns:xlink="http://www.w3.org/1999/xlink">

<svg id="main" version="1.1" xmlns="http://www.w3.org/2000/svg" xmlns:xlink="http://www.w3.org/1999/xlink" xml:space="preserve" onload="init(evt)">
<style type="text/css"><![CDATA[
.node, .edge {opacity: 0.7;}
.node.selected, .edge.selected {opacity: 1;}
.edge:hover path { stroke: red; }
.edge:hover polygon { stroke: red; fill: red; }
]]></style>
<script type="application/ecmascript" xlink:href="../../svg.min.js"/>
<svg id="graph" class="graph">
<g id="graph0" class="graph" transform="scale(1 1) rotate(0) translate(4 60.25)">
<title>ol::data_ptr::copy</title>
<!-- Node1 -->
<g id="Node000001" class="node">
<title>Node1</title>
<g id="a_Node000001"><a xlink:title=" ">
<polygon fill="#999999" stroke="#666666" points="233,-37.25 145,-37.25 145,-18 233,-18 233,-37.25"/>
<text text-anchor="middle" x="189" y="-23.75" font-family="Helvetica,sans-Serif" font-size="10.00">ol::data_ptr::copy</text>
</a>
</g>
</g>
<!-- Node1&#45;&gt;Node1 -->
<g id="edge1_Node000001_Node000001" class="edge">
<title>Node1&#45;&gt;Node1</title>
<g id="a_edge1_Node000001_Node000001"><a xlink:title=" ">
<path fill="none" stroke="#63b8ff" d="M212.87,-48.65C209.89,-52.53 201.93,-55.25 189,-55.25 165.36,-55.25 158.34,-46.15 167.94,-37.54"/>
<polygon fill="#63b8ff" stroke="#63b8ff" points="216.28,-47.84 210.43,-39.01 209.49,-49.56 216.28,-47.84"/>
</a>
</g>
</g>
<!-- Node2 -->
<g id="Node000002" class="node">
<title>Node2</title>
<g id="a_Node000002"><a xlink:href="../../d1/da1/classol_1_1data__ptr.html#a132d6e2f244ed6aca2f8368cc9eaaaba" target="_top" xlink:title="Copy constructor.">
<polygon fill="white" stroke="#666666" points="106,-56.25 3,-56.25 3,-37 106,-37 106,-56.25"/>
<text text-anchor="middle" x="54.5" y="-42.75" font-family="Helvetica,sans-Serif" font-size="10.00">ol::data_ptr::data_ptr</text>
</a>
</g>
</g>
<!-- Node1&#45;&gt;Node2 -->
<g id="edge2_Node000001_Node000002" class="edge">
<title>Node1&#45;&gt;Node2</title>
<g id="a_edge2_Node000001_Node000002"><a xlink:title=" ">
<path fill="none" stroke="#63b8ff" d="M133.46,-35.45C124.49,-36.73 115.23,-38.06 106.35,-39.33"/>
<polygon fill="#63b8ff" stroke="#63b8ff" points="133.71,-38.95 143.12,-34.06 132.72,-32.02 133.71,-38.95"/>
</a>
</g>
</g>
<!-- Node3 -->
<g id="Node000003" class="node">
<title>Node3</title>
<g id="a_Node000003"><a xlink:href="../../d1/da1/classol_1_1data__ptr.html#a0cf9c36938b77fa9245cdcae9384d4ba" target="_top" xlink:title=" ">
<polygon fill="white" stroke="#666666" points="109,-19.25 0,-19.25 0,0 109,0 109,-19.25"/>
<text text-anchor="middle" x="54.5" y="-5.75" font-family="Helvetica,sans-Serif" font-size="10.00">ol::data_ptr::operator=</text>
</a>
</g>
</g>
<!-- Node1&#45;&gt;Node3 -->
<g id="edge3_Node000001_Node000003" class="edge">
<title>Node1&#45;&gt;Node3</title>
<g id="a_edge3_Node000001_Node000003"><a xlink:title=" ">
<path fill="none" stroke="#63b8ff" d="M133.47,-20.22C125.45,-19.13 117.18,-18 109.17,-16.92"/>
<polygon fill="#63b8ff" stroke="#63b8ff" points="132.73,-23.65 143.11,-21.53 133.68,-16.71 132.73,-23.65"/>
</a>
</g>
</g>
</g>
</svg>
</svg>

<style type='text/css'>
<![CDATA[
[data-mouse-over-selected='false'] { opacity: 0.7; }
[data-mouse-over-selected='true']  { opacity: 1.0; }
]]>
</style>
<script type="application/ecmascript"><![CDATA[
document.addEventListener('DOMContentLoaded', (event) => {
  highlightEdges();
  highlightAdjacentNodes();
});
]]></script>
</svg>
