<?xml version="1.0" encoding="UTF-8" standalone="no"?>
<!DOCTYPE svg PUBLIC "-//W3C//DTD SVG 1.1//EN"
 "http://www.w3.org/Graphics/SVG/1.1/DTD/svg11.dtd">
<!-- Generated by graphviz version 7.0.5 (20221223.1930)
 -->
<!-- Title: Database::SqlQueryExecutor::exec Pages: 1 -->
<svg width="324pt" height="142pt"
 viewBox="0.00 0.00 324.00 141.50" xmlns="http://www.w3.org/2000/svg" xmlns:xlink="http://www.w3.org/1999/xlink">
<g id="graph0" class="graph" transform="scale(1 1) rotate(0) translate(4 137.5)">
<title>Database::SqlQueryExecutor::exec</title>
<!-- Node1 -->
<g id="node1" class="node">
<title>Node1</title>
<g id="a_node1"><a xlink:title=" ">
<polygon fill="#999999" stroke="#666666" points="140,-78 0,-78 0,-48 140,-48 140,-78"/>
<text text-anchor="start" x="8" y="-66" font-family="Helvetica,sans-Serif" font-size="10.00">Database::SqlQueryExecutor</text>
<text text-anchor="middle" x="70" y="-55" font-family="Helvetica,sans-Serif" font-size="10.00">::exec</text>
</a>
</g>
</g>
<!-- Node2 -->
<g id="node2" class="node">
<title>Node2</title>
<g id="a_node2"><a xlink:href="../../df/ddd/struct_i_logger.html#ad09119105074eaeb5a6230bbc240e4f1" target="_top" xlink:title=" ">
<polygon fill="white" stroke="#666666" points="283,-133.5 209,-133.5 209,-114.5 283,-114.5 283,-133.5"/>
<text text-anchor="middle" x="246" y="-121.5" font-family="Helvetica,sans-Serif" font-size="10.00">ILogger::error</text>
</a>
</g>
</g>
<!-- Node1&#45;&gt;Node2 -->
<g id="edge1" class="edge">
<title>Node1&#45;&gt;Node2</title>
<path fill="none" stroke="#63b8ff" d="M106.59,-78.39C126.75,-86.81 152.55,-97.11 176,-105 182.96,-107.34 190.38,-109.62 197.69,-111.73"/>
<polygon fill="#63b8ff" stroke="#63b8ff" points="196.57,-115.05 207.14,-114.39 198.46,-108.31 196.57,-115.05"/>
</g>
<!-- Node3 -->
<g id="node3" class="node">
<title>Node3</title>
<g id="a_node3"><a xlink:href="../../d3/d47/class_database_1_1_sql_query_executor.html#a92b20d0dac92b5fa49b9184f8e341a94" target="_top" xlink:title=" ">
<polygon fill="white" stroke="#666666" points="316,-78 176,-78 176,-48 316,-48 316,-78"/>
<text text-anchor="start" x="184" y="-66" font-family="Helvetica,sans-Serif" font-size="10.00">Database::SqlQueryExecutor</text>
<text text-anchor="middle" x="246" y="-55" font-family="Helvetica,sans-Serif" font-size="10.00">::exec</text>
</a>
</g>
</g>
<!-- Node1&#45;&gt;Node3 -->
<g id="edge2" class="edge">
<title>Node1&#45;&gt;Node3</title>
<path fill="none" stroke="#63b8ff" d="M140.27,-63C148.19,-63 156.32,-63 164.38,-63"/>
<polygon fill="#63b8ff" stroke="#63b8ff" points="164.17,-66.5 174.17,-63 164.17,-59.5 164.17,-66.5"/>
</g>
<!-- Node4 -->
<g id="node4" class="node">
<title>Node4</title>
<g id="a_node4"><a xlink:href="../../d3/d47/class_database_1_1_sql_query_executor.html#a55229c876fd922f14c9a81628dec3e1d" target="_top" xlink:title=" ">
<polygon fill="white" stroke="#666666" points="316,-30 176,-30 176,0 316,0 316,-30"/>
<text text-anchor="start" x="184" y="-18" font-family="Helvetica,sans-Serif" font-size="10.00">Database::SqlQueryExecutor</text>
<text text-anchor="middle" x="246" y="-7" font-family="Helvetica,sans-Serif" font-size="10.00">::prepare</text>
</a>
</g>
</g>
<!-- Node1&#45;&gt;Node4 -->
<g id="edge4" class="edge">
<title>Node1&#45;&gt;Node4</title>
<path fill="none" stroke="#63b8ff" d="M127.01,-47.55C143.31,-43.05 161.28,-38.1 178.17,-33.43"/>
<polygon fill="#63b8ff" stroke="#63b8ff" points="178.92,-36.86 187.63,-30.83 177.06,-30.11 178.92,-36.86"/>
</g>
<!-- Node3&#45;&gt;Node3 -->
<g id="edge3" class="edge">
<title>Node3&#45;&gt;Node3</title>
<path fill="none" stroke="#63b8ff" d="M215.06,-78.28C208.19,-87.41 218.5,-96 246,-96 261.04,-96 270.94,-93.43 275.7,-89.61"/>
<polygon fill="#63b8ff" stroke="#63b8ff" points="279.16,-90.1 276.77,-79.78 272.2,-89.34 279.16,-90.1"/>
</g>
</g>
</svg>
