<?xml version="1.0" encoding="UTF-8" standalone="no"?>
<!DOCTYPE svg PUBLIC "-//W3C//DTD SVG 1.1//EN"
 "http://www.w3.org/Graphics/SVG/1.1/DTD/svg11.dtd">
<!-- Generated by graphviz version 9.0.0 (20230911.1827)
 -->
<!-- Title: Database::SqlQueryExecutor::exec Pages: 1 -->
<svg width="258pt" height="64pt"
 viewBox="0.00 0.00 258.25 64.25" xmlns="http://www.w3.org/2000/svg" xmlns:xlink="http://www.w3.org/1999/xlink">
<g id="graph0" class="graph" transform="scale(1 1) rotate(0) translate(4 60.25)">
<title>Database::SqlQueryExecutor::exec</title>
<!-- Node1 -->
<g id="Node000001" class="node">
<title>Node1</title>
<g id="a_Node000001"><a xlink:title=" ">
<polygon fill="#999999" stroke="#666666" points="139,-42.88 0,-42.88 0,-12.37 139,-12.37 139,-42.88"/>
<text text-anchor="start" x="8" y="-29.38" font-family="Helvetica,sans-Serif" font-size="10.00">Database::SqlQueryExecutor</text>
<text text-anchor="middle" x="69.5" y="-18.12" font-family="Helvetica,sans-Serif" font-size="10.00">::exec</text>
</a>
</g>
</g>
<!-- Node2 -->
<g id="Node000002" class="node">
<title>Node2</title>
<g id="a_Node000002"><a xlink:href="../../df/ddd/struct_i_logger.html#ad09119105074eaeb5a6230bbc240e4f1" target="_top" xlink:title=" ">
<polygon fill="white" stroke="#666666" points="249.12,-56.25 176.12,-56.25 176.12,-37 249.12,-37 249.12,-56.25"/>
<text text-anchor="middle" x="212.62" y="-42.75" font-family="Helvetica,sans-Serif" font-size="10.00">ILogger::error</text>
</a>
</g>
</g>
<!-- Node1&#45;&gt;Node2 -->
<g id="edge1_Node000001_Node000002" class="edge">
<title>Node1&#45;&gt;Node2</title>
<g id="a_edge1_Node000001_Node000002"><a xlink:title=" ">
<path fill="none" stroke="#63b8ff" d="M139.41,-36.9C147.87,-38.04 156.36,-39.19 164.4,-40.27"/>
<polygon fill="#63b8ff" stroke="#63b8ff" points="163.92,-43.73 174.3,-41.6 164.85,-36.8 163.92,-43.73"/>
</a>
</g>
</g>
<!-- Node3 -->
<g id="Node000003" class="node">
<title>Node3</title>
<g id="a_Node000003"><a xlink:href="../../df/ddd/struct_i_logger.html#abe55a52696419629faef7516f62d77f5" target="_top" xlink:title=" ">
<polygon fill="white" stroke="#666666" points="250.25,-19.25 175,-19.25 175,0 250.25,0 250.25,-19.25"/>
<text text-anchor="middle" x="212.62" y="-5.75" font-family="Helvetica,sans-Serif" font-size="10.00">ILogger::trace</text>
</a>
</g>
</g>
<!-- Node1&#45;&gt;Node3 -->
<g id="edge2_Node000001_Node000003" class="edge">
<title>Node1&#45;&gt;Node3</title>
<g id="a_edge2_Node000001_Node000003"><a xlink:title=" ">
<path fill="none" stroke="#63b8ff" d="M139.41,-18.84C147.49,-17.8 155.61,-16.77 163.32,-15.79"/>
<polygon fill="#63b8ff" stroke="#63b8ff" points="163.7,-19.27 173.18,-14.53 162.81,-12.32 163.7,-19.27"/>
</a>
</g>
</g>
</g>
</svg>
