<?xml version="1.0" encoding="UTF-8" standalone="no"?>
<!DOCTYPE svg PUBLIC "-//W3C//DTD SVG 1.1//EN"
 "http://www.w3.org/Graphics/SVG/1.1/DTD/svg11.dtd">
<!-- Generated by graphviz version 9.0.0 (20230911.1827)
 -->
<!-- Title: src/core/implementation/task_executor_utils.cpp Pages: 1 -->
<svg width="259pt" height="149pt"
 viewBox="0.00 0.00 258.88 149.00" xmlns="http://www.w3.org/2000/svg" xmlns:xlink="http://www.w3.org/1999/xlink">
<g id="graph0" class="graph" transform="scale(1 1) rotate(0) translate(4 145)">
<title>src/core/implementation/task_executor_utils.cpp</title>
<!-- Node1 -->
<g id="Node000001" class="node">
<title>Node1</title>
<g id="a_Node000001"><a xlink:title=" ">
<polygon fill="#999999" stroke="#666666" points="132.26,-141 11.26,-141 11.26,-110.5 132.26,-110.5 132.26,-141"/>
<text text-anchor="start" x="19.26" y="-127.5" font-family="Helvetica,sans-Serif" font-size="10.00">src/core/implementation</text>
<text text-anchor="middle" x="71.76" y="-116.25" font-family="Helvetica,sans-Serif" font-size="10.00">/task_executor_utils.cpp</text>
</a>
</g>
</g>
<!-- Node2 -->
<g id="Node000002" class="node">
<title>Node2</title>
<g id="a_Node000002"><a xlink:title=" ">
<polygon fill="#e0e0e0" stroke="#999999" points="115.88,-19.25 67.63,-19.25 67.63,0 115.88,0 115.88,-19.25"/>
<text text-anchor="middle" x="91.76" y="-5.75" font-family="Helvetica,sans-Serif" font-size="10.00">cassert</text>
</a>
</g>
</g>
<!-- Node1&#45;&gt;Node2 -->
<g id="edge1_Node000001_Node000002" class="edge">
<title>Node1&#45;&gt;Node2</title>
<g id="a_edge1_Node000001_Node000002"><a xlink:title=" ">
<path fill="none" stroke="#63b8ff" d="M40.09,-110.23C16.47,-97.25 -9.58,-76.97 3.76,-55.25 15.22,-36.58 37.19,-25.43 56.32,-18.94"/>
<polygon fill="#63b8ff" stroke="#63b8ff" points="57.15,-22.34 65.7,-16.08 55.11,-15.65 57.15,-22.34"/>
</a>
</g>
</g>
<!-- Node3 -->
<g id="Node000003" class="node">
<title>Node3</title>
<g id="a_Node000003"><a xlink:href="../../d4/d20/task__executor__utils_8hpp.html" target="_top" xlink:title=" ">
<polygon fill="#fff0f0" stroke="red" points="130.76,-74.5 12.76,-74.5 12.76,-55.25 130.76,-55.25 130.76,-74.5"/>
<text text-anchor="middle" x="71.76" y="-61" font-family="Helvetica,sans-Serif" font-size="10.00">task_executor_utils.hpp</text>
</a>
</g>
</g>
<!-- Node1&#45;&gt;Node3 -->
<g id="edge2_Node000001_Node000003" class="edge">
<title>Node1&#45;&gt;Node3</title>
<g id="a_edge2_Node000001_Node000003"><a xlink:title=" ">
<path fill="none" stroke="#63b8ff" d="M71.76,-110.2C71.76,-102.96 71.76,-94.09 71.76,-86.19"/>
<polygon fill="#63b8ff" stroke="#63b8ff" points="75.26,-86.46 71.76,-76.46 68.26,-86.46 75.26,-86.46"/>
</a>
</g>
</g>
<!-- Node17 -->
<g id="Node000017" class="node">
<title>Node17</title>
<g id="a_Node000017"><a xlink:href="../../de/d87/containers__utils_8hpp.html" target="_top" xlink:title=" ">
<polygon fill="#fff0f0" stroke="red" points="250.88,-74.5 148.63,-74.5 148.63,-55.25 250.88,-55.25 250.88,-74.5"/>
<text text-anchor="middle" x="199.76" y="-61" font-family="Helvetica,sans-Serif" font-size="10.00">containers_utils.hpp</text>
</a>
</g>
</g>
<!-- Node1&#45;&gt;Node17 -->
<g id="edge3_Node000001_Node000017" class="edge">
<title>Node1&#45;&gt;Node17</title>
<g id="a_edge3_Node000001_Node000017"><a xlink:title=" ">
<path fill="none" stroke="#63b8ff" d="M103.73,-110.05C123.97,-100.73 149.97,-88.77 169.81,-79.65"/>
<polygon fill="#63b8ff" stroke="#63b8ff" points="171.13,-82.9 178.75,-75.54 168.2,-76.54 171.13,-82.9"/>
</a>
</g>
</g>
<!-- Node17&#45;&gt;Node2 -->
<g id="edge4_Node000017_Node000002" class="edge">
<title>Node17&#45;&gt;Node2</title>
<g id="a_edge4_Node000017_Node000002"><a xlink:title=" ">
<path fill="none" stroke="#63b8ff" d="M181.43,-54.84C164.68,-46.58 139.62,-34.23 120.25,-24.68"/>
<polygon fill="#63b8ff" stroke="#63b8ff" points="122.04,-21.65 111.52,-20.37 118.94,-27.93 122.04,-21.65"/>
</a>
</g>
</g>
</g>
</svg>
