<?xml version="1.0" encoding="UTF-8" standalone="no"?>
<!-- Created with Inkscape (http://www.inkscape.org/) -->

<svg
   xmlns:dc="http://purl.org/dc/elements/1.1/"
   xmlns:cc="http://creativecommons.org/ns#"
   xmlns:rdf="http://www.w3.org/1999/02/22-rdf-syntax-ns#"
   xmlns:svg="http://www.w3.org/2000/svg"
   xmlns="http://www.w3.org/2000/svg"
   xmlns:xlink="http://www.w3.org/1999/xlink"
   xmlns:sodipodi="http://sodipodi.sourceforge.net/DTD/sodipodi-0.dtd"
   xmlns:inkscape="http://www.inkscape.org/namespaces/inkscape"
   width="64px"
   height="64px"
   id="svg2985"
   version="1.1"
   inkscape:version="0.48.5 r10040"
   sodipodi:docname="add.svg">
  <defs
     id="defs2987">
    <linearGradient
       id="linearGradient3792">
      <stop
         style="stop-color:#00ff00;stop-opacity:1"
         offset="0"
         id="stop3794" />
      <stop
         style="stop-color:#000000;stop-opacity:1"
         offset="1"
         id="stop3796" />
    </linearGradient>
    <radialGradient
       inkscape:collect="always"
       xlink:href="#linearGradient3792"
       id="radialGradient3798"
       cx="32.090908"
       cy="31.818182"
       fx="32.090908"
       fy="31.818182"
       r="32.090908"
       gradientTransform="matrix(2.4900856,0.0056657,-0.00565924,2.4872474,-47.638148,-47.503326)"
       gradientUnits="userSpaceOnUse" />
  </defs>
  <sodipodi:namedview
     id="base"
     pagecolor="#ffffff"
     bordercolor="#666666"
     borderopacity="1.0"
     inkscape:pageopacity="0.0"
     inkscape:pageshadow="2"
     inkscape:zoom="11"
     inkscape:cx="22.370267"
     inkscape:cy="38.824339"
     inkscape:current-layer="layer1"
     showgrid="true"
     inkscape:document-units="px"
     inkscape:grid-bbox="true"
     inkscape:window-width="1920"
     inkscape:window-height="1020"
     inkscape:window-x="-2"
     inkscape:window-y="-3"
     inkscape:window-maximized="1"
     inkscape:snap-bbox="true">
    <inkscape:grid
       type="xygrid"
       id="grid3014"
       empspacing="8"
       visible="true"
       enabled="true"
       snapvisiblegridlinesonly="true" />
  </sodipodi:namedview>
  <metadata
     id="metadata2990">
    <rdf:RDF>
      <cc:Work
         rdf:about="">
        <dc:format>image/svg+xml</dc:format>
        <dc:type
           rdf:resource="http://purl.org/dc/dcmitype/StillImage" />
        <dc:title></dc:title>
      </cc:Work>
    </rdf:RDF>
  </metadata>
  <g
     id="layer1"
     inkscape:label="Layer 1"
     inkscape:groupmode="layer">
    <path
       sodipodi:type="arc"
       style="fill:url(#radialGradient3798);fill-opacity:1;fill-rule:nonzero;stroke:#008000;stroke-opacity:1"
       id="path3012"
       sodipodi:cx="32.090908"
       sodipodi:cy="31.818182"
       sodipodi:rx="32.090908"
       sodipodi:ry="32"
       d="m 64.181816,31.818182 a 32.090908,32 0 1 1 -64.181816,0 32.090908,32 0 1 1 64.181816,0 z"
       transform="matrix(0.98184755,0,0,0.98463686,0.49162061,0.67064533)" />
    <g
       id="g3817"
       style="fill:#ffffff;fill-opacity:1">
      <path
         style="fill:#ffffff;fill-rule:nonzero;stroke:none"
         d="m 28,20 0,-4 4,0 4,0 0,4 0,4 0,4 4,0 0,4 0,4 -4,0 0,4 0,4 0,4 -4,0 -4,0 0,-4 0,-4 0,-4 -4,0 0,-4 0,-4 4,0 0,-4 z"
         id="rect3810"
         inkscape:connector-curvature="0"
         sodipodi:nodetypes="ccccccccccccccccccccccccc" />
    </g>
    <path
       style="fill:#ffffff;fill-opacity:1;fill-rule:nonzero;stroke:none"
       d="m 20,28 4,0 4,0 0,-4 4,0 4,0 0,4 4,0 4,0 4,0 0,4 0,4 -4,0 -4,0 -4,0 0,4 -4,0 -4,0 0,-4 -4,0 -4,0 -4,0 0,-4 0,-4 z"
       id="rect3812"
       inkscape:connector-curvature="0"
       sodipodi:nodetypes="ccccccccccccccccccccccccc" />
  </g>
</svg>
