<?xml version="1.0" encoding="UTF-8" standalone="no"?>
<!DOCTYPE svg PUBLIC "-//W3C//DTD SVG 1.1//EN"
 "http://www.w3.org/Graphics/SVG/1.1/DTD/svg11.dtd">
<!-- Generated by graphviz version 7.0.5 (20221223.1930)
 -->
<!-- Title: DuplicatesModel Pages: 1 -->
<svg width="280pt" height="104pt"
 viewBox="0.00 0.00 279.50 104.00" xmlns="http://www.w3.org/2000/svg" xmlns:xlink="http://www.w3.org/1999/xlink">
<g id="graph0" class="graph" transform="scale(1 1) rotate(0) translate(4 100)">
<title>DuplicatesModel</title>
<!-- Node1 -->
<g id="node1" class="node">
<title>Node1</title>
<g id="a_node1"><a xlink:title=" ">
<polygon fill="#999999" stroke="#666666" points="189.5,-19 100.5,-19 100.5,0 189.5,0 189.5,-19"/>
<text text-anchor="middle" x="145" y="-7" font-family="Helvetica,sans-Serif" font-size="10.00">DuplicatesModel</text>
</a>
</g>
</g>
<!-- Node2 -->
<g id="node2" class="node">
<title>Node2</title>
<g id="a_node2"><a xlink:href="../../de/d3a/class_a_heavy_list_model.html" target="_top" xlink:title=" ">
<polygon fill="#fff0f0" stroke="red" points="146,-96 0,-96 0,-66 146,-66 146,-96"/>
<text text-anchor="start" x="8" y="-84" font-family="Helvetica,sans-Serif" font-size="10.00">AHeavyListModel&lt; std</text>
<text text-anchor="middle" x="73" y="-73" font-family="Helvetica,sans-Serif" font-size="10.00">::vector&lt; Photo::DataDelta &gt; &gt;</text>
</a>
</g>
</g>
<!-- Node2&#45;&gt;Node1 -->
<g id="edge1" class="edge">
<title>Node2&#45;&gt;Node1</title>
<path fill="none" stroke="#63b8ff" d="M95.93,-57.86C109.54,-44.73 126.03,-28.81 136.01,-19.18"/>
<polygon fill="#63b8ff" stroke="#63b8ff" points="93.77,-55.09 89.01,-64.55 98.63,-60.12 93.77,-55.09"/>
</g>
<!-- Node5 -->
<g id="node3" class="node">
<title>Node5</title>
<g id="a_node3"><a xlink:href="../../d7/da9/struct_database_1_1_i_database.html" target="_top" xlink:title="Base Database interface. A bridge between regular clients and backend.">
<polygon fill="white" stroke="#666666" points="271.5,-90.5 164.5,-90.5 164.5,-71.5 271.5,-71.5 271.5,-90.5"/>
<text text-anchor="middle" x="218" y="-78.5" font-family="Helvetica,sans-Serif" font-size="10.00">Database::IDatabase</text>
</a>
</g>
</g>
<!-- Node5&#45;&gt;Node1 -->
<g id="edge2" class="edge">
<title>Node5&#45;&gt;Node1</title>
<path fill="none" stroke="#9a32cd" stroke-dasharray="5,2" d="M200.58,-63.42C186.1,-49.63 166.04,-30.53 154.4,-19.45"/>
<polygon fill="#9a32cd" stroke="#9a32cd" points="198,-65.79 207.66,-70.15 202.83,-60.72 198,-65.79"/>
<text text-anchor="middle" x="197.5" y="-40" font-family="Helvetica,sans-Serif" font-size="10.00"> m_db</text>
</g>
</g>
</svg>
