<?xml version="1.0" encoding="UTF-8" standalone="no"?>
<!DOCTYPE svg PUBLIC "-//W3C//DTD SVG 1.1//EN"
 "http://www.w3.org/Graphics/SVG/1.1/DTD/svg11.dtd">
<!-- Generated by graphviz version 9.0.0 (20230911.1827)
 -->
<!-- Title: UpdaterImpl::checkVersion Pages: 1 -->
<svg width="315pt" height="138pt"
 viewBox="0.00 0.00 315.25 138.25" xmlns="http://www.w3.org/2000/svg" xmlns:xlink="http://www.w3.org/1999/xlink">

<svg id="main" version="1.1" xmlns="http://www.w3.org/2000/svg" xmlns:xlink="http://www.w3.org/1999/xlink" xml:space="preserve" onload="init(evt)">
<style type="text/css"><![CDATA[
.node, .edge {opacity: 0.7;}
.node.selected, .edge.selected {opacity: 1;}
.edge:hover path { stroke: red; }
.edge:hover polygon { stroke: red; fill: red; }
]]></style>
<script type="application/ecmascript" xlink:href="../../svg.min.js"/>
<svg id="graph" class="graph">
<g id="graph0" class="graph" transform="scale(1 1) rotate(0) translate(4 134.25)">
<title>UpdaterImpl::checkVersion</title>
<!-- Node1 -->
<g id="Node000001" class="node">
<title>Node1</title>
<g id="a_Node000001"><a xlink:title=" ">
<polygon fill="#999999" stroke="#666666" points="133,-74.25 0,-74.25 0,-55 133,-55 133,-74.25"/>
<text text-anchor="middle" x="66.5" y="-60.75" font-family="Helvetica,sans-Serif" font-size="10.00">UpdaterImpl::checkVersion</text>
</a>
</g>
</g>
<!-- Node2 -->
<g id="Node000002" class="node">
<title>Node2</title>
<g id="a_Node000002"><a xlink:href="../../de/d34/class_version.html#ab6fd1cf756f1379ed5e791ec4e29d261" target="_top" xlink:title=" ">
<polygon fill="#fff0f0" stroke="red" points="287.38,-130.25 188.88,-130.25 188.88,-111 287.38,-111 287.38,-130.25"/>
<text text-anchor="middle" x="238.12" y="-116.75" font-family="Helvetica,sans-Serif" font-size="10.00">Version::fromString</text>
</a>
</g>
</g>
<!-- Node1&#45;&gt;Node2 -->
<g id="edge1_Node000001_Node000002" class="edge">
<title>Node1&#45;&gt;Node2</title>
<g id="a_edge1_Node000001_Node000002"><a xlink:title=" ">
<path fill="none" stroke="#63b8ff" d="M92.28,-74.7C112.69,-82.8 142.47,-94.18 169,-102.62 174.33,-104.32 179.92,-105.99 185.52,-107.58"/>
<polygon fill="#63b8ff" stroke="#63b8ff" points="184.2,-110.84 194.77,-110.13 186.06,-104.09 184.2,-110.84"/>
</a>
</g>
</g>
<!-- Node5 -->
<g id="Node000005" class="node">
<title>Node5</title>
<g id="a_Node000005"><a xlink:href="../../de/d34/class_version.html#acaa566a12459bc72c5f0755ff1b7fc01" target="_top" xlink:title=" ">
<polygon fill="#fff0f0" stroke="red" points="296,-93.25 180.25,-93.25 180.25,-74 296,-74 296,-93.25"/>
<text text-anchor="middle" x="238.12" y="-79.75" font-family="Helvetica,sans-Serif" font-size="10.00">Version::fromTagName</text>
</a>
</g>
</g>
<!-- Node1&#45;&gt;Node5 -->
<g id="edge2_Node000001_Node000005" class="edge">
<title>Node1&#45;&gt;Node5</title>
<g id="a_edge2_Node000001_Node000005"><a xlink:title=" ">
<path fill="none" stroke="#63b8ff" d="M133.08,-71.97C144.81,-73.28 157.05,-74.66 168.86,-75.98"/>
<polygon fill="#63b8ff" stroke="#63b8ff" points="168.17,-79.42 178.5,-77.06 168.95,-72.47 168.17,-79.42"/>
</a>
</g>
</g>
<!-- Node6 -->
<g id="Node000006" class="node">
<title>Node6</title>
<g id="a_Node000006"><a xlink:href="../../d1/df2/class_updater_impl.html#a7fa30e926f7ec621c5a39df487b471db" target="_top" xlink:title=" ">
<polygon fill="white" stroke="#666666" points="305.75,-56.25 170.5,-56.25 170.5,-37 305.75,-37 305.75,-56.25"/>
<text text-anchor="middle" x="238.12" y="-42.75" font-family="Helvetica,sans-Serif" font-size="10.00">UpdaterImpl::getReleaseUrl</text>
</a>
</g>
</g>
<!-- Node1&#45;&gt;Node6 -->
<g id="edge3_Node000001_Node000006" class="edge">
<title>Node1&#45;&gt;Node6</title>
<g id="a_edge3_Node000001_Node000006"><a xlink:title=" ">
<path fill="none" stroke="#63b8ff" d="M133.08,-57.67C141.51,-56.77 150.2,-55.85 158.81,-54.94"/>
<polygon fill="#63b8ff" stroke="#63b8ff" points="158.96,-58.44 168.53,-53.9 158.22,-51.48 158.96,-58.44"/>
</a>
</g>
</g>
<!-- Node7 -->
<g id="Node000007" class="node">
<title>Node7</title>
<g id="a_Node000007"><a xlink:href="../../d1/df2/class_updater_impl.html#a7a3e620422e8e0fb4ce918706ec3a864" target="_top" xlink:title=" ">
<polygon fill="white" stroke="#666666" points="307.25,-19.25 169,-19.25 169,0 307.25,0 307.25,-19.25"/>
<text text-anchor="middle" x="238.12" y="-5.75" font-family="Helvetica,sans-Serif" font-size="10.00">UpdaterImpl::releaseVersion</text>
</a>
</g>
</g>
<!-- Node1&#45;&gt;Node7 -->
<g id="edge4_Node000001_Node000007" class="edge">
<title>Node1&#45;&gt;Node7</title>
<g id="a_edge4_Node000001_Node000007"><a xlink:title=" ">
<path fill="none" stroke="#63b8ff" d="M93.14,-54.54C113.53,-46.7 142.87,-35.82 169,-27.62 174.41,-25.93 180.09,-24.26 185.76,-22.66"/>
<polygon fill="#63b8ff" stroke="#63b8ff" points="186.43,-26.1 195.15,-20.08 184.58,-19.35 186.43,-26.1"/>
</a>
</g>
</g>
</g>
</svg>
</svg>

<style type='text/css'>
<![CDATA[
[data-mouse-over-selected='false'] { opacity: 0.7; }
[data-mouse-over-selected='true']  { opacity: 1.0; }
]]>
</style>
<script type="application/ecmascript"><![CDATA[
document.addEventListener('DOMContentLoaded', (event) => {
  highlightEdges();
  highlightAdjacentNodes();
});
]]></script>
</svg>
