<?xml version="1.0" encoding="UTF-8" standalone="no"?>
<!DOCTYPE svg PUBLIC "-//W3C//DTD SVG 1.1//EN"
 "http://www.w3.org/Graphics/SVG/1.1/DTD/svg11.dtd">
<!-- Generated by graphviz version 7.0.5 (20221223.1930)
 -->
<!-- Title: IdToDataConverter::fetchIds Pages: 1 -->
<svg width="257pt" height="182pt"
 viewBox="0.00 0.00 257.00 182.00" xmlns="http://www.w3.org/2000/svg" xmlns:xlink="http://www.w3.org/1999/xlink">
<g id="graph0" class="graph" transform="scale(1 1) rotate(0) translate(4 178)">
<title>IdToDataConverter::fetchIds</title>
<!-- Node1 -->
<g id="node1" class="node">
<title>Node1</title>
<g id="a_node1"><a xlink:title=" ">
<polygon fill="#999999" stroke="#666666" points="103,-102 0,-102 0,-72 103,-72 103,-102"/>
<text text-anchor="start" x="8" y="-90" font-family="Helvetica,sans-Serif" font-size="10.00">IdToDataConverter::</text>
<text text-anchor="middle" x="51.5" y="-79" font-family="Helvetica,sans-Serif" font-size="10.00">fetchIds</text>
</a>
</g>
</g>
<!-- Node2 -->
<g id="node2" class="node">
<title>Node2</title>
<g id="a_node2"><a xlink:href="../../d7/da9/struct_database_1_1_i_database.html#ac86cb641a8f5a37a00873df333bb12bb" target="_top" xlink:title=" ">
<polygon fill="#fff0f0" stroke="red" points="247.5,-174 140.5,-174 140.5,-144 247.5,-144 247.5,-174"/>
<text text-anchor="start" x="148.5" y="-162" font-family="Helvetica,sans-Serif" font-size="10.00">Database::IDatabase</text>
<text text-anchor="middle" x="194" y="-151" font-family="Helvetica,sans-Serif" font-size="10.00">::exec</text>
</a>
</g>
</g>
<!-- Node1&#45;&gt;Node2 -->
<g id="edge1" class="edge">
<title>Node1&#45;&gt;Node2</title>
<path fill="none" stroke="#63b8ff" d="M78.68,-102.32C95.67,-112.06 118.4,-124.73 139,-135 141.53,-136.26 144.14,-137.53 146.79,-138.79"/>
<polygon fill="#63b8ff" stroke="#63b8ff" points="145.15,-141.89 155.69,-142.92 148.1,-135.54 145.15,-141.89"/>
</g>
<!-- Node5 -->
<g id="node3" class="node">
<title>Node5</title>
<g id="a_node3"><a xlink:href="../../d2/d3a/classsafe__callback__ctrl.html#a8ba3729a3c90b5a5c4099111c21c8c47" target="_top" xlink:title=" ">
<polygon fill="#fff0f0" stroke="red" points="241.5,-126 146.5,-126 146.5,-96 241.5,-96 241.5,-126"/>
<text text-anchor="start" x="154.5" y="-114" font-family="Helvetica,sans-Serif" font-size="10.00">safe_callback_ctrl</text>
<text text-anchor="middle" x="194" y="-103" font-family="Helvetica,sans-Serif" font-size="10.00">::invalidate</text>
</a>
</g>
</g>
<!-- Node1&#45;&gt;Node5 -->
<g id="edge2" class="edge">
<title>Node1&#45;&gt;Node5</title>
<path fill="none" stroke="#63b8ff" d="M103.22,-95.66C113.5,-97.42 124.38,-99.28 134.89,-101.07"/>
<polygon fill="#63b8ff" stroke="#63b8ff" points="134.15,-104.5 144.6,-102.73 135.33,-97.6 134.15,-104.5"/>
</g>
<!-- Node8 -->
<g id="node4" class="node">
<title>Node8</title>
<g id="a_node4"><a xlink:href="../../d2/d3a/classsafe__callback__ctrl.html#a2782272aba3be1150a5740914ba63f5f" target="_top" xlink:title=" ">
<polygon fill="white" stroke="#666666" points="249,-78 139,-78 139,-48 249,-48 249,-78"/>
<text text-anchor="start" x="147" y="-66" font-family="Helvetica,sans-Serif" font-size="10.00">safe_callback_ctrl</text>
<text text-anchor="middle" x="194" y="-55" font-family="Helvetica,sans-Serif" font-size="10.00">::make_safe_callback</text>
</a>
</g>
</g>
<!-- Node1&#45;&gt;Node8 -->
<g id="edge3" class="edge">
<title>Node1&#45;&gt;Node8</title>
<path fill="none" stroke="#63b8ff" d="M103.22,-78.34C111.02,-77 119.17,-75.61 127.24,-74.23"/>
<polygon fill="#63b8ff" stroke="#63b8ff" points="127.79,-77.69 137.06,-72.56 126.61,-70.79 127.79,-77.69"/>
</g>
<!-- Node9 -->
<g id="node5" class="node">
<title>Node9</title>
<g id="a_node5"><a xlink:href="../../df/d55/class_id_to_data_converter.html#aae7e414397d9052c2dd334bb0a2a2b84" target="_top" xlink:title=" ">
<polygon fill="white" stroke="#666666" points="245.5,-30 142.5,-30 142.5,0 245.5,0 245.5,-30"/>
<text text-anchor="start" x="150.5" y="-18" font-family="Helvetica,sans-Serif" font-size="10.00">IdToDataConverter::</text>
<text text-anchor="middle" x="194" y="-7" font-family="Helvetica,sans-Serif" font-size="10.00">storePhotoData</text>
</a>
</g>
</g>
<!-- Node1&#45;&gt;Node9 -->
<g id="edge4" class="edge">
<title>Node1&#45;&gt;Node9</title>
<path fill="none" stroke="#63b8ff" d="M78.68,-71.68C95.67,-61.94 118.4,-49.27 139,-39 141.53,-37.74 144.14,-36.47 146.79,-35.21"/>
<polygon fill="#63b8ff" stroke="#63b8ff" points="148.1,-38.46 155.69,-31.08 145.15,-32.11 148.1,-38.46"/>
</g>
</g>
</svg>
