<?xml version="1.0" encoding="UTF-8" standalone="no"?>
<!DOCTYPE svg PUBLIC "-//W3C//DTD SVG 1.1//EN"
 "http://www.w3.org/Graphics/SVG/1.1/DTD/svg11.dtd">
<!-- Generated by graphviz version 9.0.0 (20230911.1827)
 -->
<!-- Title: IdToDataConverter::fetchIds Pages: 1 -->
<svg width="256pt" height="186pt"
 viewBox="0.00 0.00 256.00 185.50" xmlns="http://www.w3.org/2000/svg" xmlns:xlink="http://www.w3.org/1999/xlink">
<g id="graph0" class="graph" transform="scale(1 1) rotate(0) translate(4 181.5)">
<title>IdToDataConverter::fetchIds</title>
<!-- Node1 -->
<g id="Node000001" class="node">
<title>Node1</title>
<g id="a_Node000001"><a xlink:title=" ">
<polygon fill="#999999" stroke="#666666" points="102.25,-103.5 0,-103.5 0,-73 102.25,-73 102.25,-103.5"/>
<text text-anchor="start" x="8" y="-90" font-family="Helvetica,sans-Serif" font-size="10.00">IdToDataConverter::</text>
<text text-anchor="middle" x="51.12" y="-78.75" font-family="Helvetica,sans-Serif" font-size="10.00">fetchIds</text>
</a>
</g>
</g>
<!-- Node2 -->
<g id="Node000002" class="node">
<title>Node2</title>
<g id="a_Node000002"><a xlink:href="../../d7/da9/struct_database_1_1_i_database.html#ac86cb641a8f5a37a00873df333bb12bb" target="_top" xlink:title=" ">
<polygon fill="#fff0f0" stroke="red" points="246.12,-177.5 140.12,-177.5 140.12,-147 246.12,-147 246.12,-177.5"/>
<text text-anchor="start" x="148.12" y="-164" font-family="Helvetica,sans-Serif" font-size="10.00">Database::IDatabase</text>
<text text-anchor="middle" x="193.12" y="-152.75" font-family="Helvetica,sans-Serif" font-size="10.00">::exec</text>
</a>
</g>
</g>
<!-- Node1&#45;&gt;Node2 -->
<g id="edge1_Node000001_Node000002" class="edge">
<title>Node1&#45;&gt;Node2</title>
<g id="a_edge1_Node000001_Node000002"><a xlink:title=" ">
<path fill="none" stroke="#63b8ff" d="M78.2,-103.83C95.12,-113.76 117.76,-126.69 138.25,-137.25 141.09,-138.71 144.02,-140.18 147,-141.65"/>
<polygon fill="#63b8ff" stroke="#63b8ff" points="145.25,-144.69 155.78,-145.87 148.29,-138.38 145.25,-144.69"/>
</a>
</g>
</g>
<!-- Node5 -->
<g id="Node000005" class="node">
<title>Node5</title>
<g id="a_Node000005"><a xlink:href="../../d2/d3a/classsafe__callback__ctrl.html#a8ba3729a3c90b5a5c4099111c21c8c47" target="_top" xlink:title=" ">
<polygon fill="#fff0f0" stroke="red" points="240.5,-128.5 145.75,-128.5 145.75,-98 240.5,-98 240.5,-128.5"/>
<text text-anchor="start" x="153.75" y="-115" font-family="Helvetica,sans-Serif" font-size="10.00">safe_callback_ctrl</text>
<text text-anchor="middle" x="193.12" y="-103.75" font-family="Helvetica,sans-Serif" font-size="10.00">::invalidate</text>
</a>
</g>
</g>
<!-- Node1&#45;&gt;Node5 -->
<g id="edge2_Node000001_Node000005" class="edge">
<title>Node1&#45;&gt;Node5</title>
<g id="a_edge2_Node000001_Node000005"><a xlink:title=" ">
<path fill="none" stroke="#63b8ff" d="M102.67,-97.28C112.91,-99.1 123.75,-101.04 134.22,-102.91"/>
<polygon fill="#63b8ff" stroke="#63b8ff" points="133.44,-106.33 143.9,-104.64 134.67,-99.43 133.44,-106.33"/>
</a>
</g>
</g>
<!-- Node8 -->
<g id="Node000008" class="node">
<title>Node8</title>
<g id="a_Node000008"><a xlink:href="../../d2/d3a/classsafe__callback__ctrl.html#a2782272aba3be1150a5740914ba63f5f" target="_top" xlink:title=" ">
<polygon fill="white" stroke="#666666" points="248,-79.5 138.25,-79.5 138.25,-49 248,-49 248,-79.5"/>
<text text-anchor="start" x="146.25" y="-66" font-family="Helvetica,sans-Serif" font-size="10.00">safe_callback_ctrl</text>
<text text-anchor="middle" x="193.12" y="-54.75" font-family="Helvetica,sans-Serif" font-size="10.00">::make_safe_callback</text>
</a>
</g>
</g>
<!-- Node1&#45;&gt;Node8 -->
<g id="edge3_Node000001_Node000008" class="edge">
<title>Node1&#45;&gt;Node8</title>
<g id="a_edge3_Node000001_Node000008"><a xlink:title=" ">
<path fill="none" stroke="#63b8ff" d="M102.67,-79.59C110.44,-78.25 118.56,-76.86 126.6,-75.48"/>
<polygon fill="#63b8ff" stroke="#63b8ff" points="127.12,-78.95 136.38,-73.81 125.93,-72.05 127.12,-78.95"/>
</a>
</g>
</g>
<!-- Node9 -->
<g id="Node000009" class="node">
<title>Node9</title>
<g id="a_Node000009"><a xlink:href="../../df/d55/class_id_to_data_converter.html#aae7e414397d9052c2dd334bb0a2a2b84" target="_top" xlink:title=" ">
<polygon fill="#fff0f0" stroke="red" points="244.25,-30.5 142,-30.5 142,0 244.25,0 244.25,-30.5"/>
<text text-anchor="start" x="150" y="-17" font-family="Helvetica,sans-Serif" font-size="10.00">IdToDataConverter::</text>
<text text-anchor="middle" x="193.12" y="-5.75" font-family="Helvetica,sans-Serif" font-size="10.00">storePhotoData</text>
</a>
</g>
</g>
<!-- Node1&#45;&gt;Node9 -->
<g id="edge4_Node000001_Node000009" class="edge">
<title>Node1&#45;&gt;Node9</title>
<g id="a_edge4_Node000001_Node000009"><a xlink:title=" ">
<path fill="none" stroke="#63b8ff" d="M79,-72.6C95.85,-62.95 118.12,-50.51 138.25,-40.25 141.14,-38.78 144.12,-37.29 147.15,-35.82"/>
<polygon fill="#63b8ff" stroke="#63b8ff" points="148.58,-39.01 156.09,-31.53 145.56,-32.7 148.58,-39.01"/>
</a>
</g>
</g>
</g>
</svg>
