<?xml version="1.0" encoding="UTF-8" standalone="no"?>
<!DOCTYPE svg PUBLIC "-//W3C//DTD SVG 1.1//EN"
 "http://www.w3.org/Graphics/SVG/1.1/DTD/svg11.dtd">
<!-- Generated by graphviz version 12.2.0 (20241103.1931)
 -->
<!-- Title: src/database/backends/sql_backends/transaction.hpp Pages: 1 -->
<svg width="328pt" height="105pt"
 viewBox="0.00 0.00 328.38 105.00" xmlns="http://www.w3.org/2000/svg" xmlns:xlink="http://www.w3.org/1999/xlink">
<g id="graph0" class="graph" transform="scale(1 1) rotate(0) translate(4 101)">
<title>src/database/backends/sql_backends/transaction.hpp</title>
<!-- Node1 -->
<g id="Node000001" class="node">
<title>Node1</title>
<g id="a_Node000001"><a xlink:title=" ">
<polygon fill="#999999" stroke="#666666" points="235.38,-97 87.38,-97 87.38,-66.5 235.38,-66.5 235.38,-97"/>
<text text-anchor="start" x="95.38" y="-83.5" font-family="Helvetica,sans-Serif" font-size="10.00">src/database/backends</text>
<text text-anchor="middle" x="161.38" y="-72.25" font-family="Helvetica,sans-Serif" font-size="10.00">/sql_backends/transaction.hpp</text>
</a>
</g>
</g>
<!-- Node2 -->
<g id="Node000002" class="node">
<title>Node2</title>
<g id="a_Node000002"><a xlink:href="../../df/df4/sql__backend_8hpp.html" target="_top" xlink:title=" ">
<polygon fill="#fff0f0" stroke="red" points="154.75,-30.5 0,-30.5 0,0 154.75,0 154.75,-30.5"/>
<text text-anchor="start" x="8" y="-17" font-family="Helvetica,sans-Serif" font-size="10.00">src/database/backends</text>
<text text-anchor="middle" x="77.38" y="-5.75" font-family="Helvetica,sans-Serif" font-size="10.00">/sql_backends/sql_backend.hpp</text>
</a>
</g>
</g>
<!-- Node1&#45;&gt;Node2 -->
<g id="edge1_Node000001_Node000002" class="edge">
<title>Node1&#45;&gt;Node2</title>
<g id="a_edge1_Node000001_Node000002"><a xlink:title=" ">
<path fill="none" stroke="#63b8ff" d="M133.43,-59.29C121.26,-49.94 107.3,-39.23 96.36,-30.83"/>
<polygon fill="#63b8ff" stroke="#63b8ff" points="131.05,-61.88 141.11,-65.19 135.31,-56.33 131.05,-61.88"/>
</a>
</g>
</g>
<!-- Node22 -->
<g id="Node000022" class="node">
<title>Node22</title>
<g id="a_Node000022"><a xlink:href="../../d8/df2/transaction_8cpp.html" target="_top" xlink:title=" ">
<polygon fill="white" stroke="#666666" points="320.38,-30.5 172.38,-30.5 172.38,0 320.38,0 320.38,-30.5"/>
<text text-anchor="start" x="180.38" y="-17" font-family="Helvetica,sans-Serif" font-size="10.00">src/database/backends</text>
<text text-anchor="middle" x="246.38" y="-5.75" font-family="Helvetica,sans-Serif" font-size="10.00">/sql_backends/transaction.cpp</text>
</a>
</g>
</g>
<!-- Node1&#45;&gt;Node22 -->
<g id="edge2_Node000001_Node000022" class="edge">
<title>Node1&#45;&gt;Node22</title>
<g id="a_edge2_Node000001_Node000022"><a xlink:title=" ">
<path fill="none" stroke="#63b8ff" d="M189.65,-59.29C201.97,-49.94 216.09,-39.23 227.16,-30.83"/>
<polygon fill="#63b8ff" stroke="#63b8ff" points="187.72,-56.37 181.87,-65.2 191.95,-61.94 187.72,-56.37"/>
</a>
</g>
</g>
</g>
</svg>
