<?xml version="1.0" encoding="UTF-8" standalone="no"?>
<!DOCTYPE svg PUBLIC "-//W3C//DTD SVG 1.1//EN"
 "http://www.w3.org/Graphics/SVG/1.1/DTD/svg11.dtd">
<!-- Generated by graphviz version 12.2.0 (20241103.1931)
 -->
<!-- Title: PhotosAnalyzerImpl::~PhotosAnalyzerImpl Pages: 1 -->
<svg width="258pt" height="88pt"
 viewBox="0.00 0.00 258.25 87.50" xmlns="http://www.w3.org/2000/svg" xmlns:xlink="http://www.w3.org/1999/xlink">
<g id="graph0" class="graph" transform="scale(1 1) rotate(0) translate(4 83.5)">
<title>PhotosAnalyzerImpl::~PhotosAnalyzerImpl</title>
<!-- Node1 -->
<g id="Node000001" class="node">
<title>Node1</title>
<g id="a_Node000001"><a xlink:title=" ">
<polygon fill="#999999" stroke="#666666" points="112,-54.5 0,-54.5 0,-24 112,-24 112,-54.5"/>
<text text-anchor="start" x="8" y="-41" font-family="Helvetica,sans-Serif" font-size="10.00">PhotosAnalyzerImpl</text>
<text text-anchor="middle" x="56" y="-29.75" font-family="Helvetica,sans-Serif" font-size="10.00">::~PhotosAnalyzerImpl</text>
</a>
</g>
</g>
<!-- Node2 -->
<g id="Node000002" class="node">
<title>Node2</title>
<g id="a_Node000002"><a xlink:href="../../dd/d10/class_photos_analyzer_impl.html#a1afb35e229166eb4026401ff6f79bc59" target="_top" xlink:title=" ">
<polygon fill="#fff0f0" stroke="red" points="250.25,-79.5 148,-79.5 148,-49 250.25,-49 250.25,-79.5"/>
<text text-anchor="start" x="156" y="-66" font-family="Helvetica,sans-Serif" font-size="10.00">PhotosAnalyzerImpl</text>
<text text-anchor="middle" x="199.12" y="-54.75" font-family="Helvetica,sans-Serif" font-size="10.00">::finishProgressBar</text>
</a>
</g>
</g>
<!-- Node1&#45;&gt;Node2 -->
<g id="edge1_Node000001_Node000002" class="edge">
<title>Node1&#45;&gt;Node2</title>
<g id="a_edge1_Node000001_Node000002"><a xlink:title=" ">
<path fill="none" stroke="#63b8ff" d="M112.37,-49.06C120.24,-50.45 128.38,-51.9 136.37,-53.31"/>
<polygon fill="#63b8ff" stroke="#63b8ff" points="135.56,-56.72 146.02,-55.02 136.78,-49.83 135.56,-56.72"/>
</a>
</g>
</g>
<!-- Node4 -->
<g id="Node000004" class="node">
<title>Node4</title>
<g id="a_Node000004"><a xlink:href="../../dd/d10/class_photos_analyzer_impl.html#aed1eb8912b058a9583e124b14e53dfe9" target="_top" xlink:title=" ">
<polygon fill="#fff0f0" stroke="red" points="250.25,-30.5 148,-30.5 148,0 250.25,0 250.25,-30.5"/>
<text text-anchor="start" x="156" y="-17" font-family="Helvetica,sans-Serif" font-size="10.00">PhotosAnalyzerImpl</text>
<text text-anchor="middle" x="199.12" y="-5.75" font-family="Helvetica,sans-Serif" font-size="10.00">::stop</text>
</a>
</g>
</g>
<!-- Node1&#45;&gt;Node4 -->
<g id="edge2_Node000001_Node000004" class="edge">
<title>Node1&#45;&gt;Node4</title>
<g id="a_edge2_Node000001_Node000004"><a xlink:title=" ">
<path fill="none" stroke="#63b8ff" d="M112.37,-29.83C120.24,-28.49 128.38,-27.11 136.37,-25.75"/>
<polygon fill="#63b8ff" stroke="#63b8ff" points="136.75,-29.24 146.02,-24.11 135.57,-22.34 136.75,-29.24"/>
</a>
</g>
</g>
</g>
</svg>
