<?xml version="1.0" encoding="UTF-8" standalone="no"?>
<!DOCTYPE svg PUBLIC "-//W3C//DTD SVG 1.1//EN"
 "http://www.w3.org/Graphics/SVG/1.1/DTD/svg11.dtd">
<!-- Generated by graphviz version 12.2.0 (20241103.1931)
 -->
<!-- Title: src/database/notifications_accumulator.hpp Pages: 1 -->
<svg width="251pt" height="149pt"
 viewBox="0.00 0.00 251.12 149.00" xmlns="http://www.w3.org/2000/svg" xmlns:xlink="http://www.w3.org/1999/xlink">
<g id="graph0" class="graph" transform="scale(1 1) rotate(0) translate(4 145)">
<title>src/database/notifications_accumulator.hpp</title>
<!-- Node1 -->
<g id="Node000001" class="node">
<title>Node1</title>
<g id="a_Node000001"><a xlink:title=" ">
<polygon fill="#999999" stroke="#666666" points="180.25,-141 53.25,-141 53.25,-110.5 180.25,-110.5 180.25,-141"/>
<text text-anchor="start" x="61.25" y="-127.5" font-family="Helvetica,sans-Serif" font-size="10.00">src/database/notifications</text>
<text text-anchor="middle" x="116.75" y="-116.25" font-family="Helvetica,sans-Serif" font-size="10.00">_accumulator.hpp</text>
</a>
</g>
</g>
<!-- Node2 -->
<g id="Node000002" class="node">
<title>Node2</title>
<g id="a_Node000002"><a xlink:title=" ">
<polygon fill="#e0e0e0" stroke="#999999" points="29.5,-74.5 0,-74.5 0,-55.25 29.5,-55.25 29.5,-74.5"/>
<text text-anchor="middle" x="14.75" y="-61" font-family="Helvetica,sans-Serif" font-size="10.00">set</text>
</a>
</g>
</g>
<!-- Node1&#45;&gt;Node2 -->
<g id="edge1_Node000001_Node000002" class="edge">
<title>Node1&#45;&gt;Node2</title>
<g id="a_edge1_Node000001_Node000002"><a xlink:title=" ">
<path fill="none" stroke="#63b8ff" d="M91.27,-110.05C75.4,-100.88 55.07,-89.15 39.36,-80.08"/>
<polygon fill="#63b8ff" stroke="#63b8ff" points="41.52,-77.28 31.11,-75.32 38.02,-83.35 41.52,-77.28"/>
</a>
</g>
</g>
<!-- Node3 -->
<g id="Node000003" class="node">
<title>Node3</title>
<g id="a_Node000003"><a xlink:title=" ">
<polygon fill="#e0e0e0" stroke="#999999" points="99.75,-74.5 47.75,-74.5 47.75,-55.25 99.75,-55.25 99.75,-74.5"/>
<text text-anchor="middle" x="73.75" y="-61" font-family="Helvetica,sans-Serif" font-size="10.00">QObject</text>
</a>
</g>
</g>
<!-- Node1&#45;&gt;Node3 -->
<g id="edge2_Node000001_Node000003" class="edge">
<title>Node1&#45;&gt;Node3</title>
<g id="a_edge2_Node000001_Node000003"><a xlink:title=" ">
<path fill="none" stroke="#63b8ff" d="M106.12,-110.2C100.39,-102.35 93.27,-92.6 87.16,-84.24"/>
<polygon fill="#63b8ff" stroke="#63b8ff" points="90,-82.18 81.27,-76.17 84.34,-86.31 90,-82.18"/>
</a>
</g>
</g>
<!-- Node4 -->
<g id="Node000004" class="node">
<title>Node4</title>
<g id="a_Node000004"><a xlink:href="../../dc/d82/photo__types_8hpp.html" target="_top" xlink:title=" ">
<polygon fill="#fff0f0" stroke="red" points="204,-74.5 117.5,-74.5 117.5,-55.25 204,-55.25 204,-74.5"/>
<text text-anchor="middle" x="160.75" y="-61" font-family="Helvetica,sans-Serif" font-size="10.00">photo_types.hpp</text>
</a>
</g>
</g>
<!-- Node1&#45;&gt;Node4 -->
<g id="edge3_Node000001_Node000004" class="edge">
<title>Node1&#45;&gt;Node4</title>
<g id="a_edge3_Node000001_Node000004"><a xlink:title=" ">
<path fill="none" stroke="#63b8ff" d="M127.63,-110.2C133.55,-102.27 140.94,-92.38 147.23,-83.96"/>
<polygon fill="#63b8ff" stroke="#63b8ff" points="149.88,-86.27 153.06,-76.16 144.27,-82.08 149.88,-86.27"/>
</a>
</g>
</g>
<!-- Node11 -->
<g id="Node000011" class="node">
<title>Node11</title>
<g id="a_Node000011"><a xlink:title=" ">
<polygon fill="#e0e0e0" stroke="#999999" points="243.12,-19.25 148.38,-19.25 148.38,0 243.12,0 243.12,-19.25"/>
<text text-anchor="middle" x="195.75" y="-5.75" font-family="Helvetica,sans-Serif" font-size="10.00">database_export.h</text>
</a>
</g>
</g>
<!-- Node1&#45;&gt;Node11 -->
<g id="edge5_Node000001_Node000011" class="edge">
<title>Node1&#45;&gt;Node11</title>
<g id="a_edge5_Node000001_Node000011"><a xlink:title=" ">
<path fill="none" stroke="#63b8ff" d="M168.13,-110.01C185.39,-102.34 202.77,-91 212.75,-74.5 221.19,-60.56 215.03,-42.42 207.88,-29.04"/>
<polygon fill="#63b8ff" stroke="#63b8ff" points="211.09,-27.59 202.96,-20.8 205.08,-31.18 211.09,-27.59"/>
</a>
</g>
</g>
<!-- Node4&#45;&gt;Node11 -->
<g id="edge4_Node000004_Node000011" class="edge">
<title>Node4&#45;&gt;Node11</title>
<g id="a_edge4_Node000004_Node000011"><a xlink:title=" ">
<path fill="none" stroke="#63b8ff" d="M166.53,-55.08C171.16,-48.03 177.82,-37.9 183.62,-29.08"/>
<polygon fill="#63b8ff" stroke="#63b8ff" points="186.45,-31.15 189.01,-20.87 180.6,-27.31 186.45,-31.15"/>
</a>
</g>
</g>
</g>
</svg>
