<?xml version="1.0" encoding="UTF-8" standalone="no"?>
<!DOCTYPE svg PUBLIC "-//W3C//DTD SVG 1.1//EN"
 "http://www.w3.org/Graphics/SVG/1.1/DTD/svg11.dtd">
<!-- Generated by graphviz version 7.0.5 (20221223.1930)
 -->
<!-- Title: src/core/id.hpp Pages: 1 -->
<svg width="685pt" height="93pt"
 viewBox="0.00 0.00 685.00 93.00" xmlns="http://www.w3.org/2000/svg" xmlns:xlink="http://www.w3.org/1999/xlink">
<g id="graph0" class="graph" transform="scale(1 1) rotate(0) translate(4 89)">
<title>src/core/id.hpp</title>
<!-- Node1 -->
<g id="node1" class="node">
<title>Node1</title>
<g id="a_node1"><a xlink:title=" ">
<polygon fill="#999999" stroke="#666666" points="406.5,-85 326.5,-85 326.5,-66 406.5,-66 406.5,-85"/>
<text text-anchor="middle" x="366.5" y="-73" font-family="Helvetica,sans-Serif" font-size="10.00">src/core/id.hpp</text>
</a>
</g>
</g>
<!-- Node2 -->
<g id="node2" class="node">
<title>Node2</title>
<g id="a_node2"><a xlink:href="../../dd/dbe/query__structs_8hpp.html" target="_top" xlink:title=" ">
<polygon fill="#fff0f0" stroke="red" points="159,-30 0,-30 0,0 159,0 159,-30"/>
<text text-anchor="start" x="8" y="-18" font-family="Helvetica,sans-Serif" font-size="10.00">src/database/backends</text>
<text text-anchor="middle" x="79.5" y="-7" font-family="Helvetica,sans-Serif" font-size="10.00">/sql_backends/query_structs.hpp</text>
</a>
</g>
</g>
<!-- Node1&#45;&gt;Node2 -->
<g id="edge1" class="edge">
<title>Node1&#45;&gt;Node2</title>
<path fill="none" stroke="#63b8ff" d="M315.11,-64.02C269.18,-54.66 201.46,-40.86 150.39,-30.45"/>
<polygon fill="#63b8ff" stroke="#63b8ff" points="314.31,-67.43 324.81,-66 315.71,-60.58 314.31,-67.43"/>
</g>
<!-- Node13 -->
<g id="node3" class="node">
<title>Node13</title>
<g id="a_node3"><a xlink:href="../../d8/d3d/group_8hpp.html" target="_top" xlink:title=" ">
<polygon fill="#fff0f0" stroke="red" points="295.5,-24.5 177.5,-24.5 177.5,-5.5 295.5,-5.5 295.5,-24.5"/>
<text text-anchor="middle" x="236.5" y="-12.5" font-family="Helvetica,sans-Serif" font-size="10.00">src/database/group.hpp</text>
</a>
</g>
</g>
<!-- Node1&#45;&gt;Node13 -->
<g id="edge2" class="edge">
<title>Node1&#45;&gt;Node13</title>
<path fill="none" stroke="#63b8ff" d="M336.53,-61.02C311.94,-49.95 277.79,-34.58 256.43,-24.97"/>
<polygon fill="#63b8ff" stroke="#63b8ff" points="334.82,-64.08 345.38,-64.99 337.69,-57.7 334.82,-64.08"/>
</g>
<!-- Node135 -->
<g id="node4" class="node">
<title>Node135</title>
<g id="a_node4"><a xlink:href="../../d9/d0f/person__data_8hpp.html" target="_top" xlink:title=" ">
<polygon fill="#fff0f0" stroke="red" points="419,-30 314,-30 314,0 419,0 419,-30"/>
<text text-anchor="start" x="322" y="-18" font-family="Helvetica,sans-Serif" font-size="10.00">src/database/person</text>
<text text-anchor="middle" x="366.5" y="-7" font-family="Helvetica,sans-Serif" font-size="10.00">_data.hpp</text>
</a>
</g>
</g>
<!-- Node1&#45;&gt;Node135 -->
<g id="edge3" class="edge">
<title>Node1&#45;&gt;Node135</title>
<path fill="none" stroke="#63b8ff" d="M366.5,-54.51C366.5,-46.49 366.5,-37.43 366.5,-30.11"/>
<polygon fill="#63b8ff" stroke="#63b8ff" points="363,-54.35 366.5,-64.35 370,-54.35 363,-54.35"/>
</g>
<!-- Node152 -->
<g id="node5" class="node">
<title>Node152</title>
<g id="a_node5"><a xlink:href="../../dc/d82/photo__types_8hpp.html" target="_top" xlink:title=" ">
<polygon fill="#fff0f0" stroke="red" points="537.5,-30 437.5,-30 437.5,0 537.5,0 537.5,-30"/>
<text text-anchor="start" x="445.5" y="-18" font-family="Helvetica,sans-Serif" font-size="10.00">src/database/photo</text>
<text text-anchor="middle" x="487.5" y="-7" font-family="Helvetica,sans-Serif" font-size="10.00">_types.hpp</text>
</a>
</g>
</g>
<!-- Node1&#45;&gt;Node152 -->
<g id="edge4" class="edge">
<title>Node1&#45;&gt;Node152</title>
<path fill="none" stroke="#63b8ff" d="M395.21,-60.62C414.03,-51.52 438.58,-39.65 457.63,-30.44"/>
<polygon fill="#63b8ff" stroke="#63b8ff" points="393.72,-57.45 386.24,-64.96 396.77,-63.75 393.72,-57.45"/>
</g>
<!-- Node165 -->
<g id="node6" class="node">
<title>Node165</title>
<g id="a_node6"><a xlink:href="../../d7/d64/inotifications_8hpp.html" target="_top" xlink:title=" ">
<polygon fill="#fff0f0" stroke="red" points="677,-24.5 556,-24.5 556,-5.5 677,-5.5 677,-24.5"/>
<text text-anchor="middle" x="616.5" y="-12.5" font-family="Helvetica,sans-Serif" font-size="10.00">src/gui/inotifications.hpp</text>
</a>
</g>
</g>
<!-- Node1&#45;&gt;Node165 -->
<g id="edge5" class="edge">
<title>Node1&#45;&gt;Node165</title>
<path fill="none" stroke="#63b8ff" d="M415.73,-62.98C463.4,-51.82 534.7,-35.14 578.26,-24.95"/>
<polygon fill="#63b8ff" stroke="#63b8ff" points="415.15,-59.52 406.22,-65.21 416.75,-66.34 415.15,-59.52"/>
</g>
</g>
</svg>
