<?xml version="1.0" encoding="UTF-8" standalone="no"?>
<!DOCTYPE svg PUBLIC "-//W3C//DTD SVG 1.1//EN"
 "http://www.w3.org/Graphics/SVG/1.1/DTD/svg11.dtd">
<!-- Generated by graphviz version 9.0.0 (20230911.1827)
 -->
<!-- Title: src/database/database_tools/json_to_backend.hpp Pages: 1 -->
<svg width="1869pt" height="116pt"
 viewBox="0.00 0.00 1869.25 116.25" xmlns="http://www.w3.org/2000/svg" xmlns:xlink="http://www.w3.org/1999/xlink">
<g id="graph0" class="graph" transform="scale(1 1) rotate(0) translate(4 112.25)">
<title>src/database/database_tools/json_to_backend.hpp</title>
<!-- Node1 -->
<g id="Node000001" class="node">
<title>Node1</title>
<g id="a_Node000001"><a xlink:title=" ">
<polygon fill="#999999" stroke="#666666" points="975.88,-108.25 839.12,-108.25 839.12,-77.75 975.88,-77.75 975.88,-108.25"/>
<text text-anchor="start" x="847.12" y="-94.75" font-family="Helvetica,sans-Serif" font-size="10.00">src/database/database</text>
<text text-anchor="middle" x="907.5" y="-83.5" font-family="Helvetica,sans-Serif" font-size="10.00">_tools/json_to_backend.hpp</text>
</a>
</g>
</g>
<!-- Node2 -->
<g id="Node000002" class="node">
<title>Node2</title>
<g id="a_Node000002"><a xlink:href="../../d0/d1b/json__to__backend_8cpp.html" target="_top" xlink:title=" ">
<polygon fill="white" stroke="#666666" points="115,-41.75 0,-41.75 0,0 115,0 115,-41.75"/>
<text text-anchor="start" x="8" y="-28.25" font-family="Helvetica,sans-Serif" font-size="10.00">src/database/database</text>
<text text-anchor="start" x="8" y="-17" font-family="Helvetica,sans-Serif" font-size="10.00">_tools/implementation</text>
<text text-anchor="middle" x="57.5" y="-5.75" font-family="Helvetica,sans-Serif" font-size="10.00">/json_to_backend.cpp</text>
</a>
</g>
</g>
<!-- Node1&#45;&gt;Node2 -->
<g id="edge1_Node000001_Node000002" class="edge">
<title>Node1&#45;&gt;Node2</title>
<g id="a_edge1_Node000001_Node000002"><a xlink:title=" ">
<path fill="none" stroke="#63b8ff" d="M827.48,-92.87C684.82,-93.09 377.69,-87.55 123.5,-41.75 120.79,-41.26 118.04,-40.7 115.27,-40.08"/>
<polygon fill="#63b8ff" stroke="#63b8ff" points="827.2,-96.37 837.19,-92.84 827.18,-89.37 827.2,-96.37"/>
</a>
</g>
</g>
<!-- Node3 -->
<g id="Node000003" class="node">
<title>Node3</title>
<g id="a_Node000003"><a xlink:href="../../d7/de6/json__to__backend__tests_8cpp.html" target="_top" xlink:title=" ">
<polygon fill="white" stroke="#666666" points="270.25,-36.12 132.75,-36.12 132.75,-5.62 270.25,-5.62 270.25,-36.12"/>
<text text-anchor="start" x="140.75" y="-22.62" font-family="Helvetica,sans-Serif" font-size="10.00">src/database/unit_tests</text>
<text text-anchor="middle" x="201.5" y="-11.38" font-family="Helvetica,sans-Serif" font-size="10.00">/json_to_backend_tests.cpp</text>
</a>
</g>
</g>
<!-- Node1&#45;&gt;Node3 -->
<g id="edge2_Node000001_Node000003" class="edge">
<title>Node1&#45;&gt;Node3</title>
<g id="a_edge2_Node000001_Node000003"><a xlink:title=" ">
<path fill="none" stroke="#63b8ff" d="M827.49,-89.94C707.64,-85.87 474.7,-74.19 279.5,-41.75 271.23,-40.38 262.55,-38.55 254.11,-36.57"/>
<polygon fill="#63b8ff" stroke="#63b8ff" points="827.11,-93.43 837.22,-90.26 827.34,-86.43 827.11,-93.43"/>
</a>
</g>
</g>
<!-- Node4 -->
<g id="Node000004" class="node">
<title>Node4</title>
<g id="a_Node000004"><a xlink:href="../../dc/d1a/series__detector__tests_8cpp.html" target="_top" xlink:title=" ">
<polygon fill="white" stroke="#666666" points="418.88,-36.12 288.12,-36.12 288.12,-5.62 418.88,-5.62 418.88,-36.12"/>
<text text-anchor="start" x="296.12" y="-22.62" font-family="Helvetica,sans-Serif" font-size="10.00">src/database/unit_tests</text>
<text text-anchor="middle" x="353.5" y="-11.38" font-family="Helvetica,sans-Serif" font-size="10.00">/series_detector_tests.cpp</text>
</a>
</g>
</g>
<!-- Node1&#45;&gt;Node4 -->
<g id="edge3_Node000001_Node000004" class="edge">
<title>Node1&#45;&gt;Node4</title>
<g id="a_edge3_Node000001_Node000004"><a xlink:title=" ">
<path fill="none" stroke="#63b8ff" d="M827.32,-87.49C731.56,-81.22 566.83,-67.59 427.5,-41.75 419.78,-40.32 411.69,-38.49 403.81,-36.53"/>
<polygon fill="#63b8ff" stroke="#63b8ff" points="826.94,-90.98 837.14,-88.13 827.39,-83.99 826.94,-90.98"/>
</a>
</g>
</g>
<!-- Node5 -->
<g id="Node000005" class="node">
<title>Node5</title>
<g id="a_Node000005"><a xlink:href="../../db/d8c/filters__tests_8cpp.html" target="_top" xlink:title=" ">
<polygon fill="white" stroke="#666666" points="554.5,-41.75 436.5,-41.75 436.5,0 554.5,0 554.5,-41.75"/>
<text text-anchor="start" x="444.5" y="-28.25" font-family="Helvetica,sans-Serif" font-size="10.00">src/database/unit_tests</text>
<text text-anchor="start" x="444.5" y="-17" font-family="Helvetica,sans-Serif" font-size="10.00">_for_backends/filters</text>
<text text-anchor="middle" x="495.5" y="-5.75" font-family="Helvetica,sans-Serif" font-size="10.00">_tests.cpp</text>
</a>
</g>
</g>
<!-- Node1&#45;&gt;Node5 -->
<g id="edge4_Node000001_Node000005" class="edge">
<title>Node1&#45;&gt;Node5</title>
<g id="a_edge4_Node000001_Node000005"><a xlink:title=" ">
<path fill="none" stroke="#63b8ff" d="M827.41,-83.5C757.33,-75.31 653.02,-61.27 563.5,-41.75 560.62,-41.12 557.67,-40.44 554.71,-39.71"/>
<polygon fill="#63b8ff" stroke="#63b8ff" points="826.95,-86.97 837.28,-84.64 827.75,-80.02 826.95,-86.97"/>
</a>
</g>
</g>
<!-- Node6 -->
<g id="Node000006" class="node">
<title>Node6</title>
<g id="a_Node000006"><a xlink:href="../../d1/de3/people__tests_8cpp.html" target="_top" xlink:title=" ">
<polygon fill="white" stroke="#666666" points="728.62,-36.12 572.38,-36.12 572.38,-5.62 728.62,-5.62 728.62,-36.12"/>
<text text-anchor="start" x="580.38" y="-22.62" font-family="Helvetica,sans-Serif" font-size="10.00">src/database/unit_tests</text>
<text text-anchor="middle" x="650.5" y="-11.38" font-family="Helvetica,sans-Serif" font-size="10.00">_for_backends/people_tests.cpp</text>
</a>
</g>
</g>
<!-- Node1&#45;&gt;Node6 -->
<g id="edge5_Node000001_Node000006" class="edge">
<title>Node1&#45;&gt;Node6</title>
<g id="a_edge5_Node000001_Node000006"><a xlink:title=" ">
<path fill="none" stroke="#63b8ff" d="M842.76,-74.34C800.01,-62.67 744.64,-47.56 704.3,-36.56"/>
<polygon fill="#63b8ff" stroke="#63b8ff" points="841.6,-77.65 852.16,-76.9 843.44,-70.89 841.6,-77.65"/>
</a>
</g>
</g>
<!-- Node7 -->
<g id="Node000007" class="node">
<title>Node7</title>
<g id="a_Node000007"><a xlink:href="../../de/d51/unit__tests__for__backends_2phash__tests_8cpp.html" target="_top" xlink:title=" ">
<polygon fill="white" stroke="#666666" points="900.5,-36.12 746.5,-36.12 746.5,-5.62 900.5,-5.62 900.5,-36.12"/>
<text text-anchor="start" x="754.5" y="-22.62" font-family="Helvetica,sans-Serif" font-size="10.00">src/database/unit_tests</text>
<text text-anchor="middle" x="823.5" y="-11.38" font-family="Helvetica,sans-Serif" font-size="10.00">_for_backends/phash_tests.cpp</text>
</a>
</g>
</g>
<!-- Node1&#45;&gt;Node7 -->
<g id="edge6_Node000001_Node000007" class="edge">
<title>Node1&#45;&gt;Node7</title>
<g id="a_edge6_Node000001_Node000007"><a xlink:title=" ">
<path fill="none" stroke="#63b8ff" d="M881.44,-70.24C868.24,-59.23 852.59,-46.16 840.88,-36.39"/>
<polygon fill="#63b8ff" stroke="#63b8ff" points="879.01,-72.78 888.93,-76.5 883.5,-67.4 879.01,-72.78"/>
</a>
</g>
</g>
<!-- Node8 -->
<g id="Node000008" class="node">
<title>Node8</title>
<g id="a_Node000008"><a xlink:href="../../dc/d67/photo__operator__tests_8cpp.html" target="_top" xlink:title=" ">
<polygon fill="white" stroke="#666666" points="1066.12,-41.75 918.88,-41.75 918.88,0 1066.12,0 1066.12,-41.75"/>
<text text-anchor="start" x="926.88" y="-28.25" font-family="Helvetica,sans-Serif" font-size="10.00">src/database/unit_tests</text>
<text text-anchor="start" x="926.88" y="-17" font-family="Helvetica,sans-Serif" font-size="10.00">_for_backends/photo_operator</text>
<text text-anchor="middle" x="992.5" y="-5.75" font-family="Helvetica,sans-Serif" font-size="10.00">_tests.cpp</text>
</a>
</g>
</g>
<!-- Node1&#45;&gt;Node8 -->
<g id="edge7_Node000001_Node000008" class="edge">
<title>Node1&#45;&gt;Node8</title>
<g id="a_edge7_Node000001_Node000008"><a xlink:title=" ">
<path fill="none" stroke="#63b8ff" d="M933.76,-70.33C944.62,-61.38 957.14,-51.05 967.82,-42.24"/>
<polygon fill="#63b8ff" stroke="#63b8ff" points="931.77,-67.44 926.28,-76.51 936.22,-72.84 931.77,-67.44"/>
</a>
</g>
</g>
<!-- Node9 -->
<g id="Node000009" class="node">
<title>Node9</title>
<g id="a_Node000009"><a xlink:href="../../d3/d9d/photos__tests_8cpp.html" target="_top" xlink:title=" ">
<polygon fill="white" stroke="#666666" points="1241,-36.12 1084,-36.12 1084,-5.62 1241,-5.62 1241,-36.12"/>
<text text-anchor="start" x="1092" y="-22.62" font-family="Helvetica,sans-Serif" font-size="10.00">src/database/unit_tests</text>
<text text-anchor="middle" x="1162.5" y="-11.38" font-family="Helvetica,sans-Serif" font-size="10.00">_for_backends/photos_tests.cpp</text>
</a>
</g>
</g>
<!-- Node1&#45;&gt;Node9 -->
<g id="edge8_Node000001_Node000009" class="edge">
<title>Node1&#45;&gt;Node9</title>
<g id="a_edge8_Node000001_Node000009"><a xlink:title=" ">
<path fill="none" stroke="#63b8ff" d="M972,-74.26C1014.39,-62.61 1069.18,-47.54 1109.11,-36.56"/>
<polygon fill="#63b8ff" stroke="#63b8ff" points="971.13,-70.87 962.42,-76.9 972.99,-77.62 971.13,-70.87"/>
</a>
</g>
</g>
<!-- Node10 -->
<g id="Node000010" class="node">
<title>Node10</title>
<g id="a_Node000010"><a xlink:href="../../d3/db0/tags__tests_8cpp.html" target="_top" xlink:title=" ">
<polygon fill="white" stroke="#666666" points="1405.75,-36.12 1259.25,-36.12 1259.25,-5.62 1405.75,-5.62 1405.75,-36.12"/>
<text text-anchor="start" x="1267.25" y="-22.62" font-family="Helvetica,sans-Serif" font-size="10.00">src/database/unit_tests</text>
<text text-anchor="middle" x="1332.5" y="-11.38" font-family="Helvetica,sans-Serif" font-size="10.00">_for_backends/tags_tests.cpp</text>
</a>
</g>
</g>
<!-- Node1&#45;&gt;Node10 -->
<g id="edge9_Node000001_Node000010" class="edge">
<title>Node1&#45;&gt;Node10</title>
<g id="a_edge9_Node000001_Node000010"><a xlink:title=" ">
<path fill="none" stroke="#63b8ff" d="M987.47,-82.41C1057.21,-73.54 1160.95,-59.12 1250.5,-41.75 1258.41,-40.22 1266.7,-38.42 1274.86,-36.55"/>
<polygon fill="#63b8ff" stroke="#63b8ff" points="987.13,-78.92 977.65,-83.65 988.01,-85.87 987.13,-78.92"/>
</a>
</g>
</g>
<!-- Node11 -->
<g id="Node000011" class="node">
<title>Node11</title>
<g id="a_Node000011"><a xlink:href="../../dd/d49/transaction__accumulations__tests_8cpp.html" target="_top" xlink:title=" ">
<polygon fill="white" stroke="#666666" points="1554.88,-41.75 1424.12,-41.75 1424.12,0 1554.88,0 1554.88,-41.75"/>
<text text-anchor="start" x="1432.12" y="-28.25" font-family="Helvetica,sans-Serif" font-size="10.00">src/database/unit_tests</text>
<text text-anchor="start" x="1432.12" y="-17" font-family="Helvetica,sans-Serif" font-size="10.00">_for_backends/transaction</text>
<text text-anchor="middle" x="1489.5" y="-5.75" font-family="Helvetica,sans-Serif" font-size="10.00">_accumulations_tests.cpp</text>
</a>
</g>
</g>
<!-- Node1&#45;&gt;Node11 -->
<g id="edge10_Node000001_Node000011" class="edge">
<title>Node1&#45;&gt;Node11</title>
<g id="a_edge10_Node000001_Node000011"><a xlink:title=" ">
<path fill="none" stroke="#63b8ff" d="M987.3,-88.05C1087.64,-82.18 1264.9,-68.81 1414.5,-41.75 1417.55,-41.2 1420.65,-40.59 1423.78,-39.93"/>
<polygon fill="#63b8ff" stroke="#63b8ff" points="987.34,-84.54 977.56,-88.61 987.74,-91.53 987.34,-84.54"/>
</a>
</g>
</g>
<!-- Node12 -->
<g id="Node000012" class="node">
<title>Node12</title>
<g id="a_Node000012"><a xlink:href="../../d2/dca/aphoto__data__model__tests_8cpp.html" target="_top" xlink:title=" ">
<polygon fill="white" stroke="#666666" points="1706,-41.75 1573,-41.75 1573,0 1706,0 1706,-41.75"/>
<text text-anchor="start" x="1581" y="-28.25" font-family="Helvetica,sans-Serif" font-size="10.00">src/gui/unit_tests</text>
<text text-anchor="start" x="1581" y="-17" font-family="Helvetica,sans-Serif" font-size="10.00">/model/aphoto_data_model</text>
<text text-anchor="middle" x="1639.5" y="-5.75" font-family="Helvetica,sans-Serif" font-size="10.00">_tests.cpp</text>
</a>
</g>
</g>
<!-- Node1&#45;&gt;Node12 -->
<g id="edge11_Node000001_Node000012" class="edge">
<title>Node1&#45;&gt;Node12</title>
<g id="a_edge11_Node000001_Node000012"><a xlink:title=" ">
<path fill="none" stroke="#63b8ff" d="M987.24,-90.49C1111.27,-87.12 1357.58,-76.27 1563.5,-41.75 1566.46,-41.25 1569.47,-40.7 1572.5,-40.09"/>
<polygon fill="#63b8ff" stroke="#63b8ff" points="987.4,-86.99 977.49,-90.75 987.58,-93.98 987.4,-86.99"/>
</a>
</g>
</g>
<!-- Node13 -->
<g id="Node000013" class="node">
<title>Node13</title>
<g id="a_Node000013"><a xlink:href="../../d1/dc2/flat__model__tests_8cpp.html" target="_top" xlink:title=" ">
<polygon fill="white" stroke="#666666" points="1861.25,-36.12 1723.75,-36.12 1723.75,-5.62 1861.25,-5.62 1861.25,-36.12"/>
<text text-anchor="start" x="1731.75" y="-22.62" font-family="Helvetica,sans-Serif" font-size="10.00">src/gui/unit_tests</text>
<text text-anchor="middle" x="1792.5" y="-11.38" font-family="Helvetica,sans-Serif" font-size="10.00">/model/flat_model_tests.cpp</text>
</a>
</g>
</g>
<!-- Node1&#45;&gt;Node13 -->
<g id="edge12_Node000001_Node000013" class="edge">
<title>Node1&#45;&gt;Node13</title>
<g id="a_edge12_Node000001_Node000013"><a xlink:title=" ">
<path fill="none" stroke="#63b8ff" d="M987.82,-92.05C1133.68,-91.02 1451.45,-83.65 1715.5,-41.75 1723.82,-40.43 1732.54,-38.61 1741.01,-36.61"/>
<polygon fill="#63b8ff" stroke="#63b8ff" points="987.84,-88.55 977.86,-92.11 987.89,-95.55 987.84,-88.55"/>
</a>
</g>
</g>
</g>
</svg>
