<?xml version="1.0" encoding="UTF-8" standalone="no"?>
<!DOCTYPE svg PUBLIC "-//W3C//DTD SVG 1.1//EN"
 "http://www.w3.org/Graphics/SVG/1.1/DTD/svg11.dtd">
<!-- Generated by graphviz version 12.2.0 (20241103.1931)
 -->
<!-- Title: src/core/iconfiguration.hpp Pages: 1 -->
<svg width="158pt" height="83pt"
 viewBox="0.00 0.00 157.88 82.50" xmlns="http://www.w3.org/2000/svg" xmlns:xlink="http://www.w3.org/1999/xlink">
<g id="graph0" class="graph" transform="scale(1 1) rotate(0) translate(4 78.5)">
<title>src/core/iconfiguration.hpp</title>
<!-- Node1 -->
<g id="Node000001" class="node">
<title>Node1</title>
<g id="a_Node000001"><a xlink:title=" ">
<polygon fill="#999999" stroke="#666666" points="135.62,-74.5 6.38,-74.5 6.38,-55.25 135.62,-55.25 135.62,-74.5"/>
<text text-anchor="middle" x="71" y="-61" font-family="Helvetica,sans-Serif" font-size="10.00">src/core/iconfiguration.hpp</text>
</a>
</g>
</g>
<!-- Node2 -->
<g id="Node000002" class="node">
<title>Node2</title>
<g id="a_Node000002"><a xlink:title=" ">
<polygon fill="#e0e0e0" stroke="#999999" points="58,-19.25 0,-19.25 0,0 58,0 58,-19.25"/>
<text text-anchor="middle" x="29" y="-5.75" font-family="Helvetica,sans-Serif" font-size="10.00">functional</text>
</a>
</g>
</g>
<!-- Node1&#45;&gt;Node2 -->
<g id="edge1_Node000001_Node000002" class="edge">
<title>Node1&#45;&gt;Node2</title>
<g id="a_edge1_Node000001_Node000002"><a xlink:title=" ">
<path fill="none" stroke="#63b8ff" d="M64.06,-55.08C58.38,-47.88 50.16,-37.46 43.11,-28.51"/>
<polygon fill="#63b8ff" stroke="#63b8ff" points="45.96,-26.48 37.02,-20.8 40.47,-30.82 45.96,-26.48"/>
</a>
</g>
</g>
<!-- Node3 -->
<g id="Node000003" class="node">
<title>Node3</title>
<g id="a_Node000003"><a xlink:title=" ">
<polygon fill="#e0e0e0" stroke="#999999" points="149.88,-19.25 76.12,-19.25 76.12,0 149.88,0 149.88,-19.25"/>
<text text-anchor="middle" x="113" y="-5.75" font-family="Helvetica,sans-Serif" font-size="10.00">core_export.h</text>
</a>
</g>
</g>
<!-- Node1&#45;&gt;Node3 -->
<g id="edge2_Node000001_Node000003" class="edge">
<title>Node1&#45;&gt;Node3</title>
<g id="a_edge2_Node000001_Node000003"><a xlink:title=" ">
<path fill="none" stroke="#63b8ff" d="M77.94,-55.08C83.62,-47.88 91.84,-37.46 98.89,-28.51"/>
<polygon fill="#63b8ff" stroke="#63b8ff" points="101.53,-30.82 104.98,-20.8 96.04,-26.48 101.53,-30.82"/>
</a>
</g>
</g>
</g>
</svg>
