<?xml version="1.0" encoding="UTF-8" standalone="no"?>
<!DOCTYPE svg PUBLIC "-//W3C//DTD SVG 1.1//EN"
 "http://www.w3.org/Graphics/SVG/1.1/DTD/svg11.dtd">
<!-- Generated by graphviz version 7.0.5 (20221223.1930)
 -->
<!-- Title: AExifReader::read Pages: 1 -->
<svg width="289pt" height="175pt"
 viewBox="0.00 0.00 289.00 175.00" xmlns="http://www.w3.org/2000/svg" xmlns:xlink="http://www.w3.org/1999/xlink">
<g id="graph0" class="graph" transform="scale(1 1) rotate(0) translate(4 171)">
<title>AExifReader::read</title>
<!-- Node1 -->
<g id="node1" class="node">
<title>Node1</title>
<g id="a_node1"><a xlink:title=" ">
<polygon fill="#999999" stroke="#666666" points="281,-93 188,-93 188,-74 281,-74 281,-93"/>
<text text-anchor="middle" x="234.5" y="-81" font-family="Helvetica,sans-Serif" font-size="10.00">AExifReader::read</text>
</a>
</g>
</g>
<!-- Node2 -->
<g id="node2" class="node">
<title>Node2</title>
<g id="a_node2"><a xlink:href="../../d1/d85/class_a_exif_reader.html#ae428ad3429c3c7dc0f83f2303b0a2c01" target="_top" xlink:title=" ">
<polygon fill="#fff0f0" stroke="red" points="152,-167 0,-167 0,-148 152,-148 152,-167"/>
<text text-anchor="middle" x="76" y="-155" font-family="Helvetica,sans-Serif" font-size="10.00">AExifReader::feedDateAndTime</text>
</a>
</g>
</g>
<!-- Node1&#45;&gt;Node2 -->
<g id="edge1" class="edge">
<title>Node1&#45;&gt;Node2</title>
<path fill="none" stroke="#63b8ff" d="M213.35,-100.48C197.58,-112.96 174.6,-129.44 152,-139.5 144.9,-142.66 137.17,-145.31 129.46,-147.52"/>
<polygon fill="#63b8ff" stroke="#63b8ff" points="215.44,-103.29 221,-94.27 211.03,-97.86 215.44,-103.29"/>
</g>
<!-- Node4 -->
<g id="node3" class="node">
<title>Node4</title>
<g id="a_node3"><a xlink:href="../../d1/d85/class_a_exif_reader.html#ab7b127abc50fb877b32ebd2f1b632d69" target="_top" xlink:title=" ">
<polygon fill="#fff0f0" stroke="red" points="128,-130 24,-130 24,-111 128,-111 128,-130"/>
<text text-anchor="middle" x="76" y="-118" font-family="Helvetica,sans-Serif" font-size="10.00">AExifReader::readInt</text>
</a>
</g>
</g>
<!-- Node1&#45;&gt;Node4 -->
<g id="edge2" class="edge">
<title>Node1&#45;&gt;Node4</title>
<path fill="none" stroke="#63b8ff" d="M180.42,-96.05C160.4,-100.78 137.93,-106.1 119.05,-110.56"/>
<polygon fill="#63b8ff" stroke="#63b8ff" points="181.16,-99.47 190.09,-93.76 179.55,-92.66 181.16,-99.47"/>
</g>
<!-- Node6 -->
<g id="node4" class="node">
<title>Node6</title>
<g id="a_node4"><a xlink:href="../../d1/d85/class_a_exif_reader.html#a6d31b2d2df688cc30421c358f482e283" target="_top" xlink:title=" ">
<polygon fill="#fff0f0" stroke="red" points="133.5,-93 18.5,-93 18.5,-74 133.5,-74 133.5,-93"/>
<text text-anchor="middle" x="76" y="-81" font-family="Helvetica,sans-Serif" font-size="10.00">AExifReader::readLong</text>
</a>
</g>
</g>
<!-- Node1&#45;&gt;Node6 -->
<g id="edge3" class="edge">
<title>Node1&#45;&gt;Node6</title>
<path fill="none" stroke="#63b8ff" d="M176.43,-83.5C162.56,-83.5 147.73,-83.5 133.87,-83.5"/>
<polygon fill="#63b8ff" stroke="#63b8ff" points="176.3,-87 186.3,-83.5 176.3,-80 176.3,-87"/>
</g>
<!-- Node7 -->
<g id="node5" class="node">
<title>Node7</title>
<g id="a_node5"><a xlink:href="../../d1/d85/class_a_exif_reader.html#a519f6a84c8f79a832d90a21be64065cc" target="_top" xlink:title=" ">
<polygon fill="#fff0f0" stroke="red" points="140,-56 12,-56 12,-37 140,-37 140,-56"/>
<text text-anchor="middle" x="76" y="-44" font-family="Helvetica,sans-Serif" font-size="10.00">AExifReader::readRational</text>
</a>
</g>
</g>
<!-- Node1&#45;&gt;Node7 -->
<g id="edge4" class="edge">
<title>Node1&#45;&gt;Node7</title>
<path fill="none" stroke="#63b8ff" d="M180.42,-70.95C160.4,-66.22 137.93,-60.9 119.05,-56.44"/>
<polygon fill="#63b8ff" stroke="#63b8ff" points="179.55,-74.34 190.09,-73.24 181.16,-67.53 179.55,-74.34"/>
</g>
<!-- Node8 -->
<g id="node6" class="node">
<title>Node8</title>
<g id="a_node6"><a xlink:href="../../d1/d85/class_a_exif_reader.html#a862605a1314b92651b9da6b362357e44" target="_top" xlink:title=" ">
<polygon fill="#fff0f0" stroke="red" points="135.5,-19 16.5,-19 16.5,0 135.5,0 135.5,-19"/>
<text text-anchor="middle" x="76" y="-7" font-family="Helvetica,sans-Serif" font-size="10.00">AExifReader::readString</text>
</a>
</g>
</g>
<!-- Node1&#45;&gt;Node8 -->
<g id="edge5" class="edge">
<title>Node1&#45;&gt;Node8</title>
<path fill="none" stroke="#63b8ff" d="M212.99,-66.71C197.18,-54.53 174.32,-38.49 152,-28.5 144.03,-24.93 135.27,-21.95 126.64,-19.49"/>
<polygon fill="#63b8ff" stroke="#63b8ff" points="210.65,-69.32 220.67,-72.77 214.99,-63.83 210.65,-69.32"/>
</g>
</g>
</svg>
