<?xml version="1.0" encoding="UTF-8" standalone="no"?>
<!DOCTYPE svg PUBLIC "-//W3C//DTD SVG 1.1//EN"
 "http://www.w3.org/Graphics/SVG/1.1/DTD/svg11.dtd">
<!-- Generated by graphviz version 7.0.5 (20221223.1930)
 -->
<!-- Title: ObservableTaskExecutor&lt; T &gt;::Task Pages: 1 -->
<svg width="282pt" height="104pt"
 viewBox="0.00 0.00 282.00 104.00" xmlns="http://www.w3.org/2000/svg" xmlns:xlink="http://www.w3.org/1999/xlink">
<g id="graph0" class="graph" transform="scale(1 1) rotate(0) translate(4 100)">
<title>ObservableTaskExecutor&lt; T &gt;::Task</title>
<!-- Node1 -->
<g id="node1" class="node">
<title>Node1</title>
<g id="a_node1"><a xlink:title=" ">
<polygon fill="#999999" stroke="#666666" points="189.5,-30 64.5,-30 64.5,0 189.5,0 189.5,-30"/>
<text text-anchor="start" x="72.5" y="-18" font-family="Helvetica,sans-Serif" font-size="10.00">ObservableTaskExecutor</text>
<text text-anchor="middle" x="127" y="-7" font-family="Helvetica,sans-Serif" font-size="10.00">&lt; T &gt;::Task</text>
</a>
</g>
</g>
<!-- Node2 -->
<g id="node2" class="node">
<title>Node2</title>
<g id="a_node2"><a xlink:href="../../dd/d9b/struct_i_task_executor_1_1_i_task.html" target="_top" xlink:title=" ">
<polygon fill="white" stroke="#666666" points="108,-96 0,-96 0,-77 108,-77 108,-96"/>
<text text-anchor="middle" x="54" y="-84" font-family="Helvetica,sans-Serif" font-size="10.00">ITaskExecutor::ITask</text>
</a>
</g>
</g>
<!-- Node2&#45;&gt;Node1 -->
<g id="edge1" class="edge">
<title>Node2&#45;&gt;Node1</title>
<path fill="none" stroke="#63b8ff" d="M71.41,-68.93C83.78,-57.15 100.22,-41.5 112.01,-30.27"/>
<polygon fill="#63b8ff" stroke="#63b8ff" points="69.17,-66.22 64.34,-75.65 74,-71.29 69.17,-66.22"/>
</g>
<!-- Node3 -->
<g id="node3" class="node">
<title>Node3</title>
<g id="a_node3"><a xlink:href="../../d5/d65/class_observable_task_executor.html" target="_top" xlink:title=" ">
<polygon fill="#fff0f0" stroke="red" points="274,-96 126,-96 126,-77 274,-77 274,-96"/>
<text text-anchor="middle" x="200" y="-84" font-family="Helvetica,sans-Serif" font-size="10.00">ObservableTaskExecutor&lt; T &gt;</text>
</a>
</g>
</g>
<!-- Node3&#45;&gt;Node1 -->
<g id="edge2" class="edge">
<title>Node3&#45;&gt;Node1</title>
<path fill="none" stroke="#9a32cd" stroke-dasharray="5,2" d="M182.59,-68.93C170.22,-57.15 153.78,-41.5 141.99,-30.27"/>
<polygon fill="#9a32cd" stroke="#9a32cd" points="180,-71.29 189.66,-75.65 184.83,-66.22 180,-71.29"/>
<text text-anchor="middle" x="196.5" y="-51" font-family="Helvetica,sans-Serif" font-size="10.00"> m_executor</text>
</g>
</g>
</svg>
