<?xml version="1.0" encoding="UTF-8" standalone="no"?>
<!DOCTYPE svg PUBLIC "-//W3C//DTD SVG 1.1//EN"
 "http://www.w3.org/Graphics/SVG/1.1/DTD/svg11.dtd">
<!-- Generated by graphviz version 7.0.5 (20221223.1930)
 -->
<!-- Title: PhotosGroupingDialog::PhotosGroupingDialog Pages: 1 -->
<svg width="283pt" height="230pt"
 viewBox="0.00 0.00 283.00 230.00" xmlns="http://www.w3.org/2000/svg" xmlns:xlink="http://www.w3.org/1999/xlink">
<g id="graph0" class="graph" transform="scale(1 1) rotate(0) translate(4 226)">
<title>PhotosGroupingDialog::PhotosGroupingDialog</title>
<!-- Node1 -->
<g id="node1" class="node">
<title>Node1</title>
<g id="a_node1"><a xlink:title=" ">
<polygon fill="#999999" stroke="#666666" points="118,-126 0,-126 0,-96 118,-96 118,-126"/>
<text text-anchor="start" x="8" y="-114" font-family="Helvetica,sans-Serif" font-size="10.00">PhotosGroupingDialog</text>
<text text-anchor="middle" x="59" y="-103" font-family="Helvetica,sans-Serif" font-size="10.00">::PhotosGroupingDialog</text>
</a>
</g>
</g>
<!-- Node2 -->
<g id="node2" class="node">
<title>Node2</title>
<g id="a_node2"><a xlink:href="../../d0/d4e/class_photos_grouping_dialog.html#aea8f68ac5b06f0a246ae6cc04d80e82e" target="_top" xlink:title=" ">
<polygon fill="#fff0f0" stroke="red" points="271,-222 158,-222 158,-192 271,-192 271,-222"/>
<text text-anchor="start" x="166" y="-210" font-family="Helvetica,sans-Serif" font-size="10.00">PhotosGroupingDialog</text>
<text text-anchor="middle" x="214.5" y="-199" font-family="Helvetica,sans-Serif" font-size="10.00">::calculateFPS</text>
</a>
</g>
</g>
<!-- Node1&#45;&gt;Node2 -->
<g id="edge1" class="edge">
<title>Node1&#45;&gt;Node2</title>
<path fill="none" stroke="#63b8ff" d="M77.01,-126.32C95.12,-142.05 125.08,-166.5 154,-183 156.29,-184.3 158.66,-185.57 161.08,-186.8"/>
<polygon fill="#63b8ff" stroke="#63b8ff" points="159.31,-189.84 169.85,-190.96 162.31,-183.51 159.31,-189.84"/>
</g>
<!-- Node6 -->
<g id="node3" class="node">
<title>Node6</title>
<g id="a_node3"><a xlink:href="../../d0/d4e/class_photos_grouping_dialog.html#a5602e18dab61025c041f53bbe3e59254" target="_top" xlink:title=" ">
<polygon fill="#fff0f0" stroke="red" points="271,-174 158,-174 158,-144 271,-144 271,-174"/>
<text text-anchor="start" x="166" y="-162" font-family="Helvetica,sans-Serif" font-size="10.00">PhotosGroupingDialog</text>
<text text-anchor="middle" x="214.5" y="-151" font-family="Helvetica,sans-Serif" font-size="10.00">::fillModel</text>
</a>
</g>
</g>
<!-- Node1&#45;&gt;Node6 -->
<g id="edge2" class="edge">
<title>Node1&#45;&gt;Node6</title>
<path fill="none" stroke="#63b8ff" d="M109.41,-126.45C123.38,-130.82 138.74,-135.62 153.27,-140.17"/>
<polygon fill="#63b8ff" stroke="#63b8ff" points="152.15,-143.48 162.73,-143.13 154.24,-136.8 152.15,-143.48"/>
</g>
<!-- Node9 -->
<g id="node4" class="node">
<title>Node9</title>
<g id="a_node4"><a xlink:href="../../d0/d4e/class_photos_grouping_dialog.html#acdd897a76c29645a0d8bdc3eb814e78e" target="_top" xlink:title=" ">
<polygon fill="white" stroke="#666666" points="275,-126 154,-126 154,-96 275,-96 275,-126"/>
<text text-anchor="start" x="162" y="-114" font-family="Helvetica,sans-Serif" font-size="10.00">PhotosGroupingDialog</text>
<text text-anchor="middle" x="214.5" y="-103" font-family="Helvetica,sans-Serif" font-size="10.00">::previewCancelPressed</text>
</a>
</g>
</g>
<!-- Node1&#45;&gt;Node9 -->
<g id="edge3" class="edge">
<title>Node1&#45;&gt;Node9</title>
<path fill="none" stroke="#63b8ff" d="M118.47,-111C126.3,-111 134.4,-111 142.42,-111"/>
<polygon fill="#63b8ff" stroke="#63b8ff" points="142.15,-114.5 152.15,-111 142.15,-107.5 142.15,-114.5"/>
</g>
<!-- Node10 -->
<g id="node5" class="node">
<title>Node10</title>
<g id="a_node5"><a xlink:href="../../d0/d4e/class_photos_grouping_dialog.html#a4fe16c0e98343d75ed8386a35e2f1471" target="_top" xlink:title=" ">
<polygon fill="#fff0f0" stroke="red" points="271,-78 158,-78 158,-48 271,-48 271,-78"/>
<text text-anchor="start" x="166" y="-66" font-family="Helvetica,sans-Serif" font-size="10.00">PhotosGroupingDialog</text>
<text text-anchor="middle" x="214.5" y="-55" font-family="Helvetica,sans-Serif" font-size="10.00">::previewPressed</text>
</a>
</g>
</g>
<!-- Node1&#45;&gt;Node10 -->
<g id="edge4" class="edge">
<title>Node1&#45;&gt;Node10</title>
<path fill="none" stroke="#63b8ff" d="M109.41,-95.55C123.38,-91.18 138.74,-86.38 153.27,-81.83"/>
<polygon fill="#63b8ff" stroke="#63b8ff" points="154.24,-85.2 162.73,-78.87 152.15,-78.52 154.24,-85.2"/>
</g>
<!-- Node35 -->
<g id="node6" class="node">
<title>Node35</title>
<g id="a_node6"><a xlink:href="../../d0/d4e/class_photos_grouping_dialog.html#ab7e1db7fe4e3ea6211b59044e362c900" target="_top" xlink:title=" ">
<polygon fill="#fff0f0" stroke="red" points="271,-30 158,-30 158,0 271,0 271,-30"/>
<text text-anchor="start" x="166" y="-18" font-family="Helvetica,sans-Serif" font-size="10.00">PhotosGroupingDialog</text>
<text text-anchor="middle" x="214.5" y="-7" font-family="Helvetica,sans-Serif" font-size="10.00">::scalePreview</text>
</a>
</g>
</g>
<!-- Node1&#45;&gt;Node35 -->
<g id="edge5" class="edge">
<title>Node1&#45;&gt;Node35</title>
<path fill="none" stroke="#63b8ff" d="M77.01,-95.68C95.12,-79.95 125.08,-55.5 154,-39 156.29,-37.7 158.66,-36.43 161.08,-35.2"/>
<polygon fill="#63b8ff" stroke="#63b8ff" points="162.31,-38.49 169.85,-31.04 159.31,-32.16 162.31,-38.49"/>
</g>
</g>
</svg>
