<?xml version="1.0" encoding="UTF-8" standalone="no"?>
<!DOCTYPE svg PUBLIC "-//W3C//DTD SVG 1.1//EN"
 "http://www.w3.org/Graphics/SVG/1.1/DTD/svg11.dtd">
<!-- Generated by graphviz version 7.0.5 (20221223.1930)
 -->
<!-- Title: PhotosGroupingDialog::generationDone Pages: 1 -->
<svg width="419pt" height="148pt"
 viewBox="0.00 0.00 419.00 148.00" xmlns="http://www.w3.org/2000/svg" xmlns:xlink="http://www.w3.org/1999/xlink">
<g id="graph0" class="graph" transform="scale(1 1) rotate(0) translate(4 144)">
<title>PhotosGroupingDialog::generationDone</title>
<!-- Node1 -->
<g id="node1" class="node">
<title>Node1</title>
<g id="a_node1"><a xlink:title=" ">
<polygon fill="#999999" stroke="#666666" points="411,-75 298,-75 298,-45 411,-45 411,-75"/>
<text text-anchor="start" x="306" y="-63" font-family="Helvetica,sans-Serif" font-size="10.00">PhotosGroupingDialog</text>
<text text-anchor="middle" x="354.5" y="-52" font-family="Helvetica,sans-Serif" font-size="10.00">::generationDone</text>
</a>
</g>
</g>
<!-- Node2 -->
<g id="node2" class="node">
<title>Node2</title>
<g id="a_node2"><a xlink:href="../../d0/d4e/class_photos_grouping_dialog.html#ad037f450d58e8a287a8a73e22482254a" target="_top" xlink:title=" ">
<polygon fill="white" stroke="#666666" points="262,-140 149,-140 149,-110 262,-110 262,-140"/>
<text text-anchor="start" x="157" y="-128" font-family="Helvetica,sans-Serif" font-size="10.00">PhotosGroupingDialog</text>
<text text-anchor="middle" x="205.5" y="-117" font-family="Helvetica,sans-Serif" font-size="10.00">::generationCanceled</text>
</a>
</g>
</g>
<!-- Node1&#45;&gt;Node2 -->
<g id="edge1" class="edge">
<title>Node1&#45;&gt;Node2</title>
<path fill="none" stroke="#63b8ff" d="M308.42,-79.93C286.85,-89.47 261.41,-100.72 241.34,-109.59"/>
<polygon fill="#63b8ff" stroke="#63b8ff" points="309.55,-83.26 317.28,-76.02 306.72,-76.86 309.55,-83.26"/>
</g>
<!-- Node3 -->
<g id="node3" class="node">
<title>Node3</title>
<g id="a_node3"><a xlink:href="../../d0/d4e/class_photos_grouping_dialog.html#ad0966fe1525c441947ec6b56b1213cdf" target="_top" xlink:title=" ">
<polygon fill="#fff0f0" stroke="red" points="113,-97 0,-97 0,-67 113,-67 113,-97"/>
<text text-anchor="start" x="8" y="-85" font-family="Helvetica,sans-Serif" font-size="10.00">PhotosGroupingDialog</text>
<text text-anchor="middle" x="56.5" y="-74" font-family="Helvetica,sans-Serif" font-size="10.00">::startTask</text>
</a>
</g>
</g>
<!-- Node1&#45;&gt;Node3 -->
<g id="edge7" class="edge">
<title>Node1&#45;&gt;Node3</title>
<path fill="none" stroke="#63b8ff" d="M286.66,-64.97C234.42,-68.85 162.65,-74.18 113.43,-77.84"/>
<polygon fill="#63b8ff" stroke="#63b8ff" points="286.6,-68.48 296.32,-64.25 286.08,-61.5 286.6,-68.48"/>
</g>
<!-- Node8 -->
<g id="node4" class="node">
<title>Node8</title>
<g id="a_node4"><a xlink:href="../../d0/d4e/class_photos_grouping_dialog.html#ab537e3929d675260043bfe111c4afdda" target="_top" xlink:title=" ">
<polygon fill="white" stroke="#666666" points="262,-54 149,-54 149,-24 262,-24 262,-54"/>
<text text-anchor="start" x="157" y="-42" font-family="Helvetica,sans-Serif" font-size="10.00">PhotosGroupingDialog</text>
<text text-anchor="middle" x="205.5" y="-31" font-family="Helvetica,sans-Serif" font-size="10.00">::generationError</text>
</a>
</g>
</g>
<!-- Node1&#45;&gt;Node8 -->
<g id="edge3" class="edge">
<title>Node1&#45;&gt;Node8</title>
<path fill="none" stroke="#63b8ff" d="M286.29,-50.4C278.28,-49.25 270.17,-48.1 262.34,-46.98"/>
<polygon fill="#63b8ff" stroke="#63b8ff" points="285.61,-53.84 296.01,-51.79 286.6,-46.91 285.61,-53.84"/>
</g>
<!-- Node9 -->
<g id="node5" class="node">
<title>Node9</title>
<g id="a_node5"><a xlink:href="../../d0/d4e/class_photos_grouping_dialog.html#af6b9b5bf838e92f74c539d4972cabc38" target="_top" xlink:title=" ">
<polygon fill="#fff0f0" stroke="red" points="113,-30 0,-30 0,0 113,0 113,-30"/>
<text text-anchor="start" x="8" y="-18" font-family="Helvetica,sans-Serif" font-size="10.00">PhotosGroupingDialog</text>
<text text-anchor="middle" x="56.5" y="-7" font-family="Helvetica,sans-Serif" font-size="10.00">::makeCollage</text>
</a>
</g>
</g>
<!-- Node1&#45;&gt;Node9 -->
<g id="edge6" class="edge">
<title>Node1&#45;&gt;Node9</title>
<path fill="none" stroke="#63b8ff" d="M319.96,-38.9C303.23,-29.59 282.28,-19.72 262,-15 212.72,-3.54 154.94,-4.84 113.39,-8.24"/>
<polygon fill="#63b8ff" stroke="#63b8ff" points="318.07,-41.85 328.48,-43.81 321.57,-35.78 318.07,-41.85"/>
</g>
<!-- Node2&#45;&gt;Node3 -->
<g id="edge2" class="edge">
<title>Node2&#45;&gt;Node3</title>
<path fill="none" stroke="#63b8ff" d="M140.9,-106.4C130.68,-103.41 120.21,-100.34 110.28,-97.44"/>
<polygon fill="#63b8ff" stroke="#63b8ff" points="139.81,-109.72 150.39,-109.17 141.78,-103.01 139.81,-109.72"/>
</g>
<!-- Node8&#45;&gt;Node3 -->
<g id="edge5" class="edge">
<title>Node8&#45;&gt;Node3</title>
<path fill="none" stroke="#63b8ff" d="M140.9,-57.6C130.68,-60.59 120.21,-63.66 110.28,-66.56"/>
<polygon fill="#63b8ff" stroke="#63b8ff" points="141.78,-60.99 150.39,-54.83 139.81,-54.28 141.78,-60.99"/>
</g>
<!-- Node8&#45;&gt;Node9 -->
<g id="edge4" class="edge">
<title>Node8&#45;&gt;Node9</title>
<path fill="none" stroke="#63b8ff" d="M137.29,-28.03C129.28,-26.72 121.17,-25.39 113.34,-24.12"/>
<polygon fill="#63b8ff" stroke="#63b8ff" points="136.58,-31.46 147.01,-29.61 137.71,-24.55 136.58,-31.46"/>
</g>
</g>
</svg>
