<?xml version="1.0" encoding="UTF-8" standalone="no"?>
<!DOCTYPE svg PUBLIC "-//W3C//DTD SVG 1.1//EN"
 "http://www.w3.org/Graphics/SVG/1.1/DTD/svg11.dtd">
<!-- Generated by graphviz version 7.0.5 (20221223.1930)
 -->
<!-- Title: PhotosGroupingDialog::startTask Pages: 1 -->
<svg width="434pt" height="306pt"
 viewBox="0.00 0.00 434.00 305.50" xmlns="http://www.w3.org/2000/svg" xmlns:xlink="http://www.w3.org/1999/xlink">
<g id="graph0" class="graph" transform="scale(1 1) rotate(0) translate(4 301.5)">
<title>PhotosGroupingDialog::startTask</title>
<!-- Node1 -->
<g id="node1" class="node">
<title>Node1</title>
<g id="a_node1"><a xlink:title=" ">
<polygon fill="#999999" stroke="#666666" points="113,-169 0,-169 0,-139 113,-139 113,-169"/>
<text text-anchor="start" x="8" y="-157" font-family="Helvetica,sans-Serif" font-size="10.00">PhotosGroupingDialog</text>
<text text-anchor="middle" x="56.5" y="-146" font-family="Helvetica,sans-Serif" font-size="10.00">::startTask</text>
</a>
</g>
</g>
<!-- Node2 -->
<g id="node2" class="node">
<title>Node2</title>
<g id="a_node2"><a xlink:href="../../d5/d45/struct_i_task_executor.html#a52c27a801ca71679f9a8e3dc9c173734" target="_top" xlink:title=" ">
<polygon fill="white" stroke="#666666" points="262.5,-297.5 163.5,-297.5 163.5,-278.5 262.5,-278.5 262.5,-297.5"/>
<text text-anchor="middle" x="213" y="-285.5" font-family="Helvetica,sans-Serif" font-size="10.00">ITaskExecutor::add</text>
</a>
</g>
</g>
<!-- Node1&#45;&gt;Node2 -->
<g id="edge1" class="edge">
<title>Node1&#45;&gt;Node2</title>
<path fill="none" stroke="#63b8ff" d="M65.47,-169.12C79.22,-193.73 109.72,-242.37 149,-269 151.36,-270.6 153.85,-272.07 156.44,-273.41"/>
<polygon fill="#63b8ff" stroke="#63b8ff" points="154.81,-276.52 165.37,-277.41 157.67,-270.13 154.81,-276.52"/>
</g>
<!-- Node3 -->
<g id="node3" class="node">
<title>Node3</title>
<g id="a_node3"><a xlink:href="../../dc/dc9/class_generator_utils_1_1_breakable_task.html#ad1457cb4804912ddc9e061cbdec09dbf" target="_top" xlink:title=" ">
<polygon fill="white" stroke="#666666" points="277,-260 149,-260 149,-230 277,-230 277,-260"/>
<text text-anchor="start" x="157" y="-248" font-family="Helvetica,sans-Serif" font-size="10.00">GeneratorUtils::Breakable</text>
<text text-anchor="middle" x="213" y="-237" font-family="Helvetica,sans-Serif" font-size="10.00">Task::cancel</text>
</a>
</g>
</g>
<!-- Node1&#45;&gt;Node3 -->
<g id="edge2" class="edge">
<title>Node1&#45;&gt;Node3</title>
<path fill="none" stroke="#63b8ff" d="M75.45,-169.41C93.22,-184.1 121.67,-206.14 149,-221 151.47,-222.35 154.04,-223.65 156.66,-224.91"/>
<polygon fill="#63b8ff" stroke="#63b8ff" points="155,-228 165.55,-228.91 157.87,-221.62 155,-228"/>
</g>
<!-- Node4 -->
<g id="node4" class="node">
<title>Node4</title>
<g id="a_node4"><a xlink:href="../../d0/d4e/class_photos_grouping_dialog.html#ad037f450d58e8a287a8a73e22482254a" target="_top" xlink:title=" ">
<polygon fill="white" stroke="#666666" points="269.5,-212 156.5,-212 156.5,-182 269.5,-182 269.5,-212"/>
<text text-anchor="start" x="164.5" y="-200" font-family="Helvetica,sans-Serif" font-size="10.00">PhotosGroupingDialog</text>
<text text-anchor="middle" x="213" y="-189" font-family="Helvetica,sans-Serif" font-size="10.00">::generationCanceled</text>
</a>
</g>
</g>
<!-- Node1&#45;&gt;Node4 -->
<g id="edge3" class="edge">
<title>Node1&#45;&gt;Node4</title>
<path fill="none" stroke="#63b8ff" d="M112.84,-169.4C123.49,-172.37 134.75,-175.5 145.7,-178.55"/>
<polygon fill="#63b8ff" stroke="#63b8ff" points="144.5,-181.85 155.07,-181.15 146.37,-175.1 144.5,-181.85"/>
</g>
<!-- Node5 -->
<g id="node5" class="node">
<title>Node5</title>
<g id="a_node5"><a xlink:href="../../d0/d4e/class_photos_grouping_dialog.html#aadab8ff1bdd21245d089ed650e98210a" target="_top" xlink:title=" ">
<polygon fill="#fff0f0" stroke="red" points="426,-169 313,-169 313,-139 426,-139 426,-169"/>
<text text-anchor="start" x="321" y="-157" font-family="Helvetica,sans-Serif" font-size="10.00">PhotosGroupingDialog</text>
<text text-anchor="middle" x="369.5" y="-146" font-family="Helvetica,sans-Serif" font-size="10.00">::generationDone</text>
</a>
</g>
</g>
<!-- Node1&#45;&gt;Node5 -->
<g id="edge5" class="edge">
<title>Node1&#45;&gt;Node5</title>
<path fill="none" stroke="#63b8ff" d="M113.46,-154C166.22,-154 245.37,-154 301.48,-154"/>
<polygon fill="#63b8ff" stroke="#63b8ff" points="301.21,-157.5 311.21,-154 301.21,-150.5 301.21,-157.5"/>
</g>
<!-- Node12 -->
<g id="node6" class="node">
<title>Node12</title>
<g id="a_node6"><a xlink:href="../../d0/d4e/class_photos_grouping_dialog.html#ab537e3929d675260043bfe111c4afdda" target="_top" xlink:title=" ">
<polygon fill="white" stroke="#666666" points="269.5,-126 156.5,-126 156.5,-96 269.5,-96 269.5,-126"/>
<text text-anchor="start" x="164.5" y="-114" font-family="Helvetica,sans-Serif" font-size="10.00">PhotosGroupingDialog</text>
<text text-anchor="middle" x="213" y="-103" font-family="Helvetica,sans-Serif" font-size="10.00">::generationError</text>
</a>
</g>
</g>
<!-- Node1&#45;&gt;Node12 -->
<g id="edge6" class="edge">
<title>Node1&#45;&gt;Node12</title>
<path fill="none" stroke="#63b8ff" d="M112.84,-138.6C123.49,-135.63 134.75,-132.5 145.7,-129.45"/>
<polygon fill="#63b8ff" stroke="#63b8ff" points="146.37,-132.9 155.07,-126.85 144.5,-126.15 146.37,-132.9"/>
</g>
<!-- Node13 -->
<g id="node7" class="node">
<title>Node13</title>
<g id="a_node7"><a xlink:href="../../d0/d4e/class_photos_grouping_dialog.html#ac1e05064e75200816c885ca91f35e6ae" target="_top" xlink:title=" ">
<polygon fill="white" stroke="#666666" points="269.5,-78 156.5,-78 156.5,-48 269.5,-48 269.5,-78"/>
<text text-anchor="start" x="164.5" y="-66" font-family="Helvetica,sans-Serif" font-size="10.00">PhotosGroupingDialog</text>
<text text-anchor="middle" x="213" y="-55" font-family="Helvetica,sans-Serif" font-size="10.00">::generationProgress</text>
</a>
</g>
</g>
<!-- Node1&#45;&gt;Node13 -->
<g id="edge8" class="edge">
<title>Node1&#45;&gt;Node13</title>
<path fill="none" stroke="#63b8ff" d="M75.45,-138.59C93.22,-123.9 121.67,-101.86 149,-87 151.47,-85.65 154.04,-84.35 156.66,-83.09"/>
<polygon fill="#63b8ff" stroke="#63b8ff" points="157.87,-86.38 165.55,-79.09 155,-80 157.87,-86.38"/>
</g>
<!-- Node14 -->
<g id="node8" class="node">
<title>Node14</title>
<g id="a_node8"><a xlink:href="../../d0/d4e/class_photos_grouping_dialog.html#a04d79faed5b94fb9aec4efd7b19ee7a4" target="_top" xlink:title=" ">
<polygon fill="white" stroke="#666666" points="269.5,-30 156.5,-30 156.5,0 269.5,0 269.5,-30"/>
<text text-anchor="start" x="164.5" y="-18" font-family="Helvetica,sans-Serif" font-size="10.00">PhotosGroupingDialog</text>
<text text-anchor="middle" x="213" y="-7" font-family="Helvetica,sans-Serif" font-size="10.00">::generationTitle</text>
</a>
</g>
</g>
<!-- Node1&#45;&gt;Node14 -->
<g id="edge9" class="edge">
<title>Node1&#45;&gt;Node14</title>
<path fill="none" stroke="#63b8ff" d="M65.92,-138.8C80.08,-114.51 110.9,-66.86 149,-39 150.53,-37.88 152.11,-36.81 153.74,-35.79"/>
<polygon fill="#63b8ff" stroke="#63b8ff" points="155.11,-39.03 162.15,-31.11 151.71,-32.91 155.11,-39.03"/>
</g>
<!-- Node4&#45;&gt;Node5 -->
<g id="edge4" class="edge">
<title>Node4&#45;&gt;Node5</title>
<path fill="none" stroke="#63b8ff" d="M269.34,-181.6C279.99,-178.63 291.25,-175.5 302.2,-172.45"/>
<polygon fill="#63b8ff" stroke="#63b8ff" points="302.87,-175.9 311.57,-169.85 301,-169.15 302.87,-175.9"/>
</g>
<!-- Node12&#45;&gt;Node5 -->
<g id="edge7" class="edge">
<title>Node12&#45;&gt;Node5</title>
<path fill="none" stroke="#63b8ff" d="M269.34,-126.4C279.99,-129.37 291.25,-132.5 302.2,-135.55"/>
<polygon fill="#63b8ff" stroke="#63b8ff" points="301,-138.85 311.57,-138.15 302.87,-132.1 301,-138.85"/>
</g>
</g>
</svg>
