<?xml version="1.0" encoding="UTF-8" standalone="no"?>
<!DOCTYPE svg PUBLIC "-//W3C//DTD SVG 1.1//EN"
 "http://www.w3.org/Graphics/SVG/1.1/DTD/svg11.dtd">
<!-- Generated by graphviz version 7.0.5 (20221223.1930)
 -->
<!-- Title: PhotosGroupingDialog::getPhotos Pages: 1 -->
<svg width="270pt" height="134pt"
 viewBox="0.00 0.00 270.00 134.00" xmlns="http://www.w3.org/2000/svg" xmlns:xlink="http://www.w3.org/1999/xlink">
<g id="graph0" class="graph" transform="scale(1 1) rotate(0) translate(4 130)">
<title>PhotosGroupingDialog::getPhotos</title>
<!-- Node1 -->
<g id="node1" class="node">
<title>Node1</title>
<g id="a_node1"><a xlink:title=" ">
<polygon fill="#999999" stroke="#666666" points="262,-78 149,-78 149,-48 262,-48 262,-78"/>
<text text-anchor="start" x="157" y="-66" font-family="Helvetica,sans-Serif" font-size="10.00">PhotosGroupingDialog</text>
<text text-anchor="middle" x="205.5" y="-55" font-family="Helvetica,sans-Serif" font-size="10.00">::getPhotos</text>
</a>
</g>
</g>
<!-- Node2 -->
<g id="node2" class="node">
<title>Node2</title>
<g id="a_node2"><a xlink:href="../../d0/d4e/class_photos_grouping_dialog.html#aa5e0f110c4ecd0223531c8f8e447281e" target="_top" xlink:title=" ">
<polygon fill="#fff0f0" stroke="red" points="113,-126 0,-126 0,-96 113,-96 113,-126"/>
<text text-anchor="start" x="8" y="-114" font-family="Helvetica,sans-Serif" font-size="10.00">PhotosGroupingDialog</text>
<text text-anchor="middle" x="56.5" y="-103" font-family="Helvetica,sans-Serif" font-size="10.00">::makeAnimation</text>
</a>
</g>
</g>
<!-- Node1&#45;&gt;Node2 -->
<g id="edge1" class="edge">
<title>Node1&#45;&gt;Node2</title>
<path fill="none" stroke="#63b8ff" d="M146.32,-82C132.52,-86.5 117.97,-91.25 104.73,-95.58"/>
<polygon fill="#63b8ff" stroke="#63b8ff" points="147.32,-85.35 155.74,-78.92 145.15,-78.7 147.32,-85.35"/>
</g>
<!-- Node5 -->
<g id="node3" class="node">
<title>Node5</title>
<g id="a_node3"><a xlink:href="../../d0/d4e/class_photos_grouping_dialog.html#af6b9b5bf838e92f74c539d4972cabc38" target="_top" xlink:title=" ">
<polygon fill="#fff0f0" stroke="red" points="113,-78 0,-78 0,-48 113,-48 113,-78"/>
<text text-anchor="start" x="8" y="-66" font-family="Helvetica,sans-Serif" font-size="10.00">PhotosGroupingDialog</text>
<text text-anchor="middle" x="56.5" y="-55" font-family="Helvetica,sans-Serif" font-size="10.00">::makeCollage</text>
</a>
</g>
</g>
<!-- Node1&#45;&gt;Node5 -->
<g id="edge2" class="edge">
<title>Node1&#45;&gt;Node5</title>
<path fill="none" stroke="#63b8ff" d="M137.01,-63C129.09,-63 121.08,-63 113.34,-63"/>
<polygon fill="#63b8ff" stroke="#63b8ff" points="136.99,-66.5 146.99,-63 136.99,-59.5 136.99,-66.5"/>
</g>
<!-- Node6 -->
<g id="node4" class="node">
<title>Node6</title>
<g id="a_node4"><a xlink:href="../../d0/d4e/class_photos_grouping_dialog.html#a666247f1bcbc7b0653544e88af649703" target="_top" xlink:title=" ">
<polygon fill="#fff0f0" stroke="red" points="113,-30 0,-30 0,0 113,0 113,-30"/>
<text text-anchor="start" x="8" y="-18" font-family="Helvetica,sans-Serif" font-size="10.00">PhotosGroupingDialog</text>
<text text-anchor="middle" x="56.5" y="-7" font-family="Helvetica,sans-Serif" font-size="10.00">::makeHDR</text>
</a>
</g>
</g>
<!-- Node1&#45;&gt;Node6 -->
<g id="edge3" class="edge">
<title>Node1&#45;&gt;Node6</title>
<path fill="none" stroke="#63b8ff" d="M146.32,-44C132.52,-39.5 117.97,-34.75 104.73,-30.42"/>
<polygon fill="#63b8ff" stroke="#63b8ff" points="145.15,-47.3 155.74,-47.08 147.32,-40.65 145.15,-47.3"/>
</g>
</g>
</svg>
