<?xml version="1.0" encoding="UTF-8" standalone="no"?>
<!DOCTYPE svg PUBLIC "-//W3C//DTD SVG 1.1//EN"
 "http://www.w3.org/Graphics/SVG/1.1/DTD/svg11.dtd">
<!-- Generated by graphviz version 7.0.5 (20221223.1930)
 -->
<!-- Title: PhotosGroupingDialog::previewPressed Pages: 1 -->
<svg width="275pt" height="182pt"
 viewBox="0.00 0.00 275.00 182.00" xmlns="http://www.w3.org/2000/svg" xmlns:xlink="http://www.w3.org/1999/xlink">
<g id="graph0" class="graph" transform="scale(1 1) rotate(0) translate(4 178)">
<title>PhotosGroupingDialog::previewPressed</title>
<!-- Node1 -->
<g id="node1" class="node">
<title>Node1</title>
<g id="a_node1"><a xlink:title=" ">
<polygon fill="#999999" stroke="#666666" points="113,-102 0,-102 0,-72 113,-72 113,-102"/>
<text text-anchor="start" x="8" y="-90" font-family="Helvetica,sans-Serif" font-size="10.00">PhotosGroupingDialog</text>
<text text-anchor="middle" x="56.5" y="-79" font-family="Helvetica,sans-Serif" font-size="10.00">::previewPressed</text>
</a>
</g>
</g>
<!-- Node2 -->
<g id="node2" class="node">
<title>Node2</title>
<g id="a_node2"><a xlink:href="../../d0/d4e/class_photos_grouping_dialog.html#aa5e0f110c4ecd0223531c8f8e447281e" target="_top" xlink:title=" ">
<polygon fill="#fff0f0" stroke="red" points="264.5,-174 151.5,-174 151.5,-144 264.5,-144 264.5,-174"/>
<text text-anchor="start" x="159.5" y="-162" font-family="Helvetica,sans-Serif" font-size="10.00">PhotosGroupingDialog</text>
<text text-anchor="middle" x="208" y="-151" font-family="Helvetica,sans-Serif" font-size="10.00">::makeAnimation</text>
</a>
</g>
</g>
<!-- Node1&#45;&gt;Node2 -->
<g id="edge1" class="edge">
<title>Node1&#45;&gt;Node2</title>
<path fill="none" stroke="#63b8ff" d="M85.2,-102.37C103.18,-112.14 127.23,-124.81 149,-135 151.91,-136.36 154.93,-137.73 157.98,-139.09"/>
<polygon fill="#63b8ff" stroke="#63b8ff" points="156.46,-142.24 167.02,-143.01 159.24,-135.82 156.46,-142.24"/>
</g>
<!-- Node19 -->
<g id="node3" class="node">
<title>Node19</title>
<g id="a_node3"><a xlink:href="../../d0/d4e/class_photos_grouping_dialog.html#af6b9b5bf838e92f74c539d4972cabc38" target="_top" xlink:title=" ">
<polygon fill="#fff0f0" stroke="red" points="264.5,-126 151.5,-126 151.5,-96 264.5,-96 264.5,-126"/>
<text text-anchor="start" x="159.5" y="-114" font-family="Helvetica,sans-Serif" font-size="10.00">PhotosGroupingDialog</text>
<text text-anchor="middle" x="208" y="-103" font-family="Helvetica,sans-Serif" font-size="10.00">::makeCollage</text>
</a>
</g>
</g>
<!-- Node1&#45;&gt;Node19 -->
<g id="edge2" class="edge">
<title>Node1&#45;&gt;Node19</title>
<path fill="none" stroke="#63b8ff" d="M113.17,-95.94C121.92,-97.34 131.05,-98.81 140.03,-100.25"/>
<polygon fill="#63b8ff" stroke="#63b8ff" points="139.36,-103.69 149.79,-101.82 140.47,-96.78 139.36,-103.69"/>
</g>
<!-- Node24 -->
<g id="node4" class="node">
<title>Node24</title>
<g id="a_node4"><a xlink:href="../../d0/d4e/class_photos_grouping_dialog.html#a666247f1bcbc7b0653544e88af649703" target="_top" xlink:title=" ">
<polygon fill="#fff0f0" stroke="red" points="264.5,-78 151.5,-78 151.5,-48 264.5,-48 264.5,-78"/>
<text text-anchor="start" x="159.5" y="-66" font-family="Helvetica,sans-Serif" font-size="10.00">PhotosGroupingDialog</text>
<text text-anchor="middle" x="208" y="-55" font-family="Helvetica,sans-Serif" font-size="10.00">::makeHDR</text>
</a>
</g>
</g>
<!-- Node1&#45;&gt;Node24 -->
<g id="edge3" class="edge">
<title>Node1&#45;&gt;Node24</title>
<path fill="none" stroke="#63b8ff" d="M113.17,-78.06C121.92,-76.66 131.05,-75.19 140.03,-73.75"/>
<polygon fill="#63b8ff" stroke="#63b8ff" points="140.47,-77.22 149.79,-72.18 139.36,-70.31 140.47,-77.22"/>
</g>
<!-- Node25 -->
<g id="node5" class="node">
<title>Node25</title>
<g id="a_node5"><a xlink:href="../../d0/d4e/class_photos_grouping_dialog.html#a5f2052c462d393f01e2358dde9a23add" target="_top" xlink:title=" ">
<polygon fill="#fff0f0" stroke="red" points="267,-30 149,-30 149,0 267,0 267,-30"/>
<text text-anchor="start" x="157" y="-18" font-family="Helvetica,sans-Serif" font-size="10.00">PhotosGroupingDialog</text>
<text text-anchor="middle" x="208" y="-7" font-family="Helvetica,sans-Serif" font-size="10.00">::switchUiToGeneration</text>
</a>
</g>
</g>
<!-- Node1&#45;&gt;Node25 -->
<g id="edge4" class="edge">
<title>Node1&#45;&gt;Node25</title>
<path fill="none" stroke="#63b8ff" d="M85.2,-71.63C103.18,-61.86 127.23,-49.19 149,-39 151.91,-37.64 154.93,-36.27 157.98,-34.91"/>
<polygon fill="#63b8ff" stroke="#63b8ff" points="159.24,-38.18 167.02,-30.99 156.46,-31.76 159.24,-38.18"/>
</g>
</g>
</svg>
