<?xml version="1.0" encoding="UTF-8" standalone="no"?>
<!DOCTYPE svg PUBLIC "-//W3C//DTD SVG 1.1//EN"
 "http://www.w3.org/Graphics/SVG/1.1/DTD/svg11.dtd">
<!-- Generated by graphviz version 12.2.0 (20241103.1931)
 -->
<!-- Title: PhotosGroupingDialog::cancel Pages: 1 -->
<svg width="277pt" height="137pt"
 viewBox="0.00 0.00 277.00 136.50" xmlns="http://www.w3.org/2000/svg" xmlns:xlink="http://www.w3.org/1999/xlink">
<g id="graph0" class="graph" transform="scale(1 1) rotate(0) translate(4 132.5)">
<title>PhotosGroupingDialog::cancel</title>
<!-- Node1 -->
<g id="Node000001" class="node">
<title>Node1</title>
<g id="a_Node000001"><a xlink:title=" ">
<polygon fill="#999999" stroke="#666666" points="269,-79.5 156.25,-79.5 156.25,-49 269,-49 269,-79.5"/>
<text text-anchor="start" x="164.25" y="-66" font-family="Helvetica,sans-Serif" font-size="10.00">PhotosGroupingDialog</text>
<text text-anchor="middle" x="212.62" y="-54.75" font-family="Helvetica,sans-Serif" font-size="10.00">::cancel</text>
</a>
</g>
</g>
<!-- Node2 -->
<g id="Node000002" class="node">
<title>Node2</title>
<g id="a_Node000002"><a xlink:href="../../d0/d4e/class_photos_grouping_dialog.html#acdd897a76c29645a0d8bdc3eb814e78e" target="_top" xlink:title=" ">
<polygon fill="#fff0f0" stroke="red" points="120.25,-128.5 0,-128.5 0,-98 120.25,-98 120.25,-128.5"/>
<text text-anchor="start" x="8" y="-115" font-family="Helvetica,sans-Serif" font-size="10.00">PhotosGroupingDialog</text>
<text text-anchor="middle" x="60.12" y="-103.75" font-family="Helvetica,sans-Serif" font-size="10.00">::previewCancelPressed</text>
</a>
</g>
</g>
<!-- Node1&#45;&gt;Node2 -->
<g id="edge1_Node000001_Node000002" class="edge">
<title>Node1&#45;&gt;Node2</title>
<g id="a_edge1_Node000001_Node000002"><a xlink:title=" ">
<path fill="none" stroke="#63b8ff" d="M152.82,-83.4C138.47,-88.07 123.28,-93.01 109.48,-97.51"/>
<polygon fill="#63b8ff" stroke="#63b8ff" points="153.73,-86.78 162.15,-80.36 151.56,-80.13 153.73,-86.78"/>
</a>
</g>
</g>
<!-- Node4 -->
<g id="Node000004" class="node">
<title>Node4</title>
<g id="a_Node000004"><a xlink:href="../../d0/d4e/class_photos_grouping_dialog.html#ae32516085d8f17286e6cd01da236cb6a" target="_top" xlink:title=" ">
<polygon fill="white" stroke="#666666" points="116.5,-79.5 3.75,-79.5 3.75,-49 116.5,-49 116.5,-79.5"/>
<text text-anchor="start" x="11.75" y="-66" font-family="Helvetica,sans-Serif" font-size="10.00">PhotosGroupingDialog</text>
<text text-anchor="middle" x="60.12" y="-54.75" font-family="Helvetica,sans-Serif" font-size="10.00">::reject</text>
</a>
</g>
</g>
<!-- Node1&#45;&gt;Node4 -->
<g id="edge2_Node000001_Node000004" class="edge">
<title>Node1&#45;&gt;Node4</title>
<g id="a_edge2_Node000001_Node000004"><a xlink:title=" ">
<path fill="none" stroke="#63b8ff" d="M144.74,-64.25C135.39,-64.25 125.87,-64.25 116.76,-64.25"/>
<polygon fill="#63b8ff" stroke="#63b8ff" points="144.5,-67.75 154.5,-64.25 144.5,-60.75 144.5,-67.75"/>
</a>
</g>
</g>
<!-- Node5 -->
<g id="Node000005" class="node">
<title>Node5</title>
<g id="a_Node000005"><a xlink:href="../../d0/d4e/class_photos_grouping_dialog.html#ad0966fe1525c441947ec6b56b1213cdf" target="_top" xlink:title=" ">
<polygon fill="#fff0f0" stroke="red" points="116.5,-30.5 3.75,-30.5 3.75,0 116.5,0 116.5,-30.5"/>
<text text-anchor="start" x="11.75" y="-17" font-family="Helvetica,sans-Serif" font-size="10.00">PhotosGroupingDialog</text>
<text text-anchor="middle" x="60.12" y="-5.75" font-family="Helvetica,sans-Serif" font-size="10.00">::startTask</text>
</a>
</g>
</g>
<!-- Node1&#45;&gt;Node5 -->
<g id="edge3_Node000001_Node000005" class="edge">
<title>Node1&#45;&gt;Node5</title>
<g id="a_edge3_Node000001_Node000005"><a xlink:title=" ">
<path fill="none" stroke="#63b8ff" d="M152.82,-45.1C138.47,-40.43 123.28,-35.49 109.48,-30.99"/>
<polygon fill="#63b8ff" stroke="#63b8ff" points="151.56,-48.37 162.15,-48.14 153.73,-41.72 151.56,-48.37"/>
</a>
</g>
</g>
</g>
</svg>
