<?xml version="1.0" encoding="UTF-8" standalone="no"?>
<!DOCTYPE svg PUBLIC "-//W3C//DTD SVG 1.1//EN"
 "http://www.w3.org/Graphics/SVG/1.1/DTD/svg11.dtd">
<!-- Generated by graphviz version 12.2.0 (20241103.1931)
 -->
<!-- Title: PhotosGroupingDialog::generationDone Pages: 1 -->
<svg width="418pt" height="149pt"
 viewBox="0.00 0.00 418.25 148.50" xmlns="http://www.w3.org/2000/svg" xmlns:xlink="http://www.w3.org/1999/xlink">
<g id="graph0" class="graph" transform="scale(1 1) rotate(0) translate(4 144.5)">
<title>PhotosGroupingDialog::generationDone</title>
<!-- Node1 -->
<g id="Node000001" class="node">
<title>Node1</title>
<g id="a_Node000001"><a xlink:title=" ">
<polygon fill="#999999" stroke="#666666" points="410.25,-75.5 297.5,-75.5 297.5,-45 410.25,-45 410.25,-75.5"/>
<text text-anchor="start" x="305.5" y="-62" font-family="Helvetica,sans-Serif" font-size="10.00">PhotosGroupingDialog</text>
<text text-anchor="middle" x="353.88" y="-50.75" font-family="Helvetica,sans-Serif" font-size="10.00">::generationDone</text>
</a>
</g>
</g>
<!-- Node2 -->
<g id="Node000002" class="node">
<title>Node2</title>
<g id="a_Node000002"><a xlink:href="../../d0/d4e/class_photos_grouping_dialog.html#ad037f450d58e8a287a8a73e22482254a" target="_top" xlink:title=" ">
<polygon fill="white" stroke="#666666" points="261.5,-140.5 148.75,-140.5 148.75,-110 261.5,-110 261.5,-140.5"/>
<text text-anchor="start" x="156.75" y="-127" font-family="Helvetica,sans-Serif" font-size="10.00">PhotosGroupingDialog</text>
<text text-anchor="middle" x="205.12" y="-115.75" font-family="Helvetica,sans-Serif" font-size="10.00">::generationCanceled</text>
</a>
</g>
</g>
<!-- Node1&#45;&gt;Node2 -->
<g id="edge1_Node000001_Node000002" class="edge">
<title>Node1&#45;&gt;Node2</title>
<g id="a_edge1_Node000001_Node000002"><a xlink:title=" ">
<path fill="none" stroke="#63b8ff" d="M307,-80.57C285.89,-89.92 261.23,-100.84 241.58,-109.55"/>
<polygon fill="#63b8ff" stroke="#63b8ff" points="308.24,-83.85 315.97,-76.6 305.41,-77.45 308.24,-83.85"/>
</a>
</g>
</g>
<!-- Node3 -->
<g id="Node000003" class="node">
<title>Node3</title>
<g id="a_Node000003"><a xlink:href="../../d0/d4e/class_photos_grouping_dialog.html#ad0966fe1525c441947ec6b56b1213cdf" target="_top" xlink:title=" ">
<polygon fill="#fff0f0" stroke="red" points="112.75,-97.5 0,-97.5 0,-67 112.75,-67 112.75,-97.5"/>
<text text-anchor="start" x="8" y="-84" font-family="Helvetica,sans-Serif" font-size="10.00">PhotosGroupingDialog</text>
<text text-anchor="middle" x="56.38" y="-72.75" font-family="Helvetica,sans-Serif" font-size="10.00">::startTask</text>
</a>
</g>
</g>
<!-- Node1&#45;&gt;Node3 -->
<g id="edge7_Node000001_Node000003" class="edge">
<title>Node1&#45;&gt;Node3</title>
<g id="a_edge7_Node000001_Node000003"><a xlink:title=" ">
<path fill="none" stroke="#63b8ff" d="M285.82,-65.24C233.69,-69.12 162.25,-74.44 113.21,-78.09"/>
<polygon fill="#63b8ff" stroke="#63b8ff" points="286.07,-68.73 295.78,-64.5 285.55,-61.75 286.07,-68.73"/>
</a>
</g>
</g>
<!-- Node8 -->
<g id="Node000008" class="node">
<title>Node8</title>
<g id="a_Node000008"><a xlink:href="../../d0/d4e/class_photos_grouping_dialog.html#ab537e3929d675260043bfe111c4afdda" target="_top" xlink:title=" ">
<polygon fill="white" stroke="#666666" points="261.5,-54.5 148.75,-54.5 148.75,-24 261.5,-24 261.5,-54.5"/>
<text text-anchor="start" x="156.75" y="-41" font-family="Helvetica,sans-Serif" font-size="10.00">PhotosGroupingDialog</text>
<text text-anchor="middle" x="205.12" y="-29.75" font-family="Helvetica,sans-Serif" font-size="10.00">::generationError</text>
</a>
</g>
</g>
<!-- Node1&#45;&gt;Node8 -->
<g id="edge3_Node000001_Node000008" class="edge">
<title>Node1&#45;&gt;Node8</title>
<g id="a_edge3_Node000001_Node000008"><a xlink:title=" ">
<path fill="none" stroke="#63b8ff" d="M286.01,-50.68C277.87,-49.52 269.63,-48.34 261.68,-47.2"/>
<polygon fill="#63b8ff" stroke="#63b8ff" points="285.5,-54.14 295.9,-52.1 286.49,-47.22 285.5,-54.14"/>
</a>
</g>
</g>
<!-- Node9 -->
<g id="Node000009" class="node">
<title>Node9</title>
<g id="a_Node000009"><a xlink:href="../../d0/d4e/class_photos_grouping_dialog.html#af6b9b5bf838e92f74c539d4972cabc38" target="_top" xlink:title=" ">
<polygon fill="#fff0f0" stroke="red" points="112.75,-30.5 0,-30.5 0,0 112.75,0 112.75,-30.5"/>
<text text-anchor="start" x="8" y="-17" font-family="Helvetica,sans-Serif" font-size="10.00">PhotosGroupingDialog</text>
<text text-anchor="middle" x="56.38" y="-5.75" font-family="Helvetica,sans-Serif" font-size="10.00">::makeCollage</text>
</a>
</g>
</g>
<!-- Node1&#45;&gt;Node9 -->
<g id="edge6_Node000001_Node000009" class="edge">
<title>Node1&#45;&gt;Node9</title>
<g id="a_edge6_Node000001_Node000009"><a xlink:title=" ">
<path fill="none" stroke="#63b8ff" d="M319.03,-38.95C302.38,-29.71 281.61,-19.93 261.5,-15.25 212.32,-3.8 154.64,-5.09 113.17,-8.5"/>
<polygon fill="#63b8ff" stroke="#63b8ff" points="317.1,-41.88 327.51,-43.83 320.59,-35.81 317.1,-41.88"/>
</a>
</g>
</g>
<!-- Node2&#45;&gt;Node3 -->
<g id="edge2_Node000002_Node000003" class="edge">
<title>Node2&#45;&gt;Node3</title>
<g id="a_edge2_Node000002_Node000003"><a xlink:title=" ">
<path fill="none" stroke="#63b8ff" d="M139.94,-106.44C130.28,-103.61 120.39,-100.71 110.98,-97.96"/>
<polygon fill="#63b8ff" stroke="#63b8ff" points="138.7,-109.73 149.28,-109.18 140.66,-103.01 138.7,-109.73"/>
</a>
</g>
</g>
<!-- Node8&#45;&gt;Node3 -->
<g id="edge5_Node000008_Node000003" class="edge">
<title>Node8&#45;&gt;Node3</title>
<g id="a_edge5_Node000008_Node000003"><a xlink:title=" ">
<path fill="none" stroke="#63b8ff" d="M139.94,-58.06C130.28,-60.89 120.39,-63.79 110.98,-66.54"/>
<polygon fill="#63b8ff" stroke="#63b8ff" points="140.66,-61.49 149.28,-55.32 138.7,-54.77 140.66,-61.49"/>
</a>
</g>
</g>
<!-- Node8&#45;&gt;Node9 -->
<g id="edge4_Node000008_Node000009" class="edge">
<title>Node8&#45;&gt;Node9</title>
<g id="a_edge4_Node000008_Node000009"><a xlink:title=" ">
<path fill="none" stroke="#63b8ff" d="M137.54,-28.36C129.31,-27.01 120.97,-25.65 112.93,-24.34"/>
<polygon fill="#63b8ff" stroke="#63b8ff" points="136.72,-31.77 147.15,-29.93 137.85,-24.86 136.72,-31.77"/>
</a>
</g>
</g>
</g>
</svg>
