<?xml version="1.0" encoding="UTF-8" standalone="no"?>
<!DOCTYPE svg PUBLIC "-//W3C//DTD SVG 1.1//EN"
 "http://www.w3.org/Graphics/SVG/1.1/DTD/svg11.dtd">
<!-- Generated by graphviz version 12.2.0 (20241103.1931)
 -->
<!-- Title: MediaViewCtrl::setSource Pages: 1 -->
<svg width="323pt" height="217pt"
 viewBox="0.00 0.00 322.75 216.88" xmlns="http://www.w3.org/2000/svg" xmlns:xlink="http://www.w3.org/1999/xlink">

<svg id="main" version="1.1" xmlns="http://www.w3.org/2000/svg" xmlns:xlink="http://www.w3.org/1999/xlink" xml:space="preserve">

<style type="text/css"><![CDATA[
.node, .edge {opacity: 0.7;}
.node.selected, .edge.selected {opacity: 1;}
.edge:hover path { stroke: red; }
.edge:hover polygon { stroke: red; fill: red; }
]]></style>
<script type="application/ecmascript" xlink:href="../../svg.min.js"/>
<svg id="graph" class="graph">
<g id="graph0" class="graph" transform="scale(1 1) rotate(0) translate(4 212.88)">
<title>MediaViewCtrl::setSource</title>
<!-- Node1 -->
<g id="Node000001" class="node">
<title>Node1</title>
<g id="a_Node000001"><a xlink:title=" ">
<polygon fill="#999999" stroke="#666666" points="127.75,-117.25 0,-117.25 0,-98 127.75,-98 127.75,-117.25"/>
<text text-anchor="middle" x="63.88" y="-103.75" font-family="Helvetica,sans-Serif" font-size="10.00">MediaViewCtrl::setSource</text>
</a>
</g>
</g>
<!-- Node2 -->
<g id="Node000002" class="node">
<title>Node2</title>
<g id="a_Node000002"><a xlink:href="../../d7/da9/struct_database_1_1_i_database.html#ac86cb641a8f5a37a00873df333bb12bb" target="_top" xlink:title=" ">
<polygon fill="#fff0f0" stroke="red" points="292.25,-208.88 186.25,-208.88 186.25,-178.38 292.25,-178.38 292.25,-208.88"/>
<text text-anchor="start" x="194.25" y="-195.38" font-family="Helvetica,sans-Serif" font-size="10.00">Database::IDatabase</text>
<text text-anchor="middle" x="239.25" y="-184.12" font-family="Helvetica,sans-Serif" font-size="10.00">::exec</text>
</a>
</g>
</g>
<!-- Node1&#45;&gt;Node2 -->
<g id="edge1_Node000001_Node000002" class="edge">
<title>Node1&#45;&gt;Node2</title>
<g id="a_edge1_Node000001_Node000002"><a xlink:title=" ">
<path fill="none" stroke="#63b8ff" d="M78.34,-117.59C96.81,-130.91 131.42,-154.57 163.75,-169.62 167.48,-171.36 171.37,-173.02 175.33,-174.6"/>
<polygon fill="#63b8ff" stroke="#63b8ff" points="173.91,-177.81 184.5,-178.06 176.37,-171.26 173.91,-177.81"/>
</a>
</g>
</g>
<!-- Node5 -->
<g id="Node000005" class="node">
<title>Node5</title>
<g id="a_Node000005"><a xlink:href="../../df/db2/class_objects_accessor.html#adcde9d95f2bbdd55714d9bd9bb3efce4" target="_top" xlink:title=" ">
<polygon fill="white" stroke="#666666" points="305.38,-160.25 173.12,-160.25 173.12,-141 305.38,-141 305.38,-160.25"/>
<text text-anchor="middle" x="239.25" y="-146.75" font-family="Helvetica,sans-Serif" font-size="10.00">ObjectsAccessor::instance</text>
</a>
</g>
</g>
<!-- Node1&#45;&gt;Node5 -->
<g id="edge2_Node000001_Node000005" class="edge">
<title>Node1&#45;&gt;Node5</title>
<g id="a_edge2_Node000001_Node000005"><a xlink:title=" ">
<path fill="none" stroke="#63b8ff" d="M105.52,-117.71C129.67,-123.7 160.54,-131.35 186.43,-137.77"/>
<polygon fill="#63b8ff" stroke="#63b8ff" points="185.54,-141.16 196.09,-140.17 187.22,-134.36 185.54,-141.16"/>
</a>
</g>
</g>
<!-- Node6 -->
<g id="Node000006" class="node">
<title>Node6</title>
<g id="a_Node000006"><a xlink:href="../../d3/d07/class_media_view_ctrl.html#ab1791c3721f7d2e9de94c996ce4209b5" target="_top" xlink:title=" ">
<polygon fill="white" stroke="#666666" points="310.62,-122.88 167.88,-122.88 167.88,-92.38 310.62,-92.38 310.62,-122.88"/>
<text text-anchor="start" x="175.88" y="-109.38" font-family="Helvetica,sans-Serif" font-size="10.00">MediaViewCtrl::photoIDString</text>
<text text-anchor="middle" x="239.25" y="-98.12" font-family="Helvetica,sans-Serif" font-size="10.00">Changed</text>
</a>
</g>
</g>
<!-- Node1&#45;&gt;Node6 -->
<g id="edge3_Node000001_Node000006" class="edge">
<title>Node1&#45;&gt;Node6</title>
<g id="a_edge3_Node000001_Node000006"><a xlink:title=" ">
<path fill="none" stroke="#63b8ff" d="M127.96,-107.62C137.11,-107.62 146.65,-107.62 156.11,-107.62"/>
<polygon fill="#63b8ff" stroke="#63b8ff" points="156.07,-111.13 166.07,-107.63 156.07,-104.13 156.07,-111.13"/>
</a>
</g>
</g>
<!-- Node7 -->
<g id="Node000007" class="node">
<title>Node7</title>
<g id="a_Node000007"><a xlink:href="../../d3/d07/class_media_view_ctrl.html#aa24ae0b96b7ddfdd731a382f759d429f" target="_top" xlink:title=" ">
<polygon fill="#fff0f0" stroke="red" points="297.88,-56.25 180.62,-56.25 180.62,-37 297.88,-37 297.88,-56.25"/>
<text text-anchor="middle" x="239.25" y="-42.75" font-family="Helvetica,sans-Serif" font-size="10.00">MediaViewCtrl::setPath</text>
</a>
</g>
</g>
<!-- Node1&#45;&gt;Node7 -->
<g id="edge4_Node000001_Node000007" class="edge">
<title>Node1&#45;&gt;Node7</title>
<g id="a_edge4_Node000001_Node000007"><a xlink:title=" ">
<path fill="none" stroke="#63b8ff" d="M93.5,-97.55C122.24,-87.44 166.73,-71.79 198.8,-60.51"/>
<polygon fill="#63b8ff" stroke="#63b8ff" points="199.88,-63.84 208.15,-57.22 197.56,-57.23 199.88,-63.84"/>
</a>
</g>
</g>
<!-- Node18 -->
<g id="Node000018" class="node">
<title>Node18</title>
<g id="a_Node000018"><a xlink:href="../../d3/d07/class_media_view_ctrl.html#a6d9dd3297875e9a652d8e7282675761e" target="_top" xlink:title=" ">
<polygon fill="white" stroke="#666666" points="314.75,-19.25 163.75,-19.25 163.75,0 314.75,0 314.75,-19.25"/>
<text text-anchor="middle" x="239.25" y="-5.75" font-family="Helvetica,sans-Serif" font-size="10.00">MediaViewCtrl::sourceChanged</text>
</a>
</g>
</g>
<!-- Node1&#45;&gt;Node18 -->
<g id="edge6_Node000001_Node000018" class="edge">
<title>Node1&#45;&gt;Node18</title>
<g id="a_edge6_Node000001_Node000018"><a xlink:title=" ">
<path fill="none" stroke="#63b8ff" d="M74.22,-97.58C90.65,-80.53 126.53,-46 163.75,-27.62 166.81,-26.11 170.01,-24.72 173.29,-23.45"/>
<polygon fill="#63b8ff" stroke="#63b8ff" points="174.21,-26.83 182.51,-20.24 171.91,-20.22 174.21,-26.83"/>
</a>
</g>
</g>
<!-- Node7&#45;&gt;Node7 -->
<g id="edge5_Node000007_Node000007" class="edge">
<title>Node7&#45;&gt;Node7</title>
<g id="a_edge5_Node000007_Node000007"><a xlink:title=" ">
<path fill="none" stroke="#63b8ff" d="M211.79,-56.54C199.27,-65.15 208.42,-74.25 239.25,-74.25 256.59,-74.25 267.07,-71.37 270.7,-67.32"/>
<polygon fill="#63b8ff" stroke="#63b8ff" points="273.99,-66.12 267.23,-57.96 267.42,-68.55 273.99,-66.12"/>
</a>
</g>
</g>
</g>
</svg>
</svg>

<style type='text/css'>
<![CDATA[
[data-mouse-over-selected='false'] { opacity: 0.7; }
[data-mouse-over-selected='true']  { opacity: 1.0; }
]]>
</style>
<script type="application/ecmascript"><![CDATA[
document.addEventListener('DOMContentLoaded', (event) => {
  highlightEdges();
  highlightAdjacentNodes();
});
]]></script>
</svg>
