<?xml version="1.0" encoding="UTF-8" standalone="no"?>
<!DOCTYPE svg PUBLIC "-//W3C//DTD SVG 1.1//EN"
 "http://www.w3.org/Graphics/SVG/1.1/DTD/svg11.dtd">
<!-- Generated by graphviz version 12.2.0 (20241103.1931)
 -->
<!-- Title: MediaViewCtrl::process Pages: 1 -->
<svg width="311pt" height="64pt"
 viewBox="0.00 0.00 310.75 64.25" xmlns="http://www.w3.org/2000/svg" xmlns:xlink="http://www.w3.org/1999/xlink">
<g id="graph0" class="graph" transform="scale(1 1) rotate(0) translate(4 60.25)">
<title>MediaViewCtrl::process</title>
<!-- Node1 -->
<g id="Node000001" class="node">
<title>Node1</title>
<g id="a_Node000001"><a xlink:title=" ">
<polygon fill="#999999" stroke="#666666" points="118,-37.25 0,-37.25 0,-18 118,-18 118,-37.25"/>
<text text-anchor="middle" x="59" y="-23.75" font-family="Helvetica,sans-Serif" font-size="10.00">MediaViewCtrl::process</text>
</a>
</g>
</g>
<!-- Node2 -->
<g id="Node000002" class="node">
<title>Node2</title>
<g id="a_Node000002"><a xlink:href="../../d3/d07/class_media_view_ctrl.html#adc6e5f80c66789779b54185727b20b27" target="_top" xlink:title=" ">
<polygon fill="#fff0f0" stroke="red" points="302.75,-56.25 154,-56.25 154,-37 302.75,-37 302.75,-56.25"/>
<text text-anchor="middle" x="228.38" y="-42.75" font-family="Helvetica,sans-Serif" font-size="10.00">MediaViewCtrl::applyMediaInfo</text>
</a>
</g>
</g>
<!-- Node1&#45;&gt;Node2 -->
<g id="edge1_Node000001_Node000002" class="edge">
<title>Node1&#45;&gt;Node2</title>
<g id="a_edge1_Node000001_Node000002"><a xlink:title=" ">
<path fill="none" stroke="#63b8ff" d="M118.07,-34.22C125.99,-35.12 134.25,-36.05 142.52,-36.99"/>
<polygon fill="#63b8ff" stroke="#63b8ff" points="141.95,-40.45 152.28,-38.1 142.74,-33.49 141.95,-40.45"/>
</a>
</g>
</g>
<!-- Node7 -->
<g id="Node000007" class="node">
<title>Node7</title>
<g id="a_Node000007"><a xlink:href="../../df/db2/class_objects_accessor.html#adcde9d95f2bbdd55714d9bd9bb3efce4" target="_top" xlink:title=" ">
<polygon fill="white" stroke="#666666" points="294.5,-19.25 162.25,-19.25 162.25,0 294.5,0 294.5,-19.25"/>
<text text-anchor="middle" x="228.38" y="-5.75" font-family="Helvetica,sans-Serif" font-size="10.00">ObjectsAccessor::instance</text>
</a>
</g>
</g>
<!-- Node1&#45;&gt;Node7 -->
<g id="edge2_Node000001_Node000007" class="edge">
<title>Node1&#45;&gt;Node7</title>
<g id="a_edge2_Node000001_Node000007"><a xlink:title=" ">
<path fill="none" stroke="#63b8ff" d="M118.07,-21.38C128.58,-20.25 139.69,-19.05 150.64,-17.88"/>
<polygon fill="#63b8ff" stroke="#63b8ff" points="150.88,-21.37 160.45,-16.82 150.14,-14.41 150.88,-21.37"/>
</a>
</g>
</g>
</g>
</svg>
