<?xml version="1.0" encoding="UTF-8" standalone="no"?>
<!DOCTYPE svg PUBLIC "-//W3C//DTD SVG 1.1//EN"
 "http://www.w3.org/Graphics/SVG/1.1/DTD/svg11.dtd">
<!-- Generated by graphviz version 9.0.0 (20230911.1827)
 -->
<!-- Title: MediaViewCtrl::setSource Pages: 1 -->
<svg width="323pt" height="285pt"
 viewBox="0.00 0.00 322.75 284.88" xmlns="http://www.w3.org/2000/svg" xmlns:xlink="http://www.w3.org/1999/xlink">
<g id="graph0" class="graph" transform="scale(1 1) rotate(0) translate(4 280.88)">
<title>MediaViewCtrl::setSource</title>
<!-- Node1 -->
<g id="Node000001" class="node">
<title>Node1</title>
<g id="a_Node000001"><a xlink:title=" ">
<polygon fill="#999999" stroke="#666666" points="127.75,-148.25 0,-148.25 0,-129 127.75,-129 127.75,-148.25"/>
<text text-anchor="middle" x="63.88" y="-134.75" font-family="Helvetica,sans-Serif" font-size="10.00">MediaViewCtrl::setSource</text>
</a>
</g>
</g>
<!-- Node2 -->
<g id="Node000002" class="node">
<title>Node2</title>
<g id="a_Node000002"><a xlink:href="../../d7/da9/struct_database_1_1_i_database.html#ac86cb641a8f5a37a00873df333bb12bb" target="_top" xlink:title=" ">
<polygon fill="#fff0f0" stroke="red" points="292.25,-276.88 186.25,-276.88 186.25,-246.38 292.25,-246.38 292.25,-276.88"/>
<text text-anchor="start" x="194.25" y="-263.38" font-family="Helvetica,sans-Serif" font-size="10.00">Database::IDatabase</text>
<text text-anchor="middle" x="239.25" y="-252.12" font-family="Helvetica,sans-Serif" font-size="10.00">::exec</text>
</a>
</g>
</g>
<!-- Node1&#45;&gt;Node2 -->
<g id="edge1_Node000001_Node000002" class="edge">
<title>Node1&#45;&gt;Node2</title>
<g id="a_edge1_Node000001_Node000002"><a xlink:title=" ">
<path fill="none" stroke="#63b8ff" d="M72.16,-148.6C87.12,-168.41 123.34,-212.91 163.75,-237.62 167.49,-239.91 171.47,-242 175.57,-243.91"/>
<polygon fill="#63b8ff" stroke="#63b8ff" points="173.98,-247.04 184.55,-247.7 176.7,-240.59 173.98,-247.04"/>
</a>
</g>
</g>
<!-- Node5 -->
<g id="Node000005" class="node">
<title>Node5</title>
<g id="a_Node000005"><a xlink:href="../../df/db2/class_objects_accessor.html#adcde9d95f2bbdd55714d9bd9bb3efce4" target="_top" xlink:title=" ">
<polygon fill="white" stroke="#666666" points="305.38,-228.25 173.12,-228.25 173.12,-209 305.38,-209 305.38,-228.25"/>
<text text-anchor="middle" x="239.25" y="-214.75" font-family="Helvetica,sans-Serif" font-size="10.00">ObjectsAccessor::instance</text>
</a>
</g>
</g>
<!-- Node1&#45;&gt;Node5 -->
<g id="edge2_Node000001_Node000005" class="edge">
<title>Node1&#45;&gt;Node5</title>
<g id="a_edge2_Node000001_Node000005"><a xlink:title=" ">
<path fill="none" stroke="#63b8ff" d="M77.87,-148.72C96.08,-162.4 130.7,-186.71 163.75,-200.62 167.77,-202.32 171.99,-203.88 176.28,-205.3"/>
<polygon fill="#63b8ff" stroke="#63b8ff" points="175.01,-208.57 185.6,-208.14 177.05,-201.88 175.01,-208.57"/>
</a>
</g>
</g>
<!-- Node6 -->
<g id="Node000006" class="node">
<title>Node6</title>
<g id="a_Node000006"><a xlink:href="../../d0/dd6/function__wrappers_8hpp.html#abcb82074b30c95a4c32fffd37ae0a63d" target="_top" xlink:title=" ">
<polygon fill="white" stroke="#666666" points="277.62,-191.25 200.88,-191.25 200.88,-172 277.62,-172 277.62,-191.25"/>
<text text-anchor="middle" x="239.25" y="-177.75" font-family="Helvetica,sans-Serif" font-size="10.00">invokeMethod</text>
</a>
</g>
</g>
<!-- Node1&#45;&gt;Node6 -->
<g id="edge3_Node000001_Node000006" class="edge">
<title>Node1&#45;&gt;Node6</title>
<g id="a_edge3_Node000001_Node000006"><a xlink:title=" ">
<path fill="none" stroke="#63b8ff" d="M105.52,-148.71C130.66,-154.94 163.07,-162.98 189.57,-169.55"/>
<polygon fill="#63b8ff" stroke="#63b8ff" points="188.51,-172.89 199.06,-171.9 190.19,-166.1 188.51,-172.89"/>
</a>
</g>
</g>
<!-- Node7 -->
<g id="Node000007" class="node">
<title>Node7</title>
<g id="a_Node000007"><a xlink:href="../../d2/d3a/classsafe__callback__ctrl.html#a2782272aba3be1150a5740914ba63f5f" target="_top" xlink:title=" ">
<polygon fill="white" stroke="#666666" points="294.12,-153.88 184.38,-153.88 184.38,-123.38 294.12,-123.38 294.12,-153.88"/>
<text text-anchor="start" x="192.38" y="-140.38" font-family="Helvetica,sans-Serif" font-size="10.00">safe_callback_ctrl</text>
<text text-anchor="middle" x="239.25" y="-129.12" font-family="Helvetica,sans-Serif" font-size="10.00">::make_safe_callback</text>
</a>
</g>
</g>
<!-- Node1&#45;&gt;Node7 -->
<g id="edge4_Node000001_Node000007" class="edge">
<title>Node1&#45;&gt;Node7</title>
<g id="a_edge4_Node000001_Node000007"><a xlink:title=" ">
<path fill="none" stroke="#63b8ff" d="M127.96,-138.62C142.47,-138.62 157.94,-138.62 172.57,-138.62"/>
<polygon fill="#63b8ff" stroke="#63b8ff" points="172.56,-142.13 182.56,-138.63 172.56,-135.13 172.56,-142.13"/>
</a>
</g>
</g>
<!-- Node8 -->
<g id="Node000008" class="node">
<title>Node8</title>
<g id="a_Node000008"><a xlink:href="../../d3/d07/class_media_view_ctrl.html#ab1791c3721f7d2e9de94c996ce4209b5" target="_top" xlink:title=" ">
<polygon fill="white" stroke="#666666" points="310.62,-104.88 167.88,-104.88 167.88,-74.38 310.62,-74.38 310.62,-104.88"/>
<text text-anchor="start" x="175.88" y="-91.38" font-family="Helvetica,sans-Serif" font-size="10.00">MediaViewCtrl::photoIDString</text>
<text text-anchor="middle" x="239.25" y="-80.12" font-family="Helvetica,sans-Serif" font-size="10.00">Changed</text>
</a>
</g>
</g>
<!-- Node1&#45;&gt;Node8 -->
<g id="edge5_Node000001_Node000008" class="edge">
<title>Node1&#45;&gt;Node8</title>
<g id="a_edge5_Node000001_Node000008"><a xlink:title=" ">
<path fill="none" stroke="#63b8ff" d="M100.38,-128.59C120.91,-122.79 147.41,-115.3 171.69,-108.44"/>
<polygon fill="#63b8ff" stroke="#63b8ff" points="172.52,-111.84 181.2,-105.75 170.62,-105.1 172.52,-111.84"/>
</a>
</g>
</g>
<!-- Node9 -->
<g id="Node000009" class="node">
<title>Node9</title>
<g id="a_Node000009"><a xlink:href="../../d3/d07/class_media_view_ctrl.html#aa24ae0b96b7ddfdd731a382f759d429f" target="_top" xlink:title=" ">
<polygon fill="#fff0f0" stroke="red" points="297.88,-56.25 180.62,-56.25 180.62,-37 297.88,-37 297.88,-56.25"/>
<text text-anchor="middle" x="239.25" y="-42.75" font-family="Helvetica,sans-Serif" font-size="10.00">MediaViewCtrl::setPath</text>
</a>
</g>
</g>
<!-- Node1&#45;&gt;Node9 -->
<g id="edge6_Node000001_Node000009" class="edge">
<title>Node1&#45;&gt;Node9</title>
<g id="a_edge6_Node000001_Node000009"><a xlink:title=" ">
<path fill="none" stroke="#63b8ff" d="M75.52,-128.54C92.72,-112.8 128.28,-82.45 163.75,-65.62 167.96,-63.63 172.4,-61.83 176.94,-60.2"/>
<polygon fill="#63b8ff" stroke="#63b8ff" points="177.76,-63.61 186.19,-57.18 175.59,-56.95 177.76,-63.61"/>
</a>
</g>
</g>
<!-- Node19 -->
<g id="Node000019" class="node">
<title>Node19</title>
<g id="a_Node000019"><a xlink:href="../../d3/d07/class_media_view_ctrl.html#a6d9dd3297875e9a652d8e7282675761e" target="_top" xlink:title=" ">
<polygon fill="white" stroke="#666666" points="314.75,-19.25 163.75,-19.25 163.75,0 314.75,0 314.75,-19.25"/>
<text text-anchor="middle" x="239.25" y="-5.75" font-family="Helvetica,sans-Serif" font-size="10.00">MediaViewCtrl::sourceChanged</text>
</a>
</g>
</g>
<!-- Node1&#45;&gt;Node19 -->
<g id="edge7_Node000001_Node000019" class="edge">
<title>Node1&#45;&gt;Node19</title>
<g id="a_edge7_Node000001_Node000019"><a xlink:title=" ">
<path fill="none" stroke="#63b8ff" d="M70.64,-128.82C84.03,-106.99 119.48,-54.17 163.75,-27.62 165.8,-26.4 167.93,-25.25 170.12,-24.18"/>
<polygon fill="#63b8ff" stroke="#63b8ff" points="171.44,-27.42 179.3,-20.32 168.73,-20.97 171.44,-27.42"/>
</a>
</g>
</g>
</g>
</svg>
