<?xml version="1.0" encoding="UTF-8" standalone="no"?>
<!DOCTYPE svg PUBLIC "-//W3C//DTD SVG 1.1//EN"
 "http://www.w3.org/Graphics/SVG/1.1/DTD/svg11.dtd">
<!-- Generated by graphviz version 12.2.0 (20241103.1931)
 -->
<!-- Title: src/gui/desktop/models/photo_properties_model.cpp Pages: 1 -->
<svg width="478pt" height="94pt"
 viewBox="0.00 0.00 477.75 93.75" xmlns="http://www.w3.org/2000/svg" xmlns:xlink="http://www.w3.org/1999/xlink">

<svg id="main" version="1.1" xmlns="http://www.w3.org/2000/svg" xmlns:xlink="http://www.w3.org/1999/xlink" xml:space="preserve">

<style type="text/css"><![CDATA[
.node, .edge {opacity: 0.7;}
.node.selected, .edge.selected {opacity: 1;}
.edge:hover path { stroke: red; }
.edge:hover polygon { stroke: red; fill: red; }
]]></style>
<script type="application/ecmascript" xlink:href="../../svg.min.js"/>
<svg id="graph" class="graph">
<g id="graph0" class="graph" transform="scale(1 1) rotate(0) translate(4 89.75)">
<title>src/gui/desktop/models/photo_properties_model.cpp</title>
<!-- Node1 -->
<g id="Node000001" class="node">
<title>Node1</title>
<g id="a_Node000001"><a xlink:title=" ">
<polygon fill="#999999" stroke="#666666" points="318,-85.75 177.5,-85.75 177.5,-55.25 318,-55.25 318,-85.75"/>
<text text-anchor="start" x="185.5" y="-72.25" font-family="Helvetica,sans-Serif" font-size="10.00">src/gui/desktop/models</text>
<text text-anchor="middle" x="247.75" y="-61" font-family="Helvetica,sans-Serif" font-size="10.00">/photo_properties_model.cpp</text>
</a>
</g>
</g>
<!-- Node2 -->
<g id="Node000002" class="node">
<title>Node2</title>
<g id="a_Node000002"><a xlink:href="../../df/d86/photo__properties__model_8hpp.html" target="_top" xlink:title=" ">
<polygon fill="#fff0f0" stroke="red" points="137.5,-19.25 0,-19.25 0,0 137.5,0 137.5,-19.25"/>
<text text-anchor="middle" x="68.75" y="-5.75" font-family="Helvetica,sans-Serif" font-size="10.00">photo_properties_model.hpp</text>
</a>
</g>
</g>
<!-- Node1&#45;&gt;Node2 -->
<g id="edge1_Node000001_Node000002" class="edge">
<title>Node1&#45;&gt;Node2</title>
<g id="a_edge1_Node000001_Node000002"><a xlink:title=" ">
<path fill="none" stroke="#63b8ff" d="M203.04,-54.8C173.51,-45.08 135.22,-32.49 107.09,-23.23"/>
<polygon fill="#63b8ff" stroke="#63b8ff" points="108.5,-20.01 97.9,-20.21 106.31,-26.66 108.5,-20.01"/>
</a>
</g>
</g>
<!-- Node50 -->
<g id="Node000050" class="node">
<title>Node50</title>
<g id="a_Node000050"><a xlink:title=" ">
<polygon fill="#e0e0e0" stroke="#999999" points="211.62,-19.25 155.88,-19.25 155.88,0 211.62,0 211.62,-19.25"/>
<text text-anchor="middle" x="183.75" y="-5.75" font-family="Helvetica,sans-Serif" font-size="10.00">algorithm</text>
</a>
</g>
</g>
<!-- Node1&#45;&gt;Node50 -->
<g id="edge2_Node000001_Node000050" class="edge">
<title>Node1&#45;&gt;Node50</title>
<g id="a_edge2_Node000001_Node000050"><a xlink:title=" ">
<path fill="none" stroke="#63b8ff" d="M231.93,-54.95C222.84,-46.59 211.39,-36.05 201.93,-27.35"/>
<polygon fill="#63b8ff" stroke="#63b8ff" points="204.46,-24.92 194.73,-20.73 199.72,-30.07 204.46,-24.92"/>
</a>
</g>
</g>
<!-- Node51 -->
<g id="Node000051" class="node">
<title>Node51</title>
<g id="a_Node000051"><a xlink:title=" ">
<polygon fill="#e0e0e0" stroke="#999999" points="265.5,-19.25 230,-19.25 230,0 265.5,0 265.5,-19.25"/>
<text text-anchor="middle" x="247.75" y="-5.75" font-family="Helvetica,sans-Serif" font-size="10.00">QDir</text>
</a>
</g>
</g>
<!-- Node1&#45;&gt;Node51 -->
<g id="edge3_Node000001_Node000051" class="edge">
<title>Node1&#45;&gt;Node51</title>
<g id="a_edge3_Node000001_Node000051"><a xlink:title=" ">
<path fill="none" stroke="#63b8ff" d="M247.75,-54.95C247.75,-47.71 247.75,-38.84 247.75,-30.94"/>
<polygon fill="#63b8ff" stroke="#63b8ff" points="251.25,-31.21 247.75,-21.21 244.25,-31.21 251.25,-31.21"/>
</a>
</g>
</g>
<!-- Node52 -->
<g id="Node000052" class="node">
<title>Node52</title>
<g id="a_Node000052"><a xlink:title=" ">
<polygon fill="#e0e0e0" stroke="#999999" points="339.62,-19.25 283.88,-19.25 283.88,0 339.62,0 339.62,-19.25"/>
<text text-anchor="middle" x="311.75" y="-5.75" font-family="Helvetica,sans-Serif" font-size="10.00">QFileInfo</text>
</a>
</g>
</g>
<!-- Node1&#45;&gt;Node52 -->
<g id="edge4_Node000001_Node000052" class="edge">
<title>Node1&#45;&gt;Node52</title>
<g id="a_edge4_Node000001_Node000052"><a xlink:title=" ">
<path fill="none" stroke="#63b8ff" d="M263.57,-54.95C272.66,-46.59 284.11,-36.05 293.57,-27.35"/>
<polygon fill="#63b8ff" stroke="#63b8ff" points="295.78,-30.07 300.77,-20.73 291.04,-24.92 295.78,-30.07"/>
</a>
</g>
</g>
<!-- Node53 -->
<g id="Node000053" class="node">
<title>Node53</title>
<g id="a_Node000053"><a xlink:href="../../d1/d85/filesystem_8hpp.html" target="_top" xlink:title=" ">
<polygon fill="#fff0f0" stroke="red" points="469.75,-19.25 357.75,-19.25 357.75,0 469.75,0 469.75,-19.25"/>
<text text-anchor="middle" x="413.75" y="-5.75" font-family="Helvetica,sans-Serif" font-size="10.00">system/filesystem.hpp</text>
</a>
</g>
</g>
<!-- Node1&#45;&gt;Node53 -->
<g id="edge5_Node000001_Node000053" class="edge">
<title>Node1&#45;&gt;Node53</title>
<g id="a_edge5_Node000001_Node000053"><a xlink:title=" ">
<path fill="none" stroke="#63b8ff" d="M289.21,-54.8C316.44,-45.14 351.69,-32.63 377.74,-23.4"/>
<polygon fill="#63b8ff" stroke="#63b8ff" points="378.61,-26.8 386.87,-20.16 376.27,-20.2 378.61,-26.8"/>
</a>
</g>
</g>
</g>
</svg>
</svg>

<style type='text/css'>
<![CDATA[
[data-mouse-over-selected='false'] { opacity: 0.7; }
[data-mouse-over-selected='true']  { opacity: 1.0; }
]]>
</style>
<script type="application/ecmascript"><![CDATA[
document.addEventListener('DOMContentLoaded', (event) => {
  highlightEdges();
  highlightAdjacentNodes();
});
]]></script>
</svg>
