<?xml version="1.0" encoding="UTF-8" standalone="no"?>
<!DOCTYPE svg PUBLIC "-//W3C//DTD SVG 1.1//EN"
 "http://www.w3.org/Graphics/SVG/1.1/DTD/svg11.dtd">
<!-- Generated by graphviz version 12.2.0 (20241103.1931)
 -->
<!-- Title: src/gui/desktop/models/photo_properties_model.cpp Pages: 1 -->
<!--zoomable 160 -->

<svg id="main" version="1.1" xmlns="http://www.w3.org/2000/svg" xmlns:xlink="http://www.w3.org/1999/xlink" xml:space="preserve" onload="init(evt)">

<style type="text/css"><![CDATA[
.node, .edge {opacity: 0.7;}
.node.selected, .edge.selected {opacity: 1;}
.edge:hover path { stroke: red; }
.edge:hover polygon { stroke: red; fill: red; }
]]></style>

<defs>
  <circle id="rim" cx="0" cy="0" r="7"/>
  <circle id="rim2" cx="0" cy="0" r="3.5"/>
  <g id="zoomPlus">
    <use xlink:href="#rim" fill="#404040"><set attributeName="fill" to="#808080" begin="zoomplus.mouseover" end="zoomplus.mouseout"/></use>
    <path d="M-4,0h8M0,-4v8" fill="none" stroke="white" stroke-width="1.5" pointer-events="none"/>
  </g>
  <g id="zoomMin">
    <use xlink:href="#rim" fill="#404040"><set attributeName="fill" to="#808080" begin="zoomminus.mouseover" end="zoomminus.mouseout"/></use>
    <path d="M-4,0h8" fill="none" stroke="white" stroke-width="1.5" pointer-events="none"/>
  </g>
  <g id="arrowUp" transform="translate(30 24)">
    <use xlink:href="#rim"/>
    <path pointer-events="none" fill="none" stroke="white" stroke-width="1.5" d="M0,-3.0v7 M-2.5,-0.5L0,-3.0L2.5,-0.5"/>
  </g>
  <g id="arrowRight" transform="rotate(90) translate(36 -43)">
    <use xlink:href="#rim"/>
    <path pointer-events="none" fill="none" stroke="white" stroke-width="1.5" d="M0,-3.0v7 M-2.5,-0.5L0,-3.0L2.5,-0.5"/>
  </g>
  <g id="arrowDown" transform="rotate(180) translate(-30 -48)">
    <use xlink:href="#rim"/>
    <path pointer-events="none" fill="none" stroke="white" stroke-width="1.5" d="M0,-3.0v7 M-2.5,-0.5L0,-3.0L2.5,-0.5"/>
  </g>
  <g id="arrowLeft" transform="rotate(270) translate(-36 17)">
    <use xlink:href="#rim"/>
    <path pointer-events="none" fill="none" stroke="white" stroke-width="1.5" d="M0,-3.0v7 M-2.5,-0.5L0,-3.0L2.5,-0.5"/>
  </g>
  <g id="resetDef">
    <use xlink:href="#rim2" fill="#404040"><set attributeName="fill" to="#808080" begin="reset.mouseover" end="reset.mouseout"/></use>
  </g>
</defs>
<script type="application/ecmascript">
var viewWidth = 516;
var viewHeight = 160;
var sectionId = 'dynsection-0';
</script>
<script type="application/ecmascript" xlink:href="../../svg.min.js"/>
<svg id="graph" class="graph">
<g id="viewport">
<title>src/gui/desktop/models/photo_properties_model.cpp</title>
<!-- Node1 -->
<g id="Node000001" class="node">
<title>Node1</title>
<g id="a_Node000001"><a xlink:title=" ">
<polygon fill="#999999" stroke="#666666" points="324,-152.25 183.5,-152.25 183.5,-121.75 324,-121.75 324,-152.25"/>
<text text-anchor="start" x="191.5" y="-138.75" font-family="Helvetica,sans-Serif" font-size="10.00">src/gui/desktop/models</text>
<text text-anchor="middle" x="253.75" y="-127.5" font-family="Helvetica,sans-Serif" font-size="10.00">/photo_properties_model.cpp</text>
</a>
</g>
</g>
<!-- Node2 -->
<g id="Node000002" class="node">
<title>Node2</title>
<g id="a_Node000002"><a xlink:href="../../df/d86/photo__properties__model_8hpp.html" target="_top" xlink:title=" ">
<polygon fill="#fff0f0" stroke="red" points="137.5,-85.75 0,-85.75 0,-66.5 137.5,-66.5 137.5,-85.75"/>
<text text-anchor="middle" x="68.75" y="-72.25" font-family="Helvetica,sans-Serif" font-size="10.00">photo_properties_model.hpp</text>
</a>
</g>
</g>
<!-- Node1&#45;&gt;Node2 -->
<g id="edge1_Node000001_Node000002" class="edge">
<title>Node1&#45;&gt;Node2</title>
<g id="a_edge1_Node000001_Node000002"><a xlink:title=" ">
<path fill="none" stroke="#63b8ff" d="M207.54,-121.3C176.89,-111.54 137.1,-98.88 107.99,-89.61"/>
<polygon fill="#63b8ff" stroke="#63b8ff" points="109.43,-86.4 98.84,-86.7 107.3,-93.07 109.43,-86.4"/>
</a>
</g>
</g>
<!-- Node48 -->
<g id="Node000048" class="node">
<title>Node48</title>
<g id="a_Node000048"><a xlink:href="../../d3/d0f/photo__delta__fetcher__binding_8hpp.html" target="_top" xlink:title=" ">
<polygon fill="#fff0f0" stroke="red" points="182.5,-30.5 51,-30.5 51,0 182.5,0 182.5,-30.5"/>
<text text-anchor="start" x="59" y="-17" font-family="Helvetica,sans-Serif" font-size="10.00">gui/desktop/utils/photo</text>
<text text-anchor="middle" x="116.75" y="-5.75" font-family="Helvetica,sans-Serif" font-size="10.00">_delta_fetcher_binding.hpp</text>
</a>
</g>
</g>
<!-- Node1&#45;&gt;Node48 -->
<g id="edge7_Node000001_Node000048" class="edge">
<title>Node1&#45;&gt;Node48</title>
<g id="a_edge7_Node000001_Node000048"><a xlink:title=" ">
<path fill="none" stroke="#63b8ff" d="M231.6,-121.27C217.7,-111.7 199.66,-98.64 184.75,-85.75 167.83,-71.12 150.21,-53.02 137.14,-38.95"/>
<polygon fill="#63b8ff" stroke="#63b8ff" points="140.01,-36.9 130.67,-31.9 134.85,-41.64 140.01,-36.9"/>
</a>
</g>
</g>
<!-- Node52 -->
<g id="Node000052" class="node">
<title>Node52</title>
<g id="a_Node000052"><a xlink:title=" ">
<polygon fill="#e0e0e0" stroke="#999999" points="249.62,-85.75 193.88,-85.75 193.88,-66.5 249.62,-66.5 249.62,-85.75"/>
<text text-anchor="middle" x="221.75" y="-72.25" font-family="Helvetica,sans-Serif" font-size="10.00">algorithm</text>
</a>
</g>
</g>
<!-- Node1&#45;&gt;Node52 -->
<g id="edge3_Node000001_Node000052" class="edge">
<title>Node1&#45;&gt;Node52</title>
<g id="a_edge3_Node000001_Node000052"><a xlink:title=" ">
<path fill="none" stroke="#63b8ff" d="M245.84,-121.45C241.72,-113.86 236.62,-104.49 232.18,-96.32"/>
<polygon fill="#63b8ff" stroke="#63b8ff" points="235.26,-94.65 227.41,-87.53 229.11,-97.99 235.26,-94.65"/>
</a>
</g>
</g>
<!-- Node53 -->
<g id="Node000053" class="node">
<title>Node53</title>
<g id="a_Node000053"><a xlink:title=" ">
<polygon fill="#e0e0e0" stroke="#999999" points="303.5,-85.75 268,-85.75 268,-66.5 303.5,-66.5 303.5,-85.75"/>
<text text-anchor="middle" x="285.75" y="-72.25" font-family="Helvetica,sans-Serif" font-size="10.00">QDir</text>
</a>
</g>
</g>
<!-- Node1&#45;&gt;Node53 -->
<g id="edge4_Node000001_Node000053" class="edge">
<title>Node1&#45;&gt;Node53</title>
<g id="a_edge4_Node000001_Node000053"><a xlink:title=" ">
<path fill="none" stroke="#63b8ff" d="M261.66,-121.45C265.78,-113.86 270.88,-104.49 275.32,-96.32"/>
<polygon fill="#63b8ff" stroke="#63b8ff" points="278.39,-97.99 280.09,-87.53 272.24,-94.65 278.39,-97.99"/>
</a>
</g>
</g>
<!-- Node54 -->
<g id="Node000054" class="node">
<title>Node54</title>
<g id="a_Node000054"><a xlink:title=" ">
<polygon fill="#e0e0e0" stroke="#999999" points="377.62,-85.75 321.88,-85.75 321.88,-66.5 377.62,-66.5 377.62,-85.75"/>
<text text-anchor="middle" x="349.75" y="-72.25" font-family="Helvetica,sans-Serif" font-size="10.00">QFileInfo</text>
</a>
</g>
</g>
<!-- Node1&#45;&gt;Node54 -->
<g id="edge5_Node000001_Node000054" class="edge">
<title>Node1&#45;&gt;Node54</title>
<g id="a_edge5_Node000001_Node000054"><a xlink:title=" ">
<path fill="none" stroke="#63b8ff" d="M277.48,-121.45C292.1,-112.48 310.79,-101.02 325.5,-92"/>
<polygon fill="#63b8ff" stroke="#63b8ff" points="326.97,-95.2 333.66,-86.99 323.31,-89.24 326.97,-95.2"/>
</a>
</g>
</g>
<!-- Node55 -->
<g id="Node000055" class="node">
<title>Node55</title>
<g id="a_Node000055"><a xlink:href="../../d1/d85/filesystem_8hpp.html" target="_top" xlink:title=" ">
<polygon fill="#fff0f0" stroke="red" points="507.75,-85.75 395.75,-85.75 395.75,-66.5 507.75,-66.5 507.75,-85.75"/>
<text text-anchor="middle" x="451.75" y="-72.25" font-family="Helvetica,sans-Serif" font-size="10.00">system/filesystem.hpp</text>
</a>
</g>
</g>
<!-- Node1&#45;&gt;Node55 -->
<g id="edge6_Node000001_Node000055" class="edge">
<title>Node1&#45;&gt;Node55</title>
<g id="a_edge6_Node000001_Node000055"><a xlink:title=" ">
<path fill="none" stroke="#63b8ff" d="M303.2,-121.3C336.15,-111.5 378.97,-98.77 410.17,-89.49"/>
<polygon fill="#63b8ff" stroke="#63b8ff" points="411.05,-92.88 419.64,-86.67 409.06,-86.17 411.05,-92.88"/>
</a>
</g>
</g>
<!-- Node2&#45;&gt;Node48 -->
<g id="edge2_Node000002_Node000048" class="edge">
<title>Node2&#45;&gt;Node48</title>
<g id="a_edge2_Node000002_Node000048"><a xlink:title=" ">
<path fill="none" stroke="#63b8ff" d="M76.04,-66.18C81.78,-59.14 90.06,-48.98 97.66,-39.67"/>
<polygon fill="#63b8ff" stroke="#63b8ff" points="100.34,-41.92 103.95,-31.96 94.91,-37.49 100.34,-41.92"/>
</a>
</g>
</g>
</g>
</svg>

<g id="navigator" transform="translate(0 0)" fill="#404254">
  <rect fill="#f2f5e9" fill-opacity="0.5" stroke="#606060" stroke-width=".5" x="0" y="0" width="60" height="60"/>
  <use id="zoomplus" xlink:href="#zoomPlus" x="17" y="9" onmousedown="handleZoom(evt,'in')"/>
  <use id="zoomminus" xlink:href="#zoomMin" x="42" y="9" onmousedown="handleZoom(evt,'out')"/>
  <use id="reset" xlink:href="#resetDef" x="30" y="36" onmousedown="handleReset()"/>
   <use id="arrowup" xlink:href="#arrowUp" x="0" y="0" onmousedown="handlePan(0,-1)"/>
  <use id="arrowright" xlink:href="#arrowRight" x="0" y="0" onmousedown="handlePan(1,0)"/>
  <use id="arrowdown" xlink:href="#arrowDown" x="0" y="0" onmousedown="handlePan(0,1)"/>
  <use id="arrowleft" xlink:href="#arrowLeft" x="0" y="0" onmousedown="handlePan(-1,0)"/>
</g>
<svg viewBox="0 0 15 15" width="100%" height="30px" preserveAspectRatio="xMaxYMin meet">
 <g id="arrow_out" transform="scale(0.3 0.3)">
  <a xlink:href="photo__properties__model_8cpp__incl_org.svg" target="_base">
   <rect id="button" ry="5" rx="5" y="6" x="6" height="38" width="38"
        fill="#f2f5e9" fill-opacity="0.5" stroke="#606060" stroke-width="1.0"/>
   <path id="arrow"
     d="M 11.500037,31.436501 C 11.940474,20.09759 22.043105,11.32322 32.158766,21.979434 L 37.068811,17.246167 C 37.068811,17.246167 37.088388,32 37.088388,32 L 22.160133,31.978069 C 22.160133,31.978069 26.997745,27.140456 26.997745,27.140456 C 18.528582,18.264221 13.291696,25.230495 11.500037,31.436501 z"
     style="fill:#404040;"/>
  </a>
 </g>
</svg>

<style type='text/css'>
<![CDATA[
[data-mouse-over-selected='false'] { opacity: 0.7; }
[data-mouse-over-selected='true']  { opacity: 1.0; }
]]>
</style>
<script type="application/ecmascript"><![CDATA[
document.addEventListener('DOMContentLoaded', (event) => {
  highlightEdges();
  highlightAdjacentNodes();
});
]]></script>
</svg>
