<?xml version="1.0" encoding="UTF-8" standalone="no"?>
<!DOCTYPE svg PUBLIC "-//W3C//DTD SVG 1.1//EN"
 "http://www.w3.org/Graphics/SVG/1.1/DTD/svg11.dtd">
<!-- Generated by graphviz version 9.0.0 (20230911.1827)
 -->
<!-- Title: src/gui/desktop/utils/groups_manager.hpp Pages: 1 -->
<svg width="539pt" height="105pt"
 viewBox="0.00 0.00 539.12 105.00" xmlns="http://www.w3.org/2000/svg" xmlns:xlink="http://www.w3.org/1999/xlink">
<g id="graph0" class="graph" transform="scale(1 1) rotate(0) translate(4 101)">
<title>src/gui/desktop/utils/groups_manager.hpp</title>
<!-- Node1 -->
<g id="Node000001" class="node">
<title>Node1</title>
<g id="a_Node000001"><a xlink:title=" ">
<polygon fill="#999999" stroke="#666666" points="314.25,-97 205.25,-97 205.25,-66.5 314.25,-66.5 314.25,-97"/>
<text text-anchor="start" x="213.25" y="-83.5" font-family="Helvetica,sans-Serif" font-size="10.00">src/gui/desktop/utils</text>
<text text-anchor="middle" x="259.75" y="-72.25" font-family="Helvetica,sans-Serif" font-size="10.00">/groups_manager.hpp</text>
</a>
</g>
</g>
<!-- Node2 -->
<g id="Node000002" class="node">
<title>Node2</title>
<g id="a_Node000002"><a xlink:title=" ">
<polygon fill="#e0e0e0" stroke="#999999" points="59.5,-24.88 0,-24.88 0,-5.63 59.5,-5.63 59.5,-24.88"/>
<text text-anchor="middle" x="29.75" y="-11.38" font-family="Helvetica,sans-Serif" font-size="10.00">QPromise</text>
</a>
</g>
</g>
<!-- Node1&#45;&gt;Node2 -->
<g id="edge1_Node000001_Node000002" class="edge">
<title>Node1&#45;&gt;Node2</title>
<g id="a_edge1_Node000001_Node000002"><a xlink:title=" ">
<path fill="none" stroke="#63b8ff" d="M205.12,-68.04C166.46,-58.66 113.56,-45.04 67.75,-30.5 66.39,-30.07 65.01,-29.62 63.61,-29.15"/>
<polygon fill="#63b8ff" stroke="#63b8ff" points="64.95,-25.91 54.36,-25.88 62.62,-32.51 64.95,-25.91"/>
</a>
</g>
</g>
<!-- Node3 -->
<g id="Node000003" class="node">
<title>Node3</title>
<g id="a_Node000003"><a xlink:href="../../df/d6f/iexif__reader_8hpp.html" target="_top" xlink:title=" ">
<polygon fill="#fff0f0" stroke="red" points="182.38,-24.88 77.12,-24.88 77.12,-5.63 182.38,-5.63 182.38,-24.88"/>
<text text-anchor="middle" x="129.75" y="-11.38" font-family="Helvetica,sans-Serif" font-size="10.00">core/iexif_reader.hpp</text>
</a>
</g>
</g>
<!-- Node1&#45;&gt;Node3 -->
<g id="edge2_Node000001_Node000003" class="edge">
<title>Node1&#45;&gt;Node3</title>
<g id="a_edge2_Node000001_Node000003"><a xlink:title=" ">
<path fill="none" stroke="#63b8ff" d="M230.25,-66.11C208.59,-55.37 179.34,-40.86 157.98,-30.26"/>
<polygon fill="#63b8ff" stroke="#63b8ff" points="159.78,-27.24 149.27,-25.93 156.67,-33.51 159.78,-27.24"/>
</a>
</g>
</g>
<!-- Node16 -->
<g id="Node000016" class="node">
<title>Node16</title>
<g id="a_Node000016"><a xlink:href="../../d8/d0e/explicit__photo__delta_8hpp.html" target="_top" xlink:title=" ">
<polygon fill="#fff0f0" stroke="red" points="318.75,-30.5 200.75,-30.5 200.75,0 318.75,0 318.75,-30.5"/>
<text text-anchor="start" x="208.75" y="-17" font-family="Helvetica,sans-Serif" font-size="10.00">database/explicit_photo</text>
<text text-anchor="middle" x="259.75" y="-5.75" font-family="Helvetica,sans-Serif" font-size="10.00">_delta.hpp</text>
</a>
</g>
</g>
<!-- Node1&#45;&gt;Node16 -->
<g id="edge3_Node000001_Node000016" class="edge">
<title>Node1&#45;&gt;Node16</title>
<g id="a_edge3_Node000001_Node000016"><a xlink:title=" ">
<path fill="none" stroke="#63b8ff" d="M259.75,-66.11C259.75,-59.02 259.75,-50.29 259.75,-42.13"/>
<polygon fill="#63b8ff" stroke="#63b8ff" points="263.25,-42.34 259.75,-32.34 256.25,-42.34 263.25,-42.34"/>
</a>
</g>
</g>
<!-- Node26 -->
<g id="Node000026" class="node">
<title>Node26</title>
<g id="a_Node000026"><a xlink:href="../../d8/d3d/group_8hpp.html" target="_top" xlink:title=" ">
<polygon fill="#fff0f0" stroke="red" points="394.75,-24.88 336.75,-24.88 336.75,-5.63 394.75,-5.63 394.75,-24.88"/>
<text text-anchor="middle" x="365.75" y="-11.38" font-family="Helvetica,sans-Serif" font-size="10.00">group.hpp</text>
</a>
</g>
</g>
<!-- Node1&#45;&gt;Node26 -->
<g id="edge4_Node000001_Node000026" class="edge">
<title>Node1&#45;&gt;Node26</title>
<g id="a_edge4_Node000001_Node000026"><a xlink:title=" ">
<path fill="none" stroke="#63b8ff" d="M283.8,-66.11C301.06,-55.61 324.23,-41.52 341.53,-30.99"/>
<polygon fill="#63b8ff" stroke="#63b8ff" points="342.93,-34.23 349.65,-26.05 339.29,-28.25 342.93,-34.23"/>
</a>
</g>
</g>
<!-- Node36 -->
<g id="Node000036" class="node">
<title>Node36</title>
<g id="a_Node000036"><a xlink:href="../../d1/d8e/project_8hpp.html" target="_top" xlink:title=" ">
<polygon fill="#fff0f0" stroke="red" points="531.12,-24.88 412.38,-24.88 412.38,-5.63 531.12,-5.63 531.12,-24.88"/>
<text text-anchor="middle" x="471.75" y="-11.38" font-family="Helvetica,sans-Serif" font-size="10.00">project_utils/project.hpp</text>
</a>
</g>
</g>
<!-- Node1&#45;&gt;Node36 -->
<g id="edge5_Node000001_Node000036" class="edge">
<title>Node1&#45;&gt;Node36</title>
<g id="a_edge5_Node000001_Node000036"><a xlink:title=" ">
<path fill="none" stroke="#63b8ff" d="M308.12,-66.03C345.28,-54.73 396.02,-39.29 431.1,-28.62"/>
<polygon fill="#63b8ff" stroke="#63b8ff" points="431.91,-32.03 440.46,-25.77 429.87,-25.33 431.91,-32.03"/>
</a>
</g>
</g>
</g>
</svg>
