<?xml version="1.0" encoding="UTF-8" standalone="no"?>
<!DOCTYPE svg PUBLIC "-//W3C//DTD SVG 1.1//EN"
 "http://www.w3.org/Graphics/SVG/1.1/DTD/svg11.dtd">
<!-- Generated by graphviz version 9.0.0 (20230911.1827)
 -->
<!-- Title: src/gui/desktop/gui.cpp Pages: 1 -->
<!--zoomable 160 -->

<svg id="main" version="1.1" xmlns="http://www.w3.org/2000/svg" xmlns:xlink="http://www.w3.org/1999/xlink" xml:space="preserve" onload="init(evt)">
<style type="text/css"><![CDATA[
.node, .edge {opacity: 0.7;}
.node.selected, .edge.selected {opacity: 1;}
.edge:hover path { stroke: red; }
.edge:hover polygon { stroke: red; fill: red; }
]]></style>

<defs>
  <circle id="rim" cx="0" cy="0" r="7"/>
  <circle id="rim2" cx="0" cy="0" r="3.5"/>
  <g id="zoomPlus">
    <use xlink:href="#rim" fill="#404040"><set attributeName="fill" to="#808080" begin="zoomplus.mouseover" end="zoomplus.mouseout"/></use>
    <path d="M-4,0h8M0,-4v8" fill="none" stroke="white" stroke-width="1.5" pointer-events="none"/>
  </g>
  <g id="zoomMin">
    <use xlink:href="#rim" fill="#404040"><set attributeName="fill" to="#808080" begin="zoomminus.mouseover" end="zoomminus.mouseout"/></use>
    <path d="M-4,0h8" fill="none" stroke="white" stroke-width="1.5" pointer-events="none"/>
  </g>
  <g id="arrowUp" transform="translate(30 24)">
    <use xlink:href="#rim"/>
    <path pointer-events="none" fill="none" stroke="white" stroke-width="1.5" d="M0,-3.0v7 M-2.5,-0.5L0,-3.0L2.5,-0.5"/>
  </g>
  <g id="arrowRight" transform="rotate(90) translate(36 -43)">
    <use xlink:href="#rim"/>
    <path pointer-events="none" fill="none" stroke="white" stroke-width="1.5" d="M0,-3.0v7 M-2.5,-0.5L0,-3.0L2.5,-0.5"/>
  </g>
  <g id="arrowDown" transform="rotate(180) translate(-30 -48)">
    <use xlink:href="#rim"/>
    <path pointer-events="none" fill="none" stroke="white" stroke-width="1.5" d="M0,-3.0v7 M-2.5,-0.5L0,-3.0L2.5,-0.5"/>
  </g>
  <g id="arrowLeft" transform="rotate(270) translate(-36 17)">
    <use xlink:href="#rim"/>
    <path pointer-events="none" fill="none" stroke="white" stroke-width="1.5" d="M0,-3.0v7 M-2.5,-0.5L0,-3.0L2.5,-0.5"/>
  </g>
  <g id="resetDef">
    <use xlink:href="#rim2" fill="#404040"><set attributeName="fill" to="#808080" begin="reset.mouseover" end="reset.mouseout"/></use>
  </g>
</defs>
<script type="application/ecmascript">
var viewWidth = 2261;
var viewHeight = 160;
var sectionId = 'dynsection-0';
</script>
<script type="application/ecmascript" xlink:href="../../svg.min.js"/>
<svg id="graph" class="graph">
<g id="viewport">
<title>src/gui/desktop/gui.cpp</title>
<!-- Node1 -->
<g id="Node000001" class="node">
<title>Node1</title>
<g id="a_Node000001"><a xlink:title=" ">
<polygon fill="#999999" stroke="#666666" points="1047.62,-152.25 931.12,-152.25 931.12,-133 1047.62,-133 1047.62,-152.25"/>
<text text-anchor="middle" x="989.38" y="-138.75" font-family="Helvetica,sans-Serif" font-size="10.00">src/gui/desktop/gui.cpp</text>
</a>
</g>
</g>
<!-- Node2 -->
<g id="Node000002" class="node">
<title>Node2</title>
<g id="a_Node000002"><a xlink:href="../../dc/d7c/gui_8hpp.html" target="_top" xlink:title=" ">
<polygon fill="#fff0f0" stroke="red" points="46.75,-91.38 0,-91.38 0,-72.12 46.75,-72.12 46.75,-91.38"/>
<text text-anchor="middle" x="23.38" y="-77.88" font-family="Helvetica,sans-Serif" font-size="10.00">gui.hpp</text>
</a>
</g>
</g>
<!-- Node1&#45;&gt;Node2 -->
<g id="edge1_Node000001_Node000002" class="edge">
<title>Node1&#45;&gt;Node2</title>
<g id="a_edge1_Node000001_Node000002"><a xlink:title=" ">
<path fill="none" stroke="#63b8ff" d="M930.92,-141.65C753.45,-141.28 222.79,-136.79 55.38,-97 53.98,-96.67 52.56,-96.28 51.15,-95.84"/>
<polygon fill="#63b8ff" stroke="#63b8ff" points="52.57,-92.63 41.98,-92.34 50.08,-99.17 52.57,-92.63"/>
</a>
</g>
</g>
<!-- Node5 -->
<g id="Node000005" class="node">
<title>Node5</title>
<g id="a_Node000005"><a xlink:title=" ">
<polygon fill="#e0e0e0" stroke="#999999" points="156.25,-91.38 64.5,-91.38 64.5,-72.12 156.25,-72.12 156.25,-91.38"/>
<text text-anchor="middle" x="110.38" y="-77.88" font-family="Helvetica,sans-Serif" font-size="10.00">QCoreApplication</text>
</a>
</g>
</g>
<!-- Node1&#45;&gt;Node5 -->
<g id="edge2_Node000001_Node000005" class="edge">
<title>Node1&#45;&gt;Node5</title>
<g id="a_edge2_Node000001_Node000005"><a xlink:title=" ">
<path fill="none" stroke="#63b8ff" d="M930.77,-142.44C795.19,-143.46 449.76,-141.09 165.38,-97 161,-96.32 156.48,-95.44 151.98,-94.46"/>
<polygon fill="#63b8ff" stroke="#63b8ff" points="153,-91.1 142.46,-92.18 151.37,-97.91 153,-91.1"/>
</a>
</g>
</g>
<!-- Node6 -->
<g id="Node000006" class="node">
<title>Node6</title>
<g id="a_Node000006"><a xlink:title=" ">
<polygon fill="#e0e0e0" stroke="#999999" points="262.38,-91.38 174.38,-91.38 174.38,-72.12 262.38,-72.12 262.38,-91.38"/>
<text text-anchor="middle" x="218.38" y="-77.88" font-family="Helvetica,sans-Serif" font-size="10.00">QStandardPaths</text>
</a>
</g>
</g>
<!-- Node1&#45;&gt;Node6 -->
<g id="edge3_Node000001_Node000006" class="edge">
<title>Node1&#45;&gt;Node6</title>
<g id="a_edge3_Node000001_Node000006"><a xlink:title=" ">
<path fill="none" stroke="#63b8ff" d="M930.76,-141.94C807.73,-141.75 513.87,-136.72 271.38,-97 267.33,-96.34 263.15,-95.49 258.99,-94.55"/>
<polygon fill="#63b8ff" stroke="#63b8ff" points="260.15,-91.23 249.61,-92.24 258.48,-98.03 260.15,-91.23"/>
</a>
</g>
</g>
<!-- Node7 -->
<g id="Node000007" class="node">
<title>Node7</title>
<g id="a_Node000007"><a xlink:title=" ">
<polygon fill="#e0e0e0" stroke="#999999" points="347.88,-91.38 280.88,-91.38 280.88,-72.12 347.88,-72.12 347.88,-91.38"/>
<text text-anchor="middle" x="314.38" y="-77.88" font-family="Helvetica,sans-Serif" font-size="10.00">QTranslator</text>
</a>
</g>
</g>
<!-- Node1&#45;&gt;Node7 -->
<g id="edge4_Node000001_Node000007" class="edge">
<title>Node1&#45;&gt;Node7</title>
<g id="a_edge4_Node000001_Node000007"><a xlink:title=" ">
<path fill="none" stroke="#63b8ff" d="M930.79,-142.33C818.43,-142.62 565.36,-138.13 357.38,-97 354.61,-96.45 351.77,-95.78 348.94,-95.02"/>
<polygon fill="#63b8ff" stroke="#63b8ff" points="350.23,-91.76 339.65,-92.25 348.23,-98.47 350.23,-91.76"/>
</a>
</g>
</g>
<!-- Node8 -->
<g id="Node000008" class="node">
<title>Node8</title>
<g id="a_Node000008"><a xlink:title=" ">
<polygon fill="#e0e0e0" stroke="#999999" points="508.75,-91.38 366,-91.38 366,-72.12 508.75,-72.12 508.75,-91.38"/>
<text text-anchor="middle" x="437.38" y="-77.88" font-family="Helvetica,sans-Serif" font-size="10.00">QtQml/qqmlextensionplugin.h</text>
</a>
</g>
</g>
<!-- Node1&#45;&gt;Node8 -->
<g id="edge5_Node000001_Node000008" class="edge">
<title>Node1&#45;&gt;Node8</title>
<g id="a_edge5_Node000001_Node000008"><a xlink:title=" ">
<path fill="none" stroke="#63b8ff" d="M930.83,-137.59C841.6,-131.09 666.31,-116.99 518.38,-97 511.23,-96.04 503.76,-94.9 496.36,-93.69"/>
<polygon fill="#63b8ff" stroke="#63b8ff" points="497.18,-90.28 486.74,-92.07 496.02,-97.18 497.18,-90.28"/>
</a>
</g>
</g>
<!-- Node9 -->
<g id="Node000009" class="node">
<title>Node9</title>
<g id="a_Node000009"><a xlink:href="../../d3/dad/constants_8hpp.html" target="_top" xlink:title=" ">
<polygon fill="#fff0f0" stroke="red" points="625.62,-91.38 527.12,-91.38 527.12,-72.12 625.62,-72.12 625.62,-91.38"/>
<text text-anchor="middle" x="576.38" y="-77.88" font-family="Helvetica,sans-Serif" font-size="10.00">core/constants.hpp</text>
</a>
</g>
</g>
<!-- Node1&#45;&gt;Node9 -->
<g id="edge6_Node000001_Node000009" class="edge">
<title>Node1&#45;&gt;Node9</title>
<g id="a_edge6_Node000001_Node000009"><a xlink:title=" ">
<path fill="none" stroke="#63b8ff" d="M930.63,-136.35C859.97,-129.51 737.91,-116.16 634.38,-97 630.26,-96.24 626,-95.36 621.74,-94.43"/>
<polygon fill="#63b8ff" stroke="#63b8ff" points="622.59,-91.03 612.06,-92.19 621.01,-97.85 622.59,-91.03"/>
</a>
</g>
</g>
<!-- Node13 -->
<g id="Node000013" class="node">
<title>Node13</title>
<g id="a_Node000013"><a xlink:href="../../dd/db7/features__manager__compositor_8hpp.html" target="_top" xlink:title=" ">
<polygon fill="#fff0f0" stroke="red" points="759.25,-97 643.5,-97 643.5,-66.5 759.25,-66.5 759.25,-97"/>
<text text-anchor="start" x="651.5" y="-83.5" font-family="Helvetica,sans-Serif" font-size="10.00">core/features_manager</text>
<text text-anchor="middle" x="701.38" y="-72.25" font-family="Helvetica,sans-Serif" font-size="10.00">_compositor.hpp</text>
</a>
</g>
</g>
<!-- Node1&#45;&gt;Node13 -->
<g id="edge7_Node000001_Node000013" class="edge">
<title>Node1&#45;&gt;Node13</title>
<g id="a_edge7_Node000001_Node000013"><a xlink:title=" ">
<path fill="none" stroke="#63b8ff" d="M942.99,-132.5C900.51,-124.1 835.58,-111.15 770.89,-97.72"/>
<polygon fill="#63b8ff" stroke="#63b8ff" points="771.65,-94.3 761.15,-95.69 770.23,-101.16 771.65,-94.3"/>
</a>
</g>
</g>
<!-- Node17 -->
<g id="Node000017" class="node">
<title>Node17</title>
<g id="a_Node000017"><a xlink:href="../../df/dfe/iconfiguration_8hpp.html" target="_top" xlink:title=" ">
<polygon fill="#fff0f0" stroke="red" points="1139.75,-24.88 1027,-24.88 1027,-5.63 1139.75,-5.63 1139.75,-24.88"/>
<text text-anchor="middle" x="1083.38" y="-11.38" font-family="Helvetica,sans-Serif" font-size="10.00">core/iconfiguration.hpp</text>
</a>
</g>
</g>
<!-- Node1&#45;&gt;Node17 -->
<g id="edge8_Node000001_Node000017" class="edge">
<title>Node1&#45;&gt;Node17</title>
<g id="a_edge8_Node000001_Node000017"><a xlink:title=" ">
<path fill="none" stroke="#63b8ff" d="M981.82,-132.61C970.36,-117.78 951.33,-87.74 965.38,-66.5 977.66,-47.91 998.37,-36.18 1019.04,-28.78"/>
<polygon fill="#63b8ff" stroke="#63b8ff" points="1019.93,-32.17 1028.36,-25.76 1017.77,-25.51 1019.93,-32.17"/>
</a>
</g>
</g>
<!-- Node19 -->
<g id="Node000019" class="node">
<title>Node19</title>
<g id="a_Node000019"><a xlink:href="../../d6/d1f/icore__factory__accessor_8hpp.html" target="_top" xlink:title=" ">
<polygon fill="white" stroke="#666666" points="915,-30.5 821.75,-30.5 821.75,0 915,0 915,-30.5"/>
<text text-anchor="start" x="829.75" y="-17" font-family="Helvetica,sans-Serif" font-size="10.00">core/icore_factory</text>
<text text-anchor="middle" x="868.38" y="-5.75" font-family="Helvetica,sans-Serif" font-size="10.00">_accessor.hpp</text>
</a>
</g>
</g>
<!-- Node1&#45;&gt;Node19 -->
<g id="edge9_Node000001_Node000019" class="edge">
<title>Node1&#45;&gt;Node19</title>
<g id="a_edge9_Node000001_Node000019"><a xlink:title=" ">
<path fill="none" stroke="#63b8ff" d="M980.67,-132.61C961.91,-113.17 917.18,-66.82 890.18,-38.84"/>
<polygon fill="#63b8ff" stroke="#63b8ff" points="892.93,-36.65 883.47,-31.89 887.89,-41.51 892.93,-36.65"/>
</a>
</g>
</g>
<!-- Node20 -->
<g id="Node000020" class="node">
<title>Node20</title>
<g id="a_Node000020"><a xlink:href="../../d7/dfc/ilogger_8hpp.html" target="_top" xlink:title=" ">
<polygon fill="#fff0f0" stroke="red" points="1830.5,-24.88 1746.25,-24.88 1746.25,-5.63 1830.5,-5.63 1830.5,-24.88"/>
<text text-anchor="middle" x="1788.38" y="-11.38" font-family="Helvetica,sans-Serif" font-size="10.00">core/ilogger.hpp</text>
</a>
</g>
</g>
<!-- Node1&#45;&gt;Node20 -->
<g id="edge10_Node000001_Node000020" class="edge">
<title>Node1&#45;&gt;Node20</title>
<g id="a_edge10_Node000001_Node000020"><a xlink:title=" ">
<path fill="none" stroke="#63b8ff" d="M1047.82,-140.66C1232.34,-137.32 1791.9,-124.94 1818.38,-97 1835.11,-79.34 1818.47,-51.53 1804.11,-33.59"/>
<polygon fill="#63b8ff" stroke="#63b8ff" points="1807.12,-31.72 1797.97,-26.37 1801.78,-36.26 1807.12,-31.72"/>
</a>
</g>
</g>
<!-- Node23 -->
<g id="Node000023" class="node">
<title>Node23</title>
<g id="a_Node000023"><a xlink:href="../../d5/d80/itask__executor_8hpp.html" target="_top" xlink:title=" ">
<polygon fill="#fff0f0" stroke="red" points="1092.75,-91.38 974,-91.38 974,-72.12 1092.75,-72.12 1092.75,-91.38"/>
<text text-anchor="middle" x="1033.38" y="-77.88" font-family="Helvetica,sans-Serif" font-size="10.00">core/itask_executor.hpp</text>
</a>
</g>
</g>
<!-- Node1&#45;&gt;Node23 -->
<g id="edge11_Node000001_Node000023" class="edge">
<title>Node1&#45;&gt;Node23</title>
<g id="a_edge11_Node000001_Node000023"><a xlink:title=" ">
<path fill="none" stroke="#63b8ff" d="M996.06,-132.68C1002.32,-124.3 1011.88,-111.51 1019.76,-100.97"/>
<polygon fill="#63b8ff" stroke="#63b8ff" points="1022.54,-103.09 1025.72,-92.99 1016.93,-98.9 1022.54,-103.09"/>
</a>
</g>
</g>
<!-- Node26 -->
<g id="Node000026" class="node">
<title>Node26</title>
<g id="a_Node000026"><a xlink:href="../../d4/d57/ilogger__factory_8hpp.html" target="_top" xlink:title=" ">
<polygon fill="#fff0f0" stroke="red" points="2135.75,-91.38 2017,-91.38 2017,-72.12 2135.75,-72.12 2135.75,-91.38"/>
<text text-anchor="middle" x="2076.38" y="-77.88" font-family="Helvetica,sans-Serif" font-size="10.00">core/ilogger_factory.hpp</text>
</a>
</g>
</g>
<!-- Node1&#45;&gt;Node26 -->
<g id="edge12_Node000001_Node000026" class="edge">
<title>Node1&#45;&gt;Node26</title>
<g id="a_edge12_Node000001_Node000026"><a xlink:title=" ">
<path fill="none" stroke="#63b8ff" d="M1047.81,-140.32C1235.31,-135.93 1820.49,-120.64 2008.38,-97 2014.51,-96.23 2020.91,-95.19 2027.23,-94.03"/>
<polygon fill="#63b8ff" stroke="#63b8ff" points="2027.81,-97.49 2036.95,-92.13 2026.46,-90.62 2027.81,-97.49"/>
</a>
</g>
</g>
<!-- Node27 -->
<g id="Node000027" class="node">
<title>Node27</title>
<g id="a_Node000027"><a xlink:href="../../de/d75/thumbnail__generator_8hpp.html" target="_top" xlink:title=" ">
<polygon fill="#fff0f0" stroke="red" points="1405.12,-91.38 1261.62,-91.38 1261.62,-72.12 1405.12,-72.12 1405.12,-91.38"/>
<text text-anchor="middle" x="1333.38" y="-77.88" font-family="Helvetica,sans-Serif" font-size="10.00">core/thumbnail_generator.hpp</text>
</a>
</g>
</g>
<!-- Node1&#45;&gt;Node27 -->
<g id="edge14_Node000001_Node000027" class="edge">
<title>Node1&#45;&gt;Node27</title>
<g id="a_edge14_Node000001_Node000027"><a xlink:title=" ">
<path fill="none" stroke="#63b8ff" d="M1044.01,-132.54C1097.41,-123.62 1181.01,-109.56 1253.38,-97 1259.28,-95.97 1265.43,-94.9 1271.58,-93.81"/>
<polygon fill="#63b8ff" stroke="#63b8ff" points="1271.87,-97.32 1281.11,-92.13 1270.65,-90.42 1271.87,-97.32"/>
</a>
</g>
</g>
<!-- Node40 -->
<g id="Node000040" class="node">
<title>Node40</title>
<g id="a_Node000040"><a xlink:href="../../d1/d85/filesystem_8hpp.html" target="_top" xlink:title=" ">
<polygon fill="#fff0f0" stroke="red" points="1535.38,-91.38 1423.38,-91.38 1423.38,-72.12 1535.38,-72.12 1535.38,-91.38"/>
<text text-anchor="middle" x="1479.38" y="-77.88" font-family="Helvetica,sans-Serif" font-size="10.00">system/filesystem.hpp</text>
</a>
</g>
</g>
<!-- Node1&#45;&gt;Node40 -->
<g id="edge15_Node000001_Node000040" class="edge">
<title>Node1&#45;&gt;Node40</title>
<g id="a_edge15_Node000001_Node000040"><a xlink:title=" ">
<path fill="none" stroke="#63b8ff" d="M1048.08,-137.54C1130.33,-131.34 1284.37,-118.01 1414.38,-97 1419.59,-96.16 1425.01,-95.16 1430.41,-94.09"/>
<polygon fill="#63b8ff" stroke="#63b8ff" points="1430.79,-97.59 1439.88,-92.13 1429.38,-90.73 1430.79,-97.59"/>
</a>
</g>
</g>
<!-- Node42 -->
<g id="Node000042" class="node">
<title>Node42</title>
<g id="a_Node000042"><a xlink:href="../../df/d50/mainwindow_8hpp.html" target="_top" xlink:title=" ">
<polygon fill="#fff0f0" stroke="red" points="1651.62,-91.38 1553.12,-91.38 1553.12,-72.12 1651.62,-72.12 1651.62,-91.38"/>
<text text-anchor="middle" x="1602.38" y="-77.88" font-family="Helvetica,sans-Serif" font-size="10.00">ui/mainwindow.hpp</text>
</a>
</g>
</g>
<!-- Node1&#45;&gt;Node42 -->
<g id="edge16_Node000001_Node000042" class="edge">
<title>Node1&#45;&gt;Node42</title>
<g id="a_edge16_Node000001_Node000042"><a xlink:title=" ">
<path fill="none" stroke="#63b8ff" d="M1048.08,-140C1149.76,-136.5 1364.98,-126.06 1544.38,-97 1548.98,-96.25 1553.76,-95.33 1558.51,-94.31"/>
<polygon fill="#63b8ff" stroke="#63b8ff" points="1558.99,-97.79 1567.96,-92.15 1557.43,-90.97 1558.99,-97.79"/>
</a>
</g>
</g>
<!-- Node106 -->
<g id="Node000106" class="node">
<title>Node106</title>
<g id="a_Node000106"><a xlink:href="../../df/dab/objects__accessor_8hpp.html" target="_top" xlink:title=" ">
<polygon fill="#fff0f0" stroke="red" points="879.88,-97 776.88,-97 776.88,-66.5 879.88,-66.5 879.88,-97"/>
<text text-anchor="start" x="784.88" y="-83.5" font-family="Helvetica,sans-Serif" font-size="10.00">quick_items/objects</text>
<text text-anchor="middle" x="828.38" y="-72.25" font-family="Helvetica,sans-Serif" font-size="10.00">_accessor.hpp</text>
</a>
</g>
</g>
<!-- Node1&#45;&gt;Node106 -->
<g id="edge17_Node000001_Node000106" class="edge">
<title>Node1&#45;&gt;Node106</title>
<g id="a_edge17_Node000001_Node000106"><a xlink:title=" ">
<path fill="none" stroke="#63b8ff" d="M964.57,-132.55C941.89,-124.26 907.64,-111.73 879.16,-101.32"/>
<polygon fill="#63b8ff" stroke="#63b8ff" points="880.57,-98.11 869.98,-97.96 878.17,-104.69 880.57,-98.11"/>
</a>
</g>
</g>
<!-- Node107 -->
<g id="Node000107" class="node">
<title>Node107</title>
<g id="a_Node000107"><a xlink:href="../../d9/dae/features__manager_8hpp.html" target="_top" xlink:title=" ">
<polygon fill="#fff0f0" stroke="red" points="1243.88,-91.38 1110.88,-91.38 1110.88,-72.12 1243.88,-72.12 1243.88,-91.38"/>
<text text-anchor="middle" x="1177.38" y="-77.88" font-family="Helvetica,sans-Serif" font-size="10.00">utils/features_manager.hpp</text>
</a>
</g>
</g>
<!-- Node1&#45;&gt;Node107 -->
<g id="edge19_Node000001_Node000107" class="edge">
<title>Node1&#45;&gt;Node107</title>
<g id="a_edge19_Node000001_Node000107"><a xlink:title=" ">
<path fill="none" stroke="#63b8ff" d="M1018.34,-132.55C1050.35,-122.53 1102.12,-106.32 1137.84,-95.13"/>
<polygon fill="#63b8ff" stroke="#63b8ff" points="1138.44,-98.61 1146.93,-92.28 1136.35,-91.93 1138.44,-98.61"/>
</a>
</g>
</g>
<!-- Node108 -->
<g id="Node000108" class="node">
<title>Node108</title>
<g id="a_Node000108"><a xlink:href="../../d8/d6a/thumbnails__cache_8hpp.html" target="_top" xlink:title=" ">
<polygon fill="#fff0f0" stroke="red" points="1999.25,-91.38 1865.5,-91.38 1865.5,-72.12 1999.25,-72.12 1999.25,-91.38"/>
<text text-anchor="middle" x="1932.38" y="-77.88" font-family="Helvetica,sans-Serif" font-size="10.00">utils/thumbnails_cache.hpp</text>
</a>
</g>
</g>
<!-- Node1&#45;&gt;Node108 -->
<g id="edge22_Node000001_Node000108" class="edge">
<title>Node1&#45;&gt;Node108</title>
<g id="a_edge22_Node000001_Node000108"><a xlink:title=" ">
<path fill="none" stroke="#63b8ff" d="M1048.11,-141.06C1187.79,-139.18 1550.6,-131.11 1851.38,-97 1859.09,-96.13 1867.18,-94.98 1875.14,-93.72"/>
<polygon fill="#63b8ff" stroke="#63b8ff" points="1875.47,-97.21 1884.76,-92.12 1874.32,-90.3 1875.47,-97.21"/>
</a>
</g>
</g>
<!-- Node111 -->
<g id="Node000111" class="node">
<title>Node111</title>
<g id="a_Node000111"><a xlink:href="../../dc/d5f/thumbnail__manager_8hpp.html" target="_top" xlink:title=" ">
<polygon fill="#fff0f0" stroke="red" points="1809.25,-91.38 1669.5,-91.38 1669.5,-72.12 1809.25,-72.12 1809.25,-91.38"/>
<text text-anchor="middle" x="1739.38" y="-77.88" font-family="Helvetica,sans-Serif" font-size="10.00">utils/thumbnail_manager.hpp</text>
</a>
</g>
</g>
<!-- Node1&#45;&gt;Node111 -->
<g id="edge23_Node000001_Node000111" class="edge">
<title>Node1&#45;&gt;Node111</title>
<g id="a_edge23_Node000001_Node000111"><a xlink:title=" ">
<path fill="none" stroke="#63b8ff" d="M1047.92,-139.94C1164.76,-136.08 1435,-124.73 1660.38,-97 1667.63,-96.11 1675.23,-94.98 1682.73,-93.76"/>
<polygon fill="#63b8ff" stroke="#63b8ff" points="1683.21,-97.22 1692.48,-92.09 1682.03,-90.32 1683.21,-97.22"/>
</a>
</g>
</g>
<!-- Node119 -->
<g id="Node000119" class="node">
<title>Node119</title>
<g id="a_Node000119"><a xlink:href="../../d7/d0e/qml__setup_8hpp.html" target="_top" xlink:title=" ">
<polygon fill="#fff0f0" stroke="red" points="2253.38,-91.38 2153.38,-91.38 2153.38,-72.12 2253.38,-72.12 2253.38,-91.38"/>
<text text-anchor="middle" x="2203.38" y="-77.88" font-family="Helvetica,sans-Serif" font-size="10.00">utils/qml_setup.hpp</text>
</a>
</g>
</g>
<!-- Node1&#45;&gt;Node119 -->
<g id="edge25_Node000001_Node000119" class="edge">
<title>Node1&#45;&gt;Node119</title>
<g id="a_edge25_Node000001_Node000119"><a xlink:title=" ">
<path fill="none" stroke="#63b8ff" d="M1048.01,-140.9C1251.9,-138.12 1929.21,-126.84 2144.38,-97 2149.38,-96.31 2154.59,-95.37 2159.74,-94.31"/>
<polygon fill="#63b8ff" stroke="#63b8ff" points="2160.36,-97.76 2169.35,-92.16 2158.83,-90.93 2160.36,-97.76"/>
</a>
</g>
</g>
<!-- Node26&#45;&gt;Node20 -->
<g id="edge13_Node000026_Node000020" class="edge">
<title>Node26&#45;&gt;Node20</title>
<g id="a_edge13_Node000026_Node000020"><a xlink:title=" ">
<path fill="none" stroke="#63b8ff" d="M2035.72,-71.65C1984.37,-60.15 1895.96,-40.34 1839.92,-27.79"/>
<polygon fill="#63b8ff" stroke="#63b8ff" points="1840.82,-24.41 1830.3,-25.64 1839.29,-31.24 1840.82,-24.41"/>
</a>
</g>
</g>
<!-- Node106&#45;&gt;Node19 -->
<g id="edge18_Node000106_Node000019" class="edge">
<title>Node106&#45;&gt;Node19</title>
<g id="a_edge18_Node000106_Node000019"><a xlink:title=" ">
<path fill="none" stroke="#63b8ff" d="M837.45,-66.11C842.16,-58.53 848.03,-49.06 853.38,-40.43"/>
<polygon fill="#63b8ff" stroke="#63b8ff" points="856.24,-42.46 858.54,-32.11 850.29,-38.77 856.24,-42.46"/>
</a>
</g>
</g>
<!-- Node107&#45;&gt;Node17 -->
<g id="edge20_Node000107_Node000017" class="edge">
<title>Node107&#45;&gt;Node17</title>
<g id="a_edge20_Node000107_Node000017"><a xlink:title=" ">
<path fill="none" stroke="#63b8ff" d="M1164.3,-71.78C1149.24,-61.44 1124.21,-44.27 1105.97,-31.75"/>
<polygon fill="#63b8ff" stroke="#63b8ff" points="1108.11,-28.98 1097.89,-26.21 1104.15,-34.75 1108.11,-28.98"/>
</a>
</g>
</g>
<!-- Node107&#45;&gt;Node20 -->
<g id="edge21_Node000107_Node000020" class="edge">
<title>Node107&#45;&gt;Node20</title>
<g id="a_edge21_Node000107_Node000020"><a xlink:title=" ">
<path fill="none" stroke="#63b8ff" d="M1221.28,-71.69C1231.46,-69.79 1242.27,-67.93 1252.38,-66.5 1428,-41.64 1637.81,-26.02 1734.6,-19.61"/>
<polygon fill="#63b8ff" stroke="#63b8ff" points="1734.57,-23.12 1744.32,-18.97 1734.11,-16.13 1734.57,-23.12"/>
</a>
</g>
</g>
<!-- Node111&#45;&gt;Node20 -->
<g id="edge24_Node000111_Node000020" class="edge">
<title>Node111&#45;&gt;Node20</title>
<g id="a_edge24_Node000111_Node000020"><a xlink:title=" ">
<path fill="none" stroke="#63b8ff" d="M1746.19,-71.78C1753.58,-62.06 1765.56,-46.29 1774.86,-34.03"/>
<polygon fill="#63b8ff" stroke="#63b8ff" points="1777.44,-36.43 1780.7,-26.35 1771.87,-32.19 1777.44,-36.43"/>
</a>
</g>
</g>
</g>
</svg>

<g id="navigator" transform="translate(0 0)" fill="#404254">
  <rect fill="#f2f5e9" fill-opacity="0.5" stroke="#606060" stroke-width=".5" x="0" y="0" width="60" height="60"/>
  <use id="zoomplus" xlink:href="#zoomPlus" x="17" y="9" onmousedown="handleZoom(evt,'in')"/>
  <use id="zoomminus" xlink:href="#zoomMin" x="42" y="9" onmousedown="handleZoom(evt,'out')"/>
  <use id="reset" xlink:href="#resetDef" x="30" y="36" onmousedown="handleReset()"/>
   <use id="arrowup" xlink:href="#arrowUp" x="0" y="0" onmousedown="handlePan(0,-1)"/>
  <use id="arrowright" xlink:href="#arrowRight" x="0" y="0" onmousedown="handlePan(1,0)"/>
  <use id="arrowdown" xlink:href="#arrowDown" x="0" y="0" onmousedown="handlePan(0,1)"/>
  <use id="arrowleft" xlink:href="#arrowLeft" x="0" y="0" onmousedown="handlePan(-1,0)"/>
</g>
<svg viewBox="0 0 15 15" width="100%" height="30px" preserveAspectRatio="xMaxYMin meet">
 <g id="arrow_out" transform="scale(0.3 0.3)">
  <a xlink:href="gui_8cpp__incl_org.svg" target="_base">
   <rect id="button" ry="5" rx="5" y="6" x="6" height="38" width="38"
        fill="#f2f5e9" fill-opacity="0.5" stroke="#606060" stroke-width="1.0"/>
   <path id="arrow"
     d="M 11.500037,31.436501 C 11.940474,20.09759 22.043105,11.32322 32.158766,21.979434 L 37.068811,17.246167 C 37.068811,17.246167 37.088388,32 37.088388,32 L 22.160133,31.978069 C 22.160133,31.978069 26.997745,27.140456 26.997745,27.140456 C 18.528582,18.264221 13.291696,25.230495 11.500037,31.436501 z"
     style="fill:#404040;"/>
  </a>
 </g>
</svg>

<style type='text/css'>
<![CDATA[
[data-mouse-over-selected='false'] { opacity: 0.7; }
[data-mouse-over-selected='true']  { opacity: 1.0; }
]]>
</style>
<script type="application/ecmascript"><![CDATA[
document.addEventListener('DOMContentLoaded', (event) => {
  highlightEdges();
  highlightAdjacentNodes();
});
]]></script>
</svg>
