<?xml version="1.0" encoding="UTF-8" standalone="no"?>
<!DOCTYPE svg PUBLIC "-//W3C//DTD SVG 1.1//EN"
 "http://www.w3.org/Graphics/SVG/1.1/DTD/svg11.dtd">
<!-- Generated by graphviz version 7.0.5 (20221223.1930)
 -->
<!-- Title: src/database/project_info.hpp Pages: 1 -->
<svg width="1678pt" height="115pt"
 viewBox="0.00 0.00 1677.50 115.00" xmlns="http://www.w3.org/2000/svg" xmlns:xlink="http://www.w3.org/1999/xlink">
<g id="graph0" class="graph" transform="scale(1 1) rotate(0) translate(4 111)">
<title>src/database/project_info.hpp</title>
<!-- Node1 -->
<g id="node1" class="node">
<title>Node1</title>
<g id="a_node1"><a xlink:title=" ">
<polygon fill="#999999" stroke="#666666" points="913.5,-107 808.5,-107 808.5,-77 913.5,-77 913.5,-107"/>
<text text-anchor="start" x="816.5" y="-95" font-family="Helvetica,sans-Serif" font-size="10.00">src/database/project</text>
<text text-anchor="middle" x="861" y="-84" font-family="Helvetica,sans-Serif" font-size="10.00">_info.hpp</text>
</a>
</g>
</g>
<!-- Node2 -->
<g id="node2" class="node">
<title>Node2</title>
<g id="a_node2"><a xlink:href="../../d4/dc0/memory__backend_8cpp.html" target="_top" xlink:title=" ">
<polygon fill="white" stroke="#666666" points="134,-41 0,-41 0,0 134,0 134,-41"/>
<text text-anchor="start" x="8" y="-29" font-family="Helvetica,sans-Serif" font-size="10.00">src/database/backends</text>
<text text-anchor="start" x="8" y="-18" font-family="Helvetica,sans-Serif" font-size="10.00">/memory_backend/memory</text>
<text text-anchor="middle" x="67" y="-7" font-family="Helvetica,sans-Serif" font-size="10.00">_backend.cpp</text>
</a>
</g>
</g>
<!-- Node1&#45;&gt;Node2 -->
<g id="edge1" class="edge">
<title>Node1&#45;&gt;Node2</title>
<path fill="none" stroke="#63b8ff" d="M797.06,-90.43C671.08,-88.46 382.24,-79.69 143,-41 140.18,-40.54 137.3,-40.03 134.41,-39.47"/>
<polygon fill="#63b8ff" stroke="#63b8ff" points="796.81,-93.93 806.86,-90.57 796.91,-86.93 796.81,-93.93"/>
</g>
<!-- Node3 -->
<g id="node3" class="node">
<title>Node3</title>
<g id="a_node3"><a xlink:href="../../db/d74/mysql__backend_2backend_8cpp.html" target="_top" xlink:title=" ">
<polygon fill="white" stroke="#666666" points="302,-41 152,-41 152,0 302,0 302,-41"/>
<text text-anchor="start" x="160" y="-29" font-family="Helvetica,sans-Serif" font-size="10.00">src/database/backends</text>
<text text-anchor="start" x="160" y="-18" font-family="Helvetica,sans-Serif" font-size="10.00">/sql_backends/mysql_backend</text>
<text text-anchor="middle" x="227" y="-7" font-family="Helvetica,sans-Serif" font-size="10.00">/backend.cpp</text>
</a>
</g>
</g>
<!-- Node1&#45;&gt;Node3 -->
<g id="edge2" class="edge">
<title>Node1&#45;&gt;Node3</title>
<path fill="none" stroke="#63b8ff" d="M796.95,-88.04C694,-82.64 485.56,-69.06 311,-41 308.19,-40.55 305.34,-40.06 302.46,-39.53"/>
<polygon fill="#63b8ff" stroke="#63b8ff" points="796.7,-91.53 806.86,-88.55 797.06,-84.54 796.7,-91.53"/>
</g>
<!-- Node4 -->
<g id="node4" class="node">
<title>Node4</title>
<g id="a_node4"><a xlink:href="../../da/d74/sql__backend_8cpp.html" target="_top" xlink:title=" ">
<polygon fill="white" stroke="#666666" points="475.5,-35.5 320.5,-35.5 320.5,-5.5 475.5,-5.5 475.5,-35.5"/>
<text text-anchor="start" x="328.5" y="-23.5" font-family="Helvetica,sans-Serif" font-size="10.00">src/database/backends</text>
<text text-anchor="middle" x="398" y="-12.5" font-family="Helvetica,sans-Serif" font-size="10.00">/sql_backends/sql_backend.cpp</text>
</a>
</g>
</g>
<!-- Node1&#45;&gt;Node4 -->
<g id="edge3" class="edge">
<title>Node1&#45;&gt;Node4</title>
<path fill="none" stroke="#63b8ff" d="M797.03,-84.24C721.99,-75.9 593.99,-60.42 485,-41 476.62,-39.51 467.82,-37.75 459.18,-35.92"/>
<polygon fill="#63b8ff" stroke="#63b8ff" points="796.33,-87.68 806.65,-85.3 797.09,-80.72 796.33,-87.68"/>
</g>
<!-- Node5 -->
<g id="node5" class="node">
<title>Node5</title>
<g id="a_node5"><a xlink:href="../../d6/d95/sqlite__backend_2backend_8cpp.html" target="_top" xlink:title=" ">
<polygon fill="white" stroke="#666666" points="612,-41 494,-41 494,0 612,0 612,-41"/>
<text text-anchor="start" x="502" y="-29" font-family="Helvetica,sans-Serif" font-size="10.00">src/database/backends</text>
<text text-anchor="start" x="502" y="-18" font-family="Helvetica,sans-Serif" font-size="10.00">/sql_backends/sqlite</text>
<text text-anchor="middle" x="553" y="-7" font-family="Helvetica,sans-Serif" font-size="10.00">_backend/backend.cpp</text>
</a>
</g>
</g>
<!-- Node1&#45;&gt;Node5 -->
<g id="edge4" class="edge">
<title>Node1&#45;&gt;Node5</title>
<path fill="none" stroke="#63b8ff" d="M797.04,-79.01C748.52,-69.59 680.29,-55.66 621,-41 618.14,-40.29 615.22,-39.55 612.27,-38.78"/>
<polygon fill="#63b8ff" stroke="#63b8ff" points="796.34,-82.44 806.83,-80.9 797.67,-75.57 796.34,-82.44"/>
</g>
<!-- Node6 -->
<g id="node6" class="node">
<title>Node6</title>
<g id="a_node6"><a xlink:href="../../de/d97/async__database_8cpp.html" target="_top" xlink:title=" ">
<polygon fill="white" stroke="#666666" points="772,-35.5 630,-35.5 630,-5.5 772,-5.5 772,-35.5"/>
<text text-anchor="start" x="638" y="-23.5" font-family="Helvetica,sans-Serif" font-size="10.00">src/database/implementation</text>
<text text-anchor="middle" x="701" y="-12.5" font-family="Helvetica,sans-Serif" font-size="10.00">/async_database.cpp</text>
</a>
</g>
</g>
<!-- Node1&#45;&gt;Node6 -->
<g id="edge5" class="edge">
<title>Node1&#45;&gt;Node6</title>
<path fill="none" stroke="#63b8ff" d="M817.41,-72.07C791.15,-60.66 758.23,-46.36 734.11,-35.88"/>
<polygon fill="#63b8ff" stroke="#63b8ff" points="815.89,-75.22 826.46,-76 818.68,-68.8 815.89,-75.22"/>
</g>
<!-- Node7 -->
<g id="node7" class="node">
<title>Node7</title>
<g id="a_node7"><a xlink:href="../../d6/da5/database__builder_8cpp.html" target="_top" xlink:title=" ">
<polygon fill="white" stroke="#666666" points="932,-35.5 790,-35.5 790,-5.5 932,-5.5 932,-35.5"/>
<text text-anchor="start" x="798" y="-23.5" font-family="Helvetica,sans-Serif" font-size="10.00">src/database/implementation</text>
<text text-anchor="middle" x="861" y="-12.5" font-family="Helvetica,sans-Serif" font-size="10.00">/database_builder.cpp</text>
</a>
</g>
</g>
<!-- Node1&#45;&gt;Node7 -->
<g id="edge6" class="edge">
<title>Node1&#45;&gt;Node7</title>
<path fill="none" stroke="#63b8ff" d="M861,-65.26C861,-55.33 861,-44.36 861,-35.88"/>
<polygon fill="#63b8ff" stroke="#63b8ff" points="857.5,-65.09 861,-75.09 864.5,-65.09 857.5,-65.09"/>
</g>
<!-- Node8 -->
<g id="node8" class="node">
<title>Node8</title>
<g id="a_node8"><a xlink:href="../../df/d73/memory__backend__tests_8cpp.html" target="_top" xlink:title=" ">
<polygon fill="white" stroke="#666666" points="1091.5,-35.5 950.5,-35.5 950.5,-5.5 1091.5,-5.5 1091.5,-35.5"/>
<text text-anchor="start" x="958.5" y="-23.5" font-family="Helvetica,sans-Serif" font-size="10.00">src/database/unit_tests</text>
<text text-anchor="middle" x="1021" y="-12.5" font-family="Helvetica,sans-Serif" font-size="10.00">/memory_backend_tests.cpp</text>
</a>
</g>
</g>
<!-- Node1&#45;&gt;Node8 -->
<g id="edge7" class="edge">
<title>Node1&#45;&gt;Node8</title>
<path fill="none" stroke="#63b8ff" d="M904.59,-72.07C930.85,-60.66 963.77,-46.36 987.89,-35.88"/>
<polygon fill="#63b8ff" stroke="#63b8ff" points="903.32,-68.8 895.54,-76 906.11,-75.22 903.32,-68.8"/>
</g>
<!-- Node9 -->
<g id="node9" class="node">
<title>Node9</title>
<g id="a_node9"><a xlink:href="../../dd/d3a/common_8hpp.html" target="_top" xlink:title=" ">
<polygon fill="#fff0f0" stroke="red" points="1248.5,-35.5 1109.5,-35.5 1109.5,-5.5 1248.5,-5.5 1248.5,-35.5"/>
<text text-anchor="start" x="1117.5" y="-23.5" font-family="Helvetica,sans-Serif" font-size="10.00">src/database/unit_tests</text>
<text text-anchor="middle" x="1179" y="-12.5" font-family="Helvetica,sans-Serif" font-size="10.00">_for_backends/common.hpp</text>
</a>
</g>
</g>
<!-- Node1&#45;&gt;Node9 -->
<g id="edge8" class="edge">
<title>Node1&#45;&gt;Node9</title>
<path fill="none" stroke="#63b8ff" d="M924.82,-78.42C973.27,-68.7 1041.47,-54.64 1101,-41 1107.94,-39.41 1115.21,-37.68 1122.4,-35.93"/>
<polygon fill="#63b8ff" stroke="#63b8ff" points="924.17,-74.98 915.05,-80.37 925.54,-81.84 924.17,-74.98"/>
</g>
<!-- Node21 -->
<g id="node10" class="node">
<title>Node21</title>
<g id="a_node10"><a xlink:href="../../db/d98/project__manager_8cpp.html" target="_top" xlink:title=" ">
<polygon fill="white" stroke="#666666" points="1421.5,-35.5 1266.5,-35.5 1266.5,-5.5 1421.5,-5.5 1421.5,-35.5"/>
<text text-anchor="start" x="1274.5" y="-23.5" font-family="Helvetica,sans-Serif" font-size="10.00">src/project_utils/implementation</text>
<text text-anchor="middle" x="1344" y="-12.5" font-family="Helvetica,sans-Serif" font-size="10.00">/project_manager.cpp</text>
</a>
</g>
</g>
<!-- Node1&#45;&gt;Node21 -->
<g id="edge9" class="edge">
<title>Node1&#45;&gt;Node21</title>
<path fill="none" stroke="#63b8ff" d="M925.08,-84.88C1003.8,-76.91 1141.27,-61.53 1258,-41 1266.29,-39.54 1274.99,-37.81 1283.54,-35.99"/>
<polygon fill="#63b8ff" stroke="#63b8ff" points="925.01,-81.37 915.41,-85.85 925.71,-88.33 925.01,-81.37"/>
</g>
<!-- Node22 -->
<g id="node11" class="node">
<title>Node22</title>
<g id="a_node11"><a xlink:href="../../d4/dbd/mock__backend_8hpp.html" target="_top" xlink:title=" ">
<polygon fill="#fff0f0" stroke="red" points="1544,-35.5 1440,-35.5 1440,-5.5 1544,-5.5 1544,-35.5"/>
<text text-anchor="start" x="1448" y="-23.5" font-family="Helvetica,sans-Serif" font-size="10.00">src/unit_tests_utils</text>
<text text-anchor="middle" x="1492" y="-12.5" font-family="Helvetica,sans-Serif" font-size="10.00">/mock_backend.hpp</text>
</a>
</g>
</g>
<!-- Node1&#45;&gt;Node22 -->
<g id="edge10" class="edge">
<title>Node1&#45;&gt;Node22</title>
<path fill="none" stroke="#63b8ff" d="M925.28,-89.99C1031.54,-87.29 1250.07,-77.39 1431,-41 1437.54,-39.68 1444.37,-37.91 1450.98,-35.98"/>
<polygon fill="#63b8ff" stroke="#63b8ff" points="925.24,-86.49 915.33,-90.23 925.41,-93.49 925.24,-86.49"/>
</g>
<!-- Node28 -->
<g id="node12" class="node">
<title>Node28</title>
<g id="a_node12"><a xlink:href="../../d3/d62/mock__database_8hpp.html" target="_top" xlink:title=" ">
<polygon fill="#fff0f0" stroke="red" points="1669.5,-35.5 1562.5,-35.5 1562.5,-5.5 1669.5,-5.5 1669.5,-35.5"/>
<text text-anchor="start" x="1570.5" y="-23.5" font-family="Helvetica,sans-Serif" font-size="10.00">src/unit_tests_utils</text>
<text text-anchor="middle" x="1616" y="-12.5" font-family="Helvetica,sans-Serif" font-size="10.00">/mock_database.hpp</text>
</a>
</g>
</g>
<!-- Node1&#45;&gt;Node28 -->
<g id="edge11" class="edge">
<title>Node1&#45;&gt;Node28</title>
<path fill="none" stroke="#63b8ff" d="M925.01,-91.22C1047.87,-90.58 1324.8,-83.98 1553,-41 1559.86,-39.71 1567.03,-37.92 1573.97,-35.96"/>
<polygon fill="#63b8ff" stroke="#63b8ff" points="925.11,-87.72 915.12,-91.26 925.14,-94.72 925.11,-87.72"/>
</g>
</g>
</svg>
