<?xml version="1.0" encoding="UTF-8" standalone="no"?>
<!DOCTYPE svg PUBLIC "-//W3C//DTD SVG 1.1//EN"
 "http://www.w3.org/Graphics/SVG/1.1/DTD/svg11.dtd">
<!-- Generated by graphviz version 12.2.0 (20241103.1931)
 -->
<!-- Title: src/database/project_info.hpp Pages: 1 -->
<!--zoomable 116 -->

<svg id="main" version="1.1" xmlns="http://www.w3.org/2000/svg" xmlns:xlink="http://www.w3.org/1999/xlink" xml:space="preserve" onload="init(evt)">

<style type="text/css"><![CDATA[
.node, .edge {opacity: 0.7;}
.node.selected, .edge.selected {opacity: 1;}
.edge:hover path { stroke: red; }
.edge:hover polygon { stroke: red; fill: red; }
]]></style>

<defs>
  <circle id="rim" cx="0" cy="0" r="7"/>
  <circle id="rim2" cx="0" cy="0" r="3.5"/>
  <g id="zoomPlus">
    <use xlink:href="#rim" fill="#404040"><set attributeName="fill" to="#808080" begin="zoomplus.mouseover" end="zoomplus.mouseout"/></use>
    <path d="M-4,0h8M0,-4v8" fill="none" stroke="white" stroke-width="1.5" pointer-events="none"/>
  </g>
  <g id="zoomMin">
    <use xlink:href="#rim" fill="#404040"><set attributeName="fill" to="#808080" begin="zoomminus.mouseover" end="zoomminus.mouseout"/></use>
    <path d="M-4,0h8" fill="none" stroke="white" stroke-width="1.5" pointer-events="none"/>
  </g>
  <g id="arrowUp" transform="translate(30 24)">
    <use xlink:href="#rim"/>
    <path pointer-events="none" fill="none" stroke="white" stroke-width="1.5" d="M0,-3.0v7 M-2.5,-0.5L0,-3.0L2.5,-0.5"/>
  </g>
  <g id="arrowRight" transform="rotate(90) translate(36 -43)">
    <use xlink:href="#rim"/>
    <path pointer-events="none" fill="none" stroke="white" stroke-width="1.5" d="M0,-3.0v7 M-2.5,-0.5L0,-3.0L2.5,-0.5"/>
  </g>
  <g id="arrowDown" transform="rotate(180) translate(-30 -48)">
    <use xlink:href="#rim"/>
    <path pointer-events="none" fill="none" stroke="white" stroke-width="1.5" d="M0,-3.0v7 M-2.5,-0.5L0,-3.0L2.5,-0.5"/>
  </g>
  <g id="arrowLeft" transform="rotate(270) translate(-36 17)">
    <use xlink:href="#rim"/>
    <path pointer-events="none" fill="none" stroke="white" stroke-width="1.5" d="M0,-3.0v7 M-2.5,-0.5L0,-3.0L2.5,-0.5"/>
  </g>
  <g id="resetDef">
    <use xlink:href="#rim2" fill="#404040"><set attributeName="fill" to="#808080" begin="reset.mouseover" end="reset.mouseout"/></use>
  </g>
</defs>
<script type="application/ecmascript">
var viewWidth = 1967;
var viewHeight = 116;
var sectionId = 'dynsection-0';
</script>
<script type="application/ecmascript" xlink:href="../../svg.min.js"/>
<svg id="graph" class="graph">
<g id="viewport">
<title>src/database/project_info.hpp</title>
<!-- Node1 -->
<g id="Node000001" class="node">
<title>Node1</title>
<g id="a_Node000001"><a xlink:title=" ">
<polygon fill="#999999" stroke="#666666" points="1048.75,-108.25 944.25,-108.25 944.25,-77.75 1048.75,-77.75 1048.75,-108.25"/>
<text text-anchor="start" x="952.25" y="-94.75" font-family="Helvetica,sans-Serif" font-size="10.00">src/database/project</text>
<text text-anchor="middle" x="996.5" y="-83.5" font-family="Helvetica,sans-Serif" font-size="10.00">_info.hpp</text>
</a>
</g>
</g>
<!-- Node2 -->
<g id="Node000002" class="node">
<title>Node2</title>
<g id="a_Node000002"><a xlink:href="../../d4/dc0/memory__backend_8cpp.html" target="_top" xlink:title=" ">
<polygon fill="white" stroke="#666666" points="133,-41.75 0,-41.75 0,0 133,0 133,-41.75"/>
<text text-anchor="start" x="8" y="-28.25" font-family="Helvetica,sans-Serif" font-size="10.00">src/database/backends</text>
<text text-anchor="start" x="8" y="-17" font-family="Helvetica,sans-Serif" font-size="10.00">/memory_backend/memory</text>
<text text-anchor="middle" x="66.5" y="-5.75" font-family="Helvetica,sans-Serif" font-size="10.00">_backend.cpp</text>
</a>
</g>
</g>
<!-- Node1&#45;&gt;Node2 -->
<g id="edge1_Node000001_Node000002" class="edge">
<title>Node1&#45;&gt;Node2</title>
<g id="a_edge1_Node000001_Node000002"><a xlink:title=" ">
<path fill="none" stroke="#63b8ff" d="M932.95,-92.59C790.37,-92.99 434.55,-88.7 141.5,-41.75 138.84,-41.32 136.14,-40.84 133.42,-40.32"/>
<polygon fill="#63b8ff" stroke="#63b8ff" points="932.56,-96.1 942.54,-92.56 932.53,-89.1 932.56,-96.1"/>
</a>
</g>
</g>
<!-- Node3 -->
<g id="Node000003" class="node">
<title>Node3</title>
<g id="a_Node000003"><a xlink:href="../../db/d74/mysql__backend_2backend_8cpp.html" target="_top" xlink:title=" ">
<polygon fill="white" stroke="#666666" points="300.25,-41.75 150.75,-41.75 150.75,0 300.25,0 300.25,-41.75"/>
<text text-anchor="start" x="158.75" y="-28.25" font-family="Helvetica,sans-Serif" font-size="10.00">src/database/backends</text>
<text text-anchor="start" x="158.75" y="-17" font-family="Helvetica,sans-Serif" font-size="10.00">/sql_backends/mysql_backend</text>
<text text-anchor="middle" x="225.5" y="-5.75" font-family="Helvetica,sans-Serif" font-size="10.00">/backend.cpp</text>
</a>
</g>
</g>
<!-- Node1&#45;&gt;Node3 -->
<g id="edge2_Node000001_Node000003" class="edge">
<title>Node1&#45;&gt;Node3</title>
<g id="a_edge2_Node000001_Node000003"><a xlink:title=" ">
<path fill="none" stroke="#63b8ff" d="M932.73,-90.72C810.94,-87.54 537.08,-76.77 309.5,-41.75 306.54,-41.29 303.53,-40.79 300.49,-40.24"/>
<polygon fill="#63b8ff" stroke="#63b8ff" points="932.44,-94.22 942.53,-90.97 932.62,-87.22 932.44,-94.22"/>
</a>
</g>
</g>
<!-- Node4 -->
<g id="Node000004" class="node">
<title>Node4</title>
<g id="a_Node000004"><a xlink:href="../../da/d74/sql__backend_8cpp.html" target="_top" xlink:title=" ">
<polygon fill="white" stroke="#666666" points="472.88,-36.12 318.12,-36.12 318.12,-5.62 472.88,-5.62 472.88,-36.12"/>
<text text-anchor="start" x="326.12" y="-22.62" font-family="Helvetica,sans-Serif" font-size="10.00">src/database/backends</text>
<text text-anchor="middle" x="395.5" y="-11.38" font-family="Helvetica,sans-Serif" font-size="10.00">/sql_backends/sql_backend.cpp</text>
</a>
</g>
</g>
<!-- Node1&#45;&gt;Node4 -->
<g id="edge3_Node000001_Node000004" class="edge">
<title>Node1&#45;&gt;Node4</title>
<g id="a_edge3_Node000001_Node000004"><a xlink:title=" ">
<path fill="none" stroke="#63b8ff" d="M932.5,-88.44C834.78,-82.39 642.73,-68.13 481.5,-41.75 472.73,-40.31 463.52,-38.51 454.52,-36.58"/>
<polygon fill="#63b8ff" stroke="#63b8ff" points="932.23,-91.93 942.43,-89.04 932.66,-84.94 932.23,-91.93"/>
</a>
</g>
</g>
<!-- Node5 -->
<g id="Node000005" class="node">
<title>Node5</title>
<g id="a_Node000005"><a xlink:href="../../d6/d95/sqlite__backend_2backend_8cpp.html" target="_top" xlink:title=" ">
<polygon fill="white" stroke="#666666" points="608.12,-41.75 490.88,-41.75 490.88,0 608.12,0 608.12,-41.75"/>
<text text-anchor="start" x="498.88" y="-28.25" font-family="Helvetica,sans-Serif" font-size="10.00">src/database/backends</text>
<text text-anchor="start" x="498.88" y="-17" font-family="Helvetica,sans-Serif" font-size="10.00">/sql_backends/sqlite</text>
<text text-anchor="middle" x="549.5" y="-5.75" font-family="Helvetica,sans-Serif" font-size="10.00">_backend/backend.cpp</text>
</a>
</g>
</g>
<!-- Node1&#45;&gt;Node5 -->
<g id="edge4_Node000001_Node000005" class="edge">
<title>Node1&#45;&gt;Node5</title>
<g id="a_edge4_Node000001_Node000005"><a xlink:title=" ">
<path fill="none" stroke="#63b8ff" d="M932.55,-86.63C856.61,-79.55 726.39,-65.16 616.5,-41.75 613.89,-41.19 611.23,-40.59 608.56,-39.94"/>
<polygon fill="#63b8ff" stroke="#63b8ff" points="932.02,-90.1 942.3,-87.53 932.66,-83.13 932.02,-90.1"/>
</a>
</g>
</g>
<!-- Node6 -->
<g id="Node000006" class="node">
<title>Node6</title>
<g id="a_Node000006"><a xlink:href="../../d1/dab/plugin_8hpp.html" target="_top" xlink:title=" ">
<polygon fill="#fff0f0" stroke="red" points="743.12,-41.75 625.88,-41.75 625.88,0 743.12,0 743.12,-41.75"/>
<text text-anchor="start" x="633.88" y="-28.25" font-family="Helvetica,sans-Serif" font-size="10.00">src/database/backends</text>
<text text-anchor="start" x="633.88" y="-17" font-family="Helvetica,sans-Serif" font-size="10.00">/sql_backends/sqlite</text>
<text text-anchor="middle" x="684.5" y="-5.75" font-family="Helvetica,sans-Serif" font-size="10.00">_backend/plugin.hpp</text>
</a>
</g>
</g>
<!-- Node1&#45;&gt;Node6 -->
<g id="edge5_Node000001_Node000006" class="edge">
<title>Node1&#45;&gt;Node6</title>
<g id="a_edge5_Node000001_Node000006"><a xlink:title=" ">
<path fill="none" stroke="#63b8ff" d="M932.71,-80.33C883.29,-70.94 813.24,-56.86 752.5,-41.75 749.52,-41.01 746.47,-40.22 743.39,-39.41"/>
<polygon fill="#63b8ff" stroke="#63b8ff" points="931.9,-83.74 942.38,-82.16 933.2,-76.86 931.9,-83.74"/>
</a>
</g>
</g>
<!-- Node8 -->
<g id="Node000008" class="node">
<title>Node8</title>
<g id="a_Node000008"><a xlink:href="../../db/d64/photo__fetch__benchmarks_8cpp.html" target="_top" xlink:title=" ">
<polygon fill="white" stroke="#666666" points="907.75,-36.12 761.25,-36.12 761.25,-5.62 907.75,-5.62 907.75,-36.12"/>
<text text-anchor="start" x="769.25" y="-22.62" font-family="Helvetica,sans-Serif" font-size="10.00">src/database/benchmarks</text>
<text text-anchor="middle" x="834.5" y="-11.38" font-family="Helvetica,sans-Serif" font-size="10.00">/photo_fetch_benchmarks.cpp</text>
</a>
</g>
</g>
<!-- Node1&#45;&gt;Node8 -->
<g id="edge6_Node000001_Node000008" class="edge">
<title>Node1&#45;&gt;Node8</title>
<g id="a_edge6_Node000001_Node000008"><a xlink:title=" ">
<path fill="none" stroke="#63b8ff" d="M952.04,-72.76C925.65,-61.33 892.71,-47.07 868.42,-36.56"/>
<polygon fill="#63b8ff" stroke="#63b8ff" points="950.58,-75.94 961.15,-76.7 953.36,-69.51 950.58,-75.94"/>
</a>
</g>
</g>
<!-- Node9 -->
<g id="Node000009" class="node">
<title>Node9</title>
<g id="a_Node000009"><a xlink:href="../../de/d97/async__database_8cpp.html" target="_top" xlink:title=" ">
<polygon fill="white" stroke="#666666" points="1067.12,-36.12 925.88,-36.12 925.88,-5.62 1067.12,-5.62 1067.12,-36.12"/>
<text text-anchor="start" x="933.88" y="-22.62" font-family="Helvetica,sans-Serif" font-size="10.00">src/database/implementation</text>
<text text-anchor="middle" x="996.5" y="-11.38" font-family="Helvetica,sans-Serif" font-size="10.00">/async_database.cpp</text>
</a>
</g>
</g>
<!-- Node1&#45;&gt;Node9 -->
<g id="edge7_Node000001_Node000009" class="edge">
<title>Node1&#45;&gt;Node9</title>
<g id="a_edge7_Node000001_Node000009"><a xlink:title=" ">
<path fill="none" stroke="#63b8ff" d="M996.5,-66.02C996.5,-56.01 996.5,-44.94 996.5,-36.39"/>
<polygon fill="#63b8ff" stroke="#63b8ff" points="993,-65.96 996.5,-75.96 1000,-65.96 993,-65.96"/>
</a>
</g>
</g>
<!-- Node10 -->
<g id="Node000010" class="node">
<title>Node10</title>
<g id="a_Node000010"><a xlink:href="../../d6/da5/database__builder_8cpp.html" target="_top" xlink:title=" ">
<polygon fill="white" stroke="#666666" points="1226.12,-36.12 1084.88,-36.12 1084.88,-5.62 1226.12,-5.62 1226.12,-36.12"/>
<text text-anchor="start" x="1092.88" y="-22.62" font-family="Helvetica,sans-Serif" font-size="10.00">src/database/implementation</text>
<text text-anchor="middle" x="1155.5" y="-11.38" font-family="Helvetica,sans-Serif" font-size="10.00">/database_builder.cpp</text>
</a>
</g>
</g>
<!-- Node1&#45;&gt;Node10 -->
<g id="edge8_Node000001_Node000010" class="edge">
<title>Node1&#45;&gt;Node10</title>
<g id="a_edge8_Node000001_Node000010"><a xlink:title=" ">
<path fill="none" stroke="#63b8ff" d="M1040.13,-72.76C1066.04,-61.33 1098.37,-47.07 1122.21,-36.56"/>
<polygon fill="#63b8ff" stroke="#63b8ff" points="1038.95,-69.45 1031.22,-76.69 1041.78,-75.86 1038.95,-69.45"/>
</a>
</g>
</g>
<!-- Node11 -->
<g id="Node000011" class="node">
<title>Node11</title>
<g id="a_Node000011"><a xlink:href="../../df/d73/memory__backend__tests_8cpp.html" target="_top" xlink:title=" ">
<polygon fill="white" stroke="#666666" points="1384.75,-36.12 1244.25,-36.12 1244.25,-5.62 1384.75,-5.62 1384.75,-36.12"/>
<text text-anchor="start" x="1252.25" y="-22.62" font-family="Helvetica,sans-Serif" font-size="10.00">src/database/unit_tests</text>
<text text-anchor="middle" x="1314.5" y="-11.38" font-family="Helvetica,sans-Serif" font-size="10.00">/memory_backend_tests.cpp</text>
</a>
</g>
</g>
<!-- Node1&#45;&gt;Node11 -->
<g id="edge9_Node000001_Node000011" class="edge">
<title>Node1&#45;&gt;Node11</title>
<g id="a_edge9_Node000001_Node000011"><a xlink:title=" ">
<path fill="none" stroke="#63b8ff" d="M1060.06,-79.34C1108.3,-69.57 1176.22,-55.43 1235.5,-41.75 1242.53,-40.13 1249.89,-38.36 1257.18,-36.58"/>
<polygon fill="#63b8ff" stroke="#63b8ff" points="1059.44,-75.9 1050.33,-81.31 1060.83,-82.76 1059.44,-75.9"/>
</a>
</g>
</g>
<!-- Node12 -->
<g id="Node000012" class="node">
<title>Node12</title>
<g id="a_Node000012"><a xlink:href="../../dd/d3a/common_8hpp.html" target="_top" xlink:title=" ">
<polygon fill="#fff0f0" stroke="red" points="1540.62,-36.12 1402.38,-36.12 1402.38,-5.62 1540.62,-5.62 1540.62,-36.12"/>
<text text-anchor="start" x="1410.38" y="-22.62" font-family="Helvetica,sans-Serif" font-size="10.00">src/database/unit_tests</text>
<text text-anchor="middle" x="1471.5" y="-11.38" font-family="Helvetica,sans-Serif" font-size="10.00">_for_backends/common.hpp</text>
</a>
</g>
</g>
<!-- Node1&#45;&gt;Node12 -->
<g id="edge10_Node000001_Node000012" class="edge">
<title>Node1&#45;&gt;Node12</title>
<g id="a_edge10_Node000001_Node000012"><a xlink:title=" ">
<path fill="none" stroke="#63b8ff" d="M1060.35,-86.37C1139.11,-78.87 1276.89,-63.9 1393.5,-41.75 1401.33,-40.26 1409.53,-38.45 1417.56,-36.54"/>
<polygon fill="#63b8ff" stroke="#63b8ff" points="1060.3,-82.86 1050.67,-87.28 1060.96,-89.83 1060.3,-82.86"/>
</a>
</g>
</g>
<!-- Node24 -->
<g id="Node000024" class="node">
<title>Node24</title>
<g id="a_Node000024"><a xlink:href="../../db/d98/project__manager_8cpp.html" target="_top" xlink:title=" ">
<polygon fill="white" stroke="#666666" points="1712.5,-36.12 1558.5,-36.12 1558.5,-5.62 1712.5,-5.62 1712.5,-36.12"/>
<text text-anchor="start" x="1566.5" y="-22.62" font-family="Helvetica,sans-Serif" font-size="10.00">src/project_utils/implementation</text>
<text text-anchor="middle" x="1635.5" y="-11.38" font-family="Helvetica,sans-Serif" font-size="10.00">/project_manager.cpp</text>
</a>
</g>
</g>
<!-- Node1&#45;&gt;Node24 -->
<g id="edge11_Node000001_Node000024" class="edge">
<title>Node1&#45;&gt;Node24</title>
<g id="a_edge11_Node000001_Node000024"><a xlink:title=" ">
<path fill="none" stroke="#63b8ff" d="M1060.49,-89.03C1163.86,-83.59 1373.75,-69.91 1549.5,-41.75 1558.43,-40.32 1567.81,-38.49 1576.96,-36.53"/>
<polygon fill="#63b8ff" stroke="#63b8ff" points="1060.34,-85.53 1050.53,-89.54 1060.7,-92.52 1060.34,-85.53"/>
</a>
</g>
</g>
<!-- Node25 -->
<g id="Node000025" class="node">
<title>Node25</title>
<g id="a_Node000025"><a xlink:href="../../d4/dbd/mock__backend_8hpp.html" target="_top" xlink:title=" ">
<polygon fill="#fff0f0" stroke="red" points="1834,-36.12 1731,-36.12 1731,-5.62 1834,-5.62 1834,-36.12"/>
<text text-anchor="start" x="1739" y="-22.62" font-family="Helvetica,sans-Serif" font-size="10.00">src/unit_tests_utils</text>
<text text-anchor="middle" x="1782.5" y="-11.38" font-family="Helvetica,sans-Serif" font-size="10.00">/mock_backend.hpp</text>
</a>
</g>
</g>
<!-- Node1&#45;&gt;Node25 -->
<g id="edge12_Node000001_Node000025" class="edge">
<title>Node1&#45;&gt;Node25</title>
<g id="a_edge12_Node000001_Node000025"><a xlink:title=" ">
<path fill="none" stroke="#63b8ff" d="M1060.35,-92.81C1187.47,-93.26 1480.7,-88.58 1721.5,-41.75 1728.28,-40.43 1735.35,-38.59 1742.18,-36.55"/>
<polygon fill="#63b8ff" stroke="#63b8ff" points="1060.47,-89.31 1050.45,-92.76 1060.43,-96.31 1060.47,-89.31"/>
</a>
</g>
</g>
<!-- Node31 -->
<g id="Node000031" class="node">
<title>Node31</title>
<g id="a_Node000031"><a xlink:href="../../d3/d62/mock__database_8hpp.html" target="_top" xlink:title=" ">
<polygon fill="#fff0f0" stroke="red" points="1958.5,-36.12 1852.5,-36.12 1852.5,-5.62 1958.5,-5.62 1958.5,-36.12"/>
<text text-anchor="start" x="1860.5" y="-22.62" font-family="Helvetica,sans-Serif" font-size="10.00">src/unit_tests_utils</text>
<text text-anchor="middle" x="1905.5" y="-11.38" font-family="Helvetica,sans-Serif" font-size="10.00">/mock_database.hpp</text>
</a>
</g>
</g>
<!-- Node1&#45;&gt;Node31 -->
<g id="edge13_Node000001_Node000031" class="edge">
<title>Node1&#45;&gt;Node31</title>
<g id="a_edge13_Node000001_Node000031"><a xlink:title=" ">
<path fill="none" stroke="#63b8ff" d="M1060.35,-90.29C1230.73,-85.38 1693.37,-69.8 1843.5,-41.75 1850.39,-40.46 1857.58,-38.63 1864.52,-36.6"/>
<polygon fill="#63b8ff" stroke="#63b8ff" points="1060.49,-86.78 1050.59,-90.56 1060.69,-93.78 1060.49,-86.78"/>
</a>
</g>
</g>
</g>
</svg>

<g id="navigator" transform="translate(0 0)" fill="#404254">
  <rect fill="#f2f5e9" fill-opacity="0.5" stroke="#606060" stroke-width=".5" x="0" y="0" width="60" height="60"/>
  <use id="zoomplus" xlink:href="#zoomPlus" x="17" y="9" onmousedown="handleZoom(evt,'in')"/>
  <use id="zoomminus" xlink:href="#zoomMin" x="42" y="9" onmousedown="handleZoom(evt,'out')"/>
  <use id="reset" xlink:href="#resetDef" x="30" y="36" onmousedown="handleReset()"/>
   <use id="arrowup" xlink:href="#arrowUp" x="0" y="0" onmousedown="handlePan(0,-1)"/>
  <use id="arrowright" xlink:href="#arrowRight" x="0" y="0" onmousedown="handlePan(1,0)"/>
  <use id="arrowdown" xlink:href="#arrowDown" x="0" y="0" onmousedown="handlePan(0,1)"/>
  <use id="arrowleft" xlink:href="#arrowLeft" x="0" y="0" onmousedown="handlePan(-1,0)"/>
</g>
<svg viewBox="0 0 15 15" width="100%" height="30px" preserveAspectRatio="xMaxYMin meet">
 <g id="arrow_out" transform="scale(0.3 0.3)">
  <a xlink:href="project__info_8hpp__dep__incl_org.svg" target="_base">
   <rect id="button" ry="5" rx="5" y="6" x="6" height="38" width="38"
        fill="#f2f5e9" fill-opacity="0.5" stroke="#606060" stroke-width="1.0"/>
   <path id="arrow"
     d="M 11.500037,31.436501 C 11.940474,20.09759 22.043105,11.32322 32.158766,21.979434 L 37.068811,17.246167 C 37.068811,17.246167 37.088388,32 37.088388,32 L 22.160133,31.978069 C 22.160133,31.978069 26.997745,27.140456 26.997745,27.140456 C 18.528582,18.264221 13.291696,25.230495 11.500037,31.436501 z"
     style="fill:#404040;"/>
  </a>
 </g>
</svg>

<style type='text/css'>
<![CDATA[
[data-mouse-over-selected='false'] { opacity: 0.7; }
[data-mouse-over-selected='true']  { opacity: 1.0; }
]]>
</style>
<script type="application/ecmascript"><![CDATA[
document.addEventListener('DOMContentLoaded', (event) => {
  highlightEdges();
  highlightAdjacentNodes();
});
]]></script>
</svg>
