<?xml version="1.0" encoding="UTF-8" standalone="no"?>
<!DOCTYPE svg PUBLIC "-//W3C//DTD SVG 1.1//EN"
 "http://www.w3.org/Graphics/SVG/1.1/DTD/svg11.dtd">
<!-- Generated by graphviz version 7.0.5 (20221223.1930)
 -->
<!-- Title: src/database/person_data.hpp Pages: 1 -->
<svg width="655pt" height="291pt"
 viewBox="0.00 0.00 654.77 291.00" xmlns="http://www.w3.org/2000/svg" xmlns:xlink="http://www.w3.org/1999/xlink">
<g id="graph0" class="graph" transform="scale(1 1) rotate(0) translate(4 287)">
<title>src/database/person_data.hpp</title>
<!-- Node1 -->
<g id="node1" class="node">
<title>Node1</title>
<g id="a_node1"><a xlink:title=" ">
<polygon fill="#999999" stroke="#666666" points="306.77,-283 201.77,-283 201.77,-253 306.77,-253 306.77,-283"/>
<text text-anchor="start" x="209.77" y="-271" font-family="Helvetica,sans-Serif" font-size="10.00">src/database/person</text>
<text text-anchor="middle" x="254.27" y="-260" font-family="Helvetica,sans-Serif" font-size="10.00">_data.hpp</text>
</a>
</g>
</g>
<!-- Node2 -->
<g id="node2" class="node">
<title>Node2</title>
<g id="a_node2"><a xlink:href="../../d1/dd2/filter_8hpp.html" target="_top" xlink:title=" ">
<polygon fill="#fff0f0" stroke="red" points="131.27,-211.5 19.27,-211.5 19.27,-192.5 131.27,-192.5 131.27,-211.5"/>
<text text-anchor="middle" x="75.27" y="-199.5" font-family="Helvetica,sans-Serif" font-size="10.00">src/database/filter.hpp</text>
</a>
</g>
</g>
<!-- Node1&#45;&gt;Node2 -->
<g id="edge1" class="edge">
<title>Node1&#45;&gt;Node2</title>
<path fill="none" stroke="#63b8ff" d="M203.5,-248.85C169.81,-236.8 127.03,-221.51 100.4,-211.99"/>
<polygon fill="#63b8ff" stroke="#63b8ff" points="202.07,-252.06 212.67,-252.13 204.43,-245.47 202.07,-252.06"/>
</g>
<!-- Node8 -->
<g id="node3" class="node">
<title>Node8</title>
<g id="a_node3"><a xlink:href="../../da/d2a/ibackend_8hpp.html" target="_top" xlink:title=" ">
<polygon fill="#fff0f0" stroke="red" points="231.77,-145.5 98.77,-145.5 98.77,-126.5 231.77,-126.5 231.77,-145.5"/>
<text text-anchor="middle" x="165.27" y="-133.5" font-family="Helvetica,sans-Serif" font-size="10.00">src/database/ibackend.hpp</text>
</a>
</g>
</g>
<!-- Node1&#45;&gt;Node8 -->
<g id="edge6" class="edge">
<title>Node1&#45;&gt;Node8</title>
<path fill="none" stroke="#63b8ff" d="M211.48,-246.85C199.32,-239.14 187.23,-229.2 179.27,-217 164.63,-194.56 164.01,-161.36 164.66,-145.74"/>
<polygon fill="#63b8ff" stroke="#63b8ff" points="209.48,-249.74 219.87,-251.79 213.03,-243.7 209.48,-249.74"/>
</g>
<!-- Node38 -->
<g id="node4" class="node">
<title>Node38</title>
<g id="a_node4"><a xlink:href="../../d7/d2b/idatabase_8hpp.html" target="_top" xlink:title=" ">
<polygon fill="#fff0f0" stroke="red" points="186.27,-85 50.27,-85 50.27,-66 186.27,-66 186.27,-85"/>
<text text-anchor="middle" x="118.27" y="-73" font-family="Helvetica,sans-Serif" font-size="10.00">src/database/idatabase.hpp</text>
</a>
</g>
</g>
<!-- Node1&#45;&gt;Node38 -->
<g id="edge7" class="edge">
<title>Node1&#45;&gt;Node38</title>
<path fill="none" stroke="#63b8ff" d="M190.12,-262.83C125.6,-257.14 32.57,-244.34 10.27,-217 -29.51,-168.25 63.18,-107.73 102.08,-85.35"/>
<polygon fill="#63b8ff" stroke="#63b8ff" points="189.64,-266.3 199.9,-263.65 190.23,-259.33 189.64,-266.3"/>
</g>
<!-- Node94 -->
<g id="node5" class="node">
<title>Node94</title>
<g id="a_node5"><a xlink:href="../../da/db1/faces__model_8hpp.html" target="_top" xlink:title=" ">
<polygon fill="#fff0f0" stroke="red" points="568.27,-30 450.27,-30 450.27,0 568.27,0 568.27,-30"/>
<text text-anchor="start" x="458.27" y="-18" font-family="Helvetica,sans-Serif" font-size="10.00">src/gui/desktop/models</text>
<text text-anchor="middle" x="509.27" y="-7" font-family="Helvetica,sans-Serif" font-size="10.00">/faces_model.hpp</text>
</a>
</g>
</g>
<!-- Node1&#45;&gt;Node94 -->
<g id="edge13" class="edge">
<title>Node1&#45;&gt;Node94</title>
<path fill="none" stroke="#63b8ff" d="M318.4,-261.85C380.29,-255.45 467.83,-242.16 490.27,-217 538.08,-163.37 521.5,-66.74 513,-30.37"/>
<polygon fill="#63b8ff" stroke="#63b8ff" points="318.27,-258.34 308.67,-262.81 318.96,-265.31 318.27,-258.34"/>
</g>
<!-- Node122 -->
<g id="node6" class="node">
<title>Node122</title>
<g id="a_node6"><a xlink:href="../../d2/de5/person__data_8cpp.html" target="_top" xlink:title=" ">
<polygon fill="white" stroke="#666666" points="481.27,-217 339.27,-217 339.27,-187 481.27,-187 481.27,-217"/>
<text text-anchor="start" x="347.27" y="-205" font-family="Helvetica,sans-Serif" font-size="10.00">src/database/implementation</text>
<text text-anchor="middle" x="410.27" y="-194" font-family="Helvetica,sans-Serif" font-size="10.00">/person_data.cpp</text>
</a>
</g>
</g>
<!-- Node1&#45;&gt;Node122 -->
<g id="edge8" class="edge">
<title>Node1&#45;&gt;Node122</title>
<path fill="none" stroke="#63b8ff" d="M299.91,-248.27C323.91,-238.43 352.87,-226.55 375.1,-217.43"/>
<polygon fill="#63b8ff" stroke="#63b8ff" points="298.6,-245.03 290.68,-252.06 301.26,-251.51 298.6,-245.03"/>
</g>
<!-- Node123 -->
<g id="node7" class="node">
<title>Node123</title>
<g id="a_node7"><a xlink:href="../../de/d47/ipeople__information__accessor_8hpp.html" target="_top" xlink:title=" ">
<polygon fill="#fff0f0" stroke="red" points="320.77,-217 187.77,-217 187.77,-187 320.77,-187 320.77,-217"/>
<text text-anchor="start" x="195.77" y="-205" font-family="Helvetica,sans-Serif" font-size="10.00">src/database/ipeople</text>
<text text-anchor="middle" x="254.27" y="-194" font-family="Helvetica,sans-Serif" font-size="10.00">_information_accessor.hpp</text>
</a>
</g>
</g>
<!-- Node1&#45;&gt;Node123 -->
<g id="edge9" class="edge">
<title>Node1&#45;&gt;Node123</title>
<path fill="none" stroke="#63b8ff" d="M254.27,-241.39C254.27,-233.13 254.27,-224.28 254.27,-217.16"/>
<polygon fill="#63b8ff" stroke="#63b8ff" points="250.77,-241.28 254.27,-251.28 257.77,-241.28 250.77,-241.28"/>
</g>
<!-- Node128 -->
<g id="node8" class="node">
<title>Node128</title>
<g id="a_node8"><a xlink:href="../../dd/d86/face__recognition_8hpp.html" target="_top" xlink:title=" ">
<polygon fill="#fff0f0" stroke="red" points="646.77,-151 537.77,-151 537.77,-121 646.77,-121 646.77,-151"/>
<text text-anchor="start" x="545.77" y="-139" font-family="Helvetica,sans-Serif" font-size="10.00">src/face_recognition</text>
<text text-anchor="middle" x="592.27" y="-128" font-family="Helvetica,sans-Serif" font-size="10.00">/face_recognition.hpp</text>
</a>
</g>
</g>
<!-- Node1&#45;&gt;Node128 -->
<g id="edge11" class="edge">
<title>Node1&#45;&gt;Node128</title>
<path fill="none" stroke="#63b8ff" d="M318.52,-266.85C375.74,-264.08 459.97,-253.36 523.27,-217 550.94,-201.1 572.87,-169.86 584.08,-151.47"/>
<polygon fill="#63b8ff" stroke="#63b8ff" points="318.45,-263.35 308.6,-267.25 318.73,-270.34 318.45,-263.35"/>
</g>
<!-- Node2&#45;&gt;Node8 -->
<g id="edge2" class="edge">
<title>Node2&#45;&gt;Node8</title>
<path fill="none" stroke="#63b8ff" d="M96.73,-185.74C114.25,-173.28 138.4,-156.11 152.86,-145.82"/>
<polygon fill="#63b8ff" stroke="#63b8ff" points="95.13,-182.58 89.01,-191.22 99.19,-188.28 95.13,-182.58"/>
</g>
<!-- Node2&#45;&gt;Node38 -->
<g id="edge5" class="edge">
<title>Node2&#45;&gt;Node38</title>
<path fill="none" stroke="#63b8ff" d="M76.5,-181.27C78.05,-164.7 81.52,-140.65 89.27,-121 94.54,-107.62 104.16,-94.02 110.86,-85.44"/>
<polygon fill="#63b8ff" stroke="#63b8ff" points="73.04,-180.54 75.76,-190.78 80.02,-181.07 73.04,-180.54"/>
</g>
<!-- Node8&#45;&gt;Node38 -->
<g id="edge3" class="edge">
<title>Node8&#45;&gt;Node38</title>
<path fill="none" stroke="#63b8ff" d="M151.19,-117.48C142.62,-106.81 132.04,-93.65 125.23,-85.17"/>
<polygon fill="#63b8ff" stroke="#63b8ff" points="148.39,-119.58 157.38,-125.19 153.85,-115.2 148.39,-119.58"/>
</g>
<!-- Node38&#45;&gt;Node94 -->
<g id="edge4" class="edge">
<title>Node38&#45;&gt;Node94</title>
<path fill="none" stroke="#63b8ff" d="M189.22,-63.88C263.81,-52.72 379.83,-35.37 449.78,-24.9"/>
<polygon fill="#63b8ff" stroke="#63b8ff" points="188.94,-60.39 179.57,-65.33 189.98,-67.31 188.94,-60.39"/>
</g>
<!-- Node123&#45;&gt;Node8 -->
<g id="edge10" class="edge">
<title>Node123&#45;&gt;Node8</title>
<path fill="none" stroke="#63b8ff" d="M225.42,-180.26C209.23,-168.61 189.86,-154.69 177.56,-145.84"/>
<polygon fill="#63b8ff" stroke="#63b8ff" points="223.12,-182.92 233.28,-185.91 227.21,-177.23 223.12,-182.92"/>
</g>
<!-- Node128&#45;&gt;Node94 -->
<g id="edge12" class="edge">
<title>Node128&#45;&gt;Node94</title>
<path fill="none" stroke="#63b8ff" d="M576.03,-111.72C559.21,-87.61 533.46,-50.69 519.36,-30.47"/>
<polygon fill="#63b8ff" stroke="#63b8ff" points="572.96,-113.44 581.55,-119.64 578.7,-109.44 572.96,-113.44"/>
</g>
</g>
</svg>
