<?xml version="1.0" encoding="UTF-8" standalone="no"?>
<!DOCTYPE svg PUBLIC "-//W3C//DTD SVG 1.1//EN"
 "http://www.w3.org/Graphics/SVG/1.1/DTD/svg11.dtd">
<!-- Generated by graphviz version 9.0.0 (20230911.1827)
 -->
<!-- Title: TagValueModel::TagValueModel Pages: 1 -->
<svg width="498pt" height="125pt"
 viewBox="0.00 0.00 497.75 124.50" xmlns="http://www.w3.org/2000/svg" xmlns:xlink="http://www.w3.org/1999/xlink">
<g id="graph0" class="graph" transform="scale(1 1) rotate(0) translate(4 120.5)">
<title>TagValueModel::TagValueModel</title>
<!-- Node1 -->
<g id="Node000001" class="node">
<title>Node1</title>
<g id="a_Node000001"><a xlink:title=" ">
<polygon fill="#999999" stroke="#666666" points="155.5,-67.88 0,-67.88 0,-48.62 155.5,-48.62 155.5,-67.88"/>
<text text-anchor="middle" x="77.75" y="-54.38" font-family="Helvetica,sans-Serif" font-size="10.00">TagValueModel::TagValueModel</text>
</a>
</g>
</g>
<!-- Node2 -->
<g id="Node000002" class="node">
<title>Node2</title>
<g id="a_Node000002"><a xlink:href="../../df/da1/class_tag_value_model.html#a4aba96b9b5852a2ae1dff1f6e401686f" target="_top" xlink:title=" ">
<polygon fill="white" stroke="#666666" points="316.25,-116.5 191.5,-116.5 191.5,-86 316.25,-86 316.25,-116.5"/>
<text text-anchor="start" x="199.5" y="-103" font-family="Helvetica,sans-Serif" font-size="10.00">TagValueModel::collector</text>
<text text-anchor="middle" x="253.88" y="-91.75" font-family="Helvetica,sans-Serif" font-size="10.00">Notification</text>
</a>
</g>
</g>
<!-- Node1&#45;&gt;Node2 -->
<g id="edge1_Node000001_Node000002" class="edge">
<title>Node1&#45;&gt;Node2</title>
<g id="a_edge1_Node000001_Node000002"><a xlink:title=" ">
<path fill="none" stroke="#63b8ff" d="M119.57,-68.33C137.64,-72.79 159.44,-78.18 180.14,-83.29"/>
<polygon fill="#63b8ff" stroke="#63b8ff" points="179.14,-86.65 189.69,-85.65 180.82,-79.85 179.14,-86.65"/>
</a>
</g>
</g>
<!-- Node3 -->
<g id="Node000003" class="node">
<title>Node3</title>
<g id="a_Node000003"><a xlink:href="../../df/da1/class_tag_value_model.html#ac9383f3a6cd789be57bd1abf0895f696" target="_top" xlink:title=" ">
<polygon fill="#fff0f0" stroke="red" points="489.75,-88.88 352.25,-88.88 352.25,-69.62 489.75,-69.62 489.75,-88.88"/>
<text text-anchor="middle" x="421" y="-75.38" font-family="Helvetica,sans-Serif" font-size="10.00">TagValueModel::updateData</text>
</a>
</g>
</g>
<!-- Node1&#45;&gt;Node3 -->
<g id="edge4_Node000001_Node000003" class="edge">
<title>Node1&#45;&gt;Node3</title>
<g id="a_edge4_Node000001_Node000003"><a xlink:title=" ">
<path fill="none" stroke="#63b8ff" d="M155.76,-62.99C210.93,-66.38 285.02,-70.94 340.7,-74.37"/>
<polygon fill="#63b8ff" stroke="#63b8ff" points="340.23,-77.85 350.43,-74.97 340.66,-70.86 340.23,-77.85"/>
</a>
</g>
</g>
<!-- Node7 -->
<g id="Node000007" class="node">
<title>Node7</title>
<g id="a_Node000007"><a xlink:href="../../de/d63/struct_i_tag_info_collector.html#aa05b1f6a82ab6d7e4b0f0251d73bbe8a" target="_top" xlink:title=" ">
<polygon fill="white" stroke="#666666" points="308,-30.5 199.75,-30.5 199.75,0 308,0 308,-30.5"/>
<text text-anchor="start" x="207.75" y="-17" font-family="Helvetica,sans-Serif" font-size="10.00">ITagInfoCollector::</text>
<text text-anchor="middle" x="253.88" y="-5.75" font-family="Helvetica,sans-Serif" font-size="10.00">setOfValuesChanged</text>
</a>
</g>
</g>
<!-- Node1&#45;&gt;Node7 -->
<g id="edge3_Node000001_Node000007" class="edge">
<title>Node1&#45;&gt;Node7</title>
<g id="a_edge3_Node000001_Node000007"><a xlink:title=" ">
<path fill="none" stroke="#63b8ff" d="M119.57,-48.17C140.05,-43.11 165.33,-36.87 188.35,-31.19"/>
<polygon fill="#63b8ff" stroke="#63b8ff" points="189.1,-34.6 197.97,-28.81 187.42,-27.81 189.1,-34.6"/>
</a>
</g>
</g>
<!-- Node2&#45;&gt;Node3 -->
<g id="edge2_Node000002_Node000003" class="edge">
<title>Node2&#45;&gt;Node3</title>
<g id="a_edge2_Node000002_Node000003"><a xlink:title=" ">
<path fill="none" stroke="#63b8ff" d="M316.36,-93.06C324.21,-92.01 332.34,-90.93 340.43,-89.85"/>
<polygon fill="#63b8ff" stroke="#63b8ff" points="340.85,-93.33 350.3,-88.54 339.93,-86.39 340.85,-93.33"/>
</a>
</g>
</g>
</g>
</svg>
