<?xml version="1.0" encoding="UTF-8" standalone="no"?>
<!DOCTYPE svg PUBLIC "-//W3C//DTD SVG 1.1//EN"
 "http://www.w3.org/Graphics/SVG/1.1/DTD/svg11.dtd">
<!-- Generated by graphviz version 7.0.5 (20221223.1930)
 -->
<!-- Title: TagValueModel::TagValueModel Pages: 1 -->
<svg width="499pt" height="55pt"
 viewBox="0.00 0.00 499.00 54.50" xmlns="http://www.w3.org/2000/svg" xmlns:xlink="http://www.w3.org/1999/xlink">
<g id="graph0" class="graph" transform="scale(1 1) rotate(0) translate(4 50.5)">
<title>TagValueModel::TagValueModel</title>
<!-- Node1 -->
<g id="node1" class="node">
<title>Node1</title>
<g id="a_node1"><a xlink:title=" ">
<polygon fill="#999999" stroke="#666666" points="156,-19 0,-19 0,0 156,0 156,-19"/>
<text text-anchor="middle" x="78" y="-7" font-family="Helvetica,sans-Serif" font-size="10.00">TagValueModel::TagValueModel</text>
</a>
</g>
</g>
<!-- Node2 -->
<g id="node2" class="node">
<title>Node2</title>
<g id="a_node2"><a xlink:href="../../df/da1/class_tag_value_model.html#a4aba96b9b5852a2ae1dff1f6e401686f" target="_top" xlink:title=" ">
<polygon fill="white" stroke="#666666" points="317,-46.5 192,-46.5 192,-16.5 317,-16.5 317,-46.5"/>
<text text-anchor="start" x="200" y="-34.5" font-family="Helvetica,sans-Serif" font-size="10.00">TagValueModel::collector</text>
<text text-anchor="middle" x="254.5" y="-23.5" font-family="Helvetica,sans-Serif" font-size="10.00">Notification</text>
</a>
</g>
</g>
<!-- Node1&#45;&gt;Node2 -->
<g id="edge1" class="edge">
<title>Node1&#45;&gt;Node2</title>
<path fill="none" stroke="#63b8ff" d="M156.3,-19.25C164.36,-20.26 172.53,-21.29 180.53,-22.3"/>
<polygon fill="#63b8ff" stroke="#63b8ff" points="179.85,-25.74 190.21,-23.52 180.72,-18.8 179.85,-25.74"/>
</g>
<!-- Node3 -->
<g id="node3" class="node">
<title>Node3</title>
<g id="a_node3"><a xlink:href="../../df/da1/class_tag_value_model.html#ac9383f3a6cd789be57bd1abf0895f696" target="_top" xlink:title=" ">
<polygon fill="#fff0f0" stroke="red" points="491,-19 353,-19 353,0 491,0 491,-19"/>
<text text-anchor="middle" x="422" y="-7" font-family="Helvetica,sans-Serif" font-size="10.00">TagValueModel::updateData</text>
</a>
</g>
</g>
<!-- Node1&#45;&gt;Node3 -->
<g id="edge3" class="edge">
<title>Node1&#45;&gt;Node3</title>
<path fill="none" stroke="#63b8ff" d="M156.5,-7.95C168.39,-7.76 180.52,-7.6 192,-7.5 247.55,-7.01 261.45,-6.97 317,-7.5 324.95,-7.58 333.23,-7.69 341.51,-7.81"/>
<polygon fill="#63b8ff" stroke="#63b8ff" points="341.18,-11.31 351.24,-7.97 341.3,-4.31 341.18,-11.31"/>
</g>
<!-- Node2&#45;&gt;Node3 -->
<g id="edge2" class="edge">
<title>Node2&#45;&gt;Node3</title>
<path fill="none" stroke="#63b8ff" d="M317.13,-23.31C325,-22.26 333.14,-21.18 341.25,-20.1"/>
<polygon fill="#63b8ff" stroke="#63b8ff" points="341.7,-23.57 351.15,-18.79 340.77,-16.63 341.7,-23.57"/>
</g>
</g>
</svg>
