<?xml version="1.0" encoding="UTF-8" standalone="no"?>
<!DOCTYPE svg PUBLIC "-//W3C//DTD SVG 1.1//EN"
 "http://www.w3.org/Graphics/SVG/1.1/DTD/svg11.dtd">
<!-- Generated by graphviz version 12.2.0 (20241103.1931)
 -->
<!-- Title: ObservableExecutor::notifyTasksExecutedChanged Pages: 1 -->
<svg width="315pt" height="88pt"
 viewBox="0.00 0.00 314.50 87.50" xmlns="http://www.w3.org/2000/svg" xmlns:xlink="http://www.w3.org/1999/xlink">
<g id="graph0" class="graph" transform="scale(1 1) rotate(0) translate(4 83.5)">
<title>ObservableExecutor::notifyTasksExecutedChanged</title>
<!-- Node1 -->
<g id="Node000001" class="node">
<title>Node1</title>
<g id="a_Node000001"><a xlink:title=" ">
<polygon fill="#999999" stroke="#666666" points="306.5,-54.5 157.75,-54.5 157.75,-24 306.5,-24 306.5,-54.5"/>
<text text-anchor="start" x="165.75" y="-41" font-family="Helvetica,sans-Serif" font-size="10.00">ObservableExecutor</text>
<text text-anchor="middle" x="232.12" y="-29.75" font-family="Helvetica,sans-Serif" font-size="10.00">::notifyTasksExecutedChanged</text>
</a>
</g>
</g>
<!-- Node2 -->
<g id="Node000002" class="node">
<title>Node2</title>
<g id="a_Node000002"><a xlink:href="../../d5/d20/class_observable_executor.html#ac4484c7c17b00d84c7c940081088ca12" target="_top" xlink:title=" ">
<polygon fill="#fff0f0" stroke="red" points="112.38,-79.5 9.38,-79.5 9.38,-49 112.38,-49 112.38,-79.5"/>
<text text-anchor="start" x="17.38" y="-66" font-family="Helvetica,sans-Serif" font-size="10.00">ObservableExecutor</text>
<text text-anchor="middle" x="60.88" y="-54.75" font-family="Helvetica,sans-Serif" font-size="10.00">::taskExecuted</text>
</a>
</g>
</g>
<!-- Node1&#45;&gt;Node2 -->
<g id="edge1_Node000001_Node000002" class="edge">
<title>Node1&#45;&gt;Node2</title>
<g id="a_edge1_Node000001_Node000002"><a xlink:title=" ">
<path fill="none" stroke="#63b8ff" d="M146.32,-51.78C134.76,-53.48 123.21,-55.19 112.52,-56.77"/>
<polygon fill="#63b8ff" stroke="#63b8ff" points="146.5,-55.29 155.88,-50.36 145.48,-48.36 146.5,-55.29"/>
</a>
</g>
</g>
<!-- Node5 -->
<g id="Node000005" class="node">
<title>Node5</title>
<g id="a_Node000005"><a xlink:href="../../d5/d20/class_observable_executor.html#af1e7364f6d3adc7c9e681e1e8a7329a7" target="_top" xlink:title=" ">
<polygon fill="#fff0f0" stroke="red" points="121.75,-30.5 0,-30.5 0,0 121.75,0 121.75,-30.5"/>
<text text-anchor="start" x="8" y="-17" font-family="Helvetica,sans-Serif" font-size="10.00">ObservableExecutor</text>
<text text-anchor="middle" x="60.88" y="-5.75" font-family="Helvetica,sans-Serif" font-size="10.00">::taskMovedToExecution</text>
</a>
</g>
</g>
<!-- Node1&#45;&gt;Node5 -->
<g id="edge2_Node000001_Node000005" class="edge">
<title>Node1&#45;&gt;Node5</title>
<g id="a_edge2_Node000001_Node000005"><a xlink:title=" ">
<path fill="none" stroke="#63b8ff" d="M146.03,-27.18C137.97,-26.04 129.93,-24.9 122.18,-23.8"/>
<polygon fill="#63b8ff" stroke="#63b8ff" points="145.49,-30.64 155.88,-28.58 146.47,-23.71 145.49,-30.64"/>
</a>
</g>
</g>
</g>
</svg>
