<?xml version="1.0" encoding="UTF-8" standalone="no"?>
<!DOCTYPE svg PUBLIC "-//W3C//DTD SVG 1.1//EN"
 "http://www.w3.org/Graphics/SVG/1.1/DTD/svg11.dtd">
<!-- Generated by graphviz version 12.2.0 (20241103.1931)
 -->
<!-- Title: ObservableExecutor::awaitingTasksChanged Pages: 1 -->
<svg width="312pt" height="137pt"
 viewBox="0.00 0.00 312.25 136.50" xmlns="http://www.w3.org/2000/svg" xmlns:xlink="http://www.w3.org/1999/xlink">
<g id="graph0" class="graph" transform="scale(1 1) rotate(0) translate(4 132.5)">
<title>ObservableExecutor::awaitingTasksChanged</title>
<!-- Node1 -->
<g id="Node000001" class="node">
<title>Node1</title>
<g id="a_Node000001"><a xlink:title=" ">
<polygon fill="#999999" stroke="#666666" points="304.25,-79.5 182.5,-79.5 182.5,-49 304.25,-49 304.25,-79.5"/>
<text text-anchor="start" x="190.5" y="-66" font-family="Helvetica,sans-Serif" font-size="10.00">ObservableExecutor</text>
<text text-anchor="middle" x="243.38" y="-54.75" font-family="Helvetica,sans-Serif" font-size="10.00">::awaitingTasksChanged</text>
</a>
</g>
</g>
<!-- Node2 -->
<g id="Node000002" class="node">
<title>Node2</title>
<g id="a_Node000002"><a xlink:href="../../d2/dd2/class_observable_executor_model.html#a76308dd5126d67db058e2a400a415e44" target="_top" xlink:title=" ">
<polygon fill="#fff0f0" stroke="red" points="137.88,-128.5 8.62,-128.5 8.62,-98 137.88,-98 137.88,-128.5"/>
<text text-anchor="start" x="16.62" y="-115" font-family="Helvetica,sans-Serif" font-size="10.00">ObservableExecutorModel</text>
<text text-anchor="middle" x="73.25" y="-103.75" font-family="Helvetica,sans-Serif" font-size="10.00">::connectExecutor</text>
</a>
</g>
</g>
<!-- Node1&#45;&gt;Node2 -->
<g id="edge1_Node000001_Node000002" class="edge">
<title>Node1&#45;&gt;Node2</title>
<g id="a_edge1_Node000001_Node000002"><a xlink:title=" ">
<path fill="none" stroke="#63b8ff" d="M178.09,-82.98C161.65,-87.78 144.13,-92.88 128.26,-97.51"/>
<polygon fill="#63b8ff" stroke="#63b8ff" points="178.64,-86.47 187.26,-80.31 176.68,-79.75 178.64,-86.47"/>
</a>
</g>
</g>
<!-- Node4 -->
<g id="Node000004" class="node">
<title>Node4</title>
<g id="a_Node000004"><a xlink:href="../../d5/d20/class_observable_executor.html#a99028de29bd3b34b1d392fee940276b6" target="_top" xlink:title=" ">
<polygon fill="#fff0f0" stroke="red" points="146.5,-79.5 0,-79.5 0,-49 146.5,-49 146.5,-79.5"/>
<text text-anchor="start" x="8" y="-66" font-family="Helvetica,sans-Serif" font-size="10.00">ObservableExecutor</text>
<text text-anchor="middle" x="73.25" y="-54.75" font-family="Helvetica,sans-Serif" font-size="10.00">::notifyAwaitingTasksChanged</text>
</a>
</g>
</g>
<!-- Node1&#45;&gt;Node4 -->
<g id="edge2_Node000001_Node000004" class="edge">
<title>Node1&#45;&gt;Node4</title>
<g id="a_edge2_Node000001_Node000004"><a xlink:title=" ">
<path fill="none" stroke="#63b8ff" d="M170.76,-64.25C162.88,-64.25 154.86,-64.25 146.98,-64.25"/>
<polygon fill="#63b8ff" stroke="#63b8ff" points="170.64,-67.75 180.64,-64.25 170.64,-60.75 170.64,-67.75"/>
</a>
</g>
</g>
<!-- Node11 -->
<g id="Node000011" class="node">
<title>Node11</title>
<g id="a_Node000011"><a xlink:href="../../dd/d10/class_photos_analyzer_impl.html#a6e3e7a3cbef37ad4d8f2ad872d8c06a5" target="_top" xlink:title=" ">
<polygon fill="white" stroke="#666666" points="126.62,-30.5 19.88,-30.5 19.88,0 126.62,0 126.62,-30.5"/>
<text text-anchor="start" x="27.88" y="-17" font-family="Helvetica,sans-Serif" font-size="10.00">PhotosAnalyzerImpl</text>
<text text-anchor="middle" x="73.25" y="-5.75" font-family="Helvetica,sans-Serif" font-size="10.00">::PhotosAnalyzerImpl</text>
</a>
</g>
</g>
<!-- Node1&#45;&gt;Node11 -->
<g id="edge3_Node000001_Node000011" class="edge">
<title>Node1&#45;&gt;Node11</title>
<g id="a_edge3_Node000001_Node000011"><a xlink:title=" ">
<path fill="none" stroke="#63b8ff" d="M177.88,-45.45C161.1,-40.56 143.21,-35.35 127.11,-30.66"/>
<polygon fill="#63b8ff" stroke="#63b8ff" points="176.68,-48.75 187.26,-48.19 178.64,-42.03 176.68,-48.75"/>
</a>
</g>
</g>
</g>
</svg>
