<?xml version="1.0" encoding="UTF-8" standalone="no"?>
<!DOCTYPE svg PUBLIC "-//W3C//DTD SVG 1.1//EN"
 "http://www.w3.org/Graphics/SVG/1.1/DTD/svg11.dtd">
<!-- Generated by graphviz version 7.0.5 (20221223.1930)
 -->
<!-- Title: ObservableExecutor::newTaskInQueue Pages: 1 -->
<svg width="273pt" height="86pt"
 viewBox="0.00 0.00 273.00 86.00" xmlns="http://www.w3.org/2000/svg" xmlns:xlink="http://www.w3.org/1999/xlink">
<g id="graph0" class="graph" transform="scale(1 1) rotate(0) translate(4 82)">
<title>ObservableExecutor::newTaskInQueue</title>
<!-- Node1 -->
<g id="node1" class="node">
<title>Node1</title>
<g id="a_node1"><a xlink:title=" ">
<polygon fill="#999999" stroke="#666666" points="265,-54 161,-54 161,-24 265,-24 265,-54"/>
<text text-anchor="start" x="169" y="-42" font-family="Helvetica,sans-Serif" font-size="10.00">ObservableExecutor</text>
<text text-anchor="middle" x="213" y="-31" font-family="Helvetica,sans-Serif" font-size="10.00">::newTaskInQueue</text>
</a>
</g>
</g>
<!-- Node2 -->
<g id="node2" class="node">
<title>Node2</title>
<g id="a_node2"><a xlink:href="../../d0/dd8/class_observable_database_1_1_task.html#a4af8a9da9b537f0a19f79108ecb568b1" target="_top" xlink:title=" ">
<polygon fill="white" stroke="#666666" points="116,-78 9,-78 9,-48 116,-48 116,-78"/>
<text text-anchor="start" x="17" y="-66" font-family="Helvetica,sans-Serif" font-size="10.00">ObservableDatabase</text>
<text text-anchor="middle" x="62.5" y="-55" font-family="Helvetica,sans-Serif" font-size="10.00">::Task::Task</text>
</a>
</g>
</g>
<!-- Node1&#45;&gt;Node2 -->
<g id="edge1" class="edge">
<title>Node1&#45;&gt;Node2</title>
<path fill="none" stroke="#63b8ff" d="M149.59,-49.09C138.57,-50.87 127.19,-52.71 116.47,-54.44"/>
<polygon fill="#63b8ff" stroke="#63b8ff" points="150.09,-52.55 159.4,-47.5 148.97,-45.64 150.09,-52.55"/>
</g>
<!-- Node3 -->
<g id="node3" class="node">
<title>Node3</title>
<g id="a_node3"><a xlink:href="../../d0/d1f/class_observable_task_executor_1_1_task.html#af172a0f705e537bb689ca340fd459ef1" target="_top" xlink:title=" ">
<polygon fill="white" stroke="#666666" points="125,-30 0,-30 0,0 125,0 125,-30"/>
<text text-anchor="start" x="8" y="-18" font-family="Helvetica,sans-Serif" font-size="10.00">ObservableTaskExecutor</text>
<text text-anchor="middle" x="62.5" y="-7" font-family="Helvetica,sans-Serif" font-size="10.00">::Task::Task</text>
</a>
</g>
</g>
<!-- Node1&#45;&gt;Node3 -->
<g id="edge2" class="edge">
<title>Node1&#45;&gt;Node3</title>
<path fill="none" stroke="#63b8ff" d="M149.72,-28.93C141.7,-27.64 133.49,-26.31 125.47,-25.02"/>
<polygon fill="#63b8ff" stroke="#63b8ff" points="148.97,-32.36 159.4,-30.5 150.09,-25.45 148.97,-32.36"/>
</g>
</g>
</svg>
