<?xml version="1.0" encoding="UTF-8" standalone="no"?>
<!DOCTYPE svg PUBLIC "-//W3C//DTD SVG 1.1//EN"
 "http://www.w3.org/Graphics/SVG/1.1/DTD/svg11.dtd">
<!-- Generated by graphviz version 12.2.0 (20241103.1931)
 -->
<!-- Title: ObservableExecutor::taskMovedToExecution Pages: 1 -->
<svg width="315pt" height="125pt"
 viewBox="0.00 0.00 314.50 124.88" xmlns="http://www.w3.org/2000/svg" xmlns:xlink="http://www.w3.org/1999/xlink">
<g id="graph0" class="graph" transform="scale(1 1) rotate(0) translate(4 120.88)">
<title>ObservableExecutor::taskMovedToExecution</title>
<!-- Node1 -->
<g id="Node000001" class="node">
<title>Node1</title>
<g id="a_Node000001"><a xlink:title=" ">
<polygon fill="#999999" stroke="#666666" points="121.75,-79.5 0,-79.5 0,-49 121.75,-49 121.75,-79.5"/>
<text text-anchor="start" x="8" y="-66" font-family="Helvetica,sans-Serif" font-size="10.00">ObservableExecutor</text>
<text text-anchor="middle" x="60.88" y="-54.75" font-family="Helvetica,sans-Serif" font-size="10.00">::taskMovedToExecution</text>
</a>
</g>
</g>
<!-- Node2 -->
<g id="Node000002" class="node">
<title>Node2</title>
<g id="a_Node000002"><a xlink:href="../../d0/dd6/function__wrappers_8hpp.html#a5f90b58c659182d0119e425fd74cb344" target="_top" xlink:title=" ">
<polygon fill="white" stroke="#666666" points="270.5,-116.88 193.75,-116.88 193.75,-97.62 270.5,-97.62 270.5,-116.88"/>
<text text-anchor="middle" x="232.12" y="-103.38" font-family="Helvetica,sans-Serif" font-size="10.00">invokeMethod</text>
</a>
</g>
</g>
<!-- Node1&#45;&gt;Node2 -->
<g id="edge1_Node000001_Node000002" class="edge">
<title>Node1&#45;&gt;Node2</title>
<g id="a_edge1_Node000001_Node000002"><a xlink:title=" ">
<path fill="none" stroke="#63b8ff" d="M122.02,-79.53C141.79,-84.55 163.5,-90.07 182.31,-94.85"/>
<polygon fill="#63b8ff" stroke="#63b8ff" points="181.3,-98.2 191.85,-97.27 183.02,-91.42 181.3,-98.2"/>
</a>
</g>
</g>
<!-- Node3 -->
<g id="Node000003" class="node">
<title>Node3</title>
<g id="a_Node000003"><a xlink:href="../../d5/d20/class_observable_executor.html#a99028de29bd3b34b1d392fee940276b6" target="_top" xlink:title=" ">
<polygon fill="#fff0f0" stroke="red" points="305.38,-79.5 158.88,-79.5 158.88,-49 305.38,-49 305.38,-79.5"/>
<text text-anchor="start" x="166.88" y="-66" font-family="Helvetica,sans-Serif" font-size="10.00">ObservableExecutor</text>
<text text-anchor="middle" x="232.12" y="-54.75" font-family="Helvetica,sans-Serif" font-size="10.00">::notifyAwaitingTasksChanged</text>
</a>
</g>
</g>
<!-- Node1&#45;&gt;Node3 -->
<g id="edge2_Node000001_Node000003" class="edge">
<title>Node1&#45;&gt;Node3</title>
<g id="a_edge2_Node000001_Node000003"><a xlink:title=" ">
<path fill="none" stroke="#63b8ff" d="M122.02,-64.25C130.12,-64.25 138.55,-64.25 146.97,-64.25"/>
<polygon fill="#63b8ff" stroke="#63b8ff" points="146.91,-67.75 156.91,-64.25 146.91,-60.75 146.91,-67.75"/>
</a>
</g>
</g>
<!-- Node5 -->
<g id="Node000005" class="node">
<title>Node5</title>
<g id="a_Node000005"><a xlink:href="../../d5/d20/class_observable_executor.html#a75afea4f2948f983f26d886d0b0d9d11" target="_top" xlink:title=" ">
<polygon fill="#fff0f0" stroke="red" points="306.5,-30.5 157.75,-30.5 157.75,0 306.5,0 306.5,-30.5"/>
<text text-anchor="start" x="165.75" y="-17" font-family="Helvetica,sans-Serif" font-size="10.00">ObservableExecutor</text>
<text text-anchor="middle" x="232.12" y="-5.75" font-family="Helvetica,sans-Serif" font-size="10.00">::notifyTasksExecutedChanged</text>
</a>
</g>
</g>
<!-- Node1&#45;&gt;Node5 -->
<g id="edge3_Node000001_Node000005" class="edge">
<title>Node1&#45;&gt;Node5</title>
<g id="a_edge3_Node000001_Node000005"><a xlink:title=" ">
<path fill="none" stroke="#63b8ff" d="M115.89,-48.61C131.84,-43.99 149.47,-38.89 166.04,-34.09"/>
<polygon fill="#63b8ff" stroke="#63b8ff" points="166.66,-37.56 175.3,-31.41 164.72,-30.83 166.66,-37.56"/>
</a>
</g>
</g>
</g>
</svg>
