<?xml version="1.0" encoding="UTF-8" standalone="no"?>
<!DOCTYPE svg PUBLIC "-//W3C//DTD SVG 1.1//EN"
 "http://www.w3.org/Graphics/SVG/1.1/DTD/svg11.dtd">
<!-- Generated by graphviz version 12.2.0 (20241103.1931)
 -->
<!-- Title: CollectionScanner::performAnalysis Pages: 1 -->
<!--zoomable 456 -->

<svg id="main" version="1.1" xmlns="http://www.w3.org/2000/svg" xmlns:xlink="http://www.w3.org/1999/xlink" xml:space="preserve" onload="init(evt)">

<style type="text/css"><![CDATA[
.node, .edge {opacity: 0.7;}
.node.selected, .edge.selected {opacity: 1;}
.edge:hover path { stroke: red; }
.edge:hover polygon { stroke: red; fill: red; }
]]></style>

<defs>
  <circle id="rim" cx="0" cy="0" r="7"/>
  <circle id="rim2" cx="0" cy="0" r="3.5"/>
  <g id="zoomPlus">
    <use xlink:href="#rim" fill="#404040"><set attributeName="fill" to="#808080" begin="zoomplus.mouseover" end="zoomplus.mouseout"/></use>
    <path d="M-4,0h8M0,-4v8" fill="none" stroke="white" stroke-width="1.5" pointer-events="none"/>
  </g>
  <g id="zoomMin">
    <use xlink:href="#rim" fill="#404040"><set attributeName="fill" to="#808080" begin="zoomminus.mouseover" end="zoomminus.mouseout"/></use>
    <path d="M-4,0h8" fill="none" stroke="white" stroke-width="1.5" pointer-events="none"/>
  </g>
  <g id="arrowUp" transform="translate(30 24)">
    <use xlink:href="#rim"/>
    <path pointer-events="none" fill="none" stroke="white" stroke-width="1.5" d="M0,-3.0v7 M-2.5,-0.5L0,-3.0L2.5,-0.5"/>
  </g>
  <g id="arrowRight" transform="rotate(90) translate(36 -43)">
    <use xlink:href="#rim"/>
    <path pointer-events="none" fill="none" stroke="white" stroke-width="1.5" d="M0,-3.0v7 M-2.5,-0.5L0,-3.0L2.5,-0.5"/>
  </g>
  <g id="arrowDown" transform="rotate(180) translate(-30 -48)">
    <use xlink:href="#rim"/>
    <path pointer-events="none" fill="none" stroke="white" stroke-width="1.5" d="M0,-3.0v7 M-2.5,-0.5L0,-3.0L2.5,-0.5"/>
  </g>
  <g id="arrowLeft" transform="rotate(270) translate(-36 17)">
    <use xlink:href="#rim"/>
    <path pointer-events="none" fill="none" stroke="white" stroke-width="1.5" d="M0,-3.0v7 M-2.5,-0.5L0,-3.0L2.5,-0.5"/>
  </g>
  <g id="resetDef">
    <use xlink:href="#rim2" fill="#404040"><set attributeName="fill" to="#808080" begin="reset.mouseover" end="reset.mouseout"/></use>
  </g>
</defs>
<script type="application/ecmascript">
var viewWidth = 302;
var viewHeight = 456;
var sectionId = 'dynsection-13';
</script>
<script type="application/ecmascript" xlink:href="../../svg.min.js"/>
<svg id="graph" class="graph">
<g id="viewport">
<title>CollectionScanner::performAnalysis</title>
<!-- Node1 -->
<g id="Node000001" class="node">
<title>Node1</title>
<g id="a_Node000001"><a xlink:title=" ">
<polygon fill="#999999" stroke="#666666" points="99.25,-238.5 0,-238.5 0,-208 99.25,-208 99.25,-238.5"/>
<text text-anchor="start" x="8" y="-225" font-family="Helvetica,sans-Serif" font-size="10.00">CollectionScanner::</text>
<text text-anchor="middle" x="49.62" y="-213.75" font-family="Helvetica,sans-Serif" font-size="10.00">performAnalysis</text>
</a>
</g>
</g>
<!-- Node2 -->
<g id="Node000002" class="node">
<title>Node2</title>
<g id="a_Node000002"><a xlink:href="../../db/d6e/class_collection_scanner.html#a3558b9d54b1298bdce201f33a1ef4acc" target="_top" xlink:title=" ">
<polygon fill="#fff0f0" stroke="red" points="264.12,-447.5 164.88,-447.5 164.88,-417 264.12,-417 264.12,-447.5"/>
<text text-anchor="start" x="172.88" y="-434" font-family="Helvetica,sans-Serif" font-size="10.00">CollectionScanner::</text>
<text text-anchor="middle" x="214.5" y="-422.75" font-family="Helvetica,sans-Serif" font-size="10.00">addNotification</text>
</a>
</g>
</g>
<!-- Node1&#45;&gt;Node2 -->
<g id="edge1_Node000001_Node000002" class="edge">
<title>Node1&#45;&gt;Node2</title>
<g id="a_edge1_Node000001_Node000002"><a xlink:title=" ">
<path fill="none" stroke="#63b8ff" d="M53.39,-238.86C60.45,-274.12 82.46,-360.53 135.25,-407.25 140.85,-412.2 147.43,-416.18 154.36,-419.36"/>
<polygon fill="#63b8ff" stroke="#63b8ff" points="152.71,-422.47 163.29,-422.93 155.3,-415.97 152.71,-422.47"/>
</a>
</g>
</g>
<!-- Node4 -->
<g id="Node000004" class="node">
<title>Node4</title>
<g id="a_Node000004"><a xlink:href="../../d2/ddd/struct_database_1_1_i_backend.html#a2f8aca1a1b8a30d97cb01cd6a9a3a347" target="_top" xlink:title="Add photos to database.">
<polygon fill="white" stroke="#666666" points="266,-398.5 163,-398.5 163,-368 266,-368 266,-398.5"/>
<text text-anchor="start" x="171" y="-385" font-family="Helvetica,sans-Serif" font-size="10.00">Database::IBackend</text>
<text text-anchor="middle" x="214.5" y="-373.75" font-family="Helvetica,sans-Serif" font-size="10.00">::addPhotos</text>
</a>
</g>
</g>
<!-- Node1&#45;&gt;Node4 -->
<g id="edge2_Node000001_Node000004" class="edge">
<title>Node1&#45;&gt;Node4</title>
<g id="a_edge2_Node000001_Node000004"><a xlink:title=" ">
<path fill="none" stroke="#63b8ff" d="M56.15,-238.67C66.95,-266.65 93.51,-325.85 135.25,-358.25 140.37,-362.23 146.15,-365.58 152.18,-368.41"/>
<polygon fill="#63b8ff" stroke="#63b8ff" points="150.52,-371.51 161.1,-372.1 153.2,-365.04 150.52,-371.51"/>
</a>
</g>
</g>
<!-- Node5 -->
<g id="Node000005" class="node">
<title>Node5</title>
<g id="a_Node000005"><a xlink:href="../../d2/ddd/struct_database_1_1_i_backend.html#aa2a9300036c9a979d277bf5ba1a7acd5" target="_top" xlink:title="clear bits for provided flag">
<polygon fill="white" stroke="#666666" points="266,-349.5 163,-349.5 163,-319 266,-319 266,-349.5"/>
<text text-anchor="start" x="171" y="-336" font-family="Helvetica,sans-Serif" font-size="10.00">Database::IBackend</text>
<text text-anchor="middle" x="214.5" y="-324.75" font-family="Helvetica,sans-Serif" font-size="10.00">::clearBits</text>
</a>
</g>
</g>
<!-- Node1&#45;&gt;Node5 -->
<g id="edge3_Node000001_Node000005" class="edge">
<title>Node1&#45;&gt;Node5</title>
<g id="a_edge3_Node000001_Node000005"><a xlink:title=" ">
<path fill="none" stroke="#63b8ff" d="M62.07,-238.86C76.91,-258.04 104.56,-290.38 135.25,-309.25 140.49,-312.47 146.18,-315.32 152.03,-317.82"/>
<polygon fill="#63b8ff" stroke="#63b8ff" points="150.66,-321.04 161.25,-321.42 153.21,-314.52 150.66,-321.04"/>
</a>
</g>
</g>
<!-- Node6 -->
<g id="Node000006" class="node">
<title>Node6</title>
<g id="a_Node000006"><a xlink:href="../../d7/da9/struct_database_1_1_i_database.html#aa3790cf001a3f456414294820a5109b0" target="_top" xlink:title=" ">
<polygon fill="white" stroke="#666666" points="267.5,-300.5 161.5,-300.5 161.5,-270 267.5,-270 267.5,-300.5"/>
<text text-anchor="start" x="169.5" y="-287" font-family="Helvetica,sans-Serif" font-size="10.00">Database::IDatabase</text>
<text text-anchor="middle" x="214.5" y="-275.75" font-family="Helvetica,sans-Serif" font-size="10.00">::exec</text>
</a>
</g>
</g>
<!-- Node1&#45;&gt;Node6 -->
<g id="edge4_Node000001_Node000006" class="edge">
<title>Node1&#45;&gt;Node6</title>
<g id="a_edge4_Node000001_Node000006"><a xlink:title=" ">
<path fill="none" stroke="#63b8ff" d="M82.78,-238.83C98.42,-246.11 117.61,-254.62 135.25,-261.25 140.15,-263.09 145.25,-264.9 150.41,-266.65"/>
<polygon fill="#63b8ff" stroke="#63b8ff" points="148.97,-269.86 159.56,-269.66 151.16,-263.21 148.97,-269.86"/>
</a>
</g>
</g>
<!-- Node7 -->
<g id="Node000007" class="node">
<title>Node7</title>
<g id="a_Node000007"><a xlink:href="../../da/d69/struct_i_view_task.html#ac2eda57488f8b44efeb804089a6d4dfa" target="_top" xlink:title=" ">
<polygon fill="white" stroke="#666666" points="264.5,-251.88 164.5,-251.88 164.5,-232.62 264.5,-232.62 264.5,-251.88"/>
<text text-anchor="middle" x="214.5" y="-238.38" font-family="Helvetica,sans-Serif" font-size="10.00">IViewTask::finished</text>
</a>
</g>
</g>
<!-- Node1&#45;&gt;Node7 -->
<g id="edge5_Node000001_Node000007" class="edge">
<title>Node1&#45;&gt;Node7</title>
<g id="a_edge5_Node000001_Node000007"><a xlink:title=" ">
<path fill="none" stroke="#63b8ff" d="M99.49,-228.95C116.25,-230.91 135.21,-233.12 152.79,-235.17"/>
<polygon fill="#63b8ff" stroke="#63b8ff" points="152.26,-238.63 162.6,-236.31 153.07,-231.68 152.26,-238.63"/>
</a>
</g>
</g>
<!-- Node8 -->
<g id="Node000008" class="node">
<title>Node8</title>
<g id="a_Node000008"><a xlink:href="../../d4/d50/namespace_photo.html#acfa4c22bb2d186512596cbe74c290e7a" target="_top" xlink:title=" ">
<polygon fill="#fff0f0" stroke="red" points="252.12,-214.88 176.88,-214.88 176.88,-195.62 252.12,-195.62 252.12,-214.88"/>
<text text-anchor="middle" x="214.5" y="-201.38" font-family="Helvetica,sans-Serif" font-size="10.00">Photo::isLess</text>
</a>
</g>
</g>
<!-- Node1&#45;&gt;Node8 -->
<g id="edge6_Node000001_Node000008" class="edge">
<title>Node1&#45;&gt;Node8</title>
<g id="a_edge6_Node000001_Node000008"><a xlink:title=" ">
<path fill="none" stroke="#63b8ff" d="M99.49,-217.85C120.27,-215.55 144.43,-212.88 165.15,-210.59"/>
<polygon fill="#63b8ff" stroke="#63b8ff" points="165.52,-214.07 175.07,-209.5 164.75,-207.12 165.52,-214.07"/>
</a>
</g>
</g>
<!-- Node10 -->
<g id="Node000010" class="node">
<title>Node10</title>
<g id="a_Node000010"><a xlink:href="../../d2/ddd/struct_database_1_1_i_backend.html#aa5e1e6e8e5e37e1eea11d6d02dc54abb" target="_top" xlink:title="begin transaction">
<polygon fill="white" stroke="#666666" points="266,-177.5 163,-177.5 163,-147 266,-147 266,-177.5"/>
<text text-anchor="start" x="171" y="-164" font-family="Helvetica,sans-Serif" font-size="10.00">Database::IBackend</text>
<text text-anchor="middle" x="214.5" y="-152.75" font-family="Helvetica,sans-Serif" font-size="10.00">::openTransaction</text>
</a>
</g>
</g>
<!-- Node1&#45;&gt;Node10 -->
<g id="edge7_Node000001_Node000010" class="edge">
<title>Node1&#45;&gt;Node10</title>
<g id="a_edge7_Node000001_Node000010"><a xlink:title=" ">
<path fill="none" stroke="#63b8ff" d="M84.03,-207.59C99.45,-200.63 118.11,-192.6 135.25,-186.25 140.61,-184.26 146.22,-182.31 151.86,-180.43"/>
<polygon fill="#63b8ff" stroke="#63b8ff" points="152.84,-183.79 161.26,-177.37 150.67,-177.13 152.84,-183.79"/>
</a>
</g>
</g>
<!-- Node11 -->
<g id="Node000011" class="node">
<title>Node11</title>
<g id="a_Node000011"><a xlink:href="../../db/d6e/class_collection_scanner.html#a5b5dc06063abfae452a958139e046ac7" target="_top" xlink:title=" ">
<polygon fill="white" stroke="#666666" points="264.12,-128.5 164.88,-128.5 164.88,-98 264.12,-98 264.12,-128.5"/>
<text text-anchor="start" x="172.88" y="-115" font-family="Helvetica,sans-Serif" font-size="10.00">CollectionScanner::</text>
<text text-anchor="middle" x="214.5" y="-103.75" font-family="Helvetica,sans-Serif" font-size="10.00">scanFinished</text>
</a>
</g>
</g>
<!-- Node1&#45;&gt;Node11 -->
<g id="edge8_Node000001_Node000011" class="edge">
<title>Node1&#45;&gt;Node11</title>
<g id="a_edge8_Node000001_Node000011"><a xlink:title=" ">
<path fill="none" stroke="#63b8ff" d="M62.37,-207.5C77.31,-188.5 104.86,-156.81 135.25,-138.25 141.16,-134.64 147.64,-131.5 154.27,-128.78"/>
<polygon fill="#63b8ff" stroke="#63b8ff" points="155.19,-132.17 163.32,-125.38 152.73,-125.62 155.19,-132.17"/>
</a>
</g>
</g>
<!-- Node12 -->
<g id="Node000012" class="node">
<title>Node12</title>
<g id="a_Node000012"><a xlink:href="../../d2/ddd/struct_database_1_1_i_backend.html#a043cd4e3f933780157072a225cae861f" target="_top" xlink:title="set bits for provided flag">
<polygon fill="white" stroke="#666666" points="266,-79.5 163,-79.5 163,-49 266,-49 266,-79.5"/>
<text text-anchor="start" x="171" y="-66" font-family="Helvetica,sans-Serif" font-size="10.00">Database::IBackend</text>
<text text-anchor="middle" x="214.5" y="-54.75" font-family="Helvetica,sans-Serif" font-size="10.00">::setBits</text>
</a>
</g>
</g>
<!-- Node1&#45;&gt;Node12 -->
<g id="edge9_Node000001_Node000012" class="edge">
<title>Node1&#45;&gt;Node12</title>
<g id="a_edge9_Node000001_Node000012"><a xlink:title=" ">
<path fill="none" stroke="#63b8ff" d="M56.35,-207.5C67.31,-179.56 93.9,-121.24 135.25,-89.25 140.38,-85.28 146.16,-81.93 152.19,-79.11"/>
<polygon fill="#63b8ff" stroke="#63b8ff" points="153.21,-82.48 161.12,-75.42 150.54,-76.01 153.21,-82.48"/>
</a>
</g>
</g>
<!-- Node13 -->
<g id="Node000013" class="node">
<title>Node13</title>
<g id="a_Node000013"><a xlink:href="../../d2/dbd/namespace_database_1_1_common_general_flags.html#a3cd5ed198bec62318f5505339f7c2c30" target="_top" xlink:title=" ">
<polygon fill="white" stroke="#666666" points="293.75,-30.5 135.25,-30.5 135.25,0 293.75,0 293.75,-30.5"/>
<text text-anchor="start" x="143.25" y="-17" font-family="Helvetica,sans-Serif" font-size="10.00">Database::CommonGeneralFlags</text>
<text text-anchor="middle" x="214.5" y="-5.75" font-family="Helvetica,sans-Serif" font-size="10.00">::State</text>
</a>
</g>
</g>
<!-- Node1&#45;&gt;Node13 -->
<g id="edge10_Node000001_Node000013" class="edge">
<title>Node1&#45;&gt;Node13</title>
<g id="a_edge10_Node000001_Node000013"><a xlink:title=" ">
<path fill="none" stroke="#63b8ff" d="M53.42,-207.73C60.53,-172.65 82.65,-86.71 135.25,-40.25 136.52,-39.13 137.84,-38.06 139.2,-37.04"/>
<polygon fill="#63b8ff" stroke="#63b8ff" points="140.92,-40.09 147.47,-31.77 137.16,-34.19 140.92,-40.09"/>
</a>
</g>
</g>
</g>
</svg>

<g id="navigator" transform="translate(0 0)" fill="#404254">
  <rect fill="#f2f5e9" fill-opacity="0.5" stroke="#606060" stroke-width=".5" x="0" y="0" width="60" height="60"/>
  <use id="zoomplus" xlink:href="#zoomPlus" x="17" y="9" onmousedown="handleZoom(evt,'in')"/>
  <use id="zoomminus" xlink:href="#zoomMin" x="42" y="9" onmousedown="handleZoom(evt,'out')"/>
  <use id="reset" xlink:href="#resetDef" x="30" y="36" onmousedown="handleReset()"/>
   <use id="arrowup" xlink:href="#arrowUp" x="0" y="0" onmousedown="handlePan(0,-1)"/>
  <use id="arrowright" xlink:href="#arrowRight" x="0" y="0" onmousedown="handlePan(1,0)"/>
  <use id="arrowdown" xlink:href="#arrowDown" x="0" y="0" onmousedown="handlePan(0,1)"/>
  <use id="arrowleft" xlink:href="#arrowLeft" x="0" y="0" onmousedown="handlePan(-1,0)"/>
</g>
<svg viewBox="0 0 15 15" width="100%" height="30px" preserveAspectRatio="xMaxYMin meet">
 <g id="arrow_out" transform="scale(0.3 0.3)">
  <a xlink:href="class_collection_scanner_adbc3f49aec1203fad1160b5a41a2b0f2_cgraph_org.svg" target="_base">
   <rect id="button" ry="5" rx="5" y="6" x="6" height="38" width="38"
        fill="#f2f5e9" fill-opacity="0.5" stroke="#606060" stroke-width="1.0"/>
   <path id="arrow"
     d="M 11.500037,31.436501 C 11.940474,20.09759 22.043105,11.32322 32.158766,21.979434 L 37.068811,17.246167 C 37.068811,17.246167 37.088388,32 37.088388,32 L 22.160133,31.978069 C 22.160133,31.978069 26.997745,27.140456 26.997745,27.140456 C 18.528582,18.264221 13.291696,25.230495 11.500037,31.436501 z"
     style="fill:#404040;"/>
  </a>
 </g>
</svg>

<style type='text/css'>
<![CDATA[
[data-mouse-over-selected='false'] { opacity: 0.7; }
[data-mouse-over-selected='true']  { opacity: 1.0; }
]]>
</style>
<script type="application/ecmascript"><![CDATA[
document.addEventListener('DOMContentLoaded', (event) => {
  highlightEdges();
  highlightAdjacentNodes();
});
]]></script>
</svg>
