<?xml version="1.0" encoding="UTF-8" standalone="no"?>
<!DOCTYPE svg PUBLIC "-//W3C//DTD SVG 1.1//EN"
 "http://www.w3.org/Graphics/SVG/1.1/DTD/svg11.dtd">
<!-- Generated by graphviz version 7.0.5 (20221223.1930)
 -->
<!-- Title: src/system/filesystem.hpp Pages: 1 -->
<svg width="977pt" height="104pt"
 viewBox="0.00 0.00 977.00 104.00" xmlns="http://www.w3.org/2000/svg" xmlns:xlink="http://www.w3.org/1999/xlink">
<g id="graph0" class="graph" transform="scale(1 1) rotate(0) translate(4 100)">
<title>src/system/filesystem.hpp</title>
<!-- Node1 -->
<g id="node1" class="node">
<title>Node1</title>
<g id="a_node1"><a xlink:title=" ">
<polygon fill="#999999" stroke="#666666" points="531.5,-96 402.5,-96 402.5,-77 531.5,-77 531.5,-96"/>
<text text-anchor="middle" x="467" y="-84" font-family="Helvetica,sans-Serif" font-size="10.00">src/system/filesystem.hpp</text>
</a>
</g>
</g>
<!-- Node2 -->
<g id="node2" class="node">
<title>Node2</title>
<g id="a_node2"><a xlink:href="../../d4/d47/dlib__face__recognition__api_8cpp.html" target="_top" xlink:title=" ">
<polygon fill="white" stroke="#666666" points="116,-41 0,-41 0,0 116,0 116,-41"/>
<text text-anchor="start" x="8" y="-29" font-family="Helvetica,sans-Serif" font-size="10.00">src/face_recognition</text>
<text text-anchor="start" x="8" y="-18" font-family="Helvetica,sans-Serif" font-size="10.00">/dlib_wrapper/dlib_face</text>
<text text-anchor="middle" x="58" y="-7" font-family="Helvetica,sans-Serif" font-size="10.00">_recognition_api.cpp</text>
</a>
</g>
</g>
<!-- Node1&#45;&gt;Node2 -->
<g id="edge1" class="edge">
<title>Node1&#45;&gt;Node2</title>
<path fill="none" stroke="#63b8ff" d="M390.92,-78.99C321.24,-72.22 215.49,-59.94 125,-41 122.15,-40.4 119.25,-39.75 116.33,-39.05"/>
<polygon fill="#63b8ff" stroke="#63b8ff" points="390.42,-82.45 400.7,-79.92 391.08,-75.48 390.42,-82.45"/>
</g>
<!-- Node3 -->
<g id="node3" class="node">
<title>Node3</title>
<g id="a_node3"><a xlink:href="../../da/dec/face__recognition_8cpp.html" target="_top" xlink:title=" ">
<polygon fill="white" stroke="#666666" points="243.5,-35.5 134.5,-35.5 134.5,-5.5 243.5,-5.5 243.5,-35.5"/>
<text text-anchor="start" x="142.5" y="-23.5" font-family="Helvetica,sans-Serif" font-size="10.00">src/face_recognition</text>
<text text-anchor="middle" x="189" y="-12.5" font-family="Helvetica,sans-Serif" font-size="10.00">/face_recognition.cpp</text>
</a>
</g>
</g>
<!-- Node1&#45;&gt;Node3 -->
<g id="edge2" class="edge">
<title>Node1&#45;&gt;Node3</title>
<path fill="none" stroke="#63b8ff" d="M405.54,-74.41C362.35,-66.21 303.33,-54.22 252,-41 246.12,-39.49 239.98,-37.76 233.93,-35.98"/>
<polygon fill="#63b8ff" stroke="#63b8ff" points="404.76,-77.82 415.24,-76.23 406.06,-70.94 404.76,-77.82"/>
</g>
<!-- Node4 -->
<g id="node4" class="node">
<title>Node4</title>
<g id="a_node4"><a xlink:href="../../d4/d46/gui_8cpp.html" target="_top" xlink:title=" ">
<polygon fill="white" stroke="#666666" points="378.5,-30 261.5,-30 261.5,-11 378.5,-11 378.5,-30"/>
<text text-anchor="middle" x="320" y="-18" font-family="Helvetica,sans-Serif" font-size="10.00">src/gui/desktop/gui.cpp</text>
</a>
</g>
</g>
<!-- Node1&#45;&gt;Node4 -->
<g id="edge3" class="edge">
<title>Node1&#45;&gt;Node4</title>
<path fill="none" stroke="#63b8ff" d="M436.23,-72.1C407.38,-59.54 365.09,-41.13 340.27,-30.32"/>
<polygon fill="#63b8ff" stroke="#63b8ff" points="434.61,-75.21 445.17,-76 437.4,-68.8 434.61,-75.21"/>
</g>
<!-- Node5 -->
<g id="node5" class="node">
<title>Node5</title>
<g id="a_node5"><a xlink:href="../../dd/d2a/photo__properties__model_8cpp.html" target="_top" xlink:title=" ">
<polygon fill="white" stroke="#666666" points="537.5,-35.5 396.5,-35.5 396.5,-5.5 537.5,-5.5 537.5,-35.5"/>
<text text-anchor="start" x="404.5" y="-23.5" font-family="Helvetica,sans-Serif" font-size="10.00">src/gui/desktop/models</text>
<text text-anchor="middle" x="467" y="-12.5" font-family="Helvetica,sans-Serif" font-size="10.00">/photo_properties_model.cpp</text>
</a>
</g>
</g>
<!-- Node1&#45;&gt;Node5 -->
<g id="edge4" class="edge">
<title>Node1&#45;&gt;Node5</title>
<path fill="none" stroke="#63b8ff" d="M467,-65.28C467,-55.67 467,-44.42 467,-35.73"/>
<polygon fill="#63b8ff" stroke="#63b8ff" points="463.5,-65.09 467,-75.09 470.5,-65.09 463.5,-65.09"/>
</g>
<!-- Node6 -->
<g id="node6" class="node">
<title>Node6</title>
<g id="a_node6"><a xlink:href="../../d6/d41/plugin__loader_8cpp.html" target="_top" xlink:title=" ">
<polygon fill="white" stroke="#666666" points="688.5,-35.5 555.5,-35.5 555.5,-5.5 688.5,-5.5 688.5,-35.5"/>
<text text-anchor="start" x="563.5" y="-23.5" font-family="Helvetica,sans-Serif" font-size="10.00">src/plugins/implementation</text>
<text text-anchor="middle" x="622" y="-12.5" font-family="Helvetica,sans-Serif" font-size="10.00">/plugin_loader.cpp</text>
</a>
</g>
</g>
<!-- Node1&#45;&gt;Node6 -->
<g id="edge5" class="edge">
<title>Node1&#45;&gt;Node6</title>
<path fill="none" stroke="#63b8ff" d="M499.19,-72.21C524.81,-61.63 560.6,-46.85 586.94,-35.98"/>
<polygon fill="#63b8ff" stroke="#63b8ff" points="497.86,-68.97 489.95,-76.02 500.53,-75.44 497.86,-68.97"/>
</g>
<!-- Node7 -->
<g id="node7" class="node">
<title>Node7</title>
<g id="a_node7"><a xlink:href="../../d9/d8f/filesystem_8cpp.html" target="_top" xlink:title=" ">
<polygon fill="white" stroke="#666666" points="841,-35.5 707,-35.5 707,-5.5 841,-5.5 841,-35.5"/>
<text text-anchor="start" x="715" y="-23.5" font-family="Helvetica,sans-Serif" font-size="10.00">src/system/implementation</text>
<text text-anchor="middle" x="774" y="-12.5" font-family="Helvetica,sans-Serif" font-size="10.00">/filesystem.cpp</text>
</a>
</g>
</g>
<!-- Node1&#45;&gt;Node7 -->
<g id="edge6" class="edge">
<title>Node1&#45;&gt;Node7</title>
<path fill="none" stroke="#63b8ff" d="M529.24,-74.57C575.86,-66.13 641.12,-53.76 698,-41 704.91,-39.45 712.15,-37.72 719.3,-35.96"/>
<polygon fill="#63b8ff" stroke="#63b8ff" points="528.82,-71.09 519.6,-76.31 530.06,-77.98 528.82,-71.09"/>
</g>
<!-- Node8 -->
<g id="node8" class="node">
<title>Node8</title>
<g id="a_node8"><a xlink:href="../../de/d5c/common__path_8cpp.html" target="_top" xlink:title=" ">
<polygon fill="white" stroke="#666666" points="969,-35.5 859,-35.5 859,-5.5 969,-5.5 969,-35.5"/>
<text text-anchor="start" x="867" y="-23.5" font-family="Helvetica,sans-Serif" font-size="10.00">src/system/unit_tests</text>
<text text-anchor="middle" x="914" y="-12.5" font-family="Helvetica,sans-Serif" font-size="10.00">/common_path.cpp</text>
</a>
</g>
</g>
<!-- Node1&#45;&gt;Node8 -->
<g id="edge7" class="edge">
<title>Node1&#45;&gt;Node8</title>
<path fill="none" stroke="#63b8ff" d="M543.08,-80.72C620.83,-74.88 744.76,-62.96 850,-41 856.59,-39.62 863.49,-37.87 870.2,-35.98"/>
<polygon fill="#63b8ff" stroke="#63b8ff" points="543.17,-77.2 533.46,-81.42 543.69,-84.18 543.17,-77.2"/>
</g>
</g>
</svg>
