<?xml version="1.0" encoding="UTF-8" standalone="no"?>
<!DOCTYPE svg PUBLIC "-//W3C//DTD SVG 1.1//EN"
 "http://www.w3.org/Graphics/SVG/1.1/DTD/svg11.dtd">
<!-- Generated by graphviz version 12.2.0 (20241103.1931)
 -->
<!-- Title: src/database/photo_types.hpp Pages: 1 -->
<svg width="904pt" height="305pt"
 viewBox="0.00 0.00 903.62 304.50" xmlns="http://www.w3.org/2000/svg" xmlns:xlink="http://www.w3.org/1999/xlink">
<g id="graph0" class="graph" transform="scale(1 1) rotate(0) translate(4 300.5)">
<title>src/database/photo_types.hpp</title>
<!-- Node1 -->
<g id="Node000001" class="node">
<title>Node1</title>
<g id="a_Node000001"><a xlink:title=" ">
<polygon fill="#999999" stroke="#666666" points="485.38,-296.5 386.12,-296.5 386.12,-266 485.38,-266 485.38,-296.5"/>
<text text-anchor="start" x="394.12" y="-283" font-family="Helvetica,sans-Serif" font-size="10.00">src/database/photo</text>
<text text-anchor="middle" x="435.75" y="-271.75" font-family="Helvetica,sans-Serif" font-size="10.00">_types.hpp</text>
</a>
</g>
</g>
<!-- Node2 -->
<g id="Node000002" class="node">
<title>Node2</title>
<g id="a_Node000002"><a xlink:href="../../d9/d8f/igroup__operator_8hpp.html" target="_top" xlink:title=" ">
<polygon fill="#fff0f0" stroke="red" points="101.5,-230 0,-230 0,-199.5 101.5,-199.5 101.5,-230"/>
<text text-anchor="start" x="8" y="-216.5" font-family="Helvetica,sans-Serif" font-size="10.00">src/database/igroup</text>
<text text-anchor="middle" x="50.75" y="-205.25" font-family="Helvetica,sans-Serif" font-size="10.00">_operator.hpp</text>
</a>
</g>
</g>
<!-- Node1&#45;&gt;Node2 -->
<g id="edge1_Node000001_Node000002" class="edge">
<title>Node1&#45;&gt;Node2</title>
<g id="a_edge1_Node000001_Node000002"><a xlink:title=" ">
<path fill="none" stroke="#63b8ff" d="M374.52,-271.75C309.98,-262.53 205.43,-246.86 115.75,-230 111.21,-229.15 106.5,-228.21 101.79,-227.24"/>
<polygon fill="#63b8ff" stroke="#63b8ff" points="373.81,-275.19 384.21,-273.13 374.8,-268.25 373.81,-275.19"/>
</a>
</g>
</g>
<!-- Node40 -->
<g id="Node000040" class="node">
<title>Node40</title>
<g id="a_Node000040"><a xlink:href="../../d4/d3c/iphoto__operator_8hpp.html" target="_top" xlink:title=" ">
<polygon fill="#fff0f0" stroke="red" points="293.5,-30.5 192,-30.5 192,0 293.5,0 293.5,-30.5"/>
<text text-anchor="start" x="200" y="-17" font-family="Helvetica,sans-Serif" font-size="10.00">src/database/iphoto</text>
<text text-anchor="middle" x="242.75" y="-5.75" font-family="Helvetica,sans-Serif" font-size="10.00">_operator.hpp</text>
</a>
</g>
</g>
<!-- Node1&#45;&gt;Node40 -->
<g id="edge2_Node000001_Node000040" class="edge">
<title>Node1&#45;&gt;Node40</title>
<g id="a_edge2_Node000001_Node000040"><a xlink:title=" ">
<path fill="none" stroke="#63b8ff" d="M374.45,-278.43C298.89,-274.75 176.99,-263.62 148.75,-230 95.29,-166.37 187.73,-67.58 226.68,-30.74"/>
<polygon fill="#63b8ff" stroke="#63b8ff" points="374.04,-281.92 384.19,-278.87 374.36,-274.92 374.04,-281.92"/>
</a>
</g>
</g>
<!-- Node52 -->
<g id="Node000052" class="node">
<title>Node52</title>
<g id="a_Node000052"><a xlink:href="../../d1/d31/notifications__accumulator_8hpp.html" target="_top" xlink:title=" ">
<polygon fill="#fff0f0" stroke="red" points="285.25,-230 158.25,-230 158.25,-199.5 285.25,-199.5 285.25,-230"/>
<text text-anchor="start" x="166.25" y="-216.5" font-family="Helvetica,sans-Serif" font-size="10.00">src/database/notifications</text>
<text text-anchor="middle" x="221.75" y="-205.25" font-family="Helvetica,sans-Serif" font-size="10.00">_accumulator.hpp</text>
</a>
</g>
</g>
<!-- Node1&#45;&gt;Node52 -->
<g id="edge3_Node000001_Node000052" class="edge">
<title>Node1&#45;&gt;Node52</title>
<g id="a_edge3_Node000001_Node000052"><a xlink:title=" ">
<path fill="none" stroke="#63b8ff" d="M375.94,-262.22C342.63,-252.18 301.69,-239.84 270.37,-230.4"/>
<polygon fill="#63b8ff" stroke="#63b8ff" points="374.89,-265.56 385.47,-265.1 376.91,-258.86 374.89,-265.56"/>
</a>
</g>
</g>
<!-- Node57 -->
<g id="Node000057" class="node">
<title>Node57</title>
<g id="a_Node000057"><a xlink:href="../../d9/d0f/person__data_8hpp.html" target="_top" xlink:title=" ">
<polygon fill="#fff0f0" stroke="red" points="408,-230 303.5,-230 303.5,-199.5 408,-199.5 408,-230"/>
<text text-anchor="start" x="311.5" y="-216.5" font-family="Helvetica,sans-Serif" font-size="10.00">src/database/person</text>
<text text-anchor="middle" x="355.75" y="-205.25" font-family="Helvetica,sans-Serif" font-size="10.00">_data.hpp</text>
</a>
</g>
</g>
<!-- Node1&#45;&gt;Node57 -->
<g id="edge4_Node000001_Node000057" class="edge">
<title>Node1&#45;&gt;Node57</title>
<g id="a_edge4_Node000001_Node000057"><a xlink:title=" ">
<path fill="none" stroke="#63b8ff" d="M408.8,-258.52C397.28,-249.23 384.15,-238.65 373.83,-230.33"/>
<polygon fill="#63b8ff" stroke="#63b8ff" points="406.44,-261.11 416.42,-264.66 410.83,-255.66 406.44,-261.11"/>
</a>
</g>
</g>
<!-- Node147 -->
<g id="Node000147" class="node">
<title>Node147</title>
<g id="a_Node000147"><a xlink:href="../../d5/dab/photo__data__fields_8hpp.html" target="_top" xlink:title=" ">
<polygon fill="white" stroke="#666666" points="425.38,-163.5 326.12,-163.5 326.12,-133 425.38,-133 425.38,-163.5"/>
<text text-anchor="start" x="334.12" y="-150" font-family="Helvetica,sans-Serif" font-size="10.00">src/database/photo</text>
<text text-anchor="middle" x="375.75" y="-138.75" font-family="Helvetica,sans-Serif" font-size="10.00">_data_fields.hpp</text>
</a>
</g>
</g>
<!-- Node1&#45;&gt;Node147 -->
<g id="edge9_Node000001_Node000147" class="edge">
<title>Node1&#45;&gt;Node147</title>
<g id="a_edge9_Node000001_Node000147"><a xlink:title=" ">
<path fill="none" stroke="#63b8ff" d="M432.75,-254.65C430.11,-238.25 425.3,-216.86 416.75,-199.5 410.18,-186.17 399.49,-173.22 390.67,-163.81"/>
<polygon fill="#63b8ff" stroke="#63b8ff" points="429.22,-254.68 434.1,-264.08 436.15,-253.69 429.22,-254.68"/>
</a>
</g>
</g>
<!-- Node148 -->
<g id="Node000148" class="node">
<title>Node148</title>
<g id="a_Node000148"><a xlink:href="../../db/d39/photo__data_8hpp.html" target="_top" xlink:title=" ">
<polygon fill="#fff0f0" stroke="red" points="425.38,-97 326.12,-97 326.12,-66.5 425.38,-66.5 425.38,-97"/>
<text text-anchor="start" x="334.12" y="-83.5" font-family="Helvetica,sans-Serif" font-size="10.00">src/database/photo</text>
<text text-anchor="middle" x="375.75" y="-72.25" font-family="Helvetica,sans-Serif" font-size="10.00">_data.hpp</text>
</a>
</g>
</g>
<!-- Node1&#45;&gt;Node148 -->
<g id="edge8_Node000001_Node000148" class="edge">
<title>Node1&#45;&gt;Node148</title>
<g id="a_edge8_Node000001_Node000148"><a xlink:title=" ">
<path fill="none" stroke="#63b8ff" d="M441.81,-254.6C447.67,-224.04 453.21,-172.2 434.75,-133 427.76,-118.15 414.03,-106.04 401.57,-97.43"/>
<polygon fill="#63b8ff" stroke="#63b8ff" points="438.45,-253.58 439.83,-264.09 445.3,-255.02 438.45,-253.58"/>
</a>
</g>
</g>
<!-- Node169 -->
<g id="Node000169" class="node">
<title>Node169</title>
<g id="a_Node000169"><a xlink:href="../../d9/d3b/media__view__ctrl_8hpp.html" target="_top" xlink:title=" ">
<polygon fill="#fff0f0" stroke="red" points="638.12,-230 501.38,-230 501.38,-199.5 638.12,-199.5 638.12,-230"/>
<text text-anchor="start" x="509.38" y="-216.5" font-family="Helvetica,sans-Serif" font-size="10.00">src/gui/desktop/quick</text>
<text text-anchor="middle" x="569.75" y="-205.25" font-family="Helvetica,sans-Serif" font-size="10.00">_items/media_view_ctrl.hpp</text>
</a>
</g>
</g>
<!-- Node1&#45;&gt;Node169 -->
<g id="edge10_Node000001_Node000169" class="edge">
<title>Node1&#45;&gt;Node169</title>
<g id="a_edge10_Node000001_Node000169"><a xlink:title=" ">
<path fill="none" stroke="#63b8ff" d="M476.37,-260.7C496.67,-250.93 520.81,-239.31 539.46,-230.33"/>
<polygon fill="#63b8ff" stroke="#63b8ff" points="475.01,-257.47 467.52,-264.96 478.05,-263.77 475.01,-257.47"/>
</a>
</g>
</g>
<!-- Node170 -->
<g id="Node000170" class="node">
<title>Node170</title>
<g id="a_Node000170"><a xlink:href="../../d6/db9/ithumbnails__cache_8hpp.html" target="_top" xlink:title=" ">
<polygon fill="#fff0f0" stroke="red" points="773.75,-230 655.75,-230 655.75,-199.5 773.75,-199.5 773.75,-230"/>
<text text-anchor="start" x="663.75" y="-216.5" font-family="Helvetica,sans-Serif" font-size="10.00">src/gui/desktop/utils</text>
<text text-anchor="middle" x="714.75" y="-205.25" font-family="Helvetica,sans-Serif" font-size="10.00">/ithumbnails_cache.hpp</text>
</a>
</g>
</g>
<!-- Node1&#45;&gt;Node170 -->
<g id="edge11_Node000001_Node000170" class="edge">
<title>Node1&#45;&gt;Node170</title>
<g id="a_edge11_Node000001_Node000170"><a xlink:title=" ">
<path fill="none" stroke="#63b8ff" d="M496.6,-266.18C543.72,-255.29 608.63,-240.28 655.37,-229.48"/>
<polygon fill="#63b8ff" stroke="#63b8ff" points="496.06,-262.72 487.1,-268.38 497.64,-269.54 496.06,-262.72"/>
</a>
</g>
</g>
<!-- Node134 -->
<g id="Node000134" class="node">
<title>Node134</title>
<g id="a_Node000134"><a xlink:href="../../d9/d19/people__editor_8hpp.html" target="_top" xlink:title=" ">
<polygon fill="#fff0f0" stroke="red" points="895.62,-230 791.88,-230 791.88,-199.5 895.62,-199.5 895.62,-230"/>
<text text-anchor="start" x="799.88" y="-216.5" font-family="Helvetica,sans-Serif" font-size="10.00">src/gui/desktop/utils</text>
<text text-anchor="middle" x="843.75" y="-205.25" font-family="Helvetica,sans-Serif" font-size="10.00">/people_editor.hpp</text>
</a>
</g>
</g>
<!-- Node1&#45;&gt;Node134 -->
<g id="edge12_Node000001_Node000134" class="edge">
<title>Node1&#45;&gt;Node134</title>
<g id="a_edge12_Node000001_Node000134"><a xlink:title=" ">
<path fill="none" stroke="#63b8ff" d="M496.84,-273.01C566.36,-264.4 683.17,-248.81 782.75,-230 785.64,-229.46 788.59,-228.87 791.57,-228.25"/>
<polygon fill="#63b8ff" stroke="#63b8ff" points="496.68,-269.51 487.18,-274.2 497.53,-276.45 496.68,-269.51"/>
</a>
</g>
</g>
<!-- Node57&#45;&gt;Node147 -->
<g id="edge5_Node000057_Node000147" class="edge">
<title>Node57&#45;&gt;Node147</title>
<g id="a_edge5_Node000057_Node000147"><a xlink:title=" ">
<path fill="none" stroke="#63b8ff" d="M363.62,-188.38C366.2,-180.05 368.98,-171.08 371.23,-163.83"/>
<polygon fill="#63b8ff" stroke="#63b8ff" points="360.36,-187.08 360.74,-197.67 367.04,-189.15 360.36,-187.08"/>
</a>
</g>
</g>
<!-- Node147&#45;&gt;Node148 -->
<g id="edge6_Node000147_Node000148" class="edge">
<title>Node147&#45;&gt;Node148</title>
<g id="a_edge6_Node000147_Node000148"><a xlink:title=" ">
<path fill="none" stroke="#63b8ff" d="M375.75,-121.31C375.75,-113.14 375.75,-104.41 375.75,-97.33"/>
<polygon fill="#63b8ff" stroke="#63b8ff" points="372.25,-121.1 375.75,-131.1 379.25,-121.1 372.25,-121.1"/>
</a>
</g>
</g>
<!-- Node148&#45;&gt;Node40 -->
<g id="edge7_Node000148_Node000040" class="edge">
<title>Node148&#45;&gt;Node40</title>
<g id="a_edge7_Node000148_Node000040"><a xlink:title=" ">
<path fill="none" stroke="#63b8ff" d="M335.43,-61.2C315.28,-51.43 291.32,-39.81 272.81,-30.83"/>
<polygon fill="#63b8ff" stroke="#63b8ff" points="333.68,-64.24 344.21,-65.45 336.74,-57.94 333.68,-64.24"/>
</a>
</g>
</g>
</g>
</svg>
