<?xml version="1.0" encoding="UTF-8" standalone="no"?>
<!DOCTYPE svg PUBLIC "-//W3C//DTD SVG 1.1//EN"
 "http://www.w3.org/Graphics/SVG/1.1/DTD/svg11.dtd">
<!-- Generated by graphviz version 9.0.0 (20230911.1827)
 -->
<!-- Title: Database::decodeFingerprint Pages: 1 -->
<svg width="324pt" height="88pt"
 viewBox="0.00 0.00 323.50 87.50" xmlns="http://www.w3.org/2000/svg" xmlns:xlink="http://www.w3.org/1999/xlink">
<g id="graph0" class="graph" transform="scale(1 1) rotate(0) translate(4 83.5)">
<title>Database::decodeFingerprint</title>
<!-- Node1 -->
<g id="Node000001" class="node">
<title>Node1</title>
<g id="a_Node000001"><a xlink:title=" ">
<polygon fill="#999999" stroke="#666666" points="315.5,-48.88 176.5,-48.88 176.5,-29.62 315.5,-29.62 315.5,-48.88"/>
<text text-anchor="middle" x="246" y="-35.38" font-family="Helvetica,sans-Serif" font-size="10.00">Database::decodeFingerprint</text>
</a>
</g>
</g>
<!-- Node2 -->
<g id="Node000002" class="node">
<title>Node2</title>
<g id="a_Node000002"><a xlink:href="../../db/dd9/class_database_1_1_people_information_accessor.html#a6b06fa5412440b034abd1028c43b9d3a" target="_top" xlink:title=" ">
<polygon fill="white" stroke="#666666" points="140.5,-79.5 0,-79.5 0,-49 140.5,-49 140.5,-79.5"/>
<text text-anchor="start" x="8" y="-66" font-family="Helvetica,sans-Serif" font-size="10.00">Database::PeopleInformation</text>
<text text-anchor="middle" x="70.25" y="-54.75" font-family="Helvetica,sans-Serif" font-size="10.00">Accessor::fingerprintsFor</text>
</a>
</g>
</g>
<!-- Node1&#45;&gt;Node2 -->
<g id="edge1_Node000001_Node000002" class="edge">
<title>Node1&#45;&gt;Node2</title>
<g id="a_edge1_Node000001_Node000002"><a xlink:title=" ">
<path fill="none" stroke="#63b8ff" d="M165.01,-50.76C156.94,-51.92 148.79,-53.09 140.85,-54.24"/>
<polygon fill="#63b8ff" stroke="#63b8ff" points="165.43,-54.23 174.83,-49.35 164.43,-47.31 165.43,-54.23"/>
</a>
</g>
</g>
<!-- Node3 -->
<g id="Node000003" class="node">
<title>Node3</title>
<g id="a_Node000003"><a xlink:href="../../da/dd9/class_database_1_1_photo_operator.html#a353cf5ad2549713e76e0910d1bf9cb3e" target="_top" xlink:title=" ">
<polygon fill="#fff0f0" stroke="red" points="132.62,-30.5 7.88,-30.5 7.88,0 132.62,0 132.62,-30.5"/>
<text text-anchor="start" x="15.88" y="-17" font-family="Helvetica,sans-Serif" font-size="10.00">Database::PhotoOperator</text>
<text text-anchor="middle" x="70.25" y="-5.75" font-family="Helvetica,sans-Serif" font-size="10.00">::getPeople</text>
</a>
</g>
</g>
<!-- Node1&#45;&gt;Node3 -->
<g id="edge2_Node000001_Node000003" class="edge">
<title>Node1&#45;&gt;Node3</title>
<g id="a_edge2_Node000001_Node000003"><a xlink:title=" ">
<path fill="none" stroke="#63b8ff" d="M165.14,-28.22C154.33,-26.73 143.37,-25.21 132.94,-23.77"/>
<polygon fill="#63b8ff" stroke="#63b8ff" points="164.45,-31.66 174.83,-29.56 165.4,-24.72 164.45,-31.66"/>
</a>
</g>
</g>
</g>
</svg>
