<?xml version="1.0" encoding="UTF-8" standalone="no"?>
<!DOCTYPE svg PUBLIC "-//W3C//DTD SVG 1.1//EN"
 "http://www.w3.org/Graphics/SVG/1.1/DTD/svg11.dtd">
<!-- Generated by graphviz version 7.0.5 (20221223.1930)
 -->
<!-- Title: Database::getValidPhotosFilter Pages: 1 -->
<svg width="319pt" height="113pt"
 viewBox="0.00 0.00 319.00 113.00" xmlns="http://www.w3.org/2000/svg" xmlns:xlink="http://www.w3.org/1999/xlink">
<g id="graph0" class="graph" transform="scale(1 1) rotate(0) translate(4 109)">
<title>Database::getValidPhotosFilter</title>
<!-- Node1 -->
<g id="node1" class="node">
<title>Node1</title>
<g id="a_node1"><a xlink:title="return filter which will filter out broken photos (missing, broken, deleted etc)">
<polygon fill="#999999" stroke="#666666" points="311,-67.5 183,-67.5 183,-37.5 311,-37.5 311,-67.5"/>
<text text-anchor="start" x="191" y="-55.5" font-family="Helvetica,sans-Serif" font-size="10.00">Database::getValidPhotos</text>
<text text-anchor="middle" x="247" y="-44.5" font-family="Helvetica,sans-Serif" font-size="10.00">Filter</text>
</a>
</g>
</g>
<!-- Node2 -->
<g id="node2" class="node">
<title>Node2</title>
<g id="a_node2"><a xlink:href="../../d3/df6/class_series_detector.html#a7fb133fe47e82c32db512738a9e02742" target="_top" xlink:title=" ">
<polygon fill="#fff0f0" stroke="red" points="147,-105 0,-105 0,-86 147,-86 147,-105"/>
<text text-anchor="middle" x="73.5" y="-93" font-family="Helvetica,sans-Serif" font-size="10.00">SeriesDetector::listCandidates</text>
</a>
</g>
</g>
<!-- Node1&#45;&gt;Node2 -->
<g id="edge1" class="edge">
<title>Node1&#45;&gt;Node2</title>
<path fill="none" stroke="#63b8ff" d="M173.46,-70.69C153.22,-75.76 131.98,-81.09 114.38,-85.5"/>
<polygon fill="#63b8ff" stroke="#63b8ff" points="174.25,-74.1 183.1,-68.27 172.55,-67.31 174.25,-74.1"/>
</g>
<!-- Node4 -->
<g id="node3" class="node">
<title>Node4</title>
<g id="a_node3"><a xlink:href="../../dd/d10/class_photos_analyzer_impl.html#a6e3e7a3cbef37ad4d8f2ad872d8c06a5" target="_top" xlink:title=" ">
<polygon fill="white" stroke="#666666" points="127,-67.5 20,-67.5 20,-37.5 127,-37.5 127,-67.5"/>
<text text-anchor="start" x="28" y="-55.5" font-family="Helvetica,sans-Serif" font-size="10.00">PhotosAnalyzerImpl</text>
<text text-anchor="middle" x="73.5" y="-44.5" font-family="Helvetica,sans-Serif" font-size="10.00">::PhotosAnalyzerImpl</text>
</a>
</g>
</g>
<!-- Node1&#45;&gt;Node4 -->
<g id="edge2" class="edge">
<title>Node1&#45;&gt;Node4</title>
<path fill="none" stroke="#63b8ff" d="M171.43,-52.5C156.64,-52.5 141.39,-52.5 127.5,-52.5"/>
<polygon fill="#63b8ff" stroke="#63b8ff" points="171.11,-56 181.11,-52.5 171.11,-49 171.11,-56"/>
</g>
<!-- Node5 -->
<g id="node4" class="node">
<title>Node5</title>
<g id="a_node4"><a xlink:href="../../d5/d40/class_q_m_l_flat_model.html#ae78f682c929dd3a633ed772fa9e0a36e" target="_top" xlink:title=" ">
<polygon fill="white" stroke="#666666" points="146,-19 1,-19 1,0 146,0 146,-19"/>
<text text-anchor="middle" x="73.5" y="-7" font-family="Helvetica,sans-Serif" font-size="10.00">QMLFlatModel::setTextFilters</text>
</a>
</g>
</g>
<!-- Node1&#45;&gt;Node5 -->
<g id="edge3" class="edge">
<title>Node1&#45;&gt;Node5</title>
<path fill="none" stroke="#63b8ff" d="M173.46,-34.31C153.22,-29.24 131.98,-23.91 114.38,-19.5"/>
<polygon fill="#63b8ff" stroke="#63b8ff" points="172.55,-37.69 183.1,-36.73 174.25,-30.9 172.55,-37.69"/>
</g>
</g>
</svg>
