<?xml version="1.0" encoding="UTF-8" standalone="no"?>
<!DOCTYPE svg PUBLIC "-//W3C//DTD SVG 1.1//EN"
 "http://www.w3.org/Graphics/SVG/1.1/DTD/svg11.dtd">
<!-- Generated by graphviz version 12.2.0 (20241103.1931)
 -->
<!-- Title: Database::coRunOn Pages: 1 -->
<svg width="310pt" height="76pt"
 viewBox="0.00 0.00 310.00 75.88" xmlns="http://www.w3.org/2000/svg" xmlns:xlink="http://www.w3.org/1999/xlink">
<g id="graph0" class="graph" transform="scale(1 1) rotate(0) translate(4 71.88)">
<title>Database::coRunOn</title>
<!-- Node1 -->
<g id="Node000001" class="node">
<title>Node1</title>
<g id="a_Node000001"><a xlink:title=" ">
<polygon fill="#999999" stroke="#666666" points="102.25,-45.88 0,-45.88 0,-26.62 102.25,-26.62 102.25,-45.88"/>
<text text-anchor="middle" x="51.12" y="-32.38" font-family="Helvetica,sans-Serif" font-size="10.00">Database::coRunOn</text>
</a>
</g>
</g>
<!-- Node2 -->
<g id="Node000002" class="node">
<title>Node2</title>
<g id="a_Node000002"><a xlink:href="../../d3/dca/namespace_q_coro_task_utils.html#a361da4057f6d087b4c6ec875cdec8b6c" target="_top" xlink:title=" ">
<polygon fill="white" stroke="#666666" points="302,-67.88 138.25,-67.88 138.25,-48.62 302,-48.62 302,-67.88"/>
<text text-anchor="middle" x="220.12" y="-54.38" font-family="Helvetica,sans-Serif" font-size="10.00">QCoroTaskUtils::coRunScheduled</text>
</a>
</g>
</g>
<!-- Node1&#45;&gt;Node2 -->
<g id="edge1_Node000001_Node000002" class="edge">
<title>Node1&#45;&gt;Node2</title>
<g id="a_edge1_Node000001_Node000002"><a xlink:title=" ">
<path fill="none" stroke="#63b8ff" d="M102.68,-42.91C111.82,-44.11 121.59,-45.4 131.43,-46.7"/>
<polygon fill="#63b8ff" stroke="#63b8ff" points="130.67,-50.13 141.04,-47.96 131.59,-43.19 130.67,-50.13"/>
</a>
</g>
</g>
<!-- Node3 -->
<g id="Node000003" class="node">
<title>Node3</title>
<g id="a_Node000003"><a xlink:href="../../d7/da9/struct_database_1_1_i_database.html#aa3790cf001a3f456414294820a5109b0" target="_top" xlink:title=" ">
<polygon fill="white" stroke="#666666" points="273.12,-30.5 167.12,-30.5 167.12,0 273.12,0 273.12,-30.5"/>
<text text-anchor="start" x="175.12" y="-17" font-family="Helvetica,sans-Serif" font-size="10.00">Database::IDatabase</text>
<text text-anchor="middle" x="220.12" y="-5.75" font-family="Helvetica,sans-Serif" font-size="10.00">::exec</text>
</a>
</g>
</g>
<!-- Node1&#45;&gt;Node3 -->
<g id="edge2_Node000001_Node000003" class="edge">
<title>Node1&#45;&gt;Node3</title>
<g id="a_edge2_Node000001_Node000003"><a xlink:title=" ">
<path fill="none" stroke="#63b8ff" d="M102.68,-29.89C119.3,-27.8 137.99,-25.45 155.45,-23.26"/>
<polygon fill="#63b8ff" stroke="#63b8ff" points="155.73,-26.75 165.21,-22.03 154.85,-19.8 155.73,-26.75"/>
</a>
</g>
</g>
</g>
</svg>
