<?xml version="1.0" encoding="UTF-8" standalone="no"?>
<!DOCTYPE svg PUBLIC "-//W3C//DTD SVG 1.1//EN"
 "http://www.w3.org/Graphics/SVG/1.1/DTD/svg11.dtd">
<!-- Generated by graphviz version 12.2.0 (20241103.1931)
 -->
<!-- Title: Database::coRunOn Pages: 1 -->
<svg width="249pt" height="76pt"
 viewBox="0.00 0.00 248.50 75.88" xmlns="http://www.w3.org/2000/svg" xmlns:xlink="http://www.w3.org/1999/xlink">
<g id="graph0" class="graph" transform="scale(1 1) rotate(0) translate(4 71.88)">
<title>Database::coRunOn</title>
<!-- Node1 -->
<g id="Node000001" class="node">
<title>Node1</title>
<g id="a_Node000001"><a xlink:title=" ">
<polygon fill="#999999" stroke="#666666" points="240.5,-45.88 138.25,-45.88 138.25,-26.62 240.5,-26.62 240.5,-45.88"/>
<text text-anchor="middle" x="189.38" y="-32.38" font-family="Helvetica,sans-Serif" font-size="10.00">Database::coRunOn</text>
</a>
</g>
</g>
<!-- Node2 -->
<g id="Node000002" class="node">
<title>Node2</title>
<g id="a_Node000002"><a xlink:href="../../d0/d76/namespace_database.html#a1d2993cf070a816b53c9c7c3ff5c31b9" target="_top" xlink:title=" ">
<polygon fill="white" stroke="#666666" points="102.25,-67.88 0,-67.88 0,-48.62 102.25,-48.62 102.25,-67.88"/>
<text text-anchor="middle" x="51.12" y="-54.38" font-family="Helvetica,sans-Serif" font-size="10.00">Database::coRunOn</text>
</a>
</g>
</g>
<!-- Node1&#45;&gt;Node2 -->
<g id="edge1_Node000001_Node000002" class="edge">
<title>Node1&#45;&gt;Node2</title>
<g id="a_edge1_Node000001_Node000002"><a xlink:title=" ">
<path fill="none" stroke="#63b8ff" d="M126.78,-46.2C118.73,-47.5 110.56,-48.81 102.72,-50.08"/>
<polygon fill="#63b8ff" stroke="#63b8ff" points="127.22,-49.67 136.53,-44.62 126.1,-42.76 127.22,-49.67"/>
</a>
</g>
</g>
<!-- Node3 -->
<g id="Node000003" class="node">
<title>Node3</title>
<g id="a_Node000003"><a xlink:href="../../d9/d95/class_photo_delta_fetcher.html#a14b13b1a4f59b82ebac67de36bd160f4" target="_top" xlink:title=" ">
<polygon fill="white" stroke="#666666" points="101.88,-30.5 0.38,-30.5 0.38,0 101.88,0 101.88,-30.5"/>
<text text-anchor="start" x="8.38" y="-17" font-family="Helvetica,sans-Serif" font-size="10.00">PhotoDeltaFetcher::</text>
<text text-anchor="middle" x="51.12" y="-5.75" font-family="Helvetica,sans-Serif" font-size="10.00">fetchIds</text>
</a>
</g>
</g>
<!-- Node1&#45;&gt;Node3 -->
<g id="edge2_Node000001_Node000003" class="edge">
<title>Node1&#45;&gt;Node3</title>
<g id="a_edge2_Node000001_Node000003"><a xlink:title=" ">
<path fill="none" stroke="#63b8ff" d="M126.91,-26.78C118.66,-25.51 110.29,-24.21 102.27,-22.98"/>
<polygon fill="#63b8ff" stroke="#63b8ff" points="126.12,-30.2 136.53,-28.26 127.18,-23.28 126.12,-30.2"/>
</a>
</g>
</g>
</g>
</svg>
