<?xml version="1.0" encoding="UTF-8" standalone="no"?>
<!DOCTYPE svg PUBLIC "-//W3C//DTD SVG 1.1//EN"
 "http://www.w3.org/Graphics/SVG/1.1/DTD/svg11.dtd">
<!-- Generated by graphviz version 9.0.0 (20230911.1827)
 -->
<!-- Title: src/database/explicit_photo_delta.hpp Pages: 1 -->
<svg width="424pt" height="94pt"
 viewBox="0.00 0.00 424.00 93.75" xmlns="http://www.w3.org/2000/svg" xmlns:xlink="http://www.w3.org/1999/xlink">
<g id="graph0" class="graph" transform="scale(1 1) rotate(0) translate(4 89.75)">
<title>src/database/explicit_photo_delta.hpp</title>
<!-- Node1 -->
<g id="Node000001" class="node">
<title>Node1</title>
<g id="a_Node000001"><a xlink:title=" ">
<polygon fill="#999999" stroke="#666666" points="237.62,-85.75 132.38,-85.75 132.38,-55.25 237.62,-55.25 237.62,-85.75"/>
<text text-anchor="start" x="140.38" y="-72.25" font-family="Helvetica,sans-Serif" font-size="10.00">src/database/explicit</text>
<text text-anchor="middle" x="185" y="-61" font-family="Helvetica,sans-Serif" font-size="10.00">_photo_delta.hpp</text>
</a>
</g>
</g>
<!-- Node2 -->
<g id="Node000002" class="node">
<title>Node2</title>
<g id="a_Node000002"><a xlink:title=" ">
<polygon fill="#e0e0e0" stroke="#999999" points="58,-19.25 0,-19.25 0,0 58,0 58,-19.25"/>
<text text-anchor="middle" x="29" y="-5.75" font-family="Helvetica,sans-Serif" font-size="10.00">stdexcept</text>
</a>
</g>
</g>
<!-- Node1&#45;&gt;Node2 -->
<g id="edge1_Node000001_Node000002" class="edge">
<title>Node1&#45;&gt;Node2</title>
<g id="a_edge1_Node000001_Node000002"><a xlink:title=" ">
<path fill="none" stroke="#63b8ff" d="M146.04,-54.8C120.68,-45.23 87.91,-32.86 63.5,-23.64"/>
<polygon fill="#63b8ff" stroke="#63b8ff" points="64.93,-20.44 54.34,-20.19 62.46,-26.99 64.93,-20.44"/>
</a>
</g>
</g>
<!-- Node3 -->
<g id="Node000003" class="node">
<title>Node3</title>
<g id="a_Node000003"><a xlink:title=" ">
<polygon fill="#e0e0e0" stroke="#999999" points="165.75,-19.25 76.25,-19.25 76.25,0 165.75,0 165.75,-19.25"/>
<text text-anchor="middle" x="121" y="-5.75" font-family="Helvetica,sans-Serif" font-size="10.00">magic_enum.hpp</text>
</a>
</g>
</g>
<!-- Node1&#45;&gt;Node3 -->
<g id="edge2_Node000001_Node000003" class="edge">
<title>Node1&#45;&gt;Node3</title>
<g id="a_edge2_Node000001_Node000003"><a xlink:title=" ">
<path fill="none" stroke="#63b8ff" d="M169.18,-54.95C160.09,-46.59 148.64,-36.05 139.18,-27.35"/>
<polygon fill="#63b8ff" stroke="#63b8ff" points="141.71,-24.92 131.98,-20.73 136.97,-30.07 141.71,-24.92"/>
</a>
</g>
</g>
<!-- Node4 -->
<g id="Node000004" class="node">
<title>Node4</title>
<g id="a_Node000004"><a xlink:href="../../db/dbd/generic__concepts_8hpp.html" target="_top" xlink:title=" ">
<polygon fill="#fff0f0" stroke="red" points="316.12,-19.25 183.88,-19.25 183.88,0 316.12,0 316.12,-19.25"/>
<text text-anchor="middle" x="250" y="-5.75" font-family="Helvetica,sans-Serif" font-size="10.00">core/generic_concepts.hpp</text>
</a>
</g>
</g>
<!-- Node1&#45;&gt;Node4 -->
<g id="edge3_Node000001_Node000004" class="edge">
<title>Node1&#45;&gt;Node4</title>
<g id="a_edge3_Node000001_Node000004"><a xlink:title=" ">
<path fill="none" stroke="#63b8ff" d="M201.07,-54.95C210.3,-46.59 221.93,-36.05 231.53,-27.35"/>
<polygon fill="#63b8ff" stroke="#63b8ff" points="233.8,-30.02 238.86,-20.72 229.1,-24.84 233.8,-30.02"/>
</a>
</g>
</g>
<!-- Node7 -->
<g id="Node000007" class="node">
<title>Node7</title>
<g id="a_Node000007"><a xlink:href="../../db/d39/photo__data_8hpp.html" target="_top" xlink:title=" ">
<polygon fill="#fff0f0" stroke="red" points="416,-19.25 334,-19.25 334,0 416,0 416,-19.25"/>
<text text-anchor="middle" x="375" y="-5.75" font-family="Helvetica,sans-Serif" font-size="10.00">photo_data.hpp</text>
</a>
</g>
</g>
<!-- Node1&#45;&gt;Node7 -->
<g id="edge4_Node000001_Node000007" class="edge">
<title>Node1&#45;&gt;Node7</title>
<g id="a_edge4_Node000001_Node000007"><a xlink:title=" ">
<path fill="none" stroke="#63b8ff" d="M232.45,-54.8C263.94,-45.04 304.8,-32.38 334.7,-23.11"/>
<polygon fill="#63b8ff" stroke="#63b8ff" points="335.62,-26.49 344.14,-20.19 333.55,-19.81 335.62,-26.49"/>
</a>
</g>
</g>
</g>
</svg>
