<?xml version="1.0" encoding="UTF-8" standalone="no"?>
<!DOCTYPE svg PUBLIC "-//W3C//DTD SVG 1.1//EN"
 "http://www.w3.org/Graphics/SVG/1.1/DTD/svg11.dtd">
<!-- Generated by graphviz version 7.0.5 (20221223.1930)
 -->
<!-- Title: PeopleManipulator::store_people_names Pages: 1 -->
<svg width="413pt" height="124pt"
 viewBox="0.00 0.00 413.00 124.00" xmlns="http://www.w3.org/2000/svg" xmlns:xlink="http://www.w3.org/1999/xlink">
<g id="graph0" class="graph" transform="scale(1 1) rotate(0) translate(4 120)">
<title>PeopleManipulator::store_people_names</title>
<!-- Node1 -->
<g id="node1" class="node">
<title>Node1</title>
<g id="a_node1"><a xlink:title=" ">
<polygon fill="#999999" stroke="#666666" points="107,-73 0,-73 0,-43 107,-43 107,-73"/>
<text text-anchor="start" x="8" y="-61" font-family="Helvetica,sans-Serif" font-size="10.00">PeopleManipulator::</text>
<text text-anchor="middle" x="53.5" y="-50" font-family="Helvetica,sans-Serif" font-size="10.00">store_people_names</text>
</a>
</g>
</g>
<!-- Node2 -->
<g id="node2" class="node">
<title>Node2</title>
<g id="a_node2"><a xlink:href="../../d4/d0e/class_people_manipulator.html#ace25b0974d8f33a7cd6f78febb05bd8a" target="_top" xlink:title=" ">
<polygon fill="white" stroke="#666666" points="244,-116 143,-116 143,-86 244,-86 244,-116"/>
<text text-anchor="start" x="151" y="-104" font-family="Helvetica,sans-Serif" font-size="10.00">PeopleManipulator::</text>
<text text-anchor="middle" x="193.5" y="-93" font-family="Helvetica,sans-Serif" font-size="10.00">fetchPeople</text>
</a>
</g>
</g>
<!-- Node1&#45;&gt;Node2 -->
<g id="edge1" class="edge">
<title>Node1&#45;&gt;Node2</title>
<path fill="none" stroke="#63b8ff" d="M103.93,-73.4C113.05,-76.24 122.66,-79.24 132.06,-82.17"/>
<polygon fill="#63b8ff" stroke="#63b8ff" points="130.92,-85.48 141.5,-85.11 133,-78.79 130.92,-85.48"/>
</g>
<!-- Node3 -->
<g id="node3" class="node">
<title>Node3</title>
<g id="a_node3"><a xlink:href="../../d4/d0e/class_people_manipulator.html#abf23967ee8c4d0cc96e14854a629f512" target="_top" xlink:title=" ">
<polygon fill="white" stroke="#666666" points="405,-45.5 280,-45.5 280,-26.5 405,-26.5 405,-45.5"/>
<text text-anchor="middle" x="342.5" y="-33.5" font-family="Helvetica,sans-Serif" font-size="10.00">PeopleManipulator::name</text>
</a>
</g>
</g>
<!-- Node1&#45;&gt;Node3 -->
<g id="edge2" class="edge">
<title>Node1&#45;&gt;Node3</title>
<path fill="none" stroke="#63b8ff" d="M107.47,-53.94C152.63,-50.48 217.99,-45.47 268.17,-41.62"/>
<polygon fill="#63b8ff" stroke="#63b8ff" points="268.39,-45.11 278.1,-40.86 267.86,-38.13 268.39,-45.11"/>
</g>
<!-- Node4 -->
<g id="node4" class="node">
<title>Node4</title>
<g id="a_node4"><a xlink:href="../../d4/d0e/class_people_manipulator.html#afa2cd7e6d0955a3b87020da440d28520" target="_top" xlink:title=" ">
<polygon fill="#fff0f0" stroke="red" points="244,-30 143,-30 143,0 244,0 244,-30"/>
<text text-anchor="start" x="151" y="-18" font-family="Helvetica,sans-Serif" font-size="10.00">PeopleManipulator::</text>
<text text-anchor="middle" x="193.5" y="-7" font-family="Helvetica,sans-Serif" font-size="10.00">storeNewPerson</text>
</a>
</g>
</g>
<!-- Node1&#45;&gt;Node4 -->
<g id="edge3" class="edge">
<title>Node1&#45;&gt;Node4</title>
<path fill="none" stroke="#63b8ff" d="M103.93,-42.6C113.05,-39.76 122.66,-36.76 132.06,-33.83"/>
<polygon fill="#63b8ff" stroke="#63b8ff" points="133,-37.21 141.5,-30.89 130.92,-30.52 133,-37.21"/>
</g>
<!-- Node4&#45;&gt;Node3 -->
<g id="edge4" class="edge">
<title>Node4&#45;&gt;Node3</title>
<path fill="none" stroke="#63b8ff" d="M244.27,-22.11C251.97,-23.21 260.06,-24.37 268.14,-25.52"/>
<polygon fill="#63b8ff" stroke="#63b8ff" points="267.64,-28.98 278.03,-26.93 268.63,-22.05 267.64,-28.98"/>
</g>
</g>
</svg>
