<?xml version="1.0" encoding="UTF-8" standalone="no"?>
<!DOCTYPE svg PUBLIC "-//W3C//DTD SVG 1.1//EN"
 "http://www.w3.org/Graphics/SVG/1.1/DTD/svg11.dtd">
<!-- Generated by graphviz version 7.0.5 (20221223.1930)
 -->
<!-- Title: PeopleManipulator::runOnThread Pages: 1 -->
<svg width="246pt" height="86pt"
 viewBox="0.00 0.00 246.00 86.00" xmlns="http://www.w3.org/2000/svg" xmlns:xlink="http://www.w3.org/1999/xlink">
<g id="graph0" class="graph" transform="scale(1 1) rotate(0) translate(4 82)">
<title>PeopleManipulator::runOnThread</title>
<!-- Node1 -->
<g id="node1" class="node">
<title>Node1</title>
<g id="a_node1"><a xlink:title=" ">
<polygon fill="#999999" stroke="#666666" points="238,-54 137,-54 137,-24 238,-24 238,-54"/>
<text text-anchor="start" x="145" y="-42" font-family="Helvetica,sans-Serif" font-size="10.00">PeopleManipulator::</text>
<text text-anchor="middle" x="187.5" y="-31" font-family="Helvetica,sans-Serif" font-size="10.00">runOnThread</text>
</a>
</g>
</g>
<!-- Node2 -->
<g id="node2" class="node">
<title>Node2</title>
<g id="a_node2"><a xlink:href="../../d4/d0e/class_people_manipulator.html#a8cad2fad5cdecdc6deb380f8e21bb4ff" target="_top" xlink:title=" ">
<polygon fill="#fff0f0" stroke="red" points="101,-78 0,-78 0,-48 101,-48 101,-78"/>
<text text-anchor="start" x="8" y="-66" font-family="Helvetica,sans-Serif" font-size="10.00">PeopleManipulator::</text>
<text text-anchor="middle" x="50.5" y="-55" font-family="Helvetica,sans-Serif" font-size="10.00">findFaces</text>
</a>
</g>
</g>
<!-- Node1&#45;&gt;Node2 -->
<g id="edge1" class="edge">
<title>Node1&#45;&gt;Node2</title>
<path fill="none" stroke="#63b8ff" d="M125.32,-49.88C117.24,-51.31 109.04,-52.77 101.18,-54.17"/>
<polygon fill="#63b8ff" stroke="#63b8ff" points="125.89,-53.33 135.12,-48.13 124.67,-46.44 125.89,-53.33"/>
</g>
<!-- Node4 -->
<g id="node3" class="node">
<title>Node4</title>
<g id="a_node3"><a xlink:href="../../d4/d0e/class_people_manipulator.html#a5442cfcb86fceadf2e2e7cb5b6f92731" target="_top" xlink:title=" ">
<polygon fill="#fff0f0" stroke="red" points="101,-30 0,-30 0,0 101,0 101,-30"/>
<text text-anchor="start" x="8" y="-18" font-family="Helvetica,sans-Serif" font-size="10.00">PeopleManipulator::</text>
<text text-anchor="middle" x="50.5" y="-7" font-family="Helvetica,sans-Serif" font-size="10.00">recognizeFaces</text>
</a>
</g>
</g>
<!-- Node1&#45;&gt;Node4 -->
<g id="edge2" class="edge">
<title>Node1&#45;&gt;Node4</title>
<path fill="none" stroke="#63b8ff" d="M125.32,-28.12C117.24,-26.69 109.04,-25.23 101.18,-23.83"/>
<polygon fill="#63b8ff" stroke="#63b8ff" points="124.67,-31.56 135.12,-29.87 125.89,-24.67 124.67,-31.56"/>
</g>
</g>
</svg>
