<?xml version="1.0" encoding="UTF-8" standalone="no"?>
<!DOCTYPE svg PUBLIC "-//W3C//DTD SVG 1.1//EN"
 "http://www.w3.org/Graphics/SVG/1.1/DTD/svg11.dtd">
<!-- Generated by graphviz version 9.0.0 (20230911.1827)
 -->
<!-- Title: PhotoDeltaFetcher Pages: 1 -->
<svg width="184pt" height="94pt"
 viewBox="0.00 0.00 184.00 93.75" xmlns="http://www.w3.org/2000/svg" xmlns:xlink="http://www.w3.org/1999/xlink">
<g id="graph0" class="graph" transform="scale(1 1) rotate(0) translate(4 89.75)">
<title>PhotoDeltaFetcher</title>
<!-- Node1 -->
<g id="Node000001" class="node">
<title>Node1</title>
<g id="a_Node000001"><a xlink:title=" ">
<polygon fill="#999999" stroke="#666666" points="122.5,-19.25 25.5,-19.25 25.5,0 122.5,0 122.5,-19.25"/>
<text text-anchor="middle" x="74" y="-5.75" font-family="Helvetica,sans-Serif" font-size="10.00">PhotoDeltaFetcher</text>
</a>
</g>
</g>
<!-- Node2 -->
<g id="Node000002" class="node">
<title>Node2</title>
<g id="a_Node000002"><a xlink:title=" ">
<polygon fill="white" stroke="#666666" points="52,-85.75 0,-85.75 0,-66.5 52,-66.5 52,-85.75"/>
<text text-anchor="middle" x="26" y="-72.25" font-family="Helvetica,sans-Serif" font-size="10.00">QObject</text>
</a>
</g>
</g>
<!-- Node2&#45;&gt;Node1 -->
<g id="edge1_Node000001_Node000002" class="edge">
<title>Node2&#45;&gt;Node1</title>
<g id="a_edge1_Node000001_Node000002"><a xlink:title=" ">
<path fill="none" stroke="#63b8ff" d="M39.31,-57.24C48.44,-44.97 60.17,-29.21 67.38,-19.52"/>
<polygon fill="#63b8ff" stroke="#63b8ff" points="36.74,-54.83 33.58,-64.94 42.36,-59.01 36.74,-54.83"/>
</a>
</g>
</g>
<!-- Node3 -->
<g id="Node000003" class="node">
<title>Node3</title>
<g id="a_Node000003"><a xlink:href="../../d7/da9/struct_database_1_1_i_database.html" target="_top" xlink:title="Base Database interface. A bridge between regular clients and backend.">
<polygon fill="white" stroke="#666666" points="176,-85.75 70,-85.75 70,-66.5 176,-66.5 176,-85.75"/>
<text text-anchor="middle" x="123" y="-72.25" font-family="Helvetica,sans-Serif" font-size="10.00">Database::IDatabase</text>
</a>
</g>
</g>
<!-- Node3&#45;&gt;Node1 -->
<g id="edge2_Node000001_Node000003" class="edge">
<title>Node3&#45;&gt;Node1</title>
<g id="a_edge2_Node000001_Node000003"><a xlink:title=" ">
<path fill="none" stroke="#9a32cd" stroke-dasharray="5,2" d="M109.42,-57.24C100.09,-44.97 88.12,-29.21 80.76,-19.52"/>
<polygon fill="#9a32cd" stroke="#9a32cd" points="106.43,-59.11 115.27,-64.95 112.01,-54.87 106.43,-59.11"/>
</a>
</g>
<text text-anchor="middle" x="114.12" y="-39" font-family="Helvetica,sans-Serif" font-size="10.00" fill="grey"> m_db</text>
</g>
</g>
</svg>
