<?xml version="1.0" encoding="UTF-8" standalone="no"?>
<!DOCTYPE svg PUBLIC "-//W3C//DTD SVG 1.1//EN"
 "http://www.w3.org/Graphics/SVG/1.1/DTD/svg11.dtd">
<!-- Generated by graphviz version 7.0.5 (20221223.1930)
 -->
<!-- Title: src/database/backends/sql_backends/people_information_accessor.hpp Pages: 1 -->
<svg width="353pt" height="192pt"
 viewBox="0.00 0.00 353.00 192.00" xmlns="http://www.w3.org/2000/svg" xmlns:xlink="http://www.w3.org/1999/xlink">
<g id="graph0" class="graph" transform="scale(1 1) rotate(0) translate(4 188)">
<title>src/database/backends/sql_backends/people_information_accessor.hpp</title>
<!-- Node1 -->
<g id="node1" class="node">
<title>Node1</title>
<g id="a_node1"><a xlink:title=" ">
<polygon fill="#999999" stroke="#666666" points="228,-184 95,-184 95,-143 228,-143 228,-184"/>
<text text-anchor="start" x="103" y="-172" font-family="Helvetica,sans-Serif" font-size="10.00">src/database/backends</text>
<text text-anchor="start" x="103" y="-161" font-family="Helvetica,sans-Serif" font-size="10.00">/sql_backends/people</text>
<text text-anchor="middle" x="161.5" y="-150" font-family="Helvetica,sans-Serif" font-size="10.00">_information_accessor.hpp</text>
</a>
</g>
</g>
<!-- Node2 -->
<g id="node2" class="node">
<title>Node2</title>
<g id="a_node2"><a xlink:href="../../d2/db2/people__information__accessor_8cpp.html" target="_top" xlink:title=" ">
<polygon fill="white" stroke="#666666" points="133,-107 0,-107 0,-66 133,-66 133,-107"/>
<text text-anchor="start" x="8" y="-95" font-family="Helvetica,sans-Serif" font-size="10.00">src/database/backends</text>
<text text-anchor="start" x="8" y="-84" font-family="Helvetica,sans-Serif" font-size="10.00">/sql_backends/people</text>
<text text-anchor="middle" x="66.5" y="-73" font-family="Helvetica,sans-Serif" font-size="10.00">_information_accessor.cpp</text>
</a>
</g>
</g>
<!-- Node1&#45;&gt;Node2 -->
<g id="edge1" class="edge">
<title>Node1&#45;&gt;Node2</title>
<path fill="none" stroke="#63b8ff" d="M127.74,-135.85C115.84,-126.45 102.68,-116.07 91.62,-107.33"/>
<polygon fill="#63b8ff" stroke="#63b8ff" points="125.33,-138.41 135.35,-141.86 129.67,-132.91 125.33,-138.41"/>
</g>
<!-- Node3 -->
<g id="node3" class="node">
<title>Node3</title>
<g id="a_node3"><a xlink:href="../../da/d74/sql__backend_8cpp.html" target="_top" xlink:title=" ">
<polygon fill="white" stroke="#666666" points="292,-30 137,-30 137,0 292,0 292,-30"/>
<text text-anchor="start" x="145" y="-18" font-family="Helvetica,sans-Serif" font-size="10.00">src/database/backends</text>
<text text-anchor="middle" x="214.5" y="-7" font-family="Helvetica,sans-Serif" font-size="10.00">/sql_backends/sql_backend.cpp</text>
</a>
</g>
</g>
<!-- Node1&#45;&gt;Node3 -->
<g id="edge2" class="edge">
<title>Node1&#45;&gt;Node3</title>
<path fill="none" stroke="#63b8ff" d="M164.9,-131.41C167.75,-112.05 172.8,-86.93 181.5,-66 186.85,-53.13 195.64,-40.03 202.8,-30.47"/>
<polygon fill="#63b8ff" stroke="#63b8ff" points="161.46,-130.76 163.6,-141.13 168.39,-131.68 161.46,-130.76"/>
</g>
<!-- Node4 -->
<g id="node4" class="node">
<title>Node4</title>
<g id="a_node4"><a xlink:href="../../df/df4/sql__backend_8hpp.html" target="_top" xlink:title=" ">
<polygon fill="#fff0f0" stroke="red" points="345,-101.5 190,-101.5 190,-71.5 345,-71.5 345,-101.5"/>
<text text-anchor="start" x="198" y="-89.5" font-family="Helvetica,sans-Serif" font-size="10.00">src/database/backends</text>
<text text-anchor="middle" x="267.5" y="-78.5" font-family="Helvetica,sans-Serif" font-size="10.00">/sql_backends/sql_backend.hpp</text>
</a>
</g>
</g>
<!-- Node1&#45;&gt;Node4 -->
<g id="edge3" class="edge">
<title>Node1&#45;&gt;Node4</title>
<path fill="none" stroke="#63b8ff" d="M198.92,-136.03C215.21,-124.5 233.65,-111.45 247.31,-101.79"/>
<polygon fill="#63b8ff" stroke="#63b8ff" points="197.01,-133.09 190.86,-141.72 201.05,-138.81 197.01,-133.09"/>
</g>
<!-- Node4&#45;&gt;Node3 -->
<g id="edge4" class="edge">
<title>Node4&#45;&gt;Node3</title>
<path fill="none" stroke="#63b8ff" d="M249.6,-62.03C241.6,-51.54 232.43,-39.51 225.47,-30.38"/>
<polygon fill="#63b8ff" stroke="#63b8ff" points="246.75,-64.07 255.6,-69.9 252.32,-59.82 246.75,-64.07"/>
</g>
</g>
</svg>
