<?xml version="1.0" encoding="UTF-8" standalone="no"?>
<!DOCTYPE svg PUBLIC "-//W3C//DTD SVG 1.1//EN"
 "http://www.w3.org/Graphics/SVG/1.1/DTD/svg11.dtd">
<!-- Generated by graphviz version 12.2.0 (20241103.1931)
 -->
<!-- Title: Tag::timestamp Pages: 1 -->
<svg width="276pt" height="76pt"
 viewBox="0.00 0.00 276.25 75.88" xmlns="http://www.w3.org/2000/svg" xmlns:xlink="http://www.w3.org/1999/xlink">

<svg id="main" version="1.1" xmlns="http://www.w3.org/2000/svg" xmlns:xlink="http://www.w3.org/1999/xlink" xml:space="preserve">

<style type="text/css"><![CDATA[
.node, .edge {opacity: 0.7;}
.node.selected, .edge.selected {opacity: 1;}
.edge:hover path { stroke: red; }
.edge:hover polygon { stroke: red; fill: red; }
]]></style>
<script type="application/ecmascript" xlink:href="../../svg.min.js"/>
<svg id="graph" class="graph">
<g id="graph0" class="graph" transform="scale(1 1) rotate(0) translate(4 71.88)">
<title>Tag::timestamp</title>
<!-- Node1 -->
<g id="Node000001" class="node">
<title>Node1</title>
<g id="a_Node000001"><a xlink:title=" ">
<polygon fill="#999999" stroke="#666666" points="268.25,-40.25 185.5,-40.25 185.5,-21 268.25,-21 268.25,-40.25"/>
<text text-anchor="middle" x="226.88" y="-26.75" font-family="Helvetica,sans-Serif" font-size="10.00">Tag::timestamp</text>
</a>
</g>
</g>
<!-- Node1&#45;&gt;Node1 -->
<g id="edge3_Node000001_Node000001" class="edge">
<title>Node1&#45;&gt;Node1</title>
<g id="a_edge3_Node000001_Node000001"><a xlink:title=" ">
<path fill="none" stroke="#63b8ff" d="M254.15,-51.32C251.01,-55.37 241.92,-58.25 226.88,-58.25 200.13,-58.25 192.2,-49.15 203.06,-40.54"/>
<polygon fill="#63b8ff" stroke="#63b8ff" points="257.54,-50.43 251.15,-41.98 250.88,-52.57 257.54,-50.43"/>
</a>
</g>
</g>
<!-- Node2 -->
<g id="Node000002" class="node">
<title>Node2</title>
<g id="a_Node000002"><a xlink:href="../../d0/d4e/class_photos_grouping_dialog.html#aea8f68ac5b06f0a246ae6cc04d80e82e" target="_top" xlink:title=" ">
<polygon fill="#fff0f0" stroke="red" points="131.12,-67.88 18.38,-67.88 18.38,-37.38 131.12,-37.38 131.12,-67.88"/>
<text text-anchor="start" x="26.38" y="-54.38" font-family="Helvetica,sans-Serif" font-size="10.00">PhotosGroupingDialog</text>
<text text-anchor="middle" x="74.75" y="-43.12" font-family="Helvetica,sans-Serif" font-size="10.00">::calculateFPS</text>
</a>
</g>
</g>
<!-- Node1&#45;&gt;Node2 -->
<g id="edge1_Node000001_Node000002" class="edge">
<title>Node1&#45;&gt;Node2</title>
<g id="a_edge1_Node000001_Node000002"><a xlink:title=" ">
<path fill="none" stroke="#63b8ff" d="M174,-38.23C160.23,-40.24 145.31,-42.43 131.35,-44.48"/>
<polygon fill="#63b8ff" stroke="#63b8ff" points="174.36,-41.71 183.75,-36.8 173.35,-34.79 174.36,-41.71"/>
</a>
</g>
</g>
<!-- Node4 -->
<g id="Node000004" class="node">
<title>Node4</title>
<g id="a_Node000004"><a xlink:href="../../d3/df6/class_series_detector.html#af571b628d1f9df8742bc7747af817cd6" target="_top" xlink:title=" ">
<polygon fill="#fff0f0" stroke="red" points="149.5,-19.25 0,-19.25 0,0 149.5,0 149.5,-19.25"/>
<text text-anchor="middle" x="74.75" y="-5.75" font-family="Helvetica,sans-Serif" font-size="10.00">SeriesDetector::removeSingles</text>
</a>
</g>
</g>
<!-- Node1&#45;&gt;Node4 -->
<g id="edge2_Node000001_Node000004" class="edge">
<title>Node1&#45;&gt;Node4</title>
<g id="a_edge2_Node000001_Node000004"><a xlink:title=" ">
<path fill="none" stroke="#63b8ff" d="M174.06,-23.38C165.62,-22.2 156.75,-20.96 147.94,-19.72"/>
<polygon fill="#63b8ff" stroke="#63b8ff" points="173.36,-26.81 183.75,-24.73 174.33,-19.88 173.36,-26.81"/>
</a>
</g>
</g>
</g>
</svg>
</svg>

<style type='text/css'>
<![CDATA[
[data-mouse-over-selected='false'] { opacity: 0.7; }
[data-mouse-over-selected='true']  { opacity: 1.0; }
]]>
</style>
<script type="application/ecmascript"><![CDATA[
document.addEventListener('DOMContentLoaded', (event) => {
  highlightEdges();
  highlightAdjacentNodes();
});
]]></script>
</svg>
