<?xml version="1.0" encoding="UTF-8" standalone="no"?>
<!DOCTYPE svg PUBLIC "-//W3C//DTD SVG 1.1//EN"
 "http://www.w3.org/Graphics/SVG/1.1/DTD/svg11.dtd">
<!-- Generated by graphviz version 7.0.5 (20221223.1930)
 -->
<!-- Title: src/face_recognition/face_recognition.hpp Pages: 1 -->
<svg width="582pt" height="104pt"
 viewBox="0.00 0.00 581.50 104.00" xmlns="http://www.w3.org/2000/svg" xmlns:xlink="http://www.w3.org/1999/xlink">
<g id="graph0" class="graph" transform="scale(1 1) rotate(0) translate(4 100)">
<title>src/face_recognition/face_recognition.hpp</title>
<!-- Node1 -->
<g id="node1" class="node">
<title>Node1</title>
<g id="a_node1"><a xlink:title=" ">
<polygon fill="#999999" stroke="#666666" points="322,-96 213,-96 213,-66 322,-66 322,-96"/>
<text text-anchor="start" x="221" y="-84" font-family="Helvetica,sans-Serif" font-size="10.00">src/face_recognition</text>
<text text-anchor="middle" x="267.5" y="-73" font-family="Helvetica,sans-Serif" font-size="10.00">/face_recognition.hpp</text>
</a>
</g>
</g>
<!-- Node2 -->
<g id="node2" class="node">
<title>Node2</title>
<g id="a_node2"><a xlink:href="../../da/dec/face__recognition_8cpp.html" target="_top" xlink:title=" ">
<polygon fill="white" stroke="#666666" points="109,-30 0,-30 0,0 109,0 109,-30"/>
<text text-anchor="start" x="8" y="-18" font-family="Helvetica,sans-Serif" font-size="10.00">src/face_recognition</text>
<text text-anchor="middle" x="54.5" y="-7" font-family="Helvetica,sans-Serif" font-size="10.00">/face_recognition.cpp</text>
</a>
</g>
</g>
<!-- Node1&#45;&gt;Node2 -->
<g id="edge1" class="edge">
<title>Node1&#45;&gt;Node2</title>
<path fill="none" stroke="#63b8ff" d="M208.43,-62.25C175.01,-52.21 133.77,-39.82 102.39,-30.39"/>
<polygon fill="#63b8ff" stroke="#63b8ff" points="207.4,-65.6 217.98,-65.12 209.41,-58.89 207.4,-65.6"/>
</g>
<!-- Node3 -->
<g id="node3" class="node">
<title>Node3</title>
<g id="a_node3"><a xlink:href="../../da/db1/faces__model_8hpp.html" target="_top" xlink:title=" ">
<polygon fill="#fff0f0" stroke="red" points="245.5,-30 127.5,-30 127.5,0 245.5,0 245.5,-30"/>
<text text-anchor="start" x="135.5" y="-18" font-family="Helvetica,sans-Serif" font-size="10.00">src/gui/desktop/models</text>
<text text-anchor="middle" x="186.5" y="-7" font-family="Helvetica,sans-Serif" font-size="10.00">/faces_model.hpp</text>
</a>
</g>
</g>
<!-- Node1&#45;&gt;Node3 -->
<g id="edge2" class="edge">
<title>Node1&#45;&gt;Node3</title>
<path fill="none" stroke="#63b8ff" d="M240.54,-58.7C228.77,-49.4 215.27,-38.73 204.71,-30.39"/>
<polygon fill="#63b8ff" stroke="#63b8ff" points="238.32,-61.4 248.34,-64.86 242.66,-55.91 238.32,-61.4"/>
</g>
<!-- Node6 -->
<g id="node4" class="node">
<title>Node6</title>
<g id="a_node4"><a xlink:href="../../dc/dd7/context__menu__manager_8cpp.html" target="_top" xlink:title=" ">
<polygon fill="white" stroke="#666666" points="433.5,-30 263.5,-30 263.5,0 433.5,0 433.5,-30"/>
<text text-anchor="start" x="271.5" y="-18" font-family="Helvetica,sans-Serif" font-size="10.00">src/gui/desktop/quick</text>
<text text-anchor="middle" x="348.5" y="-7" font-family="Helvetica,sans-Serif" font-size="10.00">_items/context_menu_manager.cpp</text>
</a>
</g>
</g>
<!-- Node1&#45;&gt;Node6 -->
<g id="edge3" class="edge">
<title>Node1&#45;&gt;Node6</title>
<path fill="none" stroke="#63b8ff" d="M294.46,-58.7C306.23,-49.4 319.73,-38.73 330.29,-30.39"/>
<polygon fill="#63b8ff" stroke="#63b8ff" points="292.34,-55.91 286.66,-64.86 296.68,-61.4 292.34,-55.91"/>
</g>
<!-- Node7 -->
<g id="node5" class="node">
<title>Node7</title>
<g id="a_node5"><a xlink:href="../../da/d67/people__manipulator_8cpp.html" target="_top" xlink:title=" ">
<polygon fill="white" stroke="#666666" points="573.5,-30 451.5,-30 451.5,0 573.5,0 573.5,-30"/>
<text text-anchor="start" x="459.5" y="-18" font-family="Helvetica,sans-Serif" font-size="10.00">src/gui/desktop/utils</text>
<text text-anchor="middle" x="512.5" y="-7" font-family="Helvetica,sans-Serif" font-size="10.00">/people_manipulator.cpp</text>
</a>
</g>
</g>
<!-- Node1&#45;&gt;Node7 -->
<g id="edge4" class="edge">
<title>Node1&#45;&gt;Node7</title>
<path fill="none" stroke="#63b8ff" d="M333.14,-62.85C371.92,-52.72 420.47,-40.04 457.28,-30.43"/>
<polygon fill="#63b8ff" stroke="#63b8ff" points="332.74,-59.34 323.95,-65.25 334.51,-66.11 332.74,-59.34"/>
</g>
</g>
</svg>
