<?xml version="1.0" encoding="UTF-8" standalone="no"?>
<!DOCTYPE svg PUBLIC "-//W3C//DTD SVG 1.1//EN"
 "http://www.w3.org/Graphics/SVG/1.1/DTD/svg11.dtd">
<!-- Generated by graphviz version 12.2.0 (20241103.1931)
 -->
<!-- Title: DuplicatesModel::loadData Pages: 1 -->
<svg width="303pt" height="223pt"
 viewBox="0.00 0.00 302.50 222.88" xmlns="http://www.w3.org/2000/svg" xmlns:xlink="http://www.w3.org/1999/xlink">

<svg id="main" version="1.1" xmlns="http://www.w3.org/2000/svg" xmlns:xlink="http://www.w3.org/1999/xlink" xml:space="preserve">

<style type="text/css"><![CDATA[
.node, .edge {opacity: 0.7;}
.node.selected, .edge.selected {opacity: 1;}
.edge:hover path { stroke: red; }
.edge:hover polygon { stroke: red; fill: red; }
]]></style>
<script type="application/ecmascript" xlink:href="../../svg.min.js"/>
<svg id="graph" class="graph">
<g id="graph0" class="graph" transform="scale(1 1) rotate(0) translate(4 218.88)">
<title>DuplicatesModel::loadData</title>
<!-- Node1 -->
<g id="Node000001" class="node">
<title>Node1</title>
<g id="a_Node000001"><a xlink:title=" ">
<polygon fill="#999999" stroke="#666666" points="130.75,-122.88 0,-122.88 0,-103.62 130.75,-103.62 130.75,-122.88"/>
<text text-anchor="middle" x="65.38" y="-109.38" font-family="Helvetica,sans-Serif" font-size="10.00">DuplicatesModel::loadData</text>
</a>
</g>
</g>
<!-- Node2 -->
<g id="Node000002" class="node">
<title>Node2</title>
<g id="a_Node000002"><a xlink:href="../../d3/d94/class_duplicates_model.html#aa7ec136eb8e2ff9d21f5c4727c3761f0" target="_top" xlink:title=" ">
<polygon fill="#fff0f0" stroke="red" points="286.25,-214.88 175,-214.88 175,-195.62 286.25,-195.62 286.25,-214.88"/>
<text text-anchor="middle" x="230.62" y="-201.38" font-family="Helvetica,sans-Serif" font-size="10.00">DuplicatesModel::data</text>
</a>
</g>
</g>
<!-- Node1&#45;&gt;Node2 -->
<g id="edge1_Node000001_Node000002" class="edge">
<title>Node1&#45;&gt;Node2</title>
<g id="a_edge1_Node000001_Node000002"><a xlink:title=" ">
<path fill="none" stroke="#63b8ff" d="M77.3,-123.14C94.92,-138.61 131.24,-168.61 166.75,-186.25 170.44,-188.08 174.34,-189.78 178.32,-191.33"/>
<polygon fill="#63b8ff" stroke="#63b8ff" points="176.92,-194.55 187.51,-194.63 179.28,-187.96 176.92,-194.55"/>
</a>
</g>
</g>
<!-- Node4 -->
<g id="Node000004" class="node">
<title>Node4</title>
<g id="a_Node000004"><a xlink:href="../../d7/da9/struct_database_1_1_i_database.html#ac86cb641a8f5a37a00873df333bb12bb" target="_top" xlink:title=" ">
<polygon fill="#fff0f0" stroke="red" points="283.62,-177.5 177.62,-177.5 177.62,-147 283.62,-147 283.62,-177.5"/>
<text text-anchor="start" x="185.62" y="-164" font-family="Helvetica,sans-Serif" font-size="10.00">Database::IDatabase</text>
<text text-anchor="middle" x="230.62" y="-152.75" font-family="Helvetica,sans-Serif" font-size="10.00">::exec</text>
</a>
</g>
</g>
<!-- Node1&#45;&gt;Node4 -->
<g id="edge2_Node000001_Node000004" class="edge">
<title>Node1&#45;&gt;Node4</title>
<g id="a_edge2_Node000001_Node000004"><a xlink:title=" ">
<path fill="none" stroke="#63b8ff" d="M99.81,-123.28C118.96,-129.03 143.64,-136.44 166.33,-143.25"/>
<polygon fill="#63b8ff" stroke="#63b8ff" points="165.24,-146.58 175.82,-146.1 167.25,-139.87 165.24,-146.58"/>
</a>
</g>
</g>
<!-- Node7 -->
<g id="Node000007" class="node">
<title>Node7</title>
<g id="a_Node000007"><a xlink:href="../../d2/ddd/struct_database_1_1_i_backend.html#ac762cc3e374776d405c5854a0d7e02d2" target="_top" xlink:title="fetch photo data">
<polygon fill="white" stroke="#666666" points="282.12,-128.5 179.12,-128.5 179.12,-98 282.12,-98 282.12,-128.5"/>
<text text-anchor="start" x="187.12" y="-115" font-family="Helvetica,sans-Serif" font-size="10.00">Database::IBackend</text>
<text text-anchor="middle" x="230.62" y="-103.75" font-family="Helvetica,sans-Serif" font-size="10.00">::getPhotoDelta</text>
</a>
</g>
</g>
<!-- Node1&#45;&gt;Node7 -->
<g id="edge3_Node000001_Node000007" class="edge">
<title>Node1&#45;&gt;Node7</title>
<g id="a_edge3_Node000001_Node000007"><a xlink:title=" ">
<path fill="none" stroke="#63b8ff" d="M130.9,-113.25C142.92,-113.25 155.46,-113.25 167.41,-113.25"/>
<polygon fill="#63b8ff" stroke="#63b8ff" points="167.14,-116.75 177.14,-113.25 167.14,-109.75 167.14,-116.75"/>
</a>
</g>
</g>
<!-- Node8 -->
<g id="Node000008" class="node">
<title>Node8</title>
<g id="a_Node000008"><a xlink:href="../../d1/d7e/struct_database_1_1_i_photo_operator.html#a38d3b053b7cd2404e7cf9420338e7c6a" target="_top" xlink:title=" ">
<polygon fill="white" stroke="#666666" points="294.5,-79.5 166.75,-79.5 166.75,-49 294.5,-49 294.5,-79.5"/>
<text text-anchor="start" x="174.75" y="-66" font-family="Helvetica,sans-Serif" font-size="10.00">Database::IPhotoOperator</text>
<text text-anchor="middle" x="230.62" y="-54.75" font-family="Helvetica,sans-Serif" font-size="10.00">::onPhotos</text>
</a>
</g>
</g>
<!-- Node1&#45;&gt;Node8 -->
<g id="edge4_Node000001_Node000008" class="edge">
<title>Node1&#45;&gt;Node8</title>
<g id="a_edge4_Node000001_Node000008"><a xlink:title=" ">
<path fill="none" stroke="#63b8ff" d="M99.81,-103.22C118.96,-97.47 143.64,-90.06 166.33,-83.25"/>
<polygon fill="#63b8ff" stroke="#63b8ff" points="167.25,-86.63 175.82,-80.4 165.24,-79.92 167.25,-86.63"/>
</a>
</g>
</g>
<!-- Node9 -->
<g id="Node000009" class="node">
<title>Node9</title>
<g id="a_Node000009"><a xlink:href="../../d2/ddd/struct_database_1_1_i_backend.html#adc910ee6092bc177fb89dd8cebca1870" target="_top" xlink:title="get photo operator">
<polygon fill="white" stroke="#666666" points="282.12,-30.5 179.12,-30.5 179.12,0 282.12,0 282.12,-30.5"/>
<text text-anchor="start" x="187.12" y="-17" font-family="Helvetica,sans-Serif" font-size="10.00">Database::IBackend</text>
<text text-anchor="middle" x="230.62" y="-5.75" font-family="Helvetica,sans-Serif" font-size="10.00">::photoOperator</text>
</a>
</g>
</g>
<!-- Node1&#45;&gt;Node9 -->
<g id="edge5_Node000001_Node000009" class="edge">
<title>Node1&#45;&gt;Node9</title>
<g id="a_edge5_Node000001_Node000009"><a xlink:title=" ">
<path fill="none" stroke="#63b8ff" d="M78.08,-103.22C96.16,-88.09 132.4,-59.18 166.75,-40.25 169.6,-38.68 172.56,-37.16 175.58,-35.7"/>
<polygon fill="#63b8ff" stroke="#63b8ff" points="176.99,-38.9 184.64,-31.56 174.09,-32.53 176.99,-38.9"/>
</a>
</g>
</g>
</g>
</svg>
</svg>

<style type='text/css'>
<![CDATA[
[data-mouse-over-selected='false'] { opacity: 0.7; }
[data-mouse-over-selected='true']  { opacity: 1.0; }
]]>
</style>
<script type="application/ecmascript"><![CDATA[
document.addEventListener('DOMContentLoaded', (event) => {
  highlightEdges();
  highlightAdjacentNodes();
});
]]></script>
</svg>
