<?xml version="1.0" encoding="UTF-8" standalone="no"?>
<!DOCTYPE svg PUBLIC "-//W3C//DTD SVG 1.1//EN"
 "http://www.w3.org/Graphics/SVG/1.1/DTD/svg11.dtd">
<!-- Generated by graphviz version 7.0.5 (20221223.1930)
 -->
<!-- Title: DuplicatesModel::setDB Pages: 1 -->
<svg width="278pt" height="64pt"
 viewBox="0.00 0.00 278.00 64.00" xmlns="http://www.w3.org/2000/svg" xmlns:xlink="http://www.w3.org/1999/xlink">
<g id="graph0" class="graph" transform="scale(1 1) rotate(0) translate(4 60)">
<title>DuplicatesModel::setDB</title>
<!-- Node1 -->
<g id="node1" class="node">
<title>Node1</title>
<g id="a_node1"><a xlink:title=" ">
<polygon fill="#999999" stroke="#666666" points="120,-37 0,-37 0,-18 120,-18 120,-37"/>
<text text-anchor="middle" x="60" y="-25" font-family="Helvetica,sans-Serif" font-size="10.00">DuplicatesModel::setDB</text>
</a>
</g>
</g>
<!-- Node2 -->
<g id="node2" class="node">
<title>Node2</title>
<g id="a_node2"><a xlink:href="../../d3/d94/class_duplicates_model.html#a8996972ec9cbcf912b549a4a6d26f492" target="_top" xlink:title=" ">
<polygon fill="white" stroke="#666666" points="270,-56 156,-56 156,-37 270,-37 270,-56"/>
<text text-anchor="middle" x="213" y="-44" font-family="Helvetica,sans-Serif" font-size="10.00">DuplicatesModel::clear</text>
</a>
</g>
</g>
<!-- Node1&#45;&gt;Node2 -->
<g id="edge1" class="edge">
<title>Node1&#45;&gt;Node2</title>
<path fill="none" stroke="#63b8ff" d="M120.25,-34.95C128.22,-35.96 136.45,-36.99 144.55,-38.01"/>
<polygon fill="#63b8ff" stroke="#63b8ff" points="144.03,-41.47 154.38,-39.25 144.9,-34.53 144.03,-41.47"/>
</g>
<!-- Node3 -->
<g id="node3" class="node">
<title>Node3</title>
<g id="a_node3"><a xlink:href="../../d3/d94/class_duplicates_model.html#aea86ca11a3e038b8179958b4577705d0" target="_top" xlink:title=" ">
<polygon fill="white" stroke="#666666" points="265,-19 161,-19 161,0 265,0 265,-19"/>
<text text-anchor="middle" x="213" y="-7" font-family="Helvetica,sans-Serif" font-size="10.00">DuplicatesModel::db</text>
</a>
</g>
</g>
<!-- Node1&#45;&gt;Node3 -->
<g id="edge2" class="edge">
<title>Node1&#45;&gt;Node3</title>
<path fill="none" stroke="#63b8ff" d="M120.25,-20.44C129.87,-19.29 139.86,-18.1 149.55,-16.94"/>
<polygon fill="#63b8ff" stroke="#63b8ff" points="149.74,-20.45 159.25,-15.79 148.91,-13.5 149.74,-20.45"/>
</g>
</g>
</svg>
