<?xml version="1.0" encoding="UTF-8" standalone="no"?>
<!DOCTYPE svg PUBLIC "-//W3C//DTD SVG 1.1//EN"
 "http://www.w3.org/Graphics/SVG/1.1/DTD/svg11.dtd">
<!-- Generated by graphviz version 7.0.5 (20221223.1930)
 -->
<!-- Title: Photo::Data Pages: 1 -->
<svg width="306pt" height="124pt"
 viewBox="0.00 0.00 306.00 124.00" xmlns="http://www.w3.org/2000/svg" xmlns:xlink="http://www.w3.org/1999/xlink">
<g id="graph0" class="graph" transform="scale(1 1) rotate(0) translate(4 120)">
<title>Photo::Data</title>
<!-- Node1 -->
<g id="node1" class="node">
<title>Node1</title>
<g id="a_node1"><a xlink:title="Structure containing full set of photo details.">
<polygon fill="#999999" stroke="#666666" points="298,-67.5 231,-67.5 231,-48.5 298,-48.5 298,-67.5"/>
<text text-anchor="middle" x="264.5" y="-55.5" font-family="Helvetica,sans-Serif" font-size="10.00">Photo::Data</text>
</a>
</g>
</g>
<!-- Node2 -->
<g id="node2" class="node">
<title>Node2</title>
<g id="a_node2"><a xlink:href="../../db/dfb/class_id.html" target="_top" xlink:title=" ">
<polygon fill="white" stroke="#666666" points="149,-116 3,-116 3,-86 149,-86 149,-116"/>
<text text-anchor="start" x="11" y="-104" font-family="Helvetica,sans-Serif" font-size="10.00">Id&lt; int, struct photo</text>
<text text-anchor="middle" x="76" y="-93" font-family="Helvetica,sans-Serif" font-size="10.00">_tag &gt;&lt; int, struct photo_tag &gt;</text>
</a>
</g>
</g>
<!-- Node2&#45;&gt;Node1 -->
<g id="edge1" class="edge">
<title>Node2&#45;&gt;Node1</title>
<path fill="none" stroke="#9a32cd" stroke-dasharray="5,2" d="M160.06,-85.08C177.6,-81.39 195.96,-77.28 213,-73 219.03,-71.49 225.42,-69.72 231.56,-67.94"/>
<polygon fill="#9a32cd" stroke="#9a32cd" points="159.82,-81.55 150.74,-87.01 161.24,-88.41 159.82,-81.55"/>
<text text-anchor="middle" x="191.5" y="-85" font-family="Helvetica,sans-Serif" font-size="10.00"> id</text>
</g>
<!-- Node3 -->
<g id="node3" class="node">
<title>Node3</title>
<g id="a_node3"><a xlink:href="../../d8/d51/struct_group_info.html" target="_top" xlink:title=" ">
<polygon fill="#fff0f0" stroke="red" points="105.5,-67.5 46.5,-67.5 46.5,-48.5 105.5,-48.5 105.5,-67.5"/>
<text text-anchor="middle" x="76" y="-55.5" font-family="Helvetica,sans-Serif" font-size="10.00">GroupInfo</text>
</a>
</g>
</g>
<!-- Node3&#45;&gt;Node1 -->
<g id="edge2" class="edge">
<title>Node3&#45;&gt;Node1</title>
<path fill="none" stroke="#9a32cd" stroke-dasharray="5,2" d="M117.09,-58C150.99,-58 198.98,-58 230.65,-58"/>
<polygon fill="#9a32cd" stroke="#9a32cd" points="117.25,-54.5 107.25,-58 117.25,-61.5 117.25,-54.5"/>
<text text-anchor="middle" x="191.5" y="-61" font-family="Helvetica,sans-Serif" font-size="10.00"> groupInfo</text>
</g>
<!-- Node5 -->
<g id="node4" class="node">
<title>Node5</title>
<g id="a_node4"><a xlink:href="../../db/dfb/class_id.html" target="_top" xlink:title=" ">
<polygon fill="white" stroke="#666666" points="152,-30 0,-30 0,0 152,0 152,-30"/>
<text text-anchor="start" x="8" y="-18" font-family="Helvetica,sans-Serif" font-size="10.00">Id&lt; int, struct photo</text>
<text text-anchor="middle" x="76" y="-7" font-family="Helvetica,sans-Serif" font-size="10.00">_tag &gt;&lt; qlonglong, phash_tag &gt;</text>
</a>
</g>
</g>
<!-- Node5&#45;&gt;Node1 -->
<g id="edge3" class="edge">
<title>Node5&#45;&gt;Node1</title>
<path fill="none" stroke="#9a32cd" stroke-dasharray="5,2" d="M163.7,-31.69C180.13,-35.18 197.14,-39.02 213,-43 219.03,-44.51 225.42,-46.28 231.56,-48.06"/>
<polygon fill="#9a32cd" stroke="#9a32cd" points="164.43,-28.27 153.92,-29.64 162.99,-35.12 164.43,-28.27"/>
<text text-anchor="middle" x="191.5" y="-46" font-family="Helvetica,sans-Serif" font-size="10.00"> phash</text>
</g>
</g>
</svg>
