<?xml version="1.0" encoding="UTF-8" standalone="no"?>
<!DOCTYPE svg PUBLIC "-//W3C//DTD SVG 1.1//EN"
 "http://www.w3.org/Graphics/SVG/1.1/DTD/svg11.dtd">
<!-- Generated by graphviz version 12.2.0 (20241103.1931)
 -->
<!-- Title: Database::SqlQueryExecutor Pages: 1 -->
<svg width="218pt" height="94pt"
 viewBox="0.00 0.00 217.50 93.75" xmlns="http://www.w3.org/2000/svg" xmlns:xlink="http://www.w3.org/1999/xlink">
<g id="graph0" class="graph" transform="scale(1 1) rotate(0) translate(4 89.75)">
<title>Database::SqlQueryExecutor</title>
<!-- Node1 -->
<g id="Node000001" class="node">
<title>Node1</title>
<g id="a_Node000001"><a xlink:title=" ">
<polygon fill="#999999" stroke="#666666" points="197.5,-19.25 58.5,-19.25 58.5,0 197.5,0 197.5,-19.25"/>
<text text-anchor="middle" x="128" y="-5.75" font-family="Helvetica,sans-Serif" font-size="10.00">Database::SqlQueryExecutor</text>
</a>
</g>
</g>
<!-- Node2 -->
<g id="Node000002" class="node">
<title>Node2</title>
<g id="a_Node000002"><a xlink:href="../../d9/d1b/struct_database_1_1_i_sql_query_executor.html" target="_top" xlink:title=" ">
<polygon fill="white" stroke="#666666" points="142,-85.75 0,-85.75 0,-66.5 142,-66.5 142,-85.75"/>
<text text-anchor="middle" x="71" y="-72.25" font-family="Helvetica,sans-Serif" font-size="10.00">Database::ISqlQueryExecutor</text>
</a>
</g>
</g>
<!-- Node2&#45;&gt;Node1 -->
<g id="edge1_Node000001_Node000002" class="edge">
<title>Node2&#45;&gt;Node1</title>
<g id="a_edge1_Node000001_Node000002"><a xlink:title=" ">
<path fill="none" stroke="#63b8ff" d="M86.48,-57.61C97.37,-45.28 111.49,-29.31 120.14,-19.52"/>
<polygon fill="#63b8ff" stroke="#63b8ff" points="83.93,-55.21 79.93,-65.02 89.17,-59.85 83.93,-55.21"/>
</a>
</g>
</g>
<!-- Node3 -->
<g id="Node000003" class="node">
<title>Node3</title>
<g id="a_Node000003"><a xlink:href="../../df/ddd/struct_i_logger.html" target="_top" xlink:title=" ">
<polygon fill="white" stroke="#666666" points="209.5,-85.75 160.5,-85.75 160.5,-66.5 209.5,-66.5 209.5,-85.75"/>
<text text-anchor="middle" x="185" y="-72.25" font-family="Helvetica,sans-Serif" font-size="10.00">ILogger</text>
</a>
</g>
</g>
<!-- Node3&#45;&gt;Node1 -->
<g id="edge2_Node000001_Node000003" class="edge">
<title>Node3&#45;&gt;Node1</title>
<g id="a_edge2_Node000001_Node000003"><a xlink:title=" ">
<path fill="none" stroke="#9a32cd" stroke-dasharray="5,2" d="M169.52,-57.61C158.63,-45.28 144.51,-29.31 135.86,-19.52"/>
<polygon fill="#9a32cd" stroke="#9a32cd" points="166.83,-59.85 176.07,-65.02 172.07,-55.21 166.83,-59.85"/>
</a>
</g>
<text text-anchor="middle" x="180.91" y="-39" font-family="Helvetica,sans-Serif" font-size="10.00" fill="grey"> m_logger</text>
</g>
</g>
</svg>
