<?xml version="1.0" encoding="UTF-8" standalone="no"?>
<!DOCTYPE svg PUBLIC "-//W3C//DTD SVG 1.1//EN"
 "http://www.w3.org/Graphics/SVG/1.1/DTD/svg11.dtd">
<!-- Generated by graphviz version 9.0.0 (20230911.1827)
 -->
<!-- Title: Database::GenericSqlQueryConstructor Pages: 1 -->
<svg width="461pt" height="160pt"
 viewBox="0.00 0.00 460.75 160.25" xmlns="http://www.w3.org/2000/svg" xmlns:xlink="http://www.w3.org/1999/xlink">

<svg id="main" version="1.1" xmlns="http://www.w3.org/2000/svg" xmlns:xlink="http://www.w3.org/1999/xlink" xml:space="preserve" onload="init(evt)">
<style type="text/css"><![CDATA[
.node, .edge {opacity: 0.7;}
.node.selected, .edge.selected {opacity: 1;}
.edge:hover path { stroke: red; }
.edge:hover polygon { stroke: red; fill: red; }
]]></style>
<script type="application/ecmascript" xlink:href="../../svg.min.js"/>
<svg id="graph" class="graph">
<g id="graph0" class="graph" transform="scale(1 1) rotate(0) translate(4 156.25)">
<title>Database::GenericSqlQueryConstructor</title>
<!-- Node1 -->
<g id="Node000001" class="node">
<title>Node1</title>
<g id="a_Node000001"><a xlink:title=" ">
<polygon fill="#999999" stroke="#666666" points="278.12,-85.75 142.88,-85.75 142.88,-55.25 278.12,-55.25 278.12,-85.75"/>
<text text-anchor="start" x="150.88" y="-72.25" font-family="Helvetica,sans-Serif" font-size="10.00">Database::GenericSqlQuery</text>
<text text-anchor="middle" x="210.5" y="-61" font-family="Helvetica,sans-Serif" font-size="10.00">Constructor</text>
</a>
</g>
</g>
<!-- Node3 -->
<g id="Node000003" class="node">
<title>Node3</title>
<g id="a_Node000003"><a xlink:href="../../de/db1/class_database_1_1_my_sql_backend.html" target="_top" xlink:title=" ">
<polygon fill="white" stroke="#666666" points="127,-19.25 0,-19.25 0,0 127,0 127,-19.25"/>
<text text-anchor="middle" x="63.5" y="-5.75" font-family="Helvetica,sans-Serif" font-size="10.00">Database::MySqlBackend</text>
</a>
</g>
</g>
<!-- Node1&#45;&gt;Node3 -->
<g id="edge2_Node000001_Node000003" class="edge">
<title>Node1&#45;&gt;Node3</title>
<g id="a_edge2_Node000001_Node000003"><a xlink:title=" ">
<path fill="none" stroke="#8b1a1a" d="M163.41,-50.64C137.51,-40.27 106.56,-27.87 86.04,-19.65"/>
<polygon fill="#8b1a1a" stroke="#8b1a1a" points="161.8,-53.76 172.38,-54.23 164.4,-47.27 161.8,-53.76"/>
</a>
</g>
</g>
<!-- Node4 -->
<g id="Node000004" class="node">
<title>Node4</title>
<g id="a_Node000004"><a xlink:href="../../d6/dd8/class_database_1_1_s_q_lite_backend.html" target="_top" xlink:title=" ">
<polygon fill="white" stroke="#666666" points="275.88,-19.25 145.12,-19.25 145.12,0 275.88,0 275.88,-19.25"/>
<text text-anchor="middle" x="210.5" y="-5.75" font-family="Helvetica,sans-Serif" font-size="10.00">Database::SQLiteBackend</text>
</a>
</g>
</g>
<!-- Node1&#45;&gt;Node4 -->
<g id="edge3_Node000001_Node000004" class="edge">
<title>Node1&#45;&gt;Node4</title>
<g id="a_edge3_Node000001_Node000004"><a xlink:title=" ">
<path fill="none" stroke="#8b1a1a" d="M210.5,-43.48C210.5,-34.98 210.5,-26.09 210.5,-19.7"/>
<polygon fill="#8b1a1a" stroke="#8b1a1a" points="207,-43.43 210.5,-53.43 214,-43.43 207,-43.43"/>
</a>
</g>
</g>
<!-- Node5 -->
<g id="Node000005" class="node">
<title>Node5</title>
<g id="a_Node000005"><a xlink:href="../../d1/dff/struct_generic_sql_query_constructor_impl.html" target="_top" xlink:title=" ">
<polygon fill="white" stroke="#666666" points="452.75,-19.25 294.25,-19.25 294.25,0 452.75,0 452.75,-19.25"/>
<text text-anchor="middle" x="373.5" y="-5.75" font-family="Helvetica,sans-Serif" font-size="10.00">GenericSqlQueryConstructorImpl</text>
</a>
</g>
</g>
<!-- Node1&#45;&gt;Node5 -->
<g id="edge4_Node000001_Node000005" class="edge">
<title>Node1&#45;&gt;Node5</title>
<g id="a_edge4_Node000001_Node000005"><a xlink:title=" ">
<path fill="none" stroke="#63b8ff" d="M261.95,-50.91C290.83,-40.49 325.55,-27.94 348.5,-19.65"/>
<polygon fill="#63b8ff" stroke="#63b8ff" points="260.85,-47.59 252.63,-54.28 263.23,-54.18 260.85,-47.59"/>
</a>
</g>
</g>
<!-- Node2 -->
<g id="Node000002" class="node">
<title>Node2</title>
<g id="a_Node000002"><a xlink:href="../../d1/d71/struct_database_1_1_i_generic_sql_query_generator.html" target="_top" xlink:title=" ">
<polygon fill="white" stroke="#666666" points="279.62,-152.25 141.38,-152.25 141.38,-121.75 279.62,-121.75 279.62,-152.25"/>
<text text-anchor="start" x="149.38" y="-138.75" font-family="Helvetica,sans-Serif" font-size="10.00">Database::IGenericSqlQuery</text>
<text text-anchor="middle" x="210.5" y="-127.5" font-family="Helvetica,sans-Serif" font-size="10.00">Generator</text>
</a>
</g>
</g>
<!-- Node2&#45;&gt;Node1 -->
<g id="edge1_Node000001_Node000002" class="edge">
<title>Node2&#45;&gt;Node1</title>
<g id="a_edge1_Node000001_Node000002"><a xlink:title=" ">
<path fill="none" stroke="#63b8ff" d="M210.5,-110.06C210.5,-101.89 210.5,-93.16 210.5,-86.08"/>
<polygon fill="#63b8ff" stroke="#63b8ff" points="207,-109.85 210.5,-119.85 214,-109.85 207,-109.85"/>
</a>
</g>
</g>
</g>
</svg>
</svg>

<style type='text/css'>
<![CDATA[
[data-mouse-over-selected='false'] { opacity: 0.7; }
[data-mouse-over-selected='true']  { opacity: 1.0; }
]]>
</style>
<script type="application/ecmascript"><![CDATA[
document.addEventListener('DOMContentLoaded', (event) => {
  highlightEdges();
  highlightAdjacentNodes();
});
]]></script>
</svg>
