<?xml version="1.0" encoding="UTF-8" standalone="no"?>
<!DOCTYPE svg PUBLIC "-//W3C//DTD SVG 1.1//EN"
 "http://www.w3.org/Graphics/SVG/1.1/DTD/svg11.dtd">
<!-- Generated by graphviz version 7.0.5 (20221223.1930)
 -->
<!-- Title: ProjectManager::open Pages: 1 -->
<svg width="313pt" height="175pt"
 viewBox="0.00 0.00 313.00 175.00" xmlns="http://www.w3.org/2000/svg" xmlns:xlink="http://www.w3.org/1999/xlink">
<g id="graph0" class="graph" transform="scale(1 1) rotate(0) translate(4 171)">
<title>ProjectManager::open</title>
<!-- Node1 -->
<g id="node1" class="node">
<title>Node1</title>
<g id="a_node1"><a xlink:title=" ">
<polygon fill="#999999" stroke="#666666" points="110,-93 0,-93 0,-74 110,-74 110,-93"/>
<text text-anchor="middle" x="55" y="-81" font-family="Helvetica,sans-Serif" font-size="10.00">ProjectManager::open</text>
</a>
</g>
</g>
<!-- Node2 -->
<g id="node2" class="node">
<title>Node2</title>
<g id="a_node2"><a xlink:href="../../d7/d93/class_project_manager.html#aea9b42030084afc5ff2582a006e936ad" target="_top" xlink:title=" ">
<polygon fill="#fff0f0" stroke="red" points="305,-167 146,-167 146,-148 305,-148 305,-167"/>
<text text-anchor="middle" x="225.5" y="-155" font-family="Helvetica,sans-Serif" font-size="10.00">ProjectManager::createIgnoreFile</text>
</a>
</g>
</g>
<!-- Node1&#45;&gt;Node2 -->
<g id="edge1" class="edge">
<title>Node1&#45;&gt;Node2</title>
<path fill="none" stroke="#63b8ff" d="M68.67,-93.3C85.46,-105.81 116.4,-127.3 146,-139.5 150.29,-141.27 154.79,-142.88 159.37,-144.35"/>
<polygon fill="#63b8ff" stroke="#63b8ff" points="158.1,-147.63 168.68,-147.09 160.08,-140.91 158.1,-147.63"/>
</g>
<!-- Node4 -->
<g id="node3" class="node">
<title>Node4</title>
<g id="a_node3"><a xlink:href="../../d0/de5/class_status.html#ac51f9ca7e73f57294c972e03da51782c" target="_top" xlink:title=" ">
<polygon fill="white" stroke="#666666" points="257,-130 194,-130 194,-111 257,-111 257,-130"/>
<text text-anchor="middle" x="225.5" y="-118" font-family="Helvetica,sans-Serif" font-size="10.00">Status::get</text>
</a>
</g>
</g>
<!-- Node1&#45;&gt;Node4 -->
<g id="edge2" class="edge">
<title>Node1&#45;&gt;Node4</title>
<path fill="none" stroke="#63b8ff" d="M101.15,-93.42C126.4,-98.96 157.67,-105.82 182.4,-111.26"/>
<polygon fill="#63b8ff" stroke="#63b8ff" points="181.62,-114.67 192.13,-113.39 183.12,-107.83 181.62,-114.67"/>
</g>
<!-- Node5 -->
<g id="node4" class="node">
<title>Node5</title>
<g id="a_node4"><a xlink:href="../../dc/d82/struct_database_1_1_i_builder.html#a970a3ca7399d63b6b8ced7980902e23e" target="_top" xlink:title=" ">
<polygon fill="white" stroke="#666666" points="282,-93 169,-93 169,-74 282,-74 282,-93"/>
<text text-anchor="middle" x="225.5" y="-81" font-family="Helvetica,sans-Serif" font-size="10.00">Database::IBuilder::get</text>
</a>
</g>
</g>
<!-- Node1&#45;&gt;Node5 -->
<g id="edge3" class="edge">
<title>Node1&#45;&gt;Node5</title>
<path fill="none" stroke="#63b8ff" d="M110.24,-83.5C125.26,-83.5 141.74,-83.5 157.4,-83.5"/>
<polygon fill="#63b8ff" stroke="#63b8ff" points="157.11,-87 167.11,-83.5 157.11,-80 157.11,-87"/>
</g>
<!-- Node6 -->
<g id="node5" class="node">
<title>Node6</title>
<g id="a_node5"><a xlink:href="../../da/df4/struct_project_info.html#a71068380a217d3811d085c1ab1aadf59" target="_top" xlink:title=" ">
<polygon fill="white" stroke="#666666" points="283.5,-56 167.5,-56 167.5,-37 283.5,-37 283.5,-56"/>
<text text-anchor="middle" x="225.5" y="-44" font-family="Helvetica,sans-Serif" font-size="10.00">ProjectInfo::getBaseDir</text>
</a>
</g>
</g>
<!-- Node1&#45;&gt;Node6 -->
<g id="edge4" class="edge">
<title>Node1&#45;&gt;Node6</title>
<path fill="none" stroke="#63b8ff" d="M101.15,-73.58C121.74,-69.06 146.33,-63.66 168.12,-58.88"/>
<polygon fill="#63b8ff" stroke="#63b8ff" points="168.73,-62.33 177.74,-56.77 167.22,-55.49 168.73,-62.33"/>
</g>
<!-- Node7 -->
<g id="node6" class="node">
<title>Node7</title>
<g id="a_node6"><a xlink:href="../../da/df4/struct_project_info.html#a781e4f7abfbb6dce848bc1f0e6e46c55" target="_top" xlink:title=" ">
<polygon fill="white" stroke="#666666" points="276.5,-19 174.5,-19 174.5,0 276.5,0 276.5,-19"/>
<text text-anchor="middle" x="225.5" y="-7" font-family="Helvetica,sans-Serif" font-size="10.00">ProjectInfo::getPath</text>
</a>
</g>
</g>
<!-- Node1&#45;&gt;Node7 -->
<g id="edge5" class="edge">
<title>Node1&#45;&gt;Node7</title>
<path fill="none" stroke="#63b8ff" d="M69.31,-73.52C86.28,-61.24 116.91,-40.56 146,-28.5 151.59,-26.18 157.52,-24.11 163.52,-22.26"/>
<polygon fill="#63b8ff" stroke="#63b8ff" points="164.23,-25.7 172.89,-19.59 162.31,-18.97 164.23,-25.7"/>
</g>
</g>
</svg>
