<?xml version="1.0" encoding="UTF-8" standalone="no"?>
<!DOCTYPE svg PUBLIC "-//W3C//DTD SVG 1.1//EN"
 "http://www.w3.org/Graphics/SVG/1.1/DTD/svg11.dtd">
<!-- Generated by graphviz version 7.0.5 (20221223.1930)
 -->
<!-- Title: FaceRecognition::getFingerprint Pages: 1 -->
<svg width="308pt" height="76pt"
 viewBox="0.00 0.00 308.00 75.50" xmlns="http://www.w3.org/2000/svg" xmlns:xlink="http://www.w3.org/1999/xlink">
<g id="graph0" class="graph" transform="scale(1 1) rotate(0) translate(4 71.5)">
<title>FaceRecognition::getFingerprint</title>
<!-- Node1 -->
<g id="node1" class="node">
<title>Node1</title>
<g id="a_node1"><a xlink:title=" ">
<polygon fill="#999999" stroke="#666666" points="153,-40 0,-40 0,-21 153,-21 153,-40"/>
<text text-anchor="middle" x="76.5" y="-28" font-family="Helvetica,sans-Serif" font-size="10.00">FaceRecognition::getFingerprint</text>
</a>
</g>
</g>
<!-- Node2 -->
<g id="node2" class="node">
<title>Node2</title>
<g id="a_node2"><a xlink:href="../../d6/d92/classdlib__api_1_1_face_encoder.html#af1632981b17255233c575e6580b64630" target="_top" xlink:title=" ">
<polygon fill="#fff0f0" stroke="red" points="300,-67.5 189,-67.5 189,-37.5 300,-37.5 300,-67.5"/>
<text text-anchor="start" x="197" y="-55.5" font-family="Helvetica,sans-Serif" font-size="10.00">dlib_api::FaceEncoder</text>
<text text-anchor="middle" x="244.5" y="-44.5" font-family="Helvetica,sans-Serif" font-size="10.00">::face_encodings</text>
</a>
</g>
</g>
<!-- Node1&#45;&gt;Node2 -->
<g id="edge1" class="edge">
<title>Node1&#45;&gt;Node2</title>
<path fill="none" stroke="#63b8ff" d="M152.73,-40.47C161.01,-41.57 169.39,-42.68 177.55,-43.76"/>
<polygon fill="#63b8ff" stroke="#63b8ff" points="177.01,-47.22 187.39,-45.06 177.93,-40.28 177.01,-47.22"/>
</g>
<!-- Node4 -->
<g id="node3" class="node">
<title>Node4</title>
<g id="a_node3"><a xlink:href="../../d5/db6/class_oriented_image.html#a1b407afa9fabdcd03a5964a54ccfa6b5" target="_top" xlink:title=" ">
<polygon fill="white" stroke="#666666" points="293.5,-19 195.5,-19 195.5,0 293.5,0 293.5,-19"/>
<text text-anchor="middle" x="244.5" y="-7" font-family="Helvetica,sans-Serif" font-size="10.00">OrientedImage::get</text>
</a>
</g>
</g>
<!-- Node1&#45;&gt;Node4 -->
<g id="edge2" class="edge">
<title>Node1&#45;&gt;Node4</title>
<path fill="none" stroke="#63b8ff" d="M153.21,-20.92C163.65,-19.6 174.24,-18.26 184.32,-16.99"/>
<polygon fill="#63b8ff" stroke="#63b8ff" points="184.47,-20.5 193.95,-15.77 183.59,-13.55 184.47,-20.5"/>
</g>
</g>
</svg>
