<?xml version="1.0" encoding="UTF-8" standalone="no"?>
<!DOCTYPE svg PUBLIC "-//W3C//DTD SVG 1.1//EN"
 "http://www.w3.org/Graphics/SVG/1.1/DTD/svg11.dtd">
<!-- Generated by graphviz version 12.2.0 (20241103.1931)
 -->
<!-- Title: HDRGenerator::run Pages: 1 -->
<svg width="454pt" height="293pt"
 viewBox="0.00 0.00 453.50 293.25" xmlns="http://www.w3.org/2000/svg" xmlns:xlink="http://www.w3.org/1999/xlink">

<svg id="main" version="1.1" xmlns="http://www.w3.org/2000/svg" xmlns:xlink="http://www.w3.org/1999/xlink" xml:space="preserve">

<style type="text/css"><![CDATA[
.node, .edge {opacity: 0.7;}
.node.selected, .edge.selected {opacity: 1;}
.edge:hover path { stroke: red; }
.edge:hover polygon { stroke: red; fill: red; }
]]></style>
<script type="application/ecmascript" xlink:href="../../svg.min.js"/>
<svg id="graph" class="graph">
<g id="graph0" class="graph" transform="scale(1 1) rotate(0) translate(4 289.25)">
<title>HDRGenerator::run</title>
<!-- Node1 -->
<g id="Node000001" class="node">
<title>Node1</title>
<g id="a_Node000001"><a xlink:title=" ">
<polygon fill="#999999" stroke="#666666" points="97.75,-143.25 0,-143.25 0,-124 97.75,-124 97.75,-143.25"/>
<text text-anchor="middle" x="48.88" y="-129.75" font-family="Helvetica,sans-Serif" font-size="10.00">HDRGenerator::run</text>
</a>
</g>
</g>
<!-- Node2 -->
<g id="Node000002" class="node">
<title>Node2</title>
<g id="a_Node000002"><a xlink:href="../../d3/d6f/namespace_h_d_r.html#a13092d6bb1fbae14e314f076d5add541" target="_top" xlink:title=" ">
<polygon fill="#fff0f0" stroke="red" points="249.88,-267.25 166.38,-267.25 166.38,-248 249.88,-248 249.88,-267.25"/>
<text text-anchor="middle" x="208.12" y="-253.75" font-family="Helvetica,sans-Serif" font-size="10.00">HDR::assemble</text>
</a>
</g>
</g>
<!-- Node1&#45;&gt;Node2 -->
<g id="edge1_Node000001_Node000002" class="edge">
<title>Node1&#45;&gt;Node2</title>
<g id="a_edge1_Node000001_Node000002"><a xlink:title=" ">
<path fill="none" stroke="#63b8ff" d="M54.87,-143.48C66.01,-164.43 94.98,-213.5 133.75,-238.62 140.2,-242.81 147.54,-246.07 155.01,-248.62"/>
<polygon fill="#63b8ff" stroke="#63b8ff" points="153.94,-251.95 164.52,-251.43 155.92,-245.24 153.94,-251.95"/>
</a>
</g>
</g>
<!-- Node4 -->
<g id="Node000004" class="node">
<title>Node4</title>
<g id="a_Node000004"><a xlink:href="../../dc/dc9/class_generator_utils_1_1_breakable_task.html#afdf888ff3ce66c0559885b2582068e22" target="_top" xlink:title=" ">
<polygon fill="white" stroke="#666666" points="271.62,-229.88 144.62,-229.88 144.62,-199.38 271.62,-199.38 271.62,-229.88"/>
<text text-anchor="start" x="152.62" y="-216.38" font-family="Helvetica,sans-Serif" font-size="10.00">GeneratorUtils::Breakable</text>
<text text-anchor="middle" x="208.12" y="-205.12" font-family="Helvetica,sans-Serif" font-size="10.00">Task::finished</text>
</a>
</g>
</g>
<!-- Node1&#45;&gt;Node4 -->
<g id="edge3_Node000001_Node000004" class="edge">
<title>Node1&#45;&gt;Node4</title>
<g id="a_edge3_Node000001_Node000004"><a xlink:title=" ">
<path fill="none" stroke="#63b8ff" d="M62.26,-143.7C78.05,-156.13 106.57,-177.28 133.75,-190.62 136.63,-192.04 139.6,-193.4 142.64,-194.7"/>
<polygon fill="#63b8ff" stroke="#63b8ff" points="141.14,-197.87 151.72,-198.34 143.74,-191.37 141.14,-197.87"/>
</a>
</g>
</g>
<!-- Node5 -->
<g id="Node000005" class="node">
<title>Node5</title>
<g id="a_Node000005"><a xlink:href="../../dc/ddb/struct_system.html#ad5581178d3fe12a658fe8af70c4e4a9c" target="_top" xlink:title="generate unique file name">
<polygon fill="white" stroke="#666666" points="278,-181.25 138.25,-181.25 138.25,-162 278,-162 278,-181.25"/>
<text text-anchor="middle" x="208.12" y="-167.75" font-family="Helvetica,sans-Serif" font-size="10.00">System::getUniqueFileName</text>
</a>
</g>
</g>
<!-- Node1&#45;&gt;Node5 -->
<g id="edge4_Node000001_Node000005" class="edge">
<title>Node1&#45;&gt;Node5</title>
<g id="a_edge4_Node000001_Node000005"><a xlink:title=" ">
<path fill="none" stroke="#63b8ff" d="M91.6,-143.71C110.87,-148.37 133.97,-153.95 154.42,-158.89"/>
<polygon fill="#63b8ff" stroke="#63b8ff" points="153.46,-162.26 164,-161.2 155.11,-155.45 153.46,-162.26"/>
</a>
</g>
</g>
<!-- Node6 -->
<g id="Node000006" class="node">
<title>Node6</title>
<g id="a_Node000006"><a xlink:href="../../dc/dc9/class_generator_utils_1_1_breakable_task.html#a942a17c818a3d5f88dd2428d8b82d611" target="_top" xlink:title=" ">
<polygon fill="white" stroke="#666666" points="445.5,-138.88 318.5,-138.88 318.5,-108.38 445.5,-108.38 445.5,-138.88"/>
<text text-anchor="start" x="326.5" y="-125.38" font-family="Helvetica,sans-Serif" font-size="10.00">GeneratorUtils::Breakable</text>
<text text-anchor="middle" x="382" y="-114.12" font-family="Helvetica,sans-Serif" font-size="10.00">Task::operation</text>
</a>
</g>
</g>
<!-- Node1&#45;&gt;Node6 -->
<g id="edge5_Node000001_Node000006" class="edge">
<title>Node1&#45;&gt;Node6</title>
<g id="a_edge5_Node000001_Node000006"><a xlink:title=" ">
<path fill="none" stroke="#63b8ff" d="M98.02,-132.17C152.85,-130.52 243.06,-127.79 306.87,-125.86"/>
<polygon fill="#63b8ff" stroke="#63b8ff" points="306.66,-129.37 316.55,-125.57 306.45,-122.37 306.66,-129.37"/>
</a>
</g>
</g>
<!-- Node7 -->
<g id="Node000007" class="node">
<title>Node7</title>
<g id="a_Node000007"><a xlink:href="../../dc/dc9/class_generator_utils_1_1_breakable_task.html#a32d1b87cb6dcd42a9d9a860d3fcae8f3" target="_top" xlink:title=" ">
<polygon fill="#fff0f0" stroke="red" points="271.62,-105.88 144.62,-105.88 144.62,-75.38 271.62,-75.38 271.62,-105.88"/>
<text text-anchor="start" x="152.62" y="-92.38" font-family="Helvetica,sans-Serif" font-size="10.00">GeneratorUtils::Breakable</text>
<text text-anchor="middle" x="208.12" y="-81.12" font-family="Helvetica,sans-Serif" font-size="10.00">Task::preparePhotos</text>
</a>
</g>
</g>
<!-- Node1&#45;&gt;Node7 -->
<g id="edge6_Node000001_Node000007" class="edge">
<title>Node1&#45;&gt;Node7</title>
<g id="a_edge6_Node000001_Node000007"><a xlink:title=" ">
<path fill="none" stroke="#63b8ff" d="M86.74,-123.54C102.23,-119.31 120.76,-114.24 138.59,-109.37"/>
<polygon fill="#63b8ff" stroke="#63b8ff" points="139.38,-112.78 148.1,-106.76 137.53,-106.03 139.38,-112.78"/>
</a>
</g>
</g>
<!-- Node11 -->
<g id="Node000011" class="node">
<title>Node11</title>
<g id="a_Node000011"><a xlink:href="../../dc/dc9/class_generator_utils_1_1_breakable_task.html#a9ff152425e4a7563a10b24f2c37de1a8" target="_top" xlink:title=" ">
<polygon fill="white" stroke="#666666" points="445.5,-80.88 318.5,-80.88 318.5,-50.38 445.5,-50.38 445.5,-80.88"/>
<text text-anchor="start" x="326.5" y="-67.38" font-family="Helvetica,sans-Serif" font-size="10.00">GeneratorUtils::Breakable</text>
<text text-anchor="middle" x="382" y="-56.12" font-family="Helvetica,sans-Serif" font-size="10.00">Task::progress</text>
</a>
</g>
</g>
<!-- Node1&#45;&gt;Node11 -->
<g id="edge9_Node000001_Node000011" class="edge">
<title>Node1&#45;&gt;Node11</title>
<g id="a_edge9_Node000001_Node000011"><a xlink:title=" ">
<path fill="none" stroke="#63b8ff" d="M57.93,-123.92C71.59,-108.3 101.06,-78.15 133.75,-66.62 189.33,-47.02 256.42,-48.16 306.68,-53.43"/>
<polygon fill="#63b8ff" stroke="#63b8ff" points="306.27,-56.9 316.6,-54.56 307.06,-49.95 306.27,-56.9"/>
</a>
</g>
</g>
<!-- Node12 -->
<g id="Node000012" class="node">
<title>Node12</title>
<g id="a_Node000012"><a xlink:href="../../dd/d14/class_image_aligner.html#a1ad7a39fe6eacce1eed7f05ed07cd887" target="_top" xlink:title=" ">
<polygon fill="white" stroke="#666666" points="282.5,-19.25 133.75,-19.25 133.75,0 282.5,0 282.5,-19.25"/>
<text text-anchor="middle" x="208.12" y="-5.75" font-family="Helvetica,sans-Serif" font-size="10.00">ImageAligner::registerProgress</text>
</a>
</g>
</g>
<!-- Node1&#45;&gt;Node12 -->
<g id="edge10_Node000001_Node000012" class="edge">
<title>Node1&#45;&gt;Node12</title>
<g id="a_edge10_Node000001_Node000012"><a xlink:title=" ">
<path fill="none" stroke="#63b8ff" d="M55.66,-123.51C67.64,-103.44 97.15,-58.37 133.75,-33.62 139.51,-29.73 145.94,-26.43 152.54,-23.65"/>
<polygon fill="#63b8ff" stroke="#63b8ff" points="153.46,-27.04 161.56,-20.21 150.97,-20.5 153.46,-27.04"/>
</a>
</g>
</g>
<!-- Node2&#45;&gt;Node2 -->
<g id="edge2_Node000002_Node000002" class="edge">
<title>Node2&#45;&gt;Node2</title>
<g id="a_edge2_Node000002_Node000002"><a xlink:title=" ">
<path fill="none" stroke="#63b8ff" d="M183.19,-267.54C171.82,-276.15 180.13,-285.25 208.12,-285.25 223.87,-285.25 233.39,-282.37 236.68,-278.32"/>
<polygon fill="#63b8ff" stroke="#63b8ff" points="240.04,-277.34 233.54,-268.97 233.41,-279.57 240.04,-277.34"/>
</a>
</g>
</g>
<!-- Node7&#45;&gt;Node6 -->
<g id="edge7_Node000007_Node000006" class="edge">
<title>Node7&#45;&gt;Node6</title>
<g id="a_edge7_Node000007_Node000006"><a xlink:title=" ">
<path fill="none" stroke="#63b8ff" d="M271.66,-102.63C283.15,-104.84 295.25,-107.16 307.04,-109.42"/>
<polygon fill="#63b8ff" stroke="#63b8ff" points="306.25,-112.84 316.74,-111.29 307.57,-105.96 306.25,-112.84"/>
</a>
</g>
</g>
<!-- Node7&#45;&gt;Node11 -->
<g id="edge8_Node000007_Node000011" class="edge">
<title>Node7&#45;&gt;Node11</title>
<g id="a_edge8_Node000007_Node000011"><a xlink:title=" ">
<path fill="none" stroke="#63b8ff" d="M271.66,-81.53C283.15,-79.86 295.25,-78.1 307.04,-76.38"/>
<polygon fill="#63b8ff" stroke="#63b8ff" points="307.33,-79.88 316.72,-74.97 306.32,-72.95 307.33,-79.88"/>
</a>
</g>
</g>
</g>
</svg>
</svg>

<style type='text/css'>
<![CDATA[
[data-mouse-over-selected='false'] { opacity: 0.7; }
[data-mouse-over-selected='true']  { opacity: 1.0; }
]]>
</style>
<script type="application/ecmascript"><![CDATA[
document.addEventListener('DOMContentLoaded', (event) => {
  highlightEdges();
  highlightAdjacentNodes();
});
]]></script>
</svg>
