<?xml version="1.0" encoding="UTF-8" standalone="no"?>
<!DOCTYPE svg PUBLIC "-//W3C//DTD SVG 1.1//EN"
 "http://www.w3.org/Graphics/SVG/1.1/DTD/svg11.dtd">
<!-- Generated by graphviz version 7.0.5 (20221223.1930)
 -->
<!-- Title: FacesModel::updateDetectionState Pages: 1 -->
<svg width="521pt" height="52pt"
 viewBox="0.00 0.00 521.00 51.50" xmlns="http://www.w3.org/2000/svg" xmlns:xlink="http://www.w3.org/1999/xlink">
<g id="graph0" class="graph" transform="scale(1 1) rotate(0) translate(4 47.5)">
<title>FacesModel::updateDetectionState</title>
<!-- Node1 -->
<g id="node1" class="node">
<title>Node1</title>
<g id="a_node1"><a xlink:title=" ">
<polygon fill="#999999" stroke="#666666" points="513,-43.5 368,-43.5 368,-13.5 513,-13.5 513,-43.5"/>
<text text-anchor="start" x="376" y="-31.5" font-family="Helvetica,sans-Serif" font-size="10.00">FacesModel::updateDetection</text>
<text text-anchor="middle" x="440.5" y="-20.5" font-family="Helvetica,sans-Serif" font-size="10.00">State</text>
</a>
</g>
</g>
<!-- Node2 -->
<g id="node2" class="node">
<title>Node2</title>
<g id="a_node2"><a xlink:href="../../d6/de2/class_faces_model.html#a397143db6743bbc319539a24817bba61" target="_top" xlink:title=" ">
<polygon fill="#fff0f0" stroke="red" points="122,-38 0,-38 0,-19 122,-19 122,-38"/>
<text text-anchor="middle" x="61" y="-26" font-family="Helvetica,sans-Serif" font-size="10.00">FacesModel::initialSetup</text>
</a>
</g>
</g>
<!-- Node1&#45;&gt;Node2 -->
<g id="edge1" class="edge">
<title>Node1&#45;&gt;Node2</title>
<path fill="none" stroke="#63b8ff" d="M356.52,-28.5C285.78,-28.5 185.78,-28.5 122.42,-28.5"/>
<polygon fill="#63b8ff" stroke="#63b8ff" points="356.09,-32 366.09,-28.5 356.09,-25 356.09,-32"/>
</g>
<!-- Node4 -->
<g id="node3" class="node">
<title>Node4</title>
<g id="a_node3"><a xlink:href="../../d6/de2/class_faces_model.html#a29fa146567db7ce576ce48bfaf317b5a" target="_top" xlink:title=" ">
<polygon fill="white" stroke="#666666" points="332,-19 158,-19 158,0 332,0 332,-19"/>
<text text-anchor="middle" x="245" y="-7" font-family="Helvetica,sans-Serif" font-size="10.00">FacesModel::updateFaceInformation</text>
</a>
</g>
</g>
<!-- Node1&#45;&gt;Node4 -->
<g id="edge2" class="edge">
<title>Node1&#45;&gt;Node4</title>
<path fill="none" stroke="#63b8ff" d="M356.53,-20.35C348.54,-19.57 340.42,-18.77 332.39,-17.98"/>
<polygon fill="#63b8ff" stroke="#63b8ff" points="355.92,-23.81 366.22,-21.3 356.61,-16.84 355.92,-23.81"/>
</g>
<!-- Node4&#45;&gt;Node2 -->
<g id="edge3" class="edge">
<title>Node4&#45;&gt;Node2</title>
<path fill="none" stroke="#63b8ff" d="M146.35,-19.69C138.16,-20.55 130.05,-21.4 122.27,-22.21"/>
<polygon fill="#63b8ff" stroke="#63b8ff" points="146.44,-23.2 156.03,-18.68 145.72,-16.24 146.44,-23.2"/>
</g>
</g>
</svg>
