<?xml version="1.0" encoding="UTF-8" standalone="no"?>
<!DOCTYPE svg PUBLIC "-//W3C//DTD SVG 1.1//EN"
 "http://www.w3.org/Graphics/SVG/1.1/DTD/svg11.dtd">
<!-- Generated by graphviz version 12.2.0 (20241103.1931)
 -->
<!-- Title: FacesModel::apply Pages: 1 -->
<svg width="273pt" height="64pt"
 viewBox="0.00 0.00 272.50 64.25" xmlns="http://www.w3.org/2000/svg" xmlns:xlink="http://www.w3.org/1999/xlink">
<g id="graph0" class="graph" transform="scale(1 1) rotate(0) translate(4 60.25)">
<title>FacesModel::apply</title>
<!-- Node1 -->
<g id="Node000001" class="node">
<title>Node1</title>
<g id="a_Node000001"><a xlink:title=" ">
<polygon fill="#999999" stroke="#666666" points="264.5,-37.25 168.25,-37.25 168.25,-18 264.5,-18 264.5,-37.25"/>
<text text-anchor="middle" x="216.38" y="-23.75" font-family="Helvetica,sans-Serif" font-size="10.00">FacesModel::apply</text>
</a>
</g>
</g>
<!-- Node2 -->
<g id="Node000002" class="node">
<title>Node2</title>
<g id="a_Node000002"><a xlink:href="../../d6/de2/class_faces_model.html#ada2f30998287e7fa2cc79d4c79dd2d7a" target="_top" xlink:title=" ">
<polygon fill="white" stroke="#666666" points="130.38,-56.25 1.88,-56.25 1.88,-37 130.38,-37 130.38,-56.25"/>
<text text-anchor="middle" x="66.12" y="-42.75" font-family="Helvetica,sans-Serif" font-size="10.00">FacesModel::setDatabase</text>
</a>
</g>
</g>
<!-- Node1&#45;&gt;Node2 -->
<g id="edge1_Node000001_Node000002" class="edge">
<title>Node1&#45;&gt;Node2</title>
<g id="a_edge1_Node000001_Node000002"><a xlink:title=" ">
<path fill="none" stroke="#63b8ff" d="M156.67,-35.15C148.16,-36.24 139.36,-37.37 130.76,-38.47"/>
<polygon fill="#63b8ff" stroke="#63b8ff" points="157.08,-38.62 166.56,-33.88 156.2,-31.68 157.08,-38.62"/>
</a>
</g>
</g>
<!-- Node3 -->
<g id="Node000003" class="node">
<title>Node3</title>
<g id="a_Node000003"><a xlink:href="../../d6/de2/class_faces_model.html#a2e3f38979a755e135e3357defc231d28" target="_top" xlink:title=" ">
<polygon fill="white" stroke="#666666" points="132.25,-19.25 0,-19.25 0,0 132.25,0 132.25,-19.25"/>
<text text-anchor="middle" x="66.12" y="-5.75" font-family="Helvetica,sans-Serif" font-size="10.00">FacesModel::~FacesModel</text>
</a>
</g>
</g>
<!-- Node1&#45;&gt;Node3 -->
<g id="edge2_Node000001_Node000003" class="edge">
<title>Node1&#45;&gt;Node3</title>
<g id="a_edge2_Node000001_Node000003"><a xlink:title=" ">
<path fill="none" stroke="#63b8ff" d="M156.7,-20.5C148.8,-19.54 140.65,-18.55 132.64,-17.58"/>
<polygon fill="#63b8ff" stroke="#63b8ff" points="156.21,-23.97 166.56,-21.7 157.05,-17.02 156.21,-23.97"/>
</a>
</g>
</g>
</g>
</svg>
