<?xml version="1.0" encoding="UTF-8" standalone="no"?>
<!DOCTYPE svg PUBLIC "-//W3C//DTD SVG 1.1//EN"
 "http://www.w3.org/Graphics/SVG/1.1/DTD/svg11.dtd">
<!-- Generated by graphviz version 7.0.5 (20221223.1930)
 -->
<!-- Title: src/gui/desktop/models/flat_model.cpp Pages: 1 -->
<svg width="580pt" height="148pt"
 viewBox="0.00 0.00 579.50 148.00" xmlns="http://www.w3.org/2000/svg" xmlns:xlink="http://www.w3.org/1999/xlink">
<g id="graph0" class="graph" transform="scale(1 1) rotate(0) translate(4 144)">
<title>src/gui/desktop/models/flat_model.cpp</title>
<!-- Node1 -->
<g id="node1" class="node">
<title>Node1</title>
<g id="a_node1"><a xlink:title=" ">
<polygon fill="#999999" stroke="#666666" points="320.5,-140 202.5,-140 202.5,-110 320.5,-110 320.5,-140"/>
<text text-anchor="start" x="210.5" y="-128" font-family="Helvetica,sans-Serif" font-size="10.00">src/gui/desktop/models</text>
<text text-anchor="middle" x="261.5" y="-117" font-family="Helvetica,sans-Serif" font-size="10.00">/flat_model.cpp</text>
</a>
</g>
</g>
<!-- Node2 -->
<g id="node2" class="node">
<title>Node2</title>
<g id="a_node2"><a xlink:href="../../de/d3d/flat__model_8hpp.html" target="_top" xlink:title=" ">
<polygon fill="#fff0f0" stroke="red" points="79,-74 0,-74 0,-55 79,-55 79,-74"/>
<text text-anchor="middle" x="39.5" y="-62" font-family="Helvetica,sans-Serif" font-size="10.00">flat_model.hpp</text>
</a>
</g>
</g>
<!-- Node1&#45;&gt;Node2 -->
<g id="edge1" class="edge">
<title>Node1&#45;&gt;Node2</title>
<path fill="none" stroke="#63b8ff" d="M206.62,-109.54C168.97,-99.62 119.62,-86.61 84.33,-77.31"/>
<polygon fill="#63b8ff" stroke="#63b8ff" points="85.42,-73.98 74.86,-74.82 83.64,-80.75 85.42,-73.98"/>
</g>
<!-- Node41 -->
<g id="node3" class="node">
<title>Node41</title>
<g id="a_node3"><a xlink:href="../../d0/dd6/function__wrappers_8hpp.html" target="_top" xlink:title=" ">
<polygon fill="#fff0f0" stroke="red" points="233.5,-74 97.5,-74 97.5,-55 233.5,-55 233.5,-74"/>
<text text-anchor="middle" x="165.5" y="-62" font-family="Helvetica,sans-Serif" font-size="10.00">core/function_wrappers.hpp</text>
</a>
</g>
</g>
<!-- Node1&#45;&gt;Node41 -->
<g id="edge2" class="edge">
<title>Node1&#45;&gt;Node41</title>
<path fill="none" stroke="#63b8ff" d="M237.77,-109.54C223.06,-100.58 204.23,-89.1 189.48,-80.11"/>
<polygon fill="#63b8ff" stroke="#63b8ff" points="191.67,-77.35 181.31,-75.13 188.03,-83.33 191.67,-77.35"/>
</g>
<!-- Node47 -->
<g id="node4" class="node">
<title>Node47</title>
<g id="a_node4"><a xlink:href="../../da/d2a/ibackend_8hpp.html" target="_top" xlink:title=" ">
<polygon fill="#fff0f0" stroke="red" points="363.5,-19 247.5,-19 247.5,0 363.5,0 363.5,-19"/>
<text text-anchor="middle" x="305.5" y="-7" font-family="Helvetica,sans-Serif" font-size="10.00">database/ibackend.hpp</text>
</a>
</g>
</g>
<!-- Node1&#45;&gt;Node47 -->
<g id="edge3" class="edge">
<title>Node1&#45;&gt;Node47</title>
<path fill="none" stroke="#63b8ff" d="M264.7,-109.69C268.09,-95.53 273.99,-73.35 281.5,-55 285.07,-46.28 289.87,-37.04 294.24,-29.26"/>
<polygon fill="#63b8ff" stroke="#63b8ff" points="297.19,-31.14 299.19,-20.74 291.14,-27.62 297.19,-31.14"/>
</g>
<!-- Node54 -->
<g id="node5" class="node">
<title>Node54</title>
<g id="a_node5"><a xlink:href="../../d7/d2b/idatabase_8hpp.html" target="_top" xlink:title=" ">
<polygon fill="#fff0f0" stroke="red" points="409,-74 290,-74 290,-55 409,-55 409,-74"/>
<text text-anchor="middle" x="349.5" y="-62" font-family="Helvetica,sans-Serif" font-size="10.00">database/idatabase.hpp</text>
</a>
</g>
</g>
<!-- Node1&#45;&gt;Node54 -->
<g id="edge4" class="edge">
<title>Node1&#45;&gt;Node54</title>
<path fill="none" stroke="#63b8ff" d="M283.25,-109.54C296.47,-100.75 313.33,-89.54 326.74,-80.63"/>
<polygon fill="#63b8ff" stroke="#63b8ff" points="328.54,-83.63 334.93,-75.18 324.67,-77.81 328.54,-83.63"/>
</g>
<!-- Node56 -->
<g id="node6" class="node">
<title>Node56</title>
<g id="a_node6"><a xlink:href="../../d4/d3c/iphoto__operator_8hpp.html" target="_top" xlink:title=" ">
<polygon fill="#fff0f0" stroke="red" points="571.5,-74 427.5,-74 427.5,-55 571.5,-55 571.5,-74"/>
<text text-anchor="middle" x="499.5" y="-62" font-family="Helvetica,sans-Serif" font-size="10.00">database/iphoto_operator.hpp</text>
</a>
</g>
</g>
<!-- Node1&#45;&gt;Node56 -->
<g id="edge6" class="edge">
<title>Node1&#45;&gt;Node56</title>
<path fill="none" stroke="#63b8ff" d="M320.33,-109.54C361.05,-99.53 414.52,-86.39 452.42,-77.07"/>
<polygon fill="#63b8ff" stroke="#63b8ff" points="452.82,-80.58 461.69,-74.79 451.14,-73.78 452.82,-80.58"/>
</g>
<!-- Node54&#45;&gt;Node47 -->
<g id="edge5" class="edge">
<title>Node54&#45;&gt;Node47</title>
<path fill="none" stroke="#63b8ff" d="M342.23,-54.75C336.22,-47.5 327.49,-36.98 320.04,-28.02"/>
<polygon fill="#63b8ff" stroke="#63b8ff" points="322.97,-26.07 313.89,-20.61 317.58,-30.54 322.97,-26.07"/>
</g>
</g>
</svg>
