<?xml version="1.0" encoding="UTF-8" standalone="no"?>
<!DOCTYPE svg PUBLIC "-//W3C//DTD SVG 1.1//EN"
 "http://www.w3.org/Graphics/SVG/1.1/DTD/svg11.dtd">
<!-- Generated by graphviz version 7.0.5 (20221223.1930)
 -->
<!-- Title: src/core/model_compositor.hpp Pages: 1 -->
<svg width="272pt" height="148pt"
 viewBox="0.00 0.00 272.00 148.00" xmlns="http://www.w3.org/2000/svg" xmlns:xlink="http://www.w3.org/1999/xlink">
<g id="graph0" class="graph" transform="scale(1 1) rotate(0) translate(4 144)">
<title>src/core/model_compositor.hpp</title>
<!-- Node1 -->
<g id="node1" class="node">
<title>Node1</title>
<g id="a_node1"><a xlink:title=" ">
<polygon fill="#999999" stroke="#666666" points="259,-140 107,-140 107,-121 259,-121 259,-140"/>
<text text-anchor="middle" x="183" y="-128" font-family="Helvetica,sans-Serif" font-size="10.00">src/core/model_compositor.hpp</text>
</a>
</g>
</g>
<!-- Node2 -->
<g id="node2" class="node">
<title>Node2</title>
<g id="a_node2"><a xlink:title=" ">
<polygon fill="#e0e0e0" stroke="#999999" points="104,-79.5 0,-79.5 0,-60.5 104,-60.5 104,-79.5"/>
<text text-anchor="middle" x="52" y="-67.5" font-family="Helvetica,sans-Serif" font-size="10.00">QAbstractListModel</text>
</a>
</g>
</g>
<!-- Node1&#45;&gt;Node2 -->
<g id="edge1" class="edge">
<title>Node1&#45;&gt;Node2</title>
<path fill="none" stroke="#63b8ff" d="M163.1,-120.62C141.66,-111.04 107.26,-95.68 82.41,-84.58"/>
<polygon fill="#63b8ff" stroke="#63b8ff" points="84.02,-81.47 73.47,-80.59 81.17,-87.86 84.02,-81.47"/>
</g>
<!-- Node3 -->
<g id="node3" class="node">
<title>Node3</title>
<g id="a_node3"><a xlink:href="../../da/d01/imodel__compositor__data__source_8hpp.html" target="_top" xlink:title=" ">
<polygon fill="#fff0f0" stroke="red" points="244,-85 122,-85 122,-55 244,-55 244,-85"/>
<text text-anchor="start" x="130" y="-73" font-family="Helvetica,sans-Serif" font-size="10.00">imodel_compositor_data</text>
<text text-anchor="middle" x="183" y="-62" font-family="Helvetica,sans-Serif" font-size="10.00">_source.hpp</text>
</a>
</g>
</g>
<!-- Node1&#45;&gt;Node3 -->
<g id="edge2" class="edge">
<title>Node1&#45;&gt;Node3</title>
<path fill="none" stroke="#63b8ff" d="M183,-120.87C183,-114.4 183,-105.2 183,-96.45"/>
<polygon fill="#63b8ff" stroke="#63b8ff" points="186.5,-96.63 183,-86.63 179.5,-96.63 186.5,-96.63"/>
</g>
<!-- Node5 -->
<g id="node4" class="node">
<title>Node5</title>
<g id="a_node4"><a xlink:title=" ">
<polygon fill="#e0e0e0" stroke="#999999" points="264,-19 190,-19 190,0 264,0 264,-19"/>
<text text-anchor="middle" x="227" y="-7" font-family="Helvetica,sans-Serif" font-size="10.00">core_export.h</text>
</a>
</g>
</g>
<!-- Node1&#45;&gt;Node5 -->
<g id="edge4" class="edge">
<title>Node1&#45;&gt;Node5</title>
<path fill="none" stroke="#63b8ff" d="M208.51,-120.65C224.41,-113.65 243.57,-102.17 253,-85 263.06,-66.68 251.89,-43.73 241.23,-28.18"/>
<polygon fill="#63b8ff" stroke="#63b8ff" points="244.2,-26.31 235.42,-20.37 238.58,-30.48 244.2,-26.31"/>
</g>
<!-- Node3&#45;&gt;Node5 -->
<g id="edge3" class="edge">
<title>Node3&#45;&gt;Node5</title>
<path fill="none" stroke="#63b8ff" d="M193.88,-54.54C199.88,-46.56 207.37,-36.59 213.72,-28.16"/>
<polygon fill="#63b8ff" stroke="#63b8ff" points="216.35,-30.48 219.57,-20.38 210.76,-26.27 216.35,-30.48"/>
</g>
</g>
</svg>
