<?xml version="1.0" encoding="UTF-8" standalone="no"?>
<!DOCTYPE svg PUBLIC "-//W3C//DTD SVG 1.1//EN"
 "http://www.w3.org/Graphics/SVG/1.1/DTD/svg11.dtd">
<!-- Generated by graphviz version 9.0.0 (20230911.1827)
 -->
<!-- Title: Image::normalized Pages: 1 -->
<svg width="265pt" height="125pt"
 viewBox="0.00 0.00 265.00 124.88" xmlns="http://www.w3.org/2000/svg" xmlns:xlink="http://www.w3.org/1999/xlink">
<g id="graph0" class="graph" transform="scale(1 1) rotate(0) translate(4 120.88)">
<title>Image::normalized</title>
<!-- Node1 -->
<g id="Node000001" class="node">
<title>Node1</title>
<g id="a_Node000001"><a xlink:title=" ">
<polygon fill="#999999" stroke="#666666" points="257,-73.88 163,-73.88 163,-54.62 257,-54.62 257,-73.88"/>
<text text-anchor="middle" x="210" y="-60.38" font-family="Helvetica,sans-Serif" font-size="10.00">Image::normalized</text>
</a>
</g>
</g>
<!-- Node2 -->
<g id="Node000002" class="node">
<title>Node2</title>
<g id="a_Node000002"><a xlink:href="../../d5/dab/namespace_image.html#ab62c6b452c8504fc9824b07ab09540b3" target="_top" xlink:title=" ">
<polygon fill="white" stroke="#666666" points="107.88,-116.88 19.13,-116.88 19.13,-97.62 107.88,-97.62 107.88,-116.88"/>
<text text-anchor="middle" x="63.5" y="-103.38" font-family="Helvetica,sans-Serif" font-size="10.00">Image::normalize</text>
</a>
</g>
</g>
<!-- Node1&#45;&gt;Node2 -->
<g id="edge1_Node000001_Node000002" class="edge">
<title>Node1&#45;&gt;Node2</title>
<g id="a_edge1_Node000001_Node000002"><a xlink:title=" ">
<path fill="none" stroke="#63b8ff" d="M164.1,-77.61C142.9,-83.92 118.01,-91.33 98.42,-97.16"/>
<polygon fill="#63b8ff" stroke="#63b8ff" points="165.08,-80.97 173.67,-74.76 163.09,-74.26 165.08,-80.97"/>
</a>
</g>
</g>
<!-- Node3 -->
<g id="Node000003" class="node">
<title>Node3</title>
<g id="a_Node000003"><a xlink:href="../../dc/dc9/class_generator_utils_1_1_breakable_task.html#a32d1b87cb6dcd42a9d9a860d3fcae8f3" target="_top" xlink:title=" ">
<polygon fill="#fff0f0" stroke="red" points="127,-79.5 0,-79.5 0,-49 127,-49 127,-79.5"/>
<text text-anchor="start" x="8" y="-66" font-family="Helvetica,sans-Serif" font-size="10.00">GeneratorUtils::Breakable</text>
<text text-anchor="middle" x="63.5" y="-54.75" font-family="Helvetica,sans-Serif" font-size="10.00">Task::preparePhotos</text>
</a>
</g>
</g>
<!-- Node1&#45;&gt;Node3 -->
<g id="edge2_Node000001_Node000003" class="edge">
<title>Node1&#45;&gt;Node3</title>
<g id="a_edge2_Node000001_Node000003"><a xlink:title=" ">
<path fill="none" stroke="#63b8ff" d="M151.47,-64.25C143.53,-64.25 135.34,-64.25 127.31,-64.25"/>
<polygon fill="#63b8ff" stroke="#63b8ff" points="151.37,-67.75 161.37,-64.25 151.37,-60.75 151.37,-67.75"/>
</a>
</g>
</g>
<!-- Node6 -->
<g id="Node000006" class="node">
<title>Node6</title>
<g id="a_Node000006"><a xlink:href="../../d7/d27/class_thumbnail_generator.html#a3af9631b0f90b5eccc29e2df79a90e0f" target="_top" xlink:title=" ">
<polygon fill="#fff0f0" stroke="red" points="121.75,-30.5 5.25,-30.5 5.25,0 121.75,0 121.75,-30.5"/>
<text text-anchor="start" x="13.25" y="-17" font-family="Helvetica,sans-Serif" font-size="10.00">ThumbnailGenerator</text>
<text text-anchor="middle" x="63.5" y="-5.75" font-family="Helvetica,sans-Serif" font-size="10.00">::readFrameFromImage</text>
</a>
</g>
</g>
<!-- Node1&#45;&gt;Node6 -->
<g id="edge3_Node000001_Node000006" class="edge">
<title>Node1&#45;&gt;Node6</title>
<g id="a_edge3_Node000001_Node000006"><a xlink:title=" ">
<path fill="none" stroke="#63b8ff" d="M168.7,-50.58C150.73,-44.49 129.46,-37.28 110.84,-30.96"/>
<polygon fill="#63b8ff" stroke="#63b8ff" points="167.38,-53.83 177.98,-53.73 169.63,-47.2 167.38,-53.83"/>
</a>
</g>
</g>
</g>
</svg>
