<?xml version="1.0" encoding="UTF-8" standalone="no"?>
<!DOCTYPE svg PUBLIC "-//W3C//DTD SVG 1.1//EN"
 "http://www.w3.org/Graphics/SVG/1.1/DTD/svg11.dtd">
<!-- Generated by graphviz version 9.0.0 (20230911.1827)
 -->
<!-- Title: src/database/filter.hpp Pages: 1 -->
<svg width="1025pt" height="249pt"
 viewBox="0.00 0.00 1024.67 249.25" xmlns="http://www.w3.org/2000/svg" xmlns:xlink="http://www.w3.org/1999/xlink">
<g id="graph0" class="graph" transform="scale(1 1) rotate(0) translate(4 245.25)">
<title>src/database/filter.hpp</title>
<!-- Node1 -->
<g id="Node000001" class="node">
<title>Node1</title>
<g id="a_Node000001"><a xlink:title=" ">
<polygon fill="#999999" stroke="#666666" points="512,-241.25 400.75,-241.25 400.75,-222 512,-222 512,-241.25"/>
<text text-anchor="middle" x="456.38" y="-227.75" font-family="Helvetica,sans-Serif" font-size="10.00">src/database/filter.hpp</text>
</a>
</g>
</g>
<!-- Node2 -->
<g id="Node000002" class="node">
<title>Node2</title>
<g id="a_Node000002"><a xlink:href="../../da/d74/sql__backend_8cpp.html" target="_top" xlink:title=" ">
<polygon fill="white" stroke="#666666" points="154.75,-108.25 0,-108.25 0,-77.75 154.75,-77.75 154.75,-108.25"/>
<text text-anchor="start" x="8" y="-94.75" font-family="Helvetica,sans-Serif" font-size="10.00">src/database/backends</text>
<text text-anchor="middle" x="77.38" y="-83.5" font-family="Helvetica,sans-Serif" font-size="10.00">/sql_backends/sql_backend.cpp</text>
</a>
</g>
</g>
<!-- Node1&#45;&gt;Node2 -->
<g id="edge1_Node000001_Node000002" class="edge">
<title>Node1&#45;&gt;Node2</title>
<g id="a_edge1_Node000001_Node000002"><a xlink:title=" ">
<path fill="none" stroke="#63b8ff" d="M389.02,-231.01C330.47,-228.81 244.84,-219.34 178.38,-186 154.56,-174.06 155,-162.26 135.38,-144.25 122.02,-132 106.49,-118.59 94.86,-108.7"/>
<polygon fill="#63b8ff" stroke="#63b8ff" points="388.74,-234.51 398.84,-231.31 388.96,-227.51 388.74,-234.51"/>
</a>
</g>
</g>
<!-- Node3 -->
<g id="Node000003" class="node">
<title>Node3</title>
<g id="a_Node000003"><a xlink:href="../../d4/d6b/sql__filter__query__generator_8hpp.html" target="_top" xlink:title=" ">
<polygon fill="#fff0f0" stroke="red" points="126.38,-186 8.38,-186 8.38,-144.25 126.38,-144.25 126.38,-186"/>
<text text-anchor="start" x="16.38" y="-172.5" font-family="Helvetica,sans-Serif" font-size="10.00">src/database/backends</text>
<text text-anchor="start" x="16.38" y="-161.25" font-family="Helvetica,sans-Serif" font-size="10.00">/sql_backends/sql_filter</text>
<text text-anchor="middle" x="67.38" y="-150" font-family="Helvetica,sans-Serif" font-size="10.00">_query_generator.hpp</text>
</a>
</g>
</g>
<!-- Node1&#45;&gt;Node3 -->
<g id="edge2_Node000001_Node000003" class="edge">
<title>Node1&#45;&gt;Node3</title>
<g id="a_edge2_Node000001_Node000003"><a xlink:title=" ">
<path fill="none" stroke="#63b8ff" d="M389.17,-223.61C324.91,-216.32 225.48,-203.52 140.38,-186 135.87,-185.07 131.24,-184.03 126.59,-182.91"/>
<polygon fill="#63b8ff" stroke="#63b8ff" points="388.52,-227.06 398.85,-224.7 389.3,-220.11 388.52,-227.06"/>
</a>
</g>
</g>
<!-- Node7 -->
<g id="Node000007" class="node">
<title>Node7</title>
<g id="a_Node000007"><a xlink:href="../../da/d2a/ibackend_8hpp.html" target="_top" xlink:title=" ">
<polygon fill="#fff0f0" stroke="red" points="352.5,-174.75 220.25,-174.75 220.25,-155.5 352.5,-155.5 352.5,-174.75"/>
<text text-anchor="middle" x="286.38" y="-161.25" font-family="Helvetica,sans-Serif" font-size="10.00">src/database/ibackend.hpp</text>
</a>
</g>
</g>
<!-- Node1&#45;&gt;Node7 -->
<g id="edge4_Node000001_Node000007" class="edge">
<title>Node1&#45;&gt;Node7</title>
<g id="a_edge4_Node000001_Node000007"><a xlink:title=" ">
<path fill="none" stroke="#63b8ff" d="M421.79,-217.5C388.58,-204.9 339.3,-186.21 310.25,-175.18"/>
<polygon fill="#63b8ff" stroke="#63b8ff" points="420.37,-220.71 430.96,-220.98 422.86,-214.16 420.37,-220.71"/>
</a>
</g>
</g>
<!-- Node38 -->
<g id="Node000038" class="node">
<title>Node38</title>
<g id="a_Node000038"><a xlink:href="../../d7/d2b/idatabase_8hpp.html" target="_top" xlink:title=" ">
<polygon fill="#fff0f0" stroke="red" points="394,-102.62 258.75,-102.62 258.75,-83.38 394,-83.38 394,-102.62"/>
<text text-anchor="middle" x="326.38" y="-89.12" font-family="Helvetica,sans-Serif" font-size="10.00">src/database/idatabase.hpp</text>
</a>
</g>
</g>
<!-- Node1&#45;&gt;Node38 -->
<g id="edge10_Node000001_Node000038" class="edge">
<title>Node1&#45;&gt;Node38</title>
<g id="a_edge10_Node000001_Node000038"><a xlink:title=" ">
<path fill="none" stroke="#63b8ff" d="M440.16,-213.58C412.23,-184.23 356.02,-125.15 334.77,-102.82"/>
<polygon fill="#63b8ff" stroke="#63b8ff" points="437.37,-215.73 446.8,-220.56 442.44,-210.91 437.37,-215.73"/>
</a>
</g>
</g>
<!-- Node91 -->
<g id="Node000091" class="node">
<title>Node91</title>
<g id="a_Node000091"><a xlink:href="../../da/dec/face__recognition_8cpp.html" target="_top" xlink:title=" ">
<polygon fill="white" stroke="#666666" points="284.5,-36.12 176.25,-36.12 176.25,-5.62 284.5,-5.62 284.5,-36.12"/>
<text text-anchor="start" x="184.25" y="-22.62" font-family="Helvetica,sans-Serif" font-size="10.00">src/face_recognition</text>
<text text-anchor="middle" x="230.38" y="-11.38" font-family="Helvetica,sans-Serif" font-size="10.00">/face_recognition.cpp</text>
</a>
</g>
</g>
<!-- Node1&#45;&gt;Node91 -->
<g id="edge17_Node000001_Node000091" class="edge">
<title>Node1&#45;&gt;Node91</title>
<g id="a_edge17_Node000001_Node000091"><a xlink:title=" ">
<path fill="none" stroke="#63b8ff" d="M388.94,-227.76C324.38,-223.43 233.62,-212.66 211.38,-186 174.99,-142.39 206.25,-68.06 222.29,-36.62"/>
<polygon fill="#63b8ff" stroke="#63b8ff" points="388.55,-231.24 398.75,-228.38 388.99,-224.26 388.55,-231.24"/>
</a>
</g>
</g>
<!-- Node100 -->
<g id="Node000100" class="node">
<title>Node100</title>
<g id="a_Node000100"><a xlink:href="../../d8/d4e/photos__model__controller__component_8hpp.html" target="_top" xlink:title=" ">
<polygon fill="#fff0f0" stroke="red" points="668.38,-41.75 514.38,-41.75 514.38,0 668.38,0 668.38,-41.75"/>
<text text-anchor="start" x="522.38" y="-28.25" font-family="Helvetica,sans-Serif" font-size="10.00">src/gui/desktop/quick</text>
<text text-anchor="start" x="522.38" y="-17" font-family="Helvetica,sans-Serif" font-size="10.00">_items/photos_model_controller</text>
<text text-anchor="middle" x="591.38" y="-5.75" font-family="Helvetica,sans-Serif" font-size="10.00">_component.hpp</text>
</a>
</g>
</g>
<!-- Node1&#45;&gt;Node100 -->
<g id="edge21_Node000001_Node000100" class="edge">
<title>Node1&#45;&gt;Node100</title>
<g id="a_edge21_Node000001_Node000100"><a xlink:title=" ">
<path fill="none" stroke="#63b8ff" d="M523.49,-230.11C662.26,-228.36 970.52,-220.56 1002.38,-186 1037.92,-147.43 999.98,-105.34 955.38,-77.75 908.68,-48.87 760.8,-33.59 668.53,-26.66"/>
<polygon fill="#63b8ff" stroke="#63b8ff" points="523.67,-226.61 513.71,-230.23 523.75,-233.61 523.67,-226.61"/>
</a>
</g>
</g>
<!-- Node119 -->
<g id="Node000119" class="node">
<title>Node119</title>
<g id="a_Node000119"><a xlink:href="../../d4/dbd/mock__backend_8hpp.html" target="_top" xlink:title=" ">
<polygon fill="#fff0f0" stroke="red" points="514.88,-108.25 411.88,-108.25 411.88,-77.75 514.88,-77.75 514.88,-108.25"/>
<text text-anchor="start" x="419.88" y="-94.75" font-family="Helvetica,sans-Serif" font-size="10.00">src/unit_tests_utils</text>
<text text-anchor="middle" x="463.38" y="-83.5" font-family="Helvetica,sans-Serif" font-size="10.00">/mock_backend.hpp</text>
</a>
</g>
</g>
<!-- Node1&#45;&gt;Node119 -->
<g id="edge22_Node000001_Node000119" class="edge">
<title>Node1&#45;&gt;Node119</title>
<g id="a_edge22_Node000001_Node000119"><a xlink:title=" ">
<path fill="none" stroke="#63b8ff" d="M448.76,-210.87C446.19,-203.22 443.65,-194.32 442.38,-186 439.57,-167.66 438.73,-162.44 442.38,-144.25 444.9,-131.64 450.67,-118.25 455.52,-108.46"/>
<polygon fill="#63b8ff" stroke="#63b8ff" points="445.43,-211.96 452.13,-220.17 452.01,-209.57 445.43,-211.96"/>
</a>
</g>
</g>
<!-- Node120 -->
<g id="Node000120" class="node">
<title>Node120</title>
<g id="a_Node000120"><a xlink:href="../../de/d63/filter_8cpp.html" target="_top" xlink:title=" ">
<polygon fill="white" stroke="#666666" points="626,-180.38 484.75,-180.38 484.75,-149.88 626,-149.88 626,-180.38"/>
<text text-anchor="start" x="492.75" y="-166.88" font-family="Helvetica,sans-Serif" font-size="10.00">src/database/implementation</text>
<text text-anchor="middle" x="555.38" y="-155.62" font-family="Helvetica,sans-Serif" font-size="10.00">/filter.cpp</text>
</a>
</g>
</g>
<!-- Node1&#45;&gt;Node120 -->
<g id="edge11_Node000001_Node000120" class="edge">
<title>Node1&#45;&gt;Node120</title>
<g id="a_edge11_Node000001_Node000120"><a xlink:title=" ">
<path fill="none" stroke="#63b8ff" d="M479.4,-215.62C495.54,-205.11 516.99,-191.14 532.98,-180.72"/>
<polygon fill="#63b8ff" stroke="#63b8ff" points="477.88,-212.44 471.41,-220.83 481.7,-218.3 477.88,-212.44"/>
</a>
</g>
</g>
<!-- Node121 -->
<g id="Node000121" class="node">
<title>Node121</title>
<g id="a_Node000121"><a xlink:href="../../d4/d3c/iphoto__operator_8hpp.html" target="_top" xlink:title=" ">
<polygon fill="#fff0f0" stroke="red" points="745.12,-180.38 643.62,-180.38 643.62,-149.88 745.12,-149.88 745.12,-180.38"/>
<text text-anchor="start" x="651.62" y="-166.88" font-family="Helvetica,sans-Serif" font-size="10.00">src/database/iphoto</text>
<text text-anchor="middle" x="694.38" y="-155.62" font-family="Helvetica,sans-Serif" font-size="10.00">_operator.hpp</text>
</a>
</g>
</g>
<!-- Node1&#45;&gt;Node121 -->
<g id="edge12_Node000001_Node000121" class="edge">
<title>Node1&#45;&gt;Node121</title>
<g id="a_edge12_Node000001_Node000121"><a xlink:title=" ">
<path fill="none" stroke="#63b8ff" d="M507.97,-218.93C543.89,-210.5 592.8,-198.46 635.38,-186 640.77,-184.42 646.41,-182.66 651.97,-180.87"/>
<polygon fill="#63b8ff" stroke="#63b8ff" points="507.21,-215.51 498.27,-221.19 508.8,-222.33 507.21,-215.51"/>
</a>
</g>
</g>
<!-- Node97 -->
<g id="Node000097" class="node">
<title>Node97</title>
<g id="a_Node000097"><a xlink:href="../../dc/d26/photos__data__guesser_8cpp.html" target="_top" xlink:title=" ">
<polygon fill="white" stroke="#666666" points="798.38,-108.25 668.38,-108.25 668.38,-77.75 798.38,-77.75 798.38,-108.25"/>
<text text-anchor="start" x="676.38" y="-94.75" font-family="Helvetica,sans-Serif" font-size="10.00">src/gui/desktop/models</text>
<text text-anchor="middle" x="733.38" y="-83.5" font-family="Helvetica,sans-Serif" font-size="10.00">/photos_data_guesser.cpp</text>
</a>
</g>
</g>
<!-- Node1&#45;&gt;Node97 -->
<g id="edge20_Node000001_Node000097" class="edge">
<title>Node1&#45;&gt;Node97</title>
<g id="a_edge20_Node000001_Node000097"><a xlink:title=" ">
<path fill="none" stroke="#63b8ff" d="M523.67,-230.34C602.25,-228.4 725.21,-219.86 754.38,-186 773.3,-164.03 756.02,-128.46 743.55,-108.6"/>
<polygon fill="#63b8ff" stroke="#63b8ff" points="523.85,-226.83 513.93,-230.54 524,-233.83 523.85,-226.83"/>
</a>
</g>
</g>
<!-- Node123 -->
<g id="Node000123" class="node">
<title>Node123</title>
<g id="a_Node000123"><a xlink:href="../../d8/dee/mock__photo__operator_8hpp.html" target="_top" xlink:title=" ">
<polygon fill="#fff0f0" stroke="red" points="946.75,-108.25 816,-108.25 816,-77.75 946.75,-77.75 946.75,-108.25"/>
<text text-anchor="start" x="824" y="-94.75" font-family="Helvetica,sans-Serif" font-size="10.00">src/unit_tests_utils</text>
<text text-anchor="middle" x="881.38" y="-83.5" font-family="Helvetica,sans-Serif" font-size="10.00">/mock_photo_operator.hpp</text>
</a>
</g>
</g>
<!-- Node1&#45;&gt;Node123 -->
<g id="edge23_Node000001_Node000123" class="edge">
<title>Node1&#45;&gt;Node123</title>
<g id="a_edge23_Node000001_Node000123"><a xlink:title=" ">
<path fill="none" stroke="#63b8ff" d="M523.66,-225.51C602.89,-218.73 729.17,-205.33 772.38,-186 793.51,-176.55 841.93,-131.81 866.49,-108.39"/>
<polygon fill="#63b8ff" stroke="#63b8ff" points="523.51,-222.01 513.84,-226.34 524.1,-228.99 523.51,-222.01"/>
</a>
</g>
</g>
<!-- Node19 -->
<g id="Node000019" class="node">
<title>Node19</title>
<g id="a_Node000019"><a xlink:href="../../de/d51/unit__tests__for__backends_2phash__tests_8cpp.html" target="_top" xlink:title=" ">
<polygon fill="white" stroke="#666666" points="993.38,-180.38 839.38,-180.38 839.38,-149.88 993.38,-149.88 993.38,-180.38"/>
<text text-anchor="start" x="847.38" y="-166.88" font-family="Helvetica,sans-Serif" font-size="10.00">src/database/unit_tests</text>
<text text-anchor="middle" x="916.38" y="-155.62" font-family="Helvetica,sans-Serif" font-size="10.00">_for_backends/phash_tests.cpp</text>
</a>
</g>
</g>
<!-- Node1&#45;&gt;Node19 -->
<g id="edge16_Node000001_Node000019" class="edge">
<title>Node1&#45;&gt;Node19</title>
<g id="a_edge16_Node000001_Node000019"><a xlink:title=" ">
<path fill="none" stroke="#63b8ff" d="M523.27,-224.46C597.41,-217.18 720.38,-203.77 825.38,-186 834.3,-184.49 843.68,-182.69 852.88,-180.8"/>
<polygon fill="#63b8ff" stroke="#63b8ff" points="523.37,-220.93 513.76,-225.38 524.05,-227.9 523.37,-220.93"/>
</a>
</g>
</g>
<!-- Node124 -->
<g id="Node000124" class="node">
<title>Node124</title>
<g id="a_Node000124"><a xlink:href="../../de/d3d/flat__model_8hpp.html" target="_top" xlink:title=" ">
<polygon fill="#fff0f0" stroke="red" points="650,-108.25 532.75,-108.25 532.75,-77.75 650,-77.75 650,-108.25"/>
<text text-anchor="start" x="540.75" y="-94.75" font-family="Helvetica,sans-Serif" font-size="10.00">src/gui/desktop/models</text>
<text text-anchor="middle" x="591.38" y="-83.5" font-family="Helvetica,sans-Serif" font-size="10.00">/flat_model.hpp</text>
</a>
</g>
</g>
<!-- Node1&#45;&gt;Node124 -->
<g id="edge18_Node000001_Node000124" class="edge">
<title>Node1&#45;&gt;Node124</title>
<g id="a_edge18_Node000001_Node000124"><a xlink:title=" ">
<path fill="none" stroke="#63b8ff" d="M455.82,-210.42C456.35,-191.33 459.99,-162.92 475.38,-144.25 489.82,-126.72 511.55,-115.15 532.31,-107.59"/>
<polygon fill="#63b8ff" stroke="#63b8ff" points="452.32,-210.15 455.83,-220.15 459.32,-210.14 452.32,-210.15"/>
</a>
</g>
</g>
<!-- Node3&#45;&gt;Node2 -->
<g id="edge3_Node000003_Node000002" class="edge">
<title>Node3&#45;&gt;Node2</title>
<g id="a_edge3_Node000003_Node000002"><a xlink:title=" ">
<path fill="none" stroke="#63b8ff" d="M71.86,-132.67C73.07,-124.22 74.31,-115.48 75.31,-108.45"/>
<polygon fill="#63b8ff" stroke="#63b8ff" points="68.43,-131.95 70.48,-142.34 75.36,-132.94 68.43,-131.95"/>
</a>
</g>
</g>
<!-- Node7&#45;&gt;Node38 -->
<g id="edge5_Node000007_Node000038" class="edge">
<title>Node7&#45;&gt;Node38</title>
<g id="a_edge5_Node000007_Node000038"><a xlink:title=" ">
<path fill="none" stroke="#63b8ff" d="M297.06,-145.39C304.88,-131.68 315.15,-113.69 321.22,-103.03"/>
<polygon fill="#63b8ff" stroke="#63b8ff" points="294.11,-143.51 292.19,-153.93 300.19,-146.98 294.11,-143.51"/>
</a>
</g>
</g>
<!-- Node7&#45;&gt;Node91 -->
<g id="edge8_Node000007_Node000091" class="edge">
<title>Node7&#45;&gt;Node91</title>
<g id="a_edge8_Node000007_Node000091"><a xlink:title=" ">
<path fill="none" stroke="#63b8ff" d="M272.11,-146.3C264.33,-135.78 255.15,-121.89 249.38,-108.25 239.19,-84.22 234.16,-54.01 231.92,-36.43"/>
<polygon fill="#63b8ff" stroke="#63b8ff" points="269.18,-148.24 278.05,-154.04 274.73,-143.97 269.18,-148.24"/>
</a>
</g>
</g>
<!-- Node7&#45;&gt;Node119 -->
<g id="edge9_Node000007_Node000119" class="edge">
<title>Node7&#45;&gt;Node119</title>
<g id="a_edge9_Node000007_Node000119"><a xlink:title=" ">
<path fill="none" stroke="#63b8ff" d="M319.62,-150.95C349.94,-138.94 394.68,-121.21 426.18,-108.73"/>
<polygon fill="#63b8ff" stroke="#63b8ff" points="318.57,-147.61 310.56,-154.54 321.15,-154.11 318.57,-147.61"/>
</a>
</g>
</g>
<!-- Node38&#45;&gt;Node91 -->
<g id="edge6_Node000038_Node000091" class="edge">
<title>Node38&#45;&gt;Node91</title>
<g id="a_edge6_Node000038_Node000091"><a xlink:title=" ">
<path fill="none" stroke="#63b8ff" d="M304.95,-76.35C288.66,-64.45 266.4,-48.19 250.45,-36.54"/>
<polygon fill="#63b8ff" stroke="#63b8ff" points="302.85,-79.15 312.99,-82.23 306.98,-73.5 302.85,-79.15"/>
</a>
</g>
</g>
<!-- Node38&#45;&gt;Node100 -->
<g id="edge7_Node000038_Node000100" class="edge">
<title>Node38&#45;&gt;Node100</title>
<g id="a_edge7_Node000038_Node000100"><a xlink:title=" ">
<path fill="none" stroke="#63b8ff" d="M371.77,-79.99C410.89,-69.64 468.2,-54.47 514.46,-42.23"/>
<polygon fill="#63b8ff" stroke="#63b8ff" points="370.98,-76.58 362.21,-82.52 372.77,-83.34 370.98,-76.58"/>
</a>
</g>
</g>
<!-- Node121&#45;&gt;Node119 -->
<g id="edge14_Node000121_Node000119" class="edge">
<title>Node121&#45;&gt;Node119</title>
<g id="a_edge14_Node000121_Node000119"><a xlink:title=" ">
<path fill="none" stroke="#63b8ff" d="M640.76,-145.96C638.95,-145.38 637.15,-144.81 635.38,-144.25 595.16,-131.61 549.33,-118.27 515.1,-108.52"/>
<polygon fill="#63b8ff" stroke="#63b8ff" points="639.23,-149.14 649.82,-148.91 641.4,-142.49 639.23,-149.14"/>
</a>
</g>
</g>
<!-- Node121&#45;&gt;Node97 -->
<g id="edge13_Node000121_Node000097" class="edge">
<title>Node121&#45;&gt;Node97</title>
<g id="a_edge13_Node000121_Node000097"><a xlink:title=" ">
<path fill="none" stroke="#63b8ff" d="M707.91,-139.79C713.71,-129.36 720.29,-117.53 725.3,-108.51"/>
<polygon fill="#63b8ff" stroke="#63b8ff" points="704.99,-137.83 703.19,-148.27 711.11,-141.23 704.99,-137.83"/>
</a>
</g>
</g>
<!-- Node121&#45;&gt;Node123 -->
<g id="edge15_Node000121_Node000123" class="edge">
<title>Node121&#45;&gt;Node123</title>
<g id="a_edge15_Node000121_Node000123"><a xlink:title=" ">
<path fill="none" stroke="#63b8ff" d="M744.08,-145.49C774.8,-133.96 813.69,-119.38 842.23,-108.68"/>
<polygon fill="#63b8ff" stroke="#63b8ff" points="743.13,-142.1 734.99,-148.89 745.59,-148.66 743.13,-142.1"/>
</a>
</g>
</g>
<!-- Node124&#45;&gt;Node100 -->
<g id="edge19_Node000124_Node000100" class="edge">
<title>Node124&#45;&gt;Node100</title>
<g id="a_edge19_Node000124_Node000100"><a xlink:title=" ">
<path fill="none" stroke="#63b8ff" d="M591.38,-66.22C591.38,-58.31 591.38,-49.73 591.38,-42.24"/>
<polygon fill="#63b8ff" stroke="#63b8ff" points="587.88,-65.96 591.38,-75.96 594.88,-65.96 587.88,-65.96"/>
</a>
</g>
</g>
</g>
</svg>
