<?xml version="1.0" encoding="UTF-8" standalone="no"?>
<!DOCTYPE svg PUBLIC "-//W3C//DTD SVG 1.1//EN"
 "http://www.w3.org/Graphics/SVG/1.1/DTD/svg11.dtd">
<!-- Generated by graphviz version 9.0.0 (20230911.1827)
 -->
<!-- Title: src/database/backends/sql_backends/sqlite_backend/backend.cpp Pages: 1 -->
<!--zoomable 116 -->

<svg id="main" version="1.1" xmlns="http://www.w3.org/2000/svg" xmlns:xlink="http://www.w3.org/1999/xlink" xml:space="preserve" onload="init(evt)">
<style type="text/css"><![CDATA[
.node, .edge {opacity: 0.7;}
.node.selected, .edge.selected {opacity: 1;}
.edge:hover path { stroke: red; }
.edge:hover polygon { stroke: red; fill: red; }
]]></style>

<defs>
  <circle id="rim" cx="0" cy="0" r="7"/>
  <circle id="rim2" cx="0" cy="0" r="3.5"/>
  <g id="zoomPlus">
    <use xlink:href="#rim" fill="#404040"><set attributeName="fill" to="#808080" begin="zoomplus.mouseover" end="zoomplus.mouseout"/></use>
    <path d="M-4,0h8M0,-4v8" fill="none" stroke="white" stroke-width="1.5" pointer-events="none"/>
  </g>
  <g id="zoomMin">
    <use xlink:href="#rim" fill="#404040"><set attributeName="fill" to="#808080" begin="zoomminus.mouseover" end="zoomminus.mouseout"/></use>
    <path d="M-4,0h8" fill="none" stroke="white" stroke-width="1.5" pointer-events="none"/>
  </g>
  <g id="arrowUp" transform="translate(30 24)">
    <use xlink:href="#rim"/>
    <path pointer-events="none" fill="none" stroke="white" stroke-width="1.5" d="M0,-3.0v7 M-2.5,-0.5L0,-3.0L2.5,-0.5"/>
  </g>
  <g id="arrowRight" transform="rotate(90) translate(36 -43)">
    <use xlink:href="#rim"/>
    <path pointer-events="none" fill="none" stroke="white" stroke-width="1.5" d="M0,-3.0v7 M-2.5,-0.5L0,-3.0L2.5,-0.5"/>
  </g>
  <g id="arrowDown" transform="rotate(180) translate(-30 -48)">
    <use xlink:href="#rim"/>
    <path pointer-events="none" fill="none" stroke="white" stroke-width="1.5" d="M0,-3.0v7 M-2.5,-0.5L0,-3.0L2.5,-0.5"/>
  </g>
  <g id="arrowLeft" transform="rotate(270) translate(-36 17)">
    <use xlink:href="#rim"/>
    <path pointer-events="none" fill="none" stroke="white" stroke-width="1.5" d="M0,-3.0v7 M-2.5,-0.5L0,-3.0L2.5,-0.5"/>
  </g>
  <g id="resetDef">
    <use xlink:href="#rim2" fill="#404040"><set attributeName="fill" to="#808080" begin="reset.mouseover" end="reset.mouseout"/></use>
  </g>
</defs>
<script type="application/ecmascript">
var viewWidth = 871;
var viewHeight = 116;
var sectionId = 'dynsection-0';
</script>
<script type="application/ecmascript" xlink:href="../../svg.min.js"/>
<svg id="graph" class="graph">
<g id="viewport">
<title>src/database/backends/sql_backends/sqlite_backend/backend.cpp</title>
<!-- Node1 -->
<g id="Node000001" class="node">
<title>Node1</title>
<g id="a_Node000001"><a xlink:title=" ">
<polygon fill="#999999" stroke="#666666" points="434,-108.25 316.75,-108.25 316.75,-66.5 434,-66.5 434,-108.25"/>
<text text-anchor="start" x="324.75" y="-94.75" font-family="Helvetica,sans-Serif" font-size="10.00">src/database/backends</text>
<text text-anchor="start" x="324.75" y="-83.5" font-family="Helvetica,sans-Serif" font-size="10.00">/sql_backends/sqlite</text>
<text text-anchor="middle" x="375.38" y="-72.25" font-family="Helvetica,sans-Serif" font-size="10.00">_backend/backend.cpp</text>
</a>
</g>
</g>
<!-- Node2 -->
<g id="Node000002" class="node">
<title>Node2</title>
<g id="a_Node000002"><a xlink:href="../../da/d0e/sqlite__backend_2backend_8hpp.html" target="_top" xlink:title=" ">
<polygon fill="#fff0f0" stroke="red" points="70.75,-24.88 0,-24.88 0,-5.63 70.75,-5.63 70.75,-24.88"/>
<text text-anchor="middle" x="35.38" y="-11.38" font-family="Helvetica,sans-Serif" font-size="10.00">backend.hpp</text>
</a>
</g>
</g>
<!-- Node1&#45;&gt;Node2 -->
<g id="edge1_Node000001_Node000002" class="edge">
<title>Node1&#45;&gt;Node2</title>
<g id="a_edge1_Node000001_Node000002"><a xlink:title=" ">
<path fill="none" stroke="#63b8ff" d="M316.48,-77.51C256.4,-67.95 160.7,-51.26 79.38,-30.5 76.97,-29.89 74.51,-29.21 72.04,-28.51"/>
<polygon fill="#63b8ff" stroke="#63b8ff" points="73.31,-25.23 62.72,-25.68 71.27,-31.93 73.31,-25.23"/>
</a>
</g>
</g>
<!-- Node39 -->
<g id="Node000039" class="node">
<title>Node39</title>
<g id="a_Node000039"><a xlink:title=" ">
<polygon fill="#e0e0e0" stroke="#999999" points="146.38,-24.88 88.38,-24.88 88.38,-5.63 146.38,-5.63 146.38,-24.88"/>
<text text-anchor="middle" x="117.38" y="-11.38" font-family="Helvetica,sans-Serif" font-size="10.00">stdexcept</text>
</a>
</g>
</g>
<!-- Node1&#45;&gt;Node39 -->
<g id="edge2_Node000001_Node000039" class="edge">
<title>Node1&#45;&gt;Node39</title>
<g id="a_edge2_Node000001_Node000039"><a xlink:title=" ">
<path fill="none" stroke="#63b8ff" d="M316.52,-73.29C271.93,-62.92 209.34,-47.41 155.38,-30.5 153.82,-30.01 152.24,-29.5 150.64,-28.96"/>
<polygon fill="#63b8ff" stroke="#63b8ff" points="152.16,-25.79 141.57,-25.76 149.83,-32.39 152.16,-25.79"/>
</a>
</g>
</g>
<!-- Node77 -->
<g id="Node000077" class="node">
<title>Node77</title>
<g id="a_Node000077"><a xlink:title=" ">
<polygon fill="#e0e0e0" stroke="#999999" points="243.88,-24.88 164.88,-24.88 164.88,-5.63 243.88,-5.63 243.88,-24.88"/>
<text text-anchor="middle" x="204.38" y="-11.38" font-family="Helvetica,sans-Serif" font-size="10.00">QSqlDatabase</text>
</a>
</g>
</g>
<!-- Node1&#45;&gt;Node77 -->
<g id="edge3_Node000001_Node000077" class="edge">
<title>Node1&#45;&gt;Node77</title>
<g id="a_edge3_Node000001_Node000077"><a xlink:title=" ">
<path fill="none" stroke="#63b8ff" d="M325.91,-66.09C297.22,-54.32 261.89,-39.84 236.73,-29.52"/>
<polygon fill="#63b8ff" stroke="#63b8ff" points="238.27,-26.37 227.69,-25.81 235.61,-32.84 238.27,-26.37"/>
</a>
</g>
</g>
<!-- Node65 -->
<g id="Node000065" class="node">
<title>Node65</title>
<g id="a_Node000065"><a xlink:title=" ">
<polygon fill="#e0e0e0" stroke="#999999" points="325,-24.88 261.75,-24.88 261.75,-5.63 325,-5.63 325,-24.88"/>
<text text-anchor="middle" x="293.38" y="-11.38" font-family="Helvetica,sans-Serif" font-size="10.00">QSqlQuery</text>
</a>
</g>
</g>
<!-- Node1&#45;&gt;Node65 -->
<g id="edge4_Node000001_Node000065" class="edge">
<title>Node1&#45;&gt;Node65</title>
<g id="a_edge4_Node000001_Node000065"><a xlink:title=" ">
<path fill="none" stroke="#63b8ff" d="M351.66,-66.09C339.12,-55.37 323.94,-42.39 312.21,-32.36"/>
<polygon fill="#63b8ff" stroke="#63b8ff" points="314.69,-29.87 304.82,-26.04 310.14,-35.19 314.69,-29.87"/>
</a>
</g>
</g>
<!-- Node58 -->
<g id="Node000058" class="node">
<title>Node58</title>
<g id="a_Node000058"><a xlink:title=" ">
<polygon fill="#e0e0e0" stroke="#999999" points="408.12,-24.88 342.62,-24.88 342.62,-5.63 408.12,-5.63 408.12,-24.88"/>
<text text-anchor="middle" x="375.38" y="-11.38" font-family="Helvetica,sans-Serif" font-size="10.00">QStringList</text>
</a>
</g>
</g>
<!-- Node1&#45;&gt;Node58 -->
<g id="edge5_Node000001_Node000058" class="edge">
<title>Node1&#45;&gt;Node58</title>
<g id="a_edge5_Node000001_Node000058"><a xlink:title=" ">
<path fill="none" stroke="#63b8ff" d="M375.38,-66.09C375.38,-56.75 375.38,-45.69 375.38,-36.37"/>
<polygon fill="#63b8ff" stroke="#63b8ff" points="378.88,-36.57 375.38,-26.57 371.88,-36.57 378.88,-36.57"/>
</a>
</g>
</g>
<!-- Node78 -->
<g id="Node000078" class="node">
<title>Node78</title>
<g id="a_Node000078"><a xlink:title=" ">
<polygon fill="#e0e0e0" stroke="#999999" points="462.12,-24.88 426.62,-24.88 426.62,-5.63 462.12,-5.63 462.12,-24.88"/>
<text text-anchor="middle" x="444.38" y="-11.38" font-family="Helvetica,sans-Serif" font-size="10.00">QDir</text>
</a>
</g>
</g>
<!-- Node1&#45;&gt;Node78 -->
<g id="edge6_Node000001_Node000078" class="edge">
<title>Node1&#45;&gt;Node78</title>
<g id="a_edge6_Node000001_Node000078"><a xlink:title=" ">
<path fill="none" stroke="#63b8ff" d="M395.33,-66.09C405.68,-55.58 418.15,-42.9 427.94,-32.96"/>
<polygon fill="#63b8ff" stroke="#63b8ff" points="430.13,-35.71 434.65,-26.13 425.14,-30.8 430.13,-35.71"/>
</a>
</g>
</g>
<!-- Node79 -->
<g id="Node000079" class="node">
<title>Node79</title>
<g id="a_Node000079"><a xlink:href="../../d3/d41/project__info_8hpp.html" target="_top" xlink:title=" ">
<polygon fill="white" stroke="#666666" points="606.88,-24.88 479.88,-24.88 479.88,-5.63 606.88,-5.63 606.88,-24.88"/>
<text text-anchor="middle" x="543.38" y="-11.38" font-family="Helvetica,sans-Serif" font-size="10.00">database/project_info.hpp</text>
</a>
</g>
</g>
<!-- Node1&#45;&gt;Node79 -->
<g id="edge7_Node000001_Node000079" class="edge">
<title>Node1&#45;&gt;Node79</title>
<g id="a_edge7_Node000001_Node000079"><a xlink:title=" ">
<path fill="none" stroke="#63b8ff" d="M423.97,-66.09C452.04,-54.38 486.56,-39.96 511.25,-29.66"/>
<polygon fill="#63b8ff" stroke="#63b8ff" points="512.57,-32.9 520.45,-25.82 509.88,-26.44 512.57,-32.9"/>
</a>
</g>
</g>
<!-- Node67 -->
<g id="Node000067" class="node">
<title>Node67</title>
<g id="a_Node000067"><a xlink:href="../../dd/d99/table__definition_8hpp.html" target="_top" xlink:title=" ">
<polygon fill="#fff0f0" stroke="red" points="723.62,-24.88 625.12,-24.88 625.12,-5.63 723.62,-5.63 723.62,-24.88"/>
<text text-anchor="middle" x="674.38" y="-11.38" font-family="Helvetica,sans-Serif" font-size="10.00">table_definition.hpp</text>
</a>
</g>
</g>
<!-- Node1&#45;&gt;Node67 -->
<g id="edge8_Node000001_Node000067" class="edge">
<title>Node1&#45;&gt;Node67</title>
<g id="a_edge8_Node000001_Node000067"><a xlink:title=" ">
<path fill="none" stroke="#63b8ff" d="M434.36,-72.93C483.18,-61.74 554.34,-45.31 616.38,-30.5 619.7,-29.71 623.12,-28.88 626.57,-28.05"/>
<polygon fill="#63b8ff" stroke="#63b8ff" points="627.21,-31.49 636.1,-25.73 625.56,-24.69 627.21,-31.49"/>
</a>
</g>
</g>
<!-- Node80 -->
<g id="Node000080" class="node">
<title>Node80</title>
<g id="a_Node000080"><a xlink:href="../../dd/dbe/query__structs_8hpp.html" target="_top" xlink:title=" ">
<polygon fill="#fff0f0" stroke="red" points="862.88,-30.5 741.88,-30.5 741.88,0 862.88,0 862.88,-30.5"/>
<text text-anchor="start" x="749.88" y="-17" font-family="Helvetica,sans-Serif" font-size="10.00">backends/sql_backends</text>
<text text-anchor="middle" x="802.38" y="-5.75" font-family="Helvetica,sans-Serif" font-size="10.00">/query_structs.hpp</text>
</a>
</g>
</g>
<!-- Node1&#45;&gt;Node80 -->
<g id="edge9_Node000001_Node000080" class="edge">
<title>Node1&#45;&gt;Node80</title>
<g id="a_edge9_Node000001_Node000080"><a xlink:title=" ">
<path fill="none" stroke="#63b8ff" d="M434.26,-78C502.86,-68.05 619.88,-50.51 730.66,-30.76"/>
<polygon fill="#63b8ff" stroke="#63b8ff" points="730.99,-34.25 740.21,-29.04 729.75,-27.36 730.99,-34.25"/>
</a>
</g>
</g>
</g>
</svg>

<g id="navigator" transform="translate(0 0)" fill="#404254">
  <rect fill="#f2f5e9" fill-opacity="0.5" stroke="#606060" stroke-width=".5" x="0" y="0" width="60" height="60"/>
  <use id="zoomplus" xlink:href="#zoomPlus" x="17" y="9" onmousedown="handleZoom(evt,'in')"/>
  <use id="zoomminus" xlink:href="#zoomMin" x="42" y="9" onmousedown="handleZoom(evt,'out')"/>
  <use id="reset" xlink:href="#resetDef" x="30" y="36" onmousedown="handleReset()"/>
   <use id="arrowup" xlink:href="#arrowUp" x="0" y="0" onmousedown="handlePan(0,-1)"/>
  <use id="arrowright" xlink:href="#arrowRight" x="0" y="0" onmousedown="handlePan(1,0)"/>
  <use id="arrowdown" xlink:href="#arrowDown" x="0" y="0" onmousedown="handlePan(0,1)"/>
  <use id="arrowleft" xlink:href="#arrowLeft" x="0" y="0" onmousedown="handlePan(-1,0)"/>
</g>
<svg viewBox="0 0 15 15" width="100%" height="30px" preserveAspectRatio="xMaxYMin meet">
 <g id="arrow_out" transform="scale(0.3 0.3)">
  <a xlink:href="sqlite__backend_2backend_8cpp__incl_org.svg" target="_base">
   <rect id="button" ry="5" rx="5" y="6" x="6" height="38" width="38"
        fill="#f2f5e9" fill-opacity="0.5" stroke="#606060" stroke-width="1.0"/>
   <path id="arrow"
     d="M 11.500037,31.436501 C 11.940474,20.09759 22.043105,11.32322 32.158766,21.979434 L 37.068811,17.246167 C 37.068811,17.246167 37.088388,32 37.088388,32 L 22.160133,31.978069 C 22.160133,31.978069 26.997745,27.140456 26.997745,27.140456 C 18.528582,18.264221 13.291696,25.230495 11.500037,31.436501 z"
     style="fill:#404040;"/>
  </a>
 </g>
</svg>

<style type='text/css'>
<![CDATA[
[data-mouse-over-selected='false'] { opacity: 0.7; }
[data-mouse-over-selected='true']  { opacity: 1.0; }
]]>
</style>
<script type="application/ecmascript"><![CDATA[
document.addEventListener('DOMContentLoaded', (event) => {
  highlightEdges();
  highlightAdjacentNodes();
});
]]></script>
</svg>
