<?xml version="1.0" encoding="UTF-8" standalone="no"?>
<!DOCTYPE svg PUBLIC "-//W3C//DTD SVG 1.1//EN"
 "http://www.w3.org/Graphics/SVG/1.1/DTD/svg11.dtd">
<!-- Generated by graphviz version 7.0.5 (20221223.1930)
 -->
<!-- Title: PhotoDataQml Pages: 1 -->
<svg width="168pt" height="93pt"
 viewBox="0.00 0.00 168.00 93.00" xmlns="http://www.w3.org/2000/svg" xmlns:xlink="http://www.w3.org/1999/xlink">
<g id="graph0" class="graph" transform="scale(1 1) rotate(0) translate(4 89)">
<title>PhotoDataQml</title>
<!-- Node1 -->
<g id="node1" class="node">
<title>Node1</title>
<g id="a_node1"><a xlink:title=" ">
<polygon fill="#999999" stroke="#666666" points="110.5,-19 30.5,-19 30.5,0 110.5,0 110.5,-19"/>
<text text-anchor="middle" x="70.5" y="-7" font-family="Helvetica,sans-Serif" font-size="10.00">PhotoDataQml</text>
</a>
</g>
</g>
<!-- Node2 -->
<g id="node2" class="node">
<title>Node2</title>
<g id="a_node2"><a xlink:title=" ">
<polygon fill="white" stroke="#666666" points="53,-85 0,-85 0,-66 53,-66 53,-85"/>
<text text-anchor="middle" x="26.5" y="-73" font-family="Helvetica,sans-Serif" font-size="10.00">QObject</text>
</a>
</g>
</g>
<!-- Node2&#45;&gt;Node1 -->
<g id="edge1" class="edge">
<title>Node2&#45;&gt;Node1</title>
<path fill="none" stroke="#63b8ff" d="M38.95,-56.4C47.28,-44.27 57.89,-28.84 64.43,-19.32"/>
<polygon fill="#63b8ff" stroke="#63b8ff" points="36.26,-54.13 33.48,-64.35 42.02,-58.1 36.26,-54.13"/>
</g>
<!-- Node3 -->
<g id="node3" class="node">
<title>Node3</title>
<g id="a_node3"><a xlink:href="../../d7/d1e/class_photo_1_1_data_delta.html" target="_top" xlink:title="Structure containing chosen of photo details.">
<polygon fill="#fff0f0" stroke="red" points="160,-85 71,-85 71,-66 160,-66 160,-85"/>
<text text-anchor="middle" x="115.5" y="-73" font-family="Helvetica,sans-Serif" font-size="10.00">Photo::DataDelta</text>
</a>
</g>
</g>
<!-- Node3&#45;&gt;Node1 -->
<g id="edge2" class="edge">
<title>Node3&#45;&gt;Node1</title>
<path fill="none" stroke="#9a32cd" stroke-dasharray="5,2" d="M102.77,-56.4C94.25,-44.27 83.4,-28.84 76.7,-19.32"/>
<polygon fill="#9a32cd" stroke="#9a32cd" points="99.76,-58.2 108.37,-64.36 105.48,-54.17 99.76,-58.2"/>
<text text-anchor="middle" x="115.5" y="-40" font-family="Helvetica,sans-Serif" font-size="10.00"> m_photo</text>
</g>
</g>
</svg>
