<?xml version="1.0" encoding="UTF-8" standalone="no"?>
<!DOCTYPE svg PUBLIC "-//W3C//DTD SVG 1.1//EN"
 "http://www.w3.org/Graphics/SVG/1.1/DTD/svg11.dtd">
<!-- Generated by graphviz version 7.0.5 (20221223.1930)
 -->
<!-- Title: SeriesDetector::listCandidates Pages: 1 -->
<svg width="319pt" height="64pt"
 viewBox="0.00 0.00 319.00 64.00" xmlns="http://www.w3.org/2000/svg" xmlns:xlink="http://www.w3.org/1999/xlink">
<g id="graph0" class="graph" transform="scale(1 1) rotate(0) translate(4 60)">
<title>SeriesDetector::listCandidates</title>
<!-- Node1 -->
<g id="node1" class="node">
<title>Node1</title>
<g id="a_node1"><a xlink:title=" ">
<polygon fill="#999999" stroke="#666666" points="311,-37 164,-37 164,-18 311,-18 311,-37"/>
<text text-anchor="middle" x="237.5" y="-25" font-family="Helvetica,sans-Serif" font-size="10.00">SeriesDetector::listCandidates</text>
</a>
</g>
</g>
<!-- Node2 -->
<g id="node2" class="node">
<title>Node2</title>
<g id="a_node2"><a xlink:href="../../d5/d0f/class_series_model.html#a8cdebcca8d2065de2c839755cc238875" target="_top" xlink:title=" ">
<polygon fill="#fff0f0" stroke="red" points="128,-56 0,-56 0,-37 128,-37 128,-56"/>
<text text-anchor="middle" x="64" y="-44" font-family="Helvetica,sans-Serif" font-size="10.00">SeriesModel::fetchGroups</text>
</a>
</g>
</g>
<!-- Node1&#45;&gt;Node2 -->
<g id="edge1" class="edge">
<title>Node1&#45;&gt;Node2</title>
<path fill="none" stroke="#63b8ff" d="M152.38,-36.82C144.29,-37.72 136.19,-38.61 128.35,-39.48"/>
<polygon fill="#63b8ff" stroke="#63b8ff" points="152.71,-40.3 162.26,-35.72 151.94,-33.35 152.71,-40.3"/>
</g>
<!-- Node4 -->
<g id="node3" class="node">
<title>Node4</title>
<g id="a_node3"><a xlink:href="../../dc/d1a/series__detector__tests_8cpp.html#a44b2e60d7f3ea8122ce4a150f9aeb8f6" target="_top" xlink:title=" ">
<polygon fill="white" stroke="#666666" points="90.5,-19 37.5,-19 37.5,0 90.5,0 90.5,-19"/>
<text text-anchor="middle" x="64" y="-7" font-family="Helvetica,sans-Serif" font-size="10.00">TEST_F</text>
</a>
</g>
</g>
<!-- Node1&#45;&gt;Node4 -->
<g id="edge2" class="edge">
<title>Node1&#45;&gt;Node4</title>
<path fill="none" stroke="#63b8ff" d="M152.45,-18.68C130.05,-16.33 107.48,-13.96 90.89,-12.22"/>
<polygon fill="#63b8ff" stroke="#63b8ff" points="151.95,-22.15 162.26,-19.71 152.68,-15.18 151.95,-22.15"/>
</g>
</g>
</svg>
