<?xml version="1.0" encoding="UTF-8" standalone="no"?>
<!DOCTYPE svg PUBLIC "-//W3C//DTD SVG 1.1//EN"
 "http://www.w3.org/Graphics/SVG/1.1/DTD/svg11.dtd">
<!-- Generated by graphviz version 9.0.0 (20230911.1827)
 -->
<!-- Title: SeriesDetector::listCandidates Pages: 1 -->
<svg width="454pt" height="299pt"
 viewBox="0.00 0.00 454.25 298.88" xmlns="http://www.w3.org/2000/svg" xmlns:xlink="http://www.w3.org/1999/xlink">

<svg id="main" version="1.1" xmlns="http://www.w3.org/2000/svg" xmlns:xlink="http://www.w3.org/1999/xlink" xml:space="preserve" onload="init(evt)">
<style type="text/css"><![CDATA[
.node, .edge {opacity: 0.7;}
.node.selected, .edge.selected {opacity: 1;}
.edge:hover path { stroke: red; }
.edge:hover polygon { stroke: red; fill: red; }
]]></style>
<script type="application/ecmascript" xlink:href="../../svg.min.js"/>
<svg id="graph" class="graph">
<g id="graph0" class="graph" transform="scale(1 1) rotate(0) translate(4 294.88)">
<title>SeriesDetector::listCandidates</title>
<!-- Node1 -->
<g id="Node000001" class="node">
<title>Node1</title>
<g id="a_Node000001"><a xlink:title=" ">
<polygon fill="#999999" stroke="#666666" points="146.5,-171.88 0,-171.88 0,-152.62 146.5,-152.62 146.5,-171.88"/>
<text text-anchor="middle" x="73.25" y="-158.38" font-family="Helvetica,sans-Serif" font-size="10.00">SeriesDetector::listCandidates</text>
</a>
</g>
</g>
<!-- Node2 -->
<g id="Node000002" class="node">
<title>Node2</title>
<g id="a_Node000002"><a xlink:href="../../d3/df6/class_series_detector.html#a6e234a1e8721233612cf4db84bf9dad5" target="_top" xlink:title=" ">
<polygon fill="#fff0f0" stroke="red" points="330.5,-290.88 182.5,-290.88 182.5,-271.62 330.5,-271.62 330.5,-290.88"/>
<text text-anchor="middle" x="256.5" y="-277.38" font-family="Helvetica,sans-Serif" font-size="10.00">SeriesDetector::analyzePhotos</text>
</a>
</g>
</g>
<!-- Node1&#45;&gt;Node2 -->
<g id="edge1_Node000001_Node000002" class="edge">
<title>Node1&#45;&gt;Node2</title>
<g id="a_edge1_Node000001_Node000002"><a xlink:title=" ">
<path fill="none" stroke="#63b8ff" d="M83.08,-172.33C100.35,-191.47 140.6,-233.31 182.5,-257.25 189.35,-261.16 196.93,-264.55 204.54,-267.44"/>
<polygon fill="#63b8ff" stroke="#63b8ff" points="203.22,-270.69 213.81,-270.71 205.54,-264.08 203.22,-270.69"/>
</a>
</g>
</g>
<!-- Node3 -->
<g id="Node000003" class="node">
<title>Node3</title>
<g id="a_Node000003"><a xlink:href="../../df/ddd/struct_i_logger.html#a72f523de0593fdab9bdd79302a51880e" target="_top" xlink:title=" ">
<polygon fill="white" stroke="#666666" points="446.25,-271.88 366.5,-271.88 366.5,-252.62 446.25,-252.62 446.25,-271.88"/>
<text text-anchor="middle" x="406.38" y="-258.38" font-family="Helvetica,sans-Serif" font-size="10.00">ILogger::debug</text>
</a>
</g>
</g>
<!-- Node1&#45;&gt;Node3 -->
<g id="edge3_Node000001_Node000003" class="edge">
<title>Node1&#45;&gt;Node3</title>
<g id="a_edge3_Node000001_Node000003"><a xlink:title=" ">
<path fill="none" stroke="#63b8ff" d="M87.84,-172.15C107.63,-186.06 146.01,-211.16 182.5,-224.25 239.55,-244.72 308.86,-254.32 354.89,-258.72"/>
<polygon fill="#63b8ff" stroke="#63b8ff" points="354.29,-262.18 364.56,-259.59 354.92,-255.21 354.29,-262.18"/>
</a>
</g>
</g>
<!-- Node10 -->
<g id="Node000010" class="node">
<title>Node10</title>
<g id="a_Node000010"><a xlink:href="../../d4/d20/task__executor__utils_8hpp.html#a3f0aa9b30c11096d7aa5e0e982b1c7a5" target="_top" xlink:title=" ">
<polygon fill="white" stroke="#666666" points="282.88,-214.88 230.12,-214.88 230.12,-195.62 282.88,-195.62 282.88,-214.88"/>
<text text-anchor="middle" x="256.5" y="-201.38" font-family="Helvetica,sans-Serif" font-size="10.00">evaluate</text>
</a>
</g>
</g>
<!-- Node1&#45;&gt;Node10 -->
<g id="edge4_Node000001_Node000010" class="edge">
<title>Node1&#45;&gt;Node10</title>
<g id="a_edge4_Node000001_Node000010"><a xlink:title=" ">
<path fill="none" stroke="#63b8ff" d="M116.75,-172.33C147.69,-179.67 189.18,-189.52 218.71,-196.52"/>
<polygon fill="#63b8ff" stroke="#63b8ff" points="217.77,-199.9 228.31,-198.8 219.39,-193.09 217.77,-199.9"/>
</a>
</g>
</g>
<!-- Node11 -->
<g id="Node000011" class="node">
<title>Node11</title>
<g id="a_Node000011"><a xlink:href="../../d2/ddd/struct_database_1_1_i_backend.html#ac762cc3e374776d405c5854a0d7e02d2" target="_top" xlink:title="fetch photo data">
<polygon fill="white" stroke="#666666" points="308,-177.5 205,-177.5 205,-147 308,-147 308,-177.5"/>
<text text-anchor="start" x="213" y="-164" font-family="Helvetica,sans-Serif" font-size="10.00">Database::IBackend</text>
<text text-anchor="middle" x="256.5" y="-152.75" font-family="Helvetica,sans-Serif" font-size="10.00">::getPhotoDelta</text>
</a>
</g>
</g>
<!-- Node1&#45;&gt;Node11 -->
<g id="edge5_Node000001_Node000011" class="edge">
<title>Node1&#45;&gt;Node11</title>
<g id="a_edge5_Node000001_Node000011"><a xlink:title=" ">
<path fill="none" stroke="#63b8ff" d="M146.93,-162.25C162.31,-162.25 178.41,-162.25 193.36,-162.25"/>
<polygon fill="#63b8ff" stroke="#63b8ff" points="193.02,-165.75 203.02,-162.25 193.02,-158.75 193.02,-165.75"/>
</a>
</g>
</g>
<!-- Node12 -->
<g id="Node000012" class="node">
<title>Node12</title>
<g id="a_Node000012"><a xlink:href="../../d0/d76/namespace_database.html#a4ec02b4e9c6e42324e216f62f863a5c7" target="_top" xlink:title="return filter which will filter out broken photos (missing, broken, deleted etc)">
<polygon fill="#fff0f0" stroke="red" points="320.38,-128.5 192.62,-128.5 192.62,-98 320.38,-98 320.38,-128.5"/>
<text text-anchor="start" x="200.62" y="-115" font-family="Helvetica,sans-Serif" font-size="10.00">Database::getValidPhotos</text>
<text text-anchor="middle" x="256.5" y="-103.75" font-family="Helvetica,sans-Serif" font-size="10.00">Filter</text>
</a>
</g>
</g>
<!-- Node1&#45;&gt;Node12 -->
<g id="edge6_Node000001_Node000012" class="edge">
<title>Node1&#45;&gt;Node12</title>
<g id="a_edge6_Node000001_Node000012"><a xlink:title=" ">
<path fill="none" stroke="#63b8ff" d="M111.37,-152.22C133.02,-146.36 161.04,-138.79 186.6,-131.88"/>
<polygon fill="#63b8ff" stroke="#63b8ff" points="187.18,-135.35 195.92,-129.36 185.35,-128.59 187.18,-135.35"/>
</a>
</g>
</g>
<!-- Node14 -->
<g id="Node000014" class="node">
<title>Node14</title>
<g id="a_Node000014"><a xlink:href="../../d1/d7e/struct_database_1_1_i_photo_operator.html#a38d3b053b7cd2404e7cf9420338e7c6a" target="_top" xlink:title=" ">
<polygon fill="white" stroke="#666666" points="320.38,-79.5 192.62,-79.5 192.62,-49 320.38,-49 320.38,-79.5"/>
<text text-anchor="start" x="200.62" y="-66" font-family="Helvetica,sans-Serif" font-size="10.00">Database::IPhotoOperator</text>
<text text-anchor="middle" x="256.5" y="-54.75" font-family="Helvetica,sans-Serif" font-size="10.00">::onPhotos</text>
</a>
</g>
</g>
<!-- Node1&#45;&gt;Node14 -->
<g id="edge7_Node000001_Node000014" class="edge">
<title>Node1&#45;&gt;Node14</title>
<g id="a_edge7_Node000001_Node000014"><a xlink:title=" ">
<path fill="none" stroke="#63b8ff" d="M86.58,-152.33C106,-137.09 145.36,-107.73 182.5,-89.25 186.13,-87.44 189.93,-85.71 193.79,-84.07"/>
<polygon fill="#63b8ff" stroke="#63b8ff" points="194.76,-87.45 202.73,-80.48 192.15,-80.96 194.76,-87.45"/>
</a>
</g>
</g>
<!-- Node15 -->
<g id="Node000015" class="node">
<title>Node15</title>
<g id="a_Node000015"><a xlink:href="../../d2/ddd/struct_database_1_1_i_backend.html#adc910ee6092bc177fb89dd8cebca1870" target="_top" xlink:title="get photo operator">
<polygon fill="white" stroke="#666666" points="308,-30.5 205,-30.5 205,0 308,0 308,-30.5"/>
<text text-anchor="start" x="213" y="-17" font-family="Helvetica,sans-Serif" font-size="10.00">Database::IBackend</text>
<text text-anchor="middle" x="256.5" y="-5.75" font-family="Helvetica,sans-Serif" font-size="10.00">::photoOperator</text>
</a>
</g>
</g>
<!-- Node1&#45;&gt;Node15 -->
<g id="edge8_Node000001_Node000015" class="edge">
<title>Node1&#45;&gt;Node15</title>
<g id="a_edge8_Node000001_Node000015"><a xlink:title=" ">
<path fill="none" stroke="#63b8ff" d="M80.53,-152.14C95.41,-129.01 135.13,-71.8 182.5,-40.25 186.22,-37.77 190.21,-35.52 194.34,-33.47"/>
<polygon fill="#63b8ff" stroke="#63b8ff" points="195.72,-36.68 203.42,-29.4 192.86,-30.29 195.72,-36.68"/>
</a>
</g>
</g>
<!-- Node2&#45;&gt;Node3 -->
<g id="edge2_Node000002_Node000003" class="edge">
<title>Node2&#45;&gt;Node3</title>
<g id="a_edge2_Node000002_Node000003"><a xlink:title=" ">
<path fill="none" stroke="#63b8ff" d="M330.57,-271.86C338.78,-270.81 347.01,-269.75 354.85,-268.74"/>
<polygon fill="#63b8ff" stroke="#63b8ff" points="355.03,-272.25 364.5,-267.5 354.14,-265.3 355.03,-272.25"/>
</a>
</g>
</g>
</g>
</svg>
</svg>

<style type='text/css'>
<![CDATA[
[data-mouse-over-selected='false'] { opacity: 0.7; }
[data-mouse-over-selected='true']  { opacity: 1.0; }
]]>
</style>
<script type="application/ecmascript"><![CDATA[
document.addEventListener('DOMContentLoaded', (event) => {
  highlightEdges();
  highlightAdjacentNodes();
});
]]></script>
</svg>
