<?xml version="1.0" encoding="UTF-8" standalone="no"?>
<!DOCTYPE svg PUBLIC "-//W3C//DTD SVG 1.1//EN"
 "http://www.w3.org/Graphics/SVG/1.1/DTD/svg11.dtd">
<!-- Generated by graphviz version 9.0.0 (20230911.1827)
 -->
<!-- Title: SeriesDetector::listCandidates Pages: 1 -->
<svg width="454pt" height="114pt"
 viewBox="0.00 0.00 454.25 113.88" xmlns="http://www.w3.org/2000/svg" xmlns:xlink="http://www.w3.org/1999/xlink">
<g id="graph0" class="graph" transform="scale(1 1) rotate(0) translate(4 109.88)">
<title>SeriesDetector::listCandidates</title>
<!-- Node1 -->
<g id="Node000001" class="node">
<title>Node1</title>
<g id="a_Node000001"><a xlink:title=" ">
<polygon fill="#999999" stroke="#666666" points="146.5,-67.88 0,-67.88 0,-48.62 146.5,-48.62 146.5,-67.88"/>
<text text-anchor="middle" x="73.25" y="-54.38" font-family="Helvetica,sans-Serif" font-size="10.00">SeriesDetector::listCandidates</text>
</a>
</g>
</g>
<!-- Node2 -->
<g id="Node000002" class="node">
<title>Node2</title>
<g id="a_Node000002"><a xlink:href="../../d3/df6/class_series_detector.html#a6e234a1e8721233612cf4db84bf9dad5" target="_top" xlink:title=" ">
<polygon fill="#fff0f0" stroke="red" points="330.5,-105.88 182.5,-105.88 182.5,-86.62 330.5,-86.62 330.5,-105.88"/>
<text text-anchor="middle" x="256.5" y="-92.38" font-family="Helvetica,sans-Serif" font-size="10.00">SeriesDetector::analyzePhotos</text>
</a>
</g>
</g>
<!-- Node1&#45;&gt;Node2 -->
<g id="edge1_Node000001_Node000002" class="edge">
<title>Node1&#45;&gt;Node2</title>
<g id="a_edge1_Node000001_Node000002"><a xlink:title=" ">
<path fill="none" stroke="#63b8ff" d="M122.35,-68.33C145.07,-73.1 172.41,-78.83 196.39,-83.86"/>
<polygon fill="#63b8ff" stroke="#63b8ff" points="195.51,-87.25 206.01,-85.87 196.94,-80.4 195.51,-87.25"/>
</a>
</g>
</g>
<!-- Node3 -->
<g id="Node000003" class="node">
<title>Node3</title>
<g id="a_Node000003"><a xlink:href="../../df/ddd/struct_i_logger.html#a72f523de0593fdab9bdd79302a51880e" target="_top" xlink:title=" ">
<polygon fill="white" stroke="#666666" points="446.25,-86.88 366.5,-86.88 366.5,-67.62 446.25,-67.62 446.25,-86.88"/>
<text text-anchor="middle" x="406.38" y="-73.38" font-family="Helvetica,sans-Serif" font-size="10.00">ILogger::debug</text>
</a>
</g>
</g>
<!-- Node1&#45;&gt;Node3 -->
<g id="edge3_Node000001_Node000003" class="edge">
<title>Node1&#45;&gt;Node3</title>
<g id="a_edge3_Node000001_Node000003"><a xlink:title=" ">
<path fill="none" stroke="#63b8ff" d="M146.92,-62.42C210.01,-66.04 299.72,-71.19 355.15,-74.37"/>
<polygon fill="#63b8ff" stroke="#63b8ff" points="354.74,-77.85 364.93,-74.93 355.14,-70.86 354.74,-77.85"/>
</a>
</g>
</g>
<!-- Node10 -->
<g id="Node000010" class="node">
<title>Node10</title>
<g id="a_Node000010"><a xlink:href="../../d0/d76/namespace_database.html#a4ec02b4e9c6e42324e216f62f863a5c7" target="_top" xlink:title="return filter which will filter out broken photos (missing, broken, deleted etc)">
<polygon fill="#fff0f0" stroke="red" points="320.38,-30.5 192.62,-30.5 192.62,0 320.38,0 320.38,-30.5"/>
<text text-anchor="start" x="200.62" y="-17" font-family="Helvetica,sans-Serif" font-size="10.00">Database::getValidPhotos</text>
<text text-anchor="middle" x="256.5" y="-5.75" font-family="Helvetica,sans-Serif" font-size="10.00">Filter</text>
</a>
</g>
</g>
<!-- Node1&#45;&gt;Node10 -->
<g id="edge4_Node000001_Node000010" class="edge">
<title>Node1&#45;&gt;Node10</title>
<g id="a_edge4_Node000001_Node000010"><a xlink:title=" ">
<path fill="none" stroke="#63b8ff" d="M116.75,-48.17C135.99,-43.6 159.31,-38.07 181.3,-32.85"/>
<polygon fill="#63b8ff" stroke="#63b8ff" points="181.91,-36.31 190.83,-30.59 180.3,-29.49 181.91,-36.31"/>
</a>
</g>
</g>
<!-- Node2&#45;&gt;Node3 -->
<g id="edge2_Node000002_Node000003" class="edge">
<title>Node2&#45;&gt;Node3</title>
<g id="a_edge2_Node000002_Node000003"><a xlink:title=" ">
<path fill="none" stroke="#63b8ff" d="M330.57,-86.86C338.78,-85.81 347.01,-84.75 354.85,-83.74"/>
<polygon fill="#63b8ff" stroke="#63b8ff" points="355.03,-87.25 364.5,-82.5 354.14,-80.3 355.03,-87.25"/>
</a>
</g>
</g>
</g>
</svg>
