<?xml version="1.0" encoding="UTF-8" standalone="no"?>
<!DOCTYPE svg PUBLIC "-//W3C//DTD SVG 1.1//EN"
 "http://www.w3.org/Graphics/SVG/1.1/DTD/svg11.dtd">
<!-- Generated by graphviz version 12.2.0 (20241103.1931)
 -->
<!-- Title: PersonInfo Pages: 1 -->
<svg width="253pt" height="137pt"
 viewBox="0.00 0.00 253.00 136.50" xmlns="http://www.w3.org/2000/svg" xmlns:xlink="http://www.w3.org/1999/xlink">
<g id="graph0" class="graph" transform="scale(1 1) rotate(0) translate(4 132.5)">
<title>PersonInfo</title>
<!-- Node1 -->
<g id="Node000001" class="node">
<title>Node1</title>
<g id="a_Node000001"><a xlink:title="Container for DB IDs of people related entries.">
<polygon fill="#999999" stroke="#666666" points="245,-73.88 181.75,-73.88 181.75,-54.62 245,-54.62 245,-73.88"/>
<text text-anchor="middle" x="213.38" y="-60.38" font-family="Helvetica,sans-Serif" font-size="10.00">PersonInfo</text>
</a>
</g>
</g>
<!-- Node2 -->
<g id="Node000002" class="node">
<title>Node2</title>
<g id="a_Node000002"><a xlink:href="../../db/dfb/class_id.html" target="_top" xlink:title=" ">
<polygon fill="white" stroke="#666666" points="120.25,-128.5 0,-128.5 0,-98 120.25,-98 120.25,-128.5"/>
<text text-anchor="start" x="8" y="-115" font-family="Helvetica,sans-Serif" font-size="10.00">Id&lt; int, struct personinfo</text>
<text text-anchor="middle" x="60.12" y="-103.75" font-family="Helvetica,sans-Serif" font-size="10.00">_tag &gt;</text>
</a>
</g>
</g>
<!-- Node2&#45;&gt;Node1 -->
<g id="edge1_Node000001_Node000002" class="edge">
<title>Node2&#45;&gt;Node1</title>
<g id="a_edge1_Node000001_Node000002"><a xlink:title=" ">
<path fill="none" stroke="#9a32cd" stroke-dasharray="5,2" d="M120.18,-94.12C141.19,-87.31 163.99,-79.92 181.66,-74.2"/>
<polygon fill="#9a32cd" stroke="#9a32cd" points="119.27,-90.73 110.84,-97.14 121.43,-97.39 119.27,-90.73"/>
</a>
</g>
<text text-anchor="middle" x="151" y="-89.03" font-family="Helvetica,sans-Serif" font-size="10.00" fill="grey"> id</text>
</g>
<!-- Node3 -->
<g id="Node000003" class="node">
<title>Node3</title>
<g id="a_Node000003"><a xlink:href="../../db/dfb/class_id.html" target="_top" xlink:title=" ">
<polygon fill="white" stroke="#666666" points="112.38,-79.5 7.88,-79.5 7.88,-49 112.38,-49 112.38,-79.5"/>
<text text-anchor="start" x="15.88" y="-66" font-family="Helvetica,sans-Serif" font-size="10.00">Id&lt; int, struct person</text>
<text text-anchor="middle" x="60.12" y="-54.75" font-family="Helvetica,sans-Serif" font-size="10.00">_tag &gt;</text>
</a>
</g>
</g>
<!-- Node3&#45;&gt;Node1 -->
<g id="edge2_Node000001_Node000003" class="edge">
<title>Node3&#45;&gt;Node1</title>
<g id="a_edge2_Node000001_Node000003"><a xlink:title=" ">
<path fill="none" stroke="#9a32cd" stroke-dasharray="5,2" d="M124.26,-64.25C144.12,-64.25 165.15,-64.25 181.69,-64.25"/>
<polygon fill="#9a32cd" stroke="#9a32cd" points="124.27,-60.75 114.27,-64.25 124.27,-67.75 124.27,-60.75"/>
</a>
</g>
<text text-anchor="middle" x="151" y="-66" font-family="Helvetica,sans-Serif" font-size="10.00" fill="grey"> p_id</text>
</g>
<!-- Node4 -->
<g id="Node000004" class="node">
<title>Node4</title>
<g id="a_Node000004"><a xlink:href="../../db/dfb/class_id.html" target="_top" xlink:title=" ">
<polygon fill="white" stroke="#666666" points="109.75,-30.5 10.5,-30.5 10.5,0 109.75,0 109.75,-30.5"/>
<text text-anchor="start" x="18.5" y="-17" font-family="Helvetica,sans-Serif" font-size="10.00">Id&lt; int, struct photo</text>
<text text-anchor="middle" x="60.12" y="-5.75" font-family="Helvetica,sans-Serif" font-size="10.00">_tag &gt;</text>
</a>
</g>
</g>
<!-- Node4&#45;&gt;Node1 -->
<g id="edge3_Node000001_Node000004" class="edge">
<title>Node4&#45;&gt;Node1</title>
<g id="a_edge3_Node000001_Node000004"><a xlink:title=" ">
<path fill="none" stroke="#9a32cd" stroke-dasharray="5,2" d="M120.18,-34.38C141.19,-41.19 163.99,-48.58 181.66,-54.3"/>
<polygon fill="#9a32cd" stroke="#9a32cd" points="121.43,-31.11 110.84,-31.36 119.27,-37.77 121.43,-31.11"/>
</a>
</g>
<text text-anchor="middle" x="151" y="-50.15" font-family="Helvetica,sans-Serif" font-size="10.00" fill="grey"> ph_id</text>
</g>
</g>
</svg>
