<?xml version="1.0" encoding="UTF-8" standalone="no"?>
<!DOCTYPE svg PUBLIC "-//W3C//DTD SVG 1.1//EN"
 "http://www.w3.org/Graphics/SVG/1.1/DTD/svg11.dtd">
<!-- Generated by graphviz version 9.0.0 (20230911.1827)
 -->
<!-- Title: PhotoDataQml::setPhotoData Pages: 1 -->
<svg width="505pt" height="327pt"
 viewBox="0.00 0.00 505.25 327.25" xmlns="http://www.w3.org/2000/svg" xmlns:xlink="http://www.w3.org/1999/xlink">
<g id="graph0" class="graph" transform="scale(1 1) rotate(0) translate(4 323.25)">
<title>PhotoDataQml::setPhotoData</title>
<!-- Node1 -->
<g id="Node000001" class="node">
<title>Node1</title>
<g id="a_Node000001"><a xlink:title=" ">
<polygon fill="#999999" stroke="#666666" points="143.5,-168.25 0,-168.25 0,-149 143.5,-149 143.5,-168.25"/>
<text text-anchor="middle" x="71.75" y="-154.75" font-family="Helvetica,sans-Serif" font-size="10.00">PhotoDataQml::setPhotoData</text>
</a>
</g>
</g>
<!-- Node2 -->
<g id="Node000002" class="node">
<title>Node2</title>
<g id="a_Node000002"><a xlink:href="../../d7/ddf/class_photo_data_qml.html#ae06ba5550e50cdd72d21009790cfb401" target="_top" xlink:title=" ">
<polygon fill="white" stroke="#666666" points="334.25,-319.25 191.5,-319.25 191.5,-300 334.25,-300 334.25,-319.25"/>
<text text-anchor="middle" x="262.88" y="-305.75" font-family="Helvetica,sans-Serif" font-size="10.00">PhotoDataQml::flagsChanged</text>
</a>
</g>
</g>
<!-- Node1&#45;&gt;Node2 -->
<g id="edge1_Node000001_Node000002" class="edge">
<title>Node1&#45;&gt;Node2</title>
<g id="a_edge1_Node000001_Node000002"><a xlink:title=" ">
<path fill="none" stroke="#63b8ff" d="M78.28,-168.6C92.09,-192.55 130.52,-253.7 179.5,-285.62 185.7,-289.67 192.61,-293.05 199.7,-295.87"/>
<polygon fill="#63b8ff" stroke="#63b8ff" points="198.15,-299.03 208.75,-299.1 200.51,-292.44 198.15,-299.03"/>
</a>
</g>
</g>
<!-- Node3 -->
<g id="Node000003" class="node">
<title>Node3</title>
<g id="a_Node000003"><a xlink:href="../../d7/ddf/class_photo_data_qml.html#a0d12bcb6ffdad1cc29f4e9cea53ec47f" target="_top" xlink:title="access to flags as a QML compatible map">
<polygon fill="#fff0f0" stroke="red" points="323.75,-206.25 202,-206.25 202,-187 323.75,-187 323.75,-206.25"/>
<text text-anchor="middle" x="262.88" y="-192.75" font-family="Helvetica,sans-Serif" font-size="10.00">PhotoDataQml::getFlags</text>
</a>
</g>
</g>
<!-- Node1&#45;&gt;Node3 -->
<g id="edge2_Node000001_Node000003" class="edge">
<title>Node1&#45;&gt;Node3</title>
<g id="a_edge2_Node000001_Node000003"><a xlink:title=" ">
<path fill="none" stroke="#63b8ff" d="M122.94,-168.71C146.75,-173.49 175.43,-179.26 200.53,-184.3"/>
<polygon fill="#63b8ff" stroke="#63b8ff" points="199.81,-187.72 210.3,-186.26 201.18,-180.86 199.81,-187.72"/>
</a>
</g>
</g>
<!-- Node5 -->
<g id="Node000005" class="node">
<title>Node5</title>
<g id="a_Node000005"><a xlink:href="../../d7/d1e/class_photo_1_1_data_delta.html#a8dbb1d880f0c0b37a9629fae8d098413" target="_top" xlink:title=" ">
<polygon fill="white" stroke="#666666" points="497.25,-243.25 382.25,-243.25 382.25,-224 497.25,-224 497.25,-243.25"/>
<text text-anchor="middle" x="439.75" y="-229.75" font-family="Helvetica,sans-Serif" font-size="10.00">Photo::DataDelta::getId</text>
</a>
</g>
</g>
<!-- Node1&#45;&gt;Node5 -->
<g id="edge5_Node000001_Node000005" class="edge">
<title>Node1&#45;&gt;Node5</title>
<g id="a_edge5_Node000001_Node000005"><a xlink:title=" ">
<path fill="none" stroke="#63b8ff" d="M79.89,-168.56C95.31,-189.04 133.99,-235.44 179.5,-252.62 252.86,-280.32 346.06,-261.67 398.38,-246.82"/>
<polygon fill="#63b8ff" stroke="#63b8ff" points="399.15,-250.25 407.76,-244.07 397.18,-243.53 399.15,-250.25"/>
</a>
</g>
</g>
<!-- Node6 -->
<g id="Node000006" class="node">
<title>Node6</title>
<g id="a_Node000006"><a xlink:href="../../db/dfb/class_id.html#aa535d6564e027b5889869dcb10093bed" target="_top" xlink:title=" ">
<polygon fill="white" stroke="#666666" points="464.25,-206.25 415.25,-206.25 415.25,-187 464.25,-187 464.25,-206.25"/>
<text text-anchor="middle" x="439.75" y="-192.75" font-family="Helvetica,sans-Serif" font-size="10.00">Id::valid</text>
</a>
</g>
</g>
<!-- Node1&#45;&gt;Node6 -->
<g id="edge13_Node000001_Node000006" class="edge">
<title>Node1&#45;&gt;Node6</title>
<g id="a_edge13_Node000001_Node000006"><a xlink:title=" ">
<path fill="none" stroke="#63b8ff" d="M143.85,-160.97C199.21,-163.42 277.87,-168.27 346.25,-177.62 365.39,-180.24 386.5,-184.48 403.72,-188.28"/>
<polygon fill="#63b8ff" stroke="#63b8ff" points="402.94,-191.69 413.47,-190.49 404.49,-184.87 402.94,-191.69"/>
</a>
</g>
</g>
<!-- Node7 -->
<g id="Node000007" class="node">
<title>Node7</title>
<g id="a_Node000007"><a xlink:href="../../d7/d1e/class_photo_1_1_data_delta.html#a526b9c664ac0f9be3661a67ff2343401" target="_top" xlink:title=" ">
<polygon fill="white" stroke="#666666" points="317.38,-130.25 208.38,-130.25 208.38,-111 317.38,-111 317.38,-130.25"/>
<text text-anchor="middle" x="262.88" y="-116.75" font-family="Helvetica,sans-Serif" font-size="10.00">Photo::DataDelta::has</text>
</a>
</g>
</g>
<!-- Node1&#45;&gt;Node7 -->
<g id="edge6_Node000001_Node000007" class="edge">
<title>Node1&#45;&gt;Node7</title>
<g id="a_edge6_Node000001_Node000007"><a xlink:title=" ">
<path fill="none" stroke="#63b8ff" d="M122.94,-148.54C146.75,-143.76 175.43,-137.99 200.53,-132.95"/>
<polygon fill="#63b8ff" stroke="#63b8ff" points="201.18,-136.39 210.3,-130.99 199.81,-129.53 201.18,-136.39"/>
</a>
</g>
</g>
<!-- Node8 -->
<g id="Node000008" class="node">
<title>Node8</title>
<g id="a_Node000008"><a xlink:href="../../d7/ddf/class_photo_data_qml.html#ab1034364057bf340170712083e0d2c83" target="_top" xlink:title=" ">
<polygon fill="white" stroke="#666666" points="321.88,-243.25 203.88,-243.25 203.88,-224 321.88,-224 321.88,-243.25"/>
<text text-anchor="middle" x="262.88" y="-229.75" font-family="Helvetica,sans-Serif" font-size="10.00">PhotoDataQml::isGroup</text>
</a>
</g>
</g>
<!-- Node1&#45;&gt;Node8 -->
<g id="edge7_Node000001_Node000008" class="edge">
<title>Node1&#45;&gt;Node8</title>
<g id="a_edge7_Node000001_Node000008"><a xlink:title=" ">
<path fill="none" stroke="#63b8ff" d="M88.03,-168.54C108.21,-181.2 145.19,-202.99 179.5,-215.62 184.48,-217.46 189.69,-219.13 194.98,-220.65"/>
<polygon fill="#63b8ff" stroke="#63b8ff" points="193.86,-223.98 204.43,-223.18 195.67,-217.22 193.86,-223.98"/>
</a>
</g>
</g>
<!-- Node9 -->
<g id="Node000009" class="node">
<title>Node9</title>
<g id="a_Node000009"><a xlink:href="../../d7/ddf/class_photo_data_qml.html#ae97be46b3dca123c579bed4fe1903cf5" target="_top" xlink:title=" ">
<polygon fill="white" stroke="#666666" points="341,-93.25 184.75,-93.25 184.75,-74 341,-74 341,-93.25"/>
<text text-anchor="middle" x="262.88" y="-79.75" font-family="Helvetica,sans-Serif" font-size="10.00">PhotoDataQml::isGroupChanged</text>
</a>
</g>
</g>
<!-- Node1&#45;&gt;Node9 -->
<g id="edge10_Node000001_Node000009" class="edge">
<title>Node1&#45;&gt;Node9</title>
<g id="a_edge10_Node000001_Node000009"><a xlink:title=" ">
<path fill="none" stroke="#63b8ff" d="M88.03,-148.71C108.21,-136.05 145.19,-114.26 179.5,-101.62 184.48,-99.79 189.69,-98.12 194.98,-96.6"/>
<polygon fill="#63b8ff" stroke="#63b8ff" points="195.67,-100.03 204.43,-94.07 193.86,-93.27 195.67,-100.03"/>
</a>
</g>
</g>
<!-- Node10 -->
<g id="Node000010" class="node">
<title>Node10</title>
<g id="a_Node000010"><a xlink:href="../../d7/ddf/class_photo_data_qml.html#a1a15a9f69148495c1ad6ee4570885298" target="_top" xlink:title=" ">
<polygon fill="white" stroke="#666666" points="333.5,-56.25 192.25,-56.25 192.25,-37 333.5,-37 333.5,-56.25"/>
<text text-anchor="middle" x="262.88" y="-42.75" font-family="Helvetica,sans-Serif" font-size="10.00">PhotoDataQml::pathChanged</text>
</a>
</g>
</g>
<!-- Node1&#45;&gt;Node10 -->
<g id="edge11_Node000001_Node000010" class="edge">
<title>Node1&#45;&gt;Node10</title>
<g id="a_edge11_Node000001_Node000010"><a xlink:title=" ">
<path fill="none" stroke="#63b8ff" d="M80.98,-148.56C97.49,-129.09 136.76,-86.26 179.5,-64.62 182.54,-63.09 185.7,-61.68 188.95,-60.4"/>
<polygon fill="#63b8ff" stroke="#63b8ff" points="189.82,-63.8 198.09,-57.18 187.5,-57.19 189.82,-63.8"/>
</a>
</g>
</g>
<!-- Node11 -->
<g id="Node000011" class="node">
<title>Node11</title>
<g id="a_Node000011"><a xlink:href="../../d7/ddf/class_photo_data_qml.html#a019ead5fe46836fb8882974d02136def" target="_top" xlink:title=" ">
<polygon fill="white" stroke="#666666" points="346.25,-19.25 179.5,-19.25 179.5,0 346.25,0 346.25,-19.25"/>
<text text-anchor="middle" x="262.88" y="-5.75" font-family="Helvetica,sans-Serif" font-size="10.00">PhotoDataQml::photoDataChanged</text>
</a>
</g>
</g>
<!-- Node1&#45;&gt;Node11 -->
<g id="edge12_Node000001_Node000011" class="edge">
<title>Node1&#45;&gt;Node11</title>
<g id="a_edge12_Node000001_Node000011"><a xlink:title=" ">
<path fill="none" stroke="#63b8ff" d="M77.67,-148.85C90.63,-124.18 128.26,-59.12 179.5,-27.62 181.42,-26.45 183.4,-25.34 185.44,-24.31"/>
<polygon fill="#63b8ff" stroke="#63b8ff" points="186.81,-27.53 194.59,-20.34 184.03,-21.11 186.81,-27.53"/>
</a>
</g>
</g>
<!-- Node3&#45;&gt;Node5 -->
<g id="edge3_Node000003_Node000005" class="edge">
<title>Node3&#45;&gt;Node5</title>
<g id="a_edge3_Node000003_Node000005"><a xlink:title=" ">
<path fill="none" stroke="#63b8ff" d="M311.66,-206.74C332.77,-211.2 357.79,-216.5 380.02,-221.2"/>
<polygon fill="#63b8ff" stroke="#63b8ff" points="379.03,-224.57 389.54,-223.21 380.48,-217.72 379.03,-224.57"/>
</a>
</g>
</g>
<!-- Node3&#45;&gt;Node6 -->
<g id="edge4_Node000003_Node000006" class="edge">
<title>Node3&#45;&gt;Node6</title>
<g id="a_edge4_Node000003_Node000006"><a xlink:title=" ">
<path fill="none" stroke="#63b8ff" d="M324.06,-196.62C350.52,-196.62 380.69,-196.62 403.44,-196.62"/>
<polygon fill="#63b8ff" stroke="#63b8ff" points="403.41,-200.13 413.41,-196.63 403.41,-193.13 403.41,-200.13"/>
</a>
</g>
</g>
<!-- Node8&#45;&gt;Node5 -->
<g id="edge8_Node000008_Node000005" class="edge">
<title>Node8&#45;&gt;Node5</title>
<g id="a_edge8_Node000008_Node000005"><a xlink:title=" ">
<path fill="none" stroke="#63b8ff" d="M322.11,-233.62C337.62,-233.62 354.51,-233.62 370.51,-233.62"/>
<polygon fill="#63b8ff" stroke="#63b8ff" points="370.45,-237.13 380.45,-233.63 370.45,-230.13 370.45,-237.13"/>
</a>
</g>
</g>
<!-- Node8&#45;&gt;Node6 -->
<g id="edge9_Node000008_Node000006" class="edge">
<title>Node8&#45;&gt;Node6</title>
<g id="a_edge9_Node000008_Node000006"><a xlink:title=" ">
<path fill="none" stroke="#63b8ff" d="M311.66,-223.51C340.91,-217.33 377.66,-209.55 404.11,-203.95"/>
<polygon fill="#63b8ff" stroke="#63b8ff" points="404.58,-207.43 413.64,-201.94 403.13,-200.58 404.58,-207.43"/>
</a>
</g>
</g>
</g>
</svg>
