<?xml version="1.0" encoding="UTF-8" standalone="no"?>
<!DOCTYPE svg PUBLIC "-//W3C//DTD SVG 1.1//EN"
 "http://www.w3.org/Graphics/SVG/1.1/DTD/svg11.dtd">
<!-- Generated by graphviz version 7.0.5 (20221223.1930)
 -->
<!-- Title: PhotoDataQml::setPhotoData Pages: 1 -->
<svg width="462pt" height="157pt"
 viewBox="0.00 0.00 462.00 156.70" xmlns="http://www.w3.org/2000/svg" xmlns:xlink="http://www.w3.org/1999/xlink">
<g id="graph0" class="graph" transform="scale(1 1) rotate(0) translate(4 152.7)">
<title>PhotoDataQml::setPhotoData</title>
<!-- Node1 -->
<g id="node1" class="node">
<title>Node1</title>
<g id="a_node1"><a xlink:title=" ">
<polygon fill="#999999" stroke="#666666" points="144,-95 0,-95 0,-76 144,-76 144,-95"/>
<text text-anchor="middle" x="72" y="-83" font-family="Helvetica,sans-Serif" font-size="10.00">PhotoDataQml::setPhotoData</text>
</a>
</g>
</g>
<!-- Node2 -->
<g id="node2" class="node">
<title>Node2</title>
<g id="a_node2"><a xlink:href="../../d7/ddf/class_photo_data_qml.html#a0d12bcb6ffdad1cc29f4e9cea53ec47f" target="_top" xlink:title="access to flags as a QML compatible map">
<polygon fill="#fff0f0" stroke="red" points="302,-95 180,-95 180,-76 302,-76 302,-95"/>
<text text-anchor="middle" x="241" y="-83" font-family="Helvetica,sans-Serif" font-size="10.00">PhotoDataQml::getFlags</text>
</a>
</g>
</g>
<!-- Node1&#45;&gt;Node2 -->
<g id="edge1" class="edge">
<title>Node1&#45;&gt;Node2</title>
<path fill="none" stroke="#63b8ff" d="M144.31,-85.5C152.23,-85.5 160.3,-85.5 168.23,-85.5"/>
<polygon fill="#63b8ff" stroke="#63b8ff" points="168.19,-89 178.19,-85.5 168.19,-82 168.19,-89"/>
</g>
<!-- Node4 -->
<g id="node3" class="node">
<title>Node4</title>
<g id="a_node3"><a xlink:href="../../d7/d1e/class_photo_1_1_data_delta.html#a8dbb1d880f0c0b37a9629fae8d098413" target="_top" xlink:title=" ">
<polygon fill="white" stroke="#666666" points="454,-132 338,-132 338,-113 454,-113 454,-132"/>
<text text-anchor="middle" x="396" y="-120" font-family="Helvetica,sans-Serif" font-size="10.00">Photo::DataDelta::getId</text>
</a>
</g>
</g>
<!-- Node1&#45;&gt;Node4 -->
<g id="edge4" class="edge">
<title>Node1&#45;&gt;Node4</title>
<path fill="none" stroke="#63b8ff" d="M86.65,-95.45C106.19,-109 143.76,-132.59 180,-141.5 237.12,-155.54 305.03,-145.22 349.02,-135.13"/>
<polygon fill="#63b8ff" stroke="#63b8ff" points="349.83,-138.54 358.74,-132.81 348.2,-131.73 349.83,-138.54"/>
</g>
<!-- Node5 -->
<g id="node4" class="node">
<title>Node5</title>
<g id="a_node4"><a xlink:href="../../db/dfb/class_id.html#aa535d6564e027b5889869dcb10093bed" target="_top" xlink:title=" ">
<polygon fill="white" stroke="#666666" points="421,-95 371,-95 371,-76 421,-76 421,-95"/>
<text text-anchor="middle" x="396" y="-83" font-family="Helvetica,sans-Serif" font-size="10.00">Id::valid</text>
</a>
</g>
</g>
<!-- Node1&#45;&gt;Node5 -->
<g id="edge9" class="edge">
<title>Node1&#45;&gt;Node5</title>
<path fill="none" stroke="#63b8ff" d="M118.85,-75.53C137.69,-71.92 159.8,-68.28 180,-66.5 234.01,-61.74 248.05,-61.05 302,-66.5 321.37,-68.46 342.66,-72.65 359.98,-76.61"/>
<polygon fill="#63b8ff" stroke="#63b8ff" points="358.72,-79.91 369.26,-78.8 360.33,-73.09 358.72,-79.91"/>
</g>
<!-- Node6 -->
<g id="node5" class="node">
<title>Node6</title>
<g id="a_node5"><a xlink:href="../../d7/d1e/class_photo_1_1_data_delta.html#a526b9c664ac0f9be3661a67ff2343401" target="_top" xlink:title=" ">
<polygon fill="white" stroke="#666666" points="296,-19 186,-19 186,0 296,0 296,-19"/>
<text text-anchor="middle" x="241" y="-7" font-family="Helvetica,sans-Serif" font-size="10.00">Photo::DataDelta::has</text>
</a>
</g>
</g>
<!-- Node1&#45;&gt;Node6 -->
<g id="edge5" class="edge">
<title>Node1&#45;&gt;Node6</title>
<path fill="none" stroke="#63b8ff" d="M92.13,-75.69C113.39,-64.9 148.83,-47.29 180,-33.5 187.46,-30.2 195.53,-26.84 203.25,-23.71"/>
<polygon fill="#63b8ff" stroke="#63b8ff" points="204.44,-27.01 212.43,-20.05 201.85,-20.51 204.44,-27.01"/>
</g>
<!-- Node7 -->
<g id="node6" class="node">
<title>Node7</title>
<g id="a_node6"><a xlink:href="../../d7/ddf/class_photo_data_qml.html#ab1034364057bf340170712083e0d2c83" target="_top" xlink:title=" ">
<polygon fill="white" stroke="#666666" points="300.5,-132 181.5,-132 181.5,-113 300.5,-113 300.5,-132"/>
<text text-anchor="middle" x="241" y="-120" font-family="Helvetica,sans-Serif" font-size="10.00">PhotoDataQml::isGroup</text>
</a>
</g>
</g>
<!-- Node1&#45;&gt;Node7 -->
<g id="edge6" class="edge">
<title>Node1&#45;&gt;Node7</title>
<path fill="none" stroke="#63b8ff" d="M117.75,-95.42C138.16,-99.94 162.53,-105.34 184.12,-110.12"/>
<polygon fill="#63b8ff" stroke="#63b8ff" points="183.13,-113.48 193.65,-112.23 184.64,-106.65 183.13,-113.48"/>
</g>
<!-- Node2&#45;&gt;Node4 -->
<g id="edge2" class="edge">
<title>Node2&#45;&gt;Node4</title>
<path fill="none" stroke="#63b8ff" d="M283,-95.42C301.35,-99.85 323.2,-105.14 342.71,-109.86"/>
<polygon fill="#63b8ff" stroke="#63b8ff" points="341.87,-113.25 352.41,-112.2 343.52,-106.45 341.87,-113.25"/>
</g>
<!-- Node2&#45;&gt;Node5 -->
<g id="edge3" class="edge">
<title>Node2&#45;&gt;Node5</title>
<path fill="none" stroke="#63b8ff" d="M302.47,-85.5C321.88,-85.5 342.73,-85.5 359.72,-85.5"/>
<polygon fill="#63b8ff" stroke="#63b8ff" points="359.28,-89 369.28,-85.5 359.28,-82 359.28,-89"/>
</g>
<!-- Node7&#45;&gt;Node4 -->
<g id="edge7" class="edge">
<title>Node7&#45;&gt;Node4</title>
<path fill="none" stroke="#63b8ff" d="M300.72,-122.5C309.06,-122.5 317.7,-122.5 326.21,-122.5"/>
<polygon fill="#63b8ff" stroke="#63b8ff" points="326.19,-126 336.19,-122.5 326.19,-119 326.19,-126"/>
</g>
<!-- Node7&#45;&gt;Node5 -->
<g id="edge8" class="edge">
<title>Node7&#45;&gt;Node5</title>
<path fill="none" stroke="#63b8ff" d="M283,-112.58C306.93,-106.8 336.81,-99.57 359.69,-94.04"/>
<polygon fill="#63b8ff" stroke="#63b8ff" points="360.26,-97.5 369.15,-91.75 358.61,-90.7 360.26,-97.5"/>
</g>
</g>
</svg>
