<?xml version="1.0" encoding="UTF-8" standalone="no"?>
<!DOCTYPE svg PUBLIC "-//W3C//DTD SVG 1.1//EN"
 "http://www.w3.org/Graphics/SVG/1.1/DTD/svg11.dtd">
<!-- Generated by graphviz version 9.0.0 (20230911.1827)
 -->
<!-- Title: Photo::is Pages: 1 -->
<svg width="217pt" height="64pt"
 viewBox="0.00 0.00 217.00 64.25" xmlns="http://www.w3.org/2000/svg" xmlns:xlink="http://www.w3.org/1999/xlink">
<g id="graph0" class="graph" transform="scale(1 1) rotate(0) translate(4 60.25)">
<title>Photo::is</title>
<!-- Node1 -->
<g id="Node000001" class="node">
<title>Node1</title>
<g id="a_Node000001"><a xlink:title=" ">
<polygon fill="#999999" stroke="#666666" points="209,-37.25 155.5,-37.25 155.5,-18 209,-18 209,-37.25"/>
<text text-anchor="middle" x="182.25" y="-23.75" font-family="Helvetica,sans-Serif" font-size="10.00">Photo::is</text>
</a>
</g>
</g>
<!-- Node2 -->
<g id="Node000002" class="node">
<title>Node2</title>
<g id="a_Node000002"><a xlink:href="../../db/d29/class_photo_1_1_explicit_delta.html#a28783fc8b1bda6ef17794e5ad23b0a73" target="_top" xlink:title=" ">
<polygon fill="#fff0f0" stroke="red" points="119.5,-56.25 0,-56.25 0,-37 119.5,-37 119.5,-56.25"/>
<text text-anchor="middle" x="59.75" y="-42.75" font-family="Helvetica,sans-Serif" font-size="10.00">Photo::ExplicitDelta::has</text>
</a>
</g>
</g>
<!-- Node1&#45;&gt;Node2 -->
<g id="edge1_Node000001_Node000002" class="edge">
<title>Node1&#45;&gt;Node2</title>
<g id="a_edge1_Node000001_Node000002"><a xlink:title=" ">
<path fill="none" stroke="#63b8ff" d="M143.77,-33.54C136.2,-34.73 128.08,-36.01 119.98,-37.29"/>
<polygon fill="#63b8ff" stroke="#63b8ff" points="144.28,-37 153.61,-31.98 143.19,-30.08 144.28,-37"/>
</a>
</g>
</g>
<!-- Node6 -->
<g id="Node000006" class="node">
<title>Node6</title>
<g id="a_Node000006"><a xlink:href="../../db/d29/class_photo_1_1_explicit_delta.html#acac3a734d9c10410e7d1615a3416a310" target="_top" xlink:title=" ">
<polygon fill="white" stroke="#666666" points="119.5,-19.25 0,-19.25 0,0 119.5,0 119.5,-19.25"/>
<text text-anchor="middle" x="59.75" y="-5.75" font-family="Helvetica,sans-Serif" font-size="10.00">Photo::ExplicitDelta::has</text>
</a>
</g>
</g>
<!-- Node1&#45;&gt;Node6 -->
<g id="edge2_Node000001_Node000006" class="edge">
<title>Node1&#45;&gt;Node6</title>
<g id="a_edge2_Node000001_Node000006"><a xlink:title=" ">
<path fill="none" stroke="#63b8ff" d="M143.77,-22.03C136.2,-20.9 128.08,-19.68 119.98,-18.47"/>
<polygon fill="#63b8ff" stroke="#63b8ff" points="143.2,-25.48 153.61,-23.5 144.23,-18.56 143.2,-25.48"/>
</a>
</g>
</g>
</g>
</svg>
