<?xml version="1.0" encoding="UTF-8" standalone="no"?>
<!DOCTYPE svg PUBLIC "-//W3C//DTD SVG 1.1//EN"
 "http://www.w3.org/Graphics/SVG/1.1/DTD/svg11.dtd">
<!-- Generated by graphviz version 12.2.0 (20241103.1931)
 -->
<!-- Title: Photo::EDV Pages: 1 -->
<svg width="227pt" height="174pt"
 viewBox="0.00 0.00 226.75 173.50" xmlns="http://www.w3.org/2000/svg" xmlns:xlink="http://www.w3.org/1999/xlink">

<svg id="main" version="1.1" xmlns="http://www.w3.org/2000/svg" xmlns:xlink="http://www.w3.org/1999/xlink" xml:space="preserve">

<style type="text/css"><![CDATA[
.node, .edge {opacity: 0.7;}
.node.selected, .edge.selected {opacity: 1;}
.edge:hover path { stroke: red; }
.edge:hover polygon { stroke: red; fill: red; }
]]></style>
<script type="application/ecmascript" xlink:href="../../svg.min.js"/>
<svg id="graph" class="graph">
<g id="graph0" class="graph" transform="scale(1 1) rotate(0) translate(4 169.5)">
<title>Photo::EDV</title>
<!-- Node1 -->
<g id="Node000001" class="node">
<title>Node1</title>
<g id="a_Node000001"><a xlink:title=" ">
<polygon fill="#999999" stroke="#666666" points="218.75,-88.88 153.25,-88.88 153.25,-69.62 218.75,-69.62 218.75,-88.88"/>
<text text-anchor="middle" x="186" y="-75.38" font-family="Helvetica,sans-Serif" font-size="10.00">Photo::EDV</text>
</a>
</g>
</g>
<!-- Node2 -->
<g id="Node000002" class="node">
<title>Node2</title>
<g id="a_Node000002"><a xlink:href="../../d2/dbb/class_photo_properties_model.html#a7bd2e4c9a2287916636b0f8ea74aff0e" target="_top" xlink:title=" ">
<polygon fill="#fff0f0" stroke="red" points="114.62,-165.5 2.63,-165.5 2.63,-135 114.62,-135 114.62,-165.5"/>
<text text-anchor="start" x="10.62" y="-152" font-family="Helvetica,sans-Serif" font-size="10.00">PhotoPropertiesModel</text>
<text text-anchor="middle" x="58.62" y="-140.75" font-family="Helvetica,sans-Serif" font-size="10.00">::gotPhotoData</text>
</a>
</g>
</g>
<!-- Node1&#45;&gt;Node2 -->
<g id="edge1_Node000001_Node000002" class="edge">
<title>Node1&#45;&gt;Node2</title>
<g id="a_edge1_Node000001_Node000002"><a xlink:title=" ">
<path fill="none" stroke="#63b8ff" d="M162.69,-95.96C149.79,-105.21 133.03,-116.57 117.25,-125.25 111.33,-128.51 104.89,-131.66 98.54,-134.55"/>
<polygon fill="#63b8ff" stroke="#63b8ff" points="164.48,-98.98 170.5,-90.26 160.36,-93.32 164.48,-98.98"/>
</a>
</g>
</g>
<!-- Node4 -->
<g id="Node000004" class="node">
<title>Node4</title>
<g id="a_Node000004"><a xlink:href="../../de/db3/class_context_menu_manager.html#aff00d39bef03fe6d1651dc2f950b0299" target="_top" xlink:title=" ">
<polygon fill="#fff0f0" stroke="red" points="113.88,-116.5 3.38,-116.5 3.38,-86 113.88,-86 113.88,-116.5"/>
<text text-anchor="start" x="11.38" y="-103" font-family="Helvetica,sans-Serif" font-size="10.00">ContextMenuManager</text>
<text text-anchor="middle" x="58.62" y="-91.75" font-family="Helvetica,sans-Serif" font-size="10.00">::groupPhotosAction</text>
</a>
</g>
</g>
<!-- Node1&#45;&gt;Node4 -->
<g id="edge2_Node000001_Node000004" class="edge">
<title>Node1&#45;&gt;Node4</title>
<g id="a_edge2_Node000001_Node000004"><a xlink:title=" ">
<path fill="none" stroke="#63b8ff" d="M141.99,-86.8C132.96,-88.38 123.32,-90.07 113.94,-91.72"/>
<polygon fill="#63b8ff" stroke="#63b8ff" points="142.3,-90.3 151.55,-85.12 141.09,-83.4 142.3,-90.3"/>
</a>
</g>
</g>
<!-- Node7 -->
<g id="Node000007" class="node">
<title>Node7</title>
<g id="a_Node000007"><a xlink:href="../../d0/d5d/class_tags_model.html#a005b3a8e153bcc5222505a189bcf95b5" target="_top" xlink:title=" ">
<polygon fill="#fff0f0" stroke="red" points="117.25,-67.88 0,-67.88 0,-48.62 117.25,-48.62 117.25,-67.88"/>
<text text-anchor="middle" x="58.62" y="-54.38" font-family="Helvetica,sans-Serif" font-size="10.00">TagsModel::loadPhotos</text>
</a>
</g>
</g>
<!-- Node1&#45;&gt;Node7 -->
<g id="edge3_Node000001_Node000007" class="edge">
<title>Node1&#45;&gt;Node7</title>
<g id="a_edge3_Node000001_Node000007"><a xlink:title=" ">
<path fill="none" stroke="#63b8ff" d="M141.86,-72.02C133.96,-70.7 125.61,-69.3 117.36,-67.92"/>
<polygon fill="#63b8ff" stroke="#63b8ff" points="141.1,-75.45 151.55,-73.65 142.26,-68.54 141.1,-75.45"/>
</a>
</g>
</g>
<!-- Node10 -->
<g id="Node000010" class="node">
<title>Node10</title>
<g id="a_Node000010"><a xlink:href="../../de/db3/class_context_menu_manager.html#a6e73f66bfc406adf3a1676fb0237fde3" target="_top" xlink:title=" ">
<polygon fill="#fff0f0" stroke="red" points="115.75,-30.5 1.5,-30.5 1.5,0 115.75,0 115.75,-30.5"/>
<text text-anchor="start" x="9.5" y="-17" font-family="Helvetica,sans-Serif" font-size="10.00">ContextMenuManager</text>
<text text-anchor="middle" x="58.62" y="-5.75" font-family="Helvetica,sans-Serif" font-size="10.00">::manageGroupsAction</text>
</a>
</g>
</g>
<!-- Node1&#45;&gt;Node10 -->
<g id="edge4_Node000001_Node000010" class="edge">
<title>Node1&#45;&gt;Node10</title>
<g id="a_edge4_Node000001_Node000010"><a xlink:title=" ">
<path fill="none" stroke="#63b8ff" d="M159.72,-63.19C147.18,-55.52 131.66,-46.46 117.25,-39.25 111.53,-36.39 105.39,-33.57 99.32,-30.93"/>
<polygon fill="#63b8ff" stroke="#63b8ff" points="157.84,-66.14 168.18,-68.44 161.53,-60.2 157.84,-66.14"/>
</a>
</g>
</g>
</g>
</svg>
</svg>

<style type='text/css'>
<![CDATA[
[data-mouse-over-selected='false'] { opacity: 0.7; }
[data-mouse-over-selected='true']  { opacity: 1.0; }
]]>
</style>
<script type="application/ecmascript"><![CDATA[
document.addEventListener('DOMContentLoaded', (event) => {
  highlightEdges();
  highlightAdjacentNodes();
});
]]></script>
</svg>
