<?xml version="1.0" encoding="UTF-8" standalone="no"?>
<!DOCTYPE svg PUBLIC "-//W3C//DTD SVG 1.1//EN"
 "http://www.w3.org/Graphics/SVG/1.1/DTD/svg11.dtd">
<!-- Generated by graphviz version 7.0.5 (20221223.1930)
 -->
<!-- Title: src/core/containers_utils.hpp Pages: 1 -->
<svg width="1028pt" height="115pt"
 viewBox="0.00 0.00 1028.00 115.00" xmlns="http://www.w3.org/2000/svg" xmlns:xlink="http://www.w3.org/1999/xlink">
<g id="graph0" class="graph" transform="scale(1 1) rotate(0) translate(4 111)">
<title>src/core/containers_utils.hpp</title>
<!-- Node1 -->
<g id="node1" class="node">
<title>Node1</title>
<g id="a_node1"><a xlink:title=" ">
<polygon fill="#999999" stroke="#666666" points="552,-107 452,-107 452,-77 552,-77 552,-107"/>
<text text-anchor="start" x="460" y="-95" font-family="Helvetica,sans-Serif" font-size="10.00">src/core/containers</text>
<text text-anchor="middle" x="502" y="-84" font-family="Helvetica,sans-Serif" font-size="10.00">_utils.hpp</text>
</a>
</g>
</g>
<!-- Node2 -->
<g id="node2" class="node">
<title>Node2</title>
<g id="a_node2"><a xlink:href="../../da/d88/task__executor__utils_8cpp.html" target="_top" xlink:title=" ">
<polygon fill="white" stroke="#666666" points="122,-35.5 0,-35.5 0,-5.5 122,-5.5 122,-35.5"/>
<text text-anchor="start" x="8" y="-23.5" font-family="Helvetica,sans-Serif" font-size="10.00">src/core/implementation</text>
<text text-anchor="middle" x="61" y="-12.5" font-family="Helvetica,sans-Serif" font-size="10.00">/task_executor_utils.cpp</text>
</a>
</g>
</g>
<!-- Node1&#45;&gt;Node2 -->
<g id="edge1" class="edge">
<title>Node1&#45;&gt;Node2</title>
<path fill="none" stroke="#63b8ff" d="M440.12,-85.29C366.11,-77.86 238.71,-63.15 131,-41 123.96,-39.55 116.58,-37.78 109.37,-35.9"/>
<polygon fill="#63b8ff" stroke="#63b8ff" points="439.72,-88.77 450.02,-86.27 440.41,-81.81 439.72,-88.77"/>
</g>
<!-- Node3 -->
<g id="node3" class="node">
<title>Node3</title>
<g id="a_node3"><a xlink:href="../../db/d12/containers__utils__tests_8cpp.html" target="_top" xlink:title=" ">
<polygon fill="white" stroke="#666666" points="273.5,-35.5 140.5,-35.5 140.5,-5.5 273.5,-5.5 273.5,-35.5"/>
<text text-anchor="start" x="148.5" y="-23.5" font-family="Helvetica,sans-Serif" font-size="10.00">src/core/unit_tests</text>
<text text-anchor="middle" x="207" y="-12.5" font-family="Helvetica,sans-Serif" font-size="10.00">/containers_utils_tests.cpp</text>
</a>
</g>
</g>
<!-- Node1&#45;&gt;Node3 -->
<g id="edge2" class="edge">
<title>Node1&#45;&gt;Node3</title>
<path fill="none" stroke="#63b8ff" d="M440.81,-77.49C396.83,-67.67 336.17,-53.89 283,-41 276.38,-39.4 269.45,-37.67 262.58,-35.94"/>
<polygon fill="#63b8ff" stroke="#63b8ff" points="439.9,-80.87 450.42,-79.63 441.42,-74.04 439.9,-80.87"/>
</g>
<!-- Node4 -->
<g id="node4" class="node">
<title>Node4</title>
<g id="a_node4"><a xlink:href="../../d4/dc0/memory__backend_8cpp.html" target="_top" xlink:title=" ">
<polygon fill="white" stroke="#666666" points="426,-41 292,-41 292,0 426,0 426,-41"/>
<text text-anchor="start" x="300" y="-29" font-family="Helvetica,sans-Serif" font-size="10.00">src/database/backends</text>
<text text-anchor="start" x="300" y="-18" font-family="Helvetica,sans-Serif" font-size="10.00">/memory_backend/memory</text>
<text text-anchor="middle" x="359" y="-7" font-family="Helvetica,sans-Serif" font-size="10.00">_backend.cpp</text>
</a>
</g>
</g>
<!-- Node1&#45;&gt;Node4 -->
<g id="edge3" class="edge">
<title>Node1&#45;&gt;Node4</title>
<path fill="none" stroke="#63b8ff" d="M462.06,-71.59C442.7,-62.18 419.47,-50.89 399.98,-41.42"/>
<polygon fill="#63b8ff" stroke="#63b8ff" points="460.49,-74.71 471.01,-75.94 463.54,-68.42 460.49,-74.71"/>
</g>
<!-- Node5 -->
<g id="node5" class="node">
<title>Node5</title>
<g id="a_node5"><a xlink:href="../../d0/d1b/json__to__backend_8cpp.html" target="_top" xlink:title=" ">
<polygon fill="white" stroke="#666666" points="560,-41 444,-41 444,0 560,0 560,-41"/>
<text text-anchor="start" x="452" y="-29" font-family="Helvetica,sans-Serif" font-size="10.00">src/database/database</text>
<text text-anchor="start" x="452" y="-18" font-family="Helvetica,sans-Serif" font-size="10.00">_tools/implementation</text>
<text text-anchor="middle" x="502" y="-7" font-family="Helvetica,sans-Serif" font-size="10.00">/json_to_backend.cpp</text>
</a>
</g>
</g>
<!-- Node1&#45;&gt;Node5 -->
<g id="edge4" class="edge">
<title>Node1&#45;&gt;Node5</title>
<path fill="none" stroke="#63b8ff" d="M502,-65.36C502,-57.45 502,-48.87 502,-41.42"/>
<polygon fill="#63b8ff" stroke="#63b8ff" points="498.5,-65.09 502,-75.09 505.5,-65.09 498.5,-65.09"/>
</g>
<!-- Node6 -->
<g id="node6" class="node">
<title>Node6</title>
<g id="a_node6"><a xlink:href="../../d3/dde/aphoto__change__log__operator_8cpp.html" target="_top" xlink:title=" ">
<polygon fill="white" stroke="#666666" points="740,-35.5 578,-35.5 578,-5.5 740,-5.5 740,-35.5"/>
<text text-anchor="start" x="586" y="-23.5" font-family="Helvetica,sans-Serif" font-size="10.00">src/database/implementation</text>
<text text-anchor="middle" x="659" y="-12.5" font-family="Helvetica,sans-Serif" font-size="10.00">/aphoto_change_log_operator.cpp</text>
</a>
</g>
</g>
<!-- Node1&#45;&gt;Node6 -->
<g id="edge5" class="edge">
<title>Node1&#45;&gt;Node6</title>
<path fill="none" stroke="#63b8ff" d="M544.77,-72.07C570.54,-60.66 602.84,-46.36 626.51,-35.88"/>
<polygon fill="#63b8ff" stroke="#63b8ff" points="543.64,-68.74 535.91,-75.99 546.48,-75.14 543.64,-68.74"/>
</g>
<!-- Node7 -->
<g id="node7" class="node">
<title>Node7</title>
<g id="a_node7"><a xlink:href="../../d3/d90/photos__grouping__dialog_8cpp.html" target="_top" xlink:title=" ">
<polygon fill="white" stroke="#666666" points="898,-35.5 758,-35.5 758,-5.5 898,-5.5 898,-35.5"/>
<text text-anchor="start" x="766" y="-23.5" font-family="Helvetica,sans-Serif" font-size="10.00">src/gui/desktop/ui</text>
<text text-anchor="middle" x="828" y="-12.5" font-family="Helvetica,sans-Serif" font-size="10.00">/photos_grouping_dialog.cpp</text>
</a>
</g>
</g>
<!-- Node1&#45;&gt;Node7 -->
<g id="edge6" class="edge">
<title>Node1&#45;&gt;Node7</title>
<path fill="none" stroke="#63b8ff" d="M563.55,-79.29C613.62,-69.58 686.03,-55.14 749,-41 756.03,-39.42 763.39,-37.7 770.68,-35.95"/>
<polygon fill="#63b8ff" stroke="#63b8ff" points="562.92,-75.85 553.76,-81.18 564.25,-82.72 562.92,-75.85"/>
</g>
<!-- Node8 -->
<g id="node8" class="node">
<title>Node8</title>
<g id="a_node8"><a xlink:href="../../d1/d2f/people__editor_8cpp.html" target="_top" xlink:title=" ">
<polygon fill="white" stroke="#666666" points="1020,-35.5 916,-35.5 916,-5.5 1020,-5.5 1020,-35.5"/>
<text text-anchor="start" x="924" y="-23.5" font-family="Helvetica,sans-Serif" font-size="10.00">src/gui/desktop/utils</text>
<text text-anchor="middle" x="968" y="-12.5" font-family="Helvetica,sans-Serif" font-size="10.00">/people_editor.cpp</text>
</a>
</g>
</g>
<!-- Node1&#45;&gt;Node8 -->
<g id="edge7" class="edge">
<title>Node1&#45;&gt;Node8</title>
<path fill="none" stroke="#63b8ff" d="M563.71,-86.98C643.64,-80.95 786.96,-67.35 907,-41 913.3,-39.62 919.87,-37.86 926.28,-35.97"/>
<polygon fill="#63b8ff" stroke="#63b8ff" points="563.61,-83.48 553.9,-87.7 564.13,-90.46 563.61,-83.48"/>
</g>
</g>
</svg>
