<?xml version="1.0" encoding="UTF-8" standalone="no"?>
<!DOCTYPE svg PUBLIC "-//W3C//DTD SVG 1.1//EN"
 "http://www.w3.org/Graphics/SVG/1.1/DTD/svg11.dtd">
<!-- Generated by graphviz version 9.0.0 (20230911.1827)
 -->
<!-- Title: src/core/containers_utils.hpp Pages: 1 -->
<svg width="1021pt" height="116pt"
 viewBox="0.00 0.00 1021.38 116.25" xmlns="http://www.w3.org/2000/svg" xmlns:xlink="http://www.w3.org/1999/xlink">
<g id="graph0" class="graph" transform="scale(1 1) rotate(0) translate(4 112.25)">
<title>src/core/containers_utils.hpp</title>
<!-- Node1 -->
<g id="Node000001" class="node">
<title>Node1</title>
<g id="a_Node000001"><a xlink:title=" ">
<polygon fill="#999999" stroke="#666666" points="548.12,-108.25 448.88,-108.25 448.88,-77.75 548.12,-77.75 548.12,-108.25"/>
<text text-anchor="start" x="456.88" y="-94.75" font-family="Helvetica,sans-Serif" font-size="10.00">src/core/containers</text>
<text text-anchor="middle" x="498.5" y="-83.5" font-family="Helvetica,sans-Serif" font-size="10.00">_utils.hpp</text>
</a>
</g>
</g>
<!-- Node2 -->
<g id="Node000002" class="node">
<title>Node2</title>
<g id="a_Node000002"><a xlink:href="../../da/d88/task__executor__utils_8cpp.html" target="_top" xlink:title=" ">
<polygon fill="white" stroke="#666666" points="121,-36.12 0,-36.12 0,-5.62 121,-5.62 121,-36.12"/>
<text text-anchor="start" x="8" y="-22.62" font-family="Helvetica,sans-Serif" font-size="10.00">src/core/implementation</text>
<text text-anchor="middle" x="60.5" y="-11.38" font-family="Helvetica,sans-Serif" font-size="10.00">/task_executor_utils.cpp</text>
</a>
</g>
</g>
<!-- Node1&#45;&gt;Node2 -->
<g id="edge1_Node000001_Node000002" class="edge">
<title>Node1&#45;&gt;Node2</title>
<g id="a_edge1_Node000001_Node000002"><a xlink:title=" ">
<path fill="none" stroke="#63b8ff" d="M437.1,-86.29C363.67,-78.85 237.29,-64.09 130.5,-41.75 123.45,-40.28 116.07,-38.47 108.86,-36.56"/>
<polygon fill="#63b8ff" stroke="#63b8ff" points="436.61,-89.76 446.91,-87.27 437.31,-82.79 436.61,-89.76"/>
</a>
</g>
</g>
<!-- Node3 -->
<g id="Node000003" class="node">
<title>Node3</title>
<g id="a_Node000003"><a xlink:href="../../db/d12/containers__utils__tests_8cpp.html" target="_top" xlink:title=" ">
<polygon fill="white" stroke="#666666" points="271.62,-36.12 139.38,-36.12 139.38,-5.62 271.62,-5.62 271.62,-36.12"/>
<text text-anchor="start" x="147.38" y="-22.62" font-family="Helvetica,sans-Serif" font-size="10.00">src/core/unit_tests</text>
<text text-anchor="middle" x="205.5" y="-11.38" font-family="Helvetica,sans-Serif" font-size="10.00">/containers_utils_tests.cpp</text>
</a>
</g>
</g>
<!-- Node1&#45;&gt;Node3 -->
<g id="edge2_Node000001_Node000003" class="edge">
<title>Node1&#45;&gt;Node3</title>
<g id="a_edge2_Node000001_Node000003"><a xlink:title=" ">
<path fill="none" stroke="#63b8ff" d="M437.56,-78.51C393.78,-68.68 333.39,-54.85 280.5,-41.75 273.83,-40.1 266.84,-38.32 259.93,-36.52"/>
<polygon fill="#63b8ff" stroke="#63b8ff" points="436.61,-81.88 447.13,-80.65 438.14,-75.05 436.61,-81.88"/>
</a>
</g>
</g>
<!-- Node4 -->
<g id="Node000004" class="node">
<title>Node4</title>
<g id="a_Node000004"><a xlink:href="../../d4/dc0/memory__backend_8cpp.html" target="_top" xlink:title=" ">
<polygon fill="white" stroke="#666666" points="423,-41.75 290,-41.75 290,0 423,0 423,-41.75"/>
<text text-anchor="start" x="298" y="-28.25" font-family="Helvetica,sans-Serif" font-size="10.00">src/database/backends</text>
<text text-anchor="start" x="298" y="-17" font-family="Helvetica,sans-Serif" font-size="10.00">/memory_backend/memory</text>
<text text-anchor="middle" x="356.5" y="-5.75" font-family="Helvetica,sans-Serif" font-size="10.00">_backend.cpp</text>
</a>
</g>
</g>
<!-- Node1&#45;&gt;Node4 -->
<g id="edge3_Node000001_Node000004" class="edge">
<title>Node1&#45;&gt;Node4</title>
<g id="a_edge3_Node000001_Node000004"><a xlink:title=" ">
<path fill="none" stroke="#63b8ff" d="M458.57,-72.28C439.52,-62.87 416.74,-51.62 397.54,-42.14"/>
<polygon fill="#63b8ff" stroke="#63b8ff" points="456.86,-75.34 467.38,-76.63 459.96,-69.06 456.86,-75.34"/>
</a>
</g>
</g>
<!-- Node5 -->
<g id="Node000005" class="node">
<title>Node5</title>
<g id="a_Node000005"><a xlink:href="../../d0/d1b/json__to__backend_8cpp.html" target="_top" xlink:title=" ">
<polygon fill="white" stroke="#666666" points="556,-41.75 441,-41.75 441,0 556,0 556,-41.75"/>
<text text-anchor="start" x="449" y="-28.25" font-family="Helvetica,sans-Serif" font-size="10.00">src/database/database</text>
<text text-anchor="start" x="449" y="-17" font-family="Helvetica,sans-Serif" font-size="10.00">_tools/implementation</text>
<text text-anchor="middle" x="498.5" y="-5.75" font-family="Helvetica,sans-Serif" font-size="10.00">/json_to_backend.cpp</text>
</a>
</g>
</g>
<!-- Node1&#45;&gt;Node5 -->
<g id="edge4_Node000001_Node000005" class="edge">
<title>Node1&#45;&gt;Node5</title>
<g id="a_edge4_Node000001_Node000005"><a xlink:title=" ">
<path fill="none" stroke="#63b8ff" d="M498.5,-66.22C498.5,-58.31 498.5,-49.73 498.5,-42.24"/>
<polygon fill="#63b8ff" stroke="#63b8ff" points="495,-65.96 498.5,-75.96 502,-65.96 495,-65.96"/>
</a>
</g>
</g>
<!-- Node6 -->
<g id="Node000006" class="node">
<title>Node6</title>
<g id="a_Node000006"><a xlink:href="../../d3/dde/aphoto__change__log__operator_8cpp.html" target="_top" xlink:title=" ">
<polygon fill="white" stroke="#666666" points="735.25,-36.12 573.75,-36.12 573.75,-5.62 735.25,-5.62 735.25,-36.12"/>
<text text-anchor="start" x="581.75" y="-22.62" font-family="Helvetica,sans-Serif" font-size="10.00">src/database/implementation</text>
<text text-anchor="middle" x="654.5" y="-11.38" font-family="Helvetica,sans-Serif" font-size="10.00">/aphoto_change_log_operator.cpp</text>
</a>
</g>
</g>
<!-- Node1&#45;&gt;Node6 -->
<g id="edge5_Node000001_Node000006" class="edge">
<title>Node1&#45;&gt;Node6</title>
<g id="a_edge5_Node000001_Node000006"><a xlink:title=" ">
<path fill="none" stroke="#63b8ff" d="M541.65,-72.6C567.01,-61.2 598.55,-47.02 621.84,-36.56"/>
<polygon fill="#63b8ff" stroke="#63b8ff" points="540.27,-69.39 532.58,-76.68 543.14,-75.77 540.27,-69.39"/>
</a>
</g>
</g>
<!-- Node7 -->
<g id="Node000007" class="node">
<title>Node7</title>
<g id="a_Node000007"><a xlink:href="../../d3/d90/photos__grouping__dialog_8cpp.html" target="_top" xlink:title=" ">
<polygon fill="white" stroke="#666666" points="892,-36.12 753,-36.12 753,-5.62 892,-5.62 892,-36.12"/>
<text text-anchor="start" x="761" y="-22.62" font-family="Helvetica,sans-Serif" font-size="10.00">src/gui/desktop/ui</text>
<text text-anchor="middle" x="822.5" y="-11.38" font-family="Helvetica,sans-Serif" font-size="10.00">/photos_grouping_dialog.cpp</text>
</a>
</g>
</g>
<!-- Node1&#45;&gt;Node7 -->
<g id="edge6_Node000001_Node000007" class="edge">
<title>Node1&#45;&gt;Node7</title>
<g id="a_edge6_Node000001_Node000007"><a xlink:title=" ">
<path fill="none" stroke="#63b8ff" d="M559.83,-80.32C609.7,-70.62 681.83,-56.13 744.5,-41.75 751.58,-40.13 759.01,-38.34 766.34,-36.53"/>
<polygon fill="#63b8ff" stroke="#63b8ff" points="559.23,-76.87 550.08,-82.21 560.56,-83.74 559.23,-76.87"/>
</a>
</g>
</g>
<!-- Node8 -->
<g id="Node000008" class="node">
<title>Node8</title>
<g id="a_Node000008"><a xlink:href="../../d1/d2f/people__editor_8cpp.html" target="_top" xlink:title=" ">
<polygon fill="white" stroke="#666666" points="1013.38,-36.12 909.62,-36.12 909.62,-5.62 1013.38,-5.62 1013.38,-36.12"/>
<text text-anchor="start" x="917.62" y="-22.62" font-family="Helvetica,sans-Serif" font-size="10.00">src/gui/desktop/utils</text>
<text text-anchor="middle" x="961.5" y="-11.38" font-family="Helvetica,sans-Serif" font-size="10.00">/people_editor.cpp</text>
</a>
</g>
</g>
<!-- Node1&#45;&gt;Node8 -->
<g id="edge7_Node000001_Node000008" class="edge">
<title>Node1&#45;&gt;Node8</title>
<g id="a_edge7_Node000001_Node000008"><a xlink:title=" ">
<path fill="none" stroke="#63b8ff" d="M559.62,-88.12C639.14,-82.22 782.03,-68.71 901.5,-41.75 907.82,-40.32 914.41,-38.5 920.81,-36.54"/>
<polygon fill="#63b8ff" stroke="#63b8ff" points="559.59,-84.61 549.87,-88.83 560.1,-91.59 559.59,-84.61"/>
</a>
</g>
</g>
</g>
</svg>
