<?xml version="1.0" encoding="UTF-8" standalone="no"?>
<!DOCTYPE svg PUBLIC "-//W3C//DTD SVG 1.1//EN"
 "http://www.w3.org/Graphics/SVG/1.1/DTD/svg11.dtd">
<!-- Generated by graphviz version 7.0.5 (20221223.1930)
 -->
<!-- Title: src/core/containers_utils.hpp Pages: 1 -->
<svg width="912pt" height="115pt"
 viewBox="0.00 0.00 912.00 115.00" xmlns="http://www.w3.org/2000/svg" xmlns:xlink="http://www.w3.org/1999/xlink">
<g id="graph0" class="graph" transform="scale(1 1) rotate(0) translate(4 111)">
<title>src/core/containers_utils.hpp</title>
<!-- Node1 -->
<g id="node1" class="node">
<title>Node1</title>
<g id="a_node1"><a xlink:title=" ">
<polygon fill="#999999" stroke="#666666" points="492,-107 392,-107 392,-77 492,-77 492,-107"/>
<text text-anchor="start" x="400" y="-95" font-family="Helvetica,sans-Serif" font-size="10.00">src/core/containers</text>
<text text-anchor="middle" x="442" y="-84" font-family="Helvetica,sans-Serif" font-size="10.00">_utils.hpp</text>
</a>
</g>
</g>
<!-- Node2 -->
<g id="node2" class="node">
<title>Node2</title>
<g id="a_node2"><a xlink:href="../../da/d88/task__executor__utils_8cpp.html" target="_top" xlink:title=" ">
<polygon fill="white" stroke="#666666" points="122,-35.5 0,-35.5 0,-5.5 122,-5.5 122,-35.5"/>
<text text-anchor="start" x="8" y="-23.5" font-family="Helvetica,sans-Serif" font-size="10.00">src/core/implementation</text>
<text text-anchor="middle" x="61" y="-12.5" font-family="Helvetica,sans-Serif" font-size="10.00">/task_executor_utils.cpp</text>
</a>
</g>
</g>
<!-- Node1&#45;&gt;Node2 -->
<g id="edge1" class="edge">
<title>Node1&#45;&gt;Node2</title>
<path fill="none" stroke="#63b8ff" d="M380.26,-83.16C317.23,-74.66 216.75,-59.77 131,-41 124.22,-39.52 117.13,-37.77 110.16,-35.94"/>
<polygon fill="#63b8ff" stroke="#63b8ff" points="379.7,-86.61 390.08,-84.47 380.63,-79.67 379.7,-86.61"/>
</g>
<!-- Node3 -->
<g id="node3" class="node">
<title>Node3</title>
<g id="a_node3"><a xlink:href="../../db/d12/containers__utils__tests_8cpp.html" target="_top" xlink:title=" ">
<polygon fill="white" stroke="#666666" points="273.5,-35.5 140.5,-35.5 140.5,-5.5 273.5,-5.5 273.5,-35.5"/>
<text text-anchor="start" x="148.5" y="-23.5" font-family="Helvetica,sans-Serif" font-size="10.00">src/core/unit_tests</text>
<text text-anchor="middle" x="207" y="-12.5" font-family="Helvetica,sans-Serif" font-size="10.00">/containers_utils_tests.cpp</text>
</a>
</g>
</g>
<!-- Node1&#45;&gt;Node3 -->
<g id="edge2" class="edge">
<title>Node1&#45;&gt;Node3</title>
<path fill="none" stroke="#63b8ff" d="M382.06,-73.27C342.97,-61.71 292.58,-46.81 255.91,-35.97"/>
<polygon fill="#63b8ff" stroke="#63b8ff" points="380.99,-76.61 391.57,-76.09 382.97,-69.89 380.99,-76.61"/>
</g>
<!-- Node4 -->
<g id="node4" class="node">
<title>Node4</title>
<g id="a_node4"><a xlink:href="../../d4/dc0/memory__backend_8cpp.html" target="_top" xlink:title=" ">
<polygon fill="white" stroke="#666666" points="426,-41 292,-41 292,0 426,0 426,-41"/>
<text text-anchor="start" x="300" y="-29" font-family="Helvetica,sans-Serif" font-size="10.00">src/database/backends</text>
<text text-anchor="start" x="300" y="-18" font-family="Helvetica,sans-Serif" font-size="10.00">/memory_backend/memory</text>
<text text-anchor="middle" x="359" y="-7" font-family="Helvetica,sans-Serif" font-size="10.00">_backend.cpp</text>
</a>
</g>
</g>
<!-- Node1&#45;&gt;Node4 -->
<g id="edge3" class="edge">
<title>Node1&#45;&gt;Node4</title>
<path fill="none" stroke="#63b8ff" d="M416.29,-69.47C405.6,-60.52 393.26,-50.19 382.78,-41.42"/>
<polygon fill="#63b8ff" stroke="#63b8ff" points="413.73,-71.89 423.64,-75.63 418.22,-66.52 413.73,-71.89"/>
</g>
<!-- Node5 -->
<g id="node5" class="node">
<title>Node5</title>
<g id="a_node5"><a xlink:href="../../d3/dde/aphoto__change__log__operator_8cpp.html" target="_top" xlink:title=" ">
<polygon fill="white" stroke="#666666" points="606,-35.5 444,-35.5 444,-5.5 606,-5.5 606,-35.5"/>
<text text-anchor="start" x="452" y="-23.5" font-family="Helvetica,sans-Serif" font-size="10.00">src/database/implementation</text>
<text text-anchor="middle" x="525" y="-12.5" font-family="Helvetica,sans-Serif" font-size="10.00">/aphoto_change_log_operator.cpp</text>
</a>
</g>
</g>
<!-- Node1&#45;&gt;Node5 -->
<g id="edge4" class="edge">
<title>Node1&#45;&gt;Node5</title>
<path fill="none" stroke="#63b8ff" d="M467.75,-69.43C480.79,-58.52 496.26,-45.57 507.82,-35.88"/>
<polygon fill="#63b8ff" stroke="#63b8ff" points="465.78,-66.52 460.36,-75.63 470.27,-71.89 465.78,-66.52"/>
</g>
<!-- Node6 -->
<g id="node6" class="node">
<title>Node6</title>
<g id="a_node6"><a xlink:href="../../d3/d90/photos__grouping__dialog_8cpp.html" target="_top" xlink:title=" ">
<polygon fill="white" stroke="#666666" points="764,-35.5 624,-35.5 624,-5.5 764,-5.5 764,-35.5"/>
<text text-anchor="start" x="632" y="-23.5" font-family="Helvetica,sans-Serif" font-size="10.00">src/gui/desktop/ui</text>
<text text-anchor="middle" x="694" y="-12.5" font-family="Helvetica,sans-Serif" font-size="10.00">/photos_grouping_dialog.cpp</text>
</a>
</g>
</g>
<!-- Node1&#45;&gt;Node6 -->
<g id="edge5" class="edge">
<title>Node1&#45;&gt;Node6</title>
<path fill="none" stroke="#63b8ff" d="M503.39,-74.07C545.69,-62.4 601.3,-47.07 641.53,-35.97"/>
<polygon fill="#63b8ff" stroke="#63b8ff" points="502.56,-70.67 493.85,-76.7 504.42,-77.42 502.56,-70.67"/>
</g>
<!-- Node7 -->
<g id="node7" class="node">
<title>Node7</title>
<g id="a_node7"><a xlink:href="../../da/d67/people__manipulator_8cpp.html" target="_top" xlink:title=" ">
<polygon fill="white" stroke="#666666" points="904,-35.5 782,-35.5 782,-5.5 904,-5.5 904,-35.5"/>
<text text-anchor="start" x="790" y="-23.5" font-family="Helvetica,sans-Serif" font-size="10.00">src/gui/desktop/utils</text>
<text text-anchor="middle" x="843" y="-12.5" font-family="Helvetica,sans-Serif" font-size="10.00">/people_manipulator.cpp</text>
</a>
</g>
</g>
<!-- Node1&#45;&gt;Node7 -->
<g id="edge6" class="edge">
<title>Node1&#45;&gt;Node7</title>
<path fill="none" stroke="#63b8ff" d="M503.4,-84C570.15,-75.86 679.79,-60.95 773,-41 779.91,-39.52 787.14,-37.76 794.23,-35.9"/>
<polygon fill="#63b8ff" stroke="#63b8ff" points="503.26,-80.49 493.75,-85.16 504.1,-87.44 503.26,-80.49"/>
</g>
</g>
</svg>
