<?xml version="1.0" encoding="UTF-8" standalone="no"?>
<!DOCTYPE svg PUBLIC "-//W3C//DTD SVG 1.1//EN"
 "http://www.w3.org/Graphics/SVG/1.1/DTD/svg11.dtd">
<!-- Generated by graphviz version 12.2.0 (20241103.1931)
 -->
<!-- Title: src/core/tag.hpp Pages: 1 -->
<svg width="567pt" height="83pt"
 viewBox="0.00 0.00 567.00 82.50" xmlns="http://www.w3.org/2000/svg" xmlns:xlink="http://www.w3.org/1999/xlink">
<g id="graph0" class="graph" transform="scale(1 1) rotate(0) translate(4 78.5)">
<title>src/core/tag.hpp</title>
<!-- Node1 -->
<g id="Node000001" class="node">
<title>Node1</title>
<g id="a_Node000001"><a xlink:title=" ">
<polygon fill="#999999" stroke="#666666" points="287,-74.5 201.25,-74.5 201.25,-55.25 287,-55.25 287,-74.5"/>
<text text-anchor="middle" x="244.12" y="-61" font-family="Helvetica,sans-Serif" font-size="10.00">src/core/tag.hpp</text>
</a>
</g>
</g>
<!-- Node2 -->
<g id="Node000002" class="node">
<title>Node2</title>
<g id="a_Node000002"><a xlink:title=" ">
<polygon fill="#e0e0e0" stroke="#999999" points="48.25,-19.25 0,-19.25 0,0 48.25,0 48.25,-19.25"/>
<text text-anchor="middle" x="24.12" y="-5.75" font-family="Helvetica,sans-Serif" font-size="10.00">cassert</text>
</a>
</g>
</g>
<!-- Node1&#45;&gt;Node2 -->
<g id="edge1_Node000001_Node000002" class="edge">
<title>Node1&#45;&gt;Node2</title>
<g id="a_edge1_Node000001_Node000002"><a xlink:title=" ">
<path fill="none" stroke="#63b8ff" d="M205.03,-54.8C169.52,-46.5 115.42,-33.72 59.77,-19.87"/>
<polygon fill="#63b8ff" stroke="#63b8ff" points="60.64,-16.48 50.09,-17.46 58.94,-23.27 60.64,-16.48"/>
</a>
</g>
</g>
<!-- Node3 -->
<g id="Node000003" class="node">
<title>Node3</title>
<g id="a_Node000003"><a xlink:title=" ">
<polygon fill="#e0e0e0" stroke="#999999" points="97.62,-19.25 66.62,-19.25 66.62,0 97.62,0 97.62,-19.25"/>
<text text-anchor="middle" x="82.12" y="-5.75" font-family="Helvetica,sans-Serif" font-size="10.00">any</text>
</a>
</g>
</g>
<!-- Node1&#45;&gt;Node3 -->
<g id="edge2_Node000001_Node000003" class="edge">
<title>Node1&#45;&gt;Node3</title>
<g id="a_edge2_Node000001_Node000003"><a xlink:title=" ">
<path fill="none" stroke="#63b8ff" d="M215.23,-54.83C189.43,-46.69 150.37,-34.21 108.74,-20.08"/>
<polygon fill="#63b8ff" stroke="#63b8ff" points="110.13,-16.85 99.54,-16.94 107.88,-23.48 110.13,-16.85"/>
</a>
</g>
</g>
<!-- Node4 -->
<g id="Node000004" class="node">
<title>Node4</title>
<g id="a_Node000004"><a xlink:title=" ">
<polygon fill="#e0e0e0" stroke="#999999" points="158.62,-19.25 115.62,-19.25 115.62,0 158.62,0 158.62,-19.25"/>
<text text-anchor="middle" x="137.12" y="-5.75" font-family="Helvetica,sans-Serif" font-size="10.00">vector</text>
</a>
</g>
</g>
<!-- Node1&#45;&gt;Node4 -->
<g id="edge3_Node000001_Node000004" class="edge">
<title>Node1&#45;&gt;Node4</title>
<g id="a_edge3_Node000001_Node000004"><a xlink:title=" ">
<path fill="none" stroke="#63b8ff" d="M225.97,-54.84C209.45,-46.62 184.78,-34.34 165.63,-24.81"/>
<polygon fill="#63b8ff" stroke="#63b8ff" points="167.23,-21.7 156.72,-20.38 164.11,-27.97 167.23,-21.7"/>
</a>
</g>
</g>
<!-- Node5 -->
<g id="Node000005" class="node">
<title>Node5</title>
<g id="a_Node000005"><a xlink:title=" ">
<polygon fill="#e0e0e0" stroke="#999999" points="211.5,-19.25 176.75,-19.25 176.75,0 211.5,0 211.5,-19.25"/>
<text text-anchor="middle" x="194.12" y="-5.75" font-family="Helvetica,sans-Serif" font-size="10.00">map</text>
</a>
</g>
</g>
<!-- Node1&#45;&gt;Node5 -->
<g id="edge4_Node000001_Node000005" class="edge">
<title>Node1&#45;&gt;Node5</title>
<g id="a_edge4_Node000001_Node000005"><a xlink:title=" ">
<path fill="none" stroke="#63b8ff" d="M235.87,-55.08C228.96,-47.73 218.9,-37.01 210.39,-27.94"/>
<polygon fill="#63b8ff" stroke="#63b8ff" points="212.99,-25.61 203.6,-20.71 207.89,-30.4 212.99,-25.61"/>
</a>
</g>
</g>
<!-- Node6 -->
<g id="Node000006" class="node">
<title>Node6</title>
<g id="a_Node000006"><a xlink:title=" ">
<polygon fill="#e0e0e0" stroke="#999999" points="258.88,-19.25 229.38,-19.25 229.38,0 258.88,0 258.88,-19.25"/>
<text text-anchor="middle" x="244.12" y="-5.75" font-family="Helvetica,sans-Serif" font-size="10.00">set</text>
</a>
</g>
</g>
<!-- Node1&#45;&gt;Node6 -->
<g id="edge5_Node000001_Node000006" class="edge">
<title>Node1&#45;&gt;Node6</title>
<g id="a_edge5_Node000001_Node000006"><a xlink:title=" ">
<path fill="none" stroke="#63b8ff" d="M244.12,-55.08C244.12,-48.57 244.12,-39.42 244.12,-31.12"/>
<polygon fill="#63b8ff" stroke="#63b8ff" points="247.63,-31.12 244.13,-21.12 240.63,-31.12 247.63,-31.12"/>
</a>
</g>
</g>
<!-- Node7 -->
<g id="Node000007" class="node">
<title>Node7</title>
<g id="a_Node000007"><a xlink:title=" ">
<polygon fill="#e0e0e0" stroke="#999999" points="327.38,-19.25 276.88,-19.25 276.88,0 327.38,0 327.38,-19.25"/>
<text text-anchor="middle" x="302.12" y="-5.75" font-family="Helvetica,sans-Serif" font-size="10.00">memory</text>
</a>
</g>
</g>
<!-- Node1&#45;&gt;Node7 -->
<g id="edge6_Node000001_Node000007" class="edge">
<title>Node1&#45;&gt;Node7</title>
<g id="a_edge6_Node000001_Node000007"><a xlink:title=" ">
<path fill="none" stroke="#63b8ff" d="M253.96,-54.84C262.18,-47.3 274.11,-36.35 284.04,-27.23"/>
<polygon fill="#63b8ff" stroke="#63b8ff" points="286.32,-29.89 291.32,-20.55 281.58,-24.73 286.32,-29.89"/>
</a>
</g>
</g>
<!-- Node8 -->
<g id="Node000008" class="node">
<title>Node8</title>
<g id="a_Node000008"><a xlink:title=" ">
<polygon fill="#e0e0e0" stroke="#999999" points="394.62,-19.25 345.62,-19.25 345.62,0 394.62,0 394.62,-19.25"/>
<text text-anchor="middle" x="370.12" y="-5.75" font-family="Helvetica,sans-Serif" font-size="10.00">QString</text>
</a>
</g>
</g>
<!-- Node1&#45;&gt;Node8 -->
<g id="edge7_Node000001_Node000008" class="edge">
<title>Node1&#45;&gt;Node8</title>
<g id="a_edge7_Node000001_Node000008"><a xlink:title=" ">
<path fill="none" stroke="#63b8ff" d="M265.5,-54.84C285.41,-46.43 315.36,-33.77 338.13,-24.15"/>
<polygon fill="#63b8ff" stroke="#63b8ff" points="339.4,-27.41 347.25,-20.29 336.68,-20.96 339.4,-27.41"/>
</a>
</g>
</g>
<!-- Node9 -->
<g id="Node000009" class="node">
<title>Node9</title>
<g id="a_Node000009"><a xlink:title=" ">
<polygon fill="#e0e0e0" stroke="#999999" points="467.25,-19.25 413,-19.25 413,0 467.25,0 467.25,-19.25"/>
<text text-anchor="middle" x="440.12" y="-5.75" font-family="Helvetica,sans-Serif" font-size="10.00">QVariant</text>
</a>
</g>
</g>
<!-- Node1&#45;&gt;Node9 -->
<g id="edge8_Node000001_Node000009" class="edge">
<title>Node1&#45;&gt;Node9</title>
<g id="a_edge8_Node000001_Node000009"><a xlink:title=" ">
<path fill="none" stroke="#63b8ff" d="M277.37,-54.84C311.77,-45.5 365.42,-30.92 401.63,-21.08"/>
<polygon fill="#63b8ff" stroke="#63b8ff" points="402.54,-24.46 411.27,-18.46 400.7,-17.71 402.54,-24.46"/>
</a>
</g>
</g>
<!-- Node10 -->
<g id="Node000010" class="node">
<title>Node10</title>
<g id="a_Node000010"><a xlink:title=" ">
<polygon fill="#e0e0e0" stroke="#999999" points="559,-19.25 485.25,-19.25 485.25,0 559,0 559,-19.25"/>
<text text-anchor="middle" x="522.12" y="-5.75" font-family="Helvetica,sans-Serif" font-size="10.00">core_export.h</text>
</a>
</g>
</g>
<!-- Node1&#45;&gt;Node10 -->
<g id="edge9_Node000001_Node000010" class="edge">
<title>Node1&#45;&gt;Node10</title>
<g id="a_edge9_Node000001_Node000010"><a xlink:title=" ">
<path fill="none" stroke="#63b8ff" d="M287.26,-55.61C337.84,-45.92 421.44,-29.91 474.06,-19.83"/>
<polygon fill="#63b8ff" stroke="#63b8ff" points="474.47,-23.32 483.63,-18 473.15,-16.44 474.47,-23.32"/>
</a>
</g>
</g>
</g>
</svg>
