<?xml version="1.0" encoding="UTF-8" standalone="no"?>
<!DOCTYPE svg PUBLIC "-//W3C//DTD SVG 1.1//EN"
 "http://www.w3.org/Graphics/SVG/1.1/DTD/svg11.dtd">
<!-- Generated by graphviz version 12.2.0 (20241103.1931)
 -->
<!-- Title: src/updater/implementation/version.hpp Pages: 1 -->
<svg width="294pt" height="105pt"
 viewBox="0.00 0.00 293.75 105.00" xmlns="http://www.w3.org/2000/svg" xmlns:xlink="http://www.w3.org/1999/xlink">
<g id="graph0" class="graph" transform="scale(1 1) rotate(0) translate(4 101)">
<title>src/updater/implementation/version.hpp</title>
<!-- Node1 -->
<g id="Node000001" class="node">
<title>Node1</title>
<g id="a_Node000001"><a xlink:title=" ">
<polygon fill="#999999" stroke="#666666" points="209.75,-97 76,-97 76,-66.5 209.75,-66.5 209.75,-97"/>
<text text-anchor="start" x="84" y="-83.5" font-family="Helvetica,sans-Serif" font-size="10.00">src/updater/implementation</text>
<text text-anchor="middle" x="142.88" y="-72.25" font-family="Helvetica,sans-Serif" font-size="10.00">/version.hpp</text>
</a>
</g>
</g>
<!-- Node2 -->
<g id="Node000002" class="node">
<title>Node2</title>
<g id="a_Node000002"><a xlink:href="../../d9/d42/updater__impl_8cpp.html" target="_top" xlink:title=" ">
<polygon fill="white" stroke="#666666" points="133.75,-30.5 0,-30.5 0,0 133.75,0 133.75,-30.5"/>
<text text-anchor="start" x="8" y="-17" font-family="Helvetica,sans-Serif" font-size="10.00">src/updater/implementation</text>
<text text-anchor="middle" x="66.88" y="-5.75" font-family="Helvetica,sans-Serif" font-size="10.00">/updater_impl.cpp</text>
</a>
</g>
</g>
<!-- Node1&#45;&gt;Node2 -->
<g id="edge1_Node000001_Node000002" class="edge">
<title>Node1&#45;&gt;Node2</title>
<g id="a_edge1_Node000001_Node000002"><a xlink:title=" ">
<path fill="none" stroke="#63b8ff" d="M116.94,-58.74C106.08,-49.53 93.76,-39.06 84.05,-30.83"/>
<polygon fill="#63b8ff" stroke="#63b8ff" points="114.59,-61.33 124.48,-65.13 119.12,-56 114.59,-61.33"/>
</a>
</g>
</g>
<!-- Node3 -->
<g id="Node000003" class="node">
<title>Node3</title>
<g id="a_Node000003"><a xlink:href="../../d5/d1f/version_8cpp.html" target="_top" xlink:title=" ">
<polygon fill="white" stroke="#666666" points="285.75,-30.5 152,-30.5 152,0 285.75,0 285.75,-30.5"/>
<text text-anchor="start" x="160" y="-17" font-family="Helvetica,sans-Serif" font-size="10.00">src/updater/implementation</text>
<text text-anchor="middle" x="218.88" y="-5.75" font-family="Helvetica,sans-Serif" font-size="10.00">/version.cpp</text>
</a>
</g>
</g>
<!-- Node1&#45;&gt;Node3 -->
<g id="edge2_Node000001_Node000003" class="edge">
<title>Node1&#45;&gt;Node3</title>
<g id="a_edge2_Node000001_Node000003"><a xlink:title=" ">
<path fill="none" stroke="#63b8ff" d="M168.81,-58.74C179.67,-49.53 191.99,-39.06 201.7,-30.83"/>
<polygon fill="#63b8ff" stroke="#63b8ff" points="166.63,-56 161.27,-65.13 171.16,-61.33 166.63,-56"/>
</a>
</g>
</g>
</g>
</svg>
