<?xml version="1.0" encoding="UTF-8" standalone="no"?>
<!DOCTYPE svg PUBLIC "-//W3C//DTD SVG 1.1//EN"
 "http://www.w3.org/Graphics/SVG/1.1/DTD/svg11.dtd">
<!-- Generated by graphviz version 7.0.5 (20221223.1930)
 -->
<!-- Title: src/database/backends/sql_backends/isql_query_executor.hpp Pages: 1 -->
<svg width="811pt" height="126pt"
 viewBox="0.00 0.00 810.50 126.00" xmlns="http://www.w3.org/2000/svg" xmlns:xlink="http://www.w3.org/1999/xlink">
<g id="graph0" class="graph" transform="scale(1 1) rotate(0) translate(4 122)">
<title>src/database/backends/sql_backends/isql_query_executor.hpp</title>
<!-- Node1 -->
<g id="node1" class="node">
<title>Node1</title>
<g id="a_node1"><a xlink:title=" ">
<polygon fill="#999999" stroke="#666666" points="468.5,-118 342.5,-118 342.5,-77 468.5,-77 468.5,-118"/>
<text text-anchor="start" x="350.5" y="-106" font-family="Helvetica,sans-Serif" font-size="10.00">src/database/backends</text>
<text text-anchor="start" x="350.5" y="-95" font-family="Helvetica,sans-Serif" font-size="10.00">/sql_backends/isql_query</text>
<text text-anchor="middle" x="405.5" y="-84" font-family="Helvetica,sans-Serif" font-size="10.00">_executor.hpp</text>
</a>
</g>
</g>
<!-- Node2 -->
<g id="node2" class="node">
<title>Node2</title>
<g id="a_node2"><a xlink:href="../../d9/d0a/group__operator_8cpp.html" target="_top" xlink:title=" ">
<polygon fill="white" stroke="#666666" points="165,-35.5 0,-35.5 0,-5.5 165,-5.5 165,-35.5"/>
<text text-anchor="start" x="8" y="-23.5" font-family="Helvetica,sans-Serif" font-size="10.00">src/database/backends</text>
<text text-anchor="middle" x="82.5" y="-12.5" font-family="Helvetica,sans-Serif" font-size="10.00">/sql_backends/group_operator.cpp</text>
</a>
</g>
</g>
<!-- Node1&#45;&gt;Node2 -->
<g id="edge1" class="edge">
<title>Node1&#45;&gt;Node2</title>
<path fill="none" stroke="#63b8ff" d="M331.06,-79.22C274.6,-66.11 197.89,-48.29 144.69,-35.94"/>
<polygon fill="#63b8ff" stroke="#63b8ff" points="330.06,-82.58 340.6,-81.43 331.65,-75.76 330.06,-82.58"/>
</g>
<!-- Node3 -->
<g id="node3" class="node">
<title>Node3</title>
<g id="a_node3"><a xlink:href="../../d2/db2/people__information__accessor_8cpp.html" target="_top" xlink:title=" ">
<polygon fill="white" stroke="#666666" points="316,-41 183,-41 183,0 316,0 316,-41"/>
<text text-anchor="start" x="191" y="-29" font-family="Helvetica,sans-Serif" font-size="10.00">src/database/backends</text>
<text text-anchor="start" x="191" y="-18" font-family="Helvetica,sans-Serif" font-size="10.00">/sql_backends/people</text>
<text text-anchor="middle" x="249.5" y="-7" font-family="Helvetica,sans-Serif" font-size="10.00">_information_accessor.cpp</text>
</a>
</g>
</g>
<!-- Node1&#45;&gt;Node3 -->
<g id="edge2" class="edge">
<title>Node1&#45;&gt;Node3</title>
<path fill="none" stroke="#63b8ff" d="M353.74,-71.62C333.39,-61.83 310.33,-50.75 291.09,-41.49"/>
<polygon fill="#63b8ff" stroke="#63b8ff" points="352.21,-74.76 362.74,-75.94 355.24,-68.46 352.21,-74.76"/>
</g>
<!-- Node4 -->
<g id="node4" class="node">
<title>Node4</title>
<g id="a_node4"><a xlink:href="../../df/d09/photo__change__log__operator_8cpp.html" target="_top" xlink:title=" ">
<polygon fill="white" stroke="#666666" points="477,-41 334,-41 334,0 477,0 477,-41"/>
<text text-anchor="start" x="342" y="-29" font-family="Helvetica,sans-Serif" font-size="10.00">src/database/backends</text>
<text text-anchor="start" x="342" y="-18" font-family="Helvetica,sans-Serif" font-size="10.00">/sql_backends/photo_change</text>
<text text-anchor="middle" x="405.5" y="-7" font-family="Helvetica,sans-Serif" font-size="10.00">_log_operator.cpp</text>
</a>
</g>
</g>
<!-- Node1&#45;&gt;Node4 -->
<g id="edge3" class="edge">
<title>Node1&#45;&gt;Node4</title>
<path fill="none" stroke="#63b8ff" d="M405.5,-65.36C405.5,-57.24 405.5,-48.7 405.5,-41.33"/>
<polygon fill="#63b8ff" stroke="#63b8ff" points="402,-65.28 405.5,-75.28 409,-65.28 402,-65.28"/>
</g>
<!-- Node5 -->
<g id="node5" class="node">
<title>Node5</title>
<g id="a_node5"><a xlink:href="../../db/d47/photo__operator_8cpp.html" target="_top" xlink:title=" ">
<polygon fill="white" stroke="#666666" points="660,-35.5 495,-35.5 495,-5.5 660,-5.5 660,-35.5"/>
<text text-anchor="start" x="503" y="-23.5" font-family="Helvetica,sans-Serif" font-size="10.00">src/database/backends</text>
<text text-anchor="middle" x="577.5" y="-12.5" font-family="Helvetica,sans-Serif" font-size="10.00">/sql_backends/photo_operator.cpp</text>
</a>
</g>
</g>
<!-- Node1&#45;&gt;Node5 -->
<g id="edge4" class="edge">
<title>Node1&#45;&gt;Node5</title>
<path fill="none" stroke="#63b8ff" d="M461.4,-72.12C488.85,-60.16 520.98,-46.15 544.47,-35.9"/>
<polygon fill="#63b8ff" stroke="#63b8ff" points="460.3,-68.79 452.53,-75.99 463.09,-75.2 460.3,-68.79"/>
</g>
<!-- Node6 -->
<g id="node6" class="node">
<title>Node6</title>
<g id="a_node6"><a xlink:href="../../d7/d95/sql__query__executor_8hpp.html" target="_top" xlink:title=" ">
<polygon fill="#fff0f0" stroke="red" points="802.5,-41 678.5,-41 678.5,0 802.5,0 802.5,-41"/>
<text text-anchor="start" x="686.5" y="-29" font-family="Helvetica,sans-Serif" font-size="10.00">src/database/backends</text>
<text text-anchor="start" x="686.5" y="-18" font-family="Helvetica,sans-Serif" font-size="10.00">/sql_backends/sql_query</text>
<text text-anchor="middle" x="740.5" y="-7" font-family="Helvetica,sans-Serif" font-size="10.00">_executor.hpp</text>
</a>
</g>
</g>
<!-- Node1&#45;&gt;Node6 -->
<g id="edge5" class="edge">
<title>Node1&#45;&gt;Node6</title>
<path fill="none" stroke="#63b8ff" d="M479.96,-82.1C533,-71.54 605.86,-56.41 669.5,-41 672.36,-40.31 675.27,-39.58 678.22,-38.84"/>
<polygon fill="#63b8ff" stroke="#63b8ff" points="479.57,-78.61 470.44,-83.99 480.93,-85.48 479.57,-78.61"/>
</g>
</g>
</svg>
