<?xml version="1.0" encoding="UTF-8" standalone="no"?>
<!DOCTYPE svg PUBLIC "-//W3C//DTD SVG 1.1//EN"
 "http://www.w3.org/Graphics/SVG/1.1/DTD/svg11.dtd">
<!-- Generated by graphviz version 9.0.0 (20230911.1827)
 -->
<!-- Title: Database::APhotoChangeLogOperator::storeDifference Pages: 1 -->
<svg width="482pt" height="238pt"
 viewBox="0.00 0.00 482.00 237.88" xmlns="http://www.w3.org/2000/svg" xmlns:xlink="http://www.w3.org/1999/xlink">
<g id="graph0" class="graph" transform="scale(1 1) rotate(0) translate(4 233.88)">
<title>Database::APhotoChangeLogOperator::storeDifference</title>
<!-- Node1 -->
<g id="Node000001" class="node">
<title>Node1</title>
<g id="a_Node000001"><a xlink:title=" ">
<polygon fill="#999999" stroke="#666666" points="143.5,-132.5 0,-132.5 0,-102 143.5,-102 143.5,-132.5"/>
<text text-anchor="start" x="8" y="-119" font-family="Helvetica,sans-Serif" font-size="10.00">Database::APhotoChangeLog</text>
<text text-anchor="middle" x="71.75" y="-107.75" font-family="Helvetica,sans-Serif" font-size="10.00">Operator::storeDifference</text>
</a>
</g>
</g>
<!-- Node2 -->
<g id="Node000002" class="node">
<title>Node2</title>
<g id="a_Node000002"><a xlink:href="../../db/d29/class_photo_1_1_explicit_delta.html#aa17dc0e526caaa840d26a44e3b0d9b40" target="_top" xlink:title=" ">
<polygon fill="white" stroke="#666666" points="309.88,-229.88 192.62,-229.88 192.62,-210.62 309.88,-210.62 309.88,-229.88"/>
<text text-anchor="middle" x="251.25" y="-216.38" font-family="Helvetica,sans-Serif" font-size="10.00">Photo::ExplicitDelta::get</text>
</a>
</g>
</g>
<!-- Node1&#45;&gt;Node2 -->
<g id="edge1_Node000001_Node000002" class="edge">
<title>Node1&#45;&gt;Node2</title>
<g id="a_edge1_Node000001_Node000002"><a xlink:title=" ">
<path fill="none" stroke="#63b8ff" d="M90.12,-132.78C110.35,-150.22 145.38,-178.4 179.5,-196.25 186.77,-200.05 194.76,-203.44 202.68,-206.39"/>
<polygon fill="#63b8ff" stroke="#63b8ff" points="201.34,-209.63 211.93,-209.63 203.65,-203.02 201.34,-209.63"/>
</a>
</g>
</g>
<!-- Node3 -->
<g id="Node000003" class="node">
<title>Node3</title>
<g id="a_Node000003"><a xlink:href="../../d7/d1e/class_photo_1_1_data_delta.html#adb6e34500f00515020150df2f9fd0ab7" target="_top" xlink:title=" ">
<polygon fill="white" stroke="#666666" points="469.88,-210.88 363.12,-210.88 363.12,-191.62 469.88,-191.62 469.88,-210.88"/>
<text text-anchor="middle" x="416.5" y="-197.38" font-family="Helvetica,sans-Serif" font-size="10.00">Photo::DataDelta::get</text>
</a>
</g>
</g>
<!-- Node1&#45;&gt;Node3 -->
<g id="edge3_Node000001_Node000003" class="edge">
<title>Node1&#45;&gt;Node3</title>
<g id="a_edge3_Node000001_Node000003"><a xlink:title=" ">
<path fill="none" stroke="#63b8ff" d="M103.3,-132.82C124.25,-142.89 152.95,-155.52 179.5,-163.25 236.49,-179.84 303.47,-189.75 351.49,-195.27"/>
<polygon fill="#63b8ff" stroke="#63b8ff" points="350.82,-198.72 361.15,-196.35 351.6,-191.76 350.82,-198.72"/>
</a>
</g>
</g>
<!-- Node4 -->
<g id="Node000004" class="node">
<title>Node4</title>
<g id="a_Node000004"><a xlink:href="../../db/d29/class_photo_1_1_explicit_delta.html#a17a99123198a14dfec77677700c8d2ad" target="_top" xlink:title=" ">
<polygon fill="white" stroke="#666666" points="300.88,-154.5 201.62,-154.5 201.62,-124 300.88,-124 300.88,-154.5"/>
<text text-anchor="start" x="209.62" y="-141" font-family="Helvetica,sans-Serif" font-size="10.00">Photo::ExplicitDelta</text>
<text text-anchor="middle" x="251.25" y="-129.75" font-family="Helvetica,sans-Serif" font-size="10.00">::getId</text>
</a>
</g>
</g>
<!-- Node1&#45;&gt;Node4 -->
<g id="edge4_Node000001_Node000004" class="edge">
<title>Node1&#45;&gt;Node4</title>
<g id="a_edge4_Node000001_Node000004"><a xlink:title=" ">
<path fill="none" stroke="#63b8ff" d="M143.92,-126.07C159.22,-127.97 175.24,-129.95 190.07,-131.79"/>
<polygon fill="#63b8ff" stroke="#63b8ff" points="189.29,-135.22 199.64,-132.98 190.15,-128.27 189.29,-135.22"/>
</a>
</g>
</g>
<!-- Node5 -->
<g id="Node000005" class="node">
<title>Node5</title>
<g id="a_Node000005"><a xlink:href="../../d7/d1e/class_photo_1_1_data_delta.html#a8dbb1d880f0c0b37a9629fae8d098413" target="_top" xlink:title=" ">
<polygon fill="white" stroke="#666666" points="474,-127.88 359,-127.88 359,-108.62 474,-108.62 474,-127.88"/>
<text text-anchor="middle" x="416.5" y="-114.38" font-family="Helvetica,sans-Serif" font-size="10.00">Photo::DataDelta::getId</text>
</a>
</g>
</g>
<!-- Node1&#45;&gt;Node5 -->
<g id="edge6_Node000001_Node000005" class="edge">
<title>Node1&#45;&gt;Node5</title>
<g id="a_edge6_Node000001_Node000005"><a xlink:title=" ">
<path fill="none" stroke="#63b8ff" d="M143.95,-115.73C155.82,-115.53 168.01,-115.36 179.5,-115.25 243.27,-114.65 259.23,-114.22 323,-115.25 330.86,-115.38 339.1,-115.57 347.28,-115.79"/>
<polygon fill="#63b8ff" stroke="#63b8ff" points="347.15,-119.28 357.25,-116.08 347.35,-112.29 347.15,-119.28"/>
</a>
</g>
</g>
<!-- Node6 -->
<g id="Node000006" class="node">
<title>Node6</title>
<g id="a_Node000006"><a xlink:href="../../d7/d1e/class_photo_1_1_data_delta.html#a526b9c664ac0f9be3661a67ff2343401" target="_top" xlink:title=" ">
<polygon fill="white" stroke="#666666" points="305.75,-67.88 196.75,-67.88 196.75,-48.62 305.75,-48.62 305.75,-67.88"/>
<text text-anchor="middle" x="251.25" y="-54.38" font-family="Helvetica,sans-Serif" font-size="10.00">Photo::DataDelta::has</text>
</a>
</g>
</g>
<!-- Node1&#45;&gt;Node6 -->
<g id="edge7_Node000001_Node000006" class="edge">
<title>Node1&#45;&gt;Node6</title>
<g id="a_edge7_Node000001_Node000006"><a xlink:title=" ">
<path fill="none" stroke="#63b8ff" d="M119.85,-101.59C147.62,-92.36 182.42,-80.79 209.09,-71.93"/>
<polygon fill="#63b8ff" stroke="#63b8ff" points="210.15,-75.27 218.54,-68.79 207.95,-68.62 210.15,-75.27"/>
</a>
</g>
</g>
<!-- Node7 -->
<g id="Node000007" class="node">
<title>Node7</title>
<g id="a_Node000007"><a xlink:href="../../d0/d89/class_database_1_1_a_photo_change_log_operator.html#a4e35ed588d3318d79362a307b9ef95f3" target="_top" xlink:title=" ">
<polygon fill="#fff0f0" stroke="red" points="323,-30.5 179.5,-30.5 179.5,0 323,0 323,-30.5"/>
<text text-anchor="start" x="187.5" y="-17" font-family="Helvetica,sans-Serif" font-size="10.00">Database::APhotoChangeLog</text>
<text text-anchor="middle" x="251.25" y="-5.75" font-family="Helvetica,sans-Serif" font-size="10.00">Operator::process</text>
</a>
</g>
</g>
<!-- Node1&#45;&gt;Node7 -->
<g id="edge8_Node000001_Node000007" class="edge">
<title>Node1&#45;&gt;Node7</title>
<g id="a_edge8_Node000001_Node000007"><a xlink:title=" ">
<path fill="none" stroke="#63b8ff" d="M90.52,-101.62C110.84,-84.4 145.69,-56.81 179.5,-39.25 182.16,-37.87 184.92,-36.54 187.73,-35.27"/>
<polygon fill="#63b8ff" stroke="#63b8ff" points="188.84,-38.6 196.7,-31.49 186.13,-32.15 188.84,-38.6"/>
</a>
</g>
</g>
<!-- Node2&#45;&gt;Node3 -->
<g id="edge2_Node000002_Node000003" class="edge">
<title>Node2&#45;&gt;Node3</title>
<g id="a_edge2_Node000002_Node000003"><a xlink:title=" ">
<path fill="none" stroke="#63b8ff" d="M310.27,-213.5C323.65,-211.94 337.97,-210.27 351.59,-208.69"/>
<polygon fill="#63b8ff" stroke="#63b8ff" points="351.81,-212.19 361.34,-207.55 351,-205.23 351.81,-212.19"/>
</a>
</g>
</g>
<!-- Node4&#45;&gt;Node5 -->
<g id="edge5_Node000004_Node000005" class="edge">
<title>Node4&#45;&gt;Node5</title>
<g id="a_edge5_Node000004_Node000005"><a xlink:title=" ">
<path fill="none" stroke="#63b8ff" d="M301.23,-132.95C315.74,-131.08 331.9,-129 347.39,-127.01"/>
<polygon fill="#63b8ff" stroke="#63b8ff" points="347.54,-130.52 357.02,-125.77 346.65,-123.58 347.54,-130.52"/>
</a>
</g>
</g>
</g>
</svg>
