<?xml version="1.0" encoding="UTF-8" standalone="no"?>
<!DOCTYPE svg PUBLIC "-//W3C//DTD SVG 1.1//EN"
 "http://www.w3.org/Graphics/SVG/1.1/DTD/svg11.dtd">
<!-- Generated by graphviz version 7.0.5 (20221223.1930)
 -->
<!-- Title: Database::APhotoChangeLogOperator::dataToStr Pages: 1 -->
<svg width="293pt" height="64pt"
 viewBox="0.00 0.00 293.00 64.00" xmlns="http://www.w3.org/2000/svg" xmlns:xlink="http://www.w3.org/1999/xlink">
<g id="graph0" class="graph" transform="scale(1 1) rotate(0) translate(4 60)">
<title>Database::APhotoChangeLogOperator::dataToStr</title>
<!-- Node1 -->
<g id="node1" class="node">
<title>Node1</title>
<g id="a_node1"><a xlink:title=" ">
<polygon fill="#999999" stroke="#666666" points="144,-42.5 0,-42.5 0,-12.5 144,-12.5 144,-42.5"/>
<text text-anchor="start" x="8" y="-30.5" font-family="Helvetica,sans-Serif" font-size="10.00">Database::APhotoChangeLog</text>
<text text-anchor="middle" x="72" y="-19.5" font-family="Helvetica,sans-Serif" font-size="10.00">Operator::dataToStr</text>
</a>
</g>
</g>
<!-- Node2 -->
<g id="node2" class="node">
<title>Node2</title>
<g id="a_node2"><a xlink:href="../../de/dd4/class_base_tags.html#a7b65c7bd0c368919cce09effdcdf83b6" target="_top" xlink:title="Get raw text for tag.">
<polygon fill="white" stroke="#666666" points="285,-56 180,-56 180,-37 285,-37 285,-56"/>
<text text-anchor="middle" x="232.5" y="-44" font-family="Helvetica,sans-Serif" font-size="10.00">BaseTags::getName</text>
</a>
</g>
</g>
<!-- Node1&#45;&gt;Node2 -->
<g id="edge1" class="edge">
<title>Node1&#45;&gt;Node2</title>
<path fill="none" stroke="#63b8ff" d="M144.37,-36.06C152.32,-37.01 160.37,-37.97 168.21,-38.91"/>
<polygon fill="#63b8ff" stroke="#63b8ff" points="167.66,-42.37 178,-40.09 168.49,-35.42 167.66,-42.37"/>
</g>
<!-- Node3 -->
<g id="node3" class="node">
<title>Node3</title>
<g id="a_node3"><a xlink:href="../../df/d7c/class_tag_value.html#a7dbb46edc2d25d96165c308c152aea06" target="_top" xlink:title=" ">
<polygon fill="#fff0f0" stroke="red" points="284,-19 181,-19 181,0 284,0 284,-19"/>
<text text-anchor="middle" x="232.5" y="-7" font-family="Helvetica,sans-Serif" font-size="10.00">TagValue::rawValue</text>
</a>
</g>
</g>
<!-- Node1&#45;&gt;Node3 -->
<g id="edge2" class="edge">
<title>Node1&#45;&gt;Node3</title>
<path fill="none" stroke="#63b8ff" d="M144.37,-19.4C152.74,-18.44 161.24,-17.48 169.48,-16.54"/>
<polygon fill="#63b8ff" stroke="#63b8ff" points="169.86,-20.02 179.4,-15.42 169.07,-13.07 169.86,-20.02"/>
</g>
</g>
</svg>
