<?xml version="1.0" encoding="UTF-8" standalone="no"?>
<!DOCTYPE svg PUBLIC "-//W3C//DTD SVG 1.1//EN"
 "http://www.w3.org/Graphics/SVG/1.1/DTD/svg11.dtd">
<!-- Generated by graphviz version 7.0.5 (20221223.1930)
 -->
<!-- Title: Database::APhotoChangeLogOperator::storeDifference Pages: 1 -->
<svg width="332pt" height="150pt"
 viewBox="0.00 0.00 332.00 149.50" xmlns="http://www.w3.org/2000/svg" xmlns:xlink="http://www.w3.org/1999/xlink">
<g id="graph0" class="graph" transform="scale(1 1) rotate(0) translate(4 145.5)">
<title>Database::APhotoChangeLogOperator::storeDifference</title>
<!-- Node1 -->
<g id="node1" class="node">
<title>Node1</title>
<g id="a_node1"><a xlink:title=" ">
<polygon fill="#999999" stroke="#666666" points="144,-91 0,-91 0,-61 144,-61 144,-91"/>
<text text-anchor="start" x="8" y="-79" font-family="Helvetica,sans-Serif" font-size="10.00">Database::APhotoChangeLog</text>
<text text-anchor="middle" x="72" y="-68" font-family="Helvetica,sans-Serif" font-size="10.00">Operator::storeDifference</text>
</a>
</g>
</g>
<!-- Node2 -->
<g id="node2" class="node">
<title>Node2</title>
<g id="a_node2"><a xlink:href="../../d7/d1e/class_photo_1_1_data_delta.html#adb6e34500f00515020150df2f9fd0ab7" target="_top" xlink:title=" ">
<polygon fill="white" stroke="#666666" points="305.5,-141.5 198.5,-141.5 198.5,-122.5 305.5,-122.5 305.5,-141.5"/>
<text text-anchor="middle" x="252" y="-129.5" font-family="Helvetica,sans-Serif" font-size="10.00">Photo::DataDelta::get</text>
</a>
</g>
</g>
<!-- Node1&#45;&gt;Node2 -->
<g id="edge1" class="edge">
<title>Node1&#45;&gt;Node2</title>
<path fill="none" stroke="#63b8ff" d="M113.61,-91.42C133.48,-98.71 157.84,-107.27 180,-114 185.86,-115.78 192.02,-117.52 198.17,-119.19"/>
<polygon fill="#63b8ff" stroke="#63b8ff" points="197.12,-122.53 207.68,-121.69 198.91,-115.76 197.12,-122.53"/>
</g>
<!-- Node3 -->
<g id="node3" class="node">
<title>Node3</title>
<g id="a_node3"><a xlink:href="../../d7/d1e/class_photo_1_1_data_delta.html#a8dbb1d880f0c0b37a9629fae8d098413" target="_top" xlink:title=" ">
<polygon fill="white" stroke="#666666" points="310,-104.5 194,-104.5 194,-85.5 310,-85.5 310,-104.5"/>
<text text-anchor="middle" x="252" y="-92.5" font-family="Helvetica,sans-Serif" font-size="10.00">Photo::DataDelta::getId</text>
</a>
</g>
</g>
<!-- Node1&#45;&gt;Node3 -->
<g id="edge2" class="edge">
<title>Node1&#45;&gt;Node3</title>
<path fill="none" stroke="#63b8ff" d="M144.37,-83.62C156.89,-84.95 169.89,-86.34 182.33,-87.67"/>
<polygon fill="#63b8ff" stroke="#63b8ff" points="181.74,-91.13 192.06,-88.71 182.49,-84.17 181.74,-91.13"/>
</g>
<!-- Node4 -->
<g id="node4" class="node">
<title>Node4</title>
<g id="a_node4"><a xlink:href="../../d7/d1e/class_photo_1_1_data_delta.html#a526b9c664ac0f9be3661a67ff2343401" target="_top" xlink:title=" ">
<polygon fill="white" stroke="#666666" points="307,-67.5 197,-67.5 197,-48.5 307,-48.5 307,-67.5"/>
<text text-anchor="middle" x="252" y="-55.5" font-family="Helvetica,sans-Serif" font-size="10.00">Photo::DataDelta::has</text>
</a>
</g>
</g>
<!-- Node1&#45;&gt;Node4 -->
<g id="edge3" class="edge">
<title>Node1&#45;&gt;Node4</title>
<path fill="none" stroke="#63b8ff" d="M144.37,-68.78C157.84,-67.42 171.87,-66 185.15,-64.66"/>
<polygon fill="#63b8ff" stroke="#63b8ff" points="185.5,-68.14 195.1,-63.65 184.8,-61.18 185.5,-68.14"/>
</g>
<!-- Node5 -->
<g id="node5" class="node">
<title>Node5</title>
<g id="a_node5"><a xlink:href="../../d0/d89/class_database_1_1_a_photo_change_log_operator.html#a4e35ed588d3318d79362a307b9ef95f3" target="_top" xlink:title=" ">
<polygon fill="#fff0f0" stroke="red" points="324,-30 180,-30 180,0 324,0 324,-30"/>
<text text-anchor="start" x="188" y="-18" font-family="Helvetica,sans-Serif" font-size="10.00">Database::APhotoChangeLog</text>
<text text-anchor="middle" x="252" y="-7" font-family="Helvetica,sans-Serif" font-size="10.00">Operator::process</text>
</a>
</g>
</g>
<!-- Node1&#45;&gt;Node5 -->
<g id="edge4" class="edge">
<title>Node1&#45;&gt;Node5</title>
<path fill="none" stroke="#63b8ff" d="M117.92,-60.61C141.33,-52.58 170.19,-42.69 195.05,-34.17"/>
<polygon fill="#63b8ff" stroke="#63b8ff" points="196.03,-37.54 204.36,-30.98 193.76,-30.92 196.03,-37.54"/>
</g>
</g>
</svg>
