<?xml version="1.0" encoding="UTF-8" standalone="no"?>
<!DOCTYPE svg PUBLIC "-//W3C//DTD SVG 1.1//EN"
 "http://www.w3.org/Graphics/SVG/1.1/DTD/svg11.dtd">
<!-- Generated by graphviz version 9.0.0 (20230911.1827)
 -->
<!-- Title: IViewTask::getProgressBar Pages: 1 -->
<svg width="476pt" height="98pt"
 viewBox="0.00 0.00 476.00 97.88" xmlns="http://www.w3.org/2000/svg" xmlns:xlink="http://www.w3.org/1999/xlink">
<g id="graph0" class="graph" transform="scale(1 1) rotate(0) translate(4 93.88)">
<title>IViewTask::getProgressBar</title>
<!-- Node1 -->
<g id="Node000001" class="node">
<title>Node1</title>
<g id="a_Node000001"><a xlink:title=" ">
<polygon fill="#999999" stroke="#666666" points="468,-46.88 333.5,-46.88 333.5,-27.62 468,-27.62 468,-46.88"/>
<text text-anchor="middle" x="400.75" y="-33.38" font-family="Helvetica,sans-Serif" font-size="10.00">IViewTask::getProgressBar</text>
</a>
</g>
</g>
<!-- Node2 -->
<g id="Node000002" class="node">
<title>Node2</title>
<g id="a_Node000002"><a xlink:href="../../df/d05/namespace_tasks_view_utils.html#ae8ef4428b4fc785fc7c26e80dd3a6156" target="_top" xlink:title=" ">
<polygon fill="white" stroke="#666666" points="297.5,-89.88 142.75,-89.88 142.75,-70.62 297.5,-70.62 297.5,-89.88"/>
<text text-anchor="middle" x="220.12" y="-76.38" font-family="Helvetica,sans-Serif" font-size="10.00">TasksViewUtils::addFutureTask</text>
</a>
</g>
</g>
<!-- Node1&#45;&gt;Node2 -->
<g id="edge1_Node000001_Node000002" class="edge">
<title>Node1&#45;&gt;Node2</title>
<g id="a_edge1_Node000001_Node000002"><a xlink:title=" ">
<path fill="none" stroke="#63b8ff" d="M346.77,-50C320.03,-56.44 288.05,-64.14 263.05,-70.16"/>
<polygon fill="#63b8ff" stroke="#63b8ff" points="347.5,-53.43 356.4,-47.69 345.86,-46.62 347.5,-53.43"/>
</a>
</g>
</g>
<!-- Node3 -->
<g id="Node000003" class="node">
<title>Node3</title>
<g id="a_Node000003"><a xlink:href="../../dd/d10/class_photos_analyzer_impl.html#ab38d0cd8b1d5d3353c34cdc74861aa3b" target="_top" xlink:title=" ">
<polygon fill="white" stroke="#666666" points="271.25,-52.5 169,-52.5 169,-22 271.25,-22 271.25,-52.5"/>
<text text-anchor="start" x="177" y="-39" font-family="Helvetica,sans-Serif" font-size="10.00">PhotosAnalyzerImpl</text>
<text text-anchor="middle" x="220.12" y="-27.75" font-family="Helvetica,sans-Serif" font-size="10.00">::addPhotos</text>
</a>
</g>
</g>
<!-- Node1&#45;&gt;Node3 -->
<g id="edge2_Node000001_Node000003" class="edge">
<title>Node1&#45;&gt;Node3</title>
<g id="a_edge2_Node000001_Node000003"><a xlink:title=" ">
<path fill="none" stroke="#63b8ff" d="M322.08,-37.25C304.94,-37.25 287.22,-37.25 271.5,-37.25"/>
<polygon fill="#63b8ff" stroke="#63b8ff" points="321.72,-40.75 331.72,-37.25 321.72,-33.75 321.72,-40.75"/>
</a>
</g>
</g>
<!-- Node4 -->
<g id="Node000004" class="node">
<title>Node4</title>
<g id="a_Node000004"><a xlink:href="../../dd/d10/class_photos_analyzer_impl.html#a6e3e7a3cbef37ad4d8f2ad872d8c06a5" target="_top" xlink:title=" ">
<polygon fill="white" stroke="#666666" points="106.75,-30.5 0,-30.5 0,0 106.75,0 106.75,-30.5"/>
<text text-anchor="start" x="8" y="-17" font-family="Helvetica,sans-Serif" font-size="10.00">PhotosAnalyzerImpl</text>
<text text-anchor="middle" x="53.38" y="-5.75" font-family="Helvetica,sans-Serif" font-size="10.00">::PhotosAnalyzerImpl</text>
</a>
</g>
</g>
<!-- Node1&#45;&gt;Node4 -->
<g id="edge4_Node000001_Node000004" class="edge">
<title>Node1&#45;&gt;Node4</title>
<g id="a_edge4_Node000001_Node000004"><a xlink:title=" ">
<path fill="none" stroke="#63b8ff" d="M354.43,-24.24C336.82,-19.82 316.37,-15.43 297.5,-13.25 229.18,-5.34 211.52,-12.47 142.75,-13.25 131.24,-13.38 118.89,-13.61 107.18,-13.86"/>
<polygon fill="#63b8ff" stroke="#63b8ff" points="353.53,-27.63 364.08,-26.76 355.29,-20.85 353.53,-27.63"/>
</a>
</g>
</g>
<!-- Node3&#45;&gt;Node4 -->
<g id="edge3_Node000003_Node000004" class="edge">
<title>Node3&#45;&gt;Node4</title>
<g id="a_edge3_Node000003_Node000004"><a xlink:title=" ">
<path fill="none" stroke="#63b8ff" d="M157.57,-29.03C141.02,-26.82 123.28,-24.45 107.25,-22.31"/>
<polygon fill="#63b8ff" stroke="#63b8ff" points="156.92,-32.47 167.3,-30.33 157.85,-25.54 156.92,-32.47"/>
</a>
</g>
</g>
</g>
</svg>
