<?xml version="1.0" encoding="UTF-8" standalone="no"?>
<!DOCTYPE svg PUBLIC "-//W3C//DTD SVG 1.1//EN"
 "http://www.w3.org/Graphics/SVG/1.1/DTD/svg11.dtd">
<!-- Generated by graphviz version 9.0.0 (20230911.1827)
 -->
<!-- Title: src/database/backends/sql_backends/sqlite_backend/backend.hpp Pages: 1 -->
<!--zoomable 183 -->

<svg id="main" version="1.1" xmlns="http://www.w3.org/2000/svg" xmlns:xlink="http://www.w3.org/1999/xlink" xml:space="preserve" onload="init(evt)">
<style type="text/css"><![CDATA[
.node, .edge {opacity: 0.7;}
.node.selected, .edge.selected {opacity: 1;}
.edge:hover path { stroke: red; }
.edge:hover polygon { stroke: red; fill: red; }
]]></style>

<defs>
  <circle id="rim" cx="0" cy="0" r="7"/>
  <circle id="rim2" cx="0" cy="0" r="3.5"/>
  <g id="zoomPlus">
    <use xlink:href="#rim" fill="#404040"><set attributeName="fill" to="#808080" begin="zoomplus.mouseover" end="zoomplus.mouseout"/></use>
    <path d="M-4,0h8M0,-4v8" fill="none" stroke="white" stroke-width="1.5" pointer-events="none"/>
  </g>
  <g id="zoomMin">
    <use xlink:href="#rim" fill="#404040"><set attributeName="fill" to="#808080" begin="zoomminus.mouseover" end="zoomminus.mouseout"/></use>
    <path d="M-4,0h8" fill="none" stroke="white" stroke-width="1.5" pointer-events="none"/>
  </g>
  <g id="arrowUp" transform="translate(30 24)">
    <use xlink:href="#rim"/>
    <path pointer-events="none" fill="none" stroke="white" stroke-width="1.5" d="M0,-3.0v7 M-2.5,-0.5L0,-3.0L2.5,-0.5"/>
  </g>
  <g id="arrowRight" transform="rotate(90) translate(36 -43)">
    <use xlink:href="#rim"/>
    <path pointer-events="none" fill="none" stroke="white" stroke-width="1.5" d="M0,-3.0v7 M-2.5,-0.5L0,-3.0L2.5,-0.5"/>
  </g>
  <g id="arrowDown" transform="rotate(180) translate(-30 -48)">
    <use xlink:href="#rim"/>
    <path pointer-events="none" fill="none" stroke="white" stroke-width="1.5" d="M0,-3.0v7 M-2.5,-0.5L0,-3.0L2.5,-0.5"/>
  </g>
  <g id="arrowLeft" transform="rotate(270) translate(-36 17)">
    <use xlink:href="#rim"/>
    <path pointer-events="none" fill="none" stroke="white" stroke-width="1.5" d="M0,-3.0v7 M-2.5,-0.5L0,-3.0L2.5,-0.5"/>
  </g>
  <g id="resetDef">
    <use xlink:href="#rim2" fill="#404040"><set attributeName="fill" to="#808080" begin="reset.mouseover" end="reset.mouseout"/></use>
  </g>
</defs>
<script type="application/ecmascript">
var viewWidth = 805;
var viewHeight = 183;
var sectionId = 'dynsection-0';
</script>
<script type="application/ecmascript" xlink:href="../../svg.min.js"/>
<svg id="graph" class="graph">
<g id="viewport">
<title>src/database/backends/sql_backends/sqlite_backend/backend.hpp</title>
<!-- Node1 -->
<g id="Node000001" class="node">
<title>Node1</title>
<g id="a_Node000001"><a xlink:title=" ">
<polygon fill="#999999" stroke="#666666" points="368.28,-174.75 251.03,-174.75 251.03,-133 368.28,-133 368.28,-174.75"/>
<text text-anchor="start" x="259.03" y="-161.25" font-family="Helvetica,sans-Serif" font-size="10.00">src/database/backends</text>
<text text-anchor="start" x="259.03" y="-150" font-family="Helvetica,sans-Serif" font-size="10.00">/sql_backends/sqlite</text>
<text text-anchor="middle" x="309.65" y="-138.75" font-family="Helvetica,sans-Serif" font-size="10.00">_backend/backend.hpp</text>
</a>
</g>
</g>
<!-- Node2 -->
<g id="Node000002" class="node">
<title>Node2</title>
<g id="a_Node000002"><a xlink:title=" ">
<polygon fill="#e0e0e0" stroke="#999999" points="187.9,-19.25 137.4,-19.25 137.4,0 187.9,0 187.9,-19.25"/>
<text text-anchor="middle" x="162.65" y="-5.75" font-family="Helvetica,sans-Serif" font-size="10.00">memory</text>
</a>
</g>
</g>
<!-- Node1&#45;&gt;Node2 -->
<g id="edge1_Node000001_Node000002" class="edge">
<title>Node1&#45;&gt;Node2</title>
<g id="a_edge1_Node000001_Node000002"><a xlink:title=" ">
<path fill="none" stroke="#63b8ff" d="M250.74,-139.86C226.03,-131.54 199.05,-118.17 181.65,-97 166.29,-78.31 162.64,-49.9 162.11,-30.82"/>
<polygon fill="#63b8ff" stroke="#63b8ff" points="165.61,-31.1 162.12,-21.1 158.61,-31.09 165.61,-31.1"/>
</a>
</g>
</g>
<!-- Node3 -->
<g id="Node000003" class="node">
<title>Node3</title>
<g id="a_Node000003"><a xlink:title=" ">
<polygon fill="#e0e0e0" stroke="#999999" points="58.65,-19.25 6.65,-19.25 6.65,0 58.65,0 58.65,-19.25"/>
<text text-anchor="middle" x="32.65" y="-5.75" font-family="Helvetica,sans-Serif" font-size="10.00">QObject</text>
</a>
</g>
</g>
<!-- Node1&#45;&gt;Node3 -->
<g id="edge2_Node000001_Node000003" class="edge">
<title>Node1&#45;&gt;Node3</title>
<g id="a_edge2_Node000001_Node000003"><a xlink:title=" ">
<path fill="none" stroke="#63b8ff" d="M250.75,-150.62C171.78,-146.21 37.96,-133.43 7.65,-97 -8.61,-77.46 5.94,-47.83 18.67,-28.85"/>
<polygon fill="#63b8ff" stroke="#63b8ff" points="21.49,-30.93 24.47,-20.77 15.8,-26.85 21.49,-30.93"/>
</a>
</g>
</g>
<!-- Node4 -->
<g id="Node000004" class="node">
<title>Node4</title>
<g id="a_Node000004"><a xlink:title=" ">
<polygon fill="#e0e0e0" stroke="#999999" points="499.4,-19.25 445.9,-19.25 445.9,0 499.4,0 499.4,-19.25"/>
<text text-anchor="middle" x="472.65" y="-5.75" font-family="Helvetica,sans-Serif" font-size="10.00">QtPlugin</text>
</a>
</g>
</g>
<!-- Node1&#45;&gt;Node4 -->
<g id="edge3_Node000001_Node000004" class="edge">
<title>Node1&#45;&gt;Node4</title>
<g id="a_edge3_Node000001_Node000004"><a xlink:title=" ">
<path fill="none" stroke="#63b8ff" d="M319.66,-132.58C331.14,-111.01 351.76,-77.09 377.65,-55.25 394.34,-41.17 416.22,-30.5 434.77,-23.12"/>
<polygon fill="#63b8ff" stroke="#63b8ff" points="435.99,-26.4 444.11,-19.59 433.52,-19.85 435.99,-26.4"/>
</a>
</g>
</g>
<!-- Node5 -->
<g id="Node000005" class="node">
<title>Node5</title>
<g id="a_Node000005"><a xlink:href="../../d7/d2b/idatabase_8hpp.html" target="_top" xlink:title=" ">
<polygon fill="#fff0f0" stroke="red" points="135.03,-85.75 16.28,-85.75 16.28,-66.5 135.03,-66.5 135.03,-85.75"/>
<text text-anchor="middle" x="75.65" y="-72.25" font-family="Helvetica,sans-Serif" font-size="10.00">database/idatabase.hpp</text>
</a>
</g>
</g>
<!-- Node1&#45;&gt;Node5 -->
<g id="edge4_Node000001_Node000005" class="edge">
<title>Node1&#45;&gt;Node5</title>
<g id="a_edge4_Node000001_Node000005"><a xlink:title=" ">
<path fill="none" stroke="#63b8ff" d="M250.6,-133.76C208.03,-119.98 151.75,-101.76 114.67,-89.76"/>
<polygon fill="#63b8ff" stroke="#63b8ff" points="115.84,-86.46 105.25,-86.71 113.69,-93.12 115.84,-86.46"/>
</a>
</g>
</g>
<!-- Node46 -->
<g id="Node000046" class="node">
<title>Node46</title>
<g id="a_Node000046"><a xlink:href="../../df/df4/sql__backend_8hpp.html" target="_top" xlink:title=" ">
<polygon fill="#fff0f0" stroke="red" points="330.15,-91.38 191.15,-91.38 191.15,-60.88 330.15,-60.88 330.15,-91.38"/>
<text text-anchor="start" x="199.15" y="-77.88" font-family="Helvetica,sans-Serif" font-size="10.00">database/backends/sql</text>
<text text-anchor="middle" x="260.65" y="-66.62" font-family="Helvetica,sans-Serif" font-size="10.00">_backends/sql_backend.hpp</text>
</a>
</g>
</g>
<!-- Node1&#45;&gt;Node46 -->
<g id="edge7_Node000001_Node000046" class="edge">
<title>Node1&#45;&gt;Node46</title>
<g id="a_edge7_Node000001_Node000046"><a xlink:title=" ">
<path fill="none" stroke="#63b8ff" d="M296.52,-132.58C290.23,-122.85 282.65,-111.13 276.08,-100.98"/>
<polygon fill="#63b8ff" stroke="#63b8ff" points="279.13,-99.25 270.76,-92.75 273.25,-103.05 279.13,-99.25"/>
</a>
</g>
</g>
<!-- Node71 -->
<g id="Node000071" class="node">
<title>Node71</title>
<g id="a_Node000071"><a xlink:href="../../d1/d77/generic__sql__query__constructor_8hpp.html" target="_top" xlink:title=" ">
<polygon fill="#fff0f0" stroke="red" points="502.9,-97 386.4,-97 386.4,-55.25 502.9,-55.25 502.9,-97"/>
<text text-anchor="start" x="394.4" y="-83.5" font-family="Helvetica,sans-Serif" font-size="10.00">database/backends/sql</text>
<text text-anchor="start" x="394.4" y="-72.25" font-family="Helvetica,sans-Serif" font-size="10.00">_backends/generic_sql</text>
<text text-anchor="middle" x="444.65" y="-61" font-family="Helvetica,sans-Serif" font-size="10.00">_query_constructor.hpp</text>
</a>
</g>
</g>
<!-- Node1&#45;&gt;Node71 -->
<g id="edge9_Node000001_Node000071" class="edge">
<title>Node1&#45;&gt;Node71</title>
<g id="a_edge9_Node000001_Node000071"><a xlink:title=" ">
<path fill="none" stroke="#63b8ff" d="M345.83,-132.58C362.02,-123.49 381.3,-112.67 398.52,-103.01"/>
<polygon fill="#63b8ff" stroke="#63b8ff" points="400.05,-106.17 407.06,-98.22 396.62,-100.06 400.05,-106.17"/>
</a>
</g>
</g>
<!-- Node72 -->
<g id="Node000072" class="node">
<title>Node72</title>
<g id="a_Node000072"><a xlink:href="../../d4/d34/ibackend__qt__interface_8hpp.html" target="_top" xlink:title=" ">
<polygon fill="#fff0f0" stroke="red" points="652.78,-91.38 520.53,-91.38 520.53,-60.88 652.78,-60.88 652.78,-91.38"/>
<text text-anchor="start" x="528.53" y="-77.88" font-family="Helvetica,sans-Serif" font-size="10.00">database/implementation</text>
<text text-anchor="middle" x="586.65" y="-66.62" font-family="Helvetica,sans-Serif" font-size="10.00">/ibackend_qt_interface.hpp</text>
</a>
</g>
</g>
<!-- Node1&#45;&gt;Node72 -->
<g id="edge10_Node000001_Node000072" class="edge">
<title>Node1&#45;&gt;Node72</title>
<g id="a_edge10_Node000001_Node000072"><a xlink:title=" ">
<path fill="none" stroke="#63b8ff" d="M368.74,-136.72C413.75,-124.41 475.66,-107.48 522,-94.81"/>
<polygon fill="#63b8ff" stroke="#63b8ff" points="522.64,-98.26 531.36,-92.25 520.79,-91.51 522.64,-98.26"/>
</a>
</g>
</g>
<!-- Node75 -->
<g id="Node000075" class="node">
<title>Node75</title>
<g id="a_Node000075"><a xlink:title=" ">
<polygon fill="#e0e0e0" stroke="#999999" points="796.78,-91.38 670.53,-91.38 670.53,-60.88 796.78,-60.88 796.78,-91.38"/>
<text text-anchor="start" x="678.53" y="-77.88" font-family="Helvetica,sans-Serif" font-size="10.00">database_sqlite_backend</text>
<text text-anchor="middle" x="733.65" y="-66.62" font-family="Helvetica,sans-Serif" font-size="10.00">_export.h</text>
</a>
</g>
</g>
<!-- Node1&#45;&gt;Node75 -->
<g id="edge12_Node000001_Node000075" class="edge">
<title>Node1&#45;&gt;Node75</title>
<g id="a_edge12_Node000001_Node000075"><a xlink:title=" ">
<path fill="none" stroke="#63b8ff" d="M368.57,-145.57C438.79,-136.4 559.45,-119.14 661.65,-97 665.03,-96.27 668.48,-95.47 671.96,-94.64"/>
<polygon fill="#63b8ff" stroke="#63b8ff" points="672.77,-98.04 681.62,-92.22 671.07,-91.25 672.77,-98.04"/>
</a>
</g>
</g>
<!-- Node5&#45;&gt;Node2 -->
<g id="edge5_Node000005_Node000002" class="edge">
<title>Node5&#45;&gt;Node2</title>
<g id="a_edge5_Node000005_Node000002"><a xlink:title=" ">
<path fill="none" stroke="#63b8ff" d="M87.75,-66.16C101.57,-55.91 124.43,-38.96 141.27,-26.48"/>
<polygon fill="#63b8ff" stroke="#63b8ff" points="143.21,-29.39 149.16,-20.63 139.04,-23.77 143.21,-29.39"/>
</a>
</g>
</g>
<!-- Node5&#45;&gt;Node3 -->
<g id="edge6_Node000005_Node000003" class="edge">
<title>Node5&#45;&gt;Node3</title>
<g id="a_edge6_Node000005_Node000003"><a xlink:title=" ">
<path fill="none" stroke="#63b8ff" d="M69.67,-66.16C63.26,-56.53 52.89,-40.98 44.75,-28.77"/>
<polygon fill="#63b8ff" stroke="#63b8ff" points="47.88,-27.16 39.42,-20.78 42.06,-31.04 47.88,-27.16"/>
</a>
</g>
</g>
<!-- Node46&#45;&gt;Node2 -->
<g id="edge8_Node000046_Node000002" class="edge">
<title>Node46&#45;&gt;Node2</title>
<g id="a_edge8_Node000046_Node000002"><a xlink:title=" ">
<path fill="none" stroke="#63b8ff" d="M238.41,-60.49C222.76,-50.18 201.84,-36.42 185.95,-25.96"/>
<polygon fill="#63b8ff" stroke="#63b8ff" points="187.88,-23.04 177.61,-20.47 184.04,-28.89 187.88,-23.04"/>
</a>
</g>
</g>
<!-- Node72&#45;&gt;Node4 -->
<g id="edge11_Node000072_Node000004" class="edge">
<title>Node72&#45;&gt;Node4</title>
<g id="a_edge11_Node000072_Node000004"><a xlink:title=" ">
<path fill="none" stroke="#63b8ff" d="M560.78,-60.49C542.14,-49.94 517.08,-35.76 498.44,-25.22"/>
<polygon fill="#63b8ff" stroke="#63b8ff" points="500.32,-22.26 489.89,-20.38 496.87,-28.35 500.32,-22.26"/>
</a>
</g>
</g>
</g>
</svg>

<g id="navigator" transform="translate(0 0)" fill="#404254">
  <rect fill="#f2f5e9" fill-opacity="0.5" stroke="#606060" stroke-width=".5" x="0" y="0" width="60" height="60"/>
  <use id="zoomplus" xlink:href="#zoomPlus" x="17" y="9" onmousedown="handleZoom(evt,'in')"/>
  <use id="zoomminus" xlink:href="#zoomMin" x="42" y="9" onmousedown="handleZoom(evt,'out')"/>
  <use id="reset" xlink:href="#resetDef" x="30" y="36" onmousedown="handleReset()"/>
   <use id="arrowup" xlink:href="#arrowUp" x="0" y="0" onmousedown="handlePan(0,-1)"/>
  <use id="arrowright" xlink:href="#arrowRight" x="0" y="0" onmousedown="handlePan(1,0)"/>
  <use id="arrowdown" xlink:href="#arrowDown" x="0" y="0" onmousedown="handlePan(0,1)"/>
  <use id="arrowleft" xlink:href="#arrowLeft" x="0" y="0" onmousedown="handlePan(-1,0)"/>
</g>
<svg viewBox="0 0 15 15" width="100%" height="30px" preserveAspectRatio="xMaxYMin meet">
 <g id="arrow_out" transform="scale(0.3 0.3)">
  <a xlink:href="sqlite__backend_2backend_8hpp__incl_org.svg" target="_base">
   <rect id="button" ry="5" rx="5" y="6" x="6" height="38" width="38"
        fill="#f2f5e9" fill-opacity="0.5" stroke="#606060" stroke-width="1.0"/>
   <path id="arrow"
     d="M 11.500037,31.436501 C 11.940474,20.09759 22.043105,11.32322 32.158766,21.979434 L 37.068811,17.246167 C 37.068811,17.246167 37.088388,32 37.088388,32 L 22.160133,31.978069 C 22.160133,31.978069 26.997745,27.140456 26.997745,27.140456 C 18.528582,18.264221 13.291696,25.230495 11.500037,31.436501 z"
     style="fill:#404040;"/>
  </a>
 </g>
</svg>

<style type='text/css'>
<![CDATA[
[data-mouse-over-selected='false'] { opacity: 0.7; }
[data-mouse-over-selected='true']  { opacity: 1.0; }
]]>
</style>
<script type="application/ecmascript"><![CDATA[
document.addEventListener('DOMContentLoaded', (event) => {
  highlightEdges();
  highlightAdjacentNodes();
});
]]></script>
</svg>
