<?xml version="1.0" encoding="UTF-8" standalone="no"?>
<!DOCTYPE svg PUBLIC "-//W3C//DTD SVG 1.1//EN"
 "http://www.w3.org/Graphics/SVG/1.1/DTD/svg11.dtd">
<!-- Generated by graphviz version 7.0.5 (20221223.1930)
 -->
<!-- Title: src/database/backends/sql_backends/sqlite_backend/backend.hpp Pages: 1 -->
<!--zoomable 181 -->
<svg id="main" version="1.1" xmlns="http://www.w3.org/2000/svg" xmlns:xlink="http://www.w3.org/1999/xlink" xml:space="preserve" onload="init(evt)">
<style type="text/css"><![CDATA[
.edge:hover path { stroke: red; }
.edge:hover polygon { stroke: red; fill: red; }
]]></style>
<script type="text/javascript"><![CDATA[
var edges = document.getElementsByTagName('g');
if (edges && edges.length) {
  for (var i=0;i<edges.length;i++) {
    if (edges[i].id.substr(0,4)=='edge') {
      edges[i].setAttribute('class','edge');
    }
  }
}
]]></script>
        <defs>
                <circle id="rim" cx="0" cy="0" r="7"/>
                <circle id="rim2" cx="0" cy="0" r="3.5"/>
                <g id="zoomPlus">
                        <use xlink:href="#rim" fill="#404040">
                                <set attributeName="fill" to="#808080" begin="zoomplus.mouseover" end="zoomplus.mouseout"/>
                        </use>
                        <path d="M-4,0h8M0,-4v8" fill="none" stroke="white" stroke-width="1.5" pointer-events="none"/>
                </g>
                <g id="zoomMin">
                        <use xlink:href="#rim" fill="#404040">
                                <set attributeName="fill" to="#808080" begin="zoomminus.mouseover" end="zoomminus.mouseout"/>
                        </use>
                        <path d="M-4,0h8" fill="none" stroke="white" stroke-width="1.5" pointer-events="none"/>
                </g>
                <g id="dirArrow">
                        <path fill="none" stroke="white" stroke-width="1.5" d="M0,-3.0v7 M-2.5,-0.5L0,-3.0L2.5,-0.5"/>
                </g>
               <g id="resetDef">
                       <use xlink:href="#rim2" fill="#404040">
                               <set attributeName="fill" to="#808080" begin="reset.mouseover" end="reset.mouseout"/>
                       </use>
               </g>
        </defs>

<script type="text/javascript">
var viewWidth = 810;
var viewHeight = 181;
var sectionId = 'dynsection-0';
</script>
<script xlink:href="../../svgpan.js"/>
<svg id="graph" class="graph">
<g id="viewport">
<title>src/database/backends/sql_backends/sqlite_backend/backend.hpp</title>
<!-- Node1 -->
<g id="node1" class="node">
<title>Node1</title>
<g id="a_node1"><a xlink:title=" ">
<polygon fill="#999999" stroke="#666666" points="370.57,-173 252.57,-173 252.57,-132 370.57,-132 370.57,-173"/>
<text text-anchor="start" x="260.57" y="-161" font-family="Helvetica,sans-Serif" font-size="10.00">src/database/backends</text>
<text text-anchor="start" x="260.57" y="-150" font-family="Helvetica,sans-Serif" font-size="10.00">/sql_backends/sqlite</text>
<text text-anchor="middle" x="311.57" y="-139" font-family="Helvetica,sans-Serif" font-size="10.00">_backend/backend.hpp</text>
</a>
</g>
</g>
<!-- Node2 -->
<g id="node2" class="node">
<title>Node2</title>
<g id="a_node2"><a xlink:title=" ">
<polygon fill="#e0e0e0" stroke="#999999" points="190.07,-19 139.07,-19 139.07,0 190.07,0 190.07,-19"/>
<text text-anchor="middle" x="164.57" y="-7" font-family="Helvetica,sans-Serif" font-size="10.00">memory</text>
</a>
</g>
</g>
<!-- Node1&#45;&gt;Node2 -->
<g id="edge1" class="edge">
<title>Node1&#45;&gt;Node2</title>
<path fill="none" stroke="#63b8ff" d="M252.36,-138.54C227.74,-130.28 200.92,-117.01 183.57,-96 168.39,-77.61 164.68,-49.67 164.08,-30.78"/>
<polygon fill="#63b8ff" stroke="#63b8ff" points="167.58,-30.88 164.06,-20.89 160.58,-30.89 167.58,-30.88"/>
</g>
<!-- Node3 -->
<g id="node3" class="node">
<title>Node3</title>
<g id="a_node3"><a xlink:title=" ">
<polygon fill="#e0e0e0" stroke="#999999" points="59.07,-19 6.07,-19 6.07,0 59.07,0 59.07,-19"/>
<text text-anchor="middle" x="32.57" y="-7" font-family="Helvetica,sans-Serif" font-size="10.00">QObject</text>
</a>
</g>
</g>
<!-- Node1&#45;&gt;Node3 -->
<g id="edge2" class="edge">
<title>Node1&#45;&gt;Node3</title>
<path fill="none" stroke="#63b8ff" d="M252.28,-149.38C172.8,-145.14 38.11,-132.62 7.57,-96 -8.56,-76.66 5.95,-47.33 18.64,-28.54"/>
<polygon fill="#63b8ff" stroke="#63b8ff" points="21.4,-30.7 24.41,-20.55 15.72,-26.61 21.4,-30.7"/>
</g>
<!-- Node4 -->
<g id="node4" class="node">
<title>Node4</title>
<g id="a_node4"><a xlink:title=" ">
<polygon fill="#e0e0e0" stroke="#999999" points="502.57,-19 448.57,-19 448.57,0 502.57,0 502.57,-19"/>
<text text-anchor="middle" x="475.57" y="-7" font-family="Helvetica,sans-Serif" font-size="10.00">QtPlugin</text>
</a>
</g>
</g>
<!-- Node1&#45;&gt;Node4 -->
<g id="edge3" class="edge">
<title>Node1&#45;&gt;Node4</title>
<path fill="none" stroke="#63b8ff" d="M321.4,-131.8C332.86,-110.49 353.61,-76.67 379.57,-55 396.55,-40.83 418.78,-30.15 437.58,-22.8"/>
<polygon fill="#63b8ff" stroke="#63b8ff" points="438.61,-26.16 446.77,-19.39 436.17,-19.59 438.61,-26.16"/>
</g>
<!-- Node5 -->
<g id="node5" class="node">
<title>Node5</title>
<g id="a_node5"><a xlink:href="../../d7/d2b/idatabase_8hpp.html" target="_top" xlink:title=" ">
<polygon fill="#fff0f0" stroke="red" points="136.07,-85 17.07,-85 17.07,-66 136.07,-66 136.07,-85"/>
<text text-anchor="middle" x="76.57" y="-73" font-family="Helvetica,sans-Serif" font-size="10.00">database/idatabase.hpp</text>
</a>
</g>
</g>
<!-- Node1&#45;&gt;Node5 -->
<g id="edge4" class="edge">
<title>Node1&#45;&gt;Node5</title>
<path fill="none" stroke="#63b8ff" d="M252.27,-132.57C209.39,-118.89 152.67,-100.79 115.43,-88.9"/>
<polygon fill="#63b8ff" stroke="#63b8ff" points="116.57,-85.59 105.98,-85.89 114.44,-92.26 116.57,-85.59"/>
</g>
<!-- Node45 -->
<g id="node6" class="node">
<title>Node45</title>
<g id="a_node6"><a xlink:href="../../df/df4/sql__backend_8hpp.html" target="_top" xlink:title=" ">
<polygon fill="#fff0f0" stroke="red" points="332.57,-90.5 192.57,-90.5 192.57,-60.5 332.57,-60.5 332.57,-90.5"/>
<text text-anchor="start" x="200.57" y="-78.5" font-family="Helvetica,sans-Serif" font-size="10.00">database/backends/sql</text>
<text text-anchor="middle" x="262.57" y="-67.5" font-family="Helvetica,sans-Serif" font-size="10.00">_backends/sql_backend.hpp</text>
</a>
</g>
</g>
<!-- Node1&#45;&gt;Node45 -->
<g id="edge7" class="edge">
<title>Node1&#45;&gt;Node45</title>
<path fill="none" stroke="#63b8ff" d="M298.7,-131.79C292.4,-122.16 284.77,-110.48 278.15,-100.35"/>
<polygon fill="#63b8ff" stroke="#63b8ff" points="281.18,-98.59 272.78,-92.13 275.32,-102.41 281.18,-98.59"/>
</g>
<!-- Node70 -->
<g id="node7" class="node">
<title>Node70</title>
<g id="a_node7"><a xlink:href="../../d1/d77/generic__sql__query__constructor_8hpp.html" target="_top" xlink:title=" ">
<polygon fill="#fff0f0" stroke="red" points="506.07,-96 389.07,-96 389.07,-55 506.07,-55 506.07,-96"/>
<text text-anchor="start" x="397.07" y="-84" font-family="Helvetica,sans-Serif" font-size="10.00">database/backends/sql</text>
<text text-anchor="start" x="397.07" y="-73" font-family="Helvetica,sans-Serif" font-size="10.00">_backends/generic_sql</text>
<text text-anchor="middle" x="447.57" y="-62" font-family="Helvetica,sans-Serif" font-size="10.00">_query_constructor.hpp</text>
</a>
</g>
</g>
<!-- Node1&#45;&gt;Node70 -->
<g id="edge9" class="edge">
<title>Node1&#45;&gt;Node70</title>
<path fill="none" stroke="#63b8ff" d="M347.66,-131.6C364.1,-122.53 383.77,-111.68 401.29,-102.02"/>
<polygon fill="#63b8ff" stroke="#63b8ff" points="402.92,-105.12 409.99,-97.23 399.54,-98.99 402.92,-105.12"/>
</g>
<!-- Node71 -->
<g id="node8" class="node">
<title>Node71</title>
<g id="a_node8"><a xlink:href="../../d4/d34/ibackend__qt__interface_8hpp.html" target="_top" xlink:title=" ">
<polygon fill="#fff0f0" stroke="red" points="657.07,-90.5 524.07,-90.5 524.07,-60.5 657.07,-60.5 657.07,-90.5"/>
<text text-anchor="start" x="532.07" y="-78.5" font-family="Helvetica,sans-Serif" font-size="10.00">database/implementation</text>
<text text-anchor="middle" x="590.57" y="-67.5" font-family="Helvetica,sans-Serif" font-size="10.00">/ibackend_qt_interface.hpp</text>
</a>
</g>
</g>
<!-- Node1&#45;&gt;Node71 -->
<g id="edge10" class="edge">
<title>Node1&#45;&gt;Node71</title>
<path fill="none" stroke="#63b8ff" d="M370.74,-135.59C416.2,-123.37 478.93,-106.51 525.75,-93.93"/>
<polygon fill="#63b8ff" stroke="#63b8ff" points="526.47,-97.35 535.22,-91.38 524.66,-90.59 526.47,-97.35"/>
</g>
<!-- Node74 -->
<g id="node9" class="node">
<title>Node74</title>
<g id="a_node9"><a xlink:title=" ">
<polygon fill="#e0e0e0" stroke="#999999" points="802.07,-90.5 675.07,-90.5 675.07,-60.5 802.07,-60.5 802.07,-90.5"/>
<text text-anchor="start" x="683.07" y="-78.5" font-family="Helvetica,sans-Serif" font-size="10.00">database_sqlite_backend</text>
<text text-anchor="middle" x="738.57" y="-67.5" font-family="Helvetica,sans-Serif" font-size="10.00">_export.h</text>
</a>
</g>
</g>
<!-- Node1&#45;&gt;Node74 -->
<g id="edge12" class="edge">
<title>Node1&#45;&gt;Node74</title>
<path fill="none" stroke="#63b8ff" d="M370.98,-144.23C441.77,-135.11 563.46,-117.95 666.57,-96 669.94,-95.28 673.4,-94.5 676.87,-93.68"/>
<polygon fill="#63b8ff" stroke="#63b8ff" points="677.65,-97.09 686.53,-91.3 675.98,-90.3 677.65,-97.09"/>
</g>
<!-- Node5&#45;&gt;Node2 -->
<g id="edge5" class="edge">
<title>Node5&#45;&gt;Node2</title>
<path fill="none" stroke="#63b8ff" d="M88.81,-65.6C102.86,-55.38 126.17,-38.43 143.23,-26.02"/>
<polygon fill="#63b8ff" stroke="#63b8ff" points="145.18,-28.93 151.21,-20.21 141.07,-23.26 145.18,-28.93"/>
</g>
<!-- Node5&#45;&gt;Node3 -->
<g id="edge6" class="edge">
<title>Node5&#45;&gt;Node3</title>
<path fill="none" stroke="#63b8ff" d="M70.45,-65.6C63.88,-56.05 53.27,-40.61 44.95,-28.51"/>
<polygon fill="#63b8ff" stroke="#63b8ff" points="48.04,-26.83 39.49,-20.57 42.27,-30.79 48.04,-26.83"/>
</g>
<!-- Node45&#45;&gt;Node2 -->
<g id="edge8" class="edge">
<title>Node45&#45;&gt;Node2</title>
<path fill="none" stroke="#63b8ff" d="M240.82,-60.3C224.94,-49.93 203.47,-35.9 187.36,-25.38"/>
<polygon fill="#63b8ff" stroke="#63b8ff" points="189.67,-22.71 179.38,-20.17 185.84,-28.57 189.67,-22.71"/>
</g>
<!-- Node71&#45;&gt;Node4 -->
<g id="edge11" class="edge">
<title>Node71&#45;&gt;Node4</title>
<path fill="none" stroke="#63b8ff" d="M564.76,-60.14C545.96,-49.68 520.59,-35.56 501.72,-25.05"/>
<polygon fill="#63b8ff" stroke="#63b8ff" points="503.48,-22.03 493.04,-20.22 500.07,-28.14 503.48,-22.03"/>
</g>
</g>
</svg>
        <g id="navigator" transform="translate(0 0)" fill="#404254">
                <rect fill="#f2f5e9" fill-opacity="0.5" stroke="#606060" stroke-width=".5" x="0" y="0" width="60" height="60"/>
                <use id="zoomplus" xlink:href="#zoomPlus" x="17" y="9" onmousedown="handleZoom(evt,'in')"/>
                <use id="zoomminus" xlink:href="#zoomMin" x="42" y="9" onmousedown="handleZoom(evt,'out')"/>
                <use id="reset" xlink:href="#resetDef" x="30" y="36" onmousedown="handleReset()"/>
                <g id="arrowUp" xlink:href="#dirArrow" transform="translate(30 24)" onmousedown="handlePan(0,-1)">
                  <use xlink:href="#rim" fill="#404040">
                        <set attributeName="fill" to="#808080" begin="arrowUp.mouseover" end="arrowUp.mouseout"/>
                  </use>
                  <path fill="none" stroke="white" stroke-width="1.5" d="M0,-3.0v7 M-2.5,-0.5L0,-3.0L2.5,-0.5"/>
                </g>
                <g id="arrowRight" xlink:href="#dirArrow" transform="rotate(90) translate(36 -43)" onmousedown="handlePan(1,0)">
                  <use xlink:href="#rim" fill="#404040">
                        <set attributeName="fill" to="#808080" begin="arrowRight.mouseover" end="arrowRight.mouseout"/>
                  </use>
                  <path fill="none" stroke="white" stroke-width="1.5" d="M0,-3.0v7 M-2.5,-0.5L0,-3.0L2.5,-0.5"/>
                </g>
                <g id="arrowDown" xlink:href="#dirArrow" transform="rotate(180) translate(-30 -48)" onmousedown="handlePan(0,1)">
                  <use xlink:href="#rim" fill="#404040">
                        <set attributeName="fill" to="#808080" begin="arrowDown.mouseover" end="arrowDown.mouseout"/>
                  </use>
                  <path fill="none" stroke="white" stroke-width="1.5" d="M0,-3.0v7 M-2.5,-0.5L0,-3.0L2.5,-0.5"/>
                </g>
                <g id="arrowLeft" xlink:href="#dirArrow" transform="rotate(270) translate(-36 17)" onmousedown="handlePan(-1,0)">
                  <use xlink:href="#rim" fill="#404040">
                        <set attributeName="fill" to="#808080" begin="arrowLeft.mouseover" end="arrowLeft.mouseout"/>
                  </use>
                  <path fill="none" stroke="white" stroke-width="1.5" d="M0,-3.0v7 M-2.5,-0.5L0,-3.0L2.5,-0.5"/>
                </g>
        </g>
        <svg viewBox="0 0 15 15" width="100%" height="30px" preserveAspectRatio="xMaxYMin meet">
         <g id="arrow_out" transform="scale(0.3 0.3)">
          <a xlink:href="sqlite__backend_2backend_8hpp__incl_org.svg" target="_base">
           <rect id="button" ry="5" rx="5" y="6" x="6" height="38" width="38"
                fill="#f2f5e9" fill-opacity="0.5" stroke="#606060" stroke-width="1.0"/>
           <path id="arrow"
             d="M 11.500037,31.436501 C 11.940474,20.09759 22.043105,11.32322 32.158766,21.979434 L 37.068811,17.246167 C 37.068811,17.246167 37.088388,32 37.088388,32 L 22.160133,31.978069 C 22.160133,31.978069 26.997745,27.140456 26.997745,27.140456 C 18.528582,18.264221 13.291696,25.230495 11.500037,31.436501 z"
             style="fill:#404040;"/>
          </a>
         </g>
        </svg>
</svg>
