<?xml version="1.0" encoding="UTF-8" standalone="no"?>
<!DOCTYPE svg PUBLIC "-//W3C//DTD SVG 1.1//EN"
 "http://www.w3.org/Graphics/SVG/1.1/DTD/svg11.dtd">
<!-- Generated by graphviz version 7.0.5 (20221223.1930)
 -->
<!-- Title: AConfigTab&lt; T &gt; Pages: 1 -->
<svg width="179pt" height="93pt"
 viewBox="0.00 0.00 178.50 93.00" xmlns="http://www.w3.org/2000/svg" xmlns:xlink="http://www.w3.org/1999/xlink">
<g id="graph0" class="graph" transform="scale(1 1) rotate(0) translate(4 89)">
<title>AConfigTab&lt; T &gt;</title>
<!-- Node1 -->
<g id="node1" class="node">
<title>Node1</title>
<g id="a_node1"><a xlink:title=" ">
<polygon fill="#999999" stroke="#666666" points="120,-19 31,-19 31,0 120,0 120,-19"/>
<text text-anchor="middle" x="75.5" y="-7" font-family="Helvetica,sans-Serif" font-size="10.00">AConfigTab&lt; T &gt;</text>
</a>
</g>
</g>
<!-- Node2 -->
<g id="node2" class="node">
<title>Node2</title>
<g id="a_node2"><a xlink:href="../../da/df3/struct_i_config_tab.html" target="_top" xlink:title=" ">
<polygon fill="white" stroke="#666666" points="63,-85 0,-85 0,-66 63,-66 63,-85"/>
<text text-anchor="middle" x="31.5" y="-73" font-family="Helvetica,sans-Serif" font-size="10.00">IConfigTab</text>
</a>
</g>
</g>
<!-- Node2&#45;&gt;Node1 -->
<g id="edge1" class="edge">
<title>Node2&#45;&gt;Node1</title>
<path fill="none" stroke="#63b8ff" d="M43.95,-56.4C52.28,-44.27 62.89,-28.84 69.43,-19.32"/>
<polygon fill="#63b8ff" stroke="#63b8ff" points="41.26,-54.13 38.48,-64.35 47.02,-58.1 41.26,-54.13"/>
</g>
<!-- Node3 -->
<g id="node3" class="node">
<title>Node3</title>
<g id="a_node3"><a xlink:href="../../d7/db4/struct_i_configuration.html" target="_top" xlink:title=" ">
<polygon fill="white" stroke="#666666" points="157.5,-85 81.5,-85 81.5,-66 157.5,-66 157.5,-85"/>
<text text-anchor="middle" x="119.5" y="-73" font-family="Helvetica,sans-Serif" font-size="10.00">IConfiguration</text>
</a>
</g>
</g>
<!-- Node3&#45;&gt;Node1 -->
<g id="edge2" class="edge">
<title>Node3&#45;&gt;Node1</title>
<path fill="none" stroke="#9a32cd" stroke-dasharray="5,2" d="M107.05,-56.4C98.72,-44.27 88.11,-28.84 81.57,-19.32"/>
<polygon fill="#9a32cd" stroke="#9a32cd" points="103.98,-58.1 112.52,-64.35 109.74,-54.13 103.98,-58.1"/>
<text text-anchor="middle" x="135" y="-40" font-family="Helvetica,sans-Serif" font-size="10.00"> m_configuration</text>
</g>
</g>
</svg>
