<?xml version="1.0" encoding="UTF-8" standalone="no"?>
<!DOCTYPE svg PUBLIC "-//W3C//DTD SVG 1.1//EN"
 "http://www.w3.org/Graphics/SVG/1.1/DTD/svg11.dtd">
<!-- Generated by graphviz version 7.0.5 (20221223.1930)
 -->
<!-- Title: GeneratorUtils::BreakableTask Pages: 1 -->
<svg width="445pt" height="149pt"
 viewBox="0.00 0.00 444.50 149.00" xmlns="http://www.w3.org/2000/svg" xmlns:xlink="http://www.w3.org/1999/xlink">
<g id="graph0" class="graph" transform="scale(1 1) rotate(0) translate(4 145)">
<title>GeneratorUtils::BreakableTask</title>
<!-- Node1 -->
<g id="node1" class="node">
<title>Node1</title>
<g id="a_node1"><a xlink:title=" ">
<polygon fill="#999999" stroke="#666666" points="304,-19 155,-19 155,0 304,0 304,-19"/>
<text text-anchor="middle" x="229.5" y="-7" font-family="Helvetica,sans-Serif" font-size="10.00">GeneratorUtils::BreakableTask</text>
</a>
</g>
</g>
<!-- Node2 -->
<g id="node2" class="node">
<title>Node2</title>
<g id="a_node2"><a xlink:title=" ">
<polygon fill="white" stroke="#666666" points="53,-141 0,-141 0,-122 53,-122 53,-141"/>
<text text-anchor="middle" x="26.5" y="-129" font-family="Helvetica,sans-Serif" font-size="10.00">QObject</text>
</a>
</g>
</g>
<!-- Node2&#45;&gt;Node1 -->
<g id="edge1" class="edge">
<title>Node2&#45;&gt;Node1</title>
<path fill="none" stroke="#63b8ff" d="M23.26,-110.45C22.17,-96.43 23.26,-78.12 33.5,-66 51.42,-44.79 121.08,-28.72 172.27,-19.47"/>
<polygon fill="#63b8ff" stroke="#63b8ff" points="19.78,-110.83 24.49,-120.32 26.73,-109.96 19.78,-110.83"/>
</g>
<!-- Node4 -->
<g id="node4" class="node">
<title>Node4</title>
<g id="a_node4"><a xlink:href="../../dd/da4/class_generator_utils_1_1_process_runner.html" target="_top" xlink:title=" ">
<polygon fill="white" stroke="#666666" points="194,-85 43,-85 43,-66 194,-66 194,-85"/>
<text text-anchor="middle" x="118.5" y="-73" font-family="Helvetica,sans-Serif" font-size="10.00">GeneratorUtils::ProcessRunner</text>
</a>
</g>
</g>
<!-- Node2&#45;&gt;Node4 -->
<g id="edge4" class="edge">
<title>Node2&#45;&gt;Node4</title>
<path fill="none" stroke="#63b8ff" d="M51.3,-115.94C67.88,-106.21 89.16,-93.72 103.29,-85.43"/>
<polygon fill="#63b8ff" stroke="#63b8ff" points="49.85,-112.74 43,-120.82 53.39,-118.77 49.85,-112.74"/>
</g>
<!-- Node3 -->
<g id="node3" class="node">
<title>Node3</title>
<g id="a_node3"><a xlink:href="../../dd/d9b/struct_i_task_executor_1_1_i_task.html" target="_top" xlink:title=" ">
<polygon fill="white" stroke="#666666" points="320.5,-85 212.5,-85 212.5,-66 320.5,-66 320.5,-85"/>
<text text-anchor="middle" x="266.5" y="-73" font-family="Helvetica,sans-Serif" font-size="10.00">ITaskExecutor::ITask</text>
</a>
</g>
</g>
<!-- Node3&#45;&gt;Node1 -->
<g id="edge2" class="edge">
<title>Node3&#45;&gt;Node1</title>
<path fill="none" stroke="#63b8ff" d="M255.61,-55.66C248.67,-43.66 240,-28.65 234.6,-19.32"/>
<polygon fill="#63b8ff" stroke="#63b8ff" points="252.56,-57.39 260.6,-64.29 258.62,-53.88 252.56,-57.39"/>
</g>
<!-- Node4&#45;&gt;Node1 -->
<g id="edge3" class="edge">
<title>Node4&#45;&gt;Node1</title>
<path fill="none" stroke="#9a32cd" stroke-dasharray="5,2" d="M143.78,-59.92C165.47,-47.42 196.03,-29.8 214.2,-19.32"/>
<polygon fill="#9a32cd" stroke="#9a32cd" points="142.16,-56.82 135.25,-64.85 145.66,-62.88 142.16,-56.82"/>
<text text-anchor="middle" x="203" y="-40" font-family="Helvetica,sans-Serif" font-size="10.00"> m_runner</text>
</g>
<!-- Node5 -->
<g id="node5" class="node">
<title>Node5</title>
<g id="a_node5"><a xlink:href="../../db/d10/struct_i_exif_reader_factory.html" target="_top" xlink:title=" ">
<polygon fill="white" stroke="#666666" points="436.5,-85 338.5,-85 338.5,-66 436.5,-66 436.5,-85"/>
<text text-anchor="middle" x="387.5" y="-73" font-family="Helvetica,sans-Serif" font-size="10.00">IExifReaderFactory</text>
</a>
</g>
</g>
<!-- Node5&#45;&gt;Node1 -->
<g id="edge5" class="edge">
<title>Node5&#45;&gt;Node1</title>
<path fill="none" stroke="#9a32cd" stroke-dasharray="5,2" d="M354.87,-61.28C323.95,-48.76 278.38,-30.3 251.54,-19.43"/>
<polygon fill="#9a32cd" stroke="#9a32cd" points="353.55,-64.52 364.13,-65.03 356.17,-58.03 353.55,-64.52"/>
<text text-anchor="middle" x="333" y="-40" font-family="Helvetica,sans-Serif" font-size="10.00"> m_exif</text>
</g>
</g>
</svg>
