<?xml version="1.0" encoding="UTF-8" standalone="no"?>
<!DOCTYPE svg PUBLIC "-//W3C//DTD SVG 1.1//EN"
 "http://www.w3.org/Graphics/SVG/1.1/DTD/svg11.dtd">
<!-- Generated by graphviz version 7.0.5 (20221223.1930)
 -->
<!-- Title: src/gui/desktop/models/tags_model.cpp Pages: 1 -->
<svg width="766pt" height="148pt"
 viewBox="0.00 0.00 765.50 148.00" xmlns="http://www.w3.org/2000/svg" xmlns:xlink="http://www.w3.org/1999/xlink">
<g id="graph0" class="graph" transform="scale(1 1) rotate(0) translate(4 144)">
<title>src/gui/desktop/models/tags_model.cpp</title>
<!-- Node1 -->
<g id="node1" class="node">
<title>Node1</title>
<g id="a_node1"><a xlink:title=" ">
<polygon fill="#999999" stroke="#666666" points="361.5,-140 243.5,-140 243.5,-110 361.5,-110 361.5,-140"/>
<text text-anchor="start" x="251.5" y="-128" font-family="Helvetica,sans-Serif" font-size="10.00">src/gui/desktop/models</text>
<text text-anchor="middle" x="302.5" y="-117" font-family="Helvetica,sans-Serif" font-size="10.00">/tags_model.cpp</text>
</a>
</g>
</g>
<!-- Node2 -->
<g id="node2" class="node">
<title>Node2</title>
<g id="a_node2"><a xlink:href="../../dd/d35/tags__model_8hpp.html" target="_top" xlink:title=" ">
<polygon fill="#fff0f0" stroke="red" points="85,-74 0,-74 0,-55 85,-55 85,-74"/>
<text text-anchor="middle" x="42.5" y="-62" font-family="Helvetica,sans-Serif" font-size="10.00">tags_model.hpp</text>
</a>
</g>
</g>
<!-- Node1&#45;&gt;Node2 -->
<g id="edge1" class="edge">
<title>Node1&#45;&gt;Node2</title>
<path fill="none" stroke="#63b8ff" d="M243.18,-110.65C197.91,-100.47 136.22,-86.59 93.24,-76.92"/>
<polygon fill="#63b8ff" stroke="#63b8ff" points="94.19,-73.54 83.66,-74.76 92.65,-80.37 94.19,-73.54"/>
</g>
<!-- Node4 -->
<g id="node3" class="node">
<title>Node4</title>
<g id="a_node3"><a xlink:href="../../d7/d2b/idatabase_8hpp.html" target="_top" xlink:title=" ">
<polygon fill="#fff0f0" stroke="red" points="137,-19 18,-19 18,0 137,0 137,-19"/>
<text text-anchor="middle" x="77.5" y="-7" font-family="Helvetica,sans-Serif" font-size="10.00">database/idatabase.hpp</text>
</a>
</g>
</g>
<!-- Node1&#45;&gt;Node4 -->
<g id="edge8" class="edge">
<title>Node1&#45;&gt;Node4</title>
<path fill="none" stroke="#63b8ff" d="M243.14,-115.14C208.78,-107.99 165.88,-95.47 132.5,-74 114.34,-62.32 98.79,-42.91 88.9,-28.62"/>
<polygon fill="#63b8ff" stroke="#63b8ff" points="92.01,-26.98 83.58,-20.56 86.17,-30.84 92.01,-26.98"/>
</g>
<!-- Node53 -->
<g id="node4" class="node">
<title>Node53</title>
<g id="a_node4"><a xlink:title=" ">
<polygon fill="#e0e0e0" stroke="#999999" points="251.5,-74 141.5,-74 141.5,-55 251.5,-55 251.5,-74"/>
<text text-anchor="middle" x="196.5" y="-62" font-family="Helvetica,sans-Serif" font-size="10.00">QItemSelectionModel</text>
</a>
</g>
</g>
<!-- Node1&#45;&gt;Node53 -->
<g id="edge3" class="edge">
<title>Node1&#45;&gt;Node53</title>
<path fill="none" stroke="#63b8ff" d="M276.3,-109.54C259.9,-100.49 238.86,-88.88 222.51,-79.85"/>
<polygon fill="#63b8ff" stroke="#63b8ff" points="224.3,-76.85 213.85,-75.08 220.92,-82.97 224.3,-76.85"/>
</g>
<!-- Node54 -->
<g id="node5" class="node">
<title>Node54</title>
<g id="a_node5"><a xlink:title=" ">
<polygon fill="#e0e0e0" stroke="#999999" points="335.5,-74 269.5,-74 269.5,-55 335.5,-55 335.5,-74"/>
<text text-anchor="middle" x="302.5" y="-62" font-family="Helvetica,sans-Serif" font-size="10.00">QDateTime</text>
</a>
</g>
</g>
<!-- Node1&#45;&gt;Node54 -->
<g id="edge4" class="edge">
<title>Node1&#45;&gt;Node54</title>
<path fill="none" stroke="#63b8ff" d="M302.5,-109.54C302.5,-102.34 302.5,-93.53 302.5,-85.68"/>
<polygon fill="#63b8ff" stroke="#63b8ff" points="306,-85.69 302.5,-75.69 299,-85.69 306,-85.69"/>
</g>
<!-- Node47 -->
<g id="node6" class="node">
<title>Node47</title>
<g id="a_node6"><a xlink:href="../../d0/dd6/function__wrappers_8hpp.html" target="_top" xlink:title=" ">
<polygon fill="#fff0f0" stroke="red" points="489.5,-74 353.5,-74 353.5,-55 489.5,-55 489.5,-74"/>
<text text-anchor="middle" x="421.5" y="-62" font-family="Helvetica,sans-Serif" font-size="10.00">core/function_wrappers.hpp</text>
</a>
</g>
</g>
<!-- Node1&#45;&gt;Node47 -->
<g id="edge5" class="edge">
<title>Node1&#45;&gt;Node47</title>
<path fill="none" stroke="#63b8ff" d="M331.92,-109.54C350.67,-100.32 374.84,-88.44 393.35,-79.34"/>
<polygon fill="#63b8ff" stroke="#63b8ff" points="394.72,-82.57 402.15,-75.01 391.63,-76.28 394.72,-82.57"/>
</g>
<!-- Node55 -->
<g id="node7" class="node">
<title>Node55</title>
<g id="a_node7"><a xlink:href="../../d9/d1e/base__tags_8hpp.html" target="_top" xlink:title=" ">
<polygon fill="#fff0f0" stroke="red" points="609,-74 508,-74 508,-55 609,-55 609,-74"/>
<text text-anchor="middle" x="558.5" y="-62" font-family="Helvetica,sans-Serif" font-size="10.00">core/base_tags.hpp</text>
</a>
</g>
</g>
<!-- Node1&#45;&gt;Node55 -->
<g id="edge6" class="edge">
<title>Node1&#45;&gt;Node55</title>
<path fill="none" stroke="#63b8ff" d="M361.88,-110.43C406.25,-100.29 466.26,-86.58 508.27,-76.98"/>
<polygon fill="#63b8ff" stroke="#63b8ff" points="508.9,-80.43 517.86,-74.79 507.34,-73.6 508.9,-80.43"/>
</g>
<!-- Node57 -->
<g id="node8" class="node">
<title>Node57</title>
<g id="a_node8"><a xlink:href="../../dc/dfa/signal__postponer_8hpp.html" target="_top" xlink:title=" ">
<polygon fill="#fff0f0" stroke="red" points="757.5,-74 627.5,-74 627.5,-55 757.5,-55 757.5,-74"/>
<text text-anchor="middle" x="692.5" y="-62" font-family="Helvetica,sans-Serif" font-size="10.00">core/signal_postponer.hpp</text>
</a>
</g>
</g>
<!-- Node1&#45;&gt;Node57 -->
<g id="edge7" class="edge">
<title>Node1&#45;&gt;Node57</title>
<path fill="none" stroke="#63b8ff" d="M361.73,-115.12C431.46,-104.66 547.15,-87.3 621.58,-76.14"/>
<polygon fill="#63b8ff" stroke="#63b8ff" points="621.84,-79.64 631.21,-74.69 620.8,-72.72 621.84,-79.64"/>
</g>
<!-- Node2&#45;&gt;Node4 -->
<g id="edge2" class="edge">
<title>Node2&#45;&gt;Node4</title>
<path fill="none" stroke="#63b8ff" d="M48.28,-54.75C52.91,-47.73 59.57,-37.64 65.37,-28.87"/>
<polygon fill="#63b8ff" stroke="#63b8ff" points="68.17,-30.98 70.76,-20.71 62.33,-27.12 68.17,-30.98"/>
</g>
</g>
</svg>
