<?xml version="1.0" encoding="UTF-8" standalone="no"?>
<!DOCTYPE svg PUBLIC "-//W3C//DTD SVG 1.1//EN"
 "http://www.w3.org/Graphics/SVG/1.1/DTD/svg11.dtd">
<!-- Generated by graphviz version 7.0.5 (20221223.1930)
 -->
<!-- Title: src/gui/desktop/models/faces_model.cpp Pages: 1 -->
<!--zoomable 170 -->
<svg id="main" version="1.1" xmlns="http://www.w3.org/2000/svg" xmlns:xlink="http://www.w3.org/1999/xlink" xml:space="preserve" onload="init(evt)">
<style type="text/css"><![CDATA[
.edge:hover path { stroke: red; }
.edge:hover polygon { stroke: red; fill: red; }
]]></style>
<script type="text/javascript"><![CDATA[
var edges = document.getElementsByTagName('g');
if (edges && edges.length) {
  for (var i=0;i<edges.length;i++) {
    if (edges[i].id.substr(0,4)=='edge') {
      edges[i].setAttribute('class','edge');
    }
  }
}
]]></script>
        <defs>
                <circle id="rim" cx="0" cy="0" r="7"/>
                <circle id="rim2" cx="0" cy="0" r="3.5"/>
                <g id="zoomPlus">
                        <use xlink:href="#rim" fill="#404040">
                                <set attributeName="fill" to="#808080" begin="zoomplus.mouseover" end="zoomplus.mouseout"/>
                        </use>
                        <path d="M-4,0h8M0,-4v8" fill="none" stroke="white" stroke-width="1.5" pointer-events="none"/>
                </g>
                <g id="zoomMin">
                        <use xlink:href="#rim" fill="#404040">
                                <set attributeName="fill" to="#808080" begin="zoomminus.mouseover" end="zoomminus.mouseout"/>
                        </use>
                        <path d="M-4,0h8" fill="none" stroke="white" stroke-width="1.5" pointer-events="none"/>
                </g>
                <g id="dirArrow">
                        <path fill="none" stroke="white" stroke-width="1.5" d="M0,-3.0v7 M-2.5,-0.5L0,-3.0L2.5,-0.5"/>
                </g>
               <g id="resetDef">
                       <use xlink:href="#rim2" fill="#404040">
                               <set attributeName="fill" to="#808080" begin="reset.mouseover" end="reset.mouseout"/>
                       </use>
               </g>
        </defs>

<script type="text/javascript">
var viewWidth = 1538;
var viewHeight = 170;
var sectionId = 'dynsection-0';
</script>
<script xlink:href="../../svgpan.js"/>
<svg id="graph" class="graph">
<g id="viewport">
<title>src/gui/desktop/models/faces_model.cpp</title>
<!-- Node1 -->
<g id="node1" class="node">
<title>Node1</title>
<g id="a_node1"><a xlink:title=" ">
<polygon fill="#999999" stroke="#666666" points="761.5,-162 643.5,-162 643.5,-132 761.5,-132 761.5,-162"/>
<text text-anchor="start" x="651.5" y="-150" font-family="Helvetica,sans-Serif" font-size="10.00">src/gui/desktop/models</text>
<text text-anchor="middle" x="702.5" y="-139" font-family="Helvetica,sans-Serif" font-size="10.00">/faces_model.cpp</text>
</a>
</g>
</g>
<!-- Node2 -->
<g id="node2" class="node">
<title>Node2</title>
<g id="a_node2"><a xlink:title=" ">
<polygon fill="#e0e0e0" stroke="#999999" points="49,-90.5 0,-90.5 0,-71.5 49,-71.5 49,-90.5"/>
<text text-anchor="middle" x="24.5" y="-78.5" font-family="Helvetica,sans-Serif" font-size="10.00">cassert</text>
</a>
</g>
</g>
<!-- Node1&#45;&gt;Node2 -->
<g id="edge1" class="edge">
<title>Node1&#45;&gt;Node2</title>
<path fill="none" stroke="#63b8ff" d="M643.16,-146.59C529.38,-146.58 273.21,-141 63.5,-96 61.34,-95.54 59.13,-94.98 56.92,-94.36"/>
<polygon fill="#63b8ff" stroke="#63b8ff" points="58.1,-91.07 47.51,-91.36 55.97,-97.73 58.1,-91.07"/>
</g>
<!-- Node3 -->
<g id="node3" class="node">
<title>Node3</title>
<g id="a_node3"><a xlink:href="../../d6/d1f/icore__factory__accessor_8hpp.html" target="_top" xlink:title=" ">
<polygon fill="white" stroke="#666666" points="827.5,-30 733.5,-30 733.5,0 827.5,0 827.5,-30"/>
<text text-anchor="start" x="741.5" y="-18" font-family="Helvetica,sans-Serif" font-size="10.00">core/icore_factory</text>
<text text-anchor="middle" x="780.5" y="-7" font-family="Helvetica,sans-Serif" font-size="10.00">_accessor.hpp</text>
</a>
</g>
</g>
<!-- Node1&#45;&gt;Node3 -->
<g id="edge2" class="edge">
<title>Node1&#45;&gt;Node3</title>
<path fill="none" stroke="#63b8ff" d="M643.23,-145.56C497.91,-143.88 133.06,-135.7 96.5,-96 87.47,-86.19 87.42,-75.77 96.5,-66 138.64,-20.67 563.53,-15.99 721.64,-15.83"/>
<polygon fill="#63b8ff" stroke="#63b8ff" points="721.49,-19.33 731.49,-15.83 721.49,-12.33 721.49,-19.33"/>
</g>
<!-- Node4 -->
<g id="node4" class="node">
<title>Node4</title>
<g id="a_node4"><a xlink:href="../../df/d6f/iexif__reader_8hpp.html" target="_top" xlink:title=" ">
<polygon fill="#fff0f0" stroke="red" points="211.5,-90.5 105.5,-90.5 105.5,-71.5 211.5,-71.5 211.5,-90.5"/>
<text text-anchor="middle" x="158.5" y="-78.5" font-family="Helvetica,sans-Serif" font-size="10.00">core/iexif_reader.hpp</text>
</a>
</g>
</g>
<!-- Node1&#45;&gt;Node4 -->
<g id="edge3" class="edge">
<title>Node1&#45;&gt;Node4</title>
<path fill="none" stroke="#63b8ff" d="M643.21,-142.13C551.96,-135.65 371.8,-120.84 220.5,-96 215.78,-95.23 210.89,-94.31 206.01,-93.33"/>
<polygon fill="#63b8ff" stroke="#63b8ff" points="206.74,-89.91 196.23,-91.26 205.29,-96.75 206.74,-89.91"/>
</g>
<!-- Node16 -->
<g id="node5" class="node">
<title>Node16</title>
<g id="a_node5"><a xlink:href="../../d9/dfc/image__tools_8hpp.html" target="_top" xlink:title=" ">
<polygon fill="#fff0f0" stroke="red" points="339,-90.5 230,-90.5 230,-71.5 339,-71.5 339,-90.5"/>
<text text-anchor="middle" x="284.5" y="-78.5" font-family="Helvetica,sans-Serif" font-size="10.00">core/image_tools.hpp</text>
</a>
</g>
</g>
<!-- Node1&#45;&gt;Node16 -->
<g id="edge4" class="edge">
<title>Node1&#45;&gt;Node16</title>
<path fill="none" stroke="#63b8ff" d="M643.23,-139.1C572.56,-130.54 451,-114.76 347.5,-96 343.1,-95.2 338.54,-94.31 333.97,-93.38"/>
<polygon fill="#63b8ff" stroke="#63b8ff" points="334.7,-89.96 324.2,-91.31 333.26,-96.81 334.7,-89.96"/>
</g>
<!-- Node19 -->
<g id="node6" class="node">
<title>Node19</title>
<g id="a_node6"><a xlink:href="../../d5/df1/logger__factory_8hpp.html" target="_top" xlink:title=" ">
<polygon fill="#fff0f0" stroke="red" points="474,-90.5 357,-90.5 357,-71.5 474,-71.5 474,-90.5"/>
<text text-anchor="middle" x="415.5" y="-78.5" font-family="Helvetica,sans-Serif" font-size="10.00">core/logger_factory.hpp</text>
</a>
</g>
</g>
<!-- Node1&#45;&gt;Node19 -->
<g id="edge5" class="edge">
<title>Node1&#45;&gt;Node19</title>
<path fill="none" stroke="#63b8ff" d="M643.03,-132.74C590.94,-121.12 516.03,-104.42 466.59,-93.39"/>
<polygon fill="#63b8ff" stroke="#63b8ff" points="467.52,-90.02 457,-91.25 466,-96.85 467.52,-90.02"/>
</g>
<!-- Node26 -->
<g id="node7" class="node">
<title>Node26</title>
<g id="a_node7"><a xlink:href="../../d5/d1f/model__compositor_8hpp.html" target="_top" xlink:title=" ">
<polygon fill="#fff0f0" stroke="red" points="628.5,-90.5 492.5,-90.5 492.5,-71.5 628.5,-71.5 628.5,-90.5"/>
<text text-anchor="middle" x="560.5" y="-78.5" font-family="Helvetica,sans-Serif" font-size="10.00">core/model_compositor.hpp</text>
</a>
</g>
</g>
<!-- Node1&#45;&gt;Node26 -->
<g id="edge6" class="edge">
<title>Node1&#45;&gt;Node26</title>
<path fill="none" stroke="#63b8ff" d="M670.63,-131.64C646.77,-120.88 614.34,-106.27 590.85,-95.68"/>
<polygon fill="#63b8ff" stroke="#63b8ff" points="592.37,-92.53 581.82,-91.61 589.5,-98.91 592.37,-92.53"/>
</g>
<!-- Node30 -->
<g id="node8" class="node">
<title>Node30</title>
<g id="a_node8"><a xlink:href="../../d8/dda/qmodel__utils_8hpp.html" target="_top" xlink:title=" ">
<polygon fill="#fff0f0" stroke="red" points="758,-90.5 647,-90.5 647,-71.5 758,-71.5 758,-90.5"/>
<text text-anchor="middle" x="702.5" y="-78.5" font-family="Helvetica,sans-Serif" font-size="10.00">core/qmodel_utils.hpp</text>
</a>
</g>
</g>
<!-- Node1&#45;&gt;Node30 -->
<g id="edge7" class="edge">
<title>Node1&#45;&gt;Node30</title>
<path fill="none" stroke="#63b8ff" d="M702.5,-131.8C702.5,-123.09 702.5,-111.81 702.5,-102.18"/>
<polygon fill="#63b8ff" stroke="#63b8ff" points="706,-102.36 702.5,-92.36 699,-102.36 706,-102.36"/>
</g>
<!-- Node35 -->
<g id="node9" class="node">
<title>Node35</title>
<g id="a_node9"><a xlink:href="../../d4/d20/task__executor__utils_8hpp.html" target="_top" xlink:title=" ">
<polygon fill="#fff0f0" stroke="red" points="875,-96 776,-96 776,-66 875,-66 875,-96"/>
<text text-anchor="start" x="784" y="-84" font-family="Helvetica,sans-Serif" font-size="10.00">core/task_executor</text>
<text text-anchor="middle" x="825.5" y="-73" font-family="Helvetica,sans-Serif" font-size="10.00">_utils.hpp</text>
</a>
</g>
</g>
<!-- Node1&#45;&gt;Node35 -->
<g id="edge8" class="edge">
<title>Node1&#45;&gt;Node35</title>
<path fill="none" stroke="#63b8ff" d="M730.1,-131.64C747.2,-122.74 769.37,-111.21 788.03,-101.49"/>
<polygon fill="#63b8ff" stroke="#63b8ff" points="789.39,-104.73 796.65,-97.01 786.16,-98.52 789.39,-104.73"/>
</g>
<!-- Node45 -->
<g id="node10" class="node">
<title>Node45</title>
<g id="a_node10"><a xlink:href="../../db/d39/photo__data_8hpp.html" target="_top" xlink:title=" ">
<polygon fill="#fff0f0" stroke="red" points="1018,-90.5 893,-90.5 893,-71.5 1018,-71.5 1018,-90.5"/>
<text text-anchor="middle" x="955.5" y="-78.5" font-family="Helvetica,sans-Serif" font-size="10.00">database/photo_data.hpp</text>
</a>
</g>
</g>
<!-- Node1&#45;&gt;Node45 -->
<g id="edge9" class="edge">
<title>Node1&#45;&gt;Node45</title>
<path fill="none" stroke="#63b8ff" d="M759.59,-131.56C804.72,-120.14 866.91,-104.41 909.02,-93.76"/>
<polygon fill="#63b8ff" stroke="#63b8ff" points="909.76,-97.18 918.6,-91.33 908.05,-90.39 909.76,-97.18"/>
</g>
<!-- Node58 -->
<g id="node11" class="node">
<title>Node58</title>
<g id="a_node11"><a xlink:href="../../d1/d8e/project_8hpp.html" target="_top" xlink:title=" ">
<polygon fill="#fff0f0" stroke="red" points="1155,-90.5 1036,-90.5 1036,-71.5 1155,-71.5 1155,-90.5"/>
<text text-anchor="middle" x="1095.5" y="-78.5" font-family="Helvetica,sans-Serif" font-size="10.00">project_utils/project.hpp</text>
</a>
</g>
</g>
<!-- Node1&#45;&gt;Node58 -->
<g id="edge10" class="edge">
<title>Node1&#45;&gt;Node58</title>
<path fill="none" stroke="#63b8ff" d="M761.95,-137.77C827.23,-128.52 935.07,-112.61 1027.5,-96 1032.37,-95.12 1037.43,-94.17 1042.48,-93.18"/>
<polygon fill="#63b8ff" stroke="#63b8ff" points="1042.88,-96.67 1052,-91.29 1041.51,-89.81 1042.88,-96.67"/>
</g>
<!-- Node74 -->
<g id="node12" class="node">
<title>Node74</title>
<g id="a_node12"><a xlink:href="../../d9/da8/people__list__model_8hpp.html" target="_top" xlink:title=" ">
<polygon fill="#fff0f0" stroke="red" points="1307.5,-90.5 1173.5,-90.5 1173.5,-71.5 1307.5,-71.5 1307.5,-90.5"/>
<text text-anchor="middle" x="1240.5" y="-78.5" font-family="Helvetica,sans-Serif" font-size="10.00">utils/people_list_model.hpp</text>
</a>
</g>
</g>
<!-- Node1&#45;&gt;Node74 -->
<g id="edge11" class="edge">
<title>Node1&#45;&gt;Node74</title>
<path fill="none" stroke="#63b8ff" d="M761.75,-141.01C849.83,-133.27 1020.41,-117.04 1164.5,-96 1170.79,-95.08 1177.36,-94.02 1183.89,-92.91"/>
<polygon fill="#63b8ff" stroke="#63b8ff" points="1184.04,-96.43 1193.29,-91.25 1182.83,-89.54 1184.04,-96.43"/>
</g>
<!-- Node75 -->
<g id="node13" class="node">
<title>Node75</title>
<g id="a_node13"><a xlink:href="../../d0/d41/qml__utils_8hpp.html" target="_top" xlink:title=" ">
<polygon fill="#fff0f0" stroke="red" points="1421,-90.5 1326,-90.5 1326,-71.5 1421,-71.5 1421,-90.5"/>
<text text-anchor="middle" x="1373.5" y="-78.5" font-family="Helvetica,sans-Serif" font-size="10.00">utils/qml_utils.hpp</text>
</a>
</g>
</g>
<!-- Node1&#45;&gt;Node75 -->
<g id="edge12" class="edge">
<title>Node1&#45;&gt;Node75</title>
<path fill="none" stroke="#63b8ff" d="M761.72,-144.32C871.69,-140.5 1114.6,-128.8 1316.5,-96 1320.85,-95.29 1325.35,-94.43 1329.83,-93.48"/>
<polygon fill="#63b8ff" stroke="#63b8ff" points="1330.38,-96.94 1339.35,-91.31 1328.83,-90.11 1330.38,-96.94"/>
</g>
<!-- Node78 -->
<g id="node14" class="node">
<title>Node78</title>
<g id="a_node14"><a xlink:href="../../da/db1/faces__model_8hpp.html" target="_top" xlink:title=" ">
<polygon fill="#fff0f0" stroke="red" points="1529.5,-90.5 1439.5,-90.5 1439.5,-71.5 1529.5,-71.5 1529.5,-90.5"/>
<text text-anchor="middle" x="1484.5" y="-78.5" font-family="Helvetica,sans-Serif" font-size="10.00">faces_model.hpp</text>
</a>
</g>
</g>
<!-- Node1&#45;&gt;Node78 -->
<g id="edge13" class="edge">
<title>Node1&#45;&gt;Node78</title>
<path fill="none" stroke="#63b8ff" d="M761.9,-145.63C886.6,-144.04 1184.47,-135.99 1430.5,-96 1434.56,-95.34 1438.76,-94.51 1442.95,-93.59"/>
<polygon fill="#63b8ff" stroke="#63b8ff" points="1443.48,-97.06 1452.4,-91.34 1441.86,-90.25 1443.48,-97.06"/>
</g>
<!-- Node78&#45;&gt;Node3 -->
<g id="edge14" class="edge">
<title>Node78&#45;&gt;Node3</title>
<path fill="none" stroke="#63b8ff" d="M1453.86,-71.05C1446.28,-69.12 1438.14,-67.27 1430.5,-66 1214.37,-29.96 953.39,-19.84 839,-17.04"/>
<polygon fill="#63b8ff" stroke="#63b8ff" points="839.34,-13.55 829.26,-16.81 839.17,-20.55 839.34,-13.55"/>
</g>
</g>
</svg>
        <g id="navigator" transform="translate(0 0)" fill="#404254">
                <rect fill="#f2f5e9" fill-opacity="0.5" stroke="#606060" stroke-width=".5" x="0" y="0" width="60" height="60"/>
                <use id="zoomplus" xlink:href="#zoomPlus" x="17" y="9" onmousedown="handleZoom(evt,'in')"/>
                <use id="zoomminus" xlink:href="#zoomMin" x="42" y="9" onmousedown="handleZoom(evt,'out')"/>
                <use id="reset" xlink:href="#resetDef" x="30" y="36" onmousedown="handleReset()"/>
                <g id="arrowUp" xlink:href="#dirArrow" transform="translate(30 24)" onmousedown="handlePan(0,-1)">
                  <use xlink:href="#rim" fill="#404040">
                        <set attributeName="fill" to="#808080" begin="arrowUp.mouseover" end="arrowUp.mouseout"/>
                  </use>
                  <path fill="none" stroke="white" stroke-width="1.5" d="M0,-3.0v7 M-2.5,-0.5L0,-3.0L2.5,-0.5"/>
                </g>
                <g id="arrowRight" xlink:href="#dirArrow" transform="rotate(90) translate(36 -43)" onmousedown="handlePan(1,0)">
                  <use xlink:href="#rim" fill="#404040">
                        <set attributeName="fill" to="#808080" begin="arrowRight.mouseover" end="arrowRight.mouseout"/>
                  </use>
                  <path fill="none" stroke="white" stroke-width="1.5" d="M0,-3.0v7 M-2.5,-0.5L0,-3.0L2.5,-0.5"/>
                </g>
                <g id="arrowDown" xlink:href="#dirArrow" transform="rotate(180) translate(-30 -48)" onmousedown="handlePan(0,1)">
                  <use xlink:href="#rim" fill="#404040">
                        <set attributeName="fill" to="#808080" begin="arrowDown.mouseover" end="arrowDown.mouseout"/>
                  </use>
                  <path fill="none" stroke="white" stroke-width="1.5" d="M0,-3.0v7 M-2.5,-0.5L0,-3.0L2.5,-0.5"/>
                </g>
                <g id="arrowLeft" xlink:href="#dirArrow" transform="rotate(270) translate(-36 17)" onmousedown="handlePan(-1,0)">
                  <use xlink:href="#rim" fill="#404040">
                        <set attributeName="fill" to="#808080" begin="arrowLeft.mouseover" end="arrowLeft.mouseout"/>
                  </use>
                  <path fill="none" stroke="white" stroke-width="1.5" d="M0,-3.0v7 M-2.5,-0.5L0,-3.0L2.5,-0.5"/>
                </g>
        </g>
        <svg viewBox="0 0 15 15" width="100%" height="30px" preserveAspectRatio="xMaxYMin meet">
         <g id="arrow_out" transform="scale(0.3 0.3)">
          <a xlink:href="faces__model_8cpp__incl_org.svg" target="_base">
           <rect id="button" ry="5" rx="5" y="6" x="6" height="38" width="38"
                fill="#f2f5e9" fill-opacity="0.5" stroke="#606060" stroke-width="1.0"/>
           <path id="arrow"
             d="M 11.500037,31.436501 C 11.940474,20.09759 22.043105,11.32322 32.158766,21.979434 L 37.068811,17.246167 C 37.068811,17.246167 37.088388,32 37.088388,32 L 22.160133,31.978069 C 22.160133,31.978069 26.997745,27.140456 26.997745,27.140456 C 18.528582,18.264221 13.291696,25.230495 11.500037,31.436501 z"
             style="fill:#404040;"/>
          </a>
         </g>
        </svg>
</svg>
