<?xml version="1.0" encoding="UTF-8" standalone="no"?>
<!DOCTYPE svg PUBLIC "-//W3C//DTD SVG 1.1//EN"
 "http://www.w3.org/Graphics/SVG/1.1/DTD/svg11.dtd">
<!-- Generated by graphviz version 7.0.5 (20221223.1930)
 -->
<!-- Title: src/database/database_tools/id_to_data_converter.hpp Pages: 1 -->
<svg width="453pt" height="148pt"
 viewBox="0.00 0.00 453.28 148.00" xmlns="http://www.w3.org/2000/svg" xmlns:xlink="http://www.w3.org/1999/xlink">
<g id="graph0" class="graph" transform="scale(1 1) rotate(0) translate(4 144)">
<title>src/database/database_tools/id_to_data_converter.hpp</title>
<!-- Node1 -->
<g id="node1" class="node">
<title>Node1</title>
<g id="a_node1"><a xlink:title=" ">
<polygon fill="#999999" stroke="#666666" points="306.09,-140 151.09,-140 151.09,-110 306.09,-110 306.09,-140"/>
<text text-anchor="start" x="159.09" y="-128" font-family="Helvetica,sans-Serif" font-size="10.00">src/database/database</text>
<text text-anchor="middle" x="228.59" y="-117" font-family="Helvetica,sans-Serif" font-size="10.00">_tools/id_to_data_converter.hpp</text>
</a>
</g>
</g>
<!-- Node2 -->
<g id="node2" class="node">
<title>Node2</title>
<g id="a_node2"><a xlink:title=" ">
<polygon fill="#e0e0e0" stroke="#999999" points="134.09,-19 81.09,-19 81.09,0 134.09,0 134.09,-19"/>
<text text-anchor="middle" x="107.59" y="-7" font-family="Helvetica,sans-Serif" font-size="10.00">QObject</text>
</a>
</g>
</g>
<!-- Node1&#45;&gt;Node2 -->
<g id="edge1" class="edge">
<title>Node1&#45;&gt;Node2</title>
<path fill="none" stroke="#63b8ff" d="M150.78,-116.8C93.92,-109.74 23.73,-96.65 5.59,-74 -15.85,-47.22 32.37,-28.64 69.59,-18.77"/>
<polygon fill="#63b8ff" stroke="#63b8ff" points="70.38,-22.19 79.23,-16.36 68.68,-15.39 70.38,-22.19"/>
</g>
<!-- Node3 -->
<g id="node3" class="node">
<title>Node3</title>
<g id="a_node3"><a xlink:href="../../d0/dd6/function__wrappers_8hpp.html" target="_top" xlink:title=" ">
<polygon fill="#fff0f0" stroke="red" points="150.59,-74 14.59,-74 14.59,-55 150.59,-55 150.59,-74"/>
<text text-anchor="middle" x="82.59" y="-62" font-family="Helvetica,sans-Serif" font-size="10.00">core/function_wrappers.hpp</text>
</a>
</g>
</g>
<!-- Node1&#45;&gt;Node3 -->
<g id="edge2" class="edge">
<title>Node1&#45;&gt;Node3</title>
<path fill="none" stroke="#63b8ff" d="M192.5,-109.54C168.85,-100.06 138.17,-87.77 115.24,-78.58"/>
<polygon fill="#63b8ff" stroke="#63b8ff" points="116.66,-75.38 106.08,-74.91 114.06,-81.88 116.66,-75.38"/>
</g>
<!-- Node10 -->
<g id="node4" class="node">
<title>Node10</title>
<g id="a_node4"><a xlink:href="../../db/d39/photo__data_8hpp.html" target="_top" xlink:title=" ">
<polygon fill="#fff0f0" stroke="red" points="431.09,-74 306.09,-74 306.09,-55 431.09,-55 431.09,-74"/>
<text text-anchor="middle" x="368.59" y="-62" font-family="Helvetica,sans-Serif" font-size="10.00">database/photo_data.hpp</text>
</a>
</g>
</g>
<!-- Node1&#45;&gt;Node10 -->
<g id="edge3" class="edge">
<title>Node1&#45;&gt;Node10</title>
<path fill="none" stroke="#63b8ff" d="M263.2,-109.54C285.78,-100.1 315.03,-87.88 336.99,-78.71"/>
<polygon fill="#63b8ff" stroke="#63b8ff" points="338.15,-82.01 346.03,-74.93 335.45,-75.56 338.15,-82.01"/>
</g>
<!-- Node23 -->
<g id="node5" class="node">
<title>Node23</title>
<g id="a_node5"><a xlink:title=" ">
<polygon fill="#e0e0e0" stroke="#999999" points="416.09,-19 321.09,-19 321.09,0 416.09,0 416.09,-19"/>
<text text-anchor="middle" x="368.59" y="-7" font-family="Helvetica,sans-Serif" font-size="10.00">database_export.h</text>
</a>
</g>
</g>
<!-- Node1&#45;&gt;Node23 -->
<g id="edge8" class="edge">
<title>Node1&#45;&gt;Node23</title>
<path fill="none" stroke="#63b8ff" d="M306.52,-115.73C359.85,-108.27 423.84,-95.16 440.59,-74 456.14,-54.36 428.62,-35.89 403.24,-23.99"/>
<polygon fill="#63b8ff" stroke="#63b8ff" points="404.93,-20.92 394.37,-20.07 402.1,-27.32 404.93,-20.92"/>
</g>
<!-- Node32 -->
<g id="node6" class="node">
<title>Node32</title>
<g id="a_node6"><a xlink:href="../../d7/d2b/idatabase_8hpp.html" target="_top" xlink:title=" ">
<polygon fill="#fff0f0" stroke="red" points="288.09,-74 169.09,-74 169.09,-55 288.09,-55 288.09,-74"/>
<text text-anchor="middle" x="228.59" y="-62" font-family="Helvetica,sans-Serif" font-size="10.00">database/idatabase.hpp</text>
</a>
</g>
</g>
<!-- Node1&#45;&gt;Node32 -->
<g id="edge5" class="edge">
<title>Node1&#45;&gt;Node32</title>
<path fill="none" stroke="#63b8ff" d="M228.59,-109.54C228.59,-102.34 228.59,-93.53 228.59,-85.68"/>
<polygon fill="#63b8ff" stroke="#63b8ff" points="232.09,-85.69 228.59,-75.69 225.09,-85.69 232.09,-85.69"/>
</g>
<!-- Node10&#45;&gt;Node23 -->
<g id="edge4" class="edge">
<title>Node10&#45;&gt;Node23</title>
<path fill="none" stroke="#63b8ff" d="M368.59,-54.75C368.59,-48.27 368.59,-39.16 368.59,-30.9"/>
<polygon fill="#63b8ff" stroke="#63b8ff" points="372.09,-30.96 368.59,-20.96 365.09,-30.96 372.09,-30.96"/>
</g>
<!-- Node32&#45;&gt;Node2 -->
<g id="edge6" class="edge">
<title>Node32&#45;&gt;Node2</title>
<path fill="none" stroke="#63b8ff" d="M208.07,-54.51C188.92,-46.12 160.1,-33.5 138.23,-23.92"/>
<polygon fill="#63b8ff" stroke="#63b8ff" points="139.77,-20.77 129.2,-19.97 136.96,-27.18 139.77,-20.77"/>
</g>
<!-- Node32&#45;&gt;Node23 -->
<g id="edge7" class="edge">
<title>Node32&#45;&gt;Node23</title>
<path fill="none" stroke="#63b8ff" d="M252.34,-54.51C274.91,-45.97 309.07,-33.03 334.53,-23.4"/>
<polygon fill="#63b8ff" stroke="#63b8ff" points="335.67,-26.71 343.78,-19.89 333.19,-20.16 335.67,-26.71"/>
</g>
</g>
</svg>
