<?xml version="1.0" encoding="UTF-8" standalone="no"?>
<!DOCTYPE svg PUBLIC "-//W3C//DTD SVG 1.1//EN"
 "http://www.w3.org/Graphics/SVG/1.1/DTD/svg11.dtd">
<!-- Generated by graphviz version 7.0.5 (20221223.1930)
 -->
<!-- Title: ICoreFactoryAccessor::getConfiguration Pages: 1 -->
<svg width="272pt" height="76pt"
 viewBox="0.00 0.00 272.00 75.50" xmlns="http://www.w3.org/2000/svg" xmlns:xlink="http://www.w3.org/1999/xlink">
<g id="graph0" class="graph" transform="scale(1 1) rotate(0) translate(4 71.5)">
<title>ICoreFactoryAccessor::getConfiguration</title>
<!-- Node1 -->
<g id="node1" class="node">
<title>Node1</title>
<g id="a_node1"><a xlink:title=" ">
<polygon fill="#999999" stroke="#666666" points="264,-45.5 151,-45.5 151,-15.5 264,-15.5 264,-45.5"/>
<text text-anchor="start" x="159" y="-33.5" font-family="Helvetica,sans-Serif" font-size="10.00">ICoreFactoryAccessor</text>
<text text-anchor="middle" x="207.5" y="-22.5" font-family="Helvetica,sans-Serif" font-size="10.00">::getConfiguration</text>
</a>
</g>
</g>
<!-- Node2 -->
<g id="node2" class="node">
<title>Node2</title>
<g id="a_node2"><a xlink:href="../../de/db3/class_context_menu_manager.html#a6e73f66bfc406adf3a1676fb0237fde3" target="_top" xlink:title=" ">
<polygon fill="#fff0f0" stroke="red" points="115,-67.5 0,-67.5 0,-37.5 115,-37.5 115,-67.5"/>
<text text-anchor="start" x="8" y="-55.5" font-family="Helvetica,sans-Serif" font-size="10.00">ContextMenuManager</text>
<text text-anchor="middle" x="57.5" y="-44.5" font-family="Helvetica,sans-Serif" font-size="10.00">::manageGroupsAction</text>
</a>
</g>
</g>
<!-- Node1&#45;&gt;Node2 -->
<g id="edge1" class="edge">
<title>Node1&#45;&gt;Node2</title>
<path fill="none" stroke="#63b8ff" d="M139.22,-40.5C131.13,-41.7 122.94,-42.92 115.02,-44.1"/>
<polygon fill="#63b8ff" stroke="#63b8ff" points="139.67,-43.97 149.05,-39.04 138.64,-37.05 139.67,-43.97"/>
</g>
<!-- Node5 -->
<g id="node3" class="node">
<title>Node5</title>
<g id="a_node3"><a xlink:href="../../d6/dd6/struct_gui.html#a225eb7edaace31eb6cc4ec3173b2a703" target="_top" xlink:title=" ">
<polygon fill="#fff0f0" stroke="red" points="82.5,-19 32.5,-19 32.5,0 82.5,0 82.5,-19"/>
<text text-anchor="middle" x="57.5" y="-7" font-family="Helvetica,sans-Serif" font-size="10.00">Gui::run</text>
</a>
</g>
</g>
<!-- Node1&#45;&gt;Node5 -->
<g id="edge2" class="edge">
<title>Node1&#45;&gt;Node5</title>
<path fill="none" stroke="#63b8ff" d="M139.42,-20.98C119.2,-18.11 98.29,-15.15 82.79,-12.95"/>
<polygon fill="#63b8ff" stroke="#63b8ff" points="138.66,-24.41 149.05,-22.35 139.64,-17.48 138.66,-24.41"/>
</g>
</g>
</svg>
