<?xml version="1.0" encoding="UTF-8" standalone="no"?>
<!DOCTYPE svg PUBLIC "-//W3C//DTD SVG 1.1//EN"
 "http://www.w3.org/Graphics/SVG/1.1/DTD/svg11.dtd">
<!-- Generated by graphviz version 7.0.5 (20221223.1930)
 -->
<!-- Title: ICoreFactoryAccessor::getExifReaderFactory Pages: 1 -->
<svg width="272pt" height="86pt"
 viewBox="0.00 0.00 272.00 86.00" xmlns="http://www.w3.org/2000/svg" xmlns:xlink="http://www.w3.org/1999/xlink">
<g id="graph0" class="graph" transform="scale(1 1) rotate(0) translate(4 82)">
<title>ICoreFactoryAccessor::getExifReaderFactory</title>
<!-- Node1 -->
<g id="node1" class="node">
<title>Node1</title>
<g id="a_node1"><a xlink:title=" ">
<polygon fill="#999999" stroke="#666666" points="264,-54 151,-54 151,-24 264,-24 264,-54"/>
<text text-anchor="start" x="159" y="-42" font-family="Helvetica,sans-Serif" font-size="10.00">ICoreFactoryAccessor</text>
<text text-anchor="middle" x="207.5" y="-31" font-family="Helvetica,sans-Serif" font-size="10.00">::getExifReaderFactory</text>
</a>
</g>
</g>
<!-- Node2 -->
<g id="node2" class="node">
<title>Node2</title>
<g id="a_node2"><a xlink:href="../../d4/d0e/class_people_manipulator.html#adb1261c6f429ca2846f4226b5bc82251" target="_top" xlink:title=" ">
<polygon fill="#fff0f0" stroke="red" points="108,-78 7,-78 7,-48 108,-48 108,-78"/>
<text text-anchor="start" x="15" y="-66" font-family="Helvetica,sans-Serif" font-size="10.00">PeopleManipulator::</text>
<text text-anchor="middle" x="57.5" y="-55" font-family="Helvetica,sans-Serif" font-size="10.00">findFaces_thrd</text>
</a>
</g>
</g>
<!-- Node1&#45;&gt;Node2 -->
<g id="edge1" class="edge">
<title>Node1&#45;&gt;Node2</title>
<path fill="none" stroke="#63b8ff" d="M139.31,-49.9C128.84,-51.59 118.2,-53.32 108.22,-54.94"/>
<polygon fill="#63b8ff" stroke="#63b8ff" points="139.74,-53.37 149.05,-48.32 138.62,-46.46 139.74,-53.37"/>
</g>
<!-- Node5 -->
<g id="node3" class="node">
<title>Node5</title>
<g id="a_node3"><a xlink:href="../../de/db3/class_context_menu_manager.html#a6e73f66bfc406adf3a1676fb0237fde3" target="_top" xlink:title=" ">
<polygon fill="#fff0f0" stroke="red" points="115,-30 0,-30 0,0 115,0 115,-30"/>
<text text-anchor="start" x="8" y="-18" font-family="Helvetica,sans-Serif" font-size="10.00">ContextMenuManager</text>
<text text-anchor="middle" x="57.5" y="-7" font-family="Helvetica,sans-Serif" font-size="10.00">::manageGroupsAction</text>
</a>
</g>
</g>
<!-- Node1&#45;&gt;Node5 -->
<g id="edge2" class="edge">
<title>Node1&#45;&gt;Node5</title>
<path fill="none" stroke="#63b8ff" d="M139.22,-28.09C131.13,-26.78 122.94,-25.45 115.02,-24.17"/>
<polygon fill="#63b8ff" stroke="#63b8ff" points="138.62,-31.54 149.05,-29.68 139.74,-24.63 138.62,-31.54"/>
</g>
</g>
</svg>
