<?xml version="1.0" encoding="UTF-8" standalone="no"?>
<!DOCTYPE svg PUBLIC "-//W3C//DTD SVG 1.1//EN"
 "http://www.w3.org/Graphics/SVG/1.1/DTD/svg11.dtd">
<!-- Generated by graphviz version 7.0.5 (20221223.1930)
 -->
<!-- Title: ICoreFactoryAccessor::getLoggerFactory Pages: 1 -->
<svg width="307pt" height="210pt"
 viewBox="0.00 0.00 307.00 210.00" xmlns="http://www.w3.org/2000/svg" xmlns:xlink="http://www.w3.org/1999/xlink">
<g id="graph0" class="graph" transform="scale(1 1) rotate(0) translate(4 206)">
<title>ICoreFactoryAccessor::getLoggerFactory</title>
<!-- Node1 -->
<g id="node1" class="node">
<title>Node1</title>
<g id="a_node1"><a xlink:title=" ">
<polygon fill="#999999" stroke="#666666" points="299,-116 186,-116 186,-86 299,-86 299,-116"/>
<text text-anchor="start" x="194" y="-104" font-family="Helvetica,sans-Serif" font-size="10.00">ICoreFactoryAccessor</text>
<text text-anchor="middle" x="242.5" y="-93" font-family="Helvetica,sans-Serif" font-size="10.00">::getLoggerFactory</text>
</a>
</g>
</g>
<!-- Node2 -->
<g id="node2" class="node">
<title>Node2</title>
<g id="a_node2"><a xlink:href="../../de/db3/class_context_menu_manager.html#a6e73f66bfc406adf3a1676fb0237fde3" target="_top" xlink:title=" ">
<polygon fill="#fff0f0" stroke="red" points="132.5,-202 17.5,-202 17.5,-172 132.5,-172 132.5,-202"/>
<text text-anchor="start" x="25.5" y="-190" font-family="Helvetica,sans-Serif" font-size="10.00">ContextMenuManager</text>
<text text-anchor="middle" x="75" y="-179" font-family="Helvetica,sans-Serif" font-size="10.00">::manageGroupsAction</text>
</a>
</g>
</g>
<!-- Node1&#45;&gt;Node2 -->
<g id="edge1" class="edge">
<title>Node1&#45;&gt;Node2</title>
<path fill="none" stroke="#63b8ff" d="M213.42,-123.08C195.94,-136.04 172.55,-151.98 150,-163 143.57,-166.14 136.63,-169.01 129.67,-171.59"/>
<polygon fill="#63b8ff" stroke="#63b8ff" points="215.41,-125.97 221.28,-117.15 211.19,-120.38 215.41,-125.97"/>
</g>
<!-- Node5 -->
<g id="node3" class="node">
<title>Node5</title>
<g id="a_node3"><a xlink:href="../../d6/dd6/struct_gui.html#a225eb7edaace31eb6cc4ec3173b2a703" target="_top" xlink:title=" ">
<polygon fill="#fff0f0" stroke="red" points="100,-153.5 50,-153.5 50,-134.5 100,-134.5 100,-153.5"/>
<text text-anchor="middle" x="75" y="-141.5" font-family="Helvetica,sans-Serif" font-size="10.00">Gui::run</text>
</a>
</g>
</g>
<!-- Node1&#45;&gt;Node5 -->
<g id="edge2" class="edge">
<title>Node1&#45;&gt;Node5</title>
<path fill="none" stroke="#63b8ff" d="M174.92,-118.51C166.53,-120.7 158.07,-122.91 150,-125 133.44,-129.3 114.78,-134.09 100.34,-137.78"/>
<polygon fill="#63b8ff" stroke="#63b8ff" points="175.61,-121.94 184.4,-116.02 173.84,-115.17 175.61,-121.94"/>
</g>
<!-- Node7 -->
<g id="node4" class="node">
<title>Node7</title>
<g id="a_node4"><a xlink:href="../../dc/d96/class_batch_face_detector.html#afc9c0ac81bcce9e2d4aba88e84b4e330" target="_top" xlink:title=" ">
<polygon fill="white" stroke="#666666" points="127.5,-116 22.5,-116 22.5,-86 127.5,-86 127.5,-116"/>
<text text-anchor="start" x="30.5" y="-104" font-family="Helvetica,sans-Serif" font-size="10.00">BatchFaceDetector::</text>
<text text-anchor="middle" x="75" y="-93" font-family="Helvetica,sans-Serif" font-size="10.00">setCore</text>
</a>
</g>
</g>
<!-- Node1&#45;&gt;Node7 -->
<g id="edge3" class="edge">
<title>Node1&#45;&gt;Node7</title>
<path fill="none" stroke="#63b8ff" d="M174.72,-101C159.08,-101 142.66,-101 127.79,-101"/>
<polygon fill="#63b8ff" stroke="#63b8ff" points="174.42,-104.5 184.42,-101 174.42,-97.5 174.42,-104.5"/>
</g>
<!-- Node8 -->
<g id="node5" class="node">
<title>Node8</title>
<g id="a_node5"><a xlink:href="../../d5/d0f/class_series_model.html#ae62432984c4a5ebd4394b3c6161efc15" target="_top" xlink:title=" ">
<polygon fill="white" stroke="#666666" points="150,-67.5 0,-67.5 0,-48.5 150,-48.5 150,-67.5"/>
<text text-anchor="middle" x="75" y="-55.5" font-family="Helvetica,sans-Serif" font-size="10.00">SeriesModel::setCoreAccessor</text>
</a>
</g>
</g>
<!-- Node1&#45;&gt;Node8 -->
<g id="edge4" class="edge">
<title>Node1&#45;&gt;Node8</title>
<path fill="none" stroke="#63b8ff" d="M174.92,-83.49C166.53,-81.3 158.07,-79.09 150,-77 138.57,-74.03 126.15,-70.83 114.8,-67.92"/>
<polygon fill="#63b8ff" stroke="#63b8ff" points="173.84,-86.83 184.4,-85.98 175.61,-80.06 173.84,-86.83"/>
</g>
<!-- Node9 -->
<g id="node6" class="node">
<title>Node9</title>
<g id="a_node6"><a xlink:href="../../de/db3/class_context_menu_manager.html#a378b0d542be360a79ddeb05235ded1d9" target="_top" xlink:title=" ">
<polygon fill="white" stroke="#666666" points="130.5,-30 19.5,-30 19.5,0 130.5,0 130.5,-30"/>
<text text-anchor="start" x="27.5" y="-18" font-family="Helvetica,sans-Serif" font-size="10.00">ContextMenuManager</text>
<text text-anchor="middle" x="75" y="-7" font-family="Helvetica,sans-Serif" font-size="10.00">::setCoreFactory</text>
</a>
</g>
</g>
<!-- Node1&#45;&gt;Node9 -->
<g id="edge5" class="edge">
<title>Node1&#45;&gt;Node9</title>
<path fill="none" stroke="#63b8ff" d="M212.64,-78.91C195.2,-66.29 172.12,-50.87 150,-40 142.82,-36.47 135.02,-33.24 127.26,-30.36"/>
<polygon fill="#63b8ff" stroke="#63b8ff" points="210.37,-81.58 220.49,-84.68 214.51,-75.94 210.37,-81.58"/>
</g>
</g>
</svg>
