<?xml version="1.0" encoding="UTF-8" standalone="no"?>
<!DOCTYPE svg PUBLIC "-//W3C//DTD SVG 1.1//EN"
 "http://www.w3.org/Graphics/SVG/1.1/DTD/svg11.dtd">
<!-- Generated by graphviz version 12.2.0 (20241103.1931)
 -->
<!-- Title: PhotosGroupingDialog::Impl Pages: 1 -->
<!--zoomable 105 -->

<svg id="main" version="1.1" xmlns="http://www.w3.org/2000/svg" xmlns:xlink="http://www.w3.org/1999/xlink" xml:space="preserve" onload="init(evt)">

<style type="text/css"><![CDATA[
.node, .edge {opacity: 0.7;}
.node.selected, .edge.selected {opacity: 1;}
.edge:hover path { stroke: red; }
.edge:hover polygon { stroke: red; fill: red; }
]]></style>

<defs>
  <circle id="rim" cx="0" cy="0" r="7"/>
  <circle id="rim2" cx="0" cy="0" r="3.5"/>
  <g id="zoomPlus">
    <use xlink:href="#rim" fill="#404040"><set attributeName="fill" to="#808080" begin="zoomplus.mouseover" end="zoomplus.mouseout"/></use>
    <path d="M-4,0h8M0,-4v8" fill="none" stroke="white" stroke-width="1.5" pointer-events="none"/>
  </g>
  <g id="zoomMin">
    <use xlink:href="#rim" fill="#404040"><set attributeName="fill" to="#808080" begin="zoomminus.mouseover" end="zoomminus.mouseout"/></use>
    <path d="M-4,0h8" fill="none" stroke="white" stroke-width="1.5" pointer-events="none"/>
  </g>
  <g id="arrowUp" transform="translate(30 24)">
    <use xlink:href="#rim"/>
    <path pointer-events="none" fill="none" stroke="white" stroke-width="1.5" d="M0,-3.0v7 M-2.5,-0.5L0,-3.0L2.5,-0.5"/>
  </g>
  <g id="arrowRight" transform="rotate(90) translate(36 -43)">
    <use xlink:href="#rim"/>
    <path pointer-events="none" fill="none" stroke="white" stroke-width="1.5" d="M0,-3.0v7 M-2.5,-0.5L0,-3.0L2.5,-0.5"/>
  </g>
  <g id="arrowDown" transform="rotate(180) translate(-30 -48)">
    <use xlink:href="#rim"/>
    <path pointer-events="none" fill="none" stroke="white" stroke-width="1.5" d="M0,-3.0v7 M-2.5,-0.5L0,-3.0L2.5,-0.5"/>
  </g>
  <g id="arrowLeft" transform="rotate(270) translate(-36 17)">
    <use xlink:href="#rim"/>
    <path pointer-events="none" fill="none" stroke="white" stroke-width="1.5" d="M0,-3.0v7 M-2.5,-0.5L0,-3.0L2.5,-0.5"/>
  </g>
  <g id="resetDef">
    <use xlink:href="#rim2" fill="#404040"><set attributeName="fill" to="#808080" begin="reset.mouseover" end="reset.mouseout"/></use>
  </g>
</defs>
<script type="application/ecmascript">
var viewWidth = 548;
var viewHeight = 105;
var sectionId = 'dynsection-0';
</script>
<script type="application/ecmascript" xlink:href="../../svg.min.js"/>
<svg id="graph" class="graph">
<g id="viewport">
<title>PhotosGroupingDialog::Impl</title>
<!-- Node1 -->
<g id="Node000001" class="node">
<title>Node1</title>
<g id="a_Node000001"><a xlink:title=" ">
<polygon fill="#999999" stroke="#666666" points="341.75,-30.5 229,-30.5 229,0 341.75,0 341.75,-30.5"/>
<text text-anchor="start" x="237" y="-17" font-family="Helvetica,sans-Serif" font-size="10.00">PhotosGroupingDialog</text>
<text text-anchor="middle" x="285.38" y="-5.75" font-family="Helvetica,sans-Serif" font-size="10.00">::Impl</text>
</a>
</g>
</g>
<!-- Node2 -->
<g id="Node000002" class="node">
<title>Node2</title>
<g id="a_Node000002"><a xlink:href="../../d4/d03/class_sorting_proxy.html" target="_top" xlink:title=" ">
<polygon fill="#fff0f0" stroke="red" points="70.75,-97 0,-97 0,-77.75 70.75,-77.75 70.75,-97"/>
<text text-anchor="middle" x="35.38" y="-83.5" font-family="Helvetica,sans-Serif" font-size="10.00">SortingProxy</text>
</a>
</g>
</g>
<!-- Node2&#45;&gt;Node1 -->
<g id="edge1_Node000001_Node000002" class="edge">
<title>Node2&#45;&gt;Node1</title>
<g id="a_edge1_Node000001_Node000002"><a xlink:title=" ">
<path fill="none" stroke="#9a32cd" stroke-dasharray="5,2" d="M64.09,-72.6C81.56,-64.66 104.51,-54.99 125.62,-48.5 159.16,-38.19 197.69,-30.3 228.51,-24.91"/>
<polygon fill="#9a32cd" stroke="#9a32cd" points="62.96,-69.27 55.36,-76.64 65.9,-75.62 62.96,-69.27"/>
</a>
</g>
<text text-anchor="middle" x="147" y="-50.25" font-family="Helvetica,sans-Serif" font-size="10.00" fill="grey"> sortProxy</text>
</g>
<!-- Node4 -->
<g id="Node000004" class="node">
<title>Node4</title>
<g id="a_Node000004"><a xlink:href="../../de/d4c/class_media_preview.html" target="_top" xlink:title=" ">
<polygon fill="#fff0f0" stroke="red" points="166.12,-97 88.62,-97 88.62,-77.75 166.12,-77.75 166.12,-97"/>
<text text-anchor="middle" x="127.38" y="-83.5" font-family="Helvetica,sans-Serif" font-size="10.00">MediaPreview</text>
</a>
</g>
</g>
<!-- Node4&#45;&gt;Node1 -->
<g id="edge2_Node000001_Node000004" class="edge">
<title>Node4&#45;&gt;Node1</title>
<g id="a_edge2_Node000001_Node000004"><a xlink:title=" ">
<path fill="none" stroke="#9a32cd" stroke-dasharray="5,2" d="M150.29,-71.55C162.49,-64.05 177.91,-55.15 192.38,-48.5 206.66,-41.94 222.69,-35.92 237.36,-30.92"/>
<polygon fill="#9a32cd" stroke="#9a32cd" points="148.8,-68.36 142.19,-76.64 152.52,-74.29 148.8,-68.36"/>
</a>
</g>
<text text-anchor="middle" x="210.38" y="-50.25" font-family="Helvetica,sans-Serif" font-size="10.00" fill="grey"> preview</text>
</g>
<!-- Node7 -->
<g id="Node000007" class="node">
<title>Node7</title>
<g id="a_Node000007"><a xlink:href="../../db/d10/struct_i_exif_reader_factory.html" target="_top" xlink:title=" ">
<polygon fill="white" stroke="#666666" points="282.25,-97 184.5,-97 184.5,-77.75 282.25,-77.75 282.25,-97"/>
<text text-anchor="middle" x="233.38" y="-83.5" font-family="Helvetica,sans-Serif" font-size="10.00">IExifReaderFactory</text>
</a>
</g>
</g>
<!-- Node7&#45;&gt;Node1 -->
<g id="edge3_Node000001_Node000007" class="edge">
<title>Node7&#45;&gt;Node1</title>
<g id="a_edge3_Node000001_Node000007"><a xlink:title=" ">
<path fill="none" stroke="#9a32cd" stroke-dasharray="5,2" d="M231.53,-65.99C231.84,-60.01 233.07,-53.7 236.12,-48.5 240.32,-41.36 246.79,-35.52 253.68,-30.85"/>
<polygon fill="#9a32cd" stroke="#9a32cd" points="228.03,-65.9 231.84,-75.78 235.03,-65.68 228.03,-65.9"/>
</a>
</g>
<text text-anchor="middle" x="276.25" y="-50.25" font-family="Helvetica,sans-Serif" font-size="10.00" fill="grey"> exifReaderFactory</text>
</g>
<!-- Node8 -->
<g id="Node000008" class="node">
<title>Node8</title>
<g id="a_Node000008"><a xlink:href="../../d7/db4/struct_i_configuration.html" target="_top" xlink:title=" ">
<polygon fill="white" stroke="#666666" points="376,-97 300.75,-97 300.75,-77.75 376,-77.75 376,-97"/>
<text text-anchor="middle" x="338.38" y="-83.5" font-family="Helvetica,sans-Serif" font-size="10.00">IConfiguration</text>
</a>
</g>
</g>
<!-- Node8&#45;&gt;Node1 -->
<g id="edge4_Node000001_Node000008" class="edge">
<title>Node8&#45;&gt;Node1</title>
<g id="a_edge4_Node000001_Node000008"><a xlink:title=" ">
<path fill="none" stroke="#9a32cd" stroke-dasharray="5,2" d="M328.64,-67.58C325.08,-61.31 320.83,-54.41 316.38,-48.5 311.79,-42.42 306.18,-36.27 300.99,-30.99"/>
<polygon fill="#9a32cd" stroke="#9a32cd" points="325.32,-68.81 333.16,-75.94 331.48,-65.48 325.32,-68.81"/>
</a>
</g>
<text text-anchor="middle" x="337.68" y="-50.25" font-family="Helvetica,sans-Serif" font-size="10.00" fill="grey"> config</text>
</g>
<!-- Node9 -->
<g id="Node000009" class="node">
<title>Node9</title>
<g id="a_Node000009"><a xlink:href="../../df/ddd/struct_i_logger.html" target="_top" xlink:title=" ">
<polygon fill="white" stroke="#666666" points="442.88,-97 393.88,-97 393.88,-77.75 442.88,-77.75 442.88,-97"/>
<text text-anchor="middle" x="418.38" y="-83.5" font-family="Helvetica,sans-Serif" font-size="10.00">ILogger</text>
</a>
</g>
</g>
<!-- Node9&#45;&gt;Node1 -->
<g id="edge5_Node000001_Node000009" class="edge">
<title>Node9&#45;&gt;Node1</title>
<g id="a_edge5_Node000001_Node000009"><a xlink:title=" ">
<path fill="none" stroke="#9a32cd" stroke-dasharray="5,2" d="M395.12,-71.56C383.38,-64.3 368.81,-55.61 355.38,-48.5 343.78,-42.37 330.81,-36.21 319.21,-30.93"/>
<polygon fill="#9a32cd" stroke="#9a32cd" points="393,-74.36 403.33,-76.7 396.71,-68.43 393,-74.36"/>
</a>
</g>
<text text-anchor="middle" x="389.03" y="-50.25" font-family="Helvetica,sans-Serif" font-size="10.00" fill="grey"> logger</text>
</g>
<!-- Node10 -->
<g id="Node000010" class="node">
<title>Node10</title>
<g id="a_Node000010"><a xlink:href="../../d5/d45/struct_i_task_executor.html" target="_top" xlink:title=" ">
<polygon fill="white" stroke="#666666" points="539.5,-97 461.25,-97 461.25,-77.75 539.5,-77.75 539.5,-97"/>
<text text-anchor="middle" x="500.38" y="-83.5" font-family="Helvetica,sans-Serif" font-size="10.00">ITaskExecutor</text>
</a>
</g>
</g>
<!-- Node10&#45;&gt;Node1 -->
<g id="edge6_Node000001_Node000010" class="edge">
<title>Node10&#45;&gt;Node1</title>
<g id="a_edge6_Node000001_Node000010"><a xlink:title=" ">
<path fill="none" stroke="#9a32cd" stroke-dasharray="5,2" d="M469.9,-72.81C451.92,-65.1 428.6,-55.59 407.38,-48.5 386.29,-41.45 362.74,-34.92 342,-29.61"/>
<polygon fill="#9a32cd" stroke="#9a32cd" points="468.38,-75.97 478.95,-76.74 471.17,-69.54 468.38,-75.97"/>
</a>
</g>
<text text-anchor="middle" x="455.39" y="-50.25" font-family="Helvetica,sans-Serif" font-size="10.00" fill="grey"> executor</text>
</g>
</g>
</svg>

<g id="navigator" transform="translate(0 0)" fill="#404254">
  <rect fill="#f2f5e9" fill-opacity="0.5" stroke="#606060" stroke-width=".5" x="0" y="0" width="60" height="60"/>
  <use id="zoomplus" xlink:href="#zoomPlus" x="17" y="9" onmousedown="handleZoom(evt,'in')"/>
  <use id="zoomminus" xlink:href="#zoomMin" x="42" y="9" onmousedown="handleZoom(evt,'out')"/>
  <use id="reset" xlink:href="#resetDef" x="30" y="36" onmousedown="handleReset()"/>
   <use id="arrowup" xlink:href="#arrowUp" x="0" y="0" onmousedown="handlePan(0,-1)"/>
  <use id="arrowright" xlink:href="#arrowRight" x="0" y="0" onmousedown="handlePan(1,0)"/>
  <use id="arrowdown" xlink:href="#arrowDown" x="0" y="0" onmousedown="handlePan(0,1)"/>
  <use id="arrowleft" xlink:href="#arrowLeft" x="0" y="0" onmousedown="handlePan(-1,0)"/>
</g>
<svg viewBox="0 0 15 15" width="100%" height="30px" preserveAspectRatio="xMaxYMin meet">
 <g id="arrow_out" transform="scale(0.3 0.3)">
  <a xlink:href="struct_photos_grouping_dialog_1_1_impl__coll__graph_org.svg" target="_base">
   <rect id="button" ry="5" rx="5" y="6" x="6" height="38" width="38"
        fill="#f2f5e9" fill-opacity="0.5" stroke="#606060" stroke-width="1.0"/>
   <path id="arrow"
     d="M 11.500037,31.436501 C 11.940474,20.09759 22.043105,11.32322 32.158766,21.979434 L 37.068811,17.246167 C 37.068811,17.246167 37.088388,32 37.088388,32 L 22.160133,31.978069 C 22.160133,31.978069 26.997745,27.140456 26.997745,27.140456 C 18.528582,18.264221 13.291696,25.230495 11.500037,31.436501 z"
     style="fill:#404040;"/>
  </a>
 </g>
</svg>

<style type='text/css'>
<![CDATA[
[data-mouse-over-selected='false'] { opacity: 0.7; }
[data-mouse-over-selected='true']  { opacity: 1.0; }
]]>
</style>
<script type="application/ecmascript"><![CDATA[
document.addEventListener('DOMContentLoaded', (event) => {
  highlightEdges();
  highlightAdjacentNodes();
});
]]></script>
</svg>
