<?xml version="1.0" encoding="UTF-8" standalone="no"?>
<!DOCTYPE svg PUBLIC "-//W3C//DTD SVG 1.1//EN"
 "http://www.w3.org/Graphics/SVG/1.1/DTD/svg11.dtd">
<!-- Generated by graphviz version 12.2.0 (20241103.1931)
 -->
<!-- Title: src/database/backends/sql_backends/query_structs.cpp Pages: 1 -->
<svg width="290pt" height="149pt"
 viewBox="0.00 0.00 290.00 149.00" xmlns="http://www.w3.org/2000/svg" xmlns:xlink="http://www.w3.org/1999/xlink">
<g id="graph0" class="graph" transform="scale(1 1) rotate(0) translate(4 145)">
<title>src/database/backends/sql_backends/query_structs.cpp</title>
<!-- Node1 -->
<g id="Node000001" class="node">
<title>Node1</title>
<g id="a_Node000001"><a xlink:title=" ">
<polygon fill="#999999" stroke="#666666" points="225.5,-141 67,-141 67,-110.5 225.5,-110.5 225.5,-141"/>
<text text-anchor="start" x="75" y="-127.5" font-family="Helvetica,sans-Serif" font-size="10.00">src/database/backends</text>
<text text-anchor="middle" x="146.25" y="-116.25" font-family="Helvetica,sans-Serif" font-size="10.00">/sql_backends/query_structs.cpp</text>
</a>
</g>
</g>
<!-- Node2 -->
<g id="Node000002" class="node">
<title>Node2</title>
<g id="a_Node000002"><a xlink:href="../../dd/dbe/query__structs_8hpp.html" target="_top" xlink:title=" ">
<polygon fill="#fff0f0" stroke="red" points="92.5,-74.5 0,-74.5 0,-55.25 92.5,-55.25 92.5,-74.5"/>
<text text-anchor="middle" x="46.25" y="-61" font-family="Helvetica,sans-Serif" font-size="10.00">query_structs.hpp</text>
</a>
</g>
</g>
<!-- Node1&#45;&gt;Node2 -->
<g id="edge1_Node000001_Node000002" class="edge">
<title>Node1&#45;&gt;Node2</title>
<g id="a_edge1_Node000001_Node000002"><a xlink:title=" ">
<path fill="none" stroke="#63b8ff" d="M121.27,-110.05C106.04,-101.08 86.64,-89.66 71.38,-80.67"/>
<polygon fill="#63b8ff" stroke="#63b8ff" points="73.28,-77.73 62.89,-75.67 69.73,-83.76 73.28,-77.73"/>
</a>
</g>
</g>
<!-- Node5 -->
<g id="Node000005" class="node">
<title>Node5</title>
<g id="a_Node000005"><a xlink:title=" ">
<polygon fill="#e0e0e0" stroke="#999999" points="107.75,-19.25 58.75,-19.25 58.75,0 107.75,0 107.75,-19.25"/>
<text text-anchor="middle" x="83.25" y="-5.75" font-family="Helvetica,sans-Serif" font-size="10.00">QString</text>
</a>
</g>
</g>
<!-- Node1&#45;&gt;Node5 -->
<g id="edge4_Node000001_Node000005" class="edge">
<title>Node1&#45;&gt;Node5</title>
<g id="a_edge4_Node000001_Node000005"><a xlink:title=" ">
<path fill="none" stroke="#63b8ff" d="M138.27,-110.3C126.95,-89.78 106.2,-52.2 93.67,-29.5"/>
<polygon fill="#63b8ff" stroke="#63b8ff" points="96.89,-28.09 88.99,-21.02 90.76,-31.47 96.89,-28.09"/>
</a>
</g>
</g>
<!-- Node11 -->
<g id="Node000011" class="node">
<title>Node11</title>
<g id="a_Node000011"><a xlink:title=" ">
<polygon fill="#e0e0e0" stroke="#999999" points="198.5,-74.5 148,-74.5 148,-55.25 198.5,-55.25 198.5,-74.5"/>
<text text-anchor="middle" x="173.25" y="-61" font-family="Helvetica,sans-Serif" font-size="10.00">assert.h</text>
</a>
</g>
</g>
<!-- Node1&#45;&gt;Node11 -->
<g id="edge3_Node000001_Node000011" class="edge">
<title>Node1&#45;&gt;Node11</title>
<g id="a_edge3_Node000001_Node000011"><a xlink:title=" ">
<path fill="none" stroke="#63b8ff" d="M152.92,-110.2C156.36,-102.7 160.6,-93.45 164.32,-85.35"/>
<polygon fill="#63b8ff" stroke="#63b8ff" points="167.47,-86.88 168.46,-76.33 161.11,-83.96 167.47,-86.88"/>
</a>
</g>
</g>
<!-- Node12 -->
<g id="Node000012" class="node">
<title>Node12</title>
<g id="a_Node000012"><a xlink:title=" ">
<polygon fill="#e0e0e0" stroke="#999999" points="282,-74.5 216.5,-74.5 216.5,-55.25 282,-55.25 282,-74.5"/>
<text text-anchor="middle" x="249.25" y="-61" font-family="Helvetica,sans-Serif" font-size="10.00">QStringList</text>
</a>
</g>
</g>
<!-- Node1&#45;&gt;Node12 -->
<g id="edge5_Node000001_Node000012" class="edge">
<title>Node1&#45;&gt;Node12</title>
<g id="a_edge5_Node000001_Node000012"><a xlink:title=" ">
<path fill="none" stroke="#63b8ff" d="M171.98,-110.05C187.81,-100.99 208.03,-89.44 223.81,-80.41"/>
<polygon fill="#63b8ff" stroke="#63b8ff" points="225.2,-83.66 232.14,-75.66 221.72,-77.58 225.2,-83.66"/>
</a>
</g>
</g>
<!-- Node2&#45;&gt;Node5 -->
<g id="edge2_Node000002_Node000005" class="edge">
<title>Node2&#45;&gt;Node5</title>
<g id="a_edge2_Node000002_Node000005"><a xlink:title=" ">
<path fill="none" stroke="#63b8ff" d="M52.36,-55.08C57.31,-47.96 64.45,-37.68 70.62,-28.8"/>
<polygon fill="#63b8ff" stroke="#63b8ff" points="73.31,-31.06 76.14,-20.85 67.56,-27.07 73.31,-31.06"/>
</a>
</g>
</g>
</g>
</svg>
