<?xml version="1.0" encoding="UTF-8" standalone="no"?>
<!DOCTYPE svg PUBLIC "-//W3C//DTD SVG 1.1//EN"
 "http://www.w3.org/Graphics/SVG/1.1/DTD/svg11.dtd">
<!-- Generated by graphviz version 7.0.5 (20221223.1930)
 -->
<!-- Title: src/core/thread_utils.hpp Pages: 1 -->
<svg width="204pt" height="82pt"
 viewBox="0.00 0.00 204.00 82.00" xmlns="http://www.w3.org/2000/svg" xmlns:xlink="http://www.w3.org/1999/xlink">
<g id="graph0" class="graph" transform="scale(1 1) rotate(0) translate(4 78)">
<title>src/core/thread_utils.hpp</title>
<!-- Node1 -->
<g id="node1" class="node">
<title>Node1</title>
<g id="a_node1"><a xlink:title=" ">
<polygon fill="#999999" stroke="#666666" points="144.5,-74 21.5,-74 21.5,-55 144.5,-55 144.5,-74"/>
<text text-anchor="middle" x="83" y="-62" font-family="Helvetica,sans-Serif" font-size="10.00">src/core/thread_utils.hpp</text>
</a>
</g>
</g>
<!-- Node2 -->
<g id="node2" class="node">
<title>Node2</title>
<g id="a_node2"><a xlink:title=" ">
<polygon fill="#e0e0e0" stroke="#999999" points="44,-19 0,-19 0,0 44,0 44,-19"/>
<text text-anchor="middle" x="22" y="-7" font-family="Helvetica,sans-Serif" font-size="10.00">thread</text>
</a>
</g>
</g>
<!-- Node1&#45;&gt;Node2 -->
<g id="edge1" class="edge">
<title>Node1&#45;&gt;Node2</title>
<path fill="none" stroke="#63b8ff" d="M72.65,-54.51C63.92,-46.93 51.21,-35.88 40.7,-26.75"/>
<polygon fill="#63b8ff" stroke="#63b8ff" points="43.18,-24.27 33.34,-20.35 38.59,-29.55 43.18,-24.27"/>
</g>
<!-- Node3 -->
<g id="node3" class="node">
<title>Node3</title>
<g id="a_node3"><a xlink:title=" ">
<polygon fill="#e0e0e0" stroke="#999999" points="103.5,-19 62.5,-19 62.5,0 103.5,0 103.5,-19"/>
<text text-anchor="middle" x="83" y="-7" font-family="Helvetica,sans-Serif" font-size="10.00">string</text>
</a>
</g>
</g>
<!-- Node1&#45;&gt;Node3 -->
<g id="edge2" class="edge">
<title>Node1&#45;&gt;Node3</title>
<path fill="none" stroke="#63b8ff" d="M83,-54.75C83,-48.27 83,-39.16 83,-30.9"/>
<polygon fill="#63b8ff" stroke="#63b8ff" points="86.5,-30.96 83,-20.96 79.5,-30.96 86.5,-30.96"/>
</g>
<!-- Node4 -->
<g id="node4" class="node">
<title>Node4</title>
<g id="a_node4"><a xlink:title=" ">
<polygon fill="#e0e0e0" stroke="#999999" points="196,-19 122,-19 122,0 196,0 196,-19"/>
<text text-anchor="middle" x="159" y="-7" font-family="Helvetica,sans-Serif" font-size="10.00">core_export.h</text>
</a>
</g>
</g>
<!-- Node1&#45;&gt;Node4 -->
<g id="edge3" class="edge">
<title>Node1&#45;&gt;Node4</title>
<path fill="none" stroke="#63b8ff" d="M95.89,-54.51C107.1,-46.7 123.57,-35.21 136.88,-25.93"/>
<polygon fill="#63b8ff" stroke="#63b8ff" points="138.86,-28.81 145.06,-20.22 134.85,-23.07 138.86,-28.81"/>
</g>
</g>
</svg>
