<?xml version="1.0" encoding="UTF-8" standalone="no"?>
<!DOCTYPE svg PUBLIC "-//W3C//DTD SVG 1.1//EN"
 "http://www.w3.org/Graphics/SVG/1.1/DTD/svg11.dtd">
<!-- Generated by graphviz version 9.0.0 (20230911.1827)
 -->
<!-- Title: src/photos_crawler/ifile_system_scanner.hpp Pages: 1 -->
<svg width="570pt" height="116pt"
 viewBox="0.00 0.00 569.75 116.25" xmlns="http://www.w3.org/2000/svg" xmlns:xlink="http://www.w3.org/1999/xlink">
<g id="graph0" class="graph" transform="scale(1 1) rotate(0) translate(4 112.25)">
<title>src/photos_crawler/ifile_system_scanner.hpp</title>
<!-- Node1 -->
<g id="Node000001" class="node">
<title>Node1</title>
<g id="a_Node000001"><a xlink:title=" ">
<polygon fill="#999999" stroke="#666666" points="360.88,-108.25 233.12,-108.25 233.12,-77.75 360.88,-77.75 360.88,-108.25"/>
<text text-anchor="start" x="241.12" y="-94.75" font-family="Helvetica,sans-Serif" font-size="10.00">src/photos_crawler</text>
<text text-anchor="middle" x="297" y="-83.5" font-family="Helvetica,sans-Serif" font-size="10.00">/ifile_system_scanner.hpp</text>
</a>
</g>
</g>
<!-- Node2 -->
<g id="Node000002" class="node">
<title>Node2</title>
<g id="a_Node000002"><a xlink:href="../../d6/d00/filesystemscanner_8hpp.html" target="_top" xlink:title=" ">
<polygon fill="#fff0f0" stroke="red" points="160,-41.75 0,-41.75 0,0 160,0 160,-41.75"/>
<text text-anchor="start" x="8" y="-28.25" font-family="Helvetica,sans-Serif" font-size="10.00">src/photos_crawler</text>
<text text-anchor="start" x="8" y="-17" font-family="Helvetica,sans-Serif" font-size="10.00">/default_filesystem</text>
<text text-anchor="middle" x="80" y="-5.75" font-family="Helvetica,sans-Serif" font-size="10.00">_scanners/filesystemscanner.hpp</text>
</a>
</g>
</g>
<!-- Node1&#45;&gt;Node2 -->
<g id="edge1_Node000001_Node000002" class="edge">
<title>Node1&#45;&gt;Node2</title>
<g id="a_edge1_Node000001_Node000002"><a xlink:title=" ">
<path fill="none" stroke="#63b8ff" d="M240.79,-73.83C210.75,-64.13 173.68,-52.15 142.71,-42.14"/>
<polygon fill="#63b8ff" stroke="#63b8ff" points="239.48,-77.09 250.07,-76.83 241.63,-70.43 239.48,-77.09"/>
</a>
</g>
</g>
<!-- Node5 -->
<g id="Node000005" class="node">
<title>Node5</title>
<g id="a_Node000005"><a xlink:href="../../df/d09/ifile__system__scanner_8cpp.html" target="_top" xlink:title=" ">
<polygon fill="white" stroke="#666666" points="288.25,-41.75 177.75,-41.75 177.75,0 288.25,0 288.25,-41.75"/>
<text text-anchor="start" x="185.75" y="-28.25" font-family="Helvetica,sans-Serif" font-size="10.00">src/photos_crawler</text>
<text text-anchor="start" x="185.75" y="-17" font-family="Helvetica,sans-Serif" font-size="10.00">/implementation/ifile</text>
<text text-anchor="middle" x="233" y="-5.75" font-family="Helvetica,sans-Serif" font-size="10.00">_system_scanner.cpp</text>
</a>
</g>
</g>
<!-- Node1&#45;&gt;Node5 -->
<g id="edge2_Node000001_Node000005" class="edge">
<title>Node1&#45;&gt;Node5</title>
<g id="a_edge2_Node000001_Node000005"><a xlink:title=" ">
<path fill="none" stroke="#63b8ff" d="M275.99,-68.98C268.11,-60.35 259.22,-50.61 251.58,-42.24"/>
<polygon fill="#63b8ff" stroke="#63b8ff" points="273.39,-71.33 282.72,-76.35 278.56,-66.61 273.39,-71.33"/>
</a>
</g>
</g>
<!-- Node6 -->
<g id="Node000006" class="node">
<title>Node6</title>
<g id="a_Node000006"><a xlink:href="../../d3/de6/photo__crawler_8cpp.html" target="_top" xlink:title=" ">
<polygon fill="white" stroke="#666666" points="418,-41.75 306,-41.75 306,0 418,0 418,-41.75"/>
<text text-anchor="start" x="314" y="-28.25" font-family="Helvetica,sans-Serif" font-size="10.00">src/photos_crawler</text>
<text text-anchor="start" x="314" y="-17" font-family="Helvetica,sans-Serif" font-size="10.00">/implementation/photo</text>
<text text-anchor="middle" x="362" y="-5.75" font-family="Helvetica,sans-Serif" font-size="10.00">_crawler.cpp</text>
</a>
</g>
</g>
<!-- Node1&#45;&gt;Node6 -->
<g id="edge3_Node000001_Node000006" class="edge">
<title>Node1&#45;&gt;Node6</title>
<g id="a_edge3_Node000001_Node000006"><a xlink:title=" ">
<path fill="none" stroke="#63b8ff" d="M318.09,-69.25C326.15,-60.55 335.28,-50.7 343.13,-42.24"/>
<polygon fill="#63b8ff" stroke="#63b8ff" points="315.73,-66.65 311.5,-76.36 320.86,-71.41 315.73,-66.65"/>
</a>
</g>
</g>
<!-- Node7 -->
<g id="Node000007" class="node">
<title>Node7</title>
<g id="a_Node000007"><a xlink:href="../../dc/da5/photo__crawler__tests_8cpp.html" target="_top" xlink:title=" ">
<polygon fill="white" stroke="#666666" points="561.75,-41.75 436.25,-41.75 436.25,0 561.75,0 561.75,-41.75"/>
<text text-anchor="start" x="444.25" y="-28.25" font-family="Helvetica,sans-Serif" font-size="10.00">src/photos_crawler</text>
<text text-anchor="start" x="444.25" y="-17" font-family="Helvetica,sans-Serif" font-size="10.00">/unit_tests/photo_crawler</text>
<text text-anchor="middle" x="499" y="-5.75" font-family="Helvetica,sans-Serif" font-size="10.00">_tests.cpp</text>
</a>
</g>
</g>
<!-- Node1&#45;&gt;Node7 -->
<g id="edge4_Node000001_Node000007" class="edge">
<title>Node1&#45;&gt;Node7</title>
<g id="a_edge4_Node000001_Node000007"><a xlink:title=" ">
<path fill="none" stroke="#63b8ff" d="M350.07,-73.58C377.9,-63.92 412.05,-52.06 440.62,-42.14"/>
<polygon fill="#63b8ff" stroke="#63b8ff" points="349.07,-70.22 340.78,-76.8 351.37,-76.83 349.07,-70.22"/>
</a>
</g>
</g>
</g>
</svg>
