<?xml version="1.0" encoding="UTF-8" standalone="no"?>
<!DOCTYPE svg PUBLIC "-//W3C//DTD SVG 1.1//EN"
 "http://www.w3.org/Graphics/SVG/1.1/DTD/svg11.dtd">
<!-- Generated by graphviz version 7.0.5 (20221223.1930)
 -->
<!-- Title: src/photos_crawler/ifile_system_scanner.hpp Pages: 1 -->
<svg width="574pt" height="115pt"
 viewBox="0.00 0.00 573.50 115.00" xmlns="http://www.w3.org/2000/svg" xmlns:xlink="http://www.w3.org/1999/xlink">
<g id="graph0" class="graph" transform="scale(1 1) rotate(0) translate(4 111)">
<title>src/photos_crawler/ifile_system_scanner.hpp</title>
<!-- Node1 -->
<g id="node1" class="node">
<title>Node1</title>
<g id="a_node1"><a xlink:title=" ">
<polygon fill="#999999" stroke="#666666" points="363.5,-107 235.5,-107 235.5,-77 363.5,-77 363.5,-107"/>
<text text-anchor="start" x="243.5" y="-95" font-family="Helvetica,sans-Serif" font-size="10.00">src/photos_crawler</text>
<text text-anchor="middle" x="299.5" y="-84" font-family="Helvetica,sans-Serif" font-size="10.00">/ifile_system_scanner.hpp</text>
</a>
</g>
</g>
<!-- Node2 -->
<g id="node2" class="node">
<title>Node2</title>
<g id="a_node2"><a xlink:href="../../d6/d00/filesystemscanner_8hpp.html" target="_top" xlink:title=" ">
<polygon fill="#fff0f0" stroke="red" points="161,-41 0,-41 0,0 161,0 161,-41"/>
<text text-anchor="start" x="8" y="-29" font-family="Helvetica,sans-Serif" font-size="10.00">src/photos_crawler</text>
<text text-anchor="start" x="8" y="-18" font-family="Helvetica,sans-Serif" font-size="10.00">/default_filesystem</text>
<text text-anchor="middle" x="80.5" y="-7" font-family="Helvetica,sans-Serif" font-size="10.00">_scanners/filesystemscanner.hpp</text>
</a>
</g>
</g>
<!-- Node1&#45;&gt;Node2 -->
<g id="edge1" class="edge">
<title>Node1&#45;&gt;Node2</title>
<path fill="none" stroke="#63b8ff" d="M242.95,-73.05C212.38,-63.35 174.56,-51.35 143.11,-41.37"/>
<polygon fill="#63b8ff" stroke="#63b8ff" points="241.82,-76.37 252.41,-76.06 243.94,-69.7 241.82,-76.37"/>
</g>
<!-- Node5 -->
<g id="node3" class="node">
<title>Node5</title>
<g id="a_node3"><a xlink:href="../../df/d09/ifile__system__scanner_8cpp.html" target="_top" xlink:title=" ">
<polygon fill="white" stroke="#666666" points="290,-41 179,-41 179,0 290,0 290,-41"/>
<text text-anchor="start" x="187" y="-29" font-family="Helvetica,sans-Serif" font-size="10.00">src/photos_crawler</text>
<text text-anchor="start" x="187" y="-18" font-family="Helvetica,sans-Serif" font-size="10.00">/implementation/ifile</text>
<text text-anchor="middle" x="234.5" y="-7" font-family="Helvetica,sans-Serif" font-size="10.00">_system_scanner.cpp</text>
</a>
</g>
</g>
<!-- Node1&#45;&gt;Node5 -->
<g id="edge2" class="edge">
<title>Node1&#45;&gt;Node5</title>
<path fill="none" stroke="#63b8ff" d="M278.35,-68.39C270.22,-59.69 261,-49.84 253.13,-41.42"/>
<polygon fill="#63b8ff" stroke="#63b8ff" points="275.61,-70.58 285,-75.49 280.72,-65.8 275.61,-70.58"/>
</g>
<!-- Node6 -->
<g id="node4" class="node">
<title>Node6</title>
<g id="a_node4"><a xlink:href="../../d3/de6/photo__crawler_8cpp.html" target="_top" xlink:title=" ">
<polygon fill="white" stroke="#666666" points="421,-41 308,-41 308,0 421,0 421,-41"/>
<text text-anchor="start" x="316" y="-29" font-family="Helvetica,sans-Serif" font-size="10.00">src/photos_crawler</text>
<text text-anchor="start" x="316" y="-18" font-family="Helvetica,sans-Serif" font-size="10.00">/implementation/photo</text>
<text text-anchor="middle" x="364.5" y="-7" font-family="Helvetica,sans-Serif" font-size="10.00">_crawler.cpp</text>
</a>
</g>
</g>
<!-- Node1&#45;&gt;Node6 -->
<g id="edge3" class="edge">
<title>Node1&#45;&gt;Node6</title>
<path fill="none" stroke="#63b8ff" d="M320.65,-68.39C328.78,-59.69 338,-49.84 345.87,-41.42"/>
<polygon fill="#63b8ff" stroke="#63b8ff" points="318.28,-65.8 314,-75.49 323.39,-70.58 318.28,-65.8"/>
</g>
<!-- Node7 -->
<g id="node5" class="node">
<title>Node7</title>
<g id="a_node5"><a xlink:href="../../dc/da5/photo__crawler__tests_8cpp.html" target="_top" xlink:title=" ">
<polygon fill="white" stroke="#666666" points="565.5,-41 439.5,-41 439.5,0 565.5,0 565.5,-41"/>
<text text-anchor="start" x="447.5" y="-29" font-family="Helvetica,sans-Serif" font-size="10.00">src/photos_crawler</text>
<text text-anchor="start" x="447.5" y="-18" font-family="Helvetica,sans-Serif" font-size="10.00">/unit_tests/photo_crawler</text>
<text text-anchor="middle" x="502.5" y="-7" font-family="Helvetica,sans-Serif" font-size="10.00">_tests.cpp</text>
</a>
</g>
</g>
<!-- Node1&#45;&gt;Node7 -->
<g id="edge4" class="edge">
<title>Node1&#45;&gt;Node7</title>
<path fill="none" stroke="#63b8ff" d="M352.42,-72.88C380.62,-63.23 415.37,-51.33 444.33,-41.42"/>
<polygon fill="#63b8ff" stroke="#63b8ff" points="351.32,-69.56 342.99,-76.11 353.59,-76.18 351.32,-69.56"/>
</g>
</g>
</svg>
