<?xml version="1.0" encoding="UTF-8" standalone="no"?>
<!DOCTYPE svg PUBLIC "-//W3C//DTD SVG 1.1//EN"
 "http://www.w3.org/Graphics/SVG/1.1/DTD/svg11.dtd">
<!-- Generated by graphviz version 7.0.5 (20221223.1930)
 -->
<!-- Title: MainWindow::checkVersion Pages: 1 -->
<svg width="456pt" height="103pt"
 viewBox="0.00 0.00 456.00 103.00" xmlns="http://www.w3.org/2000/svg" xmlns:xlink="http://www.w3.org/1999/xlink">
<g id="graph0" class="graph" transform="scale(1 1) rotate(0) translate(4 99)">
<title>MainWindow::checkVersion</title>
<!-- Node1 -->
<g id="node1" class="node">
<title>Node1</title>
<g id="a_node1"><a xlink:title=" ">
<polygon fill="#999999" stroke="#666666" points="136,-57 0,-57 0,-38 136,-38 136,-57"/>
<text text-anchor="middle" x="68" y="-45" font-family="Helvetica,sans-Serif" font-size="10.00">MainWindow::checkVersion</text>
</a>
</g>
</g>
<!-- Node2 -->
<g id="node2" class="node">
<title>Node2</title>
<g id="a_node2"><a xlink:href="../../d9/dc6/class_main_window.html#abfb6056aa085805e2546d823e828e1ef" target="_top" xlink:title=" ">
<polygon fill="white" stroke="#666666" points="312,-95 172,-95 172,-76 312,-76 312,-95"/>
<text text-anchor="middle" x="242" y="-83" font-family="Helvetica,sans-Serif" font-size="10.00">MainWindow::currentVersion</text>
</a>
</g>
</g>
<!-- Node1&#45;&gt;Node2 -->
<g id="edge1" class="edge">
<title>Node1&#45;&gt;Node2</title>
<path fill="none" stroke="#63b8ff" d="M114.19,-57.48C135.83,-62.27 161.96,-68.04 184.86,-73.1"/>
<polygon fill="#63b8ff" stroke="#63b8ff" points="183.82,-76.45 194.33,-75.19 185.33,-69.62 183.82,-76.45"/>
</g>
<!-- Node3 -->
<g id="node3" class="node">
<title>Node3</title>
<g id="a_node3"><a xlink:href="../../d1/d78/struct_i_logger_factory.html#aca982aa12ae7cad04f1a90a5e48caa63" target="_top" xlink:title=" ">
<polygon fill="white" stroke="#666666" points="448,-76 348,-76 348,-57 448,-57 448,-76"/>
<text text-anchor="middle" x="398" y="-64" font-family="Helvetica,sans-Serif" font-size="10.00">ILoggerFactory::get</text>
</a>
</g>
</g>
<!-- Node1&#45;&gt;Node3 -->
<g id="edge3" class="edge">
<title>Node1&#45;&gt;Node3</title>
<path fill="none" stroke="#63b8ff" d="M136.17,-51.39C194.91,-54.79 279.47,-59.69 336.23,-62.98"/>
<polygon fill="#63b8ff" stroke="#63b8ff" points="335.85,-66.46 346.04,-63.55 336.26,-59.48 335.85,-66.46"/>
</g>
<!-- Node4 -->
<g id="node4" class="node">
<title>Node4</title>
<g id="a_node4"><a xlink:href="../../df/dcf/struct_i_updater.html#ae6a31c846b0a9367710d084ca95a8d6c" target="_top" xlink:title=" ">
<polygon fill="white" stroke="#666666" points="292.5,-19 191.5,-19 191.5,0 292.5,0 292.5,-19"/>
<text text-anchor="middle" x="242" y="-7" font-family="Helvetica,sans-Serif" font-size="10.00">IUpdater::getStatus</text>
</a>
</g>
</g>
<!-- Node1&#45;&gt;Node4 -->
<g id="edge4" class="edge">
<title>Node1&#45;&gt;Node4</title>
<path fill="none" stroke="#63b8ff" d="M114.19,-37.52C135.83,-32.73 161.96,-26.96 184.86,-21.9"/>
<polygon fill="#63b8ff" stroke="#63b8ff" points="185.33,-25.38 194.33,-19.81 183.82,-18.55 185.33,-25.38"/>
</g>
<!-- Node2&#45;&gt;Node3 -->
<g id="edge2" class="edge">
<title>Node2&#45;&gt;Node3</title>
<path fill="none" stroke="#63b8ff" d="M312.34,-76.94C320.39,-75.95 328.55,-74.95 336.46,-73.97"/>
<polygon fill="#63b8ff" stroke="#63b8ff" points="336.84,-77.45 346.34,-72.75 335.99,-70.5 336.84,-77.45"/>
</g>
</g>
</svg>
