<?xml version="1.0" encoding="UTF-8" standalone="no"?>
<!DOCTYPE svg PUBLIC "-//W3C//DTD SVG 1.1//EN"
 "http://www.w3.org/Graphics/SVG/1.1/DTD/svg11.dtd">
<!-- Generated by graphviz version 9.0.0 (20230911.1827)
 -->
<!-- Title: MainWindow::updateGui Pages: 1 -->
<svg width="300pt" height="76pt"
 viewBox="0.00 0.00 300.25 75.88" xmlns="http://www.w3.org/2000/svg" xmlns:xlink="http://www.w3.org/1999/xlink">
<g id="graph0" class="graph" transform="scale(1 1) rotate(0) translate(4 71.88)">
<title>MainWindow::updateGui</title>
<!-- Node1 -->
<g id="Node000001" class="node">
<title>Node1</title>
<g id="a_Node000001"><a xlink:title=" ">
<polygon fill="#999999" stroke="#666666" points="120.25,-40.25 0,-40.25 0,-21 120.25,-21 120.25,-40.25"/>
<text text-anchor="middle" x="60.12" y="-26.75" font-family="Helvetica,sans-Serif" font-size="10.00">MainWindow::updateGui</text>
</a>
</g>
</g>
<!-- Node2 -->
<g id="Node000002" class="node">
<title>Node2</title>
<g id="a_Node000002"><a xlink:href="../../d9/dc6/class_main_window.html#a0e51e12697cb3eab7a9b78e77d7f23ce" target="_top" xlink:title=" ">
<polygon fill="#fff0f0" stroke="red" points="292.25,-67.88 156.25,-67.88 156.25,-37.38 292.25,-37.38 292.25,-67.88"/>
<text text-anchor="start" x="164.25" y="-54.38" font-family="Helvetica,sans-Serif" font-size="10.00">MainWindow::updateProject</text>
<text text-anchor="middle" x="224.25" y="-43.12" font-family="Helvetica,sans-Serif" font-size="10.00">Properties</text>
</a>
</g>
</g>
<!-- Node1&#45;&gt;Node2 -->
<g id="edge1_Node000001_Node000002" class="edge">
<title>Node1&#45;&gt;Node2</title>
<g id="a_edge1_Node000001_Node000002"><a xlink:title=" ">
<path fill="none" stroke="#63b8ff" d="M120.57,-38.69C128.37,-39.75 136.46,-40.85 144.52,-41.94"/>
<polygon fill="#63b8ff" stroke="#63b8ff" points="143.98,-45.4 154.36,-43.28 144.92,-38.46 143.98,-45.4"/>
</a>
</g>
</g>
<!-- Node4 -->
<g id="Node000004" class="node">
<title>Node4</title>
<g id="a_Node000004"><a xlink:href="../../d9/dc6/class_main_window.html#a0bd9037aa9dfc9175c949ebdff8315a7" target="_top" xlink:title=" ">
<polygon fill="#fff0f0" stroke="red" points="288.88,-19.25 159.62,-19.25 159.62,0 288.88,0 288.88,-19.25"/>
<text text-anchor="middle" x="224.25" y="-5.75" font-family="Helvetica,sans-Serif" font-size="10.00">MainWindow::updateTools</text>
</a>
</g>
</g>
<!-- Node1&#45;&gt;Node4 -->
<g id="edge2_Node000001_Node000004" class="edge">
<title>Node1&#45;&gt;Node4</title>
<g id="a_edge2_Node000001_Node000004"><a xlink:title=" ">
<path fill="none" stroke="#63b8ff" d="M120.57,-22.92C129.5,-21.77 138.81,-20.56 148.02,-19.37"/>
<polygon fill="#63b8ff" stroke="#63b8ff" points="148.2,-22.88 157.67,-18.12 147.3,-15.93 148.2,-22.88"/>
</a>
</g>
</g>
</g>
</svg>
