<?xml version="1.0" encoding="UTF-8" standalone="no"?>
<!DOCTYPE svg PUBLIC "-//W3C//DTD SVG 1.1//EN"
 "http://www.w3.org/Graphics/SVG/1.1/DTD/svg11.dtd">
<!-- Generated by graphviz version 9.0.0 (20230911.1827)
 -->
<!-- Title: MainWindow::openProject Pages: 1 -->
<svg width="478pt" height="289pt"
 viewBox="0.00 0.00 477.50 288.53" xmlns="http://www.w3.org/2000/svg" xmlns:xlink="http://www.w3.org/1999/xlink">
<g id="graph0" class="graph" transform="scale(1 1) rotate(0) translate(4 284.53)">
<title>MainWindow::openProject</title>
<!-- Node1 -->
<g id="Node000001" class="node">
<title>Node1</title>
<g id="a_Node000001"><a xlink:title=" ">
<polygon fill="#999999" stroke="#666666" points="127.75,-159.88 0,-159.88 0,-140.62 127.75,-140.62 127.75,-159.88"/>
<text text-anchor="middle" x="63.88" y="-146.38" font-family="Helvetica,sans-Serif" font-size="10.00">MainWindow::openProject</text>
</a>
</g>
</g>
<!-- Node2 -->
<g id="Node000002" class="node">
<title>Node2</title>
<g id="a_Node000002"><a xlink:href="../../d9/dc6/class_main_window.html#a76ab638b4eb18b2624b882474d90f905" target="_top" xlink:title=" ">
<polygon fill="#fff0f0" stroke="red" points="469.5,-178.88 339.5,-178.88 339.5,-159.62 469.5,-159.62 469.5,-178.88"/>
<text text-anchor="middle" x="404.5" y="-165.38" font-family="Helvetica,sans-Serif" font-size="10.00">MainWindow::closeProject</text>
</a>
</g>
</g>
<!-- Node1&#45;&gt;Node2 -->
<g id="edge1_Node000001_Node000002" class="edge">
<title>Node1&#45;&gt;Node2</title>
<g id="a_edge1_Node000001_Node000002"><a xlink:title=" ">
<path fill="none" stroke="#63b8ff" d="M69.84,-160.22C82.04,-183.43 115.99,-240.71 163.75,-262.25 220.37,-287.79 245.7,-284.97 303.5,-262.25 341.19,-247.43 373.11,-210.97 390.18,-188.36"/>
<polygon fill="#63b8ff" stroke="#63b8ff" points="392.99,-190.44 396.05,-180.29 387.33,-186.32 392.99,-190.44"/>
</a>
</g>
</g>
<!-- Node10 -->
<g id="Node000010" class="node">
<title>Node10</title>
<g id="a_Node000010"><a xlink:href="../../da/df4/struct_project_info.html#a71068380a217d3811d085c1ab1aadf59" target="_top" xlink:title=" ">
<polygon fill="white" stroke="#666666" points="291.5,-252.88 175.75,-252.88 175.75,-233.62 291.5,-233.62 291.5,-252.88"/>
<text text-anchor="middle" x="233.62" y="-239.38" font-family="Helvetica,sans-Serif" font-size="10.00">ProjectInfo::getBaseDir</text>
</a>
</g>
</g>
<!-- Node1&#45;&gt;Node10 -->
<g id="edge2_Node000001_Node000010" class="edge">
<title>Node1&#45;&gt;Node10</title>
<g id="a_edge2_Node000001_Node000010"><a xlink:title=" ">
<path fill="none" stroke="#63b8ff" d="M75.2,-160.34C92.23,-176.42 127.9,-207.83 163.75,-225.25 166.87,-226.77 170.14,-228.17 173.48,-229.46"/>
<polygon fill="#63b8ff" stroke="#63b8ff" points="172.3,-232.76 182.9,-232.73 174.6,-226.14 172.3,-232.76"/>
</a>
</g>
</g>
<!-- Node11 -->
<g id="Node000011" class="node">
<title>Node11</title>
<g id="a_Node000011"><a xlink:href="../../da/df4/struct_project_info.html#a781e4f7abfbb6dce848bc1f0e6e46c55" target="_top" xlink:title=" ">
<polygon fill="white" stroke="#666666" points="284.38,-215.88 182.88,-215.88 182.88,-196.62 284.38,-196.62 284.38,-215.88"/>
<text text-anchor="middle" x="233.62" y="-202.38" font-family="Helvetica,sans-Serif" font-size="10.00">ProjectInfo::getPath</text>
</a>
</g>
</g>
<!-- Node1&#45;&gt;Node11 -->
<g id="edge3_Node000001_Node000011" class="edge">
<title>Node1&#45;&gt;Node11</title>
<g id="a_edge3_Node000001_Node000011"><a xlink:title=" ">
<path fill="none" stroke="#63b8ff" d="M88.58,-160.22C108.45,-168.36 137.67,-179.86 163.75,-188.25 169.06,-189.96 174.63,-191.62 180.21,-193.2"/>
<polygon fill="#63b8ff" stroke="#63b8ff" points="178.86,-196.46 189.43,-195.74 180.72,-189.71 178.86,-196.46"/>
</a>
</g>
</g>
<!-- Node12 -->
<g id="Node000012" class="node">
<title>Node12</title>
<g id="a_Node000012"><a xlink:href="../../df/db2/class_objects_accessor.html#adcde9d95f2bbdd55714d9bd9bb3efce4" target="_top" xlink:title=" ">
<polygon fill="white" stroke="#666666" points="299.75,-178.88 167.5,-178.88 167.5,-159.62 299.75,-159.62 299.75,-178.88"/>
<text text-anchor="middle" x="233.62" y="-165.38" font-family="Helvetica,sans-Serif" font-size="10.00">ObjectsAccessor::instance</text>
</a>
</g>
</g>
<!-- Node1&#45;&gt;Node12 -->
<g id="edge4_Node000001_Node000012" class="edge">
<title>Node1&#45;&gt;Node12</title>
<g id="a_edge4_Node000001_Node000012"><a xlink:title=" ">
<path fill="none" stroke="#63b8ff" d="M127.82,-157.38C136.94,-158.41 146.41,-159.49 155.77,-160.54"/>
<polygon fill="#63b8ff" stroke="#63b8ff" points="155.26,-164.01 165.59,-161.66 156.04,-157.05 155.26,-164.01"/>
</a>
</g>
</g>
<!-- Node13 -->
<g id="Node000013" class="node">
<title>Node13</title>
<g id="a_Node000013"><a xlink:href="../../da/df4/struct_project_info.html#ab773ce26983e2e9a1478a6e22d5a596a" target="_top" xlink:title=" ">
<polygon fill="white" stroke="#666666" points="282.12,-141.88 185.12,-141.88 185.12,-122.62 282.12,-122.62 282.12,-141.88"/>
<text text-anchor="middle" x="233.62" y="-128.38" font-family="Helvetica,sans-Serif" font-size="10.00">ProjectInfo::isValid</text>
</a>
</g>
</g>
<!-- Node1&#45;&gt;Node13 -->
<g id="edge5_Node000001_Node000013" class="edge">
<title>Node1&#45;&gt;Node13</title>
<g id="a_edge5_Node000001_Node000013"><a xlink:title=" ">
<path fill="none" stroke="#63b8ff" d="M127.82,-143.5C142.86,-141.88 158.85,-140.17 173.7,-138.57"/>
<polygon fill="#63b8ff" stroke="#63b8ff" points="173.73,-142.09 183.3,-137.54 172.98,-135.13 173.73,-142.09"/>
</a>
</g>
</g>
<!-- Node14 -->
<g id="Node000014" class="node">
<title>Node14</title>
<g id="a_Node000014"><a xlink:href="../../d7/dc8/class_i_project_manager.html#a48962f8aeb396b60722bffa60d3d79f3" target="_top" xlink:title=" ">
<polygon fill="white" stroke="#666666" points="290,-104.88 177.25,-104.88 177.25,-85.62 290,-85.62 290,-104.88"/>
<text text-anchor="middle" x="233.62" y="-91.38" font-family="Helvetica,sans-Serif" font-size="10.00">IProjectManager::open</text>
</a>
</g>
</g>
<!-- Node1&#45;&gt;Node14 -->
<g id="edge6_Node000001_Node000014" class="edge">
<title>Node1&#45;&gt;Node14</title>
<g id="a_edge6_Node000001_Node000014"><a xlink:title=" ">
<path fill="none" stroke="#63b8ff" d="M89.42,-140.27C109.28,-132.38 138.07,-121.39 163.75,-113.25 169.13,-111.54 174.79,-109.87 180.45,-108.28"/>
<polygon fill="#63b8ff" stroke="#63b8ff" points="181.09,-111.73 189.81,-105.72 179.24,-104.98 181.09,-111.73"/>
</a>
</g>
</g>
<!-- Node15 -->
<g id="Node000015" class="node">
<title>Node15</title>
<g id="a_Node000015"><a xlink:href="../../d9/dc6/class_main_window.html#a2c2d7e1cdd309b698173f750f3d98738" target="_top" xlink:title=" ">
<polygon fill="#fff0f0" stroke="red" points="303.12,-67.88 164.12,-67.88 164.12,-48.62 303.12,-48.62 303.12,-67.88"/>
<text text-anchor="middle" x="233.62" y="-54.38" font-family="Helvetica,sans-Serif" font-size="10.00">MainWindow::projectOpened</text>
</a>
</g>
</g>
<!-- Node1&#45;&gt;Node15 -->
<g id="edge7_Node000001_Node000015" class="edge">
<title>Node1&#45;&gt;Node15</title>
<g id="a_edge7_Node000001_Node000015"><a xlink:title=" ">
<path fill="none" stroke="#63b8ff" d="M75.23,-140.3C92.29,-124.45 128.02,-93.47 163.75,-76.25 166.88,-74.74 170.15,-73.35 173.49,-72.06"/>
<polygon fill="#63b8ff" stroke="#63b8ff" points="174.61,-75.38 182.91,-68.81 172.32,-68.77 174.61,-75.38"/>
</a>
</g>
</g>
<!-- Node19 -->
<g id="Node000019" class="node">
<title>Node19</title>
<g id="a_Node000019"><a xlink:href="../../df/db2/class_objects_accessor.html#a8922ac7c16e27cd5ed94e7b1e8d20ce8" target="_top" xlink:title=" ">
<polygon fill="#fff0f0" stroke="red" points="303.5,-30.5 163.75,-30.5 163.75,0 303.5,0 303.5,-30.5"/>
<text text-anchor="start" x="171.75" y="-17" font-family="Helvetica,sans-Serif" font-size="10.00">ObjectsAccessor::setRecent</text>
<text text-anchor="middle" x="233.62" y="-5.75" font-family="Helvetica,sans-Serif" font-size="10.00">Projects</text>
</a>
</g>
</g>
<!-- Node1&#45;&gt;Node19 -->
<g id="edge9_Node000001_Node000019" class="edge">
<title>Node1&#45;&gt;Node19</title>
<g id="a_edge9_Node000001_Node000019"><a xlink:title=" ">
<path fill="none" stroke="#63b8ff" d="M71.05,-140.44C84.99,-119.03 121.05,-67.79 163.75,-39.25 165.34,-38.19 166.99,-37.16 168.67,-36.18"/>
<polygon fill="#63b8ff" stroke="#63b8ff" points="170.07,-39.4 177.34,-31.69 166.85,-33.18 170.07,-39.4"/>
</a>
</g>
</g>
<!-- Node15&#45;&gt;Node2 -->
<g id="edge8_Node000015_Node000002" class="edge">
<title>Node15&#45;&gt;Node2</title>
<g id="a_edge8_Node000015_Node000002"><a xlink:title=" ">
<path fill="none" stroke="#63b8ff" d="M285.04,-68.31C291.44,-70.48 297.76,-73.1 303.5,-76.25 338.28,-95.36 370.32,-129.23 388.35,-150.4"/>
<polygon fill="#63b8ff" stroke="#63b8ff" points="385.55,-152.51 394.63,-157.96 390.93,-148.04 385.55,-152.51"/>
</a>
</g>
</g>
</g>
</svg>
