<?xml version="1.0" encoding="UTF-8" standalone="no"?>
<!DOCTYPE svg PUBLIC "-//W3C//DTD SVG 1.1//EN"
 "http://www.w3.org/Graphics/SVG/1.1/DTD/svg11.dtd">
<!-- Generated by graphviz version 7.0.5 (20221223.1930)
 -->
<!-- Title: MainWindow::setupQmlView Pages: 1 -->
<svg width="707pt" height="509pt"
 viewBox="0.00 0.00 707.00 508.59" xmlns="http://www.w3.org/2000/svg" xmlns:xlink="http://www.w3.org/1999/xlink">
<g id="graph0" class="graph" transform="scale(1 1) rotate(0) translate(4 504.59)">
<title>MainWindow::setupQmlView</title>
<!-- Node1 -->
<g id="node1" class="node">
<title>Node1</title>
<g id="a_node1"><a xlink:title=" ">
<polygon fill="#999999" stroke="#666666" points="140,-260.5 0,-260.5 0,-241.5 140,-241.5 140,-260.5"/>
<text text-anchor="middle" x="70" y="-248.5" font-family="Helvetica,sans-Serif" font-size="10.00">MainWindow::setupQmlView</text>
</a>
</g>
</g>
<!-- Node2 -->
<g id="node2" class="node">
<title>Node2</title>
<g id="a_node2"><a xlink:href="../../d9/dc6/class_main_window.html#a76ab638b4eb18b2624b882474d90f905" target="_top" xlink:title=" ">
<polygon fill="#fff0f0" stroke="red" points="698,-373.5 567,-373.5 567,-354.5 698,-354.5 698,-373.5"/>
<text text-anchor="middle" x="632.5" y="-361.5" font-family="Helvetica,sans-Serif" font-size="10.00">MainWindow::closeProject</text>
</a>
</g>
</g>
<!-- Node1&#45;&gt;Node2 -->
<g id="edge1" class="edge">
<title>Node1&#45;&gt;Node2</title>
<path fill="none" stroke="#63b8ff" d="M72.13,-260.76C76.84,-296.45 98.46,-420.28 176,-469 321.73,-560.56 538.6,-428.37 608.74,-380.3"/>
<polygon fill="#63b8ff" stroke="#63b8ff" points="610.55,-383.31 616.75,-374.72 606.55,-377.56 610.55,-383.31"/>
</g>
<!-- Node5 -->
<g id="node3" class="node">
<title>Node5</title>
<g id="a_node3"><a xlink:href="../../d2/d0d/namespace_qml_utils.html#ae96a52474204e1a30a073c852a2af372" target="_top" xlink:title=" ">
<polygon fill="white" stroke="#666666" points="324,-459.5 203,-459.5 203,-440.5 324,-440.5 324,-459.5"/>
<text text-anchor="middle" x="263.5" y="-447.5" font-family="Helvetica,sans-Serif" font-size="10.00">QmlUtils::findQmlObject</text>
</a>
</g>
</g>
<!-- Node1&#45;&gt;Node5 -->
<g id="edge2" class="edge">
<title>Node1&#45;&gt;Node5</title>
<path fill="none" stroke="#63b8ff" d="M73.62,-260.69C82.39,-291.15 113.71,-385.63 176,-431 180.97,-434.62 186.5,-437.57 192.29,-439.98"/>
<polygon fill="#63b8ff" stroke="#63b8ff" points="190.92,-443.21 201.51,-443.24 193.25,-436.61 190.92,-443.21"/>
</g>
<!-- Node8 -->
<g id="node4" class="node">
<title>Node8</title>
<g id="a_node4"><a xlink:href="../../de/d60/class_observables_registry.html#acfb967f2868cb5d40475756aeb3be6ae" target="_top" xlink:title=" ">
<polygon fill="white" stroke="#666666" points="317,-422 210,-422 210,-392 317,-392 317,-422"/>
<text text-anchor="start" x="218" y="-410" font-family="Helvetica,sans-Serif" font-size="10.00">ObservablesRegistry</text>
<text text-anchor="middle" x="263.5" y="-399" font-family="Helvetica,sans-Serif" font-size="10.00">::instance</text>
</a>
</g>
</g>
<!-- Node1&#45;&gt;Node8 -->
<g id="edge3" class="edge">
<title>Node1&#45;&gt;Node8</title>
<path fill="none" stroke="#63b8ff" d="M76.48,-260.85C90.15,-284.53 128.12,-345.13 176,-378 182.99,-382.8 190.84,-386.86 198.88,-390.28"/>
<polygon fill="#63b8ff" stroke="#63b8ff" points="197.52,-393.5 208.1,-393.87 200.05,-386.98 197.52,-393.5"/>
</g>
<!-- Node9 -->
<g id="node5" class="node">
<title>Node9</title>
<g id="a_node5"><a xlink:href="../../df/db2/class_objects_accessor.html#adcde9d95f2bbdd55714d9bd9bb3efce4" target="_top" xlink:title=" ">
<polygon fill="white" stroke="#666666" points="699,-196.5 566,-196.5 566,-177.5 699,-177.5 699,-196.5"/>
<text text-anchor="middle" x="632.5" y="-184.5" font-family="Helvetica,sans-Serif" font-size="10.00">ObjectsAccessor::instance</text>
</a>
</g>
</g>
<!-- Node1&#45;&gt;Node9 -->
<g id="edge4" class="edge">
<title>Node1&#45;&gt;Node9</title>
<path fill="none" stroke="#63b8ff" d="M78.62,-241.09C94.31,-221.61 132.41,-178.85 176,-163 319.76,-110.72 505.91,-151 588.63,-173.92"/>
<polygon fill="#63b8ff" stroke="#63b8ff" points="587.57,-177.26 598.14,-176.62 589.47,-170.53 587.57,-177.26"/>
</g>
<!-- Node10 -->
<g id="node6" class="node">
<title>Node10</title>
<g id="a_node6"><a xlink:href="../../d9/dc6/class_main_window.html#a189b458b701fa572969a22f8718ce5b0" target="_top" xlink:title=" ">
<polygon fill="white" stroke="#666666" points="530,-379 387,-379 387,-349 530,-349 530,-379"/>
<text text-anchor="start" x="395" y="-367" font-family="Helvetica,sans-Serif" font-size="10.00">MainWindow::on_actionClose</text>
<text text-anchor="middle" x="458.5" y="-356" font-family="Helvetica,sans-Serif" font-size="10.00">_triggered</text>
</a>
</g>
</g>
<!-- Node1&#45;&gt;Node10 -->
<g id="edge5" class="edge">
<title>Node1&#45;&gt;Node10</title>
<path fill="none" stroke="#63b8ff" d="M78.08,-260.69C93.35,-280.71 131.58,-326.28 176,-345 239.16,-371.61 317.37,-374.81 375.31,-372.24"/>
<polygon fill="#63b8ff" stroke="#63b8ff" points="375.3,-375.74 385.11,-371.73 374.94,-368.75 375.3,-375.74"/>
</g>
<!-- Node11 -->
<g id="node7" class="node">
<title>Node11</title>
<g id="a_node7"><a xlink:href="../../d9/dc6/class_main_window.html#a55bc83f537f0a7fa266e80a7edc8c86b" target="_top" xlink:title=" ">
<polygon fill="white" stroke="#666666" points="351,-288 176,-288 176,-258 351,-258 351,-288"/>
<text text-anchor="start" x="184" y="-276" font-family="Helvetica,sans-Serif" font-size="10.00">MainWindow::on_actionConfiguration</text>
<text text-anchor="middle" x="263.5" y="-265" font-family="Helvetica,sans-Serif" font-size="10.00">_triggered</text>
</a>
</g>
</g>
<!-- Node1&#45;&gt;Node11 -->
<g id="edge7" class="edge">
<title>Node1&#45;&gt;Node11</title>
<path fill="none" stroke="#63b8ff" d="M140.41,-258.97C148.19,-259.87 156.23,-260.79 164.29,-261.72"/>
<polygon fill="#63b8ff" stroke="#63b8ff" points="163.84,-265.19 174.17,-262.85 164.64,-258.23 163.84,-265.19"/>
</g>
<!-- Node12 -->
<g id="node8" class="node">
<title>Node12</title>
<g id="a_node8"><a xlink:href="../../d9/dc6/class_main_window.html#a71f34c62abc6178a05f5b0fd9965e7e0" target="_top" xlink:title=" ">
<polygon fill="#fff0f0" stroke="red" points="333,-336 194,-336 194,-306 333,-306 333,-336"/>
<text text-anchor="start" x="202" y="-324" font-family="Helvetica,sans-Serif" font-size="10.00">MainWindow::on_actionNew</text>
<text text-anchor="middle" x="263.5" y="-313" font-family="Helvetica,sans-Serif" font-size="10.00">_collection_triggered</text>
</a>
</g>
</g>
<!-- Node1&#45;&gt;Node12 -->
<g id="edge8" class="edge">
<title>Node1&#45;&gt;Node12</title>
<path fill="none" stroke="#63b8ff" d="M91.18,-260.87C112.06,-270.84 145.81,-286.26 176,-297 181.06,-298.8 186.32,-300.55 191.64,-302.23"/>
<polygon fill="#63b8ff" stroke="#63b8ff" points="190.56,-305.56 201.14,-305.13 192.6,-298.86 190.56,-305.56"/>
</g>
<!-- Node26 -->
<g id="node9" class="node">
<title>Node26</title>
<g id="a_node9"><a xlink:href="../../d9/dc6/class_main_window.html#aabba421121a791ec3aa10a742f37790a" target="_top" xlink:title=" ">
<polygon fill="#fff0f0" stroke="red" points="522.5,-239.5 394.5,-239.5 394.5,-220.5 522.5,-220.5 522.5,-239.5"/>
<text text-anchor="middle" x="458.5" y="-227.5" font-family="Helvetica,sans-Serif" font-size="10.00">MainWindow::openProject</text>
</a>
</g>
</g>
<!-- Node1&#45;&gt;Node26 -->
<g id="edge15" class="edge">
<title>Node1&#45;&gt;Node26</title>
<path fill="none" stroke="#63b8ff" d="M140.1,-247.25C208.38,-243.54 312.54,-237.88 382.73,-234.06"/>
<polygon fill="#63b8ff" stroke="#63b8ff" points="382.82,-237.56 392.61,-233.53 382.44,-230.57 382.82,-237.56"/>
</g>
<!-- Node34 -->
<g id="node10" class="node">
<title>Node34</title>
<g id="a_node10"><a xlink:href="../../d9/dc6/class_main_window.html#a75b19596e845dabf979ddb0d2b9f3863" target="_top" xlink:title=" ">
<polygon fill="white" stroke="#666666" points="334.5,-202 192.5,-202 192.5,-172 334.5,-172 334.5,-202"/>
<text text-anchor="start" x="200.5" y="-190" font-family="Helvetica,sans-Serif" font-size="10.00">MainWindow::on_actionOpen</text>
<text text-anchor="middle" x="263.5" y="-179" font-family="Helvetica,sans-Serif" font-size="10.00">_collection_triggered</text>
</a>
</g>
</g>
<!-- Node1&#45;&gt;Node34 -->
<g id="edge12" class="edge">
<title>Node1&#45;&gt;Node34</title>
<path fill="none" stroke="#63b8ff" d="M100.92,-241C128.83,-231.67 171.2,-217.51 205.54,-206.03"/>
<polygon fill="#63b8ff" stroke="#63b8ff" points="206.58,-209.38 214.95,-202.89 204.36,-202.74 206.58,-209.38"/>
</g>
<!-- Node31 -->
<g id="node11" class="node">
<title>Node31</title>
<g id="a_node11"><a xlink:href="../../d9/dc6/class_main_window.html#a2ff70b9caee93ce8564018cde2a0979f" target="_top" xlink:title=" ">
<polygon fill="white" stroke="#666666" points="334,-116 193,-116 193,-86 334,-86 334,-116"/>
<text text-anchor="start" x="201" y="-104" font-family="Helvetica,sans-Serif" font-size="10.00">MainWindow::on_actionScan</text>
<text text-anchor="middle" x="263.5" y="-93" font-family="Helvetica,sans-Serif" font-size="10.00">_collection_triggered</text>
</a>
</g>
</g>
<!-- Node1&#45;&gt;Node31 -->
<g id="edge14" class="edge">
<title>Node1&#45;&gt;Node31</title>
<path fill="none" stroke="#63b8ff" d="M76.81,-241.29C90.93,-218.52 129.31,-161.25 176,-130 181.02,-126.64 186.46,-123.64 192.09,-120.96"/>
<polygon fill="#63b8ff" stroke="#63b8ff" points="193.21,-124.29 200.98,-117.1 190.42,-117.88 193.21,-124.29"/>
</g>
<!-- Node35 -->
<g id="node12" class="node">
<title>Node35</title>
<g id="a_node12"><a xlink:href="../../d2/d0d/namespace_qml_utils.html#a7abaf2fcaa1e51a6e84d3ab281791190" target="_top" xlink:title=" ">
<polygon fill="white" stroke="#666666" points="343.5,-67.5 183.5,-67.5 183.5,-48.5 343.5,-48.5 343.5,-67.5"/>
<text text-anchor="middle" x="263.5" y="-55.5" font-family="Helvetica,sans-Serif" font-size="10.00">QmlUtils::registerImageProviders</text>
</a>
</g>
</g>
<!-- Node1&#45;&gt;Node35 -->
<g id="edge16" class="edge">
<title>Node1&#45;&gt;Node35</title>
<path fill="none" stroke="#63b8ff" d="M73.85,-241.21C83.1,-211.31 115.21,-120.58 176,-77 178.08,-75.51 180.26,-74.13 182.51,-72.86"/>
<polygon fill="#63b8ff" stroke="#63b8ff" points="183.92,-76.06 191.42,-68.58 180.89,-69.75 183.92,-76.06"/>
</g>
<!-- Node36 -->
<g id="node13" class="node">
<title>Node36</title>
<g id="a_node13"><a xlink:href="../../d2/d10/class_photos_model_controller_component.html#a8ba1a06258de0c6d4e4788e51bc1e130" target="_top" xlink:title=" ">
<polygon fill="#fff0f0" stroke="red" points="345.5,-30 181.5,-30 181.5,0 345.5,0 345.5,-30"/>
<text text-anchor="start" x="189.5" y="-18" font-family="Helvetica,sans-Serif" font-size="10.00">PhotosModelControllerComponent</text>
<text text-anchor="middle" x="263.5" y="-7" font-family="Helvetica,sans-Serif" font-size="10.00">::setCompleterFactory</text>
</a>
</g>
</g>
<!-- Node1&#45;&gt;Node36 -->
<g id="edge17" class="edge">
<title>Node1&#45;&gt;Node36</title>
<path fill="none" stroke="#63b8ff" d="M72.88,-241.23C79.88,-207.59 107.62,-95.53 176,-39 177.11,-38.08 178.26,-37.19 179.44,-36.34"/>
<polygon fill="#63b8ff" stroke="#63b8ff" points="181.01,-39.48 187.68,-31.24 177.33,-33.53 181.01,-39.48"/>
</g>
<!-- Node10&#45;&gt;Node2 -->
<g id="edge6" class="edge">
<title>Node10&#45;&gt;Node2</title>
<path fill="none" stroke="#63b8ff" d="M530.45,-364C538.57,-364 546.86,-364 555.05,-364"/>
<polygon fill="#63b8ff" stroke="#63b8ff" points="554.99,-367.5 564.99,-364 554.99,-360.5 554.99,-367.5"/>
</g>
<!-- Node12&#45;&gt;Node26 -->
<g id="edge9" class="edge">
<title>Node12&#45;&gt;Node26</title>
<path fill="none" stroke="#63b8ff" d="M328.54,-305.51C336.23,-302.98 343.87,-300.15 351,-297 382.08,-283.27 414.71,-261.49 435.53,-246.51"/>
<polygon fill="#63b8ff" stroke="#63b8ff" points="437.52,-249.39 443.52,-240.66 433.39,-243.74 437.52,-249.39"/>
</g>
<!-- Node26&#45;&gt;Node2 -->
<g id="edge10" class="edge">
<title>Node26&#45;&gt;Node2</title>
<path fill="none" stroke="#63b8ff" d="M472.15,-239.85C501.35,-262.6 573.73,-318.99 610.02,-347.27"/>
<polygon fill="#63b8ff" stroke="#63b8ff" points="607.6,-349.82 617.64,-353.2 611.9,-344.3 607.6,-349.82"/>
</g>
<!-- Node26&#45;&gt;Node9 -->
<g id="edge11" class="edge">
<title>Node26&#45;&gt;Node9</title>
<path fill="none" stroke="#63b8ff" d="M499.39,-220.03C523.51,-214 554.5,-206.25 580.4,-199.77"/>
<polygon fill="#63b8ff" stroke="#63b8ff" points="581.21,-203.18 590.06,-197.36 579.51,-196.39 581.21,-203.18"/>
</g>
<!-- Node34&#45;&gt;Node26 -->
<g id="edge13" class="edge">
<title>Node34&#45;&gt;Node26</title>
<path fill="none" stroke="#63b8ff" d="M333.9,-202.46C356.16,-207.42 380.52,-212.85 401.68,-217.56"/>
<polygon fill="#63b8ff" stroke="#63b8ff" points="400.75,-220.94 411.27,-219.7 402.27,-214.11 400.75,-220.94"/>
</g>
</g>
</svg>
