<?xml version="1.0" encoding="UTF-8" standalone="no"?>
<!DOCTYPE svg PUBLIC "-//W3C//DTD SVG 1.1//EN"
 "http://www.w3.org/Graphics/SVG/1.1/DTD/svg11.dtd">
<!-- Generated by graphviz version 7.0.5 (20221223.1930)
 -->
<!-- Title: MainWindow::currentProjectChanged Pages: 1 -->
<svg width="489pt" height="103pt"
 viewBox="0.00 0.00 489.00 103.00" xmlns="http://www.w3.org/2000/svg" xmlns:xlink="http://www.w3.org/1999/xlink">
<g id="graph0" class="graph" transform="scale(1 1) rotate(0) translate(4 99)">
<title>MainWindow::currentProjectChanged</title>
<!-- Node1 -->
<g id="node1" class="node">
<title>Node1</title>
<g id="a_node1"><a xlink:title=" ">
<polygon fill="#999999" stroke="#666666" points="481,-62.5 344,-62.5 344,-32.5 481,-32.5 481,-62.5"/>
<text text-anchor="start" x="352" y="-50.5" font-family="Helvetica,sans-Serif" font-size="10.00">MainWindow::currentProject</text>
<text text-anchor="middle" x="412.5" y="-39.5" font-family="Helvetica,sans-Serif" font-size="10.00">Changed</text>
</a>
</g>
</g>
<!-- Node2 -->
<g id="node2" class="node">
<title>Node2</title>
<g id="a_node2"><a xlink:href="../../d9/dc6/class_main_window.html#a76ab638b4eb18b2624b882474d90f905" target="_top" xlink:title=" ">
<polygon fill="#fff0f0" stroke="red" points="307.5,-95 176.5,-95 176.5,-76 307.5,-76 307.5,-95"/>
<text text-anchor="middle" x="242" y="-83" font-family="Helvetica,sans-Serif" font-size="10.00">MainWindow::closeProject</text>
</a>
</g>
</g>
<!-- Node1&#45;&gt;Node2 -->
<g id="edge1" class="edge">
<title>Node1&#45;&gt;Node2</title>
<path fill="none" stroke="#63b8ff" d="M333.02,-65.2C317.15,-68.78 301.01,-72.42 286.86,-75.61"/>
<polygon fill="#63b8ff" stroke="#63b8ff" points="333.47,-68.68 342.46,-63.07 331.93,-61.86 333.47,-68.68"/>
</g>
<!-- Node9 -->
<g id="node3" class="node">
<title>Node9</title>
<g id="a_node3"><a xlink:href="../../d9/dc6/class_main_window.html#a2c2d7e1cdd309b698173f750f3d98738" target="_top" xlink:title=" ">
<polygon fill="#fff0f0" stroke="red" points="140,-76 0,-76 0,-57 140,-57 140,-76"/>
<text text-anchor="middle" x="70" y="-64" font-family="Helvetica,sans-Serif" font-size="10.00">MainWindow::projectOpened</text>
</a>
</g>
</g>
<!-- Node1&#45;&gt;Node9 -->
<g id="edge4" class="edge">
<title>Node1&#45;&gt;Node9</title>
<path fill="none" stroke="#63b8ff" d="M332.47,-51.91C274.32,-55.15 196.02,-59.52 140.3,-62.63"/>
<polygon fill="#63b8ff" stroke="#63b8ff" points="332.52,-55.41 342.31,-51.36 332.13,-48.42 332.52,-55.41"/>
</g>
<!-- Node5 -->
<g id="node4" class="node">
<title>Node5</title>
<g id="a_node4"><a xlink:href="../../d9/dc6/class_main_window.html#afa9f16857aa0b6b19921e98c835fbe11" target="_top" xlink:title=" ">
<polygon fill="white" stroke="#666666" points="308,-19 176,-19 176,0 308,0 308,-19"/>
<text text-anchor="middle" x="242" y="-7" font-family="Helvetica,sans-Serif" font-size="10.00">MainWindow::MainWindow</text>
</a>
</g>
</g>
<!-- Node1&#45;&gt;Node5 -->
<g id="edge3" class="edge">
<title>Node1&#45;&gt;Node5</title>
<path fill="none" stroke="#63b8ff" d="M333.02,-29.8C317.15,-26.22 301.01,-22.58 286.86,-19.39"/>
<polygon fill="#63b8ff" stroke="#63b8ff" points="331.93,-33.14 342.46,-31.93 333.47,-26.32 331.93,-33.14"/>
</g>
<!-- Node2&#45;&gt;Node9 -->
<g id="edge2" class="edge">
<title>Node2&#45;&gt;Node9</title>
<path fill="none" stroke="#63b8ff" d="M164.84,-76.99C156.7,-76.08 148.44,-75.16 140.39,-74.25"/>
<polygon fill="#63b8ff" stroke="#63b8ff" points="164.41,-80.46 174.74,-78.09 165.19,-73.51 164.41,-80.46"/>
</g>
</g>
</svg>
