<?xml version="1.0" encoding="UTF-8" standalone="no"?>
<!DOCTYPE svg PUBLIC "-//W3C//DTD SVG 1.1//EN"
 "http://www.w3.org/Graphics/SVG/1.1/DTD/svg11.dtd">
<!-- Generated by graphviz version 9.0.0 (20230911.1827)
 -->
<!-- Title: MainWindow::closeProject Pages: 1 -->
<!--zoomable 189 -->

<svg id="main" version="1.1" xmlns="http://www.w3.org/2000/svg" xmlns:xlink="http://www.w3.org/1999/xlink" xml:space="preserve" onload="init(evt)">
<style type="text/css"><![CDATA[
.node, .edge {opacity: 0.7;}
.node.selected, .edge.selected {opacity: 1;}
.edge:hover path { stroke: red; }
.edge:hover polygon { stroke: red; fill: red; }
]]></style>

<defs>
  <circle id="rim" cx="0" cy="0" r="7"/>
  <circle id="rim2" cx="0" cy="0" r="3.5"/>
  <g id="zoomPlus">
    <use xlink:href="#rim" fill="#404040"><set attributeName="fill" to="#808080" begin="zoomplus.mouseover" end="zoomplus.mouseout"/></use>
    <path d="M-4,0h8M0,-4v8" fill="none" stroke="white" stroke-width="1.5" pointer-events="none"/>
  </g>
  <g id="zoomMin">
    <use xlink:href="#rim" fill="#404040"><set attributeName="fill" to="#808080" begin="zoomminus.mouseover" end="zoomminus.mouseout"/></use>
    <path d="M-4,0h8" fill="none" stroke="white" stroke-width="1.5" pointer-events="none"/>
  </g>
  <g id="arrowUp" transform="translate(30 24)">
    <use xlink:href="#rim"/>
    <path pointer-events="none" fill="none" stroke="white" stroke-width="1.5" d="M0,-3.0v7 M-2.5,-0.5L0,-3.0L2.5,-0.5"/>
  </g>
  <g id="arrowRight" transform="rotate(90) translate(36 -43)">
    <use xlink:href="#rim"/>
    <path pointer-events="none" fill="none" stroke="white" stroke-width="1.5" d="M0,-3.0v7 M-2.5,-0.5L0,-3.0L2.5,-0.5"/>
  </g>
  <g id="arrowDown" transform="rotate(180) translate(-30 -48)">
    <use xlink:href="#rim"/>
    <path pointer-events="none" fill="none" stroke="white" stroke-width="1.5" d="M0,-3.0v7 M-2.5,-0.5L0,-3.0L2.5,-0.5"/>
  </g>
  <g id="arrowLeft" transform="rotate(270) translate(-36 17)">
    <use xlink:href="#rim"/>
    <path pointer-events="none" fill="none" stroke="white" stroke-width="1.5" d="M0,-3.0v7 M-2.5,-0.5L0,-3.0L2.5,-0.5"/>
  </g>
  <g id="resetDef">
    <use xlink:href="#rim2" fill="#404040"><set attributeName="fill" to="#808080" begin="reset.mouseover" end="reset.mouseout"/></use>
  </g>
</defs>
<script type="application/ecmascript">
var viewWidth = 668;
var viewHeight = 189;
var sectionId = 'dynsection-7';
</script>
<script type="application/ecmascript" xlink:href="../../svg.min.js"/>
<svg id="graph" class="graph">
<g id="viewport">
<title>MainWindow::closeProject</title>
<!-- Node1 -->
<g id="Node000001" class="node">
<title>Node1</title>
<g id="a_Node000001"><a xlink:title=" ">
<polygon fill="#999999" stroke="#666666" points="659.5,-94.25 529.5,-94.25 529.5,-75 659.5,-75 659.5,-94.25"/>
<text text-anchor="middle" x="594.5" y="-80.75" font-family="Helvetica,sans-Serif" font-size="10.00">MainWindow::closeProject</text>
</a>
</g>
</g>
<!-- Node2 -->
<g id="Node000002" class="node">
<title>Node2</title>
<g id="a_Node000002"><a xlink:href="../../d9/dc6/class_main_window.html#a189b458b701fa572969a22f8718ce5b0" target="_top" xlink:title=" ">
<polygon fill="white" stroke="#666666" points="318.5,-180.88 175.75,-180.88 175.75,-150.38 318.5,-150.38 318.5,-180.88"/>
<text text-anchor="start" x="183.75" y="-167.38" font-family="Helvetica,sans-Serif" font-size="10.00">MainWindow::on_actionClose</text>
<text text-anchor="middle" x="247.12" y="-156.12" font-family="Helvetica,sans-Serif" font-size="10.00">_triggered</text>
</a>
</g>
</g>
<!-- Node1&#45;&gt;Node2 -->
<g id="edge1_Node000001_Node000002" class="edge">
<title>Node1&#45;&gt;Node2</title>
<g id="a_edge1_Node000001_Node000002"><a xlink:title=" ">
<path fill="none" stroke="#63b8ff" d="M569.02,-100.57C549.41,-112.53 520.77,-128.23 493.5,-136.62 436.31,-154.23 368.58,-161.26 318.79,-164.01"/>
<polygon fill="#63b8ff" stroke="#63b8ff" points="570.75,-103.62 577.37,-95.35 567.04,-97.68 570.75,-103.62"/>
</a>
</g>
</g>
<!-- Node3 -->
<g id="Node000003" class="node">
<title>Node3</title>
<g id="a_Node000003"><a xlink:href="../../d9/dc6/class_main_window.html#abdb7e953826f7dcf308d32ddc75c3109" target="_top" xlink:title=" ">
<polygon fill="#fff0f0" stroke="red" points="139.75,-132.25 0,-132.25 0,-113 139.75,-113 139.75,-132.25"/>
<text text-anchor="middle" x="69.88" y="-118.75" font-family="Helvetica,sans-Serif" font-size="10.00">MainWindow::setupQmlView</text>
</a>
</g>
</g>
<!-- Node1&#45;&gt;Node3 -->
<g id="edge7_Node000001_Node000003" class="edge">
<title>Node1&#45;&gt;Node3</title>
<g id="a_edge7_Node000001_Node000003"><a xlink:title=" ">
<path fill="none" stroke="#63b8ff" d="M517.89,-95.88C509.67,-96.91 501.42,-97.85 493.5,-98.62 369.35,-110.82 224.02,-117.39 140.19,-120.44"/>
<polygon fill="#63b8ff" stroke="#63b8ff" points="518.07,-99.39 527.54,-94.64 517.17,-92.45 518.07,-99.39"/>
</a>
</g>
</g>
<!-- Node5 -->
<g id="Node000005" class="node">
<title>Node5</title>
<g id="a_Node000005"><a xlink:href="../../d9/dc6/class_main_window.html#aabba421121a791ec3aa10a742f37790a" target="_top" xlink:title=" ">
<polygon fill="#fff0f0" stroke="red" points="311,-94.25 183.25,-94.25 183.25,-75 311,-75 311,-94.25"/>
<text text-anchor="middle" x="247.12" y="-80.75" font-family="Helvetica,sans-Serif" font-size="10.00">MainWindow::openProject</text>
</a>
</g>
</g>
<!-- Node1&#45;&gt;Node5 -->
<g id="edge3_Node000001_Node000005" class="edge">
<title>Node1&#45;&gt;Node5</title>
<g id="a_edge3_Node000001_Node000005"><a xlink:title=" ">
<path fill="none" stroke="#63b8ff" d="M518.1,-84.62C456.23,-84.62 369.64,-84.62 311.35,-84.62"/>
<polygon fill="#63b8ff" stroke="#63b8ff" points="517.83,-88.13 527.83,-84.63 517.83,-81.13 517.83,-88.13"/>
</a>
</g>
</g>
<!-- Node8 -->
<g id="Node000008" class="node">
<title>Node8</title>
<g id="a_Node000008"><a xlink:href="../../d9/dc6/class_main_window.html#a2c2d7e1cdd309b698173f750f3d98738" target="_top" xlink:title=" ">
<polygon fill="white" stroke="#666666" points="493.5,-56.25 354.5,-56.25 354.5,-37 493.5,-37 493.5,-56.25"/>
<text text-anchor="middle" x="424" y="-42.75" font-family="Helvetica,sans-Serif" font-size="10.00">MainWindow::projectOpened</text>
</a>
</g>
</g>
<!-- Node1&#45;&gt;Node8 -->
<g id="edge5_Node000001_Node000008" class="edge">
<title>Node1&#45;&gt;Node8</title>
<g id="a_edge5_Node000001_Node000008"><a xlink:title=" ">
<path fill="none" stroke="#63b8ff" d="M537.85,-72.08C515.7,-67.08 490.55,-61.41 469.63,-56.69"/>
<polygon fill="#63b8ff" stroke="#63b8ff" points="536.79,-75.42 547.31,-74.21 538.33,-68.59 536.79,-75.42"/>
</a>
</g>
</g>
<!-- Node9 -->
<g id="Node000009" class="node">
<title>Node9</title>
<g id="a_Node000009"><a xlink:href="../../d9/dc6/class_main_window.html#ae98d00a93bc118200eeef9f9bba1dba7" target="_top" xlink:title=" ">
<polygon fill="white" stroke="#666666" points="492.38,-19.25 355.62,-19.25 355.62,0 492.38,0 492.38,-19.25"/>
<text text-anchor="middle" x="424" y="-5.75" font-family="Helvetica,sans-Serif" font-size="10.00">MainWindow::~MainWindow</text>
</a>
</g>
</g>
<!-- Node1&#45;&gt;Node9 -->
<g id="edge8_Node000001_Node000009" class="edge">
<title>Node1&#45;&gt;Node9</title>
<g id="a_edge8_Node000001_Node000009"><a xlink:title=" ">
<path fill="none" stroke="#63b8ff" d="M569.47,-68.54C549.76,-55.95 520.76,-38.75 493.5,-27.62 486.1,-24.6 478.04,-21.96 470.14,-19.69"/>
<polygon fill="#63b8ff" stroke="#63b8ff" points="567.31,-71.32 577.61,-73.83 571.13,-65.45 567.31,-71.32"/>
</a>
</g>
</g>
<!-- Node2&#45;&gt;Node3 -->
<g id="edge2_Node000002_Node000003" class="edge">
<title>Node2&#45;&gt;Node3</title>
<g id="a_edge2_Node000002_Node000003"><a xlink:title=" ">
<path fill="none" stroke="#63b8ff" d="M171.2,-147.24C150.88,-142.26 129.63,-137.04 111.95,-132.7"/>
<polygon fill="#63b8ff" stroke="#63b8ff" points="170.34,-150.63 180.89,-149.62 172.01,-143.84 170.34,-150.63"/>
</a>
</g>
</g>
<!-- Node5&#45;&gt;Node3 -->
<g id="edge4_Node000005_Node000003" class="edge">
<title>Node5&#45;&gt;Node3</title>
<g id="a_edge4_Node000005_Node000003"><a xlink:title=" ">
<path fill="none" stroke="#63b8ff" d="M188.56,-97.11C165.45,-102.12 139.15,-107.82 117.29,-112.56"/>
<polygon fill="#63b8ff" stroke="#63b8ff" points="189.11,-100.57 198.14,-95.03 187.63,-93.73 189.11,-100.57"/>
</a>
</g>
</g>
<!-- Node8&#45;&gt;Node5 -->
<g id="edge6_Node000008_Node000005" class="edge">
<title>Node8&#45;&gt;Node5</title>
<g id="a_edge6_Node000008_Node000005"><a xlink:title=" ">
<path fill="none" stroke="#63b8ff" d="M365.56,-59.11C342.49,-64.12 316.26,-69.82 294.44,-74.56"/>
<polygon fill="#63b8ff" stroke="#63b8ff" points="366.09,-62.57 375.12,-57.03 364.6,-55.73 366.09,-62.57"/>
</a>
</g>
</g>
</g>
</svg>

<g id="navigator" transform="translate(0 0)" fill="#404254">
  <rect fill="#f2f5e9" fill-opacity="0.5" stroke="#606060" stroke-width=".5" x="0" y="0" width="60" height="60"/>
  <use id="zoomplus" xlink:href="#zoomPlus" x="17" y="9" onmousedown="handleZoom(evt,'in')"/>
  <use id="zoomminus" xlink:href="#zoomMin" x="42" y="9" onmousedown="handleZoom(evt,'out')"/>
  <use id="reset" xlink:href="#resetDef" x="30" y="36" onmousedown="handleReset()"/>
   <use id="arrowup" xlink:href="#arrowUp" x="0" y="0" onmousedown="handlePan(0,-1)"/>
  <use id="arrowright" xlink:href="#arrowRight" x="0" y="0" onmousedown="handlePan(1,0)"/>
  <use id="arrowdown" xlink:href="#arrowDown" x="0" y="0" onmousedown="handlePan(0,1)"/>
  <use id="arrowleft" xlink:href="#arrowLeft" x="0" y="0" onmousedown="handlePan(-1,0)"/>
</g>
<svg viewBox="0 0 15 15" width="100%" height="30px" preserveAspectRatio="xMaxYMin meet">
 <g id="arrow_out" transform="scale(0.3 0.3)">
  <a xlink:href="class_main_window_a76ab638b4eb18b2624b882474d90f905_icgraph_org.svg" target="_base">
   <rect id="button" ry="5" rx="5" y="6" x="6" height="38" width="38"
        fill="#f2f5e9" fill-opacity="0.5" stroke="#606060" stroke-width="1.0"/>
   <path id="arrow"
     d="M 11.500037,31.436501 C 11.940474,20.09759 22.043105,11.32322 32.158766,21.979434 L 37.068811,17.246167 C 37.068811,17.246167 37.088388,32 37.088388,32 L 22.160133,31.978069 C 22.160133,31.978069 26.997745,27.140456 26.997745,27.140456 C 18.528582,18.264221 13.291696,25.230495 11.500037,31.436501 z"
     style="fill:#404040;"/>
  </a>
 </g>
</svg>

<style type='text/css'>
<![CDATA[
[data-mouse-over-selected='false'] { opacity: 0.7; }
[data-mouse-over-selected='true']  { opacity: 1.0; }
]]>
</style>
<script type="application/ecmascript"><![CDATA[
document.addEventListener('DOMContentLoaded', (event) => {
  highlightEdges();
  highlightAdjacentNodes();
});
]]></script>
</svg>
