<?xml version="1.0" encoding="UTF-8" standalone="no"?>
<!DOCTYPE svg PUBLIC "-//W3C//DTD SVG 1.1//EN"
 "http://www.w3.org/Graphics/SVG/1.1/DTD/svg11.dtd">
<!-- Generated by graphviz version 9.0.0 (20230911.1827)
 -->
<!-- Title: MainWindow::closeProject Pages: 1 -->
<svg width="668pt" height="189pt"
 viewBox="0.00 0.00 667.50 188.88" xmlns="http://www.w3.org/2000/svg" xmlns:xlink="http://www.w3.org/1999/xlink">
<g id="graph0" class="graph" transform="scale(1 1) rotate(0) translate(4 184.88)">
<title>MainWindow::closeProject</title>
<!-- Node1 -->
<g id="Node000001" class="node">
<title>Node1</title>
<g id="a_Node000001"><a xlink:title=" ">
<polygon fill="#999999" stroke="#666666" points="659.5,-94.25 529.5,-94.25 529.5,-75 659.5,-75 659.5,-94.25"/>
<text text-anchor="middle" x="594.5" y="-80.75" font-family="Helvetica,sans-Serif" font-size="10.00">MainWindow::closeProject</text>
</a>
</g>
</g>
<!-- Node2 -->
<g id="Node000002" class="node">
<title>Node2</title>
<g id="a_Node000002"><a xlink:href="../../d9/dc6/class_main_window.html#a189b458b701fa572969a22f8718ce5b0" target="_top" xlink:title=" ">
<polygon fill="white" stroke="#666666" points="318.5,-180.88 175.75,-180.88 175.75,-150.38 318.5,-150.38 318.5,-180.88"/>
<text text-anchor="start" x="183.75" y="-167.38" font-family="Helvetica,sans-Serif" font-size="10.00">MainWindow::on_actionClose</text>
<text text-anchor="middle" x="247.12" y="-156.12" font-family="Helvetica,sans-Serif" font-size="10.00">_triggered</text>
</a>
</g>
</g>
<!-- Node1&#45;&gt;Node2 -->
<g id="edge1_Node000001_Node000002" class="edge">
<title>Node1&#45;&gt;Node2</title>
<g id="a_edge1_Node000001_Node000002"><a xlink:title=" ">
<path fill="none" stroke="#63b8ff" d="M569.02,-100.57C549.41,-112.53 520.77,-128.23 493.5,-136.62 436.31,-154.23 368.58,-161.26 318.79,-164.01"/>
<polygon fill="#63b8ff" stroke="#63b8ff" points="570.75,-103.62 577.37,-95.35 567.04,-97.68 570.75,-103.62"/>
</a>
</g>
</g>
<!-- Node3 -->
<g id="Node000003" class="node">
<title>Node3</title>
<g id="a_Node000003"><a xlink:href="../../d9/dc6/class_main_window.html#abdb7e953826f7dcf308d32ddc75c3109" target="_top" xlink:title=" ">
<polygon fill="#fff0f0" stroke="red" points="139.75,-132.25 0,-132.25 0,-113 139.75,-113 139.75,-132.25"/>
<text text-anchor="middle" x="69.88" y="-118.75" font-family="Helvetica,sans-Serif" font-size="10.00">MainWindow::setupQmlView</text>
</a>
</g>
</g>
<!-- Node1&#45;&gt;Node3 -->
<g id="edge7_Node000001_Node000003" class="edge">
<title>Node1&#45;&gt;Node3</title>
<g id="a_edge7_Node000001_Node000003"><a xlink:title=" ">
<path fill="none" stroke="#63b8ff" d="M517.89,-95.88C509.67,-96.91 501.42,-97.85 493.5,-98.62 369.35,-110.82 224.02,-117.39 140.19,-120.44"/>
<polygon fill="#63b8ff" stroke="#63b8ff" points="518.07,-99.39 527.54,-94.64 517.17,-92.45 518.07,-99.39"/>
</a>
</g>
</g>
<!-- Node5 -->
<g id="Node000005" class="node">
<title>Node5</title>
<g id="a_Node000005"><a xlink:href="../../d9/dc6/class_main_window.html#aabba421121a791ec3aa10a742f37790a" target="_top" xlink:title=" ">
<polygon fill="#fff0f0" stroke="red" points="311,-94.25 183.25,-94.25 183.25,-75 311,-75 311,-94.25"/>
<text text-anchor="middle" x="247.12" y="-80.75" font-family="Helvetica,sans-Serif" font-size="10.00">MainWindow::openProject</text>
</a>
</g>
</g>
<!-- Node1&#45;&gt;Node5 -->
<g id="edge3_Node000001_Node000005" class="edge">
<title>Node1&#45;&gt;Node5</title>
<g id="a_edge3_Node000001_Node000005"><a xlink:title=" ">
<path fill="none" stroke="#63b8ff" d="M518.1,-84.62C456.23,-84.62 369.64,-84.62 311.35,-84.62"/>
<polygon fill="#63b8ff" stroke="#63b8ff" points="517.83,-88.13 527.83,-84.63 517.83,-81.13 517.83,-88.13"/>
</a>
</g>
</g>
<!-- Node8 -->
<g id="Node000008" class="node">
<title>Node8</title>
<g id="a_Node000008"><a xlink:href="../../d9/dc6/class_main_window.html#a2c2d7e1cdd309b698173f750f3d98738" target="_top" xlink:title=" ">
<polygon fill="white" stroke="#666666" points="493.5,-56.25 354.5,-56.25 354.5,-37 493.5,-37 493.5,-56.25"/>
<text text-anchor="middle" x="424" y="-42.75" font-family="Helvetica,sans-Serif" font-size="10.00">MainWindow::projectOpened</text>
</a>
</g>
</g>
<!-- Node1&#45;&gt;Node8 -->
<g id="edge5_Node000001_Node000008" class="edge">
<title>Node1&#45;&gt;Node8</title>
<g id="a_edge5_Node000001_Node000008"><a xlink:title=" ">
<path fill="none" stroke="#63b8ff" d="M537.85,-72.08C515.7,-67.08 490.55,-61.41 469.63,-56.69"/>
<polygon fill="#63b8ff" stroke="#63b8ff" points="536.79,-75.42 547.31,-74.21 538.33,-68.59 536.79,-75.42"/>
</a>
</g>
</g>
<!-- Node9 -->
<g id="Node000009" class="node">
<title>Node9</title>
<g id="a_Node000009"><a xlink:href="../../d9/dc6/class_main_window.html#ae98d00a93bc118200eeef9f9bba1dba7" target="_top" xlink:title=" ">
<polygon fill="white" stroke="#666666" points="492.38,-19.25 355.62,-19.25 355.62,0 492.38,0 492.38,-19.25"/>
<text text-anchor="middle" x="424" y="-5.75" font-family="Helvetica,sans-Serif" font-size="10.00">MainWindow::~MainWindow</text>
</a>
</g>
</g>
<!-- Node1&#45;&gt;Node9 -->
<g id="edge8_Node000001_Node000009" class="edge">
<title>Node1&#45;&gt;Node9</title>
<g id="a_edge8_Node000001_Node000009"><a xlink:title=" ">
<path fill="none" stroke="#63b8ff" d="M569.47,-68.54C549.76,-55.95 520.76,-38.75 493.5,-27.62 486.1,-24.6 478.04,-21.96 470.14,-19.69"/>
<polygon fill="#63b8ff" stroke="#63b8ff" points="567.31,-71.32 577.61,-73.83 571.13,-65.45 567.31,-71.32"/>
</a>
</g>
</g>
<!-- Node2&#45;&gt;Node3 -->
<g id="edge2_Node000002_Node000003" class="edge">
<title>Node2&#45;&gt;Node3</title>
<g id="a_edge2_Node000002_Node000003"><a xlink:title=" ">
<path fill="none" stroke="#63b8ff" d="M171.2,-147.24C150.88,-142.26 129.63,-137.04 111.95,-132.7"/>
<polygon fill="#63b8ff" stroke="#63b8ff" points="170.34,-150.63 180.89,-149.62 172.01,-143.84 170.34,-150.63"/>
</a>
</g>
</g>
<!-- Node5&#45;&gt;Node3 -->
<g id="edge4_Node000005_Node000003" class="edge">
<title>Node5&#45;&gt;Node3</title>
<g id="a_edge4_Node000005_Node000003"><a xlink:title=" ">
<path fill="none" stroke="#63b8ff" d="M188.56,-97.11C165.45,-102.12 139.15,-107.82 117.29,-112.56"/>
<polygon fill="#63b8ff" stroke="#63b8ff" points="189.11,-100.57 198.14,-95.03 187.63,-93.73 189.11,-100.57"/>
</a>
</g>
</g>
<!-- Node8&#45;&gt;Node5 -->
<g id="edge6_Node000008_Node000005" class="edge">
<title>Node8&#45;&gt;Node5</title>
<g id="a_edge6_Node000008_Node000005"><a xlink:title=" ">
<path fill="none" stroke="#63b8ff" d="M365.56,-59.11C342.49,-64.12 316.26,-69.82 294.44,-74.56"/>
<polygon fill="#63b8ff" stroke="#63b8ff" points="366.09,-62.57 375.12,-57.03 364.6,-55.73 366.09,-62.57"/>
</a>
</g>
</g>
</g>
</svg>
