<?xml version="1.0" encoding="UTF-8" standalone="no"?>
<!DOCTYPE svg PUBLIC "-//W3C//DTD SVG 1.1//EN"
 "http://www.w3.org/Graphics/SVG/1.1/DTD/svg11.dtd">
<!-- Generated by graphviz version 7.0.5 (20221223.1930)
 -->
<!-- Title: MainWindow::loadRecentCollections Pages: 1 -->
<svg width="357pt" height="113pt"
 viewBox="0.00 0.00 357.00 112.50" xmlns="http://www.w3.org/2000/svg" xmlns:xlink="http://www.w3.org/1999/xlink">
<g id="graph0" class="graph" transform="scale(1 1) rotate(0) translate(4 108.5)">
<title>MainWindow::loadRecentCollections</title>
<!-- Node1 -->
<g id="node1" class="node">
<title>Node1</title>
<g id="a_node1"><a xlink:title=" ">
<polygon fill="#999999" stroke="#666666" points="173,-67.5 0,-67.5 0,-48.5 173,-48.5 173,-67.5"/>
<text text-anchor="middle" x="86.5" y="-55.5" font-family="Helvetica,sans-Serif" font-size="10.00">MainWindow::loadRecentCollections</text>
</a>
</g>
</g>
<!-- Node2 -->
<g id="node2" class="node">
<title>Node2</title>
<g id="a_node2"><a xlink:href="../../d7/db4/struct_i_configuration.html#a56f21aac17f8a84e7c708081b922f595" target="_top" xlink:title=" ">
<polygon fill="white" stroke="#666666" points="337,-104.5 221,-104.5 221,-85.5 337,-85.5 337,-104.5"/>
<text text-anchor="middle" x="279" y="-92.5" font-family="Helvetica,sans-Serif" font-size="10.00">IConfiguration::getEntry</text>
</a>
</g>
</g>
<!-- Node1&#45;&gt;Node2 -->
<g id="edge1" class="edge">
<title>Node1&#45;&gt;Node2</title>
<path fill="none" stroke="#63b8ff" d="M138.8,-67.96C162.41,-72.55 190.62,-78.03 215.46,-82.85"/>
<polygon fill="#63b8ff" stroke="#63b8ff" points="214.64,-86.26 225.12,-84.73 215.97,-79.39 214.64,-86.26"/>
</g>
<!-- Node3 -->
<g id="node3" class="node">
<title>Node3</title>
<g id="a_node3"><a xlink:href="../../df/db2/class_objects_accessor.html#adcde9d95f2bbdd55714d9bd9bb3efce4" target="_top" xlink:title=" ">
<polygon fill="white" stroke="#666666" points="345.5,-67.5 212.5,-67.5 212.5,-48.5 345.5,-48.5 345.5,-67.5"/>
<text text-anchor="middle" x="279" y="-55.5" font-family="Helvetica,sans-Serif" font-size="10.00">ObjectsAccessor::instance</text>
</a>
</g>
</g>
<!-- Node1&#45;&gt;Node3 -->
<g id="edge2" class="edge">
<title>Node1&#45;&gt;Node3</title>
<path fill="none" stroke="#63b8ff" d="M173.28,-58C182.44,-58 191.73,-58 200.78,-58"/>
<polygon fill="#63b8ff" stroke="#63b8ff" points="200.6,-61.5 210.6,-58 200.6,-54.5 200.6,-61.5"/>
</g>
<!-- Node4 -->
<g id="node4" class="node">
<title>Node4</title>
<g id="a_node4"><a xlink:href="../../df/db2/class_objects_accessor.html#a8922ac7c16e27cd5ed94e7b1e8d20ce8" target="_top" xlink:title=" ">
<polygon fill="white" stroke="#666666" points="349,-30 209,-30 209,0 349,0 349,-30"/>
<text text-anchor="start" x="217" y="-18" font-family="Helvetica,sans-Serif" font-size="10.00">ObjectsAccessor::setRecent</text>
<text text-anchor="middle" x="279" y="-7" font-family="Helvetica,sans-Serif" font-size="10.00">Projects</text>
</a>
</g>
</g>
<!-- Node1&#45;&gt;Node4 -->
<g id="edge3" class="edge">
<title>Node1&#45;&gt;Node4</title>
<path fill="none" stroke="#63b8ff" d="M131.68,-48.03C151.52,-43.55 175.55,-38.13 198.35,-32.98"/>
<polygon fill="#63b8ff" stroke="#63b8ff" points="198.97,-36.43 207.95,-30.81 197.43,-29.6 198.97,-36.43"/>
</g>
</g>
</svg>
