<?xml version="1.0" encoding="UTF-8" standalone="no"?>
<!DOCTYPE svg PUBLIC "-//W3C//DTD SVG 1.1//EN"
 "http://www.w3.org/Graphics/SVG/1.1/DTD/svg11.dtd">
<!-- Generated by graphviz version 9.0.0 (20230911.1827)
 -->
<!-- Title: MainWindow::on_actionNew_collection_triggered Pages: 1 -->
<svg width="448pt" height="140pt"
 viewBox="0.00 0.00 447.50 140.25" xmlns="http://www.w3.org/2000/svg" xmlns:xlink="http://www.w3.org/1999/xlink">

<svg id="main" version="1.1" xmlns="http://www.w3.org/2000/svg" xmlns:xlink="http://www.w3.org/1999/xlink" xml:space="preserve" onload="init(evt)">
<style type="text/css"><![CDATA[
.node, .edge {opacity: 0.7;}
.node.selected, .edge.selected {opacity: 1;}
.edge:hover path { stroke: red; }
.edge:hover polygon { stroke: red; fill: red; }
]]></style>
<script type="application/ecmascript" xlink:href="../../svg.min.js"/>
<svg id="graph" class="graph">
<g id="graph0" class="graph" transform="scale(1 1) rotate(0) translate(4 136.25)">
<title>MainWindow::on_actionNew_collection_triggered</title>
<!-- Node1 -->
<g id="Node000001" class="node">
<title>Node1</title>
<g id="a_Node000001"><a xlink:title=" ">
<polygon fill="#999999" stroke="#666666" points="138.25,-80.88 0,-80.88 0,-50.38 138.25,-50.38 138.25,-80.88"/>
<text text-anchor="start" x="8" y="-67.38" font-family="Helvetica,sans-Serif" font-size="10.00">MainWindow::on_actionNew</text>
<text text-anchor="middle" x="69.12" y="-56.12" font-family="Helvetica,sans-Serif" font-size="10.00">_collection_triggered</text>
</a>
</g>
</g>
<!-- Node2 -->
<g id="Node000002" class="node">
<title>Node2</title>
<g id="a_Node000002"><a xlink:href="../../d3/d16/class_project_creator.html#ac44110bce200c391b2e2c70d6c2ad177" target="_top" xlink:title=" ">
<polygon fill="#fff0f0" stroke="red" points="293,-132.25 183.25,-132.25 183.25,-113 293,-113 293,-132.25"/>
<text text-anchor="middle" x="238.12" y="-118.75" font-family="Helvetica,sans-Serif" font-size="10.00">ProjectCreator::create</text>
</a>
</g>
</g>
<!-- Node1&#45;&gt;Node2 -->
<g id="edge1_Node000001_Node000002" class="edge">
<title>Node1&#45;&gt;Node2</title>
<g id="a_edge1_Node000001_Node000002"><a xlink:title=" ">
<path fill="none" stroke="#63b8ff" d="M116.2,-81.35C141.48,-89.98 172.54,-100.58 196.85,-108.88"/>
<polygon fill="#63b8ff" stroke="#63b8ff" points="195.47,-112.11 206.07,-112.02 197.73,-105.48 195.47,-112.11"/>
</a>
</g>
</g>
<!-- Node14 -->
<g id="Node000014" class="node">
<title>Node14</title>
<g id="a_Node000014"><a xlink:href="../../da/df4/struct_project_info.html#a781e4f7abfbb6dce848bc1f0e6e46c55" target="_top" xlink:title=" ">
<polygon fill="white" stroke="#666666" points="439.5,-75.25 338,-75.25 338,-56 439.5,-56 439.5,-75.25"/>
<text text-anchor="middle" x="388.75" y="-61.75" font-family="Helvetica,sans-Serif" font-size="10.00">ProjectInfo::getPath</text>
</a>
</g>
</g>
<!-- Node1&#45;&gt;Node14 -->
<g id="edge2_Node000001_Node000014" class="edge">
<title>Node1&#45;&gt;Node14</title>
<g id="a_edge2_Node000001_Node000014"><a xlink:title=" ">
<path fill="none" stroke="#63b8ff" d="M138.65,-65.62C194.38,-65.62 272.32,-65.62 326.11,-65.62"/>
<polygon fill="#63b8ff" stroke="#63b8ff" points="326.02,-69.13 336.02,-65.63 326.02,-62.13 326.02,-69.13"/>
</a>
</g>
</g>
<!-- Node15 -->
<g id="Node000015" class="node">
<title>Node15</title>
<g id="a_Node000015"><a xlink:href="../../d9/dc6/class_main_window.html#aabba421121a791ec3aa10a742f37790a" target="_top" xlink:title=" ">
<polygon fill="#fff0f0" stroke="red" points="302,-56.25 174.25,-56.25 174.25,-37 302,-37 302,-56.25"/>
<text text-anchor="middle" x="238.12" y="-42.75" font-family="Helvetica,sans-Serif" font-size="10.00">MainWindow::openProject</text>
</a>
</g>
</g>
<!-- Node1&#45;&gt;Node15 -->
<g id="edge3_Node000001_Node000015" class="edge">
<title>Node1&#45;&gt;Node15</title>
<g id="a_edge3_Node000001_Node000015"><a xlink:title=" ">
<path fill="none" stroke="#63b8ff" d="M138.53,-57.84C146.49,-56.94 154.64,-56.01 162.67,-55.1"/>
<polygon fill="#63b8ff" stroke="#63b8ff" points="162.88,-58.59 172.42,-53.99 162.09,-51.64 162.88,-58.59"/>
</a>
</g>
</g>
<!-- Node33 -->
<g id="Node000033" class="node">
<title>Node33</title>
<g id="a_Node000033"><a xlink:href="../../d3/d16/class_project_creator.html#a1c7830727a6ec1e3687f68bd9fcd2c21" target="_top" xlink:title=" ">
<polygon fill="white" stroke="#666666" points="294.12,-19.25 182.12,-19.25 182.12,0 294.12,0 294.12,-19.25"/>
<text text-anchor="middle" x="238.12" y="-5.75" font-family="Helvetica,sans-Serif" font-size="10.00">ProjectCreator::project</text>
</a>
</g>
</g>
<!-- Node1&#45;&gt;Node33 -->
<g id="edge5_Node000001_Node000033" class="edge">
<title>Node1&#45;&gt;Node33</title>
<g id="a_edge5_Node000001_Node000033"><a xlink:title=" ">
<path fill="none" stroke="#63b8ff" d="M110.94,-49.97C130.06,-42.83 153.2,-34.47 174.25,-27.62 179.25,-26 184.5,-24.37 189.74,-22.8"/>
<polygon fill="#63b8ff" stroke="#63b8ff" points="190.36,-26.26 198.97,-20.09 188.39,-19.55 190.36,-26.26"/>
</a>
</g>
</g>
<!-- Node15&#45;&gt;Node14 -->
<g id="edge4_Node000015_Node000014" class="edge">
<title>Node15&#45;&gt;Node14</title>
<g id="a_edge4_Node000015_Node000014"><a xlink:title=" ">
<path fill="none" stroke="#63b8ff" d="M302.16,-54.68C310.22,-55.71 318.47,-56.77 326.51,-57.8"/>
<polygon fill="#63b8ff" stroke="#63b8ff" points="325.82,-61.24 336.19,-59.03 326.71,-54.29 325.82,-61.24"/>
</a>
</g>
</g>
</g>
</svg>
</svg>

<style type='text/css'>
<![CDATA[
[data-mouse-over-selected='false'] { opacity: 0.7; }
[data-mouse-over-selected='true']  { opacity: 1.0; }
]]>
</style>
<script type="application/ecmascript"><![CDATA[
document.addEventListener('DOMContentLoaded', (event) => {
  highlightEdges();
  highlightAdjacentNodes();
});
]]></script>
</svg>
