<?xml version="1.0" encoding="UTF-8" standalone="no"?>
<!DOCTYPE svg PUBLIC "-//W3C//DTD SVG 1.1//EN"
 "http://www.w3.org/Graphics/SVG/1.1/DTD/svg11.dtd">
<!-- Generated by graphviz version 7.0.5 (20221223.1930)
 -->
<!-- Title: src/gui/desktop/utils/collection_scanner.hpp Pages: 1 -->
<svg width="608pt" height="148pt"
 viewBox="0.00 0.00 607.50 148.00" xmlns="http://www.w3.org/2000/svg" xmlns:xlink="http://www.w3.org/1999/xlink">
<g id="graph0" class="graph" transform="scale(1 1) rotate(0) translate(4 144)">
<title>src/gui/desktop/utils/collection_scanner.hpp</title>
<!-- Node1 -->
<g id="node1" class="node">
<title>Node1</title>
<g id="a_node1"><a xlink:title=" ">
<polygon fill="#999999" stroke="#666666" points="281.5,-140 162.5,-140 162.5,-110 281.5,-110 281.5,-140"/>
<text text-anchor="start" x="170.5" y="-128" font-family="Helvetica,sans-Serif" font-size="10.00">src/gui/desktop/utils</text>
<text text-anchor="middle" x="222" y="-117" font-family="Helvetica,sans-Serif" font-size="10.00">/collection_scanner.hpp</text>
</a>
</g>
</g>
<!-- Node2 -->
<g id="node2" class="node">
<title>Node2</title>
<g id="a_node2"><a xlink:title=" ">
<polygon fill="#e0e0e0" stroke="#999999" points="46,-74 0,-74 0,-55 46,-55 46,-74"/>
<text text-anchor="middle" x="23" y="-62" font-family="Helvetica,sans-Serif" font-size="10.00">atomic</text>
</a>
</g>
</g>
<!-- Node1&#45;&gt;Node2 -->
<g id="edge1" class="edge">
<title>Node1&#45;&gt;Node2</title>
<path fill="none" stroke="#63b8ff" d="M172.81,-109.54C136.93,-98.99 89.21,-84.96 57.37,-75.6"/>
<polygon fill="#63b8ff" stroke="#63b8ff" points="58.44,-72.27 47.86,-72.81 56.46,-78.99 58.44,-72.27"/>
</g>
<!-- Node3 -->
<g id="node3" class="node">
<title>Node3</title>
<g id="a_node3"><a xlink:title=" ">
<polygon fill="#e0e0e0" stroke="#999999" points="196,-19 166,-19 166,0 196,0 196,-19"/>
<text text-anchor="middle" x="181" y="-7" font-family="Helvetica,sans-Serif" font-size="10.00">set</text>
</a>
</g>
</g>
<!-- Node1&#45;&gt;Node3 -->
<g id="edge2" class="edge">
<title>Node1&#45;&gt;Node3</title>
<path fill="none" stroke="#63b8ff" d="M162.25,-116.03C136.47,-109.3 108.68,-96.89 93,-74 74.32,-46.73 122.58,-27.01 154.8,-17.3"/>
<polygon fill="#63b8ff" stroke="#63b8ff" points="155.67,-20.69 164.33,-14.6 153.76,-13.96 155.67,-20.69"/>
</g>
<!-- Node4 -->
<g id="node4" class="node">
<title>Node4</title>
<g id="a_node4"><a xlink:href="../../d7/d76/itasks__view_8hpp.html" target="_top" xlink:title=" ">
<polygon fill="#fff0f0" stroke="red" points="210,-74 102,-74 102,-55 210,-55 210,-74"/>
<text text-anchor="middle" x="156" y="-62" font-family="Helvetica,sans-Serif" font-size="10.00">core/itasks_view.hpp</text>
</a>
</g>
</g>
<!-- Node1&#45;&gt;Node4 -->
<g id="edge3" class="edge">
<title>Node1&#45;&gt;Node4</title>
<path fill="none" stroke="#63b8ff" d="M205.69,-109.54C196.2,-101.13 184.21,-90.51 174.39,-81.8"/>
<polygon fill="#63b8ff" stroke="#63b8ff" points="176.73,-79.19 166.92,-75.18 172.08,-84.43 176.73,-79.19"/>
</g>
<!-- Node6 -->
<g id="node5" class="node">
<title>Node6</title>
<g id="a_node5"><a xlink:href="../../d7/d2b/idatabase_8hpp.html" target="_top" xlink:title=" ">
<polygon fill="#fff0f0" stroke="red" points="347.5,-74 228.5,-74 228.5,-55 347.5,-55 347.5,-74"/>
<text text-anchor="middle" x="288" y="-62" font-family="Helvetica,sans-Serif" font-size="10.00">database/idatabase.hpp</text>
</a>
</g>
</g>
<!-- Node1&#45;&gt;Node6 -->
<g id="edge4" class="edge">
<title>Node1&#45;&gt;Node6</title>
<path fill="none" stroke="#63b8ff" d="M238.31,-109.54C247.8,-101.13 259.79,-90.51 269.61,-81.8"/>
<polygon fill="#63b8ff" stroke="#63b8ff" points="271.92,-84.43 277.08,-75.18 267.27,-79.19 271.92,-84.43"/>
</g>
<!-- Node46 -->
<g id="node6" class="node">
<title>Node46</title>
<g id="a_node6"><a xlink:href="../../d6/d50/photos__collector_8hpp.html" target="_top" xlink:title=" ">
<polygon fill="#fff0f0" stroke="red" points="492.5,-74 365.5,-74 365.5,-55 492.5,-55 492.5,-74"/>
<text text-anchor="middle" x="429" y="-62" font-family="Helvetica,sans-Serif" font-size="10.00">utils/photos_collector.hpp</text>
</a>
</g>
</g>
<!-- Node1&#45;&gt;Node46 -->
<g id="edge6" class="edge">
<title>Node1&#45;&gt;Node46</title>
<path fill="none" stroke="#63b8ff" d="M273.17,-109.54C307.97,-99.7 353.5,-86.84 386.34,-77.56"/>
<polygon fill="#63b8ff" stroke="#63b8ff" points="387.27,-80.93 395.94,-74.84 385.36,-74.2 387.27,-80.93"/>
</g>
<!-- Node50 -->
<g id="node7" class="node">
<title>Node50</title>
<g id="a_node7"><a xlink:href="../../d7/d64/inotifications_8hpp.html" target="_top" xlink:title=" ">
<polygon fill="#fff0f0" stroke="red" points="599.5,-74 510.5,-74 510.5,-55 599.5,-55 599.5,-74"/>
<text text-anchor="middle" x="555" y="-62" font-family="Helvetica,sans-Serif" font-size="10.00">inotifications.hpp</text>
</a>
</g>
</g>
<!-- Node1&#45;&gt;Node50 -->
<g id="edge7" class="edge">
<title>Node1&#45;&gt;Node50</title>
<path fill="none" stroke="#63b8ff" d="M281.92,-113.47C343.58,-102.64 438.88,-85.9 499.04,-75.33"/>
<polygon fill="#63b8ff" stroke="#63b8ff" points="499.49,-78.81 508.73,-73.63 498.27,-71.91 499.49,-78.81"/>
</g>
<!-- Node6&#45;&gt;Node3 -->
<g id="edge5" class="edge">
<title>Node6&#45;&gt;Node3</title>
<path fill="none" stroke="#63b8ff" d="M269.85,-54.51C252.52,-45.93 226.24,-32.91 206.76,-23.26"/>
<polygon fill="#63b8ff" stroke="#63b8ff" points="208.33,-20.13 197.81,-18.83 205.22,-26.4 208.33,-20.13"/>
</g>
</g>
</svg>
