<?xml version="1.0" encoding="UTF-8" standalone="no"?>
<!DOCTYPE svg PUBLIC "-//W3C//DTD SVG 1.1//EN"
 "http://www.w3.org/Graphics/SVG/1.1/DTD/svg11.dtd">
<!-- Generated by graphviz version 12.2.0 (20241103.1931)
 -->
<!-- Title: src/database/backends/sql_backends/sqlite_backend/backend.hpp Pages: 1 -->
<svg width="581pt" height="128pt"
 viewBox="0.00 0.00 580.75 127.50" xmlns="http://www.w3.org/2000/svg" xmlns:xlink="http://www.w3.org/1999/xlink">
<g id="graph0" class="graph" transform="scale(1 1) rotate(0) translate(4 123.5)">
<title>src/database/backends/sql_backends/sqlite_backend/backend.hpp</title>
<!-- Node1 -->
<g id="Node000001" class="node">
<title>Node1</title>
<g id="a_Node000001"><a xlink:title=" ">
<polygon fill="#999999" stroke="#666666" points="327.25,-119.5 210,-119.5 210,-77.75 327.25,-77.75 327.25,-119.5"/>
<text text-anchor="start" x="218" y="-106" font-family="Helvetica,sans-Serif" font-size="10.00">src/database/backends</text>
<text text-anchor="start" x="218" y="-94.75" font-family="Helvetica,sans-Serif" font-size="10.00">/sql_backends/sqlite</text>
<text text-anchor="middle" x="268.62" y="-83.5" font-family="Helvetica,sans-Serif" font-size="10.00">_backend/backend.hpp</text>
</a>
</g>
</g>
<!-- Node2 -->
<g id="Node000002" class="node">
<title>Node2</title>
<g id="a_Node000002"><a xlink:href="../../d6/d95/sqlite__backend_2backend_8cpp.html" target="_top" xlink:title=" ">
<polygon fill="white" stroke="#666666" points="117.25,-41.75 0,-41.75 0,0 117.25,0 117.25,-41.75"/>
<text text-anchor="start" x="8" y="-28.25" font-family="Helvetica,sans-Serif" font-size="10.00">src/database/backends</text>
<text text-anchor="start" x="8" y="-17" font-family="Helvetica,sans-Serif" font-size="10.00">/sql_backends/sqlite</text>
<text text-anchor="middle" x="58.62" y="-5.75" font-family="Helvetica,sans-Serif" font-size="10.00">_backend/backend.cpp</text>
</a>
</g>
</g>
<!-- Node1&#45;&gt;Node2 -->
<g id="edge1_Node000001_Node000002" class="edge">
<title>Node1&#45;&gt;Node2</title>
<g id="a_edge1_Node000001_Node000002"><a xlink:title=" ">
<path fill="none" stroke="#63b8ff" d="M201.86,-73.54C173.92,-63.46 141.79,-51.88 115.06,-42.23"/>
<polygon fill="#63b8ff" stroke="#63b8ff" points="200.33,-76.71 210.93,-76.81 202.71,-70.13 200.33,-76.71"/>
</a>
</g>
</g>
<!-- Node3 -->
<g id="Node000003" class="node">
<title>Node3</title>
<g id="a_Node000003"><a xlink:href="../../d1/d44/plugin_8cpp.html" target="_top" xlink:title=" ">
<polygon fill="white" stroke="#666666" points="252.25,-41.75 135,-41.75 135,0 252.25,0 252.25,-41.75"/>
<text text-anchor="start" x="143" y="-28.25" font-family="Helvetica,sans-Serif" font-size="10.00">src/database/backends</text>
<text text-anchor="start" x="143" y="-17" font-family="Helvetica,sans-Serif" font-size="10.00">/sql_backends/sqlite</text>
<text text-anchor="middle" x="193.62" y="-5.75" font-family="Helvetica,sans-Serif" font-size="10.00">_backend/plugin.cpp</text>
</a>
</g>
</g>
<!-- Node1&#45;&gt;Node3 -->
<g id="edge2_Node000001_Node000003" class="edge">
<title>Node1&#45;&gt;Node3</title>
<g id="a_edge2_Node000001_Node000003"><a xlink:title=" ">
<path fill="none" stroke="#63b8ff" d="M240.62,-69.34C231.7,-60.34 222.02,-50.56 213.78,-42.23"/>
<polygon fill="#63b8ff" stroke="#63b8ff" points="237.94,-71.61 247.46,-76.25 242.91,-66.68 237.94,-71.61"/>
</a>
</g>
</g>
<!-- Node4 -->
<g id="Node000004" class="node">
<title>Node4</title>
<g id="a_Node000004"><a xlink:href="../../db/d64/photo__fetch__benchmarks_8cpp.html" target="_top" xlink:title=" ">
<polygon fill="white" stroke="#666666" points="416.88,-36.12 270.38,-36.12 270.38,-5.62 416.88,-5.62 416.88,-36.12"/>
<text text-anchor="start" x="278.38" y="-22.62" font-family="Helvetica,sans-Serif" font-size="10.00">src/database/benchmarks</text>
<text text-anchor="middle" x="343.62" y="-11.38" font-family="Helvetica,sans-Serif" font-size="10.00">/photo_fetch_benchmarks.cpp</text>
</a>
</g>
</g>
<!-- Node1&#45;&gt;Node4 -->
<g id="edge3_Node000001_Node000004" class="edge">
<title>Node1&#45;&gt;Node4</title>
<g id="a_edge3_Node000001_Node000004"><a xlink:title=" ">
<path fill="none" stroke="#63b8ff" d="M296.59,-69.38C307.77,-58.09 320.16,-45.58 329.41,-36.23"/>
<polygon fill="#63b8ff" stroke="#63b8ff" points="294.34,-66.68 289.79,-76.25 299.31,-71.61 294.34,-66.68"/>
</a>
</g>
</g>
<!-- Node5 -->
<g id="Node000005" class="node">
<title>Node5</title>
<g id="a_Node000005"><a xlink:href="../../dd/d3a/common_8hpp.html" target="_top" xlink:title=" ">
<polygon fill="#fff0f0" stroke="red" points="572.75,-36.12 434.5,-36.12 434.5,-5.62 572.75,-5.62 572.75,-36.12"/>
<text text-anchor="start" x="442.5" y="-22.62" font-family="Helvetica,sans-Serif" font-size="10.00">src/database/unit_tests</text>
<text text-anchor="middle" x="503.62" y="-11.38" font-family="Helvetica,sans-Serif" font-size="10.00">_for_backends/common.hpp</text>
</a>
</g>
</g>
<!-- Node1&#45;&gt;Node5 -->
<g id="edge4_Node000001_Node000005" class="edge">
<title>Node1&#45;&gt;Node5</title>
<g id="a_edge4_Node000001_Node000005"><a xlink:title=" ">
<path fill="none" stroke="#63b8ff" d="M338.29,-75.17C376.95,-62.71 423.95,-47.56 457.94,-36.6"/>
<polygon fill="#63b8ff" stroke="#63b8ff" points="337.51,-71.74 329.06,-78.14 339.65,-78.41 337.51,-71.74"/>
</a>
</g>
</g>
</g>
</svg>
