<?xml version="1.0" encoding="UTF-8" standalone="no"?>
<!DOCTYPE svg PUBLIC "-//W3C//DTD SVG 1.1//EN"
 "http://www.w3.org/Graphics/SVG/1.1/DTD/svg11.dtd">
<!-- Generated by graphviz version 7.0.5 (20221223.1930)
 -->
<!-- Title: src/database/photo_utils.hpp Pages: 1 -->
<svg width="401pt" height="104pt"
 viewBox="0.00 0.00 400.50 104.00" xmlns="http://www.w3.org/2000/svg" xmlns:xlink="http://www.w3.org/1999/xlink">
<g id="graph0" class="graph" transform="scale(1 1) rotate(0) translate(4 100)">
<title>src/database/photo_utils.hpp</title>
<!-- Node1 -->
<g id="node1" class="node">
<title>Node1</title>
<g id="a_node1"><a xlink:title=" ">
<polygon fill="#999999" stroke="#666666" points="212,-96 112,-96 112,-66 212,-66 212,-96"/>
<text text-anchor="start" x="120" y="-84" font-family="Helvetica,sans-Serif" font-size="10.00">src/database/photo</text>
<text text-anchor="middle" x="162" y="-73" font-family="Helvetica,sans-Serif" font-size="10.00">_utils.hpp</text>
</a>
</g>
</g>
<!-- Node2 -->
<g id="node2" class="node">
<title>Node2</title>
<g id="a_node2"><a xlink:title=" ">
<polygon fill="#e0e0e0" stroke="#999999" points="50,-24.5 0,-24.5 0,-5.5 50,-5.5 50,-24.5"/>
<text text-anchor="middle" x="25" y="-12.5" font-family="Helvetica,sans-Serif" font-size="10.00">QString</text>
</a>
</g>
</g>
<!-- Node1&#45;&gt;Node2 -->
<g id="edge1" class="edge">
<title>Node1&#45;&gt;Node2</title>
<path fill="none" stroke="#63b8ff" d="M131.25,-65.64C108.34,-54.93 77.23,-40.4 54.59,-29.82"/>
<polygon fill="#63b8ff" stroke="#63b8ff" points="56.15,-26.69 45.61,-25.63 53.19,-33.03 56.15,-26.69"/>
</g>
<!-- Node3 -->
<g id="node3" class="node">
<title>Node3</title>
<g id="a_node3"><a xlink:href="../../d8/d43/core_2utils_8hpp.html" target="_top" xlink:title=" ">
<polygon fill="white" stroke="#666666" points="142,-24.5 68,-24.5 68,-5.5 142,-5.5 142,-24.5"/>
<text text-anchor="middle" x="105" y="-12.5" font-family="Helvetica,sans-Serif" font-size="10.00">core/utils.hpp</text>
</a>
</g>
</g>
<!-- Node1&#45;&gt;Node3 -->
<g id="edge2" class="edge">
<title>Node1&#45;&gt;Node3</title>
<path fill="none" stroke="#63b8ff" d="M149.35,-65.8C140.81,-56.21 129.49,-43.5 120.43,-33.32"/>
<polygon fill="#63b8ff" stroke="#63b8ff" points="123.15,-31.11 113.88,-25.97 117.92,-35.77 123.15,-31.11"/>
</g>
<!-- Node4 -->
<g id="node4" class="node">
<title>Node4</title>
<g id="a_node4"><a xlink:href="../../d8/d0e/explicit__photo__delta_8hpp.html" target="_top" xlink:title=" ">
<polygon fill="#fff0f0" stroke="red" points="279.5,-30 160.5,-30 160.5,0 279.5,0 279.5,-30"/>
<text text-anchor="start" x="168.5" y="-18" font-family="Helvetica,sans-Serif" font-size="10.00">database/explicit_photo</text>
<text text-anchor="middle" x="220" y="-7" font-family="Helvetica,sans-Serif" font-size="10.00">_delta.hpp</text>
</a>
</g>
</g>
<!-- Node1&#45;&gt;Node4 -->
<g id="edge3" class="edge">
<title>Node1&#45;&gt;Node4</title>
<path fill="none" stroke="#63b8ff" d="M174.87,-65.8C182.16,-57.76 191.43,-47.53 199.67,-38.43"/>
<polygon fill="#63b8ff" stroke="#63b8ff" points="202.03,-41.05 206.15,-31.29 196.84,-36.35 202.03,-41.05"/>
</g>
<!-- Node21 -->
<g id="node5" class="node">
<title>Node21</title>
<g id="a_node5"><a xlink:title=" ">
<polygon fill="#e0e0e0" stroke="#999999" points="392.5,-24.5 297.5,-24.5 297.5,-5.5 392.5,-5.5 392.5,-24.5"/>
<text text-anchor="middle" x="345" y="-12.5" font-family="Helvetica,sans-Serif" font-size="10.00">database_export.h</text>
</a>
</g>
</g>
<!-- Node1&#45;&gt;Node21 -->
<g id="edge4" class="edge">
<title>Node1&#45;&gt;Node21</title>
<path fill="none" stroke="#63b8ff" d="M203.07,-65.64C234.79,-54.54 278.28,-39.34 308.72,-28.69"/>
<polygon fill="#63b8ff" stroke="#63b8ff" points="309.59,-32.09 317.88,-25.49 307.28,-25.48 309.59,-32.09"/>
</g>
</g>
</svg>
