<?xml version="1.0" encoding="UTF-8" standalone="no"?>
<!DOCTYPE svg PUBLIC "-//W3C//DTD SVG 1.1//EN"
 "http://www.w3.org/Graphics/SVG/1.1/DTD/svg11.dtd">
<!-- Generated by graphviz version 12.2.0 (20241103.1931)
 -->
<!-- Title: SignalPostponer::notify Pages: 1 -->
<svg width="231pt" height="64pt"
 viewBox="0.00 0.00 231.25 64.25" xmlns="http://www.w3.org/2000/svg" xmlns:xlink="http://www.w3.org/1999/xlink">
<g id="graph0" class="graph" transform="scale(1 1) rotate(0) translate(4 60.25)">
<title>SignalPostponer::notify</title>
<!-- Node1 -->
<g id="Node000001" class="node">
<title>Node1</title>
<g id="a_Node000001"><a xlink:title=" ">
<polygon fill="#999999" stroke="#666666" points="223.25,-37.25 108.25,-37.25 108.25,-18 223.25,-18 223.25,-37.25"/>
<text text-anchor="middle" x="165.75" y="-23.75" font-family="Helvetica,sans-Serif" font-size="10.00">SignalPostponer::notify</text>
</a>
</g>
</g>
<!-- Node2 -->
<g id="Node000002" class="node">
<title>Node2</title>
<g id="a_Node000002"><a xlink:href="../../dc/dfa/signal__postponer_8hpp.html#a04ceca6d6db222d93899b7d9bf9fa4cd" target="_top" xlink:title="Create lazy Qt connection between signal and slot.">
<polygon fill="#fff0f0" stroke="red" points="72.25,-56.25 0,-56.25 0,-37 72.25,-37 72.25,-56.25"/>
<text text-anchor="middle" x="36.12" y="-42.75" font-family="Helvetica,sans-Serif" font-size="10.00">lazy_connect</text>
</a>
</g>
</g>
<!-- Node1&#45;&gt;Node2 -->
<g id="edge1_Node000001_Node000002" class="edge">
<title>Node1&#45;&gt;Node2</title>
<g id="a_edge1_Node000001_Node000002"><a xlink:title=" ">
<path fill="none" stroke="#63b8ff" d="M96.91,-37.72C88.45,-38.98 80.09,-40.23 72.42,-41.37"/>
<polygon fill="#63b8ff" stroke="#63b8ff" points="97.16,-41.23 106.53,-36.29 96.13,-34.3 97.16,-41.23"/>
</a>
</g>
</g>
<!-- Node9 -->
<g id="Node000009" class="node">
<title>Node9</title>
<g id="a_Node000009"><a xlink:href="../../dd/ddd/signal__postponer__tests_8cpp.html#a7aae9e27716c0879ea7ea90ab40d9d29" target="_top" xlink:title=" ">
<polygon fill="white" stroke="#666666" points="56.5,-19.25 15.75,-19.25 15.75,0 56.5,0 56.5,-19.25"/>
<text text-anchor="middle" x="36.12" y="-5.75" font-family="Helvetica,sans-Serif" font-size="10.00">TEST</text>
</a>
</g>
</g>
<!-- Node1&#45;&gt;Node9 -->
<g id="edge2_Node000001_Node000009" class="edge">
<title>Node1&#45;&gt;Node9</title>
<g id="a_edge2_Node000001_Node000009"><a xlink:title=" ">
<path fill="none" stroke="#63b8ff" d="M96.79,-18.04C82.09,-15.97 67.69,-13.94 56.72,-12.39"/>
<polygon fill="#63b8ff" stroke="#63b8ff" points="96.14,-21.48 106.53,-19.41 97.12,-14.55 96.14,-21.48"/>
</a>
</g>
</g>
</g>
</svg>
