<?xml version="1.0" encoding="UTF-8" standalone="no"?>
<!DOCTYPE svg PUBLIC "-//W3C//DTD SVG 1.1//EN"
 "http://www.w3.org/Graphics/SVG/1.1/DTD/svg11.dtd">
<!-- Generated by graphviz version 7.0.5 (20221223.1930)
 -->
<!-- Title: Database::InsertQueryData::getName Pages: 1 -->
<svg width="338pt" height="86pt"
 viewBox="0.00 0.00 338.00 86.00" xmlns="http://www.w3.org/2000/svg" xmlns:xlink="http://www.w3.org/1999/xlink">
<g id="graph0" class="graph" transform="scale(1 1) rotate(0) translate(4 82)">
<title>Database::InsertQueryData::getName</title>
<!-- Node1 -->
<g id="node1" class="node">
<title>Node1</title>
<g id="a_node1"><a xlink:title=" ">
<polygon fill="#999999" stroke="#666666" points="330,-54 197,-54 197,-24 330,-24 330,-54"/>
<text text-anchor="start" x="205" y="-42" font-family="Helvetica,sans-Serif" font-size="10.00">Database::InsertQueryData</text>
<text text-anchor="middle" x="263.5" y="-31" font-family="Helvetica,sans-Serif" font-size="10.00">::getName</text>
</a>
</g>
</g>
<!-- Node2 -->
<g id="node2" class="node">
<title>Node2</title>
<g id="a_node2"><a xlink:href="../../d0/d6d/class_database_1_1_generic_sql_query_constructor.html#ac1d513f9a2812a65d663355999d1893a" target="_top" xlink:title=" ">
<polygon fill="#fff0f0" stroke="red" points="157.5,-78 3.5,-78 3.5,-48 157.5,-48 157.5,-78"/>
<text text-anchor="start" x="11.5" y="-66" font-family="Helvetica,sans-Serif" font-size="10.00">Database::GenericSqlQuery</text>
<text text-anchor="middle" x="80.5" y="-55" font-family="Helvetica,sans-Serif" font-size="10.00">Constructor::prepareInsertQuery</text>
</a>
</g>
</g>
<!-- Node1&#45;&gt;Node2 -->
<g id="edge1" class="edge">
<title>Node1&#45;&gt;Node2</title>
<path fill="none" stroke="#63b8ff" d="M185.24,-49.25C176.13,-50.45 166.84,-51.68 157.75,-52.89"/>
<polygon fill="#63b8ff" stroke="#63b8ff" points="185.69,-52.72 195.14,-47.93 184.77,-45.78 185.69,-52.72"/>
</g>
<!-- Node5 -->
<g id="node3" class="node">
<title>Node5</title>
<g id="a_node3"><a xlink:href="../../d0/d6d/class_database_1_1_generic_sql_query_constructor.html#a2421c6d44273a5e274f0fa3df2fe5b43" target="_top" xlink:title=" ">
<polygon fill="#fff0f0" stroke="red" points="161,-30 0,-30 0,0 161,0 161,-30"/>
<text text-anchor="start" x="8" y="-18" font-family="Helvetica,sans-Serif" font-size="10.00">Database::GenericSqlQuery</text>
<text text-anchor="middle" x="80.5" y="-7" font-family="Helvetica,sans-Serif" font-size="10.00">Constructor::prepareUpdateQuery</text>
</a>
</g>
</g>
<!-- Node1&#45;&gt;Node5 -->
<g id="edge2" class="edge">
<title>Node1&#45;&gt;Node5</title>
<path fill="none" stroke="#63b8ff" d="M185.24,-28.76C177.38,-27.71 169.38,-26.65 161.48,-25.61"/>
<polygon fill="#63b8ff" stroke="#63b8ff" points="184.77,-32.22 195.14,-30.07 185.69,-25.28 184.77,-32.22"/>
</g>
</g>
</svg>
