<?xml version="1.0" encoding="UTF-8" standalone="no"?>
<!DOCTYPE svg PUBLIC "-//W3C//DTD SVG 1.1//EN"
 "http://www.w3.org/Graphics/SVG/1.1/DTD/svg11.dtd">
<!-- Generated by graphviz version 7.0.5 (20221223.1930)
 -->
<!-- Title: Database::InsertQueryData::getColumns Pages: 1 -->
<!--zoomable 156 -->
<svg id="main" version="1.1" xmlns="http://www.w3.org/2000/svg" xmlns:xlink="http://www.w3.org/1999/xlink" xml:space="preserve" onload="init(evt)">
<style type="text/css"><![CDATA[
.edge:hover path { stroke: red; }
.edge:hover polygon { stroke: red; fill: red; }
]]></style>
<script type="text/javascript"><![CDATA[
var edges = document.getElementsByTagName('g');
if (edges && edges.length) {
  for (var i=0;i<edges.length;i++) {
    if (edges[i].id.substr(0,4)=='edge') {
      edges[i].setAttribute('class','edge');
    }
  }
}
]]></script>
        <defs>
                <circle id="rim" cx="0" cy="0" r="7"/>
                <circle id="rim2" cx="0" cy="0" r="3.5"/>
                <g id="zoomPlus">
                        <use xlink:href="#rim" fill="#404040">
                                <set attributeName="fill" to="#808080" begin="zoomplus.mouseover" end="zoomplus.mouseout"/>
                        </use>
                        <path d="M-4,0h8M0,-4v8" fill="none" stroke="white" stroke-width="1.5" pointer-events="none"/>
                </g>
                <g id="zoomMin">
                        <use xlink:href="#rim" fill="#404040">
                                <set attributeName="fill" to="#808080" begin="zoomminus.mouseover" end="zoomminus.mouseout"/>
                        </use>
                        <path d="M-4,0h8" fill="none" stroke="white" stroke-width="1.5" pointer-events="none"/>
                </g>
                <g id="dirArrow">
                        <path fill="none" stroke="white" stroke-width="1.5" d="M0,-3.0v7 M-2.5,-0.5L0,-3.0L2.5,-0.5"/>
                </g>
               <g id="resetDef">
                       <use xlink:href="#rim2" fill="#404040">
                               <set attributeName="fill" to="#808080" begin="reset.mouseover" end="reset.mouseout"/>
                       </use>
               </g>
        </defs>

<script type="text/javascript">
var viewWidth = 706;
var viewHeight = 156;
var sectionId = 'dynsection-4';
</script>
<script xlink:href="../../svgpan.js"/>
<svg id="graph" class="graph">
<g id="viewport">
<title>Database::InsertQueryData::getColumns</title>
<!-- Node1 -->
<g id="node1" class="node">
<title>Node1</title>
<g id="a_node1"><a xlink:title=" ">
<polygon fill="#999999" stroke="#666666" points="698,-89 565,-89 565,-59 698,-59 698,-89"/>
<text text-anchor="start" x="573" y="-77" font-family="Helvetica,sans-Serif" font-size="10.00">Database::InsertQueryData</text>
<text text-anchor="middle" x="631.5" y="-66" font-family="Helvetica,sans-Serif" font-size="10.00">::getColumns</text>
</a>
</g>
</g>
<!-- Node2 -->
<g id="node2" class="node">
<title>Node2</title>
<g id="a_node2"><a xlink:href="../../d0/d6d/class_database_1_1_generic_sql_query_constructor.html#a2eb8a5456904b61ce57ed019d09ae754" target="_top" xlink:title=" ">
<polygon fill="white" stroke="#666666" points="136,-148 0,-148 0,-118 136,-118 136,-148"/>
<text text-anchor="start" x="8" y="-136" font-family="Helvetica,sans-Serif" font-size="10.00">Database::GenericSqlQuery</text>
<text text-anchor="middle" x="68" y="-125" font-family="Helvetica,sans-Serif" font-size="10.00">Constructor::insert</text>
</a>
</g>
</g>
<!-- Node1&#45;&gt;Node2 -->
<g id="edge1" class="edge">
<title>Node1&#45;&gt;Node2</title>
<path fill="none" stroke="#63b8ff" d="M591.29,-94.47C572.87,-103.17 550.31,-112.55 529,-118 392.95,-152.79 226.9,-146.88 136.16,-139.76"/>
<polygon fill="#63b8ff" stroke="#63b8ff" points="592.79,-97.63 600.26,-90.12 589.73,-91.34 592.79,-97.63"/>
</g>
<!-- Node3 -->
<g id="node3" class="node">
<title>Node3</title>
<g id="a_node3"><a xlink:href="../../d0/d6d/class_database_1_1_generic_sql_query_constructor.html#ac1d513f9a2812a65d663355999d1893a" target="_top" xlink:title=" ">
<polygon fill="#fff0f0" stroke="red" points="329.5,-127 175.5,-127 175.5,-97 329.5,-97 329.5,-127"/>
<text text-anchor="start" x="183.5" y="-115" font-family="Helvetica,sans-Serif" font-size="10.00">Database::GenericSqlQuery</text>
<text text-anchor="middle" x="252.5" y="-104" font-family="Helvetica,sans-Serif" font-size="10.00">Constructor::prepareInsertQuery</text>
</a>
</g>
</g>
<!-- Node1&#45;&gt;Node3 -->
<g id="edge2" class="edge">
<title>Node1&#45;&gt;Node3</title>
<path fill="none" stroke="#63b8ff" d="M562.23,-91.92C551.19,-94.31 539.82,-96.46 529,-98 462.15,-107.52 385.36,-110.8 329.86,-111.83"/>
<polygon fill="#63b8ff" stroke="#63b8ff" points="562.68,-95.41 571.67,-89.81 561.14,-88.58 562.68,-95.41"/>
</g>
<!-- Node5 -->
<g id="node4" class="node">
<title>Node5</title>
<g id="a_node4"><a xlink:href="../../d0/d6d/class_database_1_1_generic_sql_query_constructor.html#a2298963eda40bc9908a5f12196744901" target="_top" xlink:title=" ">
<polygon fill="white" stroke="#666666" points="529,-89 369,-89 369,-59 529,-59 529,-89"/>
<text text-anchor="start" x="377" y="-77" font-family="Helvetica,sans-Serif" font-size="10.00">Database::GenericSqlQuery</text>
<text text-anchor="middle" x="449" y="-66" font-family="Helvetica,sans-Serif" font-size="10.00">Constructor::preparePlaceholders</text>
</a>
</g>
</g>
<!-- Node1&#45;&gt;Node5 -->
<g id="edge4" class="edge">
<title>Node1&#45;&gt;Node5</title>
<path fill="none" stroke="#63b8ff" d="M553.11,-74C545.21,-74 537.17,-74 529.25,-74"/>
<polygon fill="#63b8ff" stroke="#63b8ff" points="553.06,-77.5 563.06,-74 553.06,-70.5 553.06,-77.5"/>
</g>
<!-- Node6 -->
<g id="node5" class="node">
<title>Node6</title>
<g id="a_node5"><a xlink:href="../../d0/d6d/class_database_1_1_generic_sql_query_constructor.html#a2421c6d44273a5e274f0fa3df2fe5b43" target="_top" xlink:title=" ">
<polygon fill="#fff0f0" stroke="red" points="333,-51 172,-51 172,-21 333,-21 333,-51"/>
<text text-anchor="start" x="180" y="-39" font-family="Helvetica,sans-Serif" font-size="10.00">Database::GenericSqlQuery</text>
<text text-anchor="middle" x="252.5" y="-28" font-family="Helvetica,sans-Serif" font-size="10.00">Constructor::prepareUpdateQuery</text>
</a>
</g>
</g>
<!-- Node1&#45;&gt;Node6 -->
<g id="edge8" class="edge">
<title>Node1&#45;&gt;Node6</title>
<path fill="none" stroke="#63b8ff" d="M562.23,-56.08C551.19,-53.69 539.82,-51.54 529,-50 463.57,-40.68 388.62,-37.34 333.44,-36.24"/>
<polygon fill="#63b8ff" stroke="#63b8ff" points="561.14,-59.42 571.67,-58.19 562.68,-52.59 561.14,-59.42"/>
</g>
<!-- Node8 -->
<g id="node6" class="node">
<title>Node8</title>
<g id="a_node6"><a xlink:href="../../d0/d6d/class_database_1_1_generic_sql_query_constructor.html#aa079f18cb94e3d6cf76c4bd2cc95de81" target="_top" xlink:title=" ">
<polygon fill="white" stroke="#666666" points="136,-30 0,-30 0,0 136,0 136,-30"/>
<text text-anchor="start" x="8" y="-18" font-family="Helvetica,sans-Serif" font-size="10.00">Database::GenericSqlQuery</text>
<text text-anchor="middle" x="68" y="-7" font-family="Helvetica,sans-Serif" font-size="10.00">Constructor::update</text>
</a>
</g>
</g>
<!-- Node1&#45;&gt;Node8 -->
<g id="edge9" class="edge">
<title>Node1&#45;&gt;Node8</title>
<path fill="none" stroke="#63b8ff" d="M588.41,-53.94C570.48,-46.21 549.09,-38.03 529,-33 392.94,1.06 227.24,-3.12 136.49,-9.12"/>
<polygon fill="#63b8ff" stroke="#63b8ff" points="586.86,-57.09 597.42,-57.93 589.69,-50.69 586.86,-57.09"/>
</g>
<!-- Node3&#45;&gt;Node2 -->
<g id="edge3" class="edge">
<title>Node3&#45;&gt;Node2</title>
<path fill="none" stroke="#63b8ff" d="M163.9,-122.08C154.63,-123.15 145.31,-124.22 136.32,-125.25"/>
<polygon fill="#63b8ff" stroke="#63b8ff" points="164.12,-125.58 173.66,-120.96 163.32,-118.62 164.12,-125.58"/>
</g>
<!-- Node5&#45;&gt;Node3 -->
<g id="edge5" class="edge">
<title>Node5&#45;&gt;Node3</title>
<path fill="none" stroke="#63b8ff" d="M357.89,-91.6C348.47,-93.45 338.95,-95.3 329.71,-97.11"/>
<polygon fill="#63b8ff" stroke="#63b8ff" points="358.26,-95.1 367.4,-89.75 356.92,-88.23 358.26,-95.1"/>
</g>
<!-- Node5&#45;&gt;Node6 -->
<g id="edge6" class="edge">
<title>Node5&#45;&gt;Node6</title>
<path fill="none" stroke="#63b8ff" d="M357.85,-56.39C349.4,-54.74 340.88,-53.07 332.54,-51.44"/>
<polygon fill="#63b8ff" stroke="#63b8ff" points="356.92,-59.77 367.4,-58.25 358.26,-52.9 356.92,-59.77"/>
</g>
<!-- Node6&#45;&gt;Node8 -->
<g id="edge7" class="edge">
<title>Node6&#45;&gt;Node8</title>
<path fill="none" stroke="#63b8ff" d="M160.33,-25.51C152.25,-24.58 144.18,-23.65 136.35,-22.75"/>
<polygon fill="#63b8ff" stroke="#63b8ff" points="159.88,-28.98 170.21,-26.65 160.68,-22.03 159.88,-28.98"/>
</g>
</g>
</svg>
        <g id="navigator" transform="translate(0 0)" fill="#404254">
                <rect fill="#f2f5e9" fill-opacity="0.5" stroke="#606060" stroke-width=".5" x="0" y="0" width="60" height="60"/>
                <use id="zoomplus" xlink:href="#zoomPlus" x="17" y="9" onmousedown="handleZoom(evt,'in')"/>
                <use id="zoomminus" xlink:href="#zoomMin" x="42" y="9" onmousedown="handleZoom(evt,'out')"/>
                <use id="reset" xlink:href="#resetDef" x="30" y="36" onmousedown="handleReset()"/>
                <g id="arrowUp" xlink:href="#dirArrow" transform="translate(30 24)" onmousedown="handlePan(0,-1)">
                  <use xlink:href="#rim" fill="#404040">
                        <set attributeName="fill" to="#808080" begin="arrowUp.mouseover" end="arrowUp.mouseout"/>
                  </use>
                  <path fill="none" stroke="white" stroke-width="1.5" d="M0,-3.0v7 M-2.5,-0.5L0,-3.0L2.5,-0.5"/>
                </g>
                <g id="arrowRight" xlink:href="#dirArrow" transform="rotate(90) translate(36 -43)" onmousedown="handlePan(1,0)">
                  <use xlink:href="#rim" fill="#404040">
                        <set attributeName="fill" to="#808080" begin="arrowRight.mouseover" end="arrowRight.mouseout"/>
                  </use>
                  <path fill="none" stroke="white" stroke-width="1.5" d="M0,-3.0v7 M-2.5,-0.5L0,-3.0L2.5,-0.5"/>
                </g>
                <g id="arrowDown" xlink:href="#dirArrow" transform="rotate(180) translate(-30 -48)" onmousedown="handlePan(0,1)">
                  <use xlink:href="#rim" fill="#404040">
                        <set attributeName="fill" to="#808080" begin="arrowDown.mouseover" end="arrowDown.mouseout"/>
                  </use>
                  <path fill="none" stroke="white" stroke-width="1.5" d="M0,-3.0v7 M-2.5,-0.5L0,-3.0L2.5,-0.5"/>
                </g>
                <g id="arrowLeft" xlink:href="#dirArrow" transform="rotate(270) translate(-36 17)" onmousedown="handlePan(-1,0)">
                  <use xlink:href="#rim" fill="#404040">
                        <set attributeName="fill" to="#808080" begin="arrowLeft.mouseover" end="arrowLeft.mouseout"/>
                  </use>
                  <path fill="none" stroke="white" stroke-width="1.5" d="M0,-3.0v7 M-2.5,-0.5L0,-3.0L2.5,-0.5"/>
                </g>
        </g>
        <svg viewBox="0 0 15 15" width="100%" height="30px" preserveAspectRatio="xMaxYMin meet">
         <g id="arrow_out" transform="scale(0.3 0.3)">
          <a xlink:href="class_database_1_1_insert_query_data_a5ce2ce74817343405919a285e452af35_icgraph_org.svg" target="_base">
           <rect id="button" ry="5" rx="5" y="6" x="6" height="38" width="38"
                fill="#f2f5e9" fill-opacity="0.5" stroke="#606060" stroke-width="1.0"/>
           <path id="arrow"
             d="M 11.500037,31.436501 C 11.940474,20.09759 22.043105,11.32322 32.158766,21.979434 L 37.068811,17.246167 C 37.068811,17.246167 37.088388,32 37.088388,32 L 22.160133,31.978069 C 22.160133,31.978069 26.997745,27.140456 26.997745,27.140456 C 18.528582,18.264221 13.291696,25.230495 11.500037,31.436501 z"
             style="fill:#404040;"/>
          </a>
         </g>
        </svg>
</svg>
