<?xml version="1.0" encoding="UTF-8" standalone="no"?>
<!DOCTYPE svg PUBLIC "-//W3C//DTD SVG 1.1//EN"
 "http://www.w3.org/Graphics/SVG/1.1/DTD/svg11.dtd">
<!-- Generated by graphviz version 9.0.0 (20230911.1827)
 -->
<!-- Title: Database::InsertQueryData::setValues Pages: 1 -->
<svg width="317pt" height="677pt"
 viewBox="0.00 0.00 316.75 676.50" xmlns="http://www.w3.org/2000/svg" xmlns:xlink="http://www.w3.org/1999/xlink">
<g id="graph0" class="graph" transform="scale(1 1) rotate(0) translate(4 672.5)">
<title>Database::InsertQueryData::setValues</title>
<!-- Node1 -->
<g id="Node000001" class="node">
<title>Node1</title>
<g id="a_Node000001"><a xlink:title=" ">
<polygon fill="#999999" stroke="#666666" points="308.75,-337.5 176.5,-337.5 176.5,-307 308.75,-307 308.75,-337.5"/>
<text text-anchor="start" x="184.5" y="-324" font-family="Helvetica,sans-Serif" font-size="10.00">Database::InsertQueryData</text>
<text text-anchor="middle" x="242.62" y="-312.75" font-family="Helvetica,sans-Serif" font-size="10.00">::setValues</text>
</a>
</g>
</g>
<!-- Node2 -->
<g id="Node000002" class="node">
<title>Node2</title>
<g id="a_Node000002"><a xlink:href="../../d5/d6b/class_database_1_1_group_operator.html#abac9cd6ec0bf898cc604e5fd5d219d67" target="_top" xlink:title=" ">
<polygon fill="white" stroke="#666666" points="133,-668.5 7.5,-668.5 7.5,-638 133,-638 133,-668.5"/>
<text text-anchor="start" x="15.5" y="-655" font-family="Helvetica,sans-Serif" font-size="10.00">Database::GroupOperator</text>
<text text-anchor="middle" x="70.25" y="-643.75" font-family="Helvetica,sans-Serif" font-size="10.00">::addGroup</text>
</a>
</g>
</g>
<!-- Node1&#45;&gt;Node2 -->
<g id="edge1_Node000001_Node000002" class="edge">
<title>Node1&#45;&gt;Node2</title>
<g id="a_edge1_Node000001_Node000002"><a xlink:title=" ">
<path fill="none" stroke="#63b8ff" d="M240.39,-348.85C236.24,-407.36 218.28,-548.32 140.5,-628.25 137.02,-631.82 133,-634.89 128.67,-637.51"/>
<polygon fill="#63b8ff" stroke="#63b8ff" points="243.86,-349.38 240.98,-339.18 236.87,-348.95 243.86,-349.38"/>
</a>
</g>
</g>
<!-- Node3 -->
<g id="Node000003" class="node">
<title>Node3</title>
<g id="a_Node000003"><a xlink:href="../../d7/dfc/class_database_1_1_photo_change_log_operator.html#a159940cd5cfab82ab1a0e4a5fb8d5799" target="_top" xlink:title=" ">
<polygon fill="white" stroke="#666666" points="138.62,-619.5 1.88,-619.5 1.88,-589 138.62,-589 138.62,-619.5"/>
<text text-anchor="start" x="9.88" y="-606" font-family="Helvetica,sans-Serif" font-size="10.00">Database::PhotoChangeLog</text>
<text text-anchor="middle" x="70.25" y="-594.75" font-family="Helvetica,sans-Serif" font-size="10.00">Operator::append</text>
</a>
</g>
</g>
<!-- Node1&#45;&gt;Node3 -->
<g id="edge2_Node000001_Node000003" class="edge">
<title>Node1&#45;&gt;Node3</title>
<g id="a_edge2_Node000001_Node000003"><a xlink:title=" ">
<path fill="none" stroke="#63b8ff" d="M238.38,-349.17C230.76,-400.86 207.03,-514.59 140.5,-579.25 136.83,-582.81 132.62,-585.87 128.13,-588.5"/>
<polygon fill="#63b8ff" stroke="#63b8ff" points="241.82,-349.88 239.71,-339.49 234.88,-348.92 241.82,-349.88"/>
</a>
</g>
</g>
<!-- Node4 -->
<g id="Node000004" class="node">
<title>Node4</title>
<g id="a_Node000004"><a xlink:href="../../d5/d1b/class_database_1_1_a_sql_backend.html#a218cc7555092910cf6c33cab849cc0fb" target="_top" xlink:title="create new entry for photo in database">
<polygon fill="#fff0f0" stroke="red" points="130.75,-570.5 9.75,-570.5 9.75,-540 130.75,-540 130.75,-570.5"/>
<text text-anchor="start" x="17.75" y="-557" font-family="Helvetica,sans-Serif" font-size="10.00">Database::ASqlBackend</text>
<text text-anchor="middle" x="70.25" y="-545.75" font-family="Helvetica,sans-Serif" font-size="10.00">::introduce</text>
</a>
</g>
</g>
<!-- Node1&#45;&gt;Node4 -->
<g id="edge3_Node000001_Node000004" class="edge">
<title>Node1&#45;&gt;Node4</title>
<g id="a_edge3_Node000001_Node000004"><a xlink:title=" ">
<path fill="none" stroke="#63b8ff" d="M235.8,-348.79C224.78,-392.85 196.79,-481.19 140.5,-531.25 136.89,-534.46 132.82,-537.25 128.52,-539.67"/>
<polygon fill="#63b8ff" stroke="#63b8ff" points="239.14,-349.86 238.06,-339.32 232.33,-348.24 239.14,-349.86"/>
</a>
</g>
</g>
<!-- Node7 -->
<g id="Node000007" class="node">
<title>Node7</title>
<g id="a_Node000007"><a xlink:href="../../d5/d1b/class_database_1_1_a_sql_backend.html#a82939c363f70dc3c14243b7d51f1f33a" target="_top" xlink:title="set flag for photo to given value">
<polygon fill="#fff0f0" stroke="red" points="139.75,-521.88 0.75,-521.88 0.75,-502.62 139.75,-502.62 139.75,-521.88"/>
<text text-anchor="middle" x="70.25" y="-508.38" font-family="Helvetica,sans-Serif" font-size="10.00">Database::ASqlBackend::set</text>
</a>
</g>
</g>
<!-- Node1&#45;&gt;Node7 -->
<g id="edge4_Node000001_Node000007" class="edge">
<title>Node1&#45;&gt;Node7</title>
<g id="a_edge4_Node000001_Node000007"><a xlink:title=" ">
<path fill="none" stroke="#63b8ff" d="M233.2,-348.62C219.75,-386.42 189.81,-455.59 140.5,-493.25 135.74,-496.88 130.34,-499.82 124.69,-502.2"/>
<polygon fill="#63b8ff" stroke="#63b8ff" points="236.43,-349.99 236.36,-339.4 229.81,-347.73 236.43,-349.99"/>
</a>
</g>
</g>
<!-- Node10 -->
<g id="Node000010" class="node">
<title>Node10</title>
<g id="a_Node000010"><a xlink:href="../../da/dd9/class_database_1_1_photo_operator.html#adf53bf4b4937460792849dbede9d7dd7" target="_top" xlink:title=" ">
<polygon fill="#fff0f0" stroke="red" points="132.62,-484.5 7.88,-484.5 7.88,-454 132.62,-454 132.62,-484.5"/>
<text text-anchor="start" x="15.88" y="-471" font-family="Helvetica,sans-Serif" font-size="10.00">Database::PhotoOperator</text>
<text text-anchor="middle" x="70.25" y="-459.75" font-family="Helvetica,sans-Serif" font-size="10.00">::setPHash</text>
</a>
</g>
</g>
<!-- Node1&#45;&gt;Node10 -->
<g id="edge5_Node000001_Node000010" class="edge">
<title>Node1&#45;&gt;Node10</title>
<g id="a_edge5_Node000001_Node000010"><a xlink:title=" ">
<path fill="none" stroke="#63b8ff" d="M226.71,-347.24C209.22,-374.59 177.82,-418.02 140.5,-444.25 135.48,-447.78 129.91,-450.86 124.17,-453.54"/>
<polygon fill="#63b8ff" stroke="#63b8ff" points="229.59,-349.24 231.92,-338.9 223.65,-345.53 229.59,-349.24"/>
</a>
</g>
</g>
<!-- Node12 -->
<g id="Node000012" class="node">
<title>Node12</title>
<g id="a_Node000012"><a xlink:href="../../db/dd9/class_database_1_1_people_information_accessor.html#af10e7de8ef1a429f012b226665005c91" target="_top" xlink:title="Store or update person.">
<polygon fill="white" stroke="#666666" points="140.5,-435.5 0,-435.5 0,-405 140.5,-405 140.5,-435.5"/>
<text text-anchor="start" x="8" y="-422" font-family="Helvetica,sans-Serif" font-size="10.00">Database::PeopleInformation</text>
<text text-anchor="middle" x="70.25" y="-410.75" font-family="Helvetica,sans-Serif" font-size="10.00">Accessor::store</text>
</a>
</g>
</g>
<!-- Node1&#45;&gt;Node12 -->
<g id="edge6_Node000001_Node000012" class="edge">
<title>Node1&#45;&gt;Node12</title>
<g id="a_edge6_Node000001_Node000012"><a xlink:title=" ">
<path fill="none" stroke="#63b8ff" d="M214.6,-344.96C194.98,-360.63 167.28,-381.11 140.5,-395.25 134.06,-398.65 127.05,-401.78 120.05,-404.58"/>
<polygon fill="#63b8ff" stroke="#63b8ff" points="216.54,-347.89 222.11,-338.88 212.13,-342.46 216.54,-347.89"/>
</a>
</g>
</g>
<!-- Node13 -->
<g id="Node000013" class="node">
<title>Node13</title>
<g id="a_Node000013"><a xlink:href="../../d5/d1b/class_database_1_1_a_sql_backend.html#a6142dabb29720404ce3b6765eb2441a5" target="_top" xlink:title="add tag to photo">
<polygon fill="#fff0f0" stroke="red" points="130.75,-386.5 9.75,-386.5 9.75,-356 130.75,-356 130.75,-386.5"/>
<text text-anchor="start" x="17.75" y="-373" font-family="Helvetica,sans-Serif" font-size="10.00">Database::ASqlBackend</text>
<text text-anchor="middle" x="70.25" y="-361.75" font-family="Helvetica,sans-Serif" font-size="10.00">::store</text>
</a>
</g>
</g>
<!-- Node1&#45;&gt;Node13 -->
<g id="edge7_Node000001_Node000013" class="edge">
<title>Node1&#45;&gt;Node13</title>
<g id="a_edge7_Node000001_Node000013"><a xlink:title=" ">
<path fill="none" stroke="#63b8ff" d="M176.48,-340.98C159.82,-345.78 142.07,-350.88 125.99,-355.51"/>
<polygon fill="#63b8ff" stroke="#63b8ff" points="177.15,-344.43 185.79,-338.31 175.22,-337.71 177.15,-344.43"/>
</a>
</g>
</g>
<!-- Node15 -->
<g id="Node000015" class="node">
<title>Node15</title>
<g id="a_Node000015"><a xlink:href="../../d5/d1b/class_database_1_1_a_sql_backend.html#a0ff78d8d57a9eae0213f2f837ddfc6b8" target="_top" xlink:title="store photo&#39;s flags">
<polygon fill="#fff0f0" stroke="red" points="130.75,-337.5 9.75,-337.5 9.75,-307 130.75,-307 130.75,-337.5"/>
<text text-anchor="start" x="17.75" y="-324" font-family="Helvetica,sans-Serif" font-size="10.00">Database::ASqlBackend</text>
<text text-anchor="middle" x="70.25" y="-312.75" font-family="Helvetica,sans-Serif" font-size="10.00">::storeFlags</text>
</a>
</g>
</g>
<!-- Node1&#45;&gt;Node15 -->
<g id="edge8_Node000001_Node000015" class="edge">
<title>Node1&#45;&gt;Node15</title>
<g id="a_edge8_Node000001_Node000015"><a xlink:title=" ">
<path fill="none" stroke="#63b8ff" d="M164.99,-322.25C153.64,-322.25 142.09,-322.25 131.15,-322.25"/>
<polygon fill="#63b8ff" stroke="#63b8ff" points="164.73,-325.75 174.73,-322.25 164.73,-318.75 164.73,-325.75"/>
</a>
</g>
</g>
<!-- Node16 -->
<g id="Node000016" class="node">
<title>Node16</title>
<g id="a_Node000016"><a xlink:href="../../d5/d1b/class_database_1_1_a_sql_backend.html#a5e2dade3290d318258ea503ee1e409cc" target="_top" xlink:title="store photo&#39;s dimensions">
<polygon fill="#fff0f0" stroke="red" points="130.75,-288.5 9.75,-288.5 9.75,-258 130.75,-258 130.75,-288.5"/>
<text text-anchor="start" x="17.75" y="-275" font-family="Helvetica,sans-Serif" font-size="10.00">Database::ASqlBackend</text>
<text text-anchor="middle" x="70.25" y="-263.75" font-family="Helvetica,sans-Serif" font-size="10.00">::storeGeometryFor</text>
</a>
</g>
</g>
<!-- Node1&#45;&gt;Node16 -->
<g id="edge9_Node000001_Node000016" class="edge">
<title>Node1&#45;&gt;Node16</title>
<g id="a_edge9_Node000001_Node000016"><a xlink:title=" ">
<path fill="none" stroke="#63b8ff" d="M176.48,-303.52C159.82,-298.72 142.07,-293.62 125.99,-288.99"/>
<polygon fill="#63b8ff" stroke="#63b8ff" points="175.22,-306.79 185.79,-306.19 177.15,-300.07 175.22,-306.79"/>
</a>
</g>
</g>
<!-- Node17 -->
<g id="Node000017" class="node">
<title>Node17</title>
<g id="a_Node000017"><a xlink:href="../../d5/d1b/class_database_1_1_a_sql_backend.html#af67dc95e772d82537f4d0912868ba235" target="_top" xlink:title="store photo&#39;s group details">
<polygon fill="#fff0f0" stroke="red" points="130.75,-239.5 9.75,-239.5 9.75,-209 130.75,-209 130.75,-239.5"/>
<text text-anchor="start" x="17.75" y="-226" font-family="Helvetica,sans-Serif" font-size="10.00">Database::ASqlBackend</text>
<text text-anchor="middle" x="70.25" y="-214.75" font-family="Helvetica,sans-Serif" font-size="10.00">::storeGroup</text>
</a>
</g>
</g>
<!-- Node1&#45;&gt;Node17 -->
<g id="edge10_Node000001_Node000017" class="edge">
<title>Node1&#45;&gt;Node17</title>
<g id="a_edge10_Node000001_Node000017"><a xlink:title=" ">
<path fill="none" stroke="#63b8ff" d="M214.6,-299.54C194.98,-283.87 167.28,-263.39 140.5,-249.25 134.06,-245.85 127.05,-242.72 120.05,-239.92"/>
<polygon fill="#63b8ff" stroke="#63b8ff" points="212.13,-302.04 222.11,-305.62 216.54,-296.61 212.13,-302.04"/>
</a>
</g>
</g>
<!-- Node18 -->
<g id="Node000018" class="node">
<title>Node18</title>
<g id="a_Node000018"><a xlink:href="../../db/dd9/class_database_1_1_people_information_accessor.html#abc5159ace6d41c67ac212a3792ebb7cd" target="_top" xlink:title="store or update person details in database">
<polygon fill="white" stroke="#666666" points="140.5,-190.5 0,-190.5 0,-160 140.5,-160 140.5,-190.5"/>
<text text-anchor="start" x="8" y="-177" font-family="Helvetica,sans-Serif" font-size="10.00">Database::PeopleInformation</text>
<text text-anchor="middle" x="70.25" y="-165.75" font-family="Helvetica,sans-Serif" font-size="10.00">Accessor::storePerson</text>
</a>
</g>
</g>
<!-- Node1&#45;&gt;Node18 -->
<g id="edge11_Node000001_Node000018" class="edge">
<title>Node1&#45;&gt;Node18</title>
<g id="a_edge11_Node000001_Node000018"><a xlink:title=" ">
<path fill="none" stroke="#63b8ff" d="M226.71,-297.26C209.22,-269.91 177.82,-226.48 140.5,-200.25 135.48,-196.72 129.91,-193.64 124.17,-190.96"/>
<polygon fill="#63b8ff" stroke="#63b8ff" points="223.65,-298.97 231.92,-305.6 229.59,-295.26 223.65,-298.97"/>
</a>
</g>
</g>
<!-- Node19 -->
<g id="Node000019" class="node">
<title>Node19</title>
<g id="a_Node000019"><a xlink:href="../../dc/d71/generic__sql__query__constructor__tests_8cpp.html#aabb922104cfc7695b41a6b0182d2b165" target="_top" xlink:title=" ">
<polygon fill="white" stroke="#666666" points="90.62,-141.88 49.88,-141.88 49.88,-122.62 90.62,-122.62 90.62,-141.88"/>
<text text-anchor="middle" x="70.25" y="-128.38" font-family="Helvetica,sans-Serif" font-size="10.00">TEST</text>
</a>
</g>
</g>
<!-- Node1&#45;&gt;Node19 -->
<g id="edge12_Node000001_Node000019" class="edge">
<title>Node1&#45;&gt;Node19</title>
<g id="a_edge12_Node000001_Node000019"><a xlink:title=" ">
<path fill="none" stroke="#63b8ff" d="M233.2,-295.88C219.75,-258.08 189.81,-188.91 140.5,-151.25 126.13,-140.28 105.83,-135.64 90.92,-133.68"/>
<polygon fill="#63b8ff" stroke="#63b8ff" points="229.81,-296.77 236.36,-305.1 236.43,-294.51 229.81,-296.77"/>
</a>
</g>
</g>
<!-- Node20 -->
<g id="Node000020" class="node">
<title>Node20</title>
<g id="a_Node000020"><a xlink:href="../../dc/d71/generic__sql__query__constructor__tests_8cpp.html#a3eb6598a51e35425b409e6e7976d4daf" target="_top" xlink:title=" ">
<polygon fill="white" stroke="#666666" points="90.62,-104.88 49.88,-104.88 49.88,-85.62 90.62,-85.62 90.62,-104.88"/>
<text text-anchor="middle" x="70.25" y="-91.38" font-family="Helvetica,sans-Serif" font-size="10.00">TEST</text>
</a>
</g>
</g>
<!-- Node1&#45;&gt;Node20 -->
<g id="edge13_Node000001_Node000020" class="edge">
<title>Node1&#45;&gt;Node20</title>
<g id="a_edge13_Node000001_Node000020"><a xlink:title=" ">
<path fill="none" stroke="#63b8ff" d="M236.3,-295.54C225.96,-250.86 198.87,-161.15 140.5,-113.25 126.48,-101.74 105.93,-97.51 90.85,-95.99"/>
<polygon fill="#63b8ff" stroke="#63b8ff" points="232.85,-296.13 238.41,-305.15 239.68,-294.63 232.85,-296.13"/>
</a>
</g>
</g>
<!-- Node21 -->
<g id="Node000021" class="node">
<title>Node21</title>
<g id="a_Node000021"><a xlink:href="../../dc/d71/generic__sql__query__constructor__tests_8cpp.html#a19ac534a91e0f3f63a7b6b30094f8eae" target="_top" xlink:title=" ">
<polygon fill="white" stroke="#666666" points="90.62,-67.88 49.88,-67.88 49.88,-48.62 90.62,-48.62 90.62,-67.88"/>
<text text-anchor="middle" x="70.25" y="-54.38" font-family="Helvetica,sans-Serif" font-size="10.00">TEST</text>
</a>
</g>
</g>
<!-- Node1&#45;&gt;Node21 -->
<g id="edge14_Node000001_Node000021" class="edge">
<title>Node1&#45;&gt;Node21</title>
<g id="a_edge14_Node000001_Node000021"><a xlink:title=" ">
<path fill="none" stroke="#63b8ff" d="M238.42,-295.23C230.93,-244.48 207.51,-134.73 140.5,-76.25 126.84,-64.32 106.23,-60.15 91.05,-58.76"/>
<polygon fill="#63b8ff" stroke="#63b8ff" points="234.94,-295.59 239.76,-305.02 241.87,-294.64 234.94,-295.59"/>
</a>
</g>
</g>
<!-- Node22 -->
<g id="Node000022" class="node">
<title>Node22</title>
<g id="a_Node000022"><a xlink:href="../../d5/d1b/class_database_1_1_a_sql_backend.html#a23e52466215b03d13e6955a466bc27a1" target="_top" xlink:title="Write blob of type bt.">
<polygon fill="white" stroke="#666666" points="130.75,-30.5 9.75,-30.5 9.75,0 130.75,0 130.75,-30.5"/>
<text text-anchor="start" x="17.75" y="-17" font-family="Helvetica,sans-Serif" font-size="10.00">Database::ASqlBackend</text>
<text text-anchor="middle" x="70.25" y="-5.75" font-family="Helvetica,sans-Serif" font-size="10.00">::writeBlob</text>
</a>
</g>
</g>
<!-- Node1&#45;&gt;Node22 -->
<g id="edge15_Node000001_Node000022" class="edge">
<title>Node1&#45;&gt;Node22</title>
<g id="a_edge15_Node000001_Node000022"><a xlink:title=" ">
<path fill="none" stroke="#63b8ff" d="M239.59,-295.29C233.97,-239.69 213.39,-111.44 140.5,-39.25 137.25,-36.03 133.54,-33.24 129.57,-30.82"/>
<polygon fill="#63b8ff" stroke="#63b8ff" points="236.09,-295.46 240.49,-305.1 243.06,-294.82 236.09,-295.46"/>
</a>
</g>
</g>
</g>
</svg>
