<?xml version="1.0" encoding="UTF-8" standalone="no"?>
<!DOCTYPE svg PUBLIC "-//W3C//DTD SVG 1.1//EN"
 "http://www.w3.org/Graphics/SVG/1.1/DTD/svg11.dtd">
<!-- Generated by graphviz version 12.2.0 (20241103.1931)
 -->
<!-- Title: Database::InsertQueryData::getColumns Pages: 1 -->
<svg width="703pt" height="157pt"
 viewBox="0.00 0.00 702.75 156.50" xmlns="http://www.w3.org/2000/svg" xmlns:xlink="http://www.w3.org/1999/xlink">
<g id="graph0" class="graph" transform="scale(1 1) rotate(0) translate(4 152.5)">
<title>Database::InsertQueryData::getColumns</title>
<!-- Node1 -->
<g id="Node000001" class="node">
<title>Node1</title>
<g id="a_Node000001"><a xlink:title=" ">
<polygon fill="#999999" stroke="#666666" points="694.75,-89.5 562.5,-89.5 562.5,-59 694.75,-59 694.75,-89.5"/>
<text text-anchor="start" x="570.5" y="-76" font-family="Helvetica,sans-Serif" font-size="10.00">Database::InsertQueryData</text>
<text text-anchor="middle" x="628.62" y="-64.75" font-family="Helvetica,sans-Serif" font-size="10.00">::getColumns</text>
</a>
</g>
</g>
<!-- Node2 -->
<g id="Node000002" class="node">
<title>Node2</title>
<g id="a_Node000002"><a xlink:href="../../d0/d6d/class_database_1_1_generic_sql_query_constructor.html#a2eb8a5456904b61ce57ed019d09ae754" target="_top" xlink:title=" ">
<polygon fill="white" stroke="#666666" points="135.25,-148.5 0,-148.5 0,-118 135.25,-118 135.25,-148.5"/>
<text text-anchor="start" x="8" y="-135" font-family="Helvetica,sans-Serif" font-size="10.00">Database::GenericSqlQuery</text>
<text text-anchor="middle" x="67.62" y="-123.75" font-family="Helvetica,sans-Serif" font-size="10.00">Constructor::insert</text>
</a>
</g>
</g>
<!-- Node1&#45;&gt;Node2 -->
<g id="edge1_Node000001_Node000002" class="edge">
<title>Node1&#45;&gt;Node2</title>
<g id="a_edge1_Node000001_Node000002"><a xlink:title=" ">
<path fill="none" stroke="#63b8ff" d="M588.16,-94.91C569.89,-103.56 547.58,-112.84 526.5,-118.25 391.1,-152.99 225.81,-147.1 135.48,-139.99"/>
<polygon fill="#63b8ff" stroke="#63b8ff" points="589.6,-98.1 597.06,-90.59 586.54,-91.81 589.6,-98.1"/>
</a>
</g>
</g>
<!-- Node3 -->
<g id="Node000003" class="node">
<title>Node3</title>
<g id="a_Node000003"><a xlink:href="../../d0/d6d/class_database_1_1_generic_sql_query_constructor.html#ac1d513f9a2812a65d663355999d1893a" target="_top" xlink:title=" ">
<polygon fill="#fff0f0" stroke="red" points="327.88,-127.5 174.62,-127.5 174.62,-97 327.88,-97 327.88,-127.5"/>
<text text-anchor="start" x="182.62" y="-114" font-family="Helvetica,sans-Serif" font-size="10.00">Database::GenericSqlQuery</text>
<text text-anchor="middle" x="251.25" y="-102.75" font-family="Helvetica,sans-Serif" font-size="10.00">Constructor::prepareInsertQuery</text>
</a>
</g>
</g>
<!-- Node1&#45;&gt;Node3 -->
<g id="edge2_Node000001_Node000003" class="edge">
<title>Node1&#45;&gt;Node3</title>
<g id="a_edge2_Node000001_Node000003"><a xlink:title=" ">
<path fill="none" stroke="#63b8ff" d="M558.46,-92.42C547.81,-94.71 536.91,-96.76 526.5,-98.25 459.96,-107.76 383.52,-111.04 328.27,-112.07"/>
<polygon fill="#63b8ff" stroke="#63b8ff" points="558.95,-95.9 567.94,-90.3 557.42,-89.07 558.95,-95.9"/>
</a>
</g>
</g>
<!-- Node6 -->
<g id="Node000006" class="node">
<title>Node6</title>
<g id="a_Node000006"><a xlink:href="../../d0/d6d/class_database_1_1_generic_sql_query_constructor.html#a2298963eda40bc9908a5f12196744901" target="_top" xlink:title=" ">
<polygon fill="white" stroke="#666666" points="526.5,-89.5 367.25,-89.5 367.25,-59 526.5,-59 526.5,-89.5"/>
<text text-anchor="start" x="375.25" y="-76" font-family="Helvetica,sans-Serif" font-size="10.00">Database::GenericSqlQuery</text>
<text text-anchor="middle" x="446.88" y="-64.75" font-family="Helvetica,sans-Serif" font-size="10.00">Constructor::preparePlaceholders</text>
</a>
</g>
</g>
<!-- Node1&#45;&gt;Node6 -->
<g id="edge4_Node000001_Node000006" class="edge">
<title>Node1&#45;&gt;Node6</title>
<g id="a_edge4_Node000001_Node000006"><a xlink:title=" ">
<path fill="none" stroke="#63b8ff" d="M550.8,-74.25C542.92,-74.25 534.9,-74.25 527,-74.25"/>
<polygon fill="#63b8ff" stroke="#63b8ff" points="550.71,-77.75 560.71,-74.25 550.71,-70.75 550.71,-77.75"/>
</a>
</g>
</g>
<!-- Node7 -->
<g id="Node000007" class="node">
<title>Node7</title>
<g id="a_Node000007"><a xlink:href="../../d0/d6d/class_database_1_1_generic_sql_query_constructor.html#a2421c6d44273a5e274f0fa3df2fe5b43" target="_top" xlink:title=" ">
<polygon fill="#fff0f0" stroke="red" points="331.25,-51.5 171.25,-51.5 171.25,-21 331.25,-21 331.25,-51.5"/>
<text text-anchor="start" x="179.25" y="-38" font-family="Helvetica,sans-Serif" font-size="10.00">Database::GenericSqlQuery</text>
<text text-anchor="middle" x="251.25" y="-26.75" font-family="Helvetica,sans-Serif" font-size="10.00">Constructor::prepareUpdateQuery</text>
</a>
</g>
</g>
<!-- Node1&#45;&gt;Node7 -->
<g id="edge8_Node000001_Node000007" class="edge">
<title>Node1&#45;&gt;Node7</title>
<g id="a_edge8_Node000001_Node000007"><a xlink:title=" ">
<path fill="none" stroke="#63b8ff" d="M558.46,-56.08C547.81,-53.79 536.91,-51.74 526.5,-50.25 461.25,-40.92 386.5,-37.59 331.53,-36.49"/>
<polygon fill="#63b8ff" stroke="#63b8ff" points="557.42,-59.43 567.94,-58.2 558.95,-52.6 557.42,-59.43"/>
</a>
</g>
</g>
<!-- Node9 -->
<g id="Node000009" class="node">
<title>Node9</title>
<g id="a_Node000009"><a xlink:href="../../d0/d6d/class_database_1_1_generic_sql_query_constructor.html#aa079f18cb94e3d6cf76c4bd2cc95de81" target="_top" xlink:title=" ">
<polygon fill="white" stroke="#666666" points="135.25,-30.5 0,-30.5 0,0 135.25,0 135.25,-30.5"/>
<text text-anchor="start" x="8" y="-17" font-family="Helvetica,sans-Serif" font-size="10.00">Database::GenericSqlQuery</text>
<text text-anchor="middle" x="67.62" y="-5.75" font-family="Helvetica,sans-Serif" font-size="10.00">Constructor::update</text>
</a>
</g>
</g>
<!-- Node1&#45;&gt;Node9 -->
<g id="edge9_Node000001_Node000009" class="edge">
<title>Node1&#45;&gt;Node9</title>
<g id="a_edge9_Node000001_Node000009"><a xlink:title=" ">
<path fill="none" stroke="#63b8ff" d="M585.29,-54.02C567.51,-46.34 546.37,-38.24 526.5,-33.25 390.9,0.82 225.68,-3.41 135.42,-9.4"/>
<polygon fill="#63b8ff" stroke="#63b8ff" points="583.66,-57.13 594.22,-57.98 586.5,-50.73 583.66,-57.13"/>
</a>
</g>
</g>
<!-- Node3&#45;&gt;Node2 -->
<g id="edge3_Node000003_Node000002" class="edge">
<title>Node3&#45;&gt;Node2</title>
<g id="a_edge3_Node000003_Node000002"><a xlink:title=" ">
<path fill="none" stroke="#63b8ff" d="M163.07,-122.33C153.85,-123.4 144.57,-124.47 135.63,-125.5"/>
<polygon fill="#63b8ff" stroke="#63b8ff" points="163.24,-125.83 172.77,-121.21 162.44,-118.88 163.24,-125.83"/>
</a>
</g>
</g>
<!-- Node6&#45;&gt;Node3 -->
<g id="edge5_Node000006_Node000003" class="edge">
<title>Node6&#45;&gt;Node3</title>
<g id="a_edge5_Node000006_Node000003"><a xlink:title=" ">
<path fill="none" stroke="#63b8ff" d="M355.69,-91.95C346.5,-93.75 337.23,-95.57 328.22,-97.34"/>
<polygon fill="#63b8ff" stroke="#63b8ff" points="356.22,-95.41 365.36,-90.05 354.87,-88.54 356.22,-95.41"/>
</a>
</g>
</g>
<!-- Node6&#45;&gt;Node7 -->
<g id="edge6_Node000006_Node000007" class="edge">
<title>Node6&#45;&gt;Node7</title>
<g id="a_edge6_Node000006_Node000007"><a xlink:title=" ">
<path fill="none" stroke="#63b8ff" d="M355.6,-56.53C347.61,-54.96 339.55,-53.38 331.66,-51.83"/>
<polygon fill="#63b8ff" stroke="#63b8ff" points="354.87,-59.96 365.36,-58.45 356.22,-53.09 354.87,-59.96"/>
</a>
</g>
</g>
<!-- Node7&#45;&gt;Node9 -->
<g id="edge7_Node000007_Node000009" class="edge">
<title>Node7&#45;&gt;Node9</title>
<g id="a_edge7_Node000007_Node000009"><a xlink:title=" ">
<path fill="none" stroke="#63b8ff" d="M159.52,-25.76C151.48,-24.83 143.44,-23.9 135.65,-23"/>
<polygon fill="#63b8ff" stroke="#63b8ff" points="159.01,-29.22 169.35,-26.9 159.82,-22.27 159.01,-29.22"/>
</a>
</g>
</g>
</g>
</svg>
