<?xml version="1.0" encoding="UTF-8" standalone="no"?>
<!DOCTYPE svg PUBLIC "-//W3C//DTD SVG 1.1//EN"
 "http://www.w3.org/Graphics/SVG/1.1/DTD/svg11.dtd">
<!-- Generated by graphviz version 12.2.0 (20241103.1931)
 -->
<!-- Title: Database::InsertQueryData::getColumns Pages: 1 -->
<!--zoomable 157 -->

<svg id="main" version="1.1" xmlns="http://www.w3.org/2000/svg" xmlns:xlink="http://www.w3.org/1999/xlink" xml:space="preserve" onload="init(evt)">

<style type="text/css"><![CDATA[
.node, .edge {opacity: 0.7;}
.node.selected, .edge.selected {opacity: 1;}
.edge:hover path { stroke: red; }
.edge:hover polygon { stroke: red; fill: red; }
]]></style>

<defs>
  <circle id="rim" cx="0" cy="0" r="7"/>
  <circle id="rim2" cx="0" cy="0" r="3.5"/>
  <g id="zoomPlus">
    <use xlink:href="#rim" fill="#404040"><set attributeName="fill" to="#808080" begin="zoomplus.mouseover" end="zoomplus.mouseout"/></use>
    <path d="M-4,0h8M0,-4v8" fill="none" stroke="white" stroke-width="1.5" pointer-events="none"/>
  </g>
  <g id="zoomMin">
    <use xlink:href="#rim" fill="#404040"><set attributeName="fill" to="#808080" begin="zoomminus.mouseover" end="zoomminus.mouseout"/></use>
    <path d="M-4,0h8" fill="none" stroke="white" stroke-width="1.5" pointer-events="none"/>
  </g>
  <g id="arrowUp" transform="translate(30 24)">
    <use xlink:href="#rim"/>
    <path pointer-events="none" fill="none" stroke="white" stroke-width="1.5" d="M0,-3.0v7 M-2.5,-0.5L0,-3.0L2.5,-0.5"/>
  </g>
  <g id="arrowRight" transform="rotate(90) translate(36 -43)">
    <use xlink:href="#rim"/>
    <path pointer-events="none" fill="none" stroke="white" stroke-width="1.5" d="M0,-3.0v7 M-2.5,-0.5L0,-3.0L2.5,-0.5"/>
  </g>
  <g id="arrowDown" transform="rotate(180) translate(-30 -48)">
    <use xlink:href="#rim"/>
    <path pointer-events="none" fill="none" stroke="white" stroke-width="1.5" d="M0,-3.0v7 M-2.5,-0.5L0,-3.0L2.5,-0.5"/>
  </g>
  <g id="arrowLeft" transform="rotate(270) translate(-36 17)">
    <use xlink:href="#rim"/>
    <path pointer-events="none" fill="none" stroke="white" stroke-width="1.5" d="M0,-3.0v7 M-2.5,-0.5L0,-3.0L2.5,-0.5"/>
  </g>
  <g id="resetDef">
    <use xlink:href="#rim2" fill="#404040"><set attributeName="fill" to="#808080" begin="reset.mouseover" end="reset.mouseout"/></use>
  </g>
</defs>
<script type="application/ecmascript">
var viewWidth = 703;
var viewHeight = 157;
var sectionId = 'dynsection-4';
</script>
<script type="application/ecmascript" xlink:href="../../svg.min.js"/>
<svg id="graph" class="graph">
<g id="viewport">
<title>Database::InsertQueryData::getColumns</title>
<!-- Node1 -->
<g id="Node000001" class="node">
<title>Node1</title>
<g id="a_Node000001"><a xlink:title=" ">
<polygon fill="#999999" stroke="#666666" points="694.75,-89.5 562.5,-89.5 562.5,-59 694.75,-59 694.75,-89.5"/>
<text text-anchor="start" x="570.5" y="-76" font-family="Helvetica,sans-Serif" font-size="10.00">Database::InsertQueryData</text>
<text text-anchor="middle" x="628.62" y="-64.75" font-family="Helvetica,sans-Serif" font-size="10.00">::getColumns</text>
</a>
</g>
</g>
<!-- Node2 -->
<g id="Node000002" class="node">
<title>Node2</title>
<g id="a_Node000002"><a xlink:href="../../d0/d6d/class_database_1_1_generic_sql_query_constructor.html#a2eb8a5456904b61ce57ed019d09ae754" target="_top" xlink:title=" ">
<polygon fill="white" stroke="#666666" points="135.25,-148.5 0,-148.5 0,-118 135.25,-118 135.25,-148.5"/>
<text text-anchor="start" x="8" y="-135" font-family="Helvetica,sans-Serif" font-size="10.00">Database::GenericSqlQuery</text>
<text text-anchor="middle" x="67.62" y="-123.75" font-family="Helvetica,sans-Serif" font-size="10.00">Constructor::insert</text>
</a>
</g>
</g>
<!-- Node1&#45;&gt;Node2 -->
<g id="edge1_Node000001_Node000002" class="edge">
<title>Node1&#45;&gt;Node2</title>
<g id="a_edge1_Node000001_Node000002"><a xlink:title=" ">
<path fill="none" stroke="#63b8ff" d="M588.16,-94.91C569.89,-103.56 547.58,-112.84 526.5,-118.25 391.1,-152.99 225.81,-147.1 135.48,-139.99"/>
<polygon fill="#63b8ff" stroke="#63b8ff" points="589.6,-98.1 597.06,-90.59 586.54,-91.81 589.6,-98.1"/>
</a>
</g>
</g>
<!-- Node3 -->
<g id="Node000003" class="node">
<title>Node3</title>
<g id="a_Node000003"><a xlink:href="../../d0/d6d/class_database_1_1_generic_sql_query_constructor.html#ac1d513f9a2812a65d663355999d1893a" target="_top" xlink:title=" ">
<polygon fill="#fff0f0" stroke="red" points="327.88,-127.5 174.62,-127.5 174.62,-97 327.88,-97 327.88,-127.5"/>
<text text-anchor="start" x="182.62" y="-114" font-family="Helvetica,sans-Serif" font-size="10.00">Database::GenericSqlQuery</text>
<text text-anchor="middle" x="251.25" y="-102.75" font-family="Helvetica,sans-Serif" font-size="10.00">Constructor::prepareInsertQuery</text>
</a>
</g>
</g>
<!-- Node1&#45;&gt;Node3 -->
<g id="edge2_Node000001_Node000003" class="edge">
<title>Node1&#45;&gt;Node3</title>
<g id="a_edge2_Node000001_Node000003"><a xlink:title=" ">
<path fill="none" stroke="#63b8ff" d="M558.46,-92.42C547.81,-94.71 536.91,-96.76 526.5,-98.25 459.96,-107.76 383.52,-111.04 328.27,-112.07"/>
<polygon fill="#63b8ff" stroke="#63b8ff" points="558.95,-95.9 567.94,-90.3 557.42,-89.07 558.95,-95.9"/>
</a>
</g>
</g>
<!-- Node6 -->
<g id="Node000006" class="node">
<title>Node6</title>
<g id="a_Node000006"><a xlink:href="../../d0/d6d/class_database_1_1_generic_sql_query_constructor.html#a2298963eda40bc9908a5f12196744901" target="_top" xlink:title=" ">
<polygon fill="white" stroke="#666666" points="526.5,-89.5 367.25,-89.5 367.25,-59 526.5,-59 526.5,-89.5"/>
<text text-anchor="start" x="375.25" y="-76" font-family="Helvetica,sans-Serif" font-size="10.00">Database::GenericSqlQuery</text>
<text text-anchor="middle" x="446.88" y="-64.75" font-family="Helvetica,sans-Serif" font-size="10.00">Constructor::preparePlaceholders</text>
</a>
</g>
</g>
<!-- Node1&#45;&gt;Node6 -->
<g id="edge4_Node000001_Node000006" class="edge">
<title>Node1&#45;&gt;Node6</title>
<g id="a_edge4_Node000001_Node000006"><a xlink:title=" ">
<path fill="none" stroke="#63b8ff" d="M550.8,-74.25C542.92,-74.25 534.9,-74.25 527,-74.25"/>
<polygon fill="#63b8ff" stroke="#63b8ff" points="550.71,-77.75 560.71,-74.25 550.71,-70.75 550.71,-77.75"/>
</a>
</g>
</g>
<!-- Node7 -->
<g id="Node000007" class="node">
<title>Node7</title>
<g id="a_Node000007"><a xlink:href="../../d0/d6d/class_database_1_1_generic_sql_query_constructor.html#a2421c6d44273a5e274f0fa3df2fe5b43" target="_top" xlink:title=" ">
<polygon fill="#fff0f0" stroke="red" points="331.25,-51.5 171.25,-51.5 171.25,-21 331.25,-21 331.25,-51.5"/>
<text text-anchor="start" x="179.25" y="-38" font-family="Helvetica,sans-Serif" font-size="10.00">Database::GenericSqlQuery</text>
<text text-anchor="middle" x="251.25" y="-26.75" font-family="Helvetica,sans-Serif" font-size="10.00">Constructor::prepareUpdateQuery</text>
</a>
</g>
</g>
<!-- Node1&#45;&gt;Node7 -->
<g id="edge8_Node000001_Node000007" class="edge">
<title>Node1&#45;&gt;Node7</title>
<g id="a_edge8_Node000001_Node000007"><a xlink:title=" ">
<path fill="none" stroke="#63b8ff" d="M558.46,-56.08C547.81,-53.79 536.91,-51.74 526.5,-50.25 461.25,-40.92 386.5,-37.59 331.53,-36.49"/>
<polygon fill="#63b8ff" stroke="#63b8ff" points="557.42,-59.43 567.94,-58.2 558.95,-52.6 557.42,-59.43"/>
</a>
</g>
</g>
<!-- Node9 -->
<g id="Node000009" class="node">
<title>Node9</title>
<g id="a_Node000009"><a xlink:href="../../d0/d6d/class_database_1_1_generic_sql_query_constructor.html#aa079f18cb94e3d6cf76c4bd2cc95de81" target="_top" xlink:title=" ">
<polygon fill="white" stroke="#666666" points="135.25,-30.5 0,-30.5 0,0 135.25,0 135.25,-30.5"/>
<text text-anchor="start" x="8" y="-17" font-family="Helvetica,sans-Serif" font-size="10.00">Database::GenericSqlQuery</text>
<text text-anchor="middle" x="67.62" y="-5.75" font-family="Helvetica,sans-Serif" font-size="10.00">Constructor::update</text>
</a>
</g>
</g>
<!-- Node1&#45;&gt;Node9 -->
<g id="edge9_Node000001_Node000009" class="edge">
<title>Node1&#45;&gt;Node9</title>
<g id="a_edge9_Node000001_Node000009"><a xlink:title=" ">
<path fill="none" stroke="#63b8ff" d="M585.29,-54.02C567.51,-46.34 546.37,-38.24 526.5,-33.25 390.9,0.82 225.68,-3.41 135.42,-9.4"/>
<polygon fill="#63b8ff" stroke="#63b8ff" points="583.66,-57.13 594.22,-57.98 586.5,-50.73 583.66,-57.13"/>
</a>
</g>
</g>
<!-- Node3&#45;&gt;Node2 -->
<g id="edge3_Node000003_Node000002" class="edge">
<title>Node3&#45;&gt;Node2</title>
<g id="a_edge3_Node000003_Node000002"><a xlink:title=" ">
<path fill="none" stroke="#63b8ff" d="M163.07,-122.33C153.85,-123.4 144.57,-124.47 135.63,-125.5"/>
<polygon fill="#63b8ff" stroke="#63b8ff" points="163.24,-125.83 172.77,-121.21 162.44,-118.88 163.24,-125.83"/>
</a>
</g>
</g>
<!-- Node6&#45;&gt;Node3 -->
<g id="edge5_Node000006_Node000003" class="edge">
<title>Node6&#45;&gt;Node3</title>
<g id="a_edge5_Node000006_Node000003"><a xlink:title=" ">
<path fill="none" stroke="#63b8ff" d="M355.69,-91.95C346.5,-93.75 337.23,-95.57 328.22,-97.34"/>
<polygon fill="#63b8ff" stroke="#63b8ff" points="356.22,-95.41 365.36,-90.05 354.87,-88.54 356.22,-95.41"/>
</a>
</g>
</g>
<!-- Node6&#45;&gt;Node7 -->
<g id="edge6_Node000006_Node000007" class="edge">
<title>Node6&#45;&gt;Node7</title>
<g id="a_edge6_Node000006_Node000007"><a xlink:title=" ">
<path fill="none" stroke="#63b8ff" d="M355.6,-56.53C347.61,-54.96 339.55,-53.38 331.66,-51.83"/>
<polygon fill="#63b8ff" stroke="#63b8ff" points="354.87,-59.96 365.36,-58.45 356.22,-53.09 354.87,-59.96"/>
</a>
</g>
</g>
<!-- Node7&#45;&gt;Node9 -->
<g id="edge7_Node000007_Node000009" class="edge">
<title>Node7&#45;&gt;Node9</title>
<g id="a_edge7_Node000007_Node000009"><a xlink:title=" ">
<path fill="none" stroke="#63b8ff" d="M159.52,-25.76C151.48,-24.83 143.44,-23.9 135.65,-23"/>
<polygon fill="#63b8ff" stroke="#63b8ff" points="159.01,-29.22 169.35,-26.9 159.82,-22.27 159.01,-29.22"/>
</a>
</g>
</g>
</g>
</svg>

<g id="navigator" transform="translate(0 0)" fill="#404254">
  <rect fill="#f2f5e9" fill-opacity="0.5" stroke="#606060" stroke-width=".5" x="0" y="0" width="60" height="60"/>
  <use id="zoomplus" xlink:href="#zoomPlus" x="17" y="9" onmousedown="handleZoom(evt,'in')"/>
  <use id="zoomminus" xlink:href="#zoomMin" x="42" y="9" onmousedown="handleZoom(evt,'out')"/>
  <use id="reset" xlink:href="#resetDef" x="30" y="36" onmousedown="handleReset()"/>
   <use id="arrowup" xlink:href="#arrowUp" x="0" y="0" onmousedown="handlePan(0,-1)"/>
  <use id="arrowright" xlink:href="#arrowRight" x="0" y="0" onmousedown="handlePan(1,0)"/>
  <use id="arrowdown" xlink:href="#arrowDown" x="0" y="0" onmousedown="handlePan(0,1)"/>
  <use id="arrowleft" xlink:href="#arrowLeft" x="0" y="0" onmousedown="handlePan(-1,0)"/>
</g>
<svg viewBox="0 0 15 15" width="100%" height="30px" preserveAspectRatio="xMaxYMin meet">
 <g id="arrow_out" transform="scale(0.3 0.3)">
  <a xlink:href="class_database_1_1_insert_query_data_a5ce2ce74817343405919a285e452af35_icgraph_org.svg" target="_base">
   <rect id="button" ry="5" rx="5" y="6" x="6" height="38" width="38"
        fill="#f2f5e9" fill-opacity="0.5" stroke="#606060" stroke-width="1.0"/>
   <path id="arrow"
     d="M 11.500037,31.436501 C 11.940474,20.09759 22.043105,11.32322 32.158766,21.979434 L 37.068811,17.246167 C 37.068811,17.246167 37.088388,32 37.088388,32 L 22.160133,31.978069 C 22.160133,31.978069 26.997745,27.140456 26.997745,27.140456 C 18.528582,18.264221 13.291696,25.230495 11.500037,31.436501 z"
     style="fill:#404040;"/>
  </a>
 </g>
</svg>

<style type='text/css'>
<![CDATA[
[data-mouse-over-selected='false'] { opacity: 0.7; }
[data-mouse-over-selected='true']  { opacity: 1.0; }
]]>
</style>
<script type="application/ecmascript"><![CDATA[
document.addEventListener('DOMContentLoaded', (event) => {
  highlightEdges();
  highlightAdjacentNodes();
});
]]></script>
</svg>
