<?xml version="1.0" encoding="UTF-8" standalone="no"?>
<!DOCTYPE svg PUBLIC "-//W3C//DTD SVG 1.1//EN"
 "http://www.w3.org/Graphics/SVG/1.1/DTD/svg11.dtd">
<!-- Generated by graphviz version 7.0.5 (20221223.1930)
 -->
<!-- Title: src/database/implementation/async_database.cpp Pages: 1 -->
<!--zoomable 148 -->
<svg id="main" version="1.1" xmlns="http://www.w3.org/2000/svg" xmlns:xlink="http://www.w3.org/1999/xlink" xml:space="preserve" onload="init(evt)">
<style type="text/css"><![CDATA[
.edge:hover path { stroke: red; }
.edge:hover polygon { stroke: red; fill: red; }
]]></style>
<script type="text/javascript"><![CDATA[
var edges = document.getElementsByTagName('g');
if (edges && edges.length) {
  for (var i=0;i<edges.length;i++) {
    if (edges[i].id.substr(0,4)=='edge') {
      edges[i].setAttribute('class','edge');
    }
  }
}
]]></script>
        <defs>
                <circle id="rim" cx="0" cy="0" r="7"/>
                <circle id="rim2" cx="0" cy="0" r="3.5"/>
                <g id="zoomPlus">
                        <use xlink:href="#rim" fill="#404040">
                                <set attributeName="fill" to="#808080" begin="zoomplus.mouseover" end="zoomplus.mouseout"/>
                        </use>
                        <path d="M-4,0h8M0,-4v8" fill="none" stroke="white" stroke-width="1.5" pointer-events="none"/>
                </g>
                <g id="zoomMin">
                        <use xlink:href="#rim" fill="#404040">
                                <set attributeName="fill" to="#808080" begin="zoomminus.mouseover" end="zoomminus.mouseout"/>
                        </use>
                        <path d="M-4,0h8" fill="none" stroke="white" stroke-width="1.5" pointer-events="none"/>
                </g>
                <g id="dirArrow">
                        <path fill="none" stroke="white" stroke-width="1.5" d="M0,-3.0v7 M-2.5,-0.5L0,-3.0L2.5,-0.5"/>
                </g>
               <g id="resetDef">
                       <use xlink:href="#rim2" fill="#404040">
                               <set attributeName="fill" to="#808080" begin="reset.mouseover" end="reset.mouseout"/>
                       </use>
               </g>
        </defs>

<script type="text/javascript">
var viewWidth = 1153;
var viewHeight = 148;
var sectionId = 'dynsection-0';
</script>
<script xlink:href="../../svgpan.js"/>
<svg id="graph" class="graph">
<g id="viewport">
<title>src/database/implementation/async_database.cpp</title>
<!-- Node1 -->
<g id="node1" class="node">
<title>Node1</title>
<g id="a_node1"><a xlink:title=" ">
<polygon fill="#999999" stroke="#666666" points="605.14,-140 463.14,-140 463.14,-110 605.14,-110 605.14,-140"/>
<text text-anchor="start" x="471.14" y="-128" font-family="Helvetica,sans-Serif" font-size="10.00">src/database/implementation</text>
<text text-anchor="middle" x="534.14" y="-117" font-family="Helvetica,sans-Serif" font-size="10.00">/async_database.cpp</text>
</a>
</g>
</g>
<!-- Node2 -->
<g id="node2" class="node">
<title>Node2</title>
<g id="a_node2"><a xlink:href="../../d8/da1/async__database_8hpp.html" target="_top" xlink:title=" ">
<polygon fill="#fff0f0" stroke="red" points="244.64,-74 139.64,-74 139.64,-55 244.64,-55 244.64,-74"/>
<text text-anchor="middle" x="192.14" y="-62" font-family="Helvetica,sans-Serif" font-size="10.00">async_database.hpp</text>
</a>
</g>
</g>
<!-- Node1&#45;&gt;Node2 -->
<g id="edge1" class="edge">
<title>Node1&#45;&gt;Node2</title>
<path fill="none" stroke="#63b8ff" d="M462.86,-111.81C401.71,-101.35 314.41,-86.41 255.62,-76.36"/>
<polygon fill="#63b8ff" stroke="#63b8ff" points="256.57,-72.97 246.12,-74.73 255.39,-79.87 256.57,-72.97"/>
</g>
<!-- Node4 -->
<g id="node3" class="node">
<title>Node4</title>
<g id="a_node3"><a xlink:title=" ">
<polygon fill="#e0e0e0" stroke="#999999" points="90.14,-19 46.14,-19 46.14,0 90.14,0 90.14,-19"/>
<text text-anchor="middle" x="68.14" y="-7" font-family="Helvetica,sans-Serif" font-size="10.00">thread</text>
</a>
</g>
</g>
<!-- Node1&#45;&gt;Node4 -->
<g id="edge4" class="edge">
<title>Node1&#45;&gt;Node4</title>
<path fill="none" stroke="#63b8ff" d="M462.71,-122.48C325.38,-118.82 35.35,-107.2 5.14,-74 -10.89,-56.39 14.88,-37.1 38.12,-24.45"/>
<polygon fill="#63b8ff" stroke="#63b8ff" points="39.5,-27.68 46.79,-20 36.3,-21.46 39.5,-27.68"/>
</g>
<!-- Node36 -->
<g id="node4" class="node">
<title>Node36</title>
<g id="a_node4"><a xlink:href="../../da/d2a/ibackend_8hpp.html" target="_top" xlink:title=" ">
<polygon fill="#fff0f0" stroke="red" points="422.14,-19 348.14,-19 348.14,0 422.14,0 422.14,-19"/>
<text text-anchor="middle" x="385.14" y="-7" font-family="Helvetica,sans-Serif" font-size="10.00">ibackend.hpp</text>
</a>
</g>
</g>
<!-- Node1&#45;&gt;Node36 -->
<g id="edge11" class="edge">
<title>Node1&#45;&gt;Node36</title>
<path fill="none" stroke="#63b8ff" d="M546.89,-109.52C558.42,-94.6 571.8,-71.3 559.14,-55 543.84,-35.3 479.74,-22.85 433.79,-16.27"/>
<polygon fill="#63b8ff" stroke="#63b8ff" points="434.42,-12.83 424.03,-14.94 433.46,-19.76 434.42,-12.83"/>
</g>
<!-- Node8 -->
<g id="node5" class="node">
<title>Node8</title>
<g id="a_node5"><a xlink:title=" ">
<polygon fill="#e0e0e0" stroke="#999999" points="313.64,-74 262.64,-74 262.64,-55 313.64,-55 313.64,-74"/>
<text text-anchor="middle" x="288.14" y="-62" font-family="Helvetica,sans-Serif" font-size="10.00">memory</text>
</a>
</g>
</g>
<!-- Node1&#45;&gt;Node8 -->
<g id="edge5" class="edge">
<title>Node1&#45;&gt;Node8</title>
<path fill="none" stroke="#63b8ff" d="M472.72,-109.54C433.24,-100.23 380.56,-87.75 325.23,-74.49"/>
<polygon fill="#63b8ff" stroke="#63b8ff" points="326.14,-71.11 315.6,-72.18 324.51,-77.92 326.14,-71.11"/>
</g>
<!-- Node48 -->
<g id="node6" class="node">
<title>Node48</title>
<g id="a_node6"><a xlink:title=" ">
<polygon fill="#e0e0e0" stroke="#999999" points="414.64,-74 331.64,-74 331.64,-55 414.64,-55 414.64,-74"/>
<text text-anchor="middle" x="373.14" y="-62" font-family="Helvetica,sans-Serif" font-size="10.00">QElapsedTimer</text>
</a>
</g>
</g>
<!-- Node1&#45;&gt;Node48 -->
<g id="edge6" class="edge">
<title>Node1&#45;&gt;Node48</title>
<path fill="none" stroke="#63b8ff" d="M494.34,-109.54C467.9,-99.93 433.5,-87.43 408.11,-78.21"/>
<polygon fill="#63b8ff" stroke="#63b8ff" points="409.5,-74.99 398.91,-74.86 407.11,-81.57 409.5,-74.99"/>
</g>
<!-- Node49 -->
<g id="node7" class="node">
<title>Node49</title>
<g id="a_node7"><a xlink:href="../../d5/df1/logger__factory_8hpp.html" target="_top" xlink:title=" ">
<polygon fill="#fff0f0" stroke="red" points="549.64,-74 432.64,-74 432.64,-55 549.64,-55 549.64,-74"/>
<text text-anchor="middle" x="491.14" y="-62" font-family="Helvetica,sans-Serif" font-size="10.00">core/logger_factory.hpp</text>
</a>
</g>
</g>
<!-- Node1&#45;&gt;Node49 -->
<g id="edge7" class="edge">
<title>Node1&#45;&gt;Node49</title>
<path fill="none" stroke="#63b8ff" d="M523.51,-109.54C517.71,-101.65 510.48,-91.81 504.32,-83.44"/>
<polygon fill="#63b8ff" stroke="#63b8ff" points="507.15,-81.38 498.41,-75.39 501.51,-85.53 507.15,-81.38"/>
</g>
<!-- Node56 -->
<g id="node8" class="node">
<title>Node56</title>
<g id="a_node8"><a xlink:href="../../d6/d94/thread__utils_8hpp.html" target="_top" xlink:title=" ">
<polygon fill="#fff0f0" stroke="red" points="121.64,-74 14.64,-74 14.64,-55 121.64,-55 121.64,-74"/>
<text text-anchor="middle" x="68.14" y="-62" font-family="Helvetica,sans-Serif" font-size="10.00">core/thread_utils.hpp</text>
</a>
</g>
</g>
<!-- Node1&#45;&gt;Node56 -->
<g id="edge8" class="edge">
<title>Node1&#45;&gt;Node56</title>
<path fill="none" stroke="#63b8ff" d="M462.95,-115.48C384.66,-106.04 254.8,-90.19 133.26,-74.39"/>
<polygon fill="#63b8ff" stroke="#63b8ff" points="133.77,-70.93 123.4,-73.11 132.87,-77.87 133.77,-70.93"/>
</g>
<!-- Node57 -->
<g id="node9" class="node">
<title>Node57</title>
<g id="a_node9"><a xlink:href="../../de/d19/ts__queue_8hpp.html" target="_top" xlink:title=" ">
<polygon fill="#fff0f0" stroke="red" points="702.14,-74 606.14,-74 606.14,-55 702.14,-55 702.14,-74"/>
<text text-anchor="middle" x="654.14" y="-62" font-family="Helvetica,sans-Serif" font-size="10.00">core/ts_queue.hpp</text>
</a>
</g>
</g>
<!-- Node1&#45;&gt;Node57 -->
<g id="edge10" class="edge">
<title>Node1&#45;&gt;Node57</title>
<path fill="none" stroke="#63b8ff" d="M563.8,-109.54C582.71,-100.32 607.09,-88.44 625.75,-79.34"/>
<polygon fill="#63b8ff" stroke="#63b8ff" points="627.18,-82.54 634.63,-75.01 624.11,-76.25 627.18,-82.54"/>
</g>
<!-- Node60 -->
<g id="node10" class="node">
<title>Node60</title>
<g id="a_node10"><a xlink:href="../../d9/d8f/igroup__operator_8hpp.html" target="_top" xlink:title=" ">
<polygon fill="#fff0f0" stroke="red" points="821.64,-74 720.64,-74 720.64,-55 821.64,-55 821.64,-74"/>
<text text-anchor="middle" x="771.14" y="-62" font-family="Helvetica,sans-Serif" font-size="10.00">igroup_operator.hpp</text>
</a>
</g>
</g>
<!-- Node1&#45;&gt;Node60 -->
<g id="edge12" class="edge">
<title>Node1&#45;&gt;Node60</title>
<path fill="none" stroke="#63b8ff" d="M592.72,-109.54C633.27,-99.53 686.52,-86.39 724.26,-77.07"/>
<polygon fill="#63b8ff" stroke="#63b8ff" points="724.61,-80.59 733.48,-74.79 722.93,-73.79 724.61,-80.59"/>
</g>
<!-- Node61 -->
<g id="node11" class="node">
<title>Node61</title>
<g id="a_node11"><a xlink:href="../../d4/d3c/iphoto__operator_8hpp.html" target="_top" xlink:title=" ">
<polygon fill="#fff0f0" stroke="red" points="940.64,-74 839.64,-74 839.64,-55 940.64,-55 940.64,-74"/>
<text text-anchor="middle" x="890.14" y="-62" font-family="Helvetica,sans-Serif" font-size="10.00">iphoto_operator.hpp</text>
</a>
</g>
</g>
<!-- Node1&#45;&gt;Node61 -->
<g id="edge13" class="edge">
<title>Node1&#45;&gt;Node61</title>
<path fill="none" stroke="#63b8ff" d="M605.32,-112.3C670.46,-101.6 765.88,-85.92 828.01,-75.71"/>
<polygon fill="#63b8ff" stroke="#63b8ff" points="828.41,-79.19 837.71,-74.12 827.28,-72.28 828.41,-79.19"/>
</g>
<!-- Node42 -->
<g id="node12" class="node">
<title>Node42</title>
<g id="a_node12"><a xlink:href="../../db/d39/photo__data_8hpp.html" target="_top" xlink:title=" ">
<polygon fill="#fff0f0" stroke="red" points="1041.64,-74 958.64,-74 958.64,-55 1041.64,-55 1041.64,-74"/>
<text text-anchor="middle" x="1000.14" y="-62" font-family="Helvetica,sans-Serif" font-size="10.00">photo_data.hpp</text>
</a>
</g>
</g>
<!-- Node1&#45;&gt;Node42 -->
<g id="edge14" class="edge">
<title>Node1&#45;&gt;Node42</title>
<path fill="none" stroke="#63b8ff" d="M605.31,-116.51C685.82,-107.81 821.16,-92.44 946.8,-74.43"/>
<polygon fill="#63b8ff" stroke="#63b8ff" points="947.25,-77.9 956.65,-73.01 946.25,-70.97 947.25,-77.9"/>
</g>
<!-- Node65 -->
<g id="node13" class="node">
<title>Node65</title>
<g id="a_node13"><a xlink:href="../../d3/d41/project__info_8hpp.html" target="_top" xlink:title=" ">
<polygon fill="white" stroke="#666666" points="1144.64,-74 1059.64,-74 1059.64,-55 1144.64,-55 1144.64,-74"/>
<text text-anchor="middle" x="1102.14" y="-62" font-family="Helvetica,sans-Serif" font-size="10.00">project_info.hpp</text>
</a>
</g>
</g>
<!-- Node1&#45;&gt;Node65 -->
<g id="edge15" class="edge">
<title>Node1&#45;&gt;Node65</title>
<path fill="none" stroke="#63b8ff" d="M605.4,-118.67C703.02,-111.01 884.08,-95.59 1048.04,-74.33"/>
<polygon fill="#63b8ff" stroke="#63b8ff" points="1048.35,-77.82 1057.82,-73.05 1047.45,-70.88 1048.35,-77.82"/>
</g>
<!-- Node2&#45;&gt;Node4 -->
<g id="edge2" class="edge">
<title>Node2&#45;&gt;Node4</title>
<path fill="none" stroke="#63b8ff" d="M171.1,-54.51C151.39,-46.08 121.67,-33.38 99.22,-23.79"/>
<polygon fill="#63b8ff" stroke="#63b8ff" points="100.82,-20.66 90.25,-19.95 98.07,-27.1 100.82,-20.66"/>
</g>
<!-- Node2&#45;&gt;Node36 -->
<g id="edge3" class="edge">
<title>Node2&#45;&gt;Node36</title>
<path fill="none" stroke="#63b8ff" d="M224.88,-54.51C257,-45.69 306.18,-32.18 341.59,-22.46"/>
<polygon fill="#63b8ff" stroke="#63b8ff" points="342.38,-25.87 351.1,-19.85 340.53,-19.12 342.38,-25.87"/>
</g>
<!-- Node56&#45;&gt;Node4 -->
<g id="edge9" class="edge">
<title>Node56&#45;&gt;Node4</title>
<path fill="none" stroke="#63b8ff" d="M68.14,-54.75C68.14,-48.27 68.14,-39.16 68.14,-30.9"/>
<polygon fill="#63b8ff" stroke="#63b8ff" points="71.64,-30.96 68.14,-20.96 64.64,-30.96 71.64,-30.96"/>
</g>
</g>
</svg>
        <g id="navigator" transform="translate(0 0)" fill="#404254">
                <rect fill="#f2f5e9" fill-opacity="0.5" stroke="#606060" stroke-width=".5" x="0" y="0" width="60" height="60"/>
                <use id="zoomplus" xlink:href="#zoomPlus" x="17" y="9" onmousedown="handleZoom(evt,'in')"/>
                <use id="zoomminus" xlink:href="#zoomMin" x="42" y="9" onmousedown="handleZoom(evt,'out')"/>
                <use id="reset" xlink:href="#resetDef" x="30" y="36" onmousedown="handleReset()"/>
                <g id="arrowUp" xlink:href="#dirArrow" transform="translate(30 24)" onmousedown="handlePan(0,-1)">
                  <use xlink:href="#rim" fill="#404040">
                        <set attributeName="fill" to="#808080" begin="arrowUp.mouseover" end="arrowUp.mouseout"/>
                  </use>
                  <path fill="none" stroke="white" stroke-width="1.5" d="M0,-3.0v7 M-2.5,-0.5L0,-3.0L2.5,-0.5"/>
                </g>
                <g id="arrowRight" xlink:href="#dirArrow" transform="rotate(90) translate(36 -43)" onmousedown="handlePan(1,0)">
                  <use xlink:href="#rim" fill="#404040">
                        <set attributeName="fill" to="#808080" begin="arrowRight.mouseover" end="arrowRight.mouseout"/>
                  </use>
                  <path fill="none" stroke="white" stroke-width="1.5" d="M0,-3.0v7 M-2.5,-0.5L0,-3.0L2.5,-0.5"/>
                </g>
                <g id="arrowDown" xlink:href="#dirArrow" transform="rotate(180) translate(-30 -48)" onmousedown="handlePan(0,1)">
                  <use xlink:href="#rim" fill="#404040">
                        <set attributeName="fill" to="#808080" begin="arrowDown.mouseover" end="arrowDown.mouseout"/>
                  </use>
                  <path fill="none" stroke="white" stroke-width="1.5" d="M0,-3.0v7 M-2.5,-0.5L0,-3.0L2.5,-0.5"/>
                </g>
                <g id="arrowLeft" xlink:href="#dirArrow" transform="rotate(270) translate(-36 17)" onmousedown="handlePan(-1,0)">
                  <use xlink:href="#rim" fill="#404040">
                        <set attributeName="fill" to="#808080" begin="arrowLeft.mouseover" end="arrowLeft.mouseout"/>
                  </use>
                  <path fill="none" stroke="white" stroke-width="1.5" d="M0,-3.0v7 M-2.5,-0.5L0,-3.0L2.5,-0.5"/>
                </g>
        </g>
        <svg viewBox="0 0 15 15" width="100%" height="30px" preserveAspectRatio="xMaxYMin meet">
         <g id="arrow_out" transform="scale(0.3 0.3)">
          <a xlink:href="async__database_8cpp__incl_org.svg" target="_base">
           <rect id="button" ry="5" rx="5" y="6" x="6" height="38" width="38"
                fill="#f2f5e9" fill-opacity="0.5" stroke="#606060" stroke-width="1.0"/>
           <path id="arrow"
             d="M 11.500037,31.436501 C 11.940474,20.09759 22.043105,11.32322 32.158766,21.979434 L 37.068811,17.246167 C 37.068811,17.246167 37.088388,32 37.088388,32 L 22.160133,31.978069 C 22.160133,31.978069 26.997745,27.140456 26.997745,27.140456 C 18.528582,18.264221 13.291696,25.230495 11.500037,31.436501 z"
             style="fill:#404040;"/>
          </a>
         </g>
        </svg>
</svg>
