<?xml version="1.0" encoding="UTF-8" standalone="no"?>
<!DOCTYPE svg PUBLIC "-//W3C//DTD SVG 1.1//EN"
 "http://www.w3.org/Graphics/SVG/1.1/DTD/svg11.dtd">
<!-- Generated by graphviz version 9.0.0 (20230911.1827)
 -->
<!-- Title: src/database/implementation/async_database.cpp Pages: 1 -->
<!--zoomable 149 -->

<svg id="main" version="1.1" xmlns="http://www.w3.org/2000/svg" xmlns:xlink="http://www.w3.org/1999/xlink" xml:space="preserve" onload="init(evt)">
<style type="text/css"><![CDATA[
.node, .edge {opacity: 0.7;}
.node.selected, .edge.selected {opacity: 1;}
.edge:hover path { stroke: red; }
.edge:hover polygon { stroke: red; fill: red; }
]]></style>

<defs>
  <circle id="rim" cx="0" cy="0" r="7"/>
  <circle id="rim2" cx="0" cy="0" r="3.5"/>
  <g id="zoomPlus">
    <use xlink:href="#rim" fill="#404040"><set attributeName="fill" to="#808080" begin="zoomplus.mouseover" end="zoomplus.mouseout"/></use>
    <path d="M-4,0h8M0,-4v8" fill="none" stroke="white" stroke-width="1.5" pointer-events="none"/>
  </g>
  <g id="zoomMin">
    <use xlink:href="#rim" fill="#404040"><set attributeName="fill" to="#808080" begin="zoomminus.mouseover" end="zoomminus.mouseout"/></use>
    <path d="M-4,0h8" fill="none" stroke="white" stroke-width="1.5" pointer-events="none"/>
  </g>
  <g id="arrowUp" transform="translate(30 24)">
    <use xlink:href="#rim"/>
    <path pointer-events="none" fill="none" stroke="white" stroke-width="1.5" d="M0,-3.0v7 M-2.5,-0.5L0,-3.0L2.5,-0.5"/>
  </g>
  <g id="arrowRight" transform="rotate(90) translate(36 -43)">
    <use xlink:href="#rim"/>
    <path pointer-events="none" fill="none" stroke="white" stroke-width="1.5" d="M0,-3.0v7 M-2.5,-0.5L0,-3.0L2.5,-0.5"/>
  </g>
  <g id="arrowDown" transform="rotate(180) translate(-30 -48)">
    <use xlink:href="#rim"/>
    <path pointer-events="none" fill="none" stroke="white" stroke-width="1.5" d="M0,-3.0v7 M-2.5,-0.5L0,-3.0L2.5,-0.5"/>
  </g>
  <g id="arrowLeft" transform="rotate(270) translate(-36 17)">
    <use xlink:href="#rim"/>
    <path pointer-events="none" fill="none" stroke="white" stroke-width="1.5" d="M0,-3.0v7 M-2.5,-0.5L0,-3.0L2.5,-0.5"/>
  </g>
  <g id="resetDef">
    <use xlink:href="#rim2" fill="#404040"><set attributeName="fill" to="#808080" begin="reset.mouseover" end="reset.mouseout"/></use>
  </g>
</defs>
<script type="application/ecmascript">
var viewWidth = 1084;
var viewHeight = 149;
var sectionId = 'dynsection-0';
</script>
<script type="application/ecmascript" xlink:href="../../svg.min.js"/>
<svg id="graph" class="graph">
<g id="viewport">
<title>src/database/implementation/async_database.cpp</title>
<!-- Node1 -->
<g id="Node000001" class="node">
<title>Node1</title>
<g id="a_Node000001"><a xlink:title=" ">
<polygon fill="#999999" stroke="#666666" points="602.76,-141 461.51,-141 461.51,-110.5 602.76,-110.5 602.76,-141"/>
<text text-anchor="start" x="469.51" y="-127.5" font-family="Helvetica,sans-Serif" font-size="10.00">src/database/implementation</text>
<text text-anchor="middle" x="532.14" y="-116.25" font-family="Helvetica,sans-Serif" font-size="10.00">/async_database.cpp</text>
</a>
</g>
</g>
<!-- Node2 -->
<g id="Node000002" class="node">
<title>Node2</title>
<g id="a_Node000002"><a xlink:href="../../d8/da1/async__database_8hpp.html" target="_top" xlink:title=" ">
<polygon fill="#fff0f0" stroke="red" points="242.39,-74.5 137.89,-74.5 137.89,-55.25 242.39,-55.25 242.39,-74.5"/>
<text text-anchor="middle" x="190.14" y="-61" font-family="Helvetica,sans-Serif" font-size="10.00">async_database.hpp</text>
</a>
</g>
</g>
<!-- Node1&#45;&gt;Node2 -->
<g id="edge1_Node000001_Node000002" class="edge">
<title>Node1&#45;&gt;Node2</title>
<g id="a_edge1_Node000001_Node000002"><a xlink:title=" ">
<path fill="none" stroke="#63b8ff" d="M461.28,-112.55C400.16,-102.03 312.7,-86.97 253.78,-76.83"/>
<polygon fill="#63b8ff" stroke="#63b8ff" points="254.7,-73.44 244.25,-75.19 253.51,-80.34 254.7,-73.44"/>
</a>
</g>
</g>
<!-- Node4 -->
<g id="Node000004" class="node">
<title>Node4</title>
<g id="a_Node000004"><a xlink:title=" ">
<polygon fill="#e0e0e0" stroke="#999999" points="88.64,-19.25 45.64,-19.25 45.64,0 88.64,0 88.64,-19.25"/>
<text text-anchor="middle" x="67.14" y="-5.75" font-family="Helvetica,sans-Serif" font-size="10.00">thread</text>
</a>
</g>
</g>
<!-- Node1&#45;&gt;Node4 -->
<g id="edge4_Node000001_Node000004" class="edge">
<title>Node1&#45;&gt;Node4</title>
<g id="a_edge4_Node000001_Node000004"><a xlink:title=" ">
<path fill="none" stroke="#63b8ff" d="M461.24,-123.18C324.53,-119.42 35.24,-107.61 5.14,-74.5 -10.8,-56.97 14.59,-37.53 37.52,-24.75"/>
<polygon fill="#63b8ff" stroke="#63b8ff" points="38.84,-28.01 46.06,-20.25 35.58,-21.82 38.84,-28.01"/>
</a>
</g>
</g>
<!-- Node36 -->
<g id="Node000036" class="node">
<title>Node36</title>
<g id="a_Node000036"><a xlink:href="../../da/d2a/ibackend_8hpp.html" target="_top" xlink:title=" ">
<polygon fill="#fff0f0" stroke="red" points="418.64,-19.25 345.64,-19.25 345.64,0 418.64,0 418.64,-19.25"/>
<text text-anchor="middle" x="382.14" y="-5.75" font-family="Helvetica,sans-Serif" font-size="10.00">ibackend.hpp</text>
</a>
</g>
</g>
<!-- Node1&#45;&gt;Node36 -->
<g id="edge11_Node000001_Node000036" class="edge">
<title>Node1&#45;&gt;Node36</title>
<g id="a_edge11_Node000001_Node000036"><a xlink:title=" ">
<path fill="none" stroke="#63b8ff" d="M544.6,-110.13C555.84,-95.08 568.81,-71.59 556.14,-55.25 540.76,-35.43 476,-22.9 429.99,-16.32"/>
<polygon fill="#63b8ff" stroke="#63b8ff" points="430.63,-12.88 420.24,-14.98 429.67,-19.81 430.63,-12.88"/>
</a>
</g>
</g>
<!-- Node8 -->
<g id="Node000008" class="node">
<title>Node8</title>
<g id="a_Node000008"><a xlink:title=" ">
<polygon fill="#e0e0e0" stroke="#999999" points="311.39,-74.5 260.89,-74.5 260.89,-55.25 311.39,-55.25 311.39,-74.5"/>
<text text-anchor="middle" x="286.14" y="-61" font-family="Helvetica,sans-Serif" font-size="10.00">memory</text>
</a>
</g>
</g>
<!-- Node1&#45;&gt;Node8 -->
<g id="edge5_Node000001_Node000008" class="edge">
<title>Node1&#45;&gt;Node8</title>
<g id="a_edge5_Node000001_Node000008"><a xlink:title=" ">
<path fill="none" stroke="#63b8ff" d="M469.79,-110.04C430.39,-100.71 378.12,-88.28 322.84,-74.9"/>
<polygon fill="#63b8ff" stroke="#63b8ff" points="323.76,-71.52 313.22,-72.57 322.11,-78.32 323.76,-71.52"/>
</a>
</g>
</g>
<!-- Node49 -->
<g id="Node000049" class="node">
<title>Node49</title>
<g id="a_Node000049"><a xlink:title=" ">
<polygon fill="#e0e0e0" stroke="#999999" points="412.51,-74.5 329.76,-74.5 329.76,-55.25 412.51,-55.25 412.51,-74.5"/>
<text text-anchor="middle" x="371.14" y="-61" font-family="Helvetica,sans-Serif" font-size="10.00">QElapsedTimer</text>
</a>
</g>
</g>
<!-- Node1&#45;&gt;Node49 -->
<g id="edge6_Node000001_Node000049" class="edge">
<title>Node1&#45;&gt;Node49</title>
<g id="a_edge6_Node000001_Node000049"><a xlink:title=" ">
<path fill="none" stroke="#63b8ff" d="M491.93,-110.05C465.64,-100.43 431.63,-88 406.4,-78.77"/>
<polygon fill="#63b8ff" stroke="#63b8ff" points="407.84,-75.57 397.25,-75.42 405.44,-82.15 407.84,-75.57"/>
</a>
</g>
</g>
<!-- Node50 -->
<g id="Node000050" class="node">
<title>Node50</title>
<g id="a_Node000050"><a xlink:href="../../d5/df1/logger__factory_8hpp.html" target="_top" xlink:title=" ">
<polygon fill="#fff0f0" stroke="red" points="547.39,-74.5 430.89,-74.5 430.89,-55.25 547.39,-55.25 547.39,-74.5"/>
<text text-anchor="middle" x="489.14" y="-61" font-family="Helvetica,sans-Serif" font-size="10.00">core/logger_factory.hpp</text>
</a>
</g>
</g>
<!-- Node1&#45;&gt;Node50 -->
<g id="edge7_Node000001_Node000050" class="edge">
<title>Node1&#45;&gt;Node50</title>
<g id="a_edge7_Node000001_Node000050"><a xlink:title=" ">
<path fill="none" stroke="#63b8ff" d="M521.51,-110.2C515.78,-102.35 508.65,-92.6 502.55,-84.24"/>
<polygon fill="#63b8ff" stroke="#63b8ff" points="505.38,-82.18 496.66,-76.17 499.73,-86.31 505.38,-82.18"/>
</a>
</g>
</g>
<!-- Node57 -->
<g id="Node000057" class="node">
<title>Node57</title>
<g id="a_Node000057"><a xlink:href="../../d6/d94/thread__utils_8hpp.html" target="_top" xlink:title=" ">
<polygon fill="#fff0f0" stroke="red" points="120.14,-74.5 14.14,-74.5 14.14,-55.25 120.14,-55.25 120.14,-74.5"/>
<text text-anchor="middle" x="67.14" y="-61" font-family="Helvetica,sans-Serif" font-size="10.00">core/thread_utils.hpp</text>
</a>
</g>
</g>
<!-- Node1&#45;&gt;Node57 -->
<g id="edge8_Node000001_Node000057" class="edge">
<title>Node1&#45;&gt;Node57</title>
<g id="a_edge8_Node000001_Node000057"><a xlink:title=" ">
<path fill="none" stroke="#63b8ff" d="M461.12,-116.2C383.02,-106.74 253.49,-90.83 131.93,-74.85"/>
<polygon fill="#63b8ff" stroke="#63b8ff" points="132.44,-71.39 122.07,-73.55 131.52,-78.33 132.44,-71.39"/>
</a>
</g>
</g>
<!-- Node58 -->
<g id="Node000058" class="node">
<title>Node58</title>
<g id="a_Node000058"><a xlink:href="../../de/d19/ts__queue_8hpp.html" target="_top" xlink:title=" ">
<polygon fill="#fff0f0" stroke="red" points="698.89,-74.5 603.39,-74.5 603.39,-55.25 698.89,-55.25 698.89,-74.5"/>
<text text-anchor="middle" x="651.14" y="-61" font-family="Helvetica,sans-Serif" font-size="10.00">core/ts_queue.hpp</text>
</a>
</g>
</g>
<!-- Node1&#45;&gt;Node58 -->
<g id="edge10_Node000001_Node000058" class="edge">
<title>Node1&#45;&gt;Node58</title>
<g id="a_edge10_Node000001_Node000058"><a xlink:title=" ">
<path fill="none" stroke="#63b8ff" d="M561.86,-110.05C580.51,-100.82 604.41,-89 622.79,-79.9"/>
<polygon fill="#63b8ff" stroke="#63b8ff" points="624.12,-83.15 631.53,-75.58 621.02,-76.87 624.12,-83.15"/>
</a>
</g>
</g>
<!-- Node61 -->
<g id="Node000061" class="node">
<title>Node61</title>
<g id="a_Node000061"><a xlink:href="../../d9/d8f/igroup__operator_8hpp.html" target="_top" xlink:title=" ">
<polygon fill="#fff0f0" stroke="red" points="817.51,-74.5 716.76,-74.5 716.76,-55.25 817.51,-55.25 817.51,-74.5"/>
<text text-anchor="middle" x="767.14" y="-61" font-family="Helvetica,sans-Serif" font-size="10.00">igroup_operator.hpp</text>
</a>
</g>
</g>
<!-- Node1&#45;&gt;Node61 -->
<g id="edge12_Node000001_Node000061" class="edge">
<title>Node1&#45;&gt;Node61</title>
<g id="a_edge12_Node000001_Node000061"><a xlink:title=" ">
<path fill="none" stroke="#63b8ff" d="M590.83,-110.05C630.63,-100.08 682.55,-87.07 719.72,-77.75"/>
<polygon fill="#63b8ff" stroke="#63b8ff" points="720.43,-81.18 729.28,-75.36 718.73,-74.39 720.43,-81.18"/>
</a>
</g>
</g>
<!-- Node62 -->
<g id="Node000062" class="node">
<title>Node62</title>
<g id="a_Node000062"><a xlink:href="../../d4/d3c/iphoto__operator_8hpp.html" target="_top" xlink:title=" ">
<polygon fill="#fff0f0" stroke="red" points="936.51,-74.5 835.76,-74.5 835.76,-55.25 936.51,-55.25 936.51,-74.5"/>
<text text-anchor="middle" x="886.14" y="-61" font-family="Helvetica,sans-Serif" font-size="10.00">iphoto_operator.hpp</text>
</a>
</g>
</g>
<!-- Node1&#45;&gt;Node62 -->
<g id="edge13_Node000001_Node000062" class="edge">
<title>Node1&#45;&gt;Node62</title>
<g id="a_edge13_Node000001_Node000062"><a xlink:title=" ">
<path fill="none" stroke="#63b8ff" d="M602.92,-112.98C667.7,-102.2 762.58,-86.42 824.36,-76.15"/>
<polygon fill="#63b8ff" stroke="#63b8ff" points="824.71,-79.64 834,-74.55 823.56,-72.73 824.71,-79.64"/>
</a>
</g>
</g>
<!-- Node43 -->
<g id="Node000043" class="node">
<title>Node43</title>
<g id="a_Node000043"><a xlink:href="../../db/d39/photo__data_8hpp.html" target="_top" xlink:title=" ">
<polygon fill="#fff0f0" stroke="red" points="966.14,-19.25 884.14,-19.25 884.14,0 966.14,0 966.14,-19.25"/>
<text text-anchor="middle" x="925.14" y="-5.75" font-family="Helvetica,sans-Serif" font-size="10.00">photo_data.hpp</text>
</a>
</g>
</g>
<!-- Node1&#45;&gt;Node43 -->
<g id="edge15_Node000001_Node000043" class="edge">
<title>Node1&#45;&gt;Node43</title>
<g id="a_edge15_Node000001_Node000043"><a xlink:title=" ">
<path fill="none" stroke="#63b8ff" d="M602.89,-121.17C714.94,-114.78 922.87,-99.64 945.14,-74.5 956.42,-61.76 948.25,-42.69 939.19,-28.71"/>
<polygon fill="#63b8ff" stroke="#63b8ff" points="942.23,-26.94 933.58,-20.82 936.52,-30.99 942.23,-26.94"/>
</a>
</g>
</g>
<!-- Node66 -->
<g id="Node000066" class="node">
<title>Node66</title>
<g id="a_Node000066"><a xlink:href="../../d3/d41/project__info_8hpp.html" target="_top" xlink:title=" ">
<polygon fill="white" stroke="#666666" points="1076.26,-74.5 992.01,-74.5 992.01,-55.25 1076.26,-55.25 1076.26,-74.5"/>
<text text-anchor="middle" x="1034.14" y="-61" font-family="Helvetica,sans-Serif" font-size="10.00">project_info.hpp</text>
</a>
</g>
</g>
<!-- Node1&#45;&gt;Node66 -->
<g id="edge16_Node000001_Node000066" class="edge">
<title>Node1&#45;&gt;Node66</title>
<g id="a_edge16_Node000001_Node000066"><a xlink:title=" ">
<path fill="none" stroke="#63b8ff" d="M602.93,-117.67C690.98,-108.66 845.87,-92.13 978.14,-74.5 978.96,-74.39 979.79,-74.28 980.62,-74.16"/>
<polygon fill="#63b8ff" stroke="#63b8ff" points="980.75,-77.68 990.16,-72.81 979.77,-70.75 980.75,-77.68"/>
</a>
</g>
</g>
<!-- Node2&#45;&gt;Node4 -->
<g id="edge2_Node000002_Node000004" class="edge">
<title>Node2&#45;&gt;Node4</title>
<g id="a_edge2_Node000002_Node000004"><a xlink:title=" ">
<path fill="none" stroke="#63b8ff" d="M169.27,-54.84C149.84,-46.43 120.6,-33.77 98.38,-24.15"/>
<polygon fill="#63b8ff" stroke="#63b8ff" points="100.06,-21.06 89.49,-20.3 97.28,-27.49 100.06,-21.06"/>
</a>
</g>
</g>
<!-- Node2&#45;&gt;Node36 -->
<g id="edge3_Node000002_Node000036" class="edge">
<title>Node2&#45;&gt;Node36</title>
<g id="a_edge3_Node000002_Node000036"><a xlink:title=" ">
<path fill="none" stroke="#63b8ff" d="M222.71,-54.84C254.57,-46.01 303.29,-32.49 338.49,-22.73"/>
<polygon fill="#63b8ff" stroke="#63b8ff" points="339.25,-26.15 347.95,-20.11 337.38,-19.41 339.25,-26.15"/>
</a>
</g>
</g>
<!-- Node57&#45;&gt;Node4 -->
<g id="edge9_Node000057_Node000004" class="edge">
<title>Node57&#45;&gt;Node4</title>
<g id="a_edge9_Node000057_Node000004"><a xlink:title=" ">
<path fill="none" stroke="#63b8ff" d="M67.14,-55.08C67.14,-48.57 67.14,-39.42 67.14,-31.12"/>
<polygon fill="#63b8ff" stroke="#63b8ff" points="70.64,-31.12 67.14,-21.12 63.64,-31.12 70.64,-31.12"/>
</a>
</g>
</g>
<!-- Node62&#45;&gt;Node43 -->
<g id="edge14_Node000062_Node000043" class="edge">
<title>Node62&#45;&gt;Node43</title>
<g id="a_edge14_Node000062_Node000043"><a xlink:title=" ">
<path fill="none" stroke="#63b8ff" d="M892.58,-55.08C897.8,-47.96 905.33,-37.68 911.83,-28.8"/>
<polygon fill="#63b8ff" stroke="#63b8ff" points="914.58,-30.97 917.66,-20.83 908.93,-26.83 914.58,-30.97"/>
</a>
</g>
</g>
</g>
</svg>

<g id="navigator" transform="translate(0 0)" fill="#404254">
  <rect fill="#f2f5e9" fill-opacity="0.5" stroke="#606060" stroke-width=".5" x="0" y="0" width="60" height="60"/>
  <use id="zoomplus" xlink:href="#zoomPlus" x="17" y="9" onmousedown="handleZoom(evt,'in')"/>
  <use id="zoomminus" xlink:href="#zoomMin" x="42" y="9" onmousedown="handleZoom(evt,'out')"/>
  <use id="reset" xlink:href="#resetDef" x="30" y="36" onmousedown="handleReset()"/>
   <use id="arrowup" xlink:href="#arrowUp" x="0" y="0" onmousedown="handlePan(0,-1)"/>
  <use id="arrowright" xlink:href="#arrowRight" x="0" y="0" onmousedown="handlePan(1,0)"/>
  <use id="arrowdown" xlink:href="#arrowDown" x="0" y="0" onmousedown="handlePan(0,1)"/>
  <use id="arrowleft" xlink:href="#arrowLeft" x="0" y="0" onmousedown="handlePan(-1,0)"/>
</g>
<svg viewBox="0 0 15 15" width="100%" height="30px" preserveAspectRatio="xMaxYMin meet">
 <g id="arrow_out" transform="scale(0.3 0.3)">
  <a xlink:href="async__database_8cpp__incl_org.svg" target="_base">
   <rect id="button" ry="5" rx="5" y="6" x="6" height="38" width="38"
        fill="#f2f5e9" fill-opacity="0.5" stroke="#606060" stroke-width="1.0"/>
   <path id="arrow"
     d="M 11.500037,31.436501 C 11.940474,20.09759 22.043105,11.32322 32.158766,21.979434 L 37.068811,17.246167 C 37.068811,17.246167 37.088388,32 37.088388,32 L 22.160133,31.978069 C 22.160133,31.978069 26.997745,27.140456 26.997745,27.140456 C 18.528582,18.264221 13.291696,25.230495 11.500037,31.436501 z"
     style="fill:#404040;"/>
  </a>
 </g>
</svg>

<style type='text/css'>
<![CDATA[
[data-mouse-over-selected='false'] { opacity: 0.7; }
[data-mouse-over-selected='true']  { opacity: 1.0; }
]]>
</style>
<script type="application/ecmascript"><![CDATA[
document.addEventListener('DOMContentLoaded', (event) => {
  highlightEdges();
  highlightAdjacentNodes();
});
]]></script>
</svg>
