<?xml version="1.0" encoding="UTF-8" standalone="no"?>
<!DOCTYPE svg PUBLIC "-//W3C//DTD SVG 1.1//EN"
 "http://www.w3.org/Graphics/SVG/1.1/DTD/svg11.dtd">
<!-- Generated by graphviz version 7.0.5 (20221223.1930)
 -->
<!-- Title: Configuration Pages: 1 -->
<svg width="206pt" height="93pt"
 viewBox="0.00 0.00 206.00 93.00" xmlns="http://www.w3.org/2000/svg" xmlns:xlink="http://www.w3.org/1999/xlink">
<g id="graph0" class="graph" transform="scale(1 1) rotate(0) translate(4 89)">
<title>Configuration</title>
<!-- Node1 -->
<g id="node1" class="node">
<title>Node1</title>
<g id="a_node1"><a xlink:title=" ">
<polygon fill="#999999" stroke="#666666" points="128.5,-19 55.5,-19 55.5,0 128.5,0 128.5,-19"/>
<text text-anchor="middle" x="92" y="-7" font-family="Helvetica,sans-Serif" font-size="10.00">Configuration</text>
</a>
</g>
</g>
<!-- Node2 -->
<g id="node2" class="node">
<title>Node2</title>
<g id="a_node2"><a xlink:href="../../d7/db4/struct_i_configuration.html" target="_top" xlink:title=" ">
<polygon fill="white" stroke="#666666" points="76,-85 0,-85 0,-66 76,-66 76,-85"/>
<text text-anchor="middle" x="38" y="-73" font-family="Helvetica,sans-Serif" font-size="10.00">IConfiguration</text>
</a>
</g>
</g>
<!-- Node2&#45;&gt;Node1 -->
<g id="edge1" class="edge">
<title>Node2&#45;&gt;Node1</title>
<path fill="none" stroke="#63b8ff" d="M52.67,-57.12C62.98,-44.89 76.36,-29.04 84.56,-19.32"/>
<polygon fill="#63b8ff" stroke="#63b8ff" points="50.26,-54.54 46.48,-64.44 55.61,-59.06 50.26,-54.54"/>
</g>
<!-- Node3 -->
<g id="node3" class="node">
<title>Node3</title>
<g id="a_node3"><a xlink:href="../../d6/d43/class_configuration_private.html" target="_top" xlink:title=" ">
<polygon fill="#fff0f0" stroke="red" points="198,-85 94,-85 94,-66 198,-66 198,-85"/>
<text text-anchor="middle" x="146" y="-73" font-family="Helvetica,sans-Serif" font-size="10.00">ConfigurationPrivate</text>
</a>
</g>
</g>
<!-- Node3&#45;&gt;Node1 -->
<g id="edge2" class="edge">
<title>Node3&#45;&gt;Node1</title>
<path fill="none" stroke="#9a32cd" stroke-dasharray="5,2" d="M131.33,-57.12C121.02,-44.89 107.64,-29.04 99.44,-19.32"/>
<polygon fill="#9a32cd" stroke="#9a32cd" points="128.39,-59.06 137.52,-64.44 133.74,-54.54 128.39,-59.06"/>
<text text-anchor="middle" x="126" y="-40" font-family="Helvetica,sans-Serif" font-size="10.00"> d</text>
</g>
</g>
</svg>
