<?xml version="1.0" encoding="UTF-8" standalone="no"?>
<!DOCTYPE svg PUBLIC "-//W3C//DTD SVG 1.1//EN"
 "http://www.w3.org/Graphics/SVG/1.1/DTD/svg11.dtd">
<!-- Generated by graphviz version 7.0.5 (20221223.1930)
 -->
<!-- Title: src/gui/desktop/models/itags_operator.hpp Pages: 1 -->
<svg width="215pt" height="214pt"
 viewBox="0.00 0.00 214.50 214.00" xmlns="http://www.w3.org/2000/svg" xmlns:xlink="http://www.w3.org/1999/xlink">
<g id="graph0" class="graph" transform="scale(1 1) rotate(0) translate(4 210)">
<title>src/gui/desktop/models/itags_operator.hpp</title>
<!-- Node1 -->
<g id="node1" class="node">
<title>Node1</title>
<g id="a_node1"><a xlink:title=" ">
<polygon fill="#999999" stroke="#666666" points="118,-206 0,-206 0,-176 118,-176 118,-206"/>
<text text-anchor="start" x="8" y="-194" font-family="Helvetica,sans-Serif" font-size="10.00">src/gui/desktop/models</text>
<text text-anchor="middle" x="59" y="-183" font-family="Helvetica,sans-Serif" font-size="10.00">/itags_operator.hpp</text>
</a>
</g>
</g>
<!-- Node2 -->
<g id="node2" class="node">
<title>Node2</title>
<g id="a_node2"><a xlink:href="../../d1/d74/tag_8hpp.html" target="_top" xlink:title=" ">
<polygon fill="#fff0f0" stroke="red" points="101,-19 31,-19 31,0 101,0 101,-19"/>
<text text-anchor="middle" x="66" y="-7" font-family="Helvetica,sans-Serif" font-size="10.00">core/tag.hpp</text>
</a>
</g>
</g>
<!-- Node1&#45;&gt;Node2 -->
<g id="edge1" class="edge">
<title>Node1&#45;&gt;Node2</title>
<path fill="none" stroke="#63b8ff" d="M53.23,-175.58C44.07,-150.62 28.37,-97.95 40,-55 42.51,-45.74 47.48,-36.42 52.41,-28.73"/>
<polygon fill="#63b8ff" stroke="#63b8ff" points="55.19,-30.86 58.01,-20.64 49.44,-26.87 55.19,-30.86"/>
</g>
<!-- Node12 -->
<g id="node3" class="node">
<title>Node12</title>
<g id="a_node3"><a xlink:href="../../db/d39/photo__data_8hpp.html" target="_top" xlink:title=" ">
<polygon fill="#fff0f0" stroke="red" points="174.5,-74 49.5,-74 49.5,-55 174.5,-55 174.5,-74"/>
<text text-anchor="middle" x="112" y="-62" font-family="Helvetica,sans-Serif" font-size="10.00">database/photo_data.hpp</text>
</a>
</g>
</g>
<!-- Node1&#45;&gt;Node12 -->
<g id="edge2" class="edge">
<title>Node1&#45;&gt;Node12</title>
<path fill="none" stroke="#63b8ff" d="M60.59,-175.53C62.81,-159.02 67.79,-131.54 78,-110 82.62,-100.26 89.62,-90.6 96.07,-82.79"/>
<polygon fill="#63b8ff" stroke="#63b8ff" points="98.55,-85.28 102.47,-75.43 93.27,-80.68 98.55,-85.28"/>
</g>
<!-- Node28 -->
<g id="node4" class="node">
<title>Node28</title>
<g id="a_node4"><a xlink:href="../../d8/d0e/explicit__photo__delta_8hpp.html" target="_top" xlink:title=" ">
<polygon fill="#fff0f0" stroke="red" points="206.5,-140 87.5,-140 87.5,-110 206.5,-110 206.5,-140"/>
<text text-anchor="start" x="95.5" y="-128" font-family="Helvetica,sans-Serif" font-size="10.00">database/explicit_photo</text>
<text text-anchor="middle" x="147" y="-117" font-family="Helvetica,sans-Serif" font-size="10.00">_delta.hpp</text>
</a>
</g>
</g>
<!-- Node1&#45;&gt;Node28 -->
<g id="edge4" class="edge">
<title>Node1&#45;&gt;Node28</title>
<path fill="none" stroke="#63b8ff" d="M78.53,-175.8C90.18,-167.32 105.19,-156.4 118.19,-146.95"/>
<polygon fill="#63b8ff" stroke="#63b8ff" points="119.97,-149.99 126,-141.28 115.85,-144.33 119.97,-149.99"/>
</g>
<!-- Node12&#45;&gt;Node2 -->
<g id="edge3" class="edge">
<title>Node12&#45;&gt;Node2</title>
<path fill="none" stroke="#63b8ff" d="M104.4,-54.75C98.12,-47.5 88.99,-36.98 81.2,-28.02"/>
<polygon fill="#63b8ff" stroke="#63b8ff" points="83.95,-25.84 74.75,-20.59 78.66,-30.43 83.95,-25.84"/>
</g>
<!-- Node28&#45;&gt;Node12 -->
<g id="edge5" class="edge">
<title>Node28&#45;&gt;Node12</title>
<path fill="none" stroke="#63b8ff" d="M138.35,-109.54C133.73,-101.82 128,-92.24 123.06,-83.99"/>
<polygon fill="#63b8ff" stroke="#63b8ff" points="126.11,-82.26 117.97,-75.47 120.1,-85.85 126.11,-82.26"/>
</g>
</g>
</svg>
