<?xml version="1.0" encoding="UTF-8" standalone="no"?>
<!DOCTYPE svg PUBLIC "-//W3C//DTD SVG 1.1//EN"
 "http://www.w3.org/Graphics/SVG/1.1/DTD/svg11.dtd">
<!-- Generated by graphviz version 12.2.0 (20241103.1931)
 -->
<!-- Title: src/database/database_qcoro_utils.hpp Pages: 1 -->
<svg width="286pt" height="116pt"
 viewBox="0.00 0.00 285.62 116.25" xmlns="http://www.w3.org/2000/svg" xmlns:xlink="http://www.w3.org/1999/xlink">
<g id="graph0" class="graph" transform="scale(1 1) rotate(0) translate(4 112.25)">
<title>src/database/database_qcoro_utils.hpp</title>
<!-- Node1 -->
<g id="Node000001" class="node">
<title>Node1</title>
<g id="a_Node000001"><a xlink:title=" ">
<polygon fill="#999999" stroke="#666666" points="192.75,-108.25 77.75,-108.25 77.75,-77.75 192.75,-77.75 192.75,-108.25"/>
<text text-anchor="start" x="85.75" y="-94.75" font-family="Helvetica,sans-Serif" font-size="10.00">src/database/database</text>
<text text-anchor="middle" x="135.25" y="-83.5" font-family="Helvetica,sans-Serif" font-size="10.00">_qcoro_utils.hpp</text>
</a>
</g>
</g>
<!-- Node2 -->
<g id="Node000002" class="node">
<title>Node2</title>
<g id="a_Node000002"><a xlink:href="../../dd/d55/photo__delta__fetcher_8cpp.html" target="_top" xlink:title=" ">
<polygon fill="white" stroke="#666666" points="122.5,-41.75 0,-41.75 0,0 122.5,0 122.5,-41.75"/>
<text text-anchor="start" x="8" y="-28.25" font-family="Helvetica,sans-Serif" font-size="10.00">src/database/database</text>
<text text-anchor="start" x="8" y="-17" font-family="Helvetica,sans-Serif" font-size="10.00">_tools/implementation</text>
<text text-anchor="middle" x="61.25" y="-5.75" font-family="Helvetica,sans-Serif" font-size="10.00">/photo_delta_fetcher.cpp</text>
</a>
</g>
</g>
<!-- Node1&#45;&gt;Node2 -->
<g id="edge1_Node000001_Node000002" class="edge">
<title>Node1&#45;&gt;Node2</title>
<g id="a_edge1_Node000001_Node000002"><a xlink:title=" ">
<path fill="none" stroke="#63b8ff" d="M111.82,-69.79C102.5,-60.97 91.85,-50.87 82.74,-42.24"/>
<polygon fill="#63b8ff" stroke="#63b8ff" points="109.15,-72.09 118.82,-76.43 113.97,-67.01 109.15,-72.09"/>
</a>
</g>
</g>
<!-- Node3 -->
<g id="Node000003" class="node">
<title>Node3</title>
<g id="a_Node000003"><a xlink:href="../../d9/d7c/media__view__ctrl_8cpp.html" target="_top" xlink:title=" ">
<polygon fill="white" stroke="#666666" points="277.62,-36.12 140.88,-36.12 140.88,-5.62 277.62,-5.62 277.62,-36.12"/>
<text text-anchor="start" x="148.88" y="-22.62" font-family="Helvetica,sans-Serif" font-size="10.00">src/gui/desktop/quick</text>
<text text-anchor="middle" x="209.25" y="-11.38" font-family="Helvetica,sans-Serif" font-size="10.00">_items/media_view_ctrl.cpp</text>
</a>
</g>
</g>
<!-- Node1&#45;&gt;Node3 -->
<g id="edge2_Node000001_Node000003" class="edge">
<title>Node1&#45;&gt;Node3</title>
<g id="a_edge2_Node000001_Node000003"><a xlink:title=" ">
<path fill="none" stroke="#63b8ff" d="M158.88,-69.6C170.36,-58.73 183.82,-45.97 193.94,-36.39"/>
<polygon fill="#63b8ff" stroke="#63b8ff" points="156.53,-67.01 151.68,-76.43 161.35,-72.09 156.53,-67.01"/>
</a>
</g>
</g>
</g>
</svg>
