<?xml version="1.0" encoding="UTF-8" standalone="no"?>
<!DOCTYPE svg PUBLIC "-//W3C//DTD SVG 1.1//EN"
 "http://www.w3.org/Graphics/SVG/1.1/DTD/svg11.dtd">
<!-- Generated by graphviz version 9.0.0 (20230911.1827)
 -->
<!-- Title: src/unit_tests_utils/mock_thumbnails_generator.hpp Pages: 1 -->
<svg width="262pt" height="94pt"
 viewBox="0.00 0.00 262.00 93.75" xmlns="http://www.w3.org/2000/svg" xmlns:xlink="http://www.w3.org/1999/xlink">
<g id="graph0" class="graph" transform="scale(1 1) rotate(0) translate(4 89.75)">
<title>src/unit_tests_utils/mock_thumbnails_generator.hpp</title>
<!-- Node1 -->
<g id="Node000001" class="node">
<title>Node1</title>
<g id="a_Node000001"><a xlink:title=" ">
<polygon fill="#999999" stroke="#666666" points="190.12,-85.75 30.88,-85.75 30.88,-55.25 190.12,-55.25 190.12,-85.75"/>
<text text-anchor="start" x="38.88" y="-72.25" font-family="Helvetica,sans-Serif" font-size="10.00">src/unit_tests_utils</text>
<text text-anchor="middle" x="110.5" y="-61" font-family="Helvetica,sans-Serif" font-size="10.00">/mock_thumbnails_generator.hpp</text>
</a>
</g>
</g>
<!-- Node2 -->
<g id="Node000002" class="node">
<title>Node2</title>
<g id="a_Node000002"><a xlink:title=" ">
<polygon fill="#e0e0e0" stroke="#999999" points="85,-19.25 0,-19.25 0,0 85,0 85,-19.25"/>
<text text-anchor="middle" x="42.5" y="-5.75" font-family="Helvetica,sans-Serif" font-size="10.00">gmock/gmock.h</text>
</a>
</g>
</g>
<!-- Node1&#45;&gt;Node2 -->
<g id="edge1_Node000001_Node000002" class="edge">
<title>Node1&#45;&gt;Node2</title>
<g id="a_edge1_Node000001_Node000002"><a xlink:title=" ">
<path fill="none" stroke="#63b8ff" d="M93.69,-54.95C83.93,-46.5 71.62,-35.83 61.51,-27.08"/>
<polygon fill="#63b8ff" stroke="#63b8ff" points="63.98,-24.59 54.13,-20.69 59.4,-29.88 63.98,-24.59"/>
</a>
</g>
</g>
<!-- Node3 -->
<g id="Node000003" class="node">
<title>Node3</title>
<g id="a_Node000003"><a xlink:href="../../d3/d4c/ithumbnails__generator_8hpp.html" target="_top" xlink:title=" ">
<polygon fill="#fff0f0" stroke="red" points="254,-19.25 103,-19.25 103,0 254,0 254,-19.25"/>
<text text-anchor="middle" x="178.5" y="-5.75" font-family="Helvetica,sans-Serif" font-size="10.00">core/ithumbnails_generator.hpp</text>
</a>
</g>
</g>
<!-- Node1&#45;&gt;Node3 -->
<g id="edge2_Node000001_Node000003" class="edge">
<title>Node1&#45;&gt;Node3</title>
<g id="a_edge2_Node000001_Node000003"><a xlink:title=" ">
<path fill="none" stroke="#63b8ff" d="M127.31,-54.95C137.07,-46.5 149.38,-35.83 159.49,-27.08"/>
<polygon fill="#63b8ff" stroke="#63b8ff" points="161.6,-29.88 166.87,-20.69 157.02,-24.59 161.6,-29.88"/>
</a>
</g>
</g>
</g>
</svg>
