<?xml version="1.0" encoding="UTF-8" standalone="no"?>
<!DOCTYPE svg PUBLIC "-//W3C//DTD SVG 1.1//EN"
 "http://www.w3.org/Graphics/SVG/1.1/DTD/svg11.dtd">
<!-- Generated by graphviz version 12.2.0 (20241103.1931)
 -->
<!-- Title: src/system/unit_tests/common_path.cpp Pages: 1 -->
<svg width="380pt" height="149pt"
 viewBox="0.00 0.00 379.88 149.00" xmlns="http://www.w3.org/2000/svg" xmlns:xlink="http://www.w3.org/1999/xlink">

<svg id="main" version="1.1" xmlns="http://www.w3.org/2000/svg" xmlns:xlink="http://www.w3.org/1999/xlink" xml:space="preserve">

<style type="text/css"><![CDATA[
.node, .edge {opacity: 0.7;}
.node.selected, .edge.selected {opacity: 1;}
.edge:hover path { stroke: red; }
.edge:hover polygon { stroke: red; fill: red; }
]]></style>
<script type="application/ecmascript" xlink:href="../../svg.min.js"/>
<svg id="graph" class="graph">
<g id="graph0" class="graph" transform="scale(1 1) rotate(0) translate(4 145)">
<title>src/system/unit_tests/common_path.cpp</title>
<!-- Node1 -->
<g id="Node000001" class="node">
<title>Node1</title>
<g id="a_Node000001"><a xlink:title=" ">
<polygon fill="#999999" stroke="#666666" points="216.38,-141 106.62,-141 106.62,-110.5 216.38,-110.5 216.38,-141"/>
<text text-anchor="start" x="114.62" y="-127.5" font-family="Helvetica,sans-Serif" font-size="10.00">src/system/unit_tests</text>
<text text-anchor="middle" x="161.5" y="-116.25" font-family="Helvetica,sans-Serif" font-size="10.00">/common_path.cpp</text>
</a>
</g>
</g>
<!-- Node2 -->
<g id="Node000002" class="node">
<title>Node2</title>
<g id="a_Node000002"><a xlink:title=" ">
<polygon fill="#e0e0e0" stroke="#999999" points="85,-74.5 0,-74.5 0,-55.25 85,-55.25 85,-74.5"/>
<text text-anchor="middle" x="42.5" y="-61" font-family="Helvetica,sans-Serif" font-size="10.00">gmock/gmock.h</text>
</a>
</g>
</g>
<!-- Node1&#45;&gt;Node2 -->
<g id="edge1_Node000001_Node000002" class="edge">
<title>Node1&#45;&gt;Node2</title>
<g id="a_edge1_Node000001_Node000002"><a xlink:title=" ">
<path fill="none" stroke="#63b8ff" d="M131.78,-110.05C113.13,-100.82 89.23,-89 70.85,-79.9"/>
<polygon fill="#63b8ff" stroke="#63b8ff" points="72.62,-76.87 62.11,-75.58 69.52,-83.15 72.62,-76.87"/>
</a>
</g>
</g>
<!-- Node3 -->
<g id="Node000003" class="node">
<title>Node3</title>
<g id="a_Node000003"><a xlink:title=" ">
<polygon fill="#e0e0e0" stroke="#999999" points="186,-19.25 137,-19.25 137,0 186,0 186,-19.25"/>
<text text-anchor="middle" x="161.5" y="-5.75" font-family="Helvetica,sans-Serif" font-size="10.00">QString</text>
</a>
</g>
</g>
<!-- Node1&#45;&gt;Node3 -->
<g id="edge2_Node000001_Node000003" class="edge">
<title>Node1&#45;&gt;Node3</title>
<g id="a_edge2_Node000001_Node000003"><a xlink:title=" ">
<path fill="none" stroke="#63b8ff" d="M149.03,-110.17C138.74,-96.34 126.7,-74.81 132.5,-55.25 135.31,-45.76 140.84,-36.41 146.33,-28.73"/>
<polygon fill="#63b8ff" stroke="#63b8ff" points="149.01,-30.99 152.36,-20.93 143.47,-26.7 149.01,-30.99"/>
</a>
</g>
</g>
<!-- Node4 -->
<g id="Node000004" class="node">
<title>Node4</title>
<g id="a_Node000004"><a xlink:href="../../d2/d08/printers_8hpp.html" target="_top" xlink:title=" ">
<polygon fill="#fff0f0" stroke="red" points="277.12,-74.5 141.88,-74.5 141.88,-55.25 277.12,-55.25 277.12,-74.5"/>
<text text-anchor="middle" x="209.5" y="-61" font-family="Helvetica,sans-Serif" font-size="10.00">unit_tests_utils/printers.hpp</text>
</a>
</g>
</g>
<!-- Node1&#45;&gt;Node4 -->
<g id="edge3_Node000001_Node000004" class="edge">
<title>Node1&#45;&gt;Node4</title>
<g id="a_edge3_Node000001_Node000004"><a xlink:title=" ">
<path fill="none" stroke="#63b8ff" d="M173.37,-110.2C179.9,-102.18 188.07,-92.17 194.98,-83.69"/>
<polygon fill="#63b8ff" stroke="#63b8ff" points="197.54,-86.09 201.14,-76.12 192.11,-81.66 197.54,-86.09"/>
</a>
</g>
</g>
<!-- Node9 -->
<g id="Node000009" class="node">
<title>Node9</title>
<g id="a_Node000009"><a xlink:title=" ">
<polygon fill="#e0e0e0" stroke="#999999" points="371.88,-74.5 295.12,-74.5 295.12,-55.25 371.88,-55.25 371.88,-74.5"/>
<text text-anchor="middle" x="333.5" y="-61" font-family="Helvetica,sans-Serif" font-size="10.00">broom.system</text>
</a>
</g>
</g>
<!-- Node1&#45;&gt;Node9 -->
<g id="edge5_Node000001_Node000009" class="edge">
<title>Node1&#45;&gt;Node9</title>
<g id="a_edge5_Node000001_Node000009"><a xlink:title=" ">
<path fill="none" stroke="#63b8ff" d="M204.46,-110.05C232.71,-100.38 269.3,-87.85 296.3,-78.61"/>
<polygon fill="#63b8ff" stroke="#63b8ff" points="297.11,-82.03 305.44,-75.48 294.84,-75.41 297.11,-82.03"/>
</a>
</g>
</g>
<!-- Node4&#45;&gt;Node3 -->
<g id="edge4_Node000004_Node000003" class="edge">
<title>Node4&#45;&gt;Node3</title>
<g id="a_edge4_Node000004_Node000003"><a xlink:title=" ">
<path fill="none" stroke="#63b8ff" d="M201.57,-55.08C194.94,-47.73 185.28,-37.01 177.11,-27.94"/>
<polygon fill="#63b8ff" stroke="#63b8ff" points="179.91,-25.82 170.61,-20.73 174.71,-30.5 179.91,-25.82"/>
</a>
</g>
</g>
</g>
</svg>
</svg>

<style type='text/css'>
<![CDATA[
[data-mouse-over-selected='false'] { opacity: 0.7; }
[data-mouse-over-selected='true']  { opacity: 1.0; }
]]>
</style>
<script type="application/ecmascript"><![CDATA[
document.addEventListener('DOMContentLoaded', (event) => {
  highlightEdges();
  highlightAdjacentNodes();
});
]]></script>
</svg>
