<?xml version="1.0" encoding="UTF-8" standalone="no"?>
<!DOCTYPE svg PUBLIC "-//W3C//DTD SVG 1.1//EN"
 "http://www.w3.org/Graphics/SVG/1.1/DTD/svg11.dtd">
<!-- Generated by graphviz version 9.0.0 (20230911.1827)
 -->
<!-- Title: Database::PhotoOperator Pages: 1 -->
<svg width="421pt" height="224pt"
 viewBox="0.00 0.00 421.00 224.25" xmlns="http://www.w3.org/2000/svg" xmlns:xlink="http://www.w3.org/1999/xlink">

<svg id="main" version="1.1" xmlns="http://www.w3.org/2000/svg" xmlns:xlink="http://www.w3.org/1999/xlink" xml:space="preserve" onload="init(evt)">
<style type="text/css"><![CDATA[
.node, .edge {opacity: 0.7;}
.node.selected, .edge.selected {opacity: 1;}
.edge:hover path { stroke: red; }
.edge:hover polygon { stroke: red; fill: red; }
]]></style>
<script type="application/ecmascript" xlink:href="../../svg.min.js"/>
<svg id="graph" class="graph">
<g id="graph0" class="graph" transform="scale(1 1) rotate(0) translate(4 220.25)">
<title>Database::PhotoOperator</title>
<!-- Node1 -->
<g id="Node000001" class="node">
<title>Node1</title>
<g id="a_Node000001"><a xlink:title=" ">
<polygon fill="#999999" stroke="#666666" points="413,-114.25 288.25,-114.25 288.25,-95 413,-95 413,-114.25"/>
<text text-anchor="middle" x="350.62" y="-100.75" font-family="Helvetica,sans-Serif" font-size="10.00">Database::PhotoOperator</text>
</a>
</g>
</g>
<!-- Node2 -->
<g id="Node000002" class="node">
<title>Node2</title>
<g id="a_Node000002"><a xlink:href="../../d1/d7e/struct_database_1_1_i_photo_operator.html" target="_top" xlink:title=" ">
<polygon fill="white" stroke="#666666" points="149.12,-216.25 21.38,-216.25 21.38,-197 149.12,-197 149.12,-216.25"/>
<text text-anchor="middle" x="85.25" y="-202.75" font-family="Helvetica,sans-Serif" font-size="10.00">Database::IPhotoOperator</text>
</a>
</g>
</g>
<!-- Node2&#45;&gt;Node1 -->
<g id="edge1_Node000001_Node000002" class="edge">
<title>Node2&#45;&gt;Node1</title>
<g id="a_edge1_Node000001_Node000002"><a xlink:title=" ">
<path fill="none" stroke="#63b8ff" d="M160.36,-197.25C194.92,-191.01 235.9,-180.87 270.25,-164.62 297.74,-151.63 324.95,-128.14 339.27,-114.73"/>
<polygon fill="#63b8ff" stroke="#63b8ff" points="160.14,-193.74 150.88,-198.88 161.33,-200.64 160.14,-193.74"/>
</a>
</g>
</g>
<!-- Node3 -->
<g id="Node000003" class="node">
<title>Node3</title>
<g id="a_Node000003"><a xlink:href="../../d9/d1b/struct_database_1_1_i_sql_query_executor.html" target="_top" xlink:title=" ">
<polygon fill="white" stroke="#666666" points="156.25,-179.25 14.25,-179.25 14.25,-160 156.25,-160 156.25,-179.25"/>
<text text-anchor="middle" x="85.25" y="-165.75" font-family="Helvetica,sans-Serif" font-size="10.00">Database::ISqlQueryExecutor</text>
</a>
</g>
</g>
<!-- Node3&#45;&gt;Node1 -->
<g id="edge2_Node000001_Node000003" class="edge">
<title>Node3&#45;&gt;Node1</title>
<g id="a_edge2_Node000001_Node000003"><a xlink:title=" ">
<path fill="none" stroke="#9a32cd" stroke-dasharray="5,2" d="M155.27,-157.48C190.01,-150.83 232.62,-141.87 270.25,-131.62 287.95,-126.81 307.45,-120.19 322.7,-114.71"/>
<polygon fill="#9a32cd" stroke="#9a32cd" points="154.95,-153.98 145.77,-159.27 156.25,-160.85 154.95,-153.98"/>
</a>
</g>
<text text-anchor="middle" x="229.38" y="-151.38" font-family="Helvetica,sans-Serif" font-size="10.00" fill="grey"> m_executor</text>
</g>
<!-- Node4 -->
<g id="Node000004" class="node">
<title>Node4</title>
<g id="a_Node000004"><a xlink:href="../../d1/d71/struct_database_1_1_i_generic_sql_query_generator.html" target="_top" xlink:title=" ">
<polygon fill="white" stroke="#666666" points="154.38,-141.88 16.12,-141.88 16.12,-111.38 154.38,-111.38 154.38,-141.88"/>
<text text-anchor="start" x="24.12" y="-128.38" font-family="Helvetica,sans-Serif" font-size="10.00">Database::IGenericSqlQuery</text>
<text text-anchor="middle" x="85.25" y="-117.12" font-family="Helvetica,sans-Serif" font-size="10.00">Generator</text>
</a>
</g>
</g>
<!-- Node4&#45;&gt;Node1 -->
<g id="edge3_Node000001_Node000004" class="edge">
<title>Node4&#45;&gt;Node1</title>
<g id="a_edge3_Node000001_Node000004"><a xlink:title=" ">
<path fill="none" stroke="#9a32cd" stroke-dasharray="5,2" d="M166.1,-119.96C205.15,-116.69 251.44,-112.83 287.76,-109.79"/>
<polygon fill="#9a32cd" stroke="#9a32cd" points="165.94,-116.46 156.27,-120.78 166.53,-123.43 165.94,-116.46"/>
</a>
</g>
<text text-anchor="middle" x="229.38" y="-118.38" font-family="Helvetica,sans-Serif" font-size="10.00" fill="grey"> m_queryGenerator</text>
</g>
<!-- Node5 -->
<g id="Node000005" class="node">
<title>Node5</title>
<g id="a_Node000005"><a xlink:href="../../df/ddd/struct_i_logger.html" target="_top" xlink:title=" ">
<polygon fill="white" stroke="#666666" points="109.75,-93.25 60.75,-93.25 60.75,-74 109.75,-74 109.75,-93.25"/>
<text text-anchor="middle" x="85.25" y="-79.75" font-family="Helvetica,sans-Serif" font-size="10.00">ILogger</text>
</a>
</g>
</g>
<!-- Node5&#45;&gt;Node1 -->
<g id="edge4_Node000001_Node000005" class="edge">
<title>Node5&#45;&gt;Node1</title>
<g id="a_edge4_Node000001_Node000005"><a xlink:title=" ">
<path fill="none" stroke="#9a32cd" stroke-dasharray="5,2" d="M121.3,-84.57C158.38,-85.78 218.54,-88.35 270.25,-93.38 276.07,-93.94 282.11,-94.62 288.16,-95.37"/>
<polygon fill="#9a32cd" stroke="#9a32cd" points="121.73,-81.08 111.63,-84.27 121.52,-88.07 121.73,-81.08"/>
</a>
</g>
<text text-anchor="middle" x="229.38" y="-94.38" font-family="Helvetica,sans-Serif" font-size="10.00" fill="grey"> m_logger</text>
</g>
<!-- Node6 -->
<g id="Node000006" class="node">
<title>Node6</title>
<g id="a_Node000006"><a xlink:href="../../d2/ddd/struct_database_1_1_i_backend.html" target="_top" xlink:title="Low level database interface.">
<polygon fill="#fff0f0" stroke="red" points="136.75,-56.25 33.75,-56.25 33.75,-37 136.75,-37 136.75,-56.25"/>
<text text-anchor="middle" x="85.25" y="-42.75" font-family="Helvetica,sans-Serif" font-size="10.00">Database::IBackend</text>
</a>
</g>
</g>
<!-- Node6&#45;&gt;Node1 -->
<g id="edge5_Node000001_Node000006" class="edge">
<title>Node6&#45;&gt;Node1</title>
<g id="a_edge5_Node000001_Node000006"><a xlink:title=" ">
<path fill="none" stroke="#9a32cd" stroke-dasharray="5,2" d="M148.28,-50.88C184.34,-54.36 230.39,-60.55 270.25,-71.38 291.3,-77.09 314.16,-87.1 329.91,-94.65"/>
<polygon fill="#9a32cd" stroke="#9a32cd" points="148.72,-47.41 138.45,-49.98 148.09,-54.38 148.72,-47.41"/>
</a>
</g>
<text text-anchor="middle" x="229.38" y="-72.38" font-family="Helvetica,sans-Serif" font-size="10.00" fill="grey"> m_backend</text>
</g>
<!-- Node8 -->
<g id="Node000008" class="node">
<title>Node8</title>
<g id="a_Node000008"><a xlink:href="../../d2/deb/class_database_1_1_notifications_accumulator.html" target="_top" xlink:title=" ">
<polygon fill="#fff0f0" stroke="red" points="170.5,-19.25 0,-19.25 0,0 170.5,0 170.5,-19.25"/>
<text text-anchor="middle" x="85.25" y="-5.75" font-family="Helvetica,sans-Serif" font-size="10.00">Database::NotificationsAccumulator</text>
</a>
</g>
</g>
<!-- Node8&#45;&gt;Node1 -->
<g id="edge6_Node000001_Node000008" class="edge">
<title>Node8&#45;&gt;Node1</title>
<g id="a_edge6_Node000001_Node000008"><a xlink:title=" ">
<path fill="none" stroke="#9a32cd" stroke-dasharray="5,2" d="M181.96,-16.16C211.22,-20.62 242.88,-28.05 270.25,-40.38 299.67,-53.62 327.38,-80.51 340.94,-94.94"/>
<polygon fill="#9a32cd" stroke="#9a32cd" points="182.77,-12.74 172.37,-14.8 181.78,-19.67 182.77,-12.74"/>
</a>
</g>
<text text-anchor="middle" x="229.38" y="-42.38" font-family="Helvetica,sans-Serif" font-size="10.00" fill="grey"> m_notifications</text>
</g>
</g>
</svg>
</svg>

<style type='text/css'>
<![CDATA[
[data-mouse-over-selected='false'] { opacity: 0.7; }
[data-mouse-over-selected='true']  { opacity: 1.0; }
]]>
</style>
<script type="application/ecmascript"><![CDATA[
document.addEventListener('DOMContentLoaded', (event) => {
  highlightEdges();
  highlightAdjacentNodes();
});
]]></script>
</svg>
