<?xml version="1.0" encoding="UTF-8" standalone="no"?>
<!DOCTYPE svg PUBLIC "-//W3C//DTD SVG 1.1//EN"
 "http://www.w3.org/Graphics/SVG/1.1/DTD/svg11.dtd">
<!-- Generated by graphviz version 12.2.0 (20241103.1931)
 -->
<!-- Title: MediaPreview::setMedia Pages: 1 -->
<svg width="330pt" height="150pt"
 viewBox="0.00 0.00 330.25 149.88" xmlns="http://www.w3.org/2000/svg" xmlns:xlink="http://www.w3.org/1999/xlink">
<g id="graph0" class="graph" transform="scale(1 1) rotate(0) translate(4 145.88)">
<title>MediaPreview::setMedia</title>
<!-- Node1 -->
<g id="Node000001" class="node">
<title>Node1</title>
<g id="a_Node000001"><a xlink:title=" ">
<polygon fill="#999999" stroke="#666666" points="121.75,-85.88 0,-85.88 0,-66.62 121.75,-66.62 121.75,-85.88"/>
<text text-anchor="middle" x="60.88" y="-72.38" font-family="Helvetica,sans-Serif" font-size="10.00">MediaPreview::setMedia</text>
</a>
</g>
</g>
<!-- Node2 -->
<g id="Node000002" class="node">
<title>Node2</title>
<g id="a_Node000002"><a xlink:href="../../d6/ddb/namespace_media_types.html#a015a7e311585d2ec882493bcb1b5e025" target="_top" xlink:title=" ">
<polygon fill="white" stroke="#666666" points="322.25,-141.88 157.75,-141.88 157.75,-122.62 322.25,-122.62 322.25,-141.88"/>
<text text-anchor="middle" x="240" y="-128.38" font-family="Helvetica,sans-Serif" font-size="10.00">MediaTypes::isAnimatedImageFile</text>
</a>
</g>
</g>
<!-- Node1&#45;&gt;Node2 -->
<g id="edge1_Node000001_Node000002" class="edge">
<title>Node1&#45;&gt;Node2</title>
<g id="a_edge1_Node000001_Node000002"><a xlink:title=" ">
<path fill="none" stroke="#63b8ff" d="M84.37,-86.35C103.57,-94.68 132.07,-106.37 157.75,-114.25 163.86,-116.12 170.28,-117.89 176.72,-119.52"/>
<polygon fill="#63b8ff" stroke="#63b8ff" points="175.52,-122.83 186.06,-121.79 177.17,-116.03 175.52,-122.83"/>
</a>
</g>
</g>
<!-- Node3 -->
<g id="Node000003" class="node">
<title>Node3</title>
<g id="a_Node000003"><a xlink:href="../../d6/ddb/namespace_media_types.html#ae77c92c4d8be4dda4c9f016ce6bd791a" target="_top" xlink:title=" ">
<polygon fill="white" stroke="#666666" points="301.62,-104.88 178.38,-104.88 178.38,-85.62 301.62,-85.62 301.62,-104.88"/>
<text text-anchor="middle" x="240" y="-91.38" font-family="Helvetica,sans-Serif" font-size="10.00">MediaTypes::isImageFile</text>
</a>
</g>
</g>
<!-- Node1&#45;&gt;Node3 -->
<g id="edge2_Node000001_Node000003" class="edge">
<title>Node1&#45;&gt;Node3</title>
<g id="a_edge2_Node000001_Node000003"><a xlink:title=" ">
<path fill="none" stroke="#63b8ff" d="M121.84,-82.68C136.24,-84.23 151.76,-85.89 166.65,-87.49"/>
<polygon fill="#63b8ff" stroke="#63b8ff" points="166.07,-90.95 176.38,-88.53 166.81,-83.99 166.07,-90.95"/>
</a>
</g>
</g>
<!-- Node4 -->
<g id="Node000004" class="node">
<title>Node4</title>
<g id="a_Node000004"><a xlink:href="../../d6/ddb/namespace_media_types.html#a641eac174131f628b1a2e3e357143540" target="_top" xlink:title=" ">
<polygon fill="white" stroke="#666666" points="300.5,-67.88 179.5,-67.88 179.5,-48.62 300.5,-48.62 300.5,-67.88"/>
<text text-anchor="middle" x="240" y="-54.38" font-family="Helvetica,sans-Serif" font-size="10.00">MediaTypes::isVideoFile</text>
</a>
</g>
</g>
<!-- Node1&#45;&gt;Node4 -->
<g id="edge3_Node000001_Node000004" class="edge">
<title>Node1&#45;&gt;Node4</title>
<g id="a_edge3_Node000001_Node000004"><a xlink:title=" ">
<path fill="none" stroke="#63b8ff" d="M121.84,-70.16C136.56,-68.66 152.45,-67.05 167.65,-65.5"/>
<polygon fill="#63b8ff" stroke="#63b8ff" points="167.99,-68.98 177.59,-64.49 167.29,-62.02 167.99,-68.98"/>
</a>
</g>
</g>
<!-- Node5 -->
<g id="Node000005" class="node">
<title>Node5</title>
<g id="a_Node000005"><a xlink:href="../../de/d4c/class_media_preview.html#a30c7d7bcd637d7f5bbcea0a53d534650" target="_top" xlink:title=" ">
<polygon fill="white" stroke="#666666" points="315.88,-30.5 164.12,-30.5 164.12,0 315.88,0 315.88,-30.5"/>
<text text-anchor="start" x="172.12" y="-17" font-family="Helvetica,sans-Serif" font-size="10.00">MediaPreview::scalableContent</text>
<text text-anchor="middle" x="240" y="-5.75" font-family="Helvetica,sans-Serif" font-size="10.00">Available</text>
</a>
</g>
</g>
<!-- Node1&#45;&gt;Node5 -->
<g id="edge4_Node000001_Node000005" class="edge">
<title>Node1&#45;&gt;Node5</title>
<g id="a_edge4_Node000001_Node000005"><a xlink:title=" ">
<path fill="none" stroke="#63b8ff" d="M86.11,-66.27C105.37,-58.49 133.09,-47.64 157.75,-39.25 162.71,-37.56 167.86,-35.88 173.06,-34.23"/>
<polygon fill="#63b8ff" stroke="#63b8ff" points="173.78,-37.68 182.3,-31.37 171.71,-30.99 173.78,-37.68"/>
</a>
</g>
</g>
</g>
</svg>
