<?xml version="1.0" encoding="UTF-8" standalone="no"?>
<!DOCTYPE svg PUBLIC "-//W3C//DTD SVG 1.1//EN"
 "http://www.w3.org/Graphics/SVG/1.1/DTD/svg11.dtd">
<!-- Generated by graphviz version 7.0.5 (20221223.1930)
 -->
<!-- Title: MediaPreview::setMedia Pages: 1 -->
<svg width="279pt" height="76pt"
 viewBox="0.00 0.00 279.00 75.50" xmlns="http://www.w3.org/2000/svg" xmlns:xlink="http://www.w3.org/1999/xlink">
<g id="graph0" class="graph" transform="scale(1 1) rotate(0) translate(4 71.5)">
<title>MediaPreview::setMedia</title>
<!-- Node1 -->
<g id="node1" class="node">
<title>Node1</title>
<g id="a_node1"><a xlink:title=" ">
<polygon fill="#999999" stroke="#666666" points="271,-45.5 149,-45.5 149,-26.5 271,-26.5 271,-45.5"/>
<text text-anchor="middle" x="210" y="-33.5" font-family="Helvetica,sans-Serif" font-size="10.00">MediaPreview::setMedia</text>
</a>
</g>
</g>
<!-- Node2 -->
<g id="node2" class="node">
<title>Node2</title>
<g id="a_node2"><a xlink:href="../../de/d4c/class_media_preview.html#a479c256007563f64a836b8eef3b235c3" target="_top" xlink:title=" ">
<polygon fill="#fff0f0" stroke="red" points="109.5,-67.5 3.5,-67.5 3.5,-48.5 109.5,-48.5 109.5,-67.5"/>
<text text-anchor="middle" x="56.5" y="-55.5" font-family="Helvetica,sans-Serif" font-size="10.00">MediaPreview::clean</text>
</a>
</g>
</g>
<!-- Node1&#45;&gt;Node2 -->
<g id="edge1" class="edge">
<title>Node1&#45;&gt;Node2</title>
<path fill="none" stroke="#63b8ff" d="M137.41,-46.4C128.09,-47.75 118.7,-49.11 109.78,-50.41"/>
<polygon fill="#63b8ff" stroke="#63b8ff" points="137.8,-49.88 147.19,-44.98 136.79,-42.95 137.8,-49.88"/>
</g>
<!-- Node6 -->
<g id="node3" class="node">
<title>Node6</title>
<g id="a_node3"><a xlink:href="../../d0/d4e/class_photos_grouping_dialog.html#aadab8ff1bdd21245d089ed650e98210a" target="_top" xlink:title=" ">
<polygon fill="#fff0f0" stroke="red" points="113,-30 0,-30 0,0 113,0 113,-30"/>
<text text-anchor="start" x="8" y="-18" font-family="Helvetica,sans-Serif" font-size="10.00">PhotosGroupingDialog</text>
<text text-anchor="middle" x="56.5" y="-7" font-family="Helvetica,sans-Serif" font-size="10.00">::generationDone</text>
</a>
</g>
</g>
<!-- Node1&#45;&gt;Node6 -->
<g id="edge2" class="edge">
<title>Node1&#45;&gt;Node6</title>
<path fill="none" stroke="#63b8ff" d="M137.31,-26.06C129.2,-24.94 121.04,-23.81 113.18,-22.72"/>
<polygon fill="#63b8ff" stroke="#63b8ff" points="136.8,-29.53 147.19,-27.43 137.76,-22.59 136.8,-29.53"/>
</g>
</g>
</svg>
