<?xml version="1.0" encoding="UTF-8" standalone="no"?>
<!DOCTYPE svg PUBLIC "-//W3C//DTD SVG 1.1//EN"
 "http://www.w3.org/Graphics/SVG/1.1/DTD/svg11.dtd">
<!-- Generated by graphviz version 12.2.0 (20241103.1931)
 -->
<!-- Title: MediaPreview::setMedia Pages: 1 -->
<svg width="279pt" height="76pt"
 viewBox="0.00 0.00 278.50 75.88" xmlns="http://www.w3.org/2000/svg" xmlns:xlink="http://www.w3.org/1999/xlink">
<g id="graph0" class="graph" transform="scale(1 1) rotate(0) translate(4 71.88)">
<title>MediaPreview::setMedia</title>
<!-- Node1 -->
<g id="Node000001" class="node">
<title>Node1</title>
<g id="a_Node000001"><a xlink:title=" ">
<polygon fill="#999999" stroke="#666666" points="270.5,-45.88 148.75,-45.88 148.75,-26.62 270.5,-26.62 270.5,-45.88"/>
<text text-anchor="middle" x="209.62" y="-32.38" font-family="Helvetica,sans-Serif" font-size="10.00">MediaPreview::setMedia</text>
</a>
</g>
</g>
<!-- Node2 -->
<g id="Node000002" class="node">
<title>Node2</title>
<g id="a_Node000002"><a xlink:href="../../de/d4c/class_media_preview.html#a479c256007563f64a836b8eef3b235c3" target="_top" xlink:title=" ">
<polygon fill="#fff0f0" stroke="red" points="109,-67.88 3.75,-67.88 3.75,-48.62 109,-48.62 109,-67.88"/>
<text text-anchor="middle" x="56.38" y="-54.38" font-family="Helvetica,sans-Serif" font-size="10.00">MediaPreview::clean</text>
</a>
</g>
</g>
<!-- Node1&#45;&gt;Node2 -->
<g id="edge1_Node000001_Node000002" class="edge">
<title>Node1&#45;&gt;Node2</title>
<g id="a_edge1_Node000001_Node000002"><a xlink:title=" ">
<path fill="none" stroke="#63b8ff" d="M137.32,-46.62C127.8,-48.01 118.18,-49.4 109.09,-50.73"/>
<polygon fill="#63b8ff" stroke="#63b8ff" points="137.52,-50.13 146.91,-45.23 136.51,-43.2 137.52,-50.13"/>
</a>
</g>
</g>
<!-- Node6 -->
<g id="Node000006" class="node">
<title>Node6</title>
<g id="a_Node000006"><a xlink:href="../../d0/d4e/class_photos_grouping_dialog.html#aadab8ff1bdd21245d089ed650e98210a" target="_top" xlink:title=" ">
<polygon fill="#fff0f0" stroke="red" points="112.75,-30.5 0,-30.5 0,0 112.75,0 112.75,-30.5"/>
<text text-anchor="start" x="8" y="-17" font-family="Helvetica,sans-Serif" font-size="10.00">PhotosGroupingDialog</text>
<text text-anchor="middle" x="56.38" y="-5.75" font-family="Helvetica,sans-Serif" font-size="10.00">::generationDone</text>
</a>
</g>
</g>
<!-- Node1&#45;&gt;Node6 -->
<g id="edge2_Node000001_Node000006" class="edge">
<title>Node1&#45;&gt;Node6</title>
<g id="a_edge2_Node000001_Node000006"><a xlink:title=" ">
<path fill="none" stroke="#63b8ff" d="M137.05,-26.31C128.96,-25.19 120.81,-24.06 112.96,-22.97"/>
<polygon fill="#63b8ff" stroke="#63b8ff" points="136.53,-29.77 146.91,-27.68 137.49,-22.84 136.53,-29.77"/>
</a>
</g>
</g>
</g>
</svg>
