<?xml version="1.0" encoding="UTF-8" standalone="no"?>
<!DOCTYPE svg PUBLIC "-//W3C//DTD SVG 1.1//EN"
 "http://www.w3.org/Graphics/SVG/1.1/DTD/svg11.dtd">
<!-- Generated by graphviz version 7.0.5 (20221223.1930)
 -->
<!-- Title: PeopleManipulator::FaceInfo Pages: 1 -->
<svg width="276pt" height="104pt"
 viewBox="0.00 0.00 275.50 104.00" xmlns="http://www.w3.org/2000/svg" xmlns:xlink="http://www.w3.org/1999/xlink">
<g id="graph0" class="graph" transform="scale(1 1) rotate(0) translate(4 100)">
<title>PeopleManipulator::FaceInfo</title>
<!-- Node1 -->
<g id="node1" class="node">
<title>Node1</title>
<g id="a_node1"><a xlink:title=" ">
<polygon fill="#999999" stroke="#666666" points="169.5,-30 68.5,-30 68.5,0 169.5,0 169.5,-30"/>
<text text-anchor="start" x="76.5" y="-18" font-family="Helvetica,sans-Serif" font-size="10.00">PeopleManipulator::</text>
<text text-anchor="middle" x="119" y="-7" font-family="Helvetica,sans-Serif" font-size="10.00">FaceInfo</text>
</a>
</g>
</g>
<!-- Node2 -->
<g id="node2" class="node">
<title>Node2</title>
<g id="a_node2"><a xlink:href="../../dd/dc4/class_person_info.html" target="_top" xlink:title=" ">
<polygon fill="#fff0f0" stroke="red" points="64,-96 0,-96 0,-77 64,-77 64,-96"/>
<text text-anchor="middle" x="32" y="-84" font-family="Helvetica,sans-Serif" font-size="10.00">PersonInfo</text>
</a>
</g>
</g>
<!-- Node2&#45;&gt;Node1 -->
<g id="edge1" class="edge">
<title>Node2&#45;&gt;Node1</title>
<path fill="none" stroke="#9a32cd" stroke-dasharray="5,2" d="M51.89,-69.61C66.73,-57.76 86.81,-41.72 101.13,-30.27"/>
<polygon fill="#9a32cd" stroke="#9a32cd" points="49.83,-66.78 44.2,-75.75 54.2,-72.25 49.83,-66.78"/>
<text text-anchor="middle" x="90" y="-51" font-family="Helvetica,sans-Serif" font-size="10.00"> face</text>
</g>
<!-- Node5 -->
<g id="node3" class="node">
<title>Node5</title>
<g id="a_node3"><a xlink:href="../../db/de4/class_person_name.html" target="_top" xlink:title=" ">
<polygon fill="#fff0f0" stroke="red" points="156,-96 82,-96 82,-77 156,-77 156,-96"/>
<text text-anchor="middle" x="119" y="-84" font-family="Helvetica,sans-Serif" font-size="10.00">PersonName</text>
</a>
</g>
</g>
<!-- Node5&#45;&gt;Node1 -->
<g id="edge2" class="edge">
<title>Node5&#45;&gt;Node1</title>
<path fill="none" stroke="#9a32cd" stroke-dasharray="5,2" d="M119,-65.39C119,-54.15 119,-40.41 119,-30.27"/>
<polygon fill="#9a32cd" stroke="#9a32cd" points="115.5,-65.18 119,-75.18 122.5,-65.18 115.5,-65.18"/>
<text text-anchor="middle" x="135" y="-51" font-family="Helvetica,sans-Serif" font-size="10.00"> person</text>
</g>
<!-- Node6 -->
<g id="node4" class="node">
<title>Node6</title>
<g id="a_node4"><a xlink:href="../../da/d2c/class_person_fingerprint.html" target="_top" xlink:title=" ">
<polygon fill="white" stroke="#666666" points="267.5,-96 174.5,-96 174.5,-77 267.5,-77 267.5,-96"/>
<text text-anchor="middle" x="221" y="-84" font-family="Helvetica,sans-Serif" font-size="10.00">PersonFingerprint</text>
</a>
</g>
</g>
<!-- Node6&#45;&gt;Node1 -->
<g id="edge3" class="edge">
<title>Node6&#45;&gt;Node1</title>
<path fill="none" stroke="#9a32cd" stroke-dasharray="5,2" d="M198.66,-70.28C181.19,-58.37 157.06,-41.93 139.95,-30.27"/>
<polygon fill="#9a32cd" stroke="#9a32cd" points="196.6,-73.11 206.83,-75.85 200.54,-67.32 196.6,-73.11"/>
<text text-anchor="middle" x="201.5" y="-51" font-family="Helvetica,sans-Serif" font-size="10.00"> fingerprint</text>
</g>
</g>
</svg>
