<?xml version="1.0" encoding="UTF-8" standalone="no"?>
<!DOCTYPE svg PUBLIC "-//W3C//DTD SVG 1.1//EN"
 "http://www.w3.org/Graphics/SVG/1.1/DTD/svg11.dtd">
<!-- Generated by graphviz version 7.0.5 (20221223.1930)
 -->
<!-- Title: ExiftoolVideoDetailsReader::resolutionOf Pages: 1 -->
<svg width="294pt" height="76pt"
 viewBox="0.00 0.00 294.00 75.50" xmlns="http://www.w3.org/2000/svg" xmlns:xlink="http://www.w3.org/1999/xlink">
<g id="graph0" class="graph" transform="scale(1 1) rotate(0) translate(4 71.5)">
<title>ExiftoolVideoDetailsReader::resolutionOf</title>
<!-- Node1 -->
<g id="node1" class="node">
<title>Node1</title>
<g id="a_node1"><a xlink:title=" ">
<polygon fill="#999999" stroke="#666666" points="286,-45.5 152,-45.5 152,-15.5 286,-15.5 286,-45.5"/>
<text text-anchor="start" x="160" y="-33.5" font-family="Helvetica,sans-Serif" font-size="10.00">ExiftoolVideoDetailsReader</text>
<text text-anchor="middle" x="219" y="-22.5" font-family="Helvetica,sans-Serif" font-size="10.00">::resolutionOf</text>
</a>
</g>
</g>
<!-- Node2 -->
<g id="node2" class="node">
<title>Node2</title>
<g id="a_node2"><a xlink:href="../../d8/de9/class_video_media_information.html#aff55ed26988978d5c685119f7ecda2ca" target="_top" xlink:title=" ">
<polygon fill="#fff0f0" stroke="red" points="116,-67.5 0,-67.5 0,-37.5 116,-37.5 116,-67.5"/>
<text text-anchor="start" x="8" y="-55.5" font-family="Helvetica,sans-Serif" font-size="10.00">VideoMediaInformation</text>
<text text-anchor="middle" x="58" y="-44.5" font-family="Helvetica,sans-Serif" font-size="10.00">::getInformation</text>
</a>
</g>
</g>
<!-- Node1&#45;&gt;Node2 -->
<g id="edge1" class="edge">
<title>Node1&#45;&gt;Node2</title>
<path fill="none" stroke="#63b8ff" d="M140.55,-41.22C132.44,-42.34 124.31,-43.46 116.49,-44.55"/>
<polygon fill="#63b8ff" stroke="#63b8ff" points="141.03,-44.68 150.45,-39.85 140.07,-37.75 141.03,-44.68"/>
</g>
<!-- Node6 -->
<g id="node3" class="node">
<title>Node6</title>
<g id="a_node3"><a xlink:href="../../d2/d40/exiftool__video__details__reader__tests_8cpp.html#a3d37f5e1848e41b0df508693f45a5dd3" target="_top" xlink:title=" ">
<polygon fill="white" stroke="#666666" points="78.5,-19 37.5,-19 37.5,0 78.5,0 78.5,-19"/>
<text text-anchor="middle" x="58" y="-7" font-family="Helvetica,sans-Serif" font-size="10.00">TEST</text>
</a>
</g>
</g>
<!-- Node1&#45;&gt;Node6 -->
<g id="edge2" class="edge">
<title>Node1&#45;&gt;Node6</title>
<path fill="none" stroke="#63b8ff" d="M140.78,-20.3C117.91,-17.28 94.79,-14.23 78.99,-12.14"/>
<polygon fill="#63b8ff" stroke="#63b8ff" points="140.08,-23.74 150.45,-21.58 140.99,-16.8 140.08,-23.74"/>
</g>
</g>
</svg>
