<?xml version="1.0" encoding="UTF-8" standalone="no"?>
<!DOCTYPE svg PUBLIC "-//W3C//DTD SVG 1.1//EN"
 "http://www.w3.org/Graphics/SVG/1.1/DTD/svg11.dtd">
<!-- Generated by graphviz version 7.0.5 (20221223.1930)
 -->
<!-- Title: safe_callback::is_valid Pages: 1 -->
<svg width="280pt" height="64pt"
 viewBox="0.00 0.00 280.00 64.00" xmlns="http://www.w3.org/2000/svg" xmlns:xlink="http://www.w3.org/1999/xlink">
<g id="graph0" class="graph" transform="scale(1 1) rotate(0) translate(4 60)">
<title>safe_callback::is_valid</title>
<!-- Node1 -->
<g id="node1" class="node">
<title>Node1</title>
<g id="a_node1"><a xlink:title=" ">
<polygon fill="#999999" stroke="#666666" points="272,-37 158,-37 158,-18 272,-18 272,-37"/>
<text text-anchor="middle" x="215" y="-25" font-family="Helvetica,sans-Serif" font-size="10.00">safe_callback::is_valid</text>
</a>
</g>
</g>
<!-- Node2 -->
<g id="node2" class="node">
<title>Node2</title>
<g id="a_node2"><a xlink:href="../../d1/d7b/classsafe__callback.html#a30f35a3bdfab9dc429cefa404e6e3605" target="_top" xlink:title=" ">
<polygon fill="white" stroke="#666666" points="122,-56 0,-56 0,-37 122,-37 122,-56"/>
<text text-anchor="middle" x="61" y="-44" font-family="Helvetica,sans-Serif" font-size="10.00">safe_callback::operator()</text>
</a>
</g>
</g>
<!-- Node1&#45;&gt;Node2 -->
<g id="edge1" class="edge">
<title>Node1&#45;&gt;Node2</title>
<path fill="none" stroke="#63b8ff" d="M146.53,-35.93C138.45,-36.94 130.24,-37.97 122.27,-38.97"/>
<polygon fill="#63b8ff" stroke="#63b8ff" points="146.84,-39.42 156.33,-34.71 145.97,-32.48 146.84,-39.42"/>
</g>
<!-- Node3 -->
<g id="node3" class="node">
<title>Node3</title>
<g id="a_node3"><a xlink:href="../../da/d6f/function__wrappers__tests_8cpp.html#ac0952fc8f61269e6296f4261b264e663" target="_top" xlink:title=" ">
<polygon fill="white" stroke="#666666" points="81.5,-19 40.5,-19 40.5,0 81.5,0 81.5,-19"/>
<text text-anchor="middle" x="61" y="-7" font-family="Helvetica,sans-Serif" font-size="10.00">TEST</text>
</a>
</g>
</g>
<!-- Node1&#45;&gt;Node3 -->
<g id="edge2" class="edge">
<title>Node1&#45;&gt;Node3</title>
<path fill="none" stroke="#63b8ff" d="M146.46,-19.5C123.05,-16.73 98.54,-13.83 82,-11.87"/>
<polygon fill="#63b8ff" stroke="#63b8ff" points="145.99,-22.97 156.33,-20.67 146.81,-16.02 145.99,-22.97"/>
</g>
</g>
</svg>
