<?xml version="1.0" encoding="UTF-8" standalone="no"?>
<!DOCTYPE svg PUBLIC "-//W3C//DTD SVG 1.1//EN"
 "http://www.w3.org/Graphics/SVG/1.1/DTD/svg11.dtd">
<!-- Generated by graphviz version 9.0.0 (20230911.1827)
 -->
<!-- Title: PhotosCollector Pages: 1 -->
<svg width="172pt" height="83pt"
 viewBox="0.00 0.00 172.00 82.50" xmlns="http://www.w3.org/2000/svg" xmlns:xlink="http://www.w3.org/1999/xlink">
<g id="graph0" class="graph" transform="scale(1 1) rotate(0) translate(4 78.5)">
<title>PhotosCollector</title>
<!-- Node1 -->
<g id="Node000001" class="node">
<title>Node1</title>
<g id="a_Node000001"><a xlink:title=" ">
<polygon fill="#999999" stroke="#666666" points="113.5,-19.25 28.5,-19.25 28.5,0 113.5,0 113.5,-19.25"/>
<text text-anchor="middle" x="71" y="-5.75" font-family="Helvetica,sans-Serif" font-size="10.00">PhotosCollector</text>
</a>
</g>
</g>
<!-- Node2 -->
<g id="Node000002" class="node">
<title>Node2</title>
<g id="a_Node000002"><a xlink:title=" ">
<polygon fill="white" stroke="#666666" points="52,-74.5 0,-74.5 0,-55.25 52,-55.25 52,-74.5"/>
<text text-anchor="middle" x="26" y="-61" font-family="Helvetica,sans-Serif" font-size="10.00">QObject</text>
</a>
</g>
</g>
<!-- Node2&#45;&gt;Node1 -->
<g id="edge1_Node000001_Node000002" class="edge">
<title>Node2&#45;&gt;Node1</title>
<g id="a_edge1_Node000001_Node000002"><a xlink:title=" ">
<path fill="none" stroke="#63b8ff" d="M40.68,-46.51C48.26,-37.53 57.21,-26.95 63.41,-19.61"/>
<polygon fill="#63b8ff" stroke="#63b8ff" points="38.19,-44.03 34.41,-53.93 43.54,-48.55 38.19,-44.03"/>
</a>
</g>
</g>
<!-- Node3 -->
<g id="Node000003" class="node">
<title>Node3</title>
<g id="a_Node000003"><a xlink:href="../../d2/d3e/struct_i_media_notification.html" target="_top" xlink:title=" ">
<polygon fill="white" stroke="#666666" points="164,-74.5 70,-74.5 70,-55.25 164,-55.25 164,-74.5"/>
<text text-anchor="middle" x="117" y="-61" font-family="Helvetica,sans-Serif" font-size="10.00">IMediaNotification</text>
</a>
</g>
</g>
<!-- Node3&#45;&gt;Node1 -->
<g id="edge2_Node000001_Node000003" class="edge">
<title>Node3&#45;&gt;Node1</title>
<g id="a_edge2_Node000001_Node000003"><a xlink:title=" ">
<path fill="none" stroke="#63b8ff" d="M102,-46.51C94.24,-37.53 85.1,-26.95 78.76,-19.61"/>
<polygon fill="#63b8ff" stroke="#63b8ff" points="99.23,-48.66 108.41,-53.94 104.53,-44.08 99.23,-48.66"/>
</a>
</g>
</g>
</g>
</svg>
