<?xml version="1.0" encoding="UTF-8" standalone="no"?>
<!DOCTYPE svg PUBLIC "-//W3C//DTD SVG 1.1//EN"
 "http://www.w3.org/Graphics/SVG/1.1/DTD/svg11.dtd">
<!-- Generated by graphviz version 7.0.5 (20221223.1930)
 -->
<!-- Title: src/gui/desktop/quick_items/media_view_ctrl.cpp Pages: 1 -->
<svg width="608pt" height="148pt"
 viewBox="0.00 0.00 607.50 148.00" xmlns="http://www.w3.org/2000/svg" xmlns:xlink="http://www.w3.org/1999/xlink">
<g id="graph0" class="graph" transform="scale(1 1) rotate(0) translate(4 144)">
<title>src/gui/desktop/quick_items/media_view_ctrl.cpp</title>
<!-- Node1 -->
<g id="node1" class="node">
<title>Node1</title>
<g id="a_node1"><a xlink:title=" ">
<polygon fill="#999999" stroke="#666666" points="296.5,-140 159.5,-140 159.5,-110 296.5,-110 296.5,-140"/>
<text text-anchor="start" x="167.5" y="-128" font-family="Helvetica,sans-Serif" font-size="10.00">src/gui/desktop/quick</text>
<text text-anchor="middle" x="228" y="-117" font-family="Helvetica,sans-Serif" font-size="10.00">_items/media_view_ctrl.cpp</text>
</a>
</g>
</g>
<!-- Node2 -->
<g id="node2" class="node">
<title>Node2</title>
<g id="a_node2"><a xlink:title=" ">
<polygon fill="#e0e0e0" stroke="#999999" points="56,-74 0,-74 0,-55 56,-55 56,-74"/>
<text text-anchor="middle" x="28" y="-62" font-family="Helvetica,sans-Serif" font-size="10.00">QFileInfo</text>
</a>
</g>
</g>
<!-- Node1&#45;&gt;Node2 -->
<g id="edge1" class="edge">
<title>Node1&#45;&gt;Node2</title>
<path fill="none" stroke="#63b8ff" d="M178.56,-109.54C144.1,-99.46 98.78,-86.2 66.89,-76.88"/>
<polygon fill="#63b8ff" stroke="#63b8ff" points="68.25,-73.63 57.67,-74.18 66.28,-80.34 68.25,-73.63"/>
</g>
<!-- Node3 -->
<g id="node3" class="node">
<title>Node3</title>
<g id="a_node3"><a xlink:href="../../d0/dd6/function__wrappers_8hpp.html" target="_top" xlink:title=" ">
<polygon fill="#fff0f0" stroke="red" points="319,-19 183,-19 183,0 319,0 319,-19"/>
<text text-anchor="middle" x="251" y="-7" font-family="Helvetica,sans-Serif" font-size="10.00">core/function_wrappers.hpp</text>
</a>
</g>
</g>
<!-- Node1&#45;&gt;Node3 -->
<g id="edge2" class="edge">
<title>Node1&#45;&gt;Node3</title>
<path fill="none" stroke="#63b8ff" d="M159.37,-110.92C120.23,-100.23 82.66,-82.35 103,-55 119.11,-33.33 145.42,-21.83 171.43,-15.84"/>
<polygon fill="#63b8ff" stroke="#63b8ff" points="171.93,-19.31 181.04,-13.89 170.54,-12.44 171.93,-19.31"/>
</g>
<!-- Node11 -->
<g id="node4" class="node">
<title>Node11</title>
<g id="a_node4"><a xlink:href="../../df/d6f/iexif__reader_8hpp.html" target="_top" xlink:title=" ">
<polygon fill="#fff0f0" stroke="red" points="218,-74 112,-74 112,-55 218,-55 218,-74"/>
<text text-anchor="middle" x="165" y="-62" font-family="Helvetica,sans-Serif" font-size="10.00">core/iexif_reader.hpp</text>
</a>
</g>
</g>
<!-- Node1&#45;&gt;Node11 -->
<g id="edge3" class="edge">
<title>Node1&#45;&gt;Node11</title>
<path fill="none" stroke="#63b8ff" d="M212.43,-109.54C203.37,-101.13 191.93,-90.51 182.55,-81.8"/>
<polygon fill="#63b8ff" stroke="#63b8ff" points="185.16,-79.44 175.45,-75.21 180.4,-84.57 185.16,-79.44"/>
</g>
<!-- Node23 -->
<g id="node5" class="node">
<title>Node23</title>
<g id="a_node5"><a xlink:href="../../db/ddc/media__types_8hpp.html" target="_top" xlink:title=" ">
<polygon fill="#fff0f0" stroke="red" points="347.5,-74 236.5,-74 236.5,-55 347.5,-55 347.5,-74"/>
<text text-anchor="middle" x="292" y="-62" font-family="Helvetica,sans-Serif" font-size="10.00">core/media_types.hpp</text>
</a>
</g>
</g>
<!-- Node1&#45;&gt;Node23 -->
<g id="edge4" class="edge">
<title>Node1&#45;&gt;Node23</title>
<path fill="none" stroke="#63b8ff" d="M243.82,-109.54C253.02,-101.13 264.64,-90.51 274.17,-81.8"/>
<polygon fill="#63b8ff" stroke="#63b8ff" points="276.37,-84.53 281.39,-75.2 271.65,-79.36 276.37,-84.53"/>
</g>
<!-- Node24 -->
<g id="node6" class="node">
<title>Node24</title>
<g id="a_node6"><a xlink:href="../../d9/d3b/media__view__ctrl_8hpp.html" target="_top" xlink:title=" ">
<polygon fill="#fff0f0" stroke="red" points="470.5,-74 365.5,-74 365.5,-55 470.5,-55 470.5,-74"/>
<text text-anchor="middle" x="418" y="-62" font-family="Helvetica,sans-Serif" font-size="10.00">media_view_ctrl.hpp</text>
</a>
</g>
</g>
<!-- Node1&#45;&gt;Node24 -->
<g id="edge5" class="edge">
<title>Node1&#45;&gt;Node24</title>
<path fill="none" stroke="#63b8ff" d="M274.97,-109.54C306.64,-99.79 347.97,-87.06 378.05,-77.8"/>
<polygon fill="#63b8ff" stroke="#63b8ff" points="379.02,-81.17 387.54,-74.88 376.96,-74.48 379.02,-81.17"/>
</g>
<!-- Node34 -->
<g id="node7" class="node">
<title>Node34</title>
<g id="a_node7"><a xlink:href="../../df/dab/objects__accessor_8hpp.html" target="_top" xlink:title=" ">
<polygon fill="#fff0f0" stroke="red" points="599.5,-74 488.5,-74 488.5,-55 599.5,-55 599.5,-74"/>
<text text-anchor="middle" x="544" y="-62" font-family="Helvetica,sans-Serif" font-size="10.00">objects_accessor.hpp</text>
</a>
</g>
</g>
<!-- Node1&#45;&gt;Node34 -->
<g id="edge7" class="edge">
<title>Node1&#45;&gt;Node34</title>
<path fill="none" stroke="#63b8ff" d="M296.96,-111.23C352.96,-100.87 431.12,-86.4 484.43,-76.53"/>
<polygon fill="#63b8ff" stroke="#63b8ff" points="485.06,-79.97 494.26,-74.71 483.79,-73.09 485.06,-79.97"/>
</g>
<!-- Node24&#45;&gt;Node3 -->
<g id="edge6" class="edge">
<title>Node24&#45;&gt;Node3</title>
<path fill="none" stroke="#63b8ff" d="M389.67,-54.51C362.24,-45.8 320.42,-32.53 289.88,-22.84"/>
<polygon fill="#63b8ff" stroke="#63b8ff" points="291.22,-19.59 280.63,-19.9 289.1,-26.27 291.22,-19.59"/>
</g>
</g>
</svg>
