<?xml version="1.0" encoding="UTF-8" standalone="no"?>
<!DOCTYPE svg PUBLIC "-//W3C//DTD SVG 1.1//EN"
 "http://www.w3.org/Graphics/SVG/1.1/DTD/svg11.dtd">
<!-- Generated by graphviz version 12.2.0 (20241103.1931)
 -->
<!-- Title: src/gui/desktop/quick_items/media_view_ctrl.cpp Pages: 1 -->
<!--zoomable 227 -->

<svg id="main" version="1.1" xmlns="http://www.w3.org/2000/svg" xmlns:xlink="http://www.w3.org/1999/xlink" xml:space="preserve" onload="init(evt)">

<style type="text/css"><![CDATA[
.node, .edge {opacity: 0.7;}
.node.selected, .edge.selected {opacity: 1;}
.edge:hover path { stroke: red; }
.edge:hover polygon { stroke: red; fill: red; }
]]></style>

<defs>
  <circle id="rim" cx="0" cy="0" r="7"/>
  <circle id="rim2" cx="0" cy="0" r="3.5"/>
  <g id="zoomPlus">
    <use xlink:href="#rim" fill="#404040"><set attributeName="fill" to="#808080" begin="zoomplus.mouseover" end="zoomplus.mouseout"/></use>
    <path d="M-4,0h8M0,-4v8" fill="none" stroke="white" stroke-width="1.5" pointer-events="none"/>
  </g>
  <g id="zoomMin">
    <use xlink:href="#rim" fill="#404040"><set attributeName="fill" to="#808080" begin="zoomminus.mouseover" end="zoomminus.mouseout"/></use>
    <path d="M-4,0h8" fill="none" stroke="white" stroke-width="1.5" pointer-events="none"/>
  </g>
  <g id="arrowUp" transform="translate(30 24)">
    <use xlink:href="#rim"/>
    <path pointer-events="none" fill="none" stroke="white" stroke-width="1.5" d="M0,-3.0v7 M-2.5,-0.5L0,-3.0L2.5,-0.5"/>
  </g>
  <g id="arrowRight" transform="rotate(90) translate(36 -43)">
    <use xlink:href="#rim"/>
    <path pointer-events="none" fill="none" stroke="white" stroke-width="1.5" d="M0,-3.0v7 M-2.5,-0.5L0,-3.0L2.5,-0.5"/>
  </g>
  <g id="arrowDown" transform="rotate(180) translate(-30 -48)">
    <use xlink:href="#rim"/>
    <path pointer-events="none" fill="none" stroke="white" stroke-width="1.5" d="M0,-3.0v7 M-2.5,-0.5L0,-3.0L2.5,-0.5"/>
  </g>
  <g id="arrowLeft" transform="rotate(270) translate(-36 17)">
    <use xlink:href="#rim"/>
    <path pointer-events="none" fill="none" stroke="white" stroke-width="1.5" d="M0,-3.0v7 M-2.5,-0.5L0,-3.0L2.5,-0.5"/>
  </g>
  <g id="resetDef">
    <use xlink:href="#rim2" fill="#404040"><set attributeName="fill" to="#808080" begin="reset.mouseover" end="reset.mouseout"/></use>
  </g>
</defs>
<script type="application/ecmascript">
var viewWidth = 878;
var viewHeight = 227;
var sectionId = 'dynsection-0';
</script>
<script type="application/ecmascript" xlink:href="../../svg.min.js"/>
<svg id="graph" class="graph">
<g id="viewport">
<title>src/gui/desktop/quick_items/media_view_ctrl.cpp</title>
<!-- Node1 -->
<g id="Node000001" class="node">
<title>Node1</title>
<g id="a_Node000001"><a xlink:title=" ">
<polygon fill="#999999" stroke="#666666" points="484.25,-218.75 347.5,-218.75 347.5,-188.25 484.25,-188.25 484.25,-218.75"/>
<text text-anchor="start" x="355.5" y="-205.25" font-family="Helvetica,sans-Serif" font-size="10.00">src/gui/desktop/quick</text>
<text text-anchor="middle" x="415.88" y="-194" font-family="Helvetica,sans-Serif" font-size="10.00">_items/media_view_ctrl.cpp</text>
</a>
</g>
</g>
<!-- Node2 -->
<g id="Node000002" class="node">
<title>Node2</title>
<g id="a_Node000002"><a xlink:title=" ">
<polygon fill="#e0e0e0" stroke="#999999" points="55.75,-146.62 0,-146.62 0,-127.38 55.75,-127.38 55.75,-146.62"/>
<text text-anchor="middle" x="27.88" y="-133.12" font-family="Helvetica,sans-Serif" font-size="10.00">QFileInfo</text>
</a>
</g>
</g>
<!-- Node1&#45;&gt;Node2 -->
<g id="edge1_Node000001_Node000002" class="edge">
<title>Node1&#45;&gt;Node2</title>
<g id="a_edge1_Node000001_Node000002"><a xlink:title=" ">
<path fill="none" stroke="#63b8ff" d="M347.23,-196.27C276.9,-189.02 164.75,-175.03 69.88,-152.25 67.59,-151.7 65.26,-151.08 62.92,-150.42"/>
<polygon fill="#63b8ff" stroke="#63b8ff" points="64.12,-147.12 53.53,-147.5 62.04,-153.81 64.12,-147.12"/>
</a>
</g>
</g>
<!-- Node3 -->
<g id="Node000003" class="node">
<title>Node3</title>
<g id="a_Node000003"><a xlink:title=" ">
<polygon fill="#e0e0e0" stroke="#999999" points="209.62,-19.25 150.12,-19.25 150.12,0 209.62,0 209.62,-19.25"/>
<text text-anchor="middle" x="179.88" y="-5.75" font-family="Helvetica,sans-Serif" font-size="10.00">QPromise</text>
</a>
</g>
</g>
<!-- Node1&#45;&gt;Node3 -->
<g id="edge2_Node000001_Node000003" class="edge">
<title>Node1&#45;&gt;Node3</title>
<g id="a_edge2_Node000001_Node000003"><a xlink:title=" ">
<path fill="none" stroke="#63b8ff" d="M347.05,-197.88C273.63,-191.66 163.47,-178.26 130.88,-152.25 95.8,-124.27 80.47,-94.13 102.88,-55.25 111.01,-41.14 125.5,-31.08 139.73,-24.13"/>
<polygon fill="#63b8ff" stroke="#63b8ff" points="140.84,-27.47 148.57,-20.22 138.01,-21.07 140.84,-27.47"/>
</a>
</g>
</g>
<!-- Node4 -->
<g id="Node000004" class="node">
<title>Node4</title>
<g id="a_Node000004"><a xlink:href="../../d0/dd6/function__wrappers_8hpp.html" target="_top" xlink:title=" ">
<polygon fill="#fff0f0" stroke="red" points="247.5,-80.12 112.25,-80.12 112.25,-60.88 247.5,-60.88 247.5,-80.12"/>
<text text-anchor="middle" x="179.88" y="-66.62" font-family="Helvetica,sans-Serif" font-size="10.00">core/function_wrappers.hpp</text>
</a>
</g>
</g>
<!-- Node1&#45;&gt;Node4 -->
<g id="edge3_Node000001_Node000004" class="edge">
<title>Node1&#45;&gt;Node4</title>
<g id="a_edge3_Node000001_Node000004"><a xlink:title=" ">
<path fill="none" stroke="#63b8ff" d="M347.04,-199.69C274.32,-195.1 166.63,-183.14 140.88,-152.25 124.68,-132.83 144.74,-105.55 161.56,-88.2"/>
<polygon fill="#63b8ff" stroke="#63b8ff" points="163.59,-91.1 168.3,-81.61 158.7,-86.09 163.59,-91.1"/>
</a>
</g>
</g>
<!-- Node11 -->
<g id="Node000011" class="node">
<title>Node11</title>
<g id="a_Node000011"><a xlink:href="../../df/d6f/iexif__reader_8hpp.html" target="_top" xlink:title=" ">
<polygon fill="#fff0f0" stroke="red" points="255.5,-146.62 150.25,-146.62 150.25,-127.38 255.5,-127.38 255.5,-146.62"/>
<text text-anchor="middle" x="202.88" y="-133.12" font-family="Helvetica,sans-Serif" font-size="10.00">core/iexif_reader.hpp</text>
</a>
</g>
</g>
<!-- Node1&#45;&gt;Node11 -->
<g id="edge5_Node000001_Node000011" class="edge">
<title>Node1&#45;&gt;Node11</title>
<g id="a_edge5_Node000001_Node000011"><a xlink:title=" ">
<path fill="none" stroke="#63b8ff" d="M367.28,-187.78C329.94,-176.48 278.96,-161.04 243.72,-150.37"/>
<polygon fill="#63b8ff" stroke="#63b8ff" points="244.9,-147.07 234.31,-147.52 242.87,-153.77 244.9,-147.07"/>
</a>
</g>
</g>
<!-- Node23 -->
<g id="Node000023" class="node">
<title>Node23</title>
<g id="a_Node000023"><a xlink:href="../../d5/d80/itask__executor_8hpp.html" target="_top" xlink:title=" ">
<polygon fill="#fff0f0" stroke="red" points="582.25,-19.25 463.5,-19.25 463.5,0 582.25,0 582.25,-19.25"/>
<text text-anchor="middle" x="522.88" y="-5.75" font-family="Helvetica,sans-Serif" font-size="10.00">core/itask_executor.hpp</text>
</a>
</g>
</g>
<!-- Node1&#45;&gt;Node23 -->
<g id="edge6_Node000001_Node000023" class="edge">
<title>Node1&#45;&gt;Node23</title>
<g id="a_edge6_Node000001_Node000023"><a xlink:title=" ">
<path fill="none" stroke="#63b8ff" d="M484.45,-197.73C515.51,-191.73 549.53,-178.97 568.88,-152.25 596.95,-113.48 560.35,-56.7 537.94,-28.25"/>
<polygon fill="#63b8ff" stroke="#63b8ff" points="540.73,-26.14 531.69,-20.61 535.32,-30.57 540.73,-26.14"/>
</a>
</g>
</g>
<!-- Node27 -->
<g id="Node000027" class="node">
<title>Node27</title>
<g id="a_Node000027"><a xlink:href="../../db/ddc/media__types_8hpp.html" target="_top" xlink:title=" ">
<polygon fill="#fff0f0" stroke="red" points="543.12,-146.62 432.62,-146.62 432.62,-127.38 543.12,-127.38 543.12,-146.62"/>
<text text-anchor="middle" x="487.88" y="-133.12" font-family="Helvetica,sans-Serif" font-size="10.00">core/media_types.hpp</text>
</a>
</g>
</g>
<!-- Node1&#45;&gt;Node27 -->
<g id="edge7_Node000001_Node000027" class="edge">
<title>Node1&#45;&gt;Node27</title>
<g id="a_edge7_Node000001_Node000027"><a xlink:title=" ">
<path fill="none" stroke="#63b8ff" d="M432.21,-187.86C443.34,-177.89 458.09,-164.68 469.61,-154.36"/>
<polygon fill="#63b8ff" stroke="#63b8ff" points="471.79,-157.11 476.9,-147.83 467.12,-151.9 471.79,-157.11"/>
</a>
</g>
</g>
<!-- Node28 -->
<g id="Node000028" class="node">
<title>Node28</title>
<g id="a_Node000028"><a xlink:href="../../d4/d20/task__executor__utils_8hpp.html" target="_top" xlink:title=" ">
<polygon fill="#fff0f0" stroke="red" points="487.12,-85.75 388.62,-85.75 388.62,-55.25 487.12,-55.25 487.12,-85.75"/>
<text text-anchor="start" x="396.62" y="-72.25" font-family="Helvetica,sans-Serif" font-size="10.00">core/task_executor</text>
<text text-anchor="middle" x="437.88" y="-61" font-family="Helvetica,sans-Serif" font-size="10.00">_utils.hpp</text>
</a>
</g>
</g>
<!-- Node1&#45;&gt;Node28 -->
<g id="edge8_Node000001_Node000028" class="edge">
<title>Node1&#45;&gt;Node28</title>
<g id="a_edge8_Node000001_Node000028"><a xlink:title=" ">
<path fill="none" stroke="#63b8ff" d="M484.46,-193.8C509.95,-186.87 536.41,-174.45 551.88,-152.25 571.37,-124.26 535.05,-102.66 498.35,-88.87"/>
<polygon fill="#63b8ff" stroke="#63b8ff" points="499.55,-85.58 488.95,-85.52 497.2,-92.17 499.55,-85.58"/>
</a>
</g>
</g>
<!-- Node34 -->
<g id="Node000034" class="node">
<title>Node34</title>
<g id="a_Node000034"><a xlink:href="../../dc/de9/database__executor__traits_8hpp.html" target="_top" xlink:title=" ">
<polygon fill="#fff0f0" stroke="red" points="414.12,-152.25 273.62,-152.25 273.62,-121.75 414.12,-121.75 414.12,-152.25"/>
<text text-anchor="start" x="281.62" y="-138.75" font-family="Helvetica,sans-Serif" font-size="10.00">database/database_executor</text>
<text text-anchor="middle" x="343.88" y="-127.5" font-family="Helvetica,sans-Serif" font-size="10.00">_traits.hpp</text>
</a>
</g>
</g>
<!-- Node1&#45;&gt;Node34 -->
<g id="edge11_Node000001_Node000034" class="edge">
<title>Node1&#45;&gt;Node34</title>
<g id="a_edge11_Node000001_Node000034"><a xlink:title=" ">
<path fill="none" stroke="#63b8ff" d="M399.54,-187.86C390.42,-179.7 378.88,-169.36 368.68,-160.22"/>
<polygon fill="#63b8ff" stroke="#63b8ff" points="371.06,-157.65 361.28,-153.59 366.39,-162.87 371.06,-157.65"/>
</a>
</g>
</g>
<!-- Node65 -->
<g id="Node000065" class="node">
<title>Node65</title>
<g id="a_Node000065"><a xlink:href="../../d9/d3b/media__view__ctrl_8hpp.html" target="_top" xlink:title=" ">
<polygon fill="#fff0f0" stroke="red" points="741.12,-146.62 636.62,-146.62 636.62,-127.38 741.12,-127.38 741.12,-146.62"/>
<text text-anchor="middle" x="688.88" y="-133.12" font-family="Helvetica,sans-Serif" font-size="10.00">media_view_ctrl.hpp</text>
</a>
</g>
</g>
<!-- Node1&#45;&gt;Node65 -->
<g id="edge13_Node000001_Node000065" class="edge">
<title>Node1&#45;&gt;Node65</title>
<g id="a_edge13_Node000001_Node000065"><a xlink:title=" ">
<path fill="none" stroke="#63b8ff" d="M478.16,-187.78C527.05,-176.23 594.19,-160.37 639.43,-149.68"/>
<polygon fill="#63b8ff" stroke="#63b8ff" points="640.04,-153.13 648.97,-147.43 638.43,-146.32 640.04,-153.13"/>
</a>
</g>
</g>
<!-- Node71 -->
<g id="Node000071" class="node">
<title>Node71</title>
<g id="a_Node000071"><a xlink:href="../../df/dab/objects__accessor_8hpp.html" target="_top" xlink:title=" ">
<polygon fill="#fff0f0" stroke="red" points="870.12,-146.62 759.62,-146.62 759.62,-127.38 870.12,-127.38 870.12,-146.62"/>
<text text-anchor="middle" x="814.88" y="-133.12" font-family="Helvetica,sans-Serif" font-size="10.00">objects_accessor.hpp</text>
</a>
</g>
</g>
<!-- Node1&#45;&gt;Node71 -->
<g id="edge14_Node000001_Node000071" class="edge">
<title>Node1&#45;&gt;Node71</title>
<g id="a_edge14_Node000001_Node000071"><a xlink:title=" ">
<path fill="none" stroke="#63b8ff" d="M484.54,-193.53C552.22,-184.37 658.48,-169.12 749.88,-152.25 754.54,-151.39 759.38,-150.44 764.22,-149.45"/>
<polygon fill="#63b8ff" stroke="#63b8ff" points="764.88,-152.88 773.95,-147.4 763.44,-146.03 764.88,-152.88"/>
</a>
</g>
</g>
<!-- Node4&#45;&gt;Node3 -->
<g id="edge4_Node000004_Node000003" class="edge">
<title>Node4&#45;&gt;Node3</title>
<g id="a_edge4_Node000004_Node000003"><a xlink:title=" ">
<path fill="none" stroke="#63b8ff" d="M179.88,-60.56C179.88,-52.78 179.88,-41.2 179.88,-31.16"/>
<polygon fill="#63b8ff" stroke="#63b8ff" points="183.38,-31.16 179.88,-21.16 176.38,-31.16 183.38,-31.16"/>
</a>
</g>
</g>
<!-- Node28&#45;&gt;Node3 -->
<g id="edge9_Node000028_Node000003" class="edge">
<title>Node28&#45;&gt;Node3</title>
<g id="a_edge9_Node000028_Node000003"><a xlink:title=" ">
<path fill="none" stroke="#63b8ff" d="M388.13,-58.15C339.64,-47.08 266.75,-30.45 221.31,-20.08"/>
<polygon fill="#63b8ff" stroke="#63b8ff" points="222.11,-16.67 211.58,-17.86 220.55,-23.5 222.11,-16.67"/>
</a>
</g>
</g>
<!-- Node28&#45;&gt;Node23 -->
<g id="edge10_Node000028_Node000023" class="edge">
<title>Node28&#45;&gt;Node23</title>
<g id="a_edge10_Node000028_Node000023"><a xlink:title=" ">
<path fill="none" stroke="#63b8ff" d="M458.89,-54.95C471.58,-46.15 487.74,-34.96 500.65,-26.02"/>
<polygon fill="#63b8ff" stroke="#63b8ff" points="502.3,-29.13 508.53,-20.56 498.31,-23.38 502.3,-29.13"/>
</a>
</g>
</g>
<!-- Node34&#45;&gt;Node28 -->
<g id="edge12_Node000034_Node000028" class="edge">
<title>Node34&#45;&gt;Node28</title>
<g id="a_edge12_Node000034_Node000028"><a xlink:title=" ">
<path fill="none" stroke="#63b8ff" d="M365.21,-121.36C377.7,-112.79 393.7,-101.81 407.5,-92.34"/>
<polygon fill="#63b8ff" stroke="#63b8ff" points="409.12,-95.48 415.38,-86.93 405.16,-89.71 409.12,-95.48"/>
</a>
</g>
</g>
</g>
</svg>

<g id="navigator" transform="translate(0 0)" fill="#404254">
  <rect fill="#f2f5e9" fill-opacity="0.5" stroke="#606060" stroke-width=".5" x="0" y="0" width="60" height="60"/>
  <use id="zoomplus" xlink:href="#zoomPlus" x="17" y="9" onmousedown="handleZoom(evt,'in')"/>
  <use id="zoomminus" xlink:href="#zoomMin" x="42" y="9" onmousedown="handleZoom(evt,'out')"/>
  <use id="reset" xlink:href="#resetDef" x="30" y="36" onmousedown="handleReset()"/>
   <use id="arrowup" xlink:href="#arrowUp" x="0" y="0" onmousedown="handlePan(0,-1)"/>
  <use id="arrowright" xlink:href="#arrowRight" x="0" y="0" onmousedown="handlePan(1,0)"/>
  <use id="arrowdown" xlink:href="#arrowDown" x="0" y="0" onmousedown="handlePan(0,1)"/>
  <use id="arrowleft" xlink:href="#arrowLeft" x="0" y="0" onmousedown="handlePan(-1,0)"/>
</g>
<svg viewBox="0 0 15 15" width="100%" height="30px" preserveAspectRatio="xMaxYMin meet">
 <g id="arrow_out" transform="scale(0.3 0.3)">
  <a xlink:href="media__view__ctrl_8cpp__incl_org.svg" target="_base">
   <rect id="button" ry="5" rx="5" y="6" x="6" height="38" width="38"
        fill="#f2f5e9" fill-opacity="0.5" stroke="#606060" stroke-width="1.0"/>
   <path id="arrow"
     d="M 11.500037,31.436501 C 11.940474,20.09759 22.043105,11.32322 32.158766,21.979434 L 37.068811,17.246167 C 37.068811,17.246167 37.088388,32 37.088388,32 L 22.160133,31.978069 C 22.160133,31.978069 26.997745,27.140456 26.997745,27.140456 C 18.528582,18.264221 13.291696,25.230495 11.500037,31.436501 z"
     style="fill:#404040;"/>
  </a>
 </g>
</svg>

<style type='text/css'>
<![CDATA[
[data-mouse-over-selected='false'] { opacity: 0.7; }
[data-mouse-over-selected='true']  { opacity: 1.0; }
]]>
</style>
<script type="application/ecmascript"><![CDATA[
document.addEventListener('DOMContentLoaded', (event) => {
  highlightEdges();
  highlightAdjacentNodes();
});
]]></script>
</svg>
