<?xml version="1.0" encoding="UTF-8" standalone="no"?>
<!DOCTYPE svg PUBLIC "-//W3C//DTD SVG 1.1//EN"
 "http://www.w3.org/Graphics/SVG/1.1/DTD/svg11.dtd">
<!-- Generated by graphviz version 12.2.0 (20241103.1931)
 -->
<!-- Title: src/gui/desktop/quick_items/media_view_ctrl.cpp Pages: 1 -->
<svg width="944pt" height="160pt"
 viewBox="0.00 0.00 943.88 160.25" xmlns="http://www.w3.org/2000/svg" xmlns:xlink="http://www.w3.org/1999/xlink">
<g id="graph0" class="graph" transform="scale(1 1) rotate(0) translate(4 156.25)">
<title>src/gui/desktop/quick_items/media_view_ctrl.cpp</title>
<!-- Node1 -->
<g id="Node000001" class="node">
<title>Node1</title>
<g id="a_Node000001"><a xlink:title=" ">
<polygon fill="#999999" stroke="#666666" points="474,-152.25 337.25,-152.25 337.25,-121.75 474,-121.75 474,-152.25"/>
<text text-anchor="start" x="345.25" y="-138.75" font-family="Helvetica,sans-Serif" font-size="10.00">src/gui/desktop/quick</text>
<text text-anchor="middle" x="405.62" y="-127.5" font-family="Helvetica,sans-Serif" font-size="10.00">_items/media_view_ctrl.cpp</text>
</a>
</g>
</g>
<!-- Node2 -->
<g id="Node000002" class="node">
<title>Node2</title>
<g id="a_Node000002"><a xlink:title=" ">
<polygon fill="#e0e0e0" stroke="#999999" points="118.5,-19.25 68.75,-19.25 68.75,0 118.5,0 118.5,-19.25"/>
<text text-anchor="middle" x="93.62" y="-5.75" font-family="Helvetica,sans-Serif" font-size="10.00">optional</text>
</a>
</g>
</g>
<!-- Node1&#45;&gt;Node2 -->
<g id="edge1_Node000001_Node000002" class="edge">
<title>Node1&#45;&gt;Node2</title>
<g id="a_edge1_Node000001_Node000002"><a xlink:title=" ">
<path fill="none" stroke="#63b8ff" d="M336.77,-135.1C283.05,-131.53 208.44,-120.01 152.62,-85.75 130.39,-72.1 113.2,-46.85 103.25,-29.41"/>
<polygon fill="#63b8ff" stroke="#63b8ff" points="106.57,-28.2 98.73,-21.07 100.42,-31.53 106.57,-28.2"/>
</a>
</g>
</g>
<!-- Node3 -->
<g id="Node000003" class="node">
<title>Node3</title>
<g id="a_Node000003"><a xlink:title=" ">
<polygon fill="#e0e0e0" stroke="#999999" points="676.88,-19.25 638.38,-19.25 638.38,0 676.88,0 676.88,-19.25"/>
<text text-anchor="middle" x="657.62" y="-5.75" font-family="Helvetica,sans-Serif" font-size="10.00">utility</text>
</a>
</g>
</g>
<!-- Node1&#45;&gt;Node3 -->
<g id="edge2_Node000001_Node000003" class="edge">
<title>Node1&#45;&gt;Node3</title>
<g id="a_edge2_Node000001_Node000003"><a xlink:title=" ">
<path fill="none" stroke="#63b8ff" d="M474.1,-131.59C576.3,-124.31 758.92,-108.29 778.62,-85.75 808.51,-51.57 733.29,-27.78 688.36,-17.05"/>
<polygon fill="#63b8ff" stroke="#63b8ff" points="689.14,-13.64 678.61,-14.83 687.58,-20.47 689.14,-13.64"/>
</a>
</g>
</g>
<!-- Node4 -->
<g id="Node000004" class="node">
<title>Node4</title>
<g id="a_Node000004"><a xlink:title=" ">
<polygon fill="#e0e0e0" stroke="#999999" points="217.5,-80.12 161.75,-80.12 161.75,-60.88 217.5,-60.88 217.5,-80.12"/>
<text text-anchor="middle" x="189.62" y="-66.62" font-family="Helvetica,sans-Serif" font-size="10.00">QFileInfo</text>
</a>
</g>
</g>
<!-- Node1&#45;&gt;Node4 -->
<g id="edge3_Node000001_Node000004" class="edge">
<title>Node1&#45;&gt;Node4</title>
<g id="a_edge3_Node000001_Node000004"><a xlink:title=" ">
<path fill="none" stroke="#63b8ff" d="M352.51,-121.35C317.96,-111.64 271.97,-98.41 231.62,-85.75 229.86,-85.2 228.05,-84.62 226.23,-84.03"/>
<polygon fill="#63b8ff" stroke="#63b8ff" points="227.81,-80.87 217.21,-81.05 225.61,-87.51 227.81,-80.87"/>
</a>
</g>
</g>
<!-- Node5 -->
<g id="Node000005" class="node">
<title>Node5</title>
<g id="a_Node000005"><a xlink:title=" ">
<polygon fill="#e0e0e0" stroke="#999999" points="324.38,-19.25 258.88,-19.25 258.88,0 324.38,0 324.38,-19.25"/>
<text text-anchor="middle" x="291.62" y="-5.75" font-family="Helvetica,sans-Serif" font-size="10.00">QCoroTask</text>
</a>
</g>
</g>
<!-- Node1&#45;&gt;Node5 -->
<g id="edge4_Node000001_Node000005" class="edge">
<title>Node1&#45;&gt;Node5</title>
<g id="a_edge4_Node000001_Node000005"><a xlink:title=" ">
<path fill="none" stroke="#63b8ff" d="M336.8,-128.5C309.71,-121.79 281.17,-109.22 264.62,-85.75 252.32,-68.3 264.6,-44.66 276.33,-28.58"/>
<polygon fill="#63b8ff" stroke="#63b8ff" points="278.97,-30.89 282.4,-20.87 273.47,-26.56 278.97,-30.89"/>
</a>
</g>
</g>
<!-- Node6 -->
<g id="Node000006" class="node">
<title>Node6</title>
<g id="a_Node000006"><a xlink:href="../../df/d6f/iexif__reader_8hpp.html" target="_top" xlink:title=" ">
<polygon fill="#fff0f0" stroke="red" points="105.25,-80.12 0,-80.12 0,-60.88 105.25,-60.88 105.25,-80.12"/>
<text text-anchor="middle" x="52.62" y="-66.62" font-family="Helvetica,sans-Serif" font-size="10.00">core/iexif_reader.hpp</text>
</a>
</g>
</g>
<!-- Node1&#45;&gt;Node6 -->
<g id="edge5_Node000001_Node000006" class="edge">
<title>Node1&#45;&gt;Node6</title>
<g id="a_edge5_Node000001_Node000006"><a xlink:title=" ">
<path fill="none" stroke="#63b8ff" d="M337.02,-124.65C279.01,-114.89 193.74,-100.14 119.62,-85.75 115.03,-84.86 110.26,-83.9 105.48,-82.93"/>
<polygon fill="#63b8ff" stroke="#63b8ff" points="106.38,-79.54 95.88,-80.93 104.96,-86.39 106.38,-79.54"/>
</a>
</g>
</g>
<!-- Node18 -->
<g id="Node000018" class="node">
<title>Node18</title>
<g id="a_Node000018"><a xlink:href="../../db/ddc/media__types_8hpp.html" target="_top" xlink:title=" ">
<polygon fill="#fff0f0" stroke="red" points="529.88,-80.12 419.38,-80.12 419.38,-60.88 529.88,-60.88 529.88,-80.12"/>
<text text-anchor="middle" x="474.62" y="-66.62" font-family="Helvetica,sans-Serif" font-size="10.00">core/media_types.hpp</text>
</a>
</g>
</g>
<!-- Node1&#45;&gt;Node18 -->
<g id="edge7_Node000001_Node000018" class="edge">
<title>Node1&#45;&gt;Node18</title>
<g id="a_edge7_Node000001_Node000018"><a xlink:title=" ">
<path fill="none" stroke="#63b8ff" d="M421.28,-121.36C431.84,-111.49 445.8,-98.44 456.79,-88.17"/>
<polygon fill="#63b8ff" stroke="#63b8ff" points="459.17,-90.74 464.08,-81.36 454.39,-85.63 459.17,-90.74"/>
</a>
</g>
</g>
<!-- Node19 -->
<g id="Node000019" class="node">
<title>Node19</title>
<g id="a_Node000019"><a xlink:href="../../de/d18/task__executor__qcoro__utils_8hpp.html" target="_top" xlink:title=" ">
<polygon fill="#fff0f0" stroke="red" points="646.88,-85.75 548.38,-85.75 548.38,-55.25 646.88,-55.25 646.88,-85.75"/>
<text text-anchor="start" x="556.38" y="-72.25" font-family="Helvetica,sans-Serif" font-size="10.00">core/task_executor</text>
<text text-anchor="middle" x="597.62" y="-61" font-family="Helvetica,sans-Serif" font-size="10.00">_qcoro_utils.hpp</text>
</a>
</g>
</g>
<!-- Node1&#45;&gt;Node19 -->
<g id="edge8_Node000001_Node000019" class="edge">
<title>Node1&#45;&gt;Node19</title>
<g id="a_edge8_Node000001_Node000019"><a xlink:title=" ">
<path fill="none" stroke="#63b8ff" d="M449.19,-121.36C477.08,-112 513.48,-99.77 543.26,-89.76"/>
<polygon fill="#63b8ff" stroke="#63b8ff" points="544.1,-93.17 552.46,-86.67 541.87,-86.54 544.1,-93.17"/>
</a>
</g>
</g>
<!-- Node37 -->
<g id="Node000037" class="node">
<title>Node37</title>
<g id="a_Node000037"><a xlink:href="../../d1/d0d/database__qcoro__utils_8hpp.html" target="_top" xlink:title=" ">
<polygon fill="#fff0f0" stroke="red" points="401.5,-85.75 273.75,-85.75 273.75,-55.25 401.5,-55.25 401.5,-85.75"/>
<text text-anchor="start" x="281.75" y="-72.25" font-family="Helvetica,sans-Serif" font-size="10.00">database/database_qcoro</text>
<text text-anchor="middle" x="337.62" y="-61" font-family="Helvetica,sans-Serif" font-size="10.00">_utils.hpp</text>
</a>
</g>
</g>
<!-- Node1&#45;&gt;Node37 -->
<g id="edge10_Node000001_Node000037" class="edge">
<title>Node1&#45;&gt;Node37</title>
<g id="a_edge10_Node000001_Node000037"><a xlink:title=" ">
<path fill="none" stroke="#63b8ff" d="M390.19,-121.36C381.67,-113.28 370.91,-103.07 361.34,-94"/>
<polygon fill="#63b8ff" stroke="#63b8ff" points="363.76,-91.46 354.09,-87.12 358.94,-96.54 363.76,-91.46"/>
</a>
</g>
</g>
<!-- Node68 -->
<g id="Node000068" class="node">
<title>Node68</title>
<g id="a_Node000068"><a xlink:href="../../d9/d3b/media__view__ctrl_8hpp.html" target="_top" xlink:title=" ">
<polygon fill="#fff0f0" stroke="red" points="769.88,-80.12 665.38,-80.12 665.38,-60.88 769.88,-60.88 769.88,-80.12"/>
<text text-anchor="middle" x="717.62" y="-66.62" font-family="Helvetica,sans-Serif" font-size="10.00">media_view_ctrl.hpp</text>
</a>
</g>
</g>
<!-- Node1&#45;&gt;Node68 -->
<g id="edge13_Node000001_Node000068" class="edge">
<title>Node1&#45;&gt;Node68</title>
<g id="a_edge13_Node000001_Node000068"><a xlink:title=" ">
<path fill="none" stroke="#63b8ff" d="M474.44,-122.7C524.71,-112.85 594.49,-98.92 655.62,-85.75 659.64,-84.89 663.8,-83.97 667.97,-83.04"/>
<polygon fill="#63b8ff" stroke="#63b8ff" points="668.51,-86.51 677.49,-80.89 666.96,-79.68 668.51,-86.51"/>
</a>
</g>
</g>
<!-- Node74 -->
<g id="Node000074" class="node">
<title>Node74</title>
<g id="a_Node000074"><a xlink:href="../../df/dab/objects__accessor_8hpp.html" target="_top" xlink:title=" ">
<polygon fill="#fff0f0" stroke="red" points="935.88,-80.12 825.38,-80.12 825.38,-60.88 935.88,-60.88 935.88,-80.12"/>
<text text-anchor="middle" x="880.62" y="-66.62" font-family="Helvetica,sans-Serif" font-size="10.00">objects_accessor.hpp</text>
</a>
</g>
</g>
<!-- Node1&#45;&gt;Node74 -->
<g id="edge15_Node000001_Node000074" class="edge">
<title>Node1&#45;&gt;Node74</title>
<g id="a_edge15_Node000001_Node000074"><a xlink:title=" ">
<path fill="none" stroke="#63b8ff" d="M474.47,-129.19C555.42,-120.78 693.72,-105.19 811.62,-85.75 817.14,-84.84 822.89,-83.8 828.6,-82.71"/>
<polygon fill="#63b8ff" stroke="#63b8ff" points="828.88,-86.22 838.01,-80.85 827.52,-79.35 828.88,-86.22"/>
</a>
</g>
</g>
<!-- Node6&#45;&gt;Node2 -->
<g id="edge6_Node000006_Node000002" class="edge">
<title>Node6&#45;&gt;Node2</title>
<g id="a_edge6_Node000006_Node000002"><a xlink:title=" ">
<path fill="none" stroke="#63b8ff" d="M58.85,-60.56C64.69,-52.17 73.6,-39.38 80.94,-28.84"/>
<polygon fill="#63b8ff" stroke="#63b8ff" points="83.63,-31.1 86.47,-20.89 77.89,-27.1 83.63,-31.1"/>
</a>
</g>
</g>
<!-- Node19&#45;&gt;Node3 -->
<g id="edge9_Node000019_Node000003" class="edge">
<title>Node19&#45;&gt;Node3</title>
<g id="a_edge9_Node000019_Node000003"><a xlink:title=" ">
<path fill="none" stroke="#63b8ff" d="M612.46,-54.95C620.89,-46.67 631.49,-36.27 640.31,-27.62"/>
<polygon fill="#63b8ff" stroke="#63b8ff" points="642.61,-30.26 647.3,-20.76 637.71,-25.27 642.61,-30.26"/>
</a>
</g>
</g>
<!-- Node37&#45;&gt;Node3 -->
<g id="edge11_Node000037_Node000003" class="edge">
<title>Node37&#45;&gt;Node3</title>
<g id="a_edge11_Node000037_Node000003"><a xlink:title=" ">
<path fill="none" stroke="#63b8ff" d="M401.71,-56.94C404.72,-56.36 407.71,-55.8 410.62,-55.25 488.43,-40.63 580.21,-24.28 626.94,-16.03"/>
<polygon fill="#63b8ff" stroke="#63b8ff" points="627.35,-19.51 636.59,-14.32 626.13,-12.62 627.35,-19.51"/>
</a>
</g>
</g>
<!-- Node37&#45;&gt;Node5 -->
<g id="edge12_Node000037_Node000005" class="edge">
<title>Node37&#45;&gt;Node5</title>
<g id="a_edge12_Node000037_Node000005"><a xlink:title=" ">
<path fill="none" stroke="#63b8ff" d="M326.25,-54.95C320.06,-47.02 312.33,-37.13 305.76,-28.71"/>
<polygon fill="#63b8ff" stroke="#63b8ff" points="308.56,-26.62 299.65,-20.89 303.05,-30.93 308.56,-26.62"/>
</a>
</g>
</g>
<!-- Node68&#45;&gt;Node3 -->
<g id="edge14_Node000068_Node000003" class="edge">
<title>Node68&#45;&gt;Node3</title>
<g id="a_edge14_Node000068_Node000003"><a xlink:title=" ">
<path fill="none" stroke="#63b8ff" d="M708.51,-60.56C699.61,-51.83 685.85,-38.32 674.88,-27.55"/>
<polygon fill="#63b8ff" stroke="#63b8ff" points="677.49,-25.22 667.9,-20.71 672.59,-30.21 677.49,-25.22"/>
</a>
</g>
</g>
</g>
</svg>
