<?xml version="1.0" encoding="UTF-8" standalone="no"?>
<!DOCTYPE svg PUBLIC "-//W3C//DTD SVG 1.1//EN"
 "http://www.w3.org/Graphics/SVG/1.1/DTD/svg11.dtd">
<!-- Generated by graphviz version 7.0.5 (20221223.1930)
 -->
<!-- Title: src/core/json_serializer.hpp Pages: 1 -->
<svg width="500pt" height="82pt"
 viewBox="0.00 0.00 499.50 82.00" xmlns="http://www.w3.org/2000/svg" xmlns:xlink="http://www.w3.org/1999/xlink">
<g id="graph0" class="graph" transform="scale(1 1) rotate(0) translate(4 78)">
<title>src/core/json_serializer.hpp</title>
<!-- Node1 -->
<g id="node1" class="node">
<title>Node1</title>
<g id="a_node1"><a xlink:title=" ">
<polygon fill="#999999" stroke="#666666" points="292,-74 158,-74 158,-55 292,-55 292,-74"/>
<text text-anchor="middle" x="225" y="-62" font-family="Helvetica,sans-Serif" font-size="10.00">src/core/json_serializer.hpp</text>
</a>
</g>
</g>
<!-- Node2 -->
<g id="node2" class="node">
<title>Node2</title>
<g id="a_node2"><a xlink:title=" ">
<polygon fill="#e0e0e0" stroke="#999999" points="76,-19 0,-19 0,0 76,0 76,-19"/>
<text text-anchor="middle" x="38" y="-7" font-family="Helvetica,sans-Serif" font-size="10.00">QDataStream</text>
</a>
</g>
</g>
<!-- Node1&#45;&gt;Node2 -->
<g id="edge1" class="edge">
<title>Node1&#45;&gt;Node2</title>
<path fill="none" stroke="#63b8ff" d="M193.28,-54.51C162.16,-45.69 114.5,-32.18 80.2,-22.46"/>
<polygon fill="#63b8ff" stroke="#63b8ff" points="81.6,-19.22 71.02,-19.86 79.69,-25.95 81.6,-19.22"/>
</g>
<!-- Node3 -->
<g id="node3" class="node">
<title>Node3</title>
<g id="a_node3"><a xlink:title=" ">
<polygon fill="#e0e0e0" stroke="#999999" points="162,-19 94,-19 94,0 162,0 162,-19"/>
<text text-anchor="middle" x="128" y="-7" font-family="Helvetica,sans-Serif" font-size="10.00">QJsonArray</text>
</a>
</g>
</g>
<!-- Node1&#45;&gt;Node3 -->
<g id="edge2" class="edge">
<title>Node1&#45;&gt;Node3</title>
<path fill="none" stroke="#63b8ff" d="M208.55,-54.51C193.68,-46.39 171.56,-34.3 154.25,-24.85"/>
<polygon fill="#63b8ff" stroke="#63b8ff" points="155.99,-21.81 145.54,-20.08 152.64,-27.95 155.99,-21.81"/>
</g>
<!-- Node4 -->
<g id="node4" class="node">
<title>Node4</title>
<g id="a_node4"><a xlink:title=" ">
<polygon fill="#e0e0e0" stroke="#999999" points="269.5,-19 180.5,-19 180.5,0 269.5,0 269.5,-19"/>
<text text-anchor="middle" x="225" y="-7" font-family="Helvetica,sans-Serif" font-size="10.00">QJsonDocument</text>
</a>
</g>
</g>
<!-- Node1&#45;&gt;Node4 -->
<g id="edge3" class="edge">
<title>Node1&#45;&gt;Node4</title>
<path fill="none" stroke="#63b8ff" d="M225,-54.75C225,-48.27 225,-39.16 225,-30.9"/>
<polygon fill="#63b8ff" stroke="#63b8ff" points="228.5,-30.96 225,-20.96 221.5,-30.96 228.5,-30.96"/>
</g>
<!-- Node5 -->
<g id="node5" class="node">
<title>Node5</title>
<g id="a_node5"><a xlink:title=" ">
<polygon fill="#e0e0e0" stroke="#999999" points="362,-19 288,-19 288,0 362,0 362,-19"/>
<text text-anchor="middle" x="325" y="-7" font-family="Helvetica,sans-Serif" font-size="10.00">QJsonObject</text>
</a>
</g>
</g>
<!-- Node1&#45;&gt;Node5 -->
<g id="edge4" class="edge">
<title>Node1&#45;&gt;Node5</title>
<path fill="none" stroke="#63b8ff" d="M241.96,-54.51C257.36,-46.35 280.31,-34.19 298.19,-24.71"/>
<polygon fill="#63b8ff" stroke="#63b8ff" points="299.75,-27.84 306.95,-20.07 296.47,-21.66 299.75,-27.84"/>
</g>
<!-- Node6 -->
<g id="node6" class="node">
<title>Node6</title>
<g id="a_node6"><a xlink:href="../../db/dbd/generic__concepts_8hpp.html" target="_top" xlink:title=" ">
<polygon fill="white" stroke="#666666" points="491.5,-19 380.5,-19 380.5,0 491.5,0 491.5,-19"/>
<text text-anchor="middle" x="436" y="-7" font-family="Helvetica,sans-Serif" font-size="10.00">generic_concepts.hpp</text>
</a>
</g>
</g>
<!-- Node1&#45;&gt;Node6 -->
<g id="edge5" class="edge">
<title>Node1&#45;&gt;Node6</title>
<path fill="none" stroke="#63b8ff" d="M260.79,-54.51C296.21,-45.61 350.61,-31.95 389.39,-22.21"/>
<polygon fill="#63b8ff" stroke="#63b8ff" points="390.07,-25.65 398.92,-19.81 388.36,-18.86 390.07,-25.65"/>
</g>
</g>
</svg>
