<?xml version="1.0" encoding="UTF-8" standalone="no"?>
<!DOCTYPE svg PUBLIC "-//W3C//DTD SVG 1.1//EN"
 "http://www.w3.org/Graphics/SVG/1.1/DTD/svg11.dtd">
<!-- Generated by graphviz version 9.0.0 (20230911.1827)
 -->
<!-- Title: src/database/backends/sql_backends/sql_query_executor.cpp Pages: 1 -->
<!--zoomable 160 -->

<svg id="main" version="1.1" xmlns="http://www.w3.org/2000/svg" xmlns:xlink="http://www.w3.org/1999/xlink" xml:space="preserve" onload="init(evt)">
<style type="text/css"><![CDATA[
.node, .edge {opacity: 0.7;}
.node.selected, .edge.selected {opacity: 1;}
.edge:hover path { stroke: red; }
.edge:hover polygon { stroke: red; fill: red; }
]]></style>

<defs>
  <circle id="rim" cx="0" cy="0" r="7"/>
  <circle id="rim2" cx="0" cy="0" r="3.5"/>
  <g id="zoomPlus">
    <use xlink:href="#rim" fill="#404040"><set attributeName="fill" to="#808080" begin="zoomplus.mouseover" end="zoomplus.mouseout"/></use>
    <path d="M-4,0h8M0,-4v8" fill="none" stroke="white" stroke-width="1.5" pointer-events="none"/>
  </g>
  <g id="zoomMin">
    <use xlink:href="#rim" fill="#404040"><set attributeName="fill" to="#808080" begin="zoomminus.mouseover" end="zoomminus.mouseout"/></use>
    <path d="M-4,0h8" fill="none" stroke="white" stroke-width="1.5" pointer-events="none"/>
  </g>
  <g id="arrowUp" transform="translate(30 24)">
    <use xlink:href="#rim"/>
    <path pointer-events="none" fill="none" stroke="white" stroke-width="1.5" d="M0,-3.0v7 M-2.5,-0.5L0,-3.0L2.5,-0.5"/>
  </g>
  <g id="arrowRight" transform="rotate(90) translate(36 -43)">
    <use xlink:href="#rim"/>
    <path pointer-events="none" fill="none" stroke="white" stroke-width="1.5" d="M0,-3.0v7 M-2.5,-0.5L0,-3.0L2.5,-0.5"/>
  </g>
  <g id="arrowDown" transform="rotate(180) translate(-30 -48)">
    <use xlink:href="#rim"/>
    <path pointer-events="none" fill="none" stroke="white" stroke-width="1.5" d="M0,-3.0v7 M-2.5,-0.5L0,-3.0L2.5,-0.5"/>
  </g>
  <g id="arrowLeft" transform="rotate(270) translate(-36 17)">
    <use xlink:href="#rim"/>
    <path pointer-events="none" fill="none" stroke="white" stroke-width="1.5" d="M0,-3.0v7 M-2.5,-0.5L0,-3.0L2.5,-0.5"/>
  </g>
  <g id="resetDef">
    <use xlink:href="#rim2" fill="#404040"><set attributeName="fill" to="#808080" begin="reset.mouseover" end="reset.mouseout"/></use>
  </g>
</defs>
<script type="application/ecmascript">
var viewWidth = 766;
var viewHeight = 160;
var sectionId = 'dynsection-0';
</script>
<script type="application/ecmascript" xlink:href="../../svg.min.js"/>
<svg id="graph" class="graph">
<g id="viewport">
<title>src/database/backends/sql_backends/sql_query_executor.cpp</title>
<!-- Node1 -->
<g id="Node000001" class="node">
<title>Node1</title>
<g id="a_Node000001"><a xlink:title=" ">
<polygon fill="#999999" stroke="#666666" points="418.25,-152.25 295,-152.25 295,-110.5 418.25,-110.5 418.25,-152.25"/>
<text text-anchor="start" x="303" y="-138.75" font-family="Helvetica,sans-Serif" font-size="10.00">src/database/backends</text>
<text text-anchor="start" x="303" y="-127.5" font-family="Helvetica,sans-Serif" font-size="10.00">/sql_backends/sql_query</text>
<text text-anchor="middle" x="356.62" y="-116.25" font-family="Helvetica,sans-Serif" font-size="10.00">_executor.cpp</text>
</a>
</g>
</g>
<!-- Node2 -->
<g id="Node000002" class="node">
<title>Node2</title>
<g id="a_Node000002"><a xlink:href="../../d7/d95/sql__query__executor_8hpp.html" target="_top" xlink:title=" ">
<polygon fill="#fff0f0" stroke="red" points="117.25,-74.5 0,-74.5 0,-55.25 117.25,-55.25 117.25,-74.5"/>
<text text-anchor="middle" x="58.62" y="-61" font-family="Helvetica,sans-Serif" font-size="10.00">sql_query_executor.hpp</text>
</a>
</g>
</g>
<!-- Node1&#45;&gt;Node2 -->
<g id="edge1_Node000001_Node000002" class="edge">
<title>Node1&#45;&gt;Node2</title>
<g id="a_edge1_Node000001_Node000002"><a xlink:title=" ">
<path fill="none" stroke="#63b8ff" d="M294.52,-116.93C240.44,-105.23 162.89,-88.44 111.67,-77.36"/>
<polygon fill="#63b8ff" stroke="#63b8ff" points="112.52,-73.96 102,-75.26 111.03,-80.8 112.52,-73.96"/>
</a>
</g>
</g>
<!-- Node3 -->
<g id="Node000003" class="node">
<title>Node3</title>
<g id="a_Node000003"><a xlink:title=" ">
<polygon fill="#e0e0e0" stroke="#999999" points="124.12,-19.25 81.12,-19.25 81.12,0 124.12,0 124.12,-19.25"/>
<text text-anchor="middle" x="102.62" y="-5.75" font-family="Helvetica,sans-Serif" font-size="10.00">thread</text>
</a>
</g>
</g>
<!-- Node1&#45;&gt;Node3 -->
<g id="edge4_Node000001_Node000003" class="edge">
<title>Node1&#45;&gt;Node3</title>
<g id="a_edge4_Node000001_Node000003"><a xlink:title=" ">
<path fill="none" stroke="#63b8ff" d="M294.53,-120.74C255.22,-112.67 204.48,-98.49 164.62,-74.5 144.83,-62.59 127.01,-42.8 115.61,-28.41"/>
<polygon fill="#63b8ff" stroke="#63b8ff" points="118.56,-26.5 109.71,-20.67 112.99,-30.74 118.56,-26.5"/>
</a>
</g>
</g>
<!-- Node8 -->
<g id="Node000008" class="node">
<title>Node8</title>
<g id="a_Node000008"><a xlink:title=" ">
<polygon fill="#e0e0e0" stroke="#999999" points="221.75,-74.5 173.5,-74.5 173.5,-55.25 221.75,-55.25 221.75,-74.5"/>
<text text-anchor="middle" x="197.62" y="-61" font-family="Helvetica,sans-Serif" font-size="10.00">cassert</text>
</a>
</g>
</g>
<!-- Node1&#45;&gt;Node8 -->
<g id="edge3_Node000001_Node000008" class="edge">
<title>Node1&#45;&gt;Node8</title>
<g id="a_edge3_Node000001_Node000008"><a xlink:title=" ">
<path fill="none" stroke="#63b8ff" d="M306.75,-110.14C281.82,-100.03 252.35,-88.08 230.33,-79.14"/>
<polygon fill="#63b8ff" stroke="#63b8ff" points="231.84,-75.98 221.26,-75.46 229.21,-82.47 231.84,-75.98"/>
</a>
</g>
</g>
<!-- Node9 -->
<g id="Node000009" class="node">
<title>Node9</title>
<g id="a_Node000009"><a xlink:title=" ">
<polygon fill="#e0e0e0" stroke="#999999" points="281.75,-74.5 239.5,-74.5 239.5,-55.25 281.75,-55.25 281.75,-74.5"/>
<text text-anchor="middle" x="260.62" y="-61" font-family="Helvetica,sans-Serif" font-size="10.00">QMap</text>
</a>
</g>
</g>
<!-- Node1&#45;&gt;Node9 -->
<g id="edge5_Node000001_Node000009" class="edge">
<title>Node1&#45;&gt;Node9</title>
<g id="a_edge5_Node000001_Node000009"><a xlink:title=" ">
<path fill="none" stroke="#63b8ff" d="M326.51,-110.14C312.63,-100.82 296.41,-89.92 283.54,-81.27"/>
<polygon fill="#63b8ff" stroke="#63b8ff" points="285.56,-78.41 275.31,-75.74 281.65,-84.22 285.56,-78.41"/>
</a>
</g>
</g>
<!-- Node10 -->
<g id="Node000010" class="node">
<title>Node10</title>
<g id="a_Node000010"><a xlink:title=" ">
<polygon fill="#e0e0e0" stroke="#999999" points="670.12,-19.25 621.12,-19.25 621.12,0 670.12,0 670.12,-19.25"/>
<text text-anchor="middle" x="645.62" y="-5.75" font-family="Helvetica,sans-Serif" font-size="10.00">QString</text>
</a>
</g>
</g>
<!-- Node1&#45;&gt;Node10 -->
<g id="edge6_Node000001_Node000010" class="edge">
<title>Node1&#45;&gt;Node10</title>
<g id="a_edge6_Node000001_Node000010"><a xlink:title=" ">
<path fill="none" stroke="#63b8ff" d="M418.66,-124.88C488.71,-117.45 596.83,-101.86 626.62,-74.5 638.75,-63.36 643.27,-44.87 644.89,-30.64"/>
<polygon fill="#63b8ff" stroke="#63b8ff" points="648.35,-31.26 645.57,-21.03 641.37,-30.76 648.35,-31.26"/>
</a>
</g>
</g>
<!-- Node11 -->
<g id="Node000011" class="node">
<title>Node11</title>
<g id="a_Node000011"><a xlink:title=" ">
<polygon fill="#e0e0e0" stroke="#999999" points="388.25,-19.25 325,-19.25 325,0 388.25,0 388.25,-19.25"/>
<text text-anchor="middle" x="356.62" y="-5.75" font-family="Helvetica,sans-Serif" font-size="10.00">QSqlQuery</text>
</a>
</g>
</g>
<!-- Node1&#45;&gt;Node11 -->
<g id="edge7_Node000001_Node000011" class="edge">
<title>Node1&#45;&gt;Node11</title>
<g id="a_edge7_Node000001_Node000011"><a xlink:title=" ">
<path fill="none" stroke="#63b8ff" d="M341.66,-110.25C332.37,-95.28 323.16,-74.24 328.62,-55.25 331.37,-45.72 336.81,-36.25 342.18,-28.51"/>
<polygon fill="#63b8ff" stroke="#63b8ff" points="344.85,-30.77 348.04,-20.67 339.25,-26.58 344.85,-30.77"/>
</a>
</g>
</g>
<!-- Node12 -->
<g id="Node000012" class="node">
<title>Node12</title>
<g id="a_Node000012"><a xlink:title=" ">
<polygon fill="#e0e0e0" stroke="#999999" points="545.62,-74.5 487.62,-74.5 487.62,-55.25 545.62,-55.25 545.62,-74.5"/>
<text text-anchor="middle" x="516.62" y="-61" font-family="Helvetica,sans-Serif" font-size="10.00">QSqlError</text>
</a>
</g>
</g>
<!-- Node1&#45;&gt;Node12 -->
<g id="edge8_Node000001_Node000012" class="edge">
<title>Node1&#45;&gt;Node12</title>
<g id="a_edge8_Node000001_Node000012"><a xlink:title=" ">
<path fill="none" stroke="#63b8ff" d="M406.81,-110.14C431.9,-100.03 461.55,-88.08 483.72,-79.14"/>
<polygon fill="#63b8ff" stroke="#63b8ff" points="484.88,-82.45 492.85,-75.46 482.26,-75.95 484.88,-82.45"/>
</a>
</g>
</g>
<!-- Node13 -->
<g id="Node000013" class="node">
<title>Node13</title>
<g id="a_Node000013"><a xlink:title=" ">
<polygon fill="#e0e0e0" stroke="#999999" points="617.75,-74.5 563.5,-74.5 563.5,-55.25 617.75,-55.25 617.75,-74.5"/>
<text text-anchor="middle" x="590.62" y="-61" font-family="Helvetica,sans-Serif" font-size="10.00">QVariant</text>
</a>
</g>
</g>
<!-- Node1&#45;&gt;Node13 -->
<g id="edge9_Node000001_Node000013" class="edge">
<title>Node1&#45;&gt;Node13</title>
<g id="a_edge9_Node000001_Node000013"><a xlink:title=" ">
<path fill="none" stroke="#63b8ff" d="M418.72,-113.26C461.11,-101.57 515.95,-86.46 552.15,-76.48"/>
<polygon fill="#63b8ff" stroke="#63b8ff" points="553.04,-79.87 561.75,-73.83 551.18,-73.12 553.04,-79.87"/>
</a>
</g>
</g>
<!-- Node14 -->
<g id="Node000014" class="node">
<title>Node14</title>
<g id="a_Node000014"><a xlink:href="../../d7/dfc/ilogger_8hpp.html" target="_top" xlink:title=" ">
<polygon fill="#fff0f0" stroke="red" points="757.75,-74.5 673.5,-74.5 673.5,-55.25 757.75,-55.25 757.75,-74.5"/>
<text text-anchor="middle" x="715.62" y="-61" font-family="Helvetica,sans-Serif" font-size="10.00">core/ilogger.hpp</text>
</a>
</g>
</g>
<!-- Node1&#45;&gt;Node14 -->
<g id="edge10_Node000001_Node000014" class="edge">
<title>Node1&#45;&gt;Node14</title>
<g id="a_edge10_Node000001_Node000014"><a xlink:title=" ">
<path fill="none" stroke="#63b8ff" d="M418.75,-119.21C487.38,-106.88 596.77,-87.23 661.85,-75.54"/>
<polygon fill="#63b8ff" stroke="#63b8ff" points="662.37,-79 671.59,-73.79 661.13,-72.11 662.37,-79"/>
</a>
</g>
</g>
<!-- Node18 -->
<g id="Node000018" class="node">
<title>Node18</title>
<g id="a_Node000018"><a xlink:href="../../dc/d48/isql__query__constructor_8hpp.html" target="_top" xlink:title=" ">
<polygon fill="#fff0f0" stroke="red" points="469.38,-74.5 337.88,-74.5 337.88,-55.25 469.38,-55.25 469.38,-74.5"/>
<text text-anchor="middle" x="403.62" y="-61" font-family="Helvetica,sans-Serif" font-size="10.00">isql_query_constructor.hpp</text>
</a>
</g>
</g>
<!-- Node1&#45;&gt;Node18 -->
<g id="edge12_Node000001_Node000018" class="edge">
<title>Node1&#45;&gt;Node18</title>
<g id="a_edge12_Node000001_Node000018"><a xlink:title=" ">
<path fill="none" stroke="#63b8ff" d="M371.24,-110.32C377.37,-101.91 384.45,-92.2 390.42,-84"/>
<polygon fill="#63b8ff" stroke="#63b8ff" points="393.06,-86.31 396.12,-76.17 387.41,-82.19 393.06,-86.31"/>
</a>
</g>
</g>
<!-- Node2&#45;&gt;Node3 -->
<g id="edge2_Node000002_Node000003" class="edge">
<title>Node2&#45;&gt;Node3</title>
<g id="a_edge2_Node000002_Node000003"><a xlink:title=" ">
<path fill="none" stroke="#63b8ff" d="M65.89,-55.08C71.91,-47.8 80.64,-37.23 88.08,-28.23"/>
<polygon fill="#63b8ff" stroke="#63b8ff" points="90.57,-30.71 94.24,-20.78 85.17,-26.26 90.57,-30.71"/>
</a>
</g>
</g>
<!-- Node14&#45;&gt;Node10 -->
<g id="edge11_Node000014_Node000010" class="edge">
<title>Node14&#45;&gt;Node10</title>
<g id="a_edge11_Node000014_Node000010"><a xlink:title=" ">
<path fill="none" stroke="#63b8ff" d="M703.75,-54.84C693.53,-47.07 678.55,-35.67 666.36,-26.4"/>
<polygon fill="#63b8ff" stroke="#63b8ff" points="668.61,-23.71 658.53,-20.44 664.37,-29.28 668.61,-23.71"/>
</a>
</g>
</g>
<!-- Node18&#45;&gt;Node10 -->
<g id="edge13_Node000018_Node000010" class="edge">
<title>Node18&#45;&gt;Node10</title>
<g id="a_edge13_Node000018_Node000010"><a xlink:title=" ">
<path fill="none" stroke="#63b8ff" d="M444.95,-54.78C491.3,-44.58 565.72,-28.21 609.73,-18.52"/>
<polygon fill="#63b8ff" stroke="#63b8ff" points="610.26,-21.99 619.27,-16.42 608.76,-15.15 610.26,-21.99"/>
</a>
</g>
</g>
<!-- Node18&#45;&gt;Node11 -->
<g id="edge14_Node000018_Node000011" class="edge">
<title>Node18&#45;&gt;Node11</title>
<g id="a_edge14_Node000018_Node000011"><a xlink:title=" ">
<path fill="none" stroke="#63b8ff" d="M395.86,-55.08C389.44,-47.8 380.11,-37.23 372.16,-28.23"/>
<polygon fill="#63b8ff" stroke="#63b8ff" points="374.8,-25.93 365.56,-20.74 369.55,-30.56 374.8,-25.93"/>
</a>
</g>
</g>
</g>
</svg>

<g id="navigator" transform="translate(0 0)" fill="#404254">
  <rect fill="#f2f5e9" fill-opacity="0.5" stroke="#606060" stroke-width=".5" x="0" y="0" width="60" height="60"/>
  <use id="zoomplus" xlink:href="#zoomPlus" x="17" y="9" onmousedown="handleZoom(evt,'in')"/>
  <use id="zoomminus" xlink:href="#zoomMin" x="42" y="9" onmousedown="handleZoom(evt,'out')"/>
  <use id="reset" xlink:href="#resetDef" x="30" y="36" onmousedown="handleReset()"/>
   <use id="arrowup" xlink:href="#arrowUp" x="0" y="0" onmousedown="handlePan(0,-1)"/>
  <use id="arrowright" xlink:href="#arrowRight" x="0" y="0" onmousedown="handlePan(1,0)"/>
  <use id="arrowdown" xlink:href="#arrowDown" x="0" y="0" onmousedown="handlePan(0,1)"/>
  <use id="arrowleft" xlink:href="#arrowLeft" x="0" y="0" onmousedown="handlePan(-1,0)"/>
</g>
<svg viewBox="0 0 15 15" width="100%" height="30px" preserveAspectRatio="xMaxYMin meet">
 <g id="arrow_out" transform="scale(0.3 0.3)">
  <a xlink:href="sql__query__executor_8cpp__incl_org.svg" target="_base">
   <rect id="button" ry="5" rx="5" y="6" x="6" height="38" width="38"
        fill="#f2f5e9" fill-opacity="0.5" stroke="#606060" stroke-width="1.0"/>
   <path id="arrow"
     d="M 11.500037,31.436501 C 11.940474,20.09759 22.043105,11.32322 32.158766,21.979434 L 37.068811,17.246167 C 37.068811,17.246167 37.088388,32 37.088388,32 L 22.160133,31.978069 C 22.160133,31.978069 26.997745,27.140456 26.997745,27.140456 C 18.528582,18.264221 13.291696,25.230495 11.500037,31.436501 z"
     style="fill:#404040;"/>
  </a>
 </g>
</svg>

<style type='text/css'>
<![CDATA[
[data-mouse-over-selected='false'] { opacity: 0.7; }
[data-mouse-over-selected='true']  { opacity: 1.0; }
]]>
</style>
<script type="application/ecmascript"><![CDATA[
document.addEventListener('DOMContentLoaded', (event) => {
  highlightEdges();
  highlightAdjacentNodes();
});
]]></script>
</svg>
