<?xml version="1.0" encoding="UTF-8" standalone="no"?>
<!DOCTYPE svg PUBLIC "-//W3C//DTD SVG 1.1//EN"
 "http://www.w3.org/Graphics/SVG/1.1/DTD/svg11.dtd">
<!-- Generated by graphviz version 7.0.5 (20221223.1930)
 -->
<!-- Title: src/gui/desktop/utils/people_manipulator.cpp Pages: 1 -->
<svg width="1000pt" height="170pt"
 viewBox="0.00 0.00 999.50 170.00" xmlns="http://www.w3.org/2000/svg" xmlns:xlink="http://www.w3.org/1999/xlink">
<g id="graph0" class="graph" transform="scale(1 1) rotate(0) translate(4 166)">
<title>src/gui/desktop/utils/people_manipulator.cpp</title>
<!-- Node1 -->
<g id="node1" class="node">
<title>Node1</title>
<g id="a_node1"><a xlink:title=" ">
<polygon fill="#999999" stroke="#666666" points="581.5,-162 459.5,-162 459.5,-132 581.5,-132 581.5,-162"/>
<text text-anchor="start" x="467.5" y="-150" font-family="Helvetica,sans-Serif" font-size="10.00">src/gui/desktop/utils</text>
<text text-anchor="middle" x="520.5" y="-139" font-family="Helvetica,sans-Serif" font-size="10.00">/people_manipulator.cpp</text>
</a>
</g>
</g>
<!-- Node2 -->
<g id="node2" class="node">
<title>Node2</title>
<g id="a_node2"><a xlink:href="../../d5/d1e/people__manipulator_8hpp.html" target="_top" xlink:title=" ">
<polygon fill="#fff0f0" stroke="red" points="119,-90.5 0,-90.5 0,-71.5 119,-71.5 119,-90.5"/>
<text text-anchor="middle" x="59.5" y="-78.5" font-family="Helvetica,sans-Serif" font-size="10.00">people_manipulator.hpp</text>
</a>
</g>
</g>
<!-- Node1&#45;&gt;Node2 -->
<g id="edge1" class="edge">
<title>Node1&#45;&gt;Node2</title>
<path fill="none" stroke="#63b8ff" d="M459.19,-139.59C381.86,-131.18 244.93,-115.21 128.5,-96 123.2,-95.13 117.69,-94.14 112.19,-93.1"/>
<polygon fill="#63b8ff" stroke="#63b8ff" points="112.97,-89.69 102.49,-91.22 111.64,-96.56 112.97,-89.69"/>
</g>
<!-- Node51 -->
<g id="node3" class="node">
<title>Node51</title>
<g id="a_node3"><a xlink:title=" ">
<polygon fill="#e0e0e0" stroke="#999999" points="193.5,-90.5 137.5,-90.5 137.5,-71.5 193.5,-71.5 193.5,-90.5"/>
<text text-anchor="middle" x="165.5" y="-78.5" font-family="Helvetica,sans-Serif" font-size="10.00">QFileInfo</text>
</a>
</g>
</g>
<!-- Node1&#45;&gt;Node51 -->
<g id="edge2" class="edge">
<title>Node1&#45;&gt;Node51</title>
<path fill="none" stroke="#63b8ff" d="M459.29,-139.96C394.91,-132.77 290.98,-118.78 203.5,-96 201.76,-95.55 199.99,-95.04 198.2,-94.51"/>
<polygon fill="#63b8ff" stroke="#63b8ff" points="199.4,-91.22 188.81,-91.37 197.18,-97.85 199.4,-91.22"/>
</g>
<!-- Node52 -->
<g id="node4" class="node">
<title>Node52</title>
<g id="a_node4"><a xlink:href="../../de/d87/containers__utils_8hpp.html" target="_top" xlink:title=" ">
<polygon fill="#fff0f0" stroke="red" points="337,-90.5 212,-90.5 212,-71.5 337,-71.5 337,-90.5"/>
<text text-anchor="middle" x="274.5" y="-78.5" font-family="Helvetica,sans-Serif" font-size="10.00">core/containers_utils.hpp</text>
</a>
</g>
</g>
<!-- Node1&#45;&gt;Node52 -->
<g id="edge3" class="edge">
<title>Node1&#45;&gt;Node52</title>
<path fill="none" stroke="#63b8ff" d="M464.99,-131.56C421.2,-120.17 360.9,-104.48 319.96,-93.83"/>
<polygon fill="#63b8ff" stroke="#63b8ff" points="320.97,-90.47 310.42,-91.34 319.21,-97.25 320.97,-90.47"/>
</g>
<!-- Node55 -->
<g id="node5" class="node">
<title>Node55</title>
<g id="a_node5"><a xlink:href="../../d6/d1f/icore__factory__accessor_8hpp.html" target="_top" xlink:title=" ">
<polygon fill="white" stroke="#666666" points="449.5,-96 355.5,-96 355.5,-66 449.5,-66 449.5,-96"/>
<text text-anchor="start" x="363.5" y="-84" font-family="Helvetica,sans-Serif" font-size="10.00">core/icore_factory</text>
<text text-anchor="middle" x="402.5" y="-73" font-family="Helvetica,sans-Serif" font-size="10.00">_accessor.hpp</text>
</a>
</g>
</g>
<!-- Node1&#45;&gt;Node55 -->
<g id="edge4" class="edge">
<title>Node1&#45;&gt;Node55</title>
<path fill="none" stroke="#63b8ff" d="M494.02,-131.64C477.77,-122.83 456.74,-111.42 438.94,-101.77"/>
<polygon fill="#63b8ff" stroke="#63b8ff" points="440.68,-98.73 430.22,-97.04 437.35,-104.88 440.68,-98.73"/>
</g>
<!-- Node56 -->
<g id="node6" class="node">
<title>Node56</title>
<g id="a_node6"><a xlink:href="../../df/d6f/iexif__reader_8hpp.html" target="_top" xlink:title=" ">
<polygon fill="#fff0f0" stroke="red" points="573.5,-90.5 467.5,-90.5 467.5,-71.5 573.5,-71.5 573.5,-90.5"/>
<text text-anchor="middle" x="520.5" y="-78.5" font-family="Helvetica,sans-Serif" font-size="10.00">core/iexif_reader.hpp</text>
</a>
</g>
</g>
<!-- Node1&#45;&gt;Node56 -->
<g id="edge5" class="edge">
<title>Node1&#45;&gt;Node56</title>
<path fill="none" stroke="#63b8ff" d="M520.5,-131.8C520.5,-123.09 520.5,-111.81 520.5,-102.18"/>
<polygon fill="#63b8ff" stroke="#63b8ff" points="524,-102.36 520.5,-92.36 517,-102.36 524,-102.36"/>
</g>
<!-- Node57 -->
<g id="node7" class="node">
<title>Node57</title>
<g id="a_node7"><a xlink:href="../../d4/d20/task__executor__utils_8hpp.html" target="_top" xlink:title=" ">
<polygon fill="#fff0f0" stroke="red" points="746,-30 647,-30 647,0 746,0 746,-30"/>
<text text-anchor="start" x="655" y="-18" font-family="Helvetica,sans-Serif" font-size="10.00">core/task_executor</text>
<text text-anchor="middle" x="696.5" y="-7" font-family="Helvetica,sans-Serif" font-size="10.00">_utils.hpp</text>
</a>
</g>
</g>
<!-- Node1&#45;&gt;Node57 -->
<g id="edge6" class="edge">
<title>Node1&#45;&gt;Node57</title>
<path fill="none" stroke="#63b8ff" d="M538.25,-131.65C564.71,-110.29 612.27,-71.98 620.5,-66 634.48,-55.84 650.4,-45.23 664.04,-36.41"/>
<polygon fill="#63b8ff" stroke="#63b8ff" points="665.71,-39.5 672.24,-31.15 661.93,-33.61 665.71,-39.5"/>
</g>
<!-- Node43 -->
<g id="node8" class="node">
<title>Node43</title>
<g id="a_node8"><a xlink:href="../../da/d2a/ibackend_8hpp.html" target="_top" xlink:title=" ">
<polygon fill="#fff0f0" stroke="red" points="703.5,-90.5 629.5,-90.5 629.5,-71.5 703.5,-71.5 703.5,-90.5"/>
<text text-anchor="middle" x="666.5" y="-78.5" font-family="Helvetica,sans-Serif" font-size="10.00">ibackend.hpp</text>
</a>
</g>
</g>
<!-- Node1&#45;&gt;Node43 -->
<g id="edge7" class="edge">
<title>Node1&#45;&gt;Node43</title>
<path fill="none" stroke="#63b8ff" d="M553.27,-131.64C577.91,-120.83 611.45,-106.13 635.62,-95.54"/>
<polygon fill="#63b8ff" stroke="#63b8ff" points="636.86,-98.81 644.61,-91.59 634.05,-92.4 636.86,-98.81"/>
</g>
<!-- Node64 -->
<g id="node9" class="node">
<title>Node64</title>
<g id="a_node9"><a xlink:href="../../dc/de9/database__executor__traits_8hpp.html" target="_top" xlink:title=" ">
<polygon fill="#fff0f0" stroke="red" points="863,-96 722,-96 722,-66 863,-66 863,-96"/>
<text text-anchor="start" x="730" y="-84" font-family="Helvetica,sans-Serif" font-size="10.00">database/database_executor</text>
<text text-anchor="middle" x="792.5" y="-73" font-family="Helvetica,sans-Serif" font-size="10.00">_traits.hpp</text>
</a>
</g>
</g>
<!-- Node1&#45;&gt;Node64 -->
<g id="edge8" class="edge">
<title>Node1&#45;&gt;Node64</title>
<path fill="none" stroke="#63b8ff" d="M581.88,-131.56C622.96,-121.89 677.2,-109.13 720.34,-98.98"/>
<polygon fill="#63b8ff" stroke="#63b8ff" points="720.94,-102.43 729.87,-96.74 719.33,-95.62 720.94,-102.43"/>
</g>
<!-- Node65 -->
<g id="node10" class="node">
<title>Node65</title>
<g id="a_node10"><a xlink:href="../../dd/d86/face__recognition_8hpp.html" target="_top" xlink:title=" ">
<polygon fill="#fff0f0" stroke="red" points="991.5,-96 881.5,-96 881.5,-66 991.5,-66 991.5,-96"/>
<text text-anchor="start" x="889.5" y="-84" font-family="Helvetica,sans-Serif" font-size="10.00">face_recognition/face</text>
<text text-anchor="middle" x="936.5" y="-73" font-family="Helvetica,sans-Serif" font-size="10.00">_recognition.hpp</text>
</a>
</g>
</g>
<!-- Node1&#45;&gt;Node65 -->
<g id="edge10" class="edge">
<title>Node1&#45;&gt;Node65</title>
<path fill="none" stroke="#63b8ff" d="M581.77,-138.7C649.76,-130.28 762.98,-115.34 869.74,-96.42"/>
<polygon fill="#63b8ff" stroke="#63b8ff" points="870.33,-99.87 879.56,-94.66 869.1,-92.98 870.33,-99.87"/>
</g>
<!-- Node64&#45;&gt;Node57 -->
<g id="edge9" class="edge">
<title>Node64&#45;&gt;Node57</title>
<path fill="none" stroke="#63b8ff" d="M771.19,-65.8C758.36,-57.24 741.79,-46.19 727.52,-36.68"/>
<polygon fill="#63b8ff" stroke="#63b8ff" points="729.6,-33.86 719.34,-31.22 725.72,-39.68 729.6,-33.86"/>
</g>
</g>
</svg>
