<?xml version="1.0" encoding="UTF-8" standalone="no"?>
<!DOCTYPE svg PUBLIC "-//W3C//DTD SVG 1.1//EN"
 "http://www.w3.org/Graphics/SVG/1.1/DTD/svg11.dtd">
<!-- Generated by graphviz version 7.0.5 (20221223.1930)
 -->
<!-- Title: src/database/implementation/ibackend_qt_interface.hpp Pages: 1 -->
<svg width="196pt" height="93pt"
 viewBox="0.00 0.00 195.50 93.00" xmlns="http://www.w3.org/2000/svg" xmlns:xlink="http://www.w3.org/1999/xlink">
<g id="graph0" class="graph" transform="scale(1 1) rotate(0) translate(4 89)">
<title>src/database/implementation/ibackend_qt_interface.hpp</title>
<!-- Node1 -->
<g id="node1" class="node">
<title>Node1</title>
<g id="a_node1"><a xlink:title=" ">
<polygon fill="#999999" stroke="#666666" points="149,-85 7,-85 7,-55 149,-55 149,-85"/>
<text text-anchor="start" x="15" y="-73" font-family="Helvetica,sans-Serif" font-size="10.00">src/database/implementation</text>
<text text-anchor="middle" x="78" y="-62" font-family="Helvetica,sans-Serif" font-size="10.00">/ibackend_qt_interface.hpp</text>
</a>
</g>
</g>
<!-- Node2 -->
<g id="node2" class="node">
<title>Node2</title>
<g id="a_node2"><a xlink:title=" ">
<polygon fill="#e0e0e0" stroke="#999999" points="54,-19 0,-19 0,0 54,0 54,-19"/>
<text text-anchor="middle" x="27" y="-7" font-family="Helvetica,sans-Serif" font-size="10.00">QtPlugin</text>
</a>
</g>
</g>
<!-- Node1&#45;&gt;Node2 -->
<g id="edge1" class="edge">
<title>Node1&#45;&gt;Node2</title>
<path fill="none" stroke="#63b8ff" d="M65.39,-54.54C58.29,-46.39 49.37,-36.16 41.92,-27.61"/>
<polygon fill="#63b8ff" stroke="#63b8ff" points="44.77,-25.55 35.56,-20.32 39.49,-30.15 44.77,-25.55"/>
</g>
<!-- Node3 -->
<g id="node3" class="node">
<title>Node3</title>
<g id="a_node3"><a xlink:href="../../da/d21/idatabase__plugin_8hpp.html" target="_top" xlink:title=" ">
<polygon fill="#fff0f0" stroke="red" points="187.5,-19 72.5,-19 72.5,0 187.5,0 187.5,-19"/>
<text text-anchor="middle" x="130" y="-7" font-family="Helvetica,sans-Serif" font-size="10.00">../idatabase_plugin.hpp</text>
</a>
</g>
</g>
<!-- Node1&#45;&gt;Node3 -->
<g id="edge2" class="edge">
<title>Node1&#45;&gt;Node3</title>
<path fill="none" stroke="#63b8ff" d="M90.85,-54.54C98.1,-46.39 107.19,-36.16 114.79,-27.61"/>
<polygon fill="#63b8ff" stroke="#63b8ff" points="117.26,-30.11 121.28,-20.31 112.02,-25.46 117.26,-30.11"/>
</g>
</g>
</svg>
