<?xml version="1.0" encoding="UTF-8" standalone="no"?>
<!DOCTYPE svg PUBLIC "-//W3C//DTD SVG 1.1//EN"
 "http://www.w3.org/Graphics/SVG/1.1/DTD/svg11.dtd">
<!-- Generated by graphviz version 12.2.0 (20241103.1931)
 -->
<!-- Title: IExifReader::get Pages: 1 -->
<svg width="276pt" height="296pt"
 viewBox="0.00 0.00 275.50 295.50" xmlns="http://www.w3.org/2000/svg" xmlns:xlink="http://www.w3.org/1999/xlink">

<svg id="main" version="1.1" xmlns="http://www.w3.org/2000/svg" xmlns:xlink="http://www.w3.org/1999/xlink" xml:space="preserve">

<style type="text/css"><![CDATA[
.node, .edge {opacity: 0.7;}
.node.selected, .edge.selected {opacity: 1;}
.edge:hover path { stroke: red; }
.edge:hover polygon { stroke: red; fill: red; }
]]></style>
<script type="application/ecmascript" xlink:href="../../svg.min.js"/>
<svg id="graph" class="graph">
<g id="graph0" class="graph" transform="scale(1 1) rotate(0) translate(4 291.5)">
<title>IExifReader::get</title>
<!-- Node1 -->
<g id="Node000001" class="node">
<title>Node1</title>
<g id="a_Node000001"><a xlink:title=" ">
<polygon fill="#999999" stroke="#666666" points="267.5,-161.88 184,-161.88 184,-142.62 267.5,-142.62 267.5,-161.88"/>
<text text-anchor="middle" x="225.75" y="-148.38" font-family="Helvetica,sans-Serif" font-size="10.00">IExifReader::get</text>
</a>
</g>
</g>
<!-- Node2 -->
<g id="Node000002" class="node">
<title>Node2</title>
<g id="a_Node000002"><a xlink:href="../../de/d2a/class_image_media_information.html#af34ec756e2754554b1692b713a432b19" target="_top" xlink:title=" ">
<polygon fill="#fff0f0" stroke="red" points="133,-287.5 15,-287.5 15,-257 133,-257 133,-287.5"/>
<text text-anchor="start" x="23" y="-274" font-family="Helvetica,sans-Serif" font-size="10.00">ImageMediaInformation</text>
<text text-anchor="middle" x="74" y="-262.75" font-family="Helvetica,sans-Serif" font-size="10.00">::creationTime</text>
</a>
</g>
</g>
<!-- Node1&#45;&gt;Node2 -->
<g id="edge1_Node000001_Node000002" class="edge">
<title>Node1&#45;&gt;Node2</title>
<g id="a_edge1_Node000001_Node000002"><a xlink:title=" ">
<path fill="none" stroke="#63b8ff" d="M213.64,-171.75C200.54,-193.13 176.83,-227.07 148,-247.25 142.95,-250.78 137.36,-253.85 131.58,-256.51"/>
<polygon fill="#63b8ff" stroke="#63b8ff" points="216.5,-173.81 218.58,-163.42 210.47,-170.24 216.5,-173.81"/>
</a>
</g>
</g>
<!-- Node4 -->
<g id="Node000004" class="node">
<title>Node4</title>
<g id="a_Node000004"><a xlink:href="../../d0/d4e/class_photos_grouping_dialog.html#a5602e18dab61025c041f53bbe3e59254" target="_top" xlink:title=" ">
<polygon fill="#fff0f0" stroke="red" points="130.38,-238.5 17.62,-238.5 17.62,-208 130.38,-208 130.38,-238.5"/>
<text text-anchor="start" x="25.62" y="-225" font-family="Helvetica,sans-Serif" font-size="10.00">PhotosGroupingDialog</text>
<text text-anchor="middle" x="74" y="-213.75" font-family="Helvetica,sans-Serif" font-size="10.00">::fillModel</text>
</a>
</g>
</g>
<!-- Node1&#45;&gt;Node4 -->
<g id="edge2_Node000001_Node000004" class="edge">
<title>Node1&#45;&gt;Node4</title>
<g id="a_edge2_Node000001_Node000004"><a xlink:title=" ">
<path fill="none" stroke="#63b8ff" d="M200.86,-168.35C186.06,-177.86 166.43,-189.69 148,-198.25 140.83,-201.58 133.09,-204.7 125.42,-207.54"/>
<polygon fill="#63b8ff" stroke="#63b8ff" points="202.54,-171.43 208.99,-163.03 198.71,-165.58 202.54,-171.43"/>
</a>
</g>
</g>
<!-- Node6 -->
<g id="Node000006" class="node">
<title>Node6</title>
<g id="a_Node000006"><a xlink:href="../../d8/de9/class_video_media_information.html#aff55ed26988978d5c685119f7ecda2ca" target="_top" xlink:title=" ">
<polygon fill="#fff0f0" stroke="red" points="131.88,-189.5 16.12,-189.5 16.12,-159 131.88,-159 131.88,-189.5"/>
<text text-anchor="start" x="24.12" y="-176" font-family="Helvetica,sans-Serif" font-size="10.00">VideoMediaInformation</text>
<text text-anchor="middle" x="74" y="-164.75" font-family="Helvetica,sans-Serif" font-size="10.00">::getInformation</text>
</a>
</g>
</g>
<!-- Node1&#45;&gt;Node6 -->
<g id="edge3_Node000001_Node000006" class="edge">
<title>Node1&#45;&gt;Node6</title>
<g id="a_edge3_Node000001_Node000006"><a xlink:title=" ">
<path fill="none" stroke="#63b8ff" d="M172.64,-159.9C159.56,-161.83 145.46,-163.9 132.15,-165.85"/>
<polygon fill="#63b8ff" stroke="#63b8ff" points="172.95,-163.4 182.33,-158.48 171.93,-156.47 172.95,-163.4"/>
</a>
</g>
</g>
<!-- Node10 -->
<g id="Node000010" class="node">
<title>Node10</title>
<g id="a_Node000010"><a xlink:href="../../d5/db6/class_oriented_image.html#a7cb9dd0d57c97147d926c30500eef590" target="_top" xlink:title=" ">
<polygon fill="white" stroke="#666666" points="148,-140.88 0,-140.88 0,-121.62 148,-121.62 148,-140.88"/>
<text text-anchor="middle" x="74" y="-127.38" font-family="Helvetica,sans-Serif" font-size="10.00">OrientedImage::OrientedImage</text>
</a>
</g>
</g>
<!-- Node1&#45;&gt;Node10 -->
<g id="edge4_Node000001_Node000010" class="edge">
<title>Node1&#45;&gt;Node10</title>
<g id="a_edge4_Node000001_Node000010"><a xlink:title=" ">
<path fill="none" stroke="#63b8ff" d="M172.48,-144.92C164.23,-143.76 155.57,-142.55 146.97,-141.34"/>
<polygon fill="#63b8ff" stroke="#63b8ff" points="171.94,-148.38 182.33,-146.3 172.91,-141.45 171.94,-148.38"/>
</a>
</g>
</g>
<!-- Node11 -->
<g id="Node000011" class="node">
<title>Node11</title>
<g id="a_Node000011"><a xlink:href="../../d3/d07/class_media_view_ctrl.html#aa24ae0b96b7ddfdd731a382f759d429f" target="_top" xlink:title=" ">
<polygon fill="#fff0f0" stroke="red" points="132.62,-85.88 15.38,-85.88 15.38,-66.62 132.62,-66.62 132.62,-85.88"/>
<text text-anchor="middle" x="74" y="-72.38" font-family="Helvetica,sans-Serif" font-size="10.00">MediaViewCtrl::setPath</text>
</a>
</g>
</g>
<!-- Node1&#45;&gt;Node11 -->
<g id="edge5_Node000001_Node000011" class="edge">
<title>Node1&#45;&gt;Node11</title>
<g id="a_edge5_Node000001_Node000011"><a xlink:title=" ">
<path fill="none" stroke="#63b8ff" d="M196.07,-137.11C181.68,-129.56 163.96,-120.34 148,-112.25 130.48,-103.37 110.47,-93.52 95.83,-86.37"/>
<polygon fill="#63b8ff" stroke="#63b8ff" points="194.07,-140.01 204.55,-141.57 197.32,-133.81 194.07,-140.01"/>
</a>
</g>
</g>
<!-- Node13 -->
<g id="Node000013" class="node">
<title>Node13</title>
<g id="a_Node000013"><a xlink:href="../../de/d2a/class_image_media_information.html#ae1f3ce6893b7b33d7c30449e0c481301" target="_top" xlink:title=" ">
<polygon fill="#fff0f0" stroke="red" points="133,-30.5 15,-30.5 15,0 133,0 133,-30.5"/>
<text text-anchor="start" x="23" y="-17" font-family="Helvetica,sans-Serif" font-size="10.00">ImageMediaInformation</text>
<text text-anchor="middle" x="74" y="-5.75" font-family="Helvetica,sans-Serif" font-size="10.00">::size</text>
</a>
</g>
</g>
<!-- Node1&#45;&gt;Node13 -->
<g id="edge7_Node000001_Node000013" class="edge">
<title>Node1&#45;&gt;Node13</title>
<g id="a_edge7_Node000001_Node000013"><a xlink:title=" ">
<path fill="none" stroke="#63b8ff" d="M212.26,-132.82C198.36,-112.27 174.37,-79.76 148,-57.25 135.99,-47 121.12,-37.92 107.94,-30.85"/>
<polygon fill="#63b8ff" stroke="#63b8ff" points="209.29,-134.69 217.73,-141.1 215.13,-130.83 209.29,-134.69"/>
</a>
</g>
</g>
<!-- Node11&#45;&gt;Node11 -->
<g id="edge6_Node000011_Node000011" class="edge">
<title>Node11&#45;&gt;Node11</title>
<g id="a_edge6_Node000011_Node000011"><a xlink:title=" ">
<path fill="none" stroke="#63b8ff" d="M101.21,-96.94C98.07,-100.99 89,-103.88 74,-103.88 47.33,-103.88 39.41,-94.77 50.24,-86.16"/>
<polygon fill="#63b8ff" stroke="#63b8ff" points="104.6,-96.06 98.22,-87.6 97.94,-98.2 104.6,-96.06"/>
</a>
</g>
</g>
<!-- Node13&#45;&gt;Node13 -->
<g id="edge8_Node000013_Node000013" class="edge">
<title>Node13&#45;&gt;Node13</title>
<g id="a_edge8_Node000013_Node000013"><a xlink:title=" ">
<path fill="none" stroke="#63b8ff" d="M99.45,-42.2C95.29,-45.97 86.8,-48.5 74,-48.5 50.59,-48.5 41.62,-40.06 47.11,-30.99"/>
<polygon fill="#63b8ff" stroke="#63b8ff" points="102.89,-42.85 100.7,-32.49 95.95,-41.96 102.89,-42.85"/>
</a>
</g>
</g>
</g>
</svg>
</svg>

<style type='text/css'>
<![CDATA[
[data-mouse-over-selected='false'] { opacity: 0.7; }
[data-mouse-over-selected='true']  { opacity: 1.0; }
]]>
</style>
<script type="application/ecmascript"><![CDATA[
document.addEventListener('DOMContentLoaded', (event) => {
  highlightEdges();
  highlightAdjacentNodes();
});
]]></script>
</svg>
