<?xml version="1.0" encoding="UTF-8" standalone="no"?>
<!DOCTYPE svg PUBLIC "-//W3C//DTD SVG 1.1//EN"
 "http://www.w3.org/Graphics/SVG/1.1/DTD/svg11.dtd">
<!-- Generated by graphviz version 9.0.0 (20230911.1827)
 -->
<!-- Title: IExifReader::get Pages: 1 -->
<svg width="276pt" height="247pt"
 viewBox="0.00 0.00 275.50 246.50" xmlns="http://www.w3.org/2000/svg" xmlns:xlink="http://www.w3.org/1999/xlink">

<svg id="main" version="1.1" xmlns="http://www.w3.org/2000/svg" xmlns:xlink="http://www.w3.org/1999/xlink" xml:space="preserve" onload="init(evt)">
<style type="text/css"><![CDATA[
.node, .edge {opacity: 0.7;}
.node.selected, .edge.selected {opacity: 1;}
.edge:hover path { stroke: red; }
.edge:hover polygon { stroke: red; fill: red; }
]]></style>
<script type="application/ecmascript" xlink:href="../../svg.min.js"/>
<svg id="graph" class="graph">
<g id="graph0" class="graph" transform="scale(1 1) rotate(0) translate(4 242.5)">
<title>IExifReader::get</title>
<!-- Node1 -->
<g id="Node000001" class="node">
<title>Node1</title>
<g id="a_Node000001"><a xlink:title=" ">
<polygon fill="#999999" stroke="#666666" points="267.5,-140.88 184,-140.88 184,-121.62 267.5,-121.62 267.5,-140.88"/>
<text text-anchor="middle" x="225.75" y="-127.38" font-family="Helvetica,sans-Serif" font-size="10.00">IExifReader::get</text>
</a>
</g>
</g>
<!-- Node2 -->
<g id="Node000002" class="node">
<title>Node2</title>
<g id="a_Node000002"><a xlink:href="../../de/d2a/class_image_media_information.html#af34ec756e2754554b1692b713a432b19" target="_top" xlink:title=" ">
<polygon fill="#fff0f0" stroke="red" points="133,-238.5 15,-238.5 15,-208 133,-208 133,-238.5"/>
<text text-anchor="start" x="23" y="-225" font-family="Helvetica,sans-Serif" font-size="10.00">ImageMediaInformation</text>
<text text-anchor="middle" x="74" y="-213.75" font-family="Helvetica,sans-Serif" font-size="10.00">::creationTime</text>
</a>
</g>
</g>
<!-- Node1&#45;&gt;Node2 -->
<g id="edge1_Node000001_Node000002" class="edge">
<title>Node1&#45;&gt;Node2</title>
<g id="a_edge1_Node000001_Node000002"><a xlink:title=" ">
<path fill="none" stroke="#63b8ff" d="M208.12,-149.23C193.52,-164.13 171.05,-184.94 148,-198.25 141.97,-201.73 135.37,-204.83 128.7,-207.56"/>
<polygon fill="#63b8ff" stroke="#63b8ff" points="210.33,-151.99 214.72,-142.34 205.27,-147.15 210.33,-151.99"/>
</a>
</g>
</g>
<!-- Node4 -->
<g id="Node000004" class="node">
<title>Node4</title>
<g id="a_Node000004"><a xlink:href="../../d0/d4e/class_photos_grouping_dialog.html#a5602e18dab61025c041f53bbe3e59254" target="_top" xlink:title=" ">
<polygon fill="#fff0f0" stroke="red" points="130.38,-189.5 17.62,-189.5 17.62,-159 130.38,-159 130.38,-189.5"/>
<text text-anchor="start" x="25.62" y="-176" font-family="Helvetica,sans-Serif" font-size="10.00">PhotosGroupingDialog</text>
<text text-anchor="middle" x="74" y="-164.75" font-family="Helvetica,sans-Serif" font-size="10.00">::fillModel</text>
</a>
</g>
</g>
<!-- Node1&#45;&gt;Node4 -->
<g id="edge2_Node000001_Node000004" class="edge">
<title>Node1&#45;&gt;Node4</title>
<g id="a_edge2_Node000001_Node000004"><a xlink:title=" ">
<path fill="none" stroke="#63b8ff" d="M178.77,-144.45C163.3,-148.89 145.89,-153.89 129.82,-158.51"/>
<polygon fill="#63b8ff" stroke="#63b8ff" points="179.54,-147.87 188.19,-141.75 177.61,-141.15 179.54,-147.87"/>
</a>
</g>
</g>
<!-- Node6 -->
<g id="Node000006" class="node">
<title>Node6</title>
<g id="a_Node000006"><a xlink:href="../../d5/db6/class_oriented_image.html#a7cb9dd0d57c97147d926c30500eef590" target="_top" xlink:title=" ">
<polygon fill="white" stroke="#666666" points="148,-140.88 0,-140.88 0,-121.62 148,-121.62 148,-140.88"/>
<text text-anchor="middle" x="74" y="-127.38" font-family="Helvetica,sans-Serif" font-size="10.00">OrientedImage::OrientedImage</text>
</a>
</g>
</g>
<!-- Node1&#45;&gt;Node6 -->
<g id="edge3_Node000001_Node000006" class="edge">
<title>Node1&#45;&gt;Node6</title>
<g id="a_edge3_Node000001_Node000006"><a xlink:title=" ">
<path fill="none" stroke="#63b8ff" d="M172.38,-131.25C164.62,-131.25 156.5,-131.25 148.41,-131.25"/>
<polygon fill="#63b8ff" stroke="#63b8ff" points="172.32,-134.75 182.32,-131.25 172.32,-127.75 172.32,-134.75"/>
</a>
</g>
</g>
<!-- Node7 -->
<g id="Node000007" class="node">
<title>Node7</title>
<g id="a_Node000007"><a xlink:href="../../d3/d07/class_media_view_ctrl.html#aa24ae0b96b7ddfdd731a382f759d429f" target="_top" xlink:title=" ">
<polygon fill="#fff0f0" stroke="red" points="132.62,-85.88 15.38,-85.88 15.38,-66.62 132.62,-66.62 132.62,-85.88"/>
<text text-anchor="middle" x="74" y="-72.38" font-family="Helvetica,sans-Serif" font-size="10.00">MediaViewCtrl::setPath</text>
</a>
</g>
</g>
<!-- Node1&#45;&gt;Node7 -->
<g id="edge4_Node000001_Node000007" class="edge">
<title>Node1&#45;&gt;Node7</title>
<g id="a_edge4_Node000001_Node000007"><a xlink:title=" ">
<path fill="none" stroke="#63b8ff" d="M186.59,-117.23C160.36,-107.6 126.14,-95.03 102.55,-86.37"/>
<polygon fill="#63b8ff" stroke="#63b8ff" points="185.27,-120.48 195.86,-120.64 187.68,-113.91 185.27,-120.48"/>
</a>
</g>
</g>
<!-- Node9 -->
<g id="Node000009" class="node">
<title>Node9</title>
<g id="a_Node000009"><a xlink:href="../../de/d2a/class_image_media_information.html#ae1f3ce6893b7b33d7c30449e0c481301" target="_top" xlink:title=" ">
<polygon fill="#fff0f0" stroke="red" points="133,-30.5 15,-30.5 15,0 133,0 133,-30.5"/>
<text text-anchor="start" x="23" y="-17" font-family="Helvetica,sans-Serif" font-size="10.00">ImageMediaInformation</text>
<text text-anchor="middle" x="74" y="-5.75" font-family="Helvetica,sans-Serif" font-size="10.00">::size</text>
</a>
</g>
</g>
<!-- Node1&#45;&gt;Node9 -->
<g id="edge6_Node000001_Node000009" class="edge">
<title>Node1&#45;&gt;Node9</title>
<g id="a_edge6_Node000001_Node000009"><a xlink:title=" ">
<path fill="none" stroke="#63b8ff" d="M208.22,-112.95C193.37,-97.12 170.51,-74.17 148,-57.25 134.91,-47.41 119.3,-38.14 105.88,-30.83"/>
<polygon fill="#63b8ff" stroke="#63b8ff" points="205.59,-115.26 214.94,-120.24 210.73,-110.51 205.59,-115.26"/>
</a>
</g>
</g>
<!-- Node7&#45;&gt;Node7 -->
<g id="edge5_Node000007_Node000007" class="edge">
<title>Node7&#45;&gt;Node7</title>
<g id="a_edge5_Node000007_Node000007"><a xlink:title=" ">
<path fill="none" stroke="#63b8ff" d="M101.21,-96.94C98.07,-100.99 89,-103.88 74,-103.88 47.33,-103.88 39.41,-94.77 50.24,-86.16"/>
<polygon fill="#63b8ff" stroke="#63b8ff" points="104.6,-96.06 98.22,-87.6 97.94,-98.2 104.6,-96.06"/>
</a>
</g>
</g>
<!-- Node9&#45;&gt;Node9 -->
<g id="edge7_Node000009_Node000009" class="edge">
<title>Node9&#45;&gt;Node9</title>
<g id="a_edge7_Node000009_Node000009"><a xlink:title=" ">
<path fill="none" stroke="#63b8ff" d="M99.45,-42.2C95.29,-45.97 86.8,-48.5 74,-48.5 50.59,-48.5 41.62,-40.06 47.11,-30.99"/>
<polygon fill="#63b8ff" stroke="#63b8ff" points="102.89,-42.85 100.7,-32.49 95.95,-41.96 102.89,-42.85"/>
</a>
</g>
</g>
</g>
</svg>
</svg>

<style type='text/css'>
<![CDATA[
[data-mouse-over-selected='false'] { opacity: 0.7; }
[data-mouse-over-selected='true']  { opacity: 1.0; }
]]>
</style>
<script type="application/ecmascript"><![CDATA[
document.addEventListener('DOMContentLoaded', (event) => {
  highlightEdges();
  highlightAdjacentNodes();
});
]]></script>
</svg>
