<?xml version="1.0" encoding="UTF-8" standalone="no"?>
<!DOCTYPE svg PUBLIC "-//W3C//DTD SVG 1.1//EN"
 "http://www.w3.org/Graphics/SVG/1.1/DTD/svg11.dtd">
<!-- Generated by graphviz version 9.0.0 (20230911.1827)
 -->
<!-- Title: src/database/database_builder.hpp Pages: 1 -->
<svg width="685pt" height="116pt"
 viewBox="0.00 0.00 684.50 116.25" xmlns="http://www.w3.org/2000/svg" xmlns:xlink="http://www.w3.org/1999/xlink">
<g id="graph0" class="graph" transform="scale(1 1) rotate(0) translate(4 112.25)">
<title>src/database/database_builder.hpp</title>
<!-- Node1 -->
<g id="Node000001" class="node">
<title>Node1</title>
<g id="a_Node000001"><a xlink:title=" ">
<polygon fill="#999999" stroke="#666666" points="463.25,-108.25 348.25,-108.25 348.25,-77.75 463.25,-77.75 463.25,-108.25"/>
<text text-anchor="start" x="356.25" y="-94.75" font-family="Helvetica,sans-Serif" font-size="10.00">src/database/database</text>
<text text-anchor="middle" x="405.75" y="-83.5" font-family="Helvetica,sans-Serif" font-size="10.00">_builder.hpp</text>
</a>
</g>
</g>
<!-- Node2 -->
<g id="Node000002" class="node">
<title>Node2</title>
<g id="a_Node000002"><a xlink:href="../../db/d74/mysql__backend_2backend_8cpp.html" target="_top" xlink:title=" ">
<polygon fill="white" stroke="#666666" points="149.5,-41.75 0,-41.75 0,0 149.5,0 149.5,-41.75"/>
<text text-anchor="start" x="8" y="-28.25" font-family="Helvetica,sans-Serif" font-size="10.00">src/database/backends</text>
<text text-anchor="start" x="8" y="-17" font-family="Helvetica,sans-Serif" font-size="10.00">/sql_backends/mysql_backend</text>
<text text-anchor="middle" x="74.75" y="-5.75" font-family="Helvetica,sans-Serif" font-size="10.00">/backend.cpp</text>
</a>
</g>
</g>
<!-- Node1&#45;&gt;Node2 -->
<g id="edge1_Node000001_Node000002" class="edge">
<title>Node1&#45;&gt;Node2</title>
<g id="a_edge1_Node000001_Node000002"><a xlink:title=" ">
<path fill="none" stroke="#63b8ff" d="M337.01,-78.62C287.38,-68.81 218.82,-54.96 158.75,-41.75 155.82,-41.11 152.84,-40.44 149.83,-39.76"/>
<polygon fill="#63b8ff" stroke="#63b8ff" points="336.27,-82.04 346.76,-80.54 337.63,-75.18 336.27,-82.04"/>
</a>
</g>
</g>
<!-- Node3 -->
<g id="Node000003" class="node">
<title>Node3</title>
<g id="a_Node000003"><a xlink:href="../../d7/d27/mysql__server_8cpp.html" target="_top" xlink:title=" ">
<polygon fill="white" stroke="#666666" points="317.5,-41.75 168,-41.75 168,0 317.5,0 317.5,-41.75"/>
<text text-anchor="start" x="176" y="-28.25" font-family="Helvetica,sans-Serif" font-size="10.00">src/database/backends</text>
<text text-anchor="start" x="176" y="-17" font-family="Helvetica,sans-Serif" font-size="10.00">/sql_backends/mysql_backend</text>
<text text-anchor="middle" x="242.75" y="-5.75" font-family="Helvetica,sans-Serif" font-size="10.00">/mysql_server.cpp</text>
</a>
</g>
</g>
<!-- Node1&#45;&gt;Node3 -->
<g id="edge2_Node000001_Node000003" class="edge">
<title>Node1&#45;&gt;Node3</title>
<g id="a_edge2_Node000001_Node000003"><a xlink:title=" ">
<path fill="none" stroke="#63b8ff" d="M361.13,-72.8C339.01,-63.29 312.3,-51.8 289.86,-42.14"/>
<polygon fill="#63b8ff" stroke="#63b8ff" points="359.62,-75.96 370.19,-76.7 362.39,-69.53 359.62,-75.96"/>
</a>
</g>
</g>
<!-- Node4 -->
<g id="Node000004" class="node">
<title>Node4</title>
<g id="a_Node000004"><a xlink:href="../../d6/da5/database__builder_8cpp.html" target="_top" xlink:title=" ">
<polygon fill="white" stroke="#666666" points="476.38,-36.12 335.12,-36.12 335.12,-5.62 476.38,-5.62 476.38,-36.12"/>
<text text-anchor="start" x="343.12" y="-22.62" font-family="Helvetica,sans-Serif" font-size="10.00">src/database/implementation</text>
<text text-anchor="middle" x="405.75" y="-11.38" font-family="Helvetica,sans-Serif" font-size="10.00">/database_builder.cpp</text>
</a>
</g>
</g>
<!-- Node1&#45;&gt;Node4 -->
<g id="edge3_Node000001_Node000004" class="edge">
<title>Node1&#45;&gt;Node4</title>
<g id="a_edge3_Node000001_Node000004"><a xlink:title=" ">
<path fill="none" stroke="#63b8ff" d="M405.75,-66.02C405.75,-56.01 405.75,-44.94 405.75,-36.39"/>
<polygon fill="#63b8ff" stroke="#63b8ff" points="402.25,-65.96 405.75,-75.96 409.25,-65.96 402.25,-65.96"/>
</a>
</g>
</g>
<!-- Node5 -->
<g id="Node000005" class="node">
<title>Node5</title>
<g id="a_Node000005"><a xlink:href="../../d8/dd9/mainwindow_8cpp.html" target="_top" xlink:title=" ">
<polygon fill="white" stroke="#666666" points="587.38,-36.12 494.12,-36.12 494.12,-5.62 587.38,-5.62 587.38,-36.12"/>
<text text-anchor="start" x="502.12" y="-22.62" font-family="Helvetica,sans-Serif" font-size="10.00">src/gui/desktop/ui</text>
<text text-anchor="middle" x="540.75" y="-11.38" font-family="Helvetica,sans-Serif" font-size="10.00">/mainwindow.cpp</text>
</a>
</g>
</g>
<!-- Node1&#45;&gt;Node5 -->
<g id="edge4_Node000001_Node000005" class="edge">
<title>Node1&#45;&gt;Node5</title>
<g id="a_edge4_Node000001_Node000005"><a xlink:title=" ">
<path fill="none" stroke="#63b8ff" d="M443.98,-72.14C465.77,-60.82 492.61,-46.88 512.49,-36.56"/>
<polygon fill="#63b8ff" stroke="#63b8ff" points="442.65,-68.89 435.39,-76.6 445.88,-75.1 442.65,-68.89"/>
</a>
</g>
</g>
<!-- Node6 -->
<g id="Node000006" class="node">
<title>Node6</title>
<g id="a_Node000006"><a xlink:href="../../df/d0a/main_8cpp.html" target="_top" xlink:title=" ">
<polygon fill="white" stroke="#666666" points="676.5,-30.5 605,-30.5 605,-11.25 676.5,-11.25 676.5,-30.5"/>
<text text-anchor="middle" x="640.75" y="-17" font-family="Helvetica,sans-Serif" font-size="10.00">src/main.cpp</text>
</a>
</g>
</g>
<!-- Node1&#45;&gt;Node6 -->
<g id="edge5_Node000001_Node000006" class="edge">
<title>Node1&#45;&gt;Node6</title>
<g id="a_edge5_Node000001_Node000006"><a xlink:title=" ">
<path fill="none" stroke="#63b8ff" d="M474.43,-76.87C511.17,-68.05 556.92,-55.87 596.75,-41.75 605.44,-38.67 614.79,-34.57 622.62,-30.89"/>
<polygon fill="#63b8ff" stroke="#63b8ff" points="473.73,-73.44 464.81,-79.15 475.35,-80.25 473.73,-73.44"/>
</a>
</g>
</g>
</g>
</svg>
