<?xml version="1.0" encoding="UTF-8" standalone="no"?>
<!DOCTYPE svg PUBLIC "-//W3C//DTD SVG 1.1//EN"
 "http://www.w3.org/Graphics/SVG/1.1/DTD/svg11.dtd">
<!-- Generated by graphviz version 7.0.5 (20221223.1930)
 -->
<!-- Title: Database::JsonToBackend::parsePhoto Pages: 1 -->
<svg width="310pt" height="124pt"
 viewBox="0.00 0.00 310.00 123.50" xmlns="http://www.w3.org/2000/svg" xmlns:xlink="http://www.w3.org/1999/xlink">
<g id="graph0" class="graph" transform="scale(1 1) rotate(0) translate(4 119.5)">
<title>Database::JsonToBackend::parsePhoto</title>
<!-- Node1 -->
<g id="node1" class="node">
<title>Node1</title>
<g id="a_node1"><a xlink:title=" ">
<polygon fill="#999999" stroke="#666666" points="133,-78 0,-78 0,-48 133,-48 133,-78"/>
<text text-anchor="start" x="8" y="-66" font-family="Helvetica,sans-Serif" font-size="10.00">Database::JsonToBackend</text>
<text text-anchor="middle" x="66.5" y="-55" font-family="Helvetica,sans-Serif" font-size="10.00">::parsePhoto</text>
</a>
</g>
</g>
<!-- Node2 -->
<g id="node2" class="node">
<title>Node2</title>
<g id="a_node2"><a xlink:href="../../d7/d1e/class_photo_1_1_data_delta.html#a4e20dab36867e0c89032b534c963029f" target="_top" xlink:title=" ">
<polygon fill="white" stroke="#666666" points="294.5,-115.5 176.5,-115.5 176.5,-96.5 294.5,-96.5 294.5,-115.5"/>
<text text-anchor="middle" x="235.5" y="-103.5" font-family="Helvetica,sans-Serif" font-size="10.00">Photo::DataDelta::insert</text>
</a>
</g>
</g>
<!-- Node1&#45;&gt;Node2 -->
<g id="edge1" class="edge">
<title>Node1&#45;&gt;Node2</title>
<path fill="none" stroke="#63b8ff" d="M127.32,-78.4C146.06,-83.23 166.54,-88.5 184.53,-93.13"/>
<polygon fill="#63b8ff" stroke="#63b8ff" points="183.64,-96.52 194.2,-95.62 185.39,-89.74 183.64,-96.52"/>
</g>
<!-- Node3 -->
<g id="node3" class="node">
<title>Node3</title>
<g id="a_node3"><a xlink:href="../../d6/db9/class_database_1_1_json_to_backend.html#aa252d52f9a222736ab8903f7c7c5370a" target="_top" xlink:title=" ">
<polygon fill="white" stroke="#666666" points="302,-78 169,-78 169,-48 302,-48 302,-78"/>
<text text-anchor="start" x="177" y="-66" font-family="Helvetica,sans-Serif" font-size="10.00">Database::JsonToBackend</text>
<text text-anchor="middle" x="235.5" y="-55" font-family="Helvetica,sans-Serif" font-size="10.00">::parseGeometry</text>
</a>
</g>
</g>
<!-- Node1&#45;&gt;Node3 -->
<g id="edge2" class="edge">
<title>Node1&#45;&gt;Node3</title>
<path fill="none" stroke="#63b8ff" d="M133.02,-63C140.97,-63 149.15,-63 157.25,-63"/>
<polygon fill="#63b8ff" stroke="#63b8ff" points="157.1,-66.5 167.1,-63 157.1,-59.5 157.1,-66.5"/>
</g>
<!-- Node4 -->
<g id="node4" class="node">
<title>Node4</title>
<g id="a_node4"><a xlink:href="../../d6/db9/class_database_1_1_json_to_backend.html#abe2462943f948e7f90cf2859fe0deb6b" target="_top" xlink:title=" ">
<polygon fill="white" stroke="#666666" points="302,-30 169,-30 169,0 302,0 302,-30"/>
<text text-anchor="start" x="177" y="-18" font-family="Helvetica,sans-Serif" font-size="10.00">Database::JsonToBackend</text>
<text text-anchor="middle" x="235.5" y="-7" font-family="Helvetica,sans-Serif" font-size="10.00">::parseTags</text>
</a>
</g>
</g>
<!-- Node1&#45;&gt;Node4 -->
<g id="edge3" class="edge">
<title>Node1&#45;&gt;Node4</title>
<path fill="none" stroke="#63b8ff" d="M121.26,-47.55C136.75,-43.09 153.82,-38.19 169.9,-33.57"/>
<polygon fill="#63b8ff" stroke="#63b8ff" points="170.74,-36.97 179.39,-30.84 168.81,-30.24 170.74,-36.97"/>
</g>
</g>
</svg>
