<?xml version="1.0" encoding="UTF-8" standalone="no"?>
<!DOCTYPE svg PUBLIC "-//W3C//DTD SVG 1.1//EN"
 "http://www.w3.org/Graphics/SVG/1.1/DTD/svg11.dtd">
<!-- Generated by graphviz version 7.0.5 (20221223.1930)
 -->
<!-- Title: Database::JsonToBackend::parse Pages: 1 -->
<svg width="310pt" height="56pt"
 viewBox="0.00 0.00 310.00 56.00" xmlns="http://www.w3.org/2000/svg" xmlns:xlink="http://www.w3.org/1999/xlink">
<g id="graph0" class="graph" transform="scale(1 1) rotate(0) translate(4 52)">
<title>Database::JsonToBackend::parse</title>
<!-- Node1 -->
<g id="node1" class="node">
<title>Node1</title>
<g id="a_node1"><a xlink:title=" ">
<polygon fill="#999999" stroke="#666666" points="302,-30 169,-30 169,0 302,0 302,-30"/>
<text text-anchor="start" x="177" y="-18" font-family="Helvetica,sans-Serif" font-size="10.00">Database::JsonToBackend</text>
<text text-anchor="middle" x="235.5" y="-7" font-family="Helvetica,sans-Serif" font-size="10.00">::parse</text>
</a>
</g>
</g>
<!-- Node1&#45;&gt;Node1 -->
<g id="edge2" class="edge">
<title>Node1&#45;&gt;Node1</title>
<path fill="none" stroke="#63b8ff" d="M264.02,-41.61C259.45,-45.43 249.94,-48 235.5,-48 209.09,-48 199.19,-39.41 205.79,-30.28"/>
<polygon fill="#63b8ff" stroke="#63b8ff" points="267.48,-42.09 265.05,-31.78 260.52,-41.36 267.48,-42.09"/>
</g>
<!-- Node2 -->
<g id="node2" class="node">
<title>Node2</title>
<g id="a_node2"><a xlink:href="../../d6/db9/class_database_1_1_json_to_backend.html#ab744bf1c43927230180e91b5f7ab599d" target="_top" xlink:title=" ">
<polygon fill="#fff0f0" stroke="red" points="133,-30 0,-30 0,0 133,0 133,-30"/>
<text text-anchor="start" x="8" y="-18" font-family="Helvetica,sans-Serif" font-size="10.00">Database::JsonToBackend</text>
<text text-anchor="middle" x="66.5" y="-7" font-family="Helvetica,sans-Serif" font-size="10.00">::append</text>
</a>
</g>
</g>
<!-- Node1&#45;&gt;Node2 -->
<g id="edge1" class="edge">
<title>Node1&#45;&gt;Node2</title>
<path fill="none" stroke="#63b8ff" d="M157.62,-15C149.52,-15 141.34,-15 133.38,-15"/>
<polygon fill="#63b8ff" stroke="#63b8ff" points="157.46,-18.5 167.46,-15 157.46,-11.5 157.46,-18.5"/>
</g>
</g>
</svg>
