<?xml version="1.0" encoding="UTF-8" standalone="no"?>
<!DOCTYPE svg PUBLIC "-//W3C//DTD SVG 1.1//EN"
 "http://www.w3.org/Graphics/SVG/1.1/DTD/svg11.dtd">
<!-- Generated by graphviz version 12.2.0 (20241103.1931)
 -->
<!-- Title: src/database/database_tools/implementation/photo_delta_fetcher.cpp Pages: 1 -->
<svg width="473pt" height="172pt"
 viewBox="0.00 0.00 473.12 171.50" xmlns="http://www.w3.org/2000/svg" xmlns:xlink="http://www.w3.org/1999/xlink">

<svg id="main" version="1.1" xmlns="http://www.w3.org/2000/svg" xmlns:xlink="http://www.w3.org/1999/xlink" xml:space="preserve">

<style type="text/css"><![CDATA[
.node, .edge {opacity: 0.7;}
.node.selected, .edge.selected {opacity: 1;}
.edge:hover path { stroke: red; }
.edge:hover polygon { stroke: red; fill: red; }
]]></style>
<script type="application/ecmascript" xlink:href="../../svg.min.js"/>
<svg id="graph" class="graph">
<g id="graph0" class="graph" transform="scale(1 1) rotate(0) translate(4 167.5)">
<title>src/database/database_tools/implementation/photo_delta_fetcher.cpp</title>
<!-- Node1 -->
<g id="Node000001" class="node">
<title>Node1</title>
<g id="a_Node000001"><a xlink:title=" ">
<polygon fill="#999999" stroke="#666666" points="324.88,-163.5 202.38,-163.5 202.38,-121.75 324.88,-121.75 324.88,-163.5"/>
<text text-anchor="start" x="210.38" y="-150" font-family="Helvetica,sans-Serif" font-size="10.00">src/database/database</text>
<text text-anchor="start" x="210.38" y="-138.75" font-family="Helvetica,sans-Serif" font-size="10.00">_tools/implementation</text>
<text text-anchor="middle" x="263.62" y="-127.5" font-family="Helvetica,sans-Serif" font-size="10.00">/photo_delta_fetcher.cpp</text>
</a>
</g>
</g>
<!-- Node2 -->
<g id="Node000002" class="node">
<title>Node2</title>
<g id="a_Node000002"><a xlink:href="../../d0/dd6/function__wrappers_8hpp.html" target="_top" xlink:title=" ">
<polygon fill="#fff0f0" stroke="red" points="135.25,-80.12 0,-80.12 0,-60.88 135.25,-60.88 135.25,-80.12"/>
<text text-anchor="middle" x="67.62" y="-66.62" font-family="Helvetica,sans-Serif" font-size="10.00">core/function_wrappers.hpp</text>
</a>
</g>
</g>
<!-- Node1&#45;&gt;Node2 -->
<g id="edge1_Node000001_Node000002" class="edge">
<title>Node1&#45;&gt;Node2</title>
<g id="a_edge1_Node000001_Node000002"><a xlink:title=" ">
<path fill="none" stroke="#63b8ff" d="M206.93,-121.34C173.7,-109.45 132.7,-94.78 103.81,-84.45"/>
<polygon fill="#63b8ff" stroke="#63b8ff" points="105.02,-81.16 94.42,-81.09 102.66,-87.75 105.02,-81.16"/>
</a>
</g>
</g>
<!-- Node10 -->
<g id="Node000010" class="node">
<title>Node10</title>
<g id="a_Node000010"><a xlink:href="../../d1/d0d/database__qcoro__utils_8hpp.html" target="_top" xlink:title=" ">
<polygon fill="#fff0f0" stroke="red" points="281.5,-85.75 153.75,-85.75 153.75,-55.25 281.5,-55.25 281.5,-85.75"/>
<text text-anchor="start" x="161.75" y="-72.25" font-family="Helvetica,sans-Serif" font-size="10.00">database/database_qcoro</text>
<text text-anchor="middle" x="217.62" y="-61" font-family="Helvetica,sans-Serif" font-size="10.00">_utils.hpp</text>
</a>
</g>
</g>
<!-- Node1&#45;&gt;Node10 -->
<g id="edge2_Node000001_Node000010" class="edge">
<title>Node1&#45;&gt;Node10</title>
<g id="a_edge2_Node000001_Node000010"><a xlink:title=" ">
<path fill="none" stroke="#63b8ff" d="M250.32,-121.34C245.04,-113.29 238.92,-103.96 233.42,-95.57"/>
<polygon fill="#63b8ff" stroke="#63b8ff" points="236.35,-93.66 227.93,-87.22 230.49,-97.5 236.35,-93.66"/>
</a>
</g>
</g>
<!-- Node54 -->
<g id="Node000054" class="node">
<title>Node54</title>
<g id="a_Node000054"><a xlink:href="../../db/d39/photo__data_8hpp.html" target="_top" xlink:title=" ">
<polygon fill="#fff0f0" stroke="red" points="396.62,-19.25 314.62,-19.25 314.62,0 396.62,0 396.62,-19.25"/>
<text text-anchor="middle" x="355.62" y="-5.75" font-family="Helvetica,sans-Serif" font-size="10.00">photo_data.hpp</text>
</a>
</g>
</g>
<!-- Node1&#45;&gt;Node54 -->
<g id="edge3_Node000001_Node000054" class="edge">
<title>Node1&#45;&gt;Node54</title>
<g id="a_edge3_Node000001_Node000054"><a xlink:title=" ">
<path fill="none" stroke="#63b8ff" d="M277.8,-121.44C295.62,-96.07 325.93,-52.91 342.99,-28.62"/>
<polygon fill="#63b8ff" stroke="#63b8ff" points="345.66,-30.9 348.55,-20.71 339.93,-26.88 345.66,-30.9"/>
</a>
</g>
</g>
<!-- Node60 -->
<g id="Node000060" class="node">
<title>Node60</title>
<g id="a_Node000060"><a xlink:href="../../d7/dfc/photo__delta__fetcher_8hpp.html" target="_top" xlink:title=" ">
<polygon fill="#fff0f0" stroke="red" points="465.12,-80.12 338.12,-80.12 338.12,-60.88 465.12,-60.88 465.12,-80.12"/>
<text text-anchor="middle" x="401.62" y="-66.62" font-family="Helvetica,sans-Serif" font-size="10.00">../photo_delta_fetcher.hpp</text>
</a>
</g>
</g>
<!-- Node1&#45;&gt;Node60 -->
<g id="edge4_Node000001_Node000060" class="edge">
<title>Node1&#45;&gt;Node60</title>
<g id="a_edge4_Node000001_Node000060"><a xlink:title=" ">
<path fill="none" stroke="#63b8ff" d="M303.54,-121.34C326.08,-109.89 353.68,-95.86 373.86,-85.61"/>
<polygon fill="#63b8ff" stroke="#63b8ff" points="375.26,-88.82 382.59,-81.17 372.09,-82.58 375.26,-88.82"/>
</a>
</g>
</g>
<!-- Node60&#45;&gt;Node54 -->
<g id="edge5_Node000060_Node000054" class="edge">
<title>Node60&#45;&gt;Node54</title>
<g id="a_edge5_Node000060_Node000054"><a xlink:title=" ">
<path fill="none" stroke="#63b8ff" d="M394.64,-60.56C388.02,-52.09 377.89,-39.12 369.61,-28.52"/>
<polygon fill="#63b8ff" stroke="#63b8ff" points="372.52,-26.57 363.61,-20.84 367.01,-30.88 372.52,-26.57"/>
</a>
</g>
</g>
</g>
</svg>
</svg>

<style type='text/css'>
<![CDATA[
[data-mouse-over-selected='false'] { opacity: 0.7; }
[data-mouse-over-selected='true']  { opacity: 1.0; }
]]>
</style>
<script type="application/ecmascript"><![CDATA[
document.addEventListener('DOMContentLoaded', (event) => {
  highlightEdges();
  highlightAdjacentNodes();
});
]]></script>
</svg>
