<?xml version="1.0" encoding="UTF-8" standalone="no"?>
<!DOCTYPE svg PUBLIC "-//W3C//DTD SVG 1.1//EN"
 "http://www.w3.org/Graphics/SVG/1.1/DTD/svg11.dtd">
<!-- Generated by graphviz version 9.0.0 (20230911.1827)
 -->
<!-- Title: Database::PhotoOperator::getAny Pages: 1 -->
<svg width="311pt" height="88pt"
 viewBox="0.00 0.00 310.75 87.50" xmlns="http://www.w3.org/2000/svg" xmlns:xlink="http://www.w3.org/1999/xlink">
<g id="graph0" class="graph" transform="scale(1 1) rotate(0) translate(4 83.5)">
<title>Database::PhotoOperator::getAny</title>
<!-- Node1 -->
<g id="Node000001" class="node">
<title>Node1</title>
<g id="a_Node000001"><a xlink:title=" ">
<polygon fill="#999999" stroke="#666666" points="124.75,-54.5 0,-54.5 0,-24 124.75,-24 124.75,-54.5"/>
<text text-anchor="start" x="8" y="-41" font-family="Helvetica,sans-Serif" font-size="10.00">Database::PhotoOperator</text>
<text text-anchor="middle" x="62.38" y="-29.75" font-family="Helvetica,sans-Serif" font-size="10.00">::getAny</text>
</a>
</g>
</g>
<!-- Node2 -->
<g id="Node000002" class="node">
<title>Node2</title>
<g id="a_Node000002"><a xlink:href="../../d9/d1b/struct_database_1_1_i_sql_query_executor.html#acfcd209fa4cb62eb1c1f99bbdd653131" target="_top" xlink:title=" ">
<polygon fill="white" stroke="#666666" points="302.75,-79.5 160.75,-79.5 160.75,-49 302.75,-49 302.75,-79.5"/>
<text text-anchor="start" x="168.75" y="-66" font-family="Helvetica,sans-Serif" font-size="10.00">Database::ISqlQueryExecutor</text>
<text text-anchor="middle" x="231.75" y="-54.75" font-family="Helvetica,sans-Serif" font-size="10.00">::exec</text>
</a>
</g>
</g>
<!-- Node1&#45;&gt;Node2 -->
<g id="edge1_Node000001_Node000002" class="edge">
<title>Node1&#45;&gt;Node2</title>
<g id="a_edge1_Node000001_Node000002"><a xlink:title=" ">
<path fill="none" stroke="#63b8ff" d="M125.22,-48.49C133.01,-49.65 141.07,-50.85 149.1,-52.05"/>
<polygon fill="#63b8ff" stroke="#63b8ff" points="148.5,-55.5 158.91,-53.52 149.53,-48.58 148.5,-55.5"/>
</a>
</g>
</g>
<!-- Node3 -->
<g id="Node000003" class="node">
<title>Node3</title>
<g id="a_Node000003"><a xlink:href="../../d6/d7f/class_database_1_1_sql_filter_query_generator.html#a41b86be1876d22b283d495106b9bcf0c" target="_top" xlink:title=" ">
<polygon fill="#fff0f0" stroke="red" points="293.38,-30.5 170.12,-30.5 170.12,0 293.38,0 293.38,-30.5"/>
<text text-anchor="start" x="178.12" y="-17" font-family="Helvetica,sans-Serif" font-size="10.00">Database::SqlFilterQuery</text>
<text text-anchor="middle" x="231.75" y="-5.75" font-family="Helvetica,sans-Serif" font-size="10.00">Generator::generate</text>
</a>
</g>
</g>
<!-- Node1&#45;&gt;Node3 -->
<g id="edge2_Node000001_Node000003" class="edge">
<title>Node1&#45;&gt;Node3</title>
<g id="a_edge2_Node000001_Node000003"><a xlink:title=" ">
<path fill="none" stroke="#63b8ff" d="M125.22,-30.38C136.01,-28.84 147.31,-27.21 158.34,-25.63"/>
<polygon fill="#63b8ff" stroke="#63b8ff" points="158.81,-29.1 168.22,-24.22 157.82,-22.17 158.81,-29.1"/>
</a>
</g>
</g>
</g>
</svg>
