<?xml version="1.0" encoding="UTF-8" standalone="no"?>
<!DOCTYPE svg PUBLIC "-//W3C//DTD SVG 1.1//EN"
 "http://www.w3.org/Graphics/SVG/1.1/DTD/svg11.dtd">
<!-- Generated by graphviz version 12.2.0 (20241103.1931)
 -->
<!-- Title: Database::PhotoOperator::getAny Pages: 1 -->
<svg width="294pt" height="333pt"
 viewBox="0.00 0.00 293.50 332.50" xmlns="http://www.w3.org/2000/svg" xmlns:xlink="http://www.w3.org/1999/xlink">

<svg id="main" version="1.1" xmlns="http://www.w3.org/2000/svg" xmlns:xlink="http://www.w3.org/1999/xlink" xml:space="preserve">

<style type="text/css"><![CDATA[
.node, .edge {opacity: 0.7;}
.node.selected, .edge.selected {opacity: 1;}
.edge:hover path { stroke: red; }
.edge:hover polygon { stroke: red; fill: red; }
]]></style>
<script type="application/ecmascript" xlink:href="../../svg.min.js"/>
<svg id="graph" class="graph">
<g id="graph0" class="graph" transform="scale(1 1) rotate(0) translate(4 328.5)">
<title>Database::PhotoOperator::getAny</title>
<!-- Node1 -->
<g id="Node000001" class="node">
<title>Node1</title>
<g id="a_Node000001"><a xlink:title=" ">
<polygon fill="#999999" stroke="#666666" points="285.5,-177.5 160.75,-177.5 160.75,-147 285.5,-147 285.5,-177.5"/>
<text text-anchor="start" x="168.75" y="-164" font-family="Helvetica,sans-Serif" font-size="10.00">Database::PhotoOperator</text>
<text text-anchor="middle" x="223.12" y="-152.75" font-family="Helvetica,sans-Serif" font-size="10.00">::getAny</text>
</a>
</g>
</g>
<!-- Node2 -->
<g id="Node000002" class="node">
<title>Node2</title>
<g id="a_Node000002"><a xlink:href="../../da/dd9/class_database_1_1_photo_operator.html#a2656b6c8ce25c2ee4de27e7ac788427d" target="_top" xlink:title=" ">
<polygon fill="#fff0f0" stroke="red" points="124.75,-324.5 0,-324.5 0,-294 124.75,-294 124.75,-324.5"/>
<text text-anchor="start" x="8" y="-311" font-family="Helvetica,sans-Serif" font-size="10.00">Database::PhotoOperator</text>
<text text-anchor="middle" x="62.38" y="-299.75" font-family="Helvetica,sans-Serif" font-size="10.00">::getFlags</text>
</a>
</g>
</g>
<!-- Node1&#45;&gt;Node2 -->
<g id="edge1_Node000001_Node000002" class="edge">
<title>Node1&#45;&gt;Node2</title>
<g id="a_edge1_Node000001_Node000002"><a xlink:title=" ">
<path fill="none" stroke="#63b8ff" d="M207.51,-187.42C190.64,-214.57 160.55,-257.49 124.75,-284.25 120.05,-287.76 114.79,-290.87 109.37,-293.59"/>
<polygon fill="#63b8ff" stroke="#63b8ff" points="210.34,-189.52 212.53,-179.15 204.35,-185.88 210.34,-189.52"/>
</a>
</g>
</g>
<!-- Node4 -->
<g id="Node000004" class="node">
<title>Node4</title>
<g id="a_Node000004"><a xlink:href="../../da/dd9/class_database_1_1_photo_operator.html#aa54a5785634c030edfee01a46fd6d3c6" target="_top" xlink:title=" ">
<polygon fill="#fff0f0" stroke="red" points="124.75,-275.5 0,-275.5 0,-245 124.75,-245 124.75,-275.5"/>
<text text-anchor="start" x="8" y="-262" font-family="Helvetica,sans-Serif" font-size="10.00">Database::PhotoOperator</text>
<text text-anchor="middle" x="62.38" y="-250.75" font-family="Helvetica,sans-Serif" font-size="10.00">::getGeometry</text>
</a>
</g>
</g>
<!-- Node1&#45;&gt;Node4 -->
<g id="edge2_Node000001_Node000004" class="edge">
<title>Node1&#45;&gt;Node4</title>
<g id="a_edge2_Node000001_Node000004"><a xlink:title=" ">
<path fill="none" stroke="#63b8ff" d="M195.8,-184.92C176.9,-200.44 150.35,-220.76 124.75,-235.25 118.84,-238.59 112.4,-241.72 105.98,-244.56"/>
<polygon fill="#63b8ff" stroke="#63b8ff" points="197.82,-187.79 203.27,-178.7 193.34,-182.41 197.82,-187.79"/>
</a>
</g>
</g>
<!-- Node5 -->
<g id="Node000005" class="node">
<title>Node5</title>
<g id="a_Node000005"><a xlink:href="../../da/dd9/class_database_1_1_photo_operator.html#adf83ed438ea163ba77a0612390a399e6" target="_top" xlink:title=" ">
<polygon fill="#fff0f0" stroke="red" points="124.75,-226.5 0,-226.5 0,-196 124.75,-196 124.75,-226.5"/>
<text text-anchor="start" x="8" y="-213" font-family="Helvetica,sans-Serif" font-size="10.00">Database::PhotoOperator</text>
<text text-anchor="middle" x="62.38" y="-201.75" font-family="Helvetica,sans-Serif" font-size="10.00">::getGroups</text>
</a>
</g>
</g>
<!-- Node1&#45;&gt;Node5 -->
<g id="edge3_Node000001_Node000005" class="edge">
<title>Node1&#45;&gt;Node5</title>
<g id="a_edge3_Node000001_Node000005"><a xlink:title=" ">
<path fill="none" stroke="#63b8ff" d="M160.54,-181.26C145.27,-185.97 129.08,-190.97 114.38,-195.51"/>
<polygon fill="#63b8ff" stroke="#63b8ff" points="161.49,-184.63 170.01,-178.34 159.43,-177.94 161.49,-184.63"/>
</a>
</g>
</g>
<!-- Node6 -->
<g id="Node000006" class="node">
<title>Node6</title>
<g id="a_Node000006"><a xlink:href="../../da/dd9/class_database_1_1_photo_operator.html#a30777aeebff4d46def665c959c4b3a69" target="_top" xlink:title=" ">
<polygon fill="#fff0f0" stroke="red" points="124.75,-177.5 0,-177.5 0,-147 124.75,-147 124.75,-177.5"/>
<text text-anchor="start" x="8" y="-164" font-family="Helvetica,sans-Serif" font-size="10.00">Database::PhotoOperator</text>
<text text-anchor="middle" x="62.38" y="-152.75" font-family="Helvetica,sans-Serif" font-size="10.00">::getPaths</text>
</a>
</g>
</g>
<!-- Node1&#45;&gt;Node6 -->
<g id="edge4_Node000001_Node000006" class="edge">
<title>Node1&#45;&gt;Node6</title>
<g id="a_edge4_Node000001_Node000006"><a xlink:title=" ">
<path fill="none" stroke="#63b8ff" d="M149.04,-162.25C141.02,-162.25 132.9,-162.25 125.04,-162.25"/>
<polygon fill="#63b8ff" stroke="#63b8ff" points="148.78,-165.75 158.78,-162.25 148.78,-158.75 148.78,-165.75"/>
</a>
</g>
</g>
<!-- Node7 -->
<g id="Node000007" class="node">
<title>Node7</title>
<g id="a_Node000007"><a xlink:href="../../da/dd9/class_database_1_1_photo_operator.html#a353cf5ad2549713e76e0910d1bf9cb3e" target="_top" xlink:title=" ">
<polygon fill="#fff0f0" stroke="red" points="124.75,-128.5 0,-128.5 0,-98 124.75,-98 124.75,-128.5"/>
<text text-anchor="start" x="8" y="-115" font-family="Helvetica,sans-Serif" font-size="10.00">Database::PhotoOperator</text>
<text text-anchor="middle" x="62.38" y="-103.75" font-family="Helvetica,sans-Serif" font-size="10.00">::getPeople</text>
</a>
</g>
</g>
<!-- Node1&#45;&gt;Node7 -->
<g id="edge5_Node000001_Node000007" class="edge">
<title>Node1&#45;&gt;Node7</title>
<g id="a_edge5_Node000001_Node000007"><a xlink:title=" ">
<path fill="none" stroke="#63b8ff" d="M160.54,-143.24C145.27,-138.53 129.08,-133.53 114.38,-128.99"/>
<polygon fill="#63b8ff" stroke="#63b8ff" points="159.43,-146.56 170.01,-146.16 161.49,-139.87 159.43,-146.56"/>
</a>
</g>
</g>
<!-- Node8 -->
<g id="Node000008" class="node">
<title>Node8</title>
<g id="a_Node000008"><a xlink:href="../../da/dd9/class_database_1_1_photo_operator.html#a1740e657914b62fce569214ab1d8ccd5" target="_top" xlink:title=" ">
<polygon fill="#fff0f0" stroke="red" points="124.75,-79.5 0,-79.5 0,-49 124.75,-49 124.75,-79.5"/>
<text text-anchor="start" x="8" y="-66" font-family="Helvetica,sans-Serif" font-size="10.00">Database::PhotoOperator</text>
<text text-anchor="middle" x="62.38" y="-54.75" font-family="Helvetica,sans-Serif" font-size="10.00">::getPHashes</text>
</a>
</g>
</g>
<!-- Node1&#45;&gt;Node8 -->
<g id="edge6_Node000001_Node000008" class="edge">
<title>Node1&#45;&gt;Node8</title>
<g id="a_edge6_Node000001_Node000008"><a xlink:title=" ">
<path fill="none" stroke="#63b8ff" d="M195.8,-139.58C176.9,-124.06 150.35,-103.74 124.75,-89.25 118.84,-85.91 112.4,-82.78 105.98,-79.94"/>
<polygon fill="#63b8ff" stroke="#63b8ff" points="193.34,-142.09 203.27,-145.8 197.82,-136.71 193.34,-142.09"/>
</a>
</g>
</g>
<!-- Node9 -->
<g id="Node000009" class="node">
<title>Node9</title>
<g id="a_Node000009"><a xlink:href="../../da/dd9/class_database_1_1_photo_operator.html#a2332216039ab0c7b42229597298f5c97" target="_top" xlink:title=" ">
<polygon fill="#fff0f0" stroke="red" points="124.75,-30.5 0,-30.5 0,0 124.75,0 124.75,-30.5"/>
<text text-anchor="start" x="8" y="-17" font-family="Helvetica,sans-Serif" font-size="10.00">Database::PhotoOperator</text>
<text text-anchor="middle" x="62.38" y="-5.75" font-family="Helvetica,sans-Serif" font-size="10.00">::getTags</text>
</a>
</g>
</g>
<!-- Node1&#45;&gt;Node9 -->
<g id="edge7_Node000001_Node000009" class="edge">
<title>Node1&#45;&gt;Node9</title>
<g id="a_edge7_Node000001_Node000009"><a xlink:title=" ">
<path fill="none" stroke="#63b8ff" d="M207.51,-137.08C190.64,-109.93 160.55,-67.01 124.75,-40.25 120.05,-36.74 114.79,-33.63 109.37,-30.91"/>
<polygon fill="#63b8ff" stroke="#63b8ff" points="204.35,-138.62 212.53,-145.35 210.34,-134.98 204.35,-138.62"/>
</a>
</g>
</g>
</g>
</svg>
</svg>

<style type='text/css'>
<![CDATA[
[data-mouse-over-selected='false'] { opacity: 0.7; }
[data-mouse-over-selected='true']  { opacity: 1.0; }
]]>
</style>
<script type="application/ecmascript"><![CDATA[
document.addEventListener('DOMContentLoaded', (event) => {
  highlightEdges();
  highlightAdjacentNodes();
});
]]></script>
</svg>
