<?xml version="1.0" encoding="UTF-8" standalone="no"?>
<!DOCTYPE svg PUBLIC "-//W3C//DTD SVG 1.1//EN"
 "http://www.w3.org/Graphics/SVG/1.1/DTD/svg11.dtd">
<!-- Generated by graphviz version 9.0.0 (20230911.1827)
 -->
<!-- Title: Database::PhotoOperator::getTags Pages: 1 -->
<svg width="270pt" height="64pt"
 viewBox="0.00 0.00 269.50 64.25" xmlns="http://www.w3.org/2000/svg" xmlns:xlink="http://www.w3.org/1999/xlink">
<g id="graph0" class="graph" transform="scale(1 1) rotate(0) translate(4 60.25)">
<title>Database::PhotoOperator::getTags</title>
<!-- Node1 -->
<g id="Node000001" class="node">
<title>Node1</title>
<g id="a_Node000001"><a xlink:title=" ">
<polygon fill="#999999" stroke="#666666" points="124.75,-42.88 0,-42.88 0,-12.37 124.75,-12.37 124.75,-42.88"/>
<text text-anchor="start" x="8" y="-29.38" font-family="Helvetica,sans-Serif" font-size="10.00">Database::PhotoOperator</text>
<text text-anchor="middle" x="62.38" y="-18.12" font-family="Helvetica,sans-Serif" font-size="10.00">::getTags</text>
</a>
</g>
</g>
<!-- Node2 -->
<g id="Node000002" class="node">
<title>Node2</title>
<g id="a_Node000002"><a xlink:href="../../df/d7c/class_tag_value.html#a23a09559a3f5de9a89b8a237fc2af081" target="_top" xlink:title=" ">
<polygon fill="#fff0f0" stroke="red" points="261.5,-56.25 160.75,-56.25 160.75,-37 261.5,-37 261.5,-56.25"/>
<text text-anchor="middle" x="211.12" y="-42.75" font-family="Helvetica,sans-Serif" font-size="10.00">TagValue::fromRaw</text>
</a>
</g>
</g>
<!-- Node1&#45;&gt;Node2 -->
<g id="edge1_Node000001_Node000002" class="edge">
<title>Node1&#45;&gt;Node2</title>
<g id="a_edge1_Node000001_Node000002"><a xlink:title=" ">
<path fill="none" stroke="#63b8ff" d="M125.18,-35.63C133.08,-36.65 141.16,-37.7 149.04,-38.72"/>
<polygon fill="#63b8ff" stroke="#63b8ff" points="148.54,-42.18 158.9,-39.99 149.44,-35.24 148.54,-42.18"/>
</a>
</g>
</g>
<!-- Node7 -->
<g id="Node000007" class="node">
<title>Node7</title>
<g id="a_Node000007"><a xlink:href="../../de/dd4/class_base_tags.html#a440585d38153e073f47134a7f04e6f5e" target="_top" xlink:title="Get structure describing tag.">
<polygon fill="white" stroke="#666666" points="260.75,-19.25 161.5,-19.25 161.5,0 260.75,0 260.75,-19.25"/>
<text text-anchor="middle" x="211.12" y="-5.75" font-family="Helvetica,sans-Serif" font-size="10.00">BaseTags::getType</text>
</a>
</g>
</g>
<!-- Node1&#45;&gt;Node7 -->
<g id="edge2_Node000001_Node000007" class="edge">
<title>Node1&#45;&gt;Node7</title>
<g id="a_edge2_Node000001_Node000007"><a xlink:title=" ">
<path fill="none" stroke="#63b8ff" d="M125.18,-20.04C133.38,-19.04 141.78,-18.01 149.95,-17.01"/>
<polygon fill="#63b8ff" stroke="#63b8ff" points="150.31,-20.49 159.81,-15.8 149.45,-13.54 150.31,-20.49"/>
</a>
</g>
</g>
</g>
</svg>
