<?xml version="1.0" encoding="UTF-8" standalone="no"?>
<!DOCTYPE svg PUBLIC "-//W3C//DTD SVG 1.1//EN"
 "http://www.w3.org/Graphics/SVG/1.1/DTD/svg11.dtd">
<!-- Generated by graphviz version 12.2.0 (20241103.1931)
 -->
<!-- Title: range_to Pages: 1 -->
<svg width="181pt" height="82pt"
 viewBox="0.00 0.00 181.00 82.25" xmlns="http://www.w3.org/2000/svg" xmlns:xlink="http://www.w3.org/1999/xlink">

<svg id="main" version="1.1" xmlns="http://www.w3.org/2000/svg" xmlns:xlink="http://www.w3.org/1999/xlink" xml:space="preserve">

<style type="text/css"><![CDATA[
.node, .edge {opacity: 0.7;}
.node.selected, .edge.selected {opacity: 1;}
.edge:hover path { stroke: red; }
.edge:hover polygon { stroke: red; fill: red; }
]]></style>
<script type="application/ecmascript" xlink:href="../../svg.min.js"/>
<svg id="graph" class="graph">
<g id="graph0" class="graph" transform="scale(1 1) rotate(0) translate(4 78.25)">
<title>range_to</title>
<!-- Node1 -->
<g id="Node000001" class="node">
<title>Node1</title>
<g id="a_Node000001"><a xlink:title=" ">
<polygon fill="#999999" stroke="#666666" points="173,-37.25 119.5,-37.25 119.5,-18 173,-18 173,-37.25"/>
<text text-anchor="middle" x="146.25" y="-23.75" font-family="Helvetica,sans-Serif" font-size="10.00">range_to</text>
</a>
</g>
</g>
<!-- Node2 -->
<g id="Node000002" class="node">
<title>Node2</title>
<g id="a_Node000002"><a xlink:href="../../d3/d6f/namespace_h_d_r.html#a13092d6bb1fbae14e314f076d5add541" target="_top" xlink:title=" ">
<polygon fill="#fff0f0" stroke="red" points="83.5,-56.25 0,-56.25 0,-37 83.5,-37 83.5,-56.25"/>
<text text-anchor="middle" x="41.75" y="-42.75" font-family="Helvetica,sans-Serif" font-size="10.00">HDR::assemble</text>
</a>
</g>
</g>
<!-- Node1&#45;&gt;Node2 -->
<g id="edge1_Node000001_Node000002" class="edge">
<title>Node1&#45;&gt;Node2</title>
<g id="a_edge1_Node000001_Node000002"><a xlink:title=" ">
<path fill="none" stroke="#63b8ff" d="M107.81,-34.57C100.06,-36 91.85,-37.52 83.97,-38.98"/>
<polygon fill="#63b8ff" stroke="#63b8ff" points="108.44,-38.01 117.63,-32.74 107.16,-31.13 108.44,-38.01"/>
</a>
</g>
</g>
<!-- Node6 -->
<g id="Node000006" class="node">
<title>Node6</title>
<g id="a_Node000006"><a xlink:href="../../d6/d87/learning__tests_2image__aligner__tests_8cpp.html#a049e4a84796ed69fc4a3f66ba8a8f4b0" target="_top" xlink:title=" ">
<polygon fill="white" stroke="#666666" points="68.12,-19.25 15.38,-19.25 15.38,0 68.12,0 68.12,-19.25"/>
<text text-anchor="middle" x="41.75" y="-5.75" font-family="Helvetica,sans-Serif" font-size="10.00">TEST_P</text>
</a>
</g>
</g>
<!-- Node1&#45;&gt;Node6 -->
<g id="edge3_Node000001_Node000006" class="edge">
<title>Node1&#45;&gt;Node6</title>
<g id="a_edge3_Node000001_Node000006"><a xlink:title=" ">
<path fill="none" stroke="#63b8ff" d="M108.02,-21.09C94.9,-18.78 80.44,-16.24 68.48,-14.14"/>
<polygon fill="#63b8ff" stroke="#63b8ff" points="107.17,-24.49 117.63,-22.77 108.39,-17.6 107.17,-24.49"/>
</a>
</g>
</g>
<!-- Node2&#45;&gt;Node2 -->
<g id="edge2_Node000002_Node000002" class="edge">
<title>Node2&#45;&gt;Node2</title>
<g id="a_edge2_Node000002_Node000002"><a xlink:title=" ">
<path fill="none" stroke="#63b8ff" d="M60.3,-67.65C57.98,-71.53 51.8,-74.25 41.75,-74.25 23.38,-74.25 17.93,-65.15 25.39,-56.54"/>
<polygon fill="#63b8ff" stroke="#63b8ff" points="63.77,-67.16 58.4,-58.02 56.9,-68.51 63.77,-67.16"/>
</a>
</g>
</g>
</g>
</svg>
</svg>

<style type='text/css'>
<![CDATA[
[data-mouse-over-selected='false'] { opacity: 0.7; }
[data-mouse-over-selected='true']  { opacity: 1.0; }
]]>
</style>
<script type="application/ecmascript"><![CDATA[
document.addEventListener('DOMContentLoaded', (event) => {
  highlightEdges();
  highlightAdjacentNodes();
});
]]></script>
</svg>
