<?xml version="1.0" encoding="UTF-8" standalone="no"?>
<!DOCTYPE svg PUBLIC "-//W3C//DTD SVG 1.1//EN"
 "http://www.w3.org/Graphics/SVG/1.1/DTD/svg11.dtd">
<!-- Generated by graphviz version 9.0.0 (20230911.1827)
 -->
<!-- Title: src/database/database_tools/itag_info_collector.hpp Pages: 1 -->
<svg width="276pt" height="105pt"
 viewBox="0.00 0.00 276.12 105.00" xmlns="http://www.w3.org/2000/svg" xmlns:xlink="http://www.w3.org/1999/xlink">
<g id="graph0" class="graph" transform="scale(1 1) rotate(0) translate(4 101)">
<title>src/database/database_tools/itag_info_collector.hpp</title>
<!-- Node1 -->
<g id="Node000001" class="node">
<title>Node1</title>
<g id="a_Node000001"><a xlink:title=" ">
<polygon fill="#999999" stroke="#666666" points="211.88,-97 69.88,-97 69.88,-66.5 211.88,-66.5 211.88,-97"/>
<text text-anchor="start" x="77.88" y="-83.5" font-family="Helvetica,sans-Serif" font-size="10.00">src/database/database</text>
<text text-anchor="middle" x="140.88" y="-72.25" font-family="Helvetica,sans-Serif" font-size="10.00">_tools/itag_info_collector.hpp</text>
</a>
</g>
</g>
<!-- Node2 -->
<g id="Node000002" class="node">
<title>Node2</title>
<g id="a_Node000002"><a xlink:href="../../df/d46/tag__info__collector_8hpp.html" target="_top" xlink:title=" ">
<polygon fill="#fff0f0" stroke="red" points="139.75,-30.5 0,-30.5 0,0 139.75,0 139.75,-30.5"/>
<text text-anchor="start" x="8" y="-17" font-family="Helvetica,sans-Serif" font-size="10.00">src/database/database</text>
<text text-anchor="middle" x="69.88" y="-5.75" font-family="Helvetica,sans-Serif" font-size="10.00">_tools/tag_info_collector.hpp</text>
</a>
</g>
</g>
<!-- Node1&#45;&gt;Node2 -->
<g id="edge1_Node000001_Node000002" class="edge">
<title>Node1&#45;&gt;Node2</title>
<g id="a_edge1_Node000001_Node000002"><a xlink:title=" ">
<path fill="none" stroke="#63b8ff" d="M116.34,-58.46C106.27,-49.32 94.9,-38.98 85.92,-30.83"/>
<polygon fill="#63b8ff" stroke="#63b8ff" points="113.89,-60.96 123.64,-65.1 118.6,-55.78 113.89,-60.96"/>
</a>
</g>
</g>
<!-- Node10 -->
<g id="Node000010" class="node">
<title>Node10</title>
<g id="a_Node000010"><a xlink:href="../../de/d58/tag__value__model_8cpp.html" target="_top" xlink:title=" ">
<polygon fill="white" stroke="#666666" points="268.12,-30.5 157.62,-30.5 157.62,0 268.12,0 268.12,-30.5"/>
<text text-anchor="start" x="165.62" y="-17" font-family="Helvetica,sans-Serif" font-size="10.00">src/gui/desktop/utils</text>
<text text-anchor="middle" x="212.88" y="-5.75" font-family="Helvetica,sans-Serif" font-size="10.00">/tag_value_model.cpp</text>
</a>
</g>
</g>
<!-- Node1&#45;&gt;Node10 -->
<g id="edge2_Node000001_Node000010" class="edge">
<title>Node1&#45;&gt;Node10</title>
<g id="a_edge2_Node000001_Node000010"><a xlink:title=" ">
<path fill="none" stroke="#63b8ff" d="M165.75,-58.46C175.96,-49.32 187.5,-38.98 196.6,-30.83"/>
<polygon fill="#63b8ff" stroke="#63b8ff" points="163.45,-55.82 158.34,-65.1 168.12,-61.04 163.45,-55.82"/>
</a>
</g>
</g>
</g>
</svg>
