<?xml version="1.0" encoding="UTF-8" standalone="no"?>
<!DOCTYPE svg PUBLIC "-//W3C//DTD SVG 1.1//EN"
 "http://www.w3.org/Graphics/SVG/1.1/DTD/svg11.dtd">
<!-- Generated by graphviz version 7.0.5 (20221223.1930)
 -->
<!-- Title: ThumbnailGenerator Pages: 1 -->
<svg width="416pt" height="93pt"
 viewBox="0.00 0.00 415.50 93.00" xmlns="http://www.w3.org/2000/svg" xmlns:xlink="http://www.w3.org/1999/xlink">
<g id="graph0" class="graph" transform="scale(1 1) rotate(0) translate(4 89)">
<title>ThumbnailGenerator</title>
<!-- Node1 -->
<g id="node1" class="node">
<title>Node1</title>
<g id="a_node1"><a xlink:title=" ">
<polygon fill="#999999" stroke="#666666" points="250.5,-19 146.5,-19 146.5,0 250.5,0 250.5,-19"/>
<text text-anchor="middle" x="198.5" y="-7" font-family="Helvetica,sans-Serif" font-size="10.00">ThumbnailGenerator</text>
</a>
</g>
</g>
<!-- Node2 -->
<g id="node2" class="node">
<title>Node2</title>
<g id="a_node2"><a xlink:href="../../df/d64/class_i_thumbnails_generator.html" target="_top" xlink:title=" ">
<polygon fill="white" stroke="#666666" points="113,-85 0,-85 0,-66 113,-66 113,-85"/>
<text text-anchor="middle" x="56.5" y="-73" font-family="Helvetica,sans-Serif" font-size="10.00">IThumbnailsGenerator</text>
</a>
</g>
</g>
<!-- Node2&#45;&gt;Node1 -->
<g id="edge1" class="edge">
<title>Node2&#45;&gt;Node1</title>
<path fill="none" stroke="#63b8ff" d="M86.59,-60.94C114.45,-48.38 155.05,-30.08 178.92,-19.32"/>
<polygon fill="#63b8ff" stroke="#63b8ff" points="85.3,-57.68 77.62,-64.98 88.18,-64.06 85.3,-57.68"/>
</g>
<!-- Node3 -->
<g id="node3" class="node">
<title>Node3</title>
<g id="a_node3"><a xlink:href="../../df/ddd/struct_i_logger.html" target="_top" xlink:title=" ">
<polygon fill="white" stroke="#666666" points="181.5,-85 131.5,-85 131.5,-66 181.5,-66 181.5,-85"/>
<text text-anchor="middle" x="156.5" y="-73" font-family="Helvetica,sans-Serif" font-size="10.00">ILogger</text>
</a>
</g>
</g>
<!-- Node3&#45;&gt;Node1 -->
<g id="edge2" class="edge">
<title>Node3&#45;&gt;Node1</title>
<path fill="none" stroke="#9a32cd" stroke-dasharray="5,2" d="M165,-55.49C168.02,-49.4 171.63,-42.75 175.5,-37 179.71,-30.73 185.24,-24.32 189.82,-19.37"/>
<polygon fill="#9a32cd" stroke="#9a32cd" points="162.02,-53.61 160.94,-64.15 168.35,-56.58 162.02,-53.61"/>
<text text-anchor="middle" x="197" y="-40" font-family="Helvetica,sans-Serif" font-size="10.00"> m_logger</text>
</g>
<!-- Node4 -->
<g id="node4" class="node">
<title>Node4</title>
<g id="a_node4"><a xlink:href="../../d4/d93/class_exif_reader_factory.html" target="_top" xlink:title=" ">
<polygon fill="#fff0f0" stroke="red" points="295,-85 200,-85 200,-66 295,-66 295,-85"/>
<text text-anchor="middle" x="247.5" y="-73" font-family="Helvetica,sans-Serif" font-size="10.00">ExifReaderFactory</text>
</a>
</g>
</g>
<!-- Node4&#45;&gt;Node1 -->
<g id="edge3" class="edge">
<title>Node4&#45;&gt;Node1</title>
<path fill="none" stroke="#9a32cd" stroke-dasharray="5,2" d="M233.92,-56.76C224.59,-44.58 212.62,-28.94 205.26,-19.32"/>
<polygon fill="#9a32cd" stroke="#9a32cd" points="230.91,-58.59 239.77,-64.4 236.47,-54.33 230.91,-58.59"/>
<text text-anchor="middle" x="272.5" y="-40" font-family="Helvetica,sans-Serif" font-size="10.00"> m_exifReaderFactory</text>
</g>
<!-- Node6 -->
<g id="node5" class="node">
<title>Node6</title>
<g id="a_node5"><a xlink:href="../../d7/db4/struct_i_configuration.html" target="_top" xlink:title=" ">
<polygon fill="white" stroke="#666666" points="395.5,-85 319.5,-85 319.5,-66 395.5,-66 395.5,-85"/>
<text text-anchor="middle" x="357.5" y="-73" font-family="Helvetica,sans-Serif" font-size="10.00">IConfiguration</text>
</a>
</g>
</g>
<!-- Node6&#45;&gt;Node1 -->
<g id="edge4" class="edge">
<title>Node6&#45;&gt;Node1</title>
<path fill="none" stroke="#9a32cd" stroke-dasharray="5,2" d="M345.12,-56.52C339.34,-49.42 331.88,-41.82 323.5,-37 301.57,-24.4 274.39,-17.77 250.97,-14.28"/>
<polygon fill="#9a32cd" stroke="#9a32cd" points="342.19,-58.46 350.98,-64.38 347.8,-54.27 342.19,-58.46"/>
<text text-anchor="middle" x="372" y="-40" font-family="Helvetica,sans-Serif" font-size="10.00"> m_configuration</text>
</g>
</g>
</svg>
