<?xml version="1.0" encoding="UTF-8" standalone="no"?>
<!DOCTYPE svg PUBLIC "-//W3C//DTD SVG 1.1//EN"
 "http://www.w3.org/Graphics/SVG/1.1/DTD/svg11.dtd">
<!-- Generated by graphviz version 9.0.0 (20230911.1827)
 -->
<!-- Title: ThumbnailGenerator Pages: 1 -->
<svg width="414pt" height="94pt"
 viewBox="0.00 0.00 413.50 93.75" xmlns="http://www.w3.org/2000/svg" xmlns:xlink="http://www.w3.org/1999/xlink">

<svg id="main" version="1.1" xmlns="http://www.w3.org/2000/svg" xmlns:xlink="http://www.w3.org/1999/xlink" xml:space="preserve" onload="init(evt)">
<style type="text/css"><![CDATA[
.node, .edge {opacity: 0.7;}
.node.selected, .edge.selected {opacity: 1;}
.edge:hover path { stroke: red; }
.edge:hover polygon { stroke: red; fill: red; }
]]></style>
<script type="application/ecmascript" xlink:href="../../svg.min.js"/>
<svg id="graph" class="graph">
<g id="graph0" class="graph" transform="scale(1 1) rotate(0) translate(4 89.75)">
<title>ThumbnailGenerator</title>
<!-- Node1 -->
<g id="Node000001" class="node">
<title>Node1</title>
<g id="a_Node000001"><a xlink:title=" ">
<polygon fill="#999999" stroke="#666666" points="247.88,-19.25 144.12,-19.25 144.12,0 247.88,0 247.88,-19.25"/>
<text text-anchor="middle" x="196" y="-5.75" font-family="Helvetica,sans-Serif" font-size="10.00">ThumbnailGenerator</text>
</a>
</g>
</g>
<!-- Node2 -->
<g id="Node000002" class="node">
<title>Node2</title>
<g id="a_Node000002"><a xlink:href="../../df/d64/class_i_thumbnails_generator.html" target="_top" xlink:title=" ">
<polygon fill="white" stroke="#666666" points="112,-85.75 0,-85.75 0,-66.5 112,-66.5 112,-85.75"/>
<text text-anchor="middle" x="56" y="-72.25" font-family="Helvetica,sans-Serif" font-size="10.00">IThumbnailsGenerator</text>
</a>
</g>
</g>
<!-- Node2&#45;&gt;Node1 -->
<g id="edge1_Node000001_Node000002" class="edge">
<title>Node2&#45;&gt;Node1</title>
<g id="a_edge1_Node000001_Node000002"><a xlink:title=" ">
<path fill="none" stroke="#63b8ff" d="M85.92,-61.34C113.24,-48.75 152.83,-30.51 176.34,-19.68"/>
<polygon fill="#63b8ff" stroke="#63b8ff" points="84.75,-58.02 77.14,-65.39 87.68,-64.38 84.75,-58.02"/>
</a>
</g>
</g>
<!-- Node3 -->
<g id="Node000003" class="node">
<title>Node3</title>
<g id="a_Node000003"><a xlink:href="../../df/ddd/struct_i_logger.html" target="_top" xlink:title=" ">
<polygon fill="white" stroke="#666666" points="179.5,-85.75 130.5,-85.75 130.5,-66.5 179.5,-66.5 179.5,-85.75"/>
<text text-anchor="middle" x="155" y="-72.25" font-family="Helvetica,sans-Serif" font-size="10.00">ILogger</text>
</a>
</g>
</g>
<!-- Node3&#45;&gt;Node1 -->
<g id="edge2_Node000001_Node000003" class="edge">
<title>Node3&#45;&gt;Node1</title>
<g id="a_edge2_Node000001_Node000003"><a xlink:title=" ">
<path fill="none" stroke="#9a32cd" stroke-dasharray="5,2" d="M163.56,-55.97C166.58,-49.83 170.18,-43.1 174,-37.25 178.06,-31.02 183.35,-24.58 187.72,-19.59"/>
<polygon fill="#9a32cd" stroke="#9a32cd" points="160.54,-54.18 159.48,-64.72 166.88,-57.14 160.54,-54.18"/>
</a>
</g>
<text text-anchor="middle" x="195" y="-39" font-family="Helvetica,sans-Serif" font-size="10.00" fill="grey"> m_logger</text>
</g>
<!-- Node4 -->
<g id="Node000004" class="node">
<title>Node4</title>
<g id="a_Node000004"><a xlink:href="../../d4/d93/class_exif_reader_factory.html" target="_top" xlink:title=" ">
<polygon fill="#fff0f0" stroke="red" points="292.38,-85.75 197.62,-85.75 197.62,-66.5 292.38,-66.5 292.38,-85.75"/>
<text text-anchor="middle" x="245" y="-72.25" font-family="Helvetica,sans-Serif" font-size="10.00">ExifReaderFactory</text>
</a>
</g>
</g>
<!-- Node4&#45;&gt;Node1 -->
<g id="edge3_Node000001_Node000004" class="edge">
<title>Node4&#45;&gt;Node1</title>
<g id="a_edge3_Node000001_Node000004"><a xlink:title=" ">
<path fill="none" stroke="#9a32cd" stroke-dasharray="5,2" d="M231.42,-57.24C222.09,-44.97 210.12,-29.21 202.76,-19.52"/>
<polygon fill="#9a32cd" stroke="#9a32cd" points="228.43,-59.11 237.27,-64.95 234.01,-54.87 228.43,-59.11"/>
</a>
</g>
<text text-anchor="middle" x="269.88" y="-39" font-family="Helvetica,sans-Serif" font-size="10.00" fill="grey"> m_exifReaderFactory</text>
</g>
<!-- Node6 -->
<g id="Node000006" class="node">
<title>Node6</title>
<g id="a_Node000006"><a xlink:href="../../d7/db4/struct_i_configuration.html" target="_top" xlink:title=" ">
<polygon fill="white" stroke="#666666" points="392.62,-85.75 317.38,-85.75 317.38,-66.5 392.62,-66.5 392.62,-85.75"/>
<text text-anchor="middle" x="355" y="-72.25" font-family="Helvetica,sans-Serif" font-size="10.00">IConfiguration</text>
</a>
</g>
</g>
<!-- Node6&#45;&gt;Node1 -->
<g id="edge4_Node000001_Node000006" class="edge">
<title>Node6&#45;&gt;Node1</title>
<g id="a_edge4_Node000001_Node000006"><a xlink:title=" ">
<path fill="none" stroke="#9a32cd" stroke-dasharray="5,2" d="M342.65,-56.97C336.87,-49.8 329.41,-42.12 321,-37.25 299.01,-24.53 271.69,-17.86 248.2,-14.37"/>
<polygon fill="#9a32cd" stroke="#9a32cd" points="339.75,-58.94 348.51,-64.91 345.39,-54.79 339.75,-58.94"/>
</a>
</g>
<text text-anchor="middle" x="370.25" y="-39" font-family="Helvetica,sans-Serif" font-size="10.00" fill="grey"> m_configuration</text>
</g>
</g>
</svg>
</svg>

<style type='text/css'>
<![CDATA[
[data-mouse-over-selected='false'] { opacity: 0.7; }
[data-mouse-over-selected='true']  { opacity: 1.0; }
]]>
</style>
<script type="application/ecmascript"><![CDATA[
document.addEventListener('DOMContentLoaded', (event) => {
  highlightEdges();
  highlightAdjacentNodes();
});
]]></script>
</svg>
