<?xml version="1.0" encoding="UTF-8" standalone="no"?>
<!DOCTYPE svg PUBLIC "-//W3C//DTD SVG 1.1//EN"
 "http://www.w3.org/Graphics/SVG/1.1/DTD/svg11.dtd">
<!-- Generated by graphviz version 9.0.0 (20230911.1827)
 -->
<!-- Title: ThumbnailGenerator Pages: 1 -->
<svg width="367pt" height="150pt"
 viewBox="0.00 0.00 367.38 150.00" xmlns="http://www.w3.org/2000/svg" xmlns:xlink="http://www.w3.org/1999/xlink">
<g id="graph0" class="graph" transform="scale(1 1) rotate(0) translate(4 146)">
<title>ThumbnailGenerator</title>
<!-- Node1 -->
<g id="Node000001" class="node">
<title>Node1</title>
<g id="a_Node000001"><a xlink:title=" ">
<polygon fill="#999999" stroke="#666666" points="236.88,-19.25 133.12,-19.25 133.12,0 236.88,0 236.88,-19.25"/>
<text text-anchor="middle" x="185" y="-5.75" font-family="Helvetica,sans-Serif" font-size="10.00">ThumbnailGenerator</text>
</a>
</g>
</g>
<!-- Node2 -->
<g id="Node000002" class="node">
<title>Node2</title>
<g id="a_Node000002"><a xlink:href="../../df/d64/class_i_thumbnails_generator.html" target="_top" xlink:title=" ">
<polygon fill="white" stroke="#666666" points="112,-85.75 0,-85.75 0,-66.5 112,-66.5 112,-85.75"/>
<text text-anchor="middle" x="56" y="-72.25" font-family="Helvetica,sans-Serif" font-size="10.00">IThumbnailsGenerator</text>
</a>
</g>
</g>
<!-- Node2&#45;&gt;Node1 -->
<g id="edge1_Node000001_Node000002" class="edge">
<title>Node2&#45;&gt;Node1</title>
<g id="a_edge1_Node000001_Node000002"><a xlink:title=" ">
<path fill="none" stroke="#63b8ff" d="M84.24,-61C109.39,-48.43 145.41,-30.42 166.88,-19.68"/>
<polygon fill="#63b8ff" stroke="#63b8ff" points="82.94,-57.74 75.56,-65.34 86.07,-64 82.94,-57.74"/>
</a>
</g>
</g>
<!-- Node3 -->
<g id="Node000003" class="node">
<title>Node3</title>
<g id="a_Node000003"><a xlink:href="../../df/ddd/struct_i_logger.html" target="_top" xlink:title=" ">
<polygon fill="white" stroke="#666666" points="179.5,-85.75 130.5,-85.75 130.5,-66.5 179.5,-66.5 179.5,-85.75"/>
<text text-anchor="middle" x="155" y="-72.25" font-family="Helvetica,sans-Serif" font-size="10.00">ILogger</text>
</a>
</g>
</g>
<!-- Node3&#45;&gt;Node1 -->
<g id="edge2_Node000001_Node000003" class="edge">
<title>Node3&#45;&gt;Node1</title>
<g id="a_edge2_Node000001_Node000003"><a xlink:title=" ">
<path fill="none" stroke="#9a32cd" stroke-dasharray="5,2" d="M155.32,-55.09C156.02,-49.13 157.4,-42.73 160,-37.25 163.2,-30.49 168.77,-24.3 173.83,-19.6"/>
<polygon fill="#9a32cd" stroke="#9a32cd" points="151.85,-54.58 154.75,-64.76 158.83,-54.99 151.85,-54.58"/>
</a>
</g>
<text text-anchor="middle" x="181" y="-39" font-family="Helvetica,sans-Serif" font-size="10.00" fill="grey"> m_logger</text>
</g>
<!-- Node4 -->
<g id="Node000004" class="node">
<title>Node4</title>
<g id="a_Node000004"><a xlink:href="../../d4/d93/class_exif_reader_factory.html" target="_top" xlink:title=" ">
<polygon fill="white" stroke="#666666" points="359.38,-85.75 264.62,-85.75 264.62,-66.5 359.38,-66.5 359.38,-85.75"/>
<text text-anchor="middle" x="312" y="-72.25" font-family="Helvetica,sans-Serif" font-size="10.00">ExifReaderFactory</text>
</a>
</g>
</g>
<!-- Node4&#45;&gt;Node1 -->
<g id="edge3_Node000001_Node000004" class="edge">
<title>Node4&#45;&gt;Node1</title>
<g id="a_edge3_Node000001_Node000004"><a xlink:title=" ">
<path fill="none" stroke="#9a32cd" stroke-dasharray="5,2" d="M283.86,-60.83C259.13,-48.27 223.88,-30.37 202.84,-19.68"/>
<polygon fill="#9a32cd" stroke="#9a32cd" points="282.22,-63.93 292.72,-65.34 285.39,-57.69 282.22,-63.93"/>
</a>
</g>
<text text-anchor="middle" x="303.88" y="-39" font-family="Helvetica,sans-Serif" font-size="10.00" fill="grey"> m_exifReaderFactory</text>
</g>
<!-- Node5 -->
<g id="Node000005" class="node">
<title>Node5</title>
<g id="a_Node000005"><a xlink:href="../../db/d10/struct_i_exif_reader_factory.html" target="_top" xlink:title=" ">
<polygon fill="white" stroke="#666666" points="276.88,-142 179.12,-142 179.12,-122.75 276.88,-122.75 276.88,-142"/>
<text text-anchor="middle" x="228" y="-128.5" font-family="Helvetica,sans-Serif" font-size="10.00">IExifReaderFactory</text>
</a>
</g>
</g>
<!-- Node5&#45;&gt;Node1 -->
<g id="edge5_Node000001_Node000005" class="edge">
<title>Node5&#45;&gt;Node1</title>
<g id="a_edge5_Node000001_Node000005"><a xlink:title=" ">
<path fill="none" stroke="#9a32cd" stroke-dasharray="5,2" d="M224.3,-111.43C220.28,-91.96 212.92,-61.77 202,-37.25 199.23,-31.04 195.16,-24.6 191.69,-19.61"/>
<polygon fill="#9a32cd" stroke="#9a32cd" points="220.82,-111.88 226.18,-121.02 227.69,-110.54 220.82,-111.88"/>
</a>
</g>
<text text-anchor="middle" x="234.38" y="-72.25" font-family="Helvetica,sans-Serif" font-size="10.00" fill="grey"> m_exif</text>
</g>
<!-- Node5&#45;&gt;Node4 -->
<g id="edge4_Node000004_Node000005" class="edge">
<title>Node5&#45;&gt;Node4</title>
<g id="a_edge4_Node000004_Node000005"><a xlink:title=" ">
<path fill="none" stroke="#63b8ff" d="M251.51,-116.19C266.51,-106.5 285.46,-94.27 298.11,-86.1"/>
<polygon fill="#63b8ff" stroke="#63b8ff" points="249.64,-113.23 243.14,-121.6 253.44,-119.11 249.64,-113.23"/>
</a>
</g>
</g>
</g>
</svg>
