<?xml version="1.0" encoding="UTF-8" standalone="no"?>
<!DOCTYPE svg PUBLIC "-//W3C//DTD SVG 1.1//EN"
 "http://www.w3.org/Graphics/SVG/1.1/DTD/svg11.dtd">
<!-- Generated by graphviz version 12.2.0 (20241103.1931)
 -->
<!-- Title: src/gui/desktop/utils/groups_manager.cpp Pages: 1 -->
<!--zoomable 160 -->

<svg id="main" version="1.1" xmlns="http://www.w3.org/2000/svg" xmlns:xlink="http://www.w3.org/1999/xlink" xml:space="preserve" onload="init(evt)">

<style type="text/css"><![CDATA[
.node, .edge {opacity: 0.7;}
.node.selected, .edge.selected {opacity: 1;}
.edge:hover path { stroke: red; }
.edge:hover polygon { stroke: red; fill: red; }
]]></style>

<defs>
  <circle id="rim" cx="0" cy="0" r="7"/>
  <circle id="rim2" cx="0" cy="0" r="3.5"/>
  <g id="zoomPlus">
    <use xlink:href="#rim" fill="#404040"><set attributeName="fill" to="#808080" begin="zoomplus.mouseover" end="zoomplus.mouseout"/></use>
    <path d="M-4,0h8M0,-4v8" fill="none" stroke="white" stroke-width="1.5" pointer-events="none"/>
  </g>
  <g id="zoomMin">
    <use xlink:href="#rim" fill="#404040"><set attributeName="fill" to="#808080" begin="zoomminus.mouseover" end="zoomminus.mouseout"/></use>
    <path d="M-4,0h8" fill="none" stroke="white" stroke-width="1.5" pointer-events="none"/>
  </g>
  <g id="arrowUp" transform="translate(30 24)">
    <use xlink:href="#rim"/>
    <path pointer-events="none" fill="none" stroke="white" stroke-width="1.5" d="M0,-3.0v7 M-2.5,-0.5L0,-3.0L2.5,-0.5"/>
  </g>
  <g id="arrowRight" transform="rotate(90) translate(36 -43)">
    <use xlink:href="#rim"/>
    <path pointer-events="none" fill="none" stroke="white" stroke-width="1.5" d="M0,-3.0v7 M-2.5,-0.5L0,-3.0L2.5,-0.5"/>
  </g>
  <g id="arrowDown" transform="rotate(180) translate(-30 -48)">
    <use xlink:href="#rim"/>
    <path pointer-events="none" fill="none" stroke="white" stroke-width="1.5" d="M0,-3.0v7 M-2.5,-0.5L0,-3.0L2.5,-0.5"/>
  </g>
  <g id="arrowLeft" transform="rotate(270) translate(-36 17)">
    <use xlink:href="#rim"/>
    <path pointer-events="none" fill="none" stroke="white" stroke-width="1.5" d="M0,-3.0v7 M-2.5,-0.5L0,-3.0L2.5,-0.5"/>
  </g>
  <g id="resetDef">
    <use xlink:href="#rim2" fill="#404040"><set attributeName="fill" to="#808080" begin="reset.mouseover" end="reset.mouseout"/></use>
  </g>
</defs>
<script type="application/ecmascript">
var viewWidth = 1263;
var viewHeight = 160;
var sectionId = 'dynsection-0';
</script>
<script type="application/ecmascript" xlink:href="../../svg.min.js"/>
<svg id="graph" class="graph">
<g id="viewport">
<title>src/gui/desktop/utils/groups_manager.cpp</title>
<!-- Node1 -->
<g id="Node000001" class="node">
<title>Node1</title>
<g id="a_Node000001"><a xlink:title=" ">
<polygon fill="#999999" stroke="#666666" points="669.63,-152.25 560.63,-152.25 560.63,-121.75 669.63,-121.75 669.63,-152.25"/>
<text text-anchor="start" x="568.63" y="-138.75" font-family="Helvetica,sans-Serif" font-size="10.00">src/gui/desktop/utils</text>
<text text-anchor="middle" x="615.13" y="-127.5" font-family="Helvetica,sans-Serif" font-size="10.00">/groups_manager.cpp</text>
</a>
</g>
</g>
<!-- Node2 -->
<g id="Node000002" class="node">
<title>Node2</title>
<g id="a_Node000002"><a xlink:title=" ">
<polygon fill="#e0e0e0" stroke="#999999" points="112.88,-19.25 53.38,-19.25 53.38,0 112.88,0 112.88,-19.25"/>
<text text-anchor="middle" x="83.13" y="-5.75" font-family="Helvetica,sans-Serif" font-size="10.00">QPromise</text>
</a>
</g>
</g>
<!-- Node1&#45;&gt;Node2 -->
<g id="edge1_Node000001_Node000002" class="edge">
<title>Node1&#45;&gt;Node2</title>
<g id="a_edge1_Node000001_Node000002"><a xlink:title=" ">
<path fill="none" stroke="#63b8ff" d="M560.31,-135.61C417.64,-134.05 43.28,-126.09 6.13,-85.75 -3.05,-75.78 -0.64,-67 6.13,-55.25 14.26,-41.14 28.76,-31.08 42.99,-24.13"/>
<polygon fill="#63b8ff" stroke="#63b8ff" points="44.1,-27.47 51.83,-20.22 41.27,-21.07 44.1,-27.47"/>
</a>
</g>
</g>
<!-- Node3 -->
<g id="Node000003" class="node">
<title>Node3</title>
<g id="a_Node000003"><a xlink:href="../../d0/dd6/function__wrappers_8hpp.html" target="_top" xlink:title=" ">
<polygon fill="#fff0f0" stroke="red" points="150.76,-80.12 15.51,-80.12 15.51,-60.88 150.76,-60.88 150.76,-80.12"/>
<text text-anchor="middle" x="83.13" y="-66.62" font-family="Helvetica,sans-Serif" font-size="10.00">core/function_wrappers.hpp</text>
</a>
</g>
</g>
<!-- Node1&#45;&gt;Node3 -->
<g id="edge2_Node000001_Node000003" class="edge">
<title>Node1&#45;&gt;Node3</title>
<g id="a_edge2_Node000001_Node000003"><a xlink:title=" ">
<path fill="none" stroke="#63b8ff" d="M560.34,-131.25C474.69,-123.54 304.01,-106.98 160.13,-85.75 153.67,-84.8 146.92,-83.7 140.22,-82.55"/>
<polygon fill="#63b8ff" stroke="#63b8ff" points="141,-79.13 130.54,-80.83 139.78,-86.02 141,-79.13"/>
</a>
</g>
</g>
<!-- Node10 -->
<g id="Node000010" class="node">
<title>Node10</title>
<g id="a_Node000010"><a xlink:href="../../d7/d2b/idatabase_8hpp.html" target="_top" xlink:title=" ">
<polygon fill="#fff0f0" stroke="red" points="287.51,-80.12 168.76,-80.12 168.76,-60.88 287.51,-60.88 287.51,-80.12"/>
<text text-anchor="middle" x="228.13" y="-66.62" font-family="Helvetica,sans-Serif" font-size="10.00">database/idatabase.hpp</text>
</a>
</g>
</g>
<!-- Node1&#45;&gt;Node10 -->
<g id="edge4_Node000001_Node000010" class="edge">
<title>Node1&#45;&gt;Node10</title>
<g id="a_edge4_Node000001_Node000010"><a xlink:title=" ">
<path fill="none" stroke="#63b8ff" d="M560.24,-128.21C496.56,-118.98 388.5,-102.69 296.13,-85.75 291.19,-84.84 286.06,-83.86 280.93,-82.84"/>
<polygon fill="#63b8ff" stroke="#63b8ff" points="281.76,-79.43 271.27,-80.88 280.37,-86.29 281.76,-79.43"/>
</a>
</g>
</g>
<!-- Node52 -->
<g id="Node000052" class="node">
<title>Node52</title>
<g id="a_Node000052"><a xlink:href="../../d9/d8f/igroup__operator_8hpp.html" target="_top" xlink:title=" ">
<polygon fill="#fff0f0" stroke="red" points="448.88,-80.12 305.38,-80.12 305.38,-60.88 448.88,-60.88 448.88,-80.12"/>
<text text-anchor="middle" x="377.13" y="-66.62" font-family="Helvetica,sans-Serif" font-size="10.00">database/igroup_operator.hpp</text>
</a>
</g>
</g>
<!-- Node1&#45;&gt;Node52 -->
<g id="edge5_Node000001_Node000052" class="edge">
<title>Node1&#45;&gt;Node52</title>
<g id="a_edge5_Node000001_Node000052"><a xlink:title=" ">
<path fill="none" stroke="#63b8ff" d="M560.83,-121.28C518.75,-109.88 461.16,-94.27 421.75,-83.59"/>
<polygon fill="#63b8ff" stroke="#63b8ff" points="422.67,-80.21 412.1,-80.98 420.84,-86.97 422.67,-80.21"/>
</a>
</g>
</g>
<!-- Node53 -->
<g id="Node000053" class="node">
<title>Node53</title>
<g id="a_Node000053"><a xlink:href="../../d4/d3c/iphoto__operator_8hpp.html" target="_top" xlink:title=" ">
<polygon fill="#fff0f0" stroke="red" points="610.88,-80.12 467.38,-80.12 467.38,-60.88 610.88,-60.88 610.88,-80.12"/>
<text text-anchor="middle" x="539.13" y="-66.62" font-family="Helvetica,sans-Serif" font-size="10.00">database/iphoto_operator.hpp</text>
</a>
</g>
</g>
<!-- Node1&#45;&gt;Node53 -->
<g id="edge6_Node000001_Node000053" class="edge">
<title>Node1&#45;&gt;Node53</title>
<g id="a_edge6_Node000001_Node000053"><a xlink:title=" ">
<path fill="none" stroke="#63b8ff" d="M597.89,-121.36C586.02,-111.29 570.26,-97.92 558.05,-87.56"/>
<polygon fill="#63b8ff" stroke="#63b8ff" points="560.57,-85.1 550.68,-81.3 556.04,-90.44 560.57,-85.1"/>
</a>
</g>
</g>
<!-- Node57 -->
<g id="Node000057" class="node">
<title>Node57</title>
<g id="a_Node000057"><a xlink:href="../../da/d1a/photo__utils_8hpp.html" target="_top" xlink:title=" ">
<polygon fill="#fff0f0" stroke="red" points="753.13,-80.12 629.13,-80.12 629.13,-60.88 753.13,-60.88 753.13,-80.12"/>
<text text-anchor="middle" x="691.13" y="-66.62" font-family="Helvetica,sans-Serif" font-size="10.00">database/photo_utils.hpp</text>
</a>
</g>
</g>
<!-- Node1&#45;&gt;Node57 -->
<g id="edge7_Node000001_Node000057" class="edge">
<title>Node1&#45;&gt;Node57</title>
<g id="a_edge7_Node000001_Node000057"><a xlink:title=" ">
<path fill="none" stroke="#63b8ff" d="M632.38,-121.36C644.24,-111.29 660,-97.92 672.21,-87.56"/>
<polygon fill="#63b8ff" stroke="#63b8ff" points="674.22,-90.44 679.58,-81.3 669.69,-85.1 674.22,-90.44"/>
</a>
</g>
</g>
<!-- Node60 -->
<g id="Node000060" class="node">
<title>Node60</title>
<g id="a_Node000060"><a xlink:href="../../d0/d0e/misc_8hpp.html" target="_top" xlink:title=" ">
<polygon fill="#fff0f0" stroke="red" points="881.38,-80.12 770.88,-80.12 770.88,-60.88 881.38,-60.88 881.38,-80.12"/>
<text text-anchor="middle" x="826.13" y="-66.62" font-family="Helvetica,sans-Serif" font-size="10.00">project_utils/misc.hpp</text>
</a>
</g>
</g>
<!-- Node1&#45;&gt;Node60 -->
<g id="edge8_Node000001_Node000060" class="edge">
<title>Node1&#45;&gt;Node60</title>
<g id="a_edge8_Node000001_Node000060"><a xlink:title=" ">
<path fill="none" stroke="#63b8ff" d="M663.28,-121.28C700.26,-109.98 750.76,-94.54 785.68,-83.87"/>
<polygon fill="#63b8ff" stroke="#63b8ff" points="786.44,-87.29 794.98,-81.02 784.39,-80.6 786.44,-87.29"/>
</a>
</g>
</g>
<!-- Node62 -->
<g id="Node000062" class="node">
<title>Node62</title>
<g id="a_Node000062"><a xlink:href="../../dd/d90/system_8hpp.html" target="_top" xlink:title=" ">
<polygon fill="#fff0f0" stroke="red" points="999.13,-80.12 899.13,-80.12 899.13,-60.88 999.13,-60.88 999.13,-80.12"/>
<text text-anchor="middle" x="949.13" y="-66.62" font-family="Helvetica,sans-Serif" font-size="10.00">system/system.hpp</text>
</a>
</g>
</g>
<!-- Node1&#45;&gt;Node62 -->
<g id="edge9_Node000001_Node000062" class="edge">
<title>Node1&#45;&gt;Node62</title>
<g id="a_edge9_Node000001_Node000062"><a xlink:title=" ">
<path fill="none" stroke="#63b8ff" d="M670.1,-126.89C725.74,-117.45 814.17,-101.85 890.13,-85.75 893.96,-84.94 897.92,-84.06 901.89,-83.16"/>
<polygon fill="#63b8ff" stroke="#63b8ff" points="902.59,-86.59 911.54,-80.91 901,-79.77 902.59,-86.59"/>
</a>
</g>
</g>
<!-- Node64 -->
<g id="Node000064" class="node">
<title>Node64</title>
<g id="a_Node000064"><a xlink:href="../../d9/de7/collage__generator_8hpp.html" target="_top" xlink:title=" ">
<polygon fill="#fff0f0" stroke="red" points="1130.88,-85.75 1017.38,-85.75 1017.38,-55.25 1130.88,-55.25 1130.88,-85.75"/>
<text text-anchor="start" x="1025.38" y="-72.25" font-family="Helvetica,sans-Serif" font-size="10.00">utils/grouppers/collage</text>
<text text-anchor="middle" x="1074.13" y="-61" font-family="Helvetica,sans-Serif" font-size="10.00">_generator.hpp</text>
</a>
</g>
</g>
<!-- Node1&#45;&gt;Node64 -->
<g id="edge10_Node000001_Node000064" class="edge">
<title>Node1&#45;&gt;Node64</title>
<g id="a_edge10_Node000001_Node000064"><a xlink:title=" ">
<path fill="none" stroke="#63b8ff" d="M670.03,-130.48C744.04,-122.7 880.15,-107.24 1005.98,-86.03"/>
<polygon fill="#63b8ff" stroke="#63b8ff" points="1006.19,-89.54 1015.46,-84.41 1005.02,-82.64 1006.19,-89.54"/>
</a>
</g>
</g>
<!-- Node67 -->
<g id="Node000067" class="node">
<title>Node67</title>
<g id="a_Node000067"><a xlink:href="../../dc/db1/groups__manager_8hpp.html" target="_top" xlink:title=" ">
<polygon fill="#fff0f0" stroke="red" points="1255.13,-80.12 1149.13,-80.12 1149.13,-60.88 1255.13,-60.88 1255.13,-80.12"/>
<text text-anchor="middle" x="1202.13" y="-66.62" font-family="Helvetica,sans-Serif" font-size="10.00">groups_manager.hpp</text>
</a>
</g>
</g>
<!-- Node1&#45;&gt;Node67 -->
<g id="edge11_Node000001_Node000067" class="edge">
<title>Node1&#45;&gt;Node67</title>
<g id="a_edge11_Node000001_Node000067"><a xlink:title=" ">
<path fill="none" stroke="#63b8ff" d="M669.85,-133.12C765.64,-127.56 969.76,-113.36 1140.13,-85.75 1145.05,-84.95 1150.16,-84 1155.24,-82.96"/>
<polygon fill="#63b8ff" stroke="#63b8ff" points="1155.71,-86.44 1164.75,-80.91 1154.23,-79.59 1155.71,-86.44"/>
</a>
</g>
</g>
<!-- Node3&#45;&gt;Node2 -->
<g id="edge3_Node000003_Node000002" class="edge">
<title>Node3&#45;&gt;Node2</title>
<g id="a_edge3_Node000003_Node000002"><a xlink:title=" ">
<path fill="none" stroke="#63b8ff" d="M83.13,-60.56C83.13,-52.78 83.13,-41.2 83.13,-31.16"/>
<polygon fill="#63b8ff" stroke="#63b8ff" points="86.63,-31.16 83.13,-21.16 79.63,-31.16 86.63,-31.16"/>
</a>
</g>
</g>
<!-- Node67&#45;&gt;Node2 -->
<g id="edge12_Node000067_Node000002" class="edge">
<title>Node67&#45;&gt;Node2</title>
<g id="a_edge12_Node000067_Node000002"><a xlink:title=" ">
<path fill="none" stroke="#63b8ff" d="M1167.58,-60.38C1158.69,-58.36 1149.11,-56.46 1140.13,-55.25 938.6,-28.07 294.87,-14.52 124.71,-11.36"/>
<polygon fill="#63b8ff" stroke="#63b8ff" points="124.87,-7.86 114.81,-11.18 124.74,-14.86 124.87,-7.86"/>
</a>
</g>
</g>
</g>
</svg>

<g id="navigator" transform="translate(0 0)" fill="#404254">
  <rect fill="#f2f5e9" fill-opacity="0.5" stroke="#606060" stroke-width=".5" x="0" y="0" width="60" height="60"/>
  <use id="zoomplus" xlink:href="#zoomPlus" x="17" y="9" onmousedown="handleZoom(evt,'in')"/>
  <use id="zoomminus" xlink:href="#zoomMin" x="42" y="9" onmousedown="handleZoom(evt,'out')"/>
  <use id="reset" xlink:href="#resetDef" x="30" y="36" onmousedown="handleReset()"/>
   <use id="arrowup" xlink:href="#arrowUp" x="0" y="0" onmousedown="handlePan(0,-1)"/>
  <use id="arrowright" xlink:href="#arrowRight" x="0" y="0" onmousedown="handlePan(1,0)"/>
  <use id="arrowdown" xlink:href="#arrowDown" x="0" y="0" onmousedown="handlePan(0,1)"/>
  <use id="arrowleft" xlink:href="#arrowLeft" x="0" y="0" onmousedown="handlePan(-1,0)"/>
</g>
<svg viewBox="0 0 15 15" width="100%" height="30px" preserveAspectRatio="xMaxYMin meet">
 <g id="arrow_out" transform="scale(0.3 0.3)">
  <a xlink:href="groups__manager_8cpp__incl_org.svg" target="_base">
   <rect id="button" ry="5" rx="5" y="6" x="6" height="38" width="38"
        fill="#f2f5e9" fill-opacity="0.5" stroke="#606060" stroke-width="1.0"/>
   <path id="arrow"
     d="M 11.500037,31.436501 C 11.940474,20.09759 22.043105,11.32322 32.158766,21.979434 L 37.068811,17.246167 C 37.068811,17.246167 37.088388,32 37.088388,32 L 22.160133,31.978069 C 22.160133,31.978069 26.997745,27.140456 26.997745,27.140456 C 18.528582,18.264221 13.291696,25.230495 11.500037,31.436501 z"
     style="fill:#404040;"/>
  </a>
 </g>
</svg>

<style type='text/css'>
<![CDATA[
[data-mouse-over-selected='false'] { opacity: 0.7; }
[data-mouse-over-selected='true']  { opacity: 1.0; }
]]>
</style>
<script type="application/ecmascript"><![CDATA[
document.addEventListener('DOMContentLoaded', (event) => {
  highlightEdges();
  highlightAdjacentNodes();
});
]]></script>
</svg>
