<?xml version="1.0" encoding="UTF-8" standalone="no"?>
<!DOCTYPE svg PUBLIC "-//W3C//DTD SVG 1.1//EN"
 "http://www.w3.org/Graphics/SVG/1.1/DTD/svg11.dtd">
<!-- Generated by graphviz version 7.0.5 (20221223.1930)
 -->
<!-- Title: Database::APhotoChangeLogOperator Pages: 1 -->
<svg width="298pt" height="170pt"
 viewBox="0.00 0.00 298.00 170.00" xmlns="http://www.w3.org/2000/svg" xmlns:xlink="http://www.w3.org/1999/xlink">
<g id="graph0" class="graph" transform="scale(1 1) rotate(0) translate(4 166)">
<title>Database::APhotoChangeLogOperator</title>
<!-- Node1 -->
<g id="node1" class="node">
<title>Node1</title>
<g id="a_node1"><a xlink:title=" ">
<polygon fill="#999999" stroke="#666666" points="216.5,-96 72.5,-96 72.5,-66 216.5,-66 216.5,-96"/>
<text text-anchor="start" x="80.5" y="-84" font-family="Helvetica,sans-Serif" font-size="10.00">Database::APhotoChangeLog</text>
<text text-anchor="middle" x="144.5" y="-73" font-family="Helvetica,sans-Serif" font-size="10.00">Operator</text>
</a>
</g>
</g>
<!-- Node3 -->
<g id="node3" class="node">
<title>Node3</title>
<g id="a_node3"><a xlink:href="../../da/dba/class_database_1_1_memory_backend.html" target="_top" xlink:title="memory based backend">
<polygon fill="white" stroke="#666666" points="135,-24.5 0,-24.5 0,-5.5 135,-5.5 135,-24.5"/>
<text text-anchor="middle" x="67.5" y="-12.5" font-family="Helvetica,sans-Serif" font-size="10.00">Database::MemoryBackend</text>
</a>
</g>
</g>
<!-- Node1&#45;&gt;Node3 -->
<g id="edge2" class="edge">
<title>Node1&#45;&gt;Node3</title>
<path fill="none" stroke="#8b1a1a" d="M118.76,-58.6C104.91,-47.1 88.58,-33.52 78.14,-24.84"/>
<polygon fill="#8b1a1a" stroke="#8b1a1a" points="116.32,-61.13 126.25,-64.83 120.79,-55.75 116.32,-61.13"/>
</g>
<!-- Node4 -->
<g id="node4" class="node">
<title>Node4</title>
<g id="a_node4"><a xlink:href="../../d7/dfc/class_database_1_1_photo_change_log_operator.html" target="_top" xlink:title=" ">
<polygon fill="white" stroke="#666666" points="290,-30 153,-30 153,0 290,0 290,-30"/>
<text text-anchor="start" x="161" y="-18" font-family="Helvetica,sans-Serif" font-size="10.00">Database::PhotoChangeLog</text>
<text text-anchor="middle" x="221.5" y="-7" font-family="Helvetica,sans-Serif" font-size="10.00">Operator</text>
</a>
</g>
</g>
<!-- Node1&#45;&gt;Node4 -->
<g id="edge3" class="edge">
<title>Node1&#45;&gt;Node4</title>
<path fill="none" stroke="#63b8ff" d="M170.13,-58.7C181.32,-49.4 194.15,-38.73 204.19,-30.39"/>
<polygon fill="#63b8ff" stroke="#63b8ff" points="168.21,-55.75 162.75,-64.83 172.68,-61.13 168.21,-55.75"/>
</g>
<!-- Node2 -->
<g id="node2" class="node">
<title>Node2</title>
<g id="a_node2"><a xlink:href="../../db/d6b/struct_database_1_1_i_photo_change_log_operator.html" target="_top" xlink:title=" ">
<polygon fill="white" stroke="#666666" points="214.5,-162 74.5,-162 74.5,-132 214.5,-132 214.5,-162"/>
<text text-anchor="start" x="82.5" y="-150" font-family="Helvetica,sans-Serif" font-size="10.00">Database::IPhotoChangeLog</text>
<text text-anchor="middle" x="144.5" y="-139" font-family="Helvetica,sans-Serif" font-size="10.00">Operator</text>
</a>
</g>
</g>
<!-- Node2&#45;&gt;Node1 -->
<g id="edge1" class="edge">
<title>Node2&#45;&gt;Node1</title>
<path fill="none" stroke="#63b8ff" d="M144.5,-120.39C144.5,-112.13 144.5,-103.28 144.5,-96.16"/>
<polygon fill="#63b8ff" stroke="#63b8ff" points="141,-120.28 144.5,-130.28 148,-120.28 141,-120.28"/>
</g>
</g>
</svg>
