<?xml version="1.0" encoding="UTF-8" standalone="no"?>
<!DOCTYPE svg PUBLIC "-//W3C//DTD SVG 1.1//EN"
 "http://www.w3.org/Graphics/SVG/1.1/DTD/svg11.dtd">
<!-- Generated by graphviz version 9.0.0 (20230911.1827)
 -->
<!-- Title: src/database/backends/memory_backend/memory_backend.hpp Pages: 1 -->
<svg width="1067pt" height="128pt"
 viewBox="0.00 0.00 1067.25 127.50" xmlns="http://www.w3.org/2000/svg" xmlns:xlink="http://www.w3.org/1999/xlink">
<g id="graph0" class="graph" transform="scale(1 1) rotate(0) translate(4 123.5)">
<title>src/database/backends/memory_backend/memory_backend.hpp</title>
<!-- Node1 -->
<g id="Node000001" class="node">
<title>Node1</title>
<g id="a_Node000001"><a xlink:title=" ">
<polygon fill="#999999" stroke="#666666" points="597,-119.5 464,-119.5 464,-77.75 597,-77.75 597,-119.5"/>
<text text-anchor="start" x="472" y="-106" font-family="Helvetica,sans-Serif" font-size="10.00">src/database/backends</text>
<text text-anchor="start" x="472" y="-94.75" font-family="Helvetica,sans-Serif" font-size="10.00">/memory_backend/memory</text>
<text text-anchor="middle" x="530.5" y="-83.5" font-family="Helvetica,sans-Serif" font-size="10.00">_backend.hpp</text>
</a>
</g>
</g>
<!-- Node2 -->
<g id="Node000002" class="node">
<title>Node2</title>
<g id="a_Node000002"><a xlink:href="../../d4/dc0/memory__backend_8cpp.html" target="_top" xlink:title=" ">
<polygon fill="white" stroke="#666666" points="133,-41.75 0,-41.75 0,0 133,0 133,-41.75"/>
<text text-anchor="start" x="8" y="-28.25" font-family="Helvetica,sans-Serif" font-size="10.00">src/database/backends</text>
<text text-anchor="start" x="8" y="-17" font-family="Helvetica,sans-Serif" font-size="10.00">/memory_backend/memory</text>
<text text-anchor="middle" x="66.5" y="-5.75" font-family="Helvetica,sans-Serif" font-size="10.00">_backend.cpp</text>
</a>
</g>
</g>
<!-- Node1&#45;&gt;Node2 -->
<g id="edge1_Node000001_Node000002" class="edge">
<title>Node1&#45;&gt;Node2</title>
<g id="a_edge1_Node000001_Node000002"><a xlink:title=" ">
<path fill="none" stroke="#63b8ff" d="M452.38,-89.11C373.5,-79.89 248.39,-63.51 141.5,-41.75 138.86,-41.21 136.17,-40.64 133.47,-40.03"/>
<polygon fill="#63b8ff" stroke="#63b8ff" points="451.83,-92.57 462.17,-90.25 452.64,-85.62 451.83,-92.57"/>
</a>
</g>
</g>
<!-- Node3 -->
<g id="Node000003" class="node">
<title>Node3</title>
<g id="a_Node000003"><a xlink:href="../../d7/de6/json__to__backend__tests_8cpp.html" target="_top" xlink:title=" ">
<polygon fill="white" stroke="#666666" points="288.25,-36.12 150.75,-36.12 150.75,-5.62 288.25,-5.62 288.25,-36.12"/>
<text text-anchor="start" x="158.75" y="-22.62" font-family="Helvetica,sans-Serif" font-size="10.00">src/database/unit_tests</text>
<text text-anchor="middle" x="219.5" y="-11.38" font-family="Helvetica,sans-Serif" font-size="10.00">/json_to_backend_tests.cpp</text>
</a>
</g>
</g>
<!-- Node1&#45;&gt;Node3 -->
<g id="edge2_Node000001_Node000003" class="edge">
<title>Node1&#45;&gt;Node3</title>
<g id="a_edge2_Node000001_Node000003"><a xlink:title=" ">
<path fill="none" stroke="#63b8ff" d="M452.71,-79.26C407.39,-68.49 349.17,-54.53 297.5,-41.75 290.85,-40.11 283.89,-38.36 276.98,-36.62"/>
<polygon fill="#63b8ff" stroke="#63b8ff" points="451.64,-82.6 462.18,-81.51 453.26,-75.79 451.64,-82.6"/>
</a>
</g>
</g>
<!-- Node4 -->
<g id="Node000004" class="node">
<title>Node4</title>
<g id="a_Node000004"><a xlink:href="../../df/d73/memory__backend__tests_8cpp.html" target="_top" xlink:title=" ">
<polygon fill="white" stroke="#666666" points="446.75,-36.12 306.25,-36.12 306.25,-5.62 446.75,-5.62 446.75,-36.12"/>
<text text-anchor="start" x="314.25" y="-22.62" font-family="Helvetica,sans-Serif" font-size="10.00">src/database/unit_tests</text>
<text text-anchor="middle" x="376.5" y="-11.38" font-family="Helvetica,sans-Serif" font-size="10.00">/memory_backend_tests.cpp</text>
</a>
</g>
</g>
<!-- Node1&#45;&gt;Node4 -->
<g id="edge3_Node000001_Node000004" class="edge">
<title>Node1&#45;&gt;Node4</title>
<g id="a_edge3_Node000001_Node000004"><a xlink:title=" ">
<path fill="none" stroke="#63b8ff" d="M479.11,-72.35C454.87,-60.42 426.81,-46.62 406.16,-36.46"/>
<polygon fill="#63b8ff" stroke="#63b8ff" points="477.35,-75.38 487.87,-76.66 480.44,-69.1 477.35,-75.38"/>
</a>
</g>
</g>
<!-- Node5 -->
<g id="Node000005" class="node">
<title>Node5</title>
<g id="a_Node000005"><a xlink:href="../../dc/d1a/series__detector__tests_8cpp.html" target="_top" xlink:title=" ">
<polygon fill="white" stroke="#666666" points="595.88,-36.12 465.12,-36.12 465.12,-5.62 595.88,-5.62 595.88,-36.12"/>
<text text-anchor="start" x="473.12" y="-22.62" font-family="Helvetica,sans-Serif" font-size="10.00">src/database/unit_tests</text>
<text text-anchor="middle" x="530.5" y="-11.38" font-family="Helvetica,sans-Serif" font-size="10.00">/series_detector_tests.cpp</text>
</a>
</g>
</g>
<!-- Node1&#45;&gt;Node5 -->
<g id="edge4_Node000001_Node000005" class="edge">
<title>Node1&#45;&gt;Node5</title>
<g id="a_edge4_Node000001_Node000005"><a xlink:title=" ">
<path fill="none" stroke="#63b8ff" d="M530.5,-66.06C530.5,-55.69 530.5,-44.67 530.5,-36.23"/>
<polygon fill="#63b8ff" stroke="#63b8ff" points="527,-65.81 530.5,-75.81 534,-65.81 527,-65.81"/>
</a>
</g>
</g>
<!-- Node6 -->
<g id="Node000006" class="node">
<title>Node6</title>
<g id="a_Node000006"><a xlink:href="../../dd/d3a/common_8hpp.html" target="_top" xlink:title=" ">
<polygon fill="#fff0f0" stroke="red" points="752.62,-36.12 614.38,-36.12 614.38,-5.62 752.62,-5.62 752.62,-36.12"/>
<text text-anchor="start" x="622.38" y="-22.62" font-family="Helvetica,sans-Serif" font-size="10.00">src/database/unit_tests</text>
<text text-anchor="middle" x="683.5" y="-11.38" font-family="Helvetica,sans-Serif" font-size="10.00">_for_backends/common.hpp</text>
</a>
</g>
</g>
<!-- Node1&#45;&gt;Node6 -->
<g id="edge5_Node000001_Node000006" class="edge">
<title>Node1&#45;&gt;Node6</title>
<g id="a_edge5_Node000001_Node000006"><a xlink:title=" ">
<path fill="none" stroke="#63b8ff" d="M581.56,-72.35C605.64,-60.42 633.52,-46.62 654.03,-36.46"/>
<polygon fill="#63b8ff" stroke="#63b8ff" points="580.27,-69.08 572.86,-76.65 583.37,-75.35 580.27,-69.08"/>
</a>
</g>
</g>
<!-- Node18 -->
<g id="Node000018" class="node">
<title>Node18</title>
<g id="a_Node000018"><a xlink:href="../../d2/dca/aphoto__data__model__tests_8cpp.html" target="_top" xlink:title=" ">
<polygon fill="white" stroke="#666666" points="904,-41.75 771,-41.75 771,0 904,0 904,-41.75"/>
<text text-anchor="start" x="779" y="-28.25" font-family="Helvetica,sans-Serif" font-size="10.00">src/gui/unit_tests</text>
<text text-anchor="start" x="779" y="-17" font-family="Helvetica,sans-Serif" font-size="10.00">/model/aphoto_data_model</text>
<text text-anchor="middle" x="837.5" y="-5.75" font-family="Helvetica,sans-Serif" font-size="10.00">_tests.cpp</text>
</a>
</g>
</g>
<!-- Node1&#45;&gt;Node18 -->
<g id="edge6_Node000001_Node000018" class="edge">
<title>Node1&#45;&gt;Node18</title>
<g id="a_edge6_Node000001_Node000018"><a xlink:title=" ">
<path fill="none" stroke="#63b8ff" d="M608.41,-79.16C653.24,-68.44 710.6,-54.56 761.5,-41.75 764.54,-40.98 767.65,-40.2 770.79,-39.39"/>
<polygon fill="#63b8ff" stroke="#63b8ff" points="607.68,-75.73 598.77,-81.46 609.31,-82.54 607.68,-75.73"/>
</a>
</g>
</g>
<!-- Node19 -->
<g id="Node000019" class="node">
<title>Node19</title>
<g id="a_Node000019"><a xlink:href="../../d1/dc2/flat__model__tests_8cpp.html" target="_top" xlink:title=" ">
<polygon fill="white" stroke="#666666" points="1059.25,-36.12 921.75,-36.12 921.75,-5.62 1059.25,-5.62 1059.25,-36.12"/>
<text text-anchor="start" x="929.75" y="-22.62" font-family="Helvetica,sans-Serif" font-size="10.00">src/gui/unit_tests</text>
<text text-anchor="middle" x="990.5" y="-11.38" font-family="Helvetica,sans-Serif" font-size="10.00">/model/flat_model_tests.cpp</text>
</a>
</g>
</g>
<!-- Node1&#45;&gt;Node19 -->
<g id="edge7_Node000001_Node000019" class="edge">
<title>Node1&#45;&gt;Node19</title>
<g id="a_edge7_Node000001_Node000019"><a xlink:title=" ">
<path fill="none" stroke="#63b8ff" d="M608.43,-88.75C686.12,-79.32 808.65,-62.87 913.5,-41.75 920.94,-40.25 928.74,-38.48 936.4,-36.62"/>
<polygon fill="#63b8ff" stroke="#63b8ff" points="608.31,-85.24 598.8,-89.91 609.15,-92.19 608.31,-85.24"/>
</a>
</g>
</g>
</g>
</svg>
