<?xml version="1.0" encoding="UTF-8" standalone="no"?>
<!DOCTYPE svg PUBLIC "-//W3C//DTD SVG 1.1//EN"
 "http://www.w3.org/Graphics/SVG/1.1/DTD/svg11.dtd">
<!-- Generated by graphviz version 12.2.0 (20241103.1931)
 -->
<!-- Title: src/database/person_data.hpp Pages: 1 -->
<svg width="429pt" height="149pt"
 viewBox="0.00 0.00 429.00 149.00" xmlns="http://www.w3.org/2000/svg" xmlns:xlink="http://www.w3.org/1999/xlink">
<g id="graph0" class="graph" transform="scale(1 1) rotate(0) translate(4 145)">
<title>src/database/person_data.hpp</title>
<!-- Node1 -->
<g id="Node000001" class="node">
<title>Node1</title>
<g id="a_Node000001"><a xlink:title=" ">
<polygon fill="#999999" stroke="#666666" points="265.38,-141 160.88,-141 160.88,-110.5 265.38,-110.5 265.38,-141"/>
<text text-anchor="start" x="168.88" y="-127.5" font-family="Helvetica,sans-Serif" font-size="10.00">src/database/person</text>
<text text-anchor="middle" x="213.12" y="-116.25" font-family="Helvetica,sans-Serif" font-size="10.00">_data.hpp</text>
</a>
</g>
</g>
<!-- Node2 -->
<g id="Node000002" class="node">
<title>Node2</title>
<g id="a_Node000002"><a xlink:title=" ">
<polygon fill="#e0e0e0" stroke="#999999" points="66.25,-19.25 0,-19.25 0,0 66.25,0 66.25,-19.25"/>
<text text-anchor="middle" x="33.12" y="-5.75" font-family="Helvetica,sans-Serif" font-size="10.00">QMetaType</text>
</a>
</g>
</g>
<!-- Node1&#45;&gt;Node2 -->
<g id="edge1_Node000001_Node000002" class="edge">
<title>Node1&#45;&gt;Node2</title>
<g id="a_edge1_Node000001_Node000002"><a xlink:title=" ">
<path fill="none" stroke="#63b8ff" d="M160.68,-111.88C135.29,-103.92 105.35,-91.84 82.12,-74.5 65.88,-62.37 52.32,-43.49 43.61,-29.39"/>
<polygon fill="#63b8ff" stroke="#63b8ff" points="46.78,-27.89 38.7,-21.04 40.75,-31.44 46.78,-27.89"/>
</a>
</g>
</g>
<!-- Node3 -->
<g id="Node000003" class="node">
<title>Node3</title>
<g id="a_Node000003"><a xlink:title=" ">
<polygon fill="#e0e0e0" stroke="#999999" points="342.62,-19.25 293.62,-19.25 293.62,0 342.62,0 342.62,-19.25"/>
<text text-anchor="middle" x="318.12" y="-5.75" font-family="Helvetica,sans-Serif" font-size="10.00">QString</text>
</a>
</g>
</g>
<!-- Node1&#45;&gt;Node3 -->
<g id="edge2_Node000001_Node000003" class="edge">
<title>Node1&#45;&gt;Node3</title>
<g id="a_edge2_Node000001_Node000003"><a xlink:title=" ">
<path fill="none" stroke="#63b8ff" d="M224.16,-110.16C235.26,-95.76 253.13,-73.33 270.12,-55.25 279.36,-45.42 290.33,-35.13 299.45,-26.91"/>
<polygon fill="#63b8ff" stroke="#63b8ff" points="301.54,-29.74 306.69,-20.48 296.89,-24.51 301.54,-29.74"/>
</a>
</g>
</g>
<!-- Node4 -->
<g id="Node000004" class="node">
<title>Node4</title>
<g id="a_Node000004"><a xlink:title=" ">
<polygon fill="#e0e0e0" stroke="#999999" points="421,-19.25 377.25,-19.25 377.25,0 421,0 421,-19.25"/>
<text text-anchor="middle" x="399.12" y="-5.75" font-family="Helvetica,sans-Serif" font-size="10.00">QRect</text>
</a>
</g>
</g>
<!-- Node1&#45;&gt;Node4 -->
<g id="edge3_Node000001_Node000004" class="edge">
<title>Node1&#45;&gt;Node4</title>
<g id="a_edge3_Node000001_Node000004"><a xlink:title=" ">
<path fill="none" stroke="#63b8ff" d="M265.69,-117.57C314.46,-109.72 381.89,-95.39 398.12,-74.5 407.61,-62.3 407.06,-44.45 404.6,-30.73"/>
<polygon fill="#63b8ff" stroke="#63b8ff" points="408.02,-29.99 402.37,-21.03 401.2,-31.56 408.02,-29.99"/>
</a>
</g>
</g>
<!-- Node5 -->
<g id="Node000005" class="node">
<title>Node5</title>
<g id="a_Node000005"><a xlink:href="../../db/db3/id_8hpp.html" target="_top" xlink:title=" ">
<polygon fill="#fff0f0" stroke="red" points="147.75,-19.25 84.5,-19.25 84.5,0 147.75,0 147.75,-19.25"/>
<text text-anchor="middle" x="116.12" y="-5.75" font-family="Helvetica,sans-Serif" font-size="10.00">core/id.hpp</text>
</a>
</g>
</g>
<!-- Node1&#45;&gt;Node5 -->
<g id="edge4_Node000001_Node000005" class="edge">
<title>Node1&#45;&gt;Node5</title>
<g id="a_edge4_Node000001_Node000005"><a xlink:title=" ">
<path fill="none" stroke="#63b8ff" d="M160.52,-117.14C134.72,-110.47 105.88,-97.96 90.12,-74.5 80.46,-60.1 90.05,-41.55 100.21,-28.15"/>
<polygon fill="#63b8ff" stroke="#63b8ff" points="102.78,-30.54 106.47,-20.61 97.39,-26.07 102.78,-30.54"/>
</a>
</g>
</g>
<!-- Node8 -->
<g id="Node000008" class="node">
<title>Node8</title>
<g id="a_Node000008"><a xlink:href="../../df/d30/qt__operators_8hpp.html" target="_top" xlink:title=" ">
<polygon fill="#fff0f0" stroke="red" points="389,-74.5 279.25,-74.5 279.25,-55.25 389,-55.25 389,-74.5"/>
<text text-anchor="middle" x="334.12" y="-61" font-family="Helvetica,sans-Serif" font-size="10.00">core/qt_operators.hpp</text>
</a>
</g>
</g>
<!-- Node1&#45;&gt;Node8 -->
<g id="edge5_Node000001_Node000008" class="edge">
<title>Node1&#45;&gt;Node8</title>
<g id="a_edge5_Node000001_Node000008"><a xlink:title=" ">
<path fill="none" stroke="#63b8ff" d="M243.35,-110.05C262.31,-100.82 286.61,-89 305.3,-79.9"/>
<polygon fill="#63b8ff" stroke="#63b8ff" points="306.75,-83.09 314.21,-75.57 303.68,-76.79 306.75,-83.09"/>
</a>
</g>
</g>
<!-- Node10 -->
<g id="Node000010" class="node">
<title>Node10</title>
<g id="a_Node000010"><a xlink:href="../../dc/d82/photo__types_8hpp.html" target="_top" xlink:title=" ">
<polygon fill="#fff0f0" stroke="red" points="185.38,-74.5 98.88,-74.5 98.88,-55.25 185.38,-55.25 185.38,-74.5"/>
<text text-anchor="middle" x="142.12" y="-61" font-family="Helvetica,sans-Serif" font-size="10.00">photo_types.hpp</text>
</a>
</g>
</g>
<!-- Node1&#45;&gt;Node10 -->
<g id="edge8_Node000001_Node000010" class="edge">
<title>Node1&#45;&gt;Node10</title>
<g id="a_edge8_Node000001_Node000010"><a xlink:title=" ">
<path fill="none" stroke="#63b8ff" d="M195.57,-110.2C185.28,-101.66 172.26,-90.87 161.65,-82.06"/>
<polygon fill="#63b8ff" stroke="#63b8ff" points="164.17,-79.61 154.24,-75.92 159.7,-84.99 164.17,-79.61"/>
</a>
</g>
</g>
<!-- Node15 -->
<g id="Node000015" class="node">
<title>Node15</title>
<g id="a_Node000015"><a xlink:title=" ">
<polygon fill="#e0e0e0" stroke="#999999" points="260.5,-19.25 165.75,-19.25 165.75,0 260.5,0 260.5,-19.25"/>
<text text-anchor="middle" x="213.12" y="-5.75" font-family="Helvetica,sans-Serif" font-size="10.00">database_export.h</text>
</a>
</g>
</g>
<!-- Node1&#45;&gt;Node15 -->
<g id="edge12_Node000001_Node000015" class="edge">
<title>Node1&#45;&gt;Node15</title>
<g id="a_edge12_Node000001_Node000015"><a xlink:title=" ">
<path fill="none" stroke="#63b8ff" d="M213.12,-110.3C213.12,-90.25 213.12,-53.9 213.12,-31.07"/>
<polygon fill="#63b8ff" stroke="#63b8ff" points="216.63,-31.21 213.13,-21.21 209.63,-31.21 216.63,-31.21"/>
</a>
</g>
</g>
<!-- Node8&#45;&gt;Node3 -->
<g id="edge7_Node000008_Node000003" class="edge">
<title>Node8&#45;&gt;Node3</title>
<g id="a_edge7_Node000008_Node000003"><a xlink:title=" ">
<path fill="none" stroke="#63b8ff" d="M331.48,-55.08C329.48,-48.42 326.65,-38.99 324.11,-30.53"/>
<polygon fill="#63b8ff" stroke="#63b8ff" points="327.49,-29.63 321.26,-21.06 320.79,-31.64 327.49,-29.63"/>
</a>
</g>
</g>
<!-- Node8&#45;&gt;Node4 -->
<g id="edge6_Node000008_Node000004" class="edge">
<title>Node8&#45;&gt;Node4</title>
<g id="a_edge6_Node000008_Node000004"><a xlink:title=" ">
<path fill="none" stroke="#63b8ff" d="M345.15,-54.84C354.55,-47.15 368.27,-35.9 379.53,-26.68"/>
<polygon fill="#63b8ff" stroke="#63b8ff" points="381.57,-29.53 387.09,-20.48 377.14,-24.11 381.57,-29.53"/>
</a>
</g>
</g>
<!-- Node10&#45;&gt;Node2 -->
<g id="edge9_Node000010_Node000002" class="edge">
<title>Node10&#45;&gt;Node2</title>
<g id="a_edge9_Node000010_Node000002"><a xlink:title=" ">
<path fill="none" stroke="#63b8ff" d="M123.63,-54.84C106.72,-46.58 81.44,-34.23 61.89,-24.68"/>
<polygon fill="#63b8ff" stroke="#63b8ff" points="63.59,-21.61 53.07,-20.37 60.51,-27.9 63.59,-21.61"/>
</a>
</g>
</g>
<!-- Node10&#45;&gt;Node5 -->
<g id="edge11_Node000010_Node000005" class="edge">
<title>Node10&#45;&gt;Node5</title>
<g id="a_edge11_Node000010_Node000005"><a xlink:title=" ">
<path fill="none" stroke="#63b8ff" d="M137.83,-55.08C134.5,-48.26 129.76,-38.56 125.56,-29.95"/>
<polygon fill="#63b8ff" stroke="#63b8ff" points="128.71,-28.42 121.18,-20.97 122.42,-31.49 128.71,-28.42"/>
</a>
</g>
</g>
<!-- Node10&#45;&gt;Node15 -->
<g id="edge10_Node000010_Node000015" class="edge">
<title>Node10&#45;&gt;Node15</title>
<g id="a_edge10_Node000010_Node000015"><a xlink:title=" ">
<path fill="none" stroke="#63b8ff" d="M154.17,-54.84C164.53,-47.07 179.73,-35.67 192.09,-26.4"/>
<polygon fill="#63b8ff" stroke="#63b8ff" points="194.15,-29.23 200.05,-20.43 189.95,-23.63 194.15,-29.23"/>
</a>
</g>
</g>
</g>
</svg>
