<?xml version="1.0" encoding="UTF-8" standalone="no"?>
<!DOCTYPE svg PUBLIC "-//W3C//DTD SVG 1.1//EN"
 "http://www.w3.org/Graphics/SVG/1.1/DTD/svg11.dtd">
<!-- Generated by graphviz version 12.2.0 (20241103.1931)
 -->
<!-- Title: IConfiguration::getEntry Pages: 1 -->
<svg width="332pt" height="150pt"
 viewBox="0.00 0.00 331.75 149.88" xmlns="http://www.w3.org/2000/svg" xmlns:xlink="http://www.w3.org/1999/xlink">

<svg id="main" version="1.1" xmlns="http://www.w3.org/2000/svg" xmlns:xlink="http://www.w3.org/1999/xlink" xml:space="preserve">

<style type="text/css"><![CDATA[
.node, .edge {opacity: 0.7;}
.node.selected, .edge.selected {opacity: 1;}
.edge:hover path { stroke: red; }
.edge:hover polygon { stroke: red; fill: red; }
]]></style>
<script type="application/ecmascript" xlink:href="../../svg.min.js"/>
<svg id="graph" class="graph">
<g id="graph0" class="graph" transform="scale(1 1) rotate(0) translate(4 145.88)">
<title>IConfiguration::getEntry</title>
<!-- Node1 -->
<g id="Node000001" class="node">
<title>Node1</title>
<g id="a_Node000001"><a xlink:title=" ">
<polygon fill="#999999" stroke="#666666" points="323.75,-74.25 208.75,-74.25 208.75,-55 323.75,-55 323.75,-74.25"/>
<text text-anchor="middle" x="266.25" y="-60.75" font-family="Helvetica,sans-Serif" font-size="10.00">IConfiguration::getEntry</text>
</a>
</g>
</g>
<!-- Node2 -->
<g id="Node000002" class="node">
<title>Node2</title>
<g id="a_Node000002"><a xlink:href="../../d4/d11/class_main_tab_controller.html#a8f040f78fc910bf86c301f66453df570" target="_top" xlink:title=" ">
<polygon fill="white" stroke="#666666" points="136,-141.88 36.75,-141.88 36.75,-111.38 136,-111.38 136,-141.88"/>
<text text-anchor="start" x="44.75" y="-128.38" font-family="Helvetica,sans-Serif" font-size="10.00">MainTabController::</text>
<text text-anchor="middle" x="86.38" y="-117.12" font-family="Helvetica,sans-Serif" font-size="10.00">constructTab</text>
</a>
</g>
</g>
<!-- Node1&#45;&gt;Node2 -->
<g id="edge1_Node000001_Node000002" class="edge">
<title>Node1&#45;&gt;Node2</title>
<g id="a_edge1_Node000001_Node000002"><a xlink:title=" ">
<path fill="none" stroke="#63b8ff" d="M232.45,-79.18C214.92,-86.69 192.87,-95.69 172.75,-102.62 161.11,-106.64 148.4,-110.49 136.44,-113.88"/>
<polygon fill="#63b8ff" stroke="#63b8ff" points="233.55,-82.52 241.33,-75.34 230.77,-76.1 233.55,-82.52"/>
</a>
</g>
</g>
<!-- Node3 -->
<g id="Node000003" class="node">
<title>Node3</title>
<g id="a_Node000003"><a xlink:href="../../d9/d03/class_my_sql_server.html#a78c509c67fe9febe29d735d9a5115e03" target="_top" xlink:title=" ">
<polygon fill="#fff0f0" stroke="red" points="159.25,-93.25 13.5,-93.25 13.5,-74 159.25,-74 159.25,-93.25"/>
<text text-anchor="middle" x="86.38" y="-79.75" font-family="Helvetica,sans-Serif" font-size="10.00">MySqlServer::getDaemonPath</text>
</a>
</g>
</g>
<!-- Node1&#45;&gt;Node3 -->
<g id="edge2_Node000001_Node000003" class="edge">
<title>Node1&#45;&gt;Node3</title>
<g id="a_edge2_Node000001_Node000003"><a xlink:title=" ">
<path fill="none" stroke="#63b8ff" d="M197.32,-71.88C184.96,-73.2 172.03,-74.58 159.56,-75.91"/>
<polygon fill="#63b8ff" stroke="#63b8ff" points="197.4,-75.39 206.98,-70.85 196.66,-68.43 197.4,-75.39"/>
</a>
</g>
</g>
<!-- Node5 -->
<g id="Node000005" class="node">
<title>Node5</title>
<g id="a_Node000005"><a xlink:href="../../d9/dc6/class_main_window.html#a78c10e6e8b4303c3bacd5b0761495e86" target="_top" xlink:title=" ">
<polygon fill="#fff0f0" stroke="red" points="172.75,-56.25 0,-56.25 0,-37 172.75,-37 172.75,-56.25"/>
<text text-anchor="middle" x="86.38" y="-42.75" font-family="Helvetica,sans-Serif" font-size="10.00">MainWindow::loadRecentCollections</text>
</a>
</g>
</g>
<!-- Node1&#45;&gt;Node5 -->
<g id="edge3_Node000001_Node000005" class="edge">
<title>Node1&#45;&gt;Node5</title>
<g id="a_edge3_Node000001_Node000005"><a xlink:title=" ">
<path fill="none" stroke="#63b8ff" d="M197.14,-57.73C189.27,-56.94 181.17,-56.12 173.1,-55.3"/>
<polygon fill="#63b8ff" stroke="#63b8ff" points="196.67,-61.2 206.97,-58.73 197.38,-54.24 196.67,-61.2"/>
</a>
</g>
</g>
<!-- Node8 -->
<g id="Node000008" class="node">
<title>Node8</title>
<g id="a_Node000008"><a xlink:href="../../d9/dc6/class_main_window.html#a324bf4dc935b55a376a182ea06f2e16d" target="_top" xlink:title=" ">
<polygon fill="white" stroke="#666666" points="131.12,-19.25 41.62,-19.25 41.62,0 131.12,0 131.12,-19.25"/>
<text text-anchor="middle" x="86.38" y="-5.75" font-family="Helvetica,sans-Serif" font-size="10.00">MainWindow::set</text>
</a>
</g>
</g>
<!-- Node1&#45;&gt;Node8 -->
<g id="edge4_Node000001_Node000008" class="edge">
<title>Node1&#45;&gt;Node8</title>
<g id="a_edge4_Node000001_Node000008"><a xlink:title=" ">
<path fill="none" stroke="#63b8ff" d="M232.94,-50.11C215.4,-42.63 193.18,-33.81 172.75,-27.62 159.56,-23.63 144.96,-20.2 131.61,-17.44"/>
<polygon fill="#63b8ff" stroke="#63b8ff" points="231.25,-53.19 241.82,-53.95 234.03,-46.76 231.25,-53.19"/>
</a>
</g>
</g>
</g>
</svg>
</svg>

<style type='text/css'>
<![CDATA[
[data-mouse-over-selected='false'] { opacity: 0.7; }
[data-mouse-over-selected='true']  { opacity: 1.0; }
]]>
</style>
<script type="application/ecmascript"><![CDATA[
document.addEventListener('DOMContentLoaded', (event) => {
  highlightEdges();
  highlightAdjacentNodes();
});
]]></script>
</svg>
