<?xml version="1.0" encoding="UTF-8" standalone="no"?>
<!DOCTYPE svg PUBLIC "-//W3C//DTD SVG 1.1//EN"
 "http://www.w3.org/Graphics/SVG/1.1/DTD/svg11.dtd">
<!-- Generated by graphviz version 12.2.0 (20241103.1931)
 -->
<!-- Title: src/core/image_tools.hpp Pages: 1 -->
<svg width="657pt" height="105pt"
 viewBox="0.00 0.00 656.75 105.00" xmlns="http://www.w3.org/2000/svg" xmlns:xlink="http://www.w3.org/1999/xlink">
<g id="graph0" class="graph" transform="scale(1 1) rotate(0) translate(4 101)">
<title>src/core/image_tools.hpp</title>
<!-- Node1 -->
<g id="Node000001" class="node">
<title>Node1</title>
<g id="a_Node000001"><a xlink:title=" ">
<polygon fill="#999999" stroke="#666666" points="398.5,-97 273.75,-97 273.75,-77.75 398.5,-77.75 398.5,-97"/>
<text text-anchor="middle" x="336.12" y="-83.5" font-family="Helvetica,sans-Serif" font-size="10.00">src/core/image_tools.hpp</text>
</a>
</g>
</g>
<!-- Node2 -->
<g id="Node000002" class="node">
<title>Node2</title>
<g id="a_Node000002"><a xlink:href="../../d4/d70/image__tools_8cpp.html" target="_top" xlink:title=" ">
<polygon fill="white" stroke="#666666" points="120.25,-36.12 0,-36.12 0,-5.62 120.25,-5.62 120.25,-36.12"/>
<text text-anchor="start" x="8" y="-22.62" font-family="Helvetica,sans-Serif" font-size="10.00">src/core/implementation</text>
<text text-anchor="middle" x="60.12" y="-11.38" font-family="Helvetica,sans-Serif" font-size="10.00">/image_tools.cpp</text>
</a>
</g>
</g>
<!-- Node1&#45;&gt;Node2 -->
<g id="edge1_Node000001_Node000002" class="edge">
<title>Node1&#45;&gt;Node2</title>
<g id="a_edge1_Node000001_Node000002"><a xlink:title=" ">
<path fill="none" stroke="#63b8ff" d="M278.86,-74.98C237.4,-66.49 180.1,-54.24 130.12,-41.75 123.75,-40.16 117.08,-38.39 110.49,-36.59"/>
<polygon fill="#63b8ff" stroke="#63b8ff" points="278.13,-78.41 288.63,-76.97 279.53,-71.55 278.13,-78.41"/>
</a>
</g>
</g>
<!-- Node3 -->
<g id="Node000003" class="node">
<title>Node3</title>
<g id="a_Node000003"><a xlink:href="../../d1/d26/thumbnail__generator_8cpp.html" target="_top" xlink:title=" ">
<polygon fill="white" stroke="#666666" points="263.5,-36.12 138.75,-36.12 138.75,-5.62 263.5,-5.62 263.5,-36.12"/>
<text text-anchor="start" x="146.75" y="-22.62" font-family="Helvetica,sans-Serif" font-size="10.00">src/core/implementation</text>
<text text-anchor="middle" x="201.12" y="-11.38" font-family="Helvetica,sans-Serif" font-size="10.00">/thumbnail_generator.cpp</text>
</a>
</g>
</g>
<!-- Node1&#45;&gt;Node3 -->
<g id="edge2_Node000001_Node000003" class="edge">
<title>Node1&#45;&gt;Node3</title>
<g id="a_edge2_Node000001_Node000003"><a xlink:title=" ">
<path fill="none" stroke="#63b8ff" d="M306.91,-72.42C284.73,-61.82 254.31,-47.29 231.79,-36.52"/>
<polygon fill="#63b8ff" stroke="#63b8ff" points="305.17,-75.47 315.7,-76.62 308.19,-69.15 305.17,-75.47"/>
</a>
</g>
</g>
<!-- Node4 -->
<g id="Node000004" class="node">
<title>Node4</title>
<g id="a_Node000004"><a xlink:href="../../da/dec/face__recognition_8cpp.html" target="_top" xlink:title=" ">
<polygon fill="white" stroke="#666666" points="390.25,-36.12 282,-36.12 282,-5.62 390.25,-5.62 390.25,-36.12"/>
<text text-anchor="start" x="290" y="-22.62" font-family="Helvetica,sans-Serif" font-size="10.00">src/face_recognition</text>
<text text-anchor="middle" x="336.12" y="-11.38" font-family="Helvetica,sans-Serif" font-size="10.00">/face_recognition.cpp</text>
</a>
</g>
</g>
<!-- Node1&#45;&gt;Node4 -->
<g id="edge3_Node000001_Node000004" class="edge">
<title>Node1&#45;&gt;Node4</title>
<g id="a_edge3_Node000001_Node000004"><a xlink:title=" ">
<path fill="none" stroke="#63b8ff" d="M336.12,-65.99C336.12,-56.31 336.12,-44.98 336.12,-36.22"/>
<polygon fill="#63b8ff" stroke="#63b8ff" points="332.63,-65.89 336.13,-75.89 339.63,-65.89 332.63,-65.89"/>
</a>
</g>
</g>
<!-- Node5 -->
<g id="Node000005" class="node">
<title>Node5</title>
<g id="a_Node000005"><a xlink:href="../../d4/df8/faces__model_8cpp.html" target="_top" xlink:title=" ">
<polygon fill="white" stroke="#666666" points="525.75,-36.12 408.5,-36.12 408.5,-5.62 525.75,-5.62 525.75,-36.12"/>
<text text-anchor="start" x="416.5" y="-22.62" font-family="Helvetica,sans-Serif" font-size="10.00">src/gui/desktop/models</text>
<text text-anchor="middle" x="467.12" y="-11.38" font-family="Helvetica,sans-Serif" font-size="10.00">/faces_model.cpp</text>
</a>
</g>
</g>
<!-- Node1&#45;&gt;Node5 -->
<g id="edge4_Node000001_Node000005" class="edge">
<title>Node1&#45;&gt;Node5</title>
<g id="a_edge4_Node000001_Node000005"><a xlink:title=" ">
<path fill="none" stroke="#63b8ff" d="M364.8,-72.26C386.38,-61.63 415.85,-47.12 437.62,-36.4"/>
<polygon fill="#63b8ff" stroke="#63b8ff" points="363.4,-69.04 355.97,-76.6 366.49,-75.32 363.4,-69.04"/>
</a>
</g>
</g>
<!-- Node6 -->
<g id="Node000006" class="node">
<title>Node6</title>
<g id="a_Node000006"><a xlink:href="../../d2/df7/generator__utils_8cpp.html" target="_top" xlink:title=" ">
<polygon fill="white" stroke="#666666" points="648.75,-41.75 543.5,-41.75 543.5,0 648.75,0 648.75,-41.75"/>
<text text-anchor="start" x="551.5" y="-28.25" font-family="Helvetica,sans-Serif" font-size="10.00">src/gui/desktop/utils</text>
<text text-anchor="start" x="551.5" y="-17" font-family="Helvetica,sans-Serif" font-size="10.00">/grouppers/generator</text>
<text text-anchor="middle" x="596.12" y="-5.75" font-family="Helvetica,sans-Serif" font-size="10.00">_utils.cpp</text>
</a>
</g>
</g>
<!-- Node1&#45;&gt;Node6 -->
<g id="edge5_Node000001_Node000006" class="edge">
<title>Node1&#45;&gt;Node6</title>
<g id="a_edge5_Node000001_Node000006"><a xlink:title=" ">
<path fill="none" stroke="#63b8ff" d="M393.4,-75.03C433.36,-66.75 487.79,-54.74 535.12,-41.75 537.81,-41.01 540.55,-40.23 543.32,-39.42"/>
<polygon fill="#63b8ff" stroke="#63b8ff" points="392.85,-71.57 383.75,-77.01 394.25,-78.42 392.85,-71.57"/>
</a>
</g>
</g>
</g>
</svg>
