<?xml version="1.0" encoding="UTF-8" standalone="no"?>
<!DOCTYPE svg PUBLIC "-//W3C//DTD SVG 1.1//EN"
 "http://www.w3.org/Graphics/SVG/1.1/DTD/svg11.dtd">
<!-- Generated by graphviz version 7.0.5 (20221223.1930)
 -->
<!-- Title: Database::MemoryBackend::Impl Pages: 1 -->
<svg width="348pt" height="115pt"
 viewBox="0.00 0.00 348.00 115.00" xmlns="http://www.w3.org/2000/svg" xmlns:xlink="http://www.w3.org/1999/xlink">
<g id="graph0" class="graph" transform="scale(1 1) rotate(0) translate(4 111)">
<title>Database::MemoryBackend::Impl</title>
<!-- Node1 -->
<g id="node1" class="node">
<title>Node1</title>
<g id="a_node1"><a xlink:title=" ">
<polygon fill="#999999" stroke="#666666" points="242,-30 107,-30 107,0 242,0 242,-30"/>
<text text-anchor="start" x="115" y="-18" font-family="Helvetica,sans-Serif" font-size="10.00">Database::MemoryBackend</text>
<text text-anchor="middle" x="174.5" y="-7" font-family="Helvetica,sans-Serif" font-size="10.00">::Impl</text>
</a>
</g>
</g>
<!-- Node2 -->
<g id="node2" class="node">
<title>Node2</title>
<g id="a_node2"><a xlink:href="../../d2/deb/class_database_1_1_notifications_accumulator.html" target="_top" xlink:title=" ">
<polygon fill="#fff0f0" stroke="red" points="171,-101.5 0,-101.5 0,-82.5 171,-82.5 171,-101.5"/>
<text text-anchor="middle" x="85.5" y="-89.5" font-family="Helvetica,sans-Serif" font-size="10.00">Database::NotificationsAccumulator</text>
</a>
</g>
</g>
<!-- Node2&#45;&gt;Node1 -->
<g id="edge1" class="edge">
<title>Node2&#45;&gt;Node1</title>
<path fill="none" stroke="#9a32cd" stroke-dasharray="5,2" d="M104.49,-75C120.23,-61.73 142.42,-43.03 157.57,-30.27"/>
<polygon fill="#9a32cd" stroke="#9a32cd" points="102.61,-72.01 97.22,-81.13 107.12,-77.36 102.61,-72.01"/>
<text text-anchor="middle" x="169.5" y="-51" font-family="Helvetica,sans-Serif" font-size="10.00"> m_notifications</text>
</g>
<!-- Node4 -->
<g id="node3" class="node">
<title>Node4</title>
<g id="a_node3"><a xlink:href="../../df/db0/class_database_1_1_transaction_manager.html" target="_top" xlink:title=" ">
<polygon fill="white" stroke="#666666" points="340,-107 189,-107 189,-77 340,-77 340,-107"/>
<text text-anchor="start" x="197" y="-95" font-family="Helvetica,sans-Serif" font-size="10.00">Database::TransactionManager</text>
<text text-anchor="middle" x="264.5" y="-84" font-family="Helvetica,sans-Serif" font-size="10.00">&lt; Transaction &gt;</text>
</a>
</g>
</g>
<!-- Node4&#45;&gt;Node1 -->
<g id="edge2" class="edge">
<title>Node4&#45;&gt;Node1</title>
<path fill="none" stroke="#9a32cd" stroke-dasharray="5,2" d="M238.34,-69.2C223.36,-56.72 204.98,-41.4 191.8,-30.42"/>
<polygon fill="#9a32cd" stroke="#9a32cd" points="236.06,-71.86 245.98,-75.57 240.54,-66.48 236.06,-71.86"/>
<text text-anchor="middle" x="235.5" y="-51" font-family="Helvetica,sans-Serif" font-size="10.00"> m_tr</text>
</g>
</g>
</svg>
