<?xml version="1.0" encoding="UTF-8" standalone="no"?>
<!DOCTYPE svg PUBLIC "-//W3C//DTD SVG 1.1//EN"
 "http://www.w3.org/Graphics/SVG/1.1/DTD/svg11.dtd">
<!-- Generated by graphviz version 7.0.5 (20221223.1930)
 -->
<!-- Title: PhotosDataGuesser Pages: 1 -->
<svg width="238pt" height="93pt"
 viewBox="0.00 0.00 237.50 93.00" xmlns="http://www.w3.org/2000/svg" xmlns:xlink="http://www.w3.org/1999/xlink">
<g id="graph0" class="graph" transform="scale(1 1) rotate(0) translate(4 89)">
<title>PhotosDataGuesser</title>
<!-- Node1 -->
<g id="node1" class="node">
<title>Node1</title>
<g id="a_node1"><a xlink:title="class provides photos with extra information guessed from filename, content etc.">
<polygon fill="#999999" stroke="#666666" points="166,-19 62,-19 62,0 166,0 166,-19"/>
<text text-anchor="middle" x="114" y="-7" font-family="Helvetica,sans-Serif" font-size="10.00">PhotosDataGuesser</text>
</a>
</g>
</g>
<!-- Node2 -->
<g id="node2" class="node">
<title>Node2</title>
<g id="a_node2"><a xlink:title=" ">
<polygon fill="white" stroke="#666666" points="104,-85 0,-85 0,-66 104,-66 104,-85"/>
<text text-anchor="middle" x="52" y="-73" font-family="Helvetica,sans-Serif" font-size="10.00">QAbstractListModel</text>
</a>
</g>
</g>
<!-- Node2&#45;&gt;Node1 -->
<g id="edge1" class="edge">
<title>Node2&#45;&gt;Node1</title>
<path fill="none" stroke="#63b8ff" d="M68.49,-57.48C80.38,-45.2 95.95,-29.13 105.45,-19.32"/>
<polygon fill="#63b8ff" stroke="#63b8ff" points="66.12,-54.9 61.67,-64.51 71.15,-59.77 66.12,-54.9"/>
</g>
<!-- Node3 -->
<g id="node3" class="node">
<title>Node3</title>
<g id="a_node3"><a xlink:href="../../d7/da9/struct_database_1_1_i_database.html" target="_top" xlink:title=" ">
<polygon fill="#fff0f0" stroke="red" points="229.5,-85 122.5,-85 122.5,-66 229.5,-66 229.5,-85"/>
<text text-anchor="middle" x="176" y="-73" font-family="Helvetica,sans-Serif" font-size="10.00">Database::IDatabase</text>
</a>
</g>
</g>
<!-- Node3&#45;&gt;Node1 -->
<g id="edge2" class="edge">
<title>Node3&#45;&gt;Node1</title>
<path fill="none" stroke="#9a32cd" stroke-dasharray="5,2" d="M159.51,-57.48C147.62,-45.2 132.05,-29.13 122.55,-19.32"/>
<polygon fill="#9a32cd" stroke="#9a32cd" points="156.85,-59.77 166.33,-64.51 161.88,-54.9 156.85,-59.77"/>
<text text-anchor="middle" x="161.5" y="-40" font-family="Helvetica,sans-Serif" font-size="10.00"> m_db</text>
</g>
</g>
</svg>
