<?xml version="1.0" encoding="UTF-8" standalone="no"?>
<!DOCTYPE svg PUBLIC "-//W3C//DTD SVG 1.1//EN"
 "http://www.w3.org/Graphics/SVG/1.1/DTD/svg11.dtd">
<!-- Generated by graphviz version 12.2.0 (20241103.1931)
 -->
<!-- Title: PhotosDataGuesser Pages: 1 -->
<svg width="274pt" height="105pt"
 viewBox="0.00 0.00 274.00 105.00" xmlns="http://www.w3.org/2000/svg" xmlns:xlink="http://www.w3.org/1999/xlink">
<g id="graph0" class="graph" transform="scale(1 1) rotate(0) translate(4 101)">
<title>PhotosDataGuesser</title>
<!-- Node1 -->
<g id="Node000001" class="node">
<title>Node1</title>
<g id="a_Node000001"><a xlink:title="class provides photos with extra information guessed from filename, content etc.">
<polygon fill="#999999" stroke="#666666" points="193.88,-19.25 90.12,-19.25 90.12,0 193.88,0 193.88,-19.25"/>
<text text-anchor="middle" x="142" y="-5.75" font-family="Helvetica,sans-Serif" font-size="10.00">PhotosDataGuesser</text>
</a>
</g>
</g>
<!-- Node2 -->
<g id="Node000002" class="node">
<title>Node2</title>
<g id="a_Node000002"><a xlink:href="../../de/d3a/class_a_heavy_list_model.html" target="_top" xlink:title=" ">
<polygon fill="#fff0f0" stroke="red" points="142,-97 0,-97 0,-66.5 142,-66.5 142,-97"/>
<text text-anchor="start" x="8" y="-83.5" font-family="Helvetica,sans-Serif" font-size="10.00">AHeavyListModel&lt; Collected</text>
<text text-anchor="middle" x="71" y="-72.25" font-family="Helvetica,sans-Serif" font-size="10.00">Data &gt;</text>
</a>
</g>
</g>
<!-- Node2&#45;&gt;Node1 -->
<g id="edge1_Node000001_Node000002" class="edge">
<title>Node2&#45;&gt;Node1</title>
<g id="a_edge1_Node000001_Node000002"><a xlink:title=" ">
<path fill="none" stroke="#63b8ff" d="M93.62,-58.41C107.03,-45.16 123.29,-29.1 133.13,-19.38"/>
<polygon fill="#63b8ff" stroke="#63b8ff" points="91.44,-55.64 86.79,-65.16 96.36,-60.62 91.44,-55.64"/>
</a>
</g>
</g>
<!-- Node5 -->
<g id="Node000005" class="node">
<title>Node5</title>
<g id="a_Node000005"><a xlink:href="../../d7/da9/struct_database_1_1_i_database.html" target="_top" xlink:title="Base Database interface. A bridge between regular clients and backend.">
<polygon fill="white" stroke="#666666" points="266,-91.38 160,-91.38 160,-72.12 266,-72.12 266,-91.38"/>
<text text-anchor="middle" x="213" y="-77.88" font-family="Helvetica,sans-Serif" font-size="10.00">Database::IDatabase</text>
</a>
</g>
</g>
<!-- Node5&#45;&gt;Node1 -->
<g id="edge2_Node000001_Node000005" class="edge">
<title>Node5&#45;&gt;Node1</title>
<g id="a_edge2_Node000001_Node000005"><a xlink:title=" ">
<path fill="none" stroke="#9a32cd" stroke-dasharray="5,2" d="M196.06,-64.02C181.97,-50.11 162.46,-30.84 151.14,-19.66"/>
<polygon fill="#9a32cd" stroke="#9a32cd" points="193.36,-66.27 202.93,-70.81 198.28,-61.29 193.36,-66.27"/>
</a>
</g>
<text text-anchor="middle" x="192.75" y="-39" font-family="Helvetica,sans-Serif" font-size="10.00" fill="grey"> m_db</text>
</g>
</g>
</svg>
