<?xml version="1.0" encoding="UTF-8" standalone="no"?>
<!DOCTYPE svg PUBLIC "-//W3C//DTD SVG 1.1//EN"
 "http://www.w3.org/Graphics/SVG/1.1/DTD/svg11.dtd">
<!-- Generated by graphviz version 7.0.5 (20221223.1930)
 -->
<!-- Title: src/database/backends/memory_backend/memory_backend.cpp Pages: 1 -->
<svg width="1559pt" height="170pt"
 viewBox="0.00 0.00 1558.50 170.00" xmlns="http://www.w3.org/2000/svg" xmlns:xlink="http://www.w3.org/1999/xlink">
<g id="graph0" class="graph" transform="scale(1 1) rotate(0) translate(4 166)">
<title>src/database/backends/memory_backend/memory_backend.cpp</title>
<!-- Node1 -->
<g id="node1" class="node">
<title>Node1</title>
<g id="a_node1"><a xlink:title=" ">
<polygon fill="#999999" stroke="#666666" points="797,-162 663,-162 663,-121 797,-121 797,-162"/>
<text text-anchor="start" x="671" y="-150" font-family="Helvetica,sans-Serif" font-size="10.00">src/database/backends</text>
<text text-anchor="start" x="671" y="-139" font-family="Helvetica,sans-Serif" font-size="10.00">/memory_backend/memory</text>
<text text-anchor="middle" x="730" y="-128" font-family="Helvetica,sans-Serif" font-size="10.00">_backend.cpp</text>
</a>
</g>
</g>
<!-- Node2 -->
<g id="node2" class="node">
<title>Node2</title>
<g id="a_node2"><a xlink:title=" ">
<polygon fill="#e0e0e0" stroke="#999999" points="56,-79.5 0,-79.5 0,-60.5 56,-60.5 56,-79.5"/>
<text text-anchor="middle" x="28" y="-67.5" font-family="Helvetica,sans-Serif" font-size="10.00">QFileInfo</text>
</a>
</g>
</g>
<!-- Node1&#45;&gt;Node2 -->
<g id="edge1" class="edge">
<title>Node1&#45;&gt;Node2</title>
<path fill="none" stroke="#63b8ff" d="M662.52,-141.02C541.32,-140.6 279.41,-133.51 65,-85 63.11,-84.57 61.19,-84.07 59.27,-83.51"/>
<polygon fill="#63b8ff" stroke="#63b8ff" points="60.46,-80.22 49.87,-80.37 58.24,-86.86 60.46,-80.22"/>
</g>
<!-- Node3 -->
<g id="node3" class="node">
<title>Node3</title>
<g id="a_node3"><a xlink:title=" ">
<polygon fill="#e0e0e0" stroke="#999999" points="229.5,-79.5 74.5,-79.5 74.5,-60.5 229.5,-60.5 229.5,-79.5"/>
<text text-anchor="middle" x="152" y="-67.5" font-family="Helvetica,sans-Serif" font-size="10.00">boost/multi_index_container.hpp</text>
</a>
</g>
</g>
<!-- Node1&#45;&gt;Node3 -->
<g id="edge2" class="edge">
<title>Node1&#45;&gt;Node3</title>
<path fill="none" stroke="#63b8ff" d="M662.62,-133.96C567.73,-124.5 389.36,-105.84 238,-85 230.83,-84.01 223.35,-82.91 215.91,-81.76"/>
<polygon fill="#63b8ff" stroke="#63b8ff" points="216.61,-78.33 206.19,-80.23 215.53,-85.24 216.61,-78.33"/>
</g>
<!-- Node4 -->
<g id="node4" class="node">
<title>Node4</title>
<g id="a_node4"><a xlink:title=" ">
<polygon fill="#e0e0e0" stroke="#999999" points="396.5,-79.5 247.5,-79.5 247.5,-60.5 396.5,-60.5 396.5,-79.5"/>
<text text-anchor="middle" x="322" y="-67.5" font-family="Helvetica,sans-Serif" font-size="10.00">boost/multi_index/member.hpp</text>
</a>
</g>
</g>
<!-- Node1&#45;&gt;Node4 -->
<g id="edge3" class="edge">
<title>Node1&#45;&gt;Node4</title>
<path fill="none" stroke="#63b8ff" d="M662.63,-129.02C585.77,-115.93 461.03,-94.68 385.73,-81.86"/>
<polygon fill="#63b8ff" stroke="#63b8ff" points="386.47,-78.43 376.03,-80.2 385.3,-85.33 386.47,-78.43"/>
</g>
<!-- Node5 -->
<g id="node5" class="node">
<title>Node5</title>
<g id="a_node5"><a xlink:title=" ">
<polygon fill="#e0e0e0" stroke="#999999" points="543,-85 415,-85 415,-55 543,-55 543,-85"/>
<text text-anchor="start" x="423" y="-73" font-family="Helvetica,sans-Serif" font-size="10.00">boost/multi_index/ordered</text>
<text text-anchor="middle" x="479" y="-62" font-family="Helvetica,sans-Serif" font-size="10.00">_index.hpp</text>
</a>
</g>
</g>
<!-- Node1&#45;&gt;Node5 -->
<g id="edge4" class="edge">
<title>Node1&#45;&gt;Node5</title>
<path fill="none" stroke="#63b8ff" d="M662.74,-121.88C625.36,-111.53 579.13,-98.73 542.4,-88.55"/>
<polygon fill="#63b8ff" stroke="#63b8ff" points="543.35,-85.19 532.78,-85.89 541.48,-91.93 543.35,-85.19"/>
</g>
<!-- Node6 -->
<g id="node6" class="node">
<title>Node6</title>
<g id="a_node6"><a xlink:href="../../d8/d43/core_2utils_8hpp.html" target="_top" xlink:title=" ">
<polygon fill="white" stroke="#666666" points="1004,-19 930,-19 930,0 1004,0 1004,-19"/>
<text text-anchor="middle" x="967" y="-7" font-family="Helvetica,sans-Serif" font-size="10.00">core/utils.hpp</text>
</a>
</g>
</g>
<!-- Node1&#45;&gt;Node6 -->
<g id="edge5" class="edge">
<title>Node1&#45;&gt;Node6</title>
<path fill="none" stroke="#63b8ff" d="M662.75,-124.71C614.65,-110.34 562.96,-86.56 591,-55 612.4,-30.92 821.5,-17.62 918.29,-12.72"/>
<polygon fill="#63b8ff" stroke="#63b8ff" points="918.19,-16.23 928.01,-12.24 917.84,-9.24 918.19,-16.23"/>
</g>
<!-- Node7 -->
<g id="node7" class="node">
<title>Node7</title>
<g id="a_node7"><a xlink:href="../../de/d87/containers__utils_8hpp.html" target="_top" xlink:title=" ">
<polygon fill="#fff0f0" stroke="red" points="724.5,-79.5 599.5,-79.5 599.5,-60.5 724.5,-60.5 724.5,-79.5"/>
<text text-anchor="middle" x="662" y="-67.5" font-family="Helvetica,sans-Serif" font-size="10.00">core/containers_utils.hpp</text>
</a>
</g>
</g>
<!-- Node1&#45;&gt;Node7 -->
<g id="edge6" class="edge">
<title>Node1&#45;&gt;Node7</title>
<path fill="none" stroke="#63b8ff" d="M710.7,-120.77C700.59,-110.45 688.35,-97.93 678.67,-88.04"/>
<polygon fill="#63b8ff" stroke="#63b8ff" points="681.18,-85.6 671.69,-80.9 676.18,-90.5 681.18,-85.6"/>
</g>
<!-- Node13 -->
<g id="node8" class="node">
<title>Node13</title>
<g id="a_node8"><a xlink:href="../../d7/d86/memory__backend_8hpp.html" target="_top" xlink:title=" ">
<polygon fill="#fff0f0" stroke="red" points="853.5,-79.5 742.5,-79.5 742.5,-60.5 853.5,-60.5 853.5,-79.5"/>
<text text-anchor="middle" x="798" y="-67.5" font-family="Helvetica,sans-Serif" font-size="10.00">memory_backend.hpp</text>
</a>
</g>
</g>
<!-- Node1&#45;&gt;Node13 -->
<g id="edge7" class="edge">
<title>Node1&#45;&gt;Node13</title>
<path fill="none" stroke="#63b8ff" d="M749.3,-120.77C759.41,-110.45 771.65,-97.93 781.33,-88.04"/>
<polygon fill="#63b8ff" stroke="#63b8ff" points="783.82,-90.5 788.31,-80.9 778.82,-85.6 783.82,-90.5"/>
</g>
<!-- Node61 -->
<g id="node9" class="node">
<title>Node61</title>
<g id="a_node9"><a xlink:href="../../de/de4/general__flags_8hpp.html" target="_top" xlink:title=" ">
<polygon fill="#fff0f0" stroke="red" points="1006,-79.5 872,-79.5 872,-60.5 1006,-60.5 1006,-79.5"/>
<text text-anchor="middle" x="939" y="-67.5" font-family="Helvetica,sans-Serif" font-size="10.00">database/general_flags.hpp</text>
</a>
</g>
</g>
<!-- Node1&#45;&gt;Node61 -->
<g id="edge8" class="edge">
<title>Node1&#45;&gt;Node61</title>
<path fill="none" stroke="#63b8ff" d="M789.89,-120.58C825.77,-108.65 870.29,-93.85 901.3,-83.54"/>
<polygon fill="#63b8ff" stroke="#63b8ff" points="902.25,-86.91 910.64,-80.43 900.04,-80.27 902.25,-86.91"/>
</g>
<!-- Node62 -->
<g id="node10" class="node">
<title>Node62</title>
<g id="a_node10"><a xlink:href="../../d1/d31/notifications__accumulator_8hpp.html" target="_top" xlink:title=" ">
<polygon fill="#fff0f0" stroke="red" points="1135.5,-85 1024.5,-85 1024.5,-55 1135.5,-55 1135.5,-85"/>
<text text-anchor="start" x="1032.5" y="-73" font-family="Helvetica,sans-Serif" font-size="10.00">database/notifications</text>
<text text-anchor="middle" x="1080" y="-62" font-family="Helvetica,sans-Serif" font-size="10.00">_accumulator.hpp</text>
</a>
</g>
</g>
<!-- Node1&#45;&gt;Node62 -->
<g id="edge9" class="edge">
<title>Node1&#45;&gt;Node62</title>
<path fill="none" stroke="#63b8ff" d="M797.45,-127.76C852.76,-117.21 933.39,-101.65 1013.55,-85.27"/>
<polygon fill="#63b8ff" stroke="#63b8ff" points="1013.77,-88.8 1022.86,-83.37 1012.36,-81.94 1013.77,-88.8"/>
</g>
<!-- Node64 -->
<g id="node11" class="node">
<title>Node64</title>
<g id="a_node11"><a xlink:href="../../d3/d41/project__info_8hpp.html" target="_top" xlink:title=" ">
<polygon fill="white" stroke="#666666" points="1282,-79.5 1154,-79.5 1154,-60.5 1282,-60.5 1282,-79.5"/>
<text text-anchor="middle" x="1218" y="-67.5" font-family="Helvetica,sans-Serif" font-size="10.00">database/project_info.hpp</text>
</a>
</g>
</g>
<!-- Node1&#45;&gt;Node64 -->
<g id="edge10" class="edge">
<title>Node1&#45;&gt;Node64</title>
<path fill="none" stroke="#63b8ff" d="M797.38,-132.68C879.62,-122.85 1022.85,-104.86 1145,-85 1150.59,-84.09 1156.41,-83.08 1162.21,-82.04"/>
<polygon fill="#63b8ff" stroke="#63b8ff" points="1162.6,-85.52 1171.8,-80.26 1161.33,-78.64 1162.6,-85.52"/>
</g>
<!-- Node65 -->
<g id="node12" class="node">
<title>Node65</title>
<g id="a_node12"><a xlink:href="../../da/d1a/photo__utils_8hpp.html" target="_top" xlink:title=" ">
<polygon fill="#fff0f0" stroke="red" points="1425.5,-79.5 1300.5,-79.5 1300.5,-60.5 1425.5,-60.5 1425.5,-79.5"/>
<text text-anchor="middle" x="1363" y="-67.5" font-family="Helvetica,sans-Serif" font-size="10.00">database/photo_utils.hpp</text>
</a>
</g>
</g>
<!-- Node1&#45;&gt;Node65 -->
<g id="edge11" class="edge">
<title>Node1&#45;&gt;Node65</title>
<path fill="none" stroke="#63b8ff" d="M797.17,-135.89C902.68,-128.2 1113.54,-110.97 1291,-85 1296.98,-84.12 1303.23,-83.09 1309.43,-81.99"/>
<polygon fill="#63b8ff" stroke="#63b8ff" points="1309.78,-85.48 1318.98,-80.23 1308.51,-78.6 1309.78,-85.48"/>
</g>
<!-- Node66 -->
<g id="node13" class="node">
<title>Node66</title>
<g id="a_node13"><a xlink:href="../../db/d06/transaction__wrapper_8hpp.html" target="_top" xlink:title=" ">
<polygon fill="#fff0f0" stroke="red" points="1550.5,-85 1443.5,-85 1443.5,-55 1550.5,-55 1550.5,-85"/>
<text text-anchor="start" x="1451.5" y="-73" font-family="Helvetica,sans-Serif" font-size="10.00">database/transaction</text>
<text text-anchor="middle" x="1497" y="-62" font-family="Helvetica,sans-Serif" font-size="10.00">_wrapper.hpp</text>
</a>
</g>
</g>
<!-- Node1&#45;&gt;Node66 -->
<g id="edge13" class="edge">
<title>Node1&#45;&gt;Node66</title>
<path fill="none" stroke="#63b8ff" d="M797.44,-138.41C921.39,-133.87 1193.85,-120.63 1432.01,-85.31"/>
<polygon fill="#63b8ff" stroke="#63b8ff" points="1432.45,-88.79 1441.82,-83.84 1431.42,-81.86 1432.45,-88.79"/>
</g>
<!-- Node65&#45;&gt;Node6 -->
<g id="edge12" class="edge">
<title>Node65&#45;&gt;Node6</title>
<path fill="none" stroke="#63b8ff" d="M1318.9,-60.02C1309.7,-58.26 1300.05,-56.5 1291,-55 1193.45,-38.83 1078.67,-24.07 1015.26,-16.28"/>
<polygon fill="#63b8ff" stroke="#63b8ff" points="1015.88,-12.83 1005.53,-15.09 1015.03,-19.78 1015.88,-12.83"/>
</g>
</g>
</svg>
