<?xml version="1.0" encoding="UTF-8" standalone="no"?>
<!DOCTYPE svg PUBLIC "-//W3C//DTD SVG 1.1//EN"
 "http://www.w3.org/Graphics/SVG/1.1/DTD/svg11.dtd">
<!-- Generated by graphviz version 12.2.0 (20241103.1931)
 -->
<!-- Title: src/core/imedia_information.hpp Pages: 1 -->
<svg width="653pt" height="94pt"
 viewBox="0.00 0.00 652.88 93.75" xmlns="http://www.w3.org/2000/svg" xmlns:xlink="http://www.w3.org/1999/xlink">
<g id="graph0" class="graph" transform="scale(1 1) rotate(0) translate(4 89.75)">
<title>src/core/imedia_information.hpp</title>
<!-- Node1 -->
<g id="Node000001" class="node">
<title>Node1</title>
<g id="a_Node000001"><a xlink:title=" ">
<polygon fill="#999999" stroke="#666666" points="399,-85.75 245,-85.75 245,-66.5 399,-66.5 399,-85.75"/>
<text text-anchor="middle" x="322" y="-72.25" font-family="Helvetica,sans-Serif" font-size="10.00">src/core/imedia_information.hpp</text>
</a>
</g>
</g>
<!-- Node2 -->
<g id="Node000002" class="node">
<title>Node2</title>
<g id="a_Node000002"><a xlink:href="../../df/df0/image__media__information_8hpp.html" target="_top" xlink:title=" ">
<polygon fill="#fff0f0" stroke="red" points="148,-30.5 0,-30.5 0,0 148,0 148,-30.5"/>
<text text-anchor="start" x="8" y="-17" font-family="Helvetica,sans-Serif" font-size="10.00">src/core/implementation</text>
<text text-anchor="middle" x="74" y="-5.75" font-family="Helvetica,sans-Serif" font-size="10.00">/image_media_information.hpp</text>
</a>
</g>
</g>
<!-- Node1&#45;&gt;Node2 -->
<g id="edge1_Node000001_Node000002" class="edge">
<title>Node1&#45;&gt;Node2</title>
<g id="a_edge1_Node000001_Node000002"><a xlink:title=" ">
<path fill="none" stroke="#63b8ff" d="M272.65,-63.41C233.36,-54.08 178.15,-40.97 135.9,-30.94"/>
<polygon fill="#63b8ff" stroke="#63b8ff" points="271.78,-66.8 282.32,-65.71 273.4,-59.99 271.78,-66.8"/>
</a>
</g>
</g>
<!-- Node5 -->
<g id="Node000005" class="node">
<title>Node5</title>
<g id="a_Node000005"><a xlink:href="../../db/d7d/video__media__information_8hpp.html" target="_top" xlink:title=" ">
<polygon fill="#fff0f0" stroke="red" points="311.5,-30.5 166.5,-30.5 166.5,0 311.5,0 311.5,-30.5"/>
<text text-anchor="start" x="174.5" y="-17" font-family="Helvetica,sans-Serif" font-size="10.00">src/core/implementation</text>
<text text-anchor="middle" x="239" y="-5.75" font-family="Helvetica,sans-Serif" font-size="10.00">/video_media_information.hpp</text>
</a>
</g>
</g>
<!-- Node1&#45;&gt;Node5 -->
<g id="edge2_Node000001_Node000005" class="edge">
<title>Node1&#45;&gt;Node5</title>
<g id="a_edge2_Node000001_Node000005"><a xlink:title=" ">
<path fill="none" stroke="#63b8ff" d="M300.1,-59.59C287.52,-50.67 271.82,-39.53 259.49,-30.78"/>
<polygon fill="#63b8ff" stroke="#63b8ff" points="297.98,-62.38 308.16,-65.31 302.03,-56.67 297.98,-62.38"/>
</a>
</g>
</g>
<!-- Node8 -->
<g id="Node000008" class="node">
<title>Node8</title>
<g id="a_Node000008"><a xlink:href="../../d0/d21/media__information_8hpp.html" target="_top" xlink:title=" ">
<polygon fill="#fff0f0" stroke="red" points="480.88,-24.88 329.12,-24.88 329.12,-5.63 480.88,-5.63 480.88,-24.88"/>
<text text-anchor="middle" x="405" y="-11.38" font-family="Helvetica,sans-Serif" font-size="10.00">src/core/media_information.hpp</text>
</a>
</g>
</g>
<!-- Node1&#45;&gt;Node8 -->
<g id="edge3_Node000001_Node000008" class="edge">
<title>Node1&#45;&gt;Node8</title>
<g id="a_edge3_Node000001_Node000008"><a xlink:title=" ">
<path fill="none" stroke="#63b8ff" d="M343.94,-59.56C359.35,-48.63 379.43,-34.39 392.28,-25.28"/>
<polygon fill="#63b8ff" stroke="#63b8ff" points="341.97,-56.67 335.84,-65.31 346.02,-62.38 341.97,-56.67"/>
</a>
</g>
</g>
<!-- Node12 -->
<g id="Node000012" class="node">
<title>Node12</title>
<g id="a_Node000012"><a xlink:href="../../d1/dc4/mock__media__information_8hpp.html" target="_top" xlink:title=" ">
<polygon fill="white" stroke="#666666" points="644.88,-30.5 499.12,-30.5 499.12,0 644.88,0 644.88,-30.5"/>
<text text-anchor="start" x="507.12" y="-17" font-family="Helvetica,sans-Serif" font-size="10.00">src/unit_tests_utils</text>
<text text-anchor="middle" x="572" y="-5.75" font-family="Helvetica,sans-Serif" font-size="10.00">/mock_media_information.hpp</text>
</a>
</g>
</g>
<!-- Node1&#45;&gt;Node12 -->
<g id="edge4_Node000001_Node000012" class="edge">
<title>Node1&#45;&gt;Node12</title>
<g id="a_edge4_Node000001_Node000012"><a xlink:title=" ">
<path fill="none" stroke="#63b8ff" d="M371.49,-63.47C411.11,-54.14 466.92,-41 509.6,-30.94"/>
<polygon fill="#63b8ff" stroke="#63b8ff" points="370.92,-60.01 361.99,-65.71 372.52,-66.82 370.92,-60.01"/>
</a>
</g>
</g>
</g>
</svg>
