<?xml version="1.0" encoding="UTF-8" standalone="no"?>
<!DOCTYPE svg PUBLIC "-//W3C//DTD SVG 1.1//EN"
 "http://www.w3.org/Graphics/SVG/1.1/DTD/svg11.dtd">
<!-- Generated by graphviz version 7.0.5 (20221223.1930)
 -->
<!-- Title: src/core/imedia_information.hpp Pages: 1 -->
<svg width="656pt" height="93pt"
 viewBox="0.00 0.00 655.50 93.00" xmlns="http://www.w3.org/2000/svg" xmlns:xlink="http://www.w3.org/1999/xlink">
<g id="graph0" class="graph" transform="scale(1 1) rotate(0) translate(4 89)">
<title>src/core/imedia_information.hpp</title>
<!-- Node1 -->
<g id="node1" class="node">
<title>Node1</title>
<g id="a_node1"><a xlink:title=" ">
<polygon fill="#999999" stroke="#666666" points="401,-85 246,-85 246,-66 401,-66 401,-85"/>
<text text-anchor="middle" x="323.5" y="-73" font-family="Helvetica,sans-Serif" font-size="10.00">src/core/imedia_information.hpp</text>
</a>
</g>
</g>
<!-- Node2 -->
<g id="node2" class="node">
<title>Node2</title>
<g id="a_node2"><a xlink:href="../../df/df0/image__media__information_8hpp.html" target="_top" xlink:title=" ">
<polygon fill="#fff0f0" stroke="red" points="149,-30 0,-30 0,0 149,0 149,-30"/>
<text text-anchor="start" x="8" y="-18" font-family="Helvetica,sans-Serif" font-size="10.00">src/core/implementation</text>
<text text-anchor="middle" x="74.5" y="-7" font-family="Helvetica,sans-Serif" font-size="10.00">/image_media_information.hpp</text>
</a>
</g>
</g>
<!-- Node1&#45;&gt;Node2 -->
<g id="edge1" class="edge">
<title>Node1&#45;&gt;Node2</title>
<path fill="none" stroke="#63b8ff" d="M274.41,-62.97C234.68,-53.63 178.51,-40.44 135.82,-30.41"/>
<polygon fill="#63b8ff" stroke="#63b8ff" points="273.4,-66.33 283.94,-65.21 275,-59.51 273.4,-66.33"/>
</g>
<!-- Node5 -->
<g id="node3" class="node">
<title>Node5</title>
<g id="a_node3"><a xlink:href="../../db/d7d/video__media__information_8hpp.html" target="_top" xlink:title=" ">
<polygon fill="#fff0f0" stroke="red" points="313.5,-30 167.5,-30 167.5,0 313.5,0 313.5,-30"/>
<text text-anchor="start" x="175.5" y="-18" font-family="Helvetica,sans-Serif" font-size="10.00">src/core/implementation</text>
<text text-anchor="middle" x="240.5" y="-7" font-family="Helvetica,sans-Serif" font-size="10.00">/video_media_information.hpp</text>
</a>
</g>
</g>
<!-- Node1&#45;&gt;Node5 -->
<g id="edge2" class="edge">
<title>Node1&#45;&gt;Node5</title>
<path fill="none" stroke="#63b8ff" d="M301.6,-59.06C289.02,-50.2 273.32,-39.13 260.99,-30.44"/>
<polygon fill="#63b8ff" stroke="#63b8ff" points="299.47,-61.84 309.66,-64.74 303.5,-56.12 299.47,-61.84"/>
</g>
<!-- Node8 -->
<g id="node4" class="node">
<title>Node8</title>
<g id="a_node4"><a xlink:href="../../d0/d21/media__information_8hpp.html" target="_top" xlink:title=" ">
<polygon fill="#fff0f0" stroke="red" points="483.5,-24.5 331.5,-24.5 331.5,-5.5 483.5,-5.5 483.5,-24.5"/>
<text text-anchor="middle" x="407.5" y="-12.5" font-family="Helvetica,sans-Serif" font-size="10.00">src/core/media_information.hpp</text>
</a>
</g>
</g>
<!-- Node1&#45;&gt;Node8 -->
<g id="edge3" class="edge">
<title>Node1&#45;&gt;Node8</title>
<path fill="none" stroke="#63b8ff" d="M345.7,-59.04C361.3,-48.17 381.63,-34.02 394.62,-24.97"/>
<polygon fill="#63b8ff" stroke="#63b8ff" points="343.71,-56.16 337.5,-64.75 347.71,-61.91 343.71,-56.16"/>
</g>
<!-- Node11 -->
<g id="node5" class="node">
<title>Node11</title>
<g id="a_node5"><a xlink:href="../../d1/dc4/mock__media__information_8hpp.html" target="_top" xlink:title=" ">
<polygon fill="white" stroke="#666666" points="647.5,-30 501.5,-30 501.5,0 647.5,0 647.5,-30"/>
<text text-anchor="start" x="509.5" y="-18" font-family="Helvetica,sans-Serif" font-size="10.00">src/unit_tests_utils</text>
<text text-anchor="middle" x="574.5" y="-7" font-family="Helvetica,sans-Serif" font-size="10.00">/mock_media_information.hpp</text>
</a>
</g>
</g>
<!-- Node1&#45;&gt;Node11 -->
<g id="edge4" class="edge">
<title>Node1&#45;&gt;Node11</title>
<path fill="none" stroke="#63b8ff" d="M372.98,-62.97C413.03,-53.63 469.65,-40.44 512.68,-30.41"/>
<polygon fill="#63b8ff" stroke="#63b8ff" points="372.31,-59.53 363.37,-65.21 373.9,-66.35 372.31,-59.53"/>
</g>
</g>
</svg>
