<?xml version="1.0" encoding="UTF-8" standalone="no"?>
<!DOCTYPE svg PUBLIC "-//W3C//DTD SVG 1.1//EN"
 "http://www.w3.org/Graphics/SVG/1.1/DTD/svg11.dtd">
<!-- Generated by graphviz version 7.0.5 (20221223.1930)
 -->
<!-- Title: Project::getDatabase Pages: 1 -->
<svg width="438pt" height="199pt"
 viewBox="0.00 0.00 438.00 198.50" xmlns="http://www.w3.org/2000/svg" xmlns:xlink="http://www.w3.org/1999/xlink">
<g id="graph0" class="graph" transform="scale(1 1) rotate(0) translate(4 194.5)">
<title>Project::getDatabase</title>
<!-- Node1 -->
<g id="node1" class="node">
<title>Node1</title>
<g id="a_node1"><a xlink:title=" ">
<polygon fill="#999999" stroke="#666666" points="430,-115.5 323,-115.5 323,-96.5 430,-96.5 430,-115.5"/>
<text text-anchor="middle" x="376.5" y="-103.5" font-family="Helvetica,sans-Serif" font-size="10.00">Project::getDatabase</text>
</a>
</g>
</g>
<!-- Node2 -->
<g id="node2" class="node">
<title>Node2</title>
<g id="a_node2"><a xlink:href="../../df/db2/class_objects_accessor.html#a4b983b925085a2cb58c60627f1e595b2" target="_top" xlink:title=" ">
<polygon fill="white" stroke="#666666" points="287,-190.5 151,-190.5 151,-171.5 287,-171.5 287,-190.5"/>
<text text-anchor="middle" x="219" y="-178.5" font-family="Helvetica,sans-Serif" font-size="10.00">ObjectsAccessor::database</text>
</a>
</g>
</g>
<!-- Node1&#45;&gt;Node2 -->
<g id="edge1" class="edge">
<title>Node1&#45;&gt;Node2</title>
<path fill="none" stroke="#63b8ff" d="M353.84,-122.68C336.56,-135.29 311.3,-152.23 287,-163 279.95,-166.12 272.24,-168.81 264.64,-171.08"/>
<polygon fill="#63b8ff" stroke="#63b8ff" points="355.89,-125.52 361.81,-116.74 351.7,-119.91 355.89,-125.52"/>
</g>
<!-- Node3 -->
<g id="node3" class="node">
<title>Node3</title>
<g id="a_node3"><a xlink:href="../../d5/d0f/class_series_model.html#a8cdebcca8d2065de2c839755cc238875" target="_top" xlink:title=" ">
<polygon fill="#fff0f0" stroke="red" points="283,-153.5 155,-153.5 155,-134.5 283,-134.5 283,-153.5"/>
<text text-anchor="middle" x="219" y="-141.5" font-family="Helvetica,sans-Serif" font-size="10.00">SeriesModel::fetchGroups</text>
</a>
</g>
</g>
<!-- Node1&#45;&gt;Node3 -->
<g id="edge2" class="edge">
<title>Node1&#45;&gt;Node3</title>
<path fill="none" stroke="#63b8ff" d="M323.61,-118.68C303.18,-123.67 280.06,-129.32 260.85,-134.02"/>
<polygon fill="#63b8ff" stroke="#63b8ff" points="324.29,-122.12 333.17,-116.34 322.63,-115.32 324.29,-122.12"/>
</g>
<!-- Node5 -->
<g id="node4" class="node">
<title>Node5</title>
<g id="a_node4"><a xlink:href="../../de/db3/class_context_menu_manager.html#a6e73f66bfc406adf3a1676fb0237fde3" target="_top" xlink:title=" ">
<polygon fill="#fff0f0" stroke="red" points="115,-99 0,-99 0,-69 115,-69 115,-99"/>
<text text-anchor="start" x="8" y="-87" font-family="Helvetica,sans-Serif" font-size="10.00">ContextMenuManager</text>
<text text-anchor="middle" x="57.5" y="-76" font-family="Helvetica,sans-Serif" font-size="10.00">::manageGroupsAction</text>
</a>
</g>
</g>
<!-- Node1&#45;&gt;Node5 -->
<g id="edge3" class="edge">
<title>Node1&#45;&gt;Node5</title>
<path fill="none" stroke="#63b8ff" d="M311.67,-101.57C254.21,-97.58 170.55,-91.78 115.35,-87.95"/>
<polygon fill="#63b8ff" stroke="#63b8ff" points="311.07,-105.04 321.29,-102.24 311.55,-98.05 311.07,-105.04"/>
</g>
<!-- Node8 -->
<g id="node5" class="node">
<title>Node8</title>
<g id="a_node5"><a xlink:href="../../de/db3/class_context_menu_manager.html#a5db0c9d95a29a7a3b0d387a0227f8d1d" target="_top" xlink:title=" ">
<polygon fill="#fff0f0" stroke="red" points="274.5,-78 163.5,-78 163.5,-48 274.5,-48 274.5,-78"/>
<text text-anchor="start" x="171.5" y="-66" font-family="Helvetica,sans-Serif" font-size="10.00">ContextMenuManager</text>
<text text-anchor="middle" x="219" y="-55" font-family="Helvetica,sans-Serif" font-size="10.00">::removeGroupOf</text>
</a>
</g>
</g>
<!-- Node1&#45;&gt;Node8 -->
<g id="edge4" class="edge">
<title>Node1&#45;&gt;Node8</title>
<path fill="none" stroke="#63b8ff" d="M328.66,-93.05C311.69,-88.35 292.37,-83.01 274.77,-78.15"/>
<polygon fill="#63b8ff" stroke="#63b8ff" points="327.4,-96.33 337.98,-95.62 329.27,-89.58 327.4,-96.33"/>
</g>
<!-- Node7 -->
<g id="node6" class="node">
<title>Node7</title>
<g id="a_node6"><a xlink:href="../../de/db3/class_context_menu_manager.html#afee82226d8b74d2bd56c575f7c6f10a4" target="_top" xlink:title=" ">
<polygon fill="white" stroke="#666666" points="274.5,-30 163.5,-30 163.5,0 274.5,0 274.5,-30"/>
<text text-anchor="start" x="171.5" y="-18" font-family="Helvetica,sans-Serif" font-size="10.00">ContextMenuManager</text>
<text text-anchor="middle" x="219" y="-7" font-family="Helvetica,sans-Serif" font-size="10.00">::setProject</text>
</a>
</g>
</g>
<!-- Node1&#45;&gt;Node7 -->
<g id="edge6" class="edge">
<title>Node1&#45;&gt;Node7</title>
<path fill="none" stroke="#63b8ff" d="M356.26,-88.68C339.09,-73.91 312.74,-52.93 287,-39 281.24,-35.88 274.99,-33.03 268.71,-30.46"/>
<polygon fill="#63b8ff" stroke="#63b8ff" points="353.83,-91.2 363.66,-95.16 358.44,-85.94 353.83,-91.2"/>
</g>
<!-- Node8&#45;&gt;Node5 -->
<g id="edge5" class="edge">
<title>Node8&#45;&gt;Node5</title>
<path fill="none" stroke="#63b8ff" d="M151.71,-71.73C139.64,-73.32 127.16,-74.96 115.39,-76.51"/>
<polygon fill="#63b8ff" stroke="#63b8ff" points="152.15,-75.2 161.61,-70.42 151.24,-68.26 152.15,-75.2"/>
</g>
</g>
</svg>
