<?xml version="1.0" encoding="UTF-8" standalone="no"?>
<!DOCTYPE svg PUBLIC "-//W3C//DTD SVG 1.1//EN"
 "http://www.w3.org/Graphics/SVG/1.1/DTD/svg11.dtd">
<!-- Generated by graphviz version 7.0.5 (20221223.1930)
 -->
<!-- Title: Project::makePathRelative Pages: 1 -->
<svg width="348pt" height="86pt"
 viewBox="0.00 0.00 348.00 86.00" xmlns="http://www.w3.org/2000/svg" xmlns:xlink="http://www.w3.org/1999/xlink">
<g id="graph0" class="graph" transform="scale(1 1) rotate(0) translate(4 82)">
<title>Project::makePathRelative</title>
<!-- Node1 -->
<g id="node1" class="node">
<title>Node1</title>
<g id="a_node1"><a xlink:title=" ">
<polygon fill="#999999" stroke="#666666" points="340,-48.5 209,-48.5 209,-29.5 340,-29.5 340,-48.5"/>
<text text-anchor="middle" x="274.5" y="-36.5" font-family="Helvetica,sans-Serif" font-size="10.00">Project::makePathRelative</text>
</a>
</g>
</g>
<!-- Node2 -->
<g id="node2" class="node">
<title>Node2</title>
<g id="a_node2"><a xlink:href="../../db/d6e/class_collection_scanner.html#ab0b44dadf7d37b2eab5472d9813297c9" target="_top" xlink:title=" ">
<polygon fill="#fff0f0" stroke="red" points="136.5,-78 36.5,-78 36.5,-48 136.5,-48 136.5,-78"/>
<text text-anchor="start" x="44.5" y="-66" font-family="Helvetica,sans-Serif" font-size="10.00">CollectionScanner::</text>
<text text-anchor="middle" x="86.5" y="-55" font-family="Helvetica,sans-Serif" font-size="10.00">gotDiskPhoto</text>
</a>
</g>
</g>
<!-- Node1&#45;&gt;Node2 -->
<g id="edge1" class="edge">
<title>Node1&#45;&gt;Node2</title>
<path fill="none" stroke="#63b8ff" d="M197.48,-48.81C177.01,-51.45 155.41,-54.24 136.82,-56.64"/>
<polygon fill="#63b8ff" stroke="#63b8ff" points="197.74,-52.31 207.21,-47.55 196.84,-45.36 197.74,-52.31"/>
</g>
<!-- Node4 -->
<g id="node3" class="node">
<title>Node4</title>
<g id="a_node3"><a xlink:href="../../df/d40/namespace_groups_manager.html#a3baf5bab2dabe71a339b37cff24b88ac" target="_top" xlink:title=" ">
<polygon fill="#fff0f0" stroke="red" points="173,-30 0,-30 0,0 173,0 173,-30"/>
<text text-anchor="start" x="8" y="-18" font-family="Helvetica,sans-Serif" font-size="10.00">GroupsManager::includeRepresentat</text>
<text text-anchor="middle" x="86.5" y="-7" font-family="Helvetica,sans-Serif" font-size="10.00">InDatabase</text>
</a>
</g>
</g>
<!-- Node1&#45;&gt;Node4 -->
<g id="edge2" class="edge">
<title>Node1&#45;&gt;Node4</title>
<path fill="none" stroke="#63b8ff" d="M197.56,-29.2C189.57,-28.17 181.41,-27.12 173.33,-26.07"/>
<polygon fill="#63b8ff" stroke="#63b8ff" points="196.84,-32.64 207.21,-30.45 197.74,-25.69 196.84,-32.64"/>
</g>
</g>
</svg>
