<?xml version="1.0" encoding="UTF-8" standalone="no"?>
<!DOCTYPE svg PUBLIC "-//W3C//DTD SVG 1.1//EN"
 "http://www.w3.org/Graphics/SVG/1.1/DTD/svg11.dtd">
<!-- Generated by graphviz version 7.0.5 (20221223.1930)
 -->
<!-- Title: Project::getProjectInfo Pages: 1 -->
<svg width="330pt" height="76pt"
 viewBox="0.00 0.00 330.00 75.50" xmlns="http://www.w3.org/2000/svg" xmlns:xlink="http://www.w3.org/1999/xlink">
<g id="graph0" class="graph" transform="scale(1 1) rotate(0) translate(4 71.5)">
<title>Project::getProjectInfo</title>
<!-- Node1 -->
<g id="node1" class="node">
<title>Node1</title>
<g id="a_node1"><a xlink:title=" ">
<polygon fill="#999999" stroke="#666666" points="322,-45.5 209,-45.5 209,-26.5 322,-26.5 322,-45.5"/>
<text text-anchor="middle" x="265.5" y="-33.5" font-family="Helvetica,sans-Serif" font-size="10.00">Project::getProjectInfo</text>
</a>
</g>
</g>
<!-- Node2 -->
<g id="node2" class="node">
<title>Node2</title>
<g id="a_node2"><a xlink:href="../../d3/d3d/class_photos_collector.html#aa402bcaf9beb1d5eb6b9f0e380c33363" target="_top" xlink:title=" ">
<polygon fill="#fff0f0" stroke="red" points="146,-67.5 27,-67.5 27,-48.5 146,-48.5 146,-67.5"/>
<text text-anchor="middle" x="86.5" y="-55.5" font-family="Helvetica,sans-Serif" font-size="10.00">PhotosCollector::collect</text>
</a>
</g>
</g>
<!-- Node1&#45;&gt;Node2 -->
<g id="edge1" class="edge">
<title>Node1&#45;&gt;Node2</title>
<path fill="none" stroke="#63b8ff" d="M197.56,-44.32C180.77,-46.41 162.87,-48.63 146.5,-50.67"/>
<polygon fill="#63b8ff" stroke="#63b8ff" points="197.99,-47.79 207.48,-43.09 197.12,-40.85 197.99,-47.79"/>
</g>
<!-- Node4 -->
<g id="node3" class="node">
<title>Node4</title>
<g id="a_node3"><a xlink:href="../../df/d40/namespace_groups_manager.html#a3baf5bab2dabe71a339b37cff24b88ac" target="_top" xlink:title=" ">
<polygon fill="#fff0f0" stroke="red" points="173,-30 0,-30 0,0 173,0 173,-30"/>
<text text-anchor="start" x="8" y="-18" font-family="Helvetica,sans-Serif" font-size="10.00">GroupsManager::includeRepresentat</text>
<text text-anchor="middle" x="86.5" y="-7" font-family="Helvetica,sans-Serif" font-size="10.00">InDatabase</text>
</a>
</g>
</g>
<!-- Node1&#45;&gt;Node4 -->
<g id="edge2" class="edge">
<title>Node1&#45;&gt;Node4</title>
<path fill="none" stroke="#63b8ff" d="M197.56,-28.06C189.63,-27.12 181.45,-26.15 173.29,-25.18"/>
<polygon fill="#63b8ff" stroke="#63b8ff" points="197.14,-31.53 207.48,-29.23 197.96,-24.58 197.14,-31.53"/>
</g>
</g>
</svg>
