<?xml version="1.0" encoding="UTF-8" standalone="no"?>
<!DOCTYPE svg PUBLIC "-//W3C//DTD SVG 1.1//EN"
 "http://www.w3.org/Graphics/SVG/1.1/DTD/svg11.dtd">
<!-- Generated by graphviz version 7.0.5 (20221223.1930)
 -->
<!-- Title: src/database/implementation/aphoto_change_log_operator.cpp Pages: 1 -->
<svg width="429pt" height="93pt"
 viewBox="0.00 0.00 429.00 93.00" xmlns="http://www.w3.org/2000/svg" xmlns:xlink="http://www.w3.org/1999/xlink">
<g id="graph0" class="graph" transform="scale(1 1) rotate(0) translate(4 89)">
<title>src/database/implementation/aphoto_change_log_operator.cpp</title>
<!-- Node1 -->
<g id="node1" class="node">
<title>Node1</title>
<g id="a_node1"><a xlink:title=" ">
<polygon fill="#999999" stroke="#666666" points="274.5,-85 112.5,-85 112.5,-55 274.5,-55 274.5,-85"/>
<text text-anchor="start" x="120.5" y="-73" font-family="Helvetica,sans-Serif" font-size="10.00">src/database/implementation</text>
<text text-anchor="middle" x="193.5" y="-62" font-family="Helvetica,sans-Serif" font-size="10.00">/aphoto_change_log_operator.cpp</text>
</a>
</g>
</g>
<!-- Node2 -->
<g id="node2" class="node">
<title>Node2</title>
<g id="a_node2"><a xlink:href="../../de/d87/containers__utils_8hpp.html" target="_top" xlink:title=" ">
<polygon fill="#fff0f0" stroke="red" points="125,-19 0,-19 0,0 125,0 125,-19"/>
<text text-anchor="middle" x="62.5" y="-7" font-family="Helvetica,sans-Serif" font-size="10.00">core/containers_utils.hpp</text>
</a>
</g>
</g>
<!-- Node1&#45;&gt;Node2 -->
<g id="edge1" class="edge">
<title>Node1&#45;&gt;Node2</title>
<path fill="none" stroke="#63b8ff" d="M161.12,-54.54C140.18,-45.19 113.12,-33.1 92.64,-23.96"/>
<polygon fill="#63b8ff" stroke="#63b8ff" points="94.25,-20.85 83.69,-19.96 91.4,-27.24 94.25,-20.85"/>
</g>
<!-- Node8 -->
<g id="node3" class="node">
<title>Node8</title>
<g id="a_node3"><a xlink:href="../../d9/d1e/base__tags_8hpp.html" target="_top" xlink:title=" ">
<polygon fill="#fff0f0" stroke="red" points="244,-19 143,-19 143,0 244,0 244,-19"/>
<text text-anchor="middle" x="193.5" y="-7" font-family="Helvetica,sans-Serif" font-size="10.00">core/base_tags.hpp</text>
</a>
</g>
</g>
<!-- Node1&#45;&gt;Node8 -->
<g id="edge2" class="edge">
<title>Node1&#45;&gt;Node8</title>
<path fill="none" stroke="#63b8ff" d="M193.5,-54.54C193.5,-47.34 193.5,-38.53 193.5,-30.68"/>
<polygon fill="#63b8ff" stroke="#63b8ff" points="197,-30.69 193.5,-20.69 190,-30.69 197,-30.69"/>
</g>
<!-- Node18 -->
<g id="node4" class="node">
<title>Node18</title>
<g id="a_node4"><a xlink:href="../../d8/d47/aphoto__change__log__operator_8hpp.html" target="_top" xlink:title=" ">
<polygon fill="#fff0f0" stroke="red" points="421,-19 262,-19 262,0 421,0 421,-19"/>
<text text-anchor="middle" x="341.5" y="-7" font-family="Helvetica,sans-Serif" font-size="10.00">aphoto_change_log_operator.hpp</text>
</a>
</g>
</g>
<!-- Node1&#45;&gt;Node18 -->
<g id="edge3" class="edge">
<title>Node1&#45;&gt;Node18</title>
<path fill="none" stroke="#63b8ff" d="M230.08,-54.54C254.17,-45.02 285.44,-32.66 308.72,-23.46"/>
<polygon fill="#63b8ff" stroke="#63b8ff" points="309.7,-26.83 317.71,-19.9 307.13,-20.32 309.7,-26.83"/>
</g>
</g>
</svg>
