<?xml version="1.0" encoding="UTF-8" standalone="no"?>
<!DOCTYPE svg PUBLIC "-//W3C//DTD SVG 1.1//EN"
 "http://www.w3.org/Graphics/SVG/1.1/DTD/svg11.dtd">
<!-- Generated by graphviz version 12.2.0 (20241103.1931)
 -->
<!-- Title: src/core/generic_concepts.hpp Pages: 1 -->
<svg width="163pt" height="83pt"
 viewBox="0.00 0.00 162.75 82.50" xmlns="http://www.w3.org/2000/svg" xmlns:xlink="http://www.w3.org/1999/xlink">
<g id="graph0" class="graph" transform="scale(1 1) rotate(0) translate(4 78.5)">
<title>src/core/generic_concepts.hpp</title>
<!-- Node1 -->
<g id="Node000001" class="node">
<title>Node1</title>
<g id="a_Node000001"><a xlink:title=" ">
<polygon fill="#999999" stroke="#666666" points="148.75,-74.5 0,-74.5 0,-55.25 148.75,-55.25 148.75,-74.5"/>
<text text-anchor="middle" x="74.38" y="-61" font-family="Helvetica,sans-Serif" font-size="10.00">src/core/generic_concepts.hpp</text>
</a>
</g>
</g>
<!-- Node2 -->
<g id="Node000002" class="node">
<title>Node2</title>
<g id="a_Node000002"><a xlink:title=" ">
<polygon fill="#e0e0e0" stroke="#999999" points="53.75,-19.25 19,-19.25 19,0 53.75,0 53.75,-19.25"/>
<text text-anchor="middle" x="36.38" y="-5.75" font-family="Helvetica,sans-Serif" font-size="10.00">map</text>
</a>
</g>
</g>
<!-- Node1&#45;&gt;Node2 -->
<g id="edge1_Node000001_Node000002" class="edge">
<title>Node1&#45;&gt;Node2</title>
<g id="a_edge1_Node000001_Node000002"><a xlink:title=" ">
<path fill="none" stroke="#63b8ff" d="M68.1,-55.08C63.02,-47.96 55.68,-37.68 49.34,-28.8"/>
<polygon fill="#63b8ff" stroke="#63b8ff" points="52.32,-26.95 43.67,-20.84 46.63,-31.01 52.32,-26.95"/>
</a>
</g>
</g>
<!-- Node3 -->
<g id="Node000003" class="node">
<title>Node3</title>
<g id="a_Node000003"><a xlink:title=" ">
<polygon fill="#e0e0e0" stroke="#999999" points="154.75,-19.25 72,-19.25 72,0 154.75,0 154.75,-19.25"/>
<text text-anchor="middle" x="113.38" y="-5.75" font-family="Helvetica,sans-Serif" font-size="10.00">unordered_map</text>
</a>
</g>
</g>
<!-- Node1&#45;&gt;Node3 -->
<g id="edge2_Node000001_Node000003" class="edge">
<title>Node1&#45;&gt;Node3</title>
<g id="a_edge2_Node000001_Node000003"><a xlink:title=" ">
<path fill="none" stroke="#63b8ff" d="M80.82,-55.08C86.03,-47.96 93.56,-37.68 100.07,-28.8"/>
<polygon fill="#63b8ff" stroke="#63b8ff" points="102.82,-30.97 105.9,-20.83 97.17,-26.83 102.82,-30.97"/>
</a>
</g>
</g>
</g>
</svg>
