<?xml version="1.0" encoding="UTF-8" standalone="no"?>
<!DOCTYPE svg PUBLIC "-//W3C//DTD SVG 1.1//EN"
 "http://www.w3.org/Graphics/SVG/1.1/DTD/svg11.dtd">
<!-- Generated by graphviz version 9.0.0 (20230911.1827)
 -->
<!-- Title: src/core/itask_executor.hpp Pages: 1 -->
<!--zoomable 172 -->

<svg id="main" version="1.1" xmlns="http://www.w3.org/2000/svg" xmlns:xlink="http://www.w3.org/1999/xlink" xml:space="preserve" onload="init(evt)">
<style type="text/css"><![CDATA[
.node, .edge {opacity: 0.7;}
.node.selected, .edge.selected {opacity: 1;}
.edge:hover path { stroke: red; }
.edge:hover polygon { stroke: red; fill: red; }
]]></style>

<defs>
  <circle id="rim" cx="0" cy="0" r="7"/>
  <circle id="rim2" cx="0" cy="0" r="3.5"/>
  <g id="zoomPlus">
    <use xlink:href="#rim" fill="#404040"><set attributeName="fill" to="#808080" begin="zoomplus.mouseover" end="zoomplus.mouseout"/></use>
    <path d="M-4,0h8M0,-4v8" fill="none" stroke="white" stroke-width="1.5" pointer-events="none"/>
  </g>
  <g id="zoomMin">
    <use xlink:href="#rim" fill="#404040"><set attributeName="fill" to="#808080" begin="zoomminus.mouseover" end="zoomminus.mouseout"/></use>
    <path d="M-4,0h8" fill="none" stroke="white" stroke-width="1.5" pointer-events="none"/>
  </g>
  <g id="arrowUp" transform="translate(30 24)">
    <use xlink:href="#rim"/>
    <path pointer-events="none" fill="none" stroke="white" stroke-width="1.5" d="M0,-3.0v7 M-2.5,-0.5L0,-3.0L2.5,-0.5"/>
  </g>
  <g id="arrowRight" transform="rotate(90) translate(36 -43)">
    <use xlink:href="#rim"/>
    <path pointer-events="none" fill="none" stroke="white" stroke-width="1.5" d="M0,-3.0v7 M-2.5,-0.5L0,-3.0L2.5,-0.5"/>
  </g>
  <g id="arrowDown" transform="rotate(180) translate(-30 -48)">
    <use xlink:href="#rim"/>
    <path pointer-events="none" fill="none" stroke="white" stroke-width="1.5" d="M0,-3.0v7 M-2.5,-0.5L0,-3.0L2.5,-0.5"/>
  </g>
  <g id="arrowLeft" transform="rotate(270) translate(-36 17)">
    <use xlink:href="#rim"/>
    <path pointer-events="none" fill="none" stroke="white" stroke-width="1.5" d="M0,-3.0v7 M-2.5,-0.5L0,-3.0L2.5,-0.5"/>
  </g>
  <g id="resetDef">
    <use xlink:href="#rim2" fill="#404040"><set attributeName="fill" to="#808080" begin="reset.mouseover" end="reset.mouseout"/></use>
  </g>
</defs>
<script type="application/ecmascript">
var viewWidth = 1270;
var viewHeight = 172;
var sectionId = 'dynsection-1';
</script>
<script type="application/ecmascript" xlink:href="../../svg.min.js"/>
<svg id="graph" class="graph">
<g id="viewport">
<title>src/core/itask_executor.hpp</title>
<!-- Node1 -->
<g id="Node000001" class="node">
<title>Node1</title>
<g id="a_Node000001"><a xlink:title=" ">
<polygon fill="#999999" stroke="#666666" points="606.38,-163.5 471.12,-163.5 471.12,-144.25 606.38,-144.25 606.38,-163.5"/>
<text text-anchor="middle" x="538.75" y="-150" font-family="Helvetica,sans-Serif" font-size="10.00">src/core/itask_executor.hpp</text>
</a>
</g>
</g>
<!-- Node2 -->
<g id="Node000002" class="node">
<title>Node2</title>
<g id="a_Node000002"><a xlink:href="../../d5/d23/observable__task__executor_8hpp.html" target="_top" xlink:title=" ">
<polygon fill="#fff0f0" stroke="red" points="101.5,-102.62 0,-102.62 0,-72.12 101.5,-72.12 101.5,-102.62"/>
<text text-anchor="start" x="8" y="-89.12" font-family="Helvetica,sans-Serif" font-size="10.00">src/core/observable</text>
<text text-anchor="middle" x="50.75" y="-77.88" font-family="Helvetica,sans-Serif" font-size="10.00">_task_executor.hpp</text>
</a>
</g>
</g>
<!-- Node1&#45;&gt;Node2 -->
<g id="edge1_Node000001_Node000002" class="edge">
<title>Node1&#45;&gt;Node2</title>
<g id="a_edge1_Node000001_Node000002"><a xlink:title=" ">
<path fill="none" stroke="#63b8ff" d="M459.44,-149.88C372.7,-145.38 230.02,-134.42 109.75,-108.25 103.41,-106.87 96.81,-105.05 90.4,-103.06"/>
<polygon fill="#63b8ff" stroke="#63b8ff" points="459.1,-153.36 469.26,-150.37 459.45,-146.37 459.1,-153.36"/>
</a>
</g>
</g>
<!-- Node10 -->
<g id="Node000010" class="node">
<title>Node10</title>
<g id="a_Node000010"><a xlink:href="../../dc/dc0/task__executor_8hpp.html" target="_top" xlink:title=" ">
<polygon fill="#fff0f0" stroke="red" points="252.25,-97 119.25,-97 119.25,-77.75 252.25,-77.75 252.25,-97"/>
<text text-anchor="middle" x="185.75" y="-83.5" font-family="Helvetica,sans-Serif" font-size="10.00">src/core/task_executor.hpp</text>
</a>
</g>
</g>
<!-- Node1&#45;&gt;Node10 -->
<g id="edge2_Node000001_Node000010" class="edge">
<title>Node1&#45;&gt;Node10</title>
<g id="a_edge2_Node000001_Node000010"><a xlink:title=" ">
<path fill="none" stroke="#63b8ff" d="M463.11,-142.08C408.38,-133.88 332.73,-121.74 266.75,-108.25 251.43,-105.12 234.62,-101.09 220.3,-97.48"/>
<polygon fill="#63b8ff" stroke="#63b8ff" points="462.56,-145.54 472.97,-143.55 463.59,-138.62 462.56,-145.54"/>
</a>
</g>
</g>
<!-- Node13 -->
<g id="Node000013" class="node">
<title>Node13</title>
<g id="a_Node000013"><a xlink:href="../../d4/d20/task__executor__utils_8hpp.html" target="_top" xlink:title=" ">
<polygon fill="#fff0f0" stroke="red" points="424.25,-102.62 309.25,-102.62 309.25,-72.12 424.25,-72.12 424.25,-102.62"/>
<text text-anchor="start" x="317.25" y="-89.12" font-family="Helvetica,sans-Serif" font-size="10.00">src/core/task_executor</text>
<text text-anchor="middle" x="366.75" y="-77.88" font-family="Helvetica,sans-Serif" font-size="10.00">_utils.hpp</text>
</a>
</g>
</g>
<!-- Node1&#45;&gt;Node13 -->
<g id="edge3_Node000001_Node000013" class="edge">
<title>Node1&#45;&gt;Node13</title>
<g id="a_edge3_Node000001_Node000013"><a xlink:title=" ">
<path fill="none" stroke="#63b8ff" d="M503.82,-139.78C475.4,-129.12 435.3,-114.08 405.81,-103.02"/>
<polygon fill="#63b8ff" stroke="#63b8ff" points="502.46,-143 513.05,-143.24 504.92,-136.45 502.46,-143"/>
</a>
</g>
</g>
<!-- Node18 -->
<g id="Node000018" class="node">
<title>Node18</title>
<g id="a_Node000018"><a xlink:href="../../dd/d30/series__model_8cpp.html" target="_top" xlink:title=" ">
<polygon fill="white" stroke="#666666" points="356.38,-30.5 239.12,-30.5 239.12,0 356.38,0 356.38,-30.5"/>
<text text-anchor="start" x="247.12" y="-17" font-family="Helvetica,sans-Serif" font-size="10.00">src/gui/desktop/models</text>
<text text-anchor="middle" x="297.75" y="-5.75" font-family="Helvetica,sans-Serif" font-size="10.00">/series_model.cpp</text>
</a>
</g>
</g>
<!-- Node1&#45;&gt;Node18 -->
<g id="edge8_Node000001_Node000018" class="edge">
<title>Node1&#45;&gt;Node18</title>
<g id="a_edge8_Node000001_Node000018"><a xlink:title=" ">
<path fill="none" stroke="#63b8ff" d="M459.61,-148.61C398.2,-143.47 320.17,-132.29 299.75,-108.25 281.45,-86.69 287.5,-50.97 292.97,-30.97"/>
<polygon fill="#63b8ff" stroke="#63b8ff" points="459.12,-152.09 469.36,-149.39 459.67,-145.11 459.12,-152.09"/>
</a>
</g>
</g>
<!-- Node26 -->
<g id="Node000026" class="node">
<title>Node26</title>
<g id="a_Node000026"><a xlink:href="../../d1/da8/batch__face__detector_8cpp.html" target="_top" xlink:title=" ">
<polygon fill="white" stroke="#666666" points="515.5,-30.5 390,-30.5 390,0 515.5,0 515.5,-30.5"/>
<text text-anchor="start" x="398" y="-17" font-family="Helvetica,sans-Serif" font-size="10.00">src/gui/desktop/utils</text>
<text text-anchor="middle" x="452.75" y="-5.75" font-family="Helvetica,sans-Serif" font-size="10.00">/batch_face_detector.cpp</text>
</a>
</g>
</g>
<!-- Node1&#45;&gt;Node26 -->
<g id="edge9_Node000001_Node000026" class="edge">
<title>Node1&#45;&gt;Node26</title>
<g id="a_edge9_Node000001_Node000026"><a xlink:title=" ">
<path fill="none" stroke="#63b8ff" d="M507.85,-138.59C495.17,-131.23 481.44,-121.08 472.75,-108.25 456.71,-84.56 453.26,-50.27 452.67,-30.94"/>
<polygon fill="#63b8ff" stroke="#63b8ff" points="505.9,-141.51 516.36,-143.17 509.22,-135.34 505.9,-141.51"/>
</a>
</g>
</g>
<!-- Node4 -->
<g id="Node000004" class="node">
<title>Node4</title>
<g id="a_Node000004"><a xlink:href="../../d7/d45/photos__analyzer_8cpp.html" target="_top" xlink:title=" ">
<polygon fill="white" stroke="#666666" points="596.25,-108.25 481.25,-108.25 481.25,-66.5 596.25,-66.5 596.25,-108.25"/>
<text text-anchor="start" x="489.25" y="-94.75" font-family="Helvetica,sans-Serif" font-size="10.00">src/database/database</text>
<text text-anchor="start" x="489.25" y="-83.5" font-family="Helvetica,sans-Serif" font-size="10.00">_tools/implementation</text>
<text text-anchor="middle" x="538.75" y="-72.25" font-family="Helvetica,sans-Serif" font-size="10.00">/photos_analyzer.cpp</text>
</a>
</g>
</g>
<!-- Node1&#45;&gt;Node4 -->
<g id="edge6_Node000001_Node000004" class="edge">
<title>Node1&#45;&gt;Node4</title>
<g id="a_edge6_Node000001_Node000004"><a xlink:title=" ">
<path fill="none" stroke="#63b8ff" d="M538.75,-132.45C538.75,-124.86 538.75,-116.26 538.75,-108.68"/>
<polygon fill="#63b8ff" stroke="#63b8ff" points="535.25,-132.39 538.75,-142.39 542.25,-132.39 535.25,-132.39"/>
</a>
</g>
</g>
<!-- Node6 -->
<g id="Node000006" class="node">
<title>Node6</title>
<g id="a_Node000006"><a xlink:href="../../d4/d46/gui_8cpp.html" target="_top" xlink:title=" ">
<polygon fill="white" stroke="#666666" points="731,-97 614.5,-97 614.5,-77.75 731,-77.75 731,-97"/>
<text text-anchor="middle" x="672.75" y="-83.5" font-family="Helvetica,sans-Serif" font-size="10.00">src/gui/desktop/gui.cpp</text>
</a>
</g>
</g>
<!-- Node1&#45;&gt;Node6 -->
<g id="edge7_Node000001_Node000006" class="edge">
<title>Node1&#45;&gt;Node6</title>
<g id="a_edge7_Node000001_Node000006"><a xlink:title=" ">
<path fill="none" stroke="#63b8ff" d="M567.74,-138.92C593.87,-126.34 631.53,-108.22 653.93,-97.43"/>
<polygon fill="#63b8ff" stroke="#63b8ff" points="566.52,-135.62 559.03,-143.11 569.56,-141.93 566.52,-135.62"/>
</a>
</g>
</g>
<!-- Node27 -->
<g id="Node000027" class="node">
<title>Node27</title>
<g id="a_Node000027"><a xlink:href="../../de/d11/batch__face__detector_8hpp.html" target="_top" xlink:title=" ">
<polygon fill="#fff0f0" stroke="red" points="874.5,-102.62 749,-102.62 749,-72.12 874.5,-72.12 874.5,-102.62"/>
<text text-anchor="start" x="757" y="-89.12" font-family="Helvetica,sans-Serif" font-size="10.00">src/gui/desktop/utils</text>
<text text-anchor="middle" x="811.75" y="-77.88" font-family="Helvetica,sans-Serif" font-size="10.00">/batch_face_detector.hpp</text>
</a>
</g>
</g>
<!-- Node1&#45;&gt;Node27 -->
<g id="edge10_Node000001_Node000027" class="edge">
<title>Node1&#45;&gt;Node27</title>
<g id="a_edge10_Node000001_Node000027"><a xlink:title=" ">
<path fill="none" stroke="#63b8ff" d="M594.06,-141.39C634.53,-132.79 690.71,-120.45 739.75,-108.25 746.29,-106.62 753.15,-104.83 759.92,-103.02"/>
<polygon fill="#63b8ff" stroke="#63b8ff" points="593.36,-137.96 584.3,-143.45 594.8,-144.81 593.36,-137.96"/>
</a>
</g>
</g>
<!-- Node29 -->
<g id="Node000029" class="node">
<title>Node29</title>
<g id="a_Node000029"><a xlink:href="../../de/da5/generator__utils_8hpp.html" target="_top" xlink:title=" ">
<polygon fill="#fff0f0" stroke="red" points="997.38,-108.25 892.12,-108.25 892.12,-66.5 997.38,-66.5 997.38,-108.25"/>
<text text-anchor="start" x="900.12" y="-94.75" font-family="Helvetica,sans-Serif" font-size="10.00">src/gui/desktop/utils</text>
<text text-anchor="start" x="900.12" y="-83.5" font-family="Helvetica,sans-Serif" font-size="10.00">/grouppers/generator</text>
<text text-anchor="middle" x="944.75" y="-72.25" font-family="Helvetica,sans-Serif" font-size="10.00">_utils.hpp</text>
</a>
</g>
</g>
<!-- Node1&#45;&gt;Node29 -->
<g id="edge12_Node000001_Node000029" class="edge">
<title>Node1&#45;&gt;Node29</title>
<g id="a_edge12_Node000001_Node000029"><a xlink:title=" ">
<path fill="none" stroke="#63b8ff" d="M618.26,-146.83C688.66,-140.47 793.9,-128.51 883.75,-108.25 886.36,-107.66 889.01,-107.01 891.68,-106.31"/>
<polygon fill="#63b8ff" stroke="#63b8ff" points="617.99,-143.34 608.34,-147.7 618.61,-150.31 617.99,-143.34"/>
</a>
</g>
</g>
<!-- Node37 -->
<g id="Node000037" class="node">
<title>Node37</title>
<g id="a_Node000037"><a xlink:href="../../d7/d21/internal__task__executor_8hpp.html" target="_top" xlink:title=" ">
<polygon fill="#fff0f0" stroke="red" points="1122.12,-108.25 1015.38,-108.25 1015.38,-66.5 1122.12,-66.5 1122.12,-108.25"/>
<text text-anchor="start" x="1023.38" y="-94.75" font-family="Helvetica,sans-Serif" font-size="10.00">src/gui/unit_tests</text>
<text text-anchor="start" x="1023.38" y="-83.5" font-family="Helvetica,sans-Serif" font-size="10.00">/test_helpers/internal</text>
<text text-anchor="middle" x="1068.75" y="-72.25" font-family="Helvetica,sans-Serif" font-size="10.00">_task_executor.hpp</text>
</a>
</g>
</g>
<!-- Node1&#45;&gt;Node37 -->
<g id="edge13_Node000001_Node000037" class="edge">
<title>Node1&#45;&gt;Node37</title>
<g id="a_edge13_Node000001_Node000037"><a xlink:title=" ">
<path fill="none" stroke="#63b8ff" d="M618.23,-150.5C711.96,-146.5 872.06,-135.92 1006.75,-108.25 1009.52,-107.68 1012.34,-107.03 1015.17,-106.33"/>
<polygon fill="#63b8ff" stroke="#63b8ff" points="618.21,-147 608.37,-150.9 618.5,-153.99 618.21,-147"/>
</a>
</g>
</g>
<!-- Node39 -->
<g id="Node000039" class="node">
<title>Node39</title>
<g id="a_Node000039"><a xlink:href="../../d1/dff/fake__task__executor_8hpp.html" target="_top" xlink:title=" ">
<polygon fill="#fff0f0" stroke="red" points="1261.62,-102.62 1139.88,-102.62 1139.88,-72.12 1261.62,-72.12 1261.62,-102.62"/>
<text text-anchor="start" x="1147.88" y="-89.12" font-family="Helvetica,sans-Serif" font-size="10.00">src/unit_tests_utils</text>
<text text-anchor="middle" x="1200.75" y="-77.88" font-family="Helvetica,sans-Serif" font-size="10.00">/fake_task_executor.hpp</text>
</a>
</g>
</g>
<!-- Node1&#45;&gt;Node39 -->
<g id="edge14_Node000001_Node000039" class="edge">
<title>Node1&#45;&gt;Node39</title>
<g id="a_edge14_Node000001_Node000039"><a xlink:title=" ">
<path fill="none" stroke="#63b8ff" d="M618.18,-151.95C732.39,-149.48 949.25,-140.52 1130.75,-108.25 1138.34,-106.9 1146.28,-105.07 1153.99,-103.05"/>
<polygon fill="#63b8ff" stroke="#63b8ff" points="618.22,-148.45 608.29,-152.15 618.36,-155.45 618.22,-148.45"/>
</a>
</g>
</g>
<!-- Node13&#45;&gt;Node18 -->
<g id="edge4_Node000013_Node000018" class="edge">
<title>Node13&#45;&gt;Node18</title>
<g id="a_edge4_Node000013_Node000018"><a xlink:title=" ">
<path fill="none" stroke="#63b8ff" d="M344.4,-63.66C333.76,-52.85 321.37,-40.25 312.03,-30.76"/>
<polygon fill="#63b8ff" stroke="#63b8ff" points="341.88,-66.09 351.39,-70.77 346.87,-61.18 341.88,-66.09"/>
</a>
</g>
</g>
<!-- Node13&#45;&gt;Node26 -->
<g id="edge5_Node000013_Node000026" class="edge">
<title>Node13&#45;&gt;Node26</title>
<g id="a_edge5_Node000013_Node000026"><a xlink:title=" ">
<path fill="none" stroke="#63b8ff" d="M393.44,-64.62C406.94,-53.6 422.97,-40.54 434.95,-30.76"/>
<polygon fill="#63b8ff" stroke="#63b8ff" points="391.28,-61.86 385.74,-70.89 395.7,-67.28 391.28,-61.86"/>
</a>
</g>
</g>
<!-- Node27&#45;&gt;Node26 -->
<g id="edge11_Node000027_Node000026" class="edge">
<title>Node27&#45;&gt;Node26</title>
<g id="a_edge11_Node000027_Node000026"><a xlink:title=" ">
<path fill="none" stroke="#63b8ff" d="M749.85,-68.88C746.44,-68.04 743.06,-67.24 739.75,-66.5 663.26,-49.29 574.18,-34.5 515.8,-25.51"/>
<polygon fill="#63b8ff" stroke="#63b8ff" points="748.75,-72.21 759.3,-71.28 750.47,-65.43 748.75,-72.21"/>
</a>
</g>
</g>
</g>
</svg>

<g id="navigator" transform="translate(0 0)" fill="#404254">
  <rect fill="#f2f5e9" fill-opacity="0.5" stroke="#606060" stroke-width=".5" x="0" y="0" width="60" height="60"/>
  <use id="zoomplus" xlink:href="#zoomPlus" x="17" y="9" onmousedown="handleZoom(evt,'in')"/>
  <use id="zoomminus" xlink:href="#zoomMin" x="42" y="9" onmousedown="handleZoom(evt,'out')"/>
  <use id="reset" xlink:href="#resetDef" x="30" y="36" onmousedown="handleReset()"/>
   <use id="arrowup" xlink:href="#arrowUp" x="0" y="0" onmousedown="handlePan(0,-1)"/>
  <use id="arrowright" xlink:href="#arrowRight" x="0" y="0" onmousedown="handlePan(1,0)"/>
  <use id="arrowdown" xlink:href="#arrowDown" x="0" y="0" onmousedown="handlePan(0,1)"/>
  <use id="arrowleft" xlink:href="#arrowLeft" x="0" y="0" onmousedown="handlePan(-1,0)"/>
</g>
<svg viewBox="0 0 15 15" width="100%" height="30px" preserveAspectRatio="xMaxYMin meet">
 <g id="arrow_out" transform="scale(0.3 0.3)">
  <a xlink:href="itask__executor_8hpp__dep__incl_org.svg" target="_base">
   <rect id="button" ry="5" rx="5" y="6" x="6" height="38" width="38"
        fill="#f2f5e9" fill-opacity="0.5" stroke="#606060" stroke-width="1.0"/>
   <path id="arrow"
     d="M 11.500037,31.436501 C 11.940474,20.09759 22.043105,11.32322 32.158766,21.979434 L 37.068811,17.246167 C 37.068811,17.246167 37.088388,32 37.088388,32 L 22.160133,31.978069 C 22.160133,31.978069 26.997745,27.140456 26.997745,27.140456 C 18.528582,18.264221 13.291696,25.230495 11.500037,31.436501 z"
     style="fill:#404040;"/>
  </a>
 </g>
</svg>

<style type='text/css'>
<![CDATA[
[data-mouse-over-selected='false'] { opacity: 0.7; }
[data-mouse-over-selected='true']  { opacity: 1.0; }
]]>
</style>
<script type="application/ecmascript"><![CDATA[
document.addEventListener('DOMContentLoaded', (event) => {
  highlightEdges();
  highlightAdjacentNodes();
});
]]></script>
</svg>
