<?xml version="1.0" encoding="UTF-8" standalone="no"?>
<!DOCTYPE svg PUBLIC "-//W3C//DTD SVG 1.1//EN"
 "http://www.w3.org/Graphics/SVG/1.1/DTD/svg11.dtd">
<!-- Generated by graphviz version 7.0.5 (20221223.1930)
 -->
<!-- Title: src/core/itask_executor.hpp Pages: 1 -->
<svg width="1094pt" height="170pt"
 viewBox="0.00 0.00 1094.00 170.00" xmlns="http://www.w3.org/2000/svg" xmlns:xlink="http://www.w3.org/1999/xlink">
<g id="graph0" class="graph" transform="scale(1 1) rotate(0) translate(4 166)">
<title>src/core/itask_executor.hpp</title>
<!-- Node1 -->
<g id="node1" class="node">
<title>Node1</title>
<g id="a_node1"><a xlink:title=" ">
<polygon fill="#999999" stroke="#666666" points="570,-162 434,-162 434,-143 570,-143 570,-162"/>
<text text-anchor="middle" x="502" y="-150" font-family="Helvetica,sans-Serif" font-size="10.00">src/core/itask_executor.hpp</text>
</a>
</g>
</g>
<!-- Node2 -->
<g id="node2" class="node">
<title>Node2</title>
<g id="a_node2"><a xlink:href="../../d5/d23/observable__task__executor_8hpp.html" target="_top" xlink:title=" ">
<polygon fill="#fff0f0" stroke="red" points="102,-101.5 0,-101.5 0,-71.5 102,-71.5 102,-101.5"/>
<text text-anchor="start" x="8" y="-89.5" font-family="Helvetica,sans-Serif" font-size="10.00">src/core/observable</text>
<text text-anchor="middle" x="51" y="-78.5" font-family="Helvetica,sans-Serif" font-size="10.00">_task_executor.hpp</text>
</a>
</g>
</g>
<!-- Node1&#45;&gt;Node2 -->
<g id="edge1" class="edge">
<title>Node1&#45;&gt;Node2</title>
<path fill="none" stroke="#63b8ff" d="M422.11,-147.12C342.55,-141.66 217.27,-130.07 111,-107 104.68,-105.63 98.09,-103.85 91.69,-101.93"/>
<polygon fill="#63b8ff" stroke="#63b8ff" points="421.79,-150.61 432,-147.78 422.26,-143.62 421.79,-150.61"/>
</g>
<!-- Node10 -->
<g id="node3" class="node">
<title>Node10</title>
<g id="a_node3"><a xlink:href="../../dc/dc0/task__executor_8hpp.html" target="_top" xlink:title=" ">
<polygon fill="#fff0f0" stroke="red" points="254,-96 120,-96 120,-77 254,-77 254,-96"/>
<text text-anchor="middle" x="187" y="-84" font-family="Helvetica,sans-Serif" font-size="10.00">src/core/task_executor.hpp</text>
</a>
</g>
</g>
<!-- Node1&#45;&gt;Node10 -->
<g id="edge2" class="edge">
<title>Node1&#45;&gt;Node10</title>
<path fill="none" stroke="#63b8ff" d="M436.95,-140.6C388.76,-132.23 321.56,-119.95 263,-107 248.77,-103.85 233.16,-99.93 219.8,-96.43"/>
<polygon fill="#63b8ff" stroke="#63b8ff" points="436.22,-144.03 446.67,-142.28 437.41,-137.13 436.22,-144.03"/>
</g>
<!-- Node13 -->
<g id="node4" class="node">
<title>Node13</title>
<g id="a_node4"><a xlink:href="../../d4/d20/task__executor__utils_8hpp.html" target="_top" xlink:title=" ">
<polygon fill="#fff0f0" stroke="red" points="388,-101.5 272,-101.5 272,-71.5 388,-71.5 388,-101.5"/>
<text text-anchor="start" x="280" y="-89.5" font-family="Helvetica,sans-Serif" font-size="10.00">src/core/task_executor</text>
<text text-anchor="middle" x="330" y="-78.5" font-family="Helvetica,sans-Serif" font-size="10.00">_utils.hpp</text>
</a>
</g>
</g>
<!-- Node1&#45;&gt;Node13 -->
<g id="edge3" class="edge">
<title>Node1&#45;&gt;Node13</title>
<path fill="none" stroke="#63b8ff" d="M467.42,-138.63C438.92,-128.03 398.53,-113 368.91,-101.98"/>
<polygon fill="#63b8ff" stroke="#63b8ff" points="466.07,-141.87 476.67,-142.07 468.51,-135.31 466.07,-141.87"/>
</g>
<!-- Node18 -->
<g id="node5" class="node">
<title>Node18</title>
<g id="a_node5"><a xlink:href="../../dd/d30/series__model_8cpp.html" target="_top" xlink:title=" ">
<polygon fill="white" stroke="#666666" points="432,-30 314,-30 314,0 432,0 432,-30"/>
<text text-anchor="start" x="322" y="-18" font-family="Helvetica,sans-Serif" font-size="10.00">src/gui/desktop/models</text>
<text text-anchor="middle" x="373" y="-7" font-family="Helvetica,sans-Serif" font-size="10.00">/series_model.cpp</text>
</a>
</g>
</g>
<!-- Node1&#45;&gt;Node18 -->
<g id="edge7" class="edge">
<title>Node1&#45;&gt;Node18</title>
<path fill="none" stroke="#63b8ff" d="M474.92,-136.82C461.96,-129 446.76,-118.62 435,-107 411.07,-83.35 390.74,-49.21 380.37,-30.18"/>
<polygon fill="#63b8ff" stroke="#63b8ff" points="473,-139.75 483.41,-141.74 476.51,-133.7 473,-139.75"/>
</g>
<!-- Node4 -->
<g id="node6" class="node">
<title>Node4</title>
<g id="a_node6"><a xlink:href="../../d7/d45/photos__analyzer_8cpp.html" target="_top" xlink:title=" ">
<polygon fill="white" stroke="#666666" points="560,-107 444,-107 444,-66 560,-66 560,-107"/>
<text text-anchor="start" x="452" y="-95" font-family="Helvetica,sans-Serif" font-size="10.00">src/database/database</text>
<text text-anchor="start" x="452" y="-84" font-family="Helvetica,sans-Serif" font-size="10.00">_tools/implementation</text>
<text text-anchor="middle" x="502" y="-73" font-family="Helvetica,sans-Serif" font-size="10.00">/photos_analyzer.cpp</text>
</a>
</g>
</g>
<!-- Node1&#45;&gt;Node4 -->
<g id="edge5" class="edge">
<title>Node1&#45;&gt;Node4</title>
<path fill="none" stroke="#63b8ff" d="M502,-131.14C502,-123.54 502,-114.93 502,-107.38"/>
<polygon fill="#63b8ff" stroke="#63b8ff" points="498.5,-131.09 502,-141.09 505.5,-131.09 498.5,-131.09"/>
</g>
<!-- Node6 -->
<g id="node7" class="node">
<title>Node6</title>
<g id="a_node7"><a xlink:href="../../d4/d46/gui_8cpp.html" target="_top" xlink:title=" ">
<polygon fill="white" stroke="#666666" points="695.5,-96 578.5,-96 578.5,-77 695.5,-77 695.5,-96"/>
<text text-anchor="middle" x="637" y="-84" font-family="Helvetica,sans-Serif" font-size="10.00">src/gui/desktop/gui.cpp</text>
</a>
</g>
</g>
<!-- Node1&#45;&gt;Node6 -->
<g id="edge6" class="edge">
<title>Node1&#45;&gt;Node6</title>
<path fill="none" stroke="#63b8ff" d="M530.96,-137.77C557.43,-125.22 595.79,-107.04 618.39,-96.32"/>
<polygon fill="#63b8ff" stroke="#63b8ff" points="529.68,-134.51 522.14,-141.95 532.67,-140.83 529.68,-134.51"/>
</g>
<!-- Node25 -->
<g id="node8" class="node">
<title>Node25</title>
<g id="a_node8"><a xlink:href="../../de/da5/generator__utils_8hpp.html" target="_top" xlink:title=" ">
<polygon fill="#fff0f0" stroke="red" points="820,-107 714,-107 714,-66 820,-66 820,-107"/>
<text text-anchor="start" x="722" y="-95" font-family="Helvetica,sans-Serif" font-size="10.00">src/gui/desktop/utils</text>
<text text-anchor="start" x="722" y="-84" font-family="Helvetica,sans-Serif" font-size="10.00">/grouppers/generator</text>
<text text-anchor="middle" x="767" y="-73" font-family="Helvetica,sans-Serif" font-size="10.00">_utils.hpp</text>
</a>
</g>
</g>
<!-- Node1&#45;&gt;Node25 -->
<g id="edge8" class="edge">
<title>Node1&#45;&gt;Node25</title>
<path fill="none" stroke="#63b8ff" d="M559.73,-140.27C600.54,-131.98 656.4,-119.94 705,-107 707.83,-106.25 710.73,-105.44 713.65,-104.61"/>
<polygon fill="#63b8ff" stroke="#63b8ff" points="559.24,-136.8 550.13,-142.2 560.62,-143.66 559.24,-136.8"/>
</g>
<!-- Node33 -->
<g id="node9" class="node">
<title>Node33</title>
<g id="a_node9"><a xlink:href="../../d7/d21/internal__task__executor_8hpp.html" target="_top" xlink:title=" ">
<polygon fill="#fff0f0" stroke="red" points="945.5,-107 838.5,-107 838.5,-66 945.5,-66 945.5,-107"/>
<text text-anchor="start" x="846.5" y="-95" font-family="Helvetica,sans-Serif" font-size="10.00">src/gui/unit_tests</text>
<text text-anchor="start" x="846.5" y="-84" font-family="Helvetica,sans-Serif" font-size="10.00">/test_helpers/internal</text>
<text text-anchor="middle" x="892" y="-73" font-family="Helvetica,sans-Serif" font-size="10.00">_task_executor.hpp</text>
</a>
</g>
</g>
<!-- Node1&#45;&gt;Node33 -->
<g id="edge9" class="edge">
<title>Node1&#45;&gt;Node33</title>
<path fill="none" stroke="#63b8ff" d="M581.46,-144.39C648.08,-137.55 745.45,-125.48 829,-107 832.02,-106.33 835.1,-105.59 838.2,-104.79"/>
<polygon fill="#63b8ff" stroke="#63b8ff" points="581.32,-140.89 571.72,-145.37 582.02,-147.85 581.32,-140.89"/>
</g>
<!-- Node35 -->
<g id="node10" class="node">
<title>Node35</title>
<g id="a_node10"><a xlink:href="../../d1/dff/fake__task__executor_8hpp.html" target="_top" xlink:title=" ">
<polygon fill="#fff0f0" stroke="red" points="1086,-101.5 964,-101.5 964,-71.5 1086,-71.5 1086,-101.5"/>
<text text-anchor="start" x="972" y="-89.5" font-family="Helvetica,sans-Serif" font-size="10.00">src/unit_tests_utils</text>
<text text-anchor="middle" x="1025" y="-78.5" font-family="Helvetica,sans-Serif" font-size="10.00">/fake_task_executor.hpp</text>
</a>
</g>
</g>
<!-- Node1&#45;&gt;Node35 -->
<g id="edge10" class="edge">
<title>Node1&#45;&gt;Node35</title>
<path fill="none" stroke="#63b8ff" d="M581.76,-147.86C672.72,-142.75 825.57,-131.2 955,-107 962.32,-105.63 969.98,-103.86 977.44,-101.94"/>
<polygon fill="#63b8ff" stroke="#63b8ff" points="581.74,-144.36 571.95,-148.4 582.13,-151.35 581.74,-144.36"/>
</g>
<!-- Node13&#45;&gt;Node18 -->
<g id="edge4" class="edge">
<title>Node13&#45;&gt;Node18</title>
<path fill="none" stroke="#63b8ff" d="M344.92,-61.38C351.32,-51.05 358.57,-39.32 364.1,-30.38"/>
<polygon fill="#63b8ff" stroke="#63b8ff" points="341.99,-59.47 339.71,-69.81 347.94,-63.15 341.99,-59.47"/>
</g>
</g>
</svg>
