<?xml version="1.0" encoding="UTF-8" standalone="no"?>
<!DOCTYPE svg PUBLIC "-//W3C//DTD SVG 1.1//EN"
 "http://www.w3.org/Graphics/SVG/1.1/DTD/svg11.dtd">
<!-- Generated by graphviz version 7.0.5 (20221223.1930)
 -->
<!-- Title: src/core/logger_factory.hpp Pages: 1 -->
<svg width="660pt" height="93pt"
 viewBox="0.00 0.00 659.50 93.00" xmlns="http://www.w3.org/2000/svg" xmlns:xlink="http://www.w3.org/1999/xlink">
<g id="graph0" class="graph" transform="scale(1 1) rotate(0) translate(4 89)">
<title>src/core/logger_factory.hpp</title>
<!-- Node1 -->
<g id="node1" class="node">
<title>Node1</title>
<g id="a_node1"><a xlink:title=" ">
<polygon fill="#999999" stroke="#666666" points="425.5,-85 291.5,-85 291.5,-66 425.5,-66 425.5,-85"/>
<text text-anchor="middle" x="358.5" y="-73" font-family="Helvetica,sans-Serif" font-size="10.00">src/core/logger_factory.hpp</text>
</a>
</g>
</g>
<!-- Node2 -->
<g id="node2" class="node">
<title>Node2</title>
<g id="a_node2"><a xlink:href="../../d0/d07/logger__factory_8cpp.html" target="_top" xlink:title=" ">
<polygon fill="white" stroke="#666666" points="121,-30 0,-30 0,0 121,0 121,-30"/>
<text text-anchor="start" x="8" y="-18" font-family="Helvetica,sans-Serif" font-size="10.00">src/core/implementation</text>
<text text-anchor="middle" x="60.5" y="-7" font-family="Helvetica,sans-Serif" font-size="10.00">/logger_factory.cpp</text>
</a>
</g>
</g>
<!-- Node1&#45;&gt;Node2 -->
<g id="edge1" class="edge">
<title>Node1&#45;&gt;Node2</title>
<path fill="none" stroke="#63b8ff" d="M300.93,-63.34C254.82,-54.38 188.49,-41.46 130.5,-30 127.46,-29.4 124.35,-28.78 121.2,-28.16"/>
<polygon fill="#63b8ff" stroke="#63b8ff" points="300.23,-66.77 310.71,-65.24 301.56,-59.9 300.23,-66.77"/>
</g>
<!-- Node3 -->
<g id="node3" class="node">
<title>Node3</title>
<g id="a_node3"><a xlink:href="../../de/d97/async__database_8cpp.html" target="_top" xlink:title=" ">
<polygon fill="white" stroke="#666666" points="281.5,-30 139.5,-30 139.5,0 281.5,0 281.5,-30"/>
<text text-anchor="start" x="147.5" y="-18" font-family="Helvetica,sans-Serif" font-size="10.00">src/database/implementation</text>
<text text-anchor="middle" x="210.5" y="-7" font-family="Helvetica,sans-Serif" font-size="10.00">/async_database.cpp</text>
</a>
</g>
</g>
<!-- Node1&#45;&gt;Node3 -->
<g id="edge2" class="edge">
<title>Node1&#45;&gt;Node3</title>
<path fill="none" stroke="#63b8ff" d="M325.62,-61.5C302.33,-52.3 271.09,-39.95 247.03,-30.44"/>
<polygon fill="#63b8ff" stroke="#63b8ff" points="324.03,-64.64 334.61,-65.06 326.6,-58.13 324.03,-64.64"/>
</g>
<!-- Node4 -->
<g id="node4" class="node">
<title>Node4</title>
<g id="a_node4"><a xlink:href="../../d4/df8/faces__model_8cpp.html" target="_top" xlink:title=" ">
<polygon fill="white" stroke="#666666" points="417.5,-30 299.5,-30 299.5,0 417.5,0 417.5,-30"/>
<text text-anchor="start" x="307.5" y="-18" font-family="Helvetica,sans-Serif" font-size="10.00">src/gui/desktop/models</text>
<text text-anchor="middle" x="358.5" y="-7" font-family="Helvetica,sans-Serif" font-size="10.00">/faces_model.cpp</text>
</a>
</g>
</g>
<!-- Node1&#45;&gt;Node4 -->
<g id="edge3" class="edge">
<title>Node1&#45;&gt;Node4</title>
<path fill="none" stroke="#63b8ff" d="M358.5,-54.51C358.5,-46.49 358.5,-37.43 358.5,-30.11"/>
<polygon fill="#63b8ff" stroke="#63b8ff" points="355,-54.35 358.5,-64.35 362,-54.35 355,-54.35"/>
</g>
<!-- Node5 -->
<g id="node5" class="node">
<title>Node5</title>
<g id="a_node5"><a xlink:href="../../d1/da8/batch__face__detector_8cpp.html" target="_top" xlink:title=" ">
<polygon fill="white" stroke="#666666" points="561.5,-30 435.5,-30 435.5,0 561.5,0 561.5,-30"/>
<text text-anchor="start" x="443.5" y="-18" font-family="Helvetica,sans-Serif" font-size="10.00">src/gui/desktop/utils</text>
<text text-anchor="middle" x="498.5" y="-7" font-family="Helvetica,sans-Serif" font-size="10.00">/batch_face_detector.cpp</text>
</a>
</g>
</g>
<!-- Node1&#45;&gt;Node5 -->
<g id="edge4" class="edge">
<title>Node1&#45;&gt;Node5</title>
<path fill="none" stroke="#63b8ff" d="M390.2,-61.25C412.16,-52.08 441.39,-39.86 463.94,-30.44"/>
<polygon fill="#63b8ff" stroke="#63b8ff" points="389.04,-57.95 381.16,-65.03 391.74,-64.41 389.04,-57.95"/>
</g>
<!-- Node6 -->
<g id="node6" class="node">
<title>Node6</title>
<g id="a_node6"><a xlink:href="../../df/d0a/main_8cpp.html" target="_top" xlink:title=" ">
<polygon fill="white" stroke="#666666" points="651.5,-24.5 579.5,-24.5 579.5,-5.5 651.5,-5.5 651.5,-24.5"/>
<text text-anchor="middle" x="615.5" y="-12.5" font-family="Helvetica,sans-Serif" font-size="10.00">src/main.cpp</text>
</a>
</g>
</g>
<!-- Node1&#45;&gt;Node6 -->
<g id="edge5" class="edge">
<title>Node1&#45;&gt;Node6</title>
<path fill="none" stroke="#63b8ff" d="M418.95,-63.39C461.56,-55.18 519.82,-43.17 570.5,-30 576.36,-28.48 582.59,-26.66 588.49,-24.86"/>
<polygon fill="#63b8ff" stroke="#63b8ff" points="418.3,-59.95 409.13,-65.27 419.61,-66.83 418.3,-59.95"/>
</g>
</g>
</svg>
