<?xml version="1.0" encoding="UTF-8" standalone="no"?>
<!DOCTYPE svg PUBLIC "-//W3C//DTD SVG 1.1//EN"
 "http://www.w3.org/Graphics/SVG/1.1/DTD/svg11.dtd">
<!-- Generated by graphviz version 7.0.5 (20221223.1930)
 -->
<!-- Title: src/core/implementation/image_media_information.hpp Pages: 1 -->
<svg width="346pt" height="148pt"
 viewBox="0.00 0.00 345.50 148.00" xmlns="http://www.w3.org/2000/svg" xmlns:xlink="http://www.w3.org/1999/xlink">
<g id="graph0" class="graph" transform="scale(1 1) rotate(0) translate(4 144)">
<title>src/core/implementation/image_media_information.hpp</title>
<!-- Node1 -->
<g id="node1" class="node">
<title>Node1</title>
<g id="a_node1"><a xlink:title=" ">
<polygon fill="#999999" stroke="#666666" points="229.5,-140 80.5,-140 80.5,-110 229.5,-110 229.5,-140"/>
<text text-anchor="start" x="88.5" y="-128" font-family="Helvetica,sans-Serif" font-size="10.00">src/core/implementation</text>
<text text-anchor="middle" x="155" y="-117" font-family="Helvetica,sans-Serif" font-size="10.00">/image_media_information.hpp</text>
</a>
</g>
</g>
<!-- Node2 -->
<g id="node2" class="node">
<title>Node2</title>
<g id="a_node2"><a xlink:href="../../df/d6f/iexif__reader_8hpp.html" target="_top" xlink:title=" ">
<polygon fill="#fff0f0" stroke="red" points="84,-74 0,-74 0,-55 84,-55 84,-74"/>
<text text-anchor="middle" x="42" y="-62" font-family="Helvetica,sans-Serif" font-size="10.00">iexif_reader.hpp</text>
</a>
</g>
</g>
<!-- Node1&#45;&gt;Node2 -->
<g id="edge1" class="edge">
<title>Node1&#45;&gt;Node2</title>
<path fill="none" stroke="#63b8ff" d="M127.07,-109.54C109.42,-100.4 86.73,-88.66 69.23,-79.6"/>
<polygon fill="#63b8ff" stroke="#63b8ff" points="70.92,-76.53 60.43,-75.04 67.7,-82.75 70.92,-76.53"/>
</g>
<!-- Node14 -->
<g id="node3" class="node">
<title>Node14</title>
<g id="a_node3"><a xlink:title=" ">
<polygon fill="#e0e0e0" stroke="#999999" points="149,-19 75,-19 75,0 149,0 149,-19"/>
<text text-anchor="middle" x="112" y="-7" font-family="Helvetica,sans-Serif" font-size="10.00">core_export.h</text>
</a>
</g>
</g>
<!-- Node1&#45;&gt;Node14 -->
<g id="edge6" class="edge">
<title>Node1&#45;&gt;Node14</title>
<path fill="none" stroke="#63b8ff" d="M147.46,-109.82C142.39,-99.95 135.79,-86.39 131,-74 125.46,-59.67 120.53,-43.02 117.08,-30.36"/>
<polygon fill="#63b8ff" stroke="#63b8ff" points="120.48,-29.51 114.54,-20.74 113.71,-31.3 120.48,-29.51"/>
</g>
<!-- Node15 -->
<g id="node4" class="node">
<title>Node15</title>
<g id="a_node4"><a xlink:href="../../da/d58/imedia__information_8hpp.html" target="_top" xlink:title=" ">
<polygon fill="#fff0f0" stroke="red" points="256,-74 140,-74 140,-55 256,-55 256,-74"/>
<text text-anchor="middle" x="198" y="-62" font-family="Helvetica,sans-Serif" font-size="10.00">imedia_information.hpp</text>
</a>
</g>
</g>
<!-- Node1&#45;&gt;Node15 -->
<g id="edge3" class="edge">
<title>Node1&#45;&gt;Node15</title>
<path fill="none" stroke="#63b8ff" d="M165.63,-109.54C171.43,-101.65 178.66,-91.81 184.82,-83.44"/>
<polygon fill="#63b8ff" stroke="#63b8ff" points="187.62,-85.53 190.73,-75.39 181.98,-81.38 187.62,-85.53"/>
</g>
<!-- Node19 -->
<g id="node5" class="node">
<title>Node19</title>
<g id="a_node5"><a xlink:href="../../d7/dfc/ilogger_8hpp.html" target="_top" xlink:title=" ">
<polygon fill="#fff0f0" stroke="red" points="337.5,-74 274.5,-74 274.5,-55 337.5,-55 337.5,-74"/>
<text text-anchor="middle" x="306" y="-62" font-family="Helvetica,sans-Serif" font-size="10.00">ilogger.hpp</text>
</a>
</g>
</g>
<!-- Node1&#45;&gt;Node19 -->
<g id="edge4" class="edge">
<title>Node1&#45;&gt;Node19</title>
<path fill="none" stroke="#63b8ff" d="M192.33,-109.54C216.9,-100.02 248.81,-87.66 272.56,-78.46"/>
<polygon fill="#63b8ff" stroke="#63b8ff" points="273.69,-81.77 281.75,-74.89 271.17,-75.24 273.69,-81.77"/>
</g>
<!-- Node2&#45;&gt;Node14 -->
<g id="edge2" class="edge">
<title>Node2&#45;&gt;Node14</title>
<path fill="none" stroke="#63b8ff" d="M53.87,-54.51C64.09,-46.77 79.07,-35.43 91.26,-26.2"/>
<polygon fill="#63b8ff" stroke="#63b8ff" points="93.23,-29.1 99.09,-20.27 89.01,-23.52 93.23,-29.1"/>
</g>
<!-- Node19&#45;&gt;Node14 -->
<g id="edge5" class="edge">
<title>Node19&#45;&gt;Node14</title>
<path fill="none" stroke="#63b8ff" d="M274.4,-54.87C242.09,-46.04 191.68,-32.27 155.59,-22.41"/>
<polygon fill="#63b8ff" stroke="#63b8ff" points="156.91,-19.14 146.35,-19.88 155.07,-25.89 156.91,-19.14"/>
</g>
</g>
</svg>
