<?xml version="1.0" encoding="UTF-8" standalone="no"?>
<!DOCTYPE svg PUBLIC "-//W3C//DTD SVG 1.1//EN"
 "http://www.w3.org/Graphics/SVG/1.1/DTD/svg11.dtd">
<!-- Generated by graphviz version 9.0.0 (20230911.1827)
 -->
<!-- Title: Database::IGenericSqlQueryGenerator::update Pages: 1 -->
<svg width="323pt" height="284pt"
 viewBox="0.00 0.00 322.75 283.50" xmlns="http://www.w3.org/2000/svg" xmlns:xlink="http://www.w3.org/1999/xlink">
<g id="graph0" class="graph" transform="scale(1 1) rotate(0) translate(4 279.5)">
<title>Database::IGenericSqlQueryGenerator::update</title>
<!-- Node1 -->
<g id="Node000001" class="node">
<title>Node1</title>
<g id="a_Node000001"><a xlink:title=" ">
<polygon fill="#999999" stroke="#666666" points="314.75,-152.5 176.5,-152.5 176.5,-122 314.75,-122 314.75,-152.5"/>
<text text-anchor="start" x="184.5" y="-139" font-family="Helvetica,sans-Serif" font-size="10.00">Database::IGenericSqlQuery</text>
<text text-anchor="middle" x="245.62" y="-127.75" font-family="Helvetica,sans-Serif" font-size="10.00">Generator::update</text>
</a>
</g>
</g>
<!-- Node2 -->
<g id="Node000002" class="node">
<title>Node2</title>
<g id="a_Node000002"><a xlink:href="../../da/dd9/class_database_1_1_photo_operator.html#adf53bf4b4937460792849dbede9d7dd7" target="_top" xlink:title=" ">
<polygon fill="#fff0f0" stroke="red" points="132.62,-275.5 7.88,-275.5 7.88,-245 132.62,-245 132.62,-275.5"/>
<text text-anchor="start" x="15.88" y="-262" font-family="Helvetica,sans-Serif" font-size="10.00">Database::PhotoOperator</text>
<text text-anchor="middle" x="70.25" y="-250.75" font-family="Helvetica,sans-Serif" font-size="10.00">::setPHash</text>
</a>
</g>
</g>
<!-- Node1&#45;&gt;Node2 -->
<g id="edge1_Node000001_Node000002" class="edge">
<title>Node1&#45;&gt;Node2</title>
<g id="a_edge1_Node000001_Node000002"><a xlink:title=" ">
<path fill="none" stroke="#63b8ff" d="M224.32,-161.33C204.77,-183.2 173.41,-215.04 140.5,-235.25 134.84,-238.73 128.62,-241.83 122.3,-244.55"/>
<polygon fill="#63b8ff" stroke="#63b8ff" points="226.74,-163.88 230.7,-154.06 221.47,-159.27 226.74,-163.88"/>
</a>
</g>
</g>
<!-- Node4 -->
<g id="Node000004" class="node">
<title>Node4</title>
<g id="a_Node000004"><a xlink:href="../../db/dd9/class_database_1_1_people_information_accessor.html#a8be620fc54575a4fc1c7134df636a64a" target="_top" xlink:title="Store person&#39;s fingerprint in db.">
<polygon fill="white" stroke="#666666" points="140.5,-226.5 0,-226.5 0,-196 140.5,-196 140.5,-226.5"/>
<text text-anchor="start" x="8" y="-213" font-family="Helvetica,sans-Serif" font-size="10.00">Database::PeopleInformation</text>
<text text-anchor="middle" x="70.25" y="-201.75" font-family="Helvetica,sans-Serif" font-size="10.00">Accessor::store</text>
</a>
</g>
</g>
<!-- Node1&#45;&gt;Node4 -->
<g id="edge2_Node000001_Node000004" class="edge">
<title>Node1&#45;&gt;Node4</title>
<g id="a_edge2_Node000001_Node000004"><a xlink:title=" ">
<path fill="none" stroke="#63b8ff" d="M203.43,-157.72C184.45,-166.87 161.52,-177.53 140.5,-186.25 132.83,-189.43 124.58,-192.61 116.56,-195.58"/>
<polygon fill="#63b8ff" stroke="#63b8ff" points="204.7,-161 212.17,-153.48 201.64,-154.7 204.7,-161"/>
</a>
</g>
</g>
<!-- Node5 -->
<g id="Node000005" class="node">
<title>Node5</title>
<g id="a_Node000005"><a xlink:href="../../db/dd9/class_database_1_1_people_information_accessor.html#af10e7de8ef1a429f012b226665005c91" target="_top" xlink:title="Store or update person.">
<polygon fill="white" stroke="#666666" points="140.5,-177.5 0,-177.5 0,-147 140.5,-147 140.5,-177.5"/>
<text text-anchor="start" x="8" y="-164" font-family="Helvetica,sans-Serif" font-size="10.00">Database::PeopleInformation</text>
<text text-anchor="middle" x="70.25" y="-152.75" font-family="Helvetica,sans-Serif" font-size="10.00">Accessor::store</text>
</a>
</g>
</g>
<!-- Node1&#45;&gt;Node5 -->
<g id="edge3_Node000001_Node000005" class="edge">
<title>Node1&#45;&gt;Node5</title>
<g id="a_edge3_Node000001_Node000005"><a xlink:title=" ">
<path fill="none" stroke="#63b8ff" d="M164.9,-148.75C156.91,-149.9 148.85,-151.06 140.98,-152.2"/>
<polygon fill="#63b8ff" stroke="#63b8ff" points="165.21,-152.24 174.6,-147.35 164.21,-145.31 165.21,-152.24"/>
</a>
</g>
</g>
<!-- Node6 -->
<g id="Node000006" class="node">
<title>Node6</title>
<g id="a_Node000006"><a xlink:href="../../d5/d1b/class_database_1_1_a_sql_backend.html#a6142dabb29720404ce3b6765eb2441a5" target="_top" xlink:title="add tag to photo">
<polygon fill="#fff0f0" stroke="red" points="130.75,-128.5 9.75,-128.5 9.75,-98 130.75,-98 130.75,-128.5"/>
<text text-anchor="start" x="17.75" y="-115" font-family="Helvetica,sans-Serif" font-size="10.00">Database::ASqlBackend</text>
<text text-anchor="middle" x="70.25" y="-103.75" font-family="Helvetica,sans-Serif" font-size="10.00">::store</text>
</a>
</g>
</g>
<!-- Node1&#45;&gt;Node6 -->
<g id="edge4_Node000001_Node000006" class="edge">
<title>Node1&#45;&gt;Node6</title>
<g id="a_edge4_Node000001_Node000006"><a xlink:title=" ">
<path fill="none" stroke="#63b8ff" d="M164.85,-126.21C153.51,-124.64 142.01,-123.05 131.14,-121.54"/>
<polygon fill="#63b8ff" stroke="#63b8ff" points="164.22,-129.65 174.6,-127.56 165.18,-122.72 164.22,-129.65"/>
</a>
</g>
</g>
<!-- Node8 -->
<g id="Node000008" class="node">
<title>Node8</title>
<g id="a_Node000008"><a xlink:href="../../db/dd9/class_database_1_1_people_information_accessor.html#abc5159ace6d41c67ac212a3792ebb7cd" target="_top" xlink:title="store or update person details in database">
<polygon fill="white" stroke="#666666" points="140.5,-79.5 0,-79.5 0,-49 140.5,-49 140.5,-79.5"/>
<text text-anchor="start" x="8" y="-66" font-family="Helvetica,sans-Serif" font-size="10.00">Database::PeopleInformation</text>
<text text-anchor="middle" x="70.25" y="-54.75" font-family="Helvetica,sans-Serif" font-size="10.00">Accessor::storePerson</text>
</a>
</g>
</g>
<!-- Node1&#45;&gt;Node8 -->
<g id="edge5_Node000001_Node000008" class="edge">
<title>Node1&#45;&gt;Node8</title>
<g id="a_edge5_Node000001_Node000008"><a xlink:title=" ">
<path fill="none" stroke="#63b8ff" d="M202.28,-116.73C183.51,-107.9 161.07,-97.69 140.5,-89.25 132.81,-86.1 124.57,-82.93 116.54,-79.97"/>
<polygon fill="#63b8ff" stroke="#63b8ff" points="200.67,-119.84 211.21,-120.96 203.67,-113.52 200.67,-119.84"/>
</a>
</g>
</g>
<!-- Node9 -->
<g id="Node000009" class="node">
<title>Node9</title>
<g id="a_Node000009"><a xlink:href="../../d5/d1b/class_database_1_1_a_sql_backend.html#a42b7acb6e6a11a44e53f0ea80c920690" target="_top" xlink:title="insert data to database or upgrade existing entries.">
<polygon fill="#fff0f0" stroke="red" points="130.75,-30.5 9.75,-30.5 9.75,0 130.75,0 130.75,-30.5"/>
<text text-anchor="start" x="17.75" y="-17" font-family="Helvetica,sans-Serif" font-size="10.00">Database::ASqlBackend</text>
<text text-anchor="middle" x="70.25" y="-5.75" font-family="Helvetica,sans-Serif" font-size="10.00">::updateOrInsert</text>
</a>
</g>
</g>
<!-- Node1&#45;&gt;Node9 -->
<g id="edge6_Node000001_Node000009" class="edge">
<title>Node1&#45;&gt;Node9</title>
<g id="a_edge6_Node000001_Node000009"><a xlink:title=" ">
<path fill="none" stroke="#63b8ff" d="M224.27,-113.42C204.69,-91.79 173.3,-60.28 140.5,-40.25 134.83,-36.79 128.6,-33.7 122.28,-30.98"/>
<polygon fill="#63b8ff" stroke="#63b8ff" points="221.4,-115.46 230.65,-120.62 226.63,-110.82 221.4,-115.46"/>
</a>
</g>
</g>
</g>
</svg>
