<?xml version="1.0" encoding="UTF-8" standalone="no"?>
<!DOCTYPE svg PUBLIC "-//W3C//DTD SVG 1.1//EN"
 "http://www.w3.org/Graphics/SVG/1.1/DTD/svg11.dtd">
<!-- Generated by graphviz version 12.2.0 (20241103.1931)
 -->
<!-- Title: src/gui/desktop/utils/people_list_model.hpp Pages: 1 -->
<svg width="413pt" height="105pt"
 viewBox="0.00 0.00 413.12 105.00" xmlns="http://www.w3.org/2000/svg" xmlns:xlink="http://www.w3.org/1999/xlink">
<g id="graph0" class="graph" transform="scale(1 1) rotate(0) translate(4 101)">
<title>src/gui/desktop/utils/people_list_model.hpp</title>
<!-- Node1 -->
<g id="Node000001" class="node">
<title>Node1</title>
<g id="a_Node000001"><a xlink:title=" ">
<polygon fill="#999999" stroke="#666666" points="261.12,-97 146.12,-97 146.12,-66.5 261.12,-66.5 261.12,-97"/>
<text text-anchor="start" x="154.12" y="-83.5" font-family="Helvetica,sans-Serif" font-size="10.00">src/gui/desktop/utils</text>
<text text-anchor="middle" x="203.62" y="-72.25" font-family="Helvetica,sans-Serif" font-size="10.00">/people_list_model.hpp</text>
</a>
</g>
</g>
<!-- Node2 -->
<g id="Node000002" class="node">
<title>Node2</title>
<g id="a_Node000002"><a xlink:href="../../d4/df8/faces__model_8cpp.html" target="_top" xlink:title=" ">
<polygon fill="white" stroke="#666666" points="117.25,-30.5 0,-30.5 0,0 117.25,0 117.25,-30.5"/>
<text text-anchor="start" x="8" y="-17" font-family="Helvetica,sans-Serif" font-size="10.00">src/gui/desktop/models</text>
<text text-anchor="middle" x="58.62" y="-5.75" font-family="Helvetica,sans-Serif" font-size="10.00">/faces_model.cpp</text>
</a>
</g>
</g>
<!-- Node1&#45;&gt;Node2 -->
<g id="edge1_Node000001_Node000002" class="edge">
<title>Node1&#45;&gt;Node2</title>
<g id="a_edge1_Node000001_Node000002"><a xlink:title=" ">
<path fill="none" stroke="#63b8ff" d="M160.31,-61.48C138.3,-51.69 111.99,-39.99 91.65,-30.94"/>
<polygon fill="#63b8ff" stroke="#63b8ff" points="158.78,-64.63 169.34,-65.5 161.63,-58.24 158.78,-64.63"/>
</a>
</g>
</g>
<!-- Node3 -->
<g id="Node000003" class="node">
<title>Node3</title>
<g id="a_Node000003"><a xlink:href="../../de/d29/completer__factory_8hpp.html" target="_top" xlink:title=" ">
<polygon fill="#fff0f0" stroke="red" points="272.38,-30.5 134.88,-30.5 134.88,0 272.38,0 272.38,-30.5"/>
<text text-anchor="start" x="142.88" y="-17" font-family="Helvetica,sans-Serif" font-size="10.00">src/gui/desktop/ui</text>
<text text-anchor="middle" x="203.62" y="-5.75" font-family="Helvetica,sans-Serif" font-size="10.00">_utils/completer_factory.hpp</text>
</a>
</g>
</g>
<!-- Node1&#45;&gt;Node3 -->
<g id="edge2_Node000001_Node000003" class="edge">
<title>Node1&#45;&gt;Node3</title>
<g id="a_edge2_Node000001_Node000003"><a xlink:title=" ">
<path fill="none" stroke="#63b8ff" d="M203.62,-54.81C203.62,-46.64 203.62,-37.91 203.62,-30.83"/>
<polygon fill="#63b8ff" stroke="#63b8ff" points="200.13,-54.6 203.63,-64.6 207.13,-54.6 200.13,-54.6"/>
</a>
</g>
</g>
<!-- Node8 -->
<g id="Node000008" class="node">
<title>Node8</title>
<g id="a_Node000008"><a xlink:href="../../d6/dcc/people__list__model_8cpp.html" target="_top" xlink:title=" ">
<polygon fill="white" stroke="#666666" points="405.12,-30.5 290.12,-30.5 290.12,0 405.12,0 405.12,-30.5"/>
<text text-anchor="start" x="298.12" y="-17" font-family="Helvetica,sans-Serif" font-size="10.00">src/gui/desktop/utils</text>
<text text-anchor="middle" x="347.62" y="-5.75" font-family="Helvetica,sans-Serif" font-size="10.00">/people_list_model.cpp</text>
</a>
</g>
</g>
<!-- Node1&#45;&gt;Node8 -->
<g id="edge3_Node000001_Node000008" class="edge">
<title>Node1&#45;&gt;Node8</title>
<g id="a_edge3_Node000001_Node000008"><a xlink:title=" ">
<path fill="none" stroke="#63b8ff" d="M246.68,-61.47C268.61,-51.64 294.85,-39.89 315.08,-30.83"/>
<polygon fill="#63b8ff" stroke="#63b8ff" points="245.38,-58.21 237.68,-65.5 248.24,-64.6 245.38,-58.21"/>
</a>
</g>
</g>
</g>
</svg>
