<?xml version="1.0" encoding="UTF-8" standalone="no"?>
<!DOCTYPE svg PUBLIC "-//W3C//DTD SVG 1.1//EN"
 "http://www.w3.org/Graphics/SVG/1.1/DTD/svg11.dtd">
<!-- Generated by graphviz version 7.0.5 (20221223.1930)
 -->
<!-- Title: src/core/iconfiguration.hpp Pages: 1 -->
<svg width="1660pt" height="159pt"
 viewBox="0.00 0.00 1660.00 159.00" xmlns="http://www.w3.org/2000/svg" xmlns:xlink="http://www.w3.org/1999/xlink">
<g id="graph0" class="graph" transform="scale(1 1) rotate(0) translate(4 155)">
<title>src/core/iconfiguration.hpp</title>
<!-- Node1 -->
<g id="node1" class="node">
<title>Node1</title>
<g id="a_node1"><a xlink:title=" ">
<polygon fill="#999999" stroke="#666666" points="976,-151 846,-151 846,-132 976,-132 976,-151"/>
<text text-anchor="middle" x="911" y="-139" font-family="Helvetica,sans-Serif" font-size="10.00">src/core/iconfiguration.hpp</text>
</a>
</g>
</g>
<!-- Node2 -->
<g id="node2" class="node">
<title>Node2</title>
<g id="a_node2"><a xlink:href="../../dc/d0a/configuration_8hpp.html" target="_top" xlink:title=" ">
<polygon fill="#fff0f0" stroke="red" points="128,-85 0,-85 0,-66 128,-66 128,-85"/>
<text text-anchor="middle" x="64" y="-73" font-family="Helvetica,sans-Serif" font-size="10.00">src/core/configuration.hpp</text>
</a>
</g>
</g>
<!-- Node1&#45;&gt;Node2 -->
<g id="edge1" class="edge">
<title>Node1&#45;&gt;Node2</title>
<path fill="none" stroke="#63b8ff" d="M834.15,-141.24C694.43,-141.43 389.87,-136.61 137,-96 121.98,-93.59 105.58,-89.36 92.14,-85.45"/>
<polygon fill="#63b8ff" stroke="#63b8ff" points="834.03,-144.74 844.02,-141.21 834.01,-137.74 834.03,-144.74"/>
</g>
<!-- Node8 -->
<g id="node3" class="node">
<title>Node8</title>
<g id="a_node3"><a xlink:href="../../d1/d26/thumbnail__generator_8cpp.html" target="_top" xlink:title=" ">
<polygon fill="white" stroke="#666666" points="271.5,-90.5 146.5,-90.5 146.5,-60.5 271.5,-60.5 271.5,-90.5"/>
<text text-anchor="start" x="154.5" y="-78.5" font-family="Helvetica,sans-Serif" font-size="10.00">src/core/implementation</text>
<text text-anchor="middle" x="209" y="-67.5" font-family="Helvetica,sans-Serif" font-size="10.00">/thumbnail_generator.cpp</text>
</a>
</g>
</g>
<!-- Node1&#45;&gt;Node8 -->
<g id="edge2" class="edge">
<title>Node1&#45;&gt;Node8</title>
<path fill="none" stroke="#63b8ff" d="M834.51,-139.86C715.38,-137.8 478.69,-129.43 281,-96 273.21,-94.68 265.05,-92.89 257.13,-90.91"/>
<polygon fill="#63b8ff" stroke="#63b8ff" points="834.09,-143.36 844.15,-140.02 834.21,-136.36 834.09,-143.36"/>
</g>
<!-- Node9 -->
<g id="node4" class="node">
<title>Node9</title>
<g id="a_node4"><a xlink:href="../../da/d25/video__media__information_8cpp.html" target="_top" xlink:title=" ">
<polygon fill="white" stroke="#666666" points="436,-90.5 290,-90.5 290,-60.5 436,-60.5 436,-90.5"/>
<text text-anchor="start" x="298" y="-78.5" font-family="Helvetica,sans-Serif" font-size="10.00">src/core/implementation</text>
<text text-anchor="middle" x="363" y="-67.5" font-family="Helvetica,sans-Serif" font-size="10.00">/video_media_information.cpp</text>
</a>
</g>
</g>
<!-- Node1&#45;&gt;Node9 -->
<g id="edge3" class="edge">
<title>Node1&#45;&gt;Node9</title>
<path fill="none" stroke="#63b8ff" d="M834.57,-136.45C741.91,-130.8 581.23,-118.59 445,-96 436.63,-94.61 427.84,-92.85 419.25,-90.96"/>
<polygon fill="#63b8ff" stroke="#63b8ff" points="834.1,-139.93 844.29,-137.03 834.52,-132.94 834.1,-139.93"/>
</g>
<!-- Node10 -->
<g id="node5" class="node">
<title>Node10</title>
<g id="a_node5"><a xlink:href="../../db/d74/mysql__backend_2backend_8cpp.html" target="_top" xlink:title=" ">
<polygon fill="white" stroke="#666666" points="604,-96 454,-96 454,-55 604,-55 604,-96"/>
<text text-anchor="start" x="462" y="-84" font-family="Helvetica,sans-Serif" font-size="10.00">src/database/backends</text>
<text text-anchor="start" x="462" y="-73" font-family="Helvetica,sans-Serif" font-size="10.00">/sql_backends/mysql_backend</text>
<text text-anchor="middle" x="529" y="-62" font-family="Helvetica,sans-Serif" font-size="10.00">/backend.cpp</text>
</a>
</g>
</g>
<!-- Node1&#45;&gt;Node10 -->
<g id="edge4" class="edge">
<title>Node1&#45;&gt;Node10</title>
<path fill="none" stroke="#63b8ff" d="M834.3,-130.76C773.95,-122.69 687.83,-110.25 613,-96 610.21,-95.47 607.36,-94.91 604.5,-94.33"/>
<polygon fill="#63b8ff" stroke="#63b8ff" points="833.76,-134.22 844.14,-132.07 834.69,-127.28 833.76,-134.22"/>
</g>
<!-- Node11 -->
<g id="node6" class="node">
<title>Node11</title>
<g id="a_node6"><a xlink:href="../../d7/d27/mysql__server_8cpp.html" target="_top" xlink:title=" ">
<polygon fill="white" stroke="#666666" points="772,-96 622,-96 622,-55 772,-55 772,-96"/>
<text text-anchor="start" x="630" y="-84" font-family="Helvetica,sans-Serif" font-size="10.00">src/database/backends</text>
<text text-anchor="start" x="630" y="-73" font-family="Helvetica,sans-Serif" font-size="10.00">/sql_backends/mysql_backend</text>
<text text-anchor="middle" x="697" y="-62" font-family="Helvetica,sans-Serif" font-size="10.00">/mysql_server.cpp</text>
</a>
</g>
</g>
<!-- Node1&#45;&gt;Node11 -->
<g id="edge5" class="edge">
<title>Node1&#45;&gt;Node11</title>
<path fill="none" stroke="#63b8ff" d="M870.3,-128.33C840.15,-119.31 798.42,-106.83 763.46,-96.38"/>
<polygon fill="#63b8ff" stroke="#63b8ff" points="869.21,-131.66 879.79,-131.17 871.22,-124.95 869.21,-131.66"/>
</g>
<!-- Node12 -->
<g id="node7" class="node">
<title>Node12</title>
<g id="a_node7"><a xlink:href="../../d4/df5/main__tab_8cpp.html" target="_top" xlink:title=" ">
<polygon fill="white" stroke="#666666" points="902,-90.5 790,-90.5 790,-60.5 902,-60.5 902,-90.5"/>
<text text-anchor="start" x="798" y="-78.5" font-family="Helvetica,sans-Serif" font-size="10.00">src/gui/desktop/config</text>
<text text-anchor="middle" x="846" y="-67.5" font-family="Helvetica,sans-Serif" font-size="10.00">_tabs/main_tab.cpp</text>
</a>
</g>
</g>
<!-- Node1&#45;&gt;Node12 -->
<g id="edge6" class="edge">
<title>Node1&#45;&gt;Node12</title>
<path fill="none" stroke="#63b8ff" d="M893.99,-123.75C883.57,-113.49 870.37,-100.5 860.46,-90.73"/>
<polygon fill="#63b8ff" stroke="#63b8ff" points="891.3,-126.02 900.88,-130.54 896.21,-121.03 891.3,-126.02"/>
</g>
<!-- Node13 -->
<g id="node8" class="node">
<title>Node13</title>
<g id="a_node8"><a xlink:href="../../dd/d2e/tools__tab_8cpp.html" target="_top" xlink:title=" ">
<polygon fill="white" stroke="#666666" points="1032,-90.5 920,-90.5 920,-60.5 1032,-60.5 1032,-90.5"/>
<text text-anchor="start" x="928" y="-78.5" font-family="Helvetica,sans-Serif" font-size="10.00">src/gui/desktop/config</text>
<text text-anchor="middle" x="976" y="-67.5" font-family="Helvetica,sans-Serif" font-size="10.00">_tabs/tools_tab.cpp</text>
</a>
</g>
</g>
<!-- Node1&#45;&gt;Node13 -->
<g id="edge7" class="edge">
<title>Node1&#45;&gt;Node13</title>
<path fill="none" stroke="#63b8ff" d="M928.01,-123.75C938.43,-113.49 951.63,-100.5 961.54,-90.73"/>
<polygon fill="#63b8ff" stroke="#63b8ff" points="925.79,-121.03 921.12,-130.54 930.7,-126.02 925.79,-121.03"/>
</g>
<!-- Node14 -->
<g id="node9" class="node">
<title>Node14</title>
<g id="a_node9"><a xlink:href="../../d4/d46/gui_8cpp.html" target="_top" xlink:title=" ">
<polygon fill="white" stroke="#666666" points="1217.5,-19 1100.5,-19 1100.5,0 1217.5,0 1217.5,-19"/>
<text text-anchor="middle" x="1159" y="-7" font-family="Helvetica,sans-Serif" font-size="10.00">src/gui/desktop/gui.cpp</text>
</a>
</g>
</g>
<!-- Node1&#45;&gt;Node14 -->
<g id="edge8" class="edge">
<title>Node1&#45;&gt;Node14</title>
<path fill="none" stroke="#63b8ff" d="M964.72,-128.54C989.27,-121.52 1017.93,-111 1041,-96 1061.83,-82.46 1059.46,-70.34 1079,-55 1097.75,-40.28 1122,-27.53 1138.86,-19.5"/>
<polygon fill="#63b8ff" stroke="#63b8ff" points="963.96,-125.12 955.23,-131.13 965.8,-131.88 963.96,-125.12"/>
</g>
<!-- Node15 -->
<g id="node10" class="node">
<title>Node15</title>
<g id="a_node10"><a xlink:href="../../d8/dd9/mainwindow_8cpp.html" target="_top" xlink:title=" ">
<polygon fill="white" stroke="#666666" points="1182,-90.5 1088,-90.5 1088,-60.5 1182,-60.5 1182,-90.5"/>
<text text-anchor="start" x="1096" y="-78.5" font-family="Helvetica,sans-Serif" font-size="10.00">src/gui/desktop/ui</text>
<text text-anchor="middle" x="1135" y="-67.5" font-family="Helvetica,sans-Serif" font-size="10.00">/mainwindow.cpp</text>
</a>
</g>
</g>
<!-- Node1&#45;&gt;Node15 -->
<g id="edge9" class="edge">
<title>Node1&#45;&gt;Node15</title>
<path fill="none" stroke="#63b8ff" d="M956.51,-128.64C989.28,-119.96 1034.5,-107.7 1074,-96 1079.33,-94.42 1084.91,-92.72 1090.43,-90.99"/>
<polygon fill="#63b8ff" stroke="#63b8ff" points="955.7,-125.23 946.93,-131.16 957.49,-132 955.7,-125.23"/>
</g>
<!-- Node16 -->
<g id="node11" class="node">
<title>Node16</title>
<g id="a_node11"><a xlink:href="../../d9/dae/features__manager_8hpp.html" target="_top" xlink:title=" ">
<polygon fill="#fff0f0" stroke="red" points="1316,-90.5 1200,-90.5 1200,-60.5 1316,-60.5 1316,-90.5"/>
<text text-anchor="start" x="1208" y="-78.5" font-family="Helvetica,sans-Serif" font-size="10.00">src/gui/desktop/utils</text>
<text text-anchor="middle" x="1258" y="-67.5" font-family="Helvetica,sans-Serif" font-size="10.00">/features_manager.hpp</text>
</a>
</g>
</g>
<!-- Node1&#45;&gt;Node16 -->
<g id="edge10" class="edge">
<title>Node1&#45;&gt;Node16</title>
<path fill="none" stroke="#63b8ff" d="M987.58,-130.97C1044.14,-123.3 1122.81,-111.28 1191,-96 1197.5,-94.54 1204.3,-92.81 1210.97,-90.99"/>
<polygon fill="#63b8ff" stroke="#63b8ff" points="987.17,-127.5 977.72,-132.29 988.1,-134.43 987.17,-127.5"/>
</g>
<!-- Node18 -->
<g id="node12" class="node">
<title>Node18</title>
<g id="a_node12"><a xlink:href="../../d0/d2c/gui_2unit__tests_2test__helpers_2mock__configuration_8hpp.html" target="_top" xlink:title=" ">
<polygon fill="white" stroke="#666666" points="1512,-90.5 1334,-90.5 1334,-60.5 1512,-60.5 1512,-90.5"/>
<text text-anchor="start" x="1342" y="-78.5" font-family="Helvetica,sans-Serif" font-size="10.00">src/gui/unit_tests</text>
<text text-anchor="middle" x="1423" y="-67.5" font-family="Helvetica,sans-Serif" font-size="10.00">/test_helpers/mock_configuration.hpp</text>
</a>
</g>
</g>
<!-- Node1&#45;&gt;Node18 -->
<g id="edge12" class="edge">
<title>Node1&#45;&gt;Node18</title>
<path fill="none" stroke="#63b8ff" d="M987.88,-134.31C1071.2,-127.11 1207.95,-113.9 1325,-96 1334.52,-94.54 1344.51,-92.8 1354.33,-90.97"/>
<polygon fill="#63b8ff" stroke="#63b8ff" points="987.66,-130.81 977.99,-135.15 988.25,-137.79 987.66,-130.81"/>
</g>
<!-- Node19 -->
<g id="node13" class="node">
<title>Node19</title>
<g id="a_node13"><a xlink:href="../../d2/df4/unit__tests__utils_2mock__configuration_8hpp.html" target="_top" xlink:title=" ">
<polygon fill="white" stroke="#666666" points="1652,-90.5 1530,-90.5 1530,-60.5 1652,-60.5 1652,-90.5"/>
<text text-anchor="start" x="1538" y="-78.5" font-family="Helvetica,sans-Serif" font-size="10.00">src/unit_tests_utils</text>
<text text-anchor="middle" x="1591" y="-67.5" font-family="Helvetica,sans-Serif" font-size="10.00">/mock_configuration.hpp</text>
</a>
</g>
</g>
<!-- Node1&#45;&gt;Node19 -->
<g id="edge13" class="edge">
<title>Node1&#45;&gt;Node19</title>
<path fill="none" stroke="#63b8ff" d="M987.29,-139.79C1103.37,-137.61 1330.92,-129.07 1521,-96 1528.58,-94.68 1536.52,-92.88 1544.23,-90.91"/>
<polygon fill="#63b8ff" stroke="#63b8ff" points="987.52,-136.28 977.58,-139.96 987.64,-143.28 987.52,-136.28"/>
</g>
<!-- Node16&#45;&gt;Node14 -->
<g id="edge11" class="edge">
<title>Node16&#45;&gt;Node14</title>
<path fill="none" stroke="#63b8ff" d="M1226.42,-54.08C1208.31,-42.37 1186.49,-28.27 1172.68,-19.34"/>
<polygon fill="#63b8ff" stroke="#63b8ff" points="1224.46,-56.98 1234.76,-59.47 1228.26,-51.11 1224.46,-56.98"/>
</g>
</g>
</svg>
