<?xml version="1.0" encoding="UTF-8" standalone="no"?>
<!DOCTYPE svg PUBLIC "-//W3C//DTD SVG 1.1//EN"
 "http://www.w3.org/Graphics/SVG/1.1/DTD/svg11.dtd">
<!-- Generated by graphviz version 9.0.0 (20230911.1827)
 -->
<!-- Title: Database::UpdateQueryData::addCondition Pages: 1 -->
<!--zoomable 505 -->

<svg id="main" version="1.1" xmlns="http://www.w3.org/2000/svg" xmlns:xlink="http://www.w3.org/1999/xlink" xml:space="preserve" onload="init(evt)">
<style type="text/css"><![CDATA[
.node, .edge {opacity: 0.7;}
.node.selected, .edge.selected {opacity: 1;}
.edge:hover path { stroke: red; }
.edge:hover polygon { stroke: red; fill: red; }
]]></style>

<defs>
  <circle id="rim" cx="0" cy="0" r="7"/>
  <circle id="rim2" cx="0" cy="0" r="3.5"/>
  <g id="zoomPlus">
    <use xlink:href="#rim" fill="#404040"><set attributeName="fill" to="#808080" begin="zoomplus.mouseover" end="zoomplus.mouseout"/></use>
    <path d="M-4,0h8M0,-4v8" fill="none" stroke="white" stroke-width="1.5" pointer-events="none"/>
  </g>
  <g id="zoomMin">
    <use xlink:href="#rim" fill="#404040"><set attributeName="fill" to="#808080" begin="zoomminus.mouseover" end="zoomminus.mouseout"/></use>
    <path d="M-4,0h8" fill="none" stroke="white" stroke-width="1.5" pointer-events="none"/>
  </g>
  <g id="arrowUp" transform="translate(30 24)">
    <use xlink:href="#rim"/>
    <path pointer-events="none" fill="none" stroke="white" stroke-width="1.5" d="M0,-3.0v7 M-2.5,-0.5L0,-3.0L2.5,-0.5"/>
  </g>
  <g id="arrowRight" transform="rotate(90) translate(36 -43)">
    <use xlink:href="#rim"/>
    <path pointer-events="none" fill="none" stroke="white" stroke-width="1.5" d="M0,-3.0v7 M-2.5,-0.5L0,-3.0L2.5,-0.5"/>
  </g>
  <g id="arrowDown" transform="rotate(180) translate(-30 -48)">
    <use xlink:href="#rim"/>
    <path pointer-events="none" fill="none" stroke="white" stroke-width="1.5" d="M0,-3.0v7 M-2.5,-0.5L0,-3.0L2.5,-0.5"/>
  </g>
  <g id="arrowLeft" transform="rotate(270) translate(-36 17)">
    <use xlink:href="#rim"/>
    <path pointer-events="none" fill="none" stroke="white" stroke-width="1.5" d="M0,-3.0v7 M-2.5,-0.5L0,-3.0L2.5,-0.5"/>
  </g>
  <g id="resetDef">
    <use xlink:href="#rim2" fill="#404040"><set attributeName="fill" to="#808080" begin="reset.mouseover" end="reset.mouseout"/></use>
  </g>
</defs>
<script type="application/ecmascript">
var viewWidth = 324;
var viewHeight = 505;
var sectionId = 'dynsection-2';
</script>
<script type="application/ecmascript" xlink:href="../../svg.min.js"/>
<svg id="graph" class="graph">
<g id="viewport">
<title>Database::UpdateQueryData::addCondition</title>
<!-- Node1 -->
<g id="Node000001" class="node">
<title>Node1</title>
<g id="a_Node000001"><a xlink:title=" ">
<polygon fill="#999999" stroke="#666666" points="315.5,-263.5 176.5,-263.5 176.5,-233 315.5,-233 315.5,-263.5"/>
<text text-anchor="start" x="184.5" y="-250" font-family="Helvetica,sans-Serif" font-size="10.00">Database::UpdateQueryData</text>
<text text-anchor="middle" x="246" y="-238.75" font-family="Helvetica,sans-Serif" font-size="10.00">::addCondition</text>
</a>
</g>
</g>
<!-- Node2 -->
<g id="Node000002" class="node">
<title>Node2</title>
<g id="a_Node000002"><a xlink:href="../../d5/d1b/class_database_1_1_a_sql_backend.html#a82939c363f70dc3c14243b7d51f1f33a" target="_top" xlink:title="set flag for photo to given value">
<polygon fill="#fff0f0" stroke="red" points="139.75,-496.88 0.75,-496.88 0.75,-477.62 139.75,-477.62 139.75,-496.88"/>
<text text-anchor="middle" x="70.25" y="-483.38" font-family="Helvetica,sans-Serif" font-size="10.00">Database::ASqlBackend::set</text>
</a>
</g>
</g>
<!-- Node1&#45;&gt;Node2 -->
<g id="edge1_Node000001_Node000002" class="edge">
<title>Node1&#45;&gt;Node2</title>
<g id="a_edge1_Node000001_Node000002"><a xlink:title=" ">
<path fill="none" stroke="#63b8ff" d="M239.88,-274.95C229.55,-321.36 201.78,-416.89 140.5,-468.25 136.2,-471.85 131.27,-474.78 126.07,-477.15"/>
<polygon fill="#63b8ff" stroke="#63b8ff" points="243.29,-275.73 241.93,-265.23 236.44,-274.29 243.29,-275.73"/>
</a>
</g>
</g>
<!-- Node5 -->
<g id="Node000005" class="node">
<title>Node5</title>
<g id="a_Node000005"><a xlink:href="../../da/dd9/class_database_1_1_photo_operator.html#adf53bf4b4937460792849dbede9d7dd7" target="_top" xlink:title=" ">
<polygon fill="#fff0f0" stroke="red" points="132.62,-459.5 7.88,-459.5 7.88,-429 132.62,-429 132.62,-459.5"/>
<text text-anchor="start" x="15.88" y="-446" font-family="Helvetica,sans-Serif" font-size="10.00">Database::PhotoOperator</text>
<text text-anchor="middle" x="70.25" y="-434.75" font-family="Helvetica,sans-Serif" font-size="10.00">::setPHash</text>
</a>
</g>
</g>
<!-- Node1&#45;&gt;Node5 -->
<g id="edge2_Node000001_Node000005" class="edge">
<title>Node1&#45;&gt;Node5</title>
<g id="a_edge2_Node000001_Node000005"><a xlink:title=" ">
<path fill="none" stroke="#63b8ff" d="M235.53,-274.4C220.77,-311.63 188.87,-379.78 140.5,-419.25 136.14,-422.81 131.24,-425.88 126.1,-428.53"/>
<polygon fill="#63b8ff" stroke="#63b8ff" points="238.7,-275.9 239.02,-265.31 232.17,-273.39 238.7,-275.9"/>
</a>
</g>
</g>
<!-- Node7 -->
<g id="Node000007" class="node">
<title>Node7</title>
<g id="a_Node000007"><a xlink:href="../../db/dd9/class_database_1_1_people_information_accessor.html#a8be620fc54575a4fc1c7134df636a64a" target="_top" xlink:title="Store person&#39;s fingerprint in db.">
<polygon fill="white" stroke="#666666" points="140.5,-410.5 0,-410.5 0,-380 140.5,-380 140.5,-410.5"/>
<text text-anchor="start" x="8" y="-397" font-family="Helvetica,sans-Serif" font-size="10.00">Database::PeopleInformation</text>
<text text-anchor="middle" x="70.25" y="-385.75" font-family="Helvetica,sans-Serif" font-size="10.00">Accessor::store</text>
</a>
</g>
</g>
<!-- Node1&#45;&gt;Node7 -->
<g id="edge3_Node000001_Node000007" class="edge">
<title>Node1&#45;&gt;Node7</title>
<g id="a_edge3_Node000001_Node000007"><a xlink:title=" ">
<path fill="none" stroke="#63b8ff" d="M229.4,-273.22C211.15,-300.55 178.55,-343.97 140.5,-370.25 135.35,-373.81 129.63,-376.92 123.75,-379.63"/>
<polygon fill="#63b8ff" stroke="#63b8ff" points="232.31,-275.16 234.84,-264.87 226.45,-271.33 232.31,-275.16"/>
</a>
</g>
</g>
<!-- Node8 -->
<g id="Node000008" class="node">
<title>Node8</title>
<g id="a_Node000008"><a xlink:href="../../db/dd9/class_database_1_1_people_information_accessor.html#af10e7de8ef1a429f012b226665005c91" target="_top" xlink:title="Store or update person.">
<polygon fill="white" stroke="#666666" points="140.5,-361.5 0,-361.5 0,-331 140.5,-331 140.5,-361.5"/>
<text text-anchor="start" x="8" y="-348" font-family="Helvetica,sans-Serif" font-size="10.00">Database::PeopleInformation</text>
<text text-anchor="middle" x="70.25" y="-336.75" font-family="Helvetica,sans-Serif" font-size="10.00">Accessor::store</text>
</a>
</g>
</g>
<!-- Node1&#45;&gt;Node8 -->
<g id="edge4_Node000001_Node000008" class="edge">
<title>Node1&#45;&gt;Node8</title>
<g id="a_edge4_Node000001_Node000008"><a xlink:title=" ">
<path fill="none" stroke="#63b8ff" d="M216.96,-270.9C196.62,-286.54 167.98,-307.01 140.5,-321.25 133.92,-324.66 126.76,-327.81 119.63,-330.64"/>
<polygon fill="#63b8ff" stroke="#63b8ff" points="219.03,-273.72 224.76,-264.81 214.72,-268.2 219.03,-273.72"/>
</a>
</g>
</g>
<!-- Node9 -->
<g id="Node000009" class="node">
<title>Node9</title>
<g id="a_Node000009"><a xlink:href="../../d5/d1b/class_database_1_1_a_sql_backend.html#a6142dabb29720404ce3b6765eb2441a5" target="_top" xlink:title="add tag to photo">
<polygon fill="#fff0f0" stroke="red" points="130.75,-312.5 9.75,-312.5 9.75,-282 130.75,-282 130.75,-312.5"/>
<text text-anchor="start" x="17.75" y="-299" font-family="Helvetica,sans-Serif" font-size="10.00">Database::ASqlBackend</text>
<text text-anchor="middle" x="70.25" y="-287.75" font-family="Helvetica,sans-Serif" font-size="10.00">::store</text>
</a>
</g>
</g>
<!-- Node1&#45;&gt;Node9 -->
<g id="edge5_Node000001_Node000009" class="edge">
<title>Node1&#45;&gt;Node9</title>
<g id="a_edge5_Node000001_Node000009"><a xlink:title=" ">
<path fill="none" stroke="#63b8ff" d="M178.57,-266.98C161.57,-271.78 143.47,-276.88 127.07,-281.51"/>
<polygon fill="#63b8ff" stroke="#63b8ff" points="179.42,-270.38 188.09,-264.3 177.52,-263.65 179.42,-270.38"/>
</a>
</g>
</g>
<!-- Node11 -->
<g id="Node000011" class="node">
<title>Node11</title>
<g id="a_Node000011"><a xlink:href="../../d5/d1b/class_database_1_1_a_sql_backend.html#a0ff78d8d57a9eae0213f2f837ddfc6b8" target="_top" xlink:title="store photo&#39;s flags">
<polygon fill="#fff0f0" stroke="red" points="130.75,-263.5 9.75,-263.5 9.75,-233 130.75,-233 130.75,-263.5"/>
<text text-anchor="start" x="17.75" y="-250" font-family="Helvetica,sans-Serif" font-size="10.00">Database::ASqlBackend</text>
<text text-anchor="middle" x="70.25" y="-238.75" font-family="Helvetica,sans-Serif" font-size="10.00">::storeFlags</text>
</a>
</g>
</g>
<!-- Node1&#45;&gt;Node11 -->
<g id="edge6_Node000001_Node000011" class="edge">
<title>Node1&#45;&gt;Node11</title>
<g id="a_edge6_Node000001_Node000011"><a xlink:title=" ">
<path fill="none" stroke="#63b8ff" d="M164.98,-248.25C153.54,-248.25 141.95,-248.25 130.99,-248.25"/>
<polygon fill="#63b8ff" stroke="#63b8ff" points="164.82,-251.75 174.82,-248.25 164.82,-244.75 164.82,-251.75"/>
</a>
</g>
</g>
<!-- Node12 -->
<g id="Node000012" class="node">
<title>Node12</title>
<g id="a_Node000012"><a xlink:href="../../d5/d1b/class_database_1_1_a_sql_backend.html#a5e2dade3290d318258ea503ee1e409cc" target="_top" xlink:title="store photo&#39;s dimensions">
<polygon fill="#fff0f0" stroke="red" points="130.75,-214.5 9.75,-214.5 9.75,-184 130.75,-184 130.75,-214.5"/>
<text text-anchor="start" x="17.75" y="-201" font-family="Helvetica,sans-Serif" font-size="10.00">Database::ASqlBackend</text>
<text text-anchor="middle" x="70.25" y="-189.75" font-family="Helvetica,sans-Serif" font-size="10.00">::storeGeometryFor</text>
</a>
</g>
</g>
<!-- Node1&#45;&gt;Node12 -->
<g id="edge7_Node000001_Node000012" class="edge">
<title>Node1&#45;&gt;Node12</title>
<g id="a_edge7_Node000001_Node000012"><a xlink:title=" ">
<path fill="none" stroke="#63b8ff" d="M178.57,-229.52C161.57,-224.72 143.47,-219.62 127.07,-214.99"/>
<polygon fill="#63b8ff" stroke="#63b8ff" points="177.52,-232.85 188.09,-232.2 179.42,-226.12 177.52,-232.85"/>
</a>
</g>
</g>
<!-- Node13 -->
<g id="Node000013" class="node">
<title>Node13</title>
<g id="a_Node000013"><a xlink:href="../../d5/d1b/class_database_1_1_a_sql_backend.html#af67dc95e772d82537f4d0912868ba235" target="_top" xlink:title="store photo&#39;s group details">
<polygon fill="#fff0f0" stroke="red" points="130.75,-165.5 9.75,-165.5 9.75,-135 130.75,-135 130.75,-165.5"/>
<text text-anchor="start" x="17.75" y="-152" font-family="Helvetica,sans-Serif" font-size="10.00">Database::ASqlBackend</text>
<text text-anchor="middle" x="70.25" y="-140.75" font-family="Helvetica,sans-Serif" font-size="10.00">::storeGroup</text>
</a>
</g>
</g>
<!-- Node1&#45;&gt;Node13 -->
<g id="edge8_Node000001_Node000013" class="edge">
<title>Node1&#45;&gt;Node13</title>
<g id="a_edge8_Node000001_Node000013"><a xlink:title=" ">
<path fill="none" stroke="#63b8ff" d="M216.96,-225.6C196.62,-209.96 167.98,-189.49 140.5,-175.25 133.92,-171.84 126.76,-168.69 119.63,-165.86"/>
<polygon fill="#63b8ff" stroke="#63b8ff" points="214.72,-228.3 224.76,-231.69 219.03,-222.78 214.72,-228.3"/>
</a>
</g>
</g>
<!-- Node14 -->
<g id="Node000014" class="node">
<title>Node14</title>
<g id="a_Node000014"><a xlink:href="../../db/dd9/class_database_1_1_people_information_accessor.html#abc5159ace6d41c67ac212a3792ebb7cd" target="_top" xlink:title="store or update person details in database">
<polygon fill="white" stroke="#666666" points="140.5,-116.5 0,-116.5 0,-86 140.5,-86 140.5,-116.5"/>
<text text-anchor="start" x="8" y="-103" font-family="Helvetica,sans-Serif" font-size="10.00">Database::PeopleInformation</text>
<text text-anchor="middle" x="70.25" y="-91.75" font-family="Helvetica,sans-Serif" font-size="10.00">Accessor::storePerson</text>
</a>
</g>
</g>
<!-- Node1&#45;&gt;Node14 -->
<g id="edge9_Node000001_Node000014" class="edge">
<title>Node1&#45;&gt;Node14</title>
<g id="a_edge9_Node000001_Node000014"><a xlink:title=" ">
<path fill="none" stroke="#63b8ff" d="M229.4,-223.28C211.15,-195.95 178.55,-152.53 140.5,-126.25 135.35,-122.69 129.63,-119.58 123.75,-116.87"/>
<polygon fill="#63b8ff" stroke="#63b8ff" points="226.45,-225.17 234.84,-231.63 232.31,-221.34 226.45,-225.17"/>
</a>
</g>
</g>
<!-- Node15 -->
<g id="Node000015" class="node">
<title>Node15</title>
<g id="a_Node000015"><a xlink:href="../../dc/d71/generic__sql__query__constructor__tests_8cpp.html#a3eb6598a51e35425b409e6e7976d4daf" target="_top" xlink:title=" ">
<polygon fill="white" stroke="#666666" points="90.62,-67.88 49.88,-67.88 49.88,-48.62 90.62,-48.62 90.62,-67.88"/>
<text text-anchor="middle" x="70.25" y="-54.38" font-family="Helvetica,sans-Serif" font-size="10.00">TEST</text>
</a>
</g>
</g>
<!-- Node1&#45;&gt;Node15 -->
<g id="edge10_Node000001_Node000015" class="edge">
<title>Node1&#45;&gt;Node15</title>
<g id="a_edge10_Node000001_Node000015"><a xlink:title=" ">
<path fill="none" stroke="#63b8ff" d="M236.04,-221.87C221.84,-184.06 190.51,-114.88 140.5,-77.25 126.05,-66.38 105.76,-61.73 90.87,-59.74"/>
<polygon fill="#63b8ff" stroke="#63b8ff" points="232.69,-222.9 239.39,-231.11 239.27,-220.51 232.69,-222.9"/>
</a>
</g>
</g>
<!-- Node16 -->
<g id="Node000016" class="node">
<title>Node16</title>
<g id="a_Node000016"><a xlink:href="../../d5/d1b/class_database_1_1_a_sql_backend.html#a23e52466215b03d13e6955a466bc27a1" target="_top" xlink:title="Write blob of type bt.">
<polygon fill="white" stroke="#666666" points="130.75,-30.5 9.75,-30.5 9.75,0 130.75,0 130.75,-30.5"/>
<text text-anchor="start" x="17.75" y="-17" font-family="Helvetica,sans-Serif" font-size="10.00">Database::ASqlBackend</text>
<text text-anchor="middle" x="70.25" y="-5.75" font-family="Helvetica,sans-Serif" font-size="10.00">::writeBlob</text>
</a>
</g>
</g>
<!-- Node1&#45;&gt;Node16 -->
<g id="edge11_Node000001_Node000016" class="edge">
<title>Node1&#45;&gt;Node16</title>
<g id="a_edge11_Node000001_Node000016"><a xlink:title=" ">
<path fill="none" stroke="#63b8ff" d="M238.72,-221.7C226.95,-177.62 197.47,-89.26 140.5,-39.25 136.87,-36.06 132.79,-33.29 128.47,-30.88"/>
<polygon fill="#63b8ff" stroke="#63b8ff" points="235.27,-222.35 241.14,-231.17 242.05,-220.62 235.27,-222.35"/>
</a>
</g>
</g>
</g>
</svg>

<g id="navigator" transform="translate(0 0)" fill="#404254">
  <rect fill="#f2f5e9" fill-opacity="0.5" stroke="#606060" stroke-width=".5" x="0" y="0" width="60" height="60"/>
  <use id="zoomplus" xlink:href="#zoomPlus" x="17" y="9" onmousedown="handleZoom(evt,'in')"/>
  <use id="zoomminus" xlink:href="#zoomMin" x="42" y="9" onmousedown="handleZoom(evt,'out')"/>
  <use id="reset" xlink:href="#resetDef" x="30" y="36" onmousedown="handleReset()"/>
   <use id="arrowup" xlink:href="#arrowUp" x="0" y="0" onmousedown="handlePan(0,-1)"/>
  <use id="arrowright" xlink:href="#arrowRight" x="0" y="0" onmousedown="handlePan(1,0)"/>
  <use id="arrowdown" xlink:href="#arrowDown" x="0" y="0" onmousedown="handlePan(0,1)"/>
  <use id="arrowleft" xlink:href="#arrowLeft" x="0" y="0" onmousedown="handlePan(-1,0)"/>
</g>
<svg viewBox="0 0 15 15" width="100%" height="30px" preserveAspectRatio="xMaxYMin meet">
 <g id="arrow_out" transform="scale(0.3 0.3)">
  <a xlink:href="class_database_1_1_update_query_data_a442190800f635dc51c4fec6faf02b2b2_icgraph_org.svg" target="_base">
   <rect id="button" ry="5" rx="5" y="6" x="6" height="38" width="38"
        fill="#f2f5e9" fill-opacity="0.5" stroke="#606060" stroke-width="1.0"/>
   <path id="arrow"
     d="M 11.500037,31.436501 C 11.940474,20.09759 22.043105,11.32322 32.158766,21.979434 L 37.068811,17.246167 C 37.068811,17.246167 37.088388,32 37.088388,32 L 22.160133,31.978069 C 22.160133,31.978069 26.997745,27.140456 26.997745,27.140456 C 18.528582,18.264221 13.291696,25.230495 11.500037,31.436501 z"
     style="fill:#404040;"/>
  </a>
 </g>
</svg>

<style type='text/css'>
<![CDATA[
[data-mouse-over-selected='false'] { opacity: 0.7; }
[data-mouse-over-selected='true']  { opacity: 1.0; }
]]>
</style>
<script type="application/ecmascript"><![CDATA[
document.addEventListener('DOMContentLoaded', (event) => {
  highlightEdges();
  highlightAdjacentNodes();
});
]]></script>
</svg>
