<?xml version="1.0" encoding="UTF-8" standalone="no"?>
<!DOCTYPE svg PUBLIC "-//W3C//DTD SVG 1.1//EN"
 "http://www.w3.org/Graphics/SVG/1.1/DTD/svg11.dtd">
<!-- Generated by graphviz version 7.0.5 (20221223.1930)
 -->
<!-- Title: Database::UpdateQueryData::getCondition Pages: 1 -->
<svg width="517pt" height="60pt"
 viewBox="0.00 0.00 517.00 60.00" xmlns="http://www.w3.org/2000/svg" xmlns:xlink="http://www.w3.org/1999/xlink">
<g id="graph0" class="graph" transform="scale(1 1) rotate(0) translate(4 56)">
<title>Database::UpdateQueryData::getCondition</title>
<!-- Node1 -->
<g id="node1" class="node">
<title>Node1</title>
<g id="a_node1"><a xlink:title=" ">
<polygon fill="#999999" stroke="#666666" points="509,-30 369,-30 369,0 509,0 509,-30"/>
<text text-anchor="start" x="377" y="-18" font-family="Helvetica,sans-Serif" font-size="10.00">Database::UpdateQueryData</text>
<text text-anchor="middle" x="439" y="-7" font-family="Helvetica,sans-Serif" font-size="10.00">::getCondition</text>
</a>
</g>
</g>
<!-- Node2 -->
<g id="node2" class="node">
<title>Node2</title>
<g id="a_node2"><a xlink:href="../../d0/d6d/class_database_1_1_generic_sql_query_constructor.html#a2421c6d44273a5e274f0fa3df2fe5b43" target="_top" xlink:title=" ">
<polygon fill="#fff0f0" stroke="red" points="333,-52 172,-52 172,-22 333,-22 333,-52"/>
<text text-anchor="start" x="180" y="-40" font-family="Helvetica,sans-Serif" font-size="10.00">Database::GenericSqlQuery</text>
<text text-anchor="middle" x="252.5" y="-29" font-family="Helvetica,sans-Serif" font-size="10.00">Constructor::prepareUpdateQuery</text>
</a>
</g>
</g>
<!-- Node1&#45;&gt;Node2 -->
<g id="edge1" class="edge">
<title>Node1&#45;&gt;Node2</title>
<path fill="none" stroke="#63b8ff" d="M357.12,-24.64C349.26,-25.58 341.3,-26.53 333.46,-27.47"/>
<polygon fill="#63b8ff" stroke="#63b8ff" points="357.49,-28.12 367.01,-23.47 356.66,-21.17 357.49,-28.12"/>
</g>
<!-- Node4 -->
<g id="node3" class="node">
<title>Node4</title>
<g id="a_node3"><a xlink:href="../../d0/d6d/class_database_1_1_generic_sql_query_constructor.html#aa079f18cb94e3d6cf76c4bd2cc95de81" target="_top" xlink:title=" ">
<polygon fill="white" stroke="#666666" points="136,-30 0,-30 0,0 136,0 136,-30"/>
<text text-anchor="start" x="8" y="-18" font-family="Helvetica,sans-Serif" font-size="10.00">Database::GenericSqlQuery</text>
<text text-anchor="middle" x="68" y="-7" font-family="Helvetica,sans-Serif" font-size="10.00">Constructor::update</text>
</a>
</g>
</g>
<!-- Node1&#45;&gt;Node4 -->
<g id="edge3" class="edge">
<title>Node1&#45;&gt;Node4</title>
<path fill="none" stroke="#63b8ff" d="M357.07,-13.3C348.94,-13.18 340.81,-13.07 333,-13 261.45,-12.32 243.55,-12.31 172,-13 160.46,-13.11 148.2,-13.29 136.31,-13.5"/>
<polygon fill="#63b8ff" stroke="#63b8ff" points="356.96,-16.8 367.02,-13.47 357.08,-9.8 356.96,-16.8"/>
</g>
<!-- Node2&#45;&gt;Node4 -->
<g id="edge2" class="edge">
<title>Node2&#45;&gt;Node4</title>
<path fill="none" stroke="#63b8ff" d="M160.33,-26.01C152.25,-25.04 144.18,-24.06 136.35,-23.12"/>
<polygon fill="#63b8ff" stroke="#63b8ff" points="159.87,-29.48 170.22,-27.2 160.71,-22.53 159.87,-29.48"/>
</g>
</g>
</svg>
