<?xml version="1.0" encoding="UTF-8" standalone="no"?>
<!DOCTYPE svg PUBLIC "-//W3C//DTD SVG 1.1//EN"
 "http://www.w3.org/Graphics/SVG/1.1/DTD/svg11.dtd">
<!-- Generated by graphviz version 7.0.5 (20221223.1930)
 -->
<!-- Title: DbErrorOnFalse Pages: 1 -->
<!--zoomable 430 -->
<svg id="main" version="1.1" xmlns="http://www.w3.org/2000/svg" xmlns:xlink="http://www.w3.org/1999/xlink" xml:space="preserve" onload="init(evt)">
<style type="text/css"><![CDATA[
.edge:hover path { stroke: red; }
.edge:hover polygon { stroke: red; fill: red; }
]]></style>
<script type="text/javascript"><![CDATA[
var edges = document.getElementsByTagName('g');
if (edges && edges.length) {
  for (var i=0;i<edges.length;i++) {
    if (edges[i].id.substr(0,4)=='edge') {
      edges[i].setAttribute('class','edge');
    }
  }
}
]]></script>
        <defs>
                <circle id="rim" cx="0" cy="0" r="7"/>
                <circle id="rim2" cx="0" cy="0" r="3.5"/>
                <g id="zoomPlus">
                        <use xlink:href="#rim" fill="#404040">
                                <set attributeName="fill" to="#808080" begin="zoomplus.mouseover" end="zoomplus.mouseout"/>
                        </use>
                        <path d="M-4,0h8M0,-4v8" fill="none" stroke="white" stroke-width="1.5" pointer-events="none"/>
                </g>
                <g id="zoomMin">
                        <use xlink:href="#rim" fill="#404040">
                                <set attributeName="fill" to="#808080" begin="zoomminus.mouseover" end="zoomminus.mouseout"/>
                        </use>
                        <path d="M-4,0h8" fill="none" stroke="white" stroke-width="1.5" pointer-events="none"/>
                </g>
                <g id="dirArrow">
                        <path fill="none" stroke="white" stroke-width="1.5" d="M0,-3.0v7 M-2.5,-0.5L0,-3.0L2.5,-0.5"/>
                </g>
               <g id="resetDef">
                       <use xlink:href="#rim2" fill="#404040">
                               <set attributeName="fill" to="#808080" begin="reset.mouseover" end="reset.mouseout"/>
                       </use>
               </g>
        </defs>

<script type="text/javascript">
var viewWidth = 587;
var viewHeight = 430;
var sectionId = 'dynsection-2';
</script>
<script xlink:href="../../svgpan.js"/>
<svg id="graph" class="graph">
<g id="viewport">
<title>DbErrorOnFalse</title>
<!-- Node1 -->
<g id="node1" class="node">
<title>Node1</title>
<g id="a_node1"><a xlink:title=" ">
<polygon fill="#999999" stroke="#666666" points="579,-230.5 493,-230.5 493,-211.5 579,-211.5 579,-230.5"/>
<text text-anchor="middle" x="536" y="-218.5" font-family="Helvetica,sans-Serif" font-size="10.00">DbErrorOnFalse</text>
</a>
</g>
</g>
<!-- Node2 -->
<g id="node2" class="node">
<title>Node2</title>
<g id="a_node2"><a xlink:href="../../d7/dfc/class_database_1_1_photo_change_log_operator.html#a159940cd5cfab82ab1a0e4a5fb8d5799" target="_top" xlink:title=" ">
<polygon fill="white" stroke="#666666" points="457,-422 320,-422 320,-392 457,-392 457,-422"/>
<text text-anchor="start" x="328" y="-410" font-family="Helvetica,sans-Serif" font-size="10.00">Database::PhotoChangeLog</text>
<text text-anchor="middle" x="388.5" y="-399" font-family="Helvetica,sans-Serif" font-size="10.00">Operator::append</text>
</a>
</g>
</g>
<!-- Node1&#45;&gt;Node2 -->
<g id="edge1" class="edge">
<title>Node1&#45;&gt;Node2</title>
<path fill="none" stroke="#63b8ff" d="M529.68,-241.9C520.28,-274.94 497.78,-339.42 457,-378 451.26,-383.43 444.33,-387.94 437.14,-391.64"/>
<polygon fill="#63b8ff" stroke="#63b8ff" points="533.03,-242.93 532.26,-232.36 526.27,-241.1 533.03,-242.93"/>
</g>
<!-- Node3 -->
<g id="node3" class="node">
<title>Node3</title>
<g id="a_node3"><a xlink:href="../../d5/d1b/class_database_1_1_a_sql_backend.html#ad00a7bed2c2268620552f6c1a64616f5" target="_top" xlink:title="validate database consistency">
<polygon fill="white" stroke="#666666" points="282,-336 160,-336 160,-306 282,-306 282,-336"/>
<text text-anchor="start" x="168" y="-324" font-family="Helvetica,sans-Serif" font-size="10.00">Database::ASqlBackend</text>
<text text-anchor="middle" x="221" y="-313" font-family="Helvetica,sans-Serif" font-size="10.00">::checkStructure</text>
</a>
</g>
</g>
<!-- Node1&#45;&gt;Node3 -->
<g id="edge2" class="edge">
<title>Node1&#45;&gt;Node3</title>
<path fill="none" stroke="#63b8ff" d="M523.86,-240.35C510.78,-260.98 487.03,-292.61 457,-307 402.08,-333.31 331.48,-333.74 282.06,-329.5"/>
<polygon fill="#63b8ff" stroke="#63b8ff" points="526.72,-242.38 528.91,-232.01 520.74,-238.75 526.72,-242.38"/>
</g>
<!-- Node4 -->
<g id="node4" class="node">
<title>Node4</title>
<g id="a_node4"><a xlink:href="../../d5/d1b/class_database_1_1_a_sql_backend.html#a8c4e2051ff9292e1635902200233c954" target="_top" xlink:title="initialize database connection">
<polygon fill="white" stroke="#666666" points="122,-357 0,-357 0,-327 122,-327 122,-357"/>
<text text-anchor="start" x="8" y="-345" font-family="Helvetica,sans-Serif" font-size="10.00">Database::ASqlBackend</text>
<text text-anchor="middle" x="61" y="-334" font-family="Helvetica,sans-Serif" font-size="10.00">::init</text>
</a>
</g>
</g>
<!-- Node1&#45;&gt;Node4 -->
<g id="edge7" class="edge">
<title>Node1&#45;&gt;Node4</title>
<path fill="none" stroke="#63b8ff" d="M527.38,-241.32C516.32,-267.63 493.11,-312.53 457,-333 351.84,-392.64 204.25,-374.42 122.5,-357.29"/>
<polygon fill="#63b8ff" stroke="#63b8ff" points="530.6,-242.69 531.05,-232.1 524.1,-240.1 530.6,-242.69"/>
</g>
<!-- Node5 -->
<g id="node5" class="node">
<title>Node5</title>
<g id="a_node5"><a xlink:href="../../da/d2a/ibackend_8hpp.html#a8235a54951cabcb6361b4cb12219f0b3" target="_top" xlink:title=" ">
<polygon fill="white" stroke="#666666" points="431.5,-297.5 345.5,-297.5 345.5,-278.5 431.5,-278.5 431.5,-297.5"/>
<text text-anchor="middle" x="388.5" y="-285.5" font-family="Helvetica,sans-Serif" font-size="10.00">DbErrorOnFalse</text>
</a>
</g>
</g>
<!-- Node1&#45;&gt;Node5 -->
<g id="edge4" class="edge">
<title>Node1&#45;&gt;Node5</title>
<path fill="none" stroke="#63b8ff" d="M512.49,-237.18C497.38,-247.44 476.71,-260.36 457,-269 449.08,-272.47 440.37,-275.48 431.9,-278.01"/>
<polygon fill="#63b8ff" stroke="#63b8ff" points="514.09,-240.33 520.3,-231.75 510.09,-234.58 514.09,-240.33"/>
</g>
<!-- Node6 -->
<g id="node6" class="node">
<title>Node6</title>
<g id="a_node6"><a xlink:href="../../d5/d1b/class_database_1_1_a_sql_backend.html#a9786615c15a6e0e878960d5e958012b2" target="_top" xlink:title=" ">
<polygon fill="white" stroke="#666666" points="451,-260 326,-260 326,-230 451,-230 451,-260"/>
<text text-anchor="start" x="334" y="-248" font-family="Helvetica,sans-Serif" font-size="10.00">Database::ASqlBackend</text>
<text text-anchor="middle" x="388.5" y="-237" font-family="Helvetica,sans-Serif" font-size="10.00">::hasCurrentVersionTable</text>
</a>
</g>
</g>
<!-- Node1&#45;&gt;Node6 -->
<g id="edge5" class="edge">
<title>Node1&#45;&gt;Node6</title>
<path fill="none" stroke="#63b8ff" d="M481.38,-229.84C471.65,-231.45 461.44,-233.13 451.49,-234.77"/>
<polygon fill="#63b8ff" stroke="#63b8ff" points="481.73,-233.33 491.03,-228.25 480.59,-226.43 481.73,-233.33"/>
</g>
<!-- Node7 -->
<g id="node7" class="node">
<title>Node7</title>
<g id="a_node7"><a xlink:href="../../d5/d1b/class_database_1_1_a_sql_backend.html#a218cc7555092910cf6c33cab849cc0fb" target="_top" xlink:title="create new entry for photo in database">
<polygon fill="#fff0f0" stroke="red" points="449.5,-212 327.5,-212 327.5,-182 449.5,-182 449.5,-212"/>
<text text-anchor="start" x="335.5" y="-200" font-family="Helvetica,sans-Serif" font-size="10.00">Database::ASqlBackend</text>
<text text-anchor="middle" x="388.5" y="-189" font-family="Helvetica,sans-Serif" font-size="10.00">::introduce</text>
</a>
</g>
</g>
<!-- Node1&#45;&gt;Node7 -->
<g id="edge8" class="edge">
<title>Node1&#45;&gt;Node7</title>
<path fill="none" stroke="#63b8ff" d="M481.26,-212.14C471.04,-210.45 460.28,-208.68 449.87,-206.96"/>
<polygon fill="#63b8ff" stroke="#63b8ff" points="480.59,-215.57 491.03,-213.75 481.73,-208.67 480.59,-215.57"/>
</g>
<!-- Node10 -->
<g id="node8" class="node">
<title>Node10</title>
<g id="a_node8"><a xlink:href="../../d5/d6b/class_database_1_1_group_operator.html#a7769ec373316878bf78bf5c8615438cf" target="_top" xlink:title=" ">
<polygon fill="white" stroke="#666666" points="451.5,-164 325.5,-164 325.5,-134 451.5,-134 451.5,-164"/>
<text text-anchor="start" x="333.5" y="-152" font-family="Helvetica,sans-Serif" font-size="10.00">Database::GroupOperator</text>
<text text-anchor="middle" x="388.5" y="-141" font-family="Helvetica,sans-Serif" font-size="10.00">::listGroups</text>
</a>
</g>
</g>
<!-- Node1&#45;&gt;Node10 -->
<g id="edge9" class="edge">
<title>Node1&#45;&gt;Node10</title>
<path fill="none" stroke="#63b8ff" d="M511.3,-204.6C496.21,-194.63 475.99,-182.1 457,-173 450.61,-169.94 443.71,-167.05 436.86,-164.41"/>
<polygon fill="#63b8ff" stroke="#63b8ff" points="509.35,-207.51 519.6,-210.19 513.25,-201.7 509.35,-207.51"/>
</g>
<!-- Node11 -->
<g id="node9" class="node">
<title>Node11</title>
<g id="a_node9"><a xlink:href="../../d5/d6b/class_database_1_1_group_operator.html#a6bbdf8576bf3ee2b776b83145de18f6a" target="_top" xlink:title=" ">
<polygon fill="white" stroke="#666666" points="451.5,-116 325.5,-116 325.5,-86 451.5,-86 451.5,-116"/>
<text text-anchor="start" x="333.5" y="-104" font-family="Helvetica,sans-Serif" font-size="10.00">Database::GroupOperator</text>
<text text-anchor="middle" x="388.5" y="-93" font-family="Helvetica,sans-Serif" font-size="10.00">::membersOf</text>
</a>
</g>
</g>
<!-- Node1&#45;&gt;Node11 -->
<g id="edge10" class="edge">
<title>Node1&#45;&gt;Node11</title>
<path fill="none" stroke="#63b8ff" d="M523.64,-201.36C510.26,-179.81 486.11,-145.56 457,-125 452.43,-121.77 447.38,-118.94 442.16,-116.45"/>
<polygon fill="#63b8ff" stroke="#63b8ff" points="520.55,-203 528.7,-209.77 526.55,-199.39 520.55,-203"/>
</g>
<!-- Node12 -->
<g id="node10" class="node">
<title>Node12</title>
<g id="a_node10"><a xlink:href="../../d5/d6b/class_database_1_1_group_operator.html#a44f76a88b5837cadec2a921400d33315" target="_top" xlink:title=" ">
<polygon fill="white" stroke="#666666" points="284,-95 158,-95 158,-65 284,-65 284,-95"/>
<text text-anchor="start" x="166" y="-83" font-family="Helvetica,sans-Serif" font-size="10.00">Database::GroupOperator</text>
<text text-anchor="middle" x="221" y="-72" font-family="Helvetica,sans-Serif" font-size="10.00">::removeGroup</text>
</a>
</g>
</g>
<!-- Node1&#45;&gt;Node12 -->
<g id="edge12" class="edge">
<title>Node1&#45;&gt;Node12</title>
<path fill="none" stroke="#63b8ff" d="M530.8,-200.3C522.87,-167.35 502.27,-103.96 457,-77 401.61,-44.01 325.08,-52.89 274.6,-64.51"/>
<polygon fill="#63b8ff" stroke="#63b8ff" points="527.33,-200.81 532.91,-209.82 534.16,-199.3 527.33,-200.81"/>
</g>
<!-- Node13 -->
<g id="node11" class="node">
<title>Node13</title>
<g id="a_node11"><a xlink:href="../../d5/d1b/class_database_1_1_a_sql_backend.html#a983b2800e084c638d48fcf6e07d280c2" target="_top" xlink:title="update photos details">
<polygon fill="white" stroke="#666666" points="449.5,-30 327.5,-30 327.5,0 449.5,0 449.5,-30"/>
<text text-anchor="start" x="335.5" y="-18" font-family="Helvetica,sans-Serif" font-size="10.00">Database::ASqlBackend</text>
<text text-anchor="middle" x="388.5" y="-7" font-family="Helvetica,sans-Serif" font-size="10.00">::update</text>
</a>
</g>
</g>
<!-- Node1&#45;&gt;Node13 -->
<g id="edge13" class="edge">
<title>Node1&#45;&gt;Node13</title>
<path fill="none" stroke="#63b8ff" d="M531,-200.01C523.06,-163.66 502.03,-88.61 457,-44 451.56,-38.61 444.97,-34.16 438.05,-30.5"/>
<polygon fill="#63b8ff" stroke="#63b8ff" points="527.54,-200.56 532.98,-209.66 534.4,-199.16 527.54,-200.56"/>
</g>
<!-- Node3&#45;&gt;Node4 -->
<g id="edge3" class="edge">
<title>Node3&#45;&gt;Node4</title>
<path fill="none" stroke="#63b8ff" d="M148.43,-330.51C139.69,-331.67 130.83,-332.85 122.28,-333.99"/>
<polygon fill="#63b8ff" stroke="#63b8ff" points="148.86,-333.99 158.32,-329.2 147.94,-327.05 148.86,-333.99"/>
</g>
<!-- Node6&#45;&gt;Node3 -->
<g id="edge6" class="edge">
<title>Node6&#45;&gt;Node3</title>
<path fill="none" stroke="#63b8ff" d="M332.58,-264.68C328.3,-266.42 324.06,-268.2 320,-270 295.63,-280.8 268.83,-294.91 249.43,-305.55"/>
<polygon fill="#63b8ff" stroke="#63b8ff" points="333.81,-267.96 341.84,-261.04 331.25,-261.44 333.81,-267.96"/>
</g>
<!-- Node11&#45;&gt;Node12 -->
<g id="edge11" class="edge">
<title>Node11&#45;&gt;Node12</title>
<path fill="none" stroke="#63b8ff" d="M314.28,-91.71C304.32,-90.45 294.18,-89.16 284.44,-87.92"/>
<polygon fill="#63b8ff" stroke="#63b8ff" points="313.54,-95.14 323.9,-92.93 314.42,-88.2 313.54,-95.14"/>
</g>
</g>
</svg>
        <g id="navigator" transform="translate(0 0)" fill="#404254">
                <rect fill="#f2f5e9" fill-opacity="0.5" stroke="#606060" stroke-width=".5" x="0" y="0" width="60" height="60"/>
                <use id="zoomplus" xlink:href="#zoomPlus" x="17" y="9" onmousedown="handleZoom(evt,'in')"/>
                <use id="zoomminus" xlink:href="#zoomMin" x="42" y="9" onmousedown="handleZoom(evt,'out')"/>
                <use id="reset" xlink:href="#resetDef" x="30" y="36" onmousedown="handleReset()"/>
                <g id="arrowUp" xlink:href="#dirArrow" transform="translate(30 24)" onmousedown="handlePan(0,-1)">
                  <use xlink:href="#rim" fill="#404040">
                        <set attributeName="fill" to="#808080" begin="arrowUp.mouseover" end="arrowUp.mouseout"/>
                  </use>
                  <path fill="none" stroke="white" stroke-width="1.5" d="M0,-3.0v7 M-2.5,-0.5L0,-3.0L2.5,-0.5"/>
                </g>
                <g id="arrowRight" xlink:href="#dirArrow" transform="rotate(90) translate(36 -43)" onmousedown="handlePan(1,0)">
                  <use xlink:href="#rim" fill="#404040">
                        <set attributeName="fill" to="#808080" begin="arrowRight.mouseover" end="arrowRight.mouseout"/>
                  </use>
                  <path fill="none" stroke="white" stroke-width="1.5" d="M0,-3.0v7 M-2.5,-0.5L0,-3.0L2.5,-0.5"/>
                </g>
                <g id="arrowDown" xlink:href="#dirArrow" transform="rotate(180) translate(-30 -48)" onmousedown="handlePan(0,1)">
                  <use xlink:href="#rim" fill="#404040">
                        <set attributeName="fill" to="#808080" begin="arrowDown.mouseover" end="arrowDown.mouseout"/>
                  </use>
                  <path fill="none" stroke="white" stroke-width="1.5" d="M0,-3.0v7 M-2.5,-0.5L0,-3.0L2.5,-0.5"/>
                </g>
                <g id="arrowLeft" xlink:href="#dirArrow" transform="rotate(270) translate(-36 17)" onmousedown="handlePan(-1,0)">
                  <use xlink:href="#rim" fill="#404040">
                        <set attributeName="fill" to="#808080" begin="arrowLeft.mouseover" end="arrowLeft.mouseout"/>
                  </use>
                  <path fill="none" stroke="white" stroke-width="1.5" d="M0,-3.0v7 M-2.5,-0.5L0,-3.0L2.5,-0.5"/>
                </g>
        </g>
        <svg viewBox="0 0 15 15" width="100%" height="30px" preserveAspectRatio="xMaxYMin meet">
         <g id="arrow_out" transform="scale(0.3 0.3)">
          <a xlink:href="ibackend_8hpp_ac6fb985b87586bc7d7e15bfbef46f893_icgraph_org.svg" target="_base">
           <rect id="button" ry="5" rx="5" y="6" x="6" height="38" width="38"
                fill="#f2f5e9" fill-opacity="0.5" stroke="#606060" stroke-width="1.0"/>
           <path id="arrow"
             d="M 11.500037,31.436501 C 11.940474,20.09759 22.043105,11.32322 32.158766,21.979434 L 37.068811,17.246167 C 37.068811,17.246167 37.088388,32 37.088388,32 L 22.160133,31.978069 C 22.160133,31.978069 26.997745,27.140456 26.997745,27.140456 C 18.528582,18.264221 13.291696,25.230495 11.500037,31.436501 z"
             style="fill:#404040;"/>
          </a>
         </g>
        </svg>
</svg>
