<?xml version="1.0" encoding="UTF-8" standalone="no"?>
<!DOCTYPE svg PUBLIC "-//W3C//DTD SVG 1.1//EN"
 "http://www.w3.org/Graphics/SVG/1.1/DTD/svg11.dtd">
<!-- Generated by graphviz version 12.2.0 (20241103.1931)
 -->
<!-- Title: PhotosAnalyzerImpl Pages: 1 -->
<svg width="494pt" height="105pt"
 viewBox="0.00 0.00 493.94 105.00" xmlns="http://www.w3.org/2000/svg" xmlns:xlink="http://www.w3.org/1999/xlink">

<svg id="main" version="1.1" xmlns="http://www.w3.org/2000/svg" xmlns:xlink="http://www.w3.org/1999/xlink" xml:space="preserve">

<style type="text/css"><![CDATA[
.node, .edge {opacity: 0.7;}
.node.selected, .edge.selected {opacity: 1;}
.edge:hover path { stroke: red; }
.edge:hover polygon { stroke: red; fill: red; }
]]></style>
<script type="application/ecmascript" xlink:href="../../svg.min.js"/>
<svg id="graph" class="graph">
<g id="graph0" class="graph" transform="scale(1 1) rotate(0) translate(4 101)">
<title>PhotosAnalyzerImpl</title>
<!-- Node1 -->
<g id="Node000001" class="node">
<title>Node1</title>
<g id="a_Node000001"><a xlink:title=" ">
<polygon fill="#999999" stroke="#666666" points="300.12,-19.25 197.88,-19.25 197.88,0 300.12,0 300.12,-19.25"/>
<text text-anchor="middle" x="249" y="-5.75" font-family="Helvetica,sans-Serif" font-size="10.00">PhotosAnalyzerImpl</text>
</a>
</g>
</g>
<!-- Node2 -->
<g id="Node000002" class="node">
<title>Node2</title>
<g id="a_Node000002"><a xlink:title=" ">
<polygon fill="white" stroke="#666666" points="52,-91.38 0,-91.38 0,-72.12 52,-72.12 52,-91.38"/>
<text text-anchor="middle" x="26" y="-77.88" font-family="Helvetica,sans-Serif" font-size="10.00">QObject</text>
</a>
</g>
</g>
<!-- Node2&#45;&gt;Node1 -->
<g id="edge1_Node000001_Node000002" class="edge">
<title>Node2&#45;&gt;Node1</title>
<g id="a_edge1_Node000001_Node000002"><a xlink:title=" ">
<path fill="none" stroke="#63b8ff" d="M58.04,-67.56C59.04,-67.2 60.03,-66.84 61,-66.5 114.01,-47.88 176.78,-30.05 214.72,-19.73"/>
<polygon fill="#63b8ff" stroke="#63b8ff" points="56.83,-64.27 48.76,-71.13 59.35,-70.81 56.83,-64.27"/>
</a>
</g>
</g>
<!-- Node3 -->
<g id="Node000003" class="node">
<title>Node3</title>
<g id="a_Node000003"><a xlink:href="../../d5/d65/class_observable_task_executor.html" target="_top" xlink:title=" ">
<polygon fill="#fff0f0" stroke="red" points="194.38,-97 69.62,-97 69.62,-66.5 194.38,-66.5 194.38,-97"/>
<text text-anchor="start" x="77.62" y="-83.5" font-family="Helvetica,sans-Serif" font-size="10.00">ObservableTaskExecutor</text>
<text text-anchor="middle" x="132" y="-72.25" font-family="Helvetica,sans-Serif" font-size="10.00">&lt; TasksQueue &gt;</text>
</a>
</g>
</g>
<!-- Node3&#45;&gt;Node1 -->
<g id="edge2_Node000001_Node000003" class="edge">
<title>Node3&#45;&gt;Node1</title>
<g id="a_edge2_Node000001_Node000003"><a xlink:title=" ">
<path fill="none" stroke="#9a32cd" stroke-dasharray="5,2" d="M154.16,-58.62C162.42,-51.16 172.19,-43.23 182,-37.25 193.76,-30.09 207.78,-24.16 219.95,-19.74"/>
<polygon fill="#9a32cd" stroke="#9a32cd" points="151.86,-55.98 146.95,-65.37 156.64,-61.08 151.86,-55.98"/>
</a>
</g>
<text text-anchor="middle" x="213.5" y="-39" font-family="Helvetica,sans-Serif" font-size="10.00" fill="grey"> m_taskQueue</text>
</g>
<!-- Node8 -->
<g id="Node000008" class="node">
<title>Node8</title>
<g id="a_Node000008"><a xlink:href="../../d8/d50/class_media_information.html" target="_top" xlink:title=" ">
<polygon fill="#fff0f0" stroke="red" points="303.5,-91.38 212.5,-91.38 212.5,-72.12 303.5,-72.12 303.5,-91.38"/>
<text text-anchor="middle" x="258" y="-77.88" font-family="Helvetica,sans-Serif" font-size="10.00">MediaInformation</text>
</a>
</g>
</g>
<!-- Node8&#45;&gt;Node1 -->
<g id="edge3_Node000001_Node000008" class="edge">
<title>Node8&#45;&gt;Node1</title>
<g id="a_edge3_Node000001_Node000008"><a xlink:title=" ">
<path fill="none" stroke="#9a32cd" stroke-dasharray="5,2" d="M252.53,-60.74C251.61,-56.72 250.79,-52.49 250.25,-48.5 248.93,-38.72 248.73,-27.4 248.79,-19.7"/>
<polygon fill="#9a32cd" stroke="#9a32cd" points="249.11,-61.51 254.96,-70.34 255.9,-59.79 249.11,-61.51"/>
</a>
</g>
<text text-anchor="middle" x="295.62" y="-39" font-family="Helvetica,sans-Serif" font-size="10.00" fill="grey"> m_mediaInformation</text>
</g>
<!-- Node10 -->
<g id="Node000010" class="node">
<title>Node10</title>
<g id="a_Node000010"><a xlink:href="../../d6/d44/struct_i_tasks_view.html" target="_top" xlink:title=" ">
<polygon fill="white" stroke="#666666" points="396.88,-91.38 329.12,-91.38 329.12,-72.12 396.88,-72.12 396.88,-91.38"/>
<text text-anchor="middle" x="363" y="-77.88" font-family="Helvetica,sans-Serif" font-size="10.00">ITasksView</text>
</a>
</g>
</g>
<!-- Node10&#45;&gt;Node1 -->
<g id="edge4_Node000001_Node000010" class="edge">
<title>Node10&#45;&gt;Node1</title>
<g id="a_edge4_Node000001_Node000010"><a xlink:title=" ">
<path fill="none" stroke="#9a32cd" stroke-dasharray="5,2" d="M356.95,-60.87C353.5,-52.52 348.35,-43.34 341,-37.25 329.48,-27.7 314.69,-21.57 300.35,-17.64"/>
<polygon fill="#9a32cd" stroke="#9a32cd" points="353.65,-62.02 360.26,-70.3 360.25,-59.7 353.65,-62.02"/>
</a>
</g>
<text text-anchor="middle" x="381.17" y="-39" font-family="Helvetica,sans-Serif" font-size="10.00" fill="grey"> m_tasksView</text>
</g>
<!-- Node11 -->
<g id="Node000011" class="node">
<title>Node11</title>
<g id="a_Node000011"><a xlink:href="../../da/d69/struct_i_view_task.html" target="_top" xlink:title=" ">
<polygon fill="white" stroke="#666666" points="479.25,-91.38 416.75,-91.38 416.75,-72.12 479.25,-72.12 479.25,-91.38"/>
<text text-anchor="middle" x="448" y="-77.88" font-family="Helvetica,sans-Serif" font-size="10.00">IViewTask</text>
</a>
</g>
</g>
<!-- Node11&#45;&gt;Node1 -->
<g id="edge5_Node000001_Node000011" class="edge">
<title>Node11&#45;&gt;Node1</title>
<g id="a_edge5_Node000001_Node000011"><a xlink:title=" ">
<path fill="none" stroke="#9a32cd" stroke-dasharray="5,2" d="M438.56,-61.8C433.17,-52.94 425.56,-43.08 416,-37.25 397.01,-25.68 342.01,-18.48 300.27,-14.53"/>
<polygon fill="#9a32cd" stroke="#9a32cd" points="435.42,-63.35 443.3,-70.44 441.56,-59.99 435.42,-63.35"/>
</a>
</g>
<text text-anchor="middle" x="457.07" y="-39" font-family="Helvetica,sans-Serif" font-size="10.00" fill="grey"> m_viewTask</text>
</g>
</g>
</svg>
</svg>

<style type='text/css'>
<![CDATA[
[data-mouse-over-selected='false'] { opacity: 0.7; }
[data-mouse-over-selected='true']  { opacity: 1.0; }
]]>
</style>
<script type="application/ecmascript"><![CDATA[
document.addEventListener('DOMContentLoaded', (event) => {
  highlightEdges();
  highlightAdjacentNodes();
});
]]></script>
</svg>
