<?xml version="1.0" encoding="UTF-8" standalone="no"?>
<!DOCTYPE svg PUBLIC "-//W3C//DTD SVG 1.1//EN"
 "http://www.w3.org/Graphics/SVG/1.1/DTD/svg11.dtd">
<!-- Generated by graphviz version 9.0.0 (20230911.1827)
 -->
<!-- Title: src/gui/inotifications.hpp Pages: 1 -->
<svg width="519pt" height="94pt"
 viewBox="0.00 0.00 519.00 93.75" xmlns="http://www.w3.org/2000/svg" xmlns:xlink="http://www.w3.org/1999/xlink">
<g id="graph0" class="graph" transform="scale(1 1) rotate(0) translate(4 89.75)">
<title>src/gui/inotifications.hpp</title>
<!-- Node1 -->
<g id="Node000001" class="node">
<title>Node1</title>
<g id="a_Node000001"><a xlink:title=" ">
<polygon fill="#999999" stroke="#666666" points="324.25,-85.75 204,-85.75 204,-66.5 324.25,-66.5 324.25,-85.75"/>
<text text-anchor="middle" x="264.12" y="-72.25" font-family="Helvetica,sans-Serif" font-size="10.00">src/gui/inotifications.hpp</text>
</a>
</g>
</g>
<!-- Node2 -->
<g id="Node000002" class="node">
<title>Node2</title>
<g id="a_Node000002"><a xlink:href="../../d2/d03/notifications__model_8hpp.html" target="_top" xlink:title=" ">
<polygon fill="#fff0f0" stroke="red" points="120.25,-30.5 0,-30.5 0,0 120.25,0 120.25,-30.5"/>
<text text-anchor="start" x="8" y="-17" font-family="Helvetica,sans-Serif" font-size="10.00">src/gui/desktop/models</text>
<text text-anchor="middle" x="60.12" y="-5.75" font-family="Helvetica,sans-Serif" font-size="10.00">/notifications_model.hpp</text>
</a>
</g>
</g>
<!-- Node1&#45;&gt;Node2 -->
<g id="edge1_Node000001_Node000002" class="edge">
<title>Node1&#45;&gt;Node2</title>
<g id="a_edge1_Node000001_Node000002"><a xlink:title=" ">
<path fill="none" stroke="#63b8ff" d="M221.86,-62.93C189.66,-53.63 145.2,-40.8 111.04,-30.94"/>
<polygon fill="#63b8ff" stroke="#63b8ff" points="220.66,-66.22 231.24,-65.64 222.61,-59.5 220.66,-66.22"/>
</a>
</g>
</g>
<!-- Node7 -->
<g id="Node000007" class="node">
<title>Node7</title>
<g id="a_Node000007"><a xlink:href="../../d8/ddc/collection__scanner_8hpp.html" target="_top" xlink:title=" ">
<polygon fill="#fff0f0" stroke="red" points="256.12,-30.5 138.12,-30.5 138.12,0 256.12,0 256.12,-30.5"/>
<text text-anchor="start" x="146.12" y="-17" font-family="Helvetica,sans-Serif" font-size="10.00">src/gui/desktop/utils</text>
<text text-anchor="middle" x="197.12" y="-5.75" font-family="Helvetica,sans-Serif" font-size="10.00">/collection_scanner.hpp</text>
</a>
</g>
</g>
<!-- Node1&#45;&gt;Node7 -->
<g id="edge2_Node000001_Node000007" class="edge">
<title>Node1&#45;&gt;Node7</title>
<g id="a_edge2_Node000001_Node000007"><a xlink:title=" ">
<path fill="none" stroke="#63b8ff" d="M245.53,-58.79C235.54,-50.01 223.32,-39.27 213.66,-30.78"/>
<polygon fill="#63b8ff" stroke="#63b8ff" points="242.99,-61.21 252.81,-65.18 247.61,-55.95 242.99,-61.21"/>
</a>
</g>
</g>
<!-- Node9 -->
<g id="Node000009" class="node">
<title>Node9</title>
<g id="a_Node000009"><a xlink:href="../../da/d16/features__observer_8hpp.html" target="_top" xlink:title=" ">
<polygon fill="#fff0f0" stroke="red" points="389.62,-30.5 274.62,-30.5 274.62,0 389.62,0 389.62,-30.5"/>
<text text-anchor="start" x="282.62" y="-17" font-family="Helvetica,sans-Serif" font-size="10.00">src/gui/desktop/utils</text>
<text text-anchor="middle" x="332.12" y="-5.75" font-family="Helvetica,sans-Serif" font-size="10.00">/features_observer.hpp</text>
</a>
</g>
</g>
<!-- Node1&#45;&gt;Node9 -->
<g id="edge3_Node000001_Node000009" class="edge">
<title>Node1&#45;&gt;Node9</title>
<g id="a_edge3_Node000001_Node000009"><a xlink:title=" ">
<path fill="none" stroke="#63b8ff" d="M282.99,-58.79C293.14,-50.01 305.54,-39.27 315.34,-30.78"/>
<polygon fill="#63b8ff" stroke="#63b8ff" points="280.87,-56 275.6,-65.19 285.45,-61.29 280.87,-56"/>
</a>
</g>
</g>
<!-- Node11 -->
<g id="Node000011" class="node">
<title>Node11</title>
<g id="a_Node000011"><a xlink:href="../../d5/db6/qml__setup_8cpp.html" target="_top" xlink:title=" ">
<polygon fill="white" stroke="#666666" points="511,-30.5 407.25,-30.5 407.25,0 511,0 511,-30.5"/>
<text text-anchor="start" x="415.25" y="-17" font-family="Helvetica,sans-Serif" font-size="10.00">src/gui/desktop/utils</text>
<text text-anchor="middle" x="459.12" y="-5.75" font-family="Helvetica,sans-Serif" font-size="10.00">/qml_setup.cpp</text>
</a>
</g>
</g>
<!-- Node1&#45;&gt;Node11 -->
<g id="edge4_Node000001_Node000011" class="edge">
<title>Node1&#45;&gt;Node11</title>
<g id="a_edge4_Node000001_Node000011"><a xlink:title=" ">
<path fill="none" stroke="#63b8ff" d="M304.93,-62.8C335.68,-53.52 377.95,-40.76 410.45,-30.94"/>
<polygon fill="#63b8ff" stroke="#63b8ff" points="304.18,-59.38 295.62,-65.62 306.2,-66.08 304.18,-59.38"/>
</a>
</g>
</g>
</g>
</svg>
