<?xml version="1.0" encoding="UTF-8" standalone="no"?>
<!DOCTYPE svg PUBLIC "-//W3C//DTD SVG 1.1//EN"
 "http://www.w3.org/Graphics/SVG/1.1/DTD/svg11.dtd">
<!-- Generated by graphviz version 7.0.5 (20221223.1930)
 -->
<!-- Title: SeriesDetector Pages: 1 -->
<svg width="268pt" height="93pt"
 viewBox="0.00 0.00 268.00 93.00" xmlns="http://www.w3.org/2000/svg" xmlns:xlink="http://www.w3.org/1999/xlink">
<g id="graph0" class="graph" transform="scale(1 1) rotate(0) translate(4 89)">
<title>SeriesDetector</title>
<!-- Node1 -->
<g id="node1" class="node">
<title>Node1</title>
<g id="a_node1"><a xlink:title=" ">
<polygon fill="#999999" stroke="#666666" points="162.5,-19 81.5,-19 81.5,0 162.5,0 162.5,-19"/>
<text text-anchor="middle" x="122" y="-7" font-family="Helvetica,sans-Serif" font-size="10.00">SeriesDetector</text>
</a>
</g>
</g>
<!-- Node2 -->
<g id="node2" class="node">
<title>Node2</title>
<g id="a_node2"><a xlink:href="../../df/ddd/struct_i_logger.html" target="_top" xlink:title=" ">
<polygon fill="white" stroke="#666666" points="50,-85 0,-85 0,-66 50,-66 50,-85"/>
<text text-anchor="middle" x="25" y="-73" font-family="Helvetica,sans-Serif" font-size="10.00">ILogger</text>
</a>
</g>
</g>
<!-- Node2&#45;&gt;Node1 -->
<g id="edge1" class="edge">
<title>Node2&#45;&gt;Node1</title>
<path fill="none" stroke="#9a32cd" stroke-dasharray="5,2" d="M44.74,-58.76C53.77,-51.81 64.72,-43.71 75,-37 84.73,-30.65 96.06,-24.23 105.16,-19.31"/>
<polygon fill="#9a32cd" stroke="#9a32cd" points="42.74,-55.89 37.02,-64.8 47.05,-61.4 42.74,-55.89"/>
<text text-anchor="middle" x="96.5" y="-40" font-family="Helvetica,sans-Serif" font-size="10.00"> m_logger</text>
</g>
<!-- Node3 -->
<g id="node3" class="node">
<title>Node3</title>
<g id="a_node3"><a xlink:href="../../d7/da9/struct_database_1_1_i_database.html" target="_top" xlink:title=" ">
<polygon fill="#fff0f0" stroke="red" points="175.5,-85 68.5,-85 68.5,-66 175.5,-66 175.5,-85"/>
<text text-anchor="middle" x="122" y="-73" font-family="Helvetica,sans-Serif" font-size="10.00">Database::IDatabase</text>
</a>
</g>
</g>
<!-- Node3&#45;&gt;Node1 -->
<g id="edge2" class="edge">
<title>Node3&#45;&gt;Node1</title>
<path fill="none" stroke="#9a32cd" stroke-dasharray="5,2" d="M122,-54.18C122,-42.44 122,-28.27 122,-19.32"/>
<polygon fill="#9a32cd" stroke="#9a32cd" points="118.5,-54.09 122,-64.09 125.5,-54.09 118.5,-54.09"/>
<text text-anchor="middle" x="135.5" y="-40" font-family="Helvetica,sans-Serif" font-size="10.00"> m_db</text>
</g>
<!-- Node5 -->
<g id="node4" class="node">
<title>Node5</title>
<g id="a_node4"><a xlink:href="../../d5/dd5/struct_i_exif_reader.html" target="_top" xlink:title=" ">
<polygon fill="white" stroke="#666666" points="260,-85 194,-85 194,-66 260,-66 260,-85"/>
<text text-anchor="middle" x="227" y="-73" font-family="Helvetica,sans-Serif" font-size="10.00">IExifReader</text>
</a>
</g>
</g>
<!-- Node5&#45;&gt;Node1 -->
<g id="edge3" class="edge">
<title>Node5&#45;&gt;Node1</title>
<path fill="none" stroke="#9a32cd" stroke-dasharray="5,2" d="M202.81,-59.75C182.3,-47.26 153.58,-29.75 136.48,-19.32"/>
<polygon fill="#9a32cd" stroke="#9a32cd" points="200.75,-62.6 211.11,-64.81 204.39,-56.62 200.75,-62.6"/>
<text text-anchor="middle" x="211" y="-40" font-family="Helvetica,sans-Serif" font-size="10.00"> m_exifReader</text>
</g>
</g>
</svg>
