<?xml version="1.0" encoding="UTF-8" standalone="no"?>
<!DOCTYPE svg PUBLIC "-//W3C//DTD SVG 1.1//EN"
 "http://www.w3.org/Graphics/SVG/1.1/DTD/svg11.dtd">
<!-- Generated by graphviz version 12.2.0 (20241103.1931)
 -->
<!-- Title: Database::IDatabase::exec Pages: 1 -->
<svg width="314pt" height="899pt"
 viewBox="0.00 0.00 313.75 898.50" xmlns="http://www.w3.org/2000/svg" xmlns:xlink="http://www.w3.org/1999/xlink">
<g id="graph0" class="graph" transform="scale(1 1) rotate(0) translate(4 894.5)">
<title>Database::IDatabase::exec</title>
<!-- Node1 -->
<g id="Node000001" class="node">
<title>Node1</title>
<g id="a_Node000001"><a xlink:title=" ">
<polygon fill="#999999" stroke="#666666" points="305.75,-448.5 199.75,-448.5 199.75,-418 305.75,-418 305.75,-448.5"/>
<text text-anchor="start" x="207.75" y="-435" font-family="Helvetica,sans-Serif" font-size="10.00">Database::IDatabase</text>
<text text-anchor="middle" x="252.75" y="-423.75" font-family="Helvetica,sans-Serif" font-size="10.00">::exec</text>
</a>
</g>
</g>
<!-- Node2 -->
<g id="Node000002" class="node">
<title>Node2</title>
<g id="a_Node000002"><a xlink:href="../../d4/dd6/class_photos_data_guesser.html#a6af361bc3eec4228a6c171e97126af1d" target="_top" xlink:title=" ">
<polygon fill="white" stroke="#666666" points="136,-890.5 27.75,-890.5 27.75,-860 136,-860 136,-890.5"/>
<text text-anchor="start" x="35.75" y="-877" font-family="Helvetica,sans-Serif" font-size="10.00">PhotosDataGuesser::</text>
<text text-anchor="middle" x="81.88" y="-865.75" font-family="Helvetica,sans-Serif" font-size="10.00">applyRows</text>
</a>
</g>
</g>
<!-- Node1&#45;&gt;Node2 -->
<g id="edge1_Node000001_Node000002" class="edge">
<title>Node1&#45;&gt;Node2</title>
<g id="a_edge1_Node000001_Node000002"><a xlink:title=" ">
<path fill="none" stroke="#63b8ff" d="M249.59,-460.15C242.41,-542.98 216.75,-792.14 163.75,-850.25 156.42,-858.28 146.57,-863.76 136.27,-867.49"/>
<polygon fill="#63b8ff" stroke="#63b8ff" points="253.07,-460.52 250.42,-450.26 246.09,-459.93 253.07,-460.52"/>
</a>
</g>
</g>
<!-- Node3 -->
<g id="Node000003" class="node">
<title>Node3</title>
<g id="a_Node000003"><a xlink:href="../../d7/d14/struct_executor_traits_3_01_database_1_1_i_database_00_01_t_01_4.html#a46ffcb75d77163d64b3f4e26ed2a9396" target="_top" xlink:title=" ">
<polygon fill="white" stroke="#666666" points="145.75,-841.5 18,-841.5 18,-811 145.75,-811 145.75,-841.5"/>
<text text-anchor="start" x="26" y="-828" font-family="Helvetica,sans-Serif" font-size="10.00">ExecutorTraits&lt; Database</text>
<text text-anchor="middle" x="81.88" y="-816.75" font-family="Helvetica,sans-Serif" font-size="10.00">::IDatabase, T &gt;::exec</text>
</a>
</g>
</g>
<!-- Node1&#45;&gt;Node3 -->
<g id="edge2_Node000001_Node000003" class="edge">
<title>Node1&#45;&gt;Node3</title>
<g id="a_edge2_Node000001_Node000003"><a xlink:title=" ">
<path fill="none" stroke="#63b8ff" d="M248.83,-460.04C240.01,-536.27 211.26,-752.08 163.75,-802.25 158.71,-807.57 152.56,-811.72 145.92,-814.97"/>
<polygon fill="#63b8ff" stroke="#63b8ff" points="252.3,-460.5 249.95,-450.17 245.35,-459.71 252.3,-460.5"/>
</a>
</g>
</g>
<!-- Node4 -->
<g id="Node000004" class="node">
<title>Node4</title>
<g id="a_Node000004"><a xlink:href="../../dd/d17/class_thumbnail_manager.html#a23c27b8332708a2e59a6a5ac0c3962fd" target="_top" xlink:title=" ">
<polygon fill="white" stroke="#666666" points="144.25,-792.88 19.5,-792.88 19.5,-773.62 144.25,-773.62 144.25,-792.88"/>
<text text-anchor="middle" x="81.88" y="-779.38" font-family="Helvetica,sans-Serif" font-size="10.00">ThumbnailManager::fetch</text>
</a>
</g>
</g>
<!-- Node1&#45;&gt;Node4 -->
<g id="edge3_Node000001_Node000004" class="edge">
<title>Node1&#45;&gt;Node4</title>
<g id="a_edge3_Node000001_Node000004"><a xlink:title=" ">
<path fill="none" stroke="#63b8ff" d="M248.24,-459.77C238.33,-530.51 208,-721.27 163.75,-764.25 158.27,-769.58 151.59,-773.51 144.44,-776.4"/>
<polygon fill="#63b8ff" stroke="#63b8ff" points="251.65,-460.63 249.54,-450.24 244.72,-459.68 251.65,-460.63"/>
</a>
</g>
</g>
<!-- Node5 -->
<g id="Node000005" class="node">
<title>Node5</title>
<g id="a_Node000005"><a xlink:href="../../d9/d95/class_photo_delta_fetcher.html#a14b13b1a4f59b82ebac67de36bd160f4" target="_top" xlink:title=" ">
<polygon fill="white" stroke="#666666" points="132.62,-755.5 31.12,-755.5 31.12,-725 132.62,-725 132.62,-755.5"/>
<text text-anchor="start" x="39.12" y="-742" font-family="Helvetica,sans-Serif" font-size="10.00">PhotoDeltaFetcher::</text>
<text text-anchor="middle" x="81.88" y="-730.75" font-family="Helvetica,sans-Serif" font-size="10.00">fetchIds</text>
</a>
</g>
</g>
<!-- Node1&#45;&gt;Node5 -->
<g id="edge4_Node000001_Node000005" class="edge">
<title>Node1&#45;&gt;Node5</title>
<g id="a_edge4_Node000001_Node000005"><a xlink:title=" ">
<path fill="none" stroke="#63b8ff" d="M251.38,-459.99C249.13,-515.72 235.92,-645.01 163.75,-716.25 155.31,-724.58 144.11,-730.05 132.75,-733.62"/>
<polygon fill="#63b8ff" stroke="#63b8ff" points="254.87,-460.28 251.68,-450.18 247.88,-460.07 254.87,-460.28"/>
</a>
</g>
</g>
<!-- Node6 -->
<g id="Node000006" class="node">
<title>Node6</title>
<g id="a_Node000006"><a xlink:href="../../dd/d0a/class_face_editor.html#acd98f4936f0f9f4672c64a49c101442d" target="_top" xlink:title=" ">
<polygon fill="#fff0f0" stroke="red" points="136.38,-706.88 27.38,-706.88 27.38,-687.62 136.38,-687.62 136.38,-706.88"/>
<text text-anchor="middle" x="81.88" y="-693.38" font-family="Helvetica,sans-Serif" font-size="10.00">FaceEditor::findFaces</text>
</a>
</g>
</g>
<!-- Node1&#45;&gt;Node6 -->
<g id="edge5_Node000001_Node000006" class="edge">
<title>Node1&#45;&gt;Node6</title>
<g id="a_edge5_Node000001_Node000006"><a xlink:title=" ">
<path fill="none" stroke="#63b8ff" d="M250.19,-460.21C245.74,-510.85 228.72,-620.3 163.75,-678.25 156.11,-685.07 146.48,-689.56 136.57,-692.5"/>
<polygon fill="#63b8ff" stroke="#63b8ff" points="253.66,-460.69 250.93,-450.45 246.68,-460.16 253.66,-460.69"/>
</a>
</g>
</g>
<!-- Node9 -->
<g id="Node000009" class="node">
<title>Node9</title>
<g id="a_Node000009"><a xlink:href="../../d0/d37/class_database_1_1_database_queue.html#a727922aa6057564410d837ace96f18a8" target="_top" xlink:title=" ">
<polygon fill="white" stroke="#666666" points="147.62,-669.5 16.12,-669.5 16.12,-639 147.62,-639 147.62,-669.5"/>
<text text-anchor="start" x="24.12" y="-656" font-family="Helvetica,sans-Serif" font-size="10.00">Database::DatabaseQueue</text>
<text text-anchor="middle" x="81.88" y="-644.75" font-family="Helvetica,sans-Serif" font-size="10.00">::flushQueue</text>
</a>
</g>
</g>
<!-- Node1&#45;&gt;Node9 -->
<g id="edge6_Node000001_Node000009" class="edge">
<title>Node1&#45;&gt;Node9</title>
<g id="a_edge6_Node000001_Node000009"><a xlink:title=" ">
<path fill="none" stroke="#63b8ff" d="M247.18,-459.97C238.54,-502.3 215.78,-584.65 163.75,-630.25 159.01,-634.4 153.59,-637.83 147.83,-640.67"/>
<polygon fill="#63b8ff" stroke="#63b8ff" points="250.57,-460.88 249.02,-450.4 243.7,-459.56 250.57,-460.88"/>
</a>
</g>
</g>
<!-- Node10 -->
<g id="Node000010" class="node">
<title>Node10</title>
<g id="a_Node000010"><a xlink:href="../../df/d40/namespace_groups_manager.html#a36d06be40255e8a0134e20f37a9da47b" target="_top" xlink:title=" ">
<polygon fill="white" stroke="#666666" points="138.62,-620.88 25.12,-620.88 25.12,-601.62 138.62,-601.62 138.62,-620.88"/>
<text text-anchor="middle" x="81.88" y="-607.38" font-family="Helvetica,sans-Serif" font-size="10.00">GroupsManager::group</text>
</a>
</g>
</g>
<!-- Node1&#45;&gt;Node10 -->
<g id="edge7_Node000001_Node000010" class="edge">
<title>Node1&#45;&gt;Node10</title>
<g id="a_edge7_Node000001_Node000010"><a xlink:title=" ">
<path fill="none" stroke="#63b8ff" d="M244.5,-459.7C233.29,-495.44 208.27,-558.54 163.75,-592.25 156.51,-597.73 147.93,-601.67 139.11,-604.49"/>
<polygon fill="#63b8ff" stroke="#63b8ff" points="247.84,-460.75 247.35,-450.17 241.13,-458.75 247.84,-460.75"/>
</a>
</g>
</g>
<!-- Node11 -->
<g id="Node000011" class="node">
<title>Node11</title>
<g id="a_Node000011"><a xlink:href="../../dc/dc0/class_database_1_1_async_database.html#a836d2e0ec99e3b7aba3084716033f58d" target="_top" xlink:title=" ">
<polygon fill="white" stroke="#666666" points="146.88,-583.5 16.88,-583.5 16.88,-553 146.88,-553 146.88,-583.5"/>
<text text-anchor="start" x="24.88" y="-570" font-family="Helvetica,sans-Serif" font-size="10.00">Database::AsyncDatabase</text>
<text text-anchor="middle" x="81.88" y="-558.75" font-family="Helvetica,sans-Serif" font-size="10.00">::init</text>
</a>
</g>
</g>
<!-- Node1&#45;&gt;Node11 -->
<g id="edge8_Node000001_Node000011" class="edge">
<title>Node1&#45;&gt;Node11</title>
<g id="a_edge8_Node000001_Node000011"><a xlink:title=" ">
<path fill="none" stroke="#63b8ff" d="M237.94,-458.6C222.9,-483.89 196.55,-522.07 163.75,-544.25 158.65,-547.7 153.05,-550.66 147.25,-553.2"/>
<polygon fill="#63b8ff" stroke="#63b8ff" points="240.96,-460.36 242.92,-449.95 234.9,-456.87 240.96,-460.36"/>
</a>
</g>
</g>
<!-- Node12 -->
<g id="Node000012" class="node">
<title>Node12</title>
<g id="a_Node000012"><a xlink:href="../../d3/d94/class_duplicates_model.html#a3b598cbfcf449e0b9163bc9810e17b8c" target="_top" xlink:title=" ">
<polygon fill="white" stroke="#666666" points="147.25,-534.88 16.5,-534.88 16.5,-515.62 147.25,-515.62 147.25,-534.88"/>
<text text-anchor="middle" x="81.88" y="-521.38" font-family="Helvetica,sans-Serif" font-size="10.00">DuplicatesModel::loadData</text>
</a>
</g>
</g>
<!-- Node1&#45;&gt;Node12 -->
<g id="edge9_Node000001_Node000012" class="edge">
<title>Node1&#45;&gt;Node12</title>
<g id="a_edge9_Node000001_Node000012"><a xlink:title=" ">
<path fill="none" stroke="#63b8ff" d="M229.43,-456.83C212.79,-473.05 188.72,-493.83 163.75,-506.25 156.52,-509.85 148.58,-512.78 140.59,-515.17"/>
<polygon fill="#63b8ff" stroke="#63b8ff" points="231.75,-459.45 236.34,-449.91 226.8,-454.51 231.75,-459.45"/>
</a>
</g>
</g>
<!-- Node13 -->
<g id="Node000013" class="node">
<title>Node13</title>
<g id="a_Node000013"><a xlink:href="../../d4/dd6/class_photos_data_guesser.html#a70ed93be8560cb9d8f83d3192858855b" target="_top" xlink:title=" ">
<polygon fill="white" stroke="#666666" points="136,-497.5 27.75,-497.5 27.75,-467 136,-467 136,-497.5"/>
<text text-anchor="start" x="35.75" y="-484" font-family="Helvetica,sans-Serif" font-size="10.00">PhotosDataGuesser::</text>
<text text-anchor="middle" x="81.88" y="-472.75" font-family="Helvetica,sans-Serif" font-size="10.00">loadData</text>
</a>
</g>
</g>
<!-- Node1&#45;&gt;Node13 -->
<g id="edge10_Node000001_Node000013" class="edge">
<title>Node1&#45;&gt;Node13</title>
<g id="a_edge10_Node000001_Node000013"><a xlink:title=" ">
<path fill="none" stroke="#63b8ff" d="M189.13,-451.42C171.84,-456.44 153.23,-461.84 136.5,-466.69"/>
<polygon fill="#63b8ff" stroke="#63b8ff" points="189.62,-454.92 198.25,-448.77 187.67,-448.2 189.62,-454.92"/>
</a>
</g>
</g>
<!-- Node14 -->
<g id="Node000014" class="node">
<title>Node14</title>
<g id="a_Node000014"><a xlink:href="../../d2/d10/class_photos_model_controller_component.html#a67b32f8b713139eb8aac45654dba63c0" target="_top" xlink:title=" ">
<polygon fill="white" stroke="#666666" points="163.75,-448.5 0,-448.5 0,-418 163.75,-418 163.75,-448.5"/>
<text text-anchor="start" x="8" y="-435" font-family="Helvetica,sans-Serif" font-size="10.00">PhotosModelControllerComponent</text>
<text text-anchor="middle" x="81.88" y="-423.75" font-family="Helvetica,sans-Serif" font-size="10.00">::markNewAsReviewed</text>
</a>
</g>
</g>
<!-- Node1&#45;&gt;Node14 -->
<g id="edge11_Node000001_Node000014" class="edge">
<title>Node1&#45;&gt;Node14</title>
<g id="a_edge11_Node000001_Node000014"><a xlink:title=" ">
<path fill="none" stroke="#63b8ff" d="M188.28,-433.25C180.33,-433.25 172.12,-433.25 163.94,-433.25"/>
<polygon fill="#63b8ff" stroke="#63b8ff" points="188.19,-436.75 198.19,-433.25 188.19,-429.75 188.19,-436.75"/>
</a>
</g>
</g>
<!-- Node15 -->
<g id="Node000015" class="node">
<title>Node15</title>
<g id="a_Node000015"><a xlink:href="../../db/d6e/class_collection_scanner.html#adbc3f49aec1203fad1160b5a41a2b0f2" target="_top" xlink:title=" ">
<polygon fill="#fff0f0" stroke="red" points="131.5,-399.5 32.25,-399.5 32.25,-369 131.5,-369 131.5,-399.5"/>
<text text-anchor="start" x="40.25" y="-386" font-family="Helvetica,sans-Serif" font-size="10.00">CollectionScanner::</text>
<text text-anchor="middle" x="81.88" y="-374.75" font-family="Helvetica,sans-Serif" font-size="10.00">performAnalysis</text>
</a>
</g>
</g>
<!-- Node1&#45;&gt;Node15 -->
<g id="edge12_Node000001_Node000015" class="edge">
<title>Node1&#45;&gt;Node15</title>
<g id="a_edge12_Node000001_Node000015"><a xlink:title=" ">
<path fill="none" stroke="#63b8ff" d="M188.83,-414.99C170,-409.53 149.65,-403.63 131.87,-398.46"/>
<polygon fill="#63b8ff" stroke="#63b8ff" points="187.67,-418.3 198.25,-417.73 189.62,-411.58 187.67,-418.3"/>
</a>
</g>
</g>
<!-- Node21 -->
<g id="Node000021" class="node">
<title>Node21</title>
<g id="a_Node000021"><a xlink:href="../../d0/d37/class_database_1_1_database_queue.html#a8560ab677e6ff0d4d9cc120f4bbff4db" target="_top" xlink:title=" ">
<polygon fill="#fff0f0" stroke="red" points="147.62,-350.5 16.12,-350.5 16.12,-320 147.62,-320 147.62,-350.5"/>
<text text-anchor="start" x="24.12" y="-337" font-family="Helvetica,sans-Serif" font-size="10.00">Database::DatabaseQueue</text>
<text text-anchor="middle" x="81.88" y="-325.75" font-family="Helvetica,sans-Serif" font-size="10.00">::pushTask</text>
</a>
</g>
</g>
<!-- Node1&#45;&gt;Node21 -->
<g id="edge13_Node000001_Node000021" class="edge">
<title>Node1&#45;&gt;Node21</title>
<g id="a_edge13_Node000001_Node000021"><a xlink:title=" ">
<path fill="none" stroke="#63b8ff" d="M228.85,-409.9C212.1,-393.97 188.13,-373.45 163.75,-360.25 157.29,-356.75 150.26,-353.67 143.15,-350.97"/>
<polygon fill="#63b8ff" stroke="#63b8ff" points="226.22,-412.23 235.83,-416.69 231.1,-407.21 226.22,-412.23"/>
</a>
</g>
</g>
<!-- Node23 -->
<g id="Node000023" class="node">
<title>Node23</title>
<g id="a_Node000023"><a xlink:href="../../d1/da6/class_flat_model.html#ad7e7b563526a60acc35ccbf1d2491ba3" target="_top" xlink:title=" ">
<polygon fill="#fff0f0" stroke="red" points="142,-301.88 21.75,-301.88 21.75,-282.62 142,-282.62 142,-301.88"/>
<text text-anchor="middle" x="81.88" y="-288.38" font-family="Helvetica,sans-Serif" font-size="10.00">FlatModel::reloadPhotos</text>
</a>
</g>
</g>
<!-- Node1&#45;&gt;Node23 -->
<g id="edge14_Node000001_Node000023" class="edge">
<title>Node1&#45;&gt;Node23</title>
<g id="a_edge14_Node000001_Node000023"><a xlink:title=" ">
<path fill="none" stroke="#63b8ff" d="M240.13,-407.52C226.1,-379.45 199.81,-335.3 163.75,-311.25 157.27,-306.93 149.93,-303.58 142.37,-301"/>
<polygon fill="#63b8ff" stroke="#63b8ff" points="236.92,-408.91 244.41,-416.4 243.22,-405.87 236.92,-408.91"/>
</a>
</g>
</g>
<!-- Node20 -->
<g id="Node000020" class="node">
<title>Node20</title>
<g id="a_Node000020"><a xlink:href="../../db/d6e/class_collection_scanner.html#a7d7efea2e0e976663465a01f8831ac4a" target="_top" xlink:title=" ">
<polygon fill="white" stroke="#666666" points="142,-264.88 21.75,-264.88 21.75,-245.62 142,-245.62 142,-264.88"/>
<text text-anchor="middle" x="81.88" y="-251.38" font-family="Helvetica,sans-Serif" font-size="10.00">CollectionScanner::scan</text>
</a>
</g>
</g>
<!-- Node1&#45;&gt;Node20 -->
<g id="edge15_Node000001_Node000020" class="edge">
<title>Node1&#45;&gt;Node20</title>
<g id="a_edge15_Node000001_Node000020"><a xlink:title=" ">
<path fill="none" stroke="#63b8ff" d="M244.75,-407.03C233.74,-371.06 208.83,-307.06 163.75,-273.25 157.42,-268.5 150.08,-264.97 142.45,-262.34"/>
<polygon fill="#63b8ff" stroke="#63b8ff" points="241.26,-407.57 247.42,-416.19 247.98,-405.61 241.26,-407.57"/>
</a>
</g>
</g>
<!-- Node26 -->
<g id="Node000026" class="node">
<title>Node26</title>
<g id="a_Node000026"><a xlink:href="../../de/d4e/class_people_list_model.html#a217120aaf87ae60bb5c66d97a07f92d9" target="_top" xlink:title=" ">
<polygon fill="#fff0f0" stroke="red" points="142,-227.88 21.75,-227.88 21.75,-208.62 142,-208.62 142,-227.88"/>
<text text-anchor="middle" x="81.88" y="-214.38" font-family="Helvetica,sans-Serif" font-size="10.00">PeopleListModel::setDB</text>
</a>
</g>
</g>
<!-- Node1&#45;&gt;Node26 -->
<g id="edge16_Node000001_Node000026" class="edge">
<title>Node1&#45;&gt;Node26</title>
<g id="a_edge16_Node000001_Node000026"><a xlink:title=" ">
<path fill="none" stroke="#63b8ff" d="M247.6,-406.42C239.52,-363.59 217.47,-280.12 163.75,-236.25 157.51,-231.15 150.13,-227.43 142.41,-224.71"/>
<polygon fill="#63b8ff" stroke="#63b8ff" points="244.13,-406.87 249.31,-416.11 251.02,-405.65 244.13,-406.87"/>
</a>
</g>
</g>
<!-- Node29 -->
<g id="Node000029" class="node">
<title>Node29</title>
<g id="a_Node000029"><a xlink:href="../../d8/d67/class_tags_operator.html#aa6ec7f69096cee8febd2182a882f5bbd" target="_top" xlink:title=" ">
<polygon fill="#fff0f0" stroke="red" points="136.75,-190.88 27,-190.88 27,-171.62 136.75,-171.62 136.75,-190.88"/>
<text text-anchor="middle" x="81.88" y="-177.38" font-family="Helvetica,sans-Serif" font-size="10.00">TagsOperator::setTag</text>
</a>
</g>
</g>
<!-- Node1&#45;&gt;Node29 -->
<g id="edge17_Node000001_Node000029" class="edge">
<title>Node1&#45;&gt;Node29</title>
<g id="a_edge17_Node000001_Node000029"><a xlink:title=" ">
<path fill="none" stroke="#63b8ff" d="M249.74,-406.39C244.58,-357.42 226.44,-253.69 163.75,-199.25 156.15,-192.65 146.66,-188.31 136.88,-185.49"/>
<polygon fill="#63b8ff" stroke="#63b8ff" points="246.23,-406.46 250.65,-416.09 253.2,-405.8 246.23,-406.46"/>
</a>
</g>
</g>
<!-- Node33 -->
<g id="Node000033" class="node">
<title>Node33</title>
<g id="a_Node000033"><a xlink:href="../../df/d40/namespace_groups_manager.html#ab262024260dcb1a060e7756e1e315e1c" target="_top" xlink:title=" ">
<polygon fill="#fff0f0" stroke="red" points="143.88,-153.88 19.88,-153.88 19.88,-134.62 143.88,-134.62 143.88,-153.88"/>
<text text-anchor="middle" x="81.88" y="-140.38" font-family="Helvetica,sans-Serif" font-size="10.00">GroupsManager::ungroup</text>
</a>
</g>
</g>
<!-- Node1&#45;&gt;Node33 -->
<g id="edge18_Node000001_Node000033" class="edge">
<title>Node1&#45;&gt;Node33</title>
<g id="a_edge18_Node000001_Node000033"><a xlink:title=" ">
<path fill="none" stroke="#63b8ff" d="M251.33,-406.11C248.93,-351.37 235.39,-227.39 163.75,-162.25 158.11,-157.12 151.34,-153.34 144.15,-150.58"/>
<polygon fill="#63b8ff" stroke="#63b8ff" points="247.83,-406.19 251.66,-416.07 254.82,-405.96 247.83,-406.19"/>
</a>
</g>
</g>
<!-- Node38 -->
<g id="Node000038" class="node">
<title>Node38</title>
<g id="a_Node000038"><a xlink:href="../../d1/da6/class_flat_model.html#ab787f239714891d0dbea80843b519bf2" target="_top" xlink:title=" ">
<polygon fill="#fff0f0" stroke="red" points="143.5,-116.88 20.25,-116.88 20.25,-97.62 143.5,-97.62 143.5,-116.88"/>
<text text-anchor="middle" x="81.88" y="-103.38" font-family="Helvetica,sans-Serif" font-size="10.00">FlatModel::updatePhotos</text>
</a>
</g>
</g>
<!-- Node1&#45;&gt;Node38 -->
<g id="edge19_Node000001_Node000038" class="edge">
<title>Node1&#45;&gt;Node38</title>
<g id="a_edge19_Node000001_Node000038"><a xlink:title=" ">
<path fill="none" stroke="#63b8ff" d="M252.58,-406.24C252.86,-346.31 244.61,-201.45 163.75,-125.25 158.1,-119.92 151.23,-116.04 143.91,-113.23"/>
<polygon fill="#63b8ff" stroke="#63b8ff" points="249.08,-406.13 252.44,-416.18 256.08,-406.23 249.08,-406.13"/>
</a>
</g>
</g>
<!-- Node50 -->
<g id="Node000050" class="node">
<title>Node50</title>
<g id="a_Node000050"><a xlink:href="../../d2/d10/class_photos_model_controller_component.html#a95928dce8f42102f559369e1021598ad" target="_top" xlink:title=" ">
<polygon fill="#fff0f0" stroke="red" points="163.75,-79.5 0,-79.5 0,-49 163.75,-49 163.75,-79.5"/>
<text text-anchor="start" x="8" y="-66" font-family="Helvetica,sans-Serif" font-size="10.00">PhotosModelControllerComponent</text>
<text text-anchor="middle" x="81.88" y="-54.75" font-family="Helvetica,sans-Serif" font-size="10.00">::updateTimeRange</text>
</a>
</g>
</g>
<!-- Node1&#45;&gt;Node50 -->
<g id="edge20_Node000001_Node000050" class="edge">
<title>Node1&#45;&gt;Node50</title>
<g id="a_edge20_Node000001_Node000050"><a xlink:title=" ">
<path fill="none" stroke="#63b8ff" d="M248.33,-406.26C238.55,-333.32 208.31,-134.57 163.75,-88.25 160.7,-85.08 157.26,-82.33 153.56,-79.94"/>
<polygon fill="#63b8ff" stroke="#63b8ff" points="244.85,-406.65 249.62,-416.11 251.79,-405.74 244.85,-406.65"/>
</a>
</g>
</g>
<!-- Node51 -->
<g id="Node000051" class="node">
<title>Node51</title>
<g id="a_Node000051"><a xlink:href="../../d6/d99/class_tag_info_collector.html#ac9a9d5cb67ed21da76ad389a5de0f565" target="_top" xlink:title=" ">
<polygon fill="#fff0f0" stroke="red" points="142.38,-30.5 21.38,-30.5 21.38,0 142.38,0 142.38,-30.5"/>
<text text-anchor="start" x="29.38" y="-17" font-family="Helvetica,sans-Serif" font-size="10.00">TagInfoCollector::update</text>
<text text-anchor="middle" x="81.88" y="-5.75" font-family="Helvetica,sans-Serif" font-size="10.00">ValuesFor</text>
</a>
</g>
</g>
<!-- Node1&#45;&gt;Node51 -->
<g id="edge21_Node000001_Node000051" class="edge">
<title>Node1&#45;&gt;Node51</title>
<g id="a_edge21_Node000001_Node000051"><a xlink:title=" ">
<path fill="none" stroke="#63b8ff" d="M249.21,-406.34C241.18,-326.72 213.84,-94.49 163.75,-40.25 157.97,-33.99 150.65,-29.28 142.8,-25.74"/>
<polygon fill="#63b8ff" stroke="#63b8ff" points="245.72,-406.64 250.19,-416.25 252.69,-405.96 245.72,-406.64"/>
</a>
</g>
</g>
</g>
</svg>
