<?xml version="1.0" encoding="UTF-8" standalone="no"?>
<!DOCTYPE svg PUBLIC "-//W3C//DTD SVG 1.1//EN"
 "http://www.w3.org/Graphics/SVG/1.1/DTD/svg11.dtd">
<!-- Generated by graphviz version 7.0.5 (20221223.1930)
 -->
<!-- Title: Database::GroupOperator::membersOf Pages: 1 -->
<svg width="313pt" height="113pt"
 viewBox="0.00 0.00 313.00 113.00" xmlns="http://www.w3.org/2000/svg" xmlns:xlink="http://www.w3.org/1999/xlink">
<g id="graph0" class="graph" transform="scale(1 1) rotate(0) translate(4 109)">
<title>Database::GroupOperator::membersOf</title>
<!-- Node1 -->
<g id="node1" class="node">
<title>Node1</title>
<g id="a_node1"><a xlink:title=" ">
<polygon fill="#999999" stroke="#666666" points="126,-67.5 0,-67.5 0,-37.5 126,-37.5 126,-67.5"/>
<text text-anchor="start" x="8" y="-55.5" font-family="Helvetica,sans-Serif" font-size="10.00">Database::GroupOperator</text>
<text text-anchor="middle" x="63" y="-44.5" font-family="Helvetica,sans-Serif" font-size="10.00">::membersOf</text>
</a>
</g>
</g>
<!-- Node2 -->
<g id="node2" class="node">
<title>Node2</title>
<g id="a_node2"><a xlink:href="../../da/d2a/ibackend_8hpp.html#ac6fb985b87586bc7d7e15bfbef46f893" target="_top" xlink:title=" ">
<polygon fill="white" stroke="#666666" points="276.5,-105 190.5,-105 190.5,-86 276.5,-86 276.5,-105"/>
<text text-anchor="middle" x="233.5" y="-93" font-family="Helvetica,sans-Serif" font-size="10.00">DbErrorOnFalse</text>
</a>
</g>
</g>
<!-- Node1&#45;&gt;Node2 -->
<g id="edge1" class="edge">
<title>Node1&#45;&gt;Node2</title>
<path fill="none" stroke="#63b8ff" d="M124.36,-67.9C143.36,-72.75 164.13,-78.05 182.34,-82.7"/>
<polygon fill="#63b8ff" stroke="#63b8ff" points="181.29,-86.04 191.85,-85.13 183.03,-79.26 181.29,-86.04"/>
</g>
<!-- Node3 -->
<g id="node3" class="node">
<title>Node3</title>
<g id="a_node3"><a xlink:href="../../d9/d1b/struct_database_1_1_i_sql_query_executor.html#acfcd209fa4cb62eb1c1f99bbdd653131" target="_top" xlink:title=" ">
<polygon fill="white" stroke="#666666" points="305,-67.5 162,-67.5 162,-37.5 305,-37.5 305,-67.5"/>
<text text-anchor="start" x="170" y="-55.5" font-family="Helvetica,sans-Serif" font-size="10.00">Database::ISqlQueryExecutor</text>
<text text-anchor="middle" x="233.5" y="-44.5" font-family="Helvetica,sans-Serif" font-size="10.00">::exec</text>
</a>
</g>
</g>
<!-- Node1&#45;&gt;Node3 -->
<g id="edge2" class="edge">
<title>Node1&#45;&gt;Node3</title>
<path fill="none" stroke="#63b8ff" d="M126.26,-52.5C134.1,-52.5 142.21,-52.5 150.3,-52.5"/>
<polygon fill="#63b8ff" stroke="#63b8ff" points="150.17,-56 160.17,-52.5 150.17,-49 150.17,-56"/>
</g>
<!-- Node4 -->
<g id="node4" class="node">
<title>Node4</title>
<g id="a_node4"><a xlink:href="../../db/dfb/class_id.html#ae90d3cdcd4103e44499e82622a27e4cb" target="_top" xlink:title=" ">
<polygon fill="#fff0f0" stroke="red" points="260,-19 207,-19 207,0 260,0 260,-19"/>
<text text-anchor="middle" x="233.5" y="-7" font-family="Helvetica,sans-Serif" font-size="10.00">Id::value</text>
</a>
</g>
</g>
<!-- Node1&#45;&gt;Node4 -->
<g id="edge3" class="edge">
<title>Node1&#45;&gt;Node4</title>
<path fill="none" stroke="#63b8ff" d="M124.36,-37.1C148.26,-31 174.96,-24.18 195.85,-18.85"/>
<polygon fill="#63b8ff" stroke="#63b8ff" points="196.51,-22.3 205.34,-16.43 194.78,-15.51 196.51,-22.3"/>
</g>
</g>
</svg>
