<?xml version="1.0" encoding="UTF-8" standalone="no"?>
<!DOCTYPE svg PUBLIC "-//W3C//DTD SVG 1.1//EN"
 "http://www.w3.org/Graphics/SVG/1.1/DTD/svg11.dtd">
<!-- Generated by graphviz version 9.0.0 (20230911.1827)
 -->
<!-- Title: src/project_utils/project.hpp Pages: 1 -->
<svg width="1729pt" height="172pt"
 viewBox="0.00 0.00 1728.62 171.50" xmlns="http://www.w3.org/2000/svg" xmlns:xlink="http://www.w3.org/1999/xlink">
<g id="graph0" class="graph" transform="scale(1 1) rotate(0) translate(4 167.5)">
<title>src/project_utils/project.hpp</title>
<!-- Node1 -->
<g id="Node000001" class="node">
<title>Node1</title>
<g id="a_Node000001"><a xlink:title=" ">
<polygon fill="#999999" stroke="#666666" points="921.25,-163.5 786,-163.5 786,-144.25 921.25,-144.25 921.25,-163.5"/>
<text text-anchor="middle" x="853.62" y="-150" font-family="Helvetica,sans-Serif" font-size="10.00">src/project_utils/project.hpp</text>
</a>
</g>
</g>
<!-- Node2 -->
<g id="Node000002" class="node">
<title>Node2</title>
<g id="a_Node000002"><a xlink:href="../../d4/df8/faces__model_8cpp.html" target="_top" xlink:title=" ">
<polygon fill="white" stroke="#666666" points="117.25,-102.62 0,-102.62 0,-72.12 117.25,-72.12 117.25,-102.62"/>
<text text-anchor="start" x="8" y="-89.12" font-family="Helvetica,sans-Serif" font-size="10.00">src/gui/desktop/models</text>
<text text-anchor="middle" x="58.62" y="-77.88" font-family="Helvetica,sans-Serif" font-size="10.00">/faces_model.cpp</text>
</a>
</g>
</g>
<!-- Node1&#45;&gt;Node2 -->
<g id="edge1_Node000001_Node000002" class="edge">
<title>Node1&#45;&gt;Node2</title>
<g id="a_edge1_Node000001_Node000002"><a xlink:title=" ">
<path fill="none" stroke="#63b8ff" d="M774.47,-150.29C612.52,-144.64 248.31,-129.92 125.62,-108.25 118.22,-106.94 110.47,-105.1 102.98,-103.06"/>
<polygon fill="#63b8ff" stroke="#63b8ff" points="774.14,-153.78 784.26,-150.63 774.39,-146.79 774.14,-153.78"/>
</a>
</g>
</g>
<!-- Node3 -->
<g id="Node000003" class="node">
<title>Node3</title>
<g id="a_Node000003"><a xlink:href="../../d7/d9a/series__model_8hpp.html" target="_top" xlink:title=" ">
<polygon fill="#fff0f0" stroke="red" points="252.25,-102.62 135,-102.62 135,-72.12 252.25,-72.12 252.25,-102.62"/>
<text text-anchor="start" x="143" y="-89.12" font-family="Helvetica,sans-Serif" font-size="10.00">src/gui/desktop/models</text>
<text text-anchor="middle" x="193.62" y="-77.88" font-family="Helvetica,sans-Serif" font-size="10.00">/series_model.hpp</text>
</a>
</g>
</g>
<!-- Node1&#45;&gt;Node3 -->
<g id="edge2_Node000001_Node000003" class="edge">
<title>Node1&#45;&gt;Node3</title>
<g id="a_edge2_Node000001_Node000003"><a xlink:title=" ">
<path fill="none" stroke="#63b8ff" d="M774.16,-152.14C659.91,-149.9 443,-141.22 261.62,-108.25 254.24,-106.91 246.52,-105.08 239.03,-103.07"/>
<polygon fill="#63b8ff" stroke="#63b8ff" points="773.99,-155.64 784.05,-152.32 774.12,-148.64 773.99,-155.64"/>
</a>
</g>
</g>
<!-- Node9 -->
<g id="Node000009" class="node">
<title>Node9</title>
<g id="a_Node000009"><a xlink:href="../../d8/de4/context__menu__manager_8hpp.html" target="_top" xlink:title=" ">
<polygon fill="#fff0f0" stroke="red" points="440.5,-102.62 270.75,-102.62 270.75,-72.12 440.5,-72.12 440.5,-102.62"/>
<text text-anchor="start" x="278.75" y="-89.12" font-family="Helvetica,sans-Serif" font-size="10.00">src/gui/desktop/quick</text>
<text text-anchor="middle" x="355.62" y="-77.88" font-family="Helvetica,sans-Serif" font-size="10.00">_items/context_menu_manager.hpp</text>
</a>
</g>
</g>
<!-- Node1&#45;&gt;Node9 -->
<g id="edge3_Node000001_Node000009" class="edge">
<title>Node1&#45;&gt;Node9</title>
<g id="a_edge3_Node000001_Node000009"><a xlink:title=" ">
<path fill="none" stroke="#63b8ff" d="M774.36,-146.44C692.68,-139.27 561.8,-126.26 449.62,-108.25 440.4,-106.77 430.72,-104.99 421.21,-103.1"/>
<polygon fill="#63b8ff" stroke="#63b8ff" points="774.03,-149.92 784.29,-147.3 774.63,-142.95 774.03,-149.92"/>
</a>
</g>
</g>
<!-- Node11 -->
<g id="Node000011" class="node">
<title>Node11</title>
<g id="a_Node000011"><a xlink:href="../../df/dab/objects__accessor_8hpp.html" target="_top" xlink:title=" ">
<polygon fill="#fff0f0" stroke="red" points="739,-102.62 596.25,-102.62 596.25,-72.12 739,-72.12 739,-102.62"/>
<text text-anchor="start" x="604.25" y="-89.12" font-family="Helvetica,sans-Serif" font-size="10.00">src/gui/desktop/quick</text>
<text text-anchor="middle" x="667.62" y="-77.88" font-family="Helvetica,sans-Serif" font-size="10.00">_items/objects_accessor.hpp</text>
</a>
</g>
</g>
<!-- Node1&#45;&gt;Node11 -->
<g id="edge4_Node000001_Node000011" class="edge">
<title>Node1&#45;&gt;Node11</title>
<g id="a_edge4_Node000001_Node000011"><a xlink:title=" ">
<path fill="none" stroke="#63b8ff" d="M816.67,-140.06C785.88,-129.38 742.04,-114.18 709.87,-103.02"/>
<polygon fill="#63b8ff" stroke="#63b8ff" points="815.35,-143.31 825.94,-143.27 817.64,-136.69 815.35,-143.31"/>
</a>
</g>
</g>
<!-- Node7 -->
<g id="Node000007" class="node">
<title>Node7</title>
<g id="a_Node000007"><a xlink:href="../../d8/dd9/mainwindow_8cpp.html" target="_top" xlink:title=" ">
<polygon fill="white" stroke="#666666" points="764.25,-30.5 671,-30.5 671,0 764.25,0 764.25,-30.5"/>
<text text-anchor="start" x="679" y="-17" font-family="Helvetica,sans-Serif" font-size="10.00">src/gui/desktop/ui</text>
<text text-anchor="middle" x="717.62" y="-5.75" font-family="Helvetica,sans-Serif" font-size="10.00">/mainwindow.cpp</text>
</a>
</g>
</g>
<!-- Node1&#45;&gt;Node7 -->
<g id="edge6_Node000001_Node000007" class="edge">
<title>Node1&#45;&gt;Node7</title>
<g id="a_edge6_Node000001_Node000007"><a xlink:title=" ">
<path fill="none" stroke="#63b8ff" d="M826.58,-138.16C813.42,-130.28 797.85,-119.81 785.62,-108.25 760.37,-84.37 737.87,-50.14 726.16,-30.88"/>
<polygon fill="#63b8ff" stroke="#63b8ff" points="824.79,-141.17 835.2,-143.15 828.3,-135.11 824.79,-141.17"/>
</a>
</g>
</g>
<!-- Node14 -->
<g id="Node000014" class="node">
<title>Node14</title>
<g id="a_Node000014"><a xlink:href="../../d3/d90/photos__grouping__dialog_8cpp.html" target="_top" xlink:title=" ">
<polygon fill="white" stroke="#666666" points="1159.12,-30.5 1020.12,-30.5 1020.12,0 1159.12,0 1159.12,-30.5"/>
<text text-anchor="start" x="1028.12" y="-17" font-family="Helvetica,sans-Serif" font-size="10.00">src/gui/desktop/ui</text>
<text text-anchor="middle" x="1089.62" y="-5.75" font-family="Helvetica,sans-Serif" font-size="10.00">/photos_grouping_dialog.cpp</text>
</a>
</g>
</g>
<!-- Node1&#45;&gt;Node14 -->
<g id="edge7_Node000001_Node000014" class="edge">
<title>Node1&#45;&gt;Node14</title>
<g id="a_edge7_Node000001_Node000014"><a xlink:title=" ">
<path fill="none" stroke="#63b8ff" d="M933.09,-153.31C1018.06,-151.89 1144.79,-143.65 1175.62,-108.25 1187.81,-94.26 1184.86,-82.59 1175.62,-66.5 1166.33,-50.3 1149.57,-38.83 1133.3,-30.97"/>
<polygon fill="#63b8ff" stroke="#63b8ff" points="933.11,-149.81 923.16,-153.45 933.21,-156.81 933.11,-149.81"/>
</a>
</g>
</g>
<!-- Node15 -->
<g id="Node000015" class="node">
<title>Node15</title>
<g id="a_Node000015"><a xlink:href="../../d9/d9b/collection__scanner_8cpp.html" target="_top" xlink:title=" ">
<polygon fill="white" stroke="#666666" points="912.62,-102.62 794.62,-102.62 794.62,-72.12 912.62,-72.12 912.62,-102.62"/>
<text text-anchor="start" x="802.62" y="-89.12" font-family="Helvetica,sans-Serif" font-size="10.00">src/gui/desktop/utils</text>
<text text-anchor="middle" x="853.62" y="-77.88" font-family="Helvetica,sans-Serif" font-size="10.00">/collection_scanner.cpp</text>
</a>
</g>
</g>
<!-- Node1&#45;&gt;Node15 -->
<g id="edge8_Node000001_Node000015" class="edge">
<title>Node1&#45;&gt;Node15</title>
<g id="a_edge8_Node000001_Node000015"><a xlink:title=" ">
<path fill="none" stroke="#63b8ff" d="M853.62,-132.49C853.62,-122.81 853.62,-111.48 853.62,-102.72"/>
<polygon fill="#63b8ff" stroke="#63b8ff" points="850.13,-132.39 853.63,-142.39 857.13,-132.39 850.13,-132.39"/>
</a>
</g>
</g>
<!-- Node16 -->
<g id="Node000016" class="node">
<title>Node16</title>
<g id="a_Node000016"><a xlink:href="../../dc/db1/groups__manager_8hpp.html" target="_top" xlink:title=" ">
<polygon fill="#fff0f0" stroke="red" points="1040.12,-102.62 931.12,-102.62 931.12,-72.12 1040.12,-72.12 1040.12,-102.62"/>
<text text-anchor="start" x="939.12" y="-89.12" font-family="Helvetica,sans-Serif" font-size="10.00">src/gui/desktop/utils</text>
<text text-anchor="middle" x="985.62" y="-77.88" font-family="Helvetica,sans-Serif" font-size="10.00">/groups_manager.hpp</text>
</a>
</g>
</g>
<!-- Node1&#45;&gt;Node16 -->
<g id="edge9_Node000001_Node000016" class="edge">
<title>Node1&#45;&gt;Node16</title>
<g id="a_edge9_Node000001_Node000016"><a xlink:title=" ">
<path fill="none" stroke="#63b8ff" d="M882.48,-138.77C904.14,-128.19 933.72,-113.74 955.65,-103.02"/>
<polygon fill="#63b8ff" stroke="#63b8ff" points="881.07,-135.57 873.62,-143.11 884.14,-141.86 881.07,-135.57"/>
</a>
</g>
</g>
<!-- Node18 -->
<g id="Node000018" class="node">
<title>Node18</title>
<g id="a_Node000018"><a xlink:href="../../d9/d7b/photos__collector_8cpp.html" target="_top" xlink:title=" ">
<polygon fill="white" stroke="#666666" points="1166.75,-102.62 1058.5,-102.62 1058.5,-72.12 1166.75,-72.12 1166.75,-102.62"/>
<text text-anchor="start" x="1066.5" y="-89.12" font-family="Helvetica,sans-Serif" font-size="10.00">src/gui/desktop/utils</text>
<text text-anchor="middle" x="1112.62" y="-77.88" font-family="Helvetica,sans-Serif" font-size="10.00">/photos_collector.cpp</text>
</a>
</g>
</g>
<!-- Node1&#45;&gt;Node18 -->
<g id="edge12_Node000001_Node000018" class="edge">
<title>Node1&#45;&gt;Node18</title>
<g id="a_edge12_Node000001_Node000018"><a xlink:title=" ">
<path fill="none" stroke="#63b8ff" d="M909.47,-141.43C948.85,-133.05 1002.72,-120.97 1049.62,-108.25 1055.49,-106.66 1061.63,-104.88 1067.67,-103.05"/>
<polygon fill="#63b8ff" stroke="#63b8ff" points="908.79,-138 899.73,-143.49 910.24,-144.85 908.79,-138"/>
</a>
</g>
</g>
<!-- Node19 -->
<g id="Node000019" class="node">
<title>Node19</title>
<g id="a_Node000019"><a xlink:href="../../db/d06/project__creator__dialog_8hpp.html" target="_top" xlink:title=" ">
<polygon fill="#fff0f0" stroke="red" points="578.38,-108.25 458.88,-108.25 458.88,-66.5 578.38,-66.5 578.38,-108.25"/>
<text text-anchor="start" x="466.88" y="-94.75" font-family="Helvetica,sans-Serif" font-size="10.00">src/gui/desktop/widgets</text>
<text text-anchor="start" x="466.88" y="-83.5" font-family="Helvetica,sans-Serif" font-size="10.00">/project_creator/project</text>
<text text-anchor="middle" x="518.62" y="-72.25" font-family="Helvetica,sans-Serif" font-size="10.00">_creator_dialog.hpp</text>
</a>
</g>
</g>
<!-- Node1&#45;&gt;Node19 -->
<g id="edge13_Node000001_Node000019" class="edge">
<title>Node1&#45;&gt;Node19</title>
<g id="a_edge13_Node000001_Node000019"><a xlink:title=" ">
<path fill="none" stroke="#63b8ff" d="M775.46,-142.16C722.21,-134.28 650.29,-122.48 587.62,-108.25 584.71,-107.59 581.73,-106.87 578.73,-106.13"/>
<polygon fill="#63b8ff" stroke="#63b8ff" points="774.63,-145.58 785.03,-143.57 775.64,-138.65 774.63,-145.58"/>
</a>
</g>
</g>
<!-- Node21 -->
<g id="Node000021" class="node">
<title>Node21</title>
<g id="a_Node000021"><a xlink:href="../../d7/d5f/misc_8cpp.html" target="_top" xlink:title=" ">
<polygon fill="white" stroke="#666666" points="1376.62,-102.62 1222.62,-102.62 1222.62,-72.12 1376.62,-72.12 1376.62,-102.62"/>
<text text-anchor="start" x="1230.62" y="-89.12" font-family="Helvetica,sans-Serif" font-size="10.00">src/project_utils/implementation</text>
<text text-anchor="middle" x="1299.62" y="-77.88" font-family="Helvetica,sans-Serif" font-size="10.00">/misc.cpp</text>
</a>
</g>
</g>
<!-- Node1&#45;&gt;Node21 -->
<g id="edge15_Node000001_Node000021" class="edge">
<title>Node1&#45;&gt;Node21</title>
<g id="a_edge15_Node000001_Node000021"><a xlink:title=" ">
<path fill="none" stroke="#63b8ff" d="M932.87,-144.98C1005.01,-137.3 1114.34,-124.44 1208.62,-108.25 1217.39,-106.74 1226.59,-104.97 1235.63,-103.11"/>
<polygon fill="#63b8ff" stroke="#63b8ff" points="932.7,-141.48 923.12,-146.01 933.44,-148.44 932.7,-141.48"/>
</a>
</g>
</g>
<!-- Node22 -->
<g id="Node000022" class="node">
<title>Node22</title>
<g id="a_Node000022"><a xlink:href="../../df/d18/project_8cpp.html" target="_top" xlink:title=" ">
<polygon fill="white" stroke="#666666" points="1548.62,-102.62 1394.62,-102.62 1394.62,-72.12 1548.62,-72.12 1548.62,-102.62"/>
<text text-anchor="start" x="1402.62" y="-89.12" font-family="Helvetica,sans-Serif" font-size="10.00">src/project_utils/implementation</text>
<text text-anchor="middle" x="1471.62" y="-77.88" font-family="Helvetica,sans-Serif" font-size="10.00">/project.cpp</text>
</a>
</g>
</g>
<!-- Node1&#45;&gt;Node22 -->
<g id="edge16_Node000001_Node000022" class="edge">
<title>Node1&#45;&gt;Node22</title>
<g id="a_edge16_Node000001_Node000022"><a xlink:title=" ">
<path fill="none" stroke="#63b8ff" d="M932.97,-149.77C1037.31,-144.89 1226.1,-133.24 1385.62,-108.25 1394.56,-106.85 1403.94,-105.04 1413.09,-103.08"/>
<polygon fill="#63b8ff" stroke="#63b8ff" points="932.94,-146.27 923.11,-150.23 933.26,-153.26 932.94,-146.27"/>
</a>
</g>
</g>
<!-- Node23 -->
<g id="Node000023" class="node">
<title>Node23</title>
<g id="a_Node000023"><a xlink:href="../../db/d98/project__manager_8cpp.html" target="_top" xlink:title=" ">
<polygon fill="white" stroke="#666666" points="1720.62,-102.62 1566.62,-102.62 1566.62,-72.12 1720.62,-72.12 1720.62,-102.62"/>
<text text-anchor="start" x="1574.62" y="-89.12" font-family="Helvetica,sans-Serif" font-size="10.00">src/project_utils/implementation</text>
<text text-anchor="middle" x="1643.62" y="-77.88" font-family="Helvetica,sans-Serif" font-size="10.00">/project_manager.cpp</text>
</a>
</g>
</g>
<!-- Node1&#45;&gt;Node23 -->
<g id="edge17_Node000001_Node000023" class="edge">
<title>Node1&#45;&gt;Node23</title>
<g id="a_edge17_Node000001_Node000023"><a xlink:title=" ">
<path fill="none" stroke="#63b8ff" d="M932.94,-152.07C1063.75,-149.8 1332.66,-141.15 1557.62,-108.25 1566.87,-106.9 1576.6,-105.06 1586.05,-103.05"/>
<polygon fill="#63b8ff" stroke="#63b8ff" points="932.93,-148.57 922.99,-152.23 933.05,-155.57 932.93,-148.57"/>
</a>
</g>
</g>
<!-- Node11&#45;&gt;Node7 -->
<g id="edge5_Node000011_Node000007" class="edge">
<title>Node11&#45;&gt;Node7</title>
<g id="a_edge5_Node000011_Node000007"><a xlink:title=" ">
<path fill="none" stroke="#63b8ff" d="M684.51,-62.69C692.06,-52.11 700.71,-39.97 707.28,-30.76"/>
<polygon fill="#63b8ff" stroke="#63b8ff" points="681.82,-60.44 678.86,-70.61 687.52,-64.5 681.82,-60.44"/>
</a>
</g>
</g>
<!-- Node16&#45;&gt;Node7 -->
<g id="edge10_Node000016_Node000007" class="edge">
<title>Node16&#45;&gt;Node7</title>
<g id="a_edge10_Node000016_Node000007"><a xlink:title=" ">
<path fill="none" stroke="#63b8ff" d="M928.56,-68.47C926.22,-67.79 923.9,-67.13 921.62,-66.5 868.03,-51.59 805.9,-36.61 764.42,-26.94"/>
<polygon fill="#63b8ff" stroke="#63b8ff" points="927.54,-71.82 938.13,-71.29 929.52,-65.1 927.54,-71.82"/>
</a>
</g>
</g>
<!-- Node16&#45;&gt;Node14 -->
<g id="edge11_Node000016_Node000014" class="edge">
<title>Node16&#45;&gt;Node14</title>
<g id="a_edge11_Node000016_Node000014"><a xlink:title=" ">
<path fill="none" stroke="#63b8ff" d="M1016.68,-65.44C1033.16,-54.32 1053.02,-40.93 1067.85,-30.93"/>
<polygon fill="#63b8ff" stroke="#63b8ff" points="1015.02,-62.34 1008.68,-70.83 1018.93,-68.14 1015.02,-62.34"/>
</a>
</g>
</g>
<!-- Node19&#45;&gt;Node7 -->
<g id="edge14_Node000019_Node000007" class="edge">
<title>Node19&#45;&gt;Node7</title>
<g id="a_edge14_Node000019_Node000007"><a xlink:title=" ">
<path fill="none" stroke="#63b8ff" d="M586.89,-62.32C616.5,-51.89 650.22,-40 676,-30.92"/>
<polygon fill="#63b8ff" stroke="#63b8ff" points="585.88,-58.96 577.61,-65.59 588.21,-65.57 585.88,-58.96"/>
</a>
</g>
</g>
</g>
</svg>
