<?xml version="1.0" encoding="UTF-8" standalone="no"?>
<!DOCTYPE svg PUBLIC "-//W3C//DTD SVG 1.1//EN"
 "http://www.w3.org/Graphics/SVG/1.1/DTD/svg11.dtd">
<!-- Generated by graphviz version 7.0.5 (20221223.1930)
 -->
<!-- Title: src/core/implementation/image_media_information.cpp Pages: 1 -->
<svg width="330pt" height="203pt"
 viewBox="0.00 0.00 330.00 203.00" xmlns="http://www.w3.org/2000/svg" xmlns:xlink="http://www.w3.org/1999/xlink">
<g id="graph0" class="graph" transform="scale(1 1) rotate(0) translate(4 199)">
<title>src/core/implementation/image_media_information.cpp</title>
<!-- Node1 -->
<g id="node1" class="node">
<title>Node1</title>
<g id="a_node1"><a xlink:title=" ">
<polygon fill="#999999" stroke="#666666" points="267.5,-195 118.5,-195 118.5,-165 267.5,-165 267.5,-195"/>
<text text-anchor="start" x="126.5" y="-183" font-family="Helvetica,sans-Serif" font-size="10.00">src/core/implementation</text>
<text text-anchor="middle" x="193" y="-172" font-family="Helvetica,sans-Serif" font-size="10.00">/image_media_information.cpp</text>
</a>
</g>
</g>
<!-- Node2 -->
<g id="node2" class="node">
<title>Node2</title>
<g id="a_node2"><a xlink:href="../../df/df0/image__media__information_8hpp.html" target="_top" xlink:title=" ">
<polygon fill="#fff0f0" stroke="red" points="146,-129 0,-129 0,-110 146,-110 146,-129"/>
<text text-anchor="middle" x="73" y="-117" font-family="Helvetica,sans-Serif" font-size="10.00">image_media_information.hpp</text>
</a>
</g>
</g>
<!-- Node1&#45;&gt;Node2 -->
<g id="edge1" class="edge">
<title>Node1&#45;&gt;Node2</title>
<path fill="none" stroke="#63b8ff" d="M163.34,-164.54C144.42,-155.32 120.05,-143.44 101.39,-134.34"/>
<polygon fill="#63b8ff" stroke="#63b8ff" points="103.03,-131.25 92.51,-130.01 99.96,-137.54 103.03,-131.25"/>
</g>
<!-- Node3 -->
<g id="node3" class="node">
<title>Node3</title>
<g id="a_node3"><a xlink:href="../../df/d6f/iexif__reader_8hpp.html" target="_top" xlink:title=" ">
<polygon fill="#fff0f0" stroke="red" points="184,-74 100,-74 100,-55 184,-55 184,-74"/>
<text text-anchor="middle" x="142" y="-62" font-family="Helvetica,sans-Serif" font-size="10.00">iexif_reader.hpp</text>
</a>
</g>
</g>
<!-- Node1&#45;&gt;Node3 -->
<g id="edge6" class="edge">
<title>Node1&#45;&gt;Node3</title>
<path fill="none" stroke="#63b8ff" d="M186.54,-164.63C177.41,-144.31 160.72,-107.15 150.56,-84.55"/>
<polygon fill="#63b8ff" stroke="#63b8ff" points="153.83,-83.3 146.54,-75.61 147.45,-86.17 153.83,-83.3"/>
</g>
<!-- Node4 -->
<g id="node4" class="node">
<title>Node4</title>
<g id="a_node4"><a xlink:title=" ">
<polygon fill="#e0e0e0" stroke="#999999" points="193,-19 161,-19 161,0 193,0 193,-19"/>
<text text-anchor="middle" x="177" y="-7" font-family="Helvetica,sans-Serif" font-size="10.00">any</text>
</a>
</g>
</g>
<!-- Node1&#45;&gt;Node4 -->
<g id="edge4" class="edge">
<title>Node1&#45;&gt;Node4</title>
<path fill="none" stroke="#63b8ff" d="M194.58,-164.73C196.79,-141.52 199.84,-94.23 193,-55 191.52,-46.51 188.57,-37.51 185.59,-29.84"/>
<polygon fill="#63b8ff" stroke="#63b8ff" points="188.93,-28.73 181.84,-20.85 182.47,-31.43 188.93,-28.73"/>
</g>
<!-- Node22 -->
<g id="node5" class="node">
<title>Node22</title>
<g id="a_node5"><a xlink:title=" ">
<polygon fill="#e0e0e0" stroke="#999999" points="322,-129 240,-129 240,-110 322,-110 322,-129"/>
<text text-anchor="middle" x="281" y="-117" font-family="Helvetica,sans-Serif" font-size="10.00">QImageReader</text>
</a>
</g>
</g>
<!-- Node1&#45;&gt;Node22 -->
<g id="edge5" class="edge">
<title>Node1&#45;&gt;Node22</title>
<path fill="none" stroke="#63b8ff" d="M214.75,-164.54C227.97,-155.75 244.83,-144.54 258.24,-135.63"/>
<polygon fill="#63b8ff" stroke="#63b8ff" points="260.04,-138.63 266.43,-130.18 256.17,-132.81 260.04,-138.63"/>
</g>
<!-- Node2&#45;&gt;Node3 -->
<g id="edge2" class="edge">
<title>Node2&#45;&gt;Node3</title>
<path fill="none" stroke="#63b8ff" d="M84.7,-109.51C94.78,-101.77 109.54,-90.43 121.56,-81.2"/>
<polygon fill="#63b8ff" stroke="#63b8ff" points="123.47,-84.15 129.27,-75.28 119.21,-78.6 123.47,-84.15"/>
</g>
<!-- Node3&#45;&gt;Node4 -->
<g id="edge3" class="edge">
<title>Node3&#45;&gt;Node4</title>
<path fill="none" stroke="#63b8ff" d="M147.78,-54.75C152.41,-47.73 159.07,-37.64 164.87,-28.87"/>
<polygon fill="#63b8ff" stroke="#63b8ff" points="167.67,-30.98 170.26,-20.71 161.83,-27.12 167.67,-30.98"/>
</g>
</g>
</svg>
