<?xml version="1.0" encoding="UTF-8" standalone="no"?>
<!DOCTYPE svg PUBLIC "-//W3C//DTD SVG 1.1//EN"
 "http://www.w3.org/Graphics/SVG/1.1/DTD/svg11.dtd">
<!-- Generated by graphviz version 7.0.5 (20221223.1930)
 -->
<!-- Title: Gui Pages: 1 -->
<svg width="436pt" height="93pt"
 viewBox="0.00 0.00 435.50 93.00" xmlns="http://www.w3.org/2000/svg" xmlns:xlink="http://www.w3.org/1999/xlink">
<g id="graph0" class="graph" transform="scale(1 1) rotate(0) translate(4 89)">
<title>Gui</title>
<!-- Node1 -->
<g id="node1" class="node">
<title>Node1</title>
<g id="a_node1"><a xlink:title=" ">
<polygon fill="#999999" stroke="#666666" points="217,-19 185,-19 185,0 217,0 217,-19"/>
<text text-anchor="middle" x="201" y="-7" font-family="Helvetica,sans-Serif" font-size="10.00">Gui</text>
</a>
</g>
</g>
<!-- Node2 -->
<g id="node2" class="node">
<title>Node2</title>
<g id="a_node2"><a xlink:href="../../d7/dc8/class_i_project_manager.html" target="_top" xlink:title=" ">
<polygon fill="white" stroke="#666666" points="88,-85 0,-85 0,-66 88,-66 88,-85"/>
<text text-anchor="middle" x="44" y="-73" font-family="Helvetica,sans-Serif" font-size="10.00">IProjectManager</text>
</a>
</g>
</g>
<!-- Node2&#45;&gt;Node1 -->
<g id="edge1" class="edge">
<title>Node2&#45;&gt;Node1</title>
<path fill="none" stroke="#9a32cd" stroke-dasharray="5,2" d="M59.97,-57.64C67.77,-50.3 77.7,-42.21 88,-37 120.01,-20.82 162.14,-14.33 184.84,-11.87"/>
<polygon fill="#9a32cd" stroke="#9a32cd" points="57.57,-55.09 52.95,-64.62 62.51,-60.05 57.57,-55.09"/>
<text text-anchor="middle" x="120" y="-40" font-family="Helvetica,sans-Serif" font-size="10.00"> m_prjManager</text>
</g>
<!-- Node3 -->
<g id="node3" class="node">
<title>Node3</title>
<g id="a_node3"><a xlink:href="../../d5/d64/struct_i_plugin_loader.html" target="_top" xlink:title=" ">
<polygon fill="white" stroke="#666666" points="183.5,-85 106.5,-85 106.5,-66 183.5,-66 183.5,-85"/>
<text text-anchor="middle" x="145" y="-73" font-family="Helvetica,sans-Serif" font-size="10.00">IPluginLoader</text>
</a>
</g>
</g>
<!-- Node3&#45;&gt;Node1 -->
<g id="edge2" class="edge">
<title>Node3&#45;&gt;Node1</title>
<path fill="none" stroke="#9a32cd" stroke-dasharray="5,2" d="M152.5,-55.39C155.51,-49.13 159.37,-42.4 164,-37 169.97,-30.04 178.12,-23.95 185.26,-19.37"/>
<polygon fill="#9a32cd" stroke="#9a32cd" points="149.37,-53.8 148.64,-64.37 155.8,-56.57 149.37,-53.8"/>
<text text-anchor="middle" x="200" y="-40" font-family="Helvetica,sans-Serif" font-size="10.00"> m_pluginLoader</text>
</g>
<!-- Node4 -->
<g id="node4" class="node">
<title>Node4</title>
<g id="a_node4"><a xlink:href="../../d5/da9/struct_i_core_factory_accessor.html" target="_top" xlink:title=" ">
<polygon fill="white" stroke="#666666" points="314.5,-85 201.5,-85 201.5,-66 314.5,-66 314.5,-85"/>
<text text-anchor="middle" x="258" y="-73" font-family="Helvetica,sans-Serif" font-size="10.00">ICoreFactoryAccessor</text>
</a>
</g>
</g>
<!-- Node4&#45;&gt;Node1 -->
<g id="edge3" class="edge">
<title>Node4&#45;&gt;Node1</title>
<path fill="none" stroke="#9a32cd" stroke-dasharray="5,2" d="M248.89,-55.72C245.35,-49.41 240.95,-42.57 236,-37 230.03,-30.28 222.12,-24.12 215.34,-19.44"/>
<polygon fill="#9a32cd" stroke="#9a32cd" points="245.57,-56.92 253.29,-64.18 251.78,-53.69 245.57,-56.92"/>
<text text-anchor="middle" x="276.5" y="-40" font-family="Helvetica,sans-Serif" font-size="10.00"> m_coreFactory</text>
</g>
<!-- Node5 -->
<g id="node5" class="node">
<title>Node5</title>
<g id="a_node5"><a xlink:href="../../d1/db4/class_i_features_manager.html" target="_top" xlink:title=" ">
<polygon fill="#fff0f0" stroke="red" points="427.5,-85 332.5,-85 332.5,-66 427.5,-66 427.5,-85"/>
<text text-anchor="middle" x="380" y="-73" font-family="Helvetica,sans-Serif" font-size="10.00">IFeaturesManager</text>
</a>
</g>
</g>
<!-- Node5&#45;&gt;Node1 -->
<g id="edge4" class="edge">
<title>Node5&#45;&gt;Node1</title>
<path fill="none" stroke="#9a32cd" stroke-dasharray="5,2" d="M357.42,-59.52C345.03,-51.87 329.15,-42.94 314,-37 280.79,-23.99 239.49,-16.3 217.15,-12.8"/>
<polygon fill="#9a32cd" stroke="#9a32cd" points="355.32,-62.33 365.64,-64.75 359.08,-56.43 355.32,-62.33"/>
<text text-anchor="middle" x="380.5" y="-40" font-family="Helvetica,sans-Serif" font-size="10.00"> m_featuresManager</text>
</g>
</g>
</svg>
