<?xml version="1.0" encoding="UTF-8" standalone="no"?>
<!DOCTYPE svg PUBLIC "-//W3C//DTD SVG 1.1//EN"
 "http://www.w3.org/Graphics/SVG/1.1/DTD/svg11.dtd">
<!-- Generated by graphviz version 12.2.0 (20241103.1931)
 -->
<!-- Title: Gui Pages: 1 -->
<svg width="433pt" height="94pt"
 viewBox="0.00 0.00 433.00 93.75" xmlns="http://www.w3.org/2000/svg" xmlns:xlink="http://www.w3.org/1999/xlink">
<g id="graph0" class="graph" transform="scale(1 1) rotate(0) translate(4 89.75)">
<title>Gui</title>
<!-- Node1 -->
<g id="Node000001" class="node">
<title>Node1</title>
<g id="a_Node000001"><a xlink:title=" ">
<polygon fill="#999999" stroke="#666666" points="215.12,-19.25 184.12,-19.25 184.12,0 215.12,0 215.12,-19.25"/>
<text text-anchor="middle" x="199.62" y="-5.75" font-family="Helvetica,sans-Serif" font-size="10.00">Gui</text>
</a>
</g>
</g>
<!-- Node2 -->
<g id="Node000002" class="node">
<title>Node2</title>
<g id="a_Node000002"><a xlink:href="../../d7/dc8/class_i_project_manager.html" target="_top" xlink:title=" ">
<polygon fill="white" stroke="#666666" points="87.25,-85.75 0,-85.75 0,-66.5 87.25,-66.5 87.25,-85.75"/>
<text text-anchor="middle" x="43.62" y="-72.25" font-family="Helvetica,sans-Serif" font-size="10.00">IProjectManager</text>
</a>
</g>
</g>
<!-- Node2&#45;&gt;Node1 -->
<g id="edge1_Node000001_Node000002" class="edge">
<title>Node2&#45;&gt;Node1</title>
<g id="a_edge1_Node000001_Node000002"><a xlink:title=" ">
<path fill="none" stroke="#9a32cd" stroke-dasharray="5,2" d="M59.68,-58.11C67.53,-50.7 77.51,-42.53 87.88,-37.25 119.51,-21.14 161.18,-14.56 183.63,-12.05"/>
<polygon fill="#9a32cd" stroke="#9a32cd" points="57.22,-55.63 52.61,-65.17 62.16,-60.58 57.22,-55.63"/>
</a>
</g>
<text text-anchor="middle" x="119.75" y="-39" font-family="Helvetica,sans-Serif" font-size="10.00" fill="grey"> m_prjManager</text>
</g>
<!-- Node3 -->
<g id="Node000003" class="node">
<title>Node3</title>
<g id="a_Node000003"><a xlink:href="../../d5/d64/struct_i_plugin_loader.html" target="_top" xlink:title=" ">
<polygon fill="white" stroke="#666666" points="181.62,-85.75 105.62,-85.75 105.62,-66.5 181.62,-66.5 181.62,-85.75"/>
<text text-anchor="middle" x="143.62" y="-72.25" font-family="Helvetica,sans-Serif" font-size="10.00">IPluginLoader</text>
</a>
</g>
</g>
<!-- Node3&#45;&gt;Node1 -->
<g id="edge2_Node000001_Node000003" class="edge">
<title>Node3&#45;&gt;Node1</title>
<g id="a_edge2_Node000001_Node000003"><a xlink:title=" ">
<path fill="none" stroke="#9a32cd" stroke-dasharray="5,2" d="M150.96,-55.81C153.92,-49.49 157.74,-42.7 162.38,-37.25 168.35,-30.23 176.56,-24.1 183.75,-19.5"/>
<polygon fill="#9a32cd" stroke="#9a32cd" points="147.79,-54.32 147.16,-64.9 154.25,-57.02 147.79,-54.32"/>
</a>
</g>
<text text-anchor="middle" x="198" y="-39" font-family="Helvetica,sans-Serif" font-size="10.00" fill="grey"> m_pluginLoader</text>
</g>
<!-- Node4 -->
<g id="Node000004" class="node">
<title>Node4</title>
<g id="a_Node000004"><a xlink:href="../../d5/da9/struct_i_core_factory_accessor.html" target="_top" xlink:title=" ">
<polygon fill="white" stroke="#666666" points="312,-85.75 199.25,-85.75 199.25,-66.5 312,-66.5 312,-85.75"/>
<text text-anchor="middle" x="255.62" y="-72.25" font-family="Helvetica,sans-Serif" font-size="10.00">ICoreFactoryAccessor</text>
</a>
</g>
</g>
<!-- Node4&#45;&gt;Node1 -->
<g id="edge3_Node000001_Node000004" class="edge">
<title>Node4&#45;&gt;Node1</title>
<g id="a_edge3_Node000001_Node000004"><a xlink:title=" ">
<path fill="none" stroke="#9a32cd" stroke-dasharray="5,2" d="M246.49,-56.2C242.95,-49.83 238.55,-42.91 233.62,-37.25 227.82,-30.58 220.14,-24.4 213.55,-19.68"/>
<polygon fill="#9a32cd" stroke="#9a32cd" points="243.2,-57.46 250.9,-64.74 249.42,-54.25 243.2,-57.46"/>
</a>
</g>
<text text-anchor="middle" x="274.86" y="-39" font-family="Helvetica,sans-Serif" font-size="10.00" fill="grey"> m_coreFactory</text>
</g>
<!-- Node5 -->
<g id="Node000005" class="node">
<title>Node5</title>
<g id="a_Node000005"><a xlink:href="../../d1/db4/class_i_features_manager.html" target="_top" xlink:title=" ">
<polygon fill="#fff0f0" stroke="red" points="425,-85.75 330.25,-85.75 330.25,-66.5 425,-66.5 425,-85.75"/>
<text text-anchor="middle" x="377.62" y="-72.25" font-family="Helvetica,sans-Serif" font-size="10.00">IFeaturesManager</text>
</a>
</g>
</g>
<!-- Node5&#45;&gt;Node1 -->
<g id="edge4_Node000001_Node000005" class="edge">
<title>Node5&#45;&gt;Node1</title>
<g id="a_edge4_Node000001_Node000005"><a xlink:title=" ">
<path fill="none" stroke="#9a32cd" stroke-dasharray="5,2" d="M355.43,-59.98C343.25,-52.24 327.6,-43.22 312.62,-37.25 279.3,-23.96 237.69,-16.28 215.42,-12.83"/>
<polygon fill="#9a32cd" stroke="#9a32cd" points="353.22,-62.71 363.5,-65.26 357.05,-56.85 353.22,-62.71"/>
</a>
</g>
<text text-anchor="middle" x="379.23" y="-39" font-family="Helvetica,sans-Serif" font-size="10.00" fill="grey"> m_featuresManager</text>
</g>
</g>
</svg>
