<?xml version="1.0" encoding="UTF-8" standalone="no"?>
<!DOCTYPE svg PUBLIC "-//W3C//DTD SVG 1.1//EN"
 "http://www.w3.org/Graphics/SVG/1.1/DTD/svg11.dtd">
<!-- Generated by graphviz version 9.0.0 (20230911.1827)
 -->
<!-- Title: safe_callback_ctrl::invalidate Pages: 1 -->
<svg width="297pt" height="297pt"
 viewBox="0.00 0.00 296.50 296.50" xmlns="http://www.w3.org/2000/svg" xmlns:xlink="http://www.w3.org/1999/xlink">

<svg id="main" version="1.1" xmlns="http://www.w3.org/2000/svg" xmlns:xlink="http://www.w3.org/1999/xlink" xml:space="preserve" onload="init(evt)">
<style type="text/css"><![CDATA[
.node, .edge {opacity: 0.7;}
.node.selected, .edge.selected {opacity: 1;}
.edge:hover path { stroke: red; }
.edge:hover polygon { stroke: red; fill: red; }
]]></style>
<script type="application/ecmascript" xlink:href="../../svg.min.js"/>
<svg id="graph" class="graph">
<g id="graph0" class="graph" transform="scale(1 1) rotate(0) translate(4 292.5)">
<title>safe_callback_ctrl::invalidate</title>
<!-- Node1 -->
<g id="Node000001" class="node">
<title>Node1</title>
<g id="a_Node000001"><a xlink:title=" ">
<polygon fill="#999999" stroke="#666666" points="288.5,-159.5 193.75,-159.5 193.75,-129 288.5,-129 288.5,-159.5"/>
<text text-anchor="start" x="201.75" y="-146" font-family="Helvetica,sans-Serif" font-size="10.00">safe_callback_ctrl</text>
<text text-anchor="middle" x="241.12" y="-134.75" font-family="Helvetica,sans-Serif" font-size="10.00">::invalidate</text>
</a>
</g>
</g>
<!-- Node2 -->
<g id="Node000002" class="node">
<title>Node2</title>
<g id="a_Node000002"><a xlink:href="../../df/d55/class_id_to_data_converter.html#aa417b3a4822c66fef649e76b57ec8c27" target="_top" xlink:title=" ">
<polygon fill="white" stroke="#666666" points="130,-288.5 27.75,-288.5 27.75,-258 130,-258 130,-288.5"/>
<text text-anchor="start" x="35.75" y="-275" font-family="Helvetica,sans-Serif" font-size="10.00">IdToDataConverter::</text>
<text text-anchor="middle" x="78.88" y="-263.75" font-family="Helvetica,sans-Serif" font-size="10.00">fetchIds</text>
</a>
</g>
</g>
<!-- Node1&#45;&gt;Node2 -->
<g id="edge1_Node000001_Node000002" class="edge">
<title>Node1&#45;&gt;Node2</title>
<g id="a_edge1_Node000001_Node000002"><a xlink:title=" ">
<path fill="none" stroke="#63b8ff" d="M226.21,-169.34C211.93,-192.92 187.6,-227.57 157.75,-248.25 149.46,-253.99 139.78,-258.47 130.12,-261.95"/>
<polygon fill="#63b8ff" stroke="#63b8ff" points="229.07,-171.39 231.12,-160.99 223.04,-167.84 229.07,-171.39"/>
</a>
</g>
</g>
<!-- Node3 -->
<g id="Node000003" class="node">
<title>Node3</title>
<g id="a_Node000003"><a xlink:href="../../dd/d17/class_thumbnail_manager.html#a7fddd8eddd5597aa1544b96cbc8d9054" target="_top" xlink:title=" ">
<polygon fill="#fff0f0" stroke="red" points="157.75,-239.5 0,-239.5 0,-209 157.75,-209 157.75,-239.5"/>
<text text-anchor="start" x="8" y="-226" font-family="Helvetica,sans-Serif" font-size="10.00">ThumbnailManager::setDatabase</text>
<text text-anchor="middle" x="78.88" y="-214.75" font-family="Helvetica,sans-Serif" font-size="10.00">Cache</text>
</a>
</g>
</g>
<!-- Node1&#45;&gt;Node3 -->
<g id="edge2_Node000001_Node000003" class="edge">
<title>Node1&#45;&gt;Node3</title>
<g id="a_edge2_Node000001_Node000003"><a xlink:title=" ">
<path fill="none" stroke="#63b8ff" d="M211.89,-166.55C196.55,-177.84 176.85,-191.07 157.75,-200.25 151.37,-203.31 144.52,-206.1 137.61,-208.59"/>
<polygon fill="#63b8ff" stroke="#63b8ff" points="213.73,-169.54 219.62,-160.73 209.52,-163.95 213.73,-169.54"/>
</a>
</g>
</g>
<!-- Node11 -->
<g id="Node000011" class="node">
<title>Node11</title>
<g id="a_Node000011"><a xlink:href="../../da/d6f/function__wrappers__tests_8cpp.html#ad74cc32bd4e3ca6b045e8605cbbc2ec3" target="_top" xlink:title=" ">
<polygon fill="white" stroke="#666666" points="99.25,-190.88 58.5,-190.88 58.5,-171.62 99.25,-171.62 99.25,-190.88"/>
<text text-anchor="middle" x="78.88" y="-177.38" font-family="Helvetica,sans-Serif" font-size="10.00">TEST</text>
</a>
</g>
</g>
<!-- Node1&#45;&gt;Node11 -->
<g id="edge3_Node000001_Node000011" class="edge">
<title>Node1&#45;&gt;Node11</title>
<g id="a_edge3_Node000001_Node000011"><a xlink:title=" ">
<path fill="none" stroke="#63b8ff" d="M182.45,-157.57C153.39,-164.28 120.04,-171.98 99.46,-176.73"/>
<polygon fill="#63b8ff" stroke="#63b8ff" points="182.91,-161.05 191.87,-155.39 181.34,-154.23 182.91,-161.05"/>
</a>
</g>
</g>
<!-- Node12 -->
<g id="Node000012" class="node">
<title>Node12</title>
<g id="a_Node000012"><a xlink:href="../../da/d6f/function__wrappers__tests_8cpp.html#a937be3db7a7a9625c1a192fbc9774352" target="_top" xlink:title=" ">
<polygon fill="white" stroke="#666666" points="99.25,-153.88 58.5,-153.88 58.5,-134.62 99.25,-134.62 99.25,-153.88"/>
<text text-anchor="middle" x="78.88" y="-140.38" font-family="Helvetica,sans-Serif" font-size="10.00">TEST</text>
</a>
</g>
</g>
<!-- Node1&#45;&gt;Node12 -->
<g id="edge4_Node000001_Node000012" class="edge">
<title>Node1&#45;&gt;Node12</title>
<g id="a_edge4_Node000001_Node000012"><a xlink:title=" ">
<path fill="none" stroke="#63b8ff" d="M182.07,-144.25C153.1,-144.25 119.95,-144.25 99.46,-144.25"/>
<polygon fill="#63b8ff" stroke="#63b8ff" points="181.83,-147.75 191.83,-144.25 181.83,-140.75 181.83,-147.75"/>
</a>
</g>
</g>
<!-- Node13 -->
<g id="Node000013" class="node">
<title>Node13</title>
<g id="a_Node000013"><a xlink:href="../../df/d55/class_id_to_data_converter.html#a29dbd994bfe29dad181fe954b2dc77cd" target="_top" xlink:title=" ">
<polygon fill="white" stroke="#666666" points="130.38,-116.5 27.38,-116.5 27.38,-86 130.38,-86 130.38,-116.5"/>
<text text-anchor="start" x="35.38" y="-103" font-family="Helvetica,sans-Serif" font-size="10.00">IdToDataConverter::</text>
<text text-anchor="middle" x="78.88" y="-91.75" font-family="Helvetica,sans-Serif" font-size="10.00">~IdToDataConverter</text>
</a>
</g>
</g>
<!-- Node1&#45;&gt;Node13 -->
<g id="edge5_Node000001_Node000013" class="edge">
<title>Node1&#45;&gt;Node13</title>
<g id="a_edge5_Node000001_Node000013"><a xlink:title=" ">
<path fill="none" stroke="#63b8ff" d="M182.46,-128.78C165.51,-124.23 147.11,-119.29 130.64,-114.87"/>
<polygon fill="#63b8ff" stroke="#63b8ff" points="181.32,-132.09 191.88,-131.3 183.13,-125.33 181.32,-132.09"/>
</a>
</g>
</g>
<!-- Node14 -->
<g id="Node000014" class="node">
<title>Node14</title>
<g id="a_Node000014"><a xlink:href="../../d3/d07/class_media_view_ctrl.html#a2f4ec59367bbaca76fa617cf4431cb2a" target="_top" xlink:title=" ">
<polygon fill="white" stroke="#666666" points="154.75,-67.88 3,-67.88 3,-48.62 154.75,-48.62 154.75,-67.88"/>
<text text-anchor="middle" x="78.88" y="-54.38" font-family="Helvetica,sans-Serif" font-size="10.00">MediaViewCtrl::~MediaViewCtrl</text>
</a>
</g>
</g>
<!-- Node1&#45;&gt;Node14 -->
<g id="edge6_Node000001_Node000014" class="edge">
<title>Node1&#45;&gt;Node14</title>
<g id="a_edge6_Node000001_Node000014"><a xlink:title=" ">
<path fill="none" stroke="#63b8ff" d="M217.25,-120.92C201.73,-106.35 180.04,-88.32 157.75,-77.25 150.52,-73.66 142.57,-70.72 134.6,-68.32"/>
<polygon fill="#63b8ff" stroke="#63b8ff" points="214.49,-123.11 224.12,-127.54 219.35,-118.08 214.49,-123.11"/>
</a>
</g>
</g>
<!-- Node15 -->
<g id="Node000015" class="node">
<title>Node15</title>
<g id="a_Node000015"><a xlink:href="../../dd/d17/class_thumbnail_manager.html#a6156f4f5106eae3a22868b2e779bd940" target="_top" xlink:title=" ">
<polygon fill="white" stroke="#666666" points="130.75,-30.5 27,-30.5 27,0 130.75,0 130.75,-30.5"/>
<text text-anchor="start" x="35" y="-17" font-family="Helvetica,sans-Serif" font-size="10.00">ThumbnailManager::</text>
<text text-anchor="middle" x="78.88" y="-5.75" font-family="Helvetica,sans-Serif" font-size="10.00">~ThumbnailManager</text>
</a>
</g>
</g>
<!-- Node1&#45;&gt;Node15 -->
<g id="edge7_Node000001_Node000015" class="edge">
<title>Node1&#45;&gt;Node15</title>
<g id="a_edge7_Node000001_Node000015"><a xlink:title=" ">
<path fill="none" stroke="#63b8ff" d="M226.33,-118.84C212.12,-94.98 187.85,-59.94 157.75,-39.25 149.71,-33.72 140.34,-29.43 130.95,-26.11"/>
<polygon fill="#63b8ff" stroke="#63b8ff" points="223.18,-120.38 231.2,-127.3 229.24,-116.89 223.18,-120.38"/>
</a>
</g>
</g>
</g>
</svg>
</svg>

<style type='text/css'>
<![CDATA[
[data-mouse-over-selected='false'] { opacity: 0.7; }
[data-mouse-over-selected='true']  { opacity: 1.0; }
]]>
</style>
<script type="application/ecmascript"><![CDATA[
document.addEventListener('DOMContentLoaded', (event) => {
  highlightEdges();
  highlightAdjacentNodes();
});
]]></script>
</svg>
