<?xml version="1.0" encoding="UTF-8" standalone="no"?>
<!DOCTYPE svg PUBLIC "-//W3C//DTD SVG 1.1//EN"
 "http://www.w3.org/Graphics/SVG/1.1/DTD/svg11.dtd">
<!-- Generated by graphviz version 9.0.0 (20230911.1827)
 -->
<!-- Title: MainTabController::applyConfiguration Pages: 1 -->
<svg width="275pt" height="64pt"
 viewBox="0.00 0.00 274.75 64.25" xmlns="http://www.w3.org/2000/svg" xmlns:xlink="http://www.w3.org/1999/xlink">
<g id="graph0" class="graph" transform="scale(1 1) rotate(0) translate(4 60.25)">
<title>MainTabController::applyConfiguration</title>
<!-- Node1 -->
<g id="Node000001" class="node">
<title>Node1</title>
<g id="a_Node000001"><a xlink:title=" ">
<polygon fill="#999999" stroke="#666666" points="99.25,-42.88 0,-42.88 0,-12.37 99.25,-12.37 99.25,-42.88"/>
<text text-anchor="start" x="8" y="-29.38" font-family="Helvetica,sans-Serif" font-size="10.00">MainTabController::</text>
<text text-anchor="middle" x="49.62" y="-18.12" font-family="Helvetica,sans-Serif" font-size="10.00">applyConfiguration</text>
</a>
</g>
</g>
<!-- Node2 -->
<g id="Node000002" class="node">
<title>Node2</title>
<g id="a_Node000002"><a xlink:href="../../d7/db4/struct_i_configuration.html#a3f387c30272b219a1be93b6f12610435" target="_top" xlink:title=" ">
<polygon fill="white" stroke="#666666" points="258.5,-56.25 143.5,-56.25 143.5,-37 258.5,-37 258.5,-56.25"/>
<text text-anchor="middle" x="201" y="-42.75" font-family="Helvetica,sans-Serif" font-size="10.00">IConfiguration::setEntry</text>
</a>
</g>
</g>
<!-- Node1&#45;&gt;Node2 -->
<g id="edge1_Node000001_Node000002" class="edge">
<title>Node1&#45;&gt;Node2</title>
<g id="a_edge1_Node000001_Node000002"><a xlink:title=" ">
<path fill="none" stroke="#63b8ff" d="M99.54,-33.85C109.89,-35.16 121,-36.58 131.92,-37.97"/>
<polygon fill="#63b8ff" stroke="#63b8ff" points="131.33,-41.42 141.69,-39.21 132.21,-34.47 131.33,-41.42"/>
</a>
</g>
</g>
<!-- Node3 -->
<g id="Node000003" class="node">
<title>Node3</title>
<g id="a_Node000003"><a xlink:href="../../d1/d85/class_main_tab.html#a376c67a14ccf9b2db1559b6986a31662" target="_top" xlink:title=" ">
<polygon fill="white" stroke="#666666" points="266.75,-19.25 135.25,-19.25 135.25,0 266.75,0 266.75,-19.25"/>
<text text-anchor="middle" x="201" y="-5.75" font-family="Helvetica,sans-Serif" font-size="10.00">MainTab::updateCheckBox</text>
</a>
</g>
</g>
<!-- Node1&#45;&gt;Node3 -->
<g id="edge2_Node000001_Node000003" class="edge">
<title>Node1&#45;&gt;Node3</title>
<g id="a_edge2_Node000001_Node000003"><a xlink:title=" ">
<path fill="none" stroke="#63b8ff" d="M99.54,-21.73C107.32,-20.79 115.52,-19.8 123.75,-18.81"/>
<polygon fill="#63b8ff" stroke="#63b8ff" points="123.94,-22.32 133.45,-17.64 123.1,-15.37 123.94,-22.32"/>
</a>
</g>
</g>
</g>
</svg>
