<?xml version="1.0" encoding="UTF-8" standalone="no"?>
<!DOCTYPE svg PUBLIC "-//W3C//DTD SVG 1.1//EN"
 "http://www.w3.org/Graphics/SVG/1.1/DTD/svg11.dtd">
<!-- Generated by graphviz version 7.0.5 (20221223.1930)
 -->
<!-- Title: src/database/explicit_photo_delta.hpp Pages: 1 -->
<svg width="1463pt" height="115pt"
 viewBox="0.00 0.00 1462.50 115.00" xmlns="http://www.w3.org/2000/svg" xmlns:xlink="http://www.w3.org/1999/xlink">
<g id="graph0" class="graph" transform="scale(1 1) rotate(0) translate(4 111)">
<title>src/database/explicit_photo_delta.hpp</title>
<!-- Node1 -->
<g id="node1" class="node">
<title>Node1</title>
<g id="a_node1"><a xlink:title=" ">
<polygon fill="#999999" stroke="#666666" points="745.5,-107 639.5,-107 639.5,-77 745.5,-77 745.5,-107"/>
<text text-anchor="start" x="647.5" y="-95" font-family="Helvetica,sans-Serif" font-size="10.00">src/database/explicit</text>
<text text-anchor="middle" x="692.5" y="-84" font-family="Helvetica,sans-Serif" font-size="10.00">_photo_delta.hpp</text>
</a>
</g>
</g>
<!-- Node2 -->
<g id="node2" class="node">
<title>Node2</title>
<g id="a_node2"><a xlink:href="../../d7/dcd/series__candidate_8hpp.html" target="_top" xlink:title=" ">
<polygon fill="#fff0f0" stroke="red" points="137,-35.5 0,-35.5 0,-5.5 137,-5.5 137,-35.5"/>
<text text-anchor="start" x="8" y="-23.5" font-family="Helvetica,sans-Serif" font-size="10.00">src/database/database</text>
<text text-anchor="middle" x="68.5" y="-12.5" font-family="Helvetica,sans-Serif" font-size="10.00">_tools/series_candidate.hpp</text>
</a>
</g>
</g>
<!-- Node1&#45;&gt;Node2 -->
<g id="edge1" class="edge">
<title>Node1&#45;&gt;Node2</title>
<path fill="none" stroke="#63b8ff" d="M627.93,-88.38C525.17,-83.48 318.36,-70.6 145.5,-41 137.48,-39.63 129.07,-37.85 120.87,-35.93"/>
<polygon fill="#63b8ff" stroke="#63b8ff" points="627.67,-91.87 637.82,-88.84 628,-84.88 627.67,-91.87"/>
</g>
<!-- Node12 -->
<g id="node3" class="node">
<title>Node12</title>
<g id="a_node3"><a xlink:href="../../da/d2a/ibackend_8hpp.html" target="_top" xlink:title=" ">
<polygon fill="#fff0f0" stroke="red" points="288,-30 155,-30 155,-11 288,-11 288,-30"/>
<text text-anchor="middle" x="221.5" y="-18" font-family="Helvetica,sans-Serif" font-size="10.00">src/database/ibackend.hpp</text>
</a>
</g>
</g>
<!-- Node1&#45;&gt;Node12 -->
<g id="edge2" class="edge">
<title>Node1&#45;&gt;Node12</title>
<path fill="none" stroke="#63b8ff" d="M627.98,-85.34C549.45,-77.87 413.02,-63.04 297.5,-41 282.65,-38.17 266.39,-34.12 252.73,-30.45"/>
<polygon fill="#63b8ff" stroke="#63b8ff" points="627.35,-88.79 637.63,-86.24 628,-81.82 627.35,-88.79"/>
</g>
<!-- Node108 -->
<g id="node4" class="node">
<title>Node108</title>
<g id="a_node4"><a xlink:href="../../da/d1a/photo__utils_8hpp.html" target="_top" xlink:title=" ">
<polygon fill="#fff0f0" stroke="red" points="406.5,-35.5 306.5,-35.5 306.5,-5.5 406.5,-5.5 406.5,-35.5"/>
<text text-anchor="start" x="314.5" y="-23.5" font-family="Helvetica,sans-Serif" font-size="10.00">src/database/photo</text>
<text text-anchor="middle" x="356.5" y="-12.5" font-family="Helvetica,sans-Serif" font-size="10.00">_utils.hpp</text>
</a>
</g>
</g>
<!-- Node1&#45;&gt;Node108 -->
<g id="edge3" class="edge">
<title>Node1&#45;&gt;Node108</title>
<path fill="none" stroke="#63b8ff" d="M627.91,-81.97C571.42,-73.45 487.39,-59.27 415.5,-41 409.75,-39.54 403.75,-37.8 397.87,-35.98"/>
<polygon fill="#63b8ff" stroke="#63b8ff" points="627.28,-85.42 637.68,-83.43 628.31,-78.49 627.28,-85.42"/>
</g>
<!-- Node111 -->
<g id="node5" class="node">
<title>Node111</title>
<g id="a_node5"><a xlink:href="../../d9/dd1/explicit__photo__delta__tests_8cpp.html" target="_top" xlink:title=" ">
<polygon fill="white" stroke="#666666" points="544,-41 425,-41 425,0 544,0 544,-41"/>
<text text-anchor="start" x="433" y="-29" font-family="Helvetica,sans-Serif" font-size="10.00">src/database/unit_tests</text>
<text text-anchor="start" x="433" y="-18" font-family="Helvetica,sans-Serif" font-size="10.00">/explicit_photo_delta</text>
<text text-anchor="middle" x="484.5" y="-7" font-family="Helvetica,sans-Serif" font-size="10.00">_tests.cpp</text>
</a>
</g>
</g>
<!-- Node1&#45;&gt;Node111 -->
<g id="edge4" class="edge">
<title>Node1&#45;&gt;Node111</title>
<path fill="none" stroke="#63b8ff" d="M638.41,-72.93C609.44,-63.25 573.71,-51.31 543.97,-41.37"/>
<polygon fill="#63b8ff" stroke="#63b8ff" points="637.12,-76.19 647.71,-76.04 639.34,-69.55 637.12,-76.19"/>
</g>
<!-- Node112 -->
<g id="node6" class="node">
<title>Node112</title>
<g id="a_node6"><a xlink:href="../../db/dc4/aphoto__data__model_8hpp.html" target="_top" xlink:title=" ">
<polygon fill="#fff0f0" stroke="red" points="684.5,-35.5 562.5,-35.5 562.5,-5.5 684.5,-5.5 684.5,-35.5"/>
<text text-anchor="start" x="570.5" y="-23.5" font-family="Helvetica,sans-Serif" font-size="10.00">src/gui/desktop/models</text>
<text text-anchor="middle" x="623.5" y="-12.5" font-family="Helvetica,sans-Serif" font-size="10.00">/aphoto_data_model.hpp</text>
</a>
</g>
</g>
<!-- Node1&#45;&gt;Node112 -->
<g id="edge5" class="edge">
<title>Node1&#45;&gt;Node112</title>
<path fill="none" stroke="#63b8ff" d="M670.15,-68.48C659.51,-57.78 647.12,-45.29 637.78,-35.88"/>
<polygon fill="#63b8ff" stroke="#63b8ff" points="667.61,-70.89 677.14,-75.53 672.58,-65.96 667.61,-70.89"/>
</g>
<!-- Node115 -->
<g id="node7" class="node">
<title>Node115</title>
<g id="a_node7"><a xlink:href="../../de/d26/itags__operator_8hpp.html" target="_top" xlink:title=" ">
<polygon fill="#fff0f0" stroke="red" points="820.5,-35.5 702.5,-35.5 702.5,-5.5 820.5,-5.5 820.5,-35.5"/>
<text text-anchor="start" x="710.5" y="-23.5" font-family="Helvetica,sans-Serif" font-size="10.00">src/gui/desktop/models</text>
<text text-anchor="middle" x="761.5" y="-12.5" font-family="Helvetica,sans-Serif" font-size="10.00">/itags_operator.hpp</text>
</a>
</g>
</g>
<!-- Node1&#45;&gt;Node115 -->
<g id="edge6" class="edge">
<title>Node1&#45;&gt;Node115</title>
<path fill="none" stroke="#63b8ff" d="M714.85,-68.48C725.49,-57.78 737.88,-45.29 747.22,-35.88"/>
<polygon fill="#63b8ff" stroke="#63b8ff" points="712.42,-65.96 707.86,-75.53 717.39,-70.89 712.42,-65.96"/>
</g>
<!-- Node53 -->
<g id="node8" class="node">
<title>Node53</title>
<g id="a_node8"><a xlink:href="../../df/d86/photo__properties__model_8hpp.html" target="_top" xlink:title=" ">
<polygon fill="#fff0f0" stroke="red" points="980,-35.5 839,-35.5 839,-5.5 980,-5.5 980,-35.5"/>
<text text-anchor="start" x="847" y="-23.5" font-family="Helvetica,sans-Serif" font-size="10.00">src/gui/desktop/models</text>
<text text-anchor="middle" x="909.5" y="-12.5" font-family="Helvetica,sans-Serif" font-size="10.00">/photo_properties_model.hpp</text>
</a>
</g>
</g>
<!-- Node1&#45;&gt;Node53 -->
<g id="edge7" class="edge">
<title>Node1&#45;&gt;Node53</title>
<path fill="none" stroke="#63b8ff" d="M748.55,-73.05C784.55,-61.52 830.69,-46.74 864.33,-35.97"/>
<polygon fill="#63b8ff" stroke="#63b8ff" points="747.62,-69.67 739.17,-76.05 749.76,-76.34 747.62,-69.67"/>
</g>
<!-- Node57 -->
<g id="node9" class="node">
<title>Node57</title>
<g id="a_node9"><a xlink:href="../../d8/de4/context__menu__manager_8hpp.html" target="_top" xlink:title=" ">
<polygon fill="#fff0f0" stroke="red" points="1168.5,-35.5 998.5,-35.5 998.5,-5.5 1168.5,-5.5 1168.5,-35.5"/>
<text text-anchor="start" x="1006.5" y="-23.5" font-family="Helvetica,sans-Serif" font-size="10.00">src/gui/desktop/quick</text>
<text text-anchor="middle" x="1083.5" y="-12.5" font-family="Helvetica,sans-Serif" font-size="10.00">_items/context_menu_manager.hpp</text>
</a>
</g>
</g>
<!-- Node1&#45;&gt;Node57 -->
<g id="edge8" class="edge">
<title>Node1&#45;&gt;Node57</title>
<path fill="none" stroke="#63b8ff" d="M757.23,-80.82C817.48,-71.18 909.72,-55.98 989.5,-41 997.85,-39.43 1006.61,-37.71 1015.28,-35.97"/>
<polygon fill="#63b8ff" stroke="#63b8ff" points="756.81,-77.35 747.49,-82.38 757.91,-84.26 756.81,-77.35"/>
</g>
<!-- Node116 -->
<g id="node10" class="node">
<title>Node116</title>
<g id="a_node10"><a xlink:href="../../d7/d35/photos__grouping__dialog_8hpp.html" target="_top" xlink:title=" ">
<polygon fill="#fff0f0" stroke="red" points="1326.5,-35.5 1186.5,-35.5 1186.5,-5.5 1326.5,-5.5 1326.5,-35.5"/>
<text text-anchor="start" x="1194.5" y="-23.5" font-family="Helvetica,sans-Serif" font-size="10.00">src/gui/desktop/ui</text>
<text text-anchor="middle" x="1256.5" y="-12.5" font-family="Helvetica,sans-Serif" font-size="10.00">/photos_grouping_dialog.hpp</text>
</a>
</g>
</g>
<!-- Node1&#45;&gt;Node116 -->
<g id="edge9" class="edge">
<title>Node1&#45;&gt;Node116</title>
<path fill="none" stroke="#63b8ff" d="M757.17,-87.21C850.52,-81.08 1028.2,-66.99 1177.5,-41 1185.57,-39.59 1194.04,-37.83 1202.31,-35.93"/>
<polygon fill="#63b8ff" stroke="#63b8ff" points="757.2,-83.7 747.45,-87.83 757.66,-90.68 757.2,-83.7"/>
</g>
<!-- Node118 -->
<g id="node11" class="node">
<title>Node118</title>
<g id="a_node11"><a xlink:href="../../dc/db1/groups__manager_8hpp.html" target="_top" xlink:title=" ">
<polygon fill="#fff0f0" stroke="red" points="1454.5,-35.5 1344.5,-35.5 1344.5,-5.5 1454.5,-5.5 1454.5,-35.5"/>
<text text-anchor="start" x="1352.5" y="-23.5" font-family="Helvetica,sans-Serif" font-size="10.00">src/gui/desktop/utils</text>
<text text-anchor="middle" x="1399.5" y="-12.5" font-family="Helvetica,sans-Serif" font-size="10.00">/groups_manager.hpp</text>
</a>
</g>
</g>
<!-- Node1&#45;&gt;Node118 -->
<g id="edge10" class="edge">
<title>Node1&#45;&gt;Node118</title>
<path fill="none" stroke="#63b8ff" d="M757.13,-90.61C873.72,-88.89 1126.54,-80.47 1335.5,-41 1342.46,-39.68 1349.74,-37.89 1356.79,-35.92"/>
<polygon fill="#63b8ff" stroke="#63b8ff" points="757.41,-87.11 747.46,-90.74 757.5,-94.11 757.41,-87.11"/>
</g>
</g>
</svg>
