<?xml version="1.0" encoding="UTF-8" standalone="no"?>
<!DOCTYPE svg PUBLIC "-//W3C//DTD SVG 1.1//EN"
 "http://www.w3.org/Graphics/SVG/1.1/DTD/svg11.dtd">
<!-- Generated by graphviz version 7.0.5 (20221223.1930)
 -->
<!-- Title: src/database/explicit_photo_delta.hpp Pages: 1 -->
<svg width="1611pt" height="115pt"
 viewBox="0.00 0.00 1610.50 115.00" xmlns="http://www.w3.org/2000/svg" xmlns:xlink="http://www.w3.org/1999/xlink">
<g id="graph0" class="graph" transform="scale(1 1) rotate(0) translate(4 111)">
<title>src/database/explicit_photo_delta.hpp</title>
<!-- Node1 -->
<g id="node1" class="node">
<title>Node1</title>
<g id="a_node1"><a xlink:title=" ">
<polygon fill="#999999" stroke="#666666" points="824.5,-107 718.5,-107 718.5,-77 824.5,-77 824.5,-107"/>
<text text-anchor="start" x="726.5" y="-95" font-family="Helvetica,sans-Serif" font-size="10.00">src/database/explicit</text>
<text text-anchor="middle" x="771.5" y="-84" font-family="Helvetica,sans-Serif" font-size="10.00">_photo_delta.hpp</text>
</a>
</g>
</g>
<!-- Node2 -->
<g id="node2" class="node">
<title>Node2</title>
<g id="a_node2"><a xlink:href="../../d7/dcd/series__candidate_8hpp.html" target="_top" xlink:title=" ">
<polygon fill="#fff0f0" stroke="red" points="137,-35.5 0,-35.5 0,-5.5 137,-5.5 137,-35.5"/>
<text text-anchor="start" x="8" y="-23.5" font-family="Helvetica,sans-Serif" font-size="10.00">src/database/database</text>
<text text-anchor="middle" x="68.5" y="-12.5" font-family="Helvetica,sans-Serif" font-size="10.00">_tools/series_candidate.hpp</text>
</a>
</g>
</g>
<!-- Node1&#45;&gt;Node2 -->
<g id="edge1" class="edge">
<title>Node1&#45;&gt;Node2</title>
<path fill="none" stroke="#63b8ff" d="M707.1,-89.43C593.14,-85.85 348.81,-74.62 145.5,-41 137.34,-39.65 128.77,-37.86 120.44,-35.91"/>
<polygon fill="#63b8ff" stroke="#63b8ff" points="706.76,-92.92 716.86,-89.72 706.97,-85.92 706.76,-92.92"/>
</g>
<!-- Node12 -->
<g id="node3" class="node">
<title>Node12</title>
<g id="a_node3"><a xlink:href="../../da/d2a/ibackend_8hpp.html" target="_top" xlink:title=" ">
<polygon fill="#fff0f0" stroke="red" points="288,-30 155,-30 155,-11 288,-11 288,-30"/>
<text text-anchor="middle" x="221.5" y="-18" font-family="Helvetica,sans-Serif" font-size="10.00">src/database/ibackend.hpp</text>
</a>
</g>
</g>
<!-- Node1&#45;&gt;Node12 -->
<g id="edge2" class="edge">
<title>Node1&#45;&gt;Node12</title>
<path fill="none" stroke="#63b8ff" d="M706.88,-87.19C615.25,-81.1 442.57,-67.12 297.5,-41 282.35,-38.27 265.77,-34.15 251.97,-30.4"/>
<polygon fill="#63b8ff" stroke="#63b8ff" points="706.47,-90.67 716.67,-87.82 706.92,-83.68 706.47,-90.67"/>
</g>
<!-- Node114 -->
<g id="node4" class="node">
<title>Node114</title>
<g id="a_node4"><a xlink:href="../../d1/d44/iphoto__change__log__operator_8hpp.html" target="_top" xlink:title=" ">
<polygon fill="#fff0f0" stroke="red" points="436.5,-35.5 306.5,-35.5 306.5,-5.5 436.5,-5.5 436.5,-35.5"/>
<text text-anchor="start" x="314.5" y="-23.5" font-family="Helvetica,sans-Serif" font-size="10.00">src/database/iphoto</text>
<text text-anchor="middle" x="371.5" y="-12.5" font-family="Helvetica,sans-Serif" font-size="10.00">_change_log_operator.hpp</text>
</a>
</g>
</g>
<!-- Node1&#45;&gt;Node114 -->
<g id="edge3" class="edge">
<title>Node1&#45;&gt;Node114</title>
<path fill="none" stroke="#63b8ff" d="M707.06,-83.16C641.04,-74.64 535.59,-59.72 445.5,-41 438.35,-39.51 430.85,-37.76 423.49,-35.94"/>
<polygon fill="#63b8ff" stroke="#63b8ff" points="706.25,-86.58 716.61,-84.38 707.14,-79.64 706.25,-86.58"/>
</g>
<!-- Node118 -->
<g id="node5" class="node">
<title>Node118</title>
<g id="a_node5"><a xlink:href="../../da/d1a/photo__utils_8hpp.html" target="_top" xlink:title=" ">
<polygon fill="#fff0f0" stroke="red" points="554.5,-35.5 454.5,-35.5 454.5,-5.5 554.5,-5.5 554.5,-35.5"/>
<text text-anchor="start" x="462.5" y="-23.5" font-family="Helvetica,sans-Serif" font-size="10.00">src/database/photo</text>
<text text-anchor="middle" x="504.5" y="-12.5" font-family="Helvetica,sans-Serif" font-size="10.00">_utils.hpp</text>
</a>
</g>
</g>
<!-- Node1&#45;&gt;Node118 -->
<g id="edge4" class="edge">
<title>Node1&#45;&gt;Node118</title>
<path fill="none" stroke="#63b8ff" d="M707.18,-76.99C665.89,-67.65 611.27,-54.61 563.5,-41 558.1,-39.46 552.47,-37.75 546.91,-35.98"/>
<polygon fill="#63b8ff" stroke="#63b8ff" points="706.18,-80.36 716.7,-79.14 707.71,-73.53 706.18,-80.36"/>
</g>
<!-- Node121 -->
<g id="node6" class="node">
<title>Node121</title>
<g id="a_node6"><a xlink:href="../../d9/dd1/explicit__photo__delta__tests_8cpp.html" target="_top" xlink:title=" ">
<polygon fill="white" stroke="#666666" points="692,-41 573,-41 573,0 692,0 692,-41"/>
<text text-anchor="start" x="581" y="-29" font-family="Helvetica,sans-Serif" font-size="10.00">src/database/unit_tests</text>
<text text-anchor="start" x="581" y="-18" font-family="Helvetica,sans-Serif" font-size="10.00">/explicit_photo_delta</text>
<text text-anchor="middle" x="632.5" y="-7" font-family="Helvetica,sans-Serif" font-size="10.00">_tests.cpp</text>
</a>
</g>
</g>
<!-- Node1&#45;&gt;Node121 -->
<g id="edge5" class="edge">
<title>Node1&#45;&gt;Node121</title>
<path fill="none" stroke="#63b8ff" d="M732.42,-71.46C713.65,-62.07 691.2,-50.85 672.33,-41.42"/>
<polygon fill="#63b8ff" stroke="#63b8ff" points="730.84,-74.58 741.35,-75.92 733.97,-68.32 730.84,-74.58"/>
</g>
<!-- Node122 -->
<g id="node7" class="node">
<title>Node122</title>
<g id="a_node7"><a xlink:href="../../db/dc4/aphoto__data__model_8hpp.html" target="_top" xlink:title=" ">
<polygon fill="#fff0f0" stroke="red" points="832.5,-35.5 710.5,-35.5 710.5,-5.5 832.5,-5.5 832.5,-35.5"/>
<text text-anchor="start" x="718.5" y="-23.5" font-family="Helvetica,sans-Serif" font-size="10.00">src/gui/desktop/models</text>
<text text-anchor="middle" x="771.5" y="-12.5" font-family="Helvetica,sans-Serif" font-size="10.00">/aphoto_data_model.hpp</text>
</a>
</g>
</g>
<!-- Node1&#45;&gt;Node122 -->
<g id="edge6" class="edge">
<title>Node1&#45;&gt;Node122</title>
<path fill="none" stroke="#63b8ff" d="M771.5,-65.26C771.5,-55.33 771.5,-44.36 771.5,-35.88"/>
<polygon fill="#63b8ff" stroke="#63b8ff" points="768,-65.09 771.5,-75.09 775,-65.09 768,-65.09"/>
</g>
<!-- Node125 -->
<g id="node8" class="node">
<title>Node125</title>
<g id="a_node8"><a xlink:href="../../de/d26/itags__operator_8hpp.html" target="_top" xlink:title=" ">
<polygon fill="#fff0f0" stroke="red" points="968.5,-35.5 850.5,-35.5 850.5,-5.5 968.5,-5.5 968.5,-35.5"/>
<text text-anchor="start" x="858.5" y="-23.5" font-family="Helvetica,sans-Serif" font-size="10.00">src/gui/desktop/models</text>
<text text-anchor="middle" x="909.5" y="-12.5" font-family="Helvetica,sans-Serif" font-size="10.00">/itags_operator.hpp</text>
</a>
</g>
</g>
<!-- Node1&#45;&gt;Node125 -->
<g id="edge7" class="edge">
<title>Node1&#45;&gt;Node125</title>
<path fill="none" stroke="#63b8ff" d="M810.31,-71.46C832.75,-60.15 860.51,-46.17 880.94,-35.88"/>
<polygon fill="#63b8ff" stroke="#63b8ff" points="808.8,-68.29 801.45,-75.92 811.95,-74.55 808.8,-68.29"/>
</g>
<!-- Node53 -->
<g id="node9" class="node">
<title>Node53</title>
<g id="a_node9"><a xlink:href="../../df/d86/photo__properties__model_8hpp.html" target="_top" xlink:title=" ">
<polygon fill="#fff0f0" stroke="red" points="1128,-35.5 987,-35.5 987,-5.5 1128,-5.5 1128,-35.5"/>
<text text-anchor="start" x="995" y="-23.5" font-family="Helvetica,sans-Serif" font-size="10.00">src/gui/desktop/models</text>
<text text-anchor="middle" x="1057.5" y="-12.5" font-family="Helvetica,sans-Serif" font-size="10.00">/photo_properties_model.hpp</text>
</a>
</g>
</g>
<!-- Node1&#45;&gt;Node53 -->
<g id="edge8" class="edge">
<title>Node1&#45;&gt;Node53</title>
<path fill="none" stroke="#63b8ff" d="M835.95,-75.37C876.57,-65.52 930.1,-52.53 977.5,-41 984.17,-39.38 991.15,-37.68 998.09,-35.99"/>
<polygon fill="#63b8ff" stroke="#63b8ff" points="835.22,-71.95 826.33,-77.71 836.87,-78.75 835.22,-71.95"/>
</g>
<!-- Node57 -->
<g id="node10" class="node">
<title>Node57</title>
<g id="a_node10"><a xlink:href="../../d8/de4/context__menu__manager_8hpp.html" target="_top" xlink:title=" ">
<polygon fill="#fff0f0" stroke="red" points="1316.5,-35.5 1146.5,-35.5 1146.5,-5.5 1316.5,-5.5 1316.5,-35.5"/>
<text text-anchor="start" x="1154.5" y="-23.5" font-family="Helvetica,sans-Serif" font-size="10.00">src/gui/desktop/quick</text>
<text text-anchor="middle" x="1231.5" y="-12.5" font-family="Helvetica,sans-Serif" font-size="10.00">_items/context_menu_manager.hpp</text>
</a>
</g>
</g>
<!-- Node1&#45;&gt;Node57 -->
<g id="edge9" class="edge">
<title>Node1&#45;&gt;Node57</title>
<path fill="none" stroke="#63b8ff" d="M836.03,-83.55C909.32,-74.77 1032.36,-59.07 1137.5,-41 1146.29,-39.49 1155.51,-37.76 1164.6,-35.97"/>
<polygon fill="#63b8ff" stroke="#63b8ff" points="835.73,-80.06 826.21,-84.72 836.56,-87.01 835.73,-80.06"/>
</g>
<!-- Node126 -->
<g id="node11" class="node">
<title>Node126</title>
<g id="a_node11"><a xlink:href="../../d7/d35/photos__grouping__dialog_8hpp.html" target="_top" xlink:title=" ">
<polygon fill="#fff0f0" stroke="red" points="1474.5,-35.5 1334.5,-35.5 1334.5,-5.5 1474.5,-5.5 1474.5,-35.5"/>
<text text-anchor="start" x="1342.5" y="-23.5" font-family="Helvetica,sans-Serif" font-size="10.00">src/gui/desktop/ui</text>
<text text-anchor="middle" x="1404.5" y="-12.5" font-family="Helvetica,sans-Serif" font-size="10.00">/photos_grouping_dialog.hpp</text>
</a>
</g>
</g>
<!-- Node1&#45;&gt;Node126 -->
<g id="edge10" class="edge">
<title>Node1&#45;&gt;Node126</title>
<path fill="none" stroke="#63b8ff" d="M836.15,-88.35C939.95,-83.39 1149.93,-70.42 1325.5,-41 1333.72,-39.62 1342.35,-37.84 1350.76,-35.92"/>
<polygon fill="#63b8ff" stroke="#63b8ff" points="836.27,-84.85 826.45,-88.81 836.6,-91.84 836.27,-84.85"/>
</g>
<!-- Node78 -->
<g id="node12" class="node">
<title>Node78</title>
<g id="a_node12"><a xlink:href="../../dc/db1/groups__manager_8hpp.html" target="_top" xlink:title=" ">
<polygon fill="#fff0f0" stroke="red" points="1602.5,-35.5 1492.5,-35.5 1492.5,-5.5 1602.5,-5.5 1602.5,-35.5"/>
<text text-anchor="start" x="1500.5" y="-23.5" font-family="Helvetica,sans-Serif" font-size="10.00">src/gui/desktop/utils</text>
<text text-anchor="middle" x="1547.5" y="-12.5" font-family="Helvetica,sans-Serif" font-size="10.00">/groups_manager.hpp</text>
</a>
</g>
</g>
<!-- Node1&#45;&gt;Node78 -->
<g id="edge11" class="edge">
<title>Node1&#45;&gt;Node78</title>
<path fill="none" stroke="#63b8ff" d="M836.01,-91.31C961.71,-90.86 1247.77,-84.61 1483.5,-41 1490.47,-39.71 1497.75,-37.93 1504.8,-35.96"/>
<polygon fill="#63b8ff" stroke="#63b8ff" points="836.22,-87.81 826.23,-91.34 836.24,-94.81 836.22,-87.81"/>
</g>
</g>
</svg>
