<?xml version="1.0" encoding="UTF-8" standalone="no"?>
<!DOCTYPE svg PUBLIC "-//W3C//DTD SVG 1.1//EN"
 "http://www.w3.org/Graphics/SVG/1.1/DTD/svg11.dtd">
<!-- Generated by graphviz version 7.0.5 (20221223.1930)
 -->
<!-- Title: PhotosModelControllerComponent Pages: 1 -->
<svg width="317pt" height="159pt"
 viewBox="0.00 0.00 316.50 159.00" xmlns="http://www.w3.org/2000/svg" xmlns:xlink="http://www.w3.org/1999/xlink">
<g id="graph0" class="graph" transform="scale(1 1) rotate(0) translate(4 155)">
<title>PhotosModelControllerComponent</title>
<!-- Node1 -->
<g id="node1" class="node">
<title>Node1</title>
<g id="a_node1"><a xlink:title=" ">
<polygon fill="#999999" stroke="#666666" points="198.5,-19 34.5,-19 34.5,0 198.5,0 198.5,-19"/>
<text text-anchor="middle" x="116.5" y="-7" font-family="Helvetica,sans-Serif" font-size="10.00">PhotosModelControllerComponent</text>
</a>
</g>
</g>
<!-- Node2 -->
<g id="node2" class="node">
<title>Node2</title>
<g id="a_node2"><a xlink:title=" ">
<polygon fill="white" stroke="#666666" points="53,-85 0,-85 0,-66 53,-66 53,-85"/>
<text text-anchor="middle" x="26.5" y="-73" font-family="Helvetica,sans-Serif" font-size="10.00">QObject</text>
</a>
</g>
</g>
<!-- Node2&#45;&gt;Node1 -->
<g id="edge1" class="edge">
<title>Node2&#45;&gt;Node1</title>
<path fill="none" stroke="#63b8ff" d="M46.63,-58.52C55.38,-51.72 65.83,-43.81 75.5,-37 84.23,-30.85 94.3,-24.34 102.27,-19.3"/>
<polygon fill="#63b8ff" stroke="#63b8ff" points="44.5,-55.74 38.79,-64.67 48.82,-61.25 44.5,-55.74"/>
</g>
<!-- Node3 -->
<g id="node3" class="node">
<title>Node3</title>
<g id="a_node3"><a xlink:href="../../d1/da6/class_flat_model.html" target="_top" xlink:title=" ">
<polygon fill="#fff0f0" stroke="red" points="194,-85 135,-85 135,-66 194,-66 194,-85"/>
<text text-anchor="middle" x="164.5" y="-73" font-family="Helvetica,sans-Serif" font-size="10.00">FlatModel</text>
</a>
</g>
</g>
<!-- Node3&#45;&gt;Node1 -->
<g id="edge2" class="edge">
<title>Node3&#45;&gt;Node1</title>
<path fill="none" stroke="#9a32cd" stroke-dasharray="5,2" d="M150.92,-56.4C141.83,-44.27 130.26,-28.84 123.12,-19.32"/>
<polygon fill="#9a32cd" stroke="#9a32cd" points="148.12,-58.49 156.92,-64.39 153.72,-54.29 148.12,-58.49"/>
<text text-anchor="middle" x="165" y="-40" font-family="Helvetica,sans-Serif" font-size="10.00"> m_model</text>
</g>
<!-- Node6 -->
<g id="node4" class="node">
<title>Node6</title>
<g id="a_node4"><a xlink:href="../../d7/da9/struct_database_1_1_i_database.html" target="_top" xlink:title="Base Database interface. A bridge between regular clients and backend.">
<polygon fill="white" stroke="#666666" points="159,-151 52,-151 52,-132 159,-132 159,-151"/>
<text text-anchor="middle" x="105.5" y="-139" font-family="Helvetica,sans-Serif" font-size="10.00">Database::IDatabase</text>
</a>
</g>
</g>
<!-- Node6&#45;&gt;Node1 -->
<g id="edge4" class="edge">
<title>Node6&#45;&gt;Node1</title>
<path fill="none" stroke="#9a32cd" stroke-dasharray="5,2" d="M100.96,-120.73C98.15,-105.67 95.58,-84.45 98.5,-66 101.19,-48.99 108.24,-30.1 112.68,-19.32"/>
<polygon fill="#9a32cd" stroke="#9a32cd" points="97.48,-121.19 102.95,-130.26 104.33,-119.75 97.48,-121.19"/>
<text text-anchor="middle" x="112" y="-73" font-family="Helvetica,sans-Serif" font-size="10.00"> m_db</text>
</g>
<!-- Node6&#45;&gt;Node3 -->
<g id="edge3" class="edge">
<title>Node6&#45;&gt;Node3</title>
<path fill="none" stroke="#9a32cd" stroke-dasharray="5,2" d="M121.19,-123.48C132.51,-111.2 147.33,-95.13 156.37,-85.32"/>
<polygon fill="#9a32cd" stroke="#9a32cd" points="118.93,-120.76 114.73,-130.49 124.08,-125.51 118.93,-120.76"/>
<text text-anchor="middle" x="153" y="-106" font-family="Helvetica,sans-Serif" font-size="10.00"> m_db</text>
</g>
<!-- Node7 -->
<g id="node5" class="node">
<title>Node7</title>
<g id="a_node5"><a xlink:href="../../d1/d5c/struct_i_completer_factory.html" target="_top" xlink:title=" ">
<polygon fill="white" stroke="#666666" points="308.5,-85 212.5,-85 212.5,-66 308.5,-66 308.5,-85"/>
<text text-anchor="middle" x="260.5" y="-73" font-family="Helvetica,sans-Serif" font-size="10.00">ICompleterFactory</text>
</a>
</g>
</g>
<!-- Node7&#45;&gt;Node1 -->
<g id="edge5" class="edge">
<title>Node7&#45;&gt;Node1</title>
<path fill="none" stroke="#9a32cd" stroke-dasharray="5,2" d="M235.78,-60.1C222.57,-52.71 205.91,-43.84 190.5,-37 175.66,-30.41 158.62,-24.22 144.64,-19.48"/>
<polygon fill="#9a32cd" stroke="#9a32cd" points="233.79,-63 244.21,-64.9 237.25,-56.91 233.79,-63"/>
<text text-anchor="middle" x="258" y="-40" font-family="Helvetica,sans-Serif" font-size="10.00"> m_completerFactory</text>
</g>
</g>
</svg>
