<?xml version="1.0" encoding="UTF-8" standalone="no"?>
<!DOCTYPE svg PUBLIC "-//W3C//DTD SVG 1.1//EN"
 "http://www.w3.org/Graphics/SVG/1.1/DTD/svg11.dtd">
<!-- Generated by graphviz version 7.0.5 (20221223.1930)
 -->
<!-- Title: PersonName::id Pages: 1 -->
<svg width="271pt" height="172pt"
 viewBox="0.00 0.00 271.00 171.50" xmlns="http://www.w3.org/2000/svg" xmlns:xlink="http://www.w3.org/1999/xlink">
<g id="graph0" class="graph" transform="scale(1 1) rotate(0) translate(4 167.5)">
<title>PersonName::id</title>
<!-- Node1 -->
<g id="node1" class="node">
<title>Node1</title>
<g id="a_node1"><a xlink:title=" ">
<polygon fill="#999999" stroke="#666666" points="263,-86 177,-86 177,-67 263,-67 263,-86"/>
<text text-anchor="middle" x="220" y="-74" font-family="Helvetica,sans-Serif" font-size="10.00">PersonName::id</text>
</a>
</g>
</g>
<!-- Node2 -->
<g id="node2" class="node">
<title>Node2</title>
<g id="a_node2"><a xlink:href="../../da/dba/class_database_1_1_memory_backend.html#a3de50b6c286ab49aecdc8f7dbb60411d" target="_top" xlink:title=" ">
<polygon fill="white" stroke="#666666" points="138,-163.5 3,-163.5 3,-133.5 138,-133.5 138,-163.5"/>
<text text-anchor="start" x="11" y="-151.5" font-family="Helvetica,sans-Serif" font-size="10.00">Database::MemoryBackend</text>
<text text-anchor="middle" x="70.5" y="-140.5" font-family="Helvetica,sans-Serif" font-size="10.00">::getIdFor</text>
</a>
</g>
</g>
<!-- Node1&#45;&gt;Node2 -->
<g id="edge1" class="edge">
<title>Node1&#45;&gt;Node2</title>
<path fill="none" stroke="#63b8ff" d="M196.04,-92.48C180.89,-102.56 160.33,-115.35 141,-124.5 134.54,-127.56 127.58,-130.43 120.65,-133.04"/>
<polygon fill="#63b8ff" stroke="#63b8ff" points="197.58,-95.67 203.9,-87.17 193.65,-89.87 197.58,-95.67"/>
</g>
<!-- Node3 -->
<g id="node3" class="node">
<title>Node3</title>
<g id="a_node3"><a xlink:href="../../db/dd9/class_database_1_1_people_information_accessor.html#af10e7de8ef1a429f012b226665005c91" target="_top" xlink:title="Store or update person.">
<polygon fill="white" stroke="#666666" points="141,-115.5 0,-115.5 0,-85.5 141,-85.5 141,-115.5"/>
<text text-anchor="start" x="8" y="-103.5" font-family="Helvetica,sans-Serif" font-size="10.00">Database::PeopleInformation</text>
<text text-anchor="middle" x="70.5" y="-92.5" font-family="Helvetica,sans-Serif" font-size="10.00">Accessor::store</text>
</a>
</g>
</g>
<!-- Node1&#45;&gt;Node3 -->
<g id="edge2" class="edge">
<title>Node1&#45;&gt;Node3</title>
<path fill="none" stroke="#63b8ff" d="M165.51,-85.2C157.65,-86.48 149.47,-87.81 141.34,-89.14"/>
<polygon fill="#63b8ff" stroke="#63b8ff" points="165.93,-88.68 175.24,-83.62 164.81,-81.77 165.93,-88.68"/>
</g>
<!-- Node4 -->
<g id="node4" class="node">
<title>Node4</title>
<g id="a_node4"><a xlink:href="../../da/dba/class_database_1_1_memory_backend.html#a563165a3d8a9bc0e8279caaa15ac3f93" target="_top" xlink:title="Store or update person.">
<polygon fill="white" stroke="#666666" points="138,-67.5 3,-67.5 3,-37.5 138,-37.5 138,-67.5"/>
<text text-anchor="start" x="11" y="-55.5" font-family="Helvetica,sans-Serif" font-size="10.00">Database::MemoryBackend</text>
<text text-anchor="middle" x="70.5" y="-44.5" font-family="Helvetica,sans-Serif" font-size="10.00">::store</text>
</a>
</g>
</g>
<!-- Node1&#45;&gt;Node4 -->
<g id="edge3" class="edge">
<title>Node1&#45;&gt;Node4</title>
<path fill="none" stroke="#63b8ff" d="M165.43,-67.78C156.61,-66.35 147.37,-64.85 138.28,-63.37"/>
<polygon fill="#63b8ff" stroke="#63b8ff" points="164.81,-71.23 175.24,-69.38 165.93,-64.32 164.81,-71.23"/>
</g>
<!-- Node5 -->
<g id="node5" class="node">
<title>Node5</title>
<g id="a_node5"><a xlink:href="../../d1/de3/people__tests_8cpp.html#a97345afb0f60799babf73c6a1e822e9e" target="_top" xlink:title=" ">
<polygon fill="white" stroke="#666666" points="110,-19 31,-19 31,0 110,0 110,-19"/>
<text text-anchor="middle" x="70.5" y="-7" font-family="Helvetica,sans-Serif" font-size="10.00">TYPED_TEST</text>
</a>
</g>
</g>
<!-- Node1&#45;&gt;Node5 -->
<g id="edge4" class="edge">
<title>Node1&#45;&gt;Node5</title>
<path fill="none" stroke="#63b8ff" d="M196.51,-60.27C181.41,-49.99 160.74,-37.06 141,-28.5 131.36,-24.32 120.56,-20.84 110.41,-18.04"/>
<polygon fill="#63b8ff" stroke="#63b8ff" points="194.11,-62.87 204.32,-65.71 198.11,-57.12 194.11,-62.87"/>
</g>
</g>
</svg>
