<?xml version="1.0" encoding="UTF-8" standalone="no"?>
<!DOCTYPE svg PUBLIC "-//W3C//DTD SVG 1.1//EN"
 "http://www.w3.org/Graphics/SVG/1.1/DTD/svg11.dtd">
<!-- Generated by graphviz version 12.2.0 (20241103.1931)
 -->
<!-- Title: src/core/implementation/image_tools.cpp Pages: 1 -->
<svg width="234pt" height="149pt"
 viewBox="0.00 0.00 234.00 149.00" xmlns="http://www.w3.org/2000/svg" xmlns:xlink="http://www.w3.org/1999/xlink">
<g id="graph0" class="graph" transform="scale(1 1) rotate(0) translate(4 145)">
<title>src/core/implementation/image_tools.cpp</title>
<!-- Node1 -->
<g id="Node000001" class="node">
<title>Node1</title>
<g id="a_Node000001"><a xlink:title=" ">
<polygon fill="#999999" stroke="#666666" points="174.38,-141 54.12,-141 54.12,-110.5 174.38,-110.5 174.38,-141"/>
<text text-anchor="start" x="62.12" y="-127.5" font-family="Helvetica,sans-Serif" font-size="10.00">src/core/implementation</text>
<text text-anchor="middle" x="114.25" y="-116.25" font-family="Helvetica,sans-Serif" font-size="10.00">/image_tools.cpp</text>
</a>
</g>
</g>
<!-- Node2 -->
<g id="Node000002" class="node">
<title>Node2</title>
<g id="a_Node000002"><a xlink:href="../../d9/dfc/image__tools_8hpp.html" target="_top" xlink:title=" ">
<polygon fill="#fff0f0" stroke="red" points="86.5,-74.5 0,-74.5 0,-55.25 86.5,-55.25 86.5,-74.5"/>
<text text-anchor="middle" x="43.25" y="-61" font-family="Helvetica,sans-Serif" font-size="10.00">image_tools.hpp</text>
</a>
</g>
</g>
<!-- Node1&#45;&gt;Node2 -->
<g id="edge1_Node000001_Node000002" class="edge">
<title>Node1&#45;&gt;Node2</title>
<g id="a_edge1_Node000001_Node000002"><a xlink:title=" ">
<path fill="none" stroke="#63b8ff" d="M96.7,-110.2C86.41,-101.66 73.39,-90.87 62.77,-82.06"/>
<polygon fill="#63b8ff" stroke="#63b8ff" points="65.29,-79.61 55.36,-75.92 60.82,-84.99 65.29,-79.61"/>
</a>
</g>
</g>
<!-- Node6 -->
<g id="Node000006" class="node">
<title>Node6</title>
<g id="a_Node000006"><a xlink:title=" ">
<polygon fill="#e0e0e0" stroke="#999999" points="164.75,-19.25 133.75,-19.25 133.75,0 164.75,0 164.75,-19.25"/>
<text text-anchor="middle" x="149.25" y="-5.75" font-family="Helvetica,sans-Serif" font-size="10.00">any</text>
</a>
</g>
</g>
<!-- Node1&#45;&gt;Node6 -->
<g id="edge2_Node000001_Node000006" class="edge">
<title>Node1&#45;&gt;Node6</title>
<g id="a_edge2_Node000001_Node000006"><a xlink:title=" ">
<path fill="none" stroke="#63b8ff" d="M117.93,-110.01C121.53,-95.88 127.34,-73.98 133.25,-55.25 135.88,-46.91 139.08,-37.81 141.93,-30.01"/>
<polygon fill="#63b8ff" stroke="#63b8ff" points="145.13,-31.46 145.33,-20.87 138.57,-29.02 145.13,-31.46"/>
</a>
</g>
</g>
<!-- Node7 -->
<g id="Node000007" class="node">
<title>Node7</title>
<g id="a_Node000007"><a xlink:href="../../df/d6f/iexif__reader_8hpp.html" target="_top" xlink:title=" ">
<polygon fill="#fff0f0" stroke="red" points="226,-74.5 142.5,-74.5 142.5,-55.25 226,-55.25 226,-74.5"/>
<text text-anchor="middle" x="184.25" y="-61" font-family="Helvetica,sans-Serif" font-size="10.00">iexif_reader.hpp</text>
</a>
</g>
</g>
<!-- Node1&#45;&gt;Node7 -->
<g id="edge3_Node000001_Node000007" class="edge">
<title>Node1&#45;&gt;Node7</title>
<g id="a_edge3_Node000001_Node000007"><a xlink:title=" ">
<path fill="none" stroke="#63b8ff" d="M131.55,-110.2C141.6,-101.75 154.28,-91.08 164.68,-82.33"/>
<polygon fill="#63b8ff" stroke="#63b8ff" points="166.9,-85.04 172.3,-75.93 162.39,-79.68 166.9,-85.04"/>
</a>
</g>
</g>
<!-- Node7&#45;&gt;Node6 -->
<g id="edge4_Node000007_Node000006" class="edge">
<title>Node7&#45;&gt;Node6</title>
<g id="a_edge4_Node000007_Node000006"><a xlink:title=" ">
<path fill="none" stroke="#63b8ff" d="M178.47,-55.08C173.84,-48.03 167.18,-37.9 161.38,-29.08"/>
<polygon fill="#63b8ff" stroke="#63b8ff" points="164.4,-27.31 155.99,-20.87 158.55,-31.15 164.4,-27.31"/>
</a>
</g>
</g>
</g>
</svg>
