<?xml version="1.0" encoding="UTF-8" standalone="no"?>
<!DOCTYPE svg PUBLIC "-//W3C//DTD SVG 1.1//EN"
 "http://www.w3.org/Graphics/SVG/1.1/DTD/svg11.dtd">
<!-- Generated by graphviz version 7.0.5 (20221223.1930)
 -->
<!-- Title: invokeMethod Pages: 1 -->
<svg width="285pt" height="488pt"
 viewBox="0.00 0.00 285.00 487.50" xmlns="http://www.w3.org/2000/svg" xmlns:xlink="http://www.w3.org/1999/xlink">
<g id="graph0" class="graph" transform="scale(1 1) rotate(0) translate(4 483.5)">
<title>invokeMethod</title>
<!-- Node1 -->
<g id="node1" class="node">
<title>Node1</title>
<g id="a_node1"><a xlink:title=" ">
<polygon fill="#999999" stroke="#666666" points="277,-244 200,-244 200,-225 277,-225 277,-244"/>
<text text-anchor="middle" x="238.5" y="-232" font-family="Helvetica,sans-Serif" font-size="10.00">invokeMethod</text>
</a>
</g>
</g>
<!-- Node2 -->
<g id="node2" class="node">
<title>Node2</title>
<g id="a_node2"><a xlink:href="../../d1/da6/class_flat_model.html#acc2c349e5c72dd41696538dbb93c92f0" target="_top" xlink:title=" ">
<polygon fill="#fff0f0" stroke="red" points="144.5,-479.5 19.5,-479.5 19.5,-449.5 144.5,-449.5 144.5,-479.5"/>
<text text-anchor="start" x="27.5" y="-467.5" font-family="Helvetica,sans-Serif" font-size="10.00">FlatModel::fetchMatching</text>
<text text-anchor="middle" x="82" y="-456.5" font-family="Helvetica,sans-Serif" font-size="10.00">Photos</text>
</a>
</g>
</g>
<!-- Node1&#45;&gt;Node2 -->
<g id="edge1" class="edge">
<title>Node1&#45;&gt;Node2</title>
<path fill="none" stroke="#63b8ff" d="M236.09,-255.71C232.18,-297.26 217.61,-389.74 164,-440.5 158.46,-445.74 151.83,-449.85 144.78,-453.06"/>
<polygon fill="#63b8ff" stroke="#63b8ff" points="239.57,-256.1 236.89,-245.85 232.6,-255.54 239.57,-256.1"/>
</g>
<!-- Node18 -->
<g id="node3" class="node">
<title>Node18</title>
<g id="a_node3"><a xlink:href="../../d1/da6/class_flat_model.html#a7b363b60e1ec6b187585a70b748b30f5" target="_top" xlink:title=" ">
<polygon fill="#fff0f0" stroke="red" points="159.5,-431 4.5,-431 4.5,-412 159.5,-412 159.5,-431"/>
<text text-anchor="middle" x="82" y="-419" font-family="Helvetica,sans-Serif" font-size="10.00">FlatModel::fetchPhotoProperties</text>
</a>
</g>
</g>
<!-- Node1&#45;&gt;Node18 -->
<g id="edge2" class="edge">
<title>Node1&#45;&gt;Node18</title>
<path fill="none" stroke="#63b8ff" d="M234.51,-255.23C228.22,-290.97 210.17,-364.05 164,-402.5 159.56,-406.2 154.53,-409.2 149.2,-411.64"/>
<polygon fill="#63b8ff" stroke="#63b8ff" points="237.9,-256.19 236.03,-245.76 230.99,-255.08 237.9,-256.19"/>
</g>
<!-- Node24 -->
<g id="node4" class="node">
<title>Node24</title>
<g id="a_node4"><a xlink:href="../../d4/d0e/class_people_manipulator.html#adb1261c6f429ca2846f4226b5bc82251" target="_top" xlink:title=" ">
<polygon fill="#fff0f0" stroke="red" points="132.5,-393.5 31.5,-393.5 31.5,-363.5 132.5,-363.5 132.5,-393.5"/>
<text text-anchor="start" x="39.5" y="-381.5" font-family="Helvetica,sans-Serif" font-size="10.00">PeopleManipulator::</text>
<text text-anchor="middle" x="82" y="-370.5" font-family="Helvetica,sans-Serif" font-size="10.00">findFaces_thrd</text>
</a>
</g>
</g>
<!-- Node1&#45;&gt;Node24 -->
<g id="edge3" class="edge">
<title>Node1&#45;&gt;Node24</title>
<path fill="none" stroke="#63b8ff" d="M230.3,-255.04C219.85,-281.86 197.95,-328.44 164,-354.5 154.92,-361.47 143.86,-366.41 132.86,-369.93"/>
<polygon fill="#63b8ff" stroke="#63b8ff" points="233.58,-256.27 233.77,-245.67 227.01,-253.84 233.58,-256.27"/>
</g>
<!-- Node27 -->
<g id="node5" class="node">
<title>Node27</title>
<g id="a_node5"><a xlink:href="../../d2/d10/class_photos_model_controller_component.html#a3114b0d3595d4d6d72bf5015738f6bbb" target="_top" xlink:title=" ">
<polygon fill="#fff0f0" stroke="red" points="164,-345.5 0,-345.5 0,-315.5 164,-315.5 164,-345.5"/>
<text text-anchor="start" x="8" y="-333.5" font-family="Helvetica,sans-Serif" font-size="10.00">PhotosModelControllerComponent</text>
<text text-anchor="middle" x="82" y="-322.5" font-family="Helvetica,sans-Serif" font-size="10.00">::getTimeRangeForFilters</text>
</a>
</g>
</g>
<!-- Node1&#45;&gt;Node27 -->
<g id="edge4" class="edge">
<title>Node1&#45;&gt;Node27</title>
<path fill="none" stroke="#63b8ff" d="M223.04,-253.1C209.44,-269.39 187.68,-292.57 164,-306.5 158.44,-309.77 152.39,-312.63 146.2,-315.11"/>
<polygon fill="#63b8ff" stroke="#63b8ff" points="225.53,-255.58 229.1,-245.61 220.09,-251.18 225.53,-255.58"/>
</g>
<!-- Node10 -->
<g id="node6" class="node">
<title>Node10</title>
<g id="a_node6"><a xlink:href="../../d2/d10/class_photos_model_controller_component.html#aa27d6c4f3ce129b777554aeadcc122b2" target="_top" xlink:title=" ">
<polygon fill="#fff0f0" stroke="red" points="164,-297.5 0,-297.5 0,-267.5 164,-267.5 164,-297.5"/>
<text text-anchor="start" x="8" y="-285.5" font-family="Helvetica,sans-Serif" font-size="10.00">PhotosModelControllerComponent</text>
<text text-anchor="middle" x="82" y="-274.5" font-family="Helvetica,sans-Serif" font-size="10.00">::markPhotosAsReviewed</text>
</a>
</g>
</g>
<!-- Node1&#45;&gt;Node10 -->
<g id="edge5" class="edge">
<title>Node1&#45;&gt;Node10</title>
<path fill="none" stroke="#63b8ff" d="M196.79,-248.01C186.14,-251.49 174.65,-255.18 164,-258.5 154.9,-261.33 145.2,-264.28 135.79,-267.09"/>
<polygon fill="#63b8ff" stroke="#63b8ff" points="197.67,-251.41 206.08,-244.97 195.49,-244.76 197.67,-251.41"/>
</g>
<!-- Node29 -->
<g id="node7" class="node">
<title>Node29</title>
<g id="a_node7"><a xlink:href="../../dd/d10/class_photos_analyzer_impl.html#a6e3e7a3cbef37ad4d8f2ad872d8c06a5" target="_top" xlink:title=" ">
<polygon fill="white" stroke="#666666" points="135.5,-249.5 28.5,-249.5 28.5,-219.5 135.5,-219.5 135.5,-249.5"/>
<text text-anchor="start" x="36.5" y="-237.5" font-family="Helvetica,sans-Serif" font-size="10.00">PhotosAnalyzerImpl</text>
<text text-anchor="middle" x="82" y="-226.5" font-family="Helvetica,sans-Serif" font-size="10.00">::PhotosAnalyzerImpl</text>
</a>
</g>
</g>
<!-- Node1&#45;&gt;Node29 -->
<g id="edge6" class="edge">
<title>Node1&#45;&gt;Node29</title>
<path fill="none" stroke="#63b8ff" d="M188.48,-234.5C171.72,-234.5 152.91,-234.5 135.86,-234.5"/>
<polygon fill="#63b8ff" stroke="#63b8ff" points="188.19,-238 198.19,-234.5 188.19,-231 188.19,-238"/>
</g>
<!-- Node30 -->
<g id="node8" class="node">
<title>Node30</title>
<g id="a_node8"><a xlink:href="../../d4/dd6/class_photos_data_guesser.html#a412946143edadd31700d199cbc86205a" target="_top" xlink:title=" ">
<polygon fill="#fff0f0" stroke="red" points="136.5,-201.5 27.5,-201.5 27.5,-171.5 136.5,-171.5 136.5,-201.5"/>
<text text-anchor="start" x="35.5" y="-189.5" font-family="Helvetica,sans-Serif" font-size="10.00">PhotosDataGuesser::</text>
<text text-anchor="middle" x="82" y="-178.5" font-family="Helvetica,sans-Serif" font-size="10.00">process</text>
</a>
</g>
</g>
<!-- Node1&#45;&gt;Node30 -->
<g id="edge7" class="edge">
<title>Node1&#45;&gt;Node30</title>
<path fill="none" stroke="#63b8ff" d="M196.79,-220.99C186.14,-217.51 174.65,-213.82 164,-210.5 154.9,-207.67 145.2,-204.72 135.79,-201.91"/>
<polygon fill="#63b8ff" stroke="#63b8ff" points="195.49,-224.24 206.08,-224.03 197.67,-217.59 195.49,-224.24"/>
</g>
<!-- Node32 -->
<g id="node9" class="node">
<title>Node32</title>
<g id="a_node9"><a xlink:href="../../d4/dd6/class_photos_data_guesser.html#a0c4d77b18414fe4f4612e187c13c5f20" target="_top" xlink:title=" ">
<polygon fill="#fff0f0" stroke="red" points="136.5,-153.5 27.5,-153.5 27.5,-123.5 136.5,-123.5 136.5,-153.5"/>
<text text-anchor="start" x="35.5" y="-141.5" font-family="Helvetica,sans-Serif" font-size="10.00">PhotosDataGuesser::</text>
<text text-anchor="middle" x="82" y="-130.5" font-family="Helvetica,sans-Serif" font-size="10.00">processIds</text>
</a>
</g>
</g>
<!-- Node1&#45;&gt;Node32 -->
<g id="edge8" class="edge">
<title>Node1&#45;&gt;Node32</title>
<path fill="none" stroke="#63b8ff" d="M223.04,-215.9C209.44,-199.61 187.68,-176.43 164,-162.5 155.66,-157.59 146.23,-153.62 136.84,-150.43"/>
<polygon fill="#63b8ff" stroke="#63b8ff" points="220.09,-217.82 229.1,-223.39 225.53,-213.42 220.09,-217.82"/>
</g>
<!-- Node34 -->
<g id="node10" class="node">
<title>Node34</title>
<g id="a_node10"><a xlink:href="../../d0/dd6/function__wrappers_8hpp.html#a708f7a554cf400a711aa8fbd58e90d5e" target="_top" xlink:title=" ">
<polygon fill="white" stroke="#666666" points="116.5,-105 47.5,-105 47.5,-86 116.5,-86 116.5,-105"/>
<text text-anchor="middle" x="82" y="-93" font-family="Helvetica,sans-Serif" font-size="10.00">queued_slot</text>
</a>
</g>
</g>
<!-- Node1&#45;&gt;Node34 -->
<g id="edge9" class="edge">
<title>Node1&#45;&gt;Node34</title>
<path fill="none" stroke="#63b8ff" d="M230.66,-214.03C220.51,-186.94 198.84,-139.68 164,-114.5 150.42,-104.69 132.52,-99.86 116.99,-97.53"/>
<polygon fill="#63b8ff" stroke="#63b8ff" points="227.26,-214.91 233.9,-223.17 233.85,-212.57 227.26,-214.91"/>
</g>
<!-- Node35 -->
<g id="node11" class="node">
<title>Node35</title>
<g id="a_node11"><a xlink:href="../../d4/d0e/class_people_manipulator.html#af47d2d92d0cb2becfb199f67cd4cb48c" target="_top" xlink:title=" ">
<polygon fill="#fff0f0" stroke="red" points="135.5,-67.5 28.5,-67.5 28.5,-37.5 135.5,-37.5 135.5,-67.5"/>
<text text-anchor="start" x="36.5" y="-55.5" font-family="Helvetica,sans-Serif" font-size="10.00">PeopleManipulator::</text>
<text text-anchor="middle" x="82" y="-44.5" font-family="Helvetica,sans-Serif" font-size="10.00">recognizeFaces_thrd</text>
</a>
</g>
</g>
<!-- Node1&#45;&gt;Node35 -->
<g id="edge10" class="edge">
<title>Node1&#45;&gt;Node35</title>
<path fill="none" stroke="#63b8ff" d="M233.41,-213.58C225.75,-180 206.07,-114.12 164,-77.5 156.01,-70.54 146.1,-65.52 135.99,-61.9"/>
<polygon fill="#63b8ff" stroke="#63b8ff" points="229.96,-214.21 235.46,-223.26 236.81,-212.75 229.96,-214.21"/>
</g>
<!-- Node38 -->
<g id="node12" class="node">
<title>Node38</title>
<g id="a_node12"><a xlink:href="../../d3/d07/class_media_view_ctrl.html#a98d9275bf877422453e14e46d1bbaf09" target="_top" xlink:title=" ">
<polygon fill="white" stroke="#666666" points="146,-19 18,-19 18,0 146,0 146,-19"/>
<text text-anchor="middle" x="82" y="-7" font-family="Helvetica,sans-Serif" font-size="10.00">MediaViewCtrl::setSource</text>
</a>
</g>
</g>
<!-- Node1&#45;&gt;Node38 -->
<g id="edge11" class="edge">
<title>Node1&#45;&gt;Node38</title>
<path fill="none" stroke="#63b8ff" d="M236.37,-213.29C232.94,-171.39 219.17,-77.8 164,-28.5 158.83,-23.88 152.75,-20.33 146.29,-17.6"/>
<polygon fill="#63b8ff" stroke="#63b8ff" points="232.86,-213.28 237.03,-223.02 239.84,-212.8 232.86,-213.28"/>
</g>
</g>
</svg>
