<?xml version="1.0" encoding="UTF-8" standalone="no"?>
<!DOCTYPE svg PUBLIC "-//W3C//DTD SVG 1.1//EN"
 "http://www.w3.org/Graphics/SVG/1.1/DTD/svg11.dtd">
<!-- Generated by graphviz version 9.0.0 (20230911.1827)
 -->
<!-- Title: Database::IBackend::photoOperator Pages: 1 -->
<svg width="311pt" height="297pt"
 viewBox="0.00 0.00 310.75 296.88" xmlns="http://www.w3.org/2000/svg" xmlns:xlink="http://www.w3.org/1999/xlink">
<g id="graph0" class="graph" transform="scale(1 1) rotate(0) translate(4 292.88)">
<title>Database::IBackend::photoOperator</title>
<!-- Node1 -->
<g id="Node000001" class="node">
<title>Node1</title>
<g id="a_Node000001"><a xlink:title="get photo operator">
<polygon fill="#999999" stroke="#666666" points="302.75,-147.88 199.75,-147.88 199.75,-117.38 302.75,-117.38 302.75,-147.88"/>
<text text-anchor="start" x="207.75" y="-134.38" font-family="Helvetica,sans-Serif" font-size="10.00">Database::IBackend</text>
<text text-anchor="middle" x="251.25" y="-123.12" font-family="Helvetica,sans-Serif" font-size="10.00">::photoOperator</text>
</a>
</g>
</g>
<!-- Node2 -->
<g id="Node000002" class="node">
<title>Node2</title>
<g id="a_Node000002"><a xlink:href="../../d1/da6/class_flat_model.html#acc2c349e5c72dd41696538dbb93c92f0" target="_top" xlink:title=" ">
<polygon fill="#fff0f0" stroke="red" points="144.25,-288.88 19.5,-288.88 19.5,-258.38 144.25,-258.38 144.25,-288.88"/>
<text text-anchor="start" x="27.5" y="-275.38" font-family="Helvetica,sans-Serif" font-size="10.00">FlatModel::fetchMatching</text>
<text text-anchor="middle" x="81.88" y="-264.12" font-family="Helvetica,sans-Serif" font-size="10.00">Photos</text>
</a>
</g>
</g>
<!-- Node1&#45;&gt;Node2 -->
<g id="edge1_Node000001_Node000002" class="edge">
<title>Node1&#45;&gt;Node2</title>
<g id="a_edge1_Node000001_Node000002"><a xlink:title=" ">
<path fill="none" stroke="#63b8ff" d="M237.43,-158.27C222.99,-184.63 197.11,-225.06 163.75,-248.62 157.87,-252.78 151.27,-256.26 144.46,-259.17"/>
<polygon fill="#63b8ff" stroke="#63b8ff" points="240.44,-160.07 242.03,-149.59 234.26,-156.79 240.44,-160.07"/>
</a>
</g>
</g>
<!-- Node19 -->
<g id="Node000019" class="node">
<title>Node19</title>
<g id="a_Node000019"><a xlink:href="../../d2/d10/class_photos_model_controller_component.html#a3114b0d3595d4d6d72bf5015738f6bbb" target="_top" xlink:title=" ">
<polygon fill="#fff0f0" stroke="red" points="163.75,-239.88 0,-239.88 0,-209.38 163.75,-209.38 163.75,-239.88"/>
<text text-anchor="start" x="8" y="-226.38" font-family="Helvetica,sans-Serif" font-size="10.00">PhotosModelControllerComponent</text>
<text text-anchor="middle" x="81.88" y="-215.12" font-family="Helvetica,sans-Serif" font-size="10.00">::getTimeRangeForFilters</text>
</a>
</g>
</g>
<!-- Node1&#45;&gt;Node19 -->
<g id="edge2_Node000001_Node000019" class="edge">
<title>Node1&#45;&gt;Node19</title>
<g id="a_edge2_Node000001_Node000019"><a xlink:title=" ">
<path fill="none" stroke="#63b8ff" d="M225.48,-155.72C209.03,-170.04 186.36,-187.87 163.75,-199.62 156.97,-203.15 149.61,-206.27 142.18,-209.02"/>
<polygon fill="#63b8ff" stroke="#63b8ff" points="227.67,-158.46 232.82,-149.2 223.02,-153.23 227.67,-158.46"/>
</a>
</g>
</g>
<!-- Node21 -->
<g id="Node000021" class="node">
<title>Node21</title>
<g id="a_Node000021"><a xlink:href="../../d4/dd6/class_photos_data_guesser.html#a2a212e85f615e315ebe23624e586a3d4" target="_top" xlink:title=" ">
<polygon fill="white" stroke="#666666" points="136,-190.88 27.75,-190.88 27.75,-160.38 136,-160.38 136,-190.88"/>
<text text-anchor="start" x="35.75" y="-177.38" font-family="Helvetica,sans-Serif" font-size="10.00">PhotosDataGuesser::</text>
<text text-anchor="middle" x="81.88" y="-166.12" font-family="Helvetica,sans-Serif" font-size="10.00">loadData</text>
</a>
</g>
</g>
<!-- Node1&#45;&gt;Node21 -->
<g id="edge3_Node000001_Node000021" class="edge">
<title>Node1&#45;&gt;Node21</title>
<g id="a_edge3_Node000001_Node000021"><a xlink:title=" ">
<path fill="none" stroke="#63b8ff" d="M188.53,-148.48C171.38,-152.89 152.91,-157.63 136.28,-161.91"/>
<polygon fill="#63b8ff" stroke="#63b8ff" points="189.3,-151.9 198.11,-146.02 187.56,-145.12 189.3,-151.9"/>
</a>
</g>
</g>
<!-- Node22 -->
<g id="Node000022" class="node">
<title>Node22</title>
<g id="a_Node000022"><a xlink:href="../../d3/d94/class_duplicates_model.html#ae017138820164092ad713654e554290e" target="_top" xlink:title=" ">
<polygon fill="white" stroke="#666666" points="147.25,-142.25 16.5,-142.25 16.5,-123 147.25,-123 147.25,-142.25"/>
<text text-anchor="middle" x="81.88" y="-128.75" font-family="Helvetica,sans-Serif" font-size="10.00">DuplicatesModel::loadData</text>
</a>
</g>
</g>
<!-- Node1&#45;&gt;Node22 -->
<g id="edge4_Node000001_Node000022" class="edge">
<title>Node1&#45;&gt;Node22</title>
<g id="a_edge4_Node000001_Node000022"><a xlink:title=" ">
<path fill="none" stroke="#63b8ff" d="M188.19,-132.62C174.96,-132.62 160.96,-132.62 147.63,-132.62"/>
<polygon fill="#63b8ff" stroke="#63b8ff" points="188.06,-136.13 198.06,-132.63 188.06,-129.13 188.06,-136.13"/>
</a>
</g>
</g>
<!-- Node23 -->
<g id="Node000023" class="node">
<title>Node23</title>
<g id="a_Node000023"><a xlink:href="../../dd/d10/class_photos_analyzer_impl.html#a6e3e7a3cbef37ad4d8f2ad872d8c06a5" target="_top" xlink:title=" ">
<polygon fill="white" stroke="#666666" points="135.25,-104.88 28.5,-104.88 28.5,-74.38 135.25,-74.38 135.25,-104.88"/>
<text text-anchor="start" x="36.5" y="-91.38" font-family="Helvetica,sans-Serif" font-size="10.00">PhotosAnalyzerImpl</text>
<text text-anchor="middle" x="81.88" y="-80.12" font-family="Helvetica,sans-Serif" font-size="10.00">::PhotosAnalyzerImpl</text>
</a>
</g>
</g>
<!-- Node1&#45;&gt;Node23 -->
<g id="edge5_Node000001_Node000023" class="edge">
<title>Node1&#45;&gt;Node23</title>
<g id="a_edge5_Node000001_Node000023"><a xlink:title=" ">
<path fill="none" stroke="#63b8ff" d="M188.92,-116.87C171.46,-112.38 152.6,-107.54 135.7,-103.19"/>
<polygon fill="#63b8ff" stroke="#63b8ff" points="187.56,-120.13 198.11,-119.23 189.3,-113.35 187.56,-120.13"/>
</a>
</g>
</g>
<!-- Node24 -->
<g id="Node000024" class="node">
<title>Node24</title>
<g id="a_Node000024"><a xlink:href="../../db/d6e/class_collection_scanner.html#a7d7efea2e0e976663465a01f8831ac4a" target="_top" xlink:title=" ">
<polygon fill="white" stroke="#666666" points="142,-56.25 21.75,-56.25 21.75,-37 142,-37 142,-56.25"/>
<text text-anchor="middle" x="81.88" y="-42.75" font-family="Helvetica,sans-Serif" font-size="10.00">CollectionScanner::scan</text>
</a>
</g>
</g>
<!-- Node1&#45;&gt;Node24 -->
<g id="edge6_Node000001_Node000024" class="edge">
<title>Node1&#45;&gt;Node24</title>
<g id="a_edge6_Node000001_Node000024"><a xlink:title=" ">
<path fill="none" stroke="#63b8ff" d="M226.06,-109.27C209.69,-94.69 186.9,-76.66 163.75,-65.62 156.2,-62.02 147.92,-59.08 139.63,-56.68"/>
<polygon fill="#63b8ff" stroke="#63b8ff" points="223.6,-111.76 233.34,-115.92 228.32,-106.59 223.6,-111.76"/>
</a>
</g>
</g>
<!-- Node25 -->
<g id="Node000025" class="node">
<title>Node25</title>
<g id="a_Node000025"><a xlink:href="../../df/d40/namespace_groups_manager.html#ab262024260dcb1a060e7756e1e315e1c" target="_top" xlink:title=" ">
<polygon fill="#fff0f0" stroke="red" points="143.88,-19.25 19.88,-19.25 19.88,0 143.88,0 143.88,-19.25"/>
<text text-anchor="middle" x="81.88" y="-5.75" font-family="Helvetica,sans-Serif" font-size="10.00">GroupsManager::ungroup</text>
</a>
</g>
</g>
<!-- Node1&#45;&gt;Node25 -->
<g id="edge7_Node000001_Node000025" class="edge">
<title>Node1&#45;&gt;Node25</title>
<g id="a_edge7_Node000001_Node000025"><a xlink:title=" ">
<path fill="none" stroke="#63b8ff" d="M236.26,-107.4C221.45,-83.13 195.81,-47.3 163.75,-27.62 157.74,-23.94 151.07,-21 144.21,-18.67"/>
<polygon fill="#63b8ff" stroke="#63b8ff" points="233.07,-108.87 241.16,-115.71 239.1,-105.32 233.07,-108.87"/>
</a>
</g>
</g>
</g>
</svg>
