<?xml version="1.0" encoding="UTF-8" standalone="no"?>
<!DOCTYPE svg PUBLIC "-//W3C//DTD SVG 1.1//EN"
 "http://www.w3.org/Graphics/SVG/1.1/DTD/svg11.dtd">
<!-- Generated by graphviz version 9.0.0 (20230911.1827)
 -->
<!-- Title: Database::IBackend::photoOperator Pages: 1 -->
<svg width="311pt" height="334pt"
 viewBox="0.00 0.00 310.75 333.88" xmlns="http://www.w3.org/2000/svg" xmlns:xlink="http://www.w3.org/1999/xlink">
<g id="graph0" class="graph" transform="scale(1 1) rotate(0) translate(4 329.88)">
<title>Database::IBackend::photoOperator</title>
<!-- Node1 -->
<g id="Node000001" class="node">
<title>Node1</title>
<g id="a_Node000001"><a xlink:title="get photo operator">
<polygon fill="#999999" stroke="#666666" points="302.75,-168.88 199.75,-168.88 199.75,-138.38 302.75,-138.38 302.75,-168.88"/>
<text text-anchor="start" x="207.75" y="-155.38" font-family="Helvetica,sans-Serif" font-size="10.00">Database::IBackend</text>
<text text-anchor="middle" x="251.25" y="-144.12" font-family="Helvetica,sans-Serif" font-size="10.00">::photoOperator</text>
</a>
</g>
</g>
<!-- Node2 -->
<g id="Node000002" class="node">
<title>Node2</title>
<g id="a_Node000002"><a xlink:href="../../d1/da6/class_flat_model.html#acc2c349e5c72dd41696538dbb93c92f0" target="_top" xlink:title=" ">
<polygon fill="#fff0f0" stroke="red" points="144.25,-325.88 19.5,-325.88 19.5,-295.38 144.25,-295.38 144.25,-325.88"/>
<text text-anchor="start" x="27.5" y="-312.38" font-family="Helvetica,sans-Serif" font-size="10.00">FlatModel::fetchMatching</text>
<text text-anchor="middle" x="81.88" y="-301.12" font-family="Helvetica,sans-Serif" font-size="10.00">Photos</text>
</a>
</g>
</g>
<!-- Node1&#45;&gt;Node2 -->
<g id="edge1_Node000001_Node000002" class="edge">
<title>Node1&#45;&gt;Node2</title>
<g id="a_edge1_Node000001_Node000002"><a xlink:title=" ">
<path fill="none" stroke="#63b8ff" d="M239.76,-179.63C226.43,-209.47 200.63,-257.86 163.75,-285.62 158,-289.96 151.48,-293.54 144.71,-296.52"/>
<polygon fill="#63b8ff" stroke="#63b8ff" points="242.92,-181.14 243.66,-170.57 236.49,-178.37 242.92,-181.14"/>
</a>
</g>
</g>
<!-- Node19 -->
<g id="Node000019" class="node">
<title>Node19</title>
<g id="a_Node000019"><a xlink:href="../../d2/d10/class_photos_model_controller_component.html#a3114b0d3595d4d6d72bf5015738f6bbb" target="_top" xlink:title=" ">
<polygon fill="#fff0f0" stroke="red" points="163.75,-276.88 0,-276.88 0,-246.38 163.75,-246.38 163.75,-276.88"/>
<text text-anchor="start" x="8" y="-263.38" font-family="Helvetica,sans-Serif" font-size="10.00">PhotosModelControllerComponent</text>
<text text-anchor="middle" x="81.88" y="-252.12" font-family="Helvetica,sans-Serif" font-size="10.00">::getTimeRangeForFilters</text>
</a>
</g>
</g>
<!-- Node1&#45;&gt;Node19 -->
<g id="edge2_Node000001_Node000019" class="edge">
<title>Node1&#45;&gt;Node19</title>
<g id="a_edge2_Node000001_Node000019"><a xlink:title=" ">
<path fill="none" stroke="#63b8ff" d="M230.99,-177.91C214.87,-196.71 190.3,-222.08 163.75,-237.62 158.31,-240.81 152.42,-243.6 146.38,-246.04"/>
<polygon fill="#63b8ff" stroke="#63b8ff" points="233.5,-180.36 237.22,-170.44 228.13,-175.87 233.5,-180.36"/>
</a>
</g>
</g>
<!-- Node21 -->
<g id="Node000021" class="node">
<title>Node21</title>
<g id="a_Node000021"><a xlink:href="../../d3/df6/class_series_detector.html#a7fb133fe47e82c32db512738a9e02742" target="_top" xlink:title=" ">
<polygon fill="#fff0f0" stroke="red" points="155.12,-228.25 8.62,-228.25 8.62,-209 155.12,-209 155.12,-228.25"/>
<text text-anchor="middle" x="81.88" y="-214.75" font-family="Helvetica,sans-Serif" font-size="10.00">SeriesDetector::listCandidates</text>
</a>
</g>
</g>
<!-- Node1&#45;&gt;Node21 -->
<g id="edge3_Node000001_Node000021" class="edge">
<title>Node1&#45;&gt;Node21</title>
<g id="a_edge3_Node000001_Node000021"><a xlink:title=" ">
<path fill="none" stroke="#63b8ff" d="M215.33,-174.84C199.94,-183.49 181.38,-192.99 163.75,-199.62 154.57,-203.08 144.56,-206.04 134.81,-208.52"/>
<polygon fill="#63b8ff" stroke="#63b8ff" points="216.71,-178.09 223.64,-170.08 213.22,-172.02 216.71,-178.09"/>
</a>
</g>
</g>
<!-- Node29 -->
<g id="Node000029" class="node">
<title>Node29</title>
<g id="a_Node000029"><a xlink:href="../../d4/dd6/class_photos_data_guesser.html#a2a212e85f615e315ebe23624e586a3d4" target="_top" xlink:title=" ">
<polygon fill="white" stroke="#666666" points="136,-190.88 27.75,-190.88 27.75,-160.38 136,-160.38 136,-190.88"/>
<text text-anchor="start" x="35.75" y="-177.38" font-family="Helvetica,sans-Serif" font-size="10.00">PhotosDataGuesser::</text>
<text text-anchor="middle" x="81.88" y="-166.12" font-family="Helvetica,sans-Serif" font-size="10.00">loadData</text>
</a>
</g>
</g>
<!-- Node1&#45;&gt;Node29 -->
<g id="edge4_Node000001_Node000029" class="edge">
<title>Node1&#45;&gt;Node29</title>
<g id="a_edge4_Node000001_Node000029"><a xlink:title=" ">
<path fill="none" stroke="#63b8ff" d="M188.53,-161.74C171.38,-163.99 152.91,-166.42 136.28,-168.61"/>
<polygon fill="#63b8ff" stroke="#63b8ff" points="188.62,-165.26 198.08,-160.48 187.71,-158.32 188.62,-165.26"/>
</a>
</g>
</g>
<!-- Node30 -->
<g id="Node000030" class="node">
<title>Node30</title>
<g id="a_Node000030"><a xlink:href="../../d3/d94/class_duplicates_model.html#ae017138820164092ad713654e554290e" target="_top" xlink:title=" ">
<polygon fill="white" stroke="#666666" points="147.25,-142.25 16.5,-142.25 16.5,-123 147.25,-123 147.25,-142.25"/>
<text text-anchor="middle" x="81.88" y="-128.75" font-family="Helvetica,sans-Serif" font-size="10.00">DuplicatesModel::loadData</text>
</a>
</g>
</g>
<!-- Node1&#45;&gt;Node30 -->
<g id="edge5_Node000001_Node000030" class="edge">
<title>Node1&#45;&gt;Node30</title>
<g id="a_edge5_Node000001_Node000030"><a xlink:title=" ">
<path fill="none" stroke="#63b8ff" d="M188.19,-145.84C174.96,-144.18 160.96,-142.42 147.63,-140.75"/>
<polygon fill="#63b8ff" stroke="#63b8ff" points="187.72,-149.31 198.08,-147.08 188.59,-142.36 187.72,-149.31"/>
</a>
</g>
</g>
<!-- Node31 -->
<g id="Node000031" class="node">
<title>Node31</title>
<g id="a_Node000031"><a xlink:href="../../dd/d10/class_photos_analyzer_impl.html#a6e3e7a3cbef37ad4d8f2ad872d8c06a5" target="_top" xlink:title=" ">
<polygon fill="white" stroke="#666666" points="135.25,-104.88 28.5,-104.88 28.5,-74.38 135.25,-74.38 135.25,-104.88"/>
<text text-anchor="start" x="36.5" y="-91.38" font-family="Helvetica,sans-Serif" font-size="10.00">PhotosAnalyzerImpl</text>
<text text-anchor="middle" x="81.88" y="-80.12" font-family="Helvetica,sans-Serif" font-size="10.00">::PhotosAnalyzerImpl</text>
</a>
</g>
</g>
<!-- Node1&#45;&gt;Node31 -->
<g id="edge6_Node000001_Node000031" class="edge">
<title>Node1&#45;&gt;Node31</title>
<g id="a_edge6_Node000001_Node000031"><a xlink:title=" ">
<path fill="none" stroke="#63b8ff" d="M208.72,-132.94C194.63,-126.32 178.68,-119.26 163.75,-113.62 154.71,-110.21 144.95,-106.96 135.45,-104.02"/>
<polygon fill="#63b8ff" stroke="#63b8ff" points="207.18,-136.08 217.72,-137.23 210.2,-129.77 207.18,-136.08"/>
</a>
</g>
</g>
<!-- Node32 -->
<g id="Node000032" class="node">
<title>Node32</title>
<g id="a_Node000032"><a xlink:href="../../db/d6e/class_collection_scanner.html#a7d7efea2e0e976663465a01f8831ac4a" target="_top" xlink:title=" ">
<polygon fill="white" stroke="#666666" points="142,-56.25 21.75,-56.25 21.75,-37 142,-37 142,-56.25"/>
<text text-anchor="middle" x="81.88" y="-42.75" font-family="Helvetica,sans-Serif" font-size="10.00">CollectionScanner::scan</text>
</a>
</g>
</g>
<!-- Node1&#45;&gt;Node32 -->
<g id="edge7_Node000001_Node000032" class="edge">
<title>Node1&#45;&gt;Node32</title>
<g id="a_edge7_Node000001_Node000032"><a xlink:title=" ">
<path fill="none" stroke="#63b8ff" d="M232.51,-129.04C216.71,-108.96 191.8,-81.4 163.75,-65.62 157.09,-61.88 149.72,-58.87 142.22,-56.45"/>
<polygon fill="#63b8ff" stroke="#63b8ff" points="229.54,-130.92 238.39,-136.74 235.11,-126.67 229.54,-130.92"/>
</a>
</g>
</g>
<!-- Node33 -->
<g id="Node000033" class="node">
<title>Node33</title>
<g id="a_Node000033"><a xlink:href="../../df/d40/namespace_groups_manager.html#ab262024260dcb1a060e7756e1e315e1c" target="_top" xlink:title=" ">
<polygon fill="#fff0f0" stroke="red" points="143.88,-19.25 19.88,-19.25 19.88,0 143.88,0 143.88,-19.25"/>
<text text-anchor="middle" x="81.88" y="-5.75" font-family="Helvetica,sans-Serif" font-size="10.00">GroupsManager::ungroup</text>
</a>
</g>
</g>
<!-- Node1&#45;&gt;Node33 -->
<g id="edge8_Node000001_Node000033" class="edge">
<title>Node1&#45;&gt;Node33</title>
<g id="a_edge8_Node000001_Node000033"><a xlink:title=" ">
<path fill="none" stroke="#63b8ff" d="M239.61,-127.83C226.27,-98.82 200.6,-52.52 163.75,-27.62 157.79,-23.6 151.07,-20.46 144.12,-18.01"/>
<polygon fill="#63b8ff" stroke="#63b8ff" points="236.26,-128.9 243.5,-136.63 242.66,-126.07 236.26,-128.9"/>
</a>
</g>
</g>
</g>
</svg>
