<?xml version="1.0" encoding="UTF-8" standalone="no"?>
<!DOCTYPE svg PUBLIC "-//W3C//DTD SVG 1.1//EN"
 "http://www.w3.org/Graphics/SVG/1.1/DTD/svg11.dtd">
<!-- Generated by graphviz version 9.0.0 (20230911.1827)
 -->
<!-- Title: Database::IBackend::photoChangeLogOperator Pages: 1 -->
<svg width="301pt" height="88pt"
 viewBox="0.00 0.00 301.00 87.50" xmlns="http://www.w3.org/2000/svg" xmlns:xlink="http://www.w3.org/1999/xlink">
<g id="graph0" class="graph" transform="scale(1 1) rotate(0) translate(4 83.5)">
<title>Database::IBackend::photoChangeLogOperator</title>
<!-- Node1 -->
<g id="Node000001" class="node">
<title>Node1</title>
<g id="a_Node000001"><a xlink:title="get changelog operator">
<polygon fill="#999999" stroke="#666666" points="293,-54.5 161.5,-54.5 161.5,-24 293,-24 293,-54.5"/>
<text text-anchor="start" x="169.5" y="-41" font-family="Helvetica,sans-Serif" font-size="10.00">Database::IBackend</text>
<text text-anchor="middle" x="227.25" y="-29.75" font-family="Helvetica,sans-Serif" font-size="10.00">::photoChangeLogOperator</text>
</a>
</g>
</g>
<!-- Node2 -->
<g id="Node000002" class="node">
<title>Node2</title>
<g id="a_Node000002"><a xlink:href="../../d5/d6b/class_database_1_1_group_operator.html#abac9cd6ec0bf898cc604e5fd5d219d67" target="_top" xlink:title=" ">
<polygon fill="white" stroke="#666666" points="125.5,-79.5 0,-79.5 0,-49 125.5,-49 125.5,-79.5"/>
<text text-anchor="start" x="8" y="-66" font-family="Helvetica,sans-Serif" font-size="10.00">Database::GroupOperator</text>
<text text-anchor="middle" x="62.75" y="-54.75" font-family="Helvetica,sans-Serif" font-size="10.00">::addGroup</text>
</a>
</g>
</g>
<!-- Node1&#45;&gt;Node2 -->
<g id="edge1_Node000001_Node000002" class="edge">
<title>Node1&#45;&gt;Node2</title>
<g id="a_edge1_Node000001_Node000002"><a xlink:title=" ">
<path fill="none" stroke="#63b8ff" d="M149.78,-51.01C141.73,-52.25 133.62,-53.5 125.76,-54.71"/>
<polygon fill="#63b8ff" stroke="#63b8ff" points="150.24,-54.48 159.6,-49.5 149.18,-47.57 150.24,-54.48"/>
</a>
</g>
</g>
<!-- Node3 -->
<g id="Node000003" class="node">
<title>Node3</title>
<g id="a_Node000003"><a xlink:href="../../d5/d6b/class_database_1_1_group_operator.html#a44f76a88b5837cadec2a921400d33315" target="_top" xlink:title=" ">
<polygon fill="white" stroke="#666666" points="125.5,-30.5 0,-30.5 0,0 125.5,0 125.5,-30.5"/>
<text text-anchor="start" x="8" y="-17" font-family="Helvetica,sans-Serif" font-size="10.00">Database::GroupOperator</text>
<text text-anchor="middle" x="62.75" y="-5.75" font-family="Helvetica,sans-Serif" font-size="10.00">::removeGroup</text>
</a>
</g>
</g>
<!-- Node1&#45;&gt;Node3 -->
<g id="edge2_Node000001_Node000003" class="edge">
<title>Node1&#45;&gt;Node3</title>
<g id="a_edge2_Node000001_Node000003"><a xlink:title=" ">
<path fill="none" stroke="#63b8ff" d="M149.78,-27.96C141.73,-26.77 133.62,-25.57 125.76,-24.41"/>
<polygon fill="#63b8ff" stroke="#63b8ff" points="149.19,-31.41 159.59,-29.41 150.21,-24.48 149.19,-31.41"/>
</a>
</g>
</g>
</g>
</svg>
