<?xml version="1.0" encoding="UTF-8" standalone="no"?>
<!DOCTYPE svg PUBLIC "-//W3C//DTD SVG 1.1//EN"
 "http://www.w3.org/Graphics/SVG/1.1/DTD/svg11.dtd">
<!-- Generated by graphviz version 7.0.5 (20221223.1930)
 -->
<!-- Title: Database::IBackend::photosRemoved Pages: 1 -->
<svg width="467pt" height="52pt"
 viewBox="0.00 0.00 467.00 51.50" xmlns="http://www.w3.org/2000/svg" xmlns:xlink="http://www.w3.org/1999/xlink">
<g id="graph0" class="graph" transform="scale(1 1) rotate(0) translate(4 47.5)">
<title>Database::IBackend::photosRemoved</title>
<!-- Node1 -->
<g id="node1" class="node">
<title>Node1</title>
<g id="a_node1"><a xlink:title="emited when done with photos marking">
<polygon fill="#999999" stroke="#666666" points="459,-30 355,-30 355,0 459,0 459,-30"/>
<text text-anchor="start" x="363" y="-18" font-family="Helvetica,sans-Serif" font-size="10.00">Database::IBackend</text>
<text text-anchor="middle" x="407" y="-7" font-family="Helvetica,sans-Serif" font-size="10.00">::photosRemoved</text>
</a>
</g>
</g>
<!-- Node2 -->
<g id="node2" class="node">
<title>Node2</title>
<g id="a_node2"><a xlink:href="../../d1/da6/class_flat_model.html#a2737a8ce4698c5aa45a9b9c50b799aea" target="_top" xlink:title=" ">
<polygon fill="white" stroke="#666666" points="319,-43.5 200,-43.5 200,-24.5 319,-24.5 319,-43.5"/>
<text text-anchor="middle" x="259.5" y="-31.5" font-family="Helvetica,sans-Serif" font-size="10.00">FlatModel::setDatabase</text>
</a>
</g>
</g>
<!-- Node1&#45;&gt;Node2 -->
<g id="edge1" class="edge">
<title>Node1&#45;&gt;Node2</title>
<path fill="none" stroke="#63b8ff" d="M343.5,-23.16C335.46,-24.21 327.26,-25.28 319.28,-26.32"/>
<polygon fill="#63b8ff" stroke="#63b8ff" points="343.74,-26.66 353.2,-21.89 342.83,-19.72 343.74,-26.66"/>
</g>
<!-- Node3 -->
<g id="node3" class="node">
<title>Node3</title>
<g id="a_node3"><a xlink:href="../../d2/d10/class_photos_model_controller_component.html#a42e1fbf8b1e05e08767d92e8266f29c8" target="_top" xlink:title=" ">
<polygon fill="white" stroke="#666666" points="164,-30 0,-30 0,0 164,0 164,-30"/>
<text text-anchor="start" x="8" y="-18" font-family="Helvetica,sans-Serif" font-size="10.00">PhotosModelControllerComponent</text>
<text text-anchor="middle" x="82" y="-7" font-family="Helvetica,sans-Serif" font-size="10.00">::setDatabase</text>
</a>
</g>
</g>
<!-- Node1&#45;&gt;Node3 -->
<g id="edge3" class="edge">
<title>Node1&#45;&gt;Node3</title>
<path fill="none" stroke="#63b8ff" d="M343.31,-15C292.3,-15 219.94,-15 164.45,-15"/>
<polygon fill="#63b8ff" stroke="#63b8ff" points="343.31,-18.5 353.31,-15 343.31,-11.5 343.31,-18.5"/>
</g>
<!-- Node2&#45;&gt;Node3 -->
<g id="edge2" class="edge">
<title>Node2&#45;&gt;Node3</title>
<path fill="none" stroke="#63b8ff" d="M188.2,-26.39C180.31,-25.54 172.24,-24.66 164.23,-23.79"/>
<polygon fill="#63b8ff" stroke="#63b8ff" points="187.75,-29.86 198.07,-27.46 188.5,-22.9 187.75,-29.86"/>
</g>
</g>
</svg>
