<?xml version="1.0" encoding="UTF-8" standalone="no"?>
<!DOCTYPE svg PUBLIC "-//W3C//DTD SVG 1.1//EN"
 "http://www.w3.org/Graphics/SVG/1.1/DTD/svg11.dtd">
<!-- Generated by graphviz version 12.2.0 (20241103.1931)
 -->
<!-- Title: Database::IBackend::getPhotoDelta Pages: 1 -->
<svg width="294pt" height="494pt"
 viewBox="0.00 0.00 293.50 493.50" xmlns="http://www.w3.org/2000/svg" xmlns:xlink="http://www.w3.org/1999/xlink">
<g id="graph0" class="graph" transform="scale(1 1) rotate(0) translate(4 489.5)">
<title>Database::IBackend::getPhotoDelta</title>
<!-- Node1 -->
<g id="Node000001" class="node">
<title>Node1</title>
<g id="a_Node000001"><a xlink:title="fetch photo data">
<polygon fill="#999999" stroke="#666666" points="285.5,-263.5 182.5,-263.5 182.5,-233 285.5,-233 285.5,-263.5"/>
<text text-anchor="start" x="190.5" y="-250" font-family="Helvetica,sans-Serif" font-size="10.00">Database::IBackend</text>
<text text-anchor="middle" x="234" y="-238.75" font-family="Helvetica,sans-Serif" font-size="10.00">::getPhotoDelta</text>
</a>
</g>
</g>
<!-- Node2 -->
<g id="Node000002" class="node">
<title>Node2</title>
<g id="a_Node000002"><a xlink:href="../../d4/dd6/class_photos_data_guesser.html#a6af361bc3eec4228a6c171e97126af1d" target="_top" xlink:title=" ">
<polygon fill="white" stroke="#666666" points="127.38,-485.5 19.12,-485.5 19.12,-455 127.38,-455 127.38,-485.5"/>
<text text-anchor="start" x="27.12" y="-472" font-family="Helvetica,sans-Serif" font-size="10.00">PhotosDataGuesser::</text>
<text text-anchor="middle" x="73.25" y="-460.75" font-family="Helvetica,sans-Serif" font-size="10.00">applyRows</text>
</a>
</g>
</g>
<!-- Node1&#45;&gt;Node2 -->
<g id="edge1_Node000001_Node000002" class="edge">
<title>Node1&#45;&gt;Node2</title>
<g id="a_edge1_Node000001_Node000002"><a xlink:title=" ">
<path fill="none" stroke="#63b8ff" d="M228.46,-275.17C219.94,-317.52 197.56,-399.64 146.5,-446.25 141.03,-451.24 134.5,-455.2 127.63,-458.33"/>
<polygon fill="#63b8ff" stroke="#63b8ff" points="231.9,-275.83 230.32,-265.36 225.02,-274.53 231.9,-275.83"/>
</a>
</g>
</g>
<!-- Node3 -->
<g id="Node000003" class="node">
<title>Node3</title>
<g id="a_Node000003"><a xlink:href="../../db/d64/photo__fetch__benchmarks_8cpp.html#aca4d30221ea7fd35935a36be798e4128" target="_top" xlink:title=" ">
<polygon fill="#fff0f0" stroke="red" points="125.88,-436.88 20.62,-436.88 20.62,-417.62 125.88,-417.62 125.88,-436.88"/>
<text text-anchor="middle" x="73.25" y="-423.38" font-family="Helvetica,sans-Serif" font-size="10.00">BM_get_photo_delta</text>
</a>
</g>
</g>
<!-- Node1&#45;&gt;Node3 -->
<g id="edge2_Node000001_Node000003" class="edge">
<title>Node1&#45;&gt;Node3</title>
<g id="a_edge2_Node000001_Node000003"><a xlink:title=" ">
<path fill="none" stroke="#63b8ff" d="M226.18,-274.47C215.42,-310.46 191.03,-374.62 146.5,-409.25 140.48,-413.93 133.4,-417.41 126.06,-420"/>
<polygon fill="#63b8ff" stroke="#63b8ff" points="229.41,-275.88 228.78,-265.3 222.68,-273.97 229.41,-275.88"/>
</a>
</g>
</g>
<!-- Node5 -->
<g id="Node000005" class="node">
<title>Node5</title>
<g id="a_Node000005"><a xlink:href="../../dd/d17/class_thumbnail_manager.html#a23c27b8332708a2e59a6a5ac0c3962fd" target="_top" xlink:title=" ">
<polygon fill="white" stroke="#666666" points="135.62,-399.88 10.88,-399.88 10.88,-380.62 135.62,-380.62 135.62,-399.88"/>
<text text-anchor="middle" x="73.25" y="-386.38" font-family="Helvetica,sans-Serif" font-size="10.00">ThumbnailManager::fetch</text>
</a>
</g>
</g>
<!-- Node1&#45;&gt;Node5 -->
<g id="edge3_Node000001_Node000005" class="edge">
<title>Node1&#45;&gt;Node5</title>
<g id="a_edge3_Node000001_Node000005"><a xlink:title=" ">
<path fill="none" stroke="#63b8ff" d="M221.63,-274.01C207.88,-302.16 182.07,-346.52 146.5,-371.25 141.28,-374.88 135.41,-377.81 129.34,-380.19"/>
<polygon fill="#63b8ff" stroke="#63b8ff" points="224.73,-275.65 225.82,-265.11 218.39,-272.67 224.73,-275.65"/>
</a>
</g>
</g>
<!-- Node6 -->
<g id="Node000006" class="node">
<title>Node6</title>
<g id="a_Node000006"><a xlink:href="../../d9/d95/class_photo_delta_fetcher.html#a14b13b1a4f59b82ebac67de36bd160f4" target="_top" xlink:title=" ">
<polygon fill="white" stroke="#666666" points="124,-362.5 22.5,-362.5 22.5,-332 124,-332 124,-362.5"/>
<text text-anchor="start" x="30.5" y="-349" font-family="Helvetica,sans-Serif" font-size="10.00">PhotoDeltaFetcher::</text>
<text text-anchor="middle" x="73.25" y="-337.75" font-family="Helvetica,sans-Serif" font-size="10.00">fetchIds</text>
</a>
</g>
</g>
<!-- Node1&#45;&gt;Node6 -->
<g id="edge4_Node000001_Node000006" class="edge">
<title>Node1&#45;&gt;Node6</title>
<g id="a_edge4_Node000001_Node000006"><a xlink:title=" ">
<path fill="none" stroke="#63b8ff" d="M210.89,-271.83C194.46,-288.19 170.77,-309.43 146.5,-323.25 139.61,-327.17 131.98,-330.58 124.33,-333.49"/>
<polygon fill="#63b8ff" stroke="#63b8ff" points="213.22,-274.46 217.72,-264.87 208.22,-269.56 213.22,-274.46"/>
</a>
</g>
</g>
<!-- Node7 -->
<g id="Node000007" class="node">
<title>Node7</title>
<g id="a_Node000007"><a xlink:href="../../d0/d76/namespace_database.html#a479c4f90cf4a75943214f51a61633fa1" target="_top" xlink:title=" ">
<polygon fill="white" stroke="#666666" points="137.88,-313.88 8.62,-313.88 8.62,-294.62 137.88,-294.62 137.88,-313.88"/>
<text text-anchor="middle" x="73.25" y="-300.38" font-family="Helvetica,sans-Serif" font-size="10.00">Database::fetchPhotoData</text>
</a>
</g>
</g>
<!-- Node1&#45;&gt;Node7 -->
<g id="edge5_Node000001_Node000007" class="edge">
<title>Node1&#45;&gt;Node7</title>
<g id="a_edge5_Node000001_Node000007"><a xlink:title=" ">
<path fill="none" stroke="#63b8ff" d="M190.82,-268.49C176.9,-274.71 161.22,-281.22 146.5,-286.25 137.94,-289.17 128.65,-291.84 119.69,-294.18"/>
<polygon fill="#63b8ff" stroke="#63b8ff" points="192.04,-271.78 199.69,-264.46 189.14,-265.41 192.04,-271.78"/>
</a>
</g>
</g>
<!-- Node8 -->
<g id="Node000008" class="node">
<title>Node8</title>
<g id="a_Node000008"><a xlink:href="../../dd/d0a/class_face_editor.html#acd98f4936f0f9f4672c64a49c101442d" target="_top" xlink:title=" ">
<polygon fill="#fff0f0" stroke="red" points="127.75,-276.88 18.75,-276.88 18.75,-257.62 127.75,-257.62 127.75,-276.88"/>
<text text-anchor="middle" x="73.25" y="-263.38" font-family="Helvetica,sans-Serif" font-size="10.00">FaceEditor::findFaces</text>
</a>
</g>
</g>
<!-- Node1&#45;&gt;Node8 -->
<g id="edge6_Node000001_Node000008" class="edge">
<title>Node1&#45;&gt;Node8</title>
<g id="a_edge6_Node000001_Node000008"><a xlink:title=" ">
<path fill="none" stroke="#63b8ff" d="M171.12,-255.66C156.88,-257.36 141.86,-259.16 127.99,-260.82"/>
<polygon fill="#63b8ff" stroke="#63b8ff" points="171.32,-259.16 180.83,-254.49 170.49,-252.21 171.32,-259.16"/>
</a>
</g>
</g>
<!-- Node11 -->
<g id="Node000011" class="node">
<title>Node11</title>
<g id="a_Node000011"><a xlink:href="../../df/d40/namespace_groups_manager.html#a36d06be40255e8a0134e20f37a9da47b" target="_top" xlink:title=" ">
<polygon fill="white" stroke="#666666" points="130,-239.88 16.5,-239.88 16.5,-220.62 130,-220.62 130,-239.88"/>
<text text-anchor="middle" x="73.25" y="-226.38" font-family="Helvetica,sans-Serif" font-size="10.00">GroupsManager::group</text>
</a>
</g>
</g>
<!-- Node1&#45;&gt;Node11 -->
<g id="edge7_Node000001_Node000011" class="edge">
<title>Node1&#45;&gt;Node11</title>
<g id="a_edge7_Node000001_Node000011"><a xlink:title=" ">
<path fill="none" stroke="#63b8ff" d="M171.26,-241.25C157.83,-239.73 143.69,-238.12 130.49,-236.63"/>
<polygon fill="#63b8ff" stroke="#63b8ff" points="170.5,-244.69 180.83,-242.33 171.29,-237.73 170.5,-244.69"/>
</a>
</g>
</g>
<!-- Node12 -->
<g id="Node000012" class="node">
<title>Node12</title>
<g id="a_Node000012"><a xlink:href="../../d3/df6/class_series_detector.html#a7fb133fe47e82c32db512738a9e02742" target="_top" xlink:title=" ">
<polygon fill="#fff0f0" stroke="red" points="146.5,-202.88 0,-202.88 0,-183.62 146.5,-183.62 146.5,-202.88"/>
<text text-anchor="middle" x="73.25" y="-189.38" font-family="Helvetica,sans-Serif" font-size="10.00">SeriesDetector::listCandidates</text>
</a>
</g>
</g>
<!-- Node1&#45;&gt;Node12 -->
<g id="edge8_Node000001_Node000012" class="edge">
<title>Node1&#45;&gt;Node12</title>
<g id="a_edge8_Node000001_Node000012"><a xlink:title=" ">
<path fill="none" stroke="#63b8ff" d="M189.31,-227.95C175.77,-222.1 160.67,-216.01 146.5,-211.25 137.8,-208.33 128.37,-205.64 119.28,-203.28"/>
<polygon fill="#63b8ff" stroke="#63b8ff" points="187.85,-231.13 198.41,-231.96 190.67,-224.73 187.85,-231.13"/>
</a>
</g>
</g>
<!-- Node20 -->
<g id="Node000020" class="node">
<title>Node20</title>
<g id="a_Node000020"><a xlink:href="../../d3/d94/class_duplicates_model.html#a3b598cbfcf449e0b9163bc9810e17b8c" target="_top" xlink:title=" ">
<polygon fill="white" stroke="#666666" points="138.62,-165.88 7.88,-165.88 7.88,-146.62 138.62,-146.62 138.62,-165.88"/>
<text text-anchor="middle" x="73.25" y="-152.38" font-family="Helvetica,sans-Serif" font-size="10.00">DuplicatesModel::loadData</text>
</a>
</g>
</g>
<!-- Node1&#45;&gt;Node20 -->
<g id="edge9_Node000001_Node000020" class="edge">
<title>Node1&#45;&gt;Node20</title>
<g id="a_edge9_Node000001_Node000020"><a xlink:title=" ">
<path fill="none" stroke="#63b8ff" d="M211.14,-224.42C194.83,-208.02 171.18,-186.97 146.5,-174.25 140.41,-171.11 133.75,-168.5 127,-166.33"/>
<polygon fill="#63b8ff" stroke="#63b8ff" points="208.44,-226.67 217.92,-231.42 213.47,-221.8 208.44,-226.67"/>
</a>
</g>
</g>
<!-- Node21 -->
<g id="Node000021" class="node">
<title>Node21</title>
<g id="a_Node000021"><a xlink:href="../../d4/dd6/class_photos_data_guesser.html#a70ed93be8560cb9d8f83d3192858855b" target="_top" xlink:title=" ">
<polygon fill="white" stroke="#666666" points="127.38,-128.5 19.12,-128.5 19.12,-98 127.38,-98 127.38,-128.5"/>
<text text-anchor="start" x="27.12" y="-115" font-family="Helvetica,sans-Serif" font-size="10.00">PhotosDataGuesser::</text>
<text text-anchor="middle" x="73.25" y="-103.75" font-family="Helvetica,sans-Serif" font-size="10.00">loadData</text>
</a>
</g>
</g>
<!-- Node1&#45;&gt;Node21 -->
<g id="edge10_Node000001_Node000021" class="edge">
<title>Node1&#45;&gt;Node21</title>
<g id="a_edge10_Node000001_Node000021"><a xlink:title=" ">
<path fill="none" stroke="#63b8ff" d="M219.14,-222.7C204.28,-197.58 178.46,-159.81 146.5,-137.25 140.78,-133.21 134.33,-129.81 127.7,-126.97"/>
<polygon fill="#63b8ff" stroke="#63b8ff" points="216.06,-224.36 224.07,-231.3 222.13,-220.88 216.06,-224.36"/>
</a>
</g>
</g>
<!-- Node22 -->
<g id="Node000022" class="node">
<title>Node22</title>
<g id="a_Node000022"><a xlink:href="../../de/db3/class_context_menu_manager.html#a6e73f66bfc406adf3a1676fb0237fde3" target="_top" xlink:title=" ">
<polygon fill="#fff0f0" stroke="red" points="130.38,-79.5 16.12,-79.5 16.12,-49 130.38,-49 130.38,-79.5"/>
<text text-anchor="start" x="24.12" y="-66" font-family="Helvetica,sans-Serif" font-size="10.00">ContextMenuManager</text>
<text text-anchor="middle" x="73.25" y="-54.75" font-family="Helvetica,sans-Serif" font-size="10.00">::manageGroupsAction</text>
</a>
</g>
</g>
<!-- Node1&#45;&gt;Node22 -->
<g id="edge11_Node000001_Node000022" class="edge">
<title>Node1&#45;&gt;Node22</title>
<g id="a_edge11_Node000001_Node000022"><a xlink:title=" ">
<path fill="none" stroke="#63b8ff" d="M225.32,-221.9C213.79,-186.81 188.72,-125.02 146.5,-89.25 141.74,-85.22 136.29,-81.82 130.57,-78.97"/>
<polygon fill="#63b8ff" stroke="#63b8ff" points="221.92,-222.77 228.26,-231.26 228.6,-220.67 221.92,-222.77"/>
</a>
</g>
</g>
<!-- Node24 -->
<g id="Node000024" class="node">
<title>Node24</title>
<g id="a_Node000024"><a xlink:href="../../da/dba/class_database_1_1_memory_backend.html#a4776d93a9968f87bc793e6fad9e96a89" target="_top" xlink:title="update photos details">
<polygon fill="#fff0f0" stroke="red" points="140.5,-30.5 6,-30.5 6,0 140.5,0 140.5,-30.5"/>
<text text-anchor="start" x="14" y="-17" font-family="Helvetica,sans-Serif" font-size="10.00">Database::MemoryBackend</text>
<text text-anchor="middle" x="73.25" y="-5.75" font-family="Helvetica,sans-Serif" font-size="10.00">::update</text>
</a>
</g>
</g>
<!-- Node1&#45;&gt;Node24 -->
<g id="edge12_Node000001_Node000024" class="edge">
<title>Node1&#45;&gt;Node24</title>
<g id="a_edge12_Node000001_Node000024"><a xlink:title=" ">
<path fill="none" stroke="#63b8ff" d="M229.08,-221.61C221.25,-177.75 199.61,-90.22 146.5,-40.25 142.63,-36.61 138.21,-33.5 133.5,-30.84"/>
<polygon fill="#63b8ff" stroke="#63b8ff" points="225.59,-221.98 230.69,-231.26 232.49,-220.82 225.59,-221.98"/>
</a>
</g>
</g>
</g>
</svg>
