<?xml version="1.0" encoding="UTF-8" standalone="no"?>
<!DOCTYPE svg PUBLIC "-//W3C//DTD SVG 1.1//EN"
 "http://www.w3.org/Graphics/SVG/1.1/DTD/svg11.dtd">
<!-- Generated by graphviz version 9.0.0 (20230911.1827)
 -->
<!-- Title: Database::IBackend::getPhotoDelta Pages: 1 -->
<svg width="302pt" height="273pt"
 viewBox="0.00 0.00 301.75 272.88" xmlns="http://www.w3.org/2000/svg" xmlns:xlink="http://www.w3.org/1999/xlink">
<g id="graph0" class="graph" transform="scale(1 1) rotate(0) translate(4 268.88)">
<title>Database::IBackend::getPhotoDelta</title>
<!-- Node1 -->
<g id="Node000001" class="node">
<title>Node1</title>
<g id="a_Node000001"><a xlink:title=" ">
<polygon fill="#999999" stroke="#666666" points="293.75,-153.5 190.75,-153.5 190.75,-123 293.75,-123 293.75,-153.5"/>
<text text-anchor="start" x="198.75" y="-140" font-family="Helvetica,sans-Serif" font-size="10.00">Database::IBackend</text>
<text text-anchor="middle" x="242.25" y="-128.75" font-family="Helvetica,sans-Serif" font-size="10.00">::getPhotoDelta</text>
</a>
</g>
</g>
<!-- Node2 -->
<g id="Node000002" class="node">
<title>Node2</title>
<g id="a_Node000002"><a xlink:href="../../d1/da6/class_flat_model.html#a7b363b60e1ec6b187585a70b748b30f5" target="_top" xlink:title=" ">
<polygon fill="#fff0f0" stroke="red" points="154.75,-264.88 0,-264.88 0,-245.62 154.75,-245.62 154.75,-264.88"/>
<text text-anchor="middle" x="77.38" y="-251.38" font-family="Helvetica,sans-Serif" font-size="10.00">FlatModel::fetchPhotoProperties</text>
</a>
</g>
</g>
<!-- Node1&#45;&gt;Node2 -->
<g id="edge1_Node000001_Node000002" class="edge">
<title>Node1&#45;&gt;Node2</title>
<g id="a_edge1_Node000001_Node000002"><a xlink:title=" ">
<path fill="none" stroke="#63b8ff" d="M226.16,-163.01C210.96,-185.8 185.41,-218.79 154.75,-237.25 149.5,-240.41 143.73,-243.02 137.8,-245.17"/>
<polygon fill="#63b8ff" stroke="#63b8ff" points="228.9,-165.21 231.39,-154.91 223.02,-161.41 228.9,-165.21"/>
</a>
</g>
</g>
<!-- Node8 -->
<g id="Node000008" class="node">
<title>Node8</title>
<g id="a_Node000008"><a xlink:href="../../dd/d0a/class_face_editor.html#acd98f4936f0f9f4672c64a49c101442d" target="_top" xlink:title=" ">
<polygon fill="#fff0f0" stroke="red" points="131.88,-227.88 22.88,-227.88 22.88,-208.62 131.88,-208.62 131.88,-227.88"/>
<text text-anchor="middle" x="77.38" y="-214.38" font-family="Helvetica,sans-Serif" font-size="10.00">FaceEditor::findFaces</text>
</a>
</g>
</g>
<!-- Node1&#45;&gt;Node8 -->
<g id="edge2_Node000001_Node000008" class="edge">
<title>Node1&#45;&gt;Node8</title>
<g id="a_edge2_Node000001_Node000008"><a xlink:title=" ">
<path fill="none" stroke="#63b8ff" d="M215.51,-160.81C199.13,-174.08 176.89,-190.19 154.75,-200.25 147.68,-203.46 139.97,-206.14 132.26,-208.36"/>
<polygon fill="#63b8ff" stroke="#63b8ff" points="217.35,-163.83 222.81,-154.75 212.88,-158.44 217.35,-163.83"/>
</a>
</g>
</g>
<!-- Node11 -->
<g id="Node000011" class="node">
<title>Node11</title>
<g id="a_Node000011"><a xlink:href="../../df/d40/namespace_groups_manager.html#a36d06be40255e8a0134e20f37a9da47b" target="_top" xlink:title=" ">
<polygon fill="white" stroke="#666666" points="134.12,-190.88 20.62,-190.88 20.62,-171.62 134.12,-171.62 134.12,-190.88"/>
<text text-anchor="middle" x="77.38" y="-177.38" font-family="Helvetica,sans-Serif" font-size="10.00">GroupsManager::group</text>
</a>
</g>
</g>
<!-- Node1&#45;&gt;Node11 -->
<g id="edge3_Node000001_Node000011" class="edge">
<title>Node1&#45;&gt;Node11</title>
<g id="a_edge3_Node000001_Node000011"><a xlink:title=" ">
<path fill="none" stroke="#63b8ff" d="M179.66,-155.56C171.3,-157.84 162.82,-160.13 154.75,-162.25 143.39,-165.24 131.04,-168.36 119.65,-171.2"/>
<polygon fill="#63b8ff" stroke="#63b8ff" points="180.37,-158.99 189.08,-152.97 178.51,-152.24 180.37,-158.99"/>
</a>
</g>
</g>
<!-- Node12 -->
<g id="Node000012" class="node">
<title>Node12</title>
<g id="a_Node000012"><a xlink:href="../../d4/dd6/class_photos_data_guesser.html#a2a212e85f615e315ebe23624e586a3d4" target="_top" xlink:title=" ">
<polygon fill="white" stroke="#666666" points="131.5,-153.5 23.25,-153.5 23.25,-123 131.5,-123 131.5,-153.5"/>
<text text-anchor="start" x="31.25" y="-140" font-family="Helvetica,sans-Serif" font-size="10.00">PhotosDataGuesser::</text>
<text text-anchor="middle" x="77.38" y="-128.75" font-family="Helvetica,sans-Serif" font-size="10.00">loadData</text>
</a>
</g>
</g>
<!-- Node1&#45;&gt;Node12 -->
<g id="edge4_Node000001_Node000012" class="edge">
<title>Node1&#45;&gt;Node12</title>
<g id="a_edge4_Node000001_Node000012"><a xlink:title=" ">
<path fill="none" stroke="#63b8ff" d="M179.41,-138.25C163.73,-138.25 147.03,-138.25 131.81,-138.25"/>
<polygon fill="#63b8ff" stroke="#63b8ff" points="179.09,-141.75 189.09,-138.25 179.09,-134.75 179.09,-141.75"/>
</a>
</g>
</g>
<!-- Node13 -->
<g id="Node000013" class="node">
<title>Node13</title>
<g id="a_Node000013"><a xlink:href="../../d3/d94/class_duplicates_model.html#ae017138820164092ad713654e554290e" target="_top" xlink:title=" ">
<polygon fill="white" stroke="#666666" points="142.75,-104.88 12,-104.88 12,-85.62 142.75,-85.62 142.75,-104.88"/>
<text text-anchor="middle" x="77.38" y="-91.38" font-family="Helvetica,sans-Serif" font-size="10.00">DuplicatesModel::loadData</text>
</a>
</g>
</g>
<!-- Node1&#45;&gt;Node13 -->
<g id="edge5_Node000001_Node000013" class="edge">
<title>Node1&#45;&gt;Node13</title>
<g id="a_edge5_Node000001_Node000013"><a xlink:title=" ">
<path fill="none" stroke="#63b8ff" d="M179.66,-120.94C171.3,-118.66 162.82,-116.37 154.75,-114.25 143.39,-111.26 131.04,-108.14 119.65,-105.3"/>
<polygon fill="#63b8ff" stroke="#63b8ff" points="178.51,-124.26 189.08,-123.53 180.37,-117.51 178.51,-124.26"/>
</a>
</g>
</g>
<!-- Node14 -->
<g id="Node000014" class="node">
<title>Node14</title>
<g id="a_Node000014"><a xlink:href="../../db/d6e/class_collection_scanner.html#a7d7efea2e0e976663465a01f8831ac4a" target="_top" xlink:title=" ">
<polygon fill="white" stroke="#666666" points="137.5,-67.88 17.25,-67.88 17.25,-48.62 137.5,-48.62 137.5,-67.88"/>
<text text-anchor="middle" x="77.38" y="-54.38" font-family="Helvetica,sans-Serif" font-size="10.00">CollectionScanner::scan</text>
</a>
</g>
</g>
<!-- Node1&#45;&gt;Node14 -->
<g id="edge6_Node000001_Node000014" class="edge">
<title>Node1&#45;&gt;Node14</title>
<g id="a_edge6_Node000001_Node000014"><a xlink:title=" ">
<path fill="none" stroke="#63b8ff" d="M215.51,-115.69C199.13,-102.42 176.89,-86.31 154.75,-76.25 147.81,-73.09 140.24,-70.46 132.67,-68.26"/>
<polygon fill="#63b8ff" stroke="#63b8ff" points="212.88,-118.06 222.81,-121.75 217.35,-112.67 212.88,-118.06"/>
</a>
</g>
</g>
<!-- Node15 -->
<g id="Node000015" class="node">
<title>Node15</title>
<g id="a_Node000015"><a xlink:href="../../da/dba/class_database_1_1_memory_backend.html#a4776d93a9968f87bc793e6fad9e96a89" target="_top" xlink:title="update photos details">
<polygon fill="#fff0f0" stroke="red" points="144.62,-30.5 10.12,-30.5 10.12,0 144.62,0 144.62,-30.5"/>
<text text-anchor="start" x="18.12" y="-17" font-family="Helvetica,sans-Serif" font-size="10.00">Database::MemoryBackend</text>
<text text-anchor="middle" x="77.38" y="-5.75" font-family="Helvetica,sans-Serif" font-size="10.00">::update</text>
</a>
</g>
</g>
<!-- Node1&#45;&gt;Node15 -->
<g id="edge7_Node000001_Node000015" class="edge">
<title>Node1&#45;&gt;Node15</title>
<g id="a_edge7_Node000001_Node000015"><a xlink:title=" ">
<path fill="none" stroke="#63b8ff" d="M225.38,-113.31C209.91,-90.9 184.41,-58.62 154.75,-39.25 149.86,-36.06 144.52,-33.27 139.01,-30.83"/>
<polygon fill="#63b8ff" stroke="#63b8ff" points="222.45,-115.22 230.92,-121.57 228.26,-111.32 222.45,-115.22"/>
</a>
</g>
</g>
</g>
</svg>
