<?xml version="1.0" encoding="UTF-8" standalone="no"?>
<!DOCTYPE svg PUBLIC "-//W3C//DTD SVG 1.1//EN"
 "http://www.w3.org/Graphics/SVG/1.1/DTD/svg11.dtd">
<!-- Generated by graphviz version 7.0.5 (20221223.1930)
 -->
<!-- Title: Database::IBackend::getPhotoDelta Pages: 1 -->
<svg width="303pt" height="321pt"
 viewBox="0.00 0.00 303.00 321.00" xmlns="http://www.w3.org/2000/svg" xmlns:xlink="http://www.w3.org/1999/xlink">
<g id="graph0" class="graph" transform="scale(1 1) rotate(0) translate(4 317)">
<title>Database::IBackend::getPhotoDelta</title>
<!-- Node1 -->
<g id="node1" class="node">
<title>Node1</title>
<g id="a_node1"><a xlink:title=" ">
<polygon fill="#999999" stroke="#666666" points="295,-174 191,-174 191,-144 295,-144 295,-174"/>
<text text-anchor="start" x="199" y="-162" font-family="Helvetica,sans-Serif" font-size="10.00">Database::IBackend</text>
<text text-anchor="middle" x="243" y="-151" font-family="Helvetica,sans-Serif" font-size="10.00">::getPhotoDelta</text>
</a>
</g>
</g>
<!-- Node2 -->
<g id="node2" class="node">
<title>Node2</title>
<g id="a_node2"><a xlink:href="../../d4/dd6/class_photos_data_guesser.html#a6af361bc3eec4228a6c171e97126af1d" target="_top" xlink:title=" ">
<polygon fill="white" stroke="#666666" points="132,-313 23,-313 23,-283 132,-283 132,-313"/>
<text text-anchor="start" x="31" y="-301" font-family="Helvetica,sans-Serif" font-size="10.00">PhotosDataGuesser::</text>
<text text-anchor="middle" x="77.5" y="-290" font-family="Helvetica,sans-Serif" font-size="10.00">applyRows</text>
</a>
</g>
</g>
<!-- Node1&#45;&gt;Node2 -->
<g id="edge1" class="edge">
<title>Node1&#45;&gt;Node2</title>
<path fill="none" stroke="#63b8ff" d="M229,-184.39C214.38,-210.5 188.28,-250.56 155,-274 148.17,-278.81 140.34,-282.68 132.36,-285.79"/>
<polygon fill="#63b8ff" stroke="#63b8ff" points="231.96,-186.27 233.65,-175.81 225.81,-182.93 231.96,-186.27"/>
</g>
<!-- Node3 -->
<g id="node3" class="node">
<title>Node3</title>
<g id="a_node3"><a xlink:href="../../d1/da6/class_flat_model.html#a7b363b60e1ec6b187585a70b748b30f5" target="_top" xlink:title=" ">
<polygon fill="#fff0f0" stroke="red" points="155,-264.5 0,-264.5 0,-245.5 155,-245.5 155,-264.5"/>
<text text-anchor="middle" x="77.5" y="-252.5" font-family="Helvetica,sans-Serif" font-size="10.00">FlatModel::fetchPhotoProperties</text>
</a>
</g>
</g>
<!-- Node1&#45;&gt;Node3 -->
<g id="edge2" class="edge">
<title>Node1&#45;&gt;Node3</title>
<path fill="none" stroke="#63b8ff" d="M221.9,-182.52C205.6,-200.1 181.12,-223.37 155,-237 148.83,-240.22 142.08,-242.87 135.23,-245.05"/>
<polygon fill="#63b8ff" stroke="#63b8ff" points="224.1,-185.3 228.2,-175.53 218.91,-180.61 224.1,-185.3"/>
</g>
<!-- Node9 -->
<g id="node4" class="node">
<title>Node9</title>
<g id="a_node4"><a xlink:href="../../dd/d0a/class_face_editor.html#acd98f4936f0f9f4672c64a49c101442d" target="_top" xlink:title=" ">
<polygon fill="#fff0f0" stroke="red" points="132.5,-227.5 22.5,-227.5 22.5,-208.5 132.5,-208.5 132.5,-227.5"/>
<text text-anchor="middle" x="77.5" y="-215.5" font-family="Helvetica,sans-Serif" font-size="10.00">FaceEditor::findFaces</text>
</a>
</g>
</g>
<!-- Node1&#45;&gt;Node9 -->
<g id="edge3" class="edge">
<title>Node1&#45;&gt;Node9</title>
<path fill="none" stroke="#63b8ff" d="M202.97,-179.53C188.22,-186.71 171.11,-194.38 155,-200 146.24,-203.06 136.74,-205.76 127.5,-208.08"/>
<polygon fill="#63b8ff" stroke="#63b8ff" points="204.49,-182.68 211.89,-175.09 201.37,-176.41 204.49,-182.68"/>
</g>
<!-- Node12 -->
<g id="node5" class="node">
<title>Node12</title>
<g id="a_node5"><a xlink:href="../../df/d40/namespace_groups_manager.html#a36d06be40255e8a0134e20f37a9da47b" target="_top" xlink:title=" ">
<polygon fill="white" stroke="#666666" points="134.5,-190.5 20.5,-190.5 20.5,-171.5 134.5,-171.5 134.5,-190.5"/>
<text text-anchor="middle" x="77.5" y="-178.5" font-family="Helvetica,sans-Serif" font-size="10.00">GroupsManager::group</text>
</a>
</g>
</g>
<!-- Node1&#45;&gt;Node12 -->
<g id="edge4" class="edge">
<title>Node1&#45;&gt;Node12</title>
<path fill="none" stroke="#63b8ff" d="M179.69,-167.38C165,-169.36 149.42,-171.46 135,-173.4"/>
<polygon fill="#63b8ff" stroke="#63b8ff" points="179.77,-170.9 189.22,-166.1 178.84,-163.97 179.77,-170.9"/>
</g>
<!-- Node13 -->
<g id="node6" class="node">
<title>Node13</title>
<g id="a_node6"><a xlink:href="../../d4/dd6/class_photos_data_guesser.html#a2a212e85f615e315ebe23624e586a3d4" target="_top" xlink:title=" ">
<polygon fill="white" stroke="#666666" points="132,-153 23,-153 23,-123 132,-123 132,-153"/>
<text text-anchor="start" x="31" y="-141" font-family="Helvetica,sans-Serif" font-size="10.00">PhotosDataGuesser::</text>
<text text-anchor="middle" x="77.5" y="-130" font-family="Helvetica,sans-Serif" font-size="10.00">loadData</text>
</a>
</g>
</g>
<!-- Node1&#45;&gt;Node13 -->
<g id="edge5" class="edge">
<title>Node1&#45;&gt;Node13</title>
<path fill="none" stroke="#63b8ff" d="M179.61,-150.99C164.06,-148.99 147.53,-146.87 132.43,-144.93"/>
<polygon fill="#63b8ff" stroke="#63b8ff" points="178.85,-154.42 189.21,-152.22 179.74,-147.47 178.85,-154.42"/>
</g>
<!-- Node14 -->
<g id="node7" class="node">
<title>Node14</title>
<g id="a_node7"><a xlink:href="../../d3/d94/class_duplicates_model.html#ae017138820164092ad713654e554290e" target="_top" xlink:title=" ">
<polygon fill="white" stroke="#666666" points="143,-104.5 12,-104.5 12,-85.5 143,-85.5 143,-104.5"/>
<text text-anchor="middle" x="77.5" y="-92.5" font-family="Helvetica,sans-Serif" font-size="10.00">DuplicatesModel::loadData</text>
</a>
</g>
</g>
<!-- Node1&#45;&gt;Node14 -->
<g id="edge6" class="edge">
<title>Node1&#45;&gt;Node14</title>
<path fill="none" stroke="#63b8ff" d="M206.43,-138.2C191,-129.82 172.49,-120.59 155,-114 145.78,-110.53 135.69,-107.5 125.96,-104.95"/>
<polygon fill="#63b8ff" stroke="#63b8ff" points="204.32,-141.03 214.76,-142.82 207.71,-134.91 204.32,-141.03"/>
</g>
<!-- Node15 -->
<g id="node8" class="node">
<title>Node15</title>
<g id="a_node8"><a xlink:href="../../db/d6e/class_collection_scanner.html#a7d7efea2e0e976663465a01f8831ac4a" target="_top" xlink:title=" ">
<polygon fill="white" stroke="#666666" points="138,-67.5 17,-67.5 17,-48.5 138,-48.5 138,-67.5"/>
<text text-anchor="middle" x="77.5" y="-55.5" font-family="Helvetica,sans-Serif" font-size="10.00">CollectionScanner::scan</text>
</a>
</g>
</g>
<!-- Node1&#45;&gt;Node15 -->
<g id="edge7" class="edge">
<title>Node1&#45;&gt;Node15</title>
<path fill="none" stroke="#63b8ff" d="M222.44,-134.74C206.25,-116.24 181.65,-91.55 155,-77 148.27,-73.33 140.83,-70.35 133.3,-67.95"/>
<polygon fill="#63b8ff" stroke="#63b8ff" points="219.77,-137 228.92,-142.35 225.11,-132.47 219.77,-137"/>
</g>
<!-- Node16 -->
<g id="node9" class="node">
<title>Node16</title>
<g id="a_node9"><a xlink:href="../../da/dba/class_database_1_1_memory_backend.html#a4776d93a9968f87bc793e6fad9e96a89" target="_top" xlink:title="update photos details">
<polygon fill="#fff0f0" stroke="red" points="145,-30 10,-30 10,0 145,0 145,-30"/>
<text text-anchor="start" x="18" y="-18" font-family="Helvetica,sans-Serif" font-size="10.00">Database::MemoryBackend</text>
<text text-anchor="middle" x="77.5" y="-7" font-family="Helvetica,sans-Serif" font-size="10.00">::update</text>
</a>
</g>
</g>
<!-- Node1&#45;&gt;Node16 -->
<g id="edge8" class="edge">
<title>Node1&#45;&gt;Node16</title>
<path fill="none" stroke="#63b8ff" d="M229.62,-133.66C215.23,-106.74 189.04,-64.7 155,-40 149.91,-36.31 144.25,-33.14 138.37,-30.43"/>
<polygon fill="#63b8ff" stroke="#63b8ff" points="226.49,-135.23 234.19,-142.51 232.71,-132.02 226.49,-135.23"/>
</g>
</g>
</svg>
