<?xml version="1.0" encoding="UTF-8" standalone="no"?>
<!DOCTYPE svg PUBLIC "-//W3C//DTD SVG 1.1//EN"
 "http://www.w3.org/Graphics/SVG/1.1/DTD/svg11.dtd">
<!-- Generated by graphviz version 12.2.0 (20241103.1931)
 -->
<!-- Title: Database::IBackend::update Pages: 1 -->
<svg width="279pt" height="199pt"
 viewBox="0.00 0.00 279.25 198.88" xmlns="http://www.w3.org/2000/svg" xmlns:xlink="http://www.w3.org/1999/xlink">
<g id="graph0" class="graph" transform="scale(1 1) rotate(0) translate(4 194.88)">
<title>Database::IBackend::update</title>
<!-- Node1 -->
<g id="Node000001" class="node">
<title>Node1</title>
<g id="a_Node000001"><a xlink:title="update photos details">
<polygon fill="#999999" stroke="#666666" points="271.25,-110.88 168.25,-110.88 168.25,-80.38 271.25,-80.38 271.25,-110.88"/>
<text text-anchor="start" x="176.25" y="-97.38" font-family="Helvetica,sans-Serif" font-size="10.00">Database::IBackend</text>
<text text-anchor="middle" x="219.75" y="-86.12" font-family="Helvetica,sans-Serif" font-size="10.00">::update</text>
</a>
</g>
</g>
<!-- Node2 -->
<g id="Node000002" class="node">
<title>Node2</title>
<g id="a_Node000002"><a xlink:href="../../d4/dd6/class_photos_data_guesser.html#a6af361bc3eec4228a6c171e97126af1d" target="_top" xlink:title=" ">
<polygon fill="white" stroke="#666666" points="120.25,-190.88 12,-190.88 12,-160.38 120.25,-160.38 120.25,-190.88"/>
<text text-anchor="start" x="20" y="-177.38" font-family="Helvetica,sans-Serif" font-size="10.00">PhotosDataGuesser::</text>
<text text-anchor="middle" x="66.12" y="-166.12" font-family="Helvetica,sans-Serif" font-size="10.00">applyRows</text>
</a>
</g>
</g>
<!-- Node1&#45;&gt;Node2 -->
<g id="edge1_Node000001_Node000002" class="edge">
<title>Node1&#45;&gt;Node2</title>
<g id="a_edge1_Node000001_Node000002"><a xlink:title=" ">
<path fill="none" stroke="#63b8ff" d="M188.07,-117.87C171.96,-128.92 151.59,-141.95 132.25,-151.62 126.32,-154.59 119.94,-157.39 113.56,-159.96"/>
<polygon fill="#63b8ff" stroke="#63b8ff" points="190.06,-120.74 196.26,-112.15 186.06,-115 190.06,-120.74"/>
</a>
</g>
</g>
<!-- Node3 -->
<g id="Node000003" class="node">
<title>Node3</title>
<g id="a_Node000003"><a xlink:href="../../dd/d0a/class_face_editor.html#acd98f4936f0f9f4672c64a49c101442d" target="_top" xlink:title=" ">
<polygon fill="#fff0f0" stroke="red" points="120.62,-142.25 11.62,-142.25 11.62,-123 120.62,-123 120.62,-142.25"/>
<text text-anchor="middle" x="66.12" y="-128.75" font-family="Helvetica,sans-Serif" font-size="10.00">FaceEditor::findFaces</text>
</a>
</g>
</g>
<!-- Node1&#45;&gt;Node3 -->
<g id="edge2_Node000001_Node000003" class="edge">
<title>Node1&#45;&gt;Node3</title>
<g id="a_edge2_Node000001_Node000003"><a xlink:title=" ">
<path fill="none" stroke="#63b8ff" d="M156.78,-110.75C140.55,-114.71 123.45,-118.88 108.58,-122.51"/>
<polygon fill="#63b8ff" stroke="#63b8ff" points="157.48,-114.18 166.37,-108.41 155.82,-107.38 157.48,-114.18"/>
</a>
</g>
</g>
<!-- Node6 -->
<g id="Node000006" class="node">
<title>Node6</title>
<g id="a_Node000006"><a xlink:href="../../df/d40/namespace_groups_manager.html#a36d06be40255e8a0134e20f37a9da47b" target="_top" xlink:title=" ">
<polygon fill="white" stroke="#666666" points="122.88,-105.25 9.38,-105.25 9.38,-86 122.88,-86 122.88,-105.25"/>
<text text-anchor="middle" x="66.12" y="-91.75" font-family="Helvetica,sans-Serif" font-size="10.00">GroupsManager::group</text>
</a>
</g>
</g>
<!-- Node1&#45;&gt;Node6 -->
<g id="edge3_Node000001_Node000006" class="edge">
<title>Node1&#45;&gt;Node6</title>
<g id="a_edge3_Node000001_Node000006"><a xlink:title=" ">
<path fill="none" stroke="#63b8ff" d="M156.5,-95.62C145.44,-95.62 133.99,-95.62 123.11,-95.62"/>
<polygon fill="#63b8ff" stroke="#63b8ff" points="156.33,-99.13 166.33,-95.63 156.33,-92.13 156.33,-99.13"/>
</a>
</g>
</g>
<!-- Node7 -->
<g id="Node000007" class="node">
<title>Node7</title>
<g id="a_Node000007"><a xlink:href="../../d6/db9/class_database_1_1_json_to_backend.html#a75985a468b427340d7ee01267c32fe86" target="_top" xlink:title=" ">
<polygon fill="#fff0f0" stroke="red" points="132.25,-67.88 0,-67.88 0,-37.38 132.25,-37.38 132.25,-67.88"/>
<text text-anchor="start" x="8" y="-54.38" font-family="Helvetica,sans-Serif" font-size="10.00">Database::JsonToBackend</text>
<text text-anchor="middle" x="66.12" y="-43.12" font-family="Helvetica,sans-Serif" font-size="10.00">::parseGroups</text>
</a>
</g>
</g>
<!-- Node1&#45;&gt;Node7 -->
<g id="edge4_Node000001_Node000007" class="edge">
<title>Node1&#45;&gt;Node7</title>
<g id="a_edge4_Node000001_Node000007"><a xlink:title=" ">
<path fill="none" stroke="#63b8ff" d="M157.07,-78.13C145.66,-74.9 133.8,-71.53 122.59,-68.35"/>
<polygon fill="#63b8ff" stroke="#63b8ff" points="155.81,-81.41 166.38,-80.77 157.72,-74.68 155.81,-81.41"/>
</a>
</g>
</g>
<!-- Node9 -->
<g id="Node000009" class="node">
<title>Node9</title>
<g id="a_Node000009"><a xlink:href="../../d8/d67/class_tags_operator.html#aa6ec7f69096cee8febd2182a882f5bbd" target="_top" xlink:title=" ">
<polygon fill="#fff0f0" stroke="red" points="121,-19.25 11.25,-19.25 11.25,0 121,0 121,-19.25"/>
<text text-anchor="middle" x="66.12" y="-5.75" font-family="Helvetica,sans-Serif" font-size="10.00">TagsOperator::setTag</text>
</a>
</g>
</g>
<!-- Node1&#45;&gt;Node9 -->
<g id="edge5_Node000001_Node000009" class="edge">
<title>Node1&#45;&gt;Node9</title>
<g id="a_edge5_Node000001_Node000009"><a xlink:title=" ">
<path fill="none" stroke="#63b8ff" d="M194.05,-72.41C177.62,-58.04 154.95,-40.2 132.25,-28.62 125.32,-25.09 117.64,-22.12 110.05,-19.65"/>
<polygon fill="#63b8ff" stroke="#63b8ff" points="191.58,-74.9 201.37,-78.96 196.25,-69.68 191.58,-74.9"/>
</a>
</g>
</g>
</g>
</svg>
