<?xml version="1.0" encoding="UTF-8" standalone="no"?>
<!DOCTYPE svg PUBLIC "-//W3C//DTD SVG 1.1//EN"
 "http://www.w3.org/Graphics/SVG/1.1/DTD/svg11.dtd">
<!-- Generated by graphviz version 9.0.0 (20230911.1827)
 -->
<!-- Title: Database::IBackend::update Pages: 1 -->
<svg width="279pt" height="150pt"
 viewBox="0.00 0.00 279.25 150.25" xmlns="http://www.w3.org/2000/svg" xmlns:xlink="http://www.w3.org/1999/xlink">

<svg id="main" version="1.1" xmlns="http://www.w3.org/2000/svg" xmlns:xlink="http://www.w3.org/1999/xlink" xml:space="preserve" onload="init(evt)">
<style type="text/css"><![CDATA[
.node, .edge {opacity: 0.7;}
.node.selected, .edge.selected {opacity: 1;}
.edge:hover path { stroke: red; }
.edge:hover polygon { stroke: red; fill: red; }
]]></style>
<script type="application/ecmascript" xlink:href="../../svg.min.js"/>
<svg id="graph" class="graph">
<g id="graph0" class="graph" transform="scale(1 1) rotate(0) translate(4 146.25)">
<title>Database::IBackend::update</title>
<!-- Node1 -->
<g id="Node000001" class="node">
<title>Node1</title>
<g id="a_Node000001"><a xlink:title="update photos details">
<polygon fill="#999999" stroke="#666666" points="271.25,-88.88 168.25,-88.88 168.25,-58.38 271.25,-58.38 271.25,-88.88"/>
<text text-anchor="start" x="176.25" y="-75.38" font-family="Helvetica,sans-Serif" font-size="10.00">Database::IBackend</text>
<text text-anchor="middle" x="219.75" y="-64.12" font-family="Helvetica,sans-Serif" font-size="10.00">::update</text>
</a>
</g>
</g>
<!-- Node2 -->
<g id="Node000002" class="node">
<title>Node2</title>
<g id="a_Node000002"><a xlink:href="../../dd/d0a/class_face_editor.html#acd98f4936f0f9f4672c64a49c101442d" target="_top" xlink:title=" ">
<polygon fill="#fff0f0" stroke="red" points="120.62,-142.25 11.62,-142.25 11.62,-123 120.62,-123 120.62,-142.25"/>
<text text-anchor="middle" x="66.12" y="-128.75" font-family="Helvetica,sans-Serif" font-size="10.00">FaceEditor::findFaces</text>
</a>
</g>
</g>
<!-- Node1&#45;&gt;Node2 -->
<g id="edge1_Node000001_Node000002" class="edge">
<title>Node1&#45;&gt;Node2</title>
<g id="a_edge1_Node000001_Node000002"><a xlink:title=" ">
<path fill="none" stroke="#63b8ff" d="M178.79,-94.34C164.36,-101.34 147.79,-108.84 132.25,-114.62 124.44,-117.53 115.96,-120.21 107.77,-122.56"/>
<polygon fill="#63b8ff" stroke="#63b8ff" points="180.1,-97.59 187.52,-90.02 177.01,-91.31 180.1,-97.59"/>
</a>
</g>
</g>
<!-- Node5 -->
<g id="Node000005" class="node">
<title>Node5</title>
<g id="a_Node000005"><a xlink:href="../../df/d40/namespace_groups_manager.html#a36d06be40255e8a0134e20f37a9da47b" target="_top" xlink:title=" ">
<polygon fill="white" stroke="#666666" points="122.88,-105.25 9.38,-105.25 9.38,-86 122.88,-86 122.88,-105.25"/>
<text text-anchor="middle" x="66.12" y="-91.75" font-family="Helvetica,sans-Serif" font-size="10.00">GroupsManager::group</text>
</a>
</g>
</g>
<!-- Node1&#45;&gt;Node5 -->
<g id="edge2_Node000001_Node000005" class="edge">
<title>Node1&#45;&gt;Node5</title>
<g id="a_edge2_Node000001_Node000005"><a xlink:title=" ">
<path fill="none" stroke="#63b8ff" d="M156.5,-82.66C145.44,-84.26 133.99,-85.92 123.11,-87.5"/>
<polygon fill="#63b8ff" stroke="#63b8ff" points="156.95,-86.13 166.34,-81.23 155.94,-79.2 156.95,-86.13"/>
</a>
</g>
</g>
<!-- Node6 -->
<g id="Node000006" class="node">
<title>Node6</title>
<g id="a_Node000006"><a xlink:href="../../d6/db9/class_database_1_1_json_to_backend.html#a75985a468b427340d7ee01267c32fe86" target="_top" xlink:title=" ">
<polygon fill="#fff0f0" stroke="red" points="132.25,-67.88 0,-67.88 0,-37.38 132.25,-37.38 132.25,-67.88"/>
<text text-anchor="start" x="8" y="-54.38" font-family="Helvetica,sans-Serif" font-size="10.00">Database::JsonToBackend</text>
<text text-anchor="middle" x="66.12" y="-43.12" font-family="Helvetica,sans-Serif" font-size="10.00">::parseGroups</text>
</a>
</g>
</g>
<!-- Node1&#45;&gt;Node6 -->
<g id="edge3_Node000001_Node000006" class="edge">
<title>Node1&#45;&gt;Node6</title>
<g id="a_edge3_Node000001_Node000006"><a xlink:title=" ">
<path fill="none" stroke="#63b8ff" d="M156.52,-65.01C148.67,-63.92 140.61,-62.8 132.71,-61.71"/>
<polygon fill="#63b8ff" stroke="#63b8ff" points="155.95,-68.46 166.34,-66.37 156.91,-61.53 155.95,-68.46"/>
</a>
</g>
</g>
<!-- Node8 -->
<g id="Node000008" class="node">
<title>Node8</title>
<g id="a_Node000008"><a xlink:href="../../d8/d67/class_tags_operator.html#aa6ec7f69096cee8febd2182a882f5bbd" target="_top" xlink:title=" ">
<polygon fill="#fff0f0" stroke="red" points="121,-19.25 11.25,-19.25 11.25,0 121,0 121,-19.25"/>
<text text-anchor="middle" x="66.12" y="-5.75" font-family="Helvetica,sans-Serif" font-size="10.00">TagsOperator::setTag</text>
</a>
</g>
</g>
<!-- Node1&#45;&gt;Node8 -->
<g id="edge4_Node000001_Node000008" class="edge">
<title>Node1&#45;&gt;Node8</title>
<g id="a_edge4_Node000001_Node000008"><a xlink:title=" ">
<path fill="none" stroke="#63b8ff" d="M182.14,-52.55C167.01,-44.38 149.1,-35.39 132.25,-28.62 123.94,-25.29 114.83,-22.26 106.12,-19.65"/>
<polygon fill="#63b8ff" stroke="#63b8ff" points="180.35,-55.56 190.8,-57.31 183.72,-49.43 180.35,-55.56"/>
</a>
</g>
</g>
</g>
</svg>
</svg>

<style type='text/css'>
<![CDATA[
[data-mouse-over-selected='false'] { opacity: 0.7; }
[data-mouse-over-selected='true']  { opacity: 1.0; }
]]>
</style>
<script type="application/ecmascript"><![CDATA[
document.addEventListener('DOMContentLoaded', (event) => {
  highlightEdges();
  highlightAdjacentNodes();
});
]]></script>
</svg>
