<?xml version="1.0" encoding="UTF-8" standalone="no"?>
<!DOCTYPE svg PUBLIC "-//W3C//DTD SVG 1.1//EN"
 "http://www.w3.org/Graphics/SVG/1.1/DTD/svg11.dtd">
<!-- Generated by graphviz version 7.0.5 (20221223.1930)
 -->
<!-- Title: SeriesModel::group Pages: 1 -->
<svg width="422pt" height="199pt"
 viewBox="0.00 0.00 422.00 199.00" xmlns="http://www.w3.org/2000/svg" xmlns:xlink="http://www.w3.org/1999/xlink">
<g id="graph0" class="graph" transform="scale(1 1) rotate(0) translate(4 195)">
<title>SeriesModel::group</title>
<!-- Node1 -->
<g id="node1" class="node">
<title>Node1</title>
<g id="a_node1"><a xlink:title=" ">
<polygon fill="#999999" stroke="#666666" points="99,-110 0,-110 0,-91 99,-91 99,-110"/>
<text text-anchor="middle" x="49.5" y="-98" font-family="Helvetica,sans-Serif" font-size="10.00">SeriesModel::group</text>
</a>
</g>
</g>
<!-- Node2 -->
<g id="node2" class="node">
<title>Node2</title>
<g id="a_node2"><a xlink:href="../../d5/d0f/class_series_model.html#acfb8dbae5970d0cadf30486573ee7829" target="_top" xlink:title=" ">
<polygon fill="white" stroke="#666666" points="248.5,-191 152.5,-191 152.5,-172 248.5,-172 248.5,-191"/>
<text text-anchor="middle" x="200.5" y="-179" font-family="Helvetica,sans-Serif" font-size="10.00">SeriesModel::clear</text>
</a>
</g>
</g>
<!-- Node1&#45;&gt;Node2 -->
<g id="edge1" class="edge">
<title>Node1&#45;&gt;Node2</title>
<path fill="none" stroke="#63b8ff" d="M63.08,-110.39C79.09,-122.64 107.93,-143.58 135,-157.5 142.15,-161.18 150,-164.58 157.68,-167.59"/>
<polygon fill="#63b8ff" stroke="#63b8ff" points="156.34,-170.83 166.93,-171.06 158.8,-164.27 156.34,-170.83"/>
</g>
<!-- Node3 -->
<g id="node3" class="node">
<title>Node3</title>
<g id="a_node3"><a xlink:href="../../d5/d0f/class_series_model.html#a8cc445abc5d3f700f77c97a02702c1c0" target="_top" xlink:title=" ">
<polygon fill="white" stroke="#666666" points="414,-172 302,-172 302,-153 414,-153 414,-172"/>
<text text-anchor="middle" x="358" y="-160" font-family="Helvetica,sans-Serif" font-size="10.00">SeriesModel::setState</text>
</a>
</g>
</g>
<!-- Node1&#45;&gt;Node3 -->
<g id="edge6" class="edge">
<title>Node1&#45;&gt;Node3</title>
<path fill="none" stroke="#63b8ff" d="M82.39,-110.43C98.13,-115.11 117.45,-120.52 135,-124.5 186.92,-136.28 246.4,-146.28 290.72,-153.06"/>
<polygon fill="#63b8ff" stroke="#63b8ff" points="290.03,-156.49 300.44,-154.53 291.08,-149.57 290.03,-156.49"/>
</g>
<!-- Node4 -->
<g id="node4" class="node">
<title>Node4</title>
<g id="a_node4"><a xlink:href="../../d5/da9/struct_i_core_factory_accessor.html#a12bdf68322c9355be7d4351064c2973f" target="_top" xlink:title=" ">
<polygon fill="white" stroke="#666666" points="257,-115.5 144,-115.5 144,-85.5 257,-85.5 257,-115.5"/>
<text text-anchor="start" x="152" y="-103.5" font-family="Helvetica,sans-Serif" font-size="10.00">ICoreFactoryAccessor</text>
<text text-anchor="middle" x="200.5" y="-92.5" font-family="Helvetica,sans-Serif" font-size="10.00">::getTaskExecutor</text>
</a>
</g>
</g>
<!-- Node1&#45;&gt;Node4 -->
<g id="edge3" class="edge">
<title>Node1&#45;&gt;Node4</title>
<path fill="none" stroke="#63b8ff" d="M99.29,-100.5C109.81,-100.5 121.11,-100.5 132.19,-100.5"/>
<polygon fill="#63b8ff" stroke="#63b8ff" points="132.11,-104 142.11,-100.5 132.11,-97 132.11,-104"/>
</g>
<!-- Node5 -->
<g id="node5" class="node">
<title>Node5</title>
<g id="a_node5"><a xlink:href="../../df/d40/namespace_groups_manager.html#a641e41f272b8c7c01a4bdf7c0bcfb3cb" target="_top" xlink:title=" ">
<polygon fill="#fff0f0" stroke="red" points="266,-67.5 135,-67.5 135,-37.5 266,-37.5 266,-67.5"/>
<text text-anchor="start" x="143" y="-55.5" font-family="Helvetica,sans-Serif" font-size="10.00">GroupsManager::groupInto</text>
<text text-anchor="middle" x="200.5" y="-44.5" font-family="Helvetica,sans-Serif" font-size="10.00">Unified</text>
</a>
</g>
</g>
<!-- Node1&#45;&gt;Node5 -->
<g id="edge4" class="edge">
<title>Node1&#45;&gt;Node5</title>
<path fill="none" stroke="#63b8ff" d="M81.37,-90.55C98.57,-85.01 120.55,-77.93 140.88,-71.38"/>
<polygon fill="#63b8ff" stroke="#63b8ff" points="141.76,-74.78 150.21,-68.38 139.62,-68.11 141.76,-74.78"/>
</g>
<!-- Node7 -->
<g id="node6" class="node">
<title>Node7</title>
<g id="a_node6"><a xlink:href="../../d4/d20/task__executor__utils_8hpp.html#a2ca7a07566bec22218321fdca74d520f" target="_top" xlink:title=" ">
<polygon fill="#fff0f0" stroke="red" points="222,-19 179,-19 179,0 222,0 222,-19"/>
<text text-anchor="middle" x="200.5" y="-7" font-family="Helvetica,sans-Serif" font-size="10.00">runOn</text>
</a>
</g>
</g>
<!-- Node1&#45;&gt;Node7 -->
<g id="edge5" class="edge">
<title>Node1&#45;&gt;Node7</title>
<path fill="none" stroke="#63b8ff" d="M59.39,-90.62C73.8,-75.19 103.81,-45.38 135,-28.5 145.03,-23.07 156.79,-19.02 167.51,-16.09"/>
<polygon fill="#63b8ff" stroke="#63b8ff" points="168.27,-19.5 177.13,-13.69 166.58,-12.71 168.27,-19.5"/>
</g>
<!-- Node2&#45;&gt;Node3 -->
<g id="edge2" class="edge">
<title>Node2&#45;&gt;Node3</title>
<path fill="none" stroke="#63b8ff" d="M248.58,-175.75C261.77,-174.14 276.36,-172.35 290.45,-170.63"/>
<polygon fill="#63b8ff" stroke="#63b8ff" points="290.6,-174.14 300.11,-169.45 289.75,-167.19 290.6,-174.14"/>
</g>
</g>
</svg>
