<?xml version="1.0" encoding="UTF-8" standalone="no"?>
<!DOCTYPE svg PUBLIC "-//W3C//DTD SVG 1.1//EN"
 "http://www.w3.org/Graphics/SVG/1.1/DTD/svg11.dtd">
<!-- Generated by graphviz version 7.0.5 (20221223.1930)
 -->
<!-- Title: SeriesModel::applyRows Pages: 1 -->
<svg width="338pt" height="172pt"
 viewBox="0.00 0.00 338.00 171.50" xmlns="http://www.w3.org/2000/svg" xmlns:xlink="http://www.w3.org/1999/xlink">
<g id="graph0" class="graph" transform="scale(1 1) rotate(0) translate(4 167.5)">
<title>SeriesModel::applyRows</title>
<!-- Node1 -->
<g id="node1" class="node">
<title>Node1</title>
<g id="a_node1"><a xlink:title=" ">
<polygon fill="#999999" stroke="#666666" points="122,-86 0,-86 0,-67 122,-67 122,-86"/>
<text text-anchor="middle" x="61" y="-74" font-family="Helvetica,sans-Serif" font-size="10.00">SeriesModel::applyRows</text>
</a>
</g>
</g>
<!-- Node2 -->
<g id="node2" class="node">
<title>Node2</title>
<g id="a_node2"><a xlink:href="../../d5/da9/struct_i_core_factory_accessor.html#a12bdf68322c9355be7d4351064c2973f" target="_top" xlink:title=" ">
<polygon fill="white" stroke="#666666" points="300.5,-163.5 187.5,-163.5 187.5,-133.5 300.5,-133.5 300.5,-163.5"/>
<text text-anchor="start" x="195.5" y="-151.5" font-family="Helvetica,sans-Serif" font-size="10.00">ICoreFactoryAccessor</text>
<text text-anchor="middle" x="244" y="-140.5" font-family="Helvetica,sans-Serif" font-size="10.00">::getTaskExecutor</text>
</a>
</g>
</g>
<!-- Node1&#45;&gt;Node2 -->
<g id="edge1" class="edge">
<title>Node1&#45;&gt;Node2</title>
<path fill="none" stroke="#63b8ff" d="M79.24,-86.37C98.12,-96.87 129.5,-113.47 158,-124.5 163.95,-126.81 170.22,-129 176.54,-131.05"/>
<polygon fill="#63b8ff" stroke="#63b8ff" points="175.14,-134.28 185.73,-133.92 177.23,-127.6 175.14,-134.28"/>
</g>
<!-- Node3 -->
<g id="node3" class="node">
<title>Node3</title>
<g id="a_node3"><a xlink:href="../../df/d40/namespace_groups_manager.html#a641e41f272b8c7c01a4bdf7c0bcfb3cb" target="_top" xlink:title=" ">
<polygon fill="#fff0f0" stroke="red" points="309.5,-115.5 178.5,-115.5 178.5,-85.5 309.5,-85.5 309.5,-115.5"/>
<text text-anchor="start" x="186.5" y="-103.5" font-family="Helvetica,sans-Serif" font-size="10.00">GroupsManager::groupInto</text>
<text text-anchor="middle" x="244" y="-92.5" font-family="Helvetica,sans-Serif" font-size="10.00">Unified</text>
</a>
</g>
</g>
<!-- Node1&#45;&gt;Node3 -->
<g id="edge2" class="edge">
<title>Node1&#45;&gt;Node3</title>
<path fill="none" stroke="#63b8ff" d="M122.27,-84.49C136.53,-86.38 151.92,-88.42 166.78,-90.39"/>
<polygon fill="#63b8ff" stroke="#63b8ff" points="166.14,-93.84 176.52,-91.68 167.06,-86.9 166.14,-93.84"/>
</g>
<!-- Node5 -->
<g id="node4" class="node">
<title>Node5</title>
<g id="a_node4"><a xlink:href="../../de/d3a/class_a_heavy_list_model.html#ae349dd2d37ecf62351edb275c39065d3" target="_top" xlink:title=" ">
<polygon fill="white" stroke="#666666" points="330,-67.5 158,-67.5 158,-37.5 330,-37.5 330,-67.5"/>
<text text-anchor="start" x="166" y="-55.5" font-family="Helvetica,sans-Serif" font-size="10.00">AHeavyListModel&lt; GroupCandidate</text>
<text text-anchor="middle" x="244" y="-44.5" font-family="Helvetica,sans-Serif" font-size="10.00"> &gt;::internalData</text>
</a>
</g>
</g>
<!-- Node1&#45;&gt;Node5 -->
<g id="edge3" class="edge">
<title>Node1&#45;&gt;Node5</title>
<path fill="none" stroke="#63b8ff" d="M122.27,-68.51C130.05,-67.48 138.16,-66.4 146.34,-65.32"/>
<polygon fill="#63b8ff" stroke="#63b8ff" points="146.56,-68.82 156.01,-64.03 145.64,-61.88 146.56,-68.82"/>
</g>
<!-- Node6 -->
<g id="node5" class="node">
<title>Node6</title>
<g id="a_node5"><a xlink:href="../../d4/d20/task__executor__utils_8hpp.html#a2ca7a07566bec22218321fdca74d520f" target="_top" xlink:title=" ">
<polygon fill="#fff0f0" stroke="red" points="265.5,-19 222.5,-19 222.5,0 265.5,0 265.5,-19"/>
<text text-anchor="middle" x="244" y="-7" font-family="Helvetica,sans-Serif" font-size="10.00">runOn</text>
</a>
</g>
</g>
<!-- Node1&#45;&gt;Node6 -->
<g id="edge4" class="edge">
<title>Node1&#45;&gt;Node6</title>
<path fill="none" stroke="#63b8ff" d="M78.79,-66.52C97.53,-55.77 129.03,-38.8 158,-28.5 175.2,-22.38 195.07,-17.81 211.28,-14.69"/>
<polygon fill="#63b8ff" stroke="#63b8ff" points="211.64,-18.18 220.85,-12.94 210.39,-11.29 211.64,-18.18"/>
</g>
</g>
</svg>
