<?xml version="1.0" encoding="UTF-8" standalone="no"?>
<!DOCTYPE svg PUBLIC "-//W3C//DTD SVG 1.1//EN"
 "http://www.w3.org/Graphics/SVG/1.1/DTD/svg11.dtd">
<!-- Generated by graphviz version 7.0.5 (20221223.1930)
 -->
<!-- Title: SeriesModel::fetchGroups Pages: 1 -->
<svg width="467pt" height="274pt"
 viewBox="0.00 0.00 467.00 274.00" xmlns="http://www.w3.org/2000/svg" xmlns:xlink="http://www.w3.org/1999/xlink">
<g id="graph0" class="graph" transform="scale(1 1) rotate(0) translate(4 270)">
<title>SeriesModel::fetchGroups</title>
<!-- Node1 -->
<g id="node1" class="node">
<title>Node1</title>
<g id="a_node1"><a xlink:title=" ">
<polygon fill="#999999" stroke="#666666" points="128,-138 0,-138 0,-119 128,-119 128,-138"/>
<text text-anchor="middle" x="64" y="-126" font-family="Helvetica,sans-Serif" font-size="10.00">SeriesModel::fetchGroups</text>
</a>
</g>
</g>
<!-- Node2 -->
<g id="node2" class="node">
<title>Node2</title>
<g id="a_node2"><a xlink:href="../../db/d10/struct_i_exif_reader_factory.html#a6f4cc75439d6811b6a1d16adde249c48" target="_top" xlink:title=" ">
<polygon fill="white" stroke="#666666" points="295.5,-266 179.5,-266 179.5,-247 295.5,-247 295.5,-266"/>
<text text-anchor="middle" x="237.5" y="-254" font-family="Helvetica,sans-Serif" font-size="10.00">IExifReaderFactory::get</text>
</a>
</g>
</g>
<!-- Node1&#45;&gt;Node2 -->
<g id="edge1" class="edge">
<title>Node1&#45;&gt;Node2</title>
<path fill="none" stroke="#63b8ff" d="M70.81,-138.19C84.3,-159.79 119.94,-212.05 164,-238.5 166.17,-239.8 168.43,-241.01 170.75,-242.13"/>
<polygon fill="#63b8ff" stroke="#63b8ff" points="169.29,-245.31 179.86,-245.92 171.98,-238.85 169.29,-245.31"/>
</g>
<!-- Node3 -->
<g id="node3" class="node">
<title>Node3</title>
<g id="a_node3"><a xlink:href="../../d9/d6e/class_project.html#a6d94d817c1233702908c063886bb5701" target="_top" xlink:title=" ">
<polygon fill="white" stroke="#666666" points="291,-229 184,-229 184,-210 291,-210 291,-229"/>
<text text-anchor="middle" x="237.5" y="-217" font-family="Helvetica,sans-Serif" font-size="10.00">Project::getDatabase</text>
</a>
</g>
</g>
<!-- Node1&#45;&gt;Node3 -->
<g id="edge2" class="edge">
<title>Node1&#45;&gt;Node3</title>
<path fill="none" stroke="#63b8ff" d="M75.7,-138.41C92.98,-153.88 128.66,-183.75 164,-200.5 168.3,-202.54 172.85,-204.38 177.49,-206.04"/>
<polygon fill="#63b8ff" stroke="#63b8ff" points="176.38,-209.36 186.97,-209.13 178.55,-202.71 176.38,-209.36"/>
</g>
<!-- Node4 -->
<g id="node4" class="node">
<title>Node4</title>
<g id="a_node4"><a xlink:href="../../d5/da9/struct_i_core_factory_accessor.html#ad612fe4d0ff4ea127117eda6865ecd60" target="_top" xlink:title=" ">
<polygon fill="white" stroke="#666666" points="294,-191.5 181,-191.5 181,-161.5 294,-161.5 294,-191.5"/>
<text text-anchor="start" x="189" y="-179.5" font-family="Helvetica,sans-Serif" font-size="10.00">ICoreFactoryAccessor</text>
<text text-anchor="middle" x="237.5" y="-168.5" font-family="Helvetica,sans-Serif" font-size="10.00">::getExifReaderFactory</text>
</a>
</g>
</g>
<!-- Node1&#45;&gt;Node4 -->
<g id="edge3" class="edge">
<title>Node1&#45;&gt;Node4</title>
<path fill="none" stroke="#63b8ff" d="M100.53,-138.45C120.78,-144.11 146.8,-151.4 170.65,-158.07"/>
<polygon fill="#63b8ff" stroke="#63b8ff" points="169.39,-161.35 179.96,-160.68 171.28,-154.61 169.39,-161.35"/>
</g>
<!-- Node5 -->
<g id="node5" class="node">
<title>Node5</title>
<g id="a_node5"><a xlink:href="../../d5/da9/struct_i_core_factory_accessor.html#a12bdf68322c9355be7d4351064c2973f" target="_top" xlink:title=" ">
<polygon fill="white" stroke="#666666" points="294,-143.5 181,-143.5 181,-113.5 294,-113.5 294,-143.5"/>
<text text-anchor="start" x="189" y="-131.5" font-family="Helvetica,sans-Serif" font-size="10.00">ICoreFactoryAccessor</text>
<text text-anchor="middle" x="237.5" y="-120.5" font-family="Helvetica,sans-Serif" font-size="10.00">::getTaskExecutor</text>
</a>
</g>
</g>
<!-- Node1&#45;&gt;Node5 -->
<g id="edge4" class="edge">
<title>Node1&#45;&gt;Node5</title>
<path fill="none" stroke="#63b8ff" d="M128.37,-128.5C141.79,-128.5 156,-128.5 169.54,-128.5"/>
<polygon fill="#63b8ff" stroke="#63b8ff" points="169.22,-132 179.22,-128.5 169.22,-125 169.22,-132"/>
</g>
<!-- Node6 -->
<g id="node6" class="node">
<title>Node6</title>
<g id="a_node6"><a xlink:href="../../d3/df6/class_series_detector.html#a7fb133fe47e82c32db512738a9e02742" target="_top" xlink:title=" ">
<polygon fill="#fff0f0" stroke="red" points="311,-95 164,-95 164,-76 311,-76 311,-95"/>
<text text-anchor="middle" x="237.5" y="-83" font-family="Helvetica,sans-Serif" font-size="10.00">SeriesDetector::listCandidates</text>
</a>
</g>
</g>
<!-- Node1&#45;&gt;Node6 -->
<g id="edge5" class="edge">
<title>Node1&#45;&gt;Node6</title>
<path fill="none" stroke="#63b8ff" d="M104.78,-118.53C128.83,-112.5 159.72,-104.75 185.55,-98.27"/>
<polygon fill="#63b8ff" stroke="#63b8ff" points="186.33,-101.69 195.17,-95.86 184.62,-94.9 186.33,-101.69"/>
</g>
<!-- Node16 -->
<g id="node7" class="node">
<title>Node16</title>
<g id="a_node7"><a xlink:href="../../d5/d0f/class_series_model.html#a8cc445abc5d3f700f77c97a02702c1c0" target="_top" xlink:title=" ">
<polygon fill="white" stroke="#666666" points="459,-38 347,-38 347,-19 459,-19 459,-38"/>
<text text-anchor="middle" x="403" y="-26" font-family="Helvetica,sans-Serif" font-size="10.00">SeriesModel::setState</text>
</a>
</g>
</g>
<!-- Node1&#45;&gt;Node16 -->
<g id="edge6" class="edge">
<title>Node1&#45;&gt;Node16</title>
<path fill="none" stroke="#63b8ff" d="M77.29,-118.69C95.23,-104.93 130.15,-80.14 164,-67.5 219.56,-46.76 286.5,-37.03 335.22,-32.48"/>
<polygon fill="#63b8ff" stroke="#63b8ff" points="335.4,-35.97 345.06,-31.61 334.79,-29 335.4,-35.97"/>
</g>
<!-- Node17 -->
<g id="node8" class="node">
<title>Node17</title>
<g id="a_node8"><a xlink:href="../../d5/d0f/class_series_model.html#a2796b6d6d211c713920e5aa8a90046f5" target="_top" xlink:title=" ">
<polygon fill="white" stroke="#666666" points="303,-19 172,-19 172,0 303,0 303,-19"/>
<text text-anchor="middle" x="237.5" y="-7" font-family="Helvetica,sans-Serif" font-size="10.00">SeriesModel::updateModel</text>
</a>
</g>
</g>
<!-- Node1&#45;&gt;Node17 -->
<g id="edge7" class="edge">
<title>Node1&#45;&gt;Node17</title>
<path fill="none" stroke="#63b8ff" d="M72.64,-118.68C87.97,-99.61 124.42,-57.35 164,-33.5 170.56,-29.55 177.86,-26.16 185.22,-23.27"/>
<polygon fill="#63b8ff" stroke="#63b8ff" points="186.32,-26.6 194.54,-19.92 183.95,-20.01 186.32,-26.6"/>
</g>
<!-- Node17&#45;&gt;Node16 -->
<g id="edge8" class="edge">
<title>Node17&#45;&gt;Node16</title>
<path fill="none" stroke="#63b8ff" d="M303.12,-17.01C313.67,-18.24 324.63,-19.51 335.23,-20.74"/>
<polygon fill="#63b8ff" stroke="#63b8ff" points="334.72,-24.21 345.06,-21.88 335.53,-17.25 334.72,-24.21"/>
</g>
</g>
</svg>
