<?xml version="1.0" encoding="UTF-8" standalone="no"?>
<!DOCTYPE svg PUBLIC "-//W3C//DTD SVG 1.1//EN"
 "http://www.w3.org/Graphics/SVG/1.1/DTD/svg11.dtd">
<!-- Generated by graphviz version 12.2.0 (20241103.1931)
 -->
<!-- Title: Recognizer::recognize Pages: 1 -->
<svg width="288pt" height="150pt"
 viewBox="0.00 0.00 288.25 149.88" xmlns="http://www.w3.org/2000/svg" xmlns:xlink="http://www.w3.org/1999/xlink">
<g id="graph0" class="graph" transform="scale(1 1) rotate(0) translate(4 145.88)">
<title>Recognizer::recognize</title>
<!-- Node1 -->
<g id="Node000001" class="node">
<title>Node1</title>
<g id="a_Node000001"><a xlink:title=" ">
<polygon fill="#999999" stroke="#666666" points="109.75,-74.25 0,-74.25 0,-55 109.75,-55 109.75,-74.25"/>
<text text-anchor="middle" x="54.88" y="-60.75" font-family="Helvetica,sans-Serif" font-size="10.00">Recognizer::recognize</text>
</a>
</g>
</g>
<!-- Node2 -->
<g id="Node000002" class="node">
<title>Node2</title>
<g id="a_Node000002"><a xlink:href="../../da/d2c/class_person_fingerprint.html#ac43a7e13307c7744e92bfd94bdb470f8" target="_top" xlink:title=" ">
<polygon fill="white" stroke="#666666" points="261.5,-141.88 164.5,-141.88 164.5,-111.38 261.5,-111.38 261.5,-141.88"/>
<text text-anchor="start" x="172.5" y="-128.38" font-family="Helvetica,sans-Serif" font-size="10.00">PersonFingerprint::</text>
<text text-anchor="middle" x="213" y="-117.12" font-family="Helvetica,sans-Serif" font-size="10.00">fingerprint</text>
</a>
</g>
</g>
<!-- Node1&#45;&gt;Node2 -->
<g id="edge1_Node000001_Node000002" class="edge">
<title>Node1&#45;&gt;Node2</title>
<g id="a_edge1_Node000001_Node000002"><a xlink:title=" ">
<path fill="none" stroke="#63b8ff" d="M78.64,-74.64C96.73,-82.5 122.72,-93.59 145.75,-102.62 149.39,-104.05 153.16,-105.5 156.96,-106.94"/>
<polygon fill="#63b8ff" stroke="#63b8ff" points="155.68,-110.19 166.27,-110.41 158.12,-103.64 155.68,-110.19"/>
</a>
</g>
</g>
<!-- Node3 -->
<g id="Node000003" class="node">
<title>Node3</title>
<g id="a_Node000003"><a xlink:href="../../db/de4/class_person_name.html#aee0d4971d8f4ed356107c4b635830e6d" target="_top" xlink:title=" ">
<polygon fill="white" stroke="#666666" points="263.75,-93.25 162.25,-93.25 162.25,-74 263.75,-74 263.75,-93.25"/>
<text text-anchor="middle" x="213" y="-79.75" font-family="Helvetica,sans-Serif" font-size="10.00">PersonName::name</text>
</a>
</g>
</g>
<!-- Node1&#45;&gt;Node3 -->
<g id="edge2_Node000001_Node000003" class="edge">
<title>Node1&#45;&gt;Node3</title>
<g id="a_edge2_Node000001_Node000003"><a xlink:title=" ">
<path fill="none" stroke="#63b8ff" d="M110.04,-71.22C123.18,-72.82 137.33,-74.54 150.77,-76.17"/>
<polygon fill="#63b8ff" stroke="#63b8ff" points="150.01,-79.61 160.36,-77.34 150.85,-72.66 150.01,-79.61"/>
</a>
</g>
</g>
<!-- Node4 -->
<g id="Node000004" class="node">
<title>Node4</title>
<g id="a_Node000004"><a xlink:href="../../de/d37/class_face_recognition.html#a6b09c1e615b11e94b621919cc52b846d" target="_top" xlink:title=" ">
<polygon fill="#fff0f0" stroke="red" points="280.25,-56.25 145.75,-56.25 145.75,-37 280.25,-37 280.25,-56.25"/>
<text text-anchor="middle" x="213" y="-42.75" font-family="Helvetica,sans-Serif" font-size="10.00">FaceRecognition::recognize</text>
</a>
</g>
</g>
<!-- Node1&#45;&gt;Node4 -->
<g id="edge3_Node000001_Node000004" class="edge">
<title>Node1&#45;&gt;Node4</title>
<g id="a_edge3_Node000001_Node000004"><a xlink:title=" ">
<path fill="none" stroke="#63b8ff" d="M110.04,-58.38C117.76,-57.49 125.83,-56.56 133.9,-55.63"/>
<polygon fill="#63b8ff" stroke="#63b8ff" points="134.23,-59.11 143.77,-54.49 133.43,-52.16 134.23,-59.11"/>
</a>
</g>
</g>
<!-- Node6 -->
<g id="Node000006" class="node">
<title>Node6</title>
<g id="a_Node000006"><a xlink:href="../../dd/d59/cast_8hpp.html#a4ab231772fdd02605116f60945987016" target="_top" xlink:title=" ">
<polygon fill="white" stroke="#666666" points="242.38,-19.25 183.62,-19.25 183.62,0 242.38,0 242.38,-19.25"/>
<text text-anchor="middle" x="213" y="-5.75" font-family="Helvetica,sans-Serif" font-size="10.00">safe_cast</text>
</a>
</g>
</g>
<!-- Node1&#45;&gt;Node6 -->
<g id="edge4_Node000001_Node000006" class="edge">
<title>Node1&#45;&gt;Node6</title>
<g id="a_edge4_Node000001_Node000006"><a xlink:title=" ">
<path fill="none" stroke="#63b8ff" d="M78.11,-54.56C96.12,-46.63 122.27,-35.61 145.75,-27.62 154.32,-24.71 163.63,-21.94 172.5,-19.49"/>
<polygon fill="#63b8ff" stroke="#63b8ff" points="173.18,-22.93 181.93,-16.95 171.37,-16.17 173.18,-22.93"/>
</a>
</g>
</g>
</g>
</svg>
