<?xml version="1.0" encoding="UTF-8" standalone="no"?>
<!DOCTYPE svg PUBLIC "-//W3C//DTD SVG 1.1//EN"
 "http://www.w3.org/Graphics/SVG/1.1/DTD/svg11.dtd">
<!-- Generated by graphviz version 12.2.0 (20241103.1931)
 -->
<!-- Title: src/core/image_tools.hpp Pages: 1 -->
<svg width="188pt" height="138pt"
 viewBox="0.00 0.00 188.12 137.75" xmlns="http://www.w3.org/2000/svg" xmlns:xlink="http://www.w3.org/1999/xlink">
<g id="graph0" class="graph" transform="scale(1 1) rotate(0) translate(4 133.75)">
<title>src/core/image_tools.hpp</title>
<!-- Node1 -->
<g id="Node000001" class="node">
<title>Node1</title>
<g id="a_Node000001"><a xlink:title=" ">
<polygon fill="#999999" stroke="#666666" points="146.62,-129.75 21.88,-129.75 21.88,-110.5 146.62,-110.5 146.62,-129.75"/>
<text text-anchor="middle" x="84.25" y="-116.25" font-family="Helvetica,sans-Serif" font-size="10.00">src/core/image_tools.hpp</text>
</a>
</g>
</g>
<!-- Node2 -->
<g id="Node000002" class="node">
<title>Node2</title>
<g id="a_Node000002"><a xlink:title=" ">
<polygon fill="#e0e0e0" stroke="#999999" points="50.5,-19.25 0,-19.25 0,0 50.5,0 50.5,-19.25"/>
<text text-anchor="middle" x="25.25" y="-5.75" font-family="Helvetica,sans-Serif" font-size="10.00">QImage</text>
</a>
</g>
</g>
<!-- Node1&#45;&gt;Node2 -->
<g id="edge1_Node000001_Node000002" class="edge">
<title>Node1&#45;&gt;Node2</title>
<g id="a_edge1_Node000001_Node000002"><a xlink:title=" ">
<path fill="none" stroke="#63b8ff" d="M64.11,-110.02C50.39,-102.6 33.32,-90.71 25.25,-74.5 18.51,-60.96 18.96,-43.71 20.84,-30.55"/>
<polygon fill="#63b8ff" stroke="#63b8ff" points="24.24,-31.4 22.62,-20.93 17.36,-30.13 24.24,-31.4"/>
</a>
</g>
</g>
<!-- Node3 -->
<g id="Node000003" class="node">
<title>Node3</title>
<g id="a_Node000003"><a xlink:title=" ">
<polygon fill="#e0e0e0" stroke="#999999" points="180.12,-19.25 106.38,-19.25 106.38,0 180.12,0 180.12,-19.25"/>
<text text-anchor="middle" x="143.25" y="-5.75" font-family="Helvetica,sans-Serif" font-size="10.00">core_export.h</text>
</a>
</g>
</g>
<!-- Node1&#45;&gt;Node3 -->
<g id="edge2_Node000001_Node000003" class="edge">
<title>Node1&#45;&gt;Node3</title>
<g id="a_edge2_Node000001_Node000003"><a xlink:title=" ">
<path fill="none" stroke="#63b8ff" d="M104.39,-110.02C118.11,-102.6 135.18,-90.71 143.25,-74.5 149.99,-60.96 149.54,-43.71 147.66,-30.55"/>
<polygon fill="#63b8ff" stroke="#63b8ff" points="151.14,-30.13 145.88,-20.93 144.26,-31.4 151.14,-30.13"/>
</a>
</g>
</g>
<!-- Node4 -->
<g id="Node000004" class="node">
<title>Node4</title>
<g id="a_Node000004"><a xlink:href="../../de/d3b/oriented__image_8hpp.html" target="_top" xlink:title=" ">
<polygon fill="white" stroke="#666666" points="134.25,-74.5 34.25,-74.5 34.25,-55.25 134.25,-55.25 134.25,-74.5"/>
<text text-anchor="middle" x="84.25" y="-61" font-family="Helvetica,sans-Serif" font-size="10.00">oriented_image.hpp</text>
</a>
</g>
</g>
<!-- Node1&#45;&gt;Node4 -->
<g id="edge3_Node000001_Node000004" class="edge">
<title>Node1&#45;&gt;Node4</title>
<g id="a_edge3_Node000001_Node000004"><a xlink:title=" ">
<path fill="none" stroke="#63b8ff" d="M84.25,-110.33C84.25,-103.82 84.25,-94.67 84.25,-86.37"/>
<polygon fill="#63b8ff" stroke="#63b8ff" points="87.75,-86.37 84.25,-76.37 80.75,-86.37 87.75,-86.37"/>
</a>
</g>
</g>
<!-- Node4&#45;&gt;Node2 -->
<g id="edge4_Node000004_Node000002" class="edge">
<title>Node4&#45;&gt;Node2</title>
<g id="a_edge4_Node000004_Node000002"><a xlink:title=" ">
<path fill="none" stroke="#63b8ff" d="M74.24,-54.84C65.88,-47.3 53.75,-36.35 43.65,-27.23"/>
<polygon fill="#63b8ff" stroke="#63b8ff" points="46,-24.64 36.23,-20.54 41.31,-29.84 46,-24.64"/>
</a>
</g>
</g>
<!-- Node4&#45;&gt;Node3 -->
<g id="edge5_Node000004_Node000003" class="edge">
<title>Node4&#45;&gt;Node3</title>
<g id="a_edge5_Node000004_Node000003"><a xlink:title=" ">
<path fill="none" stroke="#63b8ff" d="M94.26,-54.84C102.62,-47.3 114.75,-36.35 124.85,-27.23"/>
<polygon fill="#63b8ff" stroke="#63b8ff" points="127.19,-29.84 132.27,-20.54 122.5,-24.64 127.19,-29.84"/>
</a>
</g>
</g>
</g>
</svg>
