<?xml version="1.0" encoding="UTF-8" standalone="no"?>
<!DOCTYPE svg PUBLIC "-//W3C//DTD SVG 1.1//EN"
 "http://www.w3.org/Graphics/SVG/1.1/DTD/svg11.dtd">
<!-- Generated by graphviz version 7.0.5 (20221223.1930)
 -->
<!-- Title: src/core/image_tools.hpp Pages: 1 -->
<svg width="171pt" height="137pt"
 viewBox="0.00 0.00 170.50 137.00" xmlns="http://www.w3.org/2000/svg" xmlns:xlink="http://www.w3.org/1999/xlink">
<g id="graph0" class="graph" transform="scale(1 1) rotate(0) translate(4 133)">
<title>src/core/image_tools.hpp</title>
<!-- Node1 -->
<g id="node1" class="node">
<title>Node1</title>
<g id="a_node1"><a xlink:title=" ">
<polygon fill="#999999" stroke="#666666" points="129,-129 4,-129 4,-110 129,-110 129,-129"/>
<text text-anchor="middle" x="66.5" y="-117" font-family="Helvetica,sans-Serif" font-size="10.00">src/core/image_tools.hpp</text>
</a>
</g>
</g>
<!-- Node2 -->
<g id="node2" class="node">
<title>Node2</title>
<g id="a_node2"><a xlink:title=" ">
<polygon fill="#e0e0e0" stroke="#999999" points="51,-19 0,-19 0,0 51,0 51,-19"/>
<text text-anchor="middle" x="25.5" y="-7" font-family="Helvetica,sans-Serif" font-size="10.00">QImage</text>
</a>
</g>
</g>
<!-- Node1&#45;&gt;Node2 -->
<g id="edge1" class="edge">
<title>Node1&#45;&gt;Node2</title>
<path fill="none" stroke="#63b8ff" d="M46.03,-109.52C32.09,-102.17 14.72,-90.33 6.5,-74 -0.69,-59.71 5.53,-42.2 12.72,-29.2"/>
<polygon fill="#63b8ff" stroke="#63b8ff" points="15.64,-31.13 17.92,-20.78 9.69,-27.45 15.64,-31.13"/>
</g>
<!-- Node3 -->
<g id="node3" class="node">
<title>Node3</title>
<g id="a_node3"><a xlink:title=" ">
<polygon fill="#e0e0e0" stroke="#999999" points="162.5,-19 88.5,-19 88.5,0 162.5,0 162.5,-19"/>
<text text-anchor="middle" x="125.5" y="-7" font-family="Helvetica,sans-Serif" font-size="10.00">core_export.h</text>
</a>
</g>
</g>
<!-- Node1&#45;&gt;Node3 -->
<g id="edge2" class="edge">
<title>Node1&#45;&gt;Node3</title>
<path fill="none" stroke="#63b8ff" d="M86.97,-109.52C100.91,-102.17 118.28,-90.33 126.5,-74 133.26,-60.57 132.53,-43.42 130.38,-30.33"/>
<polygon fill="#63b8ff" stroke="#63b8ff" points="133.85,-29.84 128.38,-20.76 127,-31.27 133.85,-29.84"/>
</g>
<!-- Node4 -->
<g id="node4" class="node">
<title>Node4</title>
<g id="a_node4"><a xlink:href="../../de/d3b/oriented__image_8hpp.html" target="_top" xlink:title=" ">
<polygon fill="white" stroke="#666666" points="117,-74 16,-74 16,-55 117,-55 117,-74"/>
<text text-anchor="middle" x="66.5" y="-62" font-family="Helvetica,sans-Serif" font-size="10.00">oriented_image.hpp</text>
</a>
</g>
</g>
<!-- Node1&#45;&gt;Node4 -->
<g id="edge3" class="edge">
<title>Node1&#45;&gt;Node4</title>
<path fill="none" stroke="#63b8ff" d="M66.5,-109.75C66.5,-103.27 66.5,-94.16 66.5,-85.9"/>
<polygon fill="#63b8ff" stroke="#63b8ff" points="70,-85.96 66.5,-75.96 63,-85.96 70,-85.96"/>
</g>
<!-- Node4&#45;&gt;Node2 -->
<g id="edge4" class="edge">
<title>Node4&#45;&gt;Node2</title>
<path fill="none" stroke="#63b8ff" d="M59.73,-54.75C54.18,-47.58 46.16,-37.2 39.27,-28.3"/>
<polygon fill="#63b8ff" stroke="#63b8ff" points="42.23,-26.41 33.34,-20.64 36.69,-30.69 42.23,-26.41"/>
</g>
<!-- Node4&#45;&gt;Node3 -->
<g id="edge5" class="edge">
<title>Node4&#45;&gt;Node3</title>
<path fill="none" stroke="#63b8ff" d="M76.51,-54.51C84.87,-47 97,-36.1 107.1,-27.03"/>
<polygon fill="#63b8ff" stroke="#63b8ff" points="109.41,-29.66 114.51,-20.37 104.74,-24.45 109.41,-29.66"/>
</g>
</g>
</svg>
