<?xml version="1.0" encoding="UTF-8" standalone="no"?>
<!DOCTYPE svg PUBLIC "-//W3C//DTD SVG 1.1//EN"
 "http://www.w3.org/Graphics/SVG/1.1/DTD/svg11.dtd">
<!-- Generated by graphviz version 7.0.5 (20221223.1930)
 -->
<!-- Title: src/project_utils/implementation/project.cpp Pages: 1 -->
<svg width="358pt" height="159pt"
 viewBox="0.00 0.00 357.50 159.00" xmlns="http://www.w3.org/2000/svg" xmlns:xlink="http://www.w3.org/1999/xlink">
<g id="graph0" class="graph" transform="scale(1 1) rotate(0) translate(4 155)">
<title>src/project_utils/implementation/project.cpp</title>
<!-- Node1 -->
<g id="node1" class="node">
<title>Node1</title>
<g id="a_node1"><a xlink:title=" ">
<polygon fill="#999999" stroke="#666666" points="215.5,-151 60.5,-151 60.5,-121 215.5,-121 215.5,-151"/>
<text text-anchor="start" x="68.5" y="-139" font-family="Helvetica,sans-Serif" font-size="10.00">src/project_utils/implementation</text>
<text text-anchor="middle" x="138" y="-128" font-family="Helvetica,sans-Serif" font-size="10.00">/project.cpp</text>
</a>
</g>
</g>
<!-- Node2 -->
<g id="node2" class="node">
<title>Node2</title>
<g id="a_node2"><a xlink:href="../../d1/d8e/project_8hpp.html" target="_top" xlink:title=" ">
<polygon fill="#fff0f0" stroke="red" points="64,-79.5 0,-79.5 0,-60.5 64,-60.5 64,-79.5"/>
<text text-anchor="middle" x="32" y="-67.5" font-family="Helvetica,sans-Serif" font-size="10.00">project.hpp</text>
</a>
</g>
</g>
<!-- Node1&#45;&gt;Node2 -->
<g id="edge1" class="edge">
<title>Node1&#45;&gt;Node2</title>
<path fill="none" stroke="#63b8ff" d="M114.21,-120.64C96.96,-110.22 73.72,-96.19 56.34,-85.7"/>
<polygon fill="#63b8ff" stroke="#63b8ff" points="58.55,-82.94 48.18,-80.77 54.93,-88.93 58.55,-82.94"/>
</g>
<!-- Node4 -->
<g id="node3" class="node">
<title>Node4</title>
<g id="a_node3"><a xlink:title=" ">
<polygon fill="#e0e0e0" stroke="#999999" points="117,-19 67,-19 67,0 117,0 117,-19"/>
<text text-anchor="middle" x="92" y="-7" font-family="Helvetica,sans-Serif" font-size="10.00">QString</text>
</a>
</g>
</g>
<!-- Node1&#45;&gt;Node4 -->
<g id="edge5" class="edge">
<title>Node1&#45;&gt;Node4</title>
<path fill="none" stroke="#63b8ff" d="M128.98,-120.58C123.2,-110.83 115.88,-97.5 111,-85 104.02,-67.13 98.89,-45.84 95.73,-30.6"/>
<polygon fill="#63b8ff" stroke="#63b8ff" points="99.19,-30.06 93.83,-20.92 92.32,-31.41 99.19,-30.06"/>
</g>
<!-- Node7 -->
<g id="node4" class="node">
<title>Node7</title>
<g id="a_node4"><a xlink:title=" ">
<polygon fill="#e0e0e0" stroke="#999999" points="156,-79.5 120,-79.5 120,-60.5 156,-60.5 156,-79.5"/>
<text text-anchor="middle" x="138" y="-67.5" font-family="Helvetica,sans-Serif" font-size="10.00">QDir</text>
</a>
</g>
</g>
<!-- Node1&#45;&gt;Node7 -->
<g id="edge3" class="edge">
<title>Node1&#45;&gt;Node7</title>
<path fill="none" stroke="#63b8ff" d="M138,-120.8C138,-112.09 138,-100.81 138,-91.18"/>
<polygon fill="#63b8ff" stroke="#63b8ff" points="141.5,-91.36 138,-81.36 134.5,-91.36 141.5,-91.36"/>
</g>
<!-- Node8 -->
<g id="node5" class="node">
<title>Node8</title>
<g id="a_node5"><a xlink:title=" ">
<polygon fill="#e0e0e0" stroke="#999999" points="230,-79.5 174,-79.5 174,-60.5 230,-60.5 230,-79.5"/>
<text text-anchor="middle" x="202" y="-67.5" font-family="Helvetica,sans-Serif" font-size="10.00">QFileInfo</text>
</a>
</g>
</g>
<!-- Node1&#45;&gt;Node8 -->
<g id="edge4" class="edge">
<title>Node1&#45;&gt;Node8</title>
<path fill="none" stroke="#63b8ff" d="M152.2,-120.8C161.99,-111.01 175.02,-97.98 185.3,-87.7"/>
<polygon fill="#63b8ff" stroke="#63b8ff" points="187.49,-90.46 192.09,-80.91 182.54,-85.51 187.49,-90.46"/>
</g>
<!-- Node9 -->
<g id="node6" class="node">
<title>Node9</title>
<g id="a_node6"><a xlink:href="../../d4/d5e/idatabase__builder_8hpp.html" target="_top" xlink:title=" ">
<polygon fill="#fff0f0" stroke="red" points="349.5,-85 248.5,-85 248.5,-55 349.5,-55 349.5,-85"/>
<text text-anchor="start" x="256.5" y="-73" font-family="Helvetica,sans-Serif" font-size="10.00">database/idatabase</text>
<text text-anchor="middle" x="299" y="-62" font-family="Helvetica,sans-Serif" font-size="10.00">_builder.hpp</text>
</a>
</g>
</g>
<!-- Node1&#45;&gt;Node9 -->
<g id="edge6" class="edge">
<title>Node1&#45;&gt;Node9</title>
<path fill="none" stroke="#63b8ff" d="M174.13,-120.64C197.15,-111.49 227.2,-99.54 252.06,-89.66"/>
<polygon fill="#63b8ff" stroke="#63b8ff" points="253.3,-92.93 261.3,-85.98 250.72,-86.43 253.3,-92.93"/>
</g>
<!-- Node2&#45;&gt;Node4 -->
<g id="edge2" class="edge">
<title>Node2&#45;&gt;Node4</title>
<path fill="none" stroke="#63b8ff" d="M41.11,-60.12C50.01,-51.44 63.78,-38.02 74.75,-27.32"/>
<polygon fill="#63b8ff" stroke="#63b8ff" points="77,-30.01 81.72,-20.53 72.11,-25 77,-30.01"/>
</g>
<!-- Node9&#45;&gt;Node4 -->
<g id="edge7" class="edge">
<title>Node9&#45;&gt;Node4</title>
<path fill="none" stroke="#63b8ff" d="M248.1,-54.61C210.94,-44.11 161.46,-30.13 128.26,-20.75"/>
<polygon fill="#63b8ff" stroke="#63b8ff" points="129.28,-17.4 118.7,-18.05 127.37,-24.13 129.28,-17.4"/>
</g>
</g>
</svg>
