<?xml version="1.0" encoding="UTF-8" standalone="no"?>
<!DOCTYPE svg PUBLIC "-//W3C//DTD SVG 1.1//EN"
 "http://www.w3.org/Graphics/SVG/1.1/DTD/svg11.dtd">
<!-- Generated by graphviz version 7.0.5 (20221223.1930)
 -->
<!-- Title: Database::IPhotoOperator::getPhotos Pages: 1 -->
<svg width="336pt" height="124pt"
 viewBox="0.00 0.00 336.00 123.50" xmlns="http://www.w3.org/2000/svg" xmlns:xlink="http://www.w3.org/1999/xlink">
<g id="graph0" class="graph" transform="scale(1 1) rotate(0) translate(4 119.5)">
<title>Database::IPhotoOperator::getPhotos</title>
<!-- Node1 -->
<g id="node1" class="node">
<title>Node1</title>
<g id="a_node1"><a xlink:title="find all photos matching filters">
<polygon fill="#999999" stroke="#666666" points="328,-67.5 200,-67.5 200,-37.5 328,-37.5 328,-67.5"/>
<text text-anchor="start" x="208" y="-55.5" font-family="Helvetica,sans-Serif" font-size="10.00">Database::IPhotoOperator</text>
<text text-anchor="middle" x="264" y="-44.5" font-family="Helvetica,sans-Serif" font-size="10.00">::getPhotos</text>
</a>
</g>
</g>
<!-- Node2 -->
<g id="node2" class="node">
<title>Node2</title>
<g id="a_node2"><a xlink:href="../../d2/d10/class_photos_model_controller_component.html#a3114b0d3595d4d6d72bf5015738f6bbb" target="_top" xlink:title=" ">
<polygon fill="#fff0f0" stroke="red" points="164,-115.5 0,-115.5 0,-85.5 164,-85.5 164,-115.5"/>
<text text-anchor="start" x="8" y="-103.5" font-family="Helvetica,sans-Serif" font-size="10.00">PhotosModelControllerComponent</text>
<text text-anchor="middle" x="82" y="-92.5" font-family="Helvetica,sans-Serif" font-size="10.00">::getTimeRangeForFilters</text>
</a>
</g>
</g>
<!-- Node1&#45;&gt;Node2 -->
<g id="edge1" class="edge">
<title>Node1&#45;&gt;Node2</title>
<path fill="none" stroke="#63b8ff" d="M194.26,-70.83C176.63,-75.53 157.85,-80.54 140.84,-85.08"/>
<polygon fill="#63b8ff" stroke="#63b8ff" points="194.83,-74.3 203.59,-68.34 193.03,-67.54 194.83,-74.3"/>
</g>
<!-- Node5 -->
<g id="node3" class="node">
<title>Node5</title>
<g id="a_node3"><a xlink:href="../../d4/dd6/class_photos_data_guesser.html#a412946143edadd31700d199cbc86205a" target="_top" xlink:title=" ">
<polygon fill="#fff0f0" stroke="red" points="136.5,-67.5 27.5,-67.5 27.5,-37.5 136.5,-37.5 136.5,-67.5"/>
<text text-anchor="start" x="35.5" y="-55.5" font-family="Helvetica,sans-Serif" font-size="10.00">PhotosDataGuesser::</text>
<text text-anchor="middle" x="82" y="-44.5" font-family="Helvetica,sans-Serif" font-size="10.00">process</text>
</a>
</g>
</g>
<!-- Node1&#45;&gt;Node5 -->
<g id="edge2" class="edge">
<title>Node1&#45;&gt;Node5</title>
<path fill="none" stroke="#63b8ff" d="M188.35,-52.5C171.11,-52.5 153.1,-52.5 136.95,-52.5"/>
<polygon fill="#63b8ff" stroke="#63b8ff" points="188.03,-56 198.03,-52.5 188.03,-49 188.03,-56"/>
</g>
<!-- Node7 -->
<g id="node4" class="node">
<title>Node7</title>
<g id="a_node4"><a xlink:href="../../db/d6e/class_collection_scanner.html#a7d7efea2e0e976663465a01f8831ac4a" target="_top" xlink:title=" ">
<polygon fill="white" stroke="#666666" points="142.5,-19 21.5,-19 21.5,0 142.5,0 142.5,-19"/>
<text text-anchor="middle" x="82" y="-7" font-family="Helvetica,sans-Serif" font-size="10.00">CollectionScanner::scan</text>
</a>
</g>
</g>
<!-- Node1&#45;&gt;Node7 -->
<g id="edge3" class="edge">
<title>Node1&#45;&gt;Node7</title>
<path fill="none" stroke="#63b8ff" d="M188.45,-34.36C180.2,-32.38 171.92,-30.39 164,-28.5 151.64,-25.55 138.2,-22.38 125.89,-19.5"/>
<polygon fill="#63b8ff" stroke="#63b8ff" points="187.63,-37.77 198.17,-36.71 189.27,-30.96 187.63,-37.77"/>
</g>
</g>
</svg>
