<?xml version="1.0" encoding="UTF-8" standalone="no"?>
<!DOCTYPE svg PUBLIC "-//W3C//DTD SVG 1.1//EN"
 "http://www.w3.org/Graphics/SVG/1.1/DTD/svg11.dtd">
<!-- Generated by graphviz version 7.0.5 (20221223.1930)
 -->
<!-- Title: Database::IPhotoOperator::onPhotos Pages: 1 -->
<svg width="337pt" height="76pt"
 viewBox="0.00 0.00 337.00 75.50" xmlns="http://www.w3.org/2000/svg" xmlns:xlink="http://www.w3.org/1999/xlink">
<g id="graph0" class="graph" transform="scale(1 1) rotate(0) translate(4 71.5)">
<title>Database::IPhotoOperator::onPhotos</title>
<!-- Node1 -->
<g id="node1" class="node">
<title>Node1</title>
<g id="a_node1"><a xlink:title=" ">
<polygon fill="#999999" stroke="#666666" points="329,-45.5 201,-45.5 201,-15.5 329,-15.5 329,-45.5"/>
<text text-anchor="start" x="209" y="-33.5" font-family="Helvetica,sans-Serif" font-size="10.00">Database::IPhotoOperator</text>
<text text-anchor="middle" x="265" y="-22.5" font-family="Helvetica,sans-Serif" font-size="10.00">::onPhotos</text>
</a>
</g>
</g>
<!-- Node2 -->
<g id="node2" class="node">
<title>Node2</title>
<g id="a_node2"><a xlink:href="../../d1/da6/class_flat_model.html#acc2c349e5c72dd41696538dbb93c92f0" target="_top" xlink:title=" ">
<polygon fill="#fff0f0" stroke="red" points="145,-67.5 20,-67.5 20,-37.5 145,-37.5 145,-67.5"/>
<text text-anchor="start" x="28" y="-55.5" font-family="Helvetica,sans-Serif" font-size="10.00">FlatModel::fetchMatching</text>
<text text-anchor="middle" x="82.5" y="-44.5" font-family="Helvetica,sans-Serif" font-size="10.00">Photos</text>
</a>
</g>
</g>
<!-- Node1&#45;&gt;Node2 -->
<g id="edge1" class="edge">
<title>Node1&#45;&gt;Node2</title>
<path fill="none" stroke="#63b8ff" d="M189.49,-39.58C174.77,-41.38 159.46,-43.24 145.21,-44.98"/>
<polygon fill="#63b8ff" stroke="#63b8ff" points="189.61,-43.09 199.11,-38.41 188.76,-36.14 189.61,-43.09"/>
</g>
<!-- Node18 -->
<g id="node3" class="node">
<title>Node18</title>
<g id="a_node3"><a xlink:href="../../d3/d94/class_duplicates_model.html#aef4fce298f18eeccc00f4aa8a013cfe9" target="_top" xlink:title=" ">
<polygon fill="white" stroke="#666666" points="165,-19 0,-19 0,0 165,0 165,-19"/>
<text text-anchor="middle" x="82.5" y="-7" font-family="Helvetica,sans-Serif" font-size="10.00">DuplicatesModel::reloadDuplicates</text>
</a>
</g>
</g>
<!-- Node1&#45;&gt;Node18 -->
<g id="edge2" class="edge">
<title>Node1&#45;&gt;Node18</title>
<path fill="none" stroke="#63b8ff" d="M189.24,-21.8C181.38,-20.89 173.36,-19.95 165.42,-19.03"/>
<polygon fill="#63b8ff" stroke="#63b8ff" points="188.78,-25.27 199.11,-22.95 189.58,-18.32 188.78,-25.27"/>
</g>
</g>
</svg>
