<?xml version="1.0" encoding="UTF-8" standalone="no"?>
<!DOCTYPE svg PUBLIC "-//W3C//DTD SVG 1.1//EN"
 "http://www.w3.org/Graphics/SVG/1.1/DTD/svg11.dtd">
<!-- Generated by graphviz version 7.0.5 (20221223.1930)
 -->
<!-- Title: ObservableExecutor Pages: 1 -->
<svg width="385pt" height="113pt"
 viewBox="0.00 0.00 385.00 112.50" xmlns="http://www.w3.org/2000/svg" xmlns:xlink="http://www.w3.org/1999/xlink">
<g id="graph0" class="graph" transform="scale(1 1) rotate(0) translate(4 108.5)">
<title>ObservableExecutor</title>
<!-- Node1 -->
<g id="node1" class="node">
<title>Node1</title>
<g id="a_node1"><a xlink:title=" ">
<polygon fill="#999999" stroke="#666666" points="193,-56 89,-56 89,-37 193,-37 193,-56"/>
<text text-anchor="middle" x="141" y="-44" font-family="Helvetica,sans-Serif" font-size="10.00">ObservableExecutor</text>
</a>
</g>
</g>
<!-- Node3 -->
<g id="node3" class="node">
<title>Node3</title>
<g id="a_node3"><a xlink:href="../../d5/d65/class_observable_task_executor.html" target="_top" xlink:title=" ">
<polygon fill="white" stroke="#666666" points="365.5,-104.5 240.5,-104.5 240.5,-74.5 365.5,-74.5 365.5,-104.5"/>
<text text-anchor="start" x="248.5" y="-92.5" font-family="Helvetica,sans-Serif" font-size="10.00">ObservableTaskExecutor</text>
<text text-anchor="middle" x="303" y="-81.5" font-family="Helvetica,sans-Serif" font-size="10.00">&lt; TasksQueue &gt;</text>
</a>
</g>
</g>
<!-- Node1&#45;&gt;Node3 -->
<g id="edge2" class="edge">
<title>Node1&#45;&gt;Node3</title>
<path fill="none" stroke="#63b8ff" d="M189.98,-59.39C207.1,-64 226.56,-69.23 244.41,-74.02"/>
<polygon fill="#63b8ff" stroke="#63b8ff" points="191.14,-56.08 180.57,-56.87 189.32,-62.84 191.14,-56.08"/>
</g>
<!-- Node4 -->
<g id="node4" class="node">
<title>Node4</title>
<g id="a_node4"><a xlink:href="../../d8/db5/class_observable_database.html" target="_top" xlink:title=" ">
<polygon fill="white" stroke="#666666" points="368,-56 238,-56 238,-37 368,-37 368,-56"/>
<text text-anchor="middle" x="303" y="-44" font-family="Helvetica,sans-Serif" font-size="10.00">ObservableDatabase&lt; T &gt;</text>
</a>
</g>
</g>
<!-- Node1&#45;&gt;Node4 -->
<g id="edge3" class="edge">
<title>Node1&#45;&gt;Node4</title>
<path fill="none" stroke="#63b8ff" d="M204.27,-46.5C215.22,-46.5 226.64,-46.5 237.65,-46.5"/>
<polygon fill="#63b8ff" stroke="#63b8ff" points="204.58,-43 194.58,-46.5 204.58,-50 204.58,-43"/>
</g>
<!-- Node5 -->
<g id="node5" class="node">
<title>Node5</title>
<g id="a_node5"><a xlink:href="../../d5/d65/class_observable_task_executor.html" target="_top" xlink:title=" ">
<polygon fill="white" stroke="#666666" points="377,-19 229,-19 229,0 377,0 377,-19"/>
<text text-anchor="middle" x="303" y="-7" font-family="Helvetica,sans-Serif" font-size="10.00">ObservableTaskExecutor&lt; T &gt;</text>
</a>
</g>
</g>
<!-- Node1&#45;&gt;Node5 -->
<g id="edge4" class="edge">
<title>Node1&#45;&gt;Node5</title>
<path fill="none" stroke="#63b8ff" d="M195.98,-34.02C216.52,-29.27 239.62,-23.93 259,-19.44"/>
<polygon fill="#63b8ff" stroke="#63b8ff" points="195.31,-30.58 186.35,-36.24 196.88,-37.4 195.31,-30.58"/>
</g>
<!-- Node2 -->
<g id="node2" class="node">
<title>Node2</title>
<g id="a_node2"><a xlink:title=" ">
<polygon fill="white" stroke="#666666" points="53,-56 0,-56 0,-37 53,-37 53,-56"/>
<text text-anchor="middle" x="26.5" y="-44" font-family="Helvetica,sans-Serif" font-size="10.00">QObject</text>
</a>
</g>
</g>
<!-- Node2&#45;&gt;Node1 -->
<g id="edge1" class="edge">
<title>Node2&#45;&gt;Node1</title>
<path fill="none" stroke="#63b8ff" d="M64.77,-46.5C72.4,-46.5 80.56,-46.5 88.59,-46.5"/>
<polygon fill="#63b8ff" stroke="#63b8ff" points="64.82,-43 54.82,-46.5 64.82,-50 64.82,-43"/>
</g>
</g>
</svg>
