<?xml version="1.0" encoding="UTF-8" standalone="no"?>
<!DOCTYPE svg PUBLIC "-//W3C//DTD SVG 1.1//EN"
 "http://www.w3.org/Graphics/SVG/1.1/DTD/svg11.dtd">
<!-- Generated by graphviz version 7.0.5 (20221223.1930)
 -->
<!-- Title: src/database/idatabase_builder.hpp Pages: 1 -->
<svg width="271pt" height="148pt"
 viewBox="0.00 0.00 270.50 148.00" xmlns="http://www.w3.org/2000/svg" xmlns:xlink="http://www.w3.org/1999/xlink">
<g id="graph0" class="graph" transform="scale(1 1) rotate(0) translate(4 144)">
<title>src/database/idatabase_builder.hpp</title>
<!-- Node1 -->
<g id="node1" class="node">
<title>Node1</title>
<g id="a_node1"><a xlink:title=" ">
<polygon fill="#999999" stroke="#666666" points="176.5,-140 58.5,-140 58.5,-110 176.5,-110 176.5,-140"/>
<text text-anchor="start" x="66.5" y="-128" font-family="Helvetica,sans-Serif" font-size="10.00">src/database/idatabase</text>
<text text-anchor="middle" x="117.5" y="-117" font-family="Helvetica,sans-Serif" font-size="10.00">_builder.hpp</text>
</a>
</g>
</g>
<!-- Node2 -->
<g id="node2" class="node">
<title>Node2</title>
<g id="a_node2"><a xlink:title=" ">
<polygon fill="#e0e0e0" stroke="#999999" points="41,-19 0,-19 0,0 41,0 41,-19"/>
<text text-anchor="middle" x="20.5" y="-7" font-family="Helvetica,sans-Serif" font-size="10.00">string</text>
</a>
</g>
</g>
<!-- Node1&#45;&gt;Node2 -->
<g id="edge1" class="edge">
<title>Node1&#45;&gt;Node2</title>
<path fill="none" stroke="#63b8ff" d="M100,-109.61C88.93,-100.08 74.65,-86.99 63.5,-74 51.3,-59.8 39.53,-42.04 31.4,-28.91"/>
<polygon fill="#63b8ff" stroke="#63b8ff" points="34.45,-27.2 26.28,-20.45 28.46,-30.82 34.45,-27.2"/>
</g>
<!-- Node3 -->
<g id="node3" class="node">
<title>Node3</title>
<g id="a_node3"><a xlink:title=" ">
<polygon fill="#e0e0e0" stroke="#999999" points="114,-19 63,-19 63,0 114,0 114,-19"/>
<text text-anchor="middle" x="88.5" y="-7" font-family="Helvetica,sans-Serif" font-size="10.00">memory</text>
</a>
</g>
</g>
<!-- Node1&#45;&gt;Node3 -->
<g id="edge2" class="edge">
<title>Node1&#45;&gt;Node3</title>
<path fill="none" stroke="#63b8ff" d="M98.21,-109.63C87.87,-100.68 76.12,-88.18 70.5,-74 64.69,-59.33 70.33,-42.08 76.79,-29.26"/>
<polygon fill="#63b8ff" stroke="#63b8ff" points="79.8,-31.06 81.67,-20.63 73.7,-27.61 79.8,-31.06"/>
</g>
<!-- Node4 -->
<g id="node4" class="node">
<title>Node4</title>
<g id="a_node4"><a xlink:title=" ">
<polygon fill="#e0e0e0" stroke="#999999" points="262.5,-74 212.5,-74 212.5,-55 262.5,-55 262.5,-74"/>
<text text-anchor="middle" x="237.5" y="-62" font-family="Helvetica,sans-Serif" font-size="10.00">QString</text>
</a>
</g>
</g>
<!-- Node1&#45;&gt;Node4 -->
<g id="edge3" class="edge">
<title>Node1&#45;&gt;Node4</title>
<path fill="none" stroke="#63b8ff" d="M147.16,-109.54C166.08,-100.32 190.45,-88.44 209.11,-79.34"/>
<polygon fill="#63b8ff" stroke="#63b8ff" points="210.54,-82.54 217.99,-75.01 207.47,-76.25 210.54,-82.54"/>
</g>
<!-- Node5 -->
<g id="node5" class="node">
<title>Node5</title>
<g id="a_node5"><a xlink:title=" ">
<polygon fill="#e0e0e0" stroke="#999999" points="229,-19 134,-19 134,0 229,0 229,-19"/>
<text text-anchor="middle" x="181.5" y="-7" font-family="Helvetica,sans-Serif" font-size="10.00">database_export.h</text>
</a>
</g>
</g>
<!-- Node1&#45;&gt;Node5 -->
<g id="edge4" class="edge">
<title>Node1&#45;&gt;Node5</title>
<path fill="none" stroke="#63b8ff" d="M135.43,-109.53C145.66,-100.36 157.92,-87.68 165.5,-74 173.02,-60.43 177.06,-43.3 179.21,-30.25"/>
<polygon fill="#63b8ff" stroke="#63b8ff" points="182.62,-31.12 180.52,-20.73 175.69,-30.16 182.62,-31.12"/>
</g>
<!-- Node6 -->
<g id="node6" class="node">
<title>Node6</title>
<g id="a_node6"><a xlink:href="../../d7/d2b/idatabase_8hpp.html" target="_top" xlink:title=" ">
<polygon fill="#fff0f0" stroke="red" points="156,-74 79,-74 79,-55 156,-55 156,-74"/>
<text text-anchor="middle" x="117.5" y="-62" font-family="Helvetica,sans-Serif" font-size="10.00">idatabase.hpp</text>
</a>
</g>
</g>
<!-- Node1&#45;&gt;Node6 -->
<g id="edge5" class="edge">
<title>Node1&#45;&gt;Node6</title>
<path fill="none" stroke="#63b8ff" d="M117.5,-109.54C117.5,-102.34 117.5,-93.53 117.5,-85.68"/>
<polygon fill="#63b8ff" stroke="#63b8ff" points="121,-85.69 117.5,-75.69 114,-85.69 121,-85.69"/>
</g>
<!-- Node6&#45;&gt;Node2 -->
<g id="edge7" class="edge">
<title>Node6&#45;&gt;Node2</title>
<path fill="none" stroke="#63b8ff" d="M101.05,-54.51C86.18,-46.39 64.06,-34.3 46.75,-24.85"/>
<polygon fill="#63b8ff" stroke="#63b8ff" points="48.49,-21.81 38.04,-20.08 45.14,-27.95 48.49,-21.81"/>
</g>
<!-- Node6&#45;&gt;Node3 -->
<g id="edge6" class="edge">
<title>Node6&#45;&gt;Node3</title>
<path fill="none" stroke="#63b8ff" d="M112.71,-54.75C108.96,-47.88 103.59,-38.08 98.87,-29.45"/>
<polygon fill="#63b8ff" stroke="#63b8ff" points="101.99,-27.86 94.12,-20.77 95.85,-31.22 101.99,-27.86"/>
</g>
<!-- Node6&#45;&gt;Node5 -->
<g id="edge8" class="edge">
<title>Node6&#45;&gt;Node5</title>
<path fill="none" stroke="#63b8ff" d="M128.36,-54.51C137.61,-46.85 151.12,-35.66 162.21,-26.47"/>
<polygon fill="#63b8ff" stroke="#63b8ff" points="164.17,-29.4 169.64,-20.32 159.7,-24.01 164.17,-29.4"/>
</g>
</g>
</svg>
