<?xml version="1.0" encoding="UTF-8" standalone="no"?>
<!DOCTYPE svg PUBLIC "-//W3C//DTD SVG 1.1//EN"
 "http://www.w3.org/Graphics/SVG/1.1/DTD/svg11.dtd">
<!-- Generated by graphviz version 9.0.0 (20230911.1827)
 -->
<!-- Title: src/core/exif_reader_factory.hpp Pages: 1 -->
<svg width="247pt" height="149pt"
 viewBox="0.00 0.00 247.47 149.00" xmlns="http://www.w3.org/2000/svg" xmlns:xlink="http://www.w3.org/1999/xlink">
<g id="graph0" class="graph" transform="scale(1 1) rotate(0) translate(4 145)">
<title>src/core/exif_reader_factory.hpp</title>
<!-- Node1 -->
<g id="Node000001" class="node">
<title>Node1</title>
<g id="a_Node000001"><a xlink:title=" ">
<polygon fill="#999999" stroke="#666666" points="137.34,-141 35.84,-141 35.84,-110.5 137.34,-110.5 137.34,-141"/>
<text text-anchor="start" x="43.84" y="-127.5" font-family="Helvetica,sans-Serif" font-size="10.00">src/core/exif_reader</text>
<text text-anchor="middle" x="86.59" y="-116.25" font-family="Helvetica,sans-Serif" font-size="10.00">_factory.hpp</text>
</a>
</g>
</g>
<!-- Node2 -->
<g id="Node000002" class="node">
<title>Node2</title>
<g id="a_Node000002"><a xlink:title=" ">
<polygon fill="#e0e0e0" stroke="#999999" points="96.84,-19.25 46.34,-19.25 46.34,0 96.84,0 96.84,-19.25"/>
<text text-anchor="middle" x="71.59" y="-5.75" font-family="Helvetica,sans-Serif" font-size="10.00">memory</text>
</a>
</g>
</g>
<!-- Node1&#45;&gt;Node2 -->
<g id="edge1_Node000001_Node000002" class="edge">
<title>Node1&#45;&gt;Node2</title>
<g id="a_edge1_Node000001_Node000002"><a xlink:title=" ">
<path fill="none" stroke="#63b8ff" d="M45.27,-110.11C29.29,-102.19 12.69,-90.64 3.59,-74.5 -7.99,-53.94 15.63,-36.1 38.14,-24.53"/>
<polygon fill="#63b8ff" stroke="#63b8ff" points="39.41,-27.81 46.91,-20.33 36.38,-21.5 39.41,-27.81"/>
</a>
</g>
</g>
<!-- Node3 -->
<g id="Node000003" class="node">
<title>Node3</title>
<g id="a_Node000003"><a xlink:title=" ">
<polygon fill="#e0e0e0" stroke="#999999" points="46.97,-74.5 12.22,-74.5 12.22,-55.25 46.97,-55.25 46.97,-74.5"/>
<text text-anchor="middle" x="29.59" y="-61" font-family="Helvetica,sans-Serif" font-size="10.00">map</text>
</a>
</g>
</g>
<!-- Node1&#45;&gt;Node3 -->
<g id="edge2_Node000001_Node000003" class="edge">
<title>Node1&#45;&gt;Node3</title>
<g id="a_edge2_Node000001_Node000003"><a xlink:title=" ">
<path fill="none" stroke="#63b8ff" d="M72.5,-110.2C64.57,-102.01 54.63,-91.73 46.31,-83.14"/>
<polygon fill="#63b8ff" stroke="#63b8ff" points="48.9,-80.79 39.43,-76.04 43.87,-85.66 48.9,-80.79"/>
</a>
</g>
</g>
<!-- Node4 -->
<g id="Node000004" class="node">
<title>Node4</title>
<g id="a_Node000004"><a xlink:title=" ">
<polygon fill="#e0e0e0" stroke="#999999" points="108.09,-74.5 65.09,-74.5 65.09,-55.25 108.09,-55.25 108.09,-74.5"/>
<text text-anchor="middle" x="86.59" y="-61" font-family="Helvetica,sans-Serif" font-size="10.00">thread</text>
</a>
</g>
</g>
<!-- Node1&#45;&gt;Node4 -->
<g id="edge3_Node000001_Node000004" class="edge">
<title>Node1&#45;&gt;Node4</title>
<g id="a_edge3_Node000001_Node000004"><a xlink:title=" ">
<path fill="none" stroke="#63b8ff" d="M86.59,-110.2C86.59,-102.96 86.59,-94.09 86.59,-86.19"/>
<polygon fill="#63b8ff" stroke="#63b8ff" points="90.09,-86.46 86.59,-76.46 83.09,-86.46 90.09,-86.46"/>
</a>
</g>
</g>
<!-- Node5 -->
<g id="Node000005" class="node">
<title>Node5</title>
<g id="a_Node000005"><a xlink:href="../../df/d6f/iexif__reader_8hpp.html" target="_top" xlink:title=" ">
<polygon fill="#fff0f0" stroke="red" points="209.34,-74.5 125.84,-74.5 125.84,-55.25 209.34,-55.25 209.34,-74.5"/>
<text text-anchor="middle" x="167.59" y="-61" font-family="Helvetica,sans-Serif" font-size="10.00">iexif_reader.hpp</text>
</a>
</g>
</g>
<!-- Node1&#45;&gt;Node5 -->
<g id="edge4_Node000001_Node000005" class="edge">
<title>Node1&#45;&gt;Node5</title>
<g id="a_edge4_Node000001_Node000005"><a xlink:title=" ">
<path fill="none" stroke="#63b8ff" d="M106.61,-110.2C118.59,-101.49 133.81,-90.43 146.05,-81.53"/>
<polygon fill="#63b8ff" stroke="#63b8ff" points="147.85,-84.55 153.88,-75.84 143.73,-78.89 147.85,-84.55"/>
</a>
</g>
</g>
<!-- Node15 -->
<g id="Node000015" class="node">
<title>Node15</title>
<g id="a_Node000015"><a xlink:title=" ">
<polygon fill="#e0e0e0" stroke="#999999" points="239.47,-19.25 165.72,-19.25 165.72,0 239.47,0 239.47,-19.25"/>
<text text-anchor="middle" x="202.59" y="-5.75" font-family="Helvetica,sans-Serif" font-size="10.00">core_export.h</text>
</a>
</g>
</g>
<!-- Node1&#45;&gt;Node15 -->
<g id="edge7_Node000001_Node000015" class="edge">
<title>Node1&#45;&gt;Node15</title>
<g id="a_edge7_Node000001_Node000015"><a xlink:title=" ">
<path fill="none" stroke="#63b8ff" d="M137.56,-119.36C166.48,-113.39 200.43,-100.85 218.59,-74.5 227.81,-61.13 221.87,-42.94 214.76,-29.38"/>
<polygon fill="#63b8ff" stroke="#63b8ff" points="217.92,-27.85 209.84,-21 211.88,-31.39 217.92,-27.85"/>
</a>
</g>
</g>
<!-- Node5&#45;&gt;Node2 -->
<g id="edge5_Node000005_Node000002" class="edge">
<title>Node5&#45;&gt;Node2</title>
<g id="a_edge5_Node000005_Node000002"><a xlink:title=" ">
<path fill="none" stroke="#63b8ff" d="M151.31,-54.84C136.69,-46.73 114.96,-34.68 97.89,-25.21"/>
<polygon fill="#63b8ff" stroke="#63b8ff" points="99.72,-22.23 89.28,-20.44 96.33,-28.35 99.72,-22.23"/>
</a>
</g>
</g>
<!-- Node5&#45;&gt;Node15 -->
<g id="edge6_Node000005_Node000015" class="edge">
<title>Node5&#45;&gt;Node15</title>
<g id="a_edge6_Node000005_Node000015"><a xlink:title=" ">
<path fill="none" stroke="#63b8ff" d="M173.37,-55.08C178,-48.03 184.67,-37.9 190.46,-29.08"/>
<polygon fill="#63b8ff" stroke="#63b8ff" points="193.29,-31.15 195.86,-20.87 187.44,-27.31 193.29,-31.15"/>
</a>
</g>
</g>
</g>
</svg>
