<?xml version="1.0" encoding="UTF-8" standalone="no"?>
<!DOCTYPE svg PUBLIC "-//W3C//DTD SVG 1.1//EN"
 "http://www.w3.org/Graphics/SVG/1.1/DTD/svg11.dtd">
<!-- Generated by graphviz version 7.0.5 (20221223.1930)
 -->
<!-- Title: ILogger::trace Pages: 1 -->
<svg width="260pt" height="86pt"
 viewBox="0.00 0.00 260.00 86.00" xmlns="http://www.w3.org/2000/svg" xmlns:xlink="http://www.w3.org/1999/xlink">
<g id="graph0" class="graph" transform="scale(1 1) rotate(0) translate(4 82)">
<title>ILogger::trace</title>
<!-- Node1 -->
<g id="node1" class="node">
<title>Node1</title>
<g id="a_node1"><a xlink:title=" ">
<polygon fill="#999999" stroke="#666666" points="252,-48.5 176,-48.5 176,-29.5 252,-29.5 252,-48.5"/>
<text text-anchor="middle" x="214" y="-36.5" font-family="Helvetica,sans-Serif" font-size="10.00">ILogger::trace</text>
</a>
</g>
</g>
<!-- Node2 -->
<g id="node2" class="node">
<title>Node2</title>
<g id="a_node2"><a xlink:href="../../d3/d47/class_database_1_1_sql_query_executor.html#a3d635296aa8be0bcda001381473c426f" target="_top" xlink:title=" ">
<polygon fill="white" stroke="#666666" points="140,-78 0,-78 0,-48 140,-48 140,-78"/>
<text text-anchor="start" x="8" y="-66" font-family="Helvetica,sans-Serif" font-size="10.00">Database::SqlQueryExecutor</text>
<text text-anchor="middle" x="70" y="-55" font-family="Helvetica,sans-Serif" font-size="10.00">::exec</text>
</a>
</g>
</g>
<!-- Node1&#45;&gt;Node2 -->
<g id="edge1" class="edge">
<title>Node1&#45;&gt;Node2</title>
<path fill="none" stroke="#63b8ff" d="M164.35,-47.22C156.65,-48.52 148.55,-49.89 140.48,-51.26"/>
<polygon fill="#63b8ff" stroke="#63b8ff" points="164.92,-50.68 174.2,-45.56 163.76,-43.77 164.92,-50.68"/>
</g>
<!-- Node3 -->
<g id="node3" class="node">
<title>Node3</title>
<g id="a_node3"><a xlink:href="../../d7/d27/class_thumbnail_generator.html#a2b3ef9191a1a9b06f39b5207125dc4de" target="_top" xlink:title=" ">
<polygon fill="#fff0f0" stroke="red" points="127.5,-30 12.5,-30 12.5,0 127.5,0 127.5,-30"/>
<text text-anchor="start" x="20.5" y="-18" font-family="Helvetica,sans-Serif" font-size="10.00">ThumbnailGenerator</text>
<text text-anchor="middle" x="70" y="-7" font-family="Helvetica,sans-Serif" font-size="10.00">::readFrameFromVideo</text>
</a>
</g>
</g>
<!-- Node1&#45;&gt;Node3 -->
<g id="edge2" class="edge">
<title>Node1&#45;&gt;Node3</title>
<path fill="none" stroke="#63b8ff" d="M164.68,-30.83C152.84,-28.83 140.06,-26.67 127.86,-24.61"/>
<polygon fill="#63b8ff" stroke="#63b8ff" points="163.76,-34.23 174.2,-32.44 164.92,-27.32 163.76,-34.23"/>
</g>
</g>
</svg>
