<?xml version="1.0" encoding="UTF-8" standalone="no"?>
<!DOCTYPE svg PUBLIC "-//W3C//DTD SVG 1.1//EN"
 "http://www.w3.org/Graphics/SVG/1.1/DTD/svg11.dtd">
<!-- Generated by graphviz version 7.0.5 (20221223.1930)
 -->
<!-- Title: ILogger::error Pages: 1 -->
<svg width="398pt" height="172pt"
 viewBox="0.00 0.00 398.00 172.00" xmlns="http://www.w3.org/2000/svg" xmlns:xlink="http://www.w3.org/1999/xlink">
<g id="graph0" class="graph" transform="scale(1 1) rotate(0) translate(4 168)">
<title>ILogger::error</title>
<!-- Node1 -->
<g id="node1" class="node">
<title>Node1</title>
<g id="a_node1"><a xlink:title=" ">
<polygon fill="#999999" stroke="#666666" points="390,-93.5 316,-93.5 316,-74.5 390,-74.5 390,-93.5"/>
<text text-anchor="middle" x="353" y="-81.5" font-family="Helvetica,sans-Serif" font-size="10.00">ILogger::error</text>
</a>
</g>
</g>
<!-- Node2 -->
<g id="node2" class="node">
<title>Node2</title>
<g id="a_node2"><a xlink:href="../../d3/d47/class_database_1_1_sql_query_executor.html#a3d635296aa8be0bcda001381473c426f" target="_top" xlink:title=" ">
<polygon fill="white" stroke="#666666" points="280,-164 140,-164 140,-134 280,-134 280,-164"/>
<text text-anchor="start" x="148" y="-152" font-family="Helvetica,sans-Serif" font-size="10.00">Database::SqlQueryExecutor</text>
<text text-anchor="middle" x="210" y="-141" font-family="Helvetica,sans-Serif" font-size="10.00">::exec</text>
</a>
</g>
</g>
<!-- Node1&#45;&gt;Node2 -->
<g id="edge1" class="edge">
<title>Node1&#45;&gt;Node2</title>
<path fill="none" stroke="#63b8ff" d="M322.69,-99.2C309.7,-105.8 294.19,-113.48 280,-120 269.96,-124.61 258.99,-129.36 248.8,-133.64"/>
<polygon fill="#63b8ff" stroke="#63b8ff" points="324.26,-102.33 331.57,-94.66 321.07,-96.1 324.26,-102.33"/>
</g>
<!-- Node3 -->
<g id="node3" class="node">
<title>Node3</title>
<g id="a_node3"><a xlink:href="../../d7/d27/class_thumbnail_generator.html#ac140a6ac8e145da51818e8bc6ae4e97c" target="_top" xlink:title=" ">
<polygon fill="#fff0f0" stroke="red" points="104,-99 0,-99 0,-69 104,-69 104,-99"/>
<text text-anchor="start" x="8" y="-87" font-family="Helvetica,sans-Serif" font-size="10.00">ThumbnailGenerator</text>
<text text-anchor="middle" x="52" y="-76" font-family="Helvetica,sans-Serif" font-size="10.00">::readFrame</text>
</a>
</g>
</g>
<!-- Node1&#45;&gt;Node3 -->
<g id="edge2" class="edge">
<title>Node1&#45;&gt;Node3</title>
<path fill="none" stroke="#63b8ff" d="M304.45,-86.26C296.3,-86.57 287.91,-86.84 280,-87 217.79,-88.3 202.21,-88.07 140,-87 128.36,-86.8 115.86,-86.45 104.06,-86.05"/>
<polygon fill="#63b8ff" stroke="#63b8ff" points="304.39,-89.77 314.24,-85.87 304.1,-82.77 304.39,-89.77"/>
</g>
<!-- Node5 -->
<g id="node4" class="node">
<title>Node5</title>
<g id="a_node4"><a xlink:href="../../d7/d27/class_thumbnail_generator.html#a3af9631b0f90b5eccc29e2df79a90e0f" target="_top" xlink:title=" ">
<polygon fill="white" stroke="#666666" points="268.5,-78 151.5,-78 151.5,-48 268.5,-48 268.5,-78"/>
<text text-anchor="start" x="159.5" y="-66" font-family="Helvetica,sans-Serif" font-size="10.00">ThumbnailGenerator</text>
<text text-anchor="middle" x="210" y="-55" font-family="Helvetica,sans-Serif" font-size="10.00">::readFrameFromImage</text>
</a>
</g>
</g>
<!-- Node1&#45;&gt;Node5 -->
<g id="edge3" class="edge">
<title>Node1&#45;&gt;Node5</title>
<path fill="none" stroke="#63b8ff" d="M304.57,-76.94C293.09,-75.23 280.7,-73.38 268.8,-71.61"/>
<polygon fill="#63b8ff" stroke="#63b8ff" points="303.79,-80.36 314.19,-78.37 304.82,-73.43 303.79,-80.36"/>
</g>
<!-- Node6 -->
<g id="node5" class="node">
<title>Node6</title>
<g id="a_node5"><a xlink:href="../../d5/d6b/class_database_1_1_group_operator.html#a44f76a88b5837cadec2a921400d33315" target="_top" xlink:title=" ">
<polygon fill="white" stroke="#666666" points="273,-30 147,-30 147,0 273,0 273,-30"/>
<text text-anchor="start" x="155" y="-18" font-family="Helvetica,sans-Serif" font-size="10.00">Database::GroupOperator</text>
<text text-anchor="middle" x="210" y="-7" font-family="Helvetica,sans-Serif" font-size="10.00">::removeGroup</text>
</a>
</g>
</g>
<!-- Node1&#45;&gt;Node6 -->
<g id="edge5" class="edge">
<title>Node1&#45;&gt;Node6</title>
<path fill="none" stroke="#63b8ff" d="M329,-67.77C315.23,-58.53 297.12,-47.2 280,-39 273.59,-35.93 266.69,-33.06 259.81,-30.44"/>
<polygon fill="#63b8ff" stroke="#63b8ff" points="326.71,-70.45 336.94,-73.21 330.67,-64.67 326.71,-70.45"/>
</g>
<!-- Node5&#45;&gt;Node3 -->
<g id="edge4" class="edge">
<title>Node5&#45;&gt;Node3</title>
<path fill="none" stroke="#63b8ff" d="M140.03,-72.28C128.09,-73.89 115.86,-75.54 104.49,-77.07"/>
<polygon fill="#63b8ff" stroke="#63b8ff" points="140.41,-75.76 149.85,-70.96 139.48,-68.83 140.41,-75.76"/>
</g>
</g>
</svg>
