<?xml version="1.0" encoding="UTF-8" standalone="no"?>
<!DOCTYPE svg PUBLIC "-//W3C//DTD SVG 1.1//EN"
 "http://www.w3.org/Graphics/SVG/1.1/DTD/svg11.dtd">
<!-- Generated by graphviz version 12.2.0 (20241103.1931)
 -->
<!-- Title: src/project_utils/project_manager.hpp Pages: 1 -->
<svg width="242pt" height="94pt"
 viewBox="0.00 0.00 241.88 93.75" xmlns="http://www.w3.org/2000/svg" xmlns:xlink="http://www.w3.org/1999/xlink">
<g id="graph0" class="graph" transform="scale(1 1) rotate(0) translate(4 89.75)">
<title>src/project_utils/project_manager.hpp</title>
<!-- Node1 -->
<g id="Node000001" class="node">
<title>Node1</title>
<g id="a_Node000001"><a xlink:title=" ">
<polygon fill="#999999" stroke="#666666" points="175.38,-85.75 58.12,-85.75 58.12,-55.25 175.38,-55.25 175.38,-85.75"/>
<text text-anchor="start" x="66.12" y="-72.25" font-family="Helvetica,sans-Serif" font-size="10.00">src/project_utils/project</text>
<text text-anchor="middle" x="116.75" y="-61" font-family="Helvetica,sans-Serif" font-size="10.00">_manager.hpp</text>
</a>
</g>
</g>
<!-- Node2 -->
<g id="Node000002" class="node">
<title>Node2</title>
<g id="a_Node000002"><a xlink:title=" ">
<polygon fill="#e0e0e0" stroke="#999999" points="107.5,-19.25 0,-19.25 0,0 107.5,0 107.5,-19.25"/>
<text text-anchor="middle" x="53.75" y="-5.75" font-family="Helvetica,sans-Serif" font-size="10.00">project_utils_export.h</text>
</a>
</g>
</g>
<!-- Node1&#45;&gt;Node2 -->
<g id="edge1_Node000001_Node000002" class="edge">
<title>Node1&#45;&gt;Node2</title>
<g id="a_edge1_Node000001_Node000002"><a xlink:title=" ">
<path fill="none" stroke="#63b8ff" d="M101.18,-54.95C92.23,-46.59 80.96,-36.05 71.65,-27.35"/>
<polygon fill="#63b8ff" stroke="#63b8ff" points="74.26,-25.01 64.57,-20.73 69.48,-30.12 74.26,-25.01"/>
</a>
</g>
</g>
<!-- Node3 -->
<g id="Node000003" class="node">
<title>Node3</title>
<g id="a_Node000003"><a xlink:href="../../d2/dee/iproject__manager_8hpp.html" target="_top" xlink:title=" ">
<polygon fill="#fff0f0" stroke="red" points="233.88,-19.25 125.62,-19.25 125.62,0 233.88,0 233.88,-19.25"/>
<text text-anchor="middle" x="179.75" y="-5.75" font-family="Helvetica,sans-Serif" font-size="10.00">iproject_manager.hpp</text>
</a>
</g>
</g>
<!-- Node1&#45;&gt;Node3 -->
<g id="edge2_Node000001_Node000003" class="edge">
<title>Node1&#45;&gt;Node3</title>
<g id="a_edge2_Node000001_Node000003"><a xlink:title=" ">
<path fill="none" stroke="#63b8ff" d="M132.32,-54.95C141.27,-46.59 152.54,-36.05 161.85,-27.35"/>
<polygon fill="#63b8ff" stroke="#63b8ff" points="164.02,-30.12 168.93,-20.73 159.24,-25.01 164.02,-30.12"/>
</a>
</g>
</g>
</g>
</svg>
