<?xml version="1.0" encoding="UTF-8" standalone="no"?>
<!DOCTYPE svg PUBLIC "-//W3C//DTD SVG 1.1//EN"
 "http://www.w3.org/Graphics/SVG/1.1/DTD/svg11.dtd">
<!-- Generated by graphviz version 12.2.0 (20241103.1931)
 -->
<!-- Title: ol::TS_Queue::wait_for_data Pages: 1 -->
<svg width="382pt" height="96pt"
 viewBox="0.00 0.00 381.50 95.73" xmlns="http://www.w3.org/2000/svg" xmlns:xlink="http://www.w3.org/1999/xlink">

<svg id="main" version="1.1" xmlns="http://www.w3.org/2000/svg" xmlns:xlink="http://www.w3.org/1999/xlink" xml:space="preserve">

<style type="text/css"><![CDATA[
.node, .edge {opacity: 0.7;}
.node.selected, .edge.selected {opacity: 1;}
.edge:hover path { stroke: red; }
.edge:hover polygon { stroke: red; fill: red; }
]]></style>
<script type="application/ecmascript" xlink:href="../../svg.min.js"/>
<svg id="graph" class="graph">
<g id="graph0" class="graph" transform="scale(1 1) rotate(0) translate(4 91.73)">
<title>ol::TS_Queue::wait_for_data</title>
<!-- Node1 -->
<g id="Node000001" class="node">
<title>Node1</title>
<g id="a_Node000001"><a xlink:title="Wait until data is available.">
<polygon fill="#999999" stroke="#666666" points="373.5,-58.68 276.5,-58.68 276.5,-28.18 373.5,-28.18 373.5,-58.68"/>
<text text-anchor="start" x="284.5" y="-45.18" font-family="Helvetica,sans-Serif" font-size="10.00">ol::TS_Queue::wait</text>
<text text-anchor="middle" x="325" y="-33.93" font-family="Helvetica,sans-Serif" font-size="10.00">_for_data</text>
</a>
</g>
</g>
<!-- Node1&#45;&gt;Node1 -->
<g id="edge7_Node000001_Node000001" class="edge">
<title>Node1&#45;&gt;Node1</title>
<g id="a_edge7_Node000001_Node000001"><a xlink:title=" ">
<path fill="none" stroke="#63b8ff" d="M348.5,-70.38C344.66,-74.15 336.82,-76.68 325,-76.68 303.38,-76.68 295.1,-68.24 300.17,-59.17"/>
<polygon fill="#63b8ff" stroke="#63b8ff" points="351.95,-71.01 349.65,-60.67 345,-70.19 351.95,-71.01"/>
</a>
</g>
</g>
<!-- Node2 -->
<g id="Node000002" class="node">
<title>Node2</title>
<g id="a_Node000002"><a xlink:href="../../de/d64/struct_task_executor.html#af4d3c0895333064d125202402bfe924e" target="_top" xlink:title=" ">
<polygon fill="#fff0f0" stroke="red" points="93.25,-81.06 0,-81.06 0,-61.81 93.25,-61.81 93.25,-81.06"/>
<text text-anchor="middle" x="46.62" y="-67.56" font-family="Helvetica,sans-Serif" font-size="10.00">TaskExecutor::eat</text>
</a>
</g>
</g>
<!-- Node1&#45;&gt;Node2 -->
<g id="edge1_Node000001_Node000002" class="edge">
<title>Node1&#45;&gt;Node2</title>
<g id="a_edge1_Node000001_Node000002"><a xlink:title=" ">
<path fill="none" stroke="#63b8ff" d="M287.69,-64.04C273.44,-71.02 256.66,-77.93 240.5,-81.43 191.02,-92.16 132.81,-86.75 93.38,-80.51"/>
<polygon fill="#63b8ff" stroke="#63b8ff" points="288.9,-67.35 296.22,-59.68 285.72,-61.11 288.9,-67.35"/>
</a>
</g>
</g>
<!-- Node4 -->
<g id="Node000004" class="node">
<title>Node4</title>
<g id="a_Node000004"><a xlink:href="../../d2/d36/classol_1_1_t_s___queue.html#af04d57c2821371b697f828444adfb762" target="_top" xlink:title="Get data.">
<polygon fill="#fff0f0" stroke="red" points="232.25,-35.06 137.5,-35.06 137.5,-15.81 232.25,-15.81 232.25,-35.06"/>
<text text-anchor="middle" x="184.88" y="-21.56" font-family="Helvetica,sans-Serif" font-size="10.00">ol::TS_Queue::pop</text>
</a>
</g>
</g>
<!-- Node1&#45;&gt;Node4 -->
<g id="edge2_Node000001_Node000004" class="edge">
<title>Node1&#45;&gt;Node4</title>
<g id="a_edge2_Node000001_Node000004"><a xlink:title=" ">
<path fill="none" stroke="#63b8ff" d="M264.89,-35.73C254,-34.31 242.77,-32.84 232.31,-31.48"/>
<polygon fill="#63b8ff" stroke="#63b8ff" points="264.21,-39.17 274.58,-36.99 265.11,-32.23 264.21,-39.17"/>
</a>
</g>
</g>
<!-- Node8 -->
<g id="Node000008" class="node">
<title>Node8</title>
<g id="a_Node000008"><a xlink:href="../../da/d14/ts__queue__tests_8cpp.html#ae42342486247ba365c6baecce4b64bad" target="_top" xlink:title=" ">
<polygon fill="white" stroke="#666666" points="67,-25.06 26.25,-25.06 26.25,-5.81 67,-5.81 67,-25.06"/>
<text text-anchor="middle" x="46.62" y="-11.56" font-family="Helvetica,sans-Serif" font-size="10.00">TEST</text>
</a>
</g>
</g>
<!-- Node1&#45;&gt;Node8 -->
<g id="edge6_Node000001_Node000008" class="edge">
<title>Node1&#45;&gt;Node8</title>
<g id="a_edge6_Node000001_Node000008"><a xlink:title=" ">
<path fill="none" stroke="#63b8ff" d="M286.22,-22.69C272.28,-16.13 256.08,-9.73 240.5,-6.43 178.35,6.72 102.53,-4.53 67.33,-11.26"/>
<polygon fill="#63b8ff" stroke="#63b8ff" points="284.52,-25.76 295.03,-27.03 287.61,-19.47 284.52,-25.76"/>
</a>
</g>
</g>
<!-- Node9 -->
<g id="Node000009" class="node">
<title>Node9</title>
<g id="a_Node000009"><a xlink:href="../../d2/d36/classol_1_1_t_s___queue.html#a84aa50c15e60d6b0cc74a7c91b4854bc" target="_top" xlink:title="Get data.">
<polygon fill="#fff0f0" stroke="red" points="240.5,-72.06 129.25,-72.06 129.25,-52.81 240.5,-52.81 240.5,-72.06"/>
<text text-anchor="middle" x="184.88" y="-58.56" font-family="Helvetica,sans-Serif" font-size="10.00">ol::TS_Queue::pop_for</text>
</a>
</g>
</g>
<!-- Node1&#45;&gt;Node9 -->
<g id="edge4_Node000001_Node000009" class="edge">
<title>Node1&#45;&gt;Node9</title>
<g id="a_edge4_Node000001_Node000009"><a xlink:title=" ">
<path fill="none" stroke="#63b8ff" d="M264.93,-51.56C256.93,-52.66 248.74,-53.78 240.82,-54.87"/>
<polygon fill="#63b8ff" stroke="#63b8ff" points="265.15,-55.06 274.58,-50.23 264.2,-48.12 265.15,-55.06"/>
</a>
</g>
</g>
<!-- Node4&#45;&gt;Node8 -->
<g id="edge3_Node000004_Node000008" class="edge">
<title>Node4&#45;&gt;Node8</title>
<g id="a_edge3_Node000004_Node000008"><a xlink:title=" ">
<path fill="none" stroke="#63b8ff" d="M125.93,-21.18C105,-19.64 82.76,-18.01 67.35,-16.88"/>
<polygon fill="#63b8ff" stroke="#63b8ff" points="125.63,-24.66 135.86,-21.91 126.14,-17.68 125.63,-24.66"/>
</a>
</g>
</g>
<!-- Node9&#45;&gt;Node2 -->
<g id="edge5_Node000009_Node000002" class="edge">
<title>Node9&#45;&gt;Node2</title>
<g id="a_edge5_Node000009_Node000002"><a xlink:title=" ">
<path fill="none" stroke="#63b8ff" d="M117.52,-66.81C109.46,-67.35 101.36,-67.88 93.68,-68.39"/>
<polygon fill="#63b8ff" stroke="#63b8ff" points="117.59,-70.32 127.34,-66.16 117.13,-63.33 117.59,-70.32"/>
</a>
</g>
</g>
</g>
</svg>
</svg>

<style type='text/css'>
<![CDATA[
[data-mouse-over-selected='false'] { opacity: 0.7; }
[data-mouse-over-selected='true']  { opacity: 1.0; }
]]>
</style>
<script type="application/ecmascript"><![CDATA[
document.addEventListener('DOMContentLoaded', (event) => {
  highlightEdges();
  highlightAdjacentNodes();
});
]]></script>
</svg>
