<?xml version="1.0" encoding="UTF-8" standalone="no"?>
<!DOCTYPE svg PUBLIC "-//W3C//DTD SVG 1.1//EN"
 "http://www.w3.org/Graphics/SVG/1.1/DTD/svg11.dtd">
<!-- Generated by graphviz version 12.2.0 (20241103.1931)
 -->
<!-- Title: ol::TS_Queue::pop_for Pages: 1 -->
<svg width="249pt" height="64pt"
 viewBox="0.00 0.00 248.50 64.25" xmlns="http://www.w3.org/2000/svg" xmlns:xlink="http://www.w3.org/1999/xlink">
<g id="graph0" class="graph" transform="scale(1 1) rotate(0) translate(4 60.25)">
<title>ol::TS_Queue::pop_for</title>
<!-- Node1 -->
<g id="Node000001" class="node">
<title>Node1</title>
<g id="a_Node000001"><a xlink:title="Get data.">
<polygon fill="#999999" stroke="#666666" points="240.5,-37.25 129.25,-37.25 129.25,-18 240.5,-18 240.5,-37.25"/>
<text text-anchor="middle" x="184.88" y="-23.75" font-family="Helvetica,sans-Serif" font-size="10.00">ol::TS_Queue::pop_for</text>
</a>
</g>
</g>
<!-- Node2 -->
<g id="Node000002" class="node">
<title>Node2</title>
<g id="a_Node000002"><a xlink:href="../../de/d64/struct_task_executor.html#af4d3c0895333064d125202402bfe924e" target="_top" xlink:title=" ">
<polygon fill="#fff0f0" stroke="red" points="93.25,-56.25 0,-56.25 0,-37 93.25,-37 93.25,-56.25"/>
<text text-anchor="middle" x="46.62" y="-42.75" font-family="Helvetica,sans-Serif" font-size="10.00">TaskExecutor::eat</text>
</a>
</g>
</g>
<!-- Node1&#45;&gt;Node2 -->
<g id="edge1_Node000001_Node000002" class="edge">
<title>Node1&#45;&gt;Node2</title>
<g id="a_edge1_Node000001_Node000002"><a xlink:title=" ">
<path fill="none" stroke="#63b8ff" d="M117.52,-36.88C109.46,-38 101.36,-39.13 93.68,-40.2"/>
<polygon fill="#63b8ff" stroke="#63b8ff" points="117.93,-40.35 127.35,-35.51 116.96,-33.42 117.93,-40.35"/>
</a>
</g>
</g>
<!-- Node4 -->
<g id="Node000004" class="node">
<title>Node4</title>
<g id="a_Node000004"><a xlink:href="../../da/d14/ts__queue__tests_8cpp.html#a61aabcd767fba366f4bc12ff289fe3ce" target="_top" xlink:title=" ">
<polygon fill="white" stroke="#666666" points="67,-19.25 26.25,-19.25 26.25,0 67,0 67,-19.25"/>
<text text-anchor="middle" x="46.62" y="-5.75" font-family="Helvetica,sans-Serif" font-size="10.00">TEST</text>
</a>
</g>
</g>
<!-- Node1&#45;&gt;Node4 -->
<g id="edge2_Node000001_Node000004" class="edge">
<title>Node1&#45;&gt;Node4</title>
<g id="a_edge2_Node000001_Node000004"><a xlink:title=" ">
<path fill="none" stroke="#63b8ff" d="M117.54,-18.86C99.26,-16.45 80.81,-14.01 67.45,-12.24"/>
<polygon fill="#63b8ff" stroke="#63b8ff" points="116.98,-22.32 127.35,-20.16 117.89,-15.38 116.98,-22.32"/>
</a>
</g>
</g>
</g>
</svg>
