<?xml version="1.0" encoding="UTF-8" standalone="no"?>
<!DOCTYPE svg PUBLIC "-//W3C//DTD SVG 1.1//EN"
 "http://www.w3.org/Graphics/SVG/1.1/DTD/svg11.dtd">
<!-- Generated by graphviz version 12.2.0 (20241103.1931)
 -->
<!-- Title: ol::TS_Queue::push Pages: 1 -->
<svg width="240pt" height="175pt"
 viewBox="0.00 0.00 239.50 175.25" xmlns="http://www.w3.org/2000/svg" xmlns:xlink="http://www.w3.org/1999/xlink">
<g id="graph0" class="graph" transform="scale(1 1) rotate(0) translate(4 171.25)">
<title>ol::TS_Queue::push</title>
<!-- Node1 -->
<g id="Node000001" class="node">
<title>Node1</title>
<g id="a_Node000001"><a xlink:title="Write data to TS_Queue.">
<polygon fill="#999999" stroke="#666666" points="231.5,-93.25 131.5,-93.25 131.5,-74 231.5,-74 231.5,-93.25"/>
<text text-anchor="middle" x="181.5" y="-79.75" font-family="Helvetica,sans-Serif" font-size="10.00">ol::TS_Queue::push</text>
</a>
</g>
</g>
<!-- Node2 -->
<g id="Node000002" class="node">
<title>Node2</title>
<g id="a_Node000002"><a xlink:href="../../de/d64/struct_task_executor.html#a5b829412a1886c0135ecb92537d4406d" target="_top" xlink:title=" ">
<polygon fill="white" stroke="#666666" points="95.5,-167.25 0,-167.25 0,-148 95.5,-148 95.5,-167.25"/>
<text text-anchor="middle" x="47.75" y="-153.75" font-family="Helvetica,sans-Serif" font-size="10.00">TaskExecutor::add</text>
</a>
</g>
</g>
<!-- Node1&#45;&gt;Node2 -->
<g id="edge1_Node000001_Node000002" class="edge">
<title>Node1&#45;&gt;Node2</title>
<g id="a_edge1_Node000001_Node000002"><a xlink:title=" ">
<path fill="none" stroke="#63b8ff" d="M158.26,-100.19C141.56,-112.15 117.83,-128.14 95.5,-139.62 89.93,-142.49 83.8,-145.17 77.86,-147.53"/>
<polygon fill="#63b8ff" stroke="#63b8ff" points="159.96,-103.29 165.99,-94.58 155.84,-97.62 159.96,-103.29"/>
</a>
</g>
</g>
<!-- Node3 -->
<g id="Node000003" class="node">
<title>Node3</title>
<g id="a_Node000003"><a xlink:href="../../da/d14/ts__queue__tests_8cpp.html#a44a011ebb3ac0af93ee2843f49a8b80a" target="_top" xlink:title=" ">
<polygon fill="white" stroke="#666666" points="68.12,-130.25 27.38,-130.25 27.38,-111 68.12,-111 68.12,-130.25"/>
<text text-anchor="middle" x="47.75" y="-116.75" font-family="Helvetica,sans-Serif" font-size="10.00">TEST</text>
</a>
</g>
</g>
<!-- Node1&#45;&gt;Node3 -->
<g id="edge2_Node000001_Node000003" class="edge">
<title>Node1&#45;&gt;Node3</title>
<g id="a_edge2_Node000001_Node000003"><a xlink:title=" ">
<path fill="none" stroke="#63b8ff" d="M133.48,-96.83C111.09,-103.12 85.52,-110.3 68.39,-115.11"/>
<polygon fill="#63b8ff" stroke="#63b8ff" points="134.36,-100.22 143.04,-94.14 132.47,-93.48 134.36,-100.22"/>
</a>
</g>
</g>
<!-- Node4 -->
<g id="Node000004" class="node">
<title>Node4</title>
<g id="a_Node000004"><a xlink:href="../../da/d14/ts__queue__tests_8cpp.html#a581447c30a1ffe7ae6bae6d9c1482a0b" target="_top" xlink:title=" ">
<polygon fill="white" stroke="#666666" points="68.12,-93.25 27.38,-93.25 27.38,-74 68.12,-74 68.12,-93.25"/>
<text text-anchor="middle" x="47.75" y="-79.75" font-family="Helvetica,sans-Serif" font-size="10.00">TEST</text>
</a>
</g>
</g>
<!-- Node1&#45;&gt;Node4 -->
<g id="edge3_Node000001_Node000004" class="edge">
<title>Node1&#45;&gt;Node4</title>
<g id="a_edge3_Node000001_Node000004"><a xlink:title=" ">
<path fill="none" stroke="#63b8ff" d="M119.67,-83.62C101.18,-83.62 82.15,-83.62 68.47,-83.62"/>
<polygon fill="#63b8ff" stroke="#63b8ff" points="119.55,-87.13 129.55,-83.63 119.55,-80.13 119.55,-87.13"/>
</a>
</g>
</g>
<!-- Node5 -->
<g id="Node000005" class="node">
<title>Node5</title>
<g id="a_Node000005"><a xlink:href="../../da/d14/ts__queue__tests_8cpp.html#a8cc6be2012d0b7068ab84628f7f8035a" target="_top" xlink:title=" ">
<polygon fill="white" stroke="#666666" points="68.12,-56.25 27.38,-56.25 27.38,-37 68.12,-37 68.12,-56.25"/>
<text text-anchor="middle" x="47.75" y="-42.75" font-family="Helvetica,sans-Serif" font-size="10.00">TEST</text>
</a>
</g>
</g>
<!-- Node1&#45;&gt;Node5 -->
<g id="edge4_Node000001_Node000005" class="edge">
<title>Node1&#45;&gt;Node5</title>
<g id="a_edge4_Node000001_Node000005"><a xlink:title=" ">
<path fill="none" stroke="#63b8ff" d="M133.48,-70.42C111.09,-64.13 85.52,-56.95 68.39,-52.14"/>
<polygon fill="#63b8ff" stroke="#63b8ff" points="132.47,-73.77 143.04,-73.11 134.36,-67.03 132.47,-73.77"/>
</a>
</g>
</g>
<!-- Node6 -->
<g id="Node000006" class="node">
<title>Node6</title>
<g id="a_Node000006"><a xlink:href="../../da/d14/ts__queue__tests_8cpp.html#ae42342486247ba365c6baecce4b64bad" target="_top" xlink:title=" ">
<polygon fill="white" stroke="#666666" points="68.12,-19.25 27.38,-19.25 27.38,0 68.12,0 68.12,-19.25"/>
<text text-anchor="middle" x="47.75" y="-5.75" font-family="Helvetica,sans-Serif" font-size="10.00">TEST</text>
</a>
</g>
</g>
<!-- Node1&#45;&gt;Node6 -->
<g id="edge5_Node000001_Node000006" class="edge">
<title>Node1&#45;&gt;Node6</title>
<g id="a_edge5_Node000001_Node000006"><a xlink:title=" ">
<path fill="none" stroke="#63b8ff" d="M158.26,-67.06C141.56,-55.1 117.83,-39.11 95.5,-27.62 86.84,-23.17 76.81,-19.17 68.26,-16.07"/>
<polygon fill="#63b8ff" stroke="#63b8ff" points="155.84,-69.63 165.99,-72.67 159.96,-63.96 155.84,-69.63"/>
</a>
</g>
</g>
</g>
</svg>
