<?xml version="1.0" encoding="UTF-8" standalone="no"?>
<!DOCTYPE svg PUBLIC "-//W3C//DTD SVG 1.1//EN"
 "http://www.w3.org/Graphics/SVG/1.1/DTD/svg11.dtd">
<!-- Generated by graphviz version 7.0.5 (20221223.1930)
 -->
<!-- Title: GeneratorUtils::execute Pages: 1 -->
<svg width="265pt" height="76pt"
 viewBox="0.00 0.00 265.00 75.50" xmlns="http://www.w3.org/2000/svg" xmlns:xlink="http://www.w3.org/1999/xlink">
<g id="graph0" class="graph" transform="scale(1 1) rotate(0) translate(4 71.5)">
<title>GeneratorUtils::execute</title>
<!-- Node1 -->
<g id="node1" class="node">
<title>Node1</title>
<g id="a_node1"><a xlink:title=" ">
<polygon fill="#999999" stroke="#666666" points="257,-45.5 139,-45.5 139,-26.5 257,-26.5 257,-45.5"/>
<text text-anchor="middle" x="198" y="-33.5" font-family="Helvetica,sans-Serif" font-size="10.00">GeneratorUtils::execute</text>
</a>
</g>
</g>
<!-- Node2 -->
<g id="node2" class="node">
<title>Node2</title>
<g id="a_node2"><a xlink:href="../../de/def/class_h_d_r_generator.html#a9e42f118789e311753bf6e3d4ce66682" target="_top" xlink:title=" ">
<polygon fill="white" stroke="#666666" points="100.5,-67.5 2.5,-67.5 2.5,-48.5 100.5,-48.5 100.5,-67.5"/>
<text text-anchor="middle" x="51.5" y="-55.5" font-family="Helvetica,sans-Serif" font-size="10.00">HDRGenerator::run</text>
</a>
</g>
</g>
<!-- Node1&#45;&gt;Node2 -->
<g id="edge1" class="edge">
<title>Node1&#45;&gt;Node2</title>
<path fill="none" stroke="#63b8ff" d="M127.37,-46.6C118.41,-47.96 109.4,-49.34 100.89,-50.63"/>
<polygon fill="#63b8ff" stroke="#63b8ff" points="127.79,-50.08 137.15,-45.11 126.73,-43.16 127.79,-50.08"/>
</g>
<!-- Node3 -->
<g id="node3" class="node">
<title>Node3</title>
<g id="a_node3"><a xlink:href="../../d6/d1f/class_animation_generator.html#a3d975f14d70a629b7ac06db1b63d4a45" target="_top" xlink:title=" ">
<polygon fill="#fff0f0" stroke="red" points="103,-30 0,-30 0,0 103,0 103,-30"/>
<text text-anchor="start" x="8" y="-18" font-family="Helvetica,sans-Serif" font-size="10.00">AnimationGenerator</text>
<text text-anchor="middle" x="51.5" y="-7" font-family="Helvetica,sans-Serif" font-size="10.00">::stabilize</text>
</a>
</g>
</g>
<!-- Node1&#45;&gt;Node3 -->
<g id="edge2" class="edge">
<title>Node1&#45;&gt;Node3</title>
<path fill="none" stroke="#63b8ff" d="M127.52,-25.9C119.31,-24.71 111.05,-23.51 103.17,-22.36"/>
<polygon fill="#63b8ff" stroke="#63b8ff" points="126.75,-29.33 137.15,-27.3 127.75,-22.4 126.75,-29.33"/>
</g>
</g>
</svg>
