<?xml version="1.0" encoding="UTF-8" standalone="no"?>
<!DOCTYPE svg PUBLIC "-//W3C//DTD SVG 1.1//EN"
 "http://www.w3.org/Graphics/SVG/1.1/DTD/svg11.dtd">
<!-- Generated by graphviz version 7.0.5 (20221223.1930)
 -->
<!-- Title: src/database/database_queue.hpp Pages: 1 -->
<svg width="503pt" height="104pt"
 viewBox="0.00 0.00 502.50 104.00" xmlns="http://www.w3.org/2000/svg" xmlns:xlink="http://www.w3.org/1999/xlink">
<g id="graph0" class="graph" transform="scale(1 1) rotate(0) translate(4 100)">
<title>src/database/database_queue.hpp</title>
<!-- Node1 -->
<g id="node1" class="node">
<title>Node1</title>
<g id="a_node1"><a xlink:title=" ">
<polygon fill="#999999" stroke="#666666" points="337,-96 221,-96 221,-66 337,-66 337,-96"/>
<text text-anchor="start" x="229" y="-84" font-family="Helvetica,sans-Serif" font-size="10.00">src/database/database</text>
<text text-anchor="middle" x="279" y="-73" font-family="Helvetica,sans-Serif" font-size="10.00">_queue.hpp</text>
</a>
</g>
</g>
<!-- Node2 -->
<g id="node2" class="node">
<title>Node2</title>
<g id="a_node2"><a xlink:title=" ">
<polygon fill="#e0e0e0" stroke="#999999" points="118,-30 0,-30 0,0 118,0 118,-30"/>
<text text-anchor="start" x="8" y="-18" font-family="Helvetica,sans-Serif" font-size="10.00">CsLibGuarded/cs_plain</text>
<text text-anchor="middle" x="59" y="-7" font-family="Helvetica,sans-Serif" font-size="10.00">_guarded.h</text>
</a>
</g>
</g>
<!-- Node1&#45;&gt;Node2 -->
<g id="edge1" class="edge">
<title>Node1&#45;&gt;Node2</title>
<path fill="none" stroke="#63b8ff" d="M229.35,-65.56C196.76,-56.08 153.93,-43.62 119.37,-33.56"/>
<polygon fill="#63b8ff" stroke="#63b8ff" points="120.5,-30.25 109.92,-30.81 118.54,-36.97 120.5,-30.25"/>
</g>
<!-- Node3 -->
<g id="node3" class="node">
<title>Node3</title>
<g id="a_node3"><a xlink:href="../../d1/dcc/accumulative__queue_8hpp.html" target="_top" xlink:title=" ">
<polygon fill="#fff0f0" stroke="red" points="282,-24.5 136,-24.5 136,-5.5 282,-5.5 282,-24.5"/>
<text text-anchor="middle" x="209" y="-12.5" font-family="Helvetica,sans-Serif" font-size="10.00">core/accumulative_queue.hpp</text>
</a>
</g>
</g>
<!-- Node1&#45;&gt;Node3 -->
<g id="edge2" class="edge">
<title>Node1&#45;&gt;Node3</title>
<path fill="none" stroke="#63b8ff" d="M263.46,-65.8C252.66,-55.92 238.22,-42.72 226.93,-32.39"/>
<polygon fill="#63b8ff" stroke="#63b8ff" points="229.53,-30.03 219.79,-25.87 224.81,-35.2 229.53,-30.03"/>
</g>
<!-- Node6 -->
<g id="node4" class="node">
<title>Node6</title>
<g id="a_node4"><a xlink:href="../../d4/d20/task__executor__utils_8hpp.html" target="_top" xlink:title=" ">
<polygon fill="#fff0f0" stroke="red" points="399.5,-30 300.5,-30 300.5,0 399.5,0 399.5,-30"/>
<text text-anchor="start" x="308.5" y="-18" font-family="Helvetica,sans-Serif" font-size="10.00">core/task_executor</text>
<text text-anchor="middle" x="350" y="-7" font-family="Helvetica,sans-Serif" font-size="10.00">_utils.hpp</text>
</a>
</g>
</g>
<!-- Node1&#45;&gt;Node6 -->
<g id="edge3" class="edge">
<title>Node1&#45;&gt;Node6</title>
<path fill="none" stroke="#63b8ff" d="M294.76,-65.8C303.86,-57.59 315.5,-47.1 325.74,-37.87"/>
<polygon fill="#63b8ff" stroke="#63b8ff" points="328.08,-40.47 333.16,-31.18 323.39,-35.27 328.08,-40.47"/>
</g>
<!-- Node17 -->
<g id="node5" class="node">
<title>Node17</title>
<g id="a_node5"><a xlink:href="../../d7/d2b/idatabase_8hpp.html" target="_top" xlink:title=" ">
<polygon fill="#fff0f0" stroke="red" points="494.5,-24.5 417.5,-24.5 417.5,-5.5 494.5,-5.5 494.5,-24.5"/>
<text text-anchor="middle" x="456" y="-12.5" font-family="Helvetica,sans-Serif" font-size="10.00">idatabase.hpp</text>
</a>
</g>
</g>
<!-- Node1&#45;&gt;Node17 -->
<g id="edge4" class="edge">
<title>Node1&#45;&gt;Node17</title>
<path fill="none" stroke="#63b8ff" d="M318.72,-65.64C349.27,-54.59 391.09,-39.47 420.53,-28.83"/>
<polygon fill="#63b8ff" stroke="#63b8ff" points="421.51,-32.19 429.73,-25.5 419.13,-25.61 421.51,-32.19"/>
</g>
</g>
</svg>
