<?xml version="1.0" encoding="UTF-8" standalone="no"?>
<!DOCTYPE svg PUBLIC "-//W3C//DTD SVG 1.1//EN"
 "http://www.w3.org/Graphics/SVG/1.1/DTD/svg11.dtd">
<!-- Generated by graphviz version 7.0.5 (20221223.1930)
 -->
<!-- Title: Database::Builder::Impl Pages: 1 -->
<svg width="303pt" height="93pt"
 viewBox="0.00 0.00 302.50 93.00" xmlns="http://www.w3.org/2000/svg" xmlns:xlink="http://www.w3.org/1999/xlink">
<g id="graph0" class="graph" transform="scale(1 1) rotate(0) translate(4 89)">
<title>Database::Builder::Impl</title>
<!-- Node1 -->
<g id="node1" class="node">
<title>Node1</title>
<g id="a_node1"><a xlink:title=" ">
<polygon fill="#999999" stroke="#666666" points="194.5,-19 78.5,-19 78.5,0 194.5,0 194.5,-19"/>
<text text-anchor="middle" x="136.5" y="-7" font-family="Helvetica,sans-Serif" font-size="10.00">Database::Builder::Impl</text>
</a>
</g>
</g>
<!-- Node2 -->
<g id="node2" class="node">
<title>Node2</title>
<g id="a_node2"><a xlink:href="../../d5/d64/struct_i_plugin_loader.html" target="_top" xlink:title=" ">
<polygon fill="white" stroke="#666666" points="77,-85 0,-85 0,-66 77,-66 77,-85"/>
<text text-anchor="middle" x="38.5" y="-73" font-family="Helvetica,sans-Serif" font-size="10.00">IPluginLoader</text>
</a>
</g>
</g>
<!-- Node2&#45;&gt;Node1 -->
<g id="edge1" class="edge">
<title>Node2&#45;&gt;Node1</title>
<path fill="none" stroke="#9a32cd" stroke-dasharray="5,2" d="M52.54,-57.07C58.73,-50.17 66.44,-42.57 74.5,-37 85.09,-29.68 98.03,-23.76 109.34,-19.38"/>
<polygon fill="#9a32cd" stroke="#9a32cd" points="49.92,-54.75 46.11,-64.63 55.25,-59.28 49.92,-54.75"/>
<text text-anchor="middle" x="103.5" y="-40" font-family="Helvetica,sans-Serif" font-size="10.00"> pluginLoader</text>
</g>
<!-- Node3 -->
<g id="node3" class="node">
<title>Node3</title>
<g id="a_node3"><a xlink:href="../../d1/d78/struct_i_logger_factory.html" target="_top" xlink:title=" ">
<polygon fill="white" stroke="#666666" points="177.5,-85 95.5,-85 95.5,-66 177.5,-66 177.5,-85"/>
<text text-anchor="middle" x="136.5" y="-73" font-family="Helvetica,sans-Serif" font-size="10.00">ILoggerFactory</text>
</a>
</g>
</g>
<!-- Node3&#45;&gt;Node1 -->
<g id="edge2" class="edge">
<title>Node3&#45;&gt;Node1</title>
<path fill="none" stroke="#9a32cd" stroke-dasharray="5,2" d="M136.5,-54.18C136.5,-42.44 136.5,-28.27 136.5,-19.32"/>
<polygon fill="#9a32cd" stroke="#9a32cd" points="133,-54.09 136.5,-64.09 140,-54.09 133,-54.09"/>
<text text-anchor="middle" x="175" y="-40" font-family="Helvetica,sans-Serif" font-size="10.00"> m_logger_factory</text>
</g>
<!-- Node4 -->
<g id="node4" class="node">
<title>Node4</title>
<g id="a_node4"><a xlink:href="../../d7/db4/struct_i_configuration.html" target="_top" xlink:title=" ">
<polygon fill="white" stroke="#666666" points="274.5,-85 198.5,-85 198.5,-66 274.5,-66 274.5,-85"/>
<text text-anchor="middle" x="236.5" y="-73" font-family="Helvetica,sans-Serif" font-size="10.00">IConfiguration</text>
</a>
</g>
</g>
<!-- Node4&#45;&gt;Node1 -->
<g id="edge3" class="edge">
<title>Node4&#45;&gt;Node1</title>
<path fill="none" stroke="#9a32cd" stroke-dasharray="5,2" d="M228.59,-55.24C225.1,-48.7 220.42,-41.83 214.5,-37 204.74,-29.05 192.48,-23.43 180.58,-19.49"/>
<polygon fill="#9a32cd" stroke="#9a32cd" points="225.34,-56.56 232.72,-64.16 231.7,-53.62 225.34,-56.56"/>
<text text-anchor="middle" x="259" y="-40" font-family="Helvetica,sans-Serif" font-size="10.00"> m_configuration</text>
</g>
</g>
</svg>
