<?xml version="1.0" encoding="UTF-8" standalone="no"?>
<!DOCTYPE svg PUBLIC "-//W3C//DTD SVG 1.1//EN"
 "http://www.w3.org/Graphics/SVG/1.1/DTD/svg11.dtd">
<!-- Generated by graphviz version 7.0.5 (20221223.1930)
 -->
<!-- Title: PhotoPropertiesModel Pages: 1 -->
<svg width="242pt" height="93pt"
 viewBox="0.00 0.00 242.00 93.00" xmlns="http://www.w3.org/2000/svg" xmlns:xlink="http://www.w3.org/1999/xlink">
<g id="graph0" class="graph" transform="scale(1 1) rotate(0) translate(4 89)">
<title>PhotoPropertiesModel</title>
<!-- Node1 -->
<g id="node1" class="node">
<title>Node1</title>
<g id="a_node1"><a xlink:title=" ">
<polygon fill="#999999" stroke="#666666" points="174,-19 61,-19 61,0 174,0 174,-19"/>
<text text-anchor="middle" x="117.5" y="-7" font-family="Helvetica,sans-Serif" font-size="10.00">PhotoPropertiesModel</text>
</a>
</g>
</g>
<!-- Node2 -->
<g id="node2" class="node">
<title>Node2</title>
<g id="a_node2"><a xlink:title=" ">
<polygon fill="white" stroke="#666666" points="109,-85 0,-85 0,-66 109,-66 109,-85"/>
<text text-anchor="middle" x="54.5" y="-73" font-family="Helvetica,sans-Serif" font-size="10.00">QStandardItemModel</text>
</a>
</g>
</g>
<!-- Node2&#45;&gt;Node1 -->
<g id="edge1" class="edge">
<title>Node2&#45;&gt;Node1</title>
<path fill="none" stroke="#63b8ff" d="M71.26,-57.48C83.34,-45.2 99.16,-29.13 108.81,-19.32"/>
<polygon fill="#63b8ff" stroke="#63b8ff" points="68.84,-54.94 64.32,-64.52 73.83,-59.85 68.84,-54.94"/>
</g>
<!-- Node3 -->
<g id="node3" class="node">
<title>Node3</title>
<g id="a_node3"><a xlink:href="../../d7/da9/struct_database_1_1_i_database.html" target="_top" xlink:title=" ">
<polygon fill="#fff0f0" stroke="red" points="234,-85 127,-85 127,-66 234,-66 234,-85"/>
<text text-anchor="middle" x="180.5" y="-73" font-family="Helvetica,sans-Serif" font-size="10.00">Database::IDatabase</text>
</a>
</g>
</g>
<!-- Node3&#45;&gt;Node1 -->
<g id="edge2" class="edge">
<title>Node3&#45;&gt;Node1</title>
<path fill="none" stroke="#9a32cd" stroke-dasharray="5,2" d="M163.74,-57.48C151.66,-45.2 135.84,-29.13 126.19,-19.32"/>
<polygon fill="#9a32cd" stroke="#9a32cd" points="161.17,-59.85 170.68,-64.52 166.16,-54.94 161.17,-59.85"/>
<text text-anchor="middle" x="166" y="-40" font-family="Helvetica,sans-Serif" font-size="10.00"> m_db</text>
</g>
</g>
</svg>
