<?xml version="1.0" encoding="UTF-8" standalone="no"?>
<!DOCTYPE svg PUBLIC "-//W3C//DTD SVG 1.1//EN"
 "http://www.w3.org/Graphics/SVG/1.1/DTD/svg11.dtd">
<!-- Generated by graphviz version 9.0.0 (20230911.1827)
 -->
<!-- Title: PhotoPropertiesModel Pages: 1 -->
<svg width="240pt" height="94pt"
 viewBox="0.00 0.00 240.12 93.75" xmlns="http://www.w3.org/2000/svg" xmlns:xlink="http://www.w3.org/1999/xlink">
<g id="graph0" class="graph" transform="scale(1 1) rotate(0) translate(4 89.75)">
<title>PhotoPropertiesModel</title>
<!-- Node1 -->
<g id="Node000001" class="node">
<title>Node1</title>
<g id="a_Node000001"><a xlink:title=" ">
<polygon fill="#999999" stroke="#666666" points="172.12,-19.25 60.13,-19.25 60.13,0 172.12,0 172.12,-19.25"/>
<text text-anchor="middle" x="116.12" y="-5.75" font-family="Helvetica,sans-Serif" font-size="10.00">PhotoPropertiesModel</text>
</a>
</g>
</g>
<!-- Node2 -->
<g id="Node000002" class="node">
<title>Node2</title>
<g id="a_Node000002"><a xlink:title=" ">
<polygon fill="white" stroke="#666666" points="108.25,-85.75 0,-85.75 0,-66.5 108.25,-66.5 108.25,-85.75"/>
<text text-anchor="middle" x="54.12" y="-72.25" font-family="Helvetica,sans-Serif" font-size="10.00">QStandardItemModel</text>
</a>
</g>
</g>
<!-- Node2&#45;&gt;Node1 -->
<g id="edge1_Node000001_Node000002" class="edge">
<title>Node2&#45;&gt;Node1</title>
<g id="a_edge1_Node000001_Node000002"><a xlink:title=" ">
<path fill="none" stroke="#63b8ff" d="M70.62,-57.97C82.51,-45.6 98.08,-29.4 107.58,-19.52"/>
<polygon fill="#63b8ff" stroke="#63b8ff" points="68.2,-55.43 63.79,-65.07 73.25,-60.28 68.2,-55.43"/>
</a>
</g>
</g>
<!-- Node3 -->
<g id="Node000003" class="node">
<title>Node3</title>
<g id="a_Node000003"><a xlink:href="../../d7/da9/struct_database_1_1_i_database.html" target="_top" xlink:title="Base Database interface. A bridge between regular clients and backend.">
<polygon fill="white" stroke="#666666" points="232.12,-85.75 126.12,-85.75 126.12,-66.5 232.12,-66.5 232.12,-85.75"/>
<text text-anchor="middle" x="179.12" y="-72.25" font-family="Helvetica,sans-Serif" font-size="10.00">Database::IDatabase</text>
</a>
</g>
</g>
<!-- Node3&#45;&gt;Node1 -->
<g id="edge2_Node000001_Node000003" class="edge">
<title>Node3&#45;&gt;Node1</title>
<g id="a_edge2_Node000001_Node000003"><a xlink:title=" ">
<path fill="none" stroke="#9a32cd" stroke-dasharray="5,2" d="M162.37,-57.97C150.29,-45.6 134.46,-29.4 124.81,-19.52"/>
<polygon fill="#9a32cd" stroke="#9a32cd" points="159.82,-60.37 169.31,-65.07 164.82,-55.47 159.82,-60.37"/>
</a>
</g>
<text text-anchor="middle" x="164.25" y="-39" font-family="Helvetica,sans-Serif" font-size="10.00" fill="grey"> m_db</text>
</g>
</g>
</svg>
