<?xml version="1.0" encoding="UTF-8" standalone="no"?>
<!DOCTYPE svg PUBLIC "-//W3C//DTD SVG 1.1//EN"
 "http://www.w3.org/Graphics/SVG/1.1/DTD/svg11.dtd">
<!-- Generated by graphviz version 12.2.0 (20241103.1931)
 -->
<!-- Title: PhotoPropertiesModel Pages: 1 -->
<svg width="532pt" height="72pt"
 viewBox="0.00 0.00 532.25 72.25" xmlns="http://www.w3.org/2000/svg" xmlns:xlink="http://www.w3.org/1999/xlink">
<g id="graph0" class="graph" transform="scale(1 1) rotate(0) translate(4 68.25)">
<title>PhotoPropertiesModel</title>
<!-- Node1 -->
<g id="Node000001" class="node">
<title>Node1</title>
<g id="a_Node000001"><a xlink:title=" ">
<polygon fill="#999999" stroke="#666666" points="282.5,-41.75 170.5,-41.75 170.5,-22.5 282.5,-22.5 282.5,-41.75"/>
<text text-anchor="middle" x="226.5" y="-28.25" font-family="Helvetica,sans-Serif" font-size="10.00">PhotoPropertiesModel</text>
</a>
</g>
</g>
<!-- Node4 -->
<g id="Node000004" class="node">
<title>Node4</title>
<g id="a_Node000004"><a xlink:href="../../d7/dfc/class_gui_1_1_utils_1_1_photo_delta_fetcher_binding.html" target="_top" xlink:title=" ">
<polygon fill="white" stroke="#666666" points="524.25,-64.25 368.75,-64.25 368.75,0 524.25,0 524.25,-64.25"/>
<text text-anchor="start" x="376.75" y="-50.75" font-family="Helvetica,sans-Serif" font-size="10.00">Gui::Utils::PhotoDeltaFetcher</text>
<text text-anchor="start" x="376.75" y="-39.5" font-family="Helvetica,sans-Serif" font-size="10.00">Binding&lt; PhotoPropertiesModel,</text>
<text text-anchor="start" x="376.75" y="-28.25" font-family="Helvetica,sans-Serif" font-size="10.00"> void(PhotoPropertiesModel::</text>
<text text-anchor="start" x="376.75" y="-17" font-family="Helvetica,sans-Serif" font-size="10.00">*)(const std::vector&lt; Photo::</text>
<text text-anchor="middle" x="446.5" y="-5.75" font-family="Helvetica,sans-Serif" font-size="10.00">DataDelta &gt; &amp;)&gt;</text>
</a>
</g>
</g>
<!-- Node1&#45;&gt;Node4 -->
<g id="edge4_Node000004_Node000001" class="edge">
<title>Node1&#45;&gt;Node4</title>
<g id="a_edge4_Node000004_Node000001"><a xlink:title=" ">
<path fill="none" stroke="#9a32cd" stroke-dasharray="5,2" d="M294.05,-32.12C317.55,-32.12 344.17,-32.12 368.46,-32.12"/>
<polygon fill="#9a32cd" stroke="#9a32cd" points="294.31,-28.63 284.31,-32.13 294.31,-35.63 294.31,-28.63"/>
</a>
</g>
<text text-anchor="middle" x="325.62" y="-33.88" font-family="Helvetica,sans-Serif" font-size="10.00" fill="grey"> m_receiver</text>
</g>
<!-- Node2 -->
<g id="Node000002" class="node">
<title>Node2</title>
<g id="a_Node000002"><a xlink:title=" ">
<polygon fill="white" stroke="#666666" points="108.25,-60.75 0,-60.75 0,-41.5 108.25,-41.5 108.25,-60.75"/>
<text text-anchor="middle" x="54.12" y="-47.25" font-family="Helvetica,sans-Serif" font-size="10.00">QStandardItemModel</text>
</a>
</g>
</g>
<!-- Node2&#45;&gt;Node1 -->
<g id="edge1_Node000001_Node000002" class="edge">
<title>Node2&#45;&gt;Node1</title>
<g id="a_edge1_Node000001_Node000002"><a xlink:title=" ">
<path fill="none" stroke="#63b8ff" d="M119.84,-43.91C136.43,-42.06 154.12,-40.08 170.19,-38.29"/>
<polygon fill="#63b8ff" stroke="#63b8ff" points="119.62,-40.41 110.07,-45 120.4,-47.37 119.62,-40.41"/>
</a>
</g>
</g>
<!-- Node3 -->
<g id="Node000003" class="node">
<title>Node3</title>
<g id="a_Node000003"><a xlink:href="../../d7/da9/struct_database_1_1_i_database.html" target="_top" xlink:title="Base Database interface. A bridge between regular clients and backend.">
<polygon fill="white" stroke="#666666" points="107.12,-23.75 1.12,-23.75 1.12,-4.5 107.12,-4.5 107.12,-23.75"/>
<text text-anchor="middle" x="54.12" y="-10.25" font-family="Helvetica,sans-Serif" font-size="10.00">Database::IDatabase</text>
</a>
</g>
</g>
<!-- Node3&#45;&gt;Node1 -->
<g id="edge2_Node000001_Node000003" class="edge">
<title>Node3&#45;&gt;Node1</title>
<g id="a_edge2_Node000001_Node000003"><a xlink:title=" ">
<path fill="none" stroke="#9a32cd" stroke-dasharray="5,2" d="M118.18,-20.79C135.26,-22.59 153.61,-24.53 170.23,-26.29"/>
<polygon fill="#9a32cd" stroke="#9a32cd" points="118.99,-17.35 108.67,-19.78 118.25,-24.31 118.99,-17.35"/>
</a>
</g>
<text text-anchor="middle" x="139.38" y="-25.95" font-family="Helvetica,sans-Serif" font-size="10.00" fill="grey"> m_db</text>
</g>
<!-- Node4&#45;&gt;Node1 -->
<g id="edge3_Node000001_Node000004" class="edge">
<title>Node4&#45;&gt;Node1</title>
<g id="a_edge3_Node000001_Node000004"><a xlink:title=" ">
<path fill="none" stroke="#9a32cd" stroke-dasharray="5,2" d="M357.17,-15.97C338.46,-14.3 318.83,-13.86 300.5,-15.88 289.01,-17.14 276.69,-19.49 265.5,-22.01"/>
<polygon fill="#9a32cd" stroke="#9a32cd" points="356.56,-19.43 366.87,-16.97 357.28,-12.47 356.56,-19.43"/>
</a>
</g>
<text text-anchor="middle" x="325.62" y="-17.62" font-family="Helvetica,sans-Serif" font-size="10.00" fill="grey"> m_fetcher</text>
</g>
</g>
</svg>
