<?xml version="1.0" encoding="UTF-8" standalone="no"?>
<!DOCTYPE svg PUBLIC "-//W3C//DTD SVG 1.1//EN"
 "http://www.w3.org/Graphics/SVG/1.1/DTD/svg11.dtd">
<!-- Generated by graphviz version 9.0.0 (20230911.1827)
 -->
<!-- Title: src/core/search_expression_evaluator.hpp Pages: 1 -->
<svg width="300pt" height="105pt"
 viewBox="0.00 0.00 300.12 105.00" xmlns="http://www.w3.org/2000/svg" xmlns:xlink="http://www.w3.org/1999/xlink">
<g id="graph0" class="graph" transform="scale(1 1) rotate(0) translate(4 101)">
<title>src/core/search_expression_evaluator.hpp</title>
<!-- Node1 -->
<g id="Node000001" class="node">
<title>Node1</title>
<g id="a_Node000001"><a xlink:title=" ">
<polygon fill="#999999" stroke="#666666" points="226.12,-97 90.88,-97 90.88,-66.5 226.12,-66.5 226.12,-97"/>
<text text-anchor="start" x="98.88" y="-83.5" font-family="Helvetica,sans-Serif" font-size="10.00">src/core/search_expression</text>
<text text-anchor="middle" x="158.5" y="-72.25" font-family="Helvetica,sans-Serif" font-size="10.00">_evaluator.hpp</text>
</a>
</g>
</g>
<!-- Node2 -->
<g id="Node000002" class="node">
<title>Node2</title>
<g id="a_Node000002"><a xlink:href="../../df/d2a/search__expression__evaluator_8cpp.html" target="_top" xlink:title=" ">
<polygon fill="white" stroke="#666666" points="163,-30.5 0,-30.5 0,0 163,0 163,-30.5"/>
<text text-anchor="start" x="8" y="-17" font-family="Helvetica,sans-Serif" font-size="10.00">src/core/implementation</text>
<text text-anchor="middle" x="81.5" y="-5.75" font-family="Helvetica,sans-Serif" font-size="10.00">/search_expression_evaluator.cpp</text>
</a>
</g>
</g>
<!-- Node1&#45;&gt;Node2 -->
<g id="edge1_Node000001_Node000002" class="edge">
<title>Node1&#45;&gt;Node2</title>
<g id="a_edge1_Node000001_Node000002"><a xlink:title=" ">
<path fill="none" stroke="#63b8ff" d="M132.23,-58.74C121.22,-49.53 108.74,-39.06 98.9,-30.83"/>
<polygon fill="#63b8ff" stroke="#63b8ff" points="129.95,-61.4 139.87,-65.14 134.45,-56.04 129.95,-61.4"/>
</a>
</g>
</g>
<!-- Node3 -->
<g id="Node000003" class="node">
<title>Node3</title>
<g id="a_Node000003"><a xlink:href="../../d1/dd2/filter_8hpp.html" target="_top" xlink:title=" ">
<polygon fill="#fff0f0" stroke="red" points="292.12,-24.88 180.88,-24.88 180.88,-5.63 292.12,-5.63 292.12,-24.88"/>
<text text-anchor="middle" x="236.5" y="-11.38" font-family="Helvetica,sans-Serif" font-size="10.00">src/database/filter.hpp</text>
</a>
</g>
</g>
<!-- Node1&#45;&gt;Node3 -->
<g id="edge2_Node000001_Node000003" class="edge">
<title>Node1&#45;&gt;Node3</title>
<g id="a_edge2_Node000001_Node000003"><a xlink:title=" ">
<path fill="none" stroke="#63b8ff" d="M184.96,-58.87C198.95,-47.3 215.35,-33.74 225.83,-25.07"/>
<polygon fill="#63b8ff" stroke="#63b8ff" points="182.84,-56.08 177.37,-65.15 187.3,-61.47 182.84,-56.08"/>
</a>
</g>
</g>
</g>
</svg>
