<?xml version="1.0" encoding="UTF-8" standalone="no"?>
<!DOCTYPE svg PUBLIC "-//W3C//DTD SVG 1.1//EN"
 "http://www.w3.org/Graphics/SVG/1.1/DTD/svg11.dtd">
<!-- Generated by graphviz version 9.0.0 (20230911.1827)
 -->
<!-- Title: Photo::DataDelta::get Pages: 1 -->
<!--zoomable 572 -->

<svg id="main" version="1.1" xmlns="http://www.w3.org/2000/svg" xmlns:xlink="http://www.w3.org/1999/xlink" xml:space="preserve" onload="init(evt)">
<style type="text/css"><![CDATA[
.node, .edge {opacity: 0.7;}
.node.selected, .edge.selected {opacity: 1;}
.edge:hover path { stroke: red; }
.edge:hover polygon { stroke: red; fill: red; }
]]></style>

<defs>
  <circle id="rim" cx="0" cy="0" r="7"/>
  <circle id="rim2" cx="0" cy="0" r="3.5"/>
  <g id="zoomPlus">
    <use xlink:href="#rim" fill="#404040"><set attributeName="fill" to="#808080" begin="zoomplus.mouseover" end="zoomplus.mouseout"/></use>
    <path d="M-4,0h8M0,-4v8" fill="none" stroke="white" stroke-width="1.5" pointer-events="none"/>
  </g>
  <g id="zoomMin">
    <use xlink:href="#rim" fill="#404040"><set attributeName="fill" to="#808080" begin="zoomminus.mouseover" end="zoomminus.mouseout"/></use>
    <path d="M-4,0h8" fill="none" stroke="white" stroke-width="1.5" pointer-events="none"/>
  </g>
  <g id="arrowUp" transform="translate(30 24)">
    <use xlink:href="#rim"/>
    <path pointer-events="none" fill="none" stroke="white" stroke-width="1.5" d="M0,-3.0v7 M-2.5,-0.5L0,-3.0L2.5,-0.5"/>
  </g>
  <g id="arrowRight" transform="rotate(90) translate(36 -43)">
    <use xlink:href="#rim"/>
    <path pointer-events="none" fill="none" stroke="white" stroke-width="1.5" d="M0,-3.0v7 M-2.5,-0.5L0,-3.0L2.5,-0.5"/>
  </g>
  <g id="arrowDown" transform="rotate(180) translate(-30 -48)">
    <use xlink:href="#rim"/>
    <path pointer-events="none" fill="none" stroke="white" stroke-width="1.5" d="M0,-3.0v7 M-2.5,-0.5L0,-3.0L2.5,-0.5"/>
  </g>
  <g id="arrowLeft" transform="rotate(270) translate(-36 17)">
    <use xlink:href="#rim"/>
    <path pointer-events="none" fill="none" stroke="white" stroke-width="1.5" d="M0,-3.0v7 M-2.5,-0.5L0,-3.0L2.5,-0.5"/>
  </g>
  <g id="resetDef">
    <use xlink:href="#rim2" fill="#404040"><set attributeName="fill" to="#808080" begin="reset.mouseover" end="reset.mouseout"/></use>
  </g>
</defs>
<script type="application/ecmascript">
var viewWidth = 609;
var viewHeight = 572;
var sectionId = 'dynsection-2';
</script>
<script type="application/ecmascript" xlink:href="../../svg.min.js"/>
<svg id="graph" class="graph">
<g id="viewport">
<title>Photo::DataDelta::get</title>
<!-- Node1 -->
<g id="Node000001" class="node">
<title>Node1</title>
<g id="a_Node000001"><a xlink:title=" ">
<polygon fill="#999999" stroke="#666666" points="601,-295.88 494.25,-295.88 494.25,-276.62 601,-276.62 601,-295.88"/>
<text text-anchor="middle" x="547.62" y="-282.38" font-family="Helvetica,sans-Serif" font-size="10.00">Photo::DataDelta::get</text>
</a>
</g>
</g>
<!-- Node2 -->
<g id="Node000002" class="node">
<title>Node2</title>
<g id="a_Node000002"><a xlink:href="../../db/d29/class_photo_1_1_explicit_delta.html#a798c20babb6f45b46348df7bb7facd14" target="_top" xlink:title=" ">
<polygon fill="white" stroke="#666666" points="456,-563.88 338.75,-563.88 338.75,-544.62 456,-544.62 456,-563.88"/>
<text text-anchor="middle" x="397.38" y="-550.38" font-family="Helvetica,sans-Serif" font-size="10.00">Photo::ExplicitDelta::get</text>
</a>
</g>
</g>
<!-- Node1&#45;&gt;Node2 -->
<g id="edge1_Node000001_Node000002" class="edge">
<title>Node1&#45;&gt;Node2</title>
<g id="a_edge1_Node000001_Node000002"><a xlink:title=" ">
<path fill="none" stroke="#63b8ff" d="M545.36,-307.68C541.37,-355.69 524.94,-472.67 458.25,-536.25 454.95,-539.4 451.12,-541.99 447.03,-544.14"/>
<polygon fill="#63b8ff" stroke="#63b8ff" points="548.85,-308.04 546.07,-297.81 541.86,-307.54 548.85,-308.04"/>
</a>
</g>
</g>
<!-- Node3 -->
<g id="Node000003" class="node">
<title>Node3</title>
<g id="a_Node000003"><a xlink:href="../../db/d29/class_photo_1_1_explicit_delta.html#aa17dc0e526caaa840d26a44e3b0d9b40" target="_top" xlink:title=" ">
<polygon fill="#fff0f0" stroke="red" points="456,-526.88 338.75,-526.88 338.75,-507.62 456,-507.62 456,-526.88"/>
<text text-anchor="middle" x="397.38" y="-513.38" font-family="Helvetica,sans-Serif" font-size="10.00">Photo::ExplicitDelta::get</text>
</a>
</g>
</g>
<!-- Node1&#45;&gt;Node3 -->
<g id="edge2_Node000001_Node000003" class="edge">
<title>Node1&#45;&gt;Node3</title>
<g id="a_edge2_Node000001_Node000003"><a xlink:title=" ">
<path fill="none" stroke="#63b8ff" d="M543.17,-307.2C535.35,-348.3 512.57,-440.13 458.25,-493.25 452.17,-499.2 444.42,-503.73 436.53,-507.17"/>
<polygon fill="#63b8ff" stroke="#63b8ff" points="546.6,-307.91 544.91,-297.45 539.71,-306.68 546.6,-307.91"/>
</a>
</g>
</g>
<!-- Node10 -->
<g id="Node000010" class="node">
<title>Node10</title>
<g id="a_Node000010"><a xlink:href="../../d0/d89/class_database_1_1_a_photo_change_log_operator.html#a2553f497a5bdffdc081ed06c048921ef" target="_top" xlink:title=" ">
<polygon fill="white" stroke="#666666" points="300.5,-499.5 157,-499.5 157,-469 300.5,-469 300.5,-499.5"/>
<text text-anchor="start" x="165" y="-486" font-family="Helvetica,sans-Serif" font-size="10.00">Database::APhotoChangeLog</text>
<text text-anchor="middle" x="228.75" y="-474.75" font-family="Helvetica,sans-Serif" font-size="10.00">Operator::storeDifference</text>
</a>
</g>
</g>
<!-- Node1&#45;&gt;Node10 -->
<g id="edge15_Node000001_Node000010" class="edge">
<title>Node1&#45;&gt;Node10</title>
<g id="a_edge15_Node000001_Node000010"><a xlink:title=" ">
<path fill="none" stroke="#63b8ff" d="M542.4,-306.72C533.68,-343.27 510.03,-419.25 458.25,-455.25 412.7,-486.93 349.4,-492.78 300.97,-491.51"/>
<polygon fill="#63b8ff" stroke="#63b8ff" points="545.71,-307.96 544.47,-297.44 538.87,-306.43 545.71,-307.96"/>
</a>
</g>
</g>
<!-- Node11 -->
<g id="Node000011" class="node">
<title>Node11</title>
<g id="a_Node000011"><a xlink:href="../../d5/d1b/class_database_1_1_a_sql_backend.html#ae7ba3709fe28b703826257947ea891b6" target="_top" xlink:title=" ">
<polygon fill="white" stroke="#666666" points="121,-477.5 0,-477.5 0,-447 121,-447 121,-477.5"/>
<text text-anchor="start" x="8" y="-464" font-family="Helvetica,sans-Serif" font-size="10.00">Database::ASqlBackend</text>
<text text-anchor="middle" x="60.5" y="-452.75" font-family="Helvetica,sans-Serif" font-size="10.00">::storeData</text>
</a>
</g>
</g>
<!-- Node1&#45;&gt;Node11 -->
<g id="edge14_Node000001_Node000011" class="edge">
<title>Node1&#45;&gt;Node11</title>
<g id="a_edge14_Node000001_Node000011"><a xlink:title=" ">
<path fill="none" stroke="#63b8ff" d="M539.68,-307.16C528.17,-338.18 501.97,-395.59 458.25,-422.25 430.17,-439.37 225.23,-453.11 121.42,-459.06"/>
<polygon fill="#63b8ff" stroke="#63b8ff" points="542.97,-308.35 542.99,-297.76 536.37,-306.03 542.97,-308.35"/>
</a>
</g>
</g>
<!-- Node12 -->
<g id="Node000012" class="node">
<title>Node12</title>
<g id="a_Node000012"><a xlink:href="../../d7/ddf/class_photo_data_qml.html#a0d12bcb6ffdad1cc29f4e9cea53ec47f" target="_top" xlink:title="access to flags as a QML compatible map">
<polygon fill="#fff0f0" stroke="red" points="458.25,-412.88 336.5,-412.88 336.5,-393.62 458.25,-393.62 458.25,-412.88"/>
<text text-anchor="middle" x="397.38" y="-399.38" font-family="Helvetica,sans-Serif" font-size="10.00">PhotoDataQml::getFlags</text>
</a>
</g>
</g>
<!-- Node1&#45;&gt;Node12 -->
<g id="edge5_Node000001_Node000012" class="edge">
<title>Node1&#45;&gt;Node12</title>
<g id="a_edge5_Node000001_Node000012"><a xlink:title=" ">
<path fill="none" stroke="#63b8ff" d="M534.14,-305.8C518.87,-328.17 490.96,-364.42 458.25,-385.25 453.31,-388.4 447.78,-391.02 442.15,-393.2"/>
<polygon fill="#63b8ff" stroke="#63b8ff" points="536.98,-307.86 539.58,-297.59 531.14,-303.99 536.98,-307.86"/>
</a>
</g>
</g>
<!-- Node14 -->
<g id="Node000014" class="node">
<title>Node14</title>
<g id="a_Node000014"><a xlink:href="../../d4/d50/namespace_photo.html#a4f56c419b3674bafac3f5c360192b1e8" target="_top" xlink:title=" ">
<polygon fill="#fff0f0" stroke="red" points="437.25,-375.88 357.5,-375.88 357.5,-356.62 437.25,-356.62 437.25,-375.88"/>
<text text-anchor="middle" x="397.38" y="-362.38" font-family="Helvetica,sans-Serif" font-size="10.00">Photo::getPath</text>
</a>
</g>
</g>
<!-- Node1&#45;&gt;Node14 -->
<g id="edge6_Node000001_Node000014" class="edge">
<title>Node1&#45;&gt;Node14</title>
<g id="a_edge6_Node000001_Node000014"><a xlink:title=" ">
<path fill="none" stroke="#63b8ff" d="M526.5,-303.2C509.31,-316.97 483.43,-336.03 458.25,-348.25 451.81,-351.38 444.7,-354.09 437.71,-356.39"/>
<polygon fill="#63b8ff" stroke="#63b8ff" points="528.39,-306.17 533.93,-297.14 523.97,-300.75 528.39,-306.17"/>
</a>
</g>
</g>
<!-- Node24 -->
<g id="Node000024" class="node">
<title>Node24</title>
<g id="a_Node000024"><a xlink:href="../../df/d40/namespace_groups_manager.html#a36d06be40255e8a0134e20f37a9da47b" target="_top" xlink:title=" ">
<polygon fill="white" stroke="#666666" points="454.12,-338.88 340.62,-338.88 340.62,-319.62 454.12,-319.62 454.12,-338.88"/>
<text text-anchor="middle" x="397.38" y="-325.38" font-family="Helvetica,sans-Serif" font-size="10.00">GroupsManager::group</text>
</a>
</g>
</g>
<!-- Node1&#45;&gt;Node24 -->
<g id="edge7_Node000001_Node000024" class="edge">
<title>Node1&#45;&gt;Node24</title>
<g id="a_edge7_Node000001_Node000024"><a xlink:title=" ">
<path fill="none" stroke="#63b8ff" d="M500.86,-299.52C479.04,-305.85 453.37,-313.3 433.17,-319.16"/>
<polygon fill="#63b8ff" stroke="#63b8ff" points="501.78,-302.9 510.41,-296.75 499.83,-296.18 501.78,-302.9"/>
</a>
</g>
</g>
<!-- Node25 -->
<g id="Node000025" class="node">
<title>Node25</title>
<g id="a_Node000025"><a xlink:href="../../d5/d1b/class_database_1_1_a_sql_backend.html#a218cc7555092910cf6c33cab849cc0fb" target="_top" xlink:title="create new entry for photo in database">
<polygon fill="#fff0f0" stroke="red" points="457.88,-301.5 336.88,-301.5 336.88,-271 457.88,-271 457.88,-301.5"/>
<text text-anchor="start" x="344.88" y="-288" font-family="Helvetica,sans-Serif" font-size="10.00">Database::ASqlBackend</text>
<text text-anchor="middle" x="397.38" y="-276.75" font-family="Helvetica,sans-Serif" font-size="10.00">::introduce</text>
</a>
</g>
</g>
<!-- Node1&#45;&gt;Node25 -->
<g id="edge8_Node000001_Node000025" class="edge">
<title>Node1&#45;&gt;Node25</title>
<g id="a_edge8_Node000001_Node000025"><a xlink:title=" ">
<path fill="none" stroke="#63b8ff" d="M482.63,-286.25C474.52,-286.25 466.25,-286.25 458.21,-286.25"/>
<polygon fill="#63b8ff" stroke="#63b8ff" points="482.43,-289.75 492.43,-286.25 482.43,-282.75 482.43,-289.75"/>
</a>
</g>
</g>
<!-- Node28 -->
<g id="Node000028" class="node">
<title>Node28</title>
<g id="a_Node000028"><a xlink:href="../../d4/d50/namespace_photo.html#a0fd396899fa831f05e9bbd635bba04a5" target="_top" xlink:title=" ">
<polygon fill="#fff0f0" stroke="red" points="424.12,-252.88 370.62,-252.88 370.62,-233.62 424.12,-233.62 424.12,-252.88"/>
<text text-anchor="middle" x="397.38" y="-239.38" font-family="Helvetica,sans-Serif" font-size="10.00">Photo::is</text>
</a>
</g>
</g>
<!-- Node1&#45;&gt;Node28 -->
<g id="edge9_Node000001_Node000028" class="edge">
<title>Node1&#45;&gt;Node28</title>
<g id="a_edge9_Node000001_Node000028"><a xlink:title=" ">
<path fill="none" stroke="#63b8ff" d="M501.11,-273.05C476.01,-265.77 445.73,-256.99 424.58,-250.85"/>
<polygon fill="#63b8ff" stroke="#63b8ff" points="499.83,-276.32 510.41,-275.75 501.78,-269.6 499.83,-276.32"/>
</a>
</g>
</g>
<!-- Node34 -->
<g id="Node000034" class="node">
<title>Node34</title>
<g id="a_Node000034"><a xlink:href="../../dc/d8c/namespace_photo_delta.html#ac7ba92966e8e0b99eb0dea6bed6a925d" target="_top" xlink:title=" ">
<polygon fill="white" stroke="#666666" points="435.38,-215.88 359.38,-215.88 359.38,-196.62 435.38,-196.62 435.38,-215.88"/>
<text text-anchor="middle" x="397.38" y="-202.38" font-family="Helvetica,sans-Serif" font-size="10.00">PhotoDelta::is</text>
</a>
</g>
</g>
<!-- Node1&#45;&gt;Node34 -->
<g id="edge10_Node000001_Node000034" class="edge">
<title>Node1&#45;&gt;Node34</title>
<g id="a_edge10_Node000001_Node000034"><a xlink:title=" ">
<path fill="none" stroke="#63b8ff" d="M526.5,-269.3C509.31,-255.53 483.43,-236.47 458.25,-224.25 451.22,-220.84 443.41,-217.92 435.81,-215.49"/>
<polygon fill="#63b8ff" stroke="#63b8ff" points="523.97,-271.75 533.93,-275.36 528.39,-266.33 523.97,-271.75"/>
</a>
</g>
</g>
<!-- Node35 -->
<g id="Node000035" class="node">
<title>Node35</title>
<g id="a_Node000035"><a xlink:href="../../d4/d50/namespace_photo.html#acfa4c22bb2d186512596cbe74c290e7a" target="_top" xlink:title=" ">
<polygon fill="white" stroke="#666666" points="435,-178.88 359.75,-178.88 359.75,-159.62 435,-159.62 435,-178.88"/>
<text text-anchor="middle" x="397.38" y="-165.38" font-family="Helvetica,sans-Serif" font-size="10.00">Photo::isLess</text>
</a>
</g>
</g>
<!-- Node1&#45;&gt;Node35 -->
<g id="edge11_Node000001_Node000035" class="edge">
<title>Node1&#45;&gt;Node35</title>
<g id="a_edge11_Node000001_Node000035"><a xlink:title=" ">
<path fill="none" stroke="#63b8ff" d="M534.14,-266.7C518.87,-244.33 490.96,-208.08 458.25,-187.25 451.29,-182.82 443.19,-179.43 435.23,-176.86"/>
<polygon fill="#63b8ff" stroke="#63b8ff" points="531.14,-268.51 539.58,-274.91 536.98,-264.64 531.14,-268.51"/>
</a>
</g>
</g>
<!-- Node36 -->
<g id="Node000036" class="node">
<title>Node36</title>
<g id="a_Node000036"><a xlink:href="../../dc/d8c/namespace_photo_delta.html#a83857616ed7cd6f258d72d9442ff4037" target="_top" xlink:title=" ">
<polygon fill="white" stroke="#666666" points="446.25,-141.88 348.5,-141.88 348.5,-122.62 446.25,-122.62 446.25,-141.88"/>
<text text-anchor="middle" x="397.38" y="-128.38" font-family="Helvetica,sans-Serif" font-size="10.00">PhotoDelta::isLess</text>
</a>
</g>
</g>
<!-- Node1&#45;&gt;Node36 -->
<g id="edge12_Node000001_Node000036" class="edge">
<title>Node1&#45;&gt;Node36</title>
<g id="a_edge12_Node000001_Node000036"><a xlink:title=" ">
<path fill="none" stroke="#63b8ff" d="M538.81,-265.93C526.32,-236.13 499.02,-180.82 458.25,-150.25 453.99,-147.06 449.17,-144.43 444.16,-142.27"/>
<polygon fill="#63b8ff" stroke="#63b8ff" points="535.45,-266.96 542.43,-274.93 541.94,-264.34 535.45,-266.96"/>
</a>
</g>
</g>
<!-- Node37 -->
<g id="Node000037" class="node">
<title>Node37</title>
<g id="a_Node000037"><a xlink:href="../../d7/ddf/class_photo_data_qml.html#a36de9c664118b798d1871c7effd2a20b" target="_top" xlink:title=" ">
<polygon fill="white" stroke="#666666" points="448.88,-104.88 345.88,-104.88 345.88,-85.62 448.88,-85.62 448.88,-104.88"/>
<text text-anchor="middle" x="397.38" y="-91.38" font-family="Helvetica,sans-Serif" font-size="10.00">PhotoDataQml::path</text>
</a>
</g>
</g>
<!-- Node1&#45;&gt;Node37 -->
<g id="edge13_Node000001_Node000037" class="edge">
<title>Node1&#45;&gt;Node37</title>
<g id="a_edge13_Node000001_Node000037"><a xlink:title=" ">
<path fill="none" stroke="#63b8ff" d="M541.78,-265.62C532.19,-229.37 507.34,-154.21 458.25,-113.25 454.42,-110.05 450.03,-107.42 445.41,-105.26"/>
<polygon fill="#63b8ff" stroke="#63b8ff" points="538.27,-266 544.09,-274.85 545.06,-264.3 538.27,-266"/>
</a>
</g>
</g>
<!-- Node38 -->
<g id="Node000038" class="node">
<title>Node38</title>
<g id="a_Node000038"><a xlink:href="../../d6/dc3/data__delta__tests_8cpp.html#a05a42cc2572de1ebf095ad0009785202" target="_top" xlink:title=" ">
<polygon fill="white" stroke="#666666" points="417.75,-67.88 377,-67.88 377,-48.62 417.75,-48.62 417.75,-67.88"/>
<text text-anchor="middle" x="397.38" y="-54.38" font-family="Helvetica,sans-Serif" font-size="10.00">TEST</text>
</a>
</g>
</g>
<!-- Node1&#45;&gt;Node38 -->
<g id="edge16_Node000001_Node000038" class="edge">
<title>Node1&#45;&gt;Node38</title>
<g id="a_edge16_Node000001_Node000038"><a xlink:title=" ">
<path fill="none" stroke="#63b8ff" d="M543.72,-264.84C536.83,-222.52 515.57,-127.78 458.25,-76.25 447.19,-66.31 430.82,-61.85 417.99,-59.86"/>
<polygon fill="#63b8ff" stroke="#63b8ff" points="540.25,-265.32 545.19,-274.69 547.17,-264.29 540.25,-265.32"/>
</a>
</g>
</g>
<!-- Node39 -->
<g id="Node000039" class="node">
<title>Node39</title>
<g id="a_Node000039"><a xlink:href="../../de/db3/class_context_menu_manager.html#ae6cff95d57472c72bfc4b576f507fe6c" target="_top" xlink:title=" ">
<polygon fill="#fff0f0" stroke="red" points="452.62,-30.5 342.12,-30.5 342.12,0 452.62,0 452.62,-30.5"/>
<text text-anchor="start" x="350.12" y="-17" font-family="Helvetica,sans-Serif" font-size="10.00">ContextMenuManager</text>
<text text-anchor="middle" x="397.38" y="-5.75" font-family="Helvetica,sans-Serif" font-size="10.00">::updateModel</text>
</a>
</g>
</g>
<!-- Node1&#45;&gt;Node39 -->
<g id="edge17_Node000001_Node000039" class="edge">
<title>Node1&#45;&gt;Node39</title>
<g id="a_edge17_Node000001_Node000039"><a xlink:title=" ">
<path fill="none" stroke="#63b8ff" d="M544.8,-264.86C539.7,-217.88 521.2,-104.62 458.25,-39.25 455.22,-36.1 451.72,-33.36 447.97,-30.97"/>
<polygon fill="#63b8ff" stroke="#63b8ff" points="541.31,-265.15 545.77,-274.76 548.28,-264.47 541.31,-265.15"/>
</a>
</g>
</g>
<!-- Node3&#45;&gt;Node10 -->
<g id="edge3_Node000003_Node000010" class="edge">
<title>Node3&#45;&gt;Node10</title>
<g id="a_edge3_Node000003_Node000010"><a xlink:title=" ">
<path fill="none" stroke="#63b8ff" d="M334.34,-504.96C323.44,-502.8 312.01,-500.54 300.89,-498.34"/>
<polygon fill="#63b8ff" stroke="#63b8ff" points="333.5,-508.37 343.99,-506.88 334.86,-501.5 333.5,-508.37"/>
</a>
</g>
</g>
<!-- Node10&#45;&gt;Node11 -->
<g id="edge4_Node000010_Node000011" class="edge">
<title>Node10&#45;&gt;Node11</title>
<g id="a_edge4_Node000010_Node000011"><a xlink:title=" ">
<path fill="none" stroke="#63b8ff" d="M145.61,-473.38C137.4,-472.29 129.18,-471.21 121.27,-470.16"/>
<polygon fill="#63b8ff" stroke="#63b8ff" points="144.89,-476.82 155.26,-474.66 145.81,-469.88 144.89,-476.82"/>
</a>
</g>
</g>
</g>
</svg>

<g id="navigator" transform="translate(0 0)" fill="#404254">
  <rect fill="#f2f5e9" fill-opacity="0.5" stroke="#606060" stroke-width=".5" x="0" y="0" width="60" height="60"/>
  <use id="zoomplus" xlink:href="#zoomPlus" x="17" y="9" onmousedown="handleZoom(evt,'in')"/>
  <use id="zoomminus" xlink:href="#zoomMin" x="42" y="9" onmousedown="handleZoom(evt,'out')"/>
  <use id="reset" xlink:href="#resetDef" x="30" y="36" onmousedown="handleReset()"/>
   <use id="arrowup" xlink:href="#arrowUp" x="0" y="0" onmousedown="handlePan(0,-1)"/>
  <use id="arrowright" xlink:href="#arrowRight" x="0" y="0" onmousedown="handlePan(1,0)"/>
  <use id="arrowdown" xlink:href="#arrowDown" x="0" y="0" onmousedown="handlePan(0,1)"/>
  <use id="arrowleft" xlink:href="#arrowLeft" x="0" y="0" onmousedown="handlePan(-1,0)"/>
</g>
<svg viewBox="0 0 15 15" width="100%" height="30px" preserveAspectRatio="xMaxYMin meet">
 <g id="arrow_out" transform="scale(0.3 0.3)">
  <a xlink:href="class_photo_1_1_data_delta_adb6e34500f00515020150df2f9fd0ab7_icgraph_org.svg" target="_base">
   <rect id="button" ry="5" rx="5" y="6" x="6" height="38" width="38"
        fill="#f2f5e9" fill-opacity="0.5" stroke="#606060" stroke-width="1.0"/>
   <path id="arrow"
     d="M 11.500037,31.436501 C 11.940474,20.09759 22.043105,11.32322 32.158766,21.979434 L 37.068811,17.246167 C 37.068811,17.246167 37.088388,32 37.088388,32 L 22.160133,31.978069 C 22.160133,31.978069 26.997745,27.140456 26.997745,27.140456 C 18.528582,18.264221 13.291696,25.230495 11.500037,31.436501 z"
     style="fill:#404040;"/>
  </a>
 </g>
</svg>

<style type='text/css'>
<![CDATA[
[data-mouse-over-selected='false'] { opacity: 0.7; }
[data-mouse-over-selected='true']  { opacity: 1.0; }
]]>
</style>
<script type="application/ecmascript"><![CDATA[
document.addEventListener('DOMContentLoaded', (event) => {
  highlightEdges();
  highlightAdjacentNodes();
});
]]></script>
</svg>
