<?xml version="1.0" encoding="UTF-8" standalone="no"?>
<!DOCTYPE svg PUBLIC "-//W3C//DTD SVG 1.1//EN"
 "http://www.w3.org/Graphics/SVG/1.1/DTD/svg11.dtd">
<!-- Generated by graphviz version 9.0.0 (20230911.1827)
 -->
<!-- Title: Photo::DataDelta::getId Pages: 1 -->
<svg width="617pt" height="628pt"
 viewBox="0.00 0.00 617.25 628.25" xmlns="http://www.w3.org/2000/svg" xmlns:xlink="http://www.w3.org/1999/xlink">
<g id="graph0" class="graph" transform="scale(1 1) rotate(0) translate(4 624.25)">
<title>Photo::DataDelta::getId</title>
<!-- Node1 -->
<g id="Node000001" class="node">
<title>Node1</title>
<g id="a_Node000001"><a xlink:title=" ">
<polygon fill="#999999" stroke="#666666" points="609.25,-314.25 494.25,-314.25 494.25,-295 609.25,-295 609.25,-314.25"/>
<text text-anchor="middle" x="551.75" y="-300.75" font-family="Helvetica,sans-Serif" font-size="10.00">Photo::DataDelta::getId</text>
</a>
</g>
</g>
<!-- Node2 -->
<g id="Node000002" class="node">
<title>Node2</title>
<g id="a_Node000002"><a xlink:href="../../d5/df1/struct_photo_1_1_data.html#a08fbe960d4ddc3a2c2c49dd6a82acf25" target="_top" xlink:title=" ">
<polygon fill="#fff0f0" stroke="red" points="444,-620.25 350.75,-620.25 350.75,-601 444,-601 444,-620.25"/>
<text text-anchor="middle" x="397.38" y="-606.75" font-family="Helvetica,sans-Serif" font-size="10.00">Photo::Data::apply</text>
</a>
</g>
</g>
<!-- Node1&#45;&gt;Node2 -->
<g id="edge1_Node000001_Node000002" class="edge">
<title>Node1&#45;&gt;Node2</title>
<g id="a_edge1_Node000001_Node000002"><a xlink:title=" ">
<path fill="none" stroke="#63b8ff" d="M550.32,-326.03C548.07,-379.03 534.77,-517.52 458.25,-592.62 454.3,-596.5 449.55,-599.55 444.47,-601.94"/>
<polygon fill="#63b8ff" stroke="#63b8ff" points="553.81,-326.36 550.63,-316.26 546.82,-326.14 553.81,-326.36"/>
</a>
</g>
</g>
<!-- Node9 -->
<g id="Node000009" class="node">
<title>Node9</title>
<g id="a_Node000009"><a xlink:href="../../d7/ddf/class_photo_data_qml.html#a0d12bcb6ffdad1cc29f4e9cea53ec47f" target="_top" xlink:title="access to flags as a QML compatible map">
<polygon fill="white" stroke="#666666" points="458.25,-583.25 336.5,-583.25 336.5,-564 458.25,-564 458.25,-583.25"/>
<text text-anchor="middle" x="397.38" y="-569.75" font-family="Helvetica,sans-Serif" font-size="10.00">PhotoDataQml::getFlags</text>
</a>
</g>
</g>
<!-- Node1&#45;&gt;Node9 -->
<g id="edge2_Node000001_Node000009" class="edge">
<title>Node1&#45;&gt;Node9</title>
<g id="a_edge2_Node000001_Node000009"><a xlink:title=" ">
<path fill="none" stroke="#63b8ff" d="M548.48,-325.86C542.4,-372.5 521.66,-484.92 458.25,-549.62 452.37,-555.62 444.8,-560.17 437.03,-563.59"/>
<polygon fill="#63b8ff" stroke="#63b8ff" points="551.94,-326.38 549.65,-316.04 544.99,-325.56 551.94,-326.38"/>
</a>
</g>
</g>
<!-- Node10 -->
<g id="Node000010" class="node">
<title>Node10</title>
<g id="a_Node000010"><a xlink:href="../../d7/ddf/class_photo_data_qml.html#a5a6883aaeb5705e29c447b6d0bfa01fe" target="_top" xlink:title=" ">
<polygon fill="white" stroke="#666666" points="300.5,-545.25 157,-545.25 157,-526 300.5,-526 300.5,-545.25"/>
<text text-anchor="middle" x="228.75" y="-531.75" font-family="Helvetica,sans-Serif" font-size="10.00">PhotoDataQml::setPhotoData</text>
</a>
</g>
</g>
<!-- Node1&#45;&gt;Node10 -->
<g id="edge10_Node000001_Node000010" class="edge">
<title>Node1&#45;&gt;Node10</title>
<g id="a_edge10_Node000001_Node000010"><a xlink:title=" ">
<path fill="none" stroke="#63b8ff" d="M548.57,-325.54C542.78,-369.35 522.75,-470.47 458.25,-516.62 407.75,-552.77 333.95,-551.92 283.99,-545.74"/>
<polygon fill="#63b8ff" stroke="#63b8ff" points="552.02,-326.2 549.72,-315.86 545.07,-325.38 552.02,-326.2"/>
</a>
</g>
</g>
<!-- Node11 -->
<g id="Node000011" class="node">
<title>Node11</title>
<g id="a_Node000011"><a xlink:href="../../db/d29/class_photo_1_1_explicit_delta.html#a17a99123198a14dfec77677700c8d2ad" target="_top" xlink:title=" ">
<polygon fill="#fff0f0" stroke="red" points="447,-469.88 347.75,-469.88 347.75,-439.38 447,-439.38 447,-469.88"/>
<text text-anchor="start" x="355.75" y="-456.38" font-family="Helvetica,sans-Serif" font-size="10.00">Photo::ExplicitDelta</text>
<text text-anchor="middle" x="397.38" y="-445.12" font-family="Helvetica,sans-Serif" font-size="10.00">::getId</text>
</a>
</g>
</g>
<!-- Node1&#45;&gt;Node11 -->
<g id="edge4_Node000001_Node000011" class="edge">
<title>Node1&#45;&gt;Node11</title>
<g id="a_edge4_Node000001_Node000011"><a xlink:title=" ">
<path fill="none" stroke="#63b8ff" d="M539.6,-324.51C524.16,-350.57 494.1,-396.36 458.25,-425.62 452.08,-430.66 444.88,-435.09 437.66,-438.88"/>
<polygon fill="#63b8ff" stroke="#63b8ff" points="542.56,-326.38 544.53,-315.97 536.5,-322.88 542.56,-326.38"/>
</a>
</g>
</g>
<!-- Node16 -->
<g id="Node000016" class="node">
<title>Node16</title>
<g id="a_Node000016"><a xlink:href="../../d0/d89/class_database_1_1_a_photo_change_log_operator.html#a2553f497a5bdffdc081ed06c048921ef" target="_top" xlink:title=" ">
<polygon fill="white" stroke="#666666" points="300.5,-431.88 157,-431.88 157,-401.38 300.5,-401.38 300.5,-431.88"/>
<text text-anchor="start" x="165" y="-418.38" font-family="Helvetica,sans-Serif" font-size="10.00">Database::APhotoChangeLog</text>
<text text-anchor="middle" x="228.75" y="-407.12" font-family="Helvetica,sans-Serif" font-size="10.00">Operator::storeDifference</text>
</a>
</g>
</g>
<!-- Node1&#45;&gt;Node16 -->
<g id="edge15_Node000001_Node000016" class="edge">
<title>Node1&#45;&gt;Node16</title>
<g id="a_edge15_Node000001_Node000016"><a xlink:title=" ">
<path fill="none" stroke="#63b8ff" d="M536.01,-323.33C519.39,-342.94 490.46,-372.9 458.25,-387.62 408.88,-410.19 347.62,-416.98 300.96,-418.38"/>
<polygon fill="#63b8ff" stroke="#63b8ff" points="538.54,-325.77 542.18,-315.82 533.13,-321.32 538.54,-325.77"/>
</a>
</g>
</g>
<!-- Node17 -->
<g id="Node000017" class="node">
<title>Node17</title>
<g id="a_Node000017"><a xlink:href="../../d5/d1b/class_database_1_1_a_sql_backend.html#ae7ba3709fe28b703826257947ea891b6" target="_top" xlink:title=" ">
<polygon fill="white" stroke="#666666" points="121,-409.88 0,-409.88 0,-379.38 121,-379.38 121,-409.88"/>
<text text-anchor="start" x="8" y="-396.38" font-family="Helvetica,sans-Serif" font-size="10.00">Database::ASqlBackend</text>
<text text-anchor="middle" x="60.5" y="-385.12" font-family="Helvetica,sans-Serif" font-size="10.00">::storeData</text>
</a>
</g>
</g>
<!-- Node1&#45;&gt;Node17 -->
<g id="edge14_Node000001_Node000017" class="edge">
<title>Node1&#45;&gt;Node17</title>
<g id="a_edge14_Node000001_Node000017"><a xlink:title=" ">
<path fill="none" stroke="#63b8ff" d="M510.75,-318.06C494.58,-323.14 475.66,-328.65 458.25,-332.62 340.16,-359.59 199.6,-378.51 121.48,-387.89"/>
<polygon fill="#63b8ff" stroke="#63b8ff" points="511.55,-321.48 520.01,-315.09 509.42,-314.81 511.55,-321.48"/>
</a>
</g>
</g>
<!-- Node18 -->
<g id="Node000018" class="node">
<title>Node18</title>
<g id="a_Node000018"><a xlink:href="../../d5/d1b/class_database_1_1_a_sql_backend.html#a218cc7555092910cf6c33cab849cc0fb" target="_top" xlink:title="create new entry for photo in database">
<polygon fill="#fff0f0" stroke="red" points="289.25,-317.88 168.25,-317.88 168.25,-287.38 289.25,-287.38 289.25,-317.88"/>
<text text-anchor="start" x="176.25" y="-304.38" font-family="Helvetica,sans-Serif" font-size="10.00">Database::ASqlBackend</text>
<text text-anchor="middle" x="228.75" y="-293.12" font-family="Helvetica,sans-Serif" font-size="10.00">::introduce</text>
</a>
</g>
</g>
<!-- Node1&#45;&gt;Node18 -->
<g id="edge7_Node000001_Node000018" class="edge">
<title>Node1&#45;&gt;Node18</title>
<g id="a_edge7_Node000001_Node000018"><a xlink:title=" ">
<path fill="none" stroke="#63b8ff" d="M482.9,-314.44C474.61,-315.34 466.25,-316.11 458.25,-316.62 404.25,-320.11 390.5,-320.15 336.5,-316.62 321.3,-315.63 304.96,-313.85 289.74,-311.89"/>
<polygon fill="#63b8ff" stroke="#63b8ff" points="483.08,-317.95 492.61,-313.32 482.28,-310.99 483.08,-317.95"/>
</a>
</g>
</g>
<!-- Node21 -->
<g id="Node000021" class="node">
<title>Node21</title>
<g id="a_Node000021"><a xlink:href="../../d7/ddf/class_photo_data_qml.html#ab1034364057bf340170712083e0d2c83" target="_top" xlink:title=" ">
<polygon fill="white" stroke="#666666" points="456.38,-507.25 338.38,-507.25 338.38,-488 456.38,-488 456.38,-507.25"/>
<text text-anchor="middle" x="397.38" y="-493.75" font-family="Helvetica,sans-Serif" font-size="10.00">PhotoDataQml::isGroup</text>
</a>
</g>
</g>
<!-- Node1&#45;&gt;Node21 -->
<g id="edge8_Node000001_Node000021" class="edge">
<title>Node1&#45;&gt;Node21</title>
<g id="a_edge8_Node000001_Node000021"><a xlink:title=" ">
<path fill="none" stroke="#63b8ff" d="M545.36,-325.31C534.83,-361.66 508.07,-437.11 458.25,-478.62 453.89,-482.26 448.84,-485.19 443.54,-487.57"/>
<polygon fill="#63b8ff" stroke="#63b8ff" points="548.63,-326.61 547.92,-316.04 541.88,-324.75 548.63,-326.61"/>
</a>
</g>
</g>
<!-- Node22 -->
<g id="Node000022" class="node">
<title>Node22</title>
<g id="a_Node000022"><a xlink:href="../../d5/d1b/class_database_1_1_a_sql_backend.html#aeabaa61a16e3602392353c5ce5727b91" target="_top" xlink:title="store photo data">
<polygon fill="#fff0f0" stroke="red" points="457.88,-289.88 336.88,-289.88 336.88,-259.38 457.88,-259.38 457.88,-289.88"/>
<text text-anchor="start" x="344.88" y="-276.38" font-family="Helvetica,sans-Serif" font-size="10.00">Database::ASqlBackend</text>
<text text-anchor="middle" x="397.38" y="-265.12" font-family="Helvetica,sans-Serif" font-size="10.00">::storeData</text>
</a>
</g>
</g>
<!-- Node1&#45;&gt;Node22 -->
<g id="edge11_Node000001_Node000022" class="edge">
<title>Node1&#45;&gt;Node22</title>
<g id="a_edge11_Node000001_Node000022"><a xlink:title=" ">
<path fill="none" stroke="#63b8ff" d="M488.52,-292.37C478.56,-290.41 468.27,-288.39 458.36,-286.44"/>
<polygon fill="#63b8ff" stroke="#63b8ff" points="487.61,-295.76 498.1,-294.26 488.97,-288.89 487.61,-295.76"/>
</a>
</g>
</g>
<!-- Node24 -->
<g id="Node000024" class="node">
<title>Node24</title>
<g id="a_Node000024"><a xlink:href="../../d6/dc3/data__delta__tests_8cpp.html#ae9b738cc9b0a8d14d0b46e72e0850327" target="_top" xlink:title=" ">
<polygon fill="white" stroke="#666666" points="417.75,-241.25 377,-241.25 377,-222 417.75,-222 417.75,-241.25"/>
<text text-anchor="middle" x="397.38" y="-227.75" font-family="Helvetica,sans-Serif" font-size="10.00">TEST</text>
</a>
</g>
</g>
<!-- Node1&#45;&gt;Node24 -->
<g id="edge16_Node000001_Node000024" class="edge">
<title>Node1&#45;&gt;Node24</title>
<g id="a_edge16_Node000001_Node000024"><a xlink:title=" ">
<path fill="none" stroke="#63b8ff" d="M526.39,-288.4C508.18,-276.77 482.37,-261.33 458.25,-250.62 445.29,-244.87 430.05,-240.06 418.19,-236.72"/>
<polygon fill="#63b8ff" stroke="#63b8ff" points="524.35,-291.24 534.64,-293.75 528.16,-285.37 524.35,-291.24"/>
</a>
</g>
</g>
<!-- Node25 -->
<g id="Node000025" class="node">
<title>Node25</title>
<g id="a_Node000025"><a xlink:href="../../d6/dc3/data__delta__tests_8cpp.html#a793b57922396be00a7fce4a7bfe87c06" target="_top" xlink:title=" ">
<polygon fill="white" stroke="#666666" points="417.75,-204.25 377,-204.25 377,-185 417.75,-185 417.75,-204.25"/>
<text text-anchor="middle" x="397.38" y="-190.75" font-family="Helvetica,sans-Serif" font-size="10.00">TEST</text>
</a>
</g>
</g>
<!-- Node1&#45;&gt;Node25 -->
<g id="edge17_Node000001_Node000025" class="edge">
<title>Node1&#45;&gt;Node25</title>
<g id="a_edge17_Node000001_Node000025"><a xlink:title=" ">
<path fill="none" stroke="#63b8ff" d="M536.65,-285.87C520.07,-265.08 490.67,-231.94 458.25,-212.62 445.94,-205.29 430.41,-200.73 418.25,-198.04"/>
<polygon fill="#63b8ff" stroke="#63b8ff" points="533.7,-287.77 542.6,-293.52 539.22,-283.48 533.7,-287.77"/>
</a>
</g>
</g>
<!-- Node26 -->
<g id="Node000026" class="node">
<title>Node26</title>
<g id="a_Node000026"><a xlink:href="../../df/d93/general__flags__tests_8cpp.html#ae971755199b834c20bd57378bf7e6e14" target="_top" xlink:title=" ">
<polygon fill="white" stroke="#666666" points="436.5,-167.25 358.25,-167.25 358.25,-148 436.5,-148 436.5,-167.25"/>
<text text-anchor="middle" x="397.38" y="-153.75" font-family="Helvetica,sans-Serif" font-size="10.00">TYPED_TEST</text>
</a>
</g>
</g>
<!-- Node1&#45;&gt;Node26 -->
<g id="edge18_Node000001_Node000026" class="edge">
<title>Node1&#45;&gt;Node26</title>
<g id="a_edge18_Node000001_Node000026"><a xlink:title=" ">
<path fill="none" stroke="#63b8ff" d="M541.44,-284.14C527.43,-255.61 498.26,-204.21 458.25,-175.62 451.89,-171.08 444.37,-167.67 436.85,-165.11"/>
<polygon fill="#63b8ff" stroke="#63b8ff" points="538.26,-285.6 545.7,-293.14 544.58,-282.61 538.26,-285.6"/>
</a>
</g>
</g>
<!-- Node27 -->
<g id="Node000027" class="node">
<title>Node27</title>
<g id="a_Node000027"><a xlink:href="../../df/d93/general__flags__tests_8cpp.html#a90ac80feec382175e16a875784e2b106" target="_top" xlink:title=" ">
<polygon fill="white" stroke="#666666" points="436.5,-130.25 358.25,-130.25 358.25,-111 436.5,-111 436.5,-130.25"/>
<text text-anchor="middle" x="397.38" y="-116.75" font-family="Helvetica,sans-Serif" font-size="10.00">TYPED_TEST</text>
</a>
</g>
</g>
<!-- Node1&#45;&gt;Node27 -->
<g id="edge19_Node000001_Node000027" class="edge">
<title>Node1&#45;&gt;Node27</title>
<g id="a_edge19_Node000001_Node000027"><a xlink:title=" ">
<path fill="none" stroke="#63b8ff" d="M544.84,-283.85C533.77,-248.69 506.55,-177.46 458.25,-138.62 452.07,-133.66 444.55,-130.06 436.95,-127.46"/>
<polygon fill="#63b8ff" stroke="#63b8ff" points="541.43,-284.66 547.66,-293.23 548.13,-282.64 541.43,-284.66"/>
</a>
</g>
</g>
<!-- Node28 -->
<g id="Node000028" class="node">
<title>Node28</title>
<g id="a_Node000028"><a xlink:href="../../dc/dab/thumbnails__tests_8cpp.html#a40357efaea31dda42edd29262e8fe565" target="_top" xlink:title=" ">
<polygon fill="white" stroke="#666666" points="436.5,-93.25 358.25,-93.25 358.25,-74 436.5,-74 436.5,-93.25"/>
<text text-anchor="middle" x="397.38" y="-79.75" font-family="Helvetica,sans-Serif" font-size="10.00">TYPED_TEST</text>
</a>
</g>
</g>
<!-- Node1&#45;&gt;Node28 -->
<g id="edge20_Node000001_Node000028" class="edge">
<title>Node1&#45;&gt;Node28</title>
<g id="a_edge20_Node000001_Node000028"><a xlink:title=" ">
<path fill="none" stroke="#63b8ff" d="M547.12,-283.64C538.89,-242.53 514.98,-151.14 458.25,-101.62 452.2,-96.34 444.64,-92.61 436.96,-89.97"/>
<polygon fill="#63b8ff" stroke="#63b8ff" points="543.66,-284.21 548.94,-293.4 550.54,-282.92 543.66,-284.21"/>
</a>
</g>
</g>
<!-- Node29 -->
<g id="Node000029" class="node">
<title>Node29</title>
<g id="a_Node000029"><a xlink:href="../../dc/dab/thumbnails__tests_8cpp.html#a043b94ebfae0b63e205bf6b1850eb6d1" target="_top" xlink:title=" ">
<polygon fill="white" stroke="#666666" points="436.5,-56.25 358.25,-56.25 358.25,-37 436.5,-37 436.5,-56.25"/>
<text text-anchor="middle" x="397.38" y="-42.75" font-family="Helvetica,sans-Serif" font-size="10.00">TYPED_TEST</text>
</a>
</g>
</g>
<!-- Node1&#45;&gt;Node29 -->
<g id="edge21_Node000001_Node000029" class="edge">
<title>Node1&#45;&gt;Node29</title>
<g id="a_edge21_Node000001_Node000029"><a xlink:title=" ">
<path fill="none" stroke="#63b8ff" d="M548.75,-283.4C543.22,-236.85 523.51,-125.11 458.25,-64.62 452.28,-59.09 444.67,-55.25 436.89,-52.6"/>
<polygon fill="#63b8ff" stroke="#63b8ff" points="545.25,-283.63 549.8,-293.2 552.21,-282.88 545.25,-283.63"/>
</a>
</g>
</g>
<!-- Node30 -->
<g id="Node000030" class="node">
<title>Node30</title>
<g id="a_Node000030"><a xlink:href="../../dc/dab/thumbnails__tests_8cpp.html#a5f37ca5128eb0925b56a0a86058fe5ad" target="_top" xlink:title=" ">
<polygon fill="white" stroke="#666666" points="436.5,-19.25 358.25,-19.25 358.25,0 436.5,0 436.5,-19.25"/>
<text text-anchor="middle" x="397.38" y="-5.75" font-family="Helvetica,sans-Serif" font-size="10.00">TYPED_TEST</text>
</a>
</g>
</g>
<!-- Node1&#45;&gt;Node30 -->
<g id="edge22_Node000001_Node000030" class="edge">
<title>Node1&#45;&gt;Node30</title>
<g id="a_edge22_Node000001_Node000030"><a xlink:title=" ">
<path fill="none" stroke="#63b8ff" d="M550.01,-283.35C547.04,-231.83 532.22,-99.39 458.25,-27.62 452.33,-21.88 444.65,-17.96 436.77,-15.29"/>
<polygon fill="#63b8ff" stroke="#63b8ff" points="546.5,-283.28 550.47,-293.1 553.49,-282.95 546.5,-283.28"/>
</a>
</g>
</g>
<!-- Node9&#45;&gt;Node10 -->
<g id="edge3_Node000009_Node000010" class="edge">
<title>Node9&#45;&gt;Node10</title>
<g id="a_edge3_Node000009_Node000010"><a xlink:title=" ">
<path fill="none" stroke="#63b8ff" d="M341.04,-561.01C319.21,-556.03 294.48,-550.39 273.88,-545.69"/>
<polygon fill="#63b8ff" stroke="#63b8ff" points="340.16,-564.39 350.68,-563.2 341.71,-557.57 340.16,-564.39"/>
</a>
</g>
</g>
<!-- Node11&#45;&gt;Node16 -->
<g id="edge5_Node000011_Node000016" class="edge">
<title>Node11&#45;&gt;Node16</title>
<g id="a_edge5_Node000011_Node000016"><a xlink:title=" ">
<path fill="none" stroke="#63b8ff" d="M336.28,-440.92C324.04,-438.13 311.07,-435.17 298.55,-432.32"/>
<polygon fill="#63b8ff" stroke="#63b8ff" points="335.28,-444.28 345.81,-443.09 336.84,-437.46 335.28,-444.28"/>
</a>
</g>
</g>
<!-- Node16&#45;&gt;Node17 -->
<g id="edge6_Node000016_Node000017" class="edge">
<title>Node16&#45;&gt;Node17</title>
<g id="a_edge6_Node000016_Node000017"><a xlink:title=" ">
<path fill="none" stroke="#63b8ff" d="M145.61,-405.76C137.4,-404.67 129.18,-403.58 121.27,-402.53"/>
<polygon fill="#63b8ff" stroke="#63b8ff" points="144.89,-409.19 155.26,-407.03 145.81,-402.25 144.89,-409.19"/>
</a>
</g>
</g>
<!-- Node21&#45;&gt;Node10 -->
<g id="edge9_Node000021_Node000010" class="edge">
<title>Node21&#45;&gt;Node10</title>
<g id="a_edge9_Node000021_Node000010"><a xlink:title=" ">
<path fill="none" stroke="#63b8ff" d="M341.04,-510.24C319.21,-515.22 294.48,-520.86 273.88,-525.56"/>
<polygon fill="#63b8ff" stroke="#63b8ff" points="341.71,-513.68 350.68,-508.05 340.16,-506.86 341.71,-513.68"/>
</a>
</g>
</g>
<!-- Node22&#45;&gt;Node18 -->
<g id="edge12_Node000022_Node000018" class="edge">
<title>Node22&#45;&gt;Node18</title>
<g id="a_edge12_Node000022_Node000018"><a xlink:title=" ">
<path fill="none" stroke="#63b8ff" d="M325.39,-286.55C313.46,-288.56 301.19,-290.62 289.58,-292.57"/>
<polygon fill="#63b8ff" stroke="#63b8ff" points="325.92,-290.01 335.2,-284.91 324.76,-283.11 325.92,-290.01"/>
</a>
</g>
</g>
<!-- Node22&#45;&gt;Node22 -->
<g id="edge13_Node000022_Node000022" class="edge">
<title>Node22&#45;&gt;Node22</title>
<g id="a_edge13_Node000022_Node000022"><a xlink:title=" ">
<path fill="none" stroke="#63b8ff" d="M423.26,-301.58C419.03,-305.35 410.4,-307.88 397.38,-307.88 373.56,-307.88 364.44,-299.43 370.02,-290.36"/>
<polygon fill="#63b8ff" stroke="#63b8ff" points="426.71,-302.23 424.53,-291.86 419.77,-301.32 426.71,-302.23"/>
</a>
</g>
</g>
</g>
</svg>
