<?xml version="1.0" encoding="UTF-8" standalone="no"?>
<!DOCTYPE svg PUBLIC "-//W3C//DTD SVG 1.1//EN"
 "http://www.w3.org/Graphics/SVG/1.1/DTD/svg11.dtd">
<!-- Generated by graphviz version 9.0.0 (20230911.1827)
 -->
<!-- Title: Photo::DataDelta::has Pages: 1 -->
<svg width="454pt" height="422pt"
 viewBox="0.00 0.00 453.50 422.25" xmlns="http://www.w3.org/2000/svg" xmlns:xlink="http://www.w3.org/1999/xlink">
<g id="graph0" class="graph" transform="scale(1 1) rotate(0) translate(4 418.25)">
<title>Photo::DataDelta::has</title>
<!-- Node1 -->
<g id="Node000001" class="node">
<title>Node1</title>
<g id="a_Node000001"><a xlink:title=" ">
<polygon fill="#999999" stroke="#666666" points="445.5,-217.25 336.5,-217.25 336.5,-198 445.5,-198 445.5,-217.25"/>
<text text-anchor="middle" x="391" y="-203.75" font-family="Helvetica,sans-Serif" font-size="10.00">Photo::DataDelta::has</text>
</a>
</g>
</g>
<!-- Node2 -->
<g id="Node000002" class="node">
<title>Node2</title>
<g id="a_Node000002"><a xlink:href="../../d5/df1/struct_photo_1_1_data.html#a08fbe960d4ddc3a2c2c49dd6a82acf25" target="_top" xlink:title=" ">
<polygon fill="#fff0f0" stroke="red" points="275.38,-414.25 182.12,-414.25 182.12,-395 275.38,-395 275.38,-414.25"/>
<text text-anchor="middle" x="228.75" y="-400.75" font-family="Helvetica,sans-Serif" font-size="10.00">Photo::Data::apply</text>
</a>
</g>
</g>
<!-- Node1&#45;&gt;Node2 -->
<g id="edge1_Node000001_Node000002" class="edge">
<title>Node1&#45;&gt;Node2</title>
<g id="a_edge1_Node000001_Node000002"><a xlink:title=" ">
<path fill="none" stroke="#63b8ff" d="M385.54,-228.65C376.43,-266.28 352.03,-345.11 300.5,-386.62 293.39,-392.35 284.69,-396.28 275.85,-398.97"/>
<polygon fill="#63b8ff" stroke="#63b8ff" points="388.92,-229.58 387.72,-219.05 382.09,-228.02 388.92,-229.58"/>
</a>
</g>
</g>
<!-- Node9 -->
<g id="Node000009" class="node">
<title>Node9</title>
<g id="a_Node000009"><a xlink:href="../../d7/d1e/class_photo_1_1_data_delta.html#a7272ed9d28b235c6ec00667726bbbdde" target="_top" xlink:title=" ">
<polygon fill="white" stroke="#666666" points="282.12,-377.25 175.38,-377.25 175.38,-358 282.12,-358 282.12,-377.25"/>
<text text-anchor="middle" x="228.75" y="-363.75" font-family="Helvetica,sans-Serif" font-size="10.00">Photo::DataDelta::get</text>
</a>
</g>
</g>
<!-- Node1&#45;&gt;Node9 -->
<g id="edge2_Node000001_Node000009" class="edge">
<title>Node1&#45;&gt;Node9</title>
<g id="a_edge2_Node000001_Node000009"><a xlink:title=" ">
<path fill="none" stroke="#63b8ff" d="M382.77,-228.2C370.73,-259.39 343.55,-318.32 300.5,-349.62 295.07,-353.58 288.85,-356.66 282.41,-359.07"/>
<polygon fill="#63b8ff" stroke="#63b8ff" points="385.94,-229.73 386.12,-219.14 379.37,-227.3 385.94,-229.73"/>
</a>
</g>
</g>
<!-- Node10 -->
<g id="Node000010" class="node">
<title>Node10</title>
<g id="a_Node000010"><a xlink:href="../../d7/d1e/class_photo_1_1_data_delta.html#ae420eb27c1756e873497ece402226e37" target="_top" xlink:title=" ">
<polygon fill="white" stroke="#666666" points="282.12,-340.25 175.38,-340.25 175.38,-321 282.12,-321 282.12,-340.25"/>
<text text-anchor="middle" x="228.75" y="-326.75" font-family="Helvetica,sans-Serif" font-size="10.00">Photo::DataDelta::get</text>
</a>
</g>
</g>
<!-- Node1&#45;&gt;Node10 -->
<g id="edge3_Node000001_Node000010" class="edge">
<title>Node1&#45;&gt;Node10</title>
<g id="a_edge3_Node000001_Node000010"><a xlink:title=" ">
<path fill="none" stroke="#63b8ff" d="M378.63,-227.21C363.75,-251.07 335.41,-290.88 300.5,-312.62 294.91,-316.11 288.66,-318.92 282.27,-321.19"/>
<polygon fill="#63b8ff" stroke="#63b8ff" points="381.55,-229.16 383.72,-218.79 375.55,-225.54 381.55,-229.16"/>
</a>
</g>
</g>
<!-- Node11 -->
<g id="Node000011" class="node">
<title>Node11</title>
<g id="a_Node000011"><a xlink:href="../../d7/d1e/class_photo_1_1_data_delta.html#a937a374107a40054d349dfae25fd020f" target="_top" xlink:title=" ">
<polygon fill="white" stroke="#666666" points="297.12,-303.25 160.38,-303.25 160.38,-284 297.12,-284 297.12,-303.25"/>
<text text-anchor="middle" x="228.75" y="-289.75" font-family="Helvetica,sans-Serif" font-size="10.00">Photo::DataDelta::operator|=</text>
</a>
</g>
</g>
<!-- Node1&#45;&gt;Node11 -->
<g id="edge4_Node000001_Node000011" class="edge">
<title>Node1&#45;&gt;Node11</title>
<g id="a_edge4_Node000001_Node000011"><a xlink:title=" ">
<path fill="none" stroke="#63b8ff" d="M371.07,-225.21C353.86,-240.32 327.16,-261.67 300.5,-274.62 293.18,-278.18 285.1,-281.15 277.09,-283.6"/>
<polygon fill="#63b8ff" stroke="#63b8ff" points="373.37,-227.85 378.47,-218.56 368.69,-222.65 373.37,-227.85"/>
</a>
</g>
</g>
<!-- Node12 -->
<g id="Node000012" class="node">
<title>Node12</title>
<g id="a_Node000012"><a xlink:href="../../db/d29/class_photo_1_1_explicit_delta.html#ad7890b27689ea81215cb534bb78854c4" target="_top" xlink:title=" ">
<polygon fill="white" stroke="#666666" points="278.38,-265.88 179.12,-265.88 179.12,-235.38 278.38,-235.38 278.38,-265.88"/>
<text text-anchor="start" x="187.12" y="-252.38" font-family="Helvetica,sans-Serif" font-size="10.00">Photo::ExplicitDelta</text>
<text text-anchor="middle" x="228.75" y="-241.12" font-family="Helvetica,sans-Serif" font-size="10.00">::operator|=</text>
</a>
</g>
</g>
<!-- Node1&#45;&gt;Node12 -->
<g id="edge5_Node000001_Node000012" class="edge">
<title>Node1&#45;&gt;Node12</title>
<g id="a_edge5_Node000001_Node000012"><a xlink:title=" ">
<path fill="none" stroke="#63b8ff" d="M341.43,-220.66C321.54,-226 298.56,-232.16 278.63,-237.51"/>
<polygon fill="#63b8ff" stroke="#63b8ff" points="342.22,-224.07 350.97,-218.1 340.4,-217.31 342.22,-224.07"/>
</a>
</g>
</g>
<!-- Node13 -->
<g id="Node000013" class="node">
<title>Node13</title>
<g id="a_Node000013"><a xlink:href="../../d7/ddf/class_photo_data_qml.html#a36de9c664118b798d1871c7effd2a20b" target="_top" xlink:title=" ">
<polygon fill="white" stroke="#666666" points="280.25,-217.25 177.25,-217.25 177.25,-198 280.25,-198 280.25,-217.25"/>
<text text-anchor="middle" x="228.75" y="-203.75" font-family="Helvetica,sans-Serif" font-size="10.00">PhotoDataQml::path</text>
</a>
</g>
</g>
<!-- Node1&#45;&gt;Node13 -->
<g id="edge6_Node000001_Node000013" class="edge">
<title>Node1&#45;&gt;Node13</title>
<g id="a_edge6_Node000001_Node000013"><a xlink:title=" ">
<path fill="none" stroke="#63b8ff" d="M325.07,-207.62C310.29,-207.62 294.8,-207.62 280.7,-207.62"/>
<polygon fill="#63b8ff" stroke="#63b8ff" points="324.68,-211.13 334.68,-207.63 324.68,-204.13 324.68,-211.13"/>
</a>
</g>
</g>
<!-- Node14 -->
<g id="Node000014" class="node">
<title>Node14</title>
<g id="a_Node000014"><a xlink:href="../../d7/ddf/class_photo_data_qml.html#a5a6883aaeb5705e29c447b6d0bfa01fe" target="_top" xlink:title=" ">
<polygon fill="white" stroke="#666666" points="300.5,-180.25 157,-180.25 157,-161 300.5,-161 300.5,-180.25"/>
<text text-anchor="middle" x="228.75" y="-166.75" font-family="Helvetica,sans-Serif" font-size="10.00">PhotoDataQml::setPhotoData</text>
</a>
</g>
</g>
<!-- Node1&#45;&gt;Node14 -->
<g id="edge7_Node000001_Node000014" class="edge">
<title>Node1&#45;&gt;Node14</title>
<g id="a_edge7_Node000001_Node000014"><a xlink:title=" ">
<path fill="none" stroke="#63b8ff" d="M335.01,-194.93C314.91,-190.29 292.47,-185.11 273.49,-180.72"/>
<polygon fill="#63b8ff" stroke="#63b8ff" points="334.21,-198.33 344.74,-197.17 335.78,-191.51 334.21,-198.33"/>
</a>
</g>
</g>
<!-- Node15 -->
<g id="Node000015" class="node">
<title>Node15</title>
<g id="a_Node000015"><a xlink:href="../../d5/d1b/class_database_1_1_a_sql_backend.html#ae7ba3709fe28b703826257947ea891b6" target="_top" xlink:title=" ">
<polygon fill="white" stroke="#666666" points="121,-125.88 0,-125.88 0,-95.38 121,-95.38 121,-125.88"/>
<text text-anchor="start" x="8" y="-112.38" font-family="Helvetica,sans-Serif" font-size="10.00">Database::ASqlBackend</text>
<text text-anchor="middle" x="60.5" y="-101.12" font-family="Helvetica,sans-Serif" font-size="10.00">::storeData</text>
</a>
</g>
</g>
<!-- Node1&#45;&gt;Node15 -->
<g id="edge8_Node000001_Node000015" class="edge">
<title>Node1&#45;&gt;Node15</title>
<g id="a_edge8_Node000001_Node000015"><a xlink:title=" ">
<path fill="none" stroke="#63b8ff" d="M368.77,-190.99C351.38,-178.23 325.64,-161.22 300.5,-151.62 241.89,-129.26 170.54,-119.04 121.14,-114.41"/>
<polygon fill="#63b8ff" stroke="#63b8ff" points="366.2,-193.44 376.3,-196.66 370.41,-187.85 366.2,-193.44"/>
</a>
</g>
</g>
<!-- Node16 -->
<g id="Node000016" class="node">
<title>Node16</title>
<g id="a_Node000016"><a xlink:href="../../d0/d89/class_database_1_1_a_photo_change_log_operator.html#a2553f497a5bdffdc081ed06c048921ef" target="_top" xlink:title=" ">
<polygon fill="white" stroke="#666666" points="300.5,-104.88 157,-104.88 157,-74.38 300.5,-74.38 300.5,-104.88"/>
<text text-anchor="start" x="165" y="-91.38" font-family="Helvetica,sans-Serif" font-size="10.00">Database::APhotoChangeLog</text>
<text text-anchor="middle" x="228.75" y="-80.12" font-family="Helvetica,sans-Serif" font-size="10.00">Operator::storeDifference</text>
</a>
</g>
</g>
<!-- Node1&#45;&gt;Node16 -->
<g id="edge9_Node000001_Node000016" class="edge">
<title>Node1&#45;&gt;Node16</title>
<g id="a_edge9_Node000001_Node000016"><a xlink:title=" ">
<path fill="none" stroke="#63b8ff" d="M375.02,-188.84C358.51,-169.16 330.31,-138.41 300.5,-118.62 292.87,-113.56 284.21,-109.12 275.63,-105.33"/>
<polygon fill="#63b8ff" stroke="#63b8ff" points="372.13,-190.84 381.18,-196.35 377.54,-186.4 372.13,-190.84"/>
</a>
</g>
</g>
<!-- Node17 -->
<g id="Node000017" class="node">
<title>Node17</title>
<g id="a_Node000017"><a xlink:href="../../d6/dc3/data__delta__tests_8cpp.html#ae9b738cc9b0a8d14d0b46e72e0850327" target="_top" xlink:title=" ">
<polygon fill="white" stroke="#666666" points="249.12,-56.25 208.38,-56.25 208.38,-37 249.12,-37 249.12,-56.25"/>
<text text-anchor="middle" x="228.75" y="-42.75" font-family="Helvetica,sans-Serif" font-size="10.00">TEST</text>
</a>
</g>
</g>
<!-- Node1&#45;&gt;Node17 -->
<g id="edge11_Node000001_Node000017" class="edge">
<title>Node1&#45;&gt;Node17</title>
<g id="a_edge11_Node000001_Node000017"><a xlink:title=" ">
<path fill="none" stroke="#63b8ff" d="M382.72,-187.12C370.61,-156.02 343.34,-97.22 300.5,-65.62 285.56,-54.6 264.64,-49.97 249.43,-48.03"/>
<polygon fill="#63b8ff" stroke="#63b8ff" points="379.32,-188 386.09,-196.15 385.87,-185.56 379.32,-188"/>
</a>
</g>
</g>
<!-- Node18 -->
<g id="Node000018" class="node">
<title>Node18</title>
<g id="a_Node000018"><a xlink:href="../../d6/dc3/data__delta__tests_8cpp.html#a05a42cc2572de1ebf095ad0009785202" target="_top" xlink:title=" ">
<polygon fill="white" stroke="#666666" points="249.12,-19.25 208.38,-19.25 208.38,0 249.12,0 249.12,-19.25"/>
<text text-anchor="middle" x="228.75" y="-5.75" font-family="Helvetica,sans-Serif" font-size="10.00">TEST</text>
</a>
</g>
</g>
<!-- Node1&#45;&gt;Node18 -->
<g id="edge12_Node000001_Node000018" class="edge">
<title>Node1&#45;&gt;Node18</title>
<g id="a_edge12_Node000001_Node000018"><a xlink:title=" ">
<path fill="none" stroke="#63b8ff" d="M385.58,-186.49C376.52,-148.65 352.22,-69.38 300.5,-27.62 286,-15.92 264.83,-11.72 249.42,-10.27"/>
<polygon fill="#63b8ff" stroke="#63b8ff" points="382.14,-187.15 387.75,-196.14 388.97,-185.62 382.14,-187.15"/>
</a>
</g>
</g>
<!-- Node16&#45;&gt;Node15 -->
<g id="edge10_Node000016_Node000015" class="edge">
<title>Node16&#45;&gt;Node15</title>
<g id="a_edge10_Node000016_Node000015"><a xlink:title=" ">
<path fill="none" stroke="#63b8ff" d="M145.61,-100C137.4,-101.04 129.18,-102.08 121.27,-103.08"/>
<polygon fill="#63b8ff" stroke="#63b8ff" points="145.78,-103.51 155.26,-98.78 144.9,-96.56 145.78,-103.51"/>
</a>
</g>
</g>
</g>
</svg>
