<?xml version="1.0" encoding="UTF-8" standalone="no"?>
<!DOCTYPE svg PUBLIC "-//W3C//DTD SVG 1.1//EN"
 "http://www.w3.org/Graphics/SVG/1.1/DTD/svg11.dtd">
<!-- Generated by graphviz version 9.0.0 (20230911.1827)
 -->
<!-- Title: Photo::DataDelta::get Pages: 1 -->
<svg width="609pt" height="609pt"
 viewBox="0.00 0.00 609.00 608.88" xmlns="http://www.w3.org/2000/svg" xmlns:xlink="http://www.w3.org/1999/xlink">
<g id="graph0" class="graph" transform="scale(1 1) rotate(0) translate(4 604.88)">
<title>Photo::DataDelta::get</title>
<!-- Node1 -->
<g id="Node000001" class="node">
<title>Node1</title>
<g id="a_Node000001"><a xlink:title=" ">
<polygon fill="#999999" stroke="#666666" points="601,-310.88 494.25,-310.88 494.25,-291.62 601,-291.62 601,-310.88"/>
<text text-anchor="middle" x="547.62" y="-297.38" font-family="Helvetica,sans-Serif" font-size="10.00">Photo::DataDelta::get</text>
</a>
</g>
</g>
<!-- Node2 -->
<g id="Node000002" class="node">
<title>Node2</title>
<g id="a_Node000002"><a xlink:href="../../db/d29/class_photo_1_1_explicit_delta.html#a798c20babb6f45b46348df7bb7facd14" target="_top" xlink:title=" ">
<polygon fill="white" stroke="#666666" points="456,-600.88 338.75,-600.88 338.75,-581.62 456,-581.62 456,-600.88"/>
<text text-anchor="middle" x="397.38" y="-587.38" font-family="Helvetica,sans-Serif" font-size="10.00">Photo::ExplicitDelta::get</text>
</a>
</g>
</g>
<!-- Node1&#45;&gt;Node2 -->
<g id="edge1_Node000001_Node000002" class="edge">
<title>Node1&#45;&gt;Node2</title>
<g id="a_edge1_Node000001_Node000002"><a xlink:title=" ">
<path fill="none" stroke="#63b8ff" d="M546.07,-322.8C543.57,-373.82 530.09,-502.98 458.25,-573.25 454.99,-576.44 451.19,-579.06 447.11,-581.23"/>
<polygon fill="#63b8ff" stroke="#63b8ff" points="549.57,-322.98 546.45,-312.85 542.57,-322.72 549.57,-322.98"/>
</a>
</g>
</g>
<!-- Node3 -->
<g id="Node000003" class="node">
<title>Node3</title>
<g id="a_Node000003"><a xlink:href="../../db/d29/class_photo_1_1_explicit_delta.html#aa17dc0e526caaa840d26a44e3b0d9b40" target="_top" xlink:title=" ">
<polygon fill="#fff0f0" stroke="red" points="456,-563.88 338.75,-563.88 338.75,-544.62 456,-544.62 456,-563.88"/>
<text text-anchor="middle" x="397.38" y="-550.38" font-family="Helvetica,sans-Serif" font-size="10.00">Photo::ExplicitDelta::get</text>
</a>
</g>
</g>
<!-- Node1&#45;&gt;Node3 -->
<g id="edge2_Node000001_Node000003" class="edge">
<title>Node1&#45;&gt;Node3</title>
<g id="a_edge2_Node000001_Node000003"><a xlink:title=" ">
<path fill="none" stroke="#63b8ff" d="M544.15,-322.27C537.87,-366.57 517.38,-470.35 458.25,-530.25 452.35,-536.23 444.77,-540.76 436.99,-544.19"/>
<polygon fill="#63b8ff" stroke="#63b8ff" points="547.61,-322.86 545.42,-312.49 540.66,-321.96 547.61,-322.86"/>
</a>
</g>
</g>
<!-- Node10 -->
<g id="Node000010" class="node">
<title>Node10</title>
<g id="a_Node000010"><a xlink:href="../../d0/d89/class_database_1_1_a_photo_change_log_operator.html#a2553f497a5bdffdc081ed06c048921ef" target="_top" xlink:title=" ">
<polygon fill="white" stroke="#666666" points="300.5,-536.5 157,-536.5 157,-506 300.5,-506 300.5,-536.5"/>
<text text-anchor="start" x="165" y="-523" font-family="Helvetica,sans-Serif" font-size="10.00">Database::APhotoChangeLog</text>
<text text-anchor="middle" x="228.75" y="-511.75" font-family="Helvetica,sans-Serif" font-size="10.00">Operator::storeDifference</text>
</a>
</g>
</g>
<!-- Node1&#45;&gt;Node10 -->
<g id="edge15_Node000001_Node000010" class="edge">
<title>Node1&#45;&gt;Node10</title>
<g id="a_edge15_Node000001_Node000010"><a xlink:title=" ">
<path fill="none" stroke="#63b8ff" d="M543.6,-322.37C536.6,-362.72 515.31,-450.49 458.25,-492.25 413.32,-525.14 349.66,-530.83 300.94,-529.18"/>
<polygon fill="#63b8ff" stroke="#63b8ff" points="547.01,-323.18 545.13,-312.75 540.1,-322.08 547.01,-323.18"/>
</a>
</g>
</g>
<!-- Node11 -->
<g id="Node000011" class="node">
<title>Node11</title>
<g id="a_Node000011"><a xlink:href="../../d5/d1b/class_database_1_1_a_sql_backend.html#ae7ba3709fe28b703826257947ea891b6" target="_top" xlink:title=" ">
<polygon fill="white" stroke="#666666" points="121,-514.5 0,-514.5 0,-484 121,-484 121,-514.5"/>
<text text-anchor="start" x="8" y="-501" font-family="Helvetica,sans-Serif" font-size="10.00">Database::ASqlBackend</text>
<text text-anchor="middle" x="60.5" y="-489.75" font-family="Helvetica,sans-Serif" font-size="10.00">::storeData</text>
</a>
</g>
</g>
<!-- Node1&#45;&gt;Node11 -->
<g id="edge14_Node000001_Node000011" class="edge">
<title>Node1&#45;&gt;Node11</title>
<g id="a_edge14_Node000001_Node000011"><a xlink:title=" ">
<path fill="none" stroke="#63b8ff" d="M541.67,-321.99C532.12,-356.93 507.62,-426.86 458.25,-459.25 430.72,-477.31 224.99,-490.62 121.12,-496.26"/>
<polygon fill="#63b8ff" stroke="#63b8ff" points="544.96,-323.24 544.06,-312.68 538.18,-321.49 544.96,-323.24"/>
</a>
</g>
</g>
<!-- Node12 -->
<g id="Node000012" class="node">
<title>Node12</title>
<g id="a_Node000012"><a xlink:href="../../d7/ddf/class_photo_data_qml.html#a0d12bcb6ffdad1cc29f4e9cea53ec47f" target="_top" xlink:title="access to flags as a QML compatible map">
<polygon fill="#fff0f0" stroke="red" points="458.25,-449.88 336.5,-449.88 336.5,-430.62 458.25,-430.62 458.25,-449.88"/>
<text text-anchor="middle" x="397.38" y="-436.38" font-family="Helvetica,sans-Serif" font-size="10.00">PhotoDataQml::getFlags</text>
</a>
</g>
</g>
<!-- Node1&#45;&gt;Node12 -->
<g id="edge5_Node000001_Node000012" class="edge">
<title>Node1&#45;&gt;Node12</title>
<g id="a_edge5_Node000001_Node000012"><a xlink:title=" ">
<path fill="none" stroke="#63b8ff" d="M537.25,-321.22C523.61,-348.12 495.78,-395.68 458.25,-422.25 453.82,-425.39 448.84,-427.98 443.69,-430.13"/>
<polygon fill="#63b8ff" stroke="#63b8ff" points="540.3,-322.96 541.55,-312.44 534.01,-319.88 540.3,-322.96"/>
</a>
</g>
</g>
<!-- Node14 -->
<g id="Node000014" class="node">
<title>Node14</title>
<g id="a_Node000014"><a xlink:href="../../d4/d50/namespace_photo.html#a4f56c419b3674bafac3f5c360192b1e8" target="_top" xlink:title=" ">
<polygon fill="#fff0f0" stroke="red" points="437.25,-412.88 357.5,-412.88 357.5,-393.62 437.25,-393.62 437.25,-412.88"/>
<text text-anchor="middle" x="397.38" y="-399.38" font-family="Helvetica,sans-Serif" font-size="10.00">Photo::getPath</text>
</a>
</g>
</g>
<!-- Node1&#45;&gt;Node14 -->
<g id="edge6_Node000001_Node000014" class="edge">
<title>Node1&#45;&gt;Node14</title>
<g id="a_edge6_Node000001_Node000014"><a xlink:title=" ">
<path fill="none" stroke="#63b8ff" d="M531.53,-320.06C515.31,-339.08 487.85,-368.07 458.25,-385.25 451.87,-388.96 444.65,-391.96 437.49,-394.38"/>
<polygon fill="#63b8ff" stroke="#63b8ff" points="534.08,-322.46 537.78,-312.54 528.69,-317.99 534.08,-322.46"/>
</a>
</g>
</g>
<!-- Node24 -->
<g id="Node000024" class="node">
<title>Node24</title>
<g id="a_Node000024"><a xlink:href="../../df/d40/namespace_groups_manager.html#a36d06be40255e8a0134e20f37a9da47b" target="_top" xlink:title=" ">
<polygon fill="white" stroke="#666666" points="454.12,-375.88 340.62,-375.88 340.62,-356.62 454.12,-356.62 454.12,-375.88"/>
<text text-anchor="middle" x="397.38" y="-362.38" font-family="Helvetica,sans-Serif" font-size="10.00">GroupsManager::group</text>
</a>
</g>
</g>
<!-- Node1&#45;&gt;Node24 -->
<g id="edge7_Node000001_Node000024" class="edge">
<title>Node1&#45;&gt;Node24</title>
<g id="a_edge7_Node000001_Node000024"><a xlink:title=" ">
<path fill="none" stroke="#63b8ff" d="M519.54,-316.9C502.35,-326.45 479.42,-338.46 458.25,-347.25 450.39,-350.51 441.77,-353.55 433.57,-356.2"/>
<polygon fill="#63b8ff" stroke="#63b8ff" points="521.13,-320.03 528.13,-312.07 517.7,-313.93 521.13,-320.03"/>
</a>
</g>
</g>
<!-- Node25 -->
<g id="Node000025" class="node">
<title>Node25</title>
<g id="a_Node000025"><a xlink:href="../../d5/d1b/class_database_1_1_a_sql_backend.html#a218cc7555092910cf6c33cab849cc0fb" target="_top" xlink:title="create new entry for photo in database">
<polygon fill="#fff0f0" stroke="red" points="457.88,-338.5 336.88,-338.5 336.88,-308 457.88,-308 457.88,-338.5"/>
<text text-anchor="start" x="344.88" y="-325" font-family="Helvetica,sans-Serif" font-size="10.00">Database::ASqlBackend</text>
<text text-anchor="middle" x="397.38" y="-313.75" font-family="Helvetica,sans-Serif" font-size="10.00">::introduce</text>
</a>
</g>
</g>
<!-- Node1&#45;&gt;Node25 -->
<g id="edge8_Node000001_Node000025" class="edge">
<title>Node1&#45;&gt;Node25</title>
<g id="a_edge8_Node000001_Node000025"><a xlink:title=" ">
<path fill="none" stroke="#63b8ff" d="M482.63,-310.75C474.52,-311.95 466.25,-313.18 458.21,-314.37"/>
<polygon fill="#63b8ff" stroke="#63b8ff" points="483.07,-314.22 492.44,-309.29 482.04,-307.3 483.07,-314.22"/>
</a>
</g>
</g>
<!-- Node28 -->
<g id="Node000028" class="node">
<title>Node28</title>
<g id="a_Node000028"><a xlink:href="../../d4/d50/namespace_photo.html#a0fd396899fa831f05e9bbd635bba04a5" target="_top" xlink:title=" ">
<polygon fill="#fff0f0" stroke="red" points="424.12,-289.88 370.62,-289.88 370.62,-270.62 424.12,-270.62 424.12,-289.88"/>
<text text-anchor="middle" x="397.38" y="-276.38" font-family="Helvetica,sans-Serif" font-size="10.00">Photo::is</text>
</a>
</g>
</g>
<!-- Node1&#45;&gt;Node28 -->
<g id="edge9_Node000001_Node000028" class="edge">
<title>Node1&#45;&gt;Node28</title>
<g id="a_edge9_Node000001_Node000028"><a xlink:title=" ">
<path fill="none" stroke="#63b8ff" d="M482.67,-292.19C462.11,-289.28 440.49,-286.22 424.29,-283.92"/>
<polygon fill="#63b8ff" stroke="#63b8ff" points="482.05,-295.64 492.44,-293.57 483.03,-288.71 482.05,-295.64"/>
</a>
</g>
</g>
<!-- Node32 -->
<g id="Node000032" class="node">
<title>Node32</title>
<g id="a_Node000032"><a xlink:href="../../dc/d8c/namespace_photo_delta.html#ac7ba92966e8e0b99eb0dea6bed6a925d" target="_top" xlink:title=" ">
<polygon fill="white" stroke="#666666" points="435.38,-252.88 359.38,-252.88 359.38,-233.62 435.38,-233.62 435.38,-252.88"/>
<text text-anchor="middle" x="397.38" y="-239.38" font-family="Helvetica,sans-Serif" font-size="10.00">PhotoDelta::is</text>
</a>
</g>
</g>
<!-- Node1&#45;&gt;Node32 -->
<g id="edge10_Node000001_Node000032" class="edge">
<title>Node1&#45;&gt;Node32</title>
<g id="a_edge10_Node000001_Node000032"><a xlink:title=" ">
<path fill="none" stroke="#63b8ff" d="M516.24,-286.29C499.39,-278.3 477.91,-268.62 458.25,-261.25 450.73,-258.43 442.55,-255.74 434.73,-253.33"/>
<polygon fill="#63b8ff" stroke="#63b8ff" points="514.69,-289.43 525.22,-290.6 517.72,-283.12 514.69,-289.43"/>
</a>
</g>
</g>
<!-- Node33 -->
<g id="Node000033" class="node">
<title>Node33</title>
<g id="a_Node000033"><a xlink:href="../../d4/d50/namespace_photo.html#acfa4c22bb2d186512596cbe74c290e7a" target="_top" xlink:title=" ">
<polygon fill="white" stroke="#666666" points="435,-215.88 359.75,-215.88 359.75,-196.62 435,-196.62 435,-215.88"/>
<text text-anchor="middle" x="397.38" y="-202.38" font-family="Helvetica,sans-Serif" font-size="10.00">Photo::isLess</text>
</a>
</g>
</g>
<!-- Node1&#45;&gt;Node33 -->
<g id="edge11_Node000001_Node000033" class="edge">
<title>Node1&#45;&gt;Node33</title>
<g id="a_edge11_Node000001_Node000033"><a xlink:title=" ">
<path fill="none" stroke="#63b8ff" d="M530.19,-283C513.6,-265.6 486.47,-239.83 458.25,-224.25 451.22,-220.37 443.25,-217.23 435.47,-214.72"/>
<polygon fill="#63b8ff" stroke="#63b8ff" points="527.44,-285.19 536.82,-290.12 532.57,-280.42 527.44,-285.19"/>
</a>
</g>
</g>
<!-- Node34 -->
<g id="Node000034" class="node">
<title>Node34</title>
<g id="a_Node000034"><a xlink:href="../../dc/d8c/namespace_photo_delta.html#a83857616ed7cd6f258d72d9442ff4037" target="_top" xlink:title=" ">
<polygon fill="white" stroke="#666666" points="446.25,-178.88 348.5,-178.88 348.5,-159.62 446.25,-159.62 446.25,-178.88"/>
<text text-anchor="middle" x="397.38" y="-165.38" font-family="Helvetica,sans-Serif" font-size="10.00">PhotoDelta::isLess</text>
</a>
</g>
</g>
<!-- Node1&#45;&gt;Node34 -->
<g id="edge12_Node000001_Node000034" class="edge">
<title>Node1&#45;&gt;Node34</title>
<g id="a_edge12_Node000001_Node000034"><a xlink:title=" ">
<path fill="none" stroke="#63b8ff" d="M536.34,-281.34C522.16,-255.83 494.22,-211.95 458.25,-187.25 453.69,-184.12 448.56,-181.52 443.29,-179.36"/>
<polygon fill="#63b8ff" stroke="#63b8ff" points="533.18,-282.86 541,-290.01 539.35,-279.54 533.18,-282.86"/>
</a>
</g>
</g>
<!-- Node35 -->
<g id="Node000035" class="node">
<title>Node35</title>
<g id="a_Node000035"><a xlink:href="../../d7/ddf/class_photo_data_qml.html#a36de9c664118b798d1871c7effd2a20b" target="_top" xlink:title=" ">
<polygon fill="white" stroke="#666666" points="448.88,-141.88 345.88,-141.88 345.88,-122.62 448.88,-122.62 448.88,-141.88"/>
<text text-anchor="middle" x="397.38" y="-128.38" font-family="Helvetica,sans-Serif" font-size="10.00">PhotoDataQml::path</text>
</a>
</g>
</g>
<!-- Node1&#45;&gt;Node35 -->
<g id="edge13_Node000001_Node000035" class="edge">
<title>Node1&#45;&gt;Node35</title>
<g id="a_edge13_Node000001_Node000035"><a xlink:title=" ">
<path fill="none" stroke="#63b8ff" d="M540.09,-280.57C528.74,-248 502.28,-184.89 458.25,-150.25 454.24,-147.1 449.69,-144.49 444.92,-142.34"/>
<polygon fill="#63b8ff" stroke="#63b8ff" points="536.75,-281.62 543.23,-290 543.39,-279.41 536.75,-281.62"/>
</a>
</g>
</g>
<!-- Node36 -->
<g id="Node000036" class="node">
<title>Node36</title>
<g id="a_Node000036"><a xlink:href="../../d6/dc3/data__delta__tests_8cpp.html#a05a42cc2572de1ebf095ad0009785202" target="_top" xlink:title=" ">
<polygon fill="white" stroke="#666666" points="417.75,-104.88 377,-104.88 377,-85.62 417.75,-85.62 417.75,-104.88"/>
<text text-anchor="middle" x="397.38" y="-91.38" font-family="Helvetica,sans-Serif" font-size="10.00">TEST</text>
</a>
</g>
</g>
<!-- Node1&#45;&gt;Node36 -->
<g id="edge16_Node000001_Node000036" class="edge">
<title>Node1&#45;&gt;Node36</title>
<g id="a_edge16_Node000001_Node000036"><a xlink:title=" ">
<path fill="none" stroke="#63b8ff" d="M542.62,-280.22C534.13,-241.43 510.63,-158.42 458.25,-113.25 447.07,-103.61 430.87,-99.13 418.14,-97.05"/>
<polygon fill="#63b8ff" stroke="#63b8ff" points="539.16,-280.79 544.6,-289.88 546.02,-279.38 539.16,-280.79"/>
</a>
</g>
</g>
<!-- Node37 -->
<g id="Node000037" class="node">
<title>Node37</title>
<g id="a_Node000037"><a xlink:href="../../dc/d67/photo__operator__tests_8cpp.html#afab36bb9de4466def2cc9e038abf1d38" target="_top" xlink:title=" ">
<polygon fill="white" stroke="#666666" points="436.5,-67.88 358.25,-67.88 358.25,-48.62 436.5,-48.62 436.5,-67.88"/>
<text text-anchor="middle" x="397.38" y="-54.38" font-family="Helvetica,sans-Serif" font-size="10.00">TYPED_TEST</text>
</a>
</g>
</g>
<!-- Node1&#45;&gt;Node37 -->
<g id="edge17_Node000001_Node000037" class="edge">
<title>Node1&#45;&gt;Node37</title>
<g id="a_edge17_Node000001_Node000037"><a xlink:title=" ">
<path fill="none" stroke="#63b8ff" d="M544.44,-280.17C538.72,-235.83 519.22,-132.4 458.25,-76.25 452.26,-70.74 444.64,-66.91 436.86,-64.25"/>
<polygon fill="#63b8ff" stroke="#63b8ff" points="540.95,-280.44 545.59,-289.97 547.9,-279.63 540.95,-280.44"/>
</a>
</g>
</g>
<!-- Node38 -->
<g id="Node000038" class="node">
<title>Node38</title>
<g id="a_Node000038"><a xlink:href="../../de/db3/class_context_menu_manager.html#ae6cff95d57472c72bfc4b576f507fe6c" target="_top" xlink:title=" ">
<polygon fill="#fff0f0" stroke="red" points="452.62,-30.5 342.12,-30.5 342.12,0 452.62,0 452.62,-30.5"/>
<text text-anchor="start" x="350.12" y="-17" font-family="Helvetica,sans-Serif" font-size="10.00">ContextMenuManager</text>
<text text-anchor="middle" x="397.38" y="-5.75" font-family="Helvetica,sans-Serif" font-size="10.00">::updateModel</text>
</a>
</g>
</g>
<!-- Node1&#45;&gt;Node38 -->
<g id="edge18_Node000001_Node000038" class="edge">
<title>Node1&#45;&gt;Node38</title>
<g id="a_edge18_Node000001_Node000038"><a xlink:title=" ">
<path fill="none" stroke="#63b8ff" d="M545.32,-279.9C541.22,-230.93 524.56,-109.37 458.25,-39.25 455.25,-36.08 451.77,-33.31 448.04,-30.91"/>
<polygon fill="#63b8ff" stroke="#63b8ff" points="541.82,-279.97 546.04,-289.69 548.8,-279.46 541.82,-279.97"/>
</a>
</g>
</g>
<!-- Node3&#45;&gt;Node10 -->
<g id="edge3_Node000003_Node000010" class="edge">
<title>Node3&#45;&gt;Node10</title>
<g id="a_edge3_Node000003_Node000010"><a xlink:title=" ">
<path fill="none" stroke="#63b8ff" d="M334.34,-541.96C323.44,-539.8 312.01,-537.54 300.89,-535.34"/>
<polygon fill="#63b8ff" stroke="#63b8ff" points="333.5,-545.37 343.99,-543.88 334.86,-538.5 333.5,-545.37"/>
</a>
</g>
</g>
<!-- Node10&#45;&gt;Node11 -->
<g id="edge4_Node000010_Node000011" class="edge">
<title>Node10&#45;&gt;Node11</title>
<g id="a_edge4_Node000010_Node000011"><a xlink:title=" ">
<path fill="none" stroke="#63b8ff" d="M145.61,-510.38C137.4,-509.29 129.18,-508.21 121.27,-507.16"/>
<polygon fill="#63b8ff" stroke="#63b8ff" points="144.89,-513.82 155.26,-511.66 145.81,-506.88 144.89,-513.82"/>
</a>
</g>
</g>
</g>
</svg>
