<?xml version="1.0" encoding="UTF-8" standalone="no"?>
<!DOCTYPE svg PUBLIC "-//W3C//DTD SVG 1.1//EN"
 "http://www.w3.org/Graphics/SVG/1.1/DTD/svg11.dtd">
<!-- Generated by graphviz version 7.0.5 (20221223.1930)
 -->
<!-- Title: Photo::DataDelta::get Pages: 1 -->
<svg width="453pt" height="727pt"
 viewBox="0.00 0.00 453.00 726.50" xmlns="http://www.w3.org/2000/svg" xmlns:xlink="http://www.w3.org/1999/xlink">
<g id="graph0" class="graph" transform="scale(1 1) rotate(0) translate(4 722.5)">
<title>Photo::DataDelta::get</title>
<!-- Node1 -->
<g id="node1" class="node">
<title>Node1</title>
<g id="a_node1"><a xlink:title=" ">
<polygon fill="#999999" stroke="#666666" points="445,-388.5 338,-388.5 338,-369.5 445,-369.5 445,-388.5"/>
<text text-anchor="middle" x="391.5" y="-376.5" font-family="Helvetica,sans-Serif" font-size="10.00">Photo::DataDelta::get</text>
</a>
</g>
</g>
<!-- Node2 -->
<g id="node2" class="node">
<title>Node2</title>
<g id="a_node2"><a xlink:href="../../d5/df1/struct_photo_1_1_data.html#a08fbe960d4ddc3a2c2c49dd6a82acf25" target="_top" xlink:title=" ">
<polygon fill="#fff0f0" stroke="red" points="277,-718.5 183,-718.5 183,-699.5 277,-699.5 277,-718.5"/>
<text text-anchor="middle" x="230" y="-706.5" font-family="Helvetica,sans-Serif" font-size="10.00">Photo::Data::apply</text>
</a>
</g>
</g>
<!-- Node1&#45;&gt;Node2 -->
<g id="edge1" class="edge">
<title>Node1&#45;&gt;Node2</title>
<path fill="none" stroke="#63b8ff" d="M391.2,-400.08C391.85,-456.08 385.52,-609.8 302,-691 295.25,-697.56 286.47,-701.83 277.4,-704.59"/>
<polygon fill="#63b8ff" stroke="#63b8ff" points="394.71,-400.29 390.99,-390.37 387.71,-400.44 394.71,-400.29"/>
</g>
<!-- Node14 -->
<g id="node3" class="node">
<title>Node14</title>
<g id="a_node3"><a xlink:href="../../db/d29/class_photo_1_1_explicit_delta.html#aa17dc0e526caaa840d26a44e3b0d9b40" target="_top" xlink:title=" ">
<polygon fill="#fff0f0" stroke="red" points="289,-681.5 171,-681.5 171,-662.5 289,-662.5 289,-681.5"/>
<text text-anchor="middle" x="230" y="-669.5" font-family="Helvetica,sans-Serif" font-size="10.00">Photo::ExplicitDelta::get</text>
</a>
</g>
</g>
<!-- Node1&#45;&gt;Node14 -->
<g id="edge2" class="edge">
<title>Node1&#45;&gt;Node14</title>
<path fill="none" stroke="#63b8ff" d="M390.26,-399.96C388.47,-451.27 376.5,-584.06 302,-654 298.29,-657.48 294.01,-660.31 289.42,-662.62"/>
<polygon fill="#63b8ff" stroke="#63b8ff" points="393.75,-400.35 390.49,-390.27 386.75,-400.19 393.75,-400.35"/>
</g>
<!-- Node18 -->
<g id="node4" class="node">
<title>Node18</title>
<g id="a_node4"><a xlink:href="../../d7/ddf/class_photo_data_qml.html#a0d12bcb6ffdad1cc29f4e9cea53ec47f" target="_top" xlink:title="access to flags as a QML compatible map">
<polygon fill="#fff0f0" stroke="red" points="291,-644.5 169,-644.5 169,-625.5 291,-625.5 291,-644.5"/>
<text text-anchor="middle" x="230" y="-632.5" font-family="Helvetica,sans-Serif" font-size="10.00">PhotoDataQml::getFlags</text>
</a>
</g>
</g>
<!-- Node1&#45;&gt;Node18 -->
<g id="edge3" class="edge">
<title>Node1&#45;&gt;Node18</title>
<path fill="none" stroke="#63b8ff" d="M389.02,-400.24C384.59,-446.79 367.37,-558.32 302,-617 298.4,-620.23 294.31,-622.89 289.95,-625.09"/>
<polygon fill="#63b8ff" stroke="#63b8ff" points="392.49,-400.7 389.83,-390.44 385.52,-400.12 392.49,-400.7"/>
</g>
<!-- Node20 -->
<g id="node5" class="node">
<title>Node20</title>
<g id="a_node5"><a xlink:href="../../d4/d50/namespace_photo.html#a4f56c419b3674bafac3f5c360192b1e8" target="_top" xlink:title=" ">
<polygon fill="white" stroke="#666666" points="270,-607.5 190,-607.5 190,-588.5 270,-588.5 270,-607.5"/>
<text text-anchor="middle" x="230" y="-595.5" font-family="Helvetica,sans-Serif" font-size="10.00">Photo::getPath</text>
</a>
</g>
</g>
<!-- Node1&#45;&gt;Node20 -->
<g id="edge4" class="edge">
<title>Node1&#45;&gt;Node20</title>
<path fill="none" stroke="#63b8ff" d="M387.34,-399.82C380.03,-440.55 358.09,-531 302,-579 293.18,-586.55 281.66,-591.13 270.47,-593.9"/>
<polygon fill="#63b8ff" stroke="#63b8ff" points="390.76,-400.59 388.94,-390.16 383.85,-399.45 390.76,-400.59"/>
</g>
<!-- Node6 -->
<g id="node6" class="node">
<title>Node6</title>
<g id="a_node6"><a xlink:href="../../d5/d1b/class_database_1_1_a_sql_backend.html#a218cc7555092910cf6c33cab849cc0fb" target="_top" xlink:title="create new entry for photo in database">
<polygon fill="#fff0f0" stroke="red" points="291,-570 169,-570 169,-540 291,-540 291,-570"/>
<text text-anchor="start" x="177" y="-558" font-family="Helvetica,sans-Serif" font-size="10.00">Database::ASqlBackend</text>
<text text-anchor="middle" x="230" y="-547" font-family="Helvetica,sans-Serif" font-size="10.00">::introduce</text>
</a>
</g>
</g>
<!-- Node1&#45;&gt;Node6 -->
<g id="edge5" class="edge">
<title>Node1&#45;&gt;Node6</title>
<path fill="none" stroke="#63b8ff" d="M383.85,-399.64C372.33,-432.19 345.62,-495.38 302,-531 297.97,-534.29 293.46,-537.14 288.73,-539.61"/>
<polygon fill="#63b8ff" stroke="#63b8ff" points="387.14,-400.82 387.04,-390.22 380.51,-398.57 387.14,-400.82"/>
</g>
<!-- Node21 -->
<g id="node7" class="node">
<title>Node21</title>
<g id="a_node7"><a xlink:href="../../d4/d50/namespace_photo.html#a0fd396899fa831f05e9bbd635bba04a5" target="_top" xlink:title=" ">
<polygon fill="#fff0f0" stroke="red" points="257,-521.5 203,-521.5 203,-502.5 257,-502.5 257,-521.5"/>
<text text-anchor="middle" x="230" y="-509.5" font-family="Helvetica,sans-Serif" font-size="10.00">Photo::is</text>
</a>
</g>
</g>
<!-- Node1&#45;&gt;Node21 -->
<g id="edge6" class="edge">
<title>Node1&#45;&gt;Node21</title>
<path fill="none" stroke="#63b8ff" d="M380.61,-398.94C366.7,-424.89 338.86,-469.77 302,-494 288.72,-502.73 271.48,-507.23 257.31,-509.54"/>
<polygon fill="#63b8ff" stroke="#63b8ff" points="383.68,-400.63 385.16,-390.14 377.46,-397.41 383.68,-400.63"/>
</g>
<!-- Node23 -->
<g id="node8" class="node">
<title>Node23</title>
<g id="a_node8"><a xlink:href="../../dc/d8c/namespace_photo_delta.html#ac7ba92966e8e0b99eb0dea6bed6a925d" target="_top" xlink:title=" ">
<polygon fill="white" stroke="#666666" points="268.5,-484.5 191.5,-484.5 191.5,-465.5 268.5,-465.5 268.5,-484.5"/>
<text text-anchor="middle" x="230" y="-472.5" font-family="Helvetica,sans-Serif" font-size="10.00">PhotoDelta::is</text>
</a>
</g>
</g>
<!-- Node1&#45;&gt;Node23 -->
<g id="edge7" class="edge">
<title>Node1&#45;&gt;Node23</title>
<path fill="none" stroke="#63b8ff" d="M374.75,-397.2C358.34,-415.03 331,-441.7 302,-457 291.76,-462.4 279.83,-466.23 268.71,-468.93"/>
<polygon fill="#63b8ff" stroke="#63b8ff" points="377.22,-399.7 381.28,-389.91 372,-395.02 377.22,-399.7"/>
</g>
<!-- Node24 -->
<g id="node9" class="node">
<title>Node24</title>
<g id="a_node9"><a xlink:href="../../d4/d50/namespace_photo.html#acfa4c22bb2d186512596cbe74c290e7a" target="_top" xlink:title=" ">
<polygon fill="white" stroke="#666666" points="268,-447.5 192,-447.5 192,-428.5 268,-428.5 268,-447.5"/>
<text text-anchor="middle" x="230" y="-435.5" font-family="Helvetica,sans-Serif" font-size="10.00">Photo::isLess</text>
</a>
</g>
</g>
<!-- Node1&#45;&gt;Node24 -->
<g id="edge8" class="edge">
<title>Node1&#45;&gt;Node24</title>
<path fill="none" stroke="#63b8ff" d="M362.04,-393.83C344.96,-402.31 322.62,-412.68 302,-420 291.21,-423.83 279.24,-427.19 268.24,-429.94"/>
<polygon fill="#63b8ff" stroke="#63b8ff" points="363.23,-397.15 370.58,-389.52 360.08,-390.9 363.23,-397.15"/>
</g>
<!-- Node25 -->
<g id="node10" class="node">
<title>Node25</title>
<g id="a_node10"><a xlink:href="../../d7/ddf/class_photo_data_qml.html#a36de9c664118b798d1871c7effd2a20b" target="_top" xlink:title=" ">
<polygon fill="white" stroke="#666666" points="282,-410.5 178,-410.5 178,-391.5 282,-391.5 282,-410.5"/>
<text text-anchor="middle" x="230" y="-398.5" font-family="Helvetica,sans-Serif" font-size="10.00">PhotoDataQml::path</text>
</a>
</g>
</g>
<!-- Node1&#45;&gt;Node25 -->
<g id="edge9" class="edge">
<title>Node1&#45;&gt;Node25</title>
<path fill="none" stroke="#63b8ff" d="M326.72,-387.8C311.95,-389.83 296.41,-391.98 282.26,-393.93"/>
<polygon fill="#63b8ff" stroke="#63b8ff" points="326.9,-391.31 336.33,-386.47 325.95,-384.37 326.9,-391.31"/>
</g>
<!-- Node26 -->
<g id="node11" class="node">
<title>Node26</title>
<g id="a_node11"><a xlink:href="../../d4/d0e/class_people_manipulator.html#ad2be46cf0f87e8e8a207b7e9135a69d0" target="_top" xlink:title=" ">
<polygon fill="#fff0f0" stroke="red" points="280.5,-373 179.5,-373 179.5,-343 280.5,-343 280.5,-373"/>
<text text-anchor="start" x="187.5" y="-361" font-family="Helvetica,sans-Serif" font-size="10.00">PeopleManipulator::</text>
<text text-anchor="middle" x="230" y="-350" font-family="Helvetica,sans-Serif" font-size="10.00">pathFor</text>
</a>
</g>
</g>
<!-- Node1&#45;&gt;Node26 -->
<g id="edge10" class="edge">
<title>Node1&#45;&gt;Node26</title>
<path fill="none" stroke="#63b8ff" d="M326.43,-370.56C311.27,-368.57 295.33,-366.47 280.91,-364.57"/>
<polygon fill="#63b8ff" stroke="#63b8ff" points="325.96,-374.03 336.33,-371.87 326.87,-367.09 325.96,-374.03"/>
</g>
<!-- Node30 -->
<g id="node12" class="node">
<title>Node30</title>
<g id="a_node12"><a xlink:href="../../d4/dd6/class_photos_data_guesser.html#a0c4d77b18414fe4f4612e187c13c5f20" target="_top" xlink:title=" ">
<polygon fill="#fff0f0" stroke="red" points="284.5,-325 175.5,-325 175.5,-295 284.5,-295 284.5,-325"/>
<text text-anchor="start" x="183.5" y="-313" font-family="Helvetica,sans-Serif" font-size="10.00">PhotosDataGuesser::</text>
<text text-anchor="middle" x="230" y="-302" font-family="Helvetica,sans-Serif" font-size="10.00">processIds</text>
</a>
</g>
</g>
<!-- Node1&#45;&gt;Node30 -->
<g id="edge11" class="edge">
<title>Node1&#45;&gt;Node30</title>
<path fill="none" stroke="#63b8ff" d="M362.96,-363.69C345.73,-354.45 322.92,-342.8 302,-334 294.92,-331.02 287.34,-328.14 279.85,-325.48"/>
<polygon fill="#63b8ff" stroke="#63b8ff" points="361.1,-366.67 371.56,-368.37 364.44,-360.52 361.1,-366.67"/>
</g>
<!-- Node34 -->
<g id="node13" class="node">
<title>Node34</title>
<g id="a_node13"><a xlink:href="../../d3/d07/class_media_view_ctrl.html#a98d9275bf877422453e14e46d1bbaf09" target="_top" xlink:title=" ">
<polygon fill="white" stroke="#666666" points="294,-276.5 166,-276.5 166,-257.5 294,-257.5 294,-276.5"/>
<text text-anchor="middle" x="230" y="-264.5" font-family="Helvetica,sans-Serif" font-size="10.00">MediaViewCtrl::setSource</text>
</a>
</g>
</g>
<!-- Node1&#45;&gt;Node34 -->
<g id="edge12" class="edge">
<title>Node1&#45;&gt;Node34</title>
<path fill="none" stroke="#63b8ff" d="M377.37,-359.88C361.82,-338.68 333.95,-304.97 302,-286 295.86,-282.35 289,-279.39 282.04,-276.99"/>
<polygon fill="#63b8ff" stroke="#63b8ff" points="374.45,-361.81 383.11,-367.93 380.16,-357.75 374.45,-361.81"/>
</g>
<!-- Node35 -->
<g id="node14" class="node">
<title>Node35</title>
<g id="a_node14"><a xlink:href="../../d5/d1b/class_database_1_1_a_sql_backend.html#a5745b24e19dd2318475fbe820249a518" target="_top" xlink:title=" ">
<polygon fill="white" stroke="#666666" points="122,-222 0,-222 0,-192 122,-192 122,-222"/>
<text text-anchor="start" x="8" y="-210" font-family="Helvetica,sans-Serif" font-size="10.00">Database::ASqlBackend</text>
<text text-anchor="middle" x="61" y="-199" font-family="Helvetica,sans-Serif" font-size="10.00">::storeData</text>
</a>
</g>
</g>
<!-- Node1&#45;&gt;Node35 -->
<g id="edge13" class="edge">
<title>Node1&#45;&gt;Node35</title>
<path fill="none" stroke="#63b8ff" d="M382.69,-358.56C370.32,-329.2 343.33,-275.68 302,-249 272.99,-230.28 183.38,-218.35 122.26,-212.17"/>
<polygon fill="#63b8ff" stroke="#63b8ff" points="379.42,-359.82 386.4,-367.79 385.91,-357.2 379.42,-359.82"/>
</g>
<!-- Node36 -->
<g id="node15" class="node">
<title>Node36</title>
<g id="a_node15"><a xlink:href="../../d0/d89/class_database_1_1_a_photo_change_log_operator.html#a0fa2a42c4a8b586e98163db993d6be0f" target="_top" xlink:title=" ">
<polygon fill="white" stroke="#666666" points="302,-201 158,-201 158,-171 302,-171 302,-201"/>
<text text-anchor="start" x="166" y="-189" font-family="Helvetica,sans-Serif" font-size="10.00">Database::APhotoChangeLog</text>
<text text-anchor="middle" x="230" y="-178" font-family="Helvetica,sans-Serif" font-size="10.00">Operator::storeDifference</text>
</a>
</g>
</g>
<!-- Node1&#45;&gt;Node36 -->
<g id="edge14" class="edge">
<title>Node1&#45;&gt;Node36</title>
<path fill="none" stroke="#63b8ff" d="M384.33,-358.02C373.24,-323.67 346.8,-255.24 302,-215 295.96,-209.57 288.76,-205.08 281.31,-201.4"/>
<polygon fill="#63b8ff" stroke="#63b8ff" points="380.99,-359.05 387.29,-367.57 387.68,-356.98 380.99,-359.05"/>
</g>
<!-- Node37 -->
<g id="node16" class="node">
<title>Node37</title>
<g id="a_node16"><a xlink:href="../../d6/dc3/data__delta__tests_8cpp.html#a05a42cc2572de1ebf095ad0009785202" target="_top" xlink:title=" ">
<polygon fill="white" stroke="#666666" points="250.5,-152.5 209.5,-152.5 209.5,-133.5 250.5,-133.5 250.5,-152.5"/>
<text text-anchor="middle" x="230" y="-140.5" font-family="Helvetica,sans-Serif" font-size="10.00">TEST</text>
</a>
</g>
</g>
<!-- Node1&#45;&gt;Node37 -->
<g id="edge16" class="edge">
<title>Node1&#45;&gt;Node37</title>
<path fill="none" stroke="#63b8ff" d="M388.07,-357.63C381.95,-314.09 361.87,-214.78 302,-162 287.83,-149.51 266.32,-145.11 250.68,-143.62"/>
<polygon fill="#63b8ff" stroke="#63b8ff" points="384.59,-358.04 389.33,-367.52 391.54,-357.15 384.59,-358.04"/>
</g>
<!-- Node38 -->
<g id="node17" class="node">
<title>Node38</title>
<g id="a_node17"><a xlink:href="../../dc/d67/photo__operator__tests_8cpp.html#afab36bb9de4466def2cc9e038abf1d38" target="_top" xlink:title=" ">
<polygon fill="white" stroke="#666666" points="269.5,-115.5 190.5,-115.5 190.5,-96.5 269.5,-96.5 269.5,-115.5"/>
<text text-anchor="middle" x="230" y="-103.5" font-family="Helvetica,sans-Serif" font-size="10.00">TYPED_TEST</text>
</a>
</g>
</g>
<!-- Node1&#45;&gt;Node38 -->
<g id="edge17" class="edge">
<title>Node1&#45;&gt;Node38</title>
<path fill="none" stroke="#63b8ff" d="M389.53,-357.76C386.12,-309.11 370.8,-188.9 302,-125 293.21,-116.84 281.3,-112.11 269.75,-109.39"/>
<polygon fill="#63b8ff" stroke="#63b8ff" points="386.03,-357.95 390.11,-367.73 393.02,-357.54 386.03,-357.95"/>
</g>
<!-- Node39 -->
<g id="node18" class="node">
<title>Node39</title>
<g id="a_node18"><a xlink:href="../../de/db3/class_context_menu_manager.html#ae6cff95d57472c72bfc4b576f507fe6c" target="_top" xlink:title=" ">
<polygon fill="#fff0f0" stroke="red" points="285.5,-78 174.5,-78 174.5,-48 285.5,-48 285.5,-78"/>
<text text-anchor="start" x="182.5" y="-66" font-family="Helvetica,sans-Serif" font-size="10.00">ContextMenuManager</text>
<text text-anchor="middle" x="230" y="-55" font-family="Helvetica,sans-Serif" font-size="10.00">::updateModel</text>
</a>
</g>
</g>
<!-- Node1&#45;&gt;Node39 -->
<g id="edge18" class="edge">
<title>Node1&#45;&gt;Node39</title>
<path fill="none" stroke="#63b8ff" d="M390.27,-357.98C388.54,-305.25 376.73,-166.04 302,-88 297.39,-83.19 291.8,-79.3 285.8,-76.16"/>
<polygon fill="#63b8ff" stroke="#63b8ff" points="386.76,-357.74 390.48,-367.66 393.76,-357.58 386.76,-357.74"/>
</g>
<!-- Node41 -->
<g id="node19" class="node">
<title>Node41</title>
<g id="a_node19"><a xlink:href="../../d4/dd6/class_photos_data_guesser.html#a871a5f672326c05ca924bd17f41796dc" target="_top" xlink:title=" ">
<polygon fill="#fff0f0" stroke="red" points="284.5,-30 175.5,-30 175.5,0 284.5,0 284.5,-30"/>
<text text-anchor="start" x="183.5" y="-18" font-family="Helvetica,sans-Serif" font-size="10.00">PhotosDataGuesser::</text>
<text text-anchor="middle" x="230" y="-7" font-family="Helvetica,sans-Serif" font-size="10.00">updatePhotos</text>
</a>
</g>
</g>
<!-- Node1&#45;&gt;Node41 -->
<g id="edge19" class="edge">
<title>Node1&#45;&gt;Node41</title>
<path fill="none" stroke="#63b8ff" d="M387.69,-358.15C378.35,-291.74 346.42,-86.7 302,-39 297.21,-33.86 291.28,-29.82 284.91,-26.64"/>
<polygon fill="#63b8ff" stroke="#63b8ff" points="384.17,-358.26 389,-367.69 391.11,-357.3 384.17,-358.26"/>
</g>
<!-- Node36&#45;&gt;Node35 -->
<g id="edge15" class="edge">
<title>Node36&#45;&gt;Node35</title>
<path fill="none" stroke="#63b8ff" d="M146.29,-196.4C138.2,-197.42 130.1,-198.44 122.29,-199.42"/>
<polygon fill="#63b8ff" stroke="#63b8ff" points="146.71,-199.88 156.19,-195.16 145.83,-192.93 146.71,-199.88"/>
</g>
</g>
</svg>
