<?xml version="1.0" encoding="UTF-8" standalone="no"?>
<!DOCTYPE svg PUBLIC "-//W3C//DTD SVG 1.1//EN"
 "http://www.w3.org/Graphics/SVG/1.1/DTD/svg11.dtd">
<!-- Generated by graphviz version 9.0.0 (20230911.1827)
 -->
<!-- Title: Photo::DataDelta::getId Pages: 1 -->
<!--zoomable 554 -->

<svg id="main" version="1.1" xmlns="http://www.w3.org/2000/svg" xmlns:xlink="http://www.w3.org/1999/xlink" xml:space="preserve" onload="init(evt)">
<style type="text/css"><![CDATA[
.node, .edge {opacity: 0.7;}
.node.selected, .edge.selected {opacity: 1;}
.edge:hover path { stroke: red; }
.edge:hover polygon { stroke: red; fill: red; }
]]></style>

<defs>
  <circle id="rim" cx="0" cy="0" r="7"/>
  <circle id="rim2" cx="0" cy="0" r="3.5"/>
  <g id="zoomPlus">
    <use xlink:href="#rim" fill="#404040"><set attributeName="fill" to="#808080" begin="zoomplus.mouseover" end="zoomplus.mouseout"/></use>
    <path d="M-4,0h8M0,-4v8" fill="none" stroke="white" stroke-width="1.5" pointer-events="none"/>
  </g>
  <g id="zoomMin">
    <use xlink:href="#rim" fill="#404040"><set attributeName="fill" to="#808080" begin="zoomminus.mouseover" end="zoomminus.mouseout"/></use>
    <path d="M-4,0h8" fill="none" stroke="white" stroke-width="1.5" pointer-events="none"/>
  </g>
  <g id="arrowUp" transform="translate(30 24)">
    <use xlink:href="#rim"/>
    <path pointer-events="none" fill="none" stroke="white" stroke-width="1.5" d="M0,-3.0v7 M-2.5,-0.5L0,-3.0L2.5,-0.5"/>
  </g>
  <g id="arrowRight" transform="rotate(90) translate(36 -43)">
    <use xlink:href="#rim"/>
    <path pointer-events="none" fill="none" stroke="white" stroke-width="1.5" d="M0,-3.0v7 M-2.5,-0.5L0,-3.0L2.5,-0.5"/>
  </g>
  <g id="arrowDown" transform="rotate(180) translate(-30 -48)">
    <use xlink:href="#rim"/>
    <path pointer-events="none" fill="none" stroke="white" stroke-width="1.5" d="M0,-3.0v7 M-2.5,-0.5L0,-3.0L2.5,-0.5"/>
  </g>
  <g id="arrowLeft" transform="rotate(270) translate(-36 17)">
    <use xlink:href="#rim"/>
    <path pointer-events="none" fill="none" stroke="white" stroke-width="1.5" d="M0,-3.0v7 M-2.5,-0.5L0,-3.0L2.5,-0.5"/>
  </g>
  <g id="resetDef">
    <use xlink:href="#rim2" fill="#404040"><set attributeName="fill" to="#808080" begin="reset.mouseover" end="reset.mouseout"/></use>
  </g>
</defs>
<script type="application/ecmascript">
var viewWidth = 617;
var viewHeight = 554;
var sectionId = 'dynsection-5';
</script>
<script type="application/ecmascript" xlink:href="../../svg.min.js"/>
<svg id="graph" class="graph">
<g id="viewport">
<title>Photo::DataDelta::getId</title>
<!-- Node1 -->
<g id="Node000001" class="node">
<title>Node1</title>
<g id="a_Node000001"><a xlink:title=" ">
<polygon fill="#999999" stroke="#666666" points="609.25,-277.25 494.25,-277.25 494.25,-258 609.25,-258 609.25,-277.25"/>
<text text-anchor="middle" x="551.75" y="-263.75" font-family="Helvetica,sans-Serif" font-size="10.00">Photo::DataDelta::getId</text>
</a>
</g>
</g>
<!-- Node2 -->
<g id="Node000002" class="node">
<title>Node2</title>
<g id="a_Node000002"><a xlink:href="../../d7/ddf/class_photo_data_qml.html#a0d12bcb6ffdad1cc29f4e9cea53ec47f" target="_top" xlink:title="access to flags as a QML compatible map">
<polygon fill="white" stroke="#666666" points="458.25,-546.25 336.5,-546.25 336.5,-527 458.25,-527 458.25,-546.25"/>
<text text-anchor="middle" x="397.38" y="-532.75" font-family="Helvetica,sans-Serif" font-size="10.00">PhotoDataQml::getFlags</text>
</a>
</g>
</g>
<!-- Node1&#45;&gt;Node2 -->
<g id="edge1_Node000001_Node000002" class="edge">
<title>Node1&#45;&gt;Node2</title>
<g id="a_edge1_Node000001_Node000002"><a xlink:title=" ">
<path fill="none" stroke="#63b8ff" d="M548.48,-288.86C542.4,-335.5 521.66,-447.92 458.25,-512.62 452.37,-518.62 444.8,-523.17 437.03,-526.59"/>
<polygon fill="#63b8ff" stroke="#63b8ff" points="551.94,-289.38 549.65,-279.04 544.99,-288.56 551.94,-289.38"/>
</a>
</g>
</g>
<!-- Node3 -->
<g id="Node000003" class="node">
<title>Node3</title>
<g id="a_Node000003"><a xlink:href="../../d7/ddf/class_photo_data_qml.html#a5a6883aaeb5705e29c447b6d0bfa01fe" target="_top" xlink:title=" ">
<polygon fill="white" stroke="#666666" points="300.5,-508.25 157,-508.25 157,-489 300.5,-489 300.5,-508.25"/>
<text text-anchor="middle" x="228.75" y="-494.75" font-family="Helvetica,sans-Serif" font-size="10.00">PhotoDataQml::setPhotoData</text>
</a>
</g>
</g>
<!-- Node1&#45;&gt;Node3 -->
<g id="edge9_Node000001_Node000003" class="edge">
<title>Node1&#45;&gt;Node3</title>
<g id="a_edge9_Node000001_Node000003"><a xlink:title=" ">
<path fill="none" stroke="#63b8ff" d="M548.57,-288.54C542.78,-332.35 522.75,-433.47 458.25,-479.62 407.75,-515.77 333.95,-514.92 283.99,-508.74"/>
<polygon fill="#63b8ff" stroke="#63b8ff" points="552.02,-289.2 549.72,-278.86 545.07,-288.38 552.02,-289.2"/>
</a>
</g>
</g>
<!-- Node4 -->
<g id="Node000004" class="node">
<title>Node4</title>
<g id="a_Node000004"><a xlink:href="../../db/d29/class_photo_1_1_explicit_delta.html#a17a99123198a14dfec77677700c8d2ad" target="_top" xlink:title=" ">
<polygon fill="#fff0f0" stroke="red" points="447,-432.88 347.75,-432.88 347.75,-402.38 447,-402.38 447,-432.88"/>
<text text-anchor="start" x="355.75" y="-419.38" font-family="Helvetica,sans-Serif" font-size="10.00">Photo::ExplicitDelta</text>
<text text-anchor="middle" x="397.38" y="-408.12" font-family="Helvetica,sans-Serif" font-size="10.00">::getId</text>
</a>
</g>
</g>
<!-- Node1&#45;&gt;Node4 -->
<g id="edge3_Node000001_Node000004" class="edge">
<title>Node1&#45;&gt;Node4</title>
<g id="a_edge3_Node000001_Node000004"><a xlink:title=" ">
<path fill="none" stroke="#63b8ff" d="M539.6,-287.51C524.16,-313.57 494.1,-359.36 458.25,-388.62 452.08,-393.66 444.88,-398.09 437.66,-401.88"/>
<polygon fill="#63b8ff" stroke="#63b8ff" points="542.56,-289.38 544.53,-278.97 536.5,-285.88 542.56,-289.38"/>
</a>
</g>
</g>
<!-- Node9 -->
<g id="Node000009" class="node">
<title>Node9</title>
<g id="a_Node000009"><a xlink:href="../../d0/d89/class_database_1_1_a_photo_change_log_operator.html#a2553f497a5bdffdc081ed06c048921ef" target="_top" xlink:title=" ">
<polygon fill="white" stroke="#666666" points="300.5,-394.88 157,-394.88 157,-364.38 300.5,-364.38 300.5,-394.88"/>
<text text-anchor="start" x="165" y="-381.38" font-family="Helvetica,sans-Serif" font-size="10.00">Database::APhotoChangeLog</text>
<text text-anchor="middle" x="228.75" y="-370.12" font-family="Helvetica,sans-Serif" font-size="10.00">Operator::storeDifference</text>
</a>
</g>
</g>
<!-- Node1&#45;&gt;Node9 -->
<g id="edge14_Node000001_Node000009" class="edge">
<title>Node1&#45;&gt;Node9</title>
<g id="a_edge14_Node000001_Node000009"><a xlink:title=" ">
<path fill="none" stroke="#63b8ff" d="M536.01,-286.33C519.39,-305.94 490.46,-335.9 458.25,-350.62 408.88,-373.19 347.62,-379.98 300.96,-381.38"/>
<polygon fill="#63b8ff" stroke="#63b8ff" points="538.54,-288.77 542.18,-278.82 533.13,-284.32 538.54,-288.77"/>
</a>
</g>
</g>
<!-- Node10 -->
<g id="Node000010" class="node">
<title>Node10</title>
<g id="a_Node000010"><a xlink:href="../../d5/d1b/class_database_1_1_a_sql_backend.html#ae7ba3709fe28b703826257947ea891b6" target="_top" xlink:title=" ">
<polygon fill="white" stroke="#666666" points="121,-372.88 0,-372.88 0,-342.38 121,-342.38 121,-372.88"/>
<text text-anchor="start" x="8" y="-359.38" font-family="Helvetica,sans-Serif" font-size="10.00">Database::ASqlBackend</text>
<text text-anchor="middle" x="60.5" y="-348.12" font-family="Helvetica,sans-Serif" font-size="10.00">::storeData</text>
</a>
</g>
</g>
<!-- Node1&#45;&gt;Node10 -->
<g id="edge13_Node000001_Node000010" class="edge">
<title>Node1&#45;&gt;Node10</title>
<g id="a_edge13_Node000001_Node000010"><a xlink:title=" ">
<path fill="none" stroke="#63b8ff" d="M510.75,-281.06C494.58,-286.14 475.66,-291.65 458.25,-295.62 340.16,-322.59 199.6,-341.51 121.48,-350.89"/>
<polygon fill="#63b8ff" stroke="#63b8ff" points="511.55,-284.48 520.01,-278.09 509.42,-277.81 511.55,-284.48"/>
</a>
</g>
</g>
<!-- Node11 -->
<g id="Node000011" class="node">
<title>Node11</title>
<g id="a_Node000011"><a xlink:href="../../d5/d1b/class_database_1_1_a_sql_backend.html#a218cc7555092910cf6c33cab849cc0fb" target="_top" xlink:title="create new entry for photo in database">
<polygon fill="#fff0f0" stroke="red" points="289.25,-280.88 168.25,-280.88 168.25,-250.38 289.25,-250.38 289.25,-280.88"/>
<text text-anchor="start" x="176.25" y="-267.38" font-family="Helvetica,sans-Serif" font-size="10.00">Database::ASqlBackend</text>
<text text-anchor="middle" x="228.75" y="-256.12" font-family="Helvetica,sans-Serif" font-size="10.00">::introduce</text>
</a>
</g>
</g>
<!-- Node1&#45;&gt;Node11 -->
<g id="edge6_Node000001_Node000011" class="edge">
<title>Node1&#45;&gt;Node11</title>
<g id="a_edge6_Node000001_Node000011"><a xlink:title=" ">
<path fill="none" stroke="#63b8ff" d="M482.9,-277.44C474.61,-278.34 466.25,-279.11 458.25,-279.62 404.25,-283.11 390.5,-283.15 336.5,-279.62 321.3,-278.63 304.96,-276.85 289.74,-274.89"/>
<polygon fill="#63b8ff" stroke="#63b8ff" points="483.08,-280.95 492.61,-276.32 482.28,-273.99 483.08,-280.95"/>
</a>
</g>
</g>
<!-- Node14 -->
<g id="Node000014" class="node">
<title>Node14</title>
<g id="a_Node000014"><a xlink:href="../../d7/ddf/class_photo_data_qml.html#ab1034364057bf340170712083e0d2c83" target="_top" xlink:title=" ">
<polygon fill="white" stroke="#666666" points="456.38,-470.25 338.38,-470.25 338.38,-451 456.38,-451 456.38,-470.25"/>
<text text-anchor="middle" x="397.38" y="-456.75" font-family="Helvetica,sans-Serif" font-size="10.00">PhotoDataQml::isGroup</text>
</a>
</g>
</g>
<!-- Node1&#45;&gt;Node14 -->
<g id="edge7_Node000001_Node000014" class="edge">
<title>Node1&#45;&gt;Node14</title>
<g id="a_edge7_Node000001_Node000014"><a xlink:title=" ">
<path fill="none" stroke="#63b8ff" d="M545.36,-288.31C534.83,-324.66 508.07,-400.11 458.25,-441.62 453.89,-445.26 448.84,-448.19 443.54,-450.57"/>
<polygon fill="#63b8ff" stroke="#63b8ff" points="548.63,-289.61 547.92,-279.04 541.88,-287.75 548.63,-289.61"/>
</a>
</g>
</g>
<!-- Node15 -->
<g id="Node000015" class="node">
<title>Node15</title>
<g id="a_Node000015"><a xlink:href="../../d5/d1b/class_database_1_1_a_sql_backend.html#aeabaa61a16e3602392353c5ce5727b91" target="_top" xlink:title="store photo data">
<polygon fill="#fff0f0" stroke="red" points="457.88,-252.88 336.88,-252.88 336.88,-222.38 457.88,-222.38 457.88,-252.88"/>
<text text-anchor="start" x="344.88" y="-239.38" font-family="Helvetica,sans-Serif" font-size="10.00">Database::ASqlBackend</text>
<text text-anchor="middle" x="397.38" y="-228.12" font-family="Helvetica,sans-Serif" font-size="10.00">::storeData</text>
</a>
</g>
</g>
<!-- Node1&#45;&gt;Node15 -->
<g id="edge10_Node000001_Node000015" class="edge">
<title>Node1&#45;&gt;Node15</title>
<g id="a_edge10_Node000001_Node000015"><a xlink:title=" ">
<path fill="none" stroke="#63b8ff" d="M488.52,-255.37C478.56,-253.41 468.27,-251.39 458.36,-249.44"/>
<polygon fill="#63b8ff" stroke="#63b8ff" points="487.61,-258.76 498.1,-257.26 488.97,-251.89 487.61,-258.76"/>
</a>
</g>
</g>
<!-- Node17 -->
<g id="Node000017" class="node">
<title>Node17</title>
<g id="a_Node000017"><a xlink:href="../../d6/dc3/data__delta__tests_8cpp.html#a793b57922396be00a7fce4a7bfe87c06" target="_top" xlink:title=" ">
<polygon fill="white" stroke="#666666" points="417.75,-204.25 377,-204.25 377,-185 417.75,-185 417.75,-204.25"/>
<text text-anchor="middle" x="397.38" y="-190.75" font-family="Helvetica,sans-Serif" font-size="10.00">TEST</text>
</a>
</g>
</g>
<!-- Node1&#45;&gt;Node17 -->
<g id="edge15_Node000001_Node000017" class="edge">
<title>Node1&#45;&gt;Node17</title>
<g id="a_edge15_Node000001_Node000017"><a xlink:title=" ">
<path fill="none" stroke="#63b8ff" d="M526.39,-251.4C508.18,-239.77 482.37,-224.33 458.25,-213.62 445.29,-207.87 430.05,-203.06 418.19,-199.72"/>
<polygon fill="#63b8ff" stroke="#63b8ff" points="524.35,-254.24 534.64,-256.75 528.16,-248.37 524.35,-254.24"/>
</a>
</g>
</g>
<!-- Node18 -->
<g id="Node000018" class="node">
<title>Node18</title>
<g id="a_Node000018"><a xlink:href="../../df/d93/general__flags__tests_8cpp.html#ae971755199b834c20bd57378bf7e6e14" target="_top" xlink:title=" ">
<polygon fill="white" stroke="#666666" points="436.5,-167.25 358.25,-167.25 358.25,-148 436.5,-148 436.5,-167.25"/>
<text text-anchor="middle" x="397.38" y="-153.75" font-family="Helvetica,sans-Serif" font-size="10.00">TYPED_TEST</text>
</a>
</g>
</g>
<!-- Node1&#45;&gt;Node18 -->
<g id="edge16_Node000001_Node000018" class="edge">
<title>Node1&#45;&gt;Node18</title>
<g id="a_edge16_Node000001_Node000018"><a xlink:title=" ">
<path fill="none" stroke="#63b8ff" d="M536.65,-248.87C520.07,-228.08 490.67,-194.94 458.25,-175.62 451.72,-171.74 444.29,-168.63 436.93,-166.16"/>
<polygon fill="#63b8ff" stroke="#63b8ff" points="533.7,-250.77 542.6,-256.52 539.22,-246.48 533.7,-250.77"/>
</a>
</g>
</g>
<!-- Node19 -->
<g id="Node000019" class="node">
<title>Node19</title>
<g id="a_Node000019"><a xlink:href="../../df/d93/general__flags__tests_8cpp.html#a90ac80feec382175e16a875784e2b106" target="_top" xlink:title=" ">
<polygon fill="white" stroke="#666666" points="436.5,-130.25 358.25,-130.25 358.25,-111 436.5,-111 436.5,-130.25"/>
<text text-anchor="middle" x="397.38" y="-116.75" font-family="Helvetica,sans-Serif" font-size="10.00">TYPED_TEST</text>
</a>
</g>
</g>
<!-- Node1&#45;&gt;Node19 -->
<g id="edge17_Node000001_Node000019" class="edge">
<title>Node1&#45;&gt;Node19</title>
<g id="a_edge17_Node000001_Node000019"><a xlink:title=" ">
<path fill="none" stroke="#63b8ff" d="M541.44,-247.14C527.43,-218.61 498.26,-167.21 458.25,-138.62 451.89,-134.08 444.37,-130.67 436.85,-128.11"/>
<polygon fill="#63b8ff" stroke="#63b8ff" points="538.26,-248.6 545.7,-256.14 544.58,-245.61 538.26,-248.6"/>
</a>
</g>
</g>
<!-- Node20 -->
<g id="Node000020" class="node">
<title>Node20</title>
<g id="a_Node000020"><a xlink:href="../../dc/dab/thumbnails__tests_8cpp.html#a40357efaea31dda42edd29262e8fe565" target="_top" xlink:title=" ">
<polygon fill="white" stroke="#666666" points="436.5,-93.25 358.25,-93.25 358.25,-74 436.5,-74 436.5,-93.25"/>
<text text-anchor="middle" x="397.38" y="-79.75" font-family="Helvetica,sans-Serif" font-size="10.00">TYPED_TEST</text>
</a>
</g>
</g>
<!-- Node1&#45;&gt;Node20 -->
<g id="edge18_Node000001_Node000020" class="edge">
<title>Node1&#45;&gt;Node20</title>
<g id="a_edge18_Node000001_Node000020"><a xlink:title=" ">
<path fill="none" stroke="#63b8ff" d="M544.84,-246.85C533.77,-211.69 506.55,-140.46 458.25,-101.62 452.07,-96.66 444.55,-93.06 436.95,-90.46"/>
<polygon fill="#63b8ff" stroke="#63b8ff" points="541.43,-247.66 547.66,-256.23 548.13,-245.64 541.43,-247.66"/>
</a>
</g>
</g>
<!-- Node21 -->
<g id="Node000021" class="node">
<title>Node21</title>
<g id="a_Node000021"><a xlink:href="../../dc/dab/thumbnails__tests_8cpp.html#a043b94ebfae0b63e205bf6b1850eb6d1" target="_top" xlink:title=" ">
<polygon fill="white" stroke="#666666" points="436.5,-56.25 358.25,-56.25 358.25,-37 436.5,-37 436.5,-56.25"/>
<text text-anchor="middle" x="397.38" y="-42.75" font-family="Helvetica,sans-Serif" font-size="10.00">TYPED_TEST</text>
</a>
</g>
</g>
<!-- Node1&#45;&gt;Node21 -->
<g id="edge19_Node000001_Node000021" class="edge">
<title>Node1&#45;&gt;Node21</title>
<g id="a_edge19_Node000001_Node000021"><a xlink:title=" ">
<path fill="none" stroke="#63b8ff" d="M547.12,-246.64C538.89,-205.53 514.98,-114.14 458.25,-64.62 452.2,-59.34 444.64,-55.61 436.96,-52.97"/>
<polygon fill="#63b8ff" stroke="#63b8ff" points="543.66,-247.21 548.94,-256.4 550.54,-245.92 543.66,-247.21"/>
</a>
</g>
</g>
<!-- Node22 -->
<g id="Node000022" class="node">
<title>Node22</title>
<g id="a_Node000022"><a xlink:href="../../dc/dab/thumbnails__tests_8cpp.html#a5f37ca5128eb0925b56a0a86058fe5ad" target="_top" xlink:title=" ">
<polygon fill="white" stroke="#666666" points="436.5,-19.25 358.25,-19.25 358.25,0 436.5,0 436.5,-19.25"/>
<text text-anchor="middle" x="397.38" y="-5.75" font-family="Helvetica,sans-Serif" font-size="10.00">TYPED_TEST</text>
</a>
</g>
</g>
<!-- Node1&#45;&gt;Node22 -->
<g id="edge20_Node000001_Node000022" class="edge">
<title>Node1&#45;&gt;Node22</title>
<g id="a_edge20_Node000001_Node000022"><a xlink:title=" ">
<path fill="none" stroke="#63b8ff" d="M548.75,-246.4C543.22,-199.85 523.51,-88.11 458.25,-27.62 452.28,-22.09 444.67,-18.25 436.89,-15.6"/>
<polygon fill="#63b8ff" stroke="#63b8ff" points="545.25,-246.63 549.8,-256.2 552.21,-245.88 545.25,-246.63"/>
</a>
</g>
</g>
<!-- Node2&#45;&gt;Node3 -->
<g id="edge2_Node000002_Node000003" class="edge">
<title>Node2&#45;&gt;Node3</title>
<g id="a_edge2_Node000002_Node000003"><a xlink:title=" ">
<path fill="none" stroke="#63b8ff" d="M341.04,-524.01C319.21,-519.03 294.48,-513.39 273.88,-508.69"/>
<polygon fill="#63b8ff" stroke="#63b8ff" points="340.16,-527.39 350.68,-526.2 341.71,-520.57 340.16,-527.39"/>
</a>
</g>
</g>
<!-- Node4&#45;&gt;Node9 -->
<g id="edge4_Node000004_Node000009" class="edge">
<title>Node4&#45;&gt;Node9</title>
<g id="a_edge4_Node000004_Node000009"><a xlink:title=" ">
<path fill="none" stroke="#63b8ff" d="M336.28,-403.92C324.04,-401.13 311.07,-398.17 298.55,-395.32"/>
<polygon fill="#63b8ff" stroke="#63b8ff" points="335.28,-407.28 345.81,-406.09 336.84,-400.46 335.28,-407.28"/>
</a>
</g>
</g>
<!-- Node9&#45;&gt;Node10 -->
<g id="edge5_Node000009_Node000010" class="edge">
<title>Node9&#45;&gt;Node10</title>
<g id="a_edge5_Node000009_Node000010"><a xlink:title=" ">
<path fill="none" stroke="#63b8ff" d="M145.61,-368.76C137.4,-367.67 129.18,-366.58 121.27,-365.53"/>
<polygon fill="#63b8ff" stroke="#63b8ff" points="144.89,-372.19 155.26,-370.03 145.81,-365.25 144.89,-372.19"/>
</a>
</g>
</g>
<!-- Node14&#45;&gt;Node3 -->
<g id="edge8_Node000014_Node000003" class="edge">
<title>Node14&#45;&gt;Node3</title>
<g id="a_edge8_Node000014_Node000003"><a xlink:title=" ">
<path fill="none" stroke="#63b8ff" d="M341.04,-473.24C319.21,-478.22 294.48,-483.86 273.88,-488.56"/>
<polygon fill="#63b8ff" stroke="#63b8ff" points="341.71,-476.68 350.68,-471.05 340.16,-469.86 341.71,-476.68"/>
</a>
</g>
</g>
<!-- Node15&#45;&gt;Node11 -->
<g id="edge11_Node000015_Node000011" class="edge">
<title>Node15&#45;&gt;Node11</title>
<g id="a_edge11_Node000015_Node000011"><a xlink:title=" ">
<path fill="none" stroke="#63b8ff" d="M325.39,-249.55C313.46,-251.56 301.19,-253.62 289.58,-255.57"/>
<polygon fill="#63b8ff" stroke="#63b8ff" points="325.92,-253.01 335.2,-247.91 324.76,-246.11 325.92,-253.01"/>
</a>
</g>
</g>
<!-- Node15&#45;&gt;Node15 -->
<g id="edge12_Node000015_Node000015" class="edge">
<title>Node15&#45;&gt;Node15</title>
<g id="a_edge12_Node000015_Node000015"><a xlink:title=" ">
<path fill="none" stroke="#63b8ff" d="M423.26,-264.58C419.03,-268.35 410.4,-270.88 397.38,-270.88 373.56,-270.88 364.44,-262.43 370.02,-253.36"/>
<polygon fill="#63b8ff" stroke="#63b8ff" points="426.71,-265.23 424.53,-254.86 419.77,-264.32 426.71,-265.23"/>
</a>
</g>
</g>
</g>
</svg>

<g id="navigator" transform="translate(0 0)" fill="#404254">
  <rect fill="#f2f5e9" fill-opacity="0.5" stroke="#606060" stroke-width=".5" x="0" y="0" width="60" height="60"/>
  <use id="zoomplus" xlink:href="#zoomPlus" x="17" y="9" onmousedown="handleZoom(evt,'in')"/>
  <use id="zoomminus" xlink:href="#zoomMin" x="42" y="9" onmousedown="handleZoom(evt,'out')"/>
  <use id="reset" xlink:href="#resetDef" x="30" y="36" onmousedown="handleReset()"/>
   <use id="arrowup" xlink:href="#arrowUp" x="0" y="0" onmousedown="handlePan(0,-1)"/>
  <use id="arrowright" xlink:href="#arrowRight" x="0" y="0" onmousedown="handlePan(1,0)"/>
  <use id="arrowdown" xlink:href="#arrowDown" x="0" y="0" onmousedown="handlePan(0,1)"/>
  <use id="arrowleft" xlink:href="#arrowLeft" x="0" y="0" onmousedown="handlePan(-1,0)"/>
</g>
<svg viewBox="0 0 15 15" width="100%" height="30px" preserveAspectRatio="xMaxYMin meet">
 <g id="arrow_out" transform="scale(0.3 0.3)">
  <a xlink:href="class_photo_1_1_data_delta_a8dbb1d880f0c0b37a9629fae8d098413_icgraph_org.svg" target="_base">
   <rect id="button" ry="5" rx="5" y="6" x="6" height="38" width="38"
        fill="#f2f5e9" fill-opacity="0.5" stroke="#606060" stroke-width="1.0"/>
   <path id="arrow"
     d="M 11.500037,31.436501 C 11.940474,20.09759 22.043105,11.32322 32.158766,21.979434 L 37.068811,17.246167 C 37.068811,17.246167 37.088388,32 37.088388,32 L 22.160133,31.978069 C 22.160133,31.978069 26.997745,27.140456 26.997745,27.140456 C 18.528582,18.264221 13.291696,25.230495 11.500037,31.436501 z"
     style="fill:#404040;"/>
  </a>
 </g>
</svg>

<style type='text/css'>
<![CDATA[
[data-mouse-over-selected='false'] { opacity: 0.7; }
[data-mouse-over-selected='true']  { opacity: 1.0; }
]]>
</style>
<script type="application/ecmascript"><![CDATA[
document.addEventListener('DOMContentLoaded', (event) => {
  highlightEdges();
  highlightAdjacentNodes();
});
]]></script>
</svg>
