<?xml version="1.0" encoding="UTF-8" standalone="no"?>
<!DOCTYPE svg PUBLIC "-//W3C//DTD SVG 1.1//EN"
 "http://www.w3.org/Graphics/SVG/1.1/DTD/svg11.dtd">
<!-- Generated by graphviz version 9.0.0 (20230911.1827)
 -->
<!-- Title: Photo::DataDelta::get Pages: 1 -->
<!--zoomable 609 -->

<svg id="main" version="1.1" xmlns="http://www.w3.org/2000/svg" xmlns:xlink="http://www.w3.org/1999/xlink" xml:space="preserve" onload="init(evt)">
<style type="text/css"><![CDATA[
.node, .edge {opacity: 0.7;}
.node.selected, .edge.selected {opacity: 1;}
.edge:hover path { stroke: red; }
.edge:hover polygon { stroke: red; fill: red; }
]]></style>

<defs>
  <circle id="rim" cx="0" cy="0" r="7"/>
  <circle id="rim2" cx="0" cy="0" r="3.5"/>
  <g id="zoomPlus">
    <use xlink:href="#rim" fill="#404040"><set attributeName="fill" to="#808080" begin="zoomplus.mouseover" end="zoomplus.mouseout"/></use>
    <path d="M-4,0h8M0,-4v8" fill="none" stroke="white" stroke-width="1.5" pointer-events="none"/>
  </g>
  <g id="zoomMin">
    <use xlink:href="#rim" fill="#404040"><set attributeName="fill" to="#808080" begin="zoomminus.mouseover" end="zoomminus.mouseout"/></use>
    <path d="M-4,0h8" fill="none" stroke="white" stroke-width="1.5" pointer-events="none"/>
  </g>
  <g id="arrowUp" transform="translate(30 24)">
    <use xlink:href="#rim"/>
    <path pointer-events="none" fill="none" stroke="white" stroke-width="1.5" d="M0,-3.0v7 M-2.5,-0.5L0,-3.0L2.5,-0.5"/>
  </g>
  <g id="arrowRight" transform="rotate(90) translate(36 -43)">
    <use xlink:href="#rim"/>
    <path pointer-events="none" fill="none" stroke="white" stroke-width="1.5" d="M0,-3.0v7 M-2.5,-0.5L0,-3.0L2.5,-0.5"/>
  </g>
  <g id="arrowDown" transform="rotate(180) translate(-30 -48)">
    <use xlink:href="#rim"/>
    <path pointer-events="none" fill="none" stroke="white" stroke-width="1.5" d="M0,-3.0v7 M-2.5,-0.5L0,-3.0L2.5,-0.5"/>
  </g>
  <g id="arrowLeft" transform="rotate(270) translate(-36 17)">
    <use xlink:href="#rim"/>
    <path pointer-events="none" fill="none" stroke="white" stroke-width="1.5" d="M0,-3.0v7 M-2.5,-0.5L0,-3.0L2.5,-0.5"/>
  </g>
  <g id="resetDef">
    <use xlink:href="#rim2" fill="#404040"><set attributeName="fill" to="#808080" begin="reset.mouseover" end="reset.mouseout"/></use>
  </g>
</defs>
<script type="application/ecmascript">
var viewWidth = 612;
var viewHeight = 609;
var sectionId = 'dynsection-2';
</script>
<script type="application/ecmascript" xlink:href="../../svg.min.js"/>
<svg id="graph" class="graph">
<g id="viewport">
<title>Photo::DataDelta::get</title>
<!-- Node1 -->
<g id="Node000001" class="node">
<title>Node1</title>
<g id="a_Node000001"><a xlink:title=" ">
<polygon fill="#999999" stroke="#666666" points="604,-316.88 497.25,-316.88 497.25,-297.62 604,-297.62 604,-316.88"/>
<text text-anchor="middle" x="550.62" y="-303.38" font-family="Helvetica,sans-Serif" font-size="10.00">Photo::DataDelta::get</text>
</a>
</g>
</g>
<!-- Node2 -->
<g id="Node000002" class="node">
<title>Node2</title>
<g id="a_Node000002"><a xlink:href="../../dd/d17/class_thumbnail_manager.html#a23c27b8332708a2e59a6a5ac0c3962fd" target="_top" xlink:title=" ">
<polygon fill="white" stroke="#666666" points="461.25,-600.88 336.5,-600.88 336.5,-581.62 461.25,-581.62 461.25,-600.88"/>
<text text-anchor="middle" x="398.88" y="-587.38" font-family="Helvetica,sans-Serif" font-size="10.00">ThumbnailManager::fetch</text>
</a>
</g>
</g>
<!-- Node1&#45;&gt;Node2 -->
<g id="edge1_Node000001_Node000002" class="edge">
<title>Node1&#45;&gt;Node2</title>
<g id="a_edge1_Node000001_Node000002"><a xlink:title=" ">
<path fill="none" stroke="#63b8ff" d="M548.94,-328.37C546.17,-378.36 532.11,-504.86 461.25,-573.25 457.97,-576.41 454.17,-579.02 450.1,-581.18"/>
<polygon fill="#63b8ff" stroke="#63b8ff" points="552.43,-328.8 549.38,-318.65 545.44,-328.49 552.43,-328.8"/>
</a>
</g>
</g>
<!-- Node3 -->
<g id="Node000003" class="node">
<title>Node3</title>
<g id="a_Node000003"><a xlink:href="../../db/d29/class_photo_1_1_explicit_delta.html#a798c20babb6f45b46348df7bb7facd14" target="_top" xlink:title=" ">
<polygon fill="white" stroke="#666666" points="457.5,-563.88 340.25,-563.88 340.25,-544.62 457.5,-544.62 457.5,-563.88"/>
<text text-anchor="middle" x="398.88" y="-550.38" font-family="Helvetica,sans-Serif" font-size="10.00">Photo::ExplicitDelta::get</text>
</a>
</g>
</g>
<!-- Node1&#45;&gt;Node3 -->
<g id="edge2_Node000001_Node000003" class="edge">
<title>Node1&#45;&gt;Node3</title>
<g id="a_edge2_Node000001_Node000003"><a xlink:title=" ">
<path fill="none" stroke="#63b8ff" d="M547.63,-328.44C542.24,-373.45 523.32,-479.13 461.25,-536.25 457.82,-539.41 453.86,-542.01 449.64,-544.17"/>
<polygon fill="#63b8ff" stroke="#63b8ff" points="551.08,-329.04 548.67,-318.72 544.12,-328.29 551.08,-329.04"/>
</a>
</g>
</g>
<!-- Node4 -->
<g id="Node000004" class="node">
<title>Node4</title>
<g id="a_Node000004"><a xlink:href="../../db/d29/class_photo_1_1_explicit_delta.html#aa17dc0e526caaa840d26a44e3b0d9b40" target="_top" xlink:title=" ">
<polygon fill="#fff0f0" stroke="red" points="457.5,-526.88 340.25,-526.88 340.25,-507.62 457.5,-507.62 457.5,-526.88"/>
<text text-anchor="middle" x="398.88" y="-513.38" font-family="Helvetica,sans-Serif" font-size="10.00">Photo::ExplicitDelta::get</text>
</a>
</g>
</g>
<!-- Node1&#45;&gt;Node4 -->
<g id="edge3_Node000001_Node000004" class="edge">
<title>Node1&#45;&gt;Node4</title>
<g id="a_edge3_Node000001_Node000004"><a xlink:title=" ">
<path fill="none" stroke="#63b8ff" d="M545.01,-328.45C535.68,-366.52 511.07,-446.83 461.25,-493.25 454.89,-499.18 446.89,-503.7 438.8,-507.13"/>
<polygon fill="#63b8ff" stroke="#63b8ff" points="548.41,-329.27 547.26,-318.74 541.59,-327.69 548.41,-329.27"/>
</a>
</g>
</g>
<!-- Node11 -->
<g id="Node000011" class="node">
<title>Node11</title>
<g id="a_Node000011"><a xlink:href="../../d0/d89/class_database_1_1_a_photo_change_log_operator.html#a2553f497a5bdffdc081ed06c048921ef" target="_top" xlink:title=" ">
<polygon fill="white" stroke="#666666" points="300.5,-499.5 157,-499.5 157,-469 300.5,-469 300.5,-499.5"/>
<text text-anchor="start" x="165" y="-486" font-family="Helvetica,sans-Serif" font-size="10.00">Database::APhotoChangeLog</text>
<text text-anchor="middle" x="228.75" y="-474.75" font-family="Helvetica,sans-Serif" font-size="10.00">Operator::storeDifference</text>
</a>
</g>
</g>
<!-- Node1&#45;&gt;Node11 -->
<g id="edge16_Node000001_Node000011" class="edge">
<title>Node1&#45;&gt;Node11</title>
<g id="a_edge16_Node000001_Node000011"><a xlink:title=" ">
<path fill="none" stroke="#63b8ff" d="M543.74,-327.97C533.18,-360.99 507.67,-424.93 461.25,-455.25 414.03,-486.09 349.68,-491.96 300.81,-490.9"/>
<polygon fill="#63b8ff" stroke="#63b8ff" points="546.98,-329.35 546.53,-318.77 540.28,-327.32 546.98,-329.35"/>
</a>
</g>
</g>
<!-- Node12 -->
<g id="Node000012" class="node">
<title>Node12</title>
<g id="a_Node000012"><a xlink:href="../../d5/d1b/class_database_1_1_a_sql_backend.html#ae7ba3709fe28b703826257947ea891b6" target="_top" xlink:title=" ">
<polygon fill="white" stroke="#666666" points="121,-477.5 0,-477.5 0,-447 121,-447 121,-477.5"/>
<text text-anchor="start" x="8" y="-464" font-family="Helvetica,sans-Serif" font-size="10.00">Database::ASqlBackend</text>
<text text-anchor="middle" x="60.5" y="-452.75" font-family="Helvetica,sans-Serif" font-size="10.00">::storeData</text>
</a>
</g>
</g>
<!-- Node1&#45;&gt;Node12 -->
<g id="edge15_Node000001_Node000012" class="edge">
<title>Node1&#45;&gt;Node12</title>
<g id="a_edge15_Node000001_Node000012"><a xlink:title=" ">
<path fill="none" stroke="#63b8ff" d="M540.64,-327.27C527.46,-354.04 500.14,-400.61 461.25,-422.25 432.26,-438.38 225.58,-452.63 121.33,-458.88"/>
<polygon fill="#63b8ff" stroke="#63b8ff" points="543.67,-329.05 544.77,-318.51 537.34,-326.06 543.67,-329.05"/>
</a>
</g>
</g>
<!-- Node13 -->
<g id="Node000013" class="node">
<title>Node13</title>
<g id="a_Node000013"><a xlink:href="../../d7/ddf/class_photo_data_qml.html#a0d12bcb6ffdad1cc29f4e9cea53ec47f" target="_top" xlink:title="access to flags as a QML compatible map">
<polygon fill="#fff0f0" stroke="red" points="459.75,-412.88 338,-412.88 338,-393.62 459.75,-393.62 459.75,-412.88"/>
<text text-anchor="middle" x="398.88" y="-399.38" font-family="Helvetica,sans-Serif" font-size="10.00">PhotoDataQml::getFlags</text>
</a>
</g>
</g>
<!-- Node1&#45;&gt;Node13 -->
<g id="edge6_Node000001_Node000013" class="edge">
<title>Node1&#45;&gt;Node13</title>
<g id="a_edge6_Node000001_Node000013"><a xlink:title=" ">
<path fill="none" stroke="#63b8ff" d="M533.52,-325.51C517.01,-343.17 489.78,-369.51 461.25,-385.25 455.61,-388.36 449.38,-390.99 443.11,-393.19"/>
<polygon fill="#63b8ff" stroke="#63b8ff" points="535.96,-328.03 540.11,-318.28 530.78,-323.32 535.96,-328.03"/>
</a>
</g>
</g>
<!-- Node15 -->
<g id="Node000015" class="node">
<title>Node15</title>
<g id="a_Node000015"><a xlink:href="../../d4/d50/namespace_photo.html#a4f56c419b3674bafac3f5c360192b1e8" target="_top" xlink:title=" ">
<polygon fill="#fff0f0" stroke="red" points="438.75,-375.88 359,-375.88 359,-356.62 438.75,-356.62 438.75,-375.88"/>
<text text-anchor="middle" x="398.88" y="-362.38" font-family="Helvetica,sans-Serif" font-size="10.00">Photo::getPath</text>
</a>
</g>
</g>
<!-- Node1&#45;&gt;Node15 -->
<g id="edge7_Node000001_Node000015" class="edge">
<title>Node1&#45;&gt;Node15</title>
<g id="a_edge7_Node000001_Node000015"><a xlink:title=" ">
<path fill="none" stroke="#63b8ff" d="M520.45,-322.12C503.44,-330.45 481.44,-340.65 461.25,-348.25 453.66,-351.1 445.41,-353.79 437.49,-356.18"/>
<polygon fill="#63b8ff" stroke="#63b8ff" points="521.57,-325.48 528.97,-317.89 518.46,-319.2 521.57,-325.48"/>
</a>
</g>
</g>
<!-- Node25 -->
<g id="Node000025" class="node">
<title>Node25</title>
<g id="a_Node000025"><a xlink:href="../../df/d40/namespace_groups_manager.html#a36d06be40255e8a0134e20f37a9da47b" target="_top" xlink:title=" ">
<polygon fill="white" stroke="#666666" points="455.62,-338.88 342.12,-338.88 342.12,-319.62 455.62,-319.62 455.62,-338.88"/>
<text text-anchor="middle" x="398.88" y="-325.38" font-family="Helvetica,sans-Serif" font-size="10.00">GroupsManager::group</text>
</a>
</g>
</g>
<!-- Node1&#45;&gt;Node25 -->
<g id="edge8_Node000001_Node000025" class="edge">
<title>Node1&#45;&gt;Node25</title>
<g id="a_edge8_Node000001_Node000025"><a xlink:title=" ">
<path fill="none" stroke="#63b8ff" d="M485.48,-316.67C475.67,-318.11 465.62,-319.59 456,-321"/>
<polygon fill="#63b8ff" stroke="#63b8ff" points="485.95,-320.14 495.33,-315.23 484.93,-313.22 485.95,-320.14"/>
</a>
</g>
</g>
<!-- Node26 -->
<g id="Node000026" class="node">
<title>Node26</title>
<g id="a_Node000026"><a xlink:href="../../d5/d1b/class_database_1_1_a_sql_backend.html#a218cc7555092910cf6c33cab849cc0fb" target="_top" xlink:title="create new entry for photo in database">
<polygon fill="#fff0f0" stroke="red" points="459.38,-301.5 338.38,-301.5 338.38,-271 459.38,-271 459.38,-301.5"/>
<text text-anchor="start" x="346.38" y="-288" font-family="Helvetica,sans-Serif" font-size="10.00">Database::ASqlBackend</text>
<text text-anchor="middle" x="398.88" y="-276.75" font-family="Helvetica,sans-Serif" font-size="10.00">::introduce</text>
</a>
</g>
</g>
<!-- Node1&#45;&gt;Node26 -->
<g id="edge9_Node000001_Node000026" class="edge">
<title>Node1&#45;&gt;Node26</title>
<g id="a_edge9_Node000001_Node000026"><a xlink:title=" ">
<path fill="none" stroke="#63b8ff" d="M485.71,-298.29C477.13,-297.08 468.36,-295.85 459.86,-294.66"/>
<polygon fill="#63b8ff" stroke="#63b8ff" points="484.94,-301.71 495.33,-299.64 485.91,-294.78 484.94,-301.71"/>
</a>
</g>
</g>
<!-- Node29 -->
<g id="Node000029" class="node">
<title>Node29</title>
<g id="a_Node000029"><a xlink:href="../../d4/d50/namespace_photo.html#a0fd396899fa831f05e9bbd635bba04a5" target="_top" xlink:title=" ">
<polygon fill="#fff0f0" stroke="red" points="425.62,-252.88 372.12,-252.88 372.12,-233.62 425.62,-233.62 425.62,-252.88"/>
<text text-anchor="middle" x="398.88" y="-239.38" font-family="Helvetica,sans-Serif" font-size="10.00">Photo::is</text>
</a>
</g>
</g>
<!-- Node1&#45;&gt;Node29 -->
<g id="edge10_Node000001_Node000029" class="edge">
<title>Node1&#45;&gt;Node29</title>
<g id="a_edge10_Node000001_Node000029"><a xlink:title=" ">
<path fill="none" stroke="#63b8ff" d="M522.2,-291.75C505.03,-282.44 482.26,-270.78 461.25,-262.25 449.88,-257.64 436.95,-253.48 425.9,-250.24"/>
<polygon fill="#63b8ff" stroke="#63b8ff" points="520.33,-294.71 530.78,-296.47 523.7,-288.58 520.33,-294.71"/>
</a>
</g>
</g>
<!-- Node35 -->
<g id="Node000035" class="node">
<title>Node35</title>
<g id="a_Node000035"><a xlink:href="../../dc/d8c/namespace_photo_delta.html#ac7ba92966e8e0b99eb0dea6bed6a925d" target="_top" xlink:title=" ">
<polygon fill="white" stroke="#666666" points="436.88,-215.88 360.88,-215.88 360.88,-196.62 436.88,-196.62 436.88,-215.88"/>
<text text-anchor="middle" x="398.88" y="-202.38" font-family="Helvetica,sans-Serif" font-size="10.00">PhotoDelta::is</text>
</a>
</g>
</g>
<!-- Node1&#45;&gt;Node35 -->
<g id="edge11_Node000001_Node000035" class="edge">
<title>Node1&#45;&gt;Node35</title>
<g id="a_edge11_Node000001_Node000035"><a xlink:title=" ">
<path fill="none" stroke="#63b8ff" d="M534.51,-288.63C518.27,-269.81 490.79,-241.15 461.25,-224.25 453.92,-220.06 445.54,-216.77 437.37,-214.22"/>
<polygon fill="#63b8ff" stroke="#63b8ff" points="531.64,-290.67 540.76,-296.07 537,-286.16 531.64,-290.67"/>
</a>
</g>
</g>
<!-- Node36 -->
<g id="Node000036" class="node">
<title>Node36</title>
<g id="a_Node000036"><a xlink:href="../../d4/d50/namespace_photo.html#acfa4c22bb2d186512596cbe74c290e7a" target="_top" xlink:title=" ">
<polygon fill="white" stroke="#666666" points="436.5,-178.88 361.25,-178.88 361.25,-159.62 436.5,-159.62 436.5,-178.88"/>
<text text-anchor="middle" x="398.88" y="-165.38" font-family="Helvetica,sans-Serif" font-size="10.00">Photo::isLess</text>
</a>
</g>
</g>
<!-- Node1&#45;&gt;Node36 -->
<g id="edge12_Node000001_Node000036" class="edge">
<title>Node1&#45;&gt;Node36</title>
<g id="a_edge12_Node000001_Node000036"><a xlink:title=" ">
<path fill="none" stroke="#63b8ff" d="M540.03,-287.01C526.3,-260.22 498.53,-213.34 461.25,-187.25 453.97,-182.16 445.25,-178.49 436.7,-175.85"/>
<polygon fill="#63b8ff" stroke="#63b8ff" points="536.8,-288.37 544.37,-295.79 543.07,-285.27 536.8,-288.37"/>
</a>
</g>
</g>
<!-- Node37 -->
<g id="Node000037" class="node">
<title>Node37</title>
<g id="a_Node000037"><a xlink:href="../../dc/d8c/namespace_photo_delta.html#a83857616ed7cd6f258d72d9442ff4037" target="_top" xlink:title=" ">
<polygon fill="white" stroke="#666666" points="447.75,-141.88 350,-141.88 350,-122.62 447.75,-122.62 447.75,-141.88"/>
<text text-anchor="middle" x="398.88" y="-128.38" font-family="Helvetica,sans-Serif" font-size="10.00">PhotoDelta::isLess</text>
</a>
</g>
</g>
<!-- Node1&#45;&gt;Node37 -->
<g id="edge13_Node000001_Node000037" class="edge">
<title>Node1&#45;&gt;Node37</title>
<g id="a_edge13_Node000001_Node000037"><a xlink:title=" ">
<path fill="none" stroke="#63b8ff" d="M543.65,-286.65C532.85,-253.03 506.82,-186.48 461.25,-150.25 457.25,-147.07 452.71,-144.45 447.95,-142.3"/>
<polygon fill="#63b8ff" stroke="#63b8ff" points="540.24,-287.45 546.51,-295.98 546.93,-285.4 540.24,-287.45"/>
</a>
</g>
</g>
<!-- Node38 -->
<g id="Node000038" class="node">
<title>Node38</title>
<g id="a_Node000038"><a xlink:href="../../d7/ddf/class_photo_data_qml.html#a36de9c664118b798d1871c7effd2a20b" target="_top" xlink:title=" ">
<polygon fill="white" stroke="#666666" points="450.38,-104.88 347.38,-104.88 347.38,-85.62 450.38,-85.62 450.38,-104.88"/>
<text text-anchor="middle" x="398.88" y="-91.38" font-family="Helvetica,sans-Serif" font-size="10.00">PhotoDataQml::path</text>
</a>
</g>
</g>
<!-- Node1&#45;&gt;Node38 -->
<g id="edge14_Node000001_Node000038" class="edge">
<title>Node1&#45;&gt;Node38</title>
<g id="a_edge14_Node000001_Node000038"><a xlink:title=" ">
<path fill="none" stroke="#63b8ff" d="M546.02,-286.35C538.07,-246.64 515.25,-160.07 461.25,-113.25 457.56,-110.05 453.32,-107.42 448.84,-105.25"/>
<polygon fill="#63b8ff" stroke="#63b8ff" points="542.55,-286.81 547.82,-296 549.43,-285.53 542.55,-286.81"/>
</a>
</g>
</g>
<!-- Node39 -->
<g id="Node000039" class="node">
<title>Node39</title>
<g id="a_Node000039"><a xlink:href="../../d6/dc3/data__delta__tests_8cpp.html#a05a42cc2572de1ebf095ad0009785202" target="_top" xlink:title=" ">
<polygon fill="white" stroke="#666666" points="419.25,-67.88 378.5,-67.88 378.5,-48.62 419.25,-48.62 419.25,-67.88"/>
<text text-anchor="middle" x="398.88" y="-54.38" font-family="Helvetica,sans-Serif" font-size="10.00">TEST</text>
</a>
</g>
</g>
<!-- Node1&#45;&gt;Node39 -->
<g id="edge17_Node000001_Node000039" class="edge">
<title>Node1&#45;&gt;Node39</title>
<g id="a_edge17_Node000001_Node000039"><a xlink:title=" ">
<path fill="none" stroke="#63b8ff" d="M547.69,-285.88C542.41,-240.49 523.7,-133.89 461.25,-76.25 449.91,-65.78 432.79,-61.37 419.51,-59.53"/>
<polygon fill="#63b8ff" stroke="#63b8ff" points="544.19,-286.11 548.71,-295.69 551.15,-285.39 544.19,-286.11"/>
</a>
</g>
</g>
<!-- Node40 -->
<g id="Node000040" class="node">
<title>Node40</title>
<g id="a_Node000040"><a xlink:href="../../de/db3/class_context_menu_manager.html#ae6cff95d57472c72bfc4b576f507fe6c" target="_top" xlink:title=" ">
<polygon fill="#fff0f0" stroke="red" points="454.12,-30.5 343.62,-30.5 343.62,0 454.12,0 454.12,-30.5"/>
<text text-anchor="start" x="351.62" y="-17" font-family="Helvetica,sans-Serif" font-size="10.00">ContextMenuManager</text>
<text text-anchor="middle" x="398.88" y="-5.75" font-family="Helvetica,sans-Serif" font-size="10.00">::updateModel</text>
</a>
</g>
</g>
<!-- Node1&#45;&gt;Node40 -->
<g id="edge18_Node000001_Node000040" class="edge">
<title>Node1&#45;&gt;Node40</title>
<g id="a_edge18_Node000001_Node000040"><a xlink:title=" ">
<path fill="none" stroke="#63b8ff" d="M548.57,-286.04C544.97,-236.33 529.28,-111.07 461.25,-39.25 458.26,-36.09 454.81,-33.35 451.09,-30.95"/>
<polygon fill="#63b8ff" stroke="#63b8ff" points="545.05,-285.94 549.16,-295.71 552.04,-285.51 545.05,-285.94"/>
</a>
</g>
</g>
<!-- Node4&#45;&gt;Node11 -->
<g id="edge4_Node000004_Node000011" class="edge">
<title>Node4&#45;&gt;Node11</title>
<g id="a_edge4_Node000004_Node000011"><a xlink:title=" ">
<path fill="none" stroke="#63b8ff" d="M335.48,-505C324.21,-502.79 312.4,-500.47 300.91,-498.22"/>
<polygon fill="#63b8ff" stroke="#63b8ff" points="334.55,-508.39 345.03,-506.88 335.89,-501.52 334.55,-508.39"/>
</a>
</g>
</g>
<!-- Node11&#45;&gt;Node12 -->
<g id="edge5_Node000011_Node000012" class="edge">
<title>Node11&#45;&gt;Node12</title>
<g id="a_edge5_Node000011_Node000012"><a xlink:title=" ">
<path fill="none" stroke="#63b8ff" d="M145.61,-473.38C137.4,-472.29 129.18,-471.21 121.27,-470.16"/>
<polygon fill="#63b8ff" stroke="#63b8ff" points="144.89,-476.82 155.26,-474.66 145.81,-469.88 144.89,-476.82"/>
</a>
</g>
</g>
</g>
</svg>

<g id="navigator" transform="translate(0 0)" fill="#404254">
  <rect fill="#f2f5e9" fill-opacity="0.5" stroke="#606060" stroke-width=".5" x="0" y="0" width="60" height="60"/>
  <use id="zoomplus" xlink:href="#zoomPlus" x="17" y="9" onmousedown="handleZoom(evt,'in')"/>
  <use id="zoomminus" xlink:href="#zoomMin" x="42" y="9" onmousedown="handleZoom(evt,'out')"/>
  <use id="reset" xlink:href="#resetDef" x="30" y="36" onmousedown="handleReset()"/>
   <use id="arrowup" xlink:href="#arrowUp" x="0" y="0" onmousedown="handlePan(0,-1)"/>
  <use id="arrowright" xlink:href="#arrowRight" x="0" y="0" onmousedown="handlePan(1,0)"/>
  <use id="arrowdown" xlink:href="#arrowDown" x="0" y="0" onmousedown="handlePan(0,1)"/>
  <use id="arrowleft" xlink:href="#arrowLeft" x="0" y="0" onmousedown="handlePan(-1,0)"/>
</g>
<svg viewBox="0 0 15 15" width="100%" height="30px" preserveAspectRatio="xMaxYMin meet">
 <g id="arrow_out" transform="scale(0.3 0.3)">
  <a xlink:href="class_photo_1_1_data_delta_adb6e34500f00515020150df2f9fd0ab7_icgraph_org.svg" target="_base">
   <rect id="button" ry="5" rx="5" y="6" x="6" height="38" width="38"
        fill="#f2f5e9" fill-opacity="0.5" stroke="#606060" stroke-width="1.0"/>
   <path id="arrow"
     d="M 11.500037,31.436501 C 11.940474,20.09759 22.043105,11.32322 32.158766,21.979434 L 37.068811,17.246167 C 37.068811,17.246167 37.088388,32 37.088388,32 L 22.160133,31.978069 C 22.160133,31.978069 26.997745,27.140456 26.997745,27.140456 C 18.528582,18.264221 13.291696,25.230495 11.500037,31.436501 z"
     style="fill:#404040;"/>
  </a>
 </g>
</svg>

<style type='text/css'>
<![CDATA[
[data-mouse-over-selected='false'] { opacity: 0.7; }
[data-mouse-over-selected='true']  { opacity: 1.0; }
]]>
</style>
<script type="application/ecmascript"><![CDATA[
document.addEventListener('DOMContentLoaded', (event) => {
  highlightEdges();
  highlightAdjacentNodes();
});
]]></script>
</svg>
