<?xml version="1.0" encoding="UTF-8" standalone="no"?>
<!DOCTYPE svg PUBLIC "-//W3C//DTD SVG 1.1//EN"
 "http://www.w3.org/Graphics/SVG/1.1/DTD/svg11.dtd">
<!-- Generated by graphviz version 12.2.0 (20241103.1931)
 -->
<!-- Title: Photo::DataDelta::get Pages: 1 -->
<svg width="612pt" height="599pt"
 viewBox="0.00 0.00 612.00 599.25" xmlns="http://www.w3.org/2000/svg" xmlns:xlink="http://www.w3.org/1999/xlink">
<g id="graph0" class="graph" transform="scale(1 1) rotate(0) translate(4 595.25)">
<title>Photo::DataDelta::get</title>
<!-- Node1 -->
<g id="Node000001" class="node">
<title>Node1</title>
<g id="a_Node000001"><a xlink:title=" ">
<polygon fill="#999999" stroke="#666666" points="604,-309.25 497.25,-309.25 497.25,-290 604,-290 604,-309.25"/>
<text text-anchor="middle" x="550.62" y="-295.75" font-family="Helvetica,sans-Serif" font-size="10.00">Photo::DataDelta::get</text>
</a>
</g>
</g>
<!-- Node2 -->
<g id="Node000002" class="node">
<title>Node2</title>
<g id="a_Node000002"><a xlink:href="../../dd/d17/class_thumbnail_manager.html#a23c27b8332708a2e59a6a5ac0c3962fd" target="_top" xlink:title=" ">
<polygon fill="white" stroke="#666666" points="461.25,-591.25 336.5,-591.25 336.5,-572 461.25,-572 461.25,-591.25"/>
<text text-anchor="middle" x="398.88" y="-577.75" font-family="Helvetica,sans-Serif" font-size="10.00">ThumbnailManager::fetch</text>
</a>
</g>
</g>
<!-- Node1&#45;&gt;Node2 -->
<g id="edge1_Node000001_Node000002" class="edge">
<title>Node1&#45;&gt;Node2</title>
<g id="a_edge1_Node000001_Node000002"><a xlink:title=" ">
<path fill="none" stroke="#63b8ff" d="M548.87,-320.93C545.93,-370.78 531.55,-495.93 461.25,-563.62 457.97,-566.78 454.17,-569.39 450.09,-571.54"/>
<polygon fill="#63b8ff" stroke="#63b8ff" points="552.35,-321.37 549.34,-311.22 545.36,-321.04 552.35,-321.37"/>
</a>
</g>
</g>
<!-- Node3 -->
<g id="Node000003" class="node">
<title>Node3</title>
<g id="a_Node000003"><a xlink:href="../../db/d29/class_photo_1_1_explicit_delta.html#a798c20babb6f45b46348df7bb7facd14" target="_top" xlink:title=" ">
<polygon fill="white" stroke="#666666" points="457.5,-554.25 340.25,-554.25 340.25,-535 457.5,-535 457.5,-554.25"/>
<text text-anchor="middle" x="398.88" y="-540.75" font-family="Helvetica,sans-Serif" font-size="10.00">Photo::ExplicitDelta::get</text>
</a>
</g>
</g>
<!-- Node1&#45;&gt;Node3 -->
<g id="edge2_Node000001_Node000003" class="edge">
<title>Node1&#45;&gt;Node3</title>
<g id="a_edge2_Node000001_Node000003"><a xlink:title=" ">
<path fill="none" stroke="#63b8ff" d="M547.53,-320.92C541.98,-365.71 522.8,-470.16 461.25,-526.62 457.81,-529.78 453.85,-532.38 449.63,-534.53"/>
<polygon fill="#63b8ff" stroke="#63b8ff" points="551.01,-321.34 548.64,-311.01 544.05,-320.56 551.01,-321.34"/>
</a>
</g>
</g>
<!-- Node4 -->
<g id="Node000004" class="node">
<title>Node4</title>
<g id="a_Node000004"><a xlink:href="../../db/d29/class_photo_1_1_explicit_delta.html#aa17dc0e526caaa840d26a44e3b0d9b40" target="_top" xlink:title=" ">
<polygon fill="#fff0f0" stroke="red" points="457.5,-517.25 340.25,-517.25 340.25,-498 457.5,-498 457.5,-517.25"/>
<text text-anchor="middle" x="398.88" y="-503.75" font-family="Helvetica,sans-Serif" font-size="10.00">Photo::ExplicitDelta::get</text>
</a>
</g>
</g>
<!-- Node1&#45;&gt;Node4 -->
<g id="edge3_Node000001_Node000004" class="edge">
<title>Node1&#45;&gt;Node4</title>
<g id="a_edge3_Node000001_Node000004"><a xlink:title=" ">
<path fill="none" stroke="#63b8ff" d="M544.94,-320.6C535.51,-358.27 510.73,-437.72 461.25,-483.62 454.79,-489.62 446.67,-494.17 438.46,-497.62"/>
<polygon fill="#63b8ff" stroke="#63b8ff" points="548.32,-321.55 547.22,-311.01 541.51,-319.93 548.32,-321.55"/>
</a>
</g>
</g>
<!-- Node11 -->
<g id="Node000011" class="node">
<title>Node11</title>
<g id="a_Node000011"><a xlink:href="../../d0/d89/class_database_1_1_a_photo_change_log_operator.html#a2553f497a5bdffdc081ed06c048921ef" target="_top" xlink:title=" ">
<polygon fill="white" stroke="#666666" points="300.5,-489.88 157,-489.88 157,-459.38 300.5,-459.38 300.5,-489.88"/>
<text text-anchor="start" x="165" y="-476.38" font-family="Helvetica,sans-Serif" font-size="10.00">Database::APhotoChangeLog</text>
<text text-anchor="middle" x="228.75" y="-465.12" font-family="Helvetica,sans-Serif" font-size="10.00">Operator::storeDifference</text>
</a>
</g>
</g>
<!-- Node1&#45;&gt;Node11 -->
<g id="edge17_Node000001_Node000011" class="edge">
<title>Node1&#45;&gt;Node11</title>
<g id="a_edge17_Node000001_Node000011"><a xlink:title=" ">
<path fill="none" stroke="#63b8ff" d="M543.52,-320.5C532.75,-353.21 507.09,-415.88 461.25,-445.62 413.93,-476.33 349.6,-482.21 300.76,-481.19"/>
<polygon fill="#63b8ff" stroke="#63b8ff" points="546.84,-321.59 546.47,-311.01 540.16,-319.51 546.84,-321.59"/>
</a>
</g>
</g>
<!-- Node12 -->
<g id="Node000012" class="node">
<title>Node12</title>
<g id="a_Node000012"><a xlink:href="../../d5/d1b/class_database_1_1_a_sql_backend.html#ae7ba3709fe28b703826257947ea891b6" target="_top" xlink:title=" ">
<polygon fill="white" stroke="#666666" points="121,-467.88 0,-467.88 0,-437.38 121,-437.38 121,-467.88"/>
<text text-anchor="start" x="8" y="-454.38" font-family="Helvetica,sans-Serif" font-size="10.00">Database::ASqlBackend</text>
<text text-anchor="middle" x="60.5" y="-443.12" font-family="Helvetica,sans-Serif" font-size="10.00">::storeData</text>
</a>
</g>
</g>
<!-- Node1&#45;&gt;Node12 -->
<g id="edge16_Node000001_Node000012" class="edge">
<title>Node1&#45;&gt;Node12</title>
<g id="a_edge16_Node000001_Node000012"><a xlink:title=" ">
<path fill="none" stroke="#63b8ff" d="M540.35,-319.69C526.98,-346.06 499.62,-391.49 461.25,-412.62 432.19,-428.63 225.54,-442.94 121.31,-449.23"/>
<polygon fill="#63b8ff" stroke="#63b8ff" points="543.33,-321.57 544.55,-311.05 537.03,-318.51 543.33,-321.57"/>
</a>
</g>
</g>
<!-- Node13 -->
<g id="Node000013" class="node">
<title>Node13</title>
<g id="a_Node000013"><a xlink:href="../../d7/ddf/class_photo_data_qml.html#a0d12bcb6ffdad1cc29f4e9cea53ec47f" target="_top" xlink:title="access to flags as a QML compatible map">
<polygon fill="#fff0f0" stroke="red" points="459.75,-403.25 338,-403.25 338,-384 459.75,-384 459.75,-403.25"/>
<text text-anchor="middle" x="398.88" y="-389.75" font-family="Helvetica,sans-Serif" font-size="10.00">PhotoDataQml::getFlags</text>
</a>
</g>
</g>
<!-- Node1&#45;&gt;Node13 -->
<g id="edge6_Node000001_Node000013" class="edge">
<title>Node1&#45;&gt;Node13</title>
<g id="a_edge6_Node000001_Node000013"><a xlink:title=" ">
<path fill="none" stroke="#63b8ff" d="M533.16,-317.67C516.56,-334.86 489.41,-360.32 461.25,-375.62 455.49,-378.75 449.13,-381.4 442.75,-383.61"/>
<polygon fill="#63b8ff" stroke="#63b8ff" points="535.48,-320.31 539.8,-310.63 530.39,-315.51 535.48,-320.31"/>
</a>
</g>
</g>
<!-- Node15 -->
<g id="Node000015" class="node">
<title>Node15</title>
<g id="a_Node000015"><a xlink:href="../../d4/d50/namespace_photo.html#a4f56c419b3674bafac3f5c360192b1e8" target="_top" xlink:title=" ">
<polygon fill="#fff0f0" stroke="red" points="438.75,-366.25 359,-366.25 359,-347 438.75,-347 438.75,-366.25"/>
<text text-anchor="middle" x="398.88" y="-352.75" font-family="Helvetica,sans-Serif" font-size="10.00">Photo::getPath</text>
</a>
</g>
</g>
<!-- Node1&#45;&gt;Node15 -->
<g id="edge7_Node000001_Node000015" class="edge">
<title>Node1&#45;&gt;Node15</title>
<g id="a_edge7_Node000001_Node000015"><a xlink:title=" ">
<path fill="none" stroke="#63b8ff" d="M512.68,-313.69C485.88,-323.89 450.27,-337.44 426.29,-346.57"/>
<polygon fill="#63b8ff" stroke="#63b8ff" points="513.68,-317.05 521.78,-310.22 511.19,-310.51 513.68,-317.05"/>
</a>
</g>
</g>
<!-- Node25 -->
<g id="Node000025" class="node">
<title>Node25</title>
<g id="a_Node000025"><a xlink:href="../../de/db3/class_context_menu_manager.html#ae6cff95d57472c72bfc4b576f507fe6c" target="_top" xlink:title=" ">
<polygon fill="white" stroke="#666666" points="284,-352.88 173.5,-352.88 173.5,-322.38 284,-322.38 284,-352.88"/>
<text text-anchor="start" x="181.5" y="-339.38" font-family="Helvetica,sans-Serif" font-size="10.00">ContextMenuManager</text>
<text text-anchor="middle" x="228.75" y="-328.12" font-family="Helvetica,sans-Serif" font-size="10.00">::updateModel</text>
</a>
</g>
</g>
<!-- Node1&#45;&gt;Node25 -->
<g id="edge19_Node000001_Node000025" class="edge">
<title>Node1&#45;&gt;Node25</title>
<g id="a_edge19_Node000001_Node000025"><a xlink:title=" ">
<path fill="none" stroke="#63b8ff" d="M485.39,-307.26C426.4,-314.26 339.95,-324.53 284.26,-331.15"/>
<polygon fill="#63b8ff" stroke="#63b8ff" points="485.78,-310.73 495.3,-306.08 484.96,-303.78 485.78,-310.73"/>
</a>
</g>
</g>
<!-- Node26 -->
<g id="Node000026" class="node">
<title>Node26</title>
<g id="a_Node000026"><a xlink:href="../../df/d40/namespace_groups_manager.html#a36d06be40255e8a0134e20f37a9da47b" target="_top" xlink:title=" ">
<polygon fill="white" stroke="#666666" points="455.62,-290.25 342.12,-290.25 342.12,-271 455.62,-271 455.62,-290.25"/>
<text text-anchor="middle" x="398.88" y="-276.75" font-family="Helvetica,sans-Serif" font-size="10.00">GroupsManager::group</text>
</a>
</g>
</g>
<!-- Node1&#45;&gt;Node26 -->
<g id="edge9_Node000001_Node000026" class="edge">
<title>Node1&#45;&gt;Node26</title>
<g id="a_edge9_Node000001_Node000026"><a xlink:title=" ">
<path fill="none" stroke="#63b8ff" d="M485.48,-291.49C475.67,-290.24 465.62,-288.97 456,-287.75"/>
<polygon fill="#63b8ff" stroke="#63b8ff" points="484.97,-294.95 495.33,-292.74 485.85,-288 484.97,-294.95"/>
</a>
</g>
</g>
<!-- Node27 -->
<g id="Node000027" class="node">
<title>Node27</title>
<g id="a_Node000027"><a xlink:href="../../d5/d1b/class_database_1_1_a_sql_backend.html#a218cc7555092910cf6c33cab849cc0fb" target="_top" xlink:title="create new entry for photo in database">
<polygon fill="#fff0f0" stroke="red" points="459.38,-252.88 338.38,-252.88 338.38,-222.38 459.38,-222.38 459.38,-252.88"/>
<text text-anchor="start" x="346.38" y="-239.38" font-family="Helvetica,sans-Serif" font-size="10.00">Database::ASqlBackend</text>
<text text-anchor="middle" x="398.88" y="-228.12" font-family="Helvetica,sans-Serif" font-size="10.00">::introduce</text>
</a>
</g>
</g>
<!-- Node1&#45;&gt;Node27 -->
<g id="edge10_Node000001_Node000027" class="edge">
<title>Node1&#45;&gt;Node27</title>
<g id="a_edge10_Node000001_Node000027"><a xlink:title=" ">
<path fill="none" stroke="#63b8ff" d="M516.56,-285.1C500.01,-277.9 479.63,-269.17 461.25,-261.62 454.58,-258.89 447.48,-256.05 440.56,-253.31"/>
<polygon fill="#63b8ff" stroke="#63b8ff" points="514.87,-288.18 525.44,-288.97 517.67,-281.76 514.87,-288.18"/>
</a>
</g>
</g>
<!-- Node30 -->
<g id="Node000030" class="node">
<title>Node30</title>
<g id="a_Node000030"><a xlink:href="../../d4/d50/namespace_photo.html#a0fd396899fa831f05e9bbd635bba04a5" target="_top" xlink:title=" ">
<polygon fill="#fff0f0" stroke="red" points="425.62,-204.25 372.12,-204.25 372.12,-185 425.62,-185 425.62,-204.25"/>
<text text-anchor="middle" x="398.88" y="-190.75" font-family="Helvetica,sans-Serif" font-size="10.00">Photo::is</text>
</a>
</g>
</g>
<!-- Node1&#45;&gt;Node30 -->
<g id="edge11_Node000001_Node000030" class="edge">
<title>Node1&#45;&gt;Node30</title>
<g id="a_edge11_Node000001_Node000030"><a xlink:title=" ">
<path fill="none" stroke="#63b8ff" d="M534.85,-280.71C518.72,-261.27 491.17,-231.4 461.25,-213.62 450.51,-207.24 437.42,-202.81 426.09,-199.84"/>
<polygon fill="#63b8ff" stroke="#63b8ff" points="532.05,-282.81 541.05,-288.39 537.49,-278.41 532.05,-282.81"/>
</a>
</g>
</g>
<!-- Node40 -->
<g id="Node000040" class="node">
<title>Node40</title>
<g id="a_Node000040"><a xlink:href="../../dc/d8c/namespace_photo_delta.html#ac7ba92966e8e0b99eb0dea6bed6a925d" target="_top" xlink:title=" ">
<polygon fill="white" stroke="#666666" points="436.88,-167.25 360.88,-167.25 360.88,-148 436.88,-148 436.88,-167.25"/>
<text text-anchor="middle" x="398.88" y="-153.75" font-family="Helvetica,sans-Serif" font-size="10.00">PhotoDelta::is</text>
</a>
</g>
</g>
<!-- Node1&#45;&gt;Node40 -->
<g id="edge12_Node000001_Node000040" class="edge">
<title>Node1&#45;&gt;Node40</title>
<g id="a_edge12_Node000001_Node000040"><a xlink:title=" ">
<path fill="none" stroke="#63b8ff" d="M540.41,-279.12C526.95,-251.51 499.32,-202.71 461.25,-175.62 454.1,-170.54 445.52,-166.88 437.07,-164.25"/>
<polygon fill="#63b8ff" stroke="#63b8ff" points="537.23,-280.6 544.65,-288.16 543.57,-277.62 537.23,-280.6"/>
</a>
</g>
</g>
<!-- Node41 -->
<g id="Node000041" class="node">
<title>Node41</title>
<g id="a_Node000041"><a xlink:href="../../d4/d50/namespace_photo.html#acfa4c22bb2d186512596cbe74c290e7a" target="_top" xlink:title=" ">
<polygon fill="#fff0f0" stroke="red" points="436.5,-130.25 361.25,-130.25 361.25,-111 436.5,-111 436.5,-130.25"/>
<text text-anchor="middle" x="398.88" y="-116.75" font-family="Helvetica,sans-Serif" font-size="10.00">Photo::isLess</text>
</a>
</g>
</g>
<!-- Node1&#45;&gt;Node41 -->
<g id="edge13_Node000001_Node000041" class="edge">
<title>Node1&#45;&gt;Node41</title>
<g id="a_edge13_Node000001_Node000041"><a xlink:title=" ">
<path fill="none" stroke="#63b8ff" d="M543.81,-278.51C533.22,-244.04 507.51,-175.81 461.25,-138.62 454.24,-132.99 445.52,-129.12 436.88,-126.46"/>
<polygon fill="#63b8ff" stroke="#63b8ff" points="540.45,-279.49 546.61,-288.11 547.17,-277.53 540.45,-279.49"/>
</a>
</g>
</g>
<!-- Node48 -->
<g id="Node000048" class="node">
<title>Node48</title>
<g id="a_Node000048"><a xlink:href="../../dc/d8c/namespace_photo_delta.html#a83857616ed7cd6f258d72d9442ff4037" target="_top" xlink:title=" ">
<polygon fill="#fff0f0" stroke="red" points="447.75,-93.25 350,-93.25 350,-74 447.75,-74 447.75,-93.25"/>
<text text-anchor="middle" x="398.88" y="-79.75" font-family="Helvetica,sans-Serif" font-size="10.00">PhotoDelta::isLess</text>
</a>
</g>
</g>
<!-- Node1&#45;&gt;Node48 -->
<g id="edge14_Node000001_Node000048" class="edge">
<title>Node1&#45;&gt;Node48</title>
<g id="a_edge14_Node000001_Node000048"><a xlink:title=" ">
<path fill="none" stroke="#63b8ff" d="M546.2,-278.56C538.53,-238.17 516.11,-149.56 461.25,-101.62 457.32,-98.19 452.76,-95.41 447.95,-93.16"/>
<polygon fill="#63b8ff" stroke="#63b8ff" points="542.72,-278.94 547.9,-288.18 549.61,-277.72 542.72,-278.94"/>
</a>
</g>
</g>
<!-- Node50 -->
<g id="Node000050" class="node">
<title>Node50</title>
<g id="a_Node000050"><a xlink:href="../../d7/ddf/class_photo_data_qml.html#a36de9c664118b798d1871c7effd2a20b" target="_top" xlink:title=" ">
<polygon fill="white" stroke="#666666" points="450.38,-56.25 347.38,-56.25 347.38,-37 450.38,-37 450.38,-56.25"/>
<text text-anchor="middle" x="398.88" y="-42.75" font-family="Helvetica,sans-Serif" font-size="10.00">PhotoDataQml::path</text>
</a>
</g>
</g>
<!-- Node1&#45;&gt;Node50 -->
<g id="edge15_Node000001_Node000050" class="edge">
<title>Node1&#45;&gt;Node50</title>
<g id="a_edge15_Node000001_Node000050"><a xlink:title=" ">
<path fill="none" stroke="#63b8ff" d="M547.88,-278.53C542.93,-232.73 524.77,-123.59 461.25,-64.62 457.83,-61.45 453.88,-58.84 449.67,-56.68"/>
<polygon fill="#63b8ff" stroke="#63b8ff" points="544.38,-278.77 548.82,-288.39 551.35,-278.11 544.38,-278.77"/>
</a>
</g>
</g>
<!-- Node51 -->
<g id="Node000051" class="node">
<title>Node51</title>
<g id="a_Node000051"><a xlink:href="../../d6/dc3/data__delta__tests_8cpp.html#a05a42cc2572de1ebf095ad0009785202" target="_top" xlink:title=" ">
<polygon fill="white" stroke="#666666" points="419.25,-19.25 378.5,-19.25 378.5,0 419.25,0 419.25,-19.25"/>
<text text-anchor="middle" x="398.88" y="-5.75" font-family="Helvetica,sans-Serif" font-size="10.00">TEST</text>
</a>
</g>
</g>
<!-- Node1&#45;&gt;Node51 -->
<g id="edge18_Node000001_Node000051" class="edge">
<title>Node1&#45;&gt;Node51</title>
<g id="a_edge18_Node000001_Node000051"><a xlink:title=" ">
<path fill="none" stroke="#63b8ff" d="M549.1,-278.04C546.67,-226.95 533.32,-97.65 461.25,-27.62 450.18,-16.87 433.04,-12.49 419.68,-10.73"/>
<polygon fill="#63b8ff" stroke="#63b8ff" points="545.6,-278.14 549.47,-288 552.6,-277.88 545.6,-278.14"/>
</a>
</g>
</g>
<!-- Node4&#45;&gt;Node11 -->
<g id="edge4_Node000004_Node000011" class="edge">
<title>Node4&#45;&gt;Node11</title>
<g id="a_edge4_Node000004_Node000011"><a xlink:title=" ">
<path fill="none" stroke="#63b8ff" d="M335.48,-495.38C324.21,-493.17 312.4,-490.85 300.91,-488.59"/>
<polygon fill="#63b8ff" stroke="#63b8ff" points="334.55,-498.76 345.03,-497.25 335.89,-491.89 334.55,-498.76"/>
</a>
</g>
</g>
<!-- Node11&#45;&gt;Node12 -->
<g id="edge5_Node000011_Node000012" class="edge">
<title>Node11&#45;&gt;Node12</title>
<g id="a_edge5_Node000011_Node000012"><a xlink:title=" ">
<path fill="none" stroke="#63b8ff" d="M145.61,-463.76C137.4,-462.67 129.18,-461.58 121.27,-460.53"/>
<polygon fill="#63b8ff" stroke="#63b8ff" points="144.89,-467.19 155.26,-465.03 145.81,-460.25 144.89,-467.19"/>
</a>
</g>
</g>
<!-- Node15&#45;&gt;Node25 -->
<g id="edge8_Node000015_Node000025" class="edge">
<title>Node15&#45;&gt;Node25</title>
<g id="a_edge8_Node000015_Node000025"><a xlink:title=" ">
<path fill="none" stroke="#63b8ff" d="M347.56,-350.94C327.67,-348.69 304.75,-346.1 284.45,-343.81"/>
<polygon fill="#63b8ff" stroke="#63b8ff" points="347.05,-354.4 357.38,-352.05 347.83,-347.45 347.05,-354.4"/>
</a>
</g>
</g>
</g>
</svg>
