<?xml version="1.0" encoding="UTF-8" standalone="no"?>
<!DOCTYPE svg PUBLIC "-//W3C//DTD SVG 1.1//EN"
 "http://www.w3.org/Graphics/SVG/1.1/DTD/svg11.dtd">
<!-- Generated by graphviz version 7.0.5 (20221223.1930)
 -->
<!-- Title: Photo::DataDelta::has Pages: 1 -->
<svg width="456pt" height="348pt"
 viewBox="0.00 0.00 456.00 347.50" xmlns="http://www.w3.org/2000/svg" xmlns:xlink="http://www.w3.org/1999/xlink">
<g id="graph0" class="graph" transform="scale(1 1) rotate(0) translate(4 343.5)">
<title>Photo::DataDelta::has</title>
<!-- Node1 -->
<g id="node1" class="node">
<title>Node1</title>
<g id="a_node1"><a xlink:title=" ">
<polygon fill="#999999" stroke="#666666" points="448,-191.5 338,-191.5 338,-172.5 448,-172.5 448,-191.5"/>
<text text-anchor="middle" x="393" y="-179.5" font-family="Helvetica,sans-Serif" font-size="10.00">Photo::DataDelta::has</text>
</a>
</g>
</g>
<!-- Node2 -->
<g id="node2" class="node">
<title>Node2</title>
<g id="a_node2"><a xlink:href="../../d5/df1/struct_photo_1_1_data.html#a08fbe960d4ddc3a2c2c49dd6a82acf25" target="_top" xlink:title=" ">
<polygon fill="#fff0f0" stroke="red" points="277,-339.5 183,-339.5 183,-320.5 277,-320.5 277,-339.5"/>
<text text-anchor="middle" x="230" y="-327.5" font-family="Helvetica,sans-Serif" font-size="10.00">Photo::Data::apply</text>
</a>
</g>
</g>
<!-- Node1&#45;&gt;Node2 -->
<g id="edge1" class="edge">
<title>Node1&#45;&gt;Node2</title>
<path fill="none" stroke="#63b8ff" d="M383.49,-202.46C370.38,-231.41 342.43,-283.94 302,-312 294.69,-317.08 286.07,-320.72 277.4,-323.34"/>
<polygon fill="#63b8ff" stroke="#63b8ff" points="386.68,-203.91 387.46,-193.35 380.26,-201.12 386.68,-203.91"/>
</g>
<!-- Node14 -->
<g id="node3" class="node">
<title>Node14</title>
<g id="a_node3"><a xlink:href="../../d7/d1e/class_photo_1_1_data_delta.html#ae420eb27c1756e873497ece402226e37" target="_top" xlink:title=" ">
<polygon fill="white" stroke="#666666" points="283.5,-302.5 176.5,-302.5 176.5,-283.5 283.5,-283.5 283.5,-302.5"/>
<text text-anchor="middle" x="230" y="-290.5" font-family="Helvetica,sans-Serif" font-size="10.00">Photo::DataDelta::get</text>
</a>
</g>
</g>
<!-- Node1&#45;&gt;Node14 -->
<g id="edge2" class="edge">
<title>Node1&#45;&gt;Node14</title>
<path fill="none" stroke="#63b8ff" d="M378.62,-201.19C362.78,-222.46 334.41,-256.22 302,-275 296.39,-278.25 290.19,-280.92 283.87,-283.11"/>
<polygon fill="#63b8ff" stroke="#63b8ff" points="381.45,-203.26 384.47,-193.1 375.78,-199.16 381.45,-203.26"/>
</g>
<!-- Node15 -->
<g id="node4" class="node">
<title>Node15</title>
<g id="a_node4"><a xlink:href="../../d7/d1e/class_photo_1_1_data_delta.html#a937a374107a40054d349dfae25fd020f" target="_top" xlink:title=" ">
<polygon fill="white" stroke="#666666" points="298.5,-265.5 161.5,-265.5 161.5,-246.5 298.5,-246.5 298.5,-265.5"/>
<text text-anchor="middle" x="230" y="-253.5" font-family="Helvetica,sans-Serif" font-size="10.00">Photo::DataDelta::operator|=</text>
</a>
</g>
</g>
<!-- Node1&#45;&gt;Node15 -->
<g id="edge3" class="edge">
<title>Node1&#45;&gt;Node15</title>
<path fill="none" stroke="#63b8ff" d="M370.11,-198.31C352.51,-210.75 326.72,-227.48 302,-238 294.63,-241.14 286.59,-243.82 278.65,-246.08"/>
<polygon fill="#63b8ff" stroke="#63b8ff" points="371.7,-201.48 377.76,-192.8 367.6,-195.8 371.7,-201.48"/>
</g>
<!-- Node16 -->
<g id="node5" class="node">
<title>Node16</title>
<g id="a_node5"><a xlink:href="../../d7/ddf/class_photo_data_qml.html#a36de9c664118b798d1871c7effd2a20b" target="_top" xlink:title=" ">
<polygon fill="white" stroke="#666666" points="282,-228.5 178,-228.5 178,-209.5 282,-209.5 282,-228.5"/>
<text text-anchor="middle" x="230" y="-216.5" font-family="Helvetica,sans-Serif" font-size="10.00">PhotoDataQml::path</text>
</a>
</g>
</g>
<!-- Node1&#45;&gt;Node16 -->
<g id="edge4" class="edge">
<title>Node1&#45;&gt;Node16</title>
<path fill="none" stroke="#63b8ff" d="M337.68,-194.48C317.02,-199.23 293.77,-204.57 274.26,-209.06"/>
<polygon fill="#63b8ff" stroke="#63b8ff" points="338.42,-197.91 347.38,-192.25 336.85,-191.08 338.42,-197.91"/>
</g>
<!-- Node17 -->
<g id="node6" class="node">
<title>Node17</title>
<g id="a_node6"><a xlink:href="../../d7/ddf/class_photo_data_qml.html#a5a6883aaeb5705e29c447b6d0bfa01fe" target="_top" xlink:title=" ">
<polygon fill="white" stroke="#666666" points="302,-191.5 158,-191.5 158,-172.5 302,-172.5 302,-191.5"/>
<text text-anchor="middle" x="230" y="-179.5" font-family="Helvetica,sans-Serif" font-size="10.00">PhotoDataQml::setPhotoData</text>
</a>
</g>
</g>
<!-- Node1&#45;&gt;Node17 -->
<g id="edge5" class="edge">
<title>Node1&#45;&gt;Node17</title>
<path fill="none" stroke="#63b8ff" d="M326.48,-182C318.53,-182 310.39,-182 302.36,-182"/>
<polygon fill="#63b8ff" stroke="#63b8ff" points="326.43,-185.5 336.43,-182 326.43,-178.5 326.43,-185.5"/>
</g>
<!-- Node18 -->
<g id="node7" class="node">
<title>Node18</title>
<g id="a_node7"><a xlink:href="../../d5/d1b/class_database_1_1_a_sql_backend.html#a5745b24e19dd2318475fbe820249a518" target="_top" xlink:title=" ">
<polygon fill="white" stroke="#666666" points="122,-137 0,-137 0,-107 122,-107 122,-137"/>
<text text-anchor="start" x="8" y="-125" font-family="Helvetica,sans-Serif" font-size="10.00">Database::ASqlBackend</text>
<text text-anchor="middle" x="61" y="-114" font-family="Helvetica,sans-Serif" font-size="10.00">::storeData</text>
</a>
</g>
</g>
<!-- Node1&#45;&gt;Node18 -->
<g id="edge6" class="edge">
<title>Node1&#45;&gt;Node18</title>
<path fill="none" stroke="#63b8ff" d="M332.24,-169.84C322.16,-167.85 311.79,-165.83 302,-164 240.88,-152.54 170.82,-140.39 122.24,-132.13"/>
<polygon fill="#63b8ff" stroke="#63b8ff" points="331.49,-173.26 341.98,-171.77 332.86,-166.39 331.49,-173.26"/>
</g>
<!-- Node19 -->
<g id="node8" class="node">
<title>Node19</title>
<g id="a_node8"><a xlink:href="../../d0/d89/class_database_1_1_a_photo_change_log_operator.html#a0fa2a42c4a8b586e98163db993d6be0f" target="_top" xlink:title=" ">
<polygon fill="white" stroke="#666666" points="302,-116 158,-116 158,-86 302,-86 302,-116"/>
<text text-anchor="start" x="166" y="-104" font-family="Helvetica,sans-Serif" font-size="10.00">Database::APhotoChangeLog</text>
<text text-anchor="middle" x="230" y="-93" font-family="Helvetica,sans-Serif" font-size="10.00">Operator::storeDifference</text>
</a>
</g>
</g>
<!-- Node1&#45;&gt;Node19 -->
<g id="edge7" class="edge">
<title>Node1&#45;&gt;Node19</title>
<path fill="none" stroke="#63b8ff" d="M366.81,-166.21C349.04,-155.38 324.48,-141.02 302,-130 292.32,-125.25 281.65,-120.61 271.6,-116.47"/>
<polygon fill="#63b8ff" stroke="#63b8ff" points="364.78,-169.07 375.13,-171.33 368.45,-163.11 364.78,-169.07"/>
</g>
<!-- Node20 -->
<g id="node9" class="node">
<title>Node20</title>
<g id="a_node9"><a xlink:href="../../d6/dc3/data__delta__tests_8cpp.html#a05a42cc2572de1ebf095ad0009785202" target="_top" xlink:title=" ">
<polygon fill="white" stroke="#666666" points="250.5,-67.5 209.5,-67.5 209.5,-48.5 250.5,-48.5 250.5,-67.5"/>
<text text-anchor="middle" x="230" y="-55.5" font-family="Helvetica,sans-Serif" font-size="10.00">TEST</text>
</a>
</g>
</g>
<!-- Node1&#45;&gt;Node20 -->
<g id="edge9" class="edge">
<title>Node1&#45;&gt;Node20</title>
<path fill="none" stroke="#63b8ff" d="M380.5,-162.49C365.46,-138.7 336.89,-98.96 302,-77 286.45,-67.21 265.93,-62.42 250.95,-60.11"/>
<polygon fill="#63b8ff" stroke="#63b8ff" points="377.43,-164.18 385.64,-170.88 383.4,-160.53 377.43,-164.18"/>
</g>
<!-- Node21 -->
<g id="node10" class="node">
<title>Node21</title>
<g id="a_node10"><a xlink:href="../../db/d29/class_photo_1_1_explicit_delta.html#a1e33e054b11972601e64032005fe02b9" target="_top" xlink:title=" ">
<polygon fill="#fff0f0" stroke="red" points="280,-30 180,-30 180,0 280,0 280,-30"/>
<text text-anchor="start" x="188" y="-18" font-family="Helvetica,sans-Serif" font-size="10.00">Photo::ExplicitDelta</text>
<text text-anchor="middle" x="230" y="-7" font-family="Helvetica,sans-Serif" font-size="10.00">::validateData</text>
</a>
</g>
</g>
<!-- Node1&#45;&gt;Node21 -->
<g id="edge10" class="edge">
<title>Node1&#45;&gt;Node21</title>
<path fill="none" stroke="#63b8ff" d="M384.18,-161.49C371.47,-130.81 343.53,-73.05 302,-40 295.56,-34.87 287.99,-30.76 280.23,-27.46"/>
<polygon fill="#63b8ff" stroke="#63b8ff" points="380.91,-162.75 387.87,-170.74 387.42,-160.16 380.91,-162.75"/>
</g>
<!-- Node19&#45;&gt;Node18 -->
<g id="edge8" class="edge">
<title>Node19&#45;&gt;Node18</title>
<path fill="none" stroke="#63b8ff" d="M146.29,-111.4C138.2,-112.42 130.1,-113.44 122.29,-114.42"/>
<polygon fill="#63b8ff" stroke="#63b8ff" points="146.71,-114.88 156.19,-110.16 145.83,-107.93 146.71,-114.88"/>
</g>
</g>
</svg>
