<?xml version="1.0" encoding="UTF-8" standalone="no"?>
<!DOCTYPE svg PUBLIC "-//W3C//DTD SVG 1.1//EN"
 "http://www.w3.org/Graphics/SVG/1.1/DTD/svg11.dtd">
<!-- Generated by graphviz version 12.2.0 (20241103.1931)
 -->
<!-- Title: Photo::DataDelta::getId Pages: 1 -->
<svg width="630pt" height="456pt"
 viewBox="0.00 0.00 630.00 455.88" xmlns="http://www.w3.org/2000/svg" xmlns:xlink="http://www.w3.org/1999/xlink">
<g id="graph0" class="graph" transform="scale(1 1) rotate(0) translate(4 451.88)">
<title>Photo::DataDelta::getId</title>
<!-- Node1 -->
<g id="Node000001" class="node">
<title>Node1</title>
<g id="a_Node000001"><a xlink:title=" ">
<polygon fill="#999999" stroke="#666666" points="622,-237.25 507,-237.25 507,-218 622,-218 622,-237.25"/>
<text text-anchor="middle" x="564.5" y="-223.75" font-family="Helvetica,sans-Serif" font-size="10.00">Photo::DataDelta::getId</text>
</a>
</g>
</g>
<!-- Node2 -->
<g id="Node000002" class="node">
<title>Node2</title>
<g id="a_Node000002"><a xlink:href="../../da/dba/class_database_1_1_memory_backend.html#a97514c2877aa66017fb000918002f78f" target="_top" xlink:title=" ">
<polygon fill="white" stroke="#666666" points="471,-447.88 336.5,-447.88 336.5,-417.38 471,-417.38 471,-447.88"/>
<text text-anchor="start" x="344.5" y="-434.38" font-family="Helvetica,sans-Serif" font-size="10.00">Database::MemoryBackend</text>
<text text-anchor="middle" x="403.75" y="-423.12" font-family="Helvetica,sans-Serif" font-size="10.00">::fetchData</text>
</a>
</g>
</g>
<!-- Node1&#45;&gt;Node2 -->
<g id="edge1_Node000001_Node000002" class="edge">
<title>Node1&#45;&gt;Node2</title>
<g id="a_edge1_Node000001_Node000002"><a xlink:title=" ">
<path fill="none" stroke="#63b8ff" d="M558.33,-248.39C548.01,-285.66 521.4,-364.16 471,-408.62 467.42,-411.78 463.4,-414.53 459.14,-416.93"/>
<polygon fill="#63b8ff" stroke="#63b8ff" points="561.66,-249.47 560.83,-238.9 554.89,-247.68 561.66,-249.47"/>
</a>
</g>
</g>
<!-- Node3 -->
<g id="Node000003" class="node">
<title>Node3</title>
<g id="a_Node000003"><a xlink:href="../../d7/ddf/class_photo_data_qml.html#a0d12bcb6ffdad1cc29f4e9cea53ec47f" target="_top" xlink:title="access to flags as a QML compatible map">
<polygon fill="white" stroke="#666666" points="464.62,-399.25 342.88,-399.25 342.88,-380 464.62,-380 464.62,-399.25"/>
<text text-anchor="middle" x="403.75" y="-385.75" font-family="Helvetica,sans-Serif" font-size="10.00">PhotoDataQml::getFlags</text>
</a>
</g>
</g>
<!-- Node1&#45;&gt;Node3 -->
<g id="edge2_Node000001_Node000003" class="edge">
<title>Node1&#45;&gt;Node3</title>
<g id="a_edge2_Node000001_Node000003"><a xlink:title=" ">
<path fill="none" stroke="#63b8ff" d="M554.92,-247.95C541.32,-277.8 512.11,-333.46 471,-365.62 463.39,-371.58 454.17,-376.15 445.05,-379.61"/>
<polygon fill="#63b8ff" stroke="#63b8ff" points="558.06,-249.48 558.88,-238.92 551.66,-246.67 558.06,-249.48"/>
</a>
</g>
</g>
<!-- Node4 -->
<g id="Node000004" class="node">
<title>Node4</title>
<g id="a_Node000004"><a xlink:href="../../d7/ddf/class_photo_data_qml.html#a5a6883aaeb5705e29c447b6d0bfa01fe" target="_top" xlink:title=" ">
<polygon fill="white" stroke="#666666" points="300.5,-361.25 157,-361.25 157,-342 300.5,-342 300.5,-361.25"/>
<text text-anchor="middle" x="228.75" y="-347.75" font-family="Helvetica,sans-Serif" font-size="10.00">PhotoDataQml::setPhotoData</text>
</a>
</g>
</g>
<!-- Node1&#45;&gt;Node4 -->
<g id="edge11_Node000001_Node000004" class="edge">
<title>Node1&#45;&gt;Node4</title>
<g id="a_edge11_Node000001_Node000004"><a xlink:title=" ">
<path fill="none" stroke="#63b8ff" d="M552.58,-247.5C537.74,-272.32 508.67,-313.79 471,-332.62 418.3,-358.97 350.93,-362.15 300.79,-359.64"/>
<polygon fill="#63b8ff" stroke="#63b8ff" points="555.51,-249.43 557.46,-239.02 549.44,-245.94 555.51,-249.43"/>
</a>
</g>
</g>
<!-- Node5 -->
<g id="Node000005" class="node">
<title>Node5</title>
<g id="a_Node000005"><a xlink:href="../../db/d29/class_photo_1_1_explicit_delta.html#a17a99123198a14dfec77677700c8d2ad" target="_top" xlink:title=" ">
<polygon fill="#fff0f0" stroke="red" points="453.38,-285.88 354.12,-285.88 354.12,-255.38 453.38,-255.38 453.38,-285.88"/>
<text text-anchor="start" x="362.12" y="-272.38" font-family="Helvetica,sans-Serif" font-size="10.00">Photo::ExplicitDelta</text>
<text text-anchor="middle" x="403.75" y="-261.12" font-family="Helvetica,sans-Serif" font-size="10.00">::getId</text>
</a>
</g>
</g>
<!-- Node1&#45;&gt;Node5 -->
<g id="edge4_Node000001_Node000005" class="edge">
<title>Node1&#45;&gt;Node5</title>
<g id="a_edge4_Node000001_Node000005"><a xlink:title=" ">
<path fill="none" stroke="#63b8ff" d="M515.2,-240.71C495.74,-245.98 473.31,-252.06 453.77,-257.35"/>
<polygon fill="#63b8ff" stroke="#63b8ff" points="516.08,-244.1 524.82,-238.1 514.25,-237.34 516.08,-244.1"/>
</a>
</g>
</g>
<!-- Node11 -->
<g id="Node000011" class="node">
<title>Node11</title>
<g id="a_Node000011"><a xlink:href="../../d0/d89/class_database_1_1_a_photo_change_log_operator.html#a2553f497a5bdffdc081ed06c048921ef" target="_top" xlink:title=" ">
<polygon fill="white" stroke="#666666" points="300.5,-247.88 157,-247.88 157,-217.38 300.5,-217.38 300.5,-247.88"/>
<text text-anchor="start" x="165" y="-234.38" font-family="Helvetica,sans-Serif" font-size="10.00">Database::APhotoChangeLog</text>
<text text-anchor="middle" x="228.75" y="-223.12" font-family="Helvetica,sans-Serif" font-size="10.00">Operator::storeDifference</text>
</a>
</g>
</g>
<!-- Node1&#45;&gt;Node11 -->
<g id="edge16_Node000001_Node000011" class="edge">
<title>Node1&#45;&gt;Node11</title>
<g id="a_edge16_Node000001_Node000011"><a xlink:title=" ">
<path fill="none" stroke="#63b8ff" d="M495.14,-228.65C438.45,-229.5 358.14,-230.7 300.74,-231.56"/>
<polygon fill="#63b8ff" stroke="#63b8ff" points="495.05,-232.15 504.99,-228.5 494.94,-225.15 495.05,-232.15"/>
</a>
</g>
</g>
<!-- Node12 -->
<g id="Node000012" class="node">
<title>Node12</title>
<g id="a_Node000012"><a xlink:href="../../d5/d1b/class_database_1_1_a_sql_backend.html#ae7ba3709fe28b703826257947ea891b6" target="_top" xlink:title=" ">
<polygon fill="white" stroke="#666666" points="121,-225.88 0,-225.88 0,-195.38 121,-195.38 121,-225.88"/>
<text text-anchor="start" x="8" y="-212.38" font-family="Helvetica,sans-Serif" font-size="10.00">Database::ASqlBackend</text>
<text text-anchor="middle" x="60.5" y="-201.12" font-family="Helvetica,sans-Serif" font-size="10.00">::storeData</text>
</a>
</g>
</g>
<!-- Node1&#45;&gt;Node12 -->
<g id="edge15_Node000001_Node000012" class="edge">
<title>Node1&#45;&gt;Node12</title>
<g id="a_edge15_Node000001_Node000012"><a xlink:title=" ">
<path fill="none" stroke="#63b8ff" d="M495.31,-221.34C442.26,-216.79 366.78,-211.02 300.5,-208.62 236.76,-206.33 220.77,-207.96 157,-208.62 145.48,-208.75 133.17,-208.95 121.36,-209.18"/>
<polygon fill="#63b8ff" stroke="#63b8ff" points="494.84,-224.82 505.11,-222.19 495.45,-217.84 494.84,-224.82"/>
</a>
</g>
</g>
<!-- Node13 -->
<g id="Node000013" class="node">
<title>Node13</title>
<g id="a_Node000013"><a xlink:href="../../d5/d1b/class_database_1_1_a_sql_backend.html#a218cc7555092910cf6c33cab849cc0fb" target="_top" xlink:title="create new entry for photo in database">
<polygon fill="#fff0f0" stroke="red" points="289.25,-114.88 168.25,-114.88 168.25,-84.38 289.25,-84.38 289.25,-114.88"/>
<text text-anchor="start" x="176.25" y="-101.38" font-family="Helvetica,sans-Serif" font-size="10.00">Database::ASqlBackend</text>
<text text-anchor="middle" x="228.75" y="-90.12" font-family="Helvetica,sans-Serif" font-size="10.00">::introduce</text>
</a>
</g>
</g>
<!-- Node1&#45;&gt;Node13 -->
<g id="edge7_Node000001_Node000013" class="edge">
<title>Node1&#45;&gt;Node13</title>
<g id="a_edge7_Node000001_Node000013"><a xlink:title=" ">
<path fill="none" stroke="#63b8ff" d="M538.41,-211.64C520.21,-200.52 494.71,-185.89 471,-175.62 462.02,-171.74 348.58,-136.42 280.51,-115.32"/>
<polygon fill="#63b8ff" stroke="#63b8ff" points="536.34,-214.48 546.68,-216.78 540.03,-208.53 536.34,-214.48"/>
</a>
</g>
</g>
<!-- Node16 -->
<g id="Node000016" class="node">
<title>Node16</title>
<g id="a_Node000016"><a xlink:href="../../d7/ddf/class_photo_data_qml.html#ab1034364057bf340170712083e0d2c83" target="_top" xlink:title=" ">
<polygon fill="white" stroke="#666666" points="462.75,-323.25 344.75,-323.25 344.75,-304 462.75,-304 462.75,-323.25"/>
<text text-anchor="middle" x="403.75" y="-309.75" font-family="Helvetica,sans-Serif" font-size="10.00">PhotoDataQml::isGroup</text>
</a>
</g>
</g>
<!-- Node1&#45;&gt;Node16 -->
<g id="edge8_Node000001_Node000016" class="edge">
<title>Node1&#45;&gt;Node16</title>
<g id="a_edge8_Node000001_Node000016"><a xlink:title=" ">
<path fill="none" stroke="#63b8ff" d="M543.97,-244.9C526.09,-259.93 498.33,-281.32 471,-294.62 463.79,-298.13 455.82,-301.11 447.98,-303.59"/>
<polygon fill="#63b8ff" stroke="#63b8ff" points="545.91,-247.86 551.22,-238.69 541.35,-242.54 545.91,-247.86"/>
</a>
</g>
</g>
<!-- Node17 -->
<g id="Node000017" class="node">
<title>Node17</title>
<g id="a_Node000017"><a xlink:href="../../d4/d50/namespace_photo.html#a3465206306cc8533a564db51af37ce83" target="_top" xlink:title=" ">
<polygon fill="white" stroke="#666666" points="442.5,-123.25 365,-123.25 365,-104 442.5,-104 442.5,-123.25"/>
<text text-anchor="middle" x="403.75" y="-109.75" font-family="Helvetica,sans-Serif" font-size="10.00">Photo::PrintTo</text>
</a>
</g>
</g>
<!-- Node1&#45;&gt;Node17 -->
<g id="edge10_Node000001_Node000017" class="edge">
<title>Node1&#45;&gt;Node17</title>
<g id="a_edge10_Node000001_Node000017"><a xlink:title=" ">
<path fill="none" stroke="#63b8ff" d="M548.36,-208.72C531.39,-188.64 502.17,-157.15 471,-137.62 461.88,-131.91 451.2,-127.29 441.11,-123.68"/>
<polygon fill="#63b8ff" stroke="#63b8ff" points="545.62,-210.91 554.69,-216.39 551.02,-206.45 545.62,-210.91"/>
</a>
</g>
</g>
<!-- Node18 -->
<g id="Node000018" class="node">
<title>Node18</title>
<g id="a_Node000018"><a xlink:href="../../d5/d1b/class_database_1_1_a_sql_backend.html#aeabaa61a16e3602392353c5ce5727b91" target="_top" xlink:title="store photo data">
<polygon fill="#fff0f0" stroke="red" points="464.25,-67.88 343.25,-67.88 343.25,-37.38 464.25,-37.38 464.25,-67.88"/>
<text text-anchor="start" x="351.25" y="-54.38" font-family="Helvetica,sans-Serif" font-size="10.00">Database::ASqlBackend</text>
<text text-anchor="middle" x="403.75" y="-43.12" font-family="Helvetica,sans-Serif" font-size="10.00">::storeData</text>
</a>
</g>
</g>
<!-- Node1&#45;&gt;Node18 -->
<g id="edge12_Node000001_Node000018" class="edge">
<title>Node1&#45;&gt;Node18</title>
<g id="a_edge12_Node000001_Node000018"><a xlink:title=" ">
<path fill="none" stroke="#63b8ff" d="M552.92,-207.54C537.59,-179.77 507.05,-129.17 471,-94.62 460.38,-84.45 446.93,-75.38 434.93,-68.3"/>
<polygon fill="#63b8ff" stroke="#63b8ff" points="549.81,-209.15 557.65,-216.28 555.97,-205.82 549.81,-209.15"/>
</a>
</g>
</g>
<!-- Node20 -->
<g id="Node000020" class="node">
<title>Node20</title>
<g id="a_Node000020"><a xlink:href="../../d6/dc3/data__delta__tests_8cpp.html#a793b57922396be00a7fce4a7bfe87c06" target="_top" xlink:title=" ">
<polygon fill="white" stroke="#666666" points="424.12,-19.25 383.38,-19.25 383.38,0 424.12,0 424.12,-19.25"/>
<text text-anchor="middle" x="403.75" y="-5.75" font-family="Helvetica,sans-Serif" font-size="10.00">TEST</text>
</a>
</g>
</g>
<!-- Node1&#45;&gt;Node20 -->
<g id="edge17_Node000001_Node000020" class="edge">
<title>Node1&#45;&gt;Node20</title>
<g id="a_edge17_Node000001_Node000020"><a xlink:title=" ">
<path fill="none" stroke="#63b8ff" d="M559.67,-206.41C551.21,-165.73 527.03,-76.54 471,-28.62 458,-17.5 438.85,-12.88 424.48,-10.96"/>
<polygon fill="#63b8ff" stroke="#63b8ff" points="556.21,-206.96 561.56,-216.11 563.08,-205.62 556.21,-206.96"/>
</a>
</g>
</g>
<!-- Node3&#45;&gt;Node4 -->
<g id="edge3_Node000003_Node000004" class="edge">
<title>Node3&#45;&gt;Node4</title>
<g id="a_edge3_Node000003_Node000004"><a xlink:title=" ">
<path fill="none" stroke="#63b8ff" d="M345.61,-377.08C322.87,-372.08 297.05,-366.41 275.57,-361.69"/>
<polygon fill="#63b8ff" stroke="#63b8ff" points="344.85,-380.49 355.37,-379.22 346.35,-373.65 344.85,-380.49"/>
</a>
</g>
</g>
<!-- Node5&#45;&gt;Node11 -->
<g id="edge5_Node000005_Node000011" class="edge">
<title>Node5&#45;&gt;Node11</title>
<g id="a_edge5_Node000005_Node000011"><a xlink:title=" ">
<path fill="none" stroke="#63b8ff" d="M342.6,-257.41C329.16,-254.46 314.78,-251.3 300.94,-248.26"/>
<polygon fill="#63b8ff" stroke="#63b8ff" points="341.64,-260.79 352.16,-259.51 343.14,-253.95 341.64,-260.79"/>
</a>
</g>
</g>
<!-- Node11&#45;&gt;Node12 -->
<g id="edge6_Node000011_Node000012" class="edge">
<title>Node11&#45;&gt;Node12</title>
<g id="a_edge6_Node000011_Node000012"><a xlink:title=" ">
<path fill="none" stroke="#63b8ff" d="M145.61,-221.76C137.4,-220.67 129.18,-219.58 121.27,-218.53"/>
<polygon fill="#63b8ff" stroke="#63b8ff" points="144.89,-225.19 155.26,-223.03 145.81,-218.25 144.89,-225.19"/>
</a>
</g>
</g>
<!-- Node16&#45;&gt;Node4 -->
<g id="edge9_Node000016_Node000004" class="edge">
<title>Node16&#45;&gt;Node4</title>
<g id="a_edge9_Node000016_Node000004"><a xlink:title=" ">
<path fill="none" stroke="#63b8ff" d="M345.61,-326.17C322.87,-331.17 297.05,-336.84 275.57,-341.56"/>
<polygon fill="#63b8ff" stroke="#63b8ff" points="346.35,-329.6 355.37,-324.03 344.85,-322.76 346.35,-329.6"/>
</a>
</g>
</g>
<!-- Node18&#45;&gt;Node13 -->
<g id="edge13_Node000018_Node000013" class="edge">
<title>Node18&#45;&gt;Node13</title>
<g id="a_edge13_Node000018_Node000013"><a xlink:title=" ">
<path fill="none" stroke="#63b8ff" d="M334.12,-71.27C318.74,-75.45 302.58,-79.84 287.69,-83.88"/>
<polygon fill="#63b8ff" stroke="#63b8ff" points="334.95,-74.67 343.68,-68.67 333.12,-67.92 334.95,-74.67"/>
</a>
</g>
</g>
<!-- Node18&#45;&gt;Node18 -->
<g id="edge14_Node000018_Node000018" class="edge">
<title>Node18&#45;&gt;Node18</title>
<g id="a_edge14_Node000018_Node000018"><a xlink:title=" ">
<path fill="none" stroke="#63b8ff" d="M430.71,-79.58C426.3,-83.35 417.31,-85.88 403.75,-85.88 378.95,-85.88 369.45,-77.43 375.27,-68.36"/>
<polygon fill="#63b8ff" stroke="#63b8ff" points="434.15,-80.24 432.03,-69.86 427.21,-79.3 434.15,-80.24"/>
</a>
</g>
</g>
</g>
</svg>
