<?xml version="1.0" encoding="UTF-8" standalone="no"?>
<!DOCTYPE svg PUBLIC "-//W3C//DTD SVG 1.1//EN"
 "http://www.w3.org/Graphics/SVG/1.1/DTD/svg11.dtd">
<!-- Generated by graphviz version 7.0.5 (20221223.1930)
 -->
<!-- Title: IModelCompositorDataSource::dataChanged Pages: 1 -->
<svg width="354pt" height="187pt"
 viewBox="0.00 0.00 354.00 187.00" xmlns="http://www.w3.org/2000/svg" xmlns:xlink="http://www.w3.org/1999/xlink">
<g id="graph0" class="graph" transform="scale(1 1) rotate(0) translate(4 183)">
<title>IModelCompositorDataSource::dataChanged</title>
<!-- Node1 -->
<g id="node1" class="node">
<title>Node1</title>
<g id="a_node1"><a xlink:title=" ">
<polygon fill="#999999" stroke="#666666" points="346,-110.5 200,-110.5 200,-80.5 346,-80.5 346,-110.5"/>
<text text-anchor="start" x="208" y="-98.5" font-family="Helvetica,sans-Serif" font-size="10.00">IModelCompositorDataSource</text>
<text text-anchor="middle" x="273" y="-87.5" font-family="Helvetica,sans-Serif" font-size="10.00">::dataChanged</text>
</a>
</g>
</g>
<!-- Node2 -->
<g id="node2" class="node">
<title>Node2</title>
<g id="a_node2"><a xlink:href="../../d5/d2c/class_model_compositor.html#a563d500e24068110c21f75c807930b61" target="_top" xlink:title=" ">
<polygon fill="#fff0f0" stroke="red" points="138.5,-179 25.5,-179 25.5,-160 138.5,-160 138.5,-179"/>
<text text-anchor="middle" x="82" y="-167" font-family="Helvetica,sans-Serif" font-size="10.00">ModelCompositor::add</text>
</a>
</g>
</g>
<!-- Node1&#45;&gt;Node2 -->
<g id="edge1" class="edge">
<title>Node1&#45;&gt;Node2</title>
<path fill="none" stroke="#63b8ff" d="M237.21,-116.49C216.54,-128.2 189.47,-142.24 164,-151.5 155.47,-154.6 146.23,-157.26 137.15,-159.52"/>
<polygon fill="#63b8ff" stroke="#63b8ff" points="238.87,-119.57 245.79,-111.54 235.38,-113.51 238.87,-119.57"/>
</g>
<!-- Node4 -->
<g id="node3" class="node">
<title>Node4</title>
<g id="a_node3"><a xlink:href="../../de/d4e/class_people_list_model.html#aac350ee0f795fd50b571db529234ef17" target="_top" xlink:title=" ">
<polygon fill="#fff0f0" stroke="red" points="139.5,-142 24.5,-142 24.5,-123 139.5,-123 139.5,-142"/>
<text text-anchor="middle" x="82" y="-130" font-family="Helvetica,sans-Serif" font-size="10.00">PeopleListModel::clear</text>
</a>
</g>
</g>
<!-- Node1&#45;&gt;Node4 -->
<g id="edge2" class="edge">
<title>Node1&#45;&gt;Node4</title>
<path fill="none" stroke="#63b8ff" d="M188.54,-111.84C169.89,-115.49 150.66,-119.26 133.8,-122.55"/>
<polygon fill="#63b8ff" stroke="#63b8ff" points="189.11,-115.29 198.25,-109.94 187.77,-108.42 189.11,-115.29"/>
</g>
<!-- Node8 -->
<g id="node4" class="node">
<title>Node8</title>
<g id="a_node4"><a xlink:href="../../de/d4e/class_people_list_model.html#ac869c873a6df1c1d100ea28d3bac2604" target="_top" xlink:title=" ">
<polygon fill="#fff0f0" stroke="red" points="133.5,-105 30.5,-105 30.5,-86 133.5,-86 133.5,-105"/>
<text text-anchor="middle" x="82" y="-93" font-family="Helvetica,sans-Serif" font-size="10.00">PeopleListModel::fill</text>
</a>
</g>
</g>
<!-- Node1&#45;&gt;Node8 -->
<g id="edge3" class="edge">
<title>Node1&#45;&gt;Node8</title>
<path fill="none" stroke="#63b8ff" d="M188.28,-95.5C169.71,-95.5 150.58,-95.5 133.8,-95.5"/>
<polygon fill="#63b8ff" stroke="#63b8ff" points="188.22,-99 198.22,-95.5 188.22,-92 188.22,-99"/>
</g>
<!-- Node9 -->
<g id="node5" class="node">
<title>Node9</title>
<g id="a_node5"><a xlink:href="../../d2/d10/class_photos_model_controller_component.html#a8ba1a06258de0c6d4e4788e51bc1e130" target="_top" xlink:title=" ">
<polygon fill="#fff0f0" stroke="red" points="164,-67.5 0,-67.5 0,-37.5 164,-37.5 164,-67.5"/>
<text text-anchor="start" x="8" y="-55.5" font-family="Helvetica,sans-Serif" font-size="10.00">PhotosModelControllerComponent</text>
<text text-anchor="middle" x="82" y="-44.5" font-family="Helvetica,sans-Serif" font-size="10.00">::setCompleterFactory</text>
</a>
</g>
</g>
<!-- Node1&#45;&gt;Node9 -->
<g id="edge4" class="edge">
<title>Node1&#45;&gt;Node9</title>
<path fill="none" stroke="#63b8ff" d="M192.97,-77.52C179.02,-74.35 164.61,-71.07 151,-67.97"/>
<polygon fill="#63b8ff" stroke="#63b8ff" points="192.03,-80.9 202.56,-79.7 193.58,-74.07 192.03,-80.9"/>
</g>
<!-- Node11 -->
<g id="node6" class="node">
<title>Node11</title>
<g id="a_node6"><a xlink:href="../../df/da1/class_tag_value_model.html#ac9383f3a6cd789be57bd1abf0895f696" target="_top" xlink:title=" ">
<polygon fill="#fff0f0" stroke="red" points="151,-19 13,-19 13,0 151,0 151,-19"/>
<text text-anchor="middle" x="82" y="-7" font-family="Helvetica,sans-Serif" font-size="10.00">TagValueModel::updateData</text>
</a>
</g>
</g>
<!-- Node1&#45;&gt;Node11 -->
<g id="edge5" class="edge">
<title>Node1&#45;&gt;Node11</title>
<path fill="none" stroke="#63b8ff" d="M242.3,-73.39C221.37,-58.75 192.16,-40.17 164,-28.5 155.33,-24.91 145.84,-21.91 136.5,-19.45"/>
<polygon fill="#63b8ff" stroke="#63b8ff" points="240.18,-76.17 250.35,-79.12 244.24,-70.47 240.18,-76.17"/>
</g>
</g>
</svg>
