<?xml version="1.0" encoding="UTF-8" standalone="no"?>
<!DOCTYPE svg PUBLIC "-//W3C//DTD SVG 1.1//EN"
 "http://www.w3.org/Graphics/SVG/1.1/DTD/svg11.dtd">
<!-- Generated by graphviz version 7.0.5 (20221223.1930)
 -->
<!-- Title: TagsOperator Pages: 1 -->
<svg width="212pt" height="93pt"
 viewBox="0.00 0.00 212.00 93.00" xmlns="http://www.w3.org/2000/svg" xmlns:xlink="http://www.w3.org/1999/xlink">
<g id="graph0" class="graph" transform="scale(1 1) rotate(0) translate(4 89)">
<title>TagsOperator</title>
<!-- Node1 -->
<g id="node1" class="node">
<title>Node1</title>
<g id="a_node1"><a xlink:title=" ">
<polygon fill="#999999" stroke="#666666" points="132.5,-19 56.5,-19 56.5,0 132.5,0 132.5,-19"/>
<text text-anchor="middle" x="94.5" y="-7" font-family="Helvetica,sans-Serif" font-size="10.00">TagsOperator</text>
</a>
</g>
</g>
<!-- Node2 -->
<g id="node2" class="node">
<title>Node2</title>
<g id="a_node2"><a xlink:href="../../d6/da5/struct_i_tags_operator.html" target="_top" xlink:title=" ">
<polygon fill="white" stroke="#666666" points="79,-85 0,-85 0,-66 79,-66 79,-85"/>
<text text-anchor="middle" x="39.5" y="-73" font-family="Helvetica,sans-Serif" font-size="10.00">ITagsOperator</text>
</a>
</g>
</g>
<!-- Node2&#45;&gt;Node1 -->
<g id="edge1" class="edge">
<title>Node2&#45;&gt;Node1</title>
<path fill="none" stroke="#63b8ff" d="M54.44,-57.12C64.95,-44.89 78.57,-29.04 86.92,-19.32"/>
<polygon fill="#63b8ff" stroke="#63b8ff" points="52,-54.59 48.13,-64.45 57.31,-59.15 52,-54.59"/>
</g>
<!-- Node3 -->
<g id="node3" class="node">
<title>Node3</title>
<g id="a_node3"><a xlink:href="../../d7/da9/struct_database_1_1_i_database.html" target="_top" xlink:title="Base Database interface. A bridge between regular clients and backend.">
<polygon fill="white" stroke="#666666" points="204,-85 97,-85 97,-66 204,-66 204,-85"/>
<text text-anchor="middle" x="150.5" y="-73" font-family="Helvetica,sans-Serif" font-size="10.00">Database::IDatabase</text>
</a>
</g>
</g>
<!-- Node3&#45;&gt;Node1 -->
<g id="edge2" class="edge">
<title>Node3&#45;&gt;Node1</title>
<path fill="none" stroke="#9a32cd" stroke-dasharray="5,2" d="M135.29,-57.12C124.59,-44.89 110.72,-29.04 102.22,-19.32"/>
<polygon fill="#9a32cd" stroke="#9a32cd" points="132.5,-59.24 141.72,-64.46 137.77,-54.63 132.5,-59.24"/>
<text text-anchor="middle" x="139" y="-40" font-family="Helvetica,sans-Serif" font-size="10.00"> m_db</text>
</g>
</g>
</svg>
