<?xml version="1.0" encoding="UTF-8" standalone="no"?>
<!DOCTYPE svg PUBLIC "-//W3C//DTD SVG 1.1//EN"
 "http://www.w3.org/Graphics/SVG/1.1/DTD/svg11.dtd">
<!-- Generated by graphviz version 7.0.5 (20221223.1930)
 -->
<!-- Title: src/core/itasks_view_utils.hpp Pages: 1 -->
<svg width="256pt" height="93pt"
 viewBox="0.00 0.00 256.00 93.00" xmlns="http://www.w3.org/2000/svg" xmlns:xlink="http://www.w3.org/1999/xlink">
<g id="graph0" class="graph" transform="scale(1 1) rotate(0) translate(4 89)">
<title>src/core/itasks_view_utils.hpp</title>
<!-- Node1 -->
<g id="node1" class="node">
<title>Node1</title>
<g id="a_node1"><a xlink:title=" ">
<polygon fill="#999999" stroke="#666666" points="166.5,-85 59.5,-85 59.5,-55 166.5,-55 166.5,-85"/>
<text text-anchor="start" x="67.5" y="-73" font-family="Helvetica,sans-Serif" font-size="10.00">src/core/itasks_view</text>
<text text-anchor="middle" x="113" y="-62" font-family="Helvetica,sans-Serif" font-size="10.00">_utils.hpp</text>
</a>
</g>
</g>
<!-- Node2 -->
<g id="node2" class="node">
<title>Node2</title>
<g id="a_node2"><a xlink:title=" ">
<polygon fill="#e0e0e0" stroke="#999999" points="52,-19 0,-19 0,0 52,0 52,-19"/>
<text text-anchor="middle" x="26" y="-7" font-family="Helvetica,sans-Serif" font-size="10.00">QFuture</text>
</a>
</g>
</g>
<!-- Node1&#45;&gt;Node2 -->
<g id="edge1" class="edge">
<title>Node1&#45;&gt;Node2</title>
<path fill="none" stroke="#63b8ff" d="M91.49,-54.54C78.42,-45.75 61.75,-34.54 48.51,-25.63"/>
<polygon fill="#63b8ff" stroke="#63b8ff" points="50.66,-22.87 40.41,-20.19 46.76,-28.68 50.66,-22.87"/>
</g>
<!-- Node3 -->
<g id="node3" class="node">
<title>Node3</title>
<g id="a_node3"><a xlink:href="../../d7/d76/itasks__view_8hpp.html" target="_top" xlink:title=" ">
<polygon fill="#fff0f0" stroke="red" points="156,-19 70,-19 70,0 156,0 156,-19"/>
<text text-anchor="middle" x="113" y="-7" font-family="Helvetica,sans-Serif" font-size="10.00">itasks_view.hpp</text>
</a>
</g>
</g>
<!-- Node1&#45;&gt;Node3 -->
<g id="edge2" class="edge">
<title>Node1&#45;&gt;Node3</title>
<path fill="none" stroke="#63b8ff" d="M113,-54.54C113,-47.34 113,-38.53 113,-30.68"/>
<polygon fill="#63b8ff" stroke="#63b8ff" points="116.5,-30.69 113,-20.69 109.5,-30.69 116.5,-30.69"/>
</g>
<!-- Node5 -->
<g id="node4" class="node">
<title>Node5</title>
<g id="a_node4"><a xlink:title=" ">
<polygon fill="#e0e0e0" stroke="#999999" points="248,-19 174,-19 174,0 248,0 248,-19"/>
<text text-anchor="middle" x="211" y="-7" font-family="Helvetica,sans-Serif" font-size="10.00">core_export.h</text>
</a>
</g>
</g>
<!-- Node1&#45;&gt;Node5 -->
<g id="edge3" class="edge">
<title>Node1&#45;&gt;Node5</title>
<path fill="none" stroke="#63b8ff" d="M137.22,-54.54C152.24,-45.58 171.46,-34.1 186.52,-25.11"/>
<polygon fill="#63b8ff" stroke="#63b8ff" points="188.09,-28.25 194.88,-20.12 184.5,-22.24 188.09,-28.25"/>
</g>
</g>
</svg>
