<?xml version="1.0" encoding="UTF-8" standalone="no"?>
<!DOCTYPE svg PUBLIC "-//W3C//DTD SVG 1.1//EN"
 "http://www.w3.org/Graphics/SVG/1.1/DTD/svg11.dtd">
<!-- Generated by graphviz version 7.0.5 (20221223.1930)
 -->
<!-- Title: FeaturesManager Pages: 1 -->
<svg width="208pt" height="93pt"
 viewBox="0.00 0.00 207.50 93.00" xmlns="http://www.w3.org/2000/svg" xmlns:xlink="http://www.w3.org/1999/xlink">
<g id="graph0" class="graph" transform="scale(1 1) rotate(0) translate(4 89)">
<title>FeaturesManager</title>
<!-- Node1 -->
<g id="node1" class="node">
<title>Node1</title>
<g id="a_node1"><a xlink:title=" ">
<polygon fill="#999999" stroke="#666666" points="145.5,-19 53.5,-19 53.5,0 145.5,0 145.5,-19"/>
<text text-anchor="middle" x="99.5" y="-7" font-family="Helvetica,sans-Serif" font-size="10.00">FeaturesManager</text>
</a>
</g>
</g>
<!-- Node2 -->
<g id="node2" class="node">
<title>Node2</title>
<g id="a_node2"><a xlink:href="../../d1/db4/class_i_features_manager.html" target="_top" xlink:title=" ">
<polygon fill="#fff0f0" stroke="red" points="95,-85 0,-85 0,-66 95,-66 95,-85"/>
<text text-anchor="middle" x="47.5" y="-73" font-family="Helvetica,sans-Serif" font-size="10.00">IFeaturesManager</text>
</a>
</g>
</g>
<!-- Node2&#45;&gt;Node1 -->
<g id="edge1" class="edge">
<title>Node2&#45;&gt;Node1</title>
<path fill="none" stroke="#63b8ff" d="M61.91,-56.76C71.81,-44.58 84.52,-28.94 92.33,-19.32"/>
<polygon fill="#63b8ff" stroke="#63b8ff" points="59.27,-54.46 55.68,-64.43 64.71,-58.87 59.27,-54.46"/>
</g>
<!-- Node4 -->
<g id="node3" class="node">
<title>Node4</title>
<g id="a_node3"><a xlink:href="../../d7/db4/struct_i_configuration.html" target="_top" xlink:title=" ">
<polygon fill="white" stroke="#666666" points="189.5,-85 113.5,-85 113.5,-66 189.5,-66 189.5,-85"/>
<text text-anchor="middle" x="151.5" y="-73" font-family="Helvetica,sans-Serif" font-size="10.00">IConfiguration</text>
</a>
</g>
</g>
<!-- Node4&#45;&gt;Node1 -->
<g id="edge2" class="edge">
<title>Node4&#45;&gt;Node1</title>
<path fill="none" stroke="#9a32cd" stroke-dasharray="5,2" d="M137.09,-56.76C127.19,-44.58 114.48,-28.94 106.67,-19.32"/>
<polygon fill="#9a32cd" stroke="#9a32cd" points="134.29,-58.87 143.32,-64.43 139.73,-54.46 134.29,-58.87"/>
<text text-anchor="middle" x="164" y="-40" font-family="Helvetica,sans-Serif" font-size="10.00"> m_configuration</text>
</g>
</g>
</svg>
