<?xml version="1.0" encoding="UTF-8" standalone="no"?>
<!DOCTYPE svg PUBLIC "-//W3C//DTD SVG 1.1//EN"
 "http://www.w3.org/Graphics/SVG/1.1/DTD/svg11.dtd">
<!-- Generated by graphviz version 7.0.5 (20221223.1930)
 -->
<!-- Title: PersonFullInfo Pages: 1 -->
<svg width="333pt" height="104pt"
 viewBox="0.00 0.00 333.00 104.00" xmlns="http://www.w3.org/2000/svg" xmlns:xlink="http://www.w3.org/1999/xlink">
<g id="graph0" class="graph" transform="scale(1 1) rotate(0) translate(4 100)">
<title>PersonFullInfo</title>
<!-- Node1 -->
<g id="node1" class="node">
<title>Node1</title>
<g id="a_node1"><a xlink:title="Container for all people related data (DB IDs + values)">
<polygon fill="#999999" stroke="#666666" points="188.5,-19 108.5,-19 108.5,0 188.5,0 188.5,-19"/>
<text text-anchor="middle" x="148.5" y="-7" font-family="Helvetica,sans-Serif" font-size="10.00">PersonFullInfo</text>
</a>
</g>
</g>
<!-- Node2 -->
<g id="node2" class="node">
<title>Node2</title>
<g id="a_node2"><a xlink:href="../../da/d2c/class_person_fingerprint.html" target="_top" xlink:title=" ">
<polygon fill="white" stroke="#666666" points="93,-90.5 0,-90.5 0,-71.5 93,-71.5 93,-90.5"/>
<text text-anchor="middle" x="46.5" y="-78.5" font-family="Helvetica,sans-Serif" font-size="10.00">PersonFingerprint</text>
</a>
</g>
</g>
<!-- Node2&#45;&gt;Node1 -->
<g id="edge1" class="edge">
<title>Node2&#45;&gt;Node1</title>
<path fill="none" stroke="#9a32cd" stroke-dasharray="5,2" d="M64.79,-63.75C74.72,-55.3 87.4,-45.08 99.5,-37 109.31,-30.45 120.9,-24.12 130.34,-19.3"/>
<polygon fill="#9a32cd" stroke="#9a32cd" points="62.63,-60.99 57.38,-70.18 67.22,-66.27 62.63,-60.99"/>
<text text-anchor="middle" x="122" y="-40" font-family="Helvetica,sans-Serif" font-size="10.00"> fingerprint</text>
</g>
<!-- Node3 -->
<g id="node3" class="node">
<title>Node3</title>
<g id="a_node3"><a xlink:href="../../db/de4/class_person_name.html" target="_top" xlink:title=" ">
<polygon fill="#fff0f0" stroke="red" points="185.5,-90.5 111.5,-90.5 111.5,-71.5 185.5,-71.5 185.5,-90.5"/>
<text text-anchor="middle" x="148.5" y="-78.5" font-family="Helvetica,sans-Serif" font-size="10.00">PersonName</text>
</a>
</g>
</g>
<!-- Node3&#45;&gt;Node1 -->
<g id="edge2" class="edge">
<title>Node3&#45;&gt;Node1</title>
<path fill="none" stroke="#9a32cd" stroke-dasharray="5,2" d="M148.5,-59.8C148.5,-46.44 148.5,-29.59 148.5,-19.45"/>
<polygon fill="#9a32cd" stroke="#9a32cd" points="145,-59.68 148.5,-69.68 152,-59.68 145,-59.68"/>
<text text-anchor="middle" x="162" y="-40" font-family="Helvetica,sans-Serif" font-size="10.00"> name</text>
</g>
<!-- Node5 -->
<g id="node4" class="node">
<title>Node5</title>
<g id="a_node4"><a xlink:href="../../db/dfb/class_id.html" target="_top" xlink:title=" ">
<polygon fill="white" stroke="#666666" points="325,-96 204,-96 204,-66 325,-66 325,-96"/>
<text text-anchor="start" x="212" y="-84" font-family="Helvetica,sans-Serif" font-size="10.00">Id&lt; int, struct personinfo</text>
<text text-anchor="middle" x="264.5" y="-73" font-family="Helvetica,sans-Serif" font-size="10.00">_tag &gt;</text>
</a>
</g>
</g>
<!-- Node5&#45;&gt;Node1 -->
<g id="edge3" class="edge">
<title>Node5&#45;&gt;Node1</title>
<path fill="none" stroke="#9a32cd" stroke-dasharray="5,2" d="M230.68,-59.74C208.35,-46.36 180.21,-29.5 163.32,-19.38"/>
<polygon fill="#9a32cd" stroke="#9a32cd" points="228.79,-62.68 239.17,-64.82 232.39,-56.68 228.79,-62.68"/>
<text text-anchor="middle" x="221" y="-40" font-family="Helvetica,sans-Serif" font-size="10.00"> pi_id</text>
</g>
</g>
</svg>
