<?xml version="1.0" encoding="UTF-8" standalone="no"?>
<!DOCTYPE svg PUBLIC "-//W3C//DTD SVG 1.1//EN"
 "http://www.w3.org/Graphics/SVG/1.1/DTD/svg11.dtd">
<!-- Generated by graphviz version 7.0.5 (20221223.1930)
 -->
<!-- Title: src/core/implementation/tag.cpp Pages: 1 -->
<svg width="429pt" height="203pt"
 viewBox="0.00 0.00 429.00 203.00" xmlns="http://www.w3.org/2000/svg" xmlns:xlink="http://www.w3.org/1999/xlink">
<g id="graph0" class="graph" transform="scale(1 1) rotate(0) translate(4 199)">
<title>src/core/implementation/tag.cpp</title>
<!-- Node1 -->
<g id="node1" class="node">
<title>Node1</title>
<g id="a_node1"><a xlink:title=" ">
<polygon fill="#999999" stroke="#666666" points="213.5,-195 92.5,-195 92.5,-165 213.5,-165 213.5,-195"/>
<text text-anchor="start" x="100.5" y="-183" font-family="Helvetica,sans-Serif" font-size="10.00">src/core/implementation</text>
<text text-anchor="middle" x="153" y="-172" font-family="Helvetica,sans-Serif" font-size="10.00">/tag.cpp</text>
</a>
</g>
</g>
<!-- Node2 -->
<g id="node2" class="node">
<title>Node2</title>
<g id="a_node2"><a xlink:href="../../d1/d74/tag_8hpp.html" target="_top" xlink:title=" ">
<polygon fill="#fff0f0" stroke="red" points="75,-74 27,-74 27,-55 75,-55 75,-74"/>
<text text-anchor="middle" x="51" y="-62" font-family="Helvetica,sans-Serif" font-size="10.00">tag.hpp</text>
</a>
</g>
</g>
<!-- Node1&#45;&gt;Node2 -->
<g id="edge1" class="edge">
<title>Node1&#45;&gt;Node2</title>
<path fill="none" stroke="#63b8ff" d="M103.95,-164.53C86.32,-156.83 68.07,-145.45 57,-129 48.47,-116.33 47.39,-98.88 48.21,-85.48"/>
<polygon fill="#63b8ff" stroke="#63b8ff" points="51.68,-85.97 49.24,-75.66 44.71,-85.25 51.68,-85.97"/>
</g>
<!-- Node9 -->
<g id="node3" class="node">
<title>Node9</title>
<g id="a_node3"><a xlink:title=" ">
<polygon fill="#e0e0e0" stroke="#999999" points="50,-19 0,-19 0,0 50,0 50,-19"/>
<text text-anchor="middle" x="25" y="-7" font-family="Helvetica,sans-Serif" font-size="10.00">QString</text>
</a>
</g>
</g>
<!-- Node1&#45;&gt;Node9 -->
<g id="edge5" class="edge">
<title>Node1&#45;&gt;Node9</title>
<path fill="none" stroke="#63b8ff" d="M104.36,-164.59C84.09,-156.66 61.47,-145.1 45,-129 19.96,-104.53 15.27,-89.9 18,-55 18.63,-46.91 19.9,-38.07 21.19,-30.41"/>
<polygon fill="#63b8ff" stroke="#63b8ff" points="24.59,-31.27 22.93,-20.81 17.7,-30.02 24.59,-31.27"/>
</g>
<!-- Node12 -->
<g id="node4" class="node">
<title>Node12</title>
<g id="a_node4"><a xlink:title=" ">
<polygon fill="#e0e0e0" stroke="#999999" points="112.5,-129 65.5,-129 65.5,-110 112.5,-110 112.5,-129"/>
<text text-anchor="middle" x="89" y="-117" font-family="Helvetica,sans-Serif" font-size="10.00">QColor</text>
</a>
</g>
</g>
<!-- Node1&#45;&gt;Node12 -->
<g id="edge3" class="edge">
<title>Node1&#45;&gt;Node12</title>
<path fill="none" stroke="#63b8ff" d="M137.18,-164.54C127.98,-156.13 116.36,-145.51 106.83,-136.8"/>
<polygon fill="#63b8ff" stroke="#63b8ff" points="109.35,-134.36 99.61,-130.2 104.63,-139.53 109.35,-134.36"/>
</g>
<!-- Node13 -->
<g id="node5" class="node">
<title>Node13</title>
<g id="a_node5"><a xlink:title=" ">
<polygon fill="#e0e0e0" stroke="#999999" points="175,-129 131,-129 131,-110 175,-110 175,-129"/>
<text text-anchor="middle" x="153" y="-117" font-family="Helvetica,sans-Serif" font-size="10.00">QDate</text>
</a>
</g>
</g>
<!-- Node1&#45;&gt;Node13 -->
<g id="edge4" class="edge">
<title>Node1&#45;&gt;Node13</title>
<path fill="none" stroke="#63b8ff" d="M153,-164.54C153,-157.34 153,-148.53 153,-140.68"/>
<polygon fill="#63b8ff" stroke="#63b8ff" points="156.5,-140.69 153,-130.69 149.5,-140.69 156.5,-140.69"/>
</g>
<!-- Node14 -->
<g id="node6" class="node">
<title>Node14</title>
<g id="a_node6"><a xlink:title=" ">
<polygon fill="#e0e0e0" stroke="#999999" points="259,-129 193,-129 193,-110 259,-110 259,-129"/>
<text text-anchor="middle" x="226" y="-117" font-family="Helvetica,sans-Serif" font-size="10.00">QStringList</text>
</a>
</g>
</g>
<!-- Node1&#45;&gt;Node14 -->
<g id="edge6" class="edge">
<title>Node1&#45;&gt;Node14</title>
<path fill="none" stroke="#63b8ff" d="M171.04,-164.54C181.76,-155.96 195.34,-145.07 206.33,-136.26"/>
<polygon fill="#63b8ff" stroke="#63b8ff" points="208.38,-139.11 213.99,-130.12 204,-133.64 208.38,-139.11"/>
</g>
<!-- Node15 -->
<g id="node7" class="node">
<title>Node15</title>
<g id="a_node7"><a xlink:title=" ">
<polygon fill="#e0e0e0" stroke="#999999" points="323,-129 277,-129 277,-110 323,-110 323,-129"/>
<text text-anchor="middle" x="300" y="-117" font-family="Helvetica,sans-Serif" font-size="10.00">QTime</text>
</a>
</g>
</g>
<!-- Node1&#45;&gt;Node15 -->
<g id="edge7" class="edge">
<title>Node1&#45;&gt;Node15</title>
<path fill="none" stroke="#63b8ff" d="M189.34,-164.54C213.16,-155.06 244.04,-142.77 267.13,-133.58"/>
<polygon fill="#63b8ff" stroke="#63b8ff" points="268.37,-136.86 276.36,-129.91 265.78,-130.35 268.37,-136.86"/>
</g>
<!-- Node16 -->
<g id="node8" class="node">
<title>Node16</title>
<g id="a_node8"><a xlink:href="../../d9/d1e/base__tags_8hpp.html" target="_top" xlink:title=" ">
<polygon fill="#fff0f0" stroke="red" points="421,-129 341,-129 341,-110 421,-110 421,-129"/>
<text text-anchor="middle" x="381" y="-117" font-family="Helvetica,sans-Serif" font-size="10.00">base_tags.hpp</text>
</a>
</g>
</g>
<!-- Node1&#45;&gt;Node16 -->
<g id="edge8" class="edge">
<title>Node1&#45;&gt;Node16</title>
<path fill="none" stroke="#63b8ff" d="M209.36,-164.54C248.2,-154.57 299.15,-141.5 335.43,-132.19"/>
<polygon fill="#63b8ff" stroke="#63b8ff" points="335.91,-135.68 344.72,-129.81 334.17,-128.9 335.91,-135.68"/>
</g>
<!-- Node2&#45;&gt;Node9 -->
<g id="edge2" class="edge">
<title>Node2&#45;&gt;Node9</title>
<path fill="none" stroke="#63b8ff" d="M46.71,-54.75C43.38,-47.96 38.64,-38.3 34.44,-29.73"/>
<polygon fill="#63b8ff" stroke="#63b8ff" points="37.6,-28.24 30.05,-20.8 31.32,-31.32 37.6,-28.24"/>
</g>
<!-- Node16&#45;&gt;Node2 -->
<g id="edge9" class="edge">
<title>Node16&#45;&gt;Node2</title>
<path fill="none" stroke="#63b8ff" d="M340.63,-111.45C337.71,-110.95 334.81,-110.47 332,-110 243.89,-95.38 140.06,-79.21 86.67,-70.98"/>
<polygon fill="#63b8ff" stroke="#63b8ff" points="87.36,-67.54 76.95,-69.48 86.3,-74.46 87.36,-67.54"/>
</g>
</g>
</svg>
