<?xml version="1.0" encoding="UTF-8" standalone="no"?>
<!DOCTYPE svg PUBLIC "-//W3C//DTD SVG 1.1//EN"
 "http://www.w3.org/Graphics/SVG/1.1/DTD/svg11.dtd">
<!-- Generated by graphviz version 7.0.5 (20221223.1930)
 -->
<!-- Title: BatchFaceDetector::setCore Pages: 1 -->
<svg width="262pt" height="76pt"
 viewBox="0.00 0.00 262.00 75.50" xmlns="http://www.w3.org/2000/svg" xmlns:xlink="http://www.w3.org/1999/xlink">
<g id="graph0" class="graph" transform="scale(1 1) rotate(0) translate(4 71.5)">
<title>BatchFaceDetector::setCore</title>
<!-- Node1 -->
<g id="node1" class="node">
<title>Node1</title>
<g id="a_node1"><a xlink:title=" ">
<polygon fill="#999999" stroke="#666666" points="105,-51 0,-51 0,-21 105,-21 105,-51"/>
<text text-anchor="start" x="8" y="-39" font-family="Helvetica,sans-Serif" font-size="10.00">BatchFaceDetector::</text>
<text text-anchor="middle" x="52.5" y="-28" font-family="Helvetica,sans-Serif" font-size="10.00">setCore</text>
</a>
</g>
</g>
<!-- Node2 -->
<g id="node2" class="node">
<title>Node2</title>
<g id="a_node2"><a xlink:href="../../d1/d78/struct_i_logger_factory.html#aca982aa12ae7cad04f1a90a5e48caa63" target="_top" xlink:title=" ">
<polygon fill="white" stroke="#666666" points="247.5,-67.5 147.5,-67.5 147.5,-48.5 247.5,-48.5 247.5,-67.5"/>
<text text-anchor="middle" x="197.5" y="-55.5" font-family="Helvetica,sans-Serif" font-size="10.00">ILoggerFactory::get</text>
</a>
</g>
</g>
<!-- Node1&#45;&gt;Node2 -->
<g id="edge1" class="edge">
<title>Node1&#45;&gt;Node2</title>
<path fill="none" stroke="#63b8ff" d="M105.13,-43.94C115.23,-45.5 125.91,-47.14 136.27,-48.73"/>
<polygon fill="#63b8ff" stroke="#63b8ff" points="135.43,-52.15 145.84,-50.21 136.49,-45.23 135.43,-52.15"/>
</g>
<!-- Node3 -->
<g id="node3" class="node">
<title>Node3</title>
<g id="a_node3"><a xlink:href="../../d5/da9/struct_i_core_factory_accessor.html#abe33f0c94959dd4dd79b775df7c0c82d" target="_top" xlink:title=" ">
<polygon fill="white" stroke="#666666" points="254,-30 141,-30 141,0 254,0 254,-30"/>
<text text-anchor="start" x="149" y="-18" font-family="Helvetica,sans-Serif" font-size="10.00">ICoreFactoryAccessor</text>
<text text-anchor="middle" x="197.5" y="-7" font-family="Helvetica,sans-Serif" font-size="10.00">::getLoggerFactory</text>
</a>
</g>
</g>
<!-- Node1&#45;&gt;Node3 -->
<g id="edge2" class="edge">
<title>Node1&#45;&gt;Node3</title>
<path fill="none" stroke="#63b8ff" d="M105.13,-28.42C112.96,-27.27 121.13,-26.07 129.23,-24.88"/>
<polygon fill="#63b8ff" stroke="#63b8ff" points="129.72,-28.35 139.1,-23.43 128.7,-21.42 129.72,-28.35"/>
</g>
</g>
</svg>
