<?xml version="1.0" encoding="UTF-8" standalone="no"?>
<!DOCTYPE svg PUBLIC "-//W3C//DTD SVG 1.1//EN"
 "http://www.w3.org/Graphics/SVG/1.1/DTD/svg11.dtd">
<!-- Generated by graphviz version 7.0.5 (20221223.1930)
 -->
<!-- Title: TagsModel::setBusy Pages: 1 -->
<svg width="266pt" height="64pt"
 viewBox="0.00 0.00 266.00 64.00" xmlns="http://www.w3.org/2000/svg" xmlns:xlink="http://www.w3.org/1999/xlink">
<g id="graph0" class="graph" transform="scale(1 1) rotate(0) translate(4 60)">
<title>TagsModel::setBusy</title>
<!-- Node1 -->
<g id="node1" class="node">
<title>Node1</title>
<g id="a_node1"><a xlink:title=" ">
<polygon fill="#999999" stroke="#666666" points="258,-37 154,-37 154,-18 258,-18 258,-37"/>
<text text-anchor="middle" x="206" y="-25" font-family="Helvetica,sans-Serif" font-size="10.00">TagsModel::setBusy</text>
</a>
</g>
</g>
<!-- Node2 -->
<g id="node2" class="node">
<title>Node2</title>
<g id="a_node2"><a xlink:href="../../d0/d5d/class_tags_model.html#a005b3a8e153bcc5222505a189bcf95b5" target="_top" xlink:title=" ">
<polygon fill="#fff0f0" stroke="red" points="118,-56 0,-56 0,-37 118,-37 118,-56"/>
<text text-anchor="middle" x="59" y="-44" font-family="Helvetica,sans-Serif" font-size="10.00">TagsModel::loadPhotos</text>
</a>
</g>
</g>
<!-- Node1&#45;&gt;Node2 -->
<g id="edge1" class="edge">
<title>Node1&#45;&gt;Node2</title>
<path fill="none" stroke="#63b8ff" d="M142.63,-35.67C134.57,-36.73 126.33,-37.81 118.33,-38.86"/>
<polygon fill="#63b8ff" stroke="#63b8ff" points="142.92,-39.16 152.38,-34.4 142.01,-32.22 142.92,-39.16"/>
</g>
<!-- Node5 -->
<g id="node3" class="node">
<title>Node5</title>
<g id="a_node3"><a xlink:href="../../d0/d5d/class_tags_model.html#ae4743f07bc9c309322765e1df108a435" target="_top" xlink:title=" ">
<polygon fill="white" stroke="#666666" points="115.5,-19 2.5,-19 2.5,0 115.5,0 115.5,-19"/>
<text text-anchor="middle" x="59" y="-7" font-family="Helvetica,sans-Serif" font-size="10.00">TagsModel::setPhotos</text>
</a>
</g>
</g>
<!-- Node1&#45;&gt;Node5 -->
<g id="edge2" class="edge">
<title>Node1&#45;&gt;Node5</title>
<path fill="none" stroke="#63b8ff" d="M142.64,-19.76C133.65,-18.64 124.44,-17.5 115.59,-16.4"/>
<polygon fill="#63b8ff" stroke="#63b8ff" points="142.02,-23.21 152.38,-20.97 142.88,-16.26 142.02,-23.21"/>
</g>
</g>
</svg>
