<?xml version="1.0" encoding="UTF-8" standalone="no"?>
<!DOCTYPE svg PUBLIC "-//W3C//DTD SVG 1.1//EN"
 "http://www.w3.org/Graphics/SVG/1.1/DTD/svg11.dtd">
<!-- Generated by graphviz version 12.2.0 (20241103.1931)
 -->
<!-- Title: TagsModel::setData Pages: 1 -->
<svg width="408pt" height="140pt"
 viewBox="0.00 0.00 407.75 140.25" xmlns="http://www.w3.org/2000/svg" xmlns:xlink="http://www.w3.org/1999/xlink">

<svg id="main" version="1.1" xmlns="http://www.w3.org/2000/svg" xmlns:xlink="http://www.w3.org/1999/xlink" xml:space="preserve">

<style type="text/css"><![CDATA[
.node, .edge {opacity: 0.7;}
.node.selected, .edge.selected {opacity: 1;}
.edge:hover path { stroke: red; }
.edge:hover polygon { stroke: red; fill: red; }
]]></style>
<script type="application/ecmascript" xlink:href="../../svg.min.js"/>
<svg id="graph" class="graph">
<g id="graph0" class="graph" transform="scale(1 1) rotate(0) translate(4 136.25)">
<title>TagsModel::setData</title>
<!-- Node1 -->
<g id="Node000001" class="node">
<title>Node1</title>
<g id="a_Node000001"><a xlink:title=" ">
<polygon fill="#999999" stroke="#666666" points="102.25,-75.25 0,-75.25 0,-56 102.25,-56 102.25,-75.25"/>
<text text-anchor="middle" x="51.12" y="-61.75" font-family="Helvetica,sans-Serif" font-size="10.00">TagsModel::setData</text>
</a>
</g>
</g>
<!-- Node2 -->
<g id="Node000002" class="node">
<title>Node2</title>
<g id="a_Node000002"><a xlink:href="../../d0/d5d/class_tags_model.html#a08f82806abee44f4fdd860bb2f5d16c5" target="_top" xlink:title=" ">
<polygon fill="white" stroke="#666666" points="265.62,-132.25 145.38,-132.25 145.38,-113 265.62,-113 265.62,-132.25"/>
<text text-anchor="middle" x="205.5" y="-118.75" font-family="Helvetica,sans-Serif" font-size="10.00">TagsModel::correctInput</text>
</a>
</g>
</g>
<!-- Node1&#45;&gt;Node2 -->
<g id="edge1_Node000001_Node000002" class="edge">
<title>Node1&#45;&gt;Node2</title>
<g id="a_edge1_Node000001_Node000002"><a xlink:title=" ">
<path fill="none" stroke="#63b8ff" d="M78.08,-75.71C95.15,-82.31 117.99,-91.08 138.25,-98.62 147.13,-101.94 156.71,-105.44 165.74,-108.72"/>
<polygon fill="#63b8ff" stroke="#63b8ff" points="164.4,-111.95 174.99,-112.06 166.78,-105.37 164.4,-111.95"/>
</a>
</g>
</g>
<!-- Node3 -->
<g id="Node000003" class="node">
<title>Node3</title>
<g id="a_Node000003"><a xlink:href="../../d0/d5d/class_tags_model.html#a5eb7447c0a00b696ff9b6395aea50ded" target="_top" xlink:title=" ">
<polygon fill="#fff0f0" stroke="red" points="399.75,-56.25 308.75,-56.25 308.75,-37 399.75,-37 399.75,-56.25"/>
<text text-anchor="middle" x="354.25" y="-42.75" font-family="Helvetica,sans-Serif" font-size="10.00">TagsModel::index</text>
</a>
</g>
</g>
<!-- Node1&#45;&gt;Node3 -->
<g id="edge2_Node000001_Node000003" class="edge">
<title>Node1&#45;&gt;Node3</title>
<g id="a_edge2_Node000001_Node000003"><a xlink:title=" ">
<path fill="none" stroke="#63b8ff" d="M102.7,-68.94C147.54,-71.09 214.73,-72.38 272.75,-65.62 284.09,-64.3 296.15,-61.97 307.39,-59.38"/>
<polygon fill="#63b8ff" stroke="#63b8ff" points="307.93,-62.85 316.83,-57.09 306.28,-56.05 307.93,-62.85"/>
</a>
</g>
</g>
<!-- Node5 -->
<g id="Node000005" class="node">
<title>Node5</title>
<g id="a_Node000005"><a xlink:href="../../d0/d5d/class_tags_model.html#a6579f36a9cfd866fe392d926abfa0519" target="_top" xlink:title=" ">
<polygon fill="#fff0f0" stroke="red" points="246.5,-56.25 164.5,-56.25 164.5,-37 246.5,-37 246.5,-56.25"/>
<text text-anchor="middle" x="205.5" y="-42.75" font-family="Helvetica,sans-Serif" font-size="10.00">TagsModel::set</text>
</a>
</g>
</g>
<!-- Node1&#45;&gt;Node5 -->
<g id="edge3_Node000001_Node000005" class="edge">
<title>Node1&#45;&gt;Node5</title>
<g id="a_edge3_Node000001_Node000005"><a xlink:title=" ">
<path fill="none" stroke="#63b8ff" d="M102.44,-59.35C118.78,-57.31 136.92,-55.05 153.33,-53.01"/>
<polygon fill="#63b8ff" stroke="#63b8ff" points="153.37,-56.53 162.86,-51.82 152.5,-49.58 153.37,-56.53"/>
</a>
</g>
</g>
<!-- Node9 -->
<g id="Node000009" class="node">
<title>Node9</title>
<g id="a_Node000009"><a xlink:href="../../d0/d5d/class_tags_model.html#a2bdeb93a72435acfbe09a1432c0c5f97" target="_top" xlink:title=" ">
<polygon fill="#fff0f0" stroke="red" points="272.75,-19.25 138.25,-19.25 138.25,0 272.75,0 272.75,-19.25"/>
<text text-anchor="middle" x="205.5" y="-5.75" font-family="Helvetica,sans-Serif" font-size="10.00">TagsModel::setDataInternal</text>
</a>
</g>
</g>
<!-- Node1&#45;&gt;Node9 -->
<g id="edge4_Node000001_Node000009" class="edge">
<title>Node1&#45;&gt;Node9</title>
<g id="a_edge4_Node000001_Node000009"><a xlink:title=" ">
<path fill="none" stroke="#63b8ff" d="M72.66,-55.52C89.89,-47.29 115.3,-35.76 138.25,-27.62 142.93,-25.97 147.83,-24.37 152.77,-22.87"/>
<polygon fill="#63b8ff" stroke="#63b8ff" points="153.49,-26.3 162.11,-20.14 151.53,-19.59 153.49,-26.3"/>
</a>
</g>
</g>
<!-- Node9&#45;&gt;Node3 -->
<g id="edge5_Node000009_Node000003" class="edge">
<title>Node9&#45;&gt;Node3</title>
<g id="a_edge5_Node000009_Node000003"><a xlink:title=" ">
<path fill="none" stroke="#63b8ff" d="M246.6,-19.74C263.75,-24.06 283.97,-29.16 302.17,-33.75"/>
<polygon fill="#63b8ff" stroke="#63b8ff" points="301.18,-37.11 311.73,-36.16 302.89,-30.32 301.18,-37.11"/>
</a>
</g>
</g>
</g>
</svg>
</svg>

<style type='text/css'>
<![CDATA[
[data-mouse-over-selected='false'] { opacity: 0.7; }
[data-mouse-over-selected='true']  { opacity: 1.0; }
]]>
</style>
<script type="application/ecmascript"><![CDATA[
document.addEventListener('DOMContentLoaded', (event) => {
  highlightEdges();
  highlightAdjacentNodes();
});
]]></script>
</svg>
