<?xml version="1.0" encoding="UTF-8" standalone="no"?>
<!DOCTYPE svg PUBLIC "-//W3C//DTD SVG 1.1//EN"
 "http://www.w3.org/Graphics/SVG/1.1/DTD/svg11.dtd">
<!-- Generated by graphviz version 7.0.5 (20221223.1930)
 -->
<!-- Title: TagsModel::setDataInternal Pages: 1 -->
<svg width="297pt" height="64pt"
 viewBox="0.00 0.00 297.00 64.00" xmlns="http://www.w3.org/2000/svg" xmlns:xlink="http://www.w3.org/1999/xlink">
<g id="graph0" class="graph" transform="scale(1 1) rotate(0) translate(4 60)">
<title>TagsModel::setDataInternal</title>
<!-- Node1 -->
<g id="node1" class="node">
<title>Node1</title>
<g id="a_node1"><a xlink:title=" ">
<polygon fill="#999999" stroke="#666666" points="289,-37 154,-37 154,-18 289,-18 289,-37"/>
<text text-anchor="middle" x="221.5" y="-25" font-family="Helvetica,sans-Serif" font-size="10.00">TagsModel::setDataInternal</text>
</a>
</g>
</g>
<!-- Node2 -->
<g id="node2" class="node">
<title>Node2</title>
<g id="a_node2"><a xlink:href="../../d0/d5d/class_tags_model.html#a005b3a8e153bcc5222505a189bcf95b5" target="_top" xlink:title=" ">
<polygon fill="#fff0f0" stroke="red" points="118,-56 0,-56 0,-37 118,-37 118,-56"/>
<text text-anchor="middle" x="59" y="-44" font-family="Helvetica,sans-Serif" font-size="10.00">TagsModel::loadPhotos</text>
</a>
</g>
</g>
<!-- Node1&#45;&gt;Node2 -->
<g id="edge1" class="edge">
<title>Node1&#45;&gt;Node2</title>
<path fill="none" stroke="#63b8ff" d="M142.4,-36.75C134.28,-37.71 126.13,-38.67 118.28,-39.6"/>
<polygon fill="#63b8ff" stroke="#63b8ff" points="142.81,-40.22 152.32,-35.57 141.98,-33.27 142.81,-40.22"/>
</g>
<!-- Node4 -->
<g id="node3" class="node">
<title>Node4</title>
<g id="a_node3"><a xlink:href="../../d0/d5d/class_tags_model.html#a77d02ed6d4923a65d20ef8bb3411e487" target="_top" xlink:title=" ">
<polygon fill="white" stroke="#666666" points="110.5,-19 7.5,-19 7.5,0 110.5,0 110.5,-19"/>
<text text-anchor="middle" x="59" y="-7" font-family="Helvetica,sans-Serif" font-size="10.00">TagsModel::setData</text>
</a>
</g>
</g>
<!-- Node1&#45;&gt;Node4 -->
<g id="edge2" class="edge">
<title>Node1&#45;&gt;Node4</title>
<path fill="none" stroke="#63b8ff" d="M142.55,-18.76C131.67,-17.54 120.74,-16.31 110.56,-15.17"/>
<polygon fill="#63b8ff" stroke="#63b8ff" points="142,-22.22 152.32,-19.85 142.78,-15.26 142,-22.22"/>
</g>
</g>
</svg>
