<?xml version="1.0" encoding="UTF-8" standalone="no"?>
<!DOCTYPE svg PUBLIC "-//W3C//DTD SVG 1.1//EN"
 "http://www.w3.org/Graphics/SVG/1.1/DTD/svg11.dtd">
<!-- Generated by graphviz version 12.2.0 (20241103.1931)
 -->
<!-- Title: TagsModel::setDataInternal Pages: 1 -->
<svg width="296pt" height="64pt"
 viewBox="0.00 0.00 295.75 64.25" xmlns="http://www.w3.org/2000/svg" xmlns:xlink="http://www.w3.org/1999/xlink">
<g id="graph0" class="graph" transform="scale(1 1) rotate(0) translate(4 60.25)">
<title>TagsModel::setDataInternal</title>
<!-- Node1 -->
<g id="Node000001" class="node">
<title>Node1</title>
<g id="a_Node000001"><a xlink:title=" ">
<polygon fill="#999999" stroke="#666666" points="287.75,-37.25 153.25,-37.25 153.25,-18 287.75,-18 287.75,-37.25"/>
<text text-anchor="middle" x="220.5" y="-23.75" font-family="Helvetica,sans-Serif" font-size="10.00">TagsModel::setDataInternal</text>
</a>
</g>
</g>
<!-- Node2 -->
<g id="Node000002" class="node">
<title>Node2</title>
<g id="a_Node000002"><a xlink:href="../../d0/d5d/class_tags_model.html#a005b3a8e153bcc5222505a189bcf95b5" target="_top" xlink:title=" ">
<polygon fill="#fff0f0" stroke="red" points="117.25,-56.25 0,-56.25 0,-37 117.25,-37 117.25,-56.25"/>
<text text-anchor="middle" x="58.62" y="-42.75" font-family="Helvetica,sans-Serif" font-size="10.00">TagsModel::loadPhotos</text>
</a>
</g>
</g>
<!-- Node1&#45;&gt;Node2 -->
<g id="edge1_Node000001_Node000002" class="edge">
<title>Node1&#45;&gt;Node2</title>
<g id="a_edge1_Node000001_Node000002"><a xlink:title=" ">
<path fill="none" stroke="#63b8ff" d="M141.7,-36.87C133.61,-37.83 125.5,-38.8 117.68,-39.73"/>
<polygon fill="#63b8ff" stroke="#63b8ff" points="142.07,-40.35 151.58,-35.7 141.24,-33.4 142.07,-40.35"/>
</a>
</g>
</g>
<!-- Node4 -->
<g id="Node000004" class="node">
<title>Node4</title>
<g id="a_Node000004"><a xlink:href="../../d0/d5d/class_tags_model.html#a77d02ed6d4923a65d20ef8bb3411e487" target="_top" xlink:title=" ">
<polygon fill="white" stroke="#666666" points="109.75,-19.25 7.5,-19.25 7.5,0 109.75,0 109.75,-19.25"/>
<text text-anchor="middle" x="58.62" y="-5.75" font-family="Helvetica,sans-Serif" font-size="10.00">TagsModel::setData</text>
</a>
</g>
</g>
<!-- Node1&#45;&gt;Node4 -->
<g id="edge2_Node000001_Node000004" class="edge">
<title>Node1&#45;&gt;Node4</title>
<g id="a_edge2_Node000001_Node000004"><a xlink:title=" ">
<path fill="none" stroke="#63b8ff" d="M141.85,-18.88C131.02,-17.66 120.13,-16.44 109.98,-15.29"/>
<polygon fill="#63b8ff" stroke="#63b8ff" points="141.25,-22.34 151.58,-19.98 142.04,-15.38 141.25,-22.34"/>
</a>
</g>
</g>
</g>
</svg>
