<?xml version="1.0" encoding="UTF-8" standalone="no"?>
<!DOCTYPE svg PUBLIC "-//W3C//DTD SVG 1.1//EN"
 "http://www.w3.org/Graphics/SVG/1.1/DTD/svg11.dtd">
<!-- Generated by graphviz version 9.0.0 (20230911.1827)
 -->
<!-- Title: TagsModel::setItemData Pages: 1 -->
<svg width="380pt" height="64pt"
 viewBox="0.00 0.00 380.00 64.25" xmlns="http://www.w3.org/2000/svg" xmlns:xlink="http://www.w3.org/1999/xlink">
<g id="graph0" class="graph" transform="scale(1 1) rotate(0) translate(4 60.25)">
<title>TagsModel::setItemData</title>
<!-- Node1 -->
<g id="Node000001" class="node">
<title>Node1</title>
<g id="a_Node000001"><a xlink:title=" ">
<polygon fill="#999999" stroke="#666666" points="121.75,-19.25 0,-19.25 0,0 121.75,0 121.75,-19.25"/>
<text text-anchor="middle" x="60.88" y="-5.75" font-family="Helvetica,sans-Serif" font-size="10.00">TagsModel::setItemData</text>
</a>
</g>
</g>
<!-- Node2 -->
<g id="Node000002" class="node">
<title>Node2</title>
<g id="a_Node000002"><a xlink:href="../../d0/d5d/class_tags_model.html#a2b328887b7b9b40f1b1966a0ad3216c8" target="_top" xlink:title=" ">
<polygon fill="white" stroke="#666666" points="245,-38.25 157.75,-38.25 157.75,-19 245,-19 245,-38.25"/>
<text text-anchor="middle" x="201.38" y="-24.75" font-family="Helvetica,sans-Serif" font-size="10.00">TagsModel::data</text>
</a>
</g>
</g>
<!-- Node1&#45;&gt;Node2 -->
<g id="edge1_Node000001_Node000002" class="edge">
<title>Node1&#45;&gt;Node2</title>
<g id="a_edge1_Node000001_Node000002"><a xlink:title=" ">
<path fill="none" stroke="#63b8ff" d="M122.22,-17.9C130.15,-18.99 138.25,-20.1 146.07,-21.18"/>
<polygon fill="#63b8ff" stroke="#63b8ff" points="145.41,-24.62 155.8,-22.51 146.37,-17.68 145.41,-24.62"/>
</a>
</g>
</g>
<!-- Node3 -->
<g id="Node000003" class="node">
<title>Node3</title>
<g id="a_Node000003"><a xlink:href="../../d0/d5d/class_tags_model.html#a5eb7447c0a00b696ff9b6395aea50ded" target="_top" xlink:title=" ">
<polygon fill="#fff0f0" stroke="red" points="372,-19.25 281,-19.25 281,0 372,0 372,-19.25"/>
<text text-anchor="middle" x="326.5" y="-5.75" font-family="Helvetica,sans-Serif" font-size="10.00">TagsModel::index</text>
</a>
</g>
</g>
<!-- Node1&#45;&gt;Node3 -->
<g id="edge4_Node000001_Node000003" class="edge">
<title>Node1&#45;&gt;Node3</title>
<g id="a_edge4_Node000001_Node000003"><a xlink:title=" ">
<path fill="none" stroke="#63b8ff" d="M122.03,-9.62C166.29,-9.62 226.05,-9.62 269.34,-9.62"/>
<polygon fill="#63b8ff" stroke="#63b8ff" points="269.3,-13.13 279.3,-9.63 269.3,-6.13 269.3,-13.13"/>
</a>
</g>
</g>
<!-- Node2&#45;&gt;Node2 -->
<g id="edge2_Node000002_Node000002" class="edge">
<title>Node2&#45;&gt;Node2</title>
<g id="a_edge2_Node000002_Node000002"><a xlink:title=" ">
<path fill="none" stroke="#63b8ff" d="M181.79,-38.54C172.85,-47.15 179.38,-56.25 201.38,-56.25 213.4,-56.25 220.81,-53.53 223.58,-49.65"/>
<polygon fill="#63b8ff" stroke="#63b8ff" points="227.01,-48.94 221.31,-40.01 220.2,-50.55 227.01,-48.94"/>
</a>
</g>
</g>
<!-- Node2&#45;&gt;Node3 -->
<g id="edge3_Node000002_Node000003" class="edge">
<title>Node2&#45;&gt;Node3</title>
<g id="a_edge3_Node000002_Node000003"><a xlink:title=" ">
<path fill="none" stroke="#63b8ff" d="M245.44,-21.98C253.17,-20.79 261.33,-19.53 269.36,-18.29"/>
<polygon fill="#63b8ff" stroke="#63b8ff" points="269.74,-21.77 279.09,-16.79 268.67,-14.85 269.74,-21.77"/>
</a>
</g>
</g>
</g>
</svg>
