<?xml version="1.0" encoding="UTF-8" standalone="no"?>
<!DOCTYPE svg PUBLIC "-//W3C//DTD SVG 1.1//EN"
 "http://www.w3.org/Graphics/SVG/1.1/DTD/svg11.dtd">
<!-- Generated by graphviz version 7.0.5 (20221223.1930)
 -->
<!-- Title: TagsModel::flags Pages: 1 -->
<svg width="225pt" height="45pt"
 viewBox="0.00 0.00 225.00 45.00" xmlns="http://www.w3.org/2000/svg" xmlns:xlink="http://www.w3.org/1999/xlink">
<g id="graph0" class="graph" transform="scale(1 1) rotate(0) translate(4 41)">
<title>TagsModel::flags</title>
<!-- Node1 -->
<g id="node1" class="node">
<title>Node1</title>
<g id="a_node1"><a xlink:title=" ">
<polygon fill="#999999" stroke="#666666" points="89,-19 0,-19 0,0 89,0 89,-19"/>
<text text-anchor="middle" x="44.5" y="-7" font-family="Helvetica,sans-Serif" font-size="10.00">TagsModel::flags</text>
</a>
</g>
</g>
<!-- Node1&#45;&gt;Node1 -->
<g id="edge1" class="edge">
<title>Node1&#45;&gt;Node1</title>
<path fill="none" stroke="#63b8ff" d="M24.7,-19.37C15.66,-27.94 22.26,-37 44.5,-37 56.66,-37 64.15,-34.29 66.95,-30.43"/>
<polygon fill="#63b8ff" stroke="#63b8ff" points="70.39,-29.75 64.66,-20.84 63.58,-31.38 70.39,-29.75"/>
</g>
<!-- Node2 -->
<g id="node2" class="node">
<title>Node2</title>
<g id="a_node2"><a xlink:href="../../d0/d5d/class_tags_model.html#a5eb7447c0a00b696ff9b6395aea50ded" target="_top" xlink:title=" ">
<polygon fill="#fff0f0" stroke="red" points="217,-19 125,-19 125,0 217,0 217,-19"/>
<text text-anchor="middle" x="171" y="-7" font-family="Helvetica,sans-Serif" font-size="10.00">TagsModel::index</text>
</a>
</g>
</g>
<!-- Node1&#45;&gt;Node2 -->
<g id="edge2" class="edge">
<title>Node1&#45;&gt;Node2</title>
<path fill="none" stroke="#63b8ff" d="M89.39,-9.5C97.2,-9.5 105.42,-9.5 113.52,-9.5"/>
<polygon fill="#63b8ff" stroke="#63b8ff" points="113.31,-13 123.31,-9.5 113.31,-6 113.31,-13"/>
</g>
</g>
</svg>
