<?xml version="1.0" encoding="UTF-8" standalone="no"?>
<!DOCTYPE svg PUBLIC "-//W3C//DTD SVG 1.1//EN"
 "http://www.w3.org/Graphics/SVG/1.1/DTD/svg11.dtd">
<!-- Generated by graphviz version 7.0.5 (20221223.1930)
 -->
<!-- Title: src/database/ibackend.hpp Pages: 1 -->
<svg width="2101pt" height="236pt"
 viewBox="0.00 0.00 2101.00 236.00" xmlns="http://www.w3.org/2000/svg" xmlns:xlink="http://www.w3.org/1999/xlink">
<g id="graph0" class="graph" transform="scale(1 1) rotate(0) translate(4 232)">
<title>src/database/ibackend.hpp</title>
<!-- Node1 -->
<g id="node1" class="node">
<title>Node1</title>
<g id="a_node1"><a xlink:title=" ">
<polygon fill="#999999" stroke="#666666" points="1359.5,-228 1226.5,-228 1226.5,-209 1359.5,-209 1359.5,-228"/>
<text text-anchor="middle" x="1293" y="-216" font-family="Helvetica,sans-Serif" font-size="10.00">src/database/ibackend.hpp</text>
</a>
</g>
</g>
<!-- Node2 -->
<g id="node2" class="node">
<title>Node2</title>
<g id="a_node2"><a xlink:href="../../d7/d86/memory__backend_8hpp.html" target="_top" xlink:title=" ">
<polygon fill="#fff0f0" stroke="red" points="134,-173 0,-173 0,-132 134,-132 134,-173"/>
<text text-anchor="start" x="8" y="-161" font-family="Helvetica,sans-Serif" font-size="10.00">src/database/backends</text>
<text text-anchor="start" x="8" y="-150" font-family="Helvetica,sans-Serif" font-size="10.00">/memory_backend/memory</text>
<text text-anchor="middle" x="67" y="-139" font-family="Helvetica,sans-Serif" font-size="10.00">_backend.hpp</text>
</a>
</g>
</g>
<!-- Node1&#45;&gt;Node2 -->
<g id="edge1" class="edge">
<title>Node1&#45;&gt;Node2</title>
<path fill="none" stroke="#63b8ff" d="M1214.98,-216.64C991.3,-213.83 350.57,-203.29 143,-173 140.17,-172.59 137.29,-172.11 134.39,-171.58"/>
<polygon fill="#63b8ff" stroke="#63b8ff" points="1214.71,-220.14 1224.75,-216.76 1214.79,-213.14 1214.71,-220.14"/>
</g>
<!-- Node21 -->
<g id="node3" class="node">
<title>Node21</title>
<g id="a_node3"><a xlink:href="../../d9/d0a/group__operator_8cpp.html" target="_top" xlink:title=" ">
<polygon fill="white" stroke="#666666" points="317.5,-167.5 152.5,-167.5 152.5,-137.5 317.5,-137.5 317.5,-167.5"/>
<text text-anchor="start" x="160.5" y="-155.5" font-family="Helvetica,sans-Serif" font-size="10.00">src/database/backends</text>
<text text-anchor="middle" x="235" y="-144.5" font-family="Helvetica,sans-Serif" font-size="10.00">/sql_backends/group_operator.cpp</text>
</a>
</g>
</g>
<!-- Node1&#45;&gt;Node21 -->
<g id="edge2" class="edge">
<title>Node1&#45;&gt;Node21</title>
<path fill="none" stroke="#63b8ff" d="M1214.65,-218.26C1049.58,-218.91 654.18,-215.42 326,-173 316.07,-171.72 305.6,-169.91 295.46,-167.91"/>
<polygon fill="#63b8ff" stroke="#63b8ff" points="1214.64,-221.76 1224.62,-218.22 1214.61,-214.76 1214.64,-221.76"/>
</g>
<!-- Node22 -->
<g id="node4" class="node">
<title>Node22</title>
<g id="a_node4"><a xlink:href="../../df/d09/photo__change__log__operator_8cpp.html" target="_top" xlink:title=" ">
<polygon fill="white" stroke="#666666" points="478.5,-173 335.5,-173 335.5,-132 478.5,-132 478.5,-173"/>
<text text-anchor="start" x="343.5" y="-161" font-family="Helvetica,sans-Serif" font-size="10.00">src/database/backends</text>
<text text-anchor="start" x="343.5" y="-150" font-family="Helvetica,sans-Serif" font-size="10.00">/sql_backends/photo_change</text>
<text text-anchor="middle" x="407" y="-139" font-family="Helvetica,sans-Serif" font-size="10.00">_log_operator.cpp</text>
</a>
</g>
</g>
<!-- Node1&#45;&gt;Node22 -->
<g id="edge3" class="edge">
<title>Node1&#45;&gt;Node22</title>
<path fill="none" stroke="#63b8ff" d="M1214.88,-217.94C1070.38,-217.7 751.89,-212.25 487,-173 484.31,-172.6 481.58,-172.16 478.84,-171.67"/>
<polygon fill="#63b8ff" stroke="#63b8ff" points="1214.72,-221.44 1224.72,-217.95 1214.73,-214.44 1214.72,-221.44"/>
</g>
<!-- Node23 -->
<g id="node5" class="node">
<title>Node23</title>
<g id="a_node5"><a xlink:href="../../db/d47/photo__operator_8cpp.html" target="_top" xlink:title=" ">
<polygon fill="white" stroke="#666666" points="661.5,-167.5 496.5,-167.5 496.5,-137.5 661.5,-137.5 661.5,-167.5"/>
<text text-anchor="start" x="504.5" y="-155.5" font-family="Helvetica,sans-Serif" font-size="10.00">src/database/backends</text>
<text text-anchor="middle" x="579" y="-144.5" font-family="Helvetica,sans-Serif" font-size="10.00">/sql_backends/photo_operator.cpp</text>
</a>
</g>
</g>
<!-- Node1&#45;&gt;Node23 -->
<g id="edge4" class="edge">
<title>Node1&#45;&gt;Node23</title>
<path fill="none" stroke="#63b8ff" d="M1214.85,-215.42C1096.46,-211.48 864.81,-200.69 670,-173 660.56,-171.66 650.64,-169.9 640.96,-167.99"/>
<polygon fill="#63b8ff" stroke="#63b8ff" points="1214.67,-218.92 1224.78,-215.74 1214.9,-211.92 1214.67,-218.92"/>
</g>
<!-- Node24 -->
<g id="node6" class="node">
<title>Node24</title>
<g id="a_node6"><a xlink:href="../../df/df4/sql__backend_8hpp.html" target="_top" xlink:title=" ">
<polygon fill="#fff0f0" stroke="red" points="834.5,-167.5 679.5,-167.5 679.5,-137.5 834.5,-137.5 834.5,-167.5"/>
<text text-anchor="start" x="687.5" y="-155.5" font-family="Helvetica,sans-Serif" font-size="10.00">src/database/backends</text>
<text text-anchor="middle" x="757" y="-144.5" font-family="Helvetica,sans-Serif" font-size="10.00">/sql_backends/sql_backend.hpp</text>
</a>
</g>
</g>
<!-- Node1&#45;&gt;Node24 -->
<g id="edge5" class="edge">
<title>Node1&#45;&gt;Node24</title>
<path fill="none" stroke="#63b8ff" d="M1214.85,-212.73C1124.8,-206.56 972.55,-194.01 843,-173 834.39,-171.6 825.34,-169.86 816.49,-168"/>
<polygon fill="#63b8ff" stroke="#63b8ff" points="1214.61,-216.22 1224.82,-213.41 1215.08,-209.24 1214.61,-216.22"/>
</g>
<!-- Node30 -->
<g id="node7" class="node">
<title>Node30</title>
<g id="a_node7"><a xlink:href="../../dd/d7c/common__backend__operations_8hpp.html" target="_top" xlink:title=" ">
<polygon fill="#fff0f0" stroke="red" points="977.5,-173 852.5,-173 852.5,-132 977.5,-132 977.5,-173"/>
<text text-anchor="start" x="860.5" y="-161" font-family="Helvetica,sans-Serif" font-size="10.00">src/database/database</text>
<text text-anchor="start" x="860.5" y="-150" font-family="Helvetica,sans-Serif" font-size="10.00">_tools/common_backend</text>
<text text-anchor="middle" x="915" y="-139" font-family="Helvetica,sans-Serif" font-size="10.00">_operations.hpp</text>
</a>
</g>
</g>
<!-- Node1&#45;&gt;Node30 -->
<g id="edge6" class="edge">
<title>Node1&#45;&gt;Node30</title>
<path fill="none" stroke="#63b8ff" d="M1214.77,-208.75C1152.67,-201.17 1063.83,-188.93 987,-173 983.96,-172.37 980.85,-171.68 977.72,-170.96"/>
<polygon fill="#63b8ff" stroke="#63b8ff" points="1214.19,-212.21 1224.54,-209.93 1215.03,-205.26 1214.19,-212.21"/>
</g>
<!-- Node31 -->
<g id="node8" class="node">
<title>Node31</title>
<g id="a_node8"><a xlink:href="../../d0/d1b/json__to__backend_8cpp.html" target="_top" xlink:title=" ">
<polygon fill="white" stroke="#666666" points="1112,-173 996,-173 996,-132 1112,-132 1112,-173"/>
<text text-anchor="start" x="1004" y="-161" font-family="Helvetica,sans-Serif" font-size="10.00">src/database/database</text>
<text text-anchor="start" x="1004" y="-150" font-family="Helvetica,sans-Serif" font-size="10.00">_tools/implementation</text>
<text text-anchor="middle" x="1054" y="-139" font-family="Helvetica,sans-Serif" font-size="10.00">/json_to_backend.cpp</text>
</a>
</g>
</g>
<!-- Node1&#45;&gt;Node31 -->
<g id="edge7" class="edge">
<title>Node1&#45;&gt;Node31</title>
<path fill="none" stroke="#63b8ff" d="M1246.27,-205.81C1211.62,-197.05 1163.27,-184.62 1121,-173 1118.2,-172.23 1115.33,-171.43 1112.44,-170.62"/>
<polygon fill="#63b8ff" stroke="#63b8ff" points="1244.99,-209.1 1255.54,-208.15 1246.7,-202.31 1244.99,-209.1"/>
</g>
<!-- Node32 -->
<g id="node9" class="node">
<title>Node32</title>
<g id="a_node9"><a xlink:href="../../de/d46/series__detector_8cpp.html" target="_top" xlink:title=" ">
<polygon fill="white" stroke="#666666" points="1246,-173 1130,-173 1130,-132 1246,-132 1246,-173"/>
<text text-anchor="start" x="1138" y="-161" font-family="Helvetica,sans-Serif" font-size="10.00">src/database/database</text>
<text text-anchor="start" x="1138" y="-150" font-family="Helvetica,sans-Serif" font-size="10.00">_tools/implementation</text>
<text text-anchor="middle" x="1188" y="-139" font-family="Helvetica,sans-Serif" font-size="10.00">/series_detector.cpp</text>
</a>
</g>
</g>
<!-- Node1&#45;&gt;Node32 -->
<g id="edge8" class="edge">
<title>Node1&#45;&gt;Node32</title>
<path fill="none" stroke="#63b8ff" d="M1268.78,-202.74C1254.48,-194.02 1236.18,-182.86 1220.61,-173.38"/>
<polygon fill="#63b8ff" stroke="#63b8ff" points="1266.75,-205.6 1277.11,-207.81 1270.39,-199.62 1266.75,-205.6"/>
</g>
<!-- Node33 -->
<g id="node10" class="node">
<title>Node33</title>
<g id="a_node10"><a xlink:href="../../d7/d2b/idatabase_8hpp.html" target="_top" xlink:title=" ">
<polygon fill="#fff0f0" stroke="red" points="1514,-162 1378,-162 1378,-143 1514,-143 1514,-162"/>
<text text-anchor="middle" x="1446" y="-150" font-family="Helvetica,sans-Serif" font-size="10.00">src/database/idatabase.hpp</text>
</a>
</g>
</g>
<!-- Node1&#45;&gt;Node33 -->
<g id="edge9" class="edge">
<title>Node1&#45;&gt;Node33</title>
<path fill="none" stroke="#63b8ff" d="M1324.63,-204.27C1354.66,-191.71 1398.96,-173.18 1424.91,-162.32"/>
<polygon fill="#63b8ff" stroke="#63b8ff" points="1323.55,-200.93 1315.67,-208.02 1326.25,-207.39 1323.55,-200.93"/>
</g>
<!-- Node84 -->
<g id="node11" class="node">
<title>Node84</title>
<g id="a_node11"><a xlink:href="../../d8/da1/async__database_8hpp.html" target="_top" xlink:title=" ">
<polygon fill="white" stroke="#666666" points="1280,-96 1138,-96 1138,-66 1280,-66 1280,-96"/>
<text text-anchor="start" x="1146" y="-84" font-family="Helvetica,sans-Serif" font-size="10.00">src/database/implementation</text>
<text text-anchor="middle" x="1209" y="-73" font-family="Helvetica,sans-Serif" font-size="10.00">/async_database.hpp</text>
</a>
</g>
</g>
<!-- Node1&#45;&gt;Node84 -->
<g id="edge18" class="edge">
<title>Node1&#45;&gt;Node84</title>
<path fill="none" stroke="#63b8ff" d="M1296.73,-197.44C1299.06,-179.1 1299.72,-151.89 1288,-132 1278.61,-116.06 1261.91,-104.4 1246.28,-96.37"/>
<polygon fill="#63b8ff" stroke="#63b8ff" points="1293.28,-196.83 1295.17,-207.26 1300.2,-197.93 1293.28,-196.83"/>
</g>
<!-- Node85 -->
<g id="node12" class="node">
<title>Node85</title>
<g id="a_node12"><a xlink:href="../../de/d97/async__database_8cpp.html" target="_top" xlink:title=" ">
<polygon fill="white" stroke="#666666" points="1231,-30 1089,-30 1089,0 1231,0 1231,-30"/>
<text text-anchor="start" x="1097" y="-18" font-family="Helvetica,sans-Serif" font-size="10.00">src/database/implementation</text>
<text text-anchor="middle" x="1160" y="-7" font-family="Helvetica,sans-Serif" font-size="10.00">/async_database.cpp</text>
</a>
</g>
</g>
<!-- Node1&#45;&gt;Node85 -->
<g id="edge17" class="edge">
<title>Node1&#45;&gt;Node85</title>
<path fill="none" stroke="#63b8ff" d="M1289.18,-197.33C1284.45,-177.87 1274.51,-148.96 1255,-132 1211.04,-93.8 1164.07,-142.5 1129,-96 1113.84,-75.9 1132.21,-47.48 1146.44,-30.48"/>
<polygon fill="#63b8ff" stroke="#63b8ff" points="1285.74,-198 1291.26,-207.04 1292.59,-196.53 1285.74,-198"/>
</g>
<!-- Node59 -->
<g id="node13" class="node">
<title>Node59</title>
<g id="a_node13"><a xlink:href="../../d6/da5/database__builder_8cpp.html" target="_top" xlink:title=" ">
<polygon fill="white" stroke="#666666" points="1517,-30 1375,-30 1375,0 1517,0 1517,-30"/>
<text text-anchor="start" x="1383" y="-18" font-family="Helvetica,sans-Serif" font-size="10.00">src/database/implementation</text>
<text text-anchor="middle" x="1446" y="-7" font-family="Helvetica,sans-Serif" font-size="10.00">/database_builder.cpp</text>
</a>
</g>
</g>
<!-- Node1&#45;&gt;Node59 -->
<g id="edge19" class="edge">
<title>Node1&#45;&gt;Node59</title>
<path fill="none" stroke="#63b8ff" d="M1371.26,-213.04C1431.52,-207.86 1516.19,-196.75 1587,-173 1655.07,-150.17 1692.28,-157.69 1729,-96 1735.82,-84.54 1737.57,-76.22 1729,-66 1702.51,-34.42 1592.3,-22.77 1517.49,-18.49"/>
<polygon fill="#63b8ff" stroke="#63b8ff" points="1371.12,-209.54 1361.44,-213.85 1371.69,-216.52 1371.12,-209.54"/>
</g>
<!-- Node87 -->
<g id="node14" class="node">
<title>Node87</title>
<g id="a_node14"><a xlink:href="../../d9/d4f/database_tests_8cpp.html" target="_top" xlink:title=" ">
<polygon fill="white" stroke="#666666" points="1417.5,-96 1298.5,-96 1298.5,-66 1417.5,-66 1417.5,-96"/>
<text text-anchor="start" x="1306.5" y="-84" font-family="Helvetica,sans-Serif" font-size="10.00">src/database/unit_tests</text>
<text text-anchor="middle" x="1358" y="-73" font-family="Helvetica,sans-Serif" font-size="10.00">/databaseTests.cpp</text>
</a>
</g>
</g>
<!-- Node1&#45;&gt;Node87 -->
<g id="edge20" class="edge">
<title>Node1&#45;&gt;Node87</title>
<path fill="none" stroke="#63b8ff" d="M1308.17,-199.64C1314.29,-191.82 1321.05,-182.32 1326,-173 1339.59,-147.41 1349.42,-114.85 1354.37,-96.42"/>
<polygon fill="#63b8ff" stroke="#63b8ff" points="1305.51,-197.36 1301.91,-207.33 1310.94,-201.78 1305.51,-197.36"/>
</g>
<!-- Node88 -->
<g id="node15" class="node">
<title>Node88</title>
<g id="a_node15"><a xlink:href="../../da/dec/face__recognition_8cpp.html" target="_top" xlink:title=" ">
<polygon fill="white" stroke="#666666" points="1583.5,-96 1474.5,-96 1474.5,-66 1583.5,-66 1583.5,-96"/>
<text text-anchor="start" x="1482.5" y="-84" font-family="Helvetica,sans-Serif" font-size="10.00">src/face_recognition</text>
<text text-anchor="middle" x="1529" y="-73" font-family="Helvetica,sans-Serif" font-size="10.00">/face_recognition.cpp</text>
</a>
</g>
</g>
<!-- Node1&#45;&gt;Node88 -->
<g id="edge22" class="edge">
<title>Node1&#45;&gt;Node88</title>
<path fill="none" stroke="#63b8ff" d="M1370.96,-212.44C1429.6,-206.88 1503.13,-195.53 1523,-173 1541.64,-151.86 1537.26,-116.13 1532.86,-96.31"/>
<polygon fill="#63b8ff" stroke="#63b8ff" points="1370.98,-208.93 1361.33,-213.31 1371.61,-215.9 1370.98,-208.93"/>
</g>
<!-- Node92 -->
<g id="node16" class="node">
<title>Node92</title>
<g id="a_node16"><a xlink:href="../../da/dff/flat__model_8cpp.html" target="_top" xlink:title=" ">
<polygon fill="white" stroke="#666666" points="1720,-96 1602,-96 1602,-66 1720,-66 1720,-96"/>
<text text-anchor="start" x="1610" y="-84" font-family="Helvetica,sans-Serif" font-size="10.00">src/gui/desktop/models</text>
<text text-anchor="middle" x="1661" y="-73" font-family="Helvetica,sans-Serif" font-size="10.00">/flat_model.cpp</text>
</a>
</g>
</g>
<!-- Node1&#45;&gt;Node92 -->
<g id="edge23" class="edge">
<title>Node1&#45;&gt;Node92</title>
<path fill="none" stroke="#63b8ff" d="M1370.98,-213.24C1421.76,-208.18 1488.47,-197.13 1543,-173 1585.58,-154.16 1626.62,-116.82 1647.23,-96.32"/>
<polygon fill="#63b8ff" stroke="#63b8ff" points="1370.88,-209.74 1361.25,-214.15 1371.53,-216.71 1370.88,-209.74"/>
</g>
<!-- Node110 -->
<g id="node17" class="node">
<title>Node110</title>
<g id="a_node17"><a xlink:href="../../d2/da8/db__error__tests_8cpp.html" target="_top" xlink:title=" ">
<polygon fill="white" stroke="#666666" points="1830.5,-167.5 1711.5,-167.5 1711.5,-137.5 1830.5,-137.5 1830.5,-167.5"/>
<text text-anchor="start" x="1719.5" y="-155.5" font-family="Helvetica,sans-Serif" font-size="10.00">src/database/unit_tests</text>
<text text-anchor="middle" x="1771" y="-144.5" font-family="Helvetica,sans-Serif" font-size="10.00">/db_error_tests.cpp</text>
</a>
</g>
</g>
<!-- Node1&#45;&gt;Node110 -->
<g id="edge21" class="edge">
<title>Node1&#45;&gt;Node110</title>
<path fill="none" stroke="#63b8ff" d="M1371.37,-212.32C1453.14,-206.11 1584.8,-193.84 1697,-173 1704.58,-171.59 1712.52,-169.82 1720.27,-167.92"/>
<polygon fill="#63b8ff" stroke="#63b8ff" points="1371.15,-208.83 1361.44,-213.06 1371.67,-215.81 1371.15,-208.83"/>
</g>
<!-- Node38 -->
<g id="node18" class="node">
<title>Node38</title>
<g id="a_node18"><a xlink:href="../../da/d67/people__manipulator_8cpp.html" target="_top" xlink:title=" ">
<polygon fill="white" stroke="#666666" points="1971,-167.5 1849,-167.5 1849,-137.5 1971,-137.5 1971,-167.5"/>
<text text-anchor="start" x="1857" y="-155.5" font-family="Helvetica,sans-Serif" font-size="10.00">src/gui/desktop/utils</text>
<text text-anchor="middle" x="1910" y="-144.5" font-family="Helvetica,sans-Serif" font-size="10.00">/people_manipulator.cpp</text>
</a>
</g>
</g>
<!-- Node1&#45;&gt;Node38 -->
<g id="edge24" class="edge">
<title>Node1&#45;&gt;Node38</title>
<path fill="none" stroke="#63b8ff" d="M1370.91,-215.82C1477.55,-212.47 1674.61,-202.49 1840,-173 1847.45,-171.67 1855.26,-169.89 1862.84,-167.95"/>
<polygon fill="#63b8ff" stroke="#63b8ff" points="1371.02,-212.32 1361.13,-216.12 1371.23,-219.31 1371.02,-212.32"/>
</g>
<!-- Node111 -->
<g id="node19" class="node">
<title>Node111</title>
<g id="a_node19"><a xlink:href="../../d4/dbd/mock__backend_8hpp.html" target="_top" xlink:title=" ">
<polygon fill="#fff0f0" stroke="red" points="2093,-167.5 1989,-167.5 1989,-137.5 2093,-137.5 2093,-167.5"/>
<text text-anchor="start" x="1997" y="-155.5" font-family="Helvetica,sans-Serif" font-size="10.00">src/unit_tests_utils</text>
<text text-anchor="middle" x="2041" y="-144.5" font-family="Helvetica,sans-Serif" font-size="10.00">/mock_backend.hpp</text>
</a>
</g>
</g>
<!-- Node1&#45;&gt;Node111 -->
<g id="edge25" class="edge">
<title>Node1&#45;&gt;Node111</title>
<path fill="none" stroke="#63b8ff" d="M1371.07,-214.85C1525.57,-209.2 1865.29,-194.71 1980,-173 1986.77,-171.72 1993.84,-169.91 2000.67,-167.91"/>
<polygon fill="#63b8ff" stroke="#63b8ff" points="1371.2,-211.34 1361.34,-215.2 1371.46,-218.33 1371.2,-211.34"/>
</g>
<!-- Node33&#45;&gt;Node84 -->
<g id="edge10" class="edge">
<title>Node33&#45;&gt;Node84</title>
<path fill="none" stroke="#63b8ff" d="M1404.61,-139.36C1363.88,-127.42 1301.64,-109.17 1258.35,-96.47"/>
<polygon fill="#63b8ff" stroke="#63b8ff" points="1403.47,-142.67 1414.05,-142.13 1405.44,-135.96 1403.47,-142.67"/>
</g>
<!-- Node33&#45;&gt;Node59 -->
<g id="edge13" class="edge">
<title>Node33&#45;&gt;Node59</title>
<path fill="none" stroke="#63b8ff" d="M1446,-131.22C1446,-103.47 1446,-54.38 1446,-30.23"/>
<polygon fill="#63b8ff" stroke="#63b8ff" points="1442.5,-131.1 1446,-141.1 1449.5,-131.1 1442.5,-131.1"/>
</g>
<!-- Node33&#45;&gt;Node87 -->
<g id="edge14" class="edge">
<title>Node33&#45;&gt;Node87</title>
<path fill="none" stroke="#63b8ff" d="M1425.88,-135.61C1410.88,-123.76 1390.56,-107.72 1376.07,-96.27"/>
<polygon fill="#63b8ff" stroke="#63b8ff" points="1423.65,-138.31 1433.67,-141.76 1427.99,-132.82 1423.65,-138.31"/>
</g>
<!-- Node33&#45;&gt;Node88 -->
<g id="edge15" class="edge">
<title>Node33&#45;&gt;Node88</title>
<path fill="none" stroke="#63b8ff" d="M1464.98,-135.61C1479.13,-123.76 1498.29,-107.72 1511.95,-96.27"/>
<polygon fill="#63b8ff" stroke="#63b8ff" points="1463.09,-132.62 1457.67,-141.73 1467.59,-137.99 1463.09,-132.62"/>
</g>
<!-- Node33&#45;&gt;Node92 -->
<g id="edge16" class="edge">
<title>Node33&#45;&gt;Node92</title>
<path fill="none" stroke="#63b8ff" d="M1484.5,-139.06C1521.46,-127.11 1577.29,-109.06 1616.23,-96.47"/>
<polygon fill="#63b8ff" stroke="#63b8ff" points="1483.55,-135.68 1475.11,-142.09 1485.7,-142.35 1483.55,-135.68"/>
</g>
<!-- Node84&#45;&gt;Node85 -->
<g id="edge11" class="edge">
<title>Node84&#45;&gt;Node85</title>
<path fill="none" stroke="#63b8ff" d="M1191.14,-56.68C1184.34,-47.79 1176.8,-37.95 1170.84,-30.16"/>
<polygon fill="#63b8ff" stroke="#63b8ff" points="1188.35,-58.78 1197.21,-64.59 1193.91,-54.53 1188.35,-58.78"/>
</g>
<!-- Node84&#45;&gt;Node59 -->
<g id="edge12" class="edge">
<title>Node84&#45;&gt;Node59</title>
<path fill="none" stroke="#63b8ff" d="M1273.28,-62.64C1310.71,-52.53 1357.34,-39.94 1392.71,-30.39"/>
<polygon fill="#63b8ff" stroke="#63b8ff" points="1272.69,-59.18 1263.94,-65.16 1274.51,-65.93 1272.69,-59.18"/>
</g>
</g>
</svg>
