<?xml version="1.0" encoding="UTF-8" standalone="no"?>
<!DOCTYPE svg PUBLIC "-//W3C//DTD SVG 1.1//EN"
 "http://www.w3.org/Graphics/SVG/1.1/DTD/svg11.dtd">
<!-- Generated by graphviz version 12.2.0 (20241103.1931)
 -->
<!-- Title: src/database/ibackend.hpp Pages: 1 -->
<!--zoomable 238 -->

<svg id="main" version="1.1" xmlns="http://www.w3.org/2000/svg" xmlns:xlink="http://www.w3.org/1999/xlink" xml:space="preserve" onload="init(evt)">

<style type="text/css"><![CDATA[
.node, .edge {opacity: 0.7;}
.node.selected, .edge.selected {opacity: 1;}
.edge:hover path { stroke: red; }
.edge:hover polygon { stroke: red; fill: red; }
]]></style>

<defs>
  <circle id="rim" cx="0" cy="0" r="7"/>
  <circle id="rim2" cx="0" cy="0" r="3.5"/>
  <g id="zoomPlus">
    <use xlink:href="#rim" fill="#404040"><set attributeName="fill" to="#808080" begin="zoomplus.mouseover" end="zoomplus.mouseout"/></use>
    <path d="M-4,0h8M0,-4v8" fill="none" stroke="white" stroke-width="1.5" pointer-events="none"/>
  </g>
  <g id="zoomMin">
    <use xlink:href="#rim" fill="#404040"><set attributeName="fill" to="#808080" begin="zoomminus.mouseover" end="zoomminus.mouseout"/></use>
    <path d="M-4,0h8" fill="none" stroke="white" stroke-width="1.5" pointer-events="none"/>
  </g>
  <g id="arrowUp" transform="translate(30 24)">
    <use xlink:href="#rim"/>
    <path pointer-events="none" fill="none" stroke="white" stroke-width="1.5" d="M0,-3.0v7 M-2.5,-0.5L0,-3.0L2.5,-0.5"/>
  </g>
  <g id="arrowRight" transform="rotate(90) translate(36 -43)">
    <use xlink:href="#rim"/>
    <path pointer-events="none" fill="none" stroke="white" stroke-width="1.5" d="M0,-3.0v7 M-2.5,-0.5L0,-3.0L2.5,-0.5"/>
  </g>
  <g id="arrowDown" transform="rotate(180) translate(-30 -48)">
    <use xlink:href="#rim"/>
    <path pointer-events="none" fill="none" stroke="white" stroke-width="1.5" d="M0,-3.0v7 M-2.5,-0.5L0,-3.0L2.5,-0.5"/>
  </g>
  <g id="arrowLeft" transform="rotate(270) translate(-36 17)">
    <use xlink:href="#rim"/>
    <path pointer-events="none" fill="none" stroke="white" stroke-width="1.5" d="M0,-3.0v7 M-2.5,-0.5L0,-3.0L2.5,-0.5"/>
  </g>
  <g id="resetDef">
    <use xlink:href="#rim2" fill="#404040"><set attributeName="fill" to="#808080" begin="reset.mouseover" end="reset.mouseout"/></use>
  </g>
</defs>
<script type="application/ecmascript">
var viewWidth = 2129;
var viewHeight = 238;
var sectionId = 'dynsection-1';
</script>
<script type="application/ecmascript" xlink:href="../../svg.min.js"/>
<svg id="graph" class="graph">
<g id="viewport">
<title>src/database/ibackend.hpp</title>
<!-- Node1 -->
<g id="Node000001" class="node">
<title>Node1</title>
<g id="a_Node000001"><a xlink:title=" ">
<polygon fill="#999999" stroke="#666666" points="1424.12,-230 1291.88,-230 1291.88,-210.75 1424.12,-210.75 1424.12,-230"/>
<text text-anchor="middle" x="1358" y="-216.5" font-family="Helvetica,sans-Serif" font-size="10.00">src/database/ibackend.hpp</text>
</a>
</g>
</g>
<!-- Node2 -->
<g id="Node000002" class="node">
<title>Node2</title>
<g id="a_Node000002"><a xlink:href="../../db/d92/backend__utils_8hpp.html" target="_top" xlink:title=" ">
<polygon fill="#fff0f0" stroke="red" points="112,-169.12 0,-169.12 0,-138.62 112,-138.62 112,-169.12"/>
<text text-anchor="start" x="8" y="-155.62" font-family="Helvetica,sans-Serif" font-size="10.00">src/database/backend</text>
<text text-anchor="middle" x="56" y="-144.38" font-family="Helvetica,sans-Serif" font-size="10.00">_utils.hpp</text>
</a>
</g>
</g>
<!-- Node1&#45;&gt;Node2 -->
<g id="edge1_Node000001_Node000002" class="edge">
<title>Node1&#45;&gt;Node2</title>
<g id="a_edge1_Node000001_Node000002"><a xlink:title=" ">
<path fill="none" stroke="#63b8ff" d="M1280.18,-219.21C1045.22,-218.31 345.43,-212.44 121,-174.75 113.55,-173.5 105.77,-171.63 98.28,-169.53"/>
<polygon fill="#63b8ff" stroke="#63b8ff" points="1280.15,-222.71 1290.16,-219.25 1280.17,-215.71 1280.15,-222.71"/>
</a>
</g>
</g>
<!-- Node4 -->
<g id="Node000004" class="node">
<title>Node4</title>
<g id="a_Node000004"><a xlink:href="../../d7/d86/memory__backend_8hpp.html" target="_top" xlink:title=" ">
<polygon fill="#fff0f0" stroke="red" points="263.5,-174.75 130.5,-174.75 130.5,-133 263.5,-133 263.5,-174.75"/>
<text text-anchor="start" x="138.5" y="-161.25" font-family="Helvetica,sans-Serif" font-size="10.00">src/database/backends</text>
<text text-anchor="start" x="138.5" y="-150" font-family="Helvetica,sans-Serif" font-size="10.00">/memory_backend/memory</text>
<text text-anchor="middle" x="197" y="-138.75" font-family="Helvetica,sans-Serif" font-size="10.00">_backend.hpp</text>
</a>
</g>
</g>
<!-- Node1&#45;&gt;Node4 -->
<g id="edge2_Node000001_Node000004" class="edge">
<title>Node1&#45;&gt;Node4</title>
<g id="a_edge2_Node000001_Node000004"><a xlink:title=" ">
<path fill="none" stroke="#63b8ff" d="M1279.99,-218.34C1065.07,-215.14 467.41,-203.82 273,-174.75 270.03,-174.31 267.01,-173.79 263.97,-173.22"/>
<polygon fill="#63b8ff" stroke="#63b8ff" points="1279.9,-221.84 1289.95,-218.49 1280,-214.84 1279.9,-221.84"/>
</a>
</g>
</g>
<!-- Node23 -->
<g id="Node000023" class="node">
<title>Node23</title>
<g id="a_Node000023"><a xlink:href="../../d9/d0a/group__operator_8cpp.html" target="_top" xlink:title=" ">
<polygon fill="white" stroke="#666666" points="446.25,-169.12 281.75,-169.12 281.75,-138.62 446.25,-138.62 446.25,-169.12"/>
<text text-anchor="start" x="289.75" y="-155.62" font-family="Helvetica,sans-Serif" font-size="10.00">src/database/backends</text>
<text text-anchor="middle" x="364" y="-144.38" font-family="Helvetica,sans-Serif" font-size="10.00">/sql_backends/group_operator.cpp</text>
</a>
</g>
</g>
<!-- Node1&#45;&gt;Node23 -->
<g id="edge3_Node000001_Node000023" class="edge">
<title>Node1&#45;&gt;Node23</title>
<g id="a_edge3_Node000001_Node000023"><a xlink:title=" ">
<path fill="none" stroke="#63b8ff" d="M1280.09,-219.79C1123.33,-219.68 758.92,-214.69 456,-174.75 445.96,-173.43 435.38,-171.58 425.12,-169.54"/>
<polygon fill="#63b8ff" stroke="#63b8ff" points="1279.95,-223.29 1289.95,-219.79 1279.95,-216.29 1279.95,-223.29"/>
</a>
</g>
</g>
<!-- Node24 -->
<g id="Node000024" class="node">
<title>Node24</title>
<g id="a_Node000024"><a xlink:href="../../df/d09/photo__change__log__operator_8cpp.html" target="_top" xlink:title=" ">
<polygon fill="white" stroke="#666666" points="607.38,-174.75 464.62,-174.75 464.62,-133 607.38,-133 607.38,-174.75"/>
<text text-anchor="start" x="472.62" y="-161.25" font-family="Helvetica,sans-Serif" font-size="10.00">src/database/backends</text>
<text text-anchor="start" x="472.62" y="-150" font-family="Helvetica,sans-Serif" font-size="10.00">/sql_backends/photo_change</text>
<text text-anchor="middle" x="536" y="-138.75" font-family="Helvetica,sans-Serif" font-size="10.00">_log_operator.cpp</text>
</a>
</g>
</g>
<!-- Node1&#45;&gt;Node24 -->
<g id="edge4_Node000001_Node000024" class="edge">
<title>Node1&#45;&gt;Node24</title>
<g id="a_edge4_Node000001_Node000024"><a xlink:title=" ">
<path fill="none" stroke="#63b8ff" d="M1279.94,-219.29C1144.32,-218.11 856.74,-211.08 617,-174.75 613.99,-174.29 610.94,-173.78 607.85,-173.22"/>
<polygon fill="#63b8ff" stroke="#63b8ff" points="1279.87,-222.79 1289.89,-219.36 1279.92,-215.79 1279.87,-222.79"/>
</a>
</g>
</g>
<!-- Node25 -->
<g id="Node000025" class="node">
<title>Node25</title>
<g id="a_Node000025"><a xlink:href="../../db/d47/photo__operator_8cpp.html" target="_top" xlink:title=" ">
<polygon fill="white" stroke="#666666" points="790.25,-169.12 625.75,-169.12 625.75,-138.62 790.25,-138.62 790.25,-169.12"/>
<text text-anchor="start" x="633.75" y="-155.62" font-family="Helvetica,sans-Serif" font-size="10.00">src/database/backends</text>
<text text-anchor="middle" x="708" y="-144.38" font-family="Helvetica,sans-Serif" font-size="10.00">/sql_backends/photo_operator.cpp</text>
</a>
</g>
</g>
<!-- Node1&#45;&gt;Node25 -->
<g id="edge5_Node000001_Node000025" class="edge">
<title>Node1&#45;&gt;Node25</title>
<g id="a_edge5_Node000001_Node000025"><a xlink:title=" ">
<path fill="none" stroke="#63b8ff" d="M1280.09,-216.42C1171.89,-211.56 970.23,-199.83 800,-174.75 790.46,-173.34 780.43,-171.53 770.65,-169.57"/>
<polygon fill="#63b8ff" stroke="#63b8ff" points="1279.88,-219.91 1290.03,-216.85 1280.19,-212.92 1279.88,-219.91"/>
</a>
</g>
</g>
<!-- Node26 -->
<g id="Node000026" class="node">
<title>Node26</title>
<g id="a_Node000026"><a xlink:href="../../df/df4/sql__backend_8hpp.html" target="_top" xlink:title=" ">
<polygon fill="#fff0f0" stroke="red" points="963.38,-169.12 808.62,-169.12 808.62,-138.62 963.38,-138.62 963.38,-169.12"/>
<text text-anchor="start" x="816.62" y="-155.62" font-family="Helvetica,sans-Serif" font-size="10.00">src/database/backends</text>
<text text-anchor="middle" x="886" y="-144.38" font-family="Helvetica,sans-Serif" font-size="10.00">/sql_backends/sql_backend.hpp</text>
</a>
</g>
</g>
<!-- Node1&#45;&gt;Node26 -->
<g id="edge6_Node000001_Node000026" class="edge">
<title>Node1&#45;&gt;Node26</title>
<g id="a_edge6_Node000001_Node000026"><a xlink:title=" ">
<path fill="none" stroke="#63b8ff" d="M1280.43,-212.89C1202.43,-205.79 1078.88,-192.92 973,-174.75 964.3,-173.26 955.16,-171.44 946.2,-169.52"/>
<polygon fill="#63b8ff" stroke="#63b8ff" points="1279.82,-216.35 1290.1,-213.76 1280.45,-209.38 1279.82,-216.35"/>
</a>
</g>
</g>
<!-- Node33 -->
<g id="Node000033" class="node">
<title>Node33</title>
<g id="a_Node000033"><a xlink:href="../../dd/d7c/common__backend__operations_8hpp.html" target="_top" xlink:title=" ">
<polygon fill="#fff0f0" stroke="red" points="1106.38,-174.75 981.62,-174.75 981.62,-133 1106.38,-133 1106.38,-174.75"/>
<text text-anchor="start" x="989.62" y="-161.25" font-family="Helvetica,sans-Serif" font-size="10.00">src/database/database</text>
<text text-anchor="start" x="989.62" y="-150" font-family="Helvetica,sans-Serif" font-size="10.00">_tools/common_backend</text>
<text text-anchor="middle" x="1044" y="-138.75" font-family="Helvetica,sans-Serif" font-size="10.00">_operations.hpp</text>
</a>
</g>
</g>
<!-- Node1&#45;&gt;Node33 -->
<g id="edge7_Node000001_Node000033" class="edge">
<title>Node1&#45;&gt;Node33</title>
<g id="a_edge7_Node000001_Node000033"><a xlink:title=" ">
<path fill="none" stroke="#63b8ff" d="M1289.66,-208.4C1241,-200.2 1174.21,-188.12 1116,-174.75 1112.97,-174.05 1109.87,-173.31 1106.75,-172.54"/>
<polygon fill="#63b8ff" stroke="#63b8ff" points="1289.06,-211.85 1299.5,-210.05 1290.22,-204.95 1289.06,-211.85"/>
</a>
</g>
</g>
<!-- Node34 -->
<g id="Node000034" class="node">
<title>Node34</title>
<g id="a_Node000034"><a xlink:href="../../d0/d1b/json__to__backend_8cpp.html" target="_top" xlink:title=" ">
<polygon fill="white" stroke="#666666" points="1239.5,-174.75 1124.5,-174.75 1124.5,-133 1239.5,-133 1239.5,-174.75"/>
<text text-anchor="start" x="1132.5" y="-161.25" font-family="Helvetica,sans-Serif" font-size="10.00">src/database/database</text>
<text text-anchor="start" x="1132.5" y="-150" font-family="Helvetica,sans-Serif" font-size="10.00">_tools/implementation</text>
<text text-anchor="middle" x="1182" y="-138.75" font-family="Helvetica,sans-Serif" font-size="10.00">/json_to_backend.cpp</text>
</a>
</g>
</g>
<!-- Node1&#45;&gt;Node34 -->
<g id="edge8_Node000001_Node000034" class="edge">
<title>Node1&#45;&gt;Node34</title>
<g id="a_edge8_Node000001_Node000034"><a xlink:title=" ">
<path fill="none" stroke="#63b8ff" d="M1322.61,-206.4C1298.24,-197.47 1265.37,-185.43 1237.53,-175.23"/>
<polygon fill="#63b8ff" stroke="#63b8ff" points="1321.14,-209.59 1331.74,-209.75 1323.55,-203.02 1321.14,-209.59"/>
</a>
</g>
</g>
<!-- Node35 -->
<g id="Node000035" class="node">
<title>Node35</title>
<g id="a_Node000035"><a xlink:href="../../de/d46/series__detector_8cpp.html" target="_top" xlink:title=" ">
<polygon fill="white" stroke="#666666" points="1372.5,-174.75 1257.5,-174.75 1257.5,-133 1372.5,-133 1372.5,-174.75"/>
<text text-anchor="start" x="1265.5" y="-161.25" font-family="Helvetica,sans-Serif" font-size="10.00">src/database/database</text>
<text text-anchor="start" x="1265.5" y="-150" font-family="Helvetica,sans-Serif" font-size="10.00">_tools/implementation</text>
<text text-anchor="middle" x="1315" y="-138.75" font-family="Helvetica,sans-Serif" font-size="10.00">/series_detector.cpp</text>
</a>
</g>
</g>
<!-- Node1&#45;&gt;Node35 -->
<g id="edge9_Node000001_Node000035" class="edge">
<title>Node1&#45;&gt;Node35</title>
<g id="a_edge9_Node000001_Node000035"><a xlink:title=" ">
<path fill="none" stroke="#63b8ff" d="M1345.66,-200.87C1340.31,-192.84 1334.02,-183.4 1328.54,-175.18"/>
<polygon fill="#63b8ff" stroke="#63b8ff" points="1342.72,-202.77 1351.18,-209.15 1348.55,-198.89 1342.72,-202.77"/>
</a>
</g>
</g>
<!-- Node36 -->
<g id="Node000036" class="node">
<title>Node36</title>
<g id="a_Node000036"><a xlink:href="../../d7/d2b/idatabase_8hpp.html" target="_top" xlink:title=" ">
<polygon fill="#fff0f0" stroke="red" points="1640.62,-163.5 1505.38,-163.5 1505.38,-144.25 1640.62,-144.25 1640.62,-163.5"/>
<text text-anchor="middle" x="1573" y="-150" font-family="Helvetica,sans-Serif" font-size="10.00">src/database/idatabase.hpp</text>
</a>
</g>
</g>
<!-- Node1&#45;&gt;Node36 -->
<g id="edge10_Node000001_Node000036" class="edge">
<title>Node1&#45;&gt;Node36</title>
<g id="a_edge10_Node000001_Node000036"><a xlink:title=" ">
<path fill="none" stroke="#63b8ff" d="M1399.3,-206.98C1441.29,-194.39 1505.34,-175.17 1542.81,-163.93"/>
<polygon fill="#63b8ff" stroke="#63b8ff" points="1398.37,-203.61 1389.8,-209.84 1400.38,-210.31 1398.37,-203.61"/>
</a>
</g>
</g>
<!-- Node93 -->
<g id="Node000093" class="node">
<title>Node93</title>
<g id="a_Node000093"><a xlink:href="../../d8/da1/async__database_8hpp.html" target="_top" xlink:title=" ">
<polygon fill="white" stroke="#666666" points="1427.62,-97 1286.38,-97 1286.38,-66.5 1427.62,-66.5 1427.62,-97"/>
<text text-anchor="start" x="1294.38" y="-83.5" font-family="Helvetica,sans-Serif" font-size="10.00">src/database/implementation</text>
<text text-anchor="middle" x="1357" y="-72.25" font-family="Helvetica,sans-Serif" font-size="10.00">/async_database.hpp</text>
</a>
</g>
</g>
<!-- Node1&#45;&gt;Node93 -->
<g id="edge18_Node000001_Node000093" class="edge">
<title>Node1&#45;&gt;Node93</title>
<g id="a_edge18_Node000001_Node000093"><a xlink:title=" ">
<path fill="none" stroke="#63b8ff" d="M1386.95,-204.26C1397.83,-196.93 1409.02,-187.03 1415,-174.75 1423.13,-158.07 1422.71,-149.88 1415,-133 1408.25,-118.22 1394.76,-106.11 1382.49,-97.49"/>
<polygon fill="#63b8ff" stroke="#63b8ff" points="1385.17,-201.24 1378.48,-209.46 1388.83,-207.21 1385.17,-201.24"/>
</a>
</g>
</g>
<!-- Node94 -->
<g id="Node000094" class="node">
<title>Node94</title>
<g id="a_Node000094"><a xlink:href="../../de/d97/async__database_8cpp.html" target="_top" xlink:title=" ">
<polygon fill="white" stroke="#666666" points="1378.62,-30.5 1237.38,-30.5 1237.38,0 1378.62,0 1378.62,-30.5"/>
<text text-anchor="start" x="1245.38" y="-17" font-family="Helvetica,sans-Serif" font-size="10.00">src/database/implementation</text>
<text text-anchor="middle" x="1308" y="-5.75" font-family="Helvetica,sans-Serif" font-size="10.00">/async_database.cpp</text>
</a>
</g>
</g>
<!-- Node1&#45;&gt;Node94 -->
<g id="edge17_Node000001_Node000094" class="edge">
<title>Node1&#45;&gt;Node94</title>
<g id="a_edge17_Node000001_Node000094"><a xlink:title=" ">
<path fill="none" stroke="#63b8ff" d="M1371.42,-201.03C1383.28,-182.39 1396.59,-153.42 1382,-133 1353.33,-92.86 1305.67,-137.14 1277,-97 1262.25,-76.35 1280.48,-47.77 1294.58,-30.73"/>
<polygon fill="#63b8ff" stroke="#63b8ff" points="1368.6,-198.95 1365.86,-209.19 1374.39,-202.9 1368.6,-198.95"/>
</a>
</g>
</g>
<!-- Node68 -->
<g id="Node000068" class="node">
<title>Node68</title>
<g id="a_Node000068"><a xlink:href="../../d6/da5/database__builder_8cpp.html" target="_top" xlink:title=" ">
<polygon fill="white" stroke="#666666" points="1652.62,-30.5 1511.38,-30.5 1511.38,0 1652.62,0 1652.62,-30.5"/>
<text text-anchor="start" x="1519.38" y="-17" font-family="Helvetica,sans-Serif" font-size="10.00">src/database/implementation</text>
<text text-anchor="middle" x="1582" y="-5.75" font-family="Helvetica,sans-Serif" font-size="10.00">/database_builder.cpp</text>
</a>
</g>
</g>
<!-- Node1&#45;&gt;Node68 -->
<g id="edge19_Node000001_Node000068" class="edge">
<title>Node1&#45;&gt;Node68</title>
<g id="a_edge19_Node000001_Node000068"><a xlink:title=" ">
<path fill="none" stroke="#63b8ff" d="M1435.38,-214.93C1515.5,-209.19 1634.4,-197.17 1674,-174.75 1712.71,-152.84 1722.15,-138.92 1737,-97 1741.53,-84.22 1744.97,-77.46 1737,-66.5 1717.7,-39.96 1684.07,-27.15 1653.05,-21.08"/>
<polygon fill="#63b8ff" stroke="#63b8ff" points="1435.59,-211.4 1425.86,-215.59 1436.08,-218.39 1435.59,-211.4"/>
</a>
</g>
</g>
<!-- Node96 -->
<g id="Node000096" class="node">
<title>Node96</title>
<g id="a_Node000096"><a xlink:href="../../da/dec/face__recognition_8cpp.html" target="_top" xlink:title=" ">
<polygon fill="white" stroke="#666666" points="1554.12,-97 1445.88,-97 1445.88,-66.5 1554.12,-66.5 1554.12,-97"/>
<text text-anchor="start" x="1453.88" y="-83.5" font-family="Helvetica,sans-Serif" font-size="10.00">src/face_recognition</text>
<text text-anchor="middle" x="1500" y="-72.25" font-family="Helvetica,sans-Serif" font-size="10.00">/face_recognition.cpp</text>
</a>
</g>
</g>
<!-- Node1&#45;&gt;Node96 -->
<g id="edge21_Node000001_Node000096" class="edge">
<title>Node1&#45;&gt;Node96</title>
<g id="a_edge21_Node000001_Node000096"><a xlink:title=" ">
<path fill="none" stroke="#63b8ff" d="M1387.23,-205.21C1401.62,-197.41 1418.7,-186.86 1432,-174.75 1457.85,-151.22 1480.3,-116.56 1491.8,-97.19"/>
<polygon fill="#63b8ff" stroke="#63b8ff" points="1385.9,-201.96 1378.65,-209.69 1389.14,-208.17 1385.9,-201.96"/>
</a>
</g>
</g>
<!-- Node52 -->
<g id="Node000052" class="node">
<title>Node52</title>
<g id="a_Node000052"><a xlink:href="../../da/dff/flat__model_8cpp.html" target="_top" xlink:title=" ">
<polygon fill="white" stroke="#666666" points="1727.62,-97 1610.38,-97 1610.38,-66.5 1727.62,-66.5 1727.62,-97"/>
<text text-anchor="start" x="1618.38" y="-83.5" font-family="Helvetica,sans-Serif" font-size="10.00">src/gui/desktop/models</text>
<text text-anchor="middle" x="1669" y="-72.25" font-family="Helvetica,sans-Serif" font-size="10.00">/flat_model.cpp</text>
</a>
</g>
</g>
<!-- Node1&#45;&gt;Node52 -->
<g id="edge22_Node000001_Node000052" class="edge">
<title>Node1&#45;&gt;Node52</title>
<g id="a_edge22_Node000001_Node000052"><a xlink:title=" ">
<path fill="none" stroke="#63b8ff" d="M1435.77,-217.27C1511.67,-213.55 1619.97,-203.25 1650,-174.75 1671.17,-154.65 1672.03,-117.68 1670.62,-97.26"/>
<polygon fill="#63b8ff" stroke="#63b8ff" points="1435.69,-213.77 1425.86,-217.73 1436.01,-220.77 1435.69,-213.77"/>
</a>
</g>
</g>
<!-- Node120 -->
<g id="Node000120" class="node">
<title>Node120</title>
<g id="a_Node000120"><a xlink:href="../../d2/da8/db__error__tests_8cpp.html" target="_top" xlink:title=" ">
<polygon fill="white" stroke="#666666" points="1878,-169.12 1760,-169.12 1760,-138.62 1878,-138.62 1878,-169.12"/>
<text text-anchor="start" x="1768" y="-155.62" font-family="Helvetica,sans-Serif" font-size="10.00">src/database/unit_tests</text>
<text text-anchor="middle" x="1819" y="-144.38" font-family="Helvetica,sans-Serif" font-size="10.00">/db_error_tests.cpp</text>
</a>
</g>
</g>
<!-- Node1&#45;&gt;Node120 -->
<g id="edge20_Node000001_Node000120" class="edge">
<title>Node1&#45;&gt;Node120</title>
<g id="a_edge20_Node000001_Node000120"><a xlink:title=" ">
<path fill="none" stroke="#63b8ff" d="M1435.64,-213.92C1514.34,-207.58 1639.38,-195.27 1746,-174.75 1753.48,-173.31 1761.32,-171.5 1768.97,-169.57"/>
<polygon fill="#63b8ff" stroke="#63b8ff" points="1435.57,-210.42 1425.88,-214.69 1436.12,-217.39 1435.57,-210.42"/>
</a>
</g>
</g>
<!-- Node42 -->
<g id="Node000042" class="node">
<title>Node42</title>
<g id="a_Node000042"><a xlink:href="../../d1/d2f/people__editor_8cpp.html" target="_top" xlink:title=" ">
<polygon fill="white" stroke="#666666" points="1999.88,-169.12 1896.12,-169.12 1896.12,-138.62 1999.88,-138.62 1999.88,-169.12"/>
<text text-anchor="start" x="1904.12" y="-155.62" font-family="Helvetica,sans-Serif" font-size="10.00">src/gui/desktop/utils</text>
<text text-anchor="middle" x="1948" y="-144.38" font-family="Helvetica,sans-Serif" font-size="10.00">/people_editor.cpp</text>
</a>
</g>
</g>
<!-- Node1&#45;&gt;Node42 -->
<g id="edge23_Node000001_Node000042" class="edge">
<title>Node1&#45;&gt;Node42</title>
<g id="a_edge23_Node000001_Node000042"><a xlink:title=" ">
<path fill="none" stroke="#63b8ff" d="M1435.56,-218.41C1539.36,-215.86 1728.74,-206.76 1887,-174.75 1893.66,-173.4 1900.61,-171.57 1907.33,-169.56"/>
<polygon fill="#63b8ff" stroke="#63b8ff" points="1435.68,-214.91 1425.77,-218.64 1435.84,-221.91 1435.68,-214.91"/>
</a>
</g>
</g>
<!-- Node121 -->
<g id="Node000121" class="node">
<title>Node121</title>
<g id="a_Node000121"><a xlink:href="../../d4/dbd/mock__backend_8hpp.html" target="_top" xlink:title=" ">
<polygon fill="#fff0f0" stroke="red" points="2120.5,-169.12 2017.5,-169.12 2017.5,-138.62 2120.5,-138.62 2120.5,-169.12"/>
<text text-anchor="start" x="2025.5" y="-155.62" font-family="Helvetica,sans-Serif" font-size="10.00">src/unit_tests_utils</text>
<text text-anchor="middle" x="2069" y="-144.38" font-family="Helvetica,sans-Serif" font-size="10.00">/mock_backend.hpp</text>
</a>
</g>
</g>
<!-- Node1&#45;&gt;Node121 -->
<g id="edge24_Node000001_Node000121" class="edge">
<title>Node1&#45;&gt;Node121</title>
<g id="a_edge24_Node000001_Node000121"><a xlink:title=" ">
<path fill="none" stroke="#63b8ff" d="M1435.83,-220.32C1558.78,-220.4 1804.94,-214.88 2009,-174.75 2015.68,-173.44 2022.64,-171.59 2029.35,-169.56"/>
<polygon fill="#63b8ff" stroke="#63b8ff" points="1435.84,-216.82 1425.83,-220.29 1435.83,-223.82 1435.84,-216.82"/>
</a>
</g>
</g>
<!-- Node36&#45;&gt;Node93 -->
<g id="edge11_Node000036_Node000093" class="edge">
<title>Node36&#45;&gt;Node93</title>
<g id="a_edge11_Node000036_Node000093"><a xlink:title=" ">
<path fill="none" stroke="#63b8ff" d="M1534.36,-140.33C1497.35,-128.32 1441.5,-110.18 1402.39,-97.48"/>
<polygon fill="#63b8ff" stroke="#63b8ff" points="1533.17,-143.62 1543.76,-143.38 1535.33,-136.97 1533.17,-143.62"/>
</a>
</g>
</g>
<!-- Node36&#45;&gt;Node68 -->
<g id="edge14_Node000036_Node000068" class="edge">
<title>Node36&#45;&gt;Node68</title>
<g id="a_edge14_Node000036_Node000068"><a xlink:title=" ">
<path fill="none" stroke="#63b8ff" d="M1574.35,-132.42C1576.19,-104.45 1579.45,-54.95 1581.05,-30.6"/>
<polygon fill="#63b8ff" stroke="#63b8ff" points="1570.85,-132.19 1573.69,-142.4 1577.84,-132.65 1570.85,-132.19"/>
</a>
</g>
</g>
<!-- Node36&#45;&gt;Node96 -->
<g id="edge15_Node000036_Node000096" class="edge">
<title>Node36&#45;&gt;Node96</title>
<g id="a_edge15_Node000036_Node000096"><a xlink:title=" ">
<path fill="none" stroke="#63b8ff" d="M1555.65,-136.21C1543.37,-124.41 1527.05,-108.74 1515.27,-97.42"/>
<polygon fill="#63b8ff" stroke="#63b8ff" points="1553.03,-138.54 1562.66,-142.95 1557.88,-133.49 1553.03,-138.54"/>
</a>
</g>
</g>
<!-- Node36&#45;&gt;Node52 -->
<g id="edge16_Node000036_Node000052" class="edge">
<title>Node36&#45;&gt;Node52</title>
<g id="a_edge16_Node000036_Node000052"><a xlink:title=" ">
<path fill="none" stroke="#63b8ff" d="M1594.42,-137.23C1610.71,-125.33 1632.97,-109.07 1648.92,-97.42"/>
<polygon fill="#63b8ff" stroke="#63b8ff" points="1592.39,-134.38 1586.38,-143.1 1596.52,-140.03 1592.39,-134.38"/>
</a>
</g>
</g>
<!-- Node93&#45;&gt;Node94 -->
<g id="edge12_Node000093_Node000094" class="edge">
<title>Node93&#45;&gt;Node94</title>
<g id="a_edge12_Node000093_Node000094"><a xlink:title=" ">
<path fill="none" stroke="#63b8ff" d="M1339.01,-57.07C1332.33,-48.28 1324.96,-38.57 1319.07,-30.83"/>
<polygon fill="#63b8ff" stroke="#63b8ff" points="1336.13,-59.06 1344.97,-64.91 1341.7,-54.83 1336.13,-59.06"/>
</a>
</g>
</g>
<!-- Node93&#45;&gt;Node68 -->
<g id="edge13_Node000093_Node000068" class="edge">
<title>Node93&#45;&gt;Node68</title>
<g id="a_edge13_Node000093_Node000068"><a xlink:title=" ">
<path fill="none" stroke="#63b8ff" d="M1418.97,-62.99C1454.15,-52.9 1497.66,-40.43 1530.88,-30.9"/>
<polygon fill="#63b8ff" stroke="#63b8ff" points="1418.44,-59.5 1409.79,-65.62 1420.37,-66.22 1418.44,-59.5"/>
</a>
</g>
</g>
</g>
</svg>

<g id="navigator" transform="translate(0 0)" fill="#404254">
  <rect fill="#f2f5e9" fill-opacity="0.5" stroke="#606060" stroke-width=".5" x="0" y="0" width="60" height="60"/>
  <use id="zoomplus" xlink:href="#zoomPlus" x="17" y="9" onmousedown="handleZoom(evt,'in')"/>
  <use id="zoomminus" xlink:href="#zoomMin" x="42" y="9" onmousedown="handleZoom(evt,'out')"/>
  <use id="reset" xlink:href="#resetDef" x="30" y="36" onmousedown="handleReset()"/>
   <use id="arrowup" xlink:href="#arrowUp" x="0" y="0" onmousedown="handlePan(0,-1)"/>
  <use id="arrowright" xlink:href="#arrowRight" x="0" y="0" onmousedown="handlePan(1,0)"/>
  <use id="arrowdown" xlink:href="#arrowDown" x="0" y="0" onmousedown="handlePan(0,1)"/>
  <use id="arrowleft" xlink:href="#arrowLeft" x="0" y="0" onmousedown="handlePan(-1,0)"/>
</g>
<svg viewBox="0 0 15 15" width="100%" height="30px" preserveAspectRatio="xMaxYMin meet">
 <g id="arrow_out" transform="scale(0.3 0.3)">
  <a xlink:href="ibackend_8hpp__dep__incl_org.svg" target="_base">
   <rect id="button" ry="5" rx="5" y="6" x="6" height="38" width="38"
        fill="#f2f5e9" fill-opacity="0.5" stroke="#606060" stroke-width="1.0"/>
   <path id="arrow"
     d="M 11.500037,31.436501 C 11.940474,20.09759 22.043105,11.32322 32.158766,21.979434 L 37.068811,17.246167 C 37.068811,17.246167 37.088388,32 37.088388,32 L 22.160133,31.978069 C 22.160133,31.978069 26.997745,27.140456 26.997745,27.140456 C 18.528582,18.264221 13.291696,25.230495 11.500037,31.436501 z"
     style="fill:#404040;"/>
  </a>
 </g>
</svg>

<style type='text/css'>
<![CDATA[
[data-mouse-over-selected='false'] { opacity: 0.7; }
[data-mouse-over-selected='true']  { opacity: 1.0; }
]]>
</style>
<script type="application/ecmascript"><![CDATA[
document.addEventListener('DOMContentLoaded', (event) => {
  highlightEdges();
  highlightAdjacentNodes();
});
]]></script>
</svg>
