<?xml version="1.0" encoding="UTF-8" standalone="no"?>
<!DOCTYPE svg PUBLIC "-//W3C//DTD SVG 1.1//EN"
 "http://www.w3.org/Graphics/SVG/1.1/DTD/svg11.dtd">
<!-- Generated by graphviz version 12.2.0 (20241103.1931)
 -->
<!-- Title: TagValue::fromString Pages: 1 -->
<svg width="231pt" height="64pt"
 viewBox="0.00 0.00 230.50 64.25" xmlns="http://www.w3.org/2000/svg" xmlns:xlink="http://www.w3.org/1999/xlink">
<g id="graph0" class="graph" transform="scale(1 1) rotate(0) translate(4 60.25)">
<title>TagValue::fromString</title>
<!-- Node1 -->
<g id="Node000001" class="node">
<title>Node1</title>
<g id="a_Node000001"><a xlink:title=" ">
<polygon fill="#999999" stroke="#666666" points="106.75,-37.25 0,-37.25 0,-18 106.75,-18 106.75,-37.25"/>
<text text-anchor="middle" x="53.38" y="-23.75" font-family="Helvetica,sans-Serif" font-size="10.00">TagValue::fromString</text>
</a>
</g>
</g>
<!-- Node2 -->
<g id="Node000002" class="node">
<title>Node2</title>
<g id="a_Node000002"><a xlink:href="../../df/d7c/class_tag_value.html#a97641e4c5eb34b87d2fa2061f3ed5192" target="_top" xlink:title=" ">
<polygon fill="white" stroke="#666666" points="220.25,-56.25 145,-56.25 145,-37 220.25,-37 220.25,-56.25"/>
<text text-anchor="middle" x="182.62" y="-42.75" font-family="Helvetica,sans-Serif" font-size="10.00">TagValue::set</text>
</a>
</g>
</g>
<!-- Node1&#45;&gt;Node2 -->
<g id="edge1_Node000001_Node000002" class="edge">
<title>Node1&#45;&gt;Node2</title>
<g id="a_edge1_Node000001_Node000002"><a xlink:title=" ">
<path fill="none" stroke="#63b8ff" d="M107.23,-35.52C115.87,-36.81 124.78,-38.14 133.3,-39.41"/>
<polygon fill="#63b8ff" stroke="#63b8ff" points="132.72,-42.86 143.12,-40.88 133.75,-35.94 132.72,-42.86"/>
</a>
</g>
</g>
<!-- Node3 -->
<g id="Node000003" class="node">
<title>Node3</title>
<g id="a_Node000003"><a xlink:href="../../df/d7c/class_tag_value.html#a552de8ae14f88b953752a3ee95572592" target="_top" xlink:title=" ">
<polygon fill="white" stroke="#666666" points="222.5,-19.25 142.75,-19.25 142.75,0 222.5,0 222.5,-19.25"/>
<text text-anchor="middle" x="182.62" y="-5.75" font-family="Helvetica,sans-Serif" font-size="10.00">TagValue::type</text>
</a>
</g>
</g>
<!-- Node1&#45;&gt;Node3 -->
<g id="edge2_Node000001_Node000003" class="edge">
<title>Node1&#45;&gt;Node3</title>
<g id="a_edge2_Node000001_Node000003"><a xlink:title=" ">
<path fill="none" stroke="#63b8ff" d="M107.23,-20.15C115.13,-19.03 123.24,-17.88 131.09,-16.77"/>
<polygon fill="#63b8ff" stroke="#63b8ff" points="131.41,-20.26 140.82,-15.4 130.43,-13.33 131.41,-20.26"/>
</a>
</g>
</g>
</g>
</svg>
