<?xml version="1.0" encoding="UTF-8" standalone="no"?>
<!DOCTYPE svg PUBLIC "-//W3C//DTD SVG 1.1//EN"
 "http://www.w3.org/Graphics/SVG/1.1/DTD/svg11.dtd">
<!-- Generated by graphviz version 9.0.0 (20230911.1827)
 -->
<!-- Title: TagValue::get Pages: 1 -->
<svg width="237pt" height="323pt"
 viewBox="0.00 0.00 236.50 323.25" xmlns="http://www.w3.org/2000/svg" xmlns:xlink="http://www.w3.org/1999/xlink">

<svg id="main" version="1.1" xmlns="http://www.w3.org/2000/svg" xmlns:xlink="http://www.w3.org/1999/xlink" xml:space="preserve" onload="init(evt)">
<style type="text/css"><![CDATA[
.node, .edge {opacity: 0.7;}
.node.selected, .edge.selected {opacity: 1;}
.edge:hover path { stroke: red; }
.edge:hover polygon { stroke: red; fill: red; }
]]></style>
<script type="application/ecmascript" xlink:href="../../svg.min.js"/>
<svg id="graph" class="graph">
<g id="graph0" class="graph" transform="scale(1 1) rotate(0) translate(4 319.25)">
<title>TagValue::get</title>
<!-- Node1 -->
<g id="Node000001" class="node">
<title>Node1</title>
<g id="a_Node000001"><a xlink:title=" ">
<polygon fill="#999999" stroke="#666666" points="228.5,-167.25 153.25,-167.25 153.25,-148 228.5,-148 228.5,-167.25"/>
<text text-anchor="middle" x="190.88" y="-153.75" font-family="Helvetica,sans-Serif" font-size="10.00">TagValue::get</text>
</a>
</g>
</g>
<!-- Node2 -->
<g id="Node000002" class="node">
<title>Node2</title>
<g id="a_Node000002"><a xlink:href="../../d0/d5d/class_tags_model.html#a005b3a8e153bcc5222505a189bcf95b5" target="_top" xlink:title=" ">
<polygon fill="#fff0f0" stroke="red" points="117.25,-315.25 0,-315.25 0,-296 117.25,-296 117.25,-315.25"/>
<text text-anchor="middle" x="58.62" y="-301.75" font-family="Helvetica,sans-Serif" font-size="10.00">TagsModel::loadPhotos</text>
</a>
</g>
</g>
<!-- Node1&#45;&gt;Node2 -->
<g id="edge1_Node000001_Node000002" class="edge">
<title>Node1&#45;&gt;Node2</title>
<g id="a_edge1_Node000001_Node000002"><a xlink:title=" ">
<path fill="none" stroke="#63b8ff" d="M183.79,-178.16C174.25,-206.81 153.07,-258.53 117.25,-287.62 113.34,-290.8 108.88,-293.41 104.2,-295.57"/>
<polygon fill="#63b8ff" stroke="#63b8ff" points="187.05,-179.46 186.72,-168.87 180.37,-177.35 187.05,-179.46"/>
</a>
</g>
</g>
<!-- Node5 -->
<g id="Node000005" class="node">
<title>Node5</title>
<g id="a_Node000005"><a xlink:href="../../d6/d20/tag__value__tests_8cpp.html#a0932e3aa26e047a5776bf521f6b98e1a" target="_top" xlink:title=" ">
<polygon fill="white" stroke="#666666" points="79,-278.25 38.25,-278.25 38.25,-259 79,-259 79,-278.25"/>
<text text-anchor="middle" x="58.62" y="-264.75" font-family="Helvetica,sans-Serif" font-size="10.00">TEST</text>
</a>
</g>
</g>
<!-- Node1&#45;&gt;Node5 -->
<g id="edge2_Node000001_Node000005" class="edge">
<title>Node1&#45;&gt;Node5</title>
<g id="a_edge2_Node000001_Node000005"><a xlink:title=" ">
<path fill="none" stroke="#63b8ff" d="M179.26,-177.48C167.01,-198.58 144.94,-231.47 117.25,-250.62 105.96,-258.44 91.13,-262.97 79.35,-265.53"/>
<polygon fill="#63b8ff" stroke="#63b8ff" points="182.19,-179.42 184.01,-168.98 176.08,-176 182.19,-179.42"/>
</a>
</g>
</g>
<!-- Node6 -->
<g id="Node000006" class="node">
<title>Node6</title>
<g id="a_Node000006"><a xlink:href="../../d6/d20/tag__value__tests_8cpp.html#a28b7c31ccee367472bac659f939ddfbe" target="_top" xlink:title=" ">
<polygon fill="white" stroke="#666666" points="79,-241.25 38.25,-241.25 38.25,-222 79,-222 79,-241.25"/>
<text text-anchor="middle" x="58.62" y="-227.75" font-family="Helvetica,sans-Serif" font-size="10.00">TEST</text>
</a>
</g>
</g>
<!-- Node1&#45;&gt;Node6 -->
<g id="edge3_Node000001_Node000006" class="edge">
<title>Node1&#45;&gt;Node6</title>
<g id="a_edge3_Node000001_Node000006"><a xlink:title=" ">
<path fill="none" stroke="#63b8ff" d="M171.16,-175.08C157.2,-187.31 137.18,-203.26 117.25,-213.62 105.26,-219.87 90.72,-224.39 79.24,-227.34"/>
<polygon fill="#63b8ff" stroke="#63b8ff" points="173.17,-177.97 178.27,-168.68 168.49,-172.77 173.17,-177.97"/>
</a>
</g>
</g>
<!-- Node7 -->
<g id="Node000007" class="node">
<title>Node7</title>
<g id="a_Node000007"><a xlink:href="../../d6/d20/tag__value__tests_8cpp.html#a9b445ea8e91ff02c21fabce30beaa587" target="_top" xlink:title=" ">
<polygon fill="white" stroke="#666666" points="79,-204.25 38.25,-204.25 38.25,-185 79,-185 79,-204.25"/>
<text text-anchor="middle" x="58.62" y="-190.75" font-family="Helvetica,sans-Serif" font-size="10.00">TEST</text>
</a>
</g>
</g>
<!-- Node1&#45;&gt;Node7 -->
<g id="edge4_Node000001_Node000007" class="edge">
<title>Node1&#45;&gt;Node7</title>
<g id="a_edge4_Node000001_Node000007"><a xlink:title=" ">
<path fill="none" stroke="#63b8ff" d="M143.46,-170.81C121.47,-177.06 96.37,-184.19 79.41,-189.01"/>
<polygon fill="#63b8ff" stroke="#63b8ff" points="144.16,-174.25 152.83,-168.15 142.25,-167.51 144.16,-174.25"/>
</a>
</g>
</g>
<!-- Node8 -->
<g id="Node000008" class="node">
<title>Node8</title>
<g id="a_Node000008"><a xlink:href="../../d6/d20/tag__value__tests_8cpp.html#a4b49a7ce7722bac47fc56f076916869c" target="_top" xlink:title=" ">
<polygon fill="white" stroke="#666666" points="79,-167.25 38.25,-167.25 38.25,-148 79,-148 79,-167.25"/>
<text text-anchor="middle" x="58.62" y="-153.75" font-family="Helvetica,sans-Serif" font-size="10.00">TEST</text>
</a>
</g>
</g>
<!-- Node1&#45;&gt;Node8 -->
<g id="edge5_Node000001_Node000008" class="edge">
<title>Node1&#45;&gt;Node8</title>
<g id="a_edge5_Node000001_Node000008"><a xlink:title=" ">
<path fill="none" stroke="#63b8ff" d="M141.59,-157.62C120.03,-157.62 95.83,-157.62 79.35,-157.62"/>
<polygon fill="#63b8ff" stroke="#63b8ff" points="141.39,-161.13 151.39,-157.63 141.39,-154.13 141.39,-161.13"/>
</a>
</g>
</g>
<!-- Node9 -->
<g id="Node000009" class="node">
<title>Node9</title>
<g id="a_Node000009"><a xlink:href="../../d6/d20/tag__value__tests_8cpp.html#a890c2bcc74dd82029d64f6329e4ca62d" target="_top" xlink:title=" ">
<polygon fill="white" stroke="#666666" points="79,-130.25 38.25,-130.25 38.25,-111 79,-111 79,-130.25"/>
<text text-anchor="middle" x="58.62" y="-116.75" font-family="Helvetica,sans-Serif" font-size="10.00">TEST</text>
</a>
</g>
</g>
<!-- Node1&#45;&gt;Node9 -->
<g id="edge6_Node000001_Node000009" class="edge">
<title>Node1&#45;&gt;Node9</title>
<g id="a_edge6_Node000001_Node000009"><a xlink:title=" ">
<path fill="none" stroke="#63b8ff" d="M143.46,-144.44C121.47,-138.19 96.37,-131.06 79.41,-126.24"/>
<polygon fill="#63b8ff" stroke="#63b8ff" points="142.25,-147.74 152.83,-147.1 144.16,-141 142.25,-147.74"/>
</a>
</g>
</g>
<!-- Node10 -->
<g id="Node000010" class="node">
<title>Node10</title>
<g id="a_Node000010"><a xlink:href="../../d6/d20/tag__value__tests_8cpp.html#adb5dc1dac824d444b6682c79348b9417" target="_top" xlink:title=" ">
<polygon fill="white" stroke="#666666" points="79,-93.25 38.25,-93.25 38.25,-74 79,-74 79,-93.25"/>
<text text-anchor="middle" x="58.62" y="-79.75" font-family="Helvetica,sans-Serif" font-size="10.00">TEST</text>
</a>
</g>
</g>
<!-- Node1&#45;&gt;Node10 -->
<g id="edge7_Node000001_Node000010" class="edge">
<title>Node1&#45;&gt;Node10</title>
<g id="a_edge7_Node000001_Node000010"><a xlink:title=" ">
<path fill="none" stroke="#63b8ff" d="M171.16,-140.17C157.2,-127.94 137.18,-111.99 117.25,-101.62 105.26,-95.38 90.72,-90.86 79.24,-87.91"/>
<polygon fill="#63b8ff" stroke="#63b8ff" points="168.49,-142.48 178.27,-146.57 173.17,-137.28 168.49,-142.48"/>
</a>
</g>
</g>
<!-- Node11 -->
<g id="Node000011" class="node">
<title>Node11</title>
<g id="a_Node000011"><a xlink:href="../../d6/d20/tag__value__tests_8cpp.html#ac8d3bbe646f874b92387cb698b813369" target="_top" xlink:title=" ">
<polygon fill="white" stroke="#666666" points="85,-56.25 32.25,-56.25 32.25,-37 85,-37 85,-56.25"/>
<text text-anchor="middle" x="58.62" y="-42.75" font-family="Helvetica,sans-Serif" font-size="10.00">TEST_P</text>
</a>
</g>
</g>
<!-- Node1&#45;&gt;Node11 -->
<g id="edge8_Node000001_Node000011" class="edge">
<title>Node1&#45;&gt;Node11</title>
<g id="a_edge8_Node000001_Node000011"><a xlink:title=" ">
<path fill="none" stroke="#63b8ff" d="M179.26,-137.77C167.01,-116.67 144.94,-83.78 117.25,-64.62 107.77,-58.06 95.8,-53.82 85.22,-51.11"/>
<polygon fill="#63b8ff" stroke="#63b8ff" points="176.08,-139.25 184.01,-146.27 182.19,-135.83 176.08,-139.25"/>
</a>
</g>
</g>
<!-- Node12 -->
<g id="Node000012" class="node">
<title>Node12</title>
<g id="a_Node000012"><a xlink:href="../../d6/d20/tag__value__tests_8cpp.html#aacc4ac7ddef6453d6629edd24cfb48bd" target="_top" xlink:title=" ">
<polygon fill="white" stroke="#666666" points="85,-19.25 32.25,-19.25 32.25,0 85,0 85,-19.25"/>
<text text-anchor="middle" x="58.62" y="-5.75" font-family="Helvetica,sans-Serif" font-size="10.00">TEST_P</text>
</a>
</g>
</g>
<!-- Node1&#45;&gt;Node12 -->
<g id="edge9_Node000001_Node000012" class="edge">
<title>Node1&#45;&gt;Node12</title>
<g id="a_edge9_Node000001_Node000012"><a xlink:title=" ">
<path fill="none" stroke="#63b8ff" d="M183.79,-137.09C174.25,-108.44 153.07,-56.72 117.25,-27.62 108.22,-20.29 96.19,-15.93 85.45,-13.35"/>
<polygon fill="#63b8ff" stroke="#63b8ff" points="180.37,-137.9 186.72,-146.38 187.05,-135.79 180.37,-137.9"/>
</a>
</g>
</g>
</g>
</svg>
</svg>

<style type='text/css'>
<![CDATA[
[data-mouse-over-selected='false'] { opacity: 0.7; }
[data-mouse-over-selected='true']  { opacity: 1.0; }
]]>
</style>
<script type="application/ecmascript"><![CDATA[
document.addEventListener('DOMContentLoaded', (event) => {
  highlightEdges();
  highlightAdjacentNodes();
});
]]></script>
</svg>
