<?xml version="1.0" encoding="UTF-8" standalone="no"?>
<!DOCTYPE svg PUBLIC "-//W3C//DTD SVG 1.1//EN"
 "http://www.w3.org/Graphics/SVG/1.1/DTD/svg11.dtd">
<!-- Generated by graphviz version 7.0.5 (20221223.1930)
 -->
<!-- Title: TagValue::string Pages: 1 -->
<svg width="240pt" height="138pt"
 viewBox="0.00 0.00 240.00 138.00" xmlns="http://www.w3.org/2000/svg" xmlns:xlink="http://www.w3.org/1999/xlink">
<g id="graph0" class="graph" transform="scale(1 1) rotate(0) translate(4 134)">
<title>TagValue::string</title>
<!-- Node1 -->
<g id="node1" class="node">
<title>Node1</title>
<g id="a_node1"><a xlink:title=" ">
<polygon fill="#999999" stroke="#666666" points="232,-74 146,-74 146,-55 232,-55 232,-74"/>
<text text-anchor="middle" x="189" y="-62" font-family="Helvetica,sans-Serif" font-size="10.00">TagValue::string</text>
</a>
</g>
</g>
<!-- Node2 -->
<g id="node2" class="node">
<title>Node2</title>
<g id="a_node2"><a xlink:href="../../df/d7c/class_tag_value.html#a4760150bc0396ec094aa6ac5a023a11c" target="_top" xlink:title=" ">
<polygon fill="white" stroke="#666666" points="108.5,-130 1.5,-130 1.5,-111 108.5,-111 108.5,-130"/>
<text text-anchor="middle" x="55" y="-118" font-family="Helvetica,sans-Serif" font-size="10.00">TagValue::operator!=</text>
</a>
</g>
</g>
<!-- Node1&#45;&gt;Node2 -->
<g id="edge1" class="edge">
<title>Node1&#45;&gt;Node2</title>
<path fill="none" stroke="#63b8ff" d="M159.48,-79.51C144.89,-86.91 126.72,-95.67 110,-102.5 103.05,-105.34 95.46,-108.08 88.23,-110.53"/>
<polygon fill="#63b8ff" stroke="#63b8ff" points="160.76,-82.79 168.06,-75.11 157.56,-76.57 160.76,-82.79"/>
</g>
<!-- Node3 -->
<g id="node3" class="node">
<title>Node3</title>
<g id="a_node3"><a xlink:href="../../df/d7c/class_tag_value.html#a825717cc4de2c2be56f30f7992ba8f7e" target="_top" xlink:title=" ">
<polygon fill="white" stroke="#666666" points="107,-93 3,-93 3,-74 107,-74 107,-93"/>
<text text-anchor="middle" x="55" y="-81" font-family="Helvetica,sans-Serif" font-size="10.00">TagValue::operator&lt;</text>
</a>
</g>
</g>
<!-- Node1&#45;&gt;Node3 -->
<g id="edge2" class="edge">
<title>Node1&#45;&gt;Node3</title>
<path fill="none" stroke="#63b8ff" d="M134.36,-72.22C125.38,-73.51 116.09,-74.85 107.18,-76.13"/>
<polygon fill="#63b8ff" stroke="#63b8ff" points="134.61,-75.72 144.01,-70.83 133.61,-68.79 134.61,-75.72"/>
</g>
<!-- Node4 -->
<g id="node4" class="node">
<title>Node4</title>
<g id="a_node4"><a xlink:href="../../df/d7c/class_tag_value.html#ac4908b8ac1bbeb41830d90df35df768f" target="_top" xlink:title=" ">
<polygon fill="white" stroke="#666666" points="110,-56 0,-56 0,-37 110,-37 110,-56"/>
<text text-anchor="middle" x="55" y="-44" font-family="Helvetica,sans-Serif" font-size="10.00">TagValue::operator==</text>
</a>
</g>
</g>
<!-- Node1&#45;&gt;Node4 -->
<g id="edge3" class="edge">
<title>Node1&#45;&gt;Node4</title>
<path fill="none" stroke="#63b8ff" d="M134.25,-57.17C126.41,-56.1 118.33,-55 110.48,-53.93"/>
<polygon fill="#63b8ff" stroke="#63b8ff" points="133.63,-60.62 144.01,-58.5 134.57,-53.68 133.63,-60.62"/>
</g>
<!-- Node5 -->
<g id="node5" class="node">
<title>Node5</title>
<g id="a_node5"><a xlink:href="../../df/d7c/class_tag_value.html#a7dbb46edc2d25d96165c308c152aea06" target="_top" xlink:title=" ">
<polygon fill="#fff0f0" stroke="red" points="106.5,-19 3.5,-19 3.5,0 106.5,0 106.5,-19"/>
<text text-anchor="middle" x="55" y="-7" font-family="Helvetica,sans-Serif" font-size="10.00">TagValue::rawValue</text>
</a>
</g>
</g>
<!-- Node1&#45;&gt;Node5 -->
<g id="edge4" class="edge">
<title>Node1&#45;&gt;Node5</title>
<path fill="none" stroke="#63b8ff" d="M157.75,-49.73C143.41,-42.94 125.97,-34.98 110,-28.5 102.26,-25.36 93.79,-22.24 85.9,-19.46"/>
<polygon fill="#63b8ff" stroke="#63b8ff" points="156.13,-52.84 166.66,-54 159.15,-46.52 156.13,-52.84"/>
</g>
</g>
</svg>
