<?xml version="1.0" encoding="UTF-8" standalone="no"?>
<!DOCTYPE svg PUBLIC "-//W3C//DTD SVG 1.1//EN"
 "http://www.w3.org/Graphics/SVG/1.1/DTD/svg11.dtd">
<!-- Generated by graphviz version 7.0.5 (20221223.1930)
 -->
<!-- Title: TagValue::fromQVariant Pages: 1 -->
<svg width="274pt" height="101pt"
 viewBox="0.00 0.00 274.00 101.00" xmlns="http://www.w3.org/2000/svg" xmlns:xlink="http://www.w3.org/1999/xlink">
<g id="graph0" class="graph" transform="scale(1 1) rotate(0) translate(4 97)">
<title>TagValue::fromQVariant</title>
<!-- Node1 -->
<g id="node1" class="node">
<title>Node1</title>
<g id="a_node1"><a xlink:title=" ">
<polygon fill="#999999" stroke="#666666" points="266,-56 146,-56 146,-37 266,-37 266,-56"/>
<text text-anchor="middle" x="206" y="-44" font-family="Helvetica,sans-Serif" font-size="10.00">TagValue::fromQVariant</text>
</a>
</g>
</g>
<!-- Node2 -->
<g id="node2" class="node">
<title>Node2</title>
<g id="a_node2"><a xlink:href="../../d0/d5d/class_tags_model.html#a0ca870d04bfdedfd7020398264dedeeb" target="_top" xlink:title=" ">
<polygon fill="#fff0f0" stroke="red" points="110,-93 0,-93 0,-74 110,-74 110,-93"/>
<text text-anchor="middle" x="55" y="-81" font-family="Helvetica,sans-Serif" font-size="10.00">TagsModel::syncData</text>
</a>
</g>
</g>
<!-- Node1&#45;&gt;Node2 -->
<g id="edge1" class="edge">
<title>Node1&#45;&gt;Node2</title>
<path fill="none" stroke="#63b8ff" d="M153.93,-59.18C135.01,-63.88 113.84,-69.14 96.04,-73.56"/>
<polygon fill="#63b8ff" stroke="#63b8ff" points="154.74,-62.59 163.6,-56.78 153.05,-55.79 154.74,-62.59"/>
</g>
<!-- Node4 -->
<g id="node3" class="node">
<title>Node4</title>
<g id="a_node3"><a xlink:href="../../d6/d20/tag__value__tests_8cpp.html#a4ab958c95ddbeb90e9a2843d3a9739f5" target="_top" xlink:title=" ">
<polygon fill="white" stroke="#666666" points="75.5,-56 34.5,-56 34.5,-37 75.5,-37 75.5,-56"/>
<text text-anchor="middle" x="55" y="-44" font-family="Helvetica,sans-Serif" font-size="10.00">TEST</text>
</a>
</g>
</g>
<!-- Node1&#45;&gt;Node4 -->
<g id="edge2" class="edge">
<title>Node1&#45;&gt;Node4</title>
<path fill="none" stroke="#63b8ff" d="M134.21,-46.5C112.78,-46.5 90.95,-46.5 75.81,-46.5"/>
<polygon fill="#63b8ff" stroke="#63b8ff" points="134.17,-50 144.17,-46.5 134.17,-43 134.17,-50"/>
</g>
<!-- Node5 -->
<g id="node4" class="node">
<title>Node5</title>
<g id="a_node4"><a xlink:href="../../d6/d20/tag__value__tests_8cpp.html#aacc4ac7ddef6453d6629edd24cfb48bd" target="_top" xlink:title=" ">
<polygon fill="white" stroke="#666666" points="81.5,-19 28.5,-19 28.5,0 81.5,0 81.5,-19"/>
<text text-anchor="middle" x="55" y="-7" font-family="Helvetica,sans-Serif" font-size="10.00">TEST_P</text>
</a>
</g>
</g>
<!-- Node1&#45;&gt;Node5 -->
<g id="edge3" class="edge">
<title>Node1&#45;&gt;Node5</title>
<path fill="none" stroke="#63b8ff" d="M154.21,-33.89C129.9,-27.85 101.84,-20.88 81.95,-15.94"/>
<polygon fill="#63b8ff" stroke="#63b8ff" points="153.05,-37.21 163.6,-36.22 154.74,-30.41 153.05,-37.21"/>
</g>
</g>
</svg>
