<?xml version="1.0" encoding="UTF-8" standalone="no"?>
<!DOCTYPE svg PUBLIC "-//W3C//DTD SVG 1.1//EN"
 "http://www.w3.org/Graphics/SVG/1.1/DTD/svg11.dtd">
<!-- Generated by graphviz version 12.2.0 (20241103.1931)
 -->
<!-- Title: ObservableDatabase::Task::run Pages: 1 -->
<svg width="273pt" height="137pt"
 viewBox="0.00 0.00 272.50 136.50" xmlns="http://www.w3.org/2000/svg" xmlns:xlink="http://www.w3.org/1999/xlink">
<g id="graph0" class="graph" transform="scale(1 1) rotate(0) translate(4 132.5)">
<title>ObservableDatabase::Task::run</title>
<!-- Node1 -->
<g id="Node000001" class="node">
<title>Node1</title>
<g id="a_Node000001"><a xlink:title=" ">
<polygon fill="#999999" stroke="#666666" points="106.75,-79.5 0,-79.5 0,-49 106.75,-49 106.75,-79.5"/>
<text text-anchor="start" x="8" y="-66" font-family="Helvetica,sans-Serif" font-size="10.00">ObservableDatabase</text>
<text text-anchor="middle" x="53.38" y="-54.75" font-family="Helvetica,sans-Serif" font-size="10.00">::Task::run</text>
</a>
</g>
</g>
<!-- Node2 -->
<g id="Node000002" class="node">
<title>Node2</title>
<g id="a_Node000002"><a xlink:href="../../d0/dd8/class_observable_database_1_1_task.html#a84d300c9db9f621e2c6558fe969e3cdb" target="_top" xlink:title=" ">
<polygon fill="white" stroke="#666666" points="257,-128.5 150.25,-128.5 150.25,-98 257,-98 257,-128.5"/>
<text text-anchor="start" x="158.25" y="-115" font-family="Helvetica,sans-Serif" font-size="10.00">ObservableDatabase</text>
<text text-anchor="middle" x="203.62" y="-103.75" font-family="Helvetica,sans-Serif" font-size="10.00">::Task::name</text>
</a>
</g>
</g>
<!-- Node1&#45;&gt;Node2 -->
<g id="edge1_Node000001_Node000002" class="edge">
<title>Node1&#45;&gt;Node2</title>
<g id="a_edge1_Node000001_Node000002"><a xlink:title=" ">
<path fill="none" stroke="#63b8ff" d="M101.69,-79.89C115.26,-84.37 130.22,-89.32 144.37,-94"/>
<polygon fill="#63b8ff" stroke="#63b8ff" points="142.97,-97.22 153.56,-97.03 145.16,-90.57 142.97,-97.22"/>
</a>
</g>
</g>
<!-- Node3 -->
<g id="Node000003" class="node">
<title>Node3</title>
<g id="a_Node000003"><a xlink:href="../../d5/d20/class_observable_executor.html#ac4484c7c17b00d84c7c940081088ca12" target="_top" xlink:title=" ">
<polygon fill="#fff0f0" stroke="red" points="255.12,-79.5 152.12,-79.5 152.12,-49 255.12,-49 255.12,-79.5"/>
<text text-anchor="start" x="160.12" y="-66" font-family="Helvetica,sans-Serif" font-size="10.00">ObservableExecutor</text>
<text text-anchor="middle" x="203.62" y="-54.75" font-family="Helvetica,sans-Serif" font-size="10.00">::taskExecuted</text>
</a>
</g>
</g>
<!-- Node1&#45;&gt;Node3 -->
<g id="edge2_Node000001_Node000003" class="edge">
<title>Node1&#45;&gt;Node3</title>
<g id="a_edge2_Node000001_Node000003"><a xlink:title=" ">
<path fill="none" stroke="#63b8ff" d="M107.06,-64.25C117.93,-64.25 129.48,-64.25 140.64,-64.25"/>
<polygon fill="#63b8ff" stroke="#63b8ff" points="140.58,-67.75 150.58,-64.25 140.58,-60.75 140.58,-67.75"/>
</a>
</g>
</g>
<!-- Node10 -->
<g id="Node000010" class="node">
<title>Node10</title>
<g id="a_Node000010"><a xlink:href="../../d5/d20/class_observable_executor.html#af1e7364f6d3adc7c9e681e1e8a7329a7" target="_top" xlink:title=" ">
<polygon fill="#fff0f0" stroke="red" points="264.5,-30.5 142.75,-30.5 142.75,0 264.5,0 264.5,-30.5"/>
<text text-anchor="start" x="150.75" y="-17" font-family="Helvetica,sans-Serif" font-size="10.00">ObservableExecutor</text>
<text text-anchor="middle" x="203.62" y="-5.75" font-family="Helvetica,sans-Serif" font-size="10.00">::taskMovedToExecution</text>
</a>
</g>
</g>
<!-- Node1&#45;&gt;Node10 -->
<g id="edge3_Node000001_Node000010" class="edge">
<title>Node1&#45;&gt;Node10</title>
<g id="a_edge3_Node000001_Node000010"><a xlink:title=" ">
<path fill="none" stroke="#63b8ff" d="M101.69,-48.61C115.26,-44.13 130.22,-39.18 144.37,-34.5"/>
<polygon fill="#63b8ff" stroke="#63b8ff" points="145.16,-37.93 153.56,-31.47 142.97,-31.28 145.16,-37.93"/>
</a>
</g>
</g>
</g>
</svg>
