<?xml version="1.0" encoding="UTF-8" standalone="no"?>
<!DOCTYPE svg PUBLIC "-//W3C//DTD SVG 1.1//EN"
 "http://www.w3.org/Graphics/SVG/1.1/DTD/svg11.dtd">
<!-- Generated by graphviz version 12.2.0 (20241103.1931)
 -->
<!-- Title: ContextMenuManager Pages: 1 -->
<!--zoomable 138 -->

<svg id="main" version="1.1" xmlns="http://www.w3.org/2000/svg" xmlns:xlink="http://www.w3.org/1999/xlink" xml:space="preserve" onload="init(evt)">

<style type="text/css"><![CDATA[
.node, .edge {opacity: 0.7;}
.node.selected, .edge.selected {opacity: 1;}
.edge:hover path { stroke: red; }
.edge:hover polygon { stroke: red; fill: red; }
]]></style>

<defs>
  <circle id="rim" cx="0" cy="0" r="7"/>
  <circle id="rim2" cx="0" cy="0" r="3.5"/>
  <g id="zoomPlus">
    <use xlink:href="#rim" fill="#404040"><set attributeName="fill" to="#808080" begin="zoomplus.mouseover" end="zoomplus.mouseout"/></use>
    <path d="M-4,0h8M0,-4v8" fill="none" stroke="white" stroke-width="1.5" pointer-events="none"/>
  </g>
  <g id="zoomMin">
    <use xlink:href="#rim" fill="#404040"><set attributeName="fill" to="#808080" begin="zoomminus.mouseover" end="zoomminus.mouseout"/></use>
    <path d="M-4,0h8" fill="none" stroke="white" stroke-width="1.5" pointer-events="none"/>
  </g>
  <g id="arrowUp" transform="translate(30 24)">
    <use xlink:href="#rim"/>
    <path pointer-events="none" fill="none" stroke="white" stroke-width="1.5" d="M0,-3.0v7 M-2.5,-0.5L0,-3.0L2.5,-0.5"/>
  </g>
  <g id="arrowRight" transform="rotate(90) translate(36 -43)">
    <use xlink:href="#rim"/>
    <path pointer-events="none" fill="none" stroke="white" stroke-width="1.5" d="M0,-3.0v7 M-2.5,-0.5L0,-3.0L2.5,-0.5"/>
  </g>
  <g id="arrowDown" transform="rotate(180) translate(-30 -48)">
    <use xlink:href="#rim"/>
    <path pointer-events="none" fill="none" stroke="white" stroke-width="1.5" d="M0,-3.0v7 M-2.5,-0.5L0,-3.0L2.5,-0.5"/>
  </g>
  <g id="arrowLeft" transform="rotate(270) translate(-36 17)">
    <use xlink:href="#rim"/>
    <path pointer-events="none" fill="none" stroke="white" stroke-width="1.5" d="M0,-3.0v7 M-2.5,-0.5L0,-3.0L2.5,-0.5"/>
  </g>
  <g id="resetDef">
    <use xlink:href="#rim2" fill="#404040"><set attributeName="fill" to="#808080" begin="reset.mouseover" end="reset.mouseout"/></use>
  </g>
</defs>
<script type="application/ecmascript">
var viewWidth = 596;
var viewHeight = 138;
var sectionId = 'dynsection-1';
</script>
<script type="application/ecmascript" xlink:href="../../svg.min.js"/>
<svg id="graph" class="graph">
<g id="viewport">
<title>ContextMenuManager</title>
<!-- Node1 -->
<g id="Node000001" class="node">
<title>Node1</title>
<g id="a_Node000001"><a xlink:title=" ">
<polygon fill="#999999" stroke="#666666" points="304.25,-74.25 193.75,-74.25 193.75,-55 304.25,-55 304.25,-74.25"/>
<text text-anchor="middle" x="249" y="-60.75" font-family="Helvetica,sans-Serif" font-size="10.00">ContextMenuManager</text>
</a>
</g>
</g>
<!-- Node3 -->
<g id="Node000003" class="node">
<title>Node3</title>
<g id="a_Node000003"><a xlink:href="../../d7/dfc/class_gui_1_1_utils_1_1_photo_delta_fetcher_binding.html" target="_top" xlink:title=" ">
<polygon fill="white" stroke="#666666" points="588,-91.12 390.5,-91.12 390.5,-38.12 588,-38.12 588,-91.12"/>
<text text-anchor="start" x="398.5" y="-77.62" font-family="Helvetica,sans-Serif" font-size="10.00">Gui::Utils::PhotoDeltaFetcher</text>
<text text-anchor="start" x="398.5" y="-66.38" font-family="Helvetica,sans-Serif" font-size="10.00">Binding&lt; ContextMenuManager,</text>
<text text-anchor="start" x="398.5" y="-55.12" font-family="Helvetica,sans-Serif" font-size="10.00"> void(ContextMenuManager::*)</text>
<text text-anchor="middle" x="489.25" y="-43.88" font-family="Helvetica,sans-Serif" font-size="10.00">(const std::vector&lt; Photo::DataDelta &gt; &amp;)&gt;</text>
</a>
</g>
</g>
<!-- Node1&#45;&gt;Node3 -->
<g id="edge3_Node000003_Node000001" class="edge">
<title>Node1&#45;&gt;Node3</title>
<g id="a_edge3_Node000003_Node000001"><a xlink:title=" ">
<path fill="none" stroke="#9a32cd" stroke-dasharray="5,2" d="M316.01,-64.62C339,-64.62 365.32,-64.62 390.35,-64.62"/>
<polygon fill="#9a32cd" stroke="#9a32cd" points="316.17,-61.13 306.17,-64.63 316.17,-68.13 316.17,-61.13"/>
</a>
</g>
<text text-anchor="middle" x="347.38" y="-66.38" font-family="Helvetica,sans-Serif" font-size="10.00" fill="grey"> m_receiver</text>
</g>
<!-- Node2 -->
<g id="Node000002" class="node">
<title>Node2</title>
<g id="a_Node000002"><a xlink:title=" ">
<polygon fill="white" stroke="#666666" points="82.38,-130.25 30.38,-130.25 30.38,-111 82.38,-111 82.38,-130.25"/>
<text text-anchor="middle" x="56.38" y="-116.75" font-family="Helvetica,sans-Serif" font-size="10.00">QObject</text>
</a>
</g>
</g>
<!-- Node2&#45;&gt;Node1 -->
<g id="edge1_Node000001_Node000002" class="edge">
<title>Node2&#45;&gt;Node1</title>
<g id="a_edge1_Node000001_Node000002"><a xlink:title=" ">
<path fill="none" stroke="#63b8ff" d="M93.41,-112.45C116.99,-106.87 148.4,-98.99 175.75,-90.62 191.3,-85.87 208.44,-79.74 222.12,-74.63"/>
<polygon fill="#63b8ff" stroke="#63b8ff" points="92.93,-108.97 83.99,-114.66 94.52,-115.79 92.93,-108.97"/>
</a>
</g>
</g>
<!-- Node3&#45;&gt;Node1 -->
<g id="edge2_Node000001_Node000003" class="edge">
<title>Node3&#45;&gt;Node1</title>
<g id="a_edge2_Node000001_Node000003"><a xlink:title=" ">
<path fill="none" stroke="#9a32cd" stroke-dasharray="5,2" d="M378.96,-47.44C360.04,-46.32 340.57,-46.34 322.25,-48.38 310.88,-49.64 298.68,-51.99 287.61,-54.51"/>
<polygon fill="#9a32cd" stroke="#9a32cd" points="378.6,-50.93 388.82,-48.15 379.1,-43.94 378.6,-50.93"/>
</a>
</g>
<text text-anchor="middle" x="347.38" y="-50.12" font-family="Helvetica,sans-Serif" font-size="10.00" fill="grey"> m_fetcher</text>
</g>
<!-- Node4 -->
<g id="Node000004" class="node">
<title>Node4</title>
<g id="a_Node000004"><a xlink:href="../../d4/d3d/class_actions_model.html" target="_top" xlink:title=" ">
<polygon fill="#fff0f0" stroke="red" points="94,-93.25 18.75,-93.25 18.75,-74 94,-74 94,-93.25"/>
<text text-anchor="middle" x="56.38" y="-79.75" font-family="Helvetica,sans-Serif" font-size="10.00">ActionsModel</text>
</a>
</g>
</g>
<!-- Node4&#45;&gt;Node1 -->
<g id="edge4_Node000001_Node000004" class="edge">
<title>Node4&#45;&gt;Node1</title>
<g id="a_edge4_Node000001_Node000004"><a xlink:title=" ">
<path fill="none" stroke="#9a32cd" stroke-dasharray="5,2" d="M105.52,-78.83C132.25,-76.16 165.6,-72.84 193.31,-70.08"/>
<polygon fill="#9a32cd" stroke="#9a32cd" points="105.24,-75.34 95.64,-79.81 105.93,-82.3 105.24,-75.34"/>
</a>
</g>
<text text-anchor="middle" x="153.25" y="-77.58" font-family="Helvetica,sans-Serif" font-size="10.00" fill="grey"> m_model</text>
</g>
<!-- Node7 -->
<g id="Node000007" class="node">
<title>Node7</title>
<g id="a_Node000007"><a xlink:href="../../d9/d6e/class_project.html" target="_top" xlink:title=" ">
<polygon fill="#fff0f0" stroke="red" points="79.75,-56.25 33,-56.25 33,-37 79.75,-37 79.75,-56.25"/>
<text text-anchor="middle" x="56.38" y="-42.75" font-family="Helvetica,sans-Serif" font-size="10.00">Project</text>
</a>
</g>
</g>
<!-- Node7&#45;&gt;Node1 -->
<g id="edge5_Node000001_Node000007" class="edge">
<title>Node7&#45;&gt;Node1</title>
<g id="a_edge5_Node000001_Node000007"><a xlink:title=" ">
<path fill="none" stroke="#9a32cd" stroke-dasharray="5,2" d="M91.37,-46.24C115.09,-46.32 147.44,-47.16 175.75,-50.38 184.52,-51.37 193.8,-52.87 202.7,-54.52"/>
<polygon fill="#9a32cd" stroke="#9a32cd" points="91.66,-42.74 81.66,-46.25 91.67,-49.74 91.66,-42.74"/>
</a>
</g>
<text text-anchor="middle" x="153.25" y="-52.12" font-family="Helvetica,sans-Serif" font-size="10.00" fill="grey"> m_project</text>
</g>
<!-- Node10 -->
<g id="Node000010" class="node">
<title>Node10</title>
<g id="a_Node000010"><a xlink:href="../../d5/da9/struct_i_core_factory_accessor.html" target="_top" xlink:title=" ">
<polygon fill="white" stroke="#666666" points="112.75,-19.25 0,-19.25 0,0 112.75,0 112.75,-19.25"/>
<text text-anchor="middle" x="56.38" y="-5.75" font-family="Helvetica,sans-Serif" font-size="10.00">ICoreFactoryAccessor</text>
</a>
</g>
</g>
<!-- Node10&#45;&gt;Node1 -->
<g id="edge6_Node000001_Node000010" class="edge">
<title>Node10&#45;&gt;Node1</title>
<g id="a_edge6_Node000001_Node000010"><a xlink:title=" ">
<path fill="none" stroke="#9a32cd" stroke-dasharray="5,2" d="M124.13,-19.68C141.16,-22.99 159.29,-27.2 175.75,-32.38 194.36,-38.23 214.55,-47.51 228.85,-54.62"/>
<polygon fill="#9a32cd" stroke="#9a32cd" points="125.1,-16.3 114.62,-17.9 123.81,-23.18 125.1,-16.3"/>
</a>
</g>
<text text-anchor="middle" x="153.25" y="-34.12" font-family="Helvetica,sans-Serif" font-size="10.00" fill="grey"> m_core</text>
</g>
</g>
</svg>

<g id="navigator" transform="translate(0 0)" fill="#404254">
  <rect fill="#f2f5e9" fill-opacity="0.5" stroke="#606060" stroke-width=".5" x="0" y="0" width="60" height="60"/>
  <use id="zoomplus" xlink:href="#zoomPlus" x="17" y="9" onmousedown="handleZoom(evt,'in')"/>
  <use id="zoomminus" xlink:href="#zoomMin" x="42" y="9" onmousedown="handleZoom(evt,'out')"/>
  <use id="reset" xlink:href="#resetDef" x="30" y="36" onmousedown="handleReset()"/>
   <use id="arrowup" xlink:href="#arrowUp" x="0" y="0" onmousedown="handlePan(0,-1)"/>
  <use id="arrowright" xlink:href="#arrowRight" x="0" y="0" onmousedown="handlePan(1,0)"/>
  <use id="arrowdown" xlink:href="#arrowDown" x="0" y="0" onmousedown="handlePan(0,1)"/>
  <use id="arrowleft" xlink:href="#arrowLeft" x="0" y="0" onmousedown="handlePan(-1,0)"/>
</g>
<svg viewBox="0 0 15 15" width="100%" height="30px" preserveAspectRatio="xMaxYMin meet">
 <g id="arrow_out" transform="scale(0.3 0.3)">
  <a xlink:href="class_context_menu_manager__coll__graph_org.svg" target="_base">
   <rect id="button" ry="5" rx="5" y="6" x="6" height="38" width="38"
        fill="#f2f5e9" fill-opacity="0.5" stroke="#606060" stroke-width="1.0"/>
   <path id="arrow"
     d="M 11.500037,31.436501 C 11.940474,20.09759 22.043105,11.32322 32.158766,21.979434 L 37.068811,17.246167 C 37.068811,17.246167 37.088388,32 37.088388,32 L 22.160133,31.978069 C 22.160133,31.978069 26.997745,27.140456 26.997745,27.140456 C 18.528582,18.264221 13.291696,25.230495 11.500037,31.436501 z"
     style="fill:#404040;"/>
  </a>
 </g>
</svg>

<style type='text/css'>
<![CDATA[
[data-mouse-over-selected='false'] { opacity: 0.7; }
[data-mouse-over-selected='true']  { opacity: 1.0; }
]]>
</style>
<script type="application/ecmascript"><![CDATA[
document.addEventListener('DOMContentLoaded', (event) => {
  highlightEdges();
  highlightAdjacentNodes();
});
]]></script>
</svg>
