<?xml version="1.0" encoding="UTF-8" standalone="no"?>
<!DOCTYPE svg PUBLIC "-//W3C//DTD SVG 1.1//EN"
 "http://www.w3.org/Graphics/SVG/1.1/DTD/svg11.dtd">
<!-- Generated by graphviz version 12.2.0 (20241103.1931)
 -->
<!-- Title: src/database/backends/sql_backends/generic_sql_query_constructor.hpp Pages: 1 -->
<svg width="189pt" height="160pt"
 viewBox="0.00 0.00 188.75 160.25" xmlns="http://www.w3.org/2000/svg" xmlns:xlink="http://www.w3.org/1999/xlink">
<g id="graph0" class="graph" transform="scale(1 1) rotate(0) translate(4 156.25)">
<title>src/database/backends/sql_backends/generic_sql_query_constructor.hpp</title>
<!-- Node1 -->
<g id="Node000001" class="node">
<title>Node1</title>
<g id="a_Node000001"><a xlink:title=" ">
<polygon fill="#999999" stroke="#666666" points="180,-152.25 45.5,-152.25 45.5,-110.5 180,-110.5 180,-152.25"/>
<text text-anchor="start" x="53.5" y="-138.75" font-family="Helvetica,sans-Serif" font-size="10.00">src/database/backends</text>
<text text-anchor="start" x="53.5" y="-127.5" font-family="Helvetica,sans-Serif" font-size="10.00">/sql_backends/generic</text>
<text text-anchor="middle" x="112.75" y="-116.25" font-family="Helvetica,sans-Serif" font-size="10.00">_sql_query_constructor.hpp</text>
</a>
</g>
</g>
<!-- Node2 -->
<g id="Node000002" class="node">
<title>Node2</title>
<g id="a_Node000002"><a xlink:href="../../dc/d48/isql__query__constructor_8hpp.html" target="_top" xlink:title=" ">
<polygon fill="#fff0f0" stroke="red" points="131.5,-74.5 0,-74.5 0,-55.25 131.5,-55.25 131.5,-74.5"/>
<text text-anchor="middle" x="65.75" y="-61" font-family="Helvetica,sans-Serif" font-size="10.00">isql_query_constructor.hpp</text>
</a>
</g>
</g>
<!-- Node1&#45;&gt;Node2 -->
<g id="edge1_Node000001_Node000002" class="edge">
<title>Node1&#45;&gt;Node2</title>
<g id="a_edge1_Node000001_Node000002"><a xlink:title=" ">
<path fill="none" stroke="#63b8ff" d="M98.14,-110.32C92.01,-101.91 84.93,-92.2 78.96,-84"/>
<polygon fill="#63b8ff" stroke="#63b8ff" points="81.97,-82.19 73.25,-76.17 76.31,-86.31 81.97,-82.19"/>
</a>
</g>
</g>
<!-- Node6 -->
<g id="Node000006" class="node">
<title>Node6</title>
<g id="a_Node000006"><a xlink:title=" ">
<polygon fill="#e0e0e0" stroke="#999999" points="180.75,-19.25 44.75,-19.25 44.75,0 180.75,0 180.75,-19.25"/>
<text text-anchor="middle" x="112.75" y="-5.75" font-family="Helvetica,sans-Serif" font-size="10.00">sql_backend_base_export.h</text>
</a>
</g>
</g>
<!-- Node1&#45;&gt;Node6 -->
<g id="edge3_Node000001_Node000006" class="edge">
<title>Node1&#45;&gt;Node6</title>
<g id="a_edge3_Node000001_Node000006"><a xlink:title=" ">
<path fill="none" stroke="#63b8ff" d="M127.71,-110.25C137,-95.28 146.22,-74.24 140.75,-55.25 138.01,-45.72 132.56,-36.25 127.2,-28.51"/>
<polygon fill="#63b8ff" stroke="#63b8ff" points="130.12,-26.58 121.33,-20.67 124.52,-30.77 130.12,-26.58"/>
</a>
</g>
</g>
<!-- Node2&#45;&gt;Node6 -->
<g id="edge2_Node000002_Node000006" class="edge">
<title>Node2&#45;&gt;Node6</title>
<g id="a_edge2_Node000002_Node000006"><a xlink:title=" ">
<path fill="none" stroke="#63b8ff" d="M73.51,-55.08C79.94,-47.8 89.26,-37.23 97.21,-28.23"/>
<polygon fill="#63b8ff" stroke="#63b8ff" points="99.83,-30.56 103.82,-20.74 94.58,-25.93 99.83,-30.56"/>
</a>
</g>
</g>
</g>
</svg>
