<?xml version="1.0" encoding="UTF-8" standalone="no"?>
<!DOCTYPE svg PUBLIC "-//W3C//DTD SVG 1.1//EN"
 "http://www.w3.org/Graphics/SVG/1.1/DTD/svg11.dtd">
<!-- Generated by graphviz version 12.2.0 (20241103.1931)
 -->
<!-- Title: src/gui/desktop/utils/photos_collector.cpp Pages: 1 -->
<svg width="824pt" height="105pt"
 viewBox="0.00 0.00 824.12 105.00" xmlns="http://www.w3.org/2000/svg" xmlns:xlink="http://www.w3.org/1999/xlink">
<g id="graph0" class="graph" transform="scale(1 1) rotate(0) translate(4 101)">
<title>src/gui/desktop/utils/photos_collector.cpp</title>
<!-- Node1 -->
<g id="Node000001" class="node">
<title>Node1</title>
<g id="a_Node000001"><a xlink:title=" ">
<polygon fill="#999999" stroke="#666666" points="406.75,-97 298.5,-97 298.5,-66.5 406.75,-66.5 406.75,-97"/>
<text text-anchor="start" x="306.5" y="-83.5" font-family="Helvetica,sans-Serif" font-size="10.00">src/gui/desktop/utils</text>
<text text-anchor="middle" x="352.62" y="-72.25" font-family="Helvetica,sans-Serif" font-size="10.00">/photos_collector.cpp</text>
</a>
</g>
</g>
<!-- Node2 -->
<g id="Node000002" class="node">
<title>Node2</title>
<g id="a_Node000002"><a xlink:href="../../d6/d50/photos__collector_8hpp.html" target="_top" xlink:title=" ">
<polygon fill="#fff0f0" stroke="red" points="105.25,-24.88 0,-24.88 0,-5.63 105.25,-5.63 105.25,-24.88"/>
<text text-anchor="middle" x="52.62" y="-11.38" font-family="Helvetica,sans-Serif" font-size="10.00">photos_collector.hpp</text>
</a>
</g>
</g>
<!-- Node1&#45;&gt;Node2 -->
<g id="edge1_Node000001_Node000002" class="edge">
<title>Node1&#45;&gt;Node2</title>
<g id="a_edge1_Node000001_Node000002"><a xlink:title=" ">
<path fill="none" stroke="#63b8ff" d="M298.21,-69.55C249.94,-59.54 177.52,-44.37 114.62,-30.5 110.79,-29.65 106.82,-28.77 102.83,-27.87"/>
<polygon fill="#63b8ff" stroke="#63b8ff" points="103.63,-24.46 93.1,-25.66 102.08,-31.29 103.63,-24.46"/>
</a>
</g>
</g>
<!-- Node10 -->
<g id="Node000010" class="node">
<title>Node10</title>
<g id="a_Node000010"><a xlink:title=" ">
<polygon fill="#e0e0e0" stroke="#999999" points="171.75,-24.88 123.5,-24.88 123.5,-5.63 171.75,-5.63 171.75,-24.88"/>
<text text-anchor="middle" x="147.62" y="-11.38" font-family="Helvetica,sans-Serif" font-size="10.00">cassert</text>
</a>
</g>
</g>
<!-- Node1&#45;&gt;Node10 -->
<g id="edge2_Node000001_Node000010" class="edge">
<title>Node1&#45;&gt;Node10</title>
<g id="a_edge2_Node000001_Node000010"><a xlink:title=" ">
<path fill="none" stroke="#63b8ff" d="M298.23,-66.71C264.12,-57.45 219.4,-44.48 180.62,-30.5 179.67,-30.16 178.71,-29.8 177.74,-29.43"/>
<polygon fill="#63b8ff" stroke="#63b8ff" points="179.35,-26.31 168.76,-25.81 176.73,-32.8 179.35,-26.31"/>
</a>
</g>
</g>
<!-- Node11 -->
<g id="Node000011" class="node">
<title>Node11</title>
<g id="a_Node000011"><a xlink:href="../../d3/d5c/file__analyzer_8hpp.html" target="_top" xlink:title=" ">
<polygon fill="#fff0f0" stroke="red" points="325.25,-30.5 190,-30.5 190,0 325.25,0 325.25,-30.5"/>
<text text-anchor="start" x="198" y="-17" font-family="Helvetica,sans-Serif" font-size="10.00">photos_crawler/default</text>
<text text-anchor="middle" x="257.62" y="-5.75" font-family="Helvetica,sans-Serif" font-size="10.00">_analyzers/file_analyzer.hpp</text>
</a>
</g>
</g>
<!-- Node1&#45;&gt;Node11 -->
<g id="edge3_Node000001_Node000011" class="edge">
<title>Node1&#45;&gt;Node11</title>
<g id="a_edge3_Node000001_Node000011"><a xlink:title=" ">
<path fill="none" stroke="#63b8ff" d="M331.07,-66.11C318.44,-57.54 302.27,-46.56 288.33,-37.09"/>
<polygon fill="#63b8ff" stroke="#63b8ff" points="290.59,-34.4 280.35,-31.68 286.66,-40.19 290.59,-34.4"/>
</a>
</g>
</g>
<!-- Node13 -->
<g id="Node000013" class="node">
<title>Node13</title>
<g id="a_Node000013"><a xlink:href="../../d6/d00/filesystemscanner_8hpp.html" target="_top" xlink:title=" ">
<polygon fill="#fff0f0" stroke="red" points="552,-30.5 343.25,-30.5 343.25,0 552,0 552,-30.5"/>
<text text-anchor="start" x="351.25" y="-17" font-family="Helvetica,sans-Serif" font-size="10.00">photos_crawler/default</text>
<text text-anchor="middle" x="447.62" y="-5.75" font-family="Helvetica,sans-Serif" font-size="10.00">_filesystem_scanners/filesystemscanner.hpp</text>
</a>
</g>
</g>
<!-- Node1&#45;&gt;Node13 -->
<g id="edge4_Node000001_Node000013" class="edge">
<title>Node1&#45;&gt;Node13</title>
<g id="a_edge4_Node000001_Node000013"><a xlink:title=" ">
<path fill="none" stroke="#63b8ff" d="M374.18,-66.11C386.81,-57.54 402.98,-46.56 416.92,-37.09"/>
<polygon fill="#63b8ff" stroke="#63b8ff" points="418.59,-40.19 424.9,-31.68 414.66,-34.4 418.59,-40.19"/>
</a>
</g>
</g>
<!-- Node16 -->
<g id="Node000016" class="node">
<title>Node16</title>
<g id="a_Node000016"><a xlink:href="../../d1/d8e/project_8hpp.html" target="_top" xlink:title=" ">
<polygon fill="#fff0f0" stroke="red" points="689,-24.88 570.25,-24.88 570.25,-5.63 689,-5.63 689,-24.88"/>
<text text-anchor="middle" x="629.62" y="-11.38" font-family="Helvetica,sans-Serif" font-size="10.00">project_utils/project.hpp</text>
</a>
</g>
</g>
<!-- Node1&#45;&gt;Node16 -->
<g id="edge5_Node000001_Node000016" class="edge">
<title>Node1&#45;&gt;Node16</title>
<g id="a_edge5_Node000001_Node000016"><a xlink:title=" ">
<path fill="none" stroke="#63b8ff" d="M407.02,-68.08C457.05,-56.43 530.65,-39.3 579.34,-27.96"/>
<polygon fill="#63b8ff" stroke="#63b8ff" points="580.12,-31.37 589.07,-25.69 578.53,-24.55 580.12,-31.37"/>
</a>
</g>
</g>
<!-- Node59 -->
<g id="Node000059" class="node">
<title>Node59</title>
<g id="a_Node000059"><a xlink:href="../../d4/dba/photo__crawler_8hpp.html" target="_top" xlink:title=" ">
<polygon fill="#fff0f0" stroke="red" points="816.12,-30.5 707.12,-30.5 707.12,0 816.12,0 816.12,-30.5"/>
<text text-anchor="start" x="715.12" y="-17" font-family="Helvetica,sans-Serif" font-size="10.00">photos_crawler/photo</text>
<text text-anchor="middle" x="761.62" y="-5.75" font-family="Helvetica,sans-Serif" font-size="10.00">_crawler.hpp</text>
</a>
</g>
</g>
<!-- Node1&#45;&gt;Node59 -->
<g id="edge6_Node000001_Node000059" class="edge">
<title>Node1&#45;&gt;Node59</title>
<g id="a_edge6_Node000001_Node000059"><a xlink:title=" ">
<path fill="none" stroke="#63b8ff" d="M407.21,-74.08C473.13,-65.73 587.61,-50.34 695.75,-30.76"/>
<polygon fill="#63b8ff" stroke="#63b8ff" points="696.17,-34.24 705.38,-29 694.91,-27.35 696.17,-34.24"/>
</a>
</g>
</g>
</g>
</svg>
