<?xml version="1.0" encoding="UTF-8" standalone="no"?>
<!DOCTYPE svg PUBLIC "-//W3C//DTD SVG 1.1//EN"
 "http://www.w3.org/Graphics/SVG/1.1/DTD/svg11.dtd">
<!-- Generated by graphviz version 9.0.0 (20230911.1827)
 -->
<!-- Title: qimage_to_dlib_matrix Pages: 1 -->
<svg width="348pt" height="267pt"
 viewBox="0.00 0.00 347.50 267.12" xmlns="http://www.w3.org/2000/svg" xmlns:xlink="http://www.w3.org/1999/xlink">

<svg id="main" version="1.1" xmlns="http://www.w3.org/2000/svg" xmlns:xlink="http://www.w3.org/1999/xlink" xml:space="preserve" onload="init(evt)">
<style type="text/css"><![CDATA[
.node, .edge {opacity: 0.7;}
.node.selected, .edge.selected {opacity: 1;}
.edge:hover path { stroke: red; }
.edge:hover polygon { stroke: red; fill: red; }
]]></style>
<script type="application/ecmascript" xlink:href="../../svg.min.js"/>
<svg id="graph" class="graph">
<g id="graph0" class="graph" transform="scale(1 1) rotate(0) translate(4 263.12)">
<title>qimage_to_dlib_matrix</title>
<!-- Node1 -->
<g id="Node000001" class="node">
<title>Node1</title>
<g id="a_Node000001"><a xlink:title=" ">
<polygon fill="#999999" stroke="#666666" points="339.5,-127.88 226.75,-127.88 226.75,-108.62 339.5,-108.62 339.5,-127.88"/>
<text text-anchor="middle" x="283.12" y="-114.38" font-family="Helvetica,sans-Serif" font-size="10.00">qimage_to_dlib_matrix</text>
</a>
</g>
</g>
<!-- Node2 -->
<g id="Node000002" class="node">
<title>Node2</title>
<g id="a_Node000002"><a xlink:href="../../d5/dae/classdlib__api_1_1face__recognition__model__v1.html#ace66074c8c9609e17033890575f8818c" target="_top" xlink:title=" ">
<polygon fill="#fff0f0" stroke="red" points="162.62,-259.12 28.12,-259.12 28.12,-217.38 162.62,-217.38 162.62,-259.12"/>
<text text-anchor="start" x="36.12" y="-245.62" font-family="Helvetica,sans-Serif" font-size="10.00">dlib_api::face_recognition</text>
<text text-anchor="start" x="36.12" y="-234.38" font-family="Helvetica,sans-Serif" font-size="10.00">_model_v1::batch_compute</text>
<text text-anchor="middle" x="95.38" y="-223.12" font-family="Helvetica,sans-Serif" font-size="10.00">_face_descriptors</text>
</a>
</g>
</g>
<!-- Node1&#45;&gt;Node2 -->
<g id="edge1_Node000001_Node000002" class="edge">
<title>Node1&#45;&gt;Node2</title>
<g id="a_edge1_Node000001_Node000002"><a xlink:title=" ">
<path fill="none" stroke="#63b8ff" d="M267.62,-137.09C251.07,-157.37 222.21,-189.27 190.75,-208.25 182.21,-213.4 172.7,-217.76 163.09,-221.42"/>
<polygon fill="#63b8ff" stroke="#63b8ff" points="270.28,-139.36 273.77,-129.36 264.81,-135 270.28,-139.36"/>
</a>
</g>
</g>
<!-- Node5 -->
<g id="Node000005" class="node">
<title>Node5</title>
<g id="a_Node000005"><a xlink:href="../../d5/dae/classdlib__api_1_1face__recognition__model__v1.html#a483b4733076576e482aaadab915b3d9e" target="_top" xlink:title=" ">
<polygon fill="#fff0f0" stroke="red" points="190.75,-199.12 0,-199.12 0,-157.38 190.75,-157.38 190.75,-199.12"/>
<text text-anchor="start" x="8" y="-185.62" font-family="Helvetica,sans-Serif" font-size="10.00">dlib_api::face_recognition</text>
<text text-anchor="start" x="8" y="-174.38" font-family="Helvetica,sans-Serif" font-size="10.00">_model_v1::batch_compute</text>
<text text-anchor="middle" x="95.38" y="-163.12" font-family="Helvetica,sans-Serif" font-size="10.00">_face_descriptors_from_aligned_images</text>
</a>
</g>
</g>
<!-- Node1&#45;&gt;Node5 -->
<g id="edge2_Node000001_Node000005" class="edge">
<title>Node1&#45;&gt;Node5</title>
<g id="a_edge2_Node000001_Node000005"><a xlink:title=" ">
<path fill="none" stroke="#63b8ff" d="M240.76,-131.92C225.1,-137.07 207.11,-142.96 190.75,-148.25 182,-151.08 172.78,-154.03 163.68,-156.94"/>
<polygon fill="#63b8ff" stroke="#63b8ff" points="241.85,-135.25 250.25,-128.8 239.66,-128.6 241.85,-135.25"/>
</a>
</g>
</g>
<!-- Node7 -->
<g id="Node000007" class="node">
<title>Node7</title>
<g id="a_Node000007"><a xlink:href="../../d3/d3e/classdlib__api_1_1cnn__face__detection__model__v1.html#a749f53ab85e799fe1918ccf0eb01f282" target="_top" xlink:title=" ">
<polygon fill="white" stroke="#666666" points="149.5,-139.12 41.25,-139.12 41.25,-97.38 149.5,-97.38 149.5,-139.12"/>
<text text-anchor="start" x="49.25" y="-125.62" font-family="Helvetica,sans-Serif" font-size="10.00">dlib_api::cnn_face</text>
<text text-anchor="start" x="49.25" y="-114.38" font-family="Helvetica,sans-Serif" font-size="10.00">_detection_model_v1</text>
<text text-anchor="middle" x="95.38" y="-103.12" font-family="Helvetica,sans-Serif" font-size="10.00">::detect</text>
</a>
</g>
</g>
<!-- Node1&#45;&gt;Node7 -->
<g id="edge3_Node000001_Node000007" class="edge">
<title>Node1&#45;&gt;Node7</title>
<g id="a_edge3_Node000001_Node000007"><a xlink:title=" ">
<path fill="none" stroke="#63b8ff" d="M215.05,-118.25C193.61,-118.25 170.17,-118.25 149.83,-118.25"/>
<polygon fill="#63b8ff" stroke="#63b8ff" points="214.88,-121.75 224.88,-118.25 214.88,-114.75 214.88,-121.75"/>
</a>
</g>
</g>
<!-- Node8 -->
<g id="Node000008" class="node">
<title>Node8</title>
<g id="a_Node000008"><a xlink:href="../../d6/d92/classdlib__api_1_1_face_encoder.html#af1632981b17255233c575e6580b64630" target="_top" xlink:title=" ">
<polygon fill="#fff0f0" stroke="red" points="150.62,-79.5 40.12,-79.5 40.12,-49 150.62,-49 150.62,-79.5"/>
<text text-anchor="start" x="48.12" y="-66" font-family="Helvetica,sans-Serif" font-size="10.00">dlib_api::FaceEncoder</text>
<text text-anchor="middle" x="95.38" y="-54.75" font-family="Helvetica,sans-Serif" font-size="10.00">::face_encodings</text>
</a>
</g>
</g>
<!-- Node1&#45;&gt;Node8 -->
<g id="edge4_Node000001_Node000008" class="edge">
<title>Node1&#45;&gt;Node8</title>
<g id="a_edge4_Node000001_Node000008"><a xlink:title=" ">
<path fill="none" stroke="#63b8ff" d="M242.48,-104.58C226.48,-99.24 207.81,-93.21 190.75,-88.25 177.93,-84.52 164.03,-80.81 150.94,-77.45"/>
<polygon fill="#63b8ff" stroke="#63b8ff" points="241.04,-107.79 251.63,-107.66 243.27,-101.15 241.04,-107.79"/>
</a>
</g>
</g>
<!-- Node11 -->
<g id="Node000011" class="node">
<title>Node11</title>
<g id="a_Node000011"><a xlink:href="../../d7/d20/classdlib__api_1_1_face_locator.html#a934b8b06be2245c9bf01490156088e85" target="_top" xlink:title=" ">
<polygon fill="#fff0f0" stroke="red" points="149.5,-30.5 41.25,-30.5 41.25,0 149.5,0 149.5,-30.5"/>
<text text-anchor="start" x="49.25" y="-17" font-family="Helvetica,sans-Serif" font-size="10.00">dlib_api::FaceLocator</text>
<text text-anchor="middle" x="95.38" y="-5.75" font-family="Helvetica,sans-Serif" font-size="10.00">::face_locations_hog</text>
</a>
</g>
</g>
<!-- Node1&#45;&gt;Node11 -->
<g id="edge5_Node000001_Node000011" class="edge">
<title>Node1&#45;&gt;Node11</title>
<g id="a_edge5_Node000001_Node000011"><a xlink:title=" ">
<path fill="none" stroke="#63b8ff" d="M265.91,-100.34C248.86,-82.57 220.44,-55.81 190.75,-40.25 178.14,-33.64 163.64,-28.68 149.86,-24.99"/>
<polygon fill="#63b8ff" stroke="#63b8ff" points="262.89,-102.24 272.28,-107.15 268,-97.46 262.89,-102.24"/>
</a>
</g>
</g>
</g>
</svg>
</svg>

<style type='text/css'>
<![CDATA[
[data-mouse-over-selected='false'] { opacity: 0.7; }
[data-mouse-over-selected='true']  { opacity: 1.0; }
]]>
</style>
<script type="application/ecmascript"><![CDATA[
document.addEventListener('DOMContentLoaded', (event) => {
  highlightEdges();
  highlightAdjacentNodes();
});
]]></script>
</svg>
