<?xml version="1.0" encoding="UTF-8" standalone="no"?>
<!DOCTYPE svg PUBLIC "-//W3C//DTD SVG 1.1//EN"
 "http://www.w3.org/Graphics/SVG/1.1/DTD/svg11.dtd">
<!-- Generated by graphviz version 9.0.0 (20230911.1827)
 -->
<!-- Title: src/database/database_tools/implementation/id_to_data_converter.cpp Pages: 1 -->
<svg width="306pt" height="160pt"
 viewBox="0.00 0.00 306.00 160.25" xmlns="http://www.w3.org/2000/svg" xmlns:xlink="http://www.w3.org/1999/xlink">
<g id="graph0" class="graph" transform="scale(1 1) rotate(0) translate(4 156.25)">
<title>src/database/database_tools/implementation/id_to_data_converter.cpp</title>
<!-- Node1 -->
<g id="Node000001" class="node">
<title>Node1</title>
<g id="a_Node000001"><a xlink:title=" ">
<polygon fill="#999999" stroke="#666666" points="224,-152.25 96.25,-152.25 96.25,-110.5 224,-110.5 224,-152.25"/>
<text text-anchor="start" x="104.25" y="-138.75" font-family="Helvetica,sans-Serif" font-size="10.00">src/database/database</text>
<text text-anchor="start" x="104.25" y="-127.5" font-family="Helvetica,sans-Serif" font-size="10.00">_tools/implementation</text>
<text text-anchor="middle" x="160.12" y="-116.25" font-family="Helvetica,sans-Serif" font-size="10.00">/id_to_data_converter.cpp</text>
</a>
</g>
</g>
<!-- Node2 -->
<g id="Node000002" class="node">
<title>Node2</title>
<g id="a_Node000002"><a xlink:href="../../dc/d99/id__to__data__converter_8hpp.html" target="_top" xlink:title=" ">
<polygon fill="#fff0f0" stroke="red" points="132.25,-74.5 0,-74.5 0,-55.25 132.25,-55.25 132.25,-74.5"/>
<text text-anchor="middle" x="66.12" y="-61" font-family="Helvetica,sans-Serif" font-size="10.00">../id_to_data_converter.hpp</text>
</a>
</g>
</g>
<!-- Node1&#45;&gt;Node2 -->
<g id="edge1_Node000001_Node000002" class="edge">
<title>Node1&#45;&gt;Node2</title>
<g id="a_edge1_Node000001_Node000002"><a xlink:title=" ">
<path fill="none" stroke="#63b8ff" d="M130.64,-110.14C117.05,-100.82 101.17,-89.92 88.57,-81.27"/>
<polygon fill="#63b8ff" stroke="#63b8ff" points="90.74,-78.52 80.52,-75.75 86.78,-84.29 90.74,-78.52"/>
</a>
</g>
</g>
<!-- Node12 -->
<g id="Node000012" class="node">
<title>Node12</title>
<g id="a_Node000012"><a xlink:href="../../db/d39/photo__data_8hpp.html" target="_top" xlink:title=" ">
<polygon fill="#fff0f0" stroke="red" points="175.5,-19.25 50.75,-19.25 50.75,0 175.5,0 175.5,-19.25"/>
<text text-anchor="middle" x="113.12" y="-5.75" font-family="Helvetica,sans-Serif" font-size="10.00">database/photo_data.hpp</text>
</a>
</g>
</g>
<!-- Node1&#45;&gt;Node12 -->
<g id="edge4_Node000001_Node000012" class="edge">
<title>Node1&#45;&gt;Node12</title>
<g id="a_edge4_Node000001_Node000012"><a xlink:title=" ">
<path fill="none" stroke="#63b8ff" d="M156.77,-110.05C153.8,-94.61 148.74,-73.06 141.12,-55.25 137.27,-46.23 131.73,-36.94 126.59,-29.18"/>
<polygon fill="#63b8ff" stroke="#63b8ff" points="129.47,-27.19 120.9,-20.97 123.72,-31.18 129.47,-27.19"/>
</a>
</g>
</g>
<!-- Node52 -->
<g id="Node000052" class="node">
<title>Node52</title>
<g id="a_Node000052"><a xlink:title=" ">
<polygon fill="#e0e0e0" stroke="#999999" points="298,-74.5 188.25,-74.5 188.25,-55.25 298,-55.25 298,-74.5"/>
<text text-anchor="middle" x="243.12" y="-61" font-family="Helvetica,sans-Serif" font-size="10.00">QItemSelectionModel</text>
</a>
</g>
</g>
<!-- Node1&#45;&gt;Node52 -->
<g id="edge3_Node000001_Node000052" class="edge">
<title>Node1&#45;&gt;Node52</title>
<g id="a_edge3_Node000001_Node000052"><a xlink:title=" ">
<path fill="none" stroke="#63b8ff" d="M185.93,-110.32C197.71,-101.17 211.47,-90.48 222.53,-81.88"/>
<polygon fill="#63b8ff" stroke="#63b8ff" points="224.51,-84.77 230.26,-75.87 220.21,-79.25 224.51,-84.77"/>
</a>
</g>
</g>
<!-- Node2&#45;&gt;Node12 -->
<g id="edge2_Node000002_Node000012" class="edge">
<title>Node2&#45;&gt;Node12</title>
<g id="a_edge2_Node000002_Node000012"><a xlink:title=" ">
<path fill="none" stroke="#63b8ff" d="M73.89,-55.08C80.31,-47.8 89.64,-37.23 97.59,-28.23"/>
<polygon fill="#63b8ff" stroke="#63b8ff" points="100.2,-30.56 104.19,-20.74 94.95,-25.93 100.2,-30.56"/>
</a>
</g>
</g>
</g>
</svg>
