<?xml version="1.0" encoding="UTF-8" standalone="no"?>
<!DOCTYPE svg PUBLIC "-//W3C//DTD SVG 1.1//EN"
 "http://www.w3.org/Graphics/SVG/1.1/DTD/svg11.dtd">
<!-- Generated by graphviz version 7.0.5 (20221223.1930)
 -->
<!-- Title: FileSystemScanner::scan Pages: 1 -->
<svg width="277pt" height="51pt"
 viewBox="0.00 0.00 277.00 50.50" xmlns="http://www.w3.org/2000/svg" xmlns:xlink="http://www.w3.org/1999/xlink">
<g id="graph0" class="graph" transform="scale(1 1) rotate(0) translate(4 46.5)">
<title>FileSystemScanner::scan</title>
<!-- Node1 -->
<g id="node1" class="node">
<title>Node1</title>
<g id="a_node1"><a xlink:title=" ">
<polygon fill="#999999" stroke="#666666" points="269,-24.5 142,-24.5 142,-5.5 269,-5.5 269,-24.5"/>
<text text-anchor="middle" x="205.5" y="-12.5" font-family="Helvetica,sans-Serif" font-size="10.00">FileSystemScanner::scan</text>
</a>
</g>
</g>
<!-- Node1&#45;&gt;Node1 -->
<g id="edge2" class="edge">
<title>Node1&#45;&gt;Node1</title>
<path fill="none" stroke="#63b8ff" d="M232.84,-35.6C229.69,-39.63 220.58,-42.5 205.5,-42.5 178.69,-42.5 170.74,-33.44 181.63,-24.87"/>
<polygon fill="#63b8ff" stroke="#63b8ff" points="236.25,-34.75 229.84,-26.31 229.59,-36.9 236.25,-34.75"/>
</g>
<!-- Node2 -->
<g id="node2" class="node">
<title>Node2</title>
<g id="a_node2"><a xlink:href="../../d0/d70/class_file_system_scanner.html#a18a257ec15ec3830de7c39f4a30efb26" target="_top" xlink:title=" ">
<polygon fill="white" stroke="#666666" points="106,-30 0,-30 0,0 106,0 106,-30"/>
<text text-anchor="start" x="8" y="-18" font-family="Helvetica,sans-Serif" font-size="10.00">FileSystemScanner::</text>
<text text-anchor="middle" x="53" y="-7" font-family="Helvetica,sans-Serif" font-size="10.00">getFilesFor</text>
</a>
</g>
</g>
<!-- Node1&#45;&gt;Node2 -->
<g id="edge1" class="edge">
<title>Node1&#45;&gt;Node2</title>
<path fill="none" stroke="#63b8ff" d="M130.16,-15C122.07,-15 113.97,-15 106.22,-15"/>
<polygon fill="#63b8ff" stroke="#63b8ff" points="130.03,-18.5 140.03,-15 130.03,-11.5 130.03,-18.5"/>
</g>
</g>
</svg>
