<?xml version="1.0" encoding="UTF-8" standalone="no"?>
<!DOCTYPE svg PUBLIC "-//W3C//DTD SVG 1.1//EN"
 "http://www.w3.org/Graphics/SVG/1.1/DTD/svg11.dtd">
<!-- Generated by graphviz version 9.0.0 (20230911.1827)
 -->
<!-- Title: MainWindow Pages: 1 -->
<svg width="418pt" height="402pt"
 viewBox="0.00 0.00 417.75 401.66" xmlns="http://www.w3.org/2000/svg" xmlns:xlink="http://www.w3.org/1999/xlink">

<svg id="main" version="1.1" xmlns="http://www.w3.org/2000/svg" xmlns:xlink="http://www.w3.org/1999/xlink" xml:space="preserve" onload="init(evt)">
<style type="text/css"><![CDATA[
.node, .edge {opacity: 0.7;}
.node.selected, .edge.selected {opacity: 1;}
.edge:hover path { stroke: red; }
.edge:hover polygon { stroke: red; fill: red; }
]]></style>
<script type="application/ecmascript" xlink:href="../../svg.min.js"/>
<svg id="graph" class="graph">
<g id="graph0" class="graph" transform="scale(1 1) rotate(0) translate(4 397.66)">
<title>MainWindow</title>
<!-- Node1 -->
<g id="Node000001" class="node">
<title>Node1</title>
<g id="a_Node000001"><a xlink:title=" ">
<polygon fill="#999999" stroke="#666666" points="409.75,-206.79 338.25,-206.79 338.25,-187.54 409.75,-187.54 409.75,-206.79"/>
<text text-anchor="middle" x="374" y="-193.29" font-family="Helvetica,sans-Serif" font-size="10.00">MainWindow</text>
</a>
</g>
</g>
<!-- Node2 -->
<g id="Node000002" class="node">
<title>Node2</title>
<g id="a_Node000002"><a xlink:title=" ">
<polygon fill="white" stroke="#666666" points="52,-354.79 0,-354.79 0,-335.54 52,-335.54 52,-354.79"/>
<text text-anchor="middle" x="26" y="-341.29" font-family="Helvetica,sans-Serif" font-size="10.00">QObject</text>
</a>
</g>
</g>
<!-- Node2&#45;&gt;Node1 -->
<g id="edge1_Node000001_Node000002" class="edge">
<title>Node2&#45;&gt;Node1</title>
<g id="a_edge1_Node000001_Node000002"><a xlink:title=" ">
<path fill="none" stroke="#63b8ff" d="M59.65,-359.52C118.2,-382.82 242.17,-420.78 320.25,-363.16 371.59,-325.27 374.13,-237.07 373.44,-207.23"/>
<polygon fill="#63b8ff" stroke="#63b8ff" points="61.16,-356.36 50.58,-355.8 58.51,-362.83 61.16,-356.36"/>
</a>
</g>
</g>
<!-- Node12 -->
<g id="Node000012" class="node">
<title>Node12</title>
<g id="a_Node000012"><a xlink:href="../../d6/d62/class_completer_factory.html" target="_top" xlink:title="Factory for QCompleters.">
<polygon fill="#fff0f0" stroke="red" points="191.62,-354.79 99.12,-354.79 99.12,-335.54 191.62,-335.54 191.62,-354.79"/>
<text text-anchor="middle" x="145.38" y="-341.29" font-family="Helvetica,sans-Serif" font-size="10.00">CompleterFactory</text>
</a>
</g>
</g>
<!-- Node2&#45;&gt;Node12 -->
<g id="edge10_Node000012_Node000002" class="edge">
<title>Node2&#45;&gt;Node12</title>
<g id="a_edge10_Node000012_Node000002"><a xlink:title=" ">
<path fill="none" stroke="#63b8ff" d="M63.63,-345.16C74.85,-345.16 87.34,-345.16 99.08,-345.16"/>
<polygon fill="#63b8ff" stroke="#63b8ff" points="63.98,-341.66 53.98,-345.16 63.98,-348.66 63.98,-341.66"/>
</a>
</g>
</g>
<!-- Node23 -->
<g id="Node000023" class="node">
<title>Node23</title>
<g id="a_Node000023"><a xlink:href="../../dd/dde/class_features_observer.html" target="_top" xlink:title=" ">
<polygon fill="#fff0f0" stroke="red" points="192.38,-317.79 98.38,-317.79 98.38,-298.54 192.38,-298.54 192.38,-317.79"/>
<text text-anchor="middle" x="145.38" y="-304.29" font-family="Helvetica,sans-Serif" font-size="10.00">FeaturesObserver</text>
</a>
</g>
</g>
<!-- Node2&#45;&gt;Node23 -->
<g id="edge13_Node000023_Node000002" class="edge">
<title>Node2&#45;&gt;Node23</title>
<g id="a_edge13_Node000023_Node000002"><a xlink:title=" ">
<path fill="none" stroke="#63b8ff" d="M63.42,-333.68C79.19,-328.71 97.47,-322.95 112.67,-318.16"/>
<polygon fill="#63b8ff" stroke="#63b8ff" points="62.4,-330.33 53.91,-336.68 64.5,-337.01 62.4,-330.33"/>
</a>
</g>
</g>
<!-- Node3 -->
<g id="Node000003" class="node">
<title>Node3</title>
<g id="a_Node000003"><a xlink:href="../../da/dbc/class_tasks_model.html" target="_top" xlink:title=" ">
<polygon fill="#fff0f0" stroke="red" points="180,-280.79 110.75,-280.79 110.75,-261.54 180,-261.54 180,-280.79"/>
<text text-anchor="middle" x="145.38" y="-267.29" font-family="Helvetica,sans-Serif" font-size="10.00">TasksModel</text>
</a>
</g>
</g>
<!-- Node3&#45;&gt;Node1 -->
<g id="edge2_Node000001_Node000003" class="edge">
<title>Node3&#45;&gt;Node1</title>
<g id="a_edge2_Node000001_Node000003"><a xlink:title=" ">
<path fill="none" stroke="#9a32cd" stroke-dasharray="5,2" d="M191.47,-269.78C227.74,-267.2 279.23,-260.13 320.25,-241.16 338,-232.95 354.66,-217.21 364.34,-206.95"/>
<polygon fill="#9a32cd" stroke="#9a32cd" points="191.54,-266.27 181.78,-270.38 191.97,-273.26 191.54,-266.27"/>
</a>
</g>
<text text-anchor="middle" x="270" y="-267.91" font-family="Helvetica,sans-Serif" font-size="10.00" fill="grey"> m_tasksModel</text>
</g>
<!-- Node6 -->
<g id="Node000006" class="node">
<title>Node6</title>
<g id="a_Node000006"><a xlink:href="../../d7/dc8/class_i_project_manager.html" target="_top" xlink:title=" ">
<polygon fill="white" stroke="#666666" points="189,-243.79 101.75,-243.79 101.75,-224.54 189,-224.54 189,-243.79"/>
<text text-anchor="middle" x="145.38" y="-230.29" font-family="Helvetica,sans-Serif" font-size="10.00">IProjectManager</text>
</a>
</g>
</g>
<!-- Node6&#45;&gt;Node1 -->
<g id="edge3_Node000001_Node000006" class="edge">
<title>Node6&#45;&gt;Node1</title>
<g id="a_edge3_Node000001_Node000006"><a xlink:title=" ">
<path fill="none" stroke="#9a32cd" stroke-dasharray="5,2" d="M200.44,-229.45C234.93,-225.92 280.48,-220.28 320.25,-212.16 326.87,-210.81 333.88,-209.05 340.55,-207.22"/>
<polygon fill="#9a32cd" stroke="#9a32cd" points="200.3,-225.94 190.69,-230.41 200.99,-232.91 200.3,-225.94"/>
</a>
</g>
<text text-anchor="middle" x="270" y="-227.91" font-family="Helvetica,sans-Serif" font-size="10.00" fill="grey"> m_prjManager</text>
</g>
<!-- Node7 -->
<g id="Node000007" class="node">
<title>Node7</title>
<g id="a_Node000007"><a xlink:href="../../d5/d64/struct_i_plugin_loader.html" target="_top" xlink:title=" ">
<polygon fill="white" stroke="#666666" points="183.38,-206.79 107.38,-206.79 107.38,-187.54 183.38,-187.54 183.38,-206.79"/>
<text text-anchor="middle" x="145.38" y="-193.29" font-family="Helvetica,sans-Serif" font-size="10.00">IPluginLoader</text>
</a>
</g>
</g>
<!-- Node7&#45;&gt;Node1 -->
<g id="edge4_Node000001_Node000007" class="edge">
<title>Node7&#45;&gt;Node1</title>
<g id="a_edge4_Node000001_Node000007"><a xlink:title=" ">
<path fill="none" stroke="#9a32cd" stroke-dasharray="5,2" d="M195.1,-197.16C238.01,-197.16 299.46,-197.16 337.76,-197.16"/>
<polygon fill="#9a32cd" stroke="#9a32cd" points="195.31,-193.66 185.31,-197.16 195.31,-200.66 195.31,-193.66"/>
</a>
</g>
<text text-anchor="middle" x="270" y="-198.91" font-family="Helvetica,sans-Serif" font-size="10.00" fill="grey"> m_pluginLoader</text>
</g>
<!-- Node8 -->
<g id="Node000008" class="node">
<title>Node8</title>
<g id="a_Node000008"><a xlink:href="../../d7/db4/struct_i_configuration.html" target="_top" xlink:title=" ">
<polygon fill="white" stroke="#666666" points="183,-169.79 107.75,-169.79 107.75,-150.54 183,-150.54 183,-169.79"/>
<text text-anchor="middle" x="145.38" y="-156.29" font-family="Helvetica,sans-Serif" font-size="10.00">IConfiguration</text>
</a>
</g>
</g>
<!-- Node8&#45;&gt;Node1 -->
<g id="edge5_Node000001_Node000008" class="edge">
<title>Node8&#45;&gt;Node1</title>
<g id="a_edge5_Node000001_Node000008"><a xlink:title=" ">
<path fill="none" stroke="#9a32cd" stroke-dasharray="5,2" d="M194.64,-164.15C229.72,-167.54 278.22,-173.26 320.25,-181.91 327.07,-183.31 334.28,-185.16 341.12,-187.07"/>
<polygon fill="#9a32cd" stroke="#9a32cd" points="195.07,-160.67 184.79,-163.23 194.42,-167.64 195.07,-160.67"/>
</a>
</g>
<text text-anchor="middle" x="270" y="-182.91" font-family="Helvetica,sans-Serif" font-size="10.00" fill="grey"> m_configuration</text>
</g>
<!-- Node9 -->
<g id="Node000009" class="node">
<title>Node9</title>
<g id="a_Node000009"><a xlink:href="../../df/dcf/struct_i_updater.html" target="_top" xlink:title=" ">
<polygon fill="white" stroke="#666666" points="172.12,-132.79 118.62,-132.79 118.62,-113.54 172.12,-113.54 172.12,-132.79"/>
<text text-anchor="middle" x="145.38" y="-119.29" font-family="Helvetica,sans-Serif" font-size="10.00">IUpdater</text>
</a>
</g>
</g>
<!-- Node9&#45;&gt;Node1 -->
<g id="edge6_Node000001_Node000009" class="edge">
<title>Node9&#45;&gt;Node1</title>
<g id="a_edge6_Node000001_Node000009"><a xlink:title=" ">
<path fill="none" stroke="#9a32cd" stroke-dasharray="5,2" d="M183.53,-123.2C219.97,-124.56 276.31,-130.28 320.25,-150.91 338.55,-159.51 355.3,-176.4 364.81,-187.22"/>
<polygon fill="#9a32cd" stroke="#9a32cd" points="184.04,-119.71 173.95,-122.94 183.85,-126.71 184.04,-119.71"/>
</a>
</g>
<text text-anchor="middle" x="270" y="-151.91" font-family="Helvetica,sans-Serif" font-size="10.00" fill="grey"> m_updater</text>
</g>
<!-- Node10 -->
<g id="Node000010" class="node">
<title>Node10</title>
<g id="a_Node000010"><a xlink:href="../../d5/da9/struct_i_core_factory_accessor.html" target="_top" xlink:title=" ">
<polygon fill="white" stroke="#666666" points="201.75,-95.79 89,-95.79 89,-76.54 201.75,-76.54 201.75,-95.79"/>
<text text-anchor="middle" x="145.38" y="-82.29" font-family="Helvetica,sans-Serif" font-size="10.00">ICoreFactoryAccessor</text>
</a>
</g>
</g>
<!-- Node10&#45;&gt;Node1 -->
<g id="edge7_Node000001_Node000010" class="edge">
<title>Node10&#45;&gt;Node1</title>
<g id="a_edge7_Node000001_Node000010"><a xlink:title=" ">
<path fill="none" stroke="#9a32cd" stroke-dasharray="5,2" d="M213.34,-82.59C247.79,-83.83 289.01,-90.37 320.25,-110.91 348.41,-129.43 364,-168.68 370.04,-187.16"/>
<polygon fill="#9a32cd" stroke="#9a32cd" points="213.51,-79.09 203.45,-82.39 213.37,-86.09 213.51,-79.09"/>
</a>
</g>
<text text-anchor="middle" x="270" y="-111.91" font-family="Helvetica,sans-Serif" font-size="10.00" fill="grey"> m_coreAccessor</text>
</g>
<!-- Node11 -->
<g id="Node000011" class="node">
<title>Node11</title>
<g id="a_Node000011"><a xlink:href="../../dd/dfb/struct_i_thumbnails_manager.html" target="_top" xlink:title=" ">
<polygon fill="white" stroke="#666666" points="198.75,-58.79 92,-58.79 92,-39.54 198.75,-39.54 198.75,-58.79"/>
<text text-anchor="middle" x="145.38" y="-45.29" font-family="Helvetica,sans-Serif" font-size="10.00">IThumbnailsManager</text>
</a>
</g>
</g>
<!-- Node11&#45;&gt;Node1 -->
<g id="edge8_Node000001_Node000011" class="edge">
<title>Node11&#45;&gt;Node1</title>
<g id="a_edge8_Node000001_Node000011"><a xlink:title=" ">
<path fill="none" stroke="#9a32cd" stroke-dasharray="5,2" d="M210.28,-40.54C245.93,-39.18 289.26,-43.65 320.25,-66.91 360.25,-96.93 370.01,-162.4 372.32,-187.29"/>
<polygon fill="#9a32cd" stroke="#9a32cd" points="210.3,-37.03 200.51,-41.09 210.69,-44.02 210.3,-37.03"/>
</a>
</g>
<text text-anchor="middle" x="270" y="-67.91" font-family="Helvetica,sans-Serif" font-size="10.00" fill="grey"> m_thumbnailsManager</text>
</g>
<!-- Node12&#45;&gt;Node1 -->
<g id="edge9_Node000001_Node000012" class="edge">
<title>Node12&#45;&gt;Node1</title>
<g id="a_edge9_Node000001_Node000012"><a xlink:title=" ">
<path fill="none" stroke="#9a32cd" stroke-dasharray="5,2" d="M203.17,-349.24C240.07,-348.94 287.26,-342.67 320.25,-317.16 356.62,-289.04 368.44,-230.59 371.8,-207.17"/>
<polygon fill="#9a32cd" stroke="#9a32cd" points="203.62,-345.74 193.59,-349.17 203.56,-352.74 203.62,-345.74"/>
</a>
</g>
<text text-anchor="middle" x="270" y="-349.91" font-family="Helvetica,sans-Serif" font-size="10.00" fill="grey"> m_completerFactory</text>
</g>
<!-- Node19 -->
<g id="Node000019" class="node">
<title>Node19</title>
<g id="a_Node000019"><a xlink:href="../../d3/d28/class_notifications_model.html" target="_top" xlink:title=" ">
<polygon fill="#fff0f0" stroke="red" points="193.5,-21.79 97.25,-21.79 97.25,-2.54 193.5,-2.54 193.5,-21.79"/>
<text text-anchor="middle" x="145.38" y="-8.29" font-family="Helvetica,sans-Serif" font-size="10.00">NotificationsModel</text>
</a>
</g>
</g>
<!-- Node19&#45;&gt;Node1 -->
<g id="edge11_Node000001_Node000019" class="edge">
<title>Node19&#45;&gt;Node1</title>
<g id="a_edge11_Node000001_Node000019"><a xlink:title=" ">
<path fill="none" stroke="#9a32cd" stroke-dasharray="5,2" d="M204.78,-1.35C241.72,2.08 288.34,-0.35 320.25,-25.91 371.72,-67.15 374.12,-157.53 373.42,-187.38"/>
<polygon fill="#9a32cd" stroke="#9a32cd" points="204.71,2.17 195.16,-2.41 205.48,-4.79 204.71,2.17"/>
</a>
</g>
<text text-anchor="middle" x="270" y="-27.91" font-family="Helvetica,sans-Serif" font-size="10.00" fill="grey"> m_notifications</text>
</g>
<!-- Node23&#45;&gt;Node1 -->
<g id="edge12_Node000001_Node000023" class="edge">
<title>Node23&#45;&gt;Node1</title>
<g id="a_edge12_Node000001_Node000023"><a xlink:title=" ">
<path fill="none" stroke="#9a32cd" stroke-dasharray="5,2" d="M204.01,-304.35C247.04,-300.56 301.51,-293.49 320.25,-281.16 347.72,-263.08 363.57,-225.22 369.84,-207.16"/>
<polygon fill="#9a32cd" stroke="#9a32cd" points="203.96,-300.84 194.29,-305.16 204.54,-307.82 203.96,-300.84"/>
</a>
</g>
<text text-anchor="middle" x="270" y="-303.91" font-family="Helvetica,sans-Serif" font-size="10.00" fill="grey"> m_featuresObserver</text>
</g>
</g>
</svg>
</svg>

<style type='text/css'>
<![CDATA[
[data-mouse-over-selected='false'] { opacity: 0.7; }
[data-mouse-over-selected='true']  { opacity: 1.0; }
]]>
</style>
<script type="application/ecmascript"><![CDATA[
document.addEventListener('DOMContentLoaded', (event) => {
  highlightEdges();
  highlightAdjacentNodes();
});
]]></script>
</svg>
