<?xml version="1.0" encoding="UTF-8" standalone="no"?>
<!DOCTYPE svg PUBLIC "-//W3C//DTD SVG 1.1//EN"
 "http://www.w3.org/Graphics/SVG/1.1/DTD/svg11.dtd">
<!-- Generated by graphviz version 7.0.5 (20221223.1930)
 -->
<!-- Title: Parameters::databaseThumbnailSize Pages: 1 -->
<svg width="344pt" height="64pt"
 viewBox="0.00 0.00 344.00 64.00" xmlns="http://www.w3.org/2000/svg" xmlns:xlink="http://www.w3.org/1999/xlink">
<g id="graph0" class="graph" transform="scale(1 1) rotate(0) translate(4 60)">
<title>Parameters::databaseThumbnailSize</title>
<!-- Node1 -->
<g id="node1" class="node">
<title>Node1</title>
<g id="a_node1"><a xlink:title=" ">
<polygon fill="#999999" stroke="#666666" points="336,-37 161,-37 161,-18 336,-18 336,-37"/>
<text text-anchor="middle" x="248.5" y="-25" font-family="Helvetica,sans-Serif" font-size="10.00">Parameters::databaseThumbnailSize</text>
</a>
</g>
</g>
<!-- Node2 -->
<g id="node2" class="node">
<title>Node2</title>
<g id="a_node2"><a xlink:href="../../dd/d17/class_thumbnail_manager.html#a23c27b8332708a2e59a6a5ac0c3962fd" target="_top" xlink:title=" ">
<polygon fill="white" stroke="#666666" points="125,-56 0,-56 0,-37 125,-37 125,-56"/>
<text text-anchor="middle" x="62.5" y="-44" font-family="Helvetica,sans-Serif" font-size="10.00">ThumbnailManager::fetch</text>
</a>
</g>
</g>
<!-- Node1&#45;&gt;Node2 -->
<g id="edge1" class="edge">
<title>Node1&#45;&gt;Node2</title>
<path fill="none" stroke="#63b8ff" d="M149.44,-37.63C141.26,-38.47 133.14,-39.31 125.35,-40.11"/>
<polygon fill="#63b8ff" stroke="#63b8ff" points="149.53,-41.14 159.11,-36.63 148.81,-34.17 149.53,-41.14"/>
</g>
<!-- Node3 -->
<g id="node3" class="node">
<title>Node3</title>
<g id="a_node3"><a xlink:href="../../d5/d72/thumbnails__manager__tests_8cpp.html#a3e6f1445057f283aa47ef2a074928fb9" target="_top" xlink:title=" ">
<polygon fill="white" stroke="#666666" points="89,-19 36,-19 36,0 89,0 89,-19"/>
<text text-anchor="middle" x="62.5" y="-7" font-family="Helvetica,sans-Serif" font-size="10.00">TEST_F</text>
</a>
</g>
</g>
<!-- Node1&#45;&gt;Node3 -->
<g id="edge2" class="edge">
<title>Node1&#45;&gt;Node3</title>
<path fill="none" stroke="#63b8ff" d="M149.31,-17.89C127.04,-15.72 105.25,-13.58 89.2,-12.01"/>
<polygon fill="#63b8ff" stroke="#63b8ff" points="148.82,-21.36 159.11,-18.85 149.5,-14.4 148.82,-21.36"/>
</g>
</g>
</svg>
