<?xml version="1.0" encoding="UTF-8" standalone="no"?>
<!DOCTYPE svg PUBLIC "-//W3C//DTD SVG 1.1//EN"
 "http://www.w3.org/Graphics/SVG/1.1/DTD/svg11.dtd">
<!-- Generated by graphviz version 9.0.0 (20230911.1827)
 -->
<!-- Title: Parameters::databaseThumbnailSize Pages: 1 -->
<svg width="343pt" height="138pt"
 viewBox="0.00 0.00 343.00 138.25" xmlns="http://www.w3.org/2000/svg" xmlns:xlink="http://www.w3.org/1999/xlink">
<g id="graph0" class="graph" transform="scale(1 1) rotate(0) translate(4 134.25)">
<title>Parameters::databaseThumbnailSize</title>
<!-- Node1 -->
<g id="Node000001" class="node">
<title>Node1</title>
<g id="a_Node000001"><a xlink:title=" ">
<polygon fill="#999999" stroke="#666666" points="335,-74.25 160.75,-74.25 160.75,-55 335,-55 335,-74.25"/>
<text text-anchor="middle" x="247.88" y="-60.75" font-family="Helvetica,sans-Serif" font-size="10.00">Parameters::databaseThumbnailSize</text>
</a>
</g>
</g>
<!-- Node2 -->
<g id="Node000002" class="node">
<title>Node2</title>
<g id="a_Node000002"><a xlink:href="../../dd/d17/class_thumbnail_manager.html#a23c27b8332708a2e59a6a5ac0c3962fd" target="_top" xlink:title=" ">
<polygon fill="white" stroke="#666666" points="124.75,-130.25 0,-130.25 0,-111 124.75,-111 124.75,-130.25"/>
<text text-anchor="middle" x="62.38" y="-116.75" font-family="Helvetica,sans-Serif" font-size="10.00">ThumbnailManager::fetch</text>
</a>
</g>
</g>
<!-- Node1&#45;&gt;Node2 -->
<g id="edge1_Node000001_Node000002" class="edge">
<title>Node1&#45;&gt;Node2</title>
<g id="a_edge1_Node000001_Node000002"><a xlink:title=" ">
<path fill="none" stroke="#63b8ff" d="M204.08,-78.13C180.67,-85.47 151.15,-94.65 124.75,-102.62 116.14,-105.23 106.83,-107.98 98.13,-110.54"/>
<polygon fill="#63b8ff" stroke="#63b8ff" points="205.1,-81.48 213.59,-75.14 203,-74.8 205.1,-81.48"/>
</a>
</g>
</g>
<!-- Node3 -->
<g id="Node000003" class="node">
<title>Node3</title>
<g id="a_Node000003"><a xlink:href="../../d5/d72/thumbnails__manager__tests_8cpp.html#a3e6f1445057f283aa47ef2a074928fb9" target="_top" xlink:title=" ">
<polygon fill="white" stroke="#666666" points="88.38,-93.25 36.38,-93.25 36.38,-74 88.38,-74 88.38,-93.25"/>
<text text-anchor="middle" x="62.38" y="-79.75" font-family="Helvetica,sans-Serif" font-size="10.00">TEST_F</text>
</a>
</g>
</g>
<!-- Node1&#45;&gt;Node3 -->
<g id="edge2_Node000001_Node000003" class="edge">
<title>Node1&#45;&gt;Node3</title>
<g id="a_edge2_Node000001_Node000003"><a xlink:title=" ">
<path fill="none" stroke="#63b8ff" d="M149.12,-74.75C126.7,-77.07 104.77,-79.34 88.69,-81"/>
<polygon fill="#63b8ff" stroke="#63b8ff" points="149.41,-78.24 158.99,-73.72 148.69,-71.27 149.41,-78.24"/>
</a>
</g>
</g>
<!-- Node4 -->
<g id="Node000004" class="node">
<title>Node4</title>
<g id="a_Node000004"><a xlink:href="../../d5/d72/thumbnails__manager__tests_8cpp.html#aaab92ca4ee8f40e3a2cd737897d806d8" target="_top" xlink:title=" ">
<polygon fill="white" stroke="#666666" points="88.38,-56.25 36.38,-56.25 36.38,-37 88.38,-37 88.38,-56.25"/>
<text text-anchor="middle" x="62.38" y="-42.75" font-family="Helvetica,sans-Serif" font-size="10.00">TEST_F</text>
</a>
</g>
</g>
<!-- Node1&#45;&gt;Node4 -->
<g id="edge3_Node000001_Node000004" class="edge">
<title>Node1&#45;&gt;Node4</title>
<g id="a_edge3_Node000001_Node000004"><a xlink:title=" ">
<path fill="none" stroke="#63b8ff" d="M149.12,-55.04C126.7,-52.84 104.77,-50.69 88.69,-49.11"/>
<polygon fill="#63b8ff" stroke="#63b8ff" points="148.7,-58.51 158.99,-56 149.38,-51.54 148.7,-58.51"/>
</a>
</g>
</g>
<!-- Node5 -->
<g id="Node000005" class="node">
<title>Node5</title>
<g id="a_Node000005"><a xlink:href="../../d5/d72/thumbnails__manager__tests_8cpp.html#afbe7336fd830abe843753cd4864e5ed9" target="_top" xlink:title=" ">
<polygon fill="white" stroke="#666666" points="88.38,-19.25 36.38,-19.25 36.38,0 88.38,0 88.38,-19.25"/>
<text text-anchor="middle" x="62.38" y="-5.75" font-family="Helvetica,sans-Serif" font-size="10.00">TEST_F</text>
</a>
</g>
</g>
<!-- Node1&#45;&gt;Node5 -->
<g id="edge4_Node000001_Node000005" class="edge">
<title>Node1&#45;&gt;Node5</title>
<g id="a_edge4_Node000001_Node000005"><a xlink:title=" ">
<path fill="none" stroke="#63b8ff" d="M203.07,-51.25C179.82,-44.18 150.75,-35.38 124.75,-27.62 112.94,-24.1 99.83,-20.25 88.77,-17.02"/>
<polygon fill="#63b8ff" stroke="#63b8ff" points="201.95,-54.57 212.54,-54.13 203.99,-47.87 201.95,-54.57"/>
</a>
</g>
</g>
</g>
</svg>
