<?xml version="1.0" encoding="UTF-8" standalone="no"?>
<!DOCTYPE svg PUBLIC "-//W3C//DTD SVG 1.1//EN"
 "http://www.w3.org/Graphics/SVG/1.1/DTD/svg11.dtd">
<!-- Generated by graphviz version 12.2.0 (20241103.1931)
 -->
<!-- Title: src/gui/desktop/utils/people_list_model.cpp Pages: 1 -->
<svg width="448pt" height="149pt"
 viewBox="0.00 0.00 448.38 149.00" xmlns="http://www.w3.org/2000/svg" xmlns:xlink="http://www.w3.org/1999/xlink">

<svg id="main" version="1.1" xmlns="http://www.w3.org/2000/svg" xmlns:xlink="http://www.w3.org/1999/xlink" xml:space="preserve">

<style type="text/css"><![CDATA[
.node, .edge {opacity: 0.7;}
.node.selected, .edge.selected {opacity: 1;}
.edge:hover path { stroke: red; }
.edge:hover polygon { stroke: red; fill: red; }
]]></style>
<script type="application/ecmascript" xlink:href="../../svg.min.js"/>
<svg id="graph" class="graph">
<g id="graph0" class="graph" transform="scale(1 1) rotate(0) translate(4 145)">
<title>src/gui/desktop/utils/people_list_model.cpp</title>
<!-- Node1 -->
<g id="Node000001" class="node">
<title>Node1</title>
<g id="a_Node000001"><a xlink:title=" ">
<polygon fill="#999999" stroke="#666666" points="303.5,-141 188.5,-141 188.5,-110.5 303.5,-110.5 303.5,-141"/>
<text text-anchor="start" x="196.5" y="-127.5" font-family="Helvetica,sans-Serif" font-size="10.00">src/gui/desktop/utils</text>
<text text-anchor="middle" x="246" y="-116.25" font-family="Helvetica,sans-Serif" font-size="10.00">/people_list_model.cpp</text>
</a>
</g>
</g>
<!-- Node2 -->
<g id="Node000002" class="node">
<title>Node2</title>
<g id="a_Node000002"><a xlink:href="../../d9/da8/people__list__model_8hpp.html" target="_top" xlink:title=" ">
<polygon fill="#fff0f0" stroke="red" points="112,-74.5 0,-74.5 0,-55.25 112,-55.25 112,-74.5"/>
<text text-anchor="middle" x="56" y="-61" font-family="Helvetica,sans-Serif" font-size="10.00">people_list_model.hpp</text>
</a>
</g>
</g>
<!-- Node1&#45;&gt;Node2 -->
<g id="edge1_Node000001_Node000002" class="edge">
<title>Node1&#45;&gt;Node2</title>
<g id="a_edge1_Node000001_Node000002"><a xlink:title=" ">
<path fill="none" stroke="#63b8ff" d="M198.55,-110.05C167.06,-100.29 126.2,-87.63 96.3,-78.36"/>
<polygon fill="#63b8ff" stroke="#63b8ff" points="97.45,-75.06 86.86,-75.44 95.38,-81.74 97.45,-75.06"/>
</a>
</g>
</g>
<!-- Node6 -->
<g id="Node000006" class="node">
<title>Node6</title>
<g id="a_Node000006"><a xlink:href="../../d0/dd6/function__wrappers_8hpp.html" target="_top" xlink:title=" ">
<polygon fill="#fff0f0" stroke="red" points="265.62,-74.5 130.38,-74.5 130.38,-55.25 265.62,-55.25 265.62,-74.5"/>
<text text-anchor="middle" x="198" y="-61" font-family="Helvetica,sans-Serif" font-size="10.00">core/function_wrappers.hpp</text>
</a>
</g>
</g>
<!-- Node1&#45;&gt;Node6 -->
<g id="edge2_Node000001_Node000006" class="edge">
<title>Node1&#45;&gt;Node6</title>
<g id="a_edge2_Node000001_Node000006"><a xlink:title=" ">
<path fill="none" stroke="#63b8ff" d="M234.13,-110.2C227.6,-102.18 219.43,-92.17 212.52,-83.69"/>
<polygon fill="#63b8ff" stroke="#63b8ff" points="215.39,-81.66 206.36,-76.12 209.96,-86.09 215.39,-81.66"/>
</a>
</g>
</g>
<!-- Node7 -->
<g id="Node000007" class="node">
<title>Node7</title>
<g id="a_Node000007"><a xlink:title=" ">
<polygon fill="#e0e0e0" stroke="#999999" points="323,-19.25 265,-19.25 265,0 323,0 323,-19.25"/>
<text text-anchor="middle" x="294" y="-5.75" font-family="Helvetica,sans-Serif" font-size="10.00">functional</text>
</a>
</g>
</g>
<!-- Node1&#45;&gt;Node7 -->
<g id="edge6_Node000001_Node000007" class="edge">
<title>Node1&#45;&gt;Node7</title>
<g id="a_edge6_Node000001_Node000007"><a xlink:title=" ">
<path fill="none" stroke="#63b8ff" d="M255.57,-110.27C261.74,-100.48 269.59,-87.08 275,-74.5 281.17,-60.16 286.11,-43.2 289.41,-30.36"/>
<polygon fill="#63b8ff" stroke="#63b8ff" points="292.72,-31.55 291.69,-21 285.92,-29.89 292.72,-31.55"/>
</a>
</g>
</g>
<!-- Node14 -->
<g id="Node000014" class="node">
<title>Node14</title>
<g id="a_Node000014"><a xlink:href="../../d7/d2b/idatabase_8hpp.html" target="_top" xlink:title=" ">
<polygon fill="#fff0f0" stroke="red" points="440.38,-74.5 321.62,-74.5 321.62,-55.25 440.38,-55.25 440.38,-74.5"/>
<text text-anchor="middle" x="381" y="-61" font-family="Helvetica,sans-Serif" font-size="10.00">database/idatabase.hpp</text>
</a>
</g>
</g>
<!-- Node1&#45;&gt;Node14 -->
<g id="edge4_Node000001_Node000014" class="edge">
<title>Node1&#45;&gt;Node14</title>
<g id="a_edge4_Node000001_Node000014"><a xlink:title=" ">
<path fill="none" stroke="#63b8ff" d="M279.72,-110.05C301.27,-100.65 329,-88.55 350,-79.39"/>
<polygon fill="#63b8ff" stroke="#63b8ff" points="351.14,-82.71 358.91,-75.51 348.34,-76.3 351.14,-82.71"/>
</a>
</g>
</g>
<!-- Node6&#45;&gt;Node7 -->
<g id="edge3_Node000006_Node000007" class="edge">
<title>Node6&#45;&gt;Node7</title>
<g id="a_edge3_Node000006_Node000007"><a xlink:title=" ">
<path fill="none" stroke="#63b8ff" d="M214.29,-54.84C228.9,-46.73 250.63,-34.68 267.71,-25.21"/>
<polygon fill="#63b8ff" stroke="#63b8ff" points="269.26,-28.35 276.31,-20.44 265.87,-22.23 269.26,-28.35"/>
</a>
</g>
</g>
<!-- Node14&#45;&gt;Node7 -->
<g id="edge5_Node000014_Node000007" class="edge">
<title>Node14&#45;&gt;Node7</title>
<g id="a_edge5_Node000014_Node000007"><a xlink:title=" ">
<path fill="none" stroke="#63b8ff" d="M366.24,-54.84C353.12,-46.81 333.68,-34.91 318.27,-25.48"/>
<polygon fill="#63b8ff" stroke="#63b8ff" points="320.48,-22.73 310.12,-20.49 316.82,-28.7 320.48,-22.73"/>
</a>
</g>
</g>
</g>
</svg>
</svg>

<style type='text/css'>
<![CDATA[
[data-mouse-over-selected='false'] { opacity: 0.7; }
[data-mouse-over-selected='true']  { opacity: 1.0; }
]]>
</style>
<script type="application/ecmascript"><![CDATA[
document.addEventListener('DOMContentLoaded', (event) => {
  highlightEdges();
  highlightAdjacentNodes();
});
]]></script>
</svg>
