<?xml version="1.0" encoding="UTF-8" standalone="no"?>
<!DOCTYPE svg PUBLIC "-//W3C//DTD SVG 1.1//EN"
 "http://www.w3.org/Graphics/SVG/1.1/DTD/svg11.dtd">
<!-- Generated by graphviz version 12.2.0 (20241103.1931)
 -->
<!-- Title: IThumbnailsCache Pages: 1 -->
<svg width="318pt" height="83pt"
 viewBox="0.00 0.00 318.00 82.50" xmlns="http://www.w3.org/2000/svg" xmlns:xlink="http://www.w3.org/1999/xlink">
<g id="graph0" class="graph" transform="scale(1 1) rotate(0) translate(4 78.5)">
<title>IThumbnailsCache</title>
<!-- Node1 -->
<g id="Node000001" class="node">
<title>Node1</title>
<g id="a_Node000001"><a xlink:title=" ">
<polygon fill="#999999" stroke="#666666" points="215.5,-74.5 118.5,-74.5 118.5,-55.25 215.5,-55.25 215.5,-74.5"/>
<text text-anchor="middle" x="167" y="-61" font-family="Helvetica,sans-Serif" font-size="10.00">IThumbnailsCache</text>
</a>
</g>
</g>
<!-- Node2 -->
<g id="Node000002" class="node">
<title>Node2</title>
<g id="a_Node000002"><a xlink:href="../../da/d15/struct_mock_thumbnails_cache.html" target="_top" xlink:title=" ">
<polygon fill="white" stroke="#666666" points="118,-19.25 0,-19.25 0,0 118,0 118,-19.25"/>
<text text-anchor="middle" x="59" y="-5.75" font-family="Helvetica,sans-Serif" font-size="10.00">MockThumbnailsCache</text>
</a>
</g>
</g>
<!-- Node1&#45;&gt;Node2 -->
<g id="edge1_Node000001_Node000002" class="edge">
<title>Node1&#45;&gt;Node2</title>
<g id="a_edge1_Node000001_Node000002"><a xlink:title=" ">
<path fill="none" stroke="#63b8ff" d="M138.61,-49.87C119.25,-40.33 94.2,-27.98 77.41,-19.7"/>
<polygon fill="#63b8ff" stroke="#63b8ff" points="136.8,-52.89 147.32,-54.17 139.9,-46.61 136.8,-52.89"/>
</a>
</g>
</g>
<!-- Node3 -->
<g id="Node000003" class="node">
<title>Node3</title>
<g id="a_Node000003"><a xlink:href="../../d5/dec/struct_null_cache.html" target="_top" xlink:title=" ">
<polygon fill="white" stroke="#666666" points="197.5,-19.25 136.5,-19.25 136.5,0 197.5,0 197.5,-19.25"/>
<text text-anchor="middle" x="167" y="-5.75" font-family="Helvetica,sans-Serif" font-size="10.00">NullCache</text>
</a>
</g>
</g>
<!-- Node1&#45;&gt;Node3 -->
<g id="edge2_Node000001_Node000003" class="edge">
<title>Node1&#45;&gt;Node3</title>
<g id="a_edge2_Node000001_Node000003"><a xlink:title=" ">
<path fill="none" stroke="#63b8ff" d="M167,-43.63C167,-35.34 167,-26.17 167,-19.61"/>
<polygon fill="#63b8ff" stroke="#63b8ff" points="163.5,-43.57 167,-53.57 170.5,-43.57 163.5,-43.57"/>
</a>
</g>
</g>
<!-- Node4 -->
<g id="Node000004" class="node">
<title>Node4</title>
<g id="a_Node000004"><a xlink:href="../../de/d89/class_thumbnails_cache.html" target="_top" xlink:title=" ">
<polygon fill="white" stroke="#666666" points="310,-19.25 216,-19.25 216,0 310,0 310,-19.25"/>
<text text-anchor="middle" x="263" y="-5.75" font-family="Helvetica,sans-Serif" font-size="10.00">ThumbnailsCache</text>
</a>
</g>
</g>
<!-- Node1&#45;&gt;Node4 -->
<g id="edge3_Node000001_Node000004" class="edge">
<title>Node1&#45;&gt;Node4</title>
<g id="a_edge3_Node000001_Node000004"><a xlink:title=" ">
<path fill="none" stroke="#63b8ff" d="M193.2,-49.34C210.26,-39.88 231.99,-27.83 246.64,-19.7"/>
<polygon fill="#63b8ff" stroke="#63b8ff" points="191.66,-46.2 184.61,-54.11 195.05,-52.32 191.66,-46.2"/>
</a>
</g>
</g>
</g>
</svg>
