<?xml version="1.0" encoding="UTF-8" standalone="no"?>
<!DOCTYPE svg PUBLIC "-//W3C//DTD SVG 1.1//EN"
 "http://www.w3.org/Graphics/SVG/1.1/DTD/svg11.dtd">
<!-- Generated by graphviz version 7.0.5 (20221223.1930)
 -->
<!-- Title: ConfigDialogManager::run Pages: 1 -->
<svg width="295pt" height="161pt"
 viewBox="0.00 0.00 295.00 160.50" xmlns="http://www.w3.org/2000/svg" xmlns:xlink="http://www.w3.org/1999/xlink">
<g id="graph0" class="graph" transform="scale(1 1) rotate(0) translate(4 156.5)">
<title>ConfigDialogManager::run</title>
<!-- Node1 -->
<g id="node1" class="node">
<title>Node1</title>
<g id="a_node1"><a xlink:title=" ">
<polygon fill="#999999" stroke="#666666" points="126,-77 0,-77 0,-58 126,-58 126,-77"/>
<text text-anchor="middle" x="63" y="-65" font-family="Helvetica,sans-Serif" font-size="10.00">ConfigDialogManager::run</text>
</a>
</g>
</g>
<!-- Node2 -->
<g id="node2" class="node">
<title>Node2</title>
<g id="a_node2"><a xlink:href="../../de/d11/class_configuration_dialog.html#a8a37b14fe4218ae683b98e369ddbffce" target="_top" xlink:title=" ">
<polygon fill="white" stroke="#666666" points="274.5,-152.5 174.5,-152.5 174.5,-122.5 274.5,-122.5 274.5,-152.5"/>
<text text-anchor="start" x="182.5" y="-140.5" font-family="Helvetica,sans-Serif" font-size="10.00">ConfigurationDialog</text>
<text text-anchor="middle" x="224.5" y="-129.5" font-family="Helvetica,sans-Serif" font-size="10.00">::addTab</text>
</a>
</g>
</g>
<!-- Node1&#45;&gt;Node2 -->
<g id="edge1" class="edge">
<title>Node1&#45;&gt;Node2</title>
<path fill="none" stroke="#63b8ff" d="M84.09,-77.41C103.78,-87.01 134.71,-101.79 162,-113.5 165.32,-114.92 168.75,-116.36 172.22,-117.79"/>
<polygon fill="#63b8ff" stroke="#63b8ff" points="170.67,-120.93 181.25,-121.43 173.29,-114.44 170.67,-120.93"/>
</g>
<!-- Node3 -->
<g id="node3" class="node">
<title>Node3</title>
<g id="a_node3"><a xlink:href="../../df/dc2/class_config_dialog_manager.html#a670240a09944a065546d046d9e145620" target="_top" xlink:title=" ">
<polygon fill="white" stroke="#666666" points="278.5,-104.5 170.5,-104.5 170.5,-74.5 278.5,-74.5 278.5,-104.5"/>
<text text-anchor="start" x="178.5" y="-92.5" font-family="Helvetica,sans-Serif" font-size="10.00">ConfigDialogManager</text>
<text text-anchor="middle" x="224.5" y="-81.5" font-family="Helvetica,sans-Serif" font-size="10.00">::applyConfiguration</text>
</a>
</g>
</g>
<!-- Node1&#45;&gt;Node3 -->
<g id="edge2" class="edge">
<title>Node1&#45;&gt;Node3</title>
<path fill="none" stroke="#63b8ff" d="M126.12,-76.07C136.9,-77.56 148.13,-79.1 158.97,-80.6"/>
<polygon fill="#63b8ff" stroke="#63b8ff" points="158.2,-84.03 168.59,-81.93 159.16,-77.09 158.2,-84.03"/>
</g>
<!-- Node4 -->
<g id="node4" class="node">
<title>Node4</title>
<g id="a_node4"><a xlink:href="../../da/df3/struct_i_config_tab.html#a7b3bb97471f76d58ab86cd85f36d01ed" target="_top" xlink:title=" ">
<polygon fill="white" stroke="#666666" points="287,-56 162,-56 162,-37 287,-37 287,-56"/>
<text text-anchor="middle" x="224.5" y="-44" font-family="Helvetica,sans-Serif" font-size="10.00">IConfigTab::constructTab</text>
</a>
</g>
</g>
<!-- Node1&#45;&gt;Node4 -->
<g id="edge3" class="edge">
<title>Node1&#45;&gt;Node4</title>
<path fill="none" stroke="#63b8ff" d="M126.12,-59.32C134.03,-58.28 142.18,-57.21 150.24,-56.15"/>
<polygon fill="#63b8ff" stroke="#63b8ff" points="150.59,-59.63 160.05,-54.85 149.67,-52.69 150.59,-59.63"/>
</g>
<!-- Node5 -->
<g id="node5" class="node">
<title>Node5</title>
<g id="a_node5"><a xlink:href="../../da/df3/struct_i_config_tab.html#ae3ff53f77f92aeea78f86fdfb2215a4a" target="_top" xlink:title=" ">
<polygon fill="white" stroke="#666666" points="278,-19 171,-19 171,0 278,0 278,-19"/>
<text text-anchor="middle" x="224.5" y="-7" font-family="Helvetica,sans-Serif" font-size="10.00">IConfigTab::tabName</text>
</a>
</g>
</g>
<!-- Node1&#45;&gt;Node5 -->
<g id="edge4" class="edge">
<title>Node1&#45;&gt;Node5</title>
<path fill="none" stroke="#63b8ff" d="M87.56,-57.51C107.29,-49.3 136.27,-37.58 162,-28.5 167.39,-26.6 173.09,-24.69 178.75,-22.87"/>
<polygon fill="#63b8ff" stroke="#63b8ff" points="179.58,-26.28 188.06,-19.93 177.47,-19.6 179.58,-26.28"/>
</g>
</g>
</svg>
