<?xml version="1.0" encoding="UTF-8" standalone="no"?>
<!DOCTYPE svg PUBLIC "-//W3C//DTD SVG 1.1//EN"
 "http://www.w3.org/Graphics/SVG/1.1/DTD/svg11.dtd">
<!-- Generated by graphviz version 7.0.5 (20221223.1930)
 -->
<!-- Title: System::getUniqueFileName Pages: 1 -->
<svg width="297pt" height="124pt"
 viewBox="0.00 0.00 297.00 123.50" xmlns="http://www.w3.org/2000/svg" xmlns:xlink="http://www.w3.org/1999/xlink">
<g id="graph0" class="graph" transform="scale(1 1) rotate(0) translate(4 119.5)">
<title>System::getUniqueFileName</title>
<!-- Node1 -->
<g id="node1" class="node">
<title>Node1</title>
<g id="a_node1"><a xlink:title="generate unique file name">
<polygon fill="#999999" stroke="#666666" points="289,-62 149,-62 149,-43 289,-43 289,-62"/>
<text text-anchor="middle" x="219" y="-50" font-family="Helvetica,sans-Serif" font-size="10.00">System::getUniqueFileName</text>
</a>
</g>
</g>
<!-- Node2 -->
<g id="node2" class="node">
<title>Node2</title>
<g id="a_node2"><a xlink:href="../../d6/d1f/class_animation_generator.html#a322f031d4781fc24c3e669bd77c642b9" target="_top" xlink:title=" ">
<polygon fill="#fff0f0" stroke="red" points="108,-115.5 5,-115.5 5,-85.5 108,-85.5 108,-115.5"/>
<text text-anchor="start" x="13" y="-103.5" font-family="Helvetica,sans-Serif" font-size="10.00">AnimationGenerator</text>
<text text-anchor="middle" x="56.5" y="-92.5" font-family="Helvetica,sans-Serif" font-size="10.00">::generateAnimation</text>
</a>
</g>
</g>
<!-- Node1&#45;&gt;Node2 -->
<g id="edge1" class="edge">
<title>Node1&#45;&gt;Node2</title>
<path fill="none" stroke="#63b8ff" d="M173.92,-65.68C153.65,-71.75 129.47,-78.98 108.42,-85.27"/>
<polygon fill="#63b8ff" stroke="#63b8ff" points="174.72,-69.1 183.29,-62.88 172.71,-62.39 174.72,-69.1"/>
</g>
<!-- Node4 -->
<g id="node3" class="node">
<title>Node4</title>
<g id="a_node3"><a xlink:href="../../d0/d4e/class_photos_grouping_dialog.html#af6b9b5bf838e92f74c539d4972cabc38" target="_top" xlink:title=" ">
<polygon fill="#fff0f0" stroke="red" points="113,-67.5 0,-67.5 0,-37.5 113,-37.5 113,-67.5"/>
<text text-anchor="start" x="8" y="-55.5" font-family="Helvetica,sans-Serif" font-size="10.00">PhotosGroupingDialog</text>
<text text-anchor="middle" x="56.5" y="-44.5" font-family="Helvetica,sans-Serif" font-size="10.00">::makeCollage</text>
</a>
</g>
</g>
<!-- Node1&#45;&gt;Node4 -->
<g id="edge2" class="edge">
<title>Node1&#45;&gt;Node4</title>
<path fill="none" stroke="#63b8ff" d="M137.07,-52.5C128.95,-52.5 120.83,-52.5 113.05,-52.5"/>
<polygon fill="#63b8ff" stroke="#63b8ff" points="137.02,-56 147.02,-52.5 137.02,-49 137.02,-56"/>
</g>
<!-- Node7 -->
<g id="node4" class="node">
<title>Node7</title>
<g id="a_node4"><a xlink:href="../../de/def/class_h_d_r_generator.html#a9e42f118789e311753bf6e3d4ce66682" target="_top" xlink:title=" ">
<polygon fill="white" stroke="#666666" points="105.5,-19 7.5,-19 7.5,0 105.5,0 105.5,-19"/>
<text text-anchor="middle" x="56.5" y="-7" font-family="Helvetica,sans-Serif" font-size="10.00">HDRGenerator::run</text>
</a>
</g>
</g>
<!-- Node1&#45;&gt;Node7 -->
<g id="edge3" class="edge">
<title>Node1&#45;&gt;Node7</title>
<path fill="none" stroke="#63b8ff" d="M169.75,-39.57C145.72,-33.14 117.12,-25.47 94.8,-19.49"/>
<polygon fill="#63b8ff" stroke="#63b8ff" points="168.75,-42.93 179.31,-42.14 170.56,-36.17 168.75,-42.93"/>
</g>
</g>
</svg>
