<?xml version="1.0" encoding="UTF-8" standalone="no"?>
<!DOCTYPE svg PUBLIC "-//W3C//DTD SVG 1.1//EN"
 "http://www.w3.org/Graphics/SVG/1.1/DTD/svg11.dtd">
<!-- Generated by graphviz version 12.2.0 (20241103.1931)
 -->
<!-- Title: PhotosCollector Pages: 1 -->
<svg width="327pt" height="94pt"
 viewBox="0.00 0.00 327.38 93.75" xmlns="http://www.w3.org/2000/svg" xmlns:xlink="http://www.w3.org/1999/xlink">
<g id="graph0" class="graph" transform="scale(1 1) rotate(0) translate(4 89.75)">
<title>PhotosCollector</title>
<!-- Node1 -->
<g id="Node000001" class="node">
<title>Node1</title>
<g id="a_Node000001"><a xlink:title=" ">
<polygon fill="#999999" stroke="#666666" points="206.5,-19.25 121.5,-19.25 121.5,0 206.5,0 206.5,-19.25"/>
<text text-anchor="middle" x="164" y="-5.75" font-family="Helvetica,sans-Serif" font-size="10.00">PhotosCollector</text>
</a>
</g>
</g>
<!-- Node2 -->
<g id="Node000002" class="node">
<title>Node2</title>
<g id="a_Node000002"><a xlink:title=" ">
<polygon fill="white" stroke="#666666" points="52,-85.75 0,-85.75 0,-66.5 52,-66.5 52,-85.75"/>
<text text-anchor="middle" x="26" y="-72.25" font-family="Helvetica,sans-Serif" font-size="10.00">QObject</text>
</a>
</g>
</g>
<!-- Node2&#45;&gt;Node1 -->
<g id="edge1_Node000001_Node000002" class="edge">
<title>Node2&#45;&gt;Node1</title>
<g id="a_edge1_Node000001_Node000002"><a xlink:title=" ">
<path fill="none" stroke="#63b8ff" d="M55.85,-61.17C82.77,-48.59 121.55,-30.47 144.62,-19.68"/>
<polygon fill="#63b8ff" stroke="#63b8ff" points="54.43,-57.97 46.85,-65.38 57.39,-64.32 54.43,-57.97"/>
</a>
</g>
</g>
<!-- Node3 -->
<g id="Node000003" class="node">
<title>Node3</title>
<g id="a_Node000003"><a xlink:href="../../d2/d3e/struct_i_media_notification.html" target="_top" xlink:title=" ">
<polygon fill="white" stroke="#666666" points="164,-85.75 70,-85.75 70,-66.5 164,-66.5 164,-85.75"/>
<text text-anchor="middle" x="117" y="-72.25" font-family="Helvetica,sans-Serif" font-size="10.00">IMediaNotification</text>
</a>
</g>
</g>
<!-- Node3&#45;&gt;Node1 -->
<g id="edge2_Node000001_Node000003" class="edge">
<title>Node3&#45;&gt;Node1</title>
<g id="a_edge2_Node000001_Node000003"><a xlink:title=" ">
<path fill="none" stroke="#63b8ff" d="M130.3,-56.88C139.2,-44.66 150.53,-29.11 157.52,-19.52"/>
<polygon fill="#63b8ff" stroke="#63b8ff" points="127.49,-54.79 124.43,-64.93 133.14,-58.91 127.49,-54.79"/>
</a>
</g>
</g>
<!-- Node4 -->
<g id="Node000004" class="node">
<title>Node4</title>
<g id="a_Node000004"><a xlink:href="../../d6/d44/struct_i_tasks_view.html" target="_top" xlink:title=" ">
<polygon fill="white" stroke="#666666" points="249.88,-85.75 182.12,-85.75 182.12,-66.5 249.88,-66.5 249.88,-85.75"/>
<text text-anchor="middle" x="216" y="-72.25" font-family="Helvetica,sans-Serif" font-size="10.00">ITasksView</text>
</a>
</g>
</g>
<!-- Node4&#45;&gt;Node1 -->
<g id="edge3_Node000001_Node000004" class="edge">
<title>Node4&#45;&gt;Node1</title>
<g id="a_edge3_Node000001_Node000004"><a xlink:title=" ">
<path fill="none" stroke="#9a32cd" stroke-dasharray="5,2" d="M201.59,-57.24C191.69,-44.97 178.98,-29.21 171.17,-19.52"/>
<polygon fill="#9a32cd" stroke="#9a32cd" points="198.82,-59.39 207.82,-64.98 204.27,-55 198.82,-59.39"/>
</a>
</g>
<text text-anchor="middle" x="223.86" y="-39" font-family="Helvetica,sans-Serif" font-size="10.00" fill="grey"> m_tasksView</text>
</g>
<!-- Node5 -->
<g id="Node000005" class="node">
<title>Node5</title>
<g id="a_Node000005"><a xlink:href="../../d9/d6e/class_project.html" target="_top" xlink:title=" ">
<polygon fill="#fff0f0" stroke="red" points="319.38,-85.75 272.62,-85.75 272.62,-66.5 319.38,-66.5 319.38,-85.75"/>
<text text-anchor="middle" x="296" y="-72.25" font-family="Helvetica,sans-Serif" font-size="10.00">Project</text>
</a>
</g>
</g>
<!-- Node5&#45;&gt;Node1 -->
<g id="edge4_Node000001_Node000005" class="edge">
<title>Node5&#45;&gt;Node1</title>
<g id="a_edge4_Node000001_Node000005"><a xlink:title=" ">
<path fill="none" stroke="#9a32cd" stroke-dasharray="5,2" d="M282.54,-57.74C276.12,-50.48 267.9,-42.52 259,-37.25 243.09,-27.82 223.69,-21.6 206.59,-17.57"/>
<polygon fill="#9a32cd" stroke="#9a32cd" points="279.59,-59.66 288.67,-65.14 284.99,-55.2 279.59,-59.66"/>
</a>
</g>
<text text-anchor="middle" x="295.29" y="-39" font-family="Helvetica,sans-Serif" font-size="10.00" fill="grey"> m_project</text>
</g>
</g>
</svg>
