<?xml version="1.0" encoding="UTF-8" standalone="no"?>
<!DOCTYPE svg PUBLIC "-//W3C//DTD SVG 1.1//EN"
 "http://www.w3.org/Graphics/SVG/1.1/DTD/svg11.dtd">
<!-- Generated by graphviz version 12.2.0 (20241103.1931)
 -->
<!-- Title: Photo::ExplicitDelta::getId Pages: 1 -->
<svg width="287pt" height="174pt"
 viewBox="0.00 0.00 286.75 173.88" xmlns="http://www.w3.org/2000/svg" xmlns:xlink="http://www.w3.org/1999/xlink">

<svg id="main" version="1.1" xmlns="http://www.w3.org/2000/svg" xmlns:xlink="http://www.w3.org/1999/xlink" xml:space="preserve">

<style type="text/css"><![CDATA[
.node, .edge {opacity: 0.7;}
.node.selected, .edge.selected {opacity: 1;}
.edge:hover path { stroke: red; }
.edge:hover polygon { stroke: red; fill: red; }
]]></style>
<script type="application/ecmascript" xlink:href="../../svg.min.js"/>
<svg id="graph" class="graph">
<g id="graph0" class="graph" transform="scale(1 1) rotate(0) translate(4 169.88)">
<title>Photo::ExplicitDelta::getId</title>
<!-- Node1 -->
<g id="Node000001" class="node">
<title>Node1</title>
<g id="a_Node000001"><a xlink:title=" ">
<polygon fill="#999999" stroke="#666666" points="278.75,-103.5 179.5,-103.5 179.5,-73 278.75,-73 278.75,-103.5"/>
<text text-anchor="start" x="187.5" y="-90" font-family="Helvetica,sans-Serif" font-size="10.00">Photo::ExplicitDelta</text>
<text text-anchor="middle" x="229.12" y="-78.75" font-family="Helvetica,sans-Serif" font-size="10.00">::getId</text>
</a>
</g>
</g>
<!-- Node2 -->
<g id="Node000002" class="node">
<title>Node2</title>
<g id="a_Node000002"><a xlink:href="../../dd/d0a/class_face_editor.html#acd98f4936f0f9f4672c64a49c101442d" target="_top" xlink:title=" ">
<polygon fill="#fff0f0" stroke="red" points="126.25,-165.88 17.25,-165.88 17.25,-146.62 126.25,-146.62 126.25,-165.88"/>
<text text-anchor="middle" x="71.75" y="-152.38" font-family="Helvetica,sans-Serif" font-size="10.00">FaceEditor::findFaces</text>
</a>
</g>
</g>
<!-- Node1&#45;&gt;Node2 -->
<g id="edge1_Node000001_Node000002" class="edge">
<title>Node1&#45;&gt;Node2</title>
<g id="a_edge1_Node000001_Node000002"><a xlink:title=" ">
<path fill="none" stroke="#63b8ff" d="M195.41,-109.9C180.12,-119.29 161.38,-129.83 143.5,-137.25 135.28,-140.66 126.26,-143.63 117.5,-146.14"/>
<polygon fill="#63b8ff" stroke="#63b8ff" points="197.02,-113.02 203.63,-104.73 193.3,-107.09 197.02,-113.02"/>
</a>
</g>
</g>
<!-- Node5 -->
<g id="Node000005" class="node">
<title>Node5</title>
<g id="a_Node000005"><a xlink:href="../../da/dba/class_database_1_1_memory_backend.html#a376836c36c75e766fad86566dbbe4be4" target="_top" xlink:title=" ">
<polygon fill="white" stroke="#666666" points="139,-128.5 4.5,-128.5 4.5,-98 139,-98 139,-128.5"/>
<text text-anchor="start" x="12.5" y="-115" font-family="Helvetica,sans-Serif" font-size="10.00">Database::MemoryBackend</text>
<text text-anchor="middle" x="71.75" y="-103.75" font-family="Helvetica,sans-Serif" font-size="10.00">::getIdFor</text>
</a>
</g>
</g>
<!-- Node1&#45;&gt;Node5 -->
<g id="edge2_Node000001_Node000005" class="edge">
<title>Node1&#45;&gt;Node5</title>
<g id="a_edge2_Node000001_Node000005"><a xlink:title=" ">
<path fill="none" stroke="#63b8ff" d="M168.09,-97.91C158.64,-99.43 148.83,-101.01 139.25,-102.55"/>
<polygon fill="#63b8ff" stroke="#63b8ff" points="168.58,-101.38 177.9,-96.33 167.47,-94.47 168.58,-101.38"/>
</a>
</g>
</g>
<!-- Node6 -->
<g id="Node000006" class="node">
<title>Node6</title>
<g id="a_Node000006"><a xlink:href="../../da/dba/class_database_1_1_memory_backend.html#ab5f22fc2d7d4f85f6e133e5a88e82ef9" target="_top" xlink:title=" ">
<polygon fill="white" stroke="#666666" points="139,-79.5 4.5,-79.5 4.5,-49 139,-49 139,-79.5"/>
<text text-anchor="start" x="12.5" y="-66" font-family="Helvetica,sans-Serif" font-size="10.00">Database::MemoryBackend</text>
<text text-anchor="middle" x="71.75" y="-54.75" font-family="Helvetica,sans-Serif" font-size="10.00">::removeGroup</text>
</a>
</g>
</g>
<!-- Node1&#45;&gt;Node6 -->
<g id="edge3_Node000001_Node000006" class="edge">
<title>Node1&#45;&gt;Node6</title>
<g id="a_edge3_Node000001_Node000006"><a xlink:title=" ">
<path fill="none" stroke="#63b8ff" d="M168.09,-78.98C158.64,-77.52 148.83,-76 139.25,-74.52"/>
<polygon fill="#63b8ff" stroke="#63b8ff" points="167.48,-82.42 177.89,-80.49 168.55,-75.51 167.48,-82.42"/>
</a>
</g>
</g>
<!-- Node7 -->
<g id="Node000007" class="node">
<title>Node7</title>
<g id="a_Node000007"><a xlink:href="../../d0/d89/class_database_1_1_a_photo_change_log_operator.html#a2553f497a5bdffdc081ed06c048921ef" target="_top" xlink:title=" ">
<polygon fill="#fff0f0" stroke="red" points="143.5,-30.5 0,-30.5 0,0 143.5,0 143.5,-30.5"/>
<text text-anchor="start" x="8" y="-17" font-family="Helvetica,sans-Serif" font-size="10.00">Database::APhotoChangeLog</text>
<text text-anchor="middle" x="71.75" y="-5.75" font-family="Helvetica,sans-Serif" font-size="10.00">Operator::storeDifference</text>
</a>
</g>
</g>
<!-- Node1&#45;&gt;Node7 -->
<g id="edge4_Node000001_Node000007" class="edge">
<title>Node1&#45;&gt;Node7</title>
<g id="a_edge4_Node000001_Node000007"><a xlink:title=" ">
<path fill="none" stroke="#63b8ff" d="M193.31,-66.67C178.3,-57.85 160.36,-47.94 143.5,-40.25 136.27,-36.95 128.47,-33.81 120.78,-30.93"/>
<polygon fill="#63b8ff" stroke="#63b8ff" points="191.5,-69.66 201.89,-71.78 195.09,-63.65 191.5,-69.66"/>
</a>
</g>
</g>
</g>
</svg>
</svg>

<style type='text/css'>
<![CDATA[
[data-mouse-over-selected='false'] { opacity: 0.7; }
[data-mouse-over-selected='true']  { opacity: 1.0; }
]]>
</style>
<script type="application/ecmascript"><![CDATA[
document.addEventListener('DOMContentLoaded', (event) => {
  highlightEdges();
  highlightAdjacentNodes();
});
]]></script>
</svg>
