<?xml version="1.0" encoding="UTF-8" standalone="no"?>
<!DOCTYPE svg PUBLIC "-//W3C//DTD SVG 1.1//EN"
 "http://www.w3.org/Graphics/SVG/1.1/DTD/svg11.dtd">
<!-- Generated by graphviz version 9.0.0 (20230911.1827)
 -->
<!-- Title: Photo::ExplicitDelta::fill Pages: 1 -->
<svg width="243pt" height="235pt"
 viewBox="0.00 0.00 242.50 234.50" xmlns="http://www.w3.org/2000/svg" xmlns:xlink="http://www.w3.org/1999/xlink">

<svg id="main" version="1.1" xmlns="http://www.w3.org/2000/svg" xmlns:xlink="http://www.w3.org/1999/xlink" xml:space="preserve" onload="init(evt)">
<style type="text/css"><![CDATA[
.node, .edge {opacity: 0.7;}
.node.selected, .edge.selected {opacity: 1;}
.edge:hover path { stroke: red; }
.edge:hover polygon { stroke: red; fill: red; }
]]></style>
<script type="application/ecmascript" xlink:href="../../svg.min.js"/>
<svg id="graph" class="graph">
<g id="graph0" class="graph" transform="scale(1 1) rotate(0) translate(4 230.5)">
<title>Photo::ExplicitDelta::fill</title>
<!-- Node1 -->
<g id="Node000001" class="node">
<title>Node1</title>
<g id="a_Node000001"><a xlink:title=" ">
<polygon fill="#999999" stroke="#666666" points="234.5,-128.5 135.25,-128.5 135.25,-98 234.5,-98 234.5,-128.5"/>
<text text-anchor="start" x="143.25" y="-115" font-family="Helvetica,sans-Serif" font-size="10.00">Photo::ExplicitDelta</text>
<text text-anchor="middle" x="184.88" y="-103.75" font-family="Helvetica,sans-Serif" font-size="10.00">::fill</text>
</a>
</g>
</g>
<!-- Node1&#45;&gt;Node1 -->
<g id="edge5_Node000001_Node000001" class="edge">
<title>Node1&#45;&gt;Node1</title>
<g id="a_edge5_Node000001_Node000001"><a xlink:title=" ">
<path fill="none" stroke="#63b8ff" d="M207.56,-140.2C203.85,-143.97 196.29,-146.5 184.88,-146.5 164.01,-146.5 156.02,-138.06 160.91,-128.99"/>
<polygon fill="#63b8ff" stroke="#63b8ff" points="211.01,-140.82 208.67,-130.49 204.05,-140.03 211.01,-140.82"/>
</a>
</g>
</g>
<!-- Node2 -->
<g id="Node000002" class="node">
<title>Node2</title>
<g id="a_Node000002"><a xlink:href="../../db/d29/class_photo_1_1_explicit_delta.html#a6b48470f5d93ff72aade0108d175d703" target="_top" xlink:title=" ">
<polygon fill="white" stroke="#666666" points="99.25,-226.5 0,-226.5 0,-196 99.25,-196 99.25,-226.5"/>
<text text-anchor="start" x="8" y="-213" font-family="Helvetica,sans-Serif" font-size="10.00">Photo::ExplicitDelta</text>
<text text-anchor="middle" x="49.62" y="-201.75" font-family="Helvetica,sans-Serif" font-size="10.00">::ExplicitDelta</text>
</a>
</g>
</g>
<!-- Node1&#45;&gt;Node2 -->
<g id="edge1_Node000001_Node000002" class="edge">
<title>Node1&#45;&gt;Node2</title>
<g id="a_edge1_Node000001_Node000002"><a xlink:title=" ">
<path fill="none" stroke="#63b8ff" d="M160.34,-136.24C144.01,-151.5 121.3,-171.38 99.25,-186.25 94.37,-189.54 89,-192.7 83.67,-195.61"/>
<polygon fill="#63b8ff" stroke="#63b8ff" points="162.31,-139.19 167.16,-129.77 157.5,-134.11 162.31,-139.19"/>
</a>
</g>
</g>
<!-- Node3 -->
<g id="Node000003" class="node">
<title>Node3</title>
<g id="a_Node000003"><a xlink:href="../../db/d29/class_photo_1_1_explicit_delta.html#ae0c8f7d1b8bdb8e43ad2f873022bb5cf" target="_top" xlink:title=" ">
<polygon fill="white" stroke="#666666" points="99.25,-177.5 0,-177.5 0,-147 99.25,-147 99.25,-177.5"/>
<text text-anchor="start" x="8" y="-164" font-family="Helvetica,sans-Serif" font-size="10.00">Photo::ExplicitDelta</text>
<text text-anchor="middle" x="49.62" y="-152.75" font-family="Helvetica,sans-Serif" font-size="10.00">::ExplicitDelta</text>
</a>
</g>
</g>
<!-- Node1&#45;&gt;Node3 -->
<g id="edge2_Node000001_Node000003" class="edge">
<title>Node1&#45;&gt;Node3</title>
<g id="a_edge2_Node000001_Node000003"><a xlink:title=" ">
<path fill="none" stroke="#63b8ff" d="M130.63,-132.83C118.19,-137.4 105.11,-142.21 93.21,-146.59"/>
<polygon fill="#63b8ff" stroke="#63b8ff" points="131.75,-136.15 139.93,-129.41 129.33,-129.58 131.75,-136.15"/>
</a>
</g>
</g>
<!-- Node4 -->
<g id="Node000004" class="node">
<title>Node4</title>
<g id="a_Node000004"><a xlink:href="../../db/d29/class_photo_1_1_explicit_delta.html#a1517d37189a750df063e7bbc7a831d77" target="_top" xlink:title=" ">
<polygon fill="white" stroke="#666666" points="99.25,-128.5 0,-128.5 0,-98 99.25,-98 99.25,-128.5"/>
<text text-anchor="start" x="8" y="-115" font-family="Helvetica,sans-Serif" font-size="10.00">Photo::ExplicitDelta</text>
<text text-anchor="middle" x="49.62" y="-103.75" font-family="Helvetica,sans-Serif" font-size="10.00">::ExplicitDelta</text>
</a>
</g>
</g>
<!-- Node1&#45;&gt;Node4 -->
<g id="edge3_Node000001_Node000004" class="edge">
<title>Node1&#45;&gt;Node4</title>
<g id="a_edge3_Node000001_Node000004"><a xlink:title=" ">
<path fill="none" stroke="#63b8ff" d="M123.69,-113.25C115.59,-113.25 107.36,-113.25 99.48,-113.25"/>
<polygon fill="#63b8ff" stroke="#63b8ff" points="123.5,-116.75 133.5,-113.25 123.5,-109.75 123.5,-116.75"/>
</a>
</g>
</g>
<!-- Node5 -->
<g id="Node000005" class="node">
<title>Node5</title>
<g id="a_Node000005"><a xlink:href="../../db/d29/class_photo_1_1_explicit_delta.html#a5784b880a4d09525ced3f50e1cea8c3f" target="_top" xlink:title=" ">
<polygon fill="white" stroke="#666666" points="99.25,-79.5 0,-79.5 0,-49 99.25,-49 99.25,-79.5"/>
<text text-anchor="start" x="8" y="-66" font-family="Helvetica,sans-Serif" font-size="10.00">Photo::ExplicitDelta</text>
<text text-anchor="middle" x="49.62" y="-54.75" font-family="Helvetica,sans-Serif" font-size="10.00">::ExplicitDelta</text>
</a>
</g>
</g>
<!-- Node1&#45;&gt;Node5 -->
<g id="edge4_Node000001_Node000005" class="edge">
<title>Node1&#45;&gt;Node5</title>
<g id="a_edge4_Node000001_Node000005"><a xlink:title=" ">
<path fill="none" stroke="#63b8ff" d="M130.63,-93.67C118.19,-89.1 105.11,-84.29 93.21,-79.91"/>
<polygon fill="#63b8ff" stroke="#63b8ff" points="129.33,-96.92 139.93,-97.09 131.75,-90.35 129.33,-96.92"/>
</a>
</g>
</g>
<!-- Node6 -->
<g id="Node000006" class="node">
<title>Node6</title>
<g id="a_Node000006"><a xlink:href="../../db/d29/class_photo_1_1_explicit_delta.html#ad7890b27689ea81215cb534bb78854c4" target="_top" xlink:title=" ">
<polygon fill="white" stroke="#666666" points="99.25,-30.5 0,-30.5 0,0 99.25,0 99.25,-30.5"/>
<text text-anchor="start" x="8" y="-17" font-family="Helvetica,sans-Serif" font-size="10.00">Photo::ExplicitDelta</text>
<text text-anchor="middle" x="49.62" y="-5.75" font-family="Helvetica,sans-Serif" font-size="10.00">::operator|=</text>
</a>
</g>
</g>
<!-- Node1&#45;&gt;Node6 -->
<g id="edge6_Node000001_Node000006" class="edge">
<title>Node1&#45;&gt;Node6</title>
<g id="a_edge6_Node000001_Node000006"><a xlink:title=" ">
<path fill="none" stroke="#63b8ff" d="M160.34,-90.26C144.01,-75 121.3,-55.12 99.25,-40.25 94.37,-36.96 89,-33.8 83.67,-30.89"/>
<polygon fill="#63b8ff" stroke="#63b8ff" points="157.5,-92.39 167.16,-96.73 162.31,-87.31 157.5,-92.39"/>
</a>
</g>
</g>
</g>
</svg>
</svg>

<style type='text/css'>
<![CDATA[
[data-mouse-over-selected='false'] { opacity: 0.7; }
[data-mouse-over-selected='true']  { opacity: 1.0; }
]]>
</style>
<script type="application/ecmascript"><![CDATA[
document.addEventListener('DOMContentLoaded', (event) => {
  highlightEdges();
  highlightAdjacentNodes();
});
]]></script>
</svg>
