<?xml version="1.0" encoding="UTF-8" standalone="no"?>
<!DOCTYPE svg PUBLIC "-//W3C//DTD SVG 1.1//EN"
 "http://www.w3.org/Graphics/SVG/1.1/DTD/svg11.dtd">
<!-- Generated by graphviz version 12.2.0 (20241103.1931)
 -->
<!-- Title: Photo::ExplicitDelta::has Pages: 1 -->
<svg width="281pt" height="260pt"
 viewBox="0.00 0.00 280.75 259.50" xmlns="http://www.w3.org/2000/svg" xmlns:xlink="http://www.w3.org/1999/xlink">

<svg id="main" version="1.1" xmlns="http://www.w3.org/2000/svg" xmlns:xlink="http://www.w3.org/1999/xlink" xml:space="preserve">

<style type="text/css"><![CDATA[
.node, .edge {opacity: 0.7;}
.node.selected, .edge.selected {opacity: 1;}
.edge:hover path { stroke: red; }
.edge:hover polygon { stroke: red; fill: red; }
]]></style>
<script type="application/ecmascript" xlink:href="../../svg.min.js"/>
<svg id="graph" class="graph">
<g id="graph0" class="graph" transform="scale(1 1) rotate(0) translate(4 255.5)">
<title>Photo::ExplicitDelta::has</title>
<!-- Node1 -->
<g id="Node000001" class="node">
<title>Node1</title>
<g id="a_Node000001"><a xlink:title=" ">
<polygon fill="#999999" stroke="#666666" points="272.75,-143.88 153.25,-143.88 153.25,-124.62 272.75,-124.62 272.75,-143.88"/>
<text text-anchor="middle" x="213" y="-130.38" font-family="Helvetica,sans-Serif" font-size="10.00">Photo::ExplicitDelta::has</text>
</a>
</g>
</g>
<!-- Node2 -->
<g id="Node000002" class="node">
<title>Node2</title>
<g id="a_Node000002"><a xlink:href="../../db/d29/class_photo_1_1_explicit_delta.html#a1517d37189a750df063e7bbc7a831d77" target="_top" xlink:title=" ">
<polygon fill="white" stroke="#666666" points="108.25,-251.5 9,-251.5 9,-221 108.25,-221 108.25,-251.5"/>
<text text-anchor="start" x="17" y="-238" font-family="Helvetica,sans-Serif" font-size="10.00">Photo::ExplicitDelta</text>
<text text-anchor="middle" x="58.62" y="-226.75" font-family="Helvetica,sans-Serif" font-size="10.00">::ExplicitDelta</text>
</a>
</g>
</g>
<!-- Node1&#45;&gt;Node2 -->
<g id="edge1_Node000001_Node000002" class="edge">
<title>Node1&#45;&gt;Node2</title>
<g id="a_edge1_Node000001_Node000002"><a xlink:title=" ">
<path fill="none" stroke="#63b8ff" d="M194,-151.84C175.79,-168.93 146.27,-194.79 117.25,-212.25 112.24,-215.27 106.77,-218.08 101.27,-220.64"/>
<polygon fill="#63b8ff" stroke="#63b8ff" points="196.06,-154.71 200.88,-145.28 191.23,-149.65 196.06,-154.71"/>
</a>
</g>
</g>
<!-- Node3 -->
<g id="Node000003" class="node">
<title>Node3</title>
<g id="a_Node000003"><a xlink:href="../../db/d29/class_photo_1_1_explicit_delta.html#a798c20babb6f45b46348df7bb7facd14" target="_top" xlink:title=" ">
<polygon fill="white" stroke="#666666" points="117.25,-202.88 0,-202.88 0,-183.62 117.25,-183.62 117.25,-202.88"/>
<text text-anchor="middle" x="58.62" y="-189.38" font-family="Helvetica,sans-Serif" font-size="10.00">Photo::ExplicitDelta::get</text>
</a>
</g>
</g>
<!-- Node1&#45;&gt;Node3 -->
<g id="edge2_Node000001_Node000003" class="edge">
<title>Node1&#45;&gt;Node3</title>
<g id="a_edge2_Node000001_Node000003"><a xlink:title=" ">
<path fill="none" stroke="#63b8ff" d="M180.1,-149.06C161.88,-157.26 138.5,-167.36 117.25,-175.25 109.78,-178.02 101.67,-180.74 93.95,-183.18"/>
<polygon fill="#63b8ff" stroke="#63b8ff" points="181.4,-152.31 189.06,-144.98 178.51,-145.93 181.4,-152.31"/>
</a>
</g>
</g>
<!-- Node4 -->
<g id="Node000004" class="node">
<title>Node4</title>
<g id="a_Node000004"><a xlink:href="../../db/d29/class_photo_1_1_explicit_delta.html#aa17dc0e526caaa840d26a44e3b0d9b40" target="_top" xlink:title=" ">
<polygon fill="#fff0f0" stroke="red" points="117.25,-165.88 0,-165.88 0,-146.62 117.25,-146.62 117.25,-165.88"/>
<text text-anchor="middle" x="58.62" y="-152.38" font-family="Helvetica,sans-Serif" font-size="10.00">Photo::ExplicitDelta::get</text>
</a>
</g>
</g>
<!-- Node1&#45;&gt;Node4 -->
<g id="edge3_Node000001_Node000004" class="edge">
<title>Node1&#45;&gt;Node4</title>
<g id="a_edge3_Node000001_Node000004"><a xlink:title=" ">
<path fill="none" stroke="#63b8ff" d="M141.77,-144.39C133.69,-145.56 125.52,-146.74 117.63,-147.88"/>
<polygon fill="#63b8ff" stroke="#63b8ff" points="142.19,-147.87 151.59,-142.97 141.19,-140.94 142.19,-147.87"/>
</a>
</g>
</g>
<!-- Node13 -->
<g id="Node000013" class="node">
<title>Node13</title>
<g id="a_Node000013"><a xlink:href="../../db/d29/class_photo_1_1_explicit_delta.html#a408a410342d25abd2215cc1f4a960d28" target="_top" xlink:title=" ">
<polygon fill="white" stroke="#666666" points="108.25,-128.5 9,-128.5 9,-98 108.25,-98 108.25,-128.5"/>
<text text-anchor="start" x="17" y="-115" font-family="Helvetica,sans-Serif" font-size="10.00">Photo::ExplicitDelta</text>
<text text-anchor="middle" x="58.62" y="-103.75" font-family="Helvetica,sans-Serif" font-size="10.00">::insert</text>
</a>
</g>
</g>
<!-- Node1&#45;&gt;Node13 -->
<g id="edge4_Node000001_Node000013" class="edge">
<title>Node1&#45;&gt;Node13</title>
<g id="a_edge4_Node000001_Node000013"><a xlink:title=" ">
<path fill="none" stroke="#63b8ff" d="M141.9,-124.59C130.61,-123.03 119.15,-121.45 108.51,-119.99"/>
<polygon fill="#63b8ff" stroke="#63b8ff" points="141.2,-128.03 151.59,-125.92 142.16,-121.09 141.2,-128.03"/>
</a>
</g>
</g>
<!-- Node14 -->
<g id="Node000014" class="node">
<title>Node14</title>
<g id="a_Node000014"><a xlink:href="../../db/d29/class_photo_1_1_explicit_delta.html#aa6f46f8207069282cf9e636a5499af89" target="_top" xlink:title=" ">
<polygon fill="white" stroke="#666666" points="108.25,-79.5 9,-79.5 9,-49 108.25,-49 108.25,-79.5"/>
<text text-anchor="start" x="17" y="-66" font-family="Helvetica,sans-Serif" font-size="10.00">Photo::ExplicitDelta</text>
<text text-anchor="middle" x="58.62" y="-54.75" font-family="Helvetica,sans-Serif" font-size="10.00">::operator|=</text>
</a>
</g>
</g>
<!-- Node1&#45;&gt;Node14 -->
<g id="edge5_Node000001_Node000014" class="edge">
<title>Node1&#45;&gt;Node14</title>
<g id="a_edge5_Node000001_Node000014"><a xlink:title=" ">
<path fill="none" stroke="#63b8ff" d="M181.22,-119.3C162.74,-110.42 138.73,-99.01 117.25,-89.25 110.5,-86.18 103.27,-82.98 96.29,-79.93"/>
<polygon fill="#63b8ff" stroke="#63b8ff" points="179.5,-122.36 190.03,-123.56 182.54,-116.06 179.5,-122.36"/>
</a>
</g>
</g>
<!-- Node15 -->
<g id="Node000015" class="node">
<title>Node15</title>
<g id="a_Node000015"><a xlink:href="../../db/d29/class_photo_1_1_explicit_delta.html#a95d074f58abb01db61cc054f5555eda9" target="_top" xlink:title=" ">
<polygon fill="#fff0f0" stroke="red" points="108.25,-30.5 9,-30.5 9,0 108.25,0 108.25,-30.5"/>
<text text-anchor="start" x="17" y="-17" font-family="Helvetica,sans-Serif" font-size="10.00">Photo::ExplicitDelta</text>
<text text-anchor="middle" x="58.62" y="-5.75" font-family="Helvetica,sans-Serif" font-size="10.00">::validate</text>
</a>
</g>
</g>
<!-- Node1&#45;&gt;Node15 -->
<g id="edge6_Node000001_Node000015" class="edge">
<title>Node1&#45;&gt;Node15</title>
<g id="a_edge6_Node000001_Node000015"><a xlink:title=" ">
<path fill="none" stroke="#63b8ff" d="M196.83,-115.47C179.39,-94.84 149.05,-61.79 117.25,-40.25 112.19,-36.83 106.59,-33.7 100.93,-30.91"/>
<polygon fill="#63b8ff" stroke="#63b8ff" points="194.06,-117.61 203.14,-123.08 199.45,-113.14 194.06,-117.61"/>
</a>
</g>
</g>
</g>
</svg>
</svg>

<style type='text/css'>
<![CDATA[
[data-mouse-over-selected='false'] { opacity: 0.7; }
[data-mouse-over-selected='true']  { opacity: 1.0; }
]]>
</style>
<script type="application/ecmascript"><![CDATA[
document.addEventListener('DOMContentLoaded', (event) => {
  highlightEdges();
  highlightAdjacentNodes();
});
]]></script>
</svg>
