<?xml version="1.0" encoding="UTF-8" standalone="no"?>
<!DOCTYPE svg PUBLIC "-//W3C//DTD SVG 1.1//EN"
 "http://www.w3.org/Graphics/SVG/1.1/DTD/svg11.dtd">
<!-- Generated by graphviz version 12.2.0 (20241103.1931)
 -->
<!-- Title: CoreFactoryAccessor Pages: 1 -->
<svg width="546pt" height="94pt"
 viewBox="0.00 0.00 546.27 93.75" xmlns="http://www.w3.org/2000/svg" xmlns:xlink="http://www.w3.org/1999/xlink">
<g id="graph0" class="graph" transform="scale(1 1) rotate(0) translate(4 89.75)">
<title>CoreFactoryAccessor</title>
<!-- Node1 -->
<g id="Node000001" class="node">
<title>Node1</title>
<g id="a_Node000001"><a xlink:title=" ">
<polygon fill="#999999" stroke="#666666" points="328.25,-19.25 218.5,-19.25 218.5,0 328.25,0 328.25,-19.25"/>
<text text-anchor="middle" x="273.38" y="-5.75" font-family="Helvetica,sans-Serif" font-size="10.00">CoreFactoryAccessor</text>
</a>
</g>
</g>
<!-- Node2 -->
<g id="Node000002" class="node">
<title>Node2</title>
<g id="a_Node000002"><a xlink:href="../../d5/da9/struct_i_core_factory_accessor.html" target="_top" xlink:title=" ">
<polygon fill="white" stroke="#666666" points="112.75,-85.75 0,-85.75 0,-66.5 112.75,-66.5 112.75,-85.75"/>
<text text-anchor="middle" x="56.38" y="-72.25" font-family="Helvetica,sans-Serif" font-size="10.00">ICoreFactoryAccessor</text>
</a>
</g>
</g>
<!-- Node2&#45;&gt;Node1 -->
<g id="edge1_Node000001_Node000002" class="edge">
<title>Node2&#45;&gt;Node1</title>
<g id="a_edge1_Node000001_Node000002"><a xlink:title=" ">
<path fill="none" stroke="#63b8ff" d="M96.58,-62.8C121.07,-55.33 153,-45.65 181.38,-37.25 201.46,-31.3 224.06,-24.76 241.84,-19.65"/>
<polygon fill="#63b8ff" stroke="#63b8ff" points="95.88,-59.36 87.34,-65.63 97.93,-66.05 95.88,-59.36"/>
</a>
</g>
</g>
<!-- Node3 -->
<g id="Node000003" class="node">
<title>Node3</title>
<g id="a_Node000003"><a xlink:href="../../d1/d78/struct_i_logger_factory.html" target="_top" xlink:title=" ">
<polygon fill="white" stroke="#666666" points="212,-85.75 130.75,-85.75 130.75,-66.5 212,-66.5 212,-85.75"/>
<text text-anchor="middle" x="171.38" y="-72.25" font-family="Helvetica,sans-Serif" font-size="10.00">ILoggerFactory</text>
</a>
</g>
</g>
<!-- Node3&#45;&gt;Node1 -->
<g id="edge2_Node000001_Node000003" class="edge">
<title>Node3&#45;&gt;Node1</title>
<g id="a_edge2_Node000001_Node000003"><a xlink:title=" ">
<path fill="none" stroke="#9a32cd" stroke-dasharray="5,2" d="M179.89,-56.16C183.72,-49.41 188.81,-42.24 195.12,-37.25 205.14,-29.33 217.65,-23.69 229.71,-19.72"/>
<polygon fill="#9a32cd" stroke="#9a32cd" points="176.95,-54.21 175.6,-64.72 183.21,-57.34 176.95,-54.21"/>
</a>
</g>
<text text-anchor="middle" x="232.25" y="-39" font-family="Helvetica,sans-Serif" font-size="10.00" fill="grey"> m_loggerFactory</text>
</g>
<!-- Node4 -->
<g id="Node000004" class="node">
<title>Node4</title>
<g id="a_Node000004"><a xlink:href="../../db/d10/struct_i_exif_reader_factory.html" target="_top" xlink:title=" ">
<polygon fill="white" stroke="#666666" points="328.25,-85.75 230.5,-85.75 230.5,-66.5 328.25,-66.5 328.25,-85.75"/>
<text text-anchor="middle" x="279.38" y="-72.25" font-family="Helvetica,sans-Serif" font-size="10.00">IExifReaderFactory</text>
</a>
</g>
</g>
<!-- Node4&#45;&gt;Node1 -->
<g id="edge3_Node000001_Node000004" class="edge">
<title>Node4&#45;&gt;Node1</title>
<g id="a_edge3_Node000001_Node000004"><a xlink:title=" ">
<path fill="none" stroke="#9a32cd" stroke-dasharray="5,2" d="M275.49,-55.11C275.15,-52.88 274.85,-50.65 274.62,-48.5 273.59,-38.69 273.34,-27.37 273.31,-19.68"/>
<polygon fill="#9a32cd" stroke="#9a32cd" points="272.01,-55.57 277.21,-64.81 278.91,-54.35 272.01,-55.57"/>
</a>
</g>
<text text-anchor="middle" x="321.5" y="-39" font-family="Helvetica,sans-Serif" font-size="10.00" fill="grey"> m_exifReaderFactory</text>
</g>
<!-- Node5 -->
<g id="Node000005" class="node">
<title>Node5</title>
<g id="a_Node000005"><a xlink:href="../../d7/db4/struct_i_configuration.html" target="_top" xlink:title=" ">
<polygon fill="white" stroke="#666666" points="428,-85.75 352.75,-85.75 352.75,-66.5 428,-66.5 428,-85.75"/>
<text text-anchor="middle" x="390.38" y="-72.25" font-family="Helvetica,sans-Serif" font-size="10.00">IConfiguration</text>
</a>
</g>
</g>
<!-- Node5&#45;&gt;Node1 -->
<g id="edge4_Node000001_Node000005" class="edge">
<title>Node5&#45;&gt;Node1</title>
<g id="a_edge4_Node000001_Node000005"><a xlink:title=" ">
<path fill="none" stroke="#9a32cd" stroke-dasharray="5,2" d="M383.03,-56.24C379.52,-49.39 374.69,-42.14 368.38,-37.25 356.86,-28.34 342.52,-22.41 328.5,-18.46"/>
<polygon fill="#9a32cd" stroke="#9a32cd" points="379.61,-57.17 386.86,-64.9 386.02,-54.34 379.61,-57.17"/>
</a>
</g>
<text text-anchor="middle" x="413.22" y="-39" font-family="Helvetica,sans-Serif" font-size="10.00" fill="grey"> m_configuration</text>
</g>
<!-- Node6 -->
<g id="Node000006" class="node">
<title>Node6</title>
<g id="a_Node000006"><a xlink:href="../../d5/d45/struct_i_task_executor.html" target="_top" xlink:title=" ">
<polygon fill="white" stroke="#666666" points="524.5,-85.75 446.25,-85.75 446.25,-66.5 524.5,-66.5 524.5,-85.75"/>
<text text-anchor="middle" x="485.38" y="-72.25" font-family="Helvetica,sans-Serif" font-size="10.00">ITaskExecutor</text>
</a>
</g>
</g>
<!-- Node6&#45;&gt;Node1 -->
<g id="edge5_Node000001_Node000006" class="edge">
<title>Node6&#45;&gt;Node1</title>
<g id="a_edge5_Node000001_Node000006"><a xlink:title=" ">
<path fill="none" stroke="#9a32cd" stroke-dasharray="5,2" d="M473.84,-56.98C468.25,-49.69 460.9,-41.91 452.38,-37.25 431.57,-25.86 373.03,-18.64 328.51,-14.64"/>
<polygon fill="#9a32cd" stroke="#9a32cd" points="470.86,-58.84 479.44,-65.06 476.61,-54.85 470.86,-58.84"/>
</a>
</g>
<text text-anchor="middle" x="502.27" y="-39" font-family="Helvetica,sans-Serif" font-size="10.00" fill="grey"> m_taskExecutor</text>
</g>
</g>
</svg>
