<?xml version="1.0" encoding="UTF-8" standalone="no"?>
<!DOCTYPE svg PUBLIC "-//W3C//DTD SVG 1.1//EN"
 "http://www.w3.org/Graphics/SVG/1.1/DTD/svg11.dtd">
<!-- Generated by graphviz version 12.2.0 (20241103.1931)
 -->
<!-- Title: src/core/qmodel_utils.hpp Pages: 1 -->
<svg width="817pt" height="94pt"
 viewBox="0.00 0.00 817.25 93.75" xmlns="http://www.w3.org/2000/svg" xmlns:xlink="http://www.w3.org/1999/xlink">
<g id="graph0" class="graph" transform="scale(1 1) rotate(0) translate(4 89.75)">
<title>src/core/qmodel_utils.hpp</title>
<!-- Node1 -->
<g id="Node000001" class="node">
<title>Node1</title>
<g id="a_Node000001"><a xlink:title=" ">
<polygon fill="#999999" stroke="#666666" points="465.12,-85.75 338.12,-85.75 338.12,-66.5 465.12,-66.5 465.12,-85.75"/>
<text text-anchor="middle" x="401.62" y="-72.25" font-family="Helvetica,sans-Serif" font-size="10.00">src/core/qmodel_utils.hpp</text>
</a>
</g>
</g>
<!-- Node2 -->
<g id="Node000002" class="node">
<title>Node2</title>
<g id="a_Node000002"><a xlink:href="../../df/d45/duplicates__model_8cpp.html" target="_top" xlink:title=" ">
<polygon fill="white" stroke="#666666" points="117.25,-30.5 0,-30.5 0,0 117.25,0 117.25,-30.5"/>
<text text-anchor="start" x="8" y="-17" font-family="Helvetica,sans-Serif" font-size="10.00">src/gui/desktop/models</text>
<text text-anchor="middle" x="58.62" y="-5.75" font-family="Helvetica,sans-Serif" font-size="10.00">/duplicates_model.cpp</text>
</a>
</g>
</g>
<!-- Node1&#45;&gt;Node2 -->
<g id="edge1_Node000001_Node000002" class="edge">
<title>Node1&#45;&gt;Node2</title>
<g id="a_edge1_Node000001_Node000002"><a xlink:title=" ">
<path fill="none" stroke="#63b8ff" d="M328.63,-64.33C272.89,-55.84 194.25,-43.34 125.62,-30.5 122.94,-30 120.19,-29.47 117.42,-28.93"/>
<polygon fill="#63b8ff" stroke="#63b8ff" points="327.91,-67.76 338.32,-65.8 328.96,-60.84 327.91,-67.76"/>
</a>
</g>
</g>
<!-- Node3 -->
<g id="Node000003" class="node">
<title>Node3</title>
<g id="a_Node000003"><a xlink:href="../../d4/df8/faces__model_8cpp.html" target="_top" xlink:title=" ">
<polygon fill="white" stroke="#666666" points="252.25,-30.5 135,-30.5 135,0 252.25,0 252.25,-30.5"/>
<text text-anchor="start" x="143" y="-17" font-family="Helvetica,sans-Serif" font-size="10.00">src/gui/desktop/models</text>
<text text-anchor="middle" x="193.62" y="-5.75" font-family="Helvetica,sans-Serif" font-size="10.00">/faces_model.cpp</text>
</a>
</g>
</g>
<!-- Node1&#45;&gt;Node3 -->
<g id="edge2_Node000001_Node000003" class="edge">
<title>Node1&#45;&gt;Node3</title>
<g id="a_edge2_Node000001_Node000003"><a xlink:title=" ">
<path fill="none" stroke="#63b8ff" d="M358.53,-62.93C325.7,-53.63 280.37,-40.8 245.54,-30.94"/>
<polygon fill="#63b8ff" stroke="#63b8ff" points="357.55,-66.29 368.12,-65.64 359.46,-59.55 357.55,-66.29"/>
</a>
</g>
</g>
<!-- Node4 -->
<g id="Node000004" class="node">
<title>Node4</title>
<g id="a_Node000004"><a xlink:href="../../da/d51/notifications__model_8cpp.html" target="_top" xlink:title=" ">
<polygon fill="white" stroke="#666666" points="390.75,-30.5 270.5,-30.5 270.5,0 390.75,0 390.75,-30.5"/>
<text text-anchor="start" x="278.5" y="-17" font-family="Helvetica,sans-Serif" font-size="10.00">src/gui/desktop/models</text>
<text text-anchor="middle" x="330.62" y="-5.75" font-family="Helvetica,sans-Serif" font-size="10.00">/notifications_model.cpp</text>
</a>
</g>
</g>
<!-- Node1&#45;&gt;Node4 -->
<g id="edge3_Node000001_Node000004" class="edge">
<title>Node1&#45;&gt;Node4</title>
<g id="a_edge3_Node000001_Node000004"><a xlink:title=" ">
<path fill="none" stroke="#63b8ff" d="M382.25,-59.06C371.6,-50.23 358.49,-39.36 348.15,-30.78"/>
<polygon fill="#63b8ff" stroke="#63b8ff" points="379.74,-61.53 389.68,-65.22 384.21,-56.14 379.74,-61.53"/>
</a>
</g>
</g>
<!-- Node5 -->
<g id="Node000005" class="node">
<title>Node5</title>
<g id="a_Node000005"><a xlink:href="../../dc/d26/photos__data__guesser_8cpp.html" target="_top" xlink:title=" ">
<polygon fill="white" stroke="#666666" points="538.62,-30.5 408.62,-30.5 408.62,0 538.62,0 538.62,-30.5"/>
<text text-anchor="start" x="416.62" y="-17" font-family="Helvetica,sans-Serif" font-size="10.00">src/gui/desktop/models</text>
<text text-anchor="middle" x="473.62" y="-5.75" font-family="Helvetica,sans-Serif" font-size="10.00">/photos_data_guesser.cpp</text>
</a>
</g>
</g>
<!-- Node1&#45;&gt;Node5 -->
<g id="edge4_Node000001_Node000005" class="edge">
<title>Node1&#45;&gt;Node5</title>
<g id="a_edge4_Node000001_Node000005"><a xlink:title=" ">
<path fill="none" stroke="#63b8ff" d="M421.28,-59.06C432.07,-50.23 445.37,-39.36 455.85,-30.78"/>
<polygon fill="#63b8ff" stroke="#63b8ff" points="419.26,-56.19 413.73,-65.23 423.69,-61.6 419.26,-56.19"/>
</a>
</g>
</g>
<!-- Node6 -->
<g id="Node000006" class="node">
<title>Node6</title>
<g id="a_Node000006"><a xlink:href="../../dd/d30/series__model_8cpp.html" target="_top" xlink:title=" ">
<polygon fill="white" stroke="#666666" points="674.25,-30.5 557,-30.5 557,0 674.25,0 674.25,-30.5"/>
<text text-anchor="start" x="565" y="-17" font-family="Helvetica,sans-Serif" font-size="10.00">src/gui/desktop/models</text>
<text text-anchor="middle" x="615.62" y="-5.75" font-family="Helvetica,sans-Serif" font-size="10.00">/series_model.cpp</text>
</a>
</g>
</g>
<!-- Node1&#45;&gt;Node6 -->
<g id="edge5_Node000001_Node000006" class="edge">
<title>Node1&#45;&gt;Node6</title>
<g id="a_edge5_Node000001_Node000006"><a xlink:title=" ">
<path fill="none" stroke="#63b8ff" d="M445.52,-63.05C479.33,-53.75 526.22,-40.85 562.21,-30.94"/>
<polygon fill="#63b8ff" stroke="#63b8ff" points="444.77,-59.63 436.05,-65.65 446.62,-66.38 444.77,-59.63"/>
</a>
</g>
</g>
<!-- Node7 -->
<g id="Node000007" class="node">
<title>Node7</title>
<g id="a_Node000007"><a xlink:href="../../d5/d0e/tasks__model_8cpp.html" target="_top" xlink:title=" ">
<polygon fill="white" stroke="#666666" points="809.25,-30.5 692,-30.5 692,0 809.25,0 809.25,-30.5"/>
<text text-anchor="start" x="700" y="-17" font-family="Helvetica,sans-Serif" font-size="10.00">src/gui/desktop/models</text>
<text text-anchor="middle" x="750.62" y="-5.75" font-family="Helvetica,sans-Serif" font-size="10.00">/tasks_model.cpp</text>
</a>
</g>
</g>
<!-- Node1&#45;&gt;Node7 -->
<g id="edge6_Node000001_Node000007" class="edge">
<title>Node1&#45;&gt;Node7</title>
<g id="a_edge6_Node000001_Node000007"><a xlink:title=" ">
<path fill="none" stroke="#63b8ff" d="M476.42,-64.39C533.36,-55.94 613.6,-43.48 683.62,-30.5 686.31,-30 689.06,-29.48 691.83,-28.94"/>
<polygon fill="#63b8ff" stroke="#63b8ff" points="476.23,-60.88 466.84,-65.8 477.25,-67.8 476.23,-60.88"/>
</a>
</g>
</g>
</g>
</svg>
