<?xml version="1.0" encoding="UTF-8" standalone="no"?>
<!DOCTYPE svg PUBLIC "-//W3C//DTD SVG 1.1//EN"
 "http://www.w3.org/Graphics/SVG/1.1/DTD/svg11.dtd">
<!-- Generated by graphviz version 12.2.0 (20241103.1931)
 -->
<!-- Title: src/core/itask_executor.hpp Pages: 1 -->
<svg width="506pt" height="83pt"
 viewBox="0.00 0.00 505.75 82.50" xmlns="http://www.w3.org/2000/svg" xmlns:xlink="http://www.w3.org/1999/xlink">
<g id="graph0" class="graph" transform="scale(1 1) rotate(0) translate(4 78.5)">
<title>src/core/itask_executor.hpp</title>
<!-- Node1 -->
<g id="Node000001" class="node">
<title>Node1</title>
<g id="a_Node000001"><a xlink:title=" ">
<polygon fill="#999999" stroke="#666666" points="320.5,-74.5 185.25,-74.5 185.25,-55.25 320.5,-55.25 320.5,-74.5"/>
<text text-anchor="middle" x="252.88" y="-61" font-family="Helvetica,sans-Serif" font-size="10.00">src/core/itask_executor.hpp</text>
</a>
</g>
</g>
<!-- Node2 -->
<g id="Node000002" class="node">
<title>Node2</title>
<g id="a_Node000002"><a xlink:title=" ">
<polygon fill="#e0e0e0" stroke="#999999" points="55.75,-19.25 0,-19.25 0,0 55.75,0 55.75,-19.25"/>
<text text-anchor="middle" x="27.88" y="-5.75" font-family="Helvetica,sans-Serif" font-size="10.00">coroutine</text>
</a>
</g>
</g>
<!-- Node1&#45;&gt;Node2 -->
<g id="edge1_Node000001_Node000002" class="edge">
<title>Node1&#45;&gt;Node2</title>
<g id="a_edge1_Node000001_Node000002"><a xlink:title=" ">
<path fill="none" stroke="#63b8ff" d="M214.45,-54.78C173.38,-45.06 108.59,-29.73 67.18,-19.93"/>
<polygon fill="#63b8ff" stroke="#63b8ff" points="68.17,-16.57 57.64,-17.67 66.56,-23.38 68.17,-16.57"/>
</a>
</g>
</g>
<!-- Node3 -->
<g id="Node000003" class="node">
<title>Node3</title>
<g id="a_Node000003"><a xlink:title=" ">
<polygon fill="#e0e0e0" stroke="#999999" points="131.5,-19.25 74.25,-19.25 74.25,0 131.5,0 131.5,-19.25"/>
<text text-anchor="middle" x="102.88" y="-5.75" font-family="Helvetica,sans-Serif" font-size="10.00">exception</text>
</a>
</g>
</g>
<!-- Node1&#45;&gt;Node3 -->
<g id="edge2_Node000001_Node000003" class="edge">
<title>Node1&#45;&gt;Node3</title>
<g id="a_edge2_Node000001_Node000003"><a xlink:title=" ">
<path fill="none" stroke="#63b8ff" d="M227.43,-54.84C203.19,-46.24 166.44,-33.19 139.14,-23.5"/>
<polygon fill="#63b8ff" stroke="#63b8ff" points="140.47,-20.26 129.87,-20.21 138.12,-26.85 140.47,-20.26"/>
</a>
</g>
</g>
<!-- Node4 -->
<g id="Node000004" class="node">
<title>Node4</title>
<g id="a_Node000004"><a xlink:title=" ">
<polygon fill="#e0e0e0" stroke="#999999" points="207.88,-19.25 149.88,-19.25 149.88,0 207.88,0 207.88,-19.25"/>
<text text-anchor="middle" x="178.88" y="-5.75" font-family="Helvetica,sans-Serif" font-size="10.00">functional</text>
</a>
</g>
</g>
<!-- Node1&#45;&gt;Node4 -->
<g id="edge3_Node000001_Node000004" class="edge">
<title>Node1&#45;&gt;Node4</title>
<g id="a_edge3_Node000001_Node000004"><a xlink:title=" ">
<path fill="none" stroke="#63b8ff" d="M240.32,-54.84C229.41,-46.99 213.37,-35.45 200.41,-26.12"/>
<polygon fill="#63b8ff" stroke="#63b8ff" points="202.63,-23.41 192.47,-20.41 198.54,-29.09 202.63,-23.41"/>
</a>
</g>
</g>
<!-- Node5 -->
<g id="Node000005" class="node">
<title>Node5</title>
<g id="a_Node000005"><a xlink:title=" ">
<polygon fill="#e0e0e0" stroke="#999999" points="279.62,-19.25 226.12,-19.25 226.12,0 279.62,0 279.62,-19.25"/>
<text text-anchor="middle" x="252.88" y="-5.75" font-family="Helvetica,sans-Serif" font-size="10.00">iostream</text>
</a>
</g>
</g>
<!-- Node1&#45;&gt;Node5 -->
<g id="edge4_Node000001_Node000005" class="edge">
<title>Node1&#45;&gt;Node5</title>
<g id="a_edge4_Node000001_Node000005"><a xlink:title=" ">
<path fill="none" stroke="#63b8ff" d="M252.88,-55.08C252.88,-48.57 252.88,-39.42 252.88,-31.12"/>
<polygon fill="#63b8ff" stroke="#63b8ff" points="256.38,-31.12 252.88,-21.12 249.38,-31.12 256.38,-31.12"/>
</a>
</g>
</g>
<!-- Node6 -->
<g id="Node000006" class="node">
<title>Node6</title>
<g id="a_Node000006"><a xlink:title=" ">
<polygon fill="#e0e0e0" stroke="#999999" points="348.12,-19.25 297.62,-19.25 297.62,0 348.12,0 348.12,-19.25"/>
<text text-anchor="middle" x="322.88" y="-5.75" font-family="Helvetica,sans-Serif" font-size="10.00">memory</text>
</a>
</g>
</g>
<!-- Node1&#45;&gt;Node6 -->
<g id="edge5_Node000001_Node000006" class="edge">
<title>Node1&#45;&gt;Node6</title>
<g id="a_edge5_Node000001_Node000006"><a xlink:title=" ">
<path fill="none" stroke="#63b8ff" d="M264.75,-54.84C274.97,-47.07 289.95,-35.67 302.14,-26.4"/>
<polygon fill="#63b8ff" stroke="#63b8ff" points="304.13,-29.28 309.97,-20.44 299.89,-23.71 304.13,-29.28"/>
</a>
</g>
</g>
<!-- Node7 -->
<g id="Node000007" class="node">
<title>Node7</title>
<g id="a_Node000007"><a xlink:title=" ">
<polygon fill="#e0e0e0" stroke="#999999" points="405.88,-19.25 365.88,-19.25 365.88,0 405.88,0 405.88,-19.25"/>
<text text-anchor="middle" x="385.88" y="-5.75" font-family="Helvetica,sans-Serif" font-size="10.00">string</text>
</a>
</g>
</g>
<!-- Node1&#45;&gt;Node7 -->
<g id="edge6_Node000001_Node000007" class="edge">
<title>Node1&#45;&gt;Node7</title>
<g id="a_edge6_Node000001_Node000007"><a xlink:title=" ">
<path fill="none" stroke="#63b8ff" d="M275.44,-54.84C297.29,-46.09 330.6,-32.76 354.92,-23.02"/>
<polygon fill="#63b8ff" stroke="#63b8ff" points="356,-26.36 363.98,-19.39 353.4,-19.86 356,-26.36"/>
</a>
</g>
</g>
<!-- Node8 -->
<g id="Node000008" class="node">
<title>Node8</title>
<g id="a_Node000008"><a xlink:title=" ">
<polygon fill="#e0e0e0" stroke="#999999" points="497.75,-19.25 424,-19.25 424,0 497.75,0 497.75,-19.25"/>
<text text-anchor="middle" x="460.88" y="-5.75" font-family="Helvetica,sans-Serif" font-size="10.00">core_export.h</text>
</a>
</g>
</g>
<!-- Node1&#45;&gt;Node8 -->
<g id="edge7_Node000001_Node000008" class="edge">
<title>Node1&#45;&gt;Node8</title>
<g id="a_edge7_Node000001_Node000008"><a xlink:title=" ">
<path fill="none" stroke="#63b8ff" d="M288.16,-54.84C322.97,-45.93 376.38,-32.26 414.58,-22.48"/>
<polygon fill="#63b8ff" stroke="#63b8ff" points="415.13,-25.95 423.95,-20.08 413.4,-19.17 415.13,-25.95"/>
</a>
</g>
</g>
</g>
</svg>
