<?xml version="1.0" encoding="UTF-8" standalone="no"?>
<!DOCTYPE svg PUBLIC "-//W3C//DTD SVG 1.1//EN"
 "http://www.w3.org/Graphics/SVG/1.1/DTD/svg11.dtd">
<!-- Generated by graphviz version 9.0.0 (20230911.1827)
 -->
<!-- Title: Status::get Pages: 1 -->
<svg width="246pt" height="101pt"
 viewBox="0.00 0.00 245.50 101.25" xmlns="http://www.w3.org/2000/svg" xmlns:xlink="http://www.w3.org/1999/xlink">

<svg id="main" version="1.1" xmlns="http://www.w3.org/2000/svg" xmlns:xlink="http://www.w3.org/1999/xlink" xml:space="preserve" onload="init(evt)">
<style type="text/css"><![CDATA[
.node, .edge {opacity: 0.7;}
.node.selected, .edge.selected {opacity: 1;}
.edge:hover path { stroke: red; }
.edge:hover polygon { stroke: red; fill: red; }
]]></style>
<script type="application/ecmascript" xlink:href="../../svg.min.js"/>
<svg id="graph" class="graph">
<g id="graph0" class="graph" transform="scale(1 1) rotate(0) translate(4 97.25)">
<title>Status::get</title>
<!-- Node1 -->
<g id="Node000001" class="node">
<title>Node1</title>
<g id="a_Node000001"><a xlink:title=" ">
<polygon fill="#999999" stroke="#666666" points="237.5,-56.25 175,-56.25 175,-37 237.5,-37 237.5,-56.25"/>
<text text-anchor="middle" x="206.25" y="-42.75" font-family="Helvetica,sans-Serif" font-size="10.00">Status::get</text>
</a>
</g>
</g>
<!-- Node2 -->
<g id="Node000002" class="node">
<title>Node2</title>
<g id="a_Node000002"><a xlink:href="../../d7/d93/class_project_manager.html#ac970236f08b83d3edbae94ba2e8947bc" target="_top" xlink:title=" ">
<polygon fill="#fff0f0" stroke="red" points="124.38,-93.25 14.62,-93.25 14.62,-74 124.38,-74 124.38,-93.25"/>
<text text-anchor="middle" x="69.5" y="-79.75" font-family="Helvetica,sans-Serif" font-size="10.00">ProjectManager::open</text>
</a>
</g>
</g>
<!-- Node1&#45;&gt;Node2 -->
<g id="edge1_Node000001_Node000002" class="edge">
<title>Node1&#45;&gt;Node2</title>
<g id="a_edge1_Node000001_Node000002"><a xlink:title=" ">
<path fill="none" stroke="#63b8ff" d="M163.74,-58.68C155.55,-61.02 147.01,-63.42 139,-65.62 129.4,-68.26 119.01,-71.03 109.3,-73.59"/>
<polygon fill="#63b8ff" stroke="#63b8ff" points="164.51,-62.1 173.16,-55.98 162.58,-55.37 164.51,-62.1"/>
</a>
</g>
</g>
<!-- Node4 -->
<g id="Node000004" class="node">
<title>Node4</title>
<g id="a_Node000004"><a xlink:href="../../d9/dc6/class_main_window.html#a2c2d7e1cdd309b698173f750f3d98738" target="_top" xlink:title=" ">
<polygon fill="#fff0f0" stroke="red" points="139,-56.25 0,-56.25 0,-37 139,-37 139,-56.25"/>
<text text-anchor="middle" x="69.5" y="-42.75" font-family="Helvetica,sans-Serif" font-size="10.00">MainWindow::projectOpened</text>
</a>
</g>
</g>
<!-- Node1&#45;&gt;Node4 -->
<g id="edge2_Node000001_Node000004" class="edge">
<title>Node1&#45;&gt;Node4</title>
<g id="a_edge2_Node000001_Node000004"><a xlink:title=" ">
<path fill="none" stroke="#63b8ff" d="M163.23,-46.62C155.65,-46.62 147.56,-46.62 139.44,-46.62"/>
<polygon fill="#63b8ff" stroke="#63b8ff" points="163.16,-50.13 173.16,-46.63 163.16,-43.13 163.16,-50.13"/>
</a>
</g>
</g>
<!-- Node10 -->
<g id="Node000010" class="node">
<title>Node10</title>
<g id="a_Node000010"><a xlink:href="../../d3/d40/status__tests_8cpp.html#a604f70e6ed2143514f49670b99c7675c" target="_top" xlink:title=" ">
<polygon fill="white" stroke="#666666" points="89.88,-19.25 49.12,-19.25 49.12,0 89.88,0 89.88,-19.25"/>
<text text-anchor="middle" x="69.5" y="-5.75" font-family="Helvetica,sans-Serif" font-size="10.00">TEST</text>
</a>
</g>
</g>
<!-- Node1&#45;&gt;Node10 -->
<g id="edge3_Node000001_Node000010" class="edge">
<title>Node1&#45;&gt;Node10</title>
<g id="a_edge3_Node000001_Node000010"><a xlink:title=" ">
<path fill="none" stroke="#63b8ff" d="M163.74,-34.57C155.55,-32.23 147.01,-29.83 139,-27.62 122.64,-23.13 104.01,-18.25 90.32,-14.71"/>
<polygon fill="#63b8ff" stroke="#63b8ff" points="162.58,-37.88 173.16,-37.27 164.51,-31.15 162.58,-37.88"/>
</a>
</g>
</g>
</g>
</svg>
</svg>

<style type='text/css'>
<![CDATA[
[data-mouse-over-selected='false'] { opacity: 0.7; }
[data-mouse-over-selected='true']  { opacity: 1.0; }
]]>
</style>
<script type="application/ecmascript"><![CDATA[
document.addEventListener('DOMContentLoaded', (event) => {
  highlightEdges();
  highlightAdjacentNodes();
});
]]></script>
</svg>
