<?xml version="1.0" encoding="UTF-8" standalone="no"?>
<!DOCTYPE svg PUBLIC "-//W3C//DTD SVG 1.1//EN"
 "http://www.w3.org/Graphics/SVG/1.1/DTD/svg11.dtd">
<!-- Generated by graphviz version 12.2.0 (20241103.1931)
 -->
<!-- Title: src/gui/desktop/quick_items/photo_data_qml.cpp Pages: 1 -->
<svg width="254pt" height="94pt"
 viewBox="0.00 0.00 253.50 93.75" xmlns="http://www.w3.org/2000/svg" xmlns:xlink="http://www.w3.org/1999/xlink">
<g id="graph0" class="graph" transform="scale(1 1) rotate(0) translate(4 89.75)">
<title>src/gui/desktop/quick_items/photo_data_qml.cpp</title>
<!-- Node1 -->
<g id="Node000001" class="node">
<title>Node1</title>
<g id="a_Node000001"><a xlink:title=" ">
<polygon fill="#999999" stroke="#666666" points="195.62,-85.75 60.38,-85.75 60.38,-55.25 195.62,-55.25 195.62,-85.75"/>
<text text-anchor="start" x="68.38" y="-72.25" font-family="Helvetica,sans-Serif" font-size="10.00">src/gui/desktop/quick</text>
<text text-anchor="middle" x="128" y="-61" font-family="Helvetica,sans-Serif" font-size="10.00">_items/photo_data_qml.cpp</text>
</a>
</g>
</g>
<!-- Node2 -->
<g id="Node000002" class="node">
<title>Node2</title>
<g id="a_Node000002"><a xlink:href="../../da/d1a/photo__utils_8hpp.html" target="_top" xlink:title=" ">
<polygon fill="#fff0f0" stroke="red" points="124,-19.25 0,-19.25 0,0 124,0 124,-19.25"/>
<text text-anchor="middle" x="62" y="-5.75" font-family="Helvetica,sans-Serif" font-size="10.00">database/photo_utils.hpp</text>
</a>
</g>
</g>
<!-- Node1&#45;&gt;Node2 -->
<g id="edge1_Node000001_Node000002" class="edge">
<title>Node1&#45;&gt;Node2</title>
<g id="a_edge1_Node000001_Node000002"><a xlink:title=" ">
<path fill="none" stroke="#63b8ff" d="M111.69,-54.95C102.31,-46.59 90.5,-36.05 80.75,-27.35"/>
<polygon fill="#63b8ff" stroke="#63b8ff" points="83.1,-24.75 73.3,-20.71 78.44,-29.98 83.1,-24.75"/>
</a>
</g>
</g>
<!-- Node36 -->
<g id="Node000036" class="node">
<title>Node36</title>
<g id="a_Node000036"><a xlink:href="../../d0/dcc/photo__data__qml_8hpp.html" target="_top" xlink:title=" ">
<polygon fill="#fff0f0" stroke="red" points="245.5,-19.25 142.5,-19.25 142.5,0 245.5,0 245.5,-19.25"/>
<text text-anchor="middle" x="194" y="-5.75" font-family="Helvetica,sans-Serif" font-size="10.00">photo_data_qml.hpp</text>
</a>
</g>
</g>
<!-- Node1&#45;&gt;Node36 -->
<g id="edge2_Node000001_Node000036" class="edge">
<title>Node1&#45;&gt;Node36</title>
<g id="a_edge2_Node000001_Node000036"><a xlink:title=" ">
<path fill="none" stroke="#63b8ff" d="M144.31,-54.95C153.69,-46.59 165.5,-36.05 175.25,-27.35"/>
<polygon fill="#63b8ff" stroke="#63b8ff" points="177.56,-29.98 182.7,-20.71 172.9,-24.75 177.56,-29.98"/>
</a>
</g>
</g>
</g>
</svg>
