<?xml version="1.0" encoding="UTF-8" standalone="no"?>
<!DOCTYPE svg PUBLIC "-//W3C//DTD SVG 1.1//EN"
 "http://www.w3.org/Graphics/SVG/1.1/DTD/svg11.dtd">
<!-- Generated by graphviz version 7.0.5 (20221223.1930)
 -->
<!-- Title: FeaturesManager::refreshTools Pages: 1 -->
<svg width="303pt" height="64pt"
 viewBox="0.00 0.00 303.00 64.00" xmlns="http://www.w3.org/2000/svg" xmlns:xlink="http://www.w3.org/1999/xlink">
<g id="graph0" class="graph" transform="scale(1 1) rotate(0) translate(4 60)">
<title>FeaturesManager::refreshTools</title>
<!-- Node1 -->
<g id="node1" class="node">
<title>Node1</title>
<g id="a_node1"><a xlink:title=" ">
<polygon fill="#999999" stroke="#666666" points="127,-42.5 0,-42.5 0,-12.5 127,-12.5 127,-42.5"/>
<text text-anchor="start" x="8" y="-30.5" font-family="Helvetica,sans-Serif" font-size="10.00">FeaturesManager::refresh</text>
<text text-anchor="middle" x="63.5" y="-19.5" font-family="Helvetica,sans-Serif" font-size="10.00">Tools</text>
</a>
</g>
</g>
<!-- Node2 -->
<g id="node2" class="node">
<title>Node2</title>
<g id="a_node2"><a xlink:href="../../d7/db4/struct_i_configuration.html#a56f21aac17f8a84e7c708081b922f595" target="_top" xlink:title=" ">
<polygon fill="white" stroke="#666666" points="287,-56 171,-56 171,-37 287,-37 287,-56"/>
<text text-anchor="middle" x="229" y="-44" font-family="Helvetica,sans-Serif" font-size="10.00">IConfiguration::getEntry</text>
</a>
</g>
</g>
<!-- Node1&#45;&gt;Node2 -->
<g id="edge1" class="edge">
<title>Node1&#45;&gt;Node2</title>
<path fill="none" stroke="#63b8ff" d="M127.25,-34.79C137.69,-36.01 148.58,-37.27 159.17,-38.5"/>
<polygon fill="#63b8ff" stroke="#63b8ff" points="158.67,-41.97 169.01,-39.64 159.48,-35.01 158.67,-41.97"/>
</g>
<!-- Node3 -->
<g id="node3" class="node">
<title>Node3</title>
<g id="a_node3"><a xlink:href="../../d6/deb/class_features_manager.html#a60a7800ad3da2ad31b40756fc58d9d16" target="_top" xlink:title=" ">
<polygon fill="#fff0f0" stroke="red" points="295,-19 163,-19 163,0 295,0 295,-19"/>
<text text-anchor="middle" x="229" y="-7" font-family="Helvetica,sans-Serif" font-size="10.00">FeaturesManager::testTool</text>
</a>
</g>
</g>
<!-- Node1&#45;&gt;Node3 -->
<g id="edge2" class="edge">
<title>Node1&#45;&gt;Node3</title>
<path fill="none" stroke="#63b8ff" d="M127.25,-20.59C135.14,-19.72 143.29,-18.83 151.37,-17.94"/>
<polygon fill="#63b8ff" stroke="#63b8ff" points="151.65,-21.43 161.21,-16.85 150.88,-14.47 151.65,-21.43"/>
</g>
</g>
</svg>
