<?xml version="1.0" encoding="UTF-8" standalone="no"?>
<!DOCTYPE svg PUBLIC "-//W3C//DTD SVG 1.1//EN"
 "http://www.w3.org/Graphics/SVG/1.1/DTD/svg11.dtd">
<!-- Generated by graphviz version 7.0.5 (20221223.1930)
 -->
<!-- Title: FeaturesManager::FeaturesManager Pages: 1 -->
<svg width="340pt" height="101pt"
 viewBox="0.00 0.00 340.00 101.00" xmlns="http://www.w3.org/2000/svg" xmlns:xlink="http://www.w3.org/1999/xlink">
<g id="graph0" class="graph" transform="scale(1 1) rotate(0) translate(4 97)">
<title>FeaturesManager::FeaturesManager</title>
<!-- Node1 -->
<g id="node1" class="node">
<title>Node1</title>
<g id="a_node1"><a xlink:title=" ">
<polygon fill="#999999" stroke="#666666" points="135,-61.5 0,-61.5 0,-31.5 135,-31.5 135,-61.5"/>
<text text-anchor="start" x="8" y="-49.5" font-family="Helvetica,sans-Serif" font-size="10.00">FeaturesManager::Features</text>
<text text-anchor="middle" x="67.5" y="-38.5" font-family="Helvetica,sans-Serif" font-size="10.00">Manager</text>
</a>
</g>
</g>
<!-- Node2 -->
<g id="node2" class="node">
<title>Node2</title>
<g id="a_node2"><a xlink:href="../../d6/deb/class_features_manager.html#a03c782802bd77ddb75941b6c150746a2" target="_top" xlink:title=" ">
<polygon fill="#fff0f0" stroke="red" points="332,-93 171,-93 171,-74 332,-74 332,-93"/>
<text text-anchor="middle" x="251.5" y="-81" font-family="Helvetica,sans-Serif" font-size="10.00">FeaturesManager::configChanged</text>
</a>
</g>
</g>
<!-- Node1&#45;&gt;Node2 -->
<g id="edge1" class="edge">
<title>Node1&#45;&gt;Node2</title>
<path fill="none" stroke="#63b8ff" d="M135.49,-60.12C153.45,-63.77 172.76,-67.69 190.32,-71.27"/>
<polygon fill="#63b8ff" stroke="#63b8ff" points="189.6,-74.69 200.1,-73.25 191,-67.83 189.6,-74.69"/>
</g>
<!-- Node6 -->
<g id="node3" class="node">
<title>Node6</title>
<g id="a_node3"><a xlink:href="../../d6/deb/class_features_manager.html#a2e83d3c2792c4e6fbd2e57aeb1919f87" target="_top" xlink:title=" ">
<polygon fill="#fff0f0" stroke="red" points="315,-56 188,-56 188,-37 315,-37 315,-56"/>
<text text-anchor="middle" x="251.5" y="-44" font-family="Helvetica,sans-Serif" font-size="10.00">FeaturesManager::refresh</text>
</a>
</g>
</g>
<!-- Node1&#45;&gt;Node6 -->
<g id="edge2" class="edge">
<title>Node1&#45;&gt;Node6</title>
<path fill="none" stroke="#63b8ff" d="M135.49,-46.5C148.8,-46.5 162.84,-46.5 176.36,-46.5"/>
<polygon fill="#63b8ff" stroke="#63b8ff" points="176.06,-50 186.06,-46.5 176.06,-43 176.06,-50"/>
</g>
<!-- Node9 -->
<g id="node4" class="node">
<title>Node9</title>
<g id="a_node4"><a xlink:href="../../d7/db4/struct_i_configuration.html#afb7c554a124245f565595c931d3fa02b" target="_top" xlink:title=" ">
<polygon fill="white" stroke="#666666" points="312,-19 191,-19 191,0 312,0 312,-19"/>
<text text-anchor="middle" x="251.5" y="-7" font-family="Helvetica,sans-Serif" font-size="10.00">IConfiguration::watchFor</text>
</a>
</g>
</g>
<!-- Node1&#45;&gt;Node9 -->
<g id="edge3" class="edge">
<title>Node1&#45;&gt;Node9</title>
<path fill="none" stroke="#63b8ff" d="M135.49,-32.88C153.45,-29.23 172.76,-25.31 190.32,-21.73"/>
<polygon fill="#63b8ff" stroke="#63b8ff" points="191,-25.17 200.1,-19.75 189.6,-18.31 191,-25.17"/>
</g>
</g>
</svg>
