<?xml version="1.0" encoding="UTF-8" standalone="no"?>
<!DOCTYPE svg PUBLIC "-//W3C//DTD SVG 1.1//EN"
 "http://www.w3.org/Graphics/SVG/1.1/DTD/svg11.dtd">
<!-- Generated by graphviz version 12.2.0 (20241103.1931)
 -->
<!-- Title: CollectionScanner Pages: 1 -->
<svg width="485pt" height="289pt"
 viewBox="0.00 0.00 485.00 289.08" xmlns="http://www.w3.org/2000/svg" xmlns:xlink="http://www.w3.org/1999/xlink">
<g id="graph0" class="graph" transform="scale(1 1) rotate(0) translate(4 285.08)">
<title>CollectionScanner</title>
<!-- Node1 -->
<g id="Node000001" class="node">
<title>Node1</title>
<g id="a_Node000001"><a xlink:title=" ">
<polygon fill="#999999" stroke="#666666" points="477,-139.25 382.25,-139.25 382.25,-120 477,-120 477,-139.25"/>
<text text-anchor="middle" x="429.62" y="-125.75" font-family="Helvetica,sans-Serif" font-size="10.00">CollectionScanner</text>
</a>
</g>
</g>
<!-- Node2 -->
<g id="Node000002" class="node">
<title>Node2</title>
<g id="a_Node000002"><a xlink:title=" ">
<polygon fill="white" stroke="#666666" points="59.88,-269.25 7.88,-269.25 7.88,-250 59.88,-250 59.88,-269.25"/>
<text text-anchor="middle" x="33.88" y="-255.75" font-family="Helvetica,sans-Serif" font-size="10.00">QObject</text>
</a>
</g>
</g>
<!-- Node2&#45;&gt;Node1 -->
<g id="edge1_Node000001_Node000002" class="edge">
<title>Node2&#45;&gt;Node1</title>
<g id="a_edge1_Node000001_Node000002"><a xlink:title=" ">
<path fill="none" stroke="#63b8ff" d="M71.24,-267.99C135.84,-280.72 272.43,-297.75 364.25,-239.62 401.64,-215.96 419.9,-162.13 426.1,-139.72"/>
<polygon fill="#63b8ff" stroke="#63b8ff" points="72.02,-264.58 61.52,-265.99 70.61,-271.44 72.02,-264.58"/>
</a>
</g>
</g>
<!-- Node3 -->
<g id="Node000003" class="node">
<title>Node3</title>
<g id="a_Node000003"><a xlink:href="../../d3/d3d/class_photos_collector.html" target="_top" xlink:title=" ">
<polygon fill="#fff0f0" stroke="red" points="260.75,-237.25 175.75,-237.25 175.75,-218 260.75,-218 260.75,-237.25"/>
<text text-anchor="middle" x="218.25" y="-223.75" font-family="Helvetica,sans-Serif" font-size="10.00">PhotosCollector</text>
</a>
</g>
</g>
<!-- Node2&#45;&gt;Node3 -->
<g id="edge3_Node000003_Node000002" class="edge">
<title>Node2&#45;&gt;Node3</title>
<g id="a_edge3_Node000003_Node000002"><a xlink:title=" ">
<path fill="none" stroke="#63b8ff" d="M71.46,-253.21C101.46,-247.94 143.93,-240.49 175.3,-234.99"/>
<polygon fill="#63b8ff" stroke="#63b8ff" points="70.97,-249.74 61.72,-254.91 72.18,-256.63 70.97,-249.74"/>
</a>
</g>
</g>
<!-- Node3&#45;&gt;Node1 -->
<g id="edge2_Node000001_Node000003" class="edge">
<title>Node3&#45;&gt;Node1</title>
<g id="a_edge2_Node000001_Node000003"><a xlink:title=" ">
<path fill="none" stroke="#9a32cd" stroke-dasharray="5,2" d="M272.53,-226.91C301.26,-224.5 336.42,-218.17 364.25,-202.62 391.69,-187.3 413.24,-155.71 422.97,-139.58"/>
<polygon fill="#9a32cd" stroke="#9a32cd" points="272.31,-223.41 262.57,-227.59 272.79,-230.4 272.31,-223.41"/>
</a>
</g>
<text text-anchor="middle" x="326.75" y="-226.44" font-family="Helvetica,sans-Serif" font-size="10.00" fill="grey"> m_collector</text>
</g>
<!-- Node5 -->
<g id="Node000005" class="node">
<title>Node5</title>
<g id="a_Node000005"><a xlink:href="../../d6/d44/struct_i_tasks_view.html" target="_top" xlink:title=" ">
<polygon fill="white" stroke="#666666" points="67.75,-209.25 0,-209.25 0,-190 67.75,-190 67.75,-209.25"/>
<text text-anchor="middle" x="33.88" y="-195.75" font-family="Helvetica,sans-Serif" font-size="10.00">ITasksView</text>
</a>
</g>
</g>
<!-- Node5&#45;&gt;Node1 -->
<g id="edge8_Node000001_Node000005" class="edge">
<title>Node5&#45;&gt;Node1</title>
<g id="a_edge8_Node000001_Node000005"><a xlink:title=" ">
<path fill="none" stroke="#9a32cd" stroke-dasharray="5,2" d="M79.1,-195.05C142.7,-188 263.43,-172.8 364.25,-149.62 375.88,-146.95 388.47,-143.23 399.4,-139.73"/>
<polygon fill="#9a32cd" stroke="#9a32cd" points="78.97,-191.55 69.41,-196.11 79.73,-198.51 78.97,-191.55"/>
</a>
</g>
<text text-anchor="middle" x="218.25" y="-185.88" font-family="Helvetica,sans-Serif" font-size="10.00" fill="grey"> m_tasksView</text>
</g>
<!-- Node5&#45;&gt;Node3 -->
<g id="edge4_Node000003_Node000005" class="edge">
<title>Node5&#45;&gt;Node3</title>
<g id="a_edge4_Node000003_Node000005"><a xlink:title=" ">
<path fill="none" stroke="#9a32cd" stroke-dasharray="5,2" d="M79.07,-206.41C108.41,-210.91 146.67,-216.79 175.49,-221.21"/>
<polygon fill="#9a32cd" stroke="#9a32cd" points="79.81,-202.98 69.4,-204.93 78.75,-209.9 79.81,-202.98"/>
</a>
</g>
<text text-anchor="middle" x="116.5" y="-217.88" font-family="Helvetica,sans-Serif" font-size="10.00" fill="grey"> m_tasksView</text>
</g>
<!-- Node6 -->
<g id="Node000006" class="node">
<title>Node6</title>
<g id="a_Node000006"><a xlink:href="../../d9/d6e/class_project.html" target="_top" xlink:title=" ">
<polygon fill="#fff0f0" stroke="red" points="57.25,-161.25 10.5,-161.25 10.5,-142 57.25,-142 57.25,-161.25"/>
<text text-anchor="middle" x="33.88" y="-147.75" font-family="Helvetica,sans-Serif" font-size="10.00">Project</text>
</a>
</g>
</g>
<!-- Node6&#45;&gt;Node1 -->
<g id="edge6_Node000001_Node000006" class="edge">
<title>Node6&#45;&gt;Node1</title>
<g id="a_edge6_Node000001_Node000006"><a xlink:title=" ">
<path fill="none" stroke="#9a32cd" stroke-dasharray="5,2" d="M69.04,-149.72C139.62,-145.77 301.6,-136.72 381.83,-132.24"/>
<polygon fill="#9a32cd" stroke="#9a32cd" points="69.05,-146.21 59.26,-150.26 69.44,-153.2 69.05,-146.21"/>
</a>
</g>
<text text-anchor="middle" x="218.25" y="-145.98" font-family="Helvetica,sans-Serif" font-size="10.00" fill="grey"> m_project</text>
</g>
<!-- Node6&#45;&gt;Node3 -->
<g id="edge5_Node000003_Node000006" class="edge">
<title>Node6&#45;&gt;Node3</title>
<g id="a_edge5_Node000003_Node000006"><a xlink:title=" ">
<path fill="none" stroke="#9a32cd" stroke-dasharray="5,2" d="M68.21,-161.67C90.98,-169.02 121.55,-179.86 147.25,-192.38 155.73,-196.51 156.95,-199.14 165.25,-203.62 174.43,-208.59 184.83,-213.52 193.9,-217.61"/>
<polygon fill="#9a32cd" stroke="#9a32cd" points="69.44,-158.38 58.85,-158.71 67.33,-165.06 69.44,-158.38"/>
</a>
</g>
<text text-anchor="middle" x="116.5" y="-194.12" font-family="Helvetica,sans-Serif" font-size="10.00" fill="grey"> m_project</text>
</g>
<!-- Node9 -->
<g id="Node000009" class="node">
<title>Node9</title>
<g id="a_Node000009"><a xlink:href="../../d7/da9/struct_database_1_1_i_database.html" target="_top" xlink:title="Base Database interface. A bridge between regular clients and backend.">
<polygon fill="white" stroke="#666666" points="271.25,-93.25 165.25,-93.25 165.25,-74 271.25,-74 271.25,-93.25"/>
<text text-anchor="middle" x="218.25" y="-79.75" font-family="Helvetica,sans-Serif" font-size="10.00">Database::IDatabase</text>
</a>
</g>
</g>
<!-- Node9&#45;&gt;Node1 -->
<g id="edge7_Node000001_Node000009" class="edge">
<title>Node9&#45;&gt;Node1</title>
<g id="a_edge7_Node000001_Node000009"><a xlink:title=" ">
<path fill="none" stroke="#9a32cd" stroke-dasharray="5,2" d="M282.93,-89.51C308.48,-92.7 338.02,-97.46 364.25,-104.38 378.76,-108.2 394.45,-114.31 406.7,-119.56"/>
<polygon fill="#9a32cd" stroke="#9a32cd" points="283.35,-86.03 273.01,-88.32 282.53,-92.98 283.35,-86.03"/>
</a>
</g>
<text text-anchor="middle" x="326.75" y="-106.12" font-family="Helvetica,sans-Serif" font-size="10.00" fill="grey"> m_database</text>
</g>
<!-- Node10 -->
<g id="Node000010" class="node">
<title>Node10</title>
<g id="a_Node000010"><a xlink:href="../../da/d69/struct_i_view_task.html" target="_top" xlink:title=" ">
<polygon fill="white" stroke="#666666" points="249.5,-56.25 187,-56.25 187,-37 249.5,-37 249.5,-56.25"/>
<text text-anchor="middle" x="218.25" y="-42.75" font-family="Helvetica,sans-Serif" font-size="10.00">IViewTask</text>
</a>
</g>
</g>
<!-- Node10&#45;&gt;Node1 -->
<g id="edge9_Node000001_Node000010" class="edge">
<title>Node10&#45;&gt;Node1</title>
<g id="a_edge9_Node000001_Node000010"><a xlink:title=" ">
<path fill="none" stroke="#9a32cd" stroke-dasharray="5,2" d="M261.12,-49.34C291.07,-52.59 331.68,-59.72 364.25,-75.38 387.17,-86.39 408.67,-107.49 420.1,-119.88"/>
<polygon fill="#9a32cd" stroke="#9a32cd" points="261.6,-45.87 251.31,-48.39 260.92,-52.84 261.6,-45.87"/>
</a>
</g>
<text text-anchor="middle" x="326.75" y="-77.12" font-family="Helvetica,sans-Serif" font-size="10.00" fill="grey"> m_progressTask</text>
</g>
<!-- Node11 -->
<g id="Node000011" class="node">
<title>Node11</title>
<g id="a_Node000011"><a xlink:href="../../d2/d43/class_i_notifications.html" target="_top" xlink:title=" ">
<polygon fill="white" stroke="#666666" points="254.75,-19.25 181.75,-19.25 181.75,0 254.75,0 254.75,-19.25"/>
<text text-anchor="middle" x="218.25" y="-5.75" font-family="Helvetica,sans-Serif" font-size="10.00">INotifications</text>
</a>
</g>
</g>
<!-- Node11&#45;&gt;Node1 -->
<g id="edge10_Node000001_Node000011" class="edge">
<title>Node11&#45;&gt;Node1</title>
<g id="a_edge10_Node000001_Node000011"><a xlink:title=" ">
<path fill="none" stroke="#9a32cd" stroke-dasharray="5,2" d="M266.58,-10.19C296.67,-12.58 335.28,-19.55 364.25,-38.38 395.79,-58.86 416.5,-100.7 424.68,-119.77"/>
<polygon fill="#9a32cd" stroke="#9a32cd" points="266.81,-6.7 256.61,-9.56 266.37,-13.69 266.81,-6.7"/>
</a>
</g>
<text text-anchor="middle" x="326.75" y="-40.12" font-family="Helvetica,sans-Serif" font-size="10.00" fill="grey"> m_notifications</text>
</g>
</g>
</svg>
