<?xml version="1.0" encoding="UTF-8" standalone="no"?>
<!DOCTYPE svg PUBLIC "-//W3C//DTD SVG 1.1//EN"
 "http://www.w3.org/Graphics/SVG/1.1/DTD/svg11.dtd">
<!-- Generated by graphviz version 9.0.0 (20230911.1827)
 -->
<!-- Title: src/gui/desktop/models/tags_operator.cpp Pages: 1 -->
<svg width="172pt" height="94pt"
 viewBox="0.00 0.00 171.62 93.75" xmlns="http://www.w3.org/2000/svg" xmlns:xlink="http://www.w3.org/1999/xlink">
<g id="graph0" class="graph" transform="scale(1 1) rotate(0) translate(4 89.75)">
<title>src/gui/desktop/models/tags_operator.cpp</title>
<!-- Node1 -->
<g id="Node000001" class="node">
<title>Node1</title>
<g id="a_Node000001"><a xlink:title=" ">
<polygon fill="#999999" stroke="#666666" points="150.25,-85.75 33,-85.75 33,-55.25 150.25,-55.25 150.25,-85.75"/>
<text text-anchor="start" x="41" y="-72.25" font-family="Helvetica,sans-Serif" font-size="10.00">src/gui/desktop/models</text>
<text text-anchor="middle" x="91.62" y="-61" font-family="Helvetica,sans-Serif" font-size="10.00">/tags_operator.cpp</text>
</a>
</g>
</g>
<!-- Node2 -->
<g id="Node000002" class="node">
<title>Node2</title>
<g id="a_Node000002"><a xlink:href="../../d3/dc3/tags__operator_8hpp.html" target="_top" xlink:title=" ">
<polygon fill="#fff0f0" stroke="red" points="93.25,-19.25 0,-19.25 0,0 93.25,0 93.25,-19.25"/>
<text text-anchor="middle" x="46.62" y="-5.75" font-family="Helvetica,sans-Serif" font-size="10.00">tags_operator.hpp</text>
</a>
</g>
</g>
<!-- Node1&#45;&gt;Node2 -->
<g id="edge1_Node000001_Node000002" class="edge">
<title>Node1&#45;&gt;Node2</title>
<g id="a_edge1_Node000001_Node000002"><a xlink:title=" ">
<path fill="none" stroke="#63b8ff" d="M80.5,-54.95C74.44,-47.02 66.88,-37.13 60.45,-28.71"/>
<polygon fill="#63b8ff" stroke="#63b8ff" points="63.33,-26.72 54.48,-20.9 57.77,-30.97 63.33,-26.72"/>
</a>
</g>
</g>
<!-- Node10 -->
<g id="Node000010" class="node">
<title>Node10</title>
<g id="a_Node000010"><a xlink:title=" ">
<polygon fill="#e0e0e0" stroke="#999999" points="163.62,-19.25 111.62,-19.25 111.62,0 163.62,0 163.62,-19.25"/>
<text text-anchor="middle" x="137.62" y="-5.75" font-family="Helvetica,sans-Serif" font-size="10.00">QObject</text>
</a>
</g>
</g>
<!-- Node1&#45;&gt;Node10 -->
<g id="edge2_Node000001_Node000010" class="edge">
<title>Node1&#45;&gt;Node10</title>
<g id="a_edge2_Node000001_Node000010"><a xlink:title=" ">
<path fill="none" stroke="#63b8ff" d="M103,-54.95C109.19,-47.02 116.92,-37.13 123.49,-28.71"/>
<polygon fill="#63b8ff" stroke="#63b8ff" points="126.2,-30.93 129.6,-20.89 120.69,-26.62 126.2,-30.93"/>
</a>
</g>
</g>
</g>
</svg>
