<?xml version="1.0" encoding="UTF-8" standalone="no"?>
<!DOCTYPE svg PUBLIC "-//W3C//DTD SVG 1.1//EN"
 "http://www.w3.org/Graphics/SVG/1.1/DTD/svg11.dtd">
<!-- Generated by graphviz version 7.0.5 (20221223.1930)
 -->
<!-- Title: Database::SqlFilterQueryGenerator::visit Pages: 1 -->
<svg width="271pt" height="64pt"
 viewBox="0.00 0.00 271.00 64.00" xmlns="http://www.w3.org/2000/svg" xmlns:xlink="http://www.w3.org/1999/xlink">
<g id="graph0" class="graph" transform="scale(1 1) rotate(0) translate(4 60)">
<title>Database::SqlFilterQueryGenerator::visit</title>
<!-- Node1 -->
<g id="node1" class="node">
<title>Node1</title>
<g id="a_node1"><a xlink:title=" ">
<polygon fill="#999999" stroke="#666666" points="124,-42.5 0,-42.5 0,-12.5 124,-12.5 124,-42.5"/>
<text text-anchor="start" x="8" y="-30.5" font-family="Helvetica,sans-Serif" font-size="10.00">Database::SqlFilterQuery</text>
<text text-anchor="middle" x="62" y="-19.5" font-family="Helvetica,sans-Serif" font-size="10.00">Generator::visit</text>
</a>
</g>
</g>
<!-- Node2 -->
<g id="node2" class="node">
<title>Node2</title>
<g id="a_node2"><a xlink:href="../../df/d7c/class_tag_value.html#a7dbb46edc2d25d96165c308c152aea06" target="_top" xlink:title=" ">
<polygon fill="#fff0f0" stroke="red" points="263,-56 160,-56 160,-37 263,-37 263,-56"/>
<text text-anchor="middle" x="211.5" y="-44" font-family="Helvetica,sans-Serif" font-size="10.00">TagValue::rawValue</text>
</a>
</g>
</g>
<!-- Node1&#45;&gt;Node2 -->
<g id="edge1" class="edge">
<title>Node1&#45;&gt;Node2</title>
<path fill="none" stroke="#63b8ff" d="M124.27,-35.39C132.34,-36.43 140.62,-37.5 148.7,-38.54"/>
<polygon fill="#63b8ff" stroke="#63b8ff" points="148.08,-41.99 158.44,-39.79 148.97,-35.05 148.08,-41.99"/>
</g>
<!-- Node4 -->
<g id="node3" class="node">
<title>Node4</title>
<g id="a_node3"><a xlink:href="../../df/d7c/class_tag_value.html#a552de8ae14f88b953752a3ee95572592" target="_top" xlink:title=" ">
<polygon fill="white" stroke="#666666" points="251.5,-19 171.5,-19 171.5,0 251.5,0 251.5,-19"/>
<text text-anchor="middle" x="211.5" y="-7" font-family="Helvetica,sans-Serif" font-size="10.00">TagValue::type</text>
</a>
</g>
</g>
<!-- Node1&#45;&gt;Node4 -->
<g id="edge2" class="edge">
<title>Node1&#45;&gt;Node4</title>
<path fill="none" stroke="#63b8ff" d="M124.27,-20.02C136.14,-18.57 148.46,-17.07 159.94,-15.67"/>
<polygon fill="#63b8ff" stroke="#63b8ff" points="160.1,-19.18 169.6,-14.49 159.25,-12.23 160.1,-19.18"/>
</g>
</g>
</svg>
