<?xml version="1.0" encoding="UTF-8" standalone="no"?>
<!DOCTYPE svg PUBLIC "-//W3C//DTD SVG 1.1//EN"
 "http://www.w3.org/Graphics/SVG/1.1/DTD/svg11.dtd">
<!-- Generated by graphviz version 9.0.0 (20230911.1827)
 -->
<!-- Title: Database::SqlFilterQueryGenerator::generate Pages: 1 -->
<svg width="292pt" height="1233pt"
 viewBox="0.00 0.00 292.00 1232.50" xmlns="http://www.w3.org/2000/svg" xmlns:xlink="http://www.w3.org/1999/xlink">
<g id="graph0" class="graph" transform="scale(1 1) rotate(0) translate(4 1228.5)">
<title>Database::SqlFilterQueryGenerator::generate</title>
<!-- Node1 -->
<g id="Node000001" class="node">
<title>Node1</title>
<g id="a_Node000001"><a xlink:title=" ">
<polygon fill="#999999" stroke="#666666" points="284,-603.5 160.75,-603.5 160.75,-573 284,-573 284,-603.5"/>
<text text-anchor="start" x="168.75" y="-590" font-family="Helvetica,sans-Serif" font-size="10.00">Database::SqlFilterQuery</text>
<text text-anchor="middle" x="222.38" y="-578.75" font-family="Helvetica,sans-Serif" font-size="10.00">Generator::generate</text>
</a>
</g>
</g>
<!-- Node2 -->
<g id="Node000002" class="node">
<title>Node2</title>
<g id="a_Node000002"><a xlink:href="../../da/dd9/class_database_1_1_photo_operator.html#a24e714e7dd4bd6cd962c8231ce1081f0" target="_top" xlink:title="find all photos matching filters">
<polygon fill="#fff0f0" stroke="red" points="124.75,-1224.5 0,-1224.5 0,-1194 124.75,-1194 124.75,-1224.5"/>
<text text-anchor="start" x="8" y="-1211" font-family="Helvetica,sans-Serif" font-size="10.00">Database::PhotoOperator</text>
<text text-anchor="middle" x="62.38" y="-1199.75" font-family="Helvetica,sans-Serif" font-size="10.00">::getPhotos</text>
</a>
</g>
</g>
<!-- Node1&#45;&gt;Node2 -->
<g id="edge1_Node000001_Node000002" class="edge">
<title>Node1&#45;&gt;Node2</title>
<g id="a_edge1_Node000001_Node000002"><a xlink:title=" ">
<path fill="none" stroke="#63b8ff" d="M220.43,-615.2C216.27,-719.35 196.51,-1094.12 124.75,-1184.25 121.88,-1187.85 118.41,-1190.94 114.6,-1193.58"/>
<polygon fill="#63b8ff" stroke="#63b8ff" points="223.92,-615.52 220.8,-605.4 216.93,-615.25 223.92,-615.52"/>
</a>
</g>
</g>
<!-- Node4 -->
<g id="Node000004" class="node">
<title>Node4</title>
<g id="a_Node000004"><a xlink:href="../../d5/d1b/class_database_1_1_a_sql_backend.html#a836670f22b3282242eaefb1db2c53fe5" target="_top" xlink:title="Count photos matching filter.">
<polygon fill="white" stroke="#666666" points="122.88,-1175.5 1.88,-1175.5 1.88,-1145 122.88,-1145 122.88,-1175.5"/>
<text text-anchor="start" x="9.88" y="-1162" font-family="Helvetica,sans-Serif" font-size="10.00">Database::ASqlBackend</text>
<text text-anchor="middle" x="62.38" y="-1150.75" font-family="Helvetica,sans-Serif" font-size="10.00">::getPhotosCount</text>
</a>
</g>
</g>
<!-- Node1&#45;&gt;Node4 -->
<g id="edge2_Node000001_Node000004" class="edge">
<title>Node1&#45;&gt;Node4</title>
<g id="a_edge2_Node000001_Node000004"><a xlink:title=" ">
<path fill="none" stroke="#63b8ff" d="M220,-615.19C214.46,-713.79 190.85,-1053.41 124.75,-1135.25 121.86,-1138.83 118.37,-1141.9 114.55,-1144.54"/>
<polygon fill="#63b8ff" stroke="#63b8ff" points="223.48,-615.59 220.53,-605.42 216.49,-615.21 223.48,-615.59"/>
</a>
</g>
</g>
<!-- Node5 -->
<g id="Node000005" class="node">
<title>Node5</title>
<g id="a_Node000005"><a xlink:href="../../d5/d1b/class_database_1_1_a_sql_backend.html#a378dcd419d61056d0fbdf57f969304cb" target="_top" xlink:title="list all values of tag for photos matching provided filter">
<polygon fill="white" stroke="#666666" points="122.88,-1126.5 1.88,-1126.5 1.88,-1096 122.88,-1096 122.88,-1126.5"/>
<text text-anchor="start" x="9.88" y="-1113" font-family="Helvetica,sans-Serif" font-size="10.00">Database::ASqlBackend</text>
<text text-anchor="middle" x="62.38" y="-1101.75" font-family="Helvetica,sans-Serif" font-size="10.00">::listTagValues</text>
</a>
</g>
</g>
<!-- Node1&#45;&gt;Node5 -->
<g id="edge3_Node000001_Node000005" class="edge">
<title>Node1&#45;&gt;Node5</title>
<g id="a_edge3_Node000001_Node000005"><a xlink:title=" ">
<path fill="none" stroke="#63b8ff" d="M219.46,-615.45C212.43,-708.56 185.15,-1012.74 124.75,-1086.25 121.76,-1089.89 118.15,-1093.01 114.19,-1095.68"/>
<polygon fill="#63b8ff" stroke="#63b8ff" points="222.95,-615.74 220.2,-605.51 215.97,-615.22 222.95,-615.74"/>
</a>
</g>
</g>
<!-- Node6 -->
<g id="Node000006" class="node">
<title>Node6</title>
<g id="a_Node000006"><a xlink:href="../../da/dd9/class_database_1_1_photo_operator.html#a11ebda997af505db297a41f52b3678b8" target="_top" xlink:title=" ">
<polygon fill="white" stroke="#666666" points="124.75,-1077.5 0,-1077.5 0,-1047 124.75,-1047 124.75,-1077.5"/>
<text text-anchor="start" x="8" y="-1064" font-family="Helvetica,sans-Serif" font-size="10.00">Database::PhotoOperator</text>
<text text-anchor="middle" x="62.38" y="-1052.75" font-family="Helvetica,sans-Serif" font-size="10.00">::onPhotos</text>
</a>
</g>
</g>
<!-- Node1&#45;&gt;Node6 -->
<g id="edge4_Node000001_Node000006" class="edge">
<title>Node1&#45;&gt;Node6</title>
<g id="a_edge4_Node000001_Node000006"><a xlink:title=" ">
<path fill="none" stroke="#63b8ff" d="M218.85,-615.29C210.26,-702.1 179.57,-971.89 124.75,-1037.25 121.72,-1040.86 118.08,-1043.96 114.12,-1046.62"/>
<polygon fill="#63b8ff" stroke="#63b8ff" points="222.33,-615.65 219.81,-605.36 215.36,-614.98 222.33,-615.65"/>
</a>
</g>
</g>
<!-- Node7 -->
<g id="Node000007" class="node">
<title>Node7</title>
<g id="a_Node000007"><a xlink:href="../../d5/d1b/class_database_1_1_a_sql_backend.html#a6781e0e515cd87e811f72520e9df095e" target="_top" xlink:title=" ">
<polygon fill="#fff0f0" stroke="red" points="122.88,-1028.5 1.88,-1028.5 1.88,-998 122.88,-998 122.88,-1028.5"/>
<text text-anchor="start" x="9.88" y="-1015" font-family="Helvetica,sans-Serif" font-size="10.00">Database::ASqlBackend</text>
<text text-anchor="middle" x="62.38" y="-1003.75" font-family="Helvetica,sans-Serif" font-size="10.00">::prune</text>
</a>
</g>
</g>
<!-- Node1&#45;&gt;Node7 -->
<g id="edge5_Node000001_Node000007" class="edge">
<title>Node1&#45;&gt;Node7</title>
<g id="a_edge5_Node000001_Node000007"><a xlink:title=" ">
<path fill="none" stroke="#63b8ff" d="M218.12,-614.96C207.88,-695.01 174.06,-930.94 124.75,-988.25 121.67,-991.83 118.01,-994.9 114.02,-997.53"/>
<polygon fill="#63b8ff" stroke="#63b8ff" points="221.54,-615.77 219.32,-605.41 214.6,-614.9 221.54,-615.77"/>
</a>
</g>
</g>
<!-- Node9 -->
<g id="Node000009" class="node">
<title>Node9</title>
<g id="a_Node000009"><a xlink:href="../../da/dd9/class_database_1_1_photo_operator.html#aa20daa3c872e4ad5967ab436e93b42c1" target="_top" xlink:title=" ">
<polygon fill="#fff0f0" stroke="red" points="124.75,-979.5 0,-979.5 0,-949 124.75,-949 124.75,-979.5"/>
<text text-anchor="start" x="8" y="-966" font-family="Helvetica,sans-Serif" font-size="10.00">Database::PhotoOperator</text>
<text text-anchor="middle" x="62.38" y="-954.75" font-family="Helvetica,sans-Serif" font-size="10.00">::removePhotos</text>
</a>
</g>
</g>
<!-- Node1&#45;&gt;Node9 -->
<g id="edge6_Node000001_Node000009" class="edge">
<title>Node1&#45;&gt;Node9</title>
<g id="a_edge6_Node000001_Node000009"><a xlink:title=" ">
<path fill="none" stroke="#63b8ff" d="M221.73,-615.05C221.14,-679.45 210.79,-844.68 124.75,-940.25 121.92,-943.4 118.62,-946.13 115.06,-948.52"/>
<polygon fill="#63b8ff" stroke="#63b8ff" points="225.23,-615.41 221.74,-605.41 218.23,-615.4 225.23,-615.41"/>
</a>
</g>
</g>
<!-- Node11 -->
<g id="Node000011" class="node">
<title>Node11</title>
<g id="a_Node000011"><a xlink:href="../../dd/d3c/sql__filter__query__generator__tests_8cpp.html#affdea6f26e6a5dcd973edf5d1bc6c865" target="_top" xlink:title=" ">
<polygon fill="white" stroke="#666666" points="82.75,-930.88 42,-930.88 42,-911.62 82.75,-911.62 82.75,-930.88"/>
<text text-anchor="middle" x="62.38" y="-917.38" font-family="Helvetica,sans-Serif" font-size="10.00">TEST</text>
</a>
</g>
</g>
<!-- Node1&#45;&gt;Node11 -->
<g id="edge7_Node000001_Node000011" class="edge">
<title>Node1&#45;&gt;Node11</title>
<g id="a_edge7_Node000001_Node000011"><a xlink:title=" ">
<path fill="none" stroke="#63b8ff" d="M221.22,-615.15C219.36,-675.51 206.23,-822.77 124.75,-903.25 113.77,-914.1 96.62,-918.47 83.24,-920.2"/>
<polygon fill="#63b8ff" stroke="#63b8ff" points="224.71,-615.54 221.43,-605.47 217.71,-615.39 224.71,-615.54"/>
</a>
</g>
</g>
<!-- Node12 -->
<g id="Node000012" class="node">
<title>Node12</title>
<g id="a_Node000012"><a xlink:href="../../dd/d3c/sql__filter__query__generator__tests_8cpp.html#ad7e3bc345465ea75aab43ab54f7e6d84" target="_top" xlink:title=" ">
<polygon fill="white" stroke="#666666" points="82.75,-893.88 42,-893.88 42,-874.62 82.75,-874.62 82.75,-893.88"/>
<text text-anchor="middle" x="62.38" y="-880.38" font-family="Helvetica,sans-Serif" font-size="10.00">TEST</text>
</a>
</g>
</g>
<!-- Node1&#45;&gt;Node12 -->
<g id="edge8_Node000001_Node000012" class="edge">
<title>Node1&#45;&gt;Node12</title>
<g id="a_edge8_Node000001_Node000012"><a xlink:title=" ">
<path fill="none" stroke="#63b8ff" d="M219.94,-614.99C215.51,-670.11 197.52,-796.98 124.75,-866.25 113.57,-876.89 96.44,-881.28 83.11,-883.08"/>
<polygon fill="#63b8ff" stroke="#63b8ff" points="223.41,-615.51 220.62,-605.29 216.43,-615.01 223.41,-615.51"/>
</a>
</g>
</g>
<!-- Node13 -->
<g id="Node000013" class="node">
<title>Node13</title>
<g id="a_Node000013"><a xlink:href="../../dd/d3c/sql__filter__query__generator__tests_8cpp.html#ac414978744de174536bc56b25a7bc4c0" target="_top" xlink:title=" ">
<polygon fill="white" stroke="#666666" points="82.75,-856.88 42,-856.88 42,-837.62 82.75,-837.62 82.75,-856.88"/>
<text text-anchor="middle" x="62.38" y="-843.38" font-family="Helvetica,sans-Serif" font-size="10.00">TEST</text>
</a>
</g>
</g>
<!-- Node1&#45;&gt;Node13 -->
<g id="edge9_Node000001_Node000013" class="edge">
<title>Node1&#45;&gt;Node13</title>
<g id="a_edge9_Node000001_Node000013"><a xlink:title=" ">
<path fill="none" stroke="#63b8ff" d="M218.26,-615.19C211.08,-664.87 188.73,-771.13 124.75,-829.25 113.41,-839.55 96.46,-843.98 83.24,-845.87"/>
<polygon fill="#63b8ff" stroke="#63b8ff" points="221.72,-615.72 219.58,-605.34 214.78,-614.79 221.72,-615.72"/>
</a>
</g>
</g>
<!-- Node14 -->
<g id="Node000014" class="node">
<title>Node14</title>
<g id="a_Node000014"><a xlink:href="../../dd/d3c/sql__filter__query__generator__tests_8cpp.html#ab32453c69a1890131d349596671d35f0" target="_top" xlink:title=" ">
<polygon fill="white" stroke="#666666" points="82.75,-819.88 42,-819.88 42,-800.62 82.75,-800.62 82.75,-819.88"/>
<text text-anchor="middle" x="62.38" y="-806.38" font-family="Helvetica,sans-Serif" font-size="10.00">TEST</text>
</a>
</g>
</g>
<!-- Node1&#45;&gt;Node14 -->
<g id="edge10_Node000001_Node000014" class="edge">
<title>Node1&#45;&gt;Node14</title>
<g id="a_edge10_Node000001_Node000014"><a xlink:title=" ">
<path fill="none" stroke="#63b8ff" d="M216.09,-615.04C206.07,-658.66 180.18,-744.91 124.75,-792.25 113.1,-802.2 96.17,-806.66 83.05,-808.65"/>
<polygon fill="#63b8ff" stroke="#63b8ff" points="219.48,-615.93 218.18,-605.41 212.63,-614.44 219.48,-615.93"/>
</a>
</g>
</g>
<!-- Node15 -->
<g id="Node000015" class="node">
<title>Node15</title>
<g id="a_Node000015"><a xlink:href="../../dd/d3c/sql__filter__query__generator__tests_8cpp.html#acc00f87d04f9d14df5b7358c8efef71f" target="_top" xlink:title=" ">
<polygon fill="white" stroke="#666666" points="82.75,-782.88 42,-782.88 42,-763.62 82.75,-763.62 82.75,-782.88"/>
<text text-anchor="middle" x="62.38" y="-769.38" font-family="Helvetica,sans-Serif" font-size="10.00">TEST</text>
</a>
</g>
</g>
<!-- Node1&#45;&gt;Node15 -->
<g id="edge11_Node000001_Node000015" class="edge">
<title>Node1&#45;&gt;Node15</title>
<g id="a_edge11_Node000001_Node000015"><a xlink:title=" ">
<path fill="none" stroke="#63b8ff" d="M213.13,-614.64C200.25,-651.58 171.82,-718.29 124.75,-755.25 112.79,-764.65 96.05,-769.14 83.08,-771.29"/>
<polygon fill="#63b8ff" stroke="#63b8ff" points="216.44,-615.8 216.29,-605.21 209.8,-613.58 216.44,-615.8"/>
</a>
</g>
</g>
<!-- Node16 -->
<g id="Node000016" class="node">
<title>Node16</title>
<g id="a_Node000016"><a xlink:href="../../dd/d3c/sql__filter__query__generator__tests_8cpp.html#a15b9f4efd24a630430504dd8f83e51f9" target="_top" xlink:title=" ">
<polygon fill="white" stroke="#666666" points="82.75,-745.88 42,-745.88 42,-726.62 82.75,-726.62 82.75,-745.88"/>
<text text-anchor="middle" x="62.38" y="-732.38" font-family="Helvetica,sans-Serif" font-size="10.00">TEST</text>
</a>
</g>
</g>
<!-- Node1&#45;&gt;Node16 -->
<g id="edge12_Node000001_Node000016" class="edge">
<title>Node1&#45;&gt;Node16</title>
<g id="a_edge12_Node000001_Node000016"><a xlink:title=" ">
<path fill="none" stroke="#63b8ff" d="M209.05,-613.56C193.44,-643.01 163.8,-691.05 124.75,-718.25 112.36,-726.88 95.81,-731.42 83.02,-733.78"/>
<polygon fill="#63b8ff" stroke="#63b8ff" points="212.01,-615.47 213.47,-604.97 205.78,-612.27 212.01,-615.47"/>
</a>
</g>
</g>
<!-- Node17 -->
<g id="Node000017" class="node">
<title>Node17</title>
<g id="a_Node000017"><a xlink:href="../../dd/d3c/sql__filter__query__generator__tests_8cpp.html#a90c6cf029b077869dd33b88ee71d6e4d" target="_top" xlink:title=" ">
<polygon fill="white" stroke="#666666" points="82.75,-708.88 42,-708.88 42,-689.62 82.75,-689.62 82.75,-708.88"/>
<text text-anchor="middle" x="62.38" y="-695.38" font-family="Helvetica,sans-Serif" font-size="10.00">TEST</text>
</a>
</g>
</g>
<!-- Node1&#45;&gt;Node17 -->
<g id="edge13_Node000001_Node000017" class="edge">
<title>Node1&#45;&gt;Node17</title>
<g id="a_edge13_Node000001_Node000017"><a xlink:title=" ">
<path fill="none" stroke="#63b8ff" d="M202.11,-612.49C184.17,-633.52 155.62,-663.33 124.75,-681.25 111.88,-688.72 95.67,-693.3 83.14,-695.97"/>
<polygon fill="#63b8ff" stroke="#63b8ff" points="204.67,-614.88 208.38,-604.96 199.29,-610.4 204.67,-614.88"/>
</a>
</g>
</g>
<!-- Node18 -->
<g id="Node000018" class="node">
<title>Node18</title>
<g id="a_Node000018"><a xlink:href="../../dd/d3c/sql__filter__query__generator__tests_8cpp.html#aae90835bdec0efea1ee40de86925af0f" target="_top" xlink:title=" ">
<polygon fill="white" stroke="#666666" points="82.75,-671.88 42,-671.88 42,-652.62 82.75,-652.62 82.75,-671.88"/>
<text text-anchor="middle" x="62.38" y="-658.38" font-family="Helvetica,sans-Serif" font-size="10.00">TEST</text>
</a>
</g>
</g>
<!-- Node1&#45;&gt;Node18 -->
<g id="edge14_Node000001_Node000018" class="edge">
<title>Node1&#45;&gt;Node18</title>
<g id="a_edge14_Node000001_Node000018"><a xlink:title=" ">
<path fill="none" stroke="#63b8ff" d="M188.44,-609.99C170.22,-621.33 146.85,-634.77 124.75,-644.25 111.28,-650.03 95.38,-654.63 83.14,-657.74"/>
<polygon fill="#63b8ff" stroke="#63b8ff" points="190.13,-613.06 196.71,-604.76 186.39,-607.15 190.13,-613.06"/>
</a>
</g>
</g>
<!-- Node19 -->
<g id="Node000019" class="node">
<title>Node19</title>
<g id="a_Node000019"><a xlink:href="../../dd/d3c/sql__filter__query__generator__tests_8cpp.html#a0f7b39181e059b3e2ee08e297cd7757f" target="_top" xlink:title=" ">
<polygon fill="white" stroke="#666666" points="82.75,-634.88 42,-634.88 42,-615.62 82.75,-615.62 82.75,-634.88"/>
<text text-anchor="middle" x="62.38" y="-621.38" font-family="Helvetica,sans-Serif" font-size="10.00">TEST</text>
</a>
</g>
</g>
<!-- Node1&#45;&gt;Node19 -->
<g id="edge15_Node000001_Node000019" class="edge">
<title>Node1&#45;&gt;Node19</title>
<g id="a_edge15_Node000001_Node000019"><a xlink:title=" ">
<path fill="none" stroke="#63b8ff" d="M149.23,-605.15C124.95,-610.83 99.8,-616.72 83.04,-620.64"/>
<polygon fill="#63b8ff" stroke="#63b8ff" points="149.88,-608.59 158.81,-602.9 148.28,-601.77 149.88,-608.59"/>
</a>
</g>
</g>
<!-- Node20 -->
<g id="Node000020" class="node">
<title>Node20</title>
<g id="a_Node000020"><a xlink:href="../../dd/d3c/sql__filter__query__generator__tests_8cpp.html#a2adc910fdc47d5b4e19006c2096c968d" target="_top" xlink:title=" ">
<polygon fill="white" stroke="#666666" points="82.75,-597.88 42,-597.88 42,-578.62 82.75,-578.62 82.75,-597.88"/>
<text text-anchor="middle" x="62.38" y="-584.38" font-family="Helvetica,sans-Serif" font-size="10.00">TEST</text>
</a>
</g>
</g>
<!-- Node1&#45;&gt;Node20 -->
<g id="edge16_Node000001_Node000020" class="edge">
<title>Node1&#45;&gt;Node20</title>
<g id="a_edge16_Node000001_Node000020"><a xlink:title=" ">
<path fill="none" stroke="#63b8ff" d="M148.9,-588.25C124.72,-588.25 99.72,-588.25 83.04,-588.25"/>
<polygon fill="#63b8ff" stroke="#63b8ff" points="148.77,-591.75 158.77,-588.25 148.77,-584.75 148.77,-591.75"/>
</a>
</g>
</g>
<!-- Node21 -->
<g id="Node000021" class="node">
<title>Node21</title>
<g id="a_Node000021"><a xlink:href="../../dd/d3c/sql__filter__query__generator__tests_8cpp.html#a8d2009f137c064ec0c8d8bd86f5ec16c" target="_top" xlink:title=" ">
<polygon fill="white" stroke="#666666" points="82.75,-560.88 42,-560.88 42,-541.62 82.75,-541.62 82.75,-560.88"/>
<text text-anchor="middle" x="62.38" y="-547.38" font-family="Helvetica,sans-Serif" font-size="10.00">TEST</text>
</a>
</g>
</g>
<!-- Node1&#45;&gt;Node21 -->
<g id="edge17_Node000001_Node000021" class="edge">
<title>Node1&#45;&gt;Node21</title>
<g id="a_edge17_Node000001_Node000021"><a xlink:title=" ">
<path fill="none" stroke="#63b8ff" d="M149.23,-571.35C124.95,-565.67 99.8,-559.78 83.04,-555.86"/>
<polygon fill="#63b8ff" stroke="#63b8ff" points="148.28,-574.73 158.81,-573.6 149.88,-567.91 148.28,-574.73"/>
</a>
</g>
</g>
<!-- Node22 -->
<g id="Node000022" class="node">
<title>Node22</title>
<g id="a_Node000022"><a xlink:href="../../dd/d3c/sql__filter__query__generator__tests_8cpp.html#a8bdab0defec74ff3a59a701640c6ec61" target="_top" xlink:title=" ">
<polygon fill="white" stroke="#666666" points="82.75,-523.88 42,-523.88 42,-504.62 82.75,-504.62 82.75,-523.88"/>
<text text-anchor="middle" x="62.38" y="-510.38" font-family="Helvetica,sans-Serif" font-size="10.00">TEST</text>
</a>
</g>
</g>
<!-- Node1&#45;&gt;Node22 -->
<g id="edge18_Node000001_Node000022" class="edge">
<title>Node1&#45;&gt;Node22</title>
<g id="a_edge18_Node000001_Node000022"><a xlink:title=" ">
<path fill="none" stroke="#63b8ff" d="M188.44,-566.51C170.22,-555.17 146.85,-541.73 124.75,-532.25 111.28,-526.47 95.38,-521.87 83.14,-518.76"/>
<polygon fill="#63b8ff" stroke="#63b8ff" points="186.39,-569.35 196.71,-571.74 190.13,-563.44 186.39,-569.35"/>
</a>
</g>
</g>
<!-- Node23 -->
<g id="Node000023" class="node">
<title>Node23</title>
<g id="a_Node000023"><a xlink:href="../../dd/d3c/sql__filter__query__generator__tests_8cpp.html#a0e749cec2ebe36196d1871408dfeb55a" target="_top" xlink:title=" ">
<polygon fill="white" stroke="#666666" points="82.75,-486.88 42,-486.88 42,-467.62 82.75,-467.62 82.75,-486.88"/>
<text text-anchor="middle" x="62.38" y="-473.38" font-family="Helvetica,sans-Serif" font-size="10.00">TEST</text>
</a>
</g>
</g>
<!-- Node1&#45;&gt;Node23 -->
<g id="edge19_Node000001_Node000023" class="edge">
<title>Node1&#45;&gt;Node23</title>
<g id="a_edge19_Node000001_Node000023"><a xlink:title=" ">
<path fill="none" stroke="#63b8ff" d="M202.11,-564.01C184.17,-542.98 155.62,-513.17 124.75,-495.25 111.88,-487.78 95.67,-483.2 83.14,-480.53"/>
<polygon fill="#63b8ff" stroke="#63b8ff" points="199.29,-566.1 208.38,-571.54 204.67,-561.62 199.29,-566.1"/>
</a>
</g>
</g>
<!-- Node24 -->
<g id="Node000024" class="node">
<title>Node24</title>
<g id="a_Node000024"><a xlink:href="../../dd/d3c/sql__filter__query__generator__tests_8cpp.html#a3bb4dfb24d430af3d29e5a0807ac96df" target="_top" xlink:title=" ">
<polygon fill="white" stroke="#666666" points="82.75,-449.88 42,-449.88 42,-430.62 82.75,-430.62 82.75,-449.88"/>
<text text-anchor="middle" x="62.38" y="-436.38" font-family="Helvetica,sans-Serif" font-size="10.00">TEST</text>
</a>
</g>
</g>
<!-- Node1&#45;&gt;Node24 -->
<g id="edge20_Node000001_Node000024" class="edge">
<title>Node1&#45;&gt;Node24</title>
<g id="a_edge20_Node000001_Node000024"><a xlink:title=" ">
<path fill="none" stroke="#63b8ff" d="M209.05,-562.94C193.44,-533.49 163.8,-485.45 124.75,-458.25 112.36,-449.62 95.81,-445.08 83.02,-442.72"/>
<polygon fill="#63b8ff" stroke="#63b8ff" points="205.78,-564.23 213.47,-571.53 212.01,-561.03 205.78,-564.23"/>
</a>
</g>
</g>
<!-- Node25 -->
<g id="Node000025" class="node">
<title>Node25</title>
<g id="a_Node000025"><a xlink:href="../../dd/d3c/sql__filter__query__generator__tests_8cpp.html#abc347a05248d7fae725d3b177b8cb9fb" target="_top" xlink:title=" ">
<polygon fill="white" stroke="#666666" points="82.75,-412.88 42,-412.88 42,-393.62 82.75,-393.62 82.75,-412.88"/>
<text text-anchor="middle" x="62.38" y="-399.38" font-family="Helvetica,sans-Serif" font-size="10.00">TEST</text>
</a>
</g>
</g>
<!-- Node1&#45;&gt;Node25 -->
<g id="edge21_Node000001_Node000025" class="edge">
<title>Node1&#45;&gt;Node25</title>
<g id="a_edge21_Node000001_Node000025"><a xlink:title=" ">
<path fill="none" stroke="#63b8ff" d="M213.13,-561.86C200.25,-524.92 171.82,-458.21 124.75,-421.25 112.79,-411.85 96.05,-407.36 83.08,-405.21"/>
<polygon fill="#63b8ff" stroke="#63b8ff" points="209.8,-562.92 216.29,-571.29 216.44,-560.7 209.8,-562.92"/>
</a>
</g>
</g>
<!-- Node26 -->
<g id="Node000026" class="node">
<title>Node26</title>
<g id="a_Node000026"><a xlink:href="../../dd/d3c/sql__filter__query__generator__tests_8cpp.html#a59e24ccaeeb788d53e6497d227070439" target="_top" xlink:title=" ">
<polygon fill="white" stroke="#666666" points="82.75,-375.88 42,-375.88 42,-356.62 82.75,-356.62 82.75,-375.88"/>
<text text-anchor="middle" x="62.38" y="-362.38" font-family="Helvetica,sans-Serif" font-size="10.00">TEST</text>
</a>
</g>
</g>
<!-- Node1&#45;&gt;Node26 -->
<g id="edge22_Node000001_Node000026" class="edge">
<title>Node1&#45;&gt;Node26</title>
<g id="a_edge22_Node000001_Node000026"><a xlink:title=" ">
<path fill="none" stroke="#63b8ff" d="M216.09,-561.46C206.07,-517.84 180.18,-431.59 124.75,-384.25 113.1,-374.3 96.17,-369.84 83.05,-367.85"/>
<polygon fill="#63b8ff" stroke="#63b8ff" points="212.63,-562.06 218.18,-571.09 219.48,-560.57 212.63,-562.06"/>
</a>
</g>
</g>
<!-- Node27 -->
<g id="Node000027" class="node">
<title>Node27</title>
<g id="a_Node000027"><a xlink:href="../../dd/d3c/sql__filter__query__generator__tests_8cpp.html#afdfeb28a8b430b9532f8140d73c98ae9" target="_top" xlink:title=" ">
<polygon fill="white" stroke="#666666" points="82.75,-338.88 42,-338.88 42,-319.62 82.75,-319.62 82.75,-338.88"/>
<text text-anchor="middle" x="62.38" y="-325.38" font-family="Helvetica,sans-Serif" font-size="10.00">TEST</text>
</a>
</g>
</g>
<!-- Node1&#45;&gt;Node27 -->
<g id="edge23_Node000001_Node000027" class="edge">
<title>Node1&#45;&gt;Node27</title>
<g id="a_edge23_Node000001_Node000027"><a xlink:title=" ">
<path fill="none" stroke="#63b8ff" d="M218.26,-561.31C211.08,-511.63 188.73,-405.37 124.75,-347.25 113.41,-336.95 96.46,-332.52 83.24,-330.63"/>
<polygon fill="#63b8ff" stroke="#63b8ff" points="214.78,-561.71 219.58,-571.16 221.72,-560.78 214.78,-561.71"/>
</a>
</g>
</g>
<!-- Node28 -->
<g id="Node000028" class="node">
<title>Node28</title>
<g id="a_Node000028"><a xlink:href="../../dd/d3c/sql__filter__query__generator__tests_8cpp.html#acb97e540e2f358b6996e19293ae1b095" target="_top" xlink:title=" ">
<polygon fill="white" stroke="#666666" points="82.75,-301.88 42,-301.88 42,-282.62 82.75,-282.62 82.75,-301.88"/>
<text text-anchor="middle" x="62.38" y="-288.38" font-family="Helvetica,sans-Serif" font-size="10.00">TEST</text>
</a>
</g>
</g>
<!-- Node1&#45;&gt;Node28 -->
<g id="edge24_Node000001_Node000028" class="edge">
<title>Node1&#45;&gt;Node28</title>
<g id="a_edge24_Node000001_Node000028"><a xlink:title=" ">
<path fill="none" stroke="#63b8ff" d="M219.94,-561.51C215.51,-506.39 197.52,-379.52 124.75,-310.25 113.57,-299.61 96.44,-295.22 83.11,-293.42"/>
<polygon fill="#63b8ff" stroke="#63b8ff" points="216.43,-561.49 220.62,-571.21 223.41,-560.99 216.43,-561.49"/>
</a>
</g>
</g>
<!-- Node29 -->
<g id="Node000029" class="node">
<title>Node29</title>
<g id="a_Node000029"><a xlink:href="../../dd/d3c/sql__filter__query__generator__tests_8cpp.html#ad1fbfa8ada33f400a69fff3591784db3" target="_top" xlink:title=" ">
<polygon fill="white" stroke="#666666" points="82.75,-264.88 42,-264.88 42,-245.62 82.75,-245.62 82.75,-264.88"/>
<text text-anchor="middle" x="62.38" y="-251.38" font-family="Helvetica,sans-Serif" font-size="10.00">TEST</text>
</a>
</g>
</g>
<!-- Node1&#45;&gt;Node29 -->
<g id="edge25_Node000001_Node000029" class="edge">
<title>Node1&#45;&gt;Node29</title>
<g id="a_edge25_Node000001_Node000029"><a xlink:title=" ">
<path fill="none" stroke="#63b8ff" d="M221.22,-561.35C219.36,-500.99 206.23,-353.73 124.75,-273.25 113.77,-262.4 96.62,-258.03 83.24,-256.3"/>
<polygon fill="#63b8ff" stroke="#63b8ff" points="217.71,-561.11 221.43,-571.03 224.71,-560.96 217.71,-561.11"/>
</a>
</g>
</g>
<!-- Node30 -->
<g id="Node000030" class="node">
<title>Node30</title>
<g id="a_Node000030"><a xlink:href="../../dd/d3c/sql__filter__query__generator__tests_8cpp.html#ad658313d32b35f49c8ce5fcea41c85dd" target="_top" xlink:title=" ">
<polygon fill="white" stroke="#666666" points="82.75,-227.88 42,-227.88 42,-208.62 82.75,-208.62 82.75,-227.88"/>
<text text-anchor="middle" x="62.38" y="-214.38" font-family="Helvetica,sans-Serif" font-size="10.00">TEST</text>
</a>
</g>
</g>
<!-- Node1&#45;&gt;Node30 -->
<g id="edge26_Node000001_Node000030" class="edge">
<title>Node1&#45;&gt;Node30</title>
<g id="a_edge26_Node000001_Node000030"><a xlink:title=" ">
<path fill="none" stroke="#63b8ff" d="M222.26,-561.41C222.87,-496.23 215.1,-328.18 124.75,-236.25 113.85,-225.16 96.52,-220.82 83.05,-219.16"/>
<polygon fill="#63b8ff" stroke="#63b8ff" points="218.76,-561.11 222.08,-571.17 225.76,-561.24 218.76,-561.11"/>
</a>
</g>
</g>
<!-- Node31 -->
<g id="Node000031" class="node">
<title>Node31</title>
<g id="a_Node000031"><a xlink:href="../../dd/d3c/sql__filter__query__generator__tests_8cpp.html#a15ebcb60a10a597af8dcad8768af6bcf" target="_top" xlink:title=" ">
<polygon fill="white" stroke="#666666" points="82.75,-190.88 42,-190.88 42,-171.62 82.75,-171.62 82.75,-190.88"/>
<text text-anchor="middle" x="62.38" y="-177.38" font-family="Helvetica,sans-Serif" font-size="10.00">TEST</text>
</a>
</g>
</g>
<!-- Node1&#45;&gt;Node31 -->
<g id="edge27_Node000001_Node000031" class="edge">
<title>Node1&#45;&gt;Node31</title>
<g id="a_edge27_Node000001_Node000031"><a xlink:title=" ">
<path fill="none" stroke="#63b8ff" d="M218.21,-561.55C208.32,-482.58 175.61,-252.29 124.75,-199.25 113.99,-188.03 96.64,-183.7 83.13,-182.08"/>
<polygon fill="#63b8ff" stroke="#63b8ff" points="214.72,-561.88 219.41,-571.38 221.67,-561.03 214.72,-561.88"/>
</a>
</g>
</g>
<!-- Node32 -->
<g id="Node000032" class="node">
<title>Node32</title>
<g id="a_Node000032"><a xlink:href="../../dd/d3c/sql__filter__query__generator__tests_8cpp.html#ab5f5996d7f9a843395813a36cbb0d7b1" target="_top" xlink:title=" ">
<polygon fill="white" stroke="#666666" points="82.75,-153.88 42,-153.88 42,-134.62 82.75,-134.62 82.75,-153.88"/>
<text text-anchor="middle" x="62.38" y="-140.38" font-family="Helvetica,sans-Serif" font-size="10.00">TEST</text>
</a>
</g>
</g>
<!-- Node1&#45;&gt;Node32 -->
<g id="edge28_Node000001_Node000032" class="edge">
<title>Node1&#45;&gt;Node32</title>
<g id="a_edge28_Node000001_Node000032"><a xlink:title=" ">
<path fill="none" stroke="#63b8ff" d="M218.83,-561.55C210.3,-477.61 180.13,-221.19 124.75,-162.25 114.1,-150.92 96.75,-146.6 83.2,-145.01"/>
<polygon fill="#63b8ff" stroke="#63b8ff" points="215.33,-561.74 219.8,-571.34 222.29,-561.04 215.33,-561.74"/>
</a>
</g>
</g>
<!-- Node33 -->
<g id="Node000033" class="node">
<title>Node33</title>
<g id="a_Node000033"><a xlink:href="../../dd/d3c/sql__filter__query__generator__tests_8cpp.html#a2d393708efc1858643f7e70913505dd9" target="_top" xlink:title=" ">
<polygon fill="white" stroke="#666666" points="82.75,-116.88 42,-116.88 42,-97.62 82.75,-97.62 82.75,-116.88"/>
<text text-anchor="middle" x="62.38" y="-103.38" font-family="Helvetica,sans-Serif" font-size="10.00">TEST</text>
</a>
</g>
</g>
<!-- Node1&#45;&gt;Node33 -->
<g id="edge29_Node000001_Node000033" class="edge">
<title>Node1&#45;&gt;Node33</title>
<g id="a_edge29_Node000001_Node000033"><a xlink:title=" ">
<path fill="none" stroke="#63b8ff" d="M219.33,-561.28C212.06,-472.31 184.61,-190.07 124.75,-125.25 114.13,-113.75 96.59,-109.46 82.97,-107.92"/>
<polygon fill="#63b8ff" stroke="#63b8ff" points="215.82,-561.31 220.1,-571 222.8,-560.76 215.82,-561.31"/>
</a>
</g>
</g>
<!-- Node34 -->
<g id="Node000034" class="node">
<title>Node34</title>
<g id="a_Node000034"><a xlink:href="../../d6/d7f/class_database_1_1_sql_filter_query_generator.html#a6fc0d1ac9f51ca3f0f56b921b8a47b93" target="_top" xlink:title=" ">
<polygon fill="white" stroke="#666666" points="124,-79.5 0.75,-79.5 0.75,-49 124,-49 124,-79.5"/>
<text text-anchor="start" x="8.75" y="-66" font-family="Helvetica,sans-Serif" font-size="10.00">Database::SqlFilterQuery</text>
<text text-anchor="middle" x="62.38" y="-54.75" font-family="Helvetica,sans-Serif" font-size="10.00">Generator::visit</text>
</a>
</g>
</g>
<!-- Node1&#45;&gt;Node34 -->
<g id="edge30_Node000001_Node000034" class="edge">
<title>Node1&#45;&gt;Node34</title>
<g id="a_edge30_Node000001_Node000034"><a xlink:title=" ">
<path fill="none" stroke="#63b8ff" d="M219.56,-561.52C212.77,-468.68 186.01,-161.81 124.75,-88.25 122.11,-85.09 119.01,-82.34 115.61,-79.95"/>
<polygon fill="#63b8ff" stroke="#63b8ff" points="216.07,-561.69 220.27,-571.42 223.05,-561.19 216.07,-561.69"/>
</a>
</g>
</g>
<!-- Node35 -->
<g id="Node000035" class="node">
<title>Node35</title>
<g id="a_Node000035"><a xlink:href="../../d6/d7f/class_database_1_1_sql_filter_query_generator.html#a0636f8227676afba9b6511426e51a6a8" target="_top" xlink:title=" ">
<polygon fill="white" stroke="#666666" points="124,-30.5 0.75,-30.5 0.75,0 124,0 124,-30.5"/>
<text text-anchor="start" x="8.75" y="-17" font-family="Helvetica,sans-Serif" font-size="10.00">Database::SqlFilterQuery</text>
<text text-anchor="middle" x="62.38" y="-5.75" font-family="Helvetica,sans-Serif" font-size="10.00">Generator::visit</text>
</a>
</g>
</g>
<!-- Node1&#45;&gt;Node35 -->
<g id="edge31_Node000001_Node000035" class="edge">
<title>Node1&#45;&gt;Node35</title>
<g id="a_edge31_Node000001_Node000035"><a xlink:title=" ">
<path fill="none" stroke="#63b8ff" d="M220.01,-561.26C214.49,-462.49 190.95,-122.24 124.75,-40.25 121.86,-36.67 118.37,-33.6 114.55,-30.96"/>
<polygon fill="#63b8ff" stroke="#63b8ff" points="216.5,-561.26 220.53,-571.05 223.49,-560.88 216.5,-561.26"/>
</a>
</g>
</g>
</g>
</svg>
