<?xml version="1.0" encoding="UTF-8" standalone="no"?>
<!DOCTYPE svg PUBLIC "-//W3C//DTD SVG 1.1//EN"
 "http://www.w3.org/Graphics/SVG/1.1/DTD/svg11.dtd">
<!-- Generated by graphviz version 9.0.0 (20230911.1827)
 -->
<!-- Title: Database::SqlFilterQueryGenerator::generate Pages: 1 -->
<!--zoomable 1282 -->

<svg id="main" version="1.1" xmlns="http://www.w3.org/2000/svg" xmlns:xlink="http://www.w3.org/1999/xlink" xml:space="preserve" onload="init(evt)">
<style type="text/css"><![CDATA[
.node, .edge {opacity: 0.7;}
.node.selected, .edge.selected {opacity: 1;}
.edge:hover path { stroke: red; }
.edge:hover polygon { stroke: red; fill: red; }
]]></style>

<defs>
  <circle id="rim" cx="0" cy="0" r="7"/>
  <circle id="rim2" cx="0" cy="0" r="3.5"/>
  <g id="zoomPlus">
    <use xlink:href="#rim" fill="#404040"><set attributeName="fill" to="#808080" begin="zoomplus.mouseover" end="zoomplus.mouseout"/></use>
    <path d="M-4,0h8M0,-4v8" fill="none" stroke="white" stroke-width="1.5" pointer-events="none"/>
  </g>
  <g id="zoomMin">
    <use xlink:href="#rim" fill="#404040"><set attributeName="fill" to="#808080" begin="zoomminus.mouseover" end="zoomminus.mouseout"/></use>
    <path d="M-4,0h8" fill="none" stroke="white" stroke-width="1.5" pointer-events="none"/>
  </g>
  <g id="arrowUp" transform="translate(30 24)">
    <use xlink:href="#rim"/>
    <path pointer-events="none" fill="none" stroke="white" stroke-width="1.5" d="M0,-3.0v7 M-2.5,-0.5L0,-3.0L2.5,-0.5"/>
  </g>
  <g id="arrowRight" transform="rotate(90) translate(36 -43)">
    <use xlink:href="#rim"/>
    <path pointer-events="none" fill="none" stroke="white" stroke-width="1.5" d="M0,-3.0v7 M-2.5,-0.5L0,-3.0L2.5,-0.5"/>
  </g>
  <g id="arrowDown" transform="rotate(180) translate(-30 -48)">
    <use xlink:href="#rim"/>
    <path pointer-events="none" fill="none" stroke="white" stroke-width="1.5" d="M0,-3.0v7 M-2.5,-0.5L0,-3.0L2.5,-0.5"/>
  </g>
  <g id="arrowLeft" transform="rotate(270) translate(-36 17)">
    <use xlink:href="#rim"/>
    <path pointer-events="none" fill="none" stroke="white" stroke-width="1.5" d="M0,-3.0v7 M-2.5,-0.5L0,-3.0L2.5,-0.5"/>
  </g>
  <g id="resetDef">
    <use xlink:href="#rim2" fill="#404040"><set attributeName="fill" to="#808080" begin="reset.mouseover" end="reset.mouseout"/></use>
  </g>
</defs>
<script type="application/ecmascript">
var viewWidth = 292;
var viewHeight = 1282;
var sectionId = 'dynsection-1';
</script>
<script type="application/ecmascript" xlink:href="../../svg.min.js"/>
<svg id="graph" class="graph">
<g id="viewport">
<title>Database::SqlFilterQueryGenerator::generate</title>
<!-- Node1 -->
<g id="Node000001" class="node">
<title>Node1</title>
<g id="a_Node000001"><a xlink:title=" ">
<polygon fill="#999999" stroke="#666666" points="284,-621.5 160.75,-621.5 160.75,-591 284,-591 284,-621.5"/>
<text text-anchor="start" x="168.75" y="-608" font-family="Helvetica,sans-Serif" font-size="10.00">Database::SqlFilterQuery</text>
<text text-anchor="middle" x="222.38" y="-596.75" font-family="Helvetica,sans-Serif" font-size="10.00">Generator::generate</text>
</a>
</g>
</g>
<!-- Node2 -->
<g id="Node000002" class="node">
<title>Node2</title>
<g id="a_Node000002"><a xlink:href="../../da/dd9/class_database_1_1_photo_operator.html#a97a04c554ea0e4b9fbadbcc3036a9456" target="_top" xlink:title=" ">
<polygon fill="white" stroke="#666666" points="124.75,-1273.5 0,-1273.5 0,-1243 124.75,-1243 124.75,-1273.5"/>
<text text-anchor="start" x="8" y="-1260" font-family="Helvetica,sans-Serif" font-size="10.00">Database::PhotoOperator</text>
<text text-anchor="middle" x="62.38" y="-1248.75" font-family="Helvetica,sans-Serif" font-size="10.00">::getAny</text>
</a>
</g>
</g>
<!-- Node1&#45;&gt;Node2 -->
<g id="edge1_Node000001_Node000002" class="edge">
<title>Node1&#45;&gt;Node2</title>
<g id="a_edge1_Node000001_Node000002"><a xlink:title=" ">
<path fill="none" stroke="#63b8ff" d="M220.67,-633.2C217.35,-740.73 200.1,-1137.84 124.75,-1233.25 121.9,-1236.86 118.44,-1239.96 114.63,-1242.6"/>
<polygon fill="#63b8ff" stroke="#63b8ff" points="224.16,-633.44 220.96,-623.34 217.17,-633.23 224.16,-633.44"/>
</a>
</g>
</g>
<!-- Node3 -->
<g id="Node000003" class="node">
<title>Node3</title>
<g id="a_Node000003"><a xlink:href="../../da/dd9/class_database_1_1_photo_operator.html#a24e714e7dd4bd6cd962c8231ce1081f0" target="_top" xlink:title="find all photos matching filters">
<polygon fill="#fff0f0" stroke="red" points="124.75,-1224.5 0,-1224.5 0,-1194 124.75,-1194 124.75,-1224.5"/>
<text text-anchor="start" x="8" y="-1211" font-family="Helvetica,sans-Serif" font-size="10.00">Database::PhotoOperator</text>
<text text-anchor="middle" x="62.38" y="-1199.75" font-family="Helvetica,sans-Serif" font-size="10.00">::getPhotos</text>
</a>
</g>
</g>
<!-- Node1&#45;&gt;Node3 -->
<g id="edge2_Node000001_Node000003" class="edge">
<title>Node1&#45;&gt;Node3</title>
<g id="a_edge2_Node000001_Node000003"><a xlink:title=" ">
<path fill="none" stroke="#63b8ff" d="M220.27,-633.37C215.6,-735.74 194.39,-1097.22 124.75,-1184.25 121.87,-1187.84 118.4,-1190.92 114.58,-1193.57"/>
<polygon fill="#63b8ff" stroke="#63b8ff" points="223.76,-633.61 220.71,-623.47 216.77,-633.31 223.76,-633.61"/>
</a>
</g>
</g>
<!-- Node6 -->
<g id="Node000006" class="node">
<title>Node6</title>
<g id="a_Node000006"><a xlink:href="../../d5/d1b/class_database_1_1_a_sql_backend.html#a836670f22b3282242eaefb1db2c53fe5" target="_top" xlink:title="Count photos matching filter.">
<polygon fill="white" stroke="#666666" points="122.88,-1175.5 1.88,-1175.5 1.88,-1145 122.88,-1145 122.88,-1175.5"/>
<text text-anchor="start" x="9.88" y="-1162" font-family="Helvetica,sans-Serif" font-size="10.00">Database::ASqlBackend</text>
<text text-anchor="middle" x="62.38" y="-1150.75" font-family="Helvetica,sans-Serif" font-size="10.00">::getPhotosCount</text>
</a>
</g>
</g>
<!-- Node1&#45;&gt;Node6 -->
<g id="edge3_Node000001_Node000006" class="edge">
<title>Node1&#45;&gt;Node6</title>
<g id="a_edge3_Node000001_Node000006"><a xlink:title=" ">
<path fill="none" stroke="#63b8ff" d="M219.82,-633.24C213.75,-729.79 188.76,-1056.46 124.75,-1135.25 121.85,-1138.82 118.35,-1141.89 114.52,-1144.52"/>
<polygon fill="#63b8ff" stroke="#63b8ff" points="223.3,-633.62 220.42,-623.42 216.31,-633.19 223.3,-633.62"/>
</a>
</g>
</g>
<!-- Node7 -->
<g id="Node000007" class="node">
<title>Node7</title>
<g id="a_Node000007"><a xlink:href="../../d5/d1b/class_database_1_1_a_sql_backend.html#a378dcd419d61056d0fbdf57f969304cb" target="_top" xlink:title="list all values of tag for photos matching provided filter">
<polygon fill="white" stroke="#666666" points="122.88,-1126.5 1.88,-1126.5 1.88,-1096 122.88,-1096 122.88,-1126.5"/>
<text text-anchor="start" x="9.88" y="-1113" font-family="Helvetica,sans-Serif" font-size="10.00">Database::ASqlBackend</text>
<text text-anchor="middle" x="62.38" y="-1101.75" font-family="Helvetica,sans-Serif" font-size="10.00">::listTagValues</text>
</a>
</g>
</g>
<!-- Node1&#45;&gt;Node7 -->
<g id="edge4_Node000001_Node000007" class="edge">
<title>Node1&#45;&gt;Node7</title>
<g id="a_edge4_Node000001_Node000007"><a xlink:title=" ">
<path fill="none" stroke="#63b8ff" d="M219.26,-633.36C211.66,-724.14 183.11,-1015.73 124.75,-1086.25 121.74,-1089.88 118.12,-1093 114.17,-1095.66"/>
<polygon fill="#63b8ff" stroke="#63b8ff" points="222.74,-633.68 220.07,-623.43 215.76,-633.11 222.74,-633.68"/>
</a>
</g>
</g>
<!-- Node8 -->
<g id="Node000008" class="node">
<title>Node8</title>
<g id="a_Node000008"><a xlink:href="../../da/dd9/class_database_1_1_photo_operator.html#a11ebda997af505db297a41f52b3678b8" target="_top" xlink:title=" ">
<polygon fill="white" stroke="#666666" points="124.75,-1077.5 0,-1077.5 0,-1047 124.75,-1047 124.75,-1077.5"/>
<text text-anchor="start" x="8" y="-1064" font-family="Helvetica,sans-Serif" font-size="10.00">Database::PhotoOperator</text>
<text text-anchor="middle" x="62.38" y="-1052.75" font-family="Helvetica,sans-Serif" font-size="10.00">::onPhotos</text>
</a>
</g>
</g>
<!-- Node1&#45;&gt;Node8 -->
<g id="edge5_Node000001_Node000008" class="edge">
<title>Node1&#45;&gt;Node8</title>
<g id="a_edge5_Node000001_Node000008"><a xlink:title=" ">
<path fill="none" stroke="#63b8ff" d="M218.61,-633.03C209.45,-717.26 177.57,-974.82 124.75,-1037.25 121.7,-1040.85 118.06,-1043.94 114.08,-1046.59"/>
<polygon fill="#63b8ff" stroke="#63b8ff" points="222.08,-633.52 219.66,-623.2 215.12,-632.77 222.08,-633.52"/>
</a>
</g>
</g>
<!-- Node9 -->
<g id="Node000009" class="node">
<title>Node9</title>
<g id="a_Node000009"><a xlink:href="../../d5/d1b/class_database_1_1_a_sql_backend.html#a6781e0e515cd87e811f72520e9df095e" target="_top" xlink:title=" ">
<polygon fill="#fff0f0" stroke="red" points="122.88,-1028.5 1.88,-1028.5 1.88,-998 122.88,-998 122.88,-1028.5"/>
<text text-anchor="start" x="9.88" y="-1015" font-family="Helvetica,sans-Serif" font-size="10.00">Database::ASqlBackend</text>
<text text-anchor="middle" x="62.38" y="-1003.75" font-family="Helvetica,sans-Serif" font-size="10.00">::prune</text>
</a>
</g>
</g>
<!-- Node1&#45;&gt;Node9 -->
<g id="edge6_Node000001_Node000009" class="edge">
<title>Node1&#45;&gt;Node9</title>
<g id="a_edge6_Node000001_Node000009"><a xlink:title=" ">
<path fill="none" stroke="#63b8ff" d="M217.82,-632.76C206.95,-710.18 172.05,-933.87 124.75,-988.25 121.58,-991.9 117.8,-995.02 113.69,-997.69"/>
<polygon fill="#63b8ff" stroke="#63b8ff" points="221.24,-633.53 219.14,-623.14 214.31,-632.57 221.24,-633.53"/>
</a>
</g>
</g>
<!-- Node11 -->
<g id="Node000011" class="node">
<title>Node11</title>
<g id="a_Node000011"><a xlink:href="../../da/dd9/class_database_1_1_photo_operator.html#aa20daa3c872e4ad5967ab436e93b42c1" target="_top" xlink:title=" ">
<polygon fill="#fff0f0" stroke="red" points="124.75,-979.5 0,-979.5 0,-949 124.75,-949 124.75,-979.5"/>
<text text-anchor="start" x="8" y="-966" font-family="Helvetica,sans-Serif" font-size="10.00">Database::PhotoOperator</text>
<text text-anchor="middle" x="62.38" y="-954.75" font-family="Helvetica,sans-Serif" font-size="10.00">::removePhotos</text>
</a>
</g>
</g>
<!-- Node1&#45;&gt;Node11 -->
<g id="edge7_Node000001_Node000011" class="edge">
<title>Node1&#45;&gt;Node11</title>
<g id="a_edge7_Node000001_Node000011"><a xlink:title=" ">
<path fill="none" stroke="#63b8ff" d="M221.24,-633.33C219.48,-695.62 206.6,-850.57 124.75,-940.25 121.82,-943.46 118.41,-946.25 114.72,-948.67"/>
<polygon fill="#63b8ff" stroke="#63b8ff" points="224.74,-633.41 221.44,-623.34 217.74,-633.27 224.74,-633.41"/>
</a>
</g>
</g>
<!-- Node13 -->
<g id="Node000013" class="node">
<title>Node13</title>
<g id="a_Node000013"><a xlink:href="../../dd/d3c/sql__filter__query__generator__tests_8cpp.html#affdea6f26e6a5dcd973edf5d1bc6c865" target="_top" xlink:title=" ">
<polygon fill="white" stroke="#666666" points="82.75,-930.88 42,-930.88 42,-911.62 82.75,-911.62 82.75,-930.88"/>
<text text-anchor="middle" x="62.38" y="-917.38" font-family="Helvetica,sans-Serif" font-size="10.00">TEST</text>
</a>
</g>
</g>
<!-- Node1&#45;&gt;Node13 -->
<g id="edge8_Node000001_Node000013" class="edge">
<title>Node1&#45;&gt;Node13</title>
<g id="a_edge8_Node000001_Node000013"><a xlink:title=" ">
<path fill="none" stroke="#63b8ff" d="M220.62,-633.17C217.52,-691.08 201.94,-828.29 124.75,-903.25 113.68,-914 96.53,-918.39 83.18,-920.15"/>
<polygon fill="#63b8ff" stroke="#63b8ff" points="224.12,-633.42 221.06,-623.27 217.12,-633.11 224.12,-633.42"/>
</a>
</g>
</g>
<!-- Node14 -->
<g id="Node000014" class="node">
<title>Node14</title>
<g id="a_Node000014"><a xlink:href="../../dd/d3c/sql__filter__query__generator__tests_8cpp.html#ad7e3bc345465ea75aab43ab54f7e6d84" target="_top" xlink:title=" ">
<polygon fill="white" stroke="#666666" points="82.75,-893.88 42,-893.88 42,-874.62 82.75,-874.62 82.75,-893.88"/>
<text text-anchor="middle" x="62.38" y="-880.38" font-family="Helvetica,sans-Serif" font-size="10.00">TEST</text>
</a>
</g>
</g>
<!-- Node1&#45;&gt;Node14 -->
<g id="edge9_Node000001_Node000014" class="edge">
<title>Node1&#45;&gt;Node14</title>
<g id="a_edge9_Node000001_Node000014"><a xlink:title=" ">
<path fill="none" stroke="#63b8ff" d="M219.18,-633.07C213.43,-685.59 193.24,-802.43 124.75,-866.25 113.46,-876.77 96.33,-881.17 83.04,-883"/>
<polygon fill="#63b8ff" stroke="#63b8ff" points="222.65,-633.54 220.15,-623.25 215.69,-632.85 222.65,-633.54"/>
</a>
</g>
</g>
<!-- Node15 -->
<g id="Node000015" class="node">
<title>Node15</title>
<g id="a_Node000015"><a xlink:href="../../dd/d3c/sql__filter__query__generator__tests_8cpp.html#ac414978744de174536bc56b25a7bc4c0" target="_top" xlink:title=" ">
<polygon fill="white" stroke="#666666" points="82.75,-856.88 42,-856.88 42,-837.62 82.75,-837.62 82.75,-856.88"/>
<text text-anchor="middle" x="62.38" y="-843.38" font-family="Helvetica,sans-Serif" font-size="10.00">TEST</text>
</a>
</g>
</g>
<!-- Node1&#45;&gt;Node15 -->
<g id="edge10_Node000001_Node000015" class="edge">
<title>Node1&#45;&gt;Node15</title>
<g id="a_edge10_Node000001_Node000015"><a xlink:title=" ">
<path fill="none" stroke="#63b8ff" d="M217.28,-633.15C208.72,-679.96 184.55,-776.42 124.75,-829.25 113.27,-839.4 96.33,-843.83 83.15,-845.77"/>
<polygon fill="#63b8ff" stroke="#63b8ff" points="220.72,-633.8 218.96,-623.35 213.82,-632.62 220.72,-633.8"/>
</a>
</g>
</g>
<!-- Node16 -->
<g id="Node000016" class="node">
<title>Node16</title>
<g id="a_Node000016"><a xlink:href="../../dd/d3c/sql__filter__query__generator__tests_8cpp.html#ab32453c69a1890131d349596671d35f0" target="_top" xlink:title=" ">
<polygon fill="white" stroke="#666666" points="82.75,-819.88 42,-819.88 42,-800.62 82.75,-800.62 82.75,-819.88"/>
<text text-anchor="middle" x="62.38" y="-806.38" font-family="Helvetica,sans-Serif" font-size="10.00">TEST</text>
</a>
</g>
</g>
<!-- Node1&#45;&gt;Node16 -->
<g id="edge11_Node000001_Node000016" class="edge">
<title>Node1&#45;&gt;Node16</title>
<g id="a_edge11_Node000001_Node000016"><a xlink:title=" ">
<path fill="none" stroke="#63b8ff" d="M214.74,-632.98C203.32,-673.45 176.05,-750.04 124.75,-792.25 113,-801.92 96.25,-806.39 83.22,-808.46"/>
<polygon fill="#63b8ff" stroke="#63b8ff" points="218.12,-633.91 217.34,-623.34 211.36,-632.09 218.12,-633.91"/>
</a>
</g>
</g>
<!-- Node17 -->
<g id="Node000017" class="node">
<title>Node17</title>
<g id="a_Node000017"><a xlink:href="../../dd/d3c/sql__filter__query__generator__tests_8cpp.html#acc00f87d04f9d14df5b7358c8efef71f" target="_top" xlink:title=" ">
<polygon fill="white" stroke="#666666" points="82.75,-782.88 42,-782.88 42,-763.62 82.75,-763.62 82.75,-782.88"/>
<text text-anchor="middle" x="62.38" y="-769.38" font-family="Helvetica,sans-Serif" font-size="10.00">TEST</text>
</a>
</g>
</g>
<!-- Node1&#45;&gt;Node17 -->
<g id="edge12_Node000001_Node000017" class="edge">
<title>Node1&#45;&gt;Node17</title>
<g id="a_edge12_Node000001_Node000017"><a xlink:title=" ">
<path fill="none" stroke="#63b8ff" d="M211.3,-632.28C197.05,-665.69 167.84,-723.14 124.75,-755.25 112.64,-764.27 96.08,-768.79 83.21,-771.04"/>
<polygon fill="#63b8ff" stroke="#63b8ff" points="214.41,-633.93 214.98,-623.35 207.93,-631.26 214.41,-633.93"/>
</a>
</g>
</g>
<!-- Node18 -->
<g id="Node000018" class="node">
<title>Node18</title>
<g id="a_Node000018"><a xlink:href="../../dd/d3c/sql__filter__query__generator__tests_8cpp.html#a15b9f4efd24a630430504dd8f83e51f9" target="_top" xlink:title=" ">
<polygon fill="white" stroke="#666666" points="82.75,-745.88 42,-745.88 42,-726.62 82.75,-726.62 82.75,-745.88"/>
<text text-anchor="middle" x="62.38" y="-732.38" font-family="Helvetica,sans-Serif" font-size="10.00">TEST</text>
</a>
</g>
</g>
<!-- Node1&#45;&gt;Node18 -->
<g id="edge13_Node000001_Node000018" class="edge">
<title>Node1&#45;&gt;Node18</title>
<g id="a_edge13_Node000001_Node000018"><a xlink:title=" ">
<path fill="none" stroke="#63b8ff" d="M206.14,-631.15C189.29,-656.65 159.82,-695.66 124.75,-718.25 112.15,-726.37 95.77,-730.93 83.1,-733.43"/>
<polygon fill="#63b8ff" stroke="#63b8ff" points="208.89,-633.35 211.35,-623.05 203,-629.56 208.89,-633.35"/>
</a>
</g>
</g>
<!-- Node19 -->
<g id="Node000019" class="node">
<title>Node19</title>
<g id="a_Node000019"><a xlink:href="../../dd/d3c/sql__filter__query__generator__tests_8cpp.html#a90c6cf029b077869dd33b88ee71d6e4d" target="_top" xlink:title=" ">
<polygon fill="white" stroke="#666666" points="82.75,-708.88 42,-708.88 42,-689.62 82.75,-689.62 82.75,-708.88"/>
<text text-anchor="middle" x="62.38" y="-695.38" font-family="Helvetica,sans-Serif" font-size="10.00">TEST</text>
</a>
</g>
</g>
<!-- Node1&#45;&gt;Node19 -->
<g id="edge14_Node000001_Node000019" class="edge">
<title>Node1&#45;&gt;Node19</title>
<g id="a_edge14_Node000001_Node000019"><a xlink:title=" ">
<path fill="none" stroke="#63b8ff" d="M196.85,-629.53C178.31,-646.01 151.56,-667.54 124.75,-681.25 111.6,-687.97 95.55,-692.57 83.16,-695.43"/>
<polygon fill="#63b8ff" stroke="#63b8ff" points="199.08,-632.23 204.13,-622.91 194.38,-627.04 199.08,-632.23"/>
</a>
</g>
</g>
<!-- Node20 -->
<g id="Node000020" class="node">
<title>Node20</title>
<g id="a_Node000020"><a xlink:href="../../dd/d3c/sql__filter__query__generator__tests_8cpp.html#aae90835bdec0efea1ee40de86925af0f" target="_top" xlink:title=" ">
<polygon fill="white" stroke="#666666" points="82.75,-671.88 42,-671.88 42,-652.62 82.75,-652.62 82.75,-671.88"/>
<text text-anchor="middle" x="62.38" y="-658.38" font-family="Helvetica,sans-Serif" font-size="10.00">TEST</text>
</a>
</g>
</g>
<!-- Node1&#45;&gt;Node20 -->
<g id="edge15_Node000001_Node000020" class="edge">
<title>Node1&#45;&gt;Node20</title>
<g id="a_edge15_Node000001_Node000020"><a xlink:title=" ">
<path fill="none" stroke="#63b8ff" d="M173.65,-626C158.16,-632.14 140.82,-638.74 124.75,-644.25 110.99,-648.96 95.24,-653.57 83.14,-656.94"/>
<polygon fill="#63b8ff" stroke="#63b8ff" points="174.65,-629.37 182.63,-622.4 172.05,-622.87 174.65,-629.37"/>
</a>
</g>
</g>
<!-- Node21 -->
<g id="Node000021" class="node">
<title>Node21</title>
<g id="a_Node000021"><a xlink:href="../../dd/d3c/sql__filter__query__generator__tests_8cpp.html#a0f7b39181e059b3e2ee08e297cd7757f" target="_top" xlink:title=" ">
<polygon fill="white" stroke="#666666" points="82.75,-634.88 42,-634.88 42,-615.62 82.75,-615.62 82.75,-634.88"/>
<text text-anchor="middle" x="62.38" y="-621.38" font-family="Helvetica,sans-Serif" font-size="10.00">TEST</text>
</a>
</g>
</g>
<!-- Node1&#45;&gt;Node21 -->
<g id="edge16_Node000001_Node000021" class="edge">
<title>Node1&#45;&gt;Node21</title>
<g id="a_edge16_Node000001_Node000021"><a xlink:title=" ">
<path fill="none" stroke="#63b8ff" d="M148.9,-614.97C124.72,-617.87 99.72,-620.88 83.04,-622.88"/>
<polygon fill="#63b8ff" stroke="#63b8ff" points="149.27,-618.45 158.79,-613.78 148.44,-611.5 149.27,-618.45"/>
</a>
</g>
</g>
<!-- Node22 -->
<g id="Node000022" class="node">
<title>Node22</title>
<g id="a_Node000022"><a xlink:href="../../dd/d3c/sql__filter__query__generator__tests_8cpp.html#a2adc910fdc47d5b4e19006c2096c968d" target="_top" xlink:title=" ">
<polygon fill="white" stroke="#666666" points="82.75,-597.88 42,-597.88 42,-578.62 82.75,-578.62 82.75,-597.88"/>
<text text-anchor="middle" x="62.38" y="-584.38" font-family="Helvetica,sans-Serif" font-size="10.00">TEST</text>
</a>
</g>
</g>
<!-- Node1&#45;&gt;Node22 -->
<g id="edge17_Node000001_Node000022" class="edge">
<title>Node1&#45;&gt;Node22</title>
<g id="a_edge17_Node000001_Node000022"><a xlink:title=" ">
<path fill="none" stroke="#63b8ff" d="M148.9,-597.99C124.72,-595.24 99.72,-592.39 83.04,-590.49"/>
<polygon fill="#63b8ff" stroke="#63b8ff" points="148.45,-601.46 158.78,-599.12 149.24,-594.51 148.45,-601.46"/>
</a>
</g>
</g>
<!-- Node23 -->
<g id="Node000023" class="node">
<title>Node23</title>
<g id="a_Node000023"><a xlink:href="../../dd/d3c/sql__filter__query__generator__tests_8cpp.html#a8d2009f137c064ec0c8d8bd86f5ec16c" target="_top" xlink:title=" ">
<polygon fill="white" stroke="#666666" points="82.75,-560.88 42,-560.88 42,-541.62 82.75,-541.62 82.75,-560.88"/>
<text text-anchor="middle" x="62.38" y="-547.38" font-family="Helvetica,sans-Serif" font-size="10.00">TEST</text>
</a>
</g>
</g>
<!-- Node1&#45;&gt;Node23 -->
<g id="edge18_Node000001_Node000023" class="edge">
<title>Node1&#45;&gt;Node23</title>
<g id="a_edge18_Node000001_Node000023"><a xlink:title=" ">
<path fill="none" stroke="#63b8ff" d="M171.97,-586.45C156.9,-580.65 140.23,-574.47 124.75,-569.25 110.97,-564.6 95.22,-559.99 83.13,-556.61"/>
<polygon fill="#63b8ff" stroke="#63b8ff" points="170.61,-589.68 181.2,-590.04 173.15,-583.16 170.61,-589.68"/>
</a>
</g>
</g>
<!-- Node24 -->
<g id="Node000024" class="node">
<title>Node24</title>
<g id="a_Node000024"><a xlink:href="../../dd/d3c/sql__filter__query__generator__tests_8cpp.html#a8bdab0defec74ff3a59a701640c6ec61" target="_top" xlink:title=" ">
<polygon fill="white" stroke="#666666" points="82.75,-523.88 42,-523.88 42,-504.62 82.75,-504.62 82.75,-523.88"/>
<text text-anchor="middle" x="62.38" y="-510.38" font-family="Helvetica,sans-Serif" font-size="10.00">TEST</text>
</a>
</g>
</g>
<!-- Node1&#45;&gt;Node24 -->
<g id="edge19_Node000001_Node000024" class="edge">
<title>Node1&#45;&gt;Node24</title>
<g id="a_edge19_Node000001_Node000024"><a xlink:title=" ">
<path fill="none" stroke="#63b8ff" d="M196.46,-583C177.91,-566.79 151.31,-545.72 124.75,-532.25 111.58,-525.57 95.53,-520.97 83.14,-518.1"/>
<polygon fill="#63b8ff" stroke="#63b8ff" points="193.96,-585.47 203.75,-589.51 198.62,-580.24 193.96,-585.47"/>
</a>
</g>
</g>
<!-- Node25 -->
<g id="Node000025" class="node">
<title>Node25</title>
<g id="a_Node000025"><a xlink:href="../../dd/d3c/sql__filter__query__generator__tests_8cpp.html#a0e749cec2ebe36196d1871408dfeb55a" target="_top" xlink:title=" ">
<polygon fill="white" stroke="#666666" points="82.75,-486.88 42,-486.88 42,-467.62 82.75,-467.62 82.75,-486.88"/>
<text text-anchor="middle" x="62.38" y="-473.38" font-family="Helvetica,sans-Serif" font-size="10.00">TEST</text>
</a>
</g>
</g>
<!-- Node1&#45;&gt;Node25 -->
<g id="edge20_Node000001_Node000025" class="edge">
<title>Node1&#45;&gt;Node25</title>
<g id="a_edge20_Node000001_Node000025"><a xlink:title=" ">
<path fill="none" stroke="#63b8ff" d="M205.87,-581.24C188.93,-555.97 159.54,-517.54 124.75,-495.25 112.13,-487.16 95.75,-482.6 83.09,-480.09"/>
<polygon fill="#63b8ff" stroke="#63b8ff" points="202.92,-583.13 211.31,-589.6 208.78,-579.31 202.92,-583.13"/>
</a>
</g>
</g>
<!-- Node26 -->
<g id="Node000026" class="node">
<title>Node26</title>
<g id="a_Node000026"><a xlink:href="../../dd/d3c/sql__filter__query__generator__tests_8cpp.html#a3bb4dfb24d430af3d29e5a0807ac96df" target="_top" xlink:title=" ">
<polygon fill="white" stroke="#666666" points="82.75,-449.88 42,-449.88 42,-430.62 82.75,-430.62 82.75,-449.88"/>
<text text-anchor="middle" x="62.38" y="-436.38" font-family="Helvetica,sans-Serif" font-size="10.00">TEST</text>
</a>
</g>
</g>
<!-- Node1&#45;&gt;Node26 -->
<g id="edge21_Node000001_Node000026" class="edge">
<title>Node1&#45;&gt;Node26</title>
<g id="a_edge21_Node000001_Node000026"><a xlink:title=" ">
<path fill="none" stroke="#63b8ff" d="M211.25,-580.39C196.95,-547.21 167.69,-490.14 124.75,-458.25 112.63,-449.25 96.06,-444.73 83.2,-442.47"/>
<polygon fill="#63b8ff" stroke="#63b8ff" points="207.87,-581.38 214.95,-589.26 214.33,-578.68 207.87,-581.38"/>
</a>
</g>
</g>
<!-- Node27 -->
<g id="Node000027" class="node">
<title>Node27</title>
<g id="a_Node000027"><a xlink:href="../../dd/d3c/sql__filter__query__generator__tests_8cpp.html#abc347a05248d7fae725d3b177b8cb9fb" target="_top" xlink:title=" ">
<polygon fill="white" stroke="#666666" points="82.75,-412.88 42,-412.88 42,-393.62 82.75,-393.62 82.75,-412.88"/>
<text text-anchor="middle" x="62.38" y="-399.38" font-family="Helvetica,sans-Serif" font-size="10.00">TEST</text>
</a>
</g>
</g>
<!-- Node1&#45;&gt;Node27 -->
<g id="edge22_Node000001_Node000027" class="edge">
<title>Node1&#45;&gt;Node27</title>
<g id="a_edge22_Node000001_Node000027"><a xlink:title=" ">
<path fill="none" stroke="#63b8ff" d="M214.7,-579.67C203.22,-539.4 175.88,-463.22 124.75,-421.25 112.99,-411.6 96.24,-407.12 83.21,-405.05"/>
<polygon fill="#63b8ff" stroke="#63b8ff" points="211.31,-580.51 217.31,-589.24 218.06,-578.67 211.31,-580.51"/>
</a>
</g>
</g>
<!-- Node28 -->
<g id="Node000028" class="node">
<title>Node28</title>
<g id="a_Node000028"><a xlink:href="../../dd/d3c/sql__filter__query__generator__tests_8cpp.html#a59e24ccaeeb788d53e6497d227070439" target="_top" xlink:title=" ">
<polygon fill="white" stroke="#666666" points="82.75,-375.88 42,-375.88 42,-356.62 82.75,-356.62 82.75,-375.88"/>
<text text-anchor="middle" x="62.38" y="-362.38" font-family="Helvetica,sans-Serif" font-size="10.00">TEST</text>
</a>
</g>
</g>
<!-- Node1&#45;&gt;Node28 -->
<g id="edge23_Node000001_Node000028" class="edge">
<title>Node1&#45;&gt;Node28</title>
<g id="a_edge23_Node000001_Node000028"><a xlink:title=" ">
<path fill="none" stroke="#63b8ff" d="M217.24,-579.46C208.63,-532.86 184.36,-436.83 124.75,-384.25 113.26,-374.11 96.32,-369.68 83.15,-367.74"/>
<polygon fill="#63b8ff" stroke="#63b8ff" points="213.77,-579.96 218.93,-589.22 220.67,-578.76 213.77,-579.96"/>
</a>
</g>
</g>
<!-- Node29 -->
<g id="Node000029" class="node">
<title>Node29</title>
<g id="a_Node000029"><a xlink:href="../../dd/d3c/sql__filter__query__generator__tests_8cpp.html#afdfeb28a8b430b9532f8140d73c98ae9" target="_top" xlink:title=" ">
<polygon fill="white" stroke="#666666" points="82.75,-338.88 42,-338.88 42,-319.62 82.75,-319.62 82.75,-338.88"/>
<text text-anchor="middle" x="62.38" y="-325.38" font-family="Helvetica,sans-Serif" font-size="10.00">TEST</text>
</a>
</g>
</g>
<!-- Node1&#45;&gt;Node29 -->
<g id="edge24_Node000001_Node000029" class="edge">
<title>Node1&#45;&gt;Node29</title>
<g id="a_edge24_Node000001_Node000029"><a xlink:title=" ">
<path fill="none" stroke="#63b8ff" d="M219.15,-579.53C213.34,-527.21 193.05,-410.82 124.75,-347.25 113.45,-336.73 96.33,-332.33 83.04,-330.5"/>
<polygon fill="#63b8ff" stroke="#63b8ff" points="215.65,-579.71 220.13,-589.31 222.61,-579.01 215.65,-579.71"/>
</a>
</g>
</g>
<!-- Node30 -->
<g id="Node000030" class="node">
<title>Node30</title>
<g id="a_Node000030"><a xlink:href="../../dd/d3c/sql__filter__query__generator__tests_8cpp.html#acb97e540e2f358b6996e19293ae1b095" target="_top" xlink:title=" ">
<polygon fill="white" stroke="#666666" points="82.75,-301.88 42,-301.88 42,-282.62 82.75,-282.62 82.75,-301.88"/>
<text text-anchor="middle" x="62.38" y="-288.38" font-family="Helvetica,sans-Serif" font-size="10.00">TEST</text>
</a>
</g>
</g>
<!-- Node1&#45;&gt;Node30 -->
<g id="edge25_Node000001_Node000030" class="edge">
<title>Node1&#45;&gt;Node30</title>
<g id="a_edge25_Node000001_Node000030"><a xlink:title=" ">
<path fill="none" stroke="#63b8ff" d="M220.59,-579.41C217.43,-521.7 201.74,-384.95 124.75,-310.25 113.67,-299.5 96.53,-295.12 83.17,-293.36"/>
<polygon fill="#63b8ff" stroke="#63b8ff" points="217.09,-579.44 221.04,-589.28 224.08,-579.13 217.09,-579.44"/>
</a>
</g>
</g>
<!-- Node31 -->
<g id="Node000031" class="node">
<title>Node31</title>
<g id="a_Node000031"><a xlink:href="../../dd/d3c/sql__filter__query__generator__tests_8cpp.html#ad1fbfa8ada33f400a69fff3591784db3" target="_top" xlink:title=" ">
<polygon fill="white" stroke="#666666" points="82.75,-264.88 42,-264.88 42,-245.62 82.75,-245.62 82.75,-264.88"/>
<text text-anchor="middle" x="62.38" y="-251.38" font-family="Helvetica,sans-Serif" font-size="10.00">TEST</text>
</a>
</g>
</g>
<!-- Node1&#45;&gt;Node31 -->
<g id="edge26_Node000001_Node000031" class="edge">
<title>Node1&#45;&gt;Node31</title>
<g id="a_edge26_Node000001_Node000031"><a xlink:title=" ">
<path fill="none" stroke="#63b8ff" d="M221.75,-579.57C221.14,-516.96 210.62,-359.37 124.75,-273.25 113.77,-262.24 96.45,-257.89 83,-256.21"/>
<polygon fill="#63b8ff" stroke="#63b8ff" points="218.25,-579.27 221.76,-589.27 225.25,-579.26 218.25,-579.27"/>
</a>
</g>
</g>
<!-- Node32 -->
<g id="Node000032" class="node">
<title>Node32</title>
<g id="a_Node000032"><a xlink:href="../../dd/d3c/sql__filter__query__generator__tests_8cpp.html#ad658313d32b35f49c8ce5fcea41c85dd" target="_top" xlink:title=" ">
<polygon fill="white" stroke="#666666" points="82.75,-227.88 42,-227.88 42,-208.62 82.75,-208.62 82.75,-227.88"/>
<text text-anchor="middle" x="62.38" y="-214.38" font-family="Helvetica,sans-Serif" font-size="10.00">TEST</text>
</a>
</g>
</g>
<!-- Node1&#45;&gt;Node32 -->
<g id="edge27_Node000001_Node000032" class="edge">
<title>Node1&#45;&gt;Node32</title>
<g id="a_edge27_Node000001_Node000032"><a xlink:title=" ">
<path fill="none" stroke="#63b8ff" d="M217.88,-579.82C207.3,-503.73 173.36,-286.33 124.75,-236.25 113.92,-225.09 96.58,-220.76 83.09,-219.12"/>
<polygon fill="#63b8ff" stroke="#63b8ff" points="214.35,-579.84 219.17,-589.28 221.28,-578.9 214.35,-579.84"/>
</a>
</g>
</g>
<!-- Node33 -->
<g id="Node000033" class="node">
<title>Node33</title>
<g id="a_Node000033"><a xlink:href="../../dd/d3c/sql__filter__query__generator__tests_8cpp.html#a15ebcb60a10a597af8dcad8768af6bcf" target="_top" xlink:title=" ">
<polygon fill="white" stroke="#666666" points="82.75,-190.88 42,-190.88 42,-171.62 82.75,-171.62 82.75,-190.88"/>
<text text-anchor="middle" x="62.38" y="-177.38" font-family="Helvetica,sans-Serif" font-size="10.00">TEST</text>
</a>
</g>
</g>
<!-- Node1&#45;&gt;Node33 -->
<g id="edge28_Node000001_Node000033" class="edge">
<title>Node1&#45;&gt;Node33</title>
<g id="a_edge28_Node000001_Node000033"><a xlink:title=" ">
<path fill="none" stroke="#63b8ff" d="M218.5,-579.39C209.26,-497.82 177.77,-255.11 124.75,-199.25 114.05,-187.97 96.7,-183.65 83.17,-182.04"/>
<polygon fill="#63b8ff" stroke="#63b8ff" points="215,-579.57 219.58,-589.13 221.96,-578.8 215,-579.57"/>
</a>
</g>
</g>
<!-- Node34 -->
<g id="Node000034" class="node">
<title>Node34</title>
<g id="a_Node000034"><a xlink:href="../../dd/d3c/sql__filter__query__generator__tests_8cpp.html#ab5f5996d7f9a843395813a36cbb0d7b1" target="_top" xlink:title=" ">
<polygon fill="white" stroke="#666666" points="82.75,-153.88 42,-153.88 42,-134.62 82.75,-134.62 82.75,-153.88"/>
<text text-anchor="middle" x="62.38" y="-140.38" font-family="Helvetica,sans-Serif" font-size="10.00">TEST</text>
</a>
</g>
</g>
<!-- Node1&#45;&gt;Node34 -->
<g id="edge29_Node000001_Node000034" class="edge">
<title>Node1&#45;&gt;Node34</title>
<g id="a_edge29_Node000001_Node000034"><a xlink:title=" ">
<path fill="none" stroke="#63b8ff" d="M219.07,-579.28C211.14,-492.72 182.27,-224.01 124.75,-162.25 114.15,-150.87 96.79,-146.56 83.23,-144.98"/>
<polygon fill="#63b8ff" stroke="#63b8ff" points="215.58,-579.52 219.95,-589.17 222.55,-578.9 215.58,-579.52"/>
</a>
</g>
</g>
<!-- Node35 -->
<g id="Node000035" class="node">
<title>Node35</title>
<g id="a_Node000035"><a xlink:href="../../dd/d3c/sql__filter__query__generator__tests_8cpp.html#a2d393708efc1858643f7e70913505dd9" target="_top" xlink:title=" ">
<polygon fill="white" stroke="#666666" points="82.75,-116.88 42,-116.88 42,-97.62 82.75,-97.62 82.75,-116.88"/>
<text text-anchor="middle" x="62.38" y="-103.38" font-family="Helvetica,sans-Serif" font-size="10.00">TEST</text>
</a>
</g>
</g>
<!-- Node1&#45;&gt;Node35 -->
<g id="edge30_Node000001_Node000035" class="edge">
<title>Node1&#45;&gt;Node35</title>
<g id="a_edge30_Node000001_Node000035"><a xlink:title=" ">
<path fill="none" stroke="#63b8ff" d="M219.57,-579.44C212.92,-488.41 186.86,-193.01 124.75,-125.25 114.17,-113.71 96.63,-109.42 83,-107.9"/>
<polygon fill="#63b8ff" stroke="#63b8ff" points="216.06,-579.42 220.26,-589.15 223.04,-578.93 216.06,-579.42"/>
</a>
</g>
</g>
<!-- Node36 -->
<g id="Node000036" class="node">
<title>Node36</title>
<g id="a_Node000036"><a xlink:href="../../d6/d7f/class_database_1_1_sql_filter_query_generator.html#a6fc0d1ac9f51ca3f0f56b921b8a47b93" target="_top" xlink:title=" ">
<polygon fill="white" stroke="#666666" points="124,-79.5 0.75,-79.5 0.75,-49 124,-49 124,-79.5"/>
<text text-anchor="start" x="8.75" y="-66" font-family="Helvetica,sans-Serif" font-size="10.00">Database::SqlFilterQuery</text>
<text text-anchor="middle" x="62.38" y="-54.75" font-family="Helvetica,sans-Serif" font-size="10.00">Generator::visit</text>
</a>
</g>
</g>
<!-- Node1&#45;&gt;Node36 -->
<g id="edge31_Node000001_Node000036" class="edge">
<title>Node1&#45;&gt;Node36</title>
<g id="a_edge31_Node000001_Node000036"><a xlink:title=" ">
<path fill="none" stroke="#63b8ff" d="M219.74,-579.18C213.46,-483.76 188.03,-164.73 124.75,-88.25 122.12,-85.08 119.02,-82.32 115.63,-79.93"/>
<polygon fill="#63b8ff" stroke="#63b8ff" points="216.24,-579.37 220.37,-589.13 223.23,-578.92 216.24,-579.37"/>
</a>
</g>
</g>
<!-- Node37 -->
<g id="Node000037" class="node">
<title>Node37</title>
<g id="a_Node000037"><a xlink:href="../../d6/d7f/class_database_1_1_sql_filter_query_generator.html#a0636f8227676afba9b6511426e51a6a8" target="_top" xlink:title=" ">
<polygon fill="white" stroke="#666666" points="124,-30.5 0.75,-30.5 0.75,0 124,0 124,-30.5"/>
<text text-anchor="start" x="8.75" y="-17" font-family="Helvetica,sans-Serif" font-size="10.00">Database::SqlFilterQuery</text>
<text text-anchor="middle" x="62.38" y="-5.75" font-family="Helvetica,sans-Serif" font-size="10.00">Generator::visit</text>
</a>
</g>
</g>
<!-- Node1&#45;&gt;Node37 -->
<g id="edge32_Node000001_Node000037" class="edge">
<title>Node1&#45;&gt;Node37</title>
<g id="a_edge32_Node000001_Node000037"><a xlink:title=" ">
<path fill="none" stroke="#63b8ff" d="M220.18,-579.35C215.19,-478.65 193.05,-125.31 124.75,-40.25 121.87,-36.66 118.39,-33.58 114.57,-30.95"/>
<polygon fill="#63b8ff" stroke="#63b8ff" points="216.67,-579.26 220.64,-589.09 223.66,-578.93 216.67,-579.26"/>
</a>
</g>
</g>
</g>
</svg>

<g id="navigator" transform="translate(0 0)" fill="#404254">
  <rect fill="#f2f5e9" fill-opacity="0.5" stroke="#606060" stroke-width=".5" x="0" y="0" width="60" height="60"/>
  <use id="zoomplus" xlink:href="#zoomPlus" x="17" y="9" onmousedown="handleZoom(evt,'in')"/>
  <use id="zoomminus" xlink:href="#zoomMin" x="42" y="9" onmousedown="handleZoom(evt,'out')"/>
  <use id="reset" xlink:href="#resetDef" x="30" y="36" onmousedown="handleReset()"/>
   <use id="arrowup" xlink:href="#arrowUp" x="0" y="0" onmousedown="handlePan(0,-1)"/>
  <use id="arrowright" xlink:href="#arrowRight" x="0" y="0" onmousedown="handlePan(1,0)"/>
  <use id="arrowdown" xlink:href="#arrowDown" x="0" y="0" onmousedown="handlePan(0,1)"/>
  <use id="arrowleft" xlink:href="#arrowLeft" x="0" y="0" onmousedown="handlePan(-1,0)"/>
</g>
<svg viewBox="0 0 15 15" width="100%" height="30px" preserveAspectRatio="xMaxYMin meet">
 <g id="arrow_out" transform="scale(0.3 0.3)">
  <a xlink:href="class_database_1_1_sql_filter_query_generator_a41b86be1876d22b283d495106b9bcf0c_icgraph_org.svg" target="_base">
   <rect id="button" ry="5" rx="5" y="6" x="6" height="38" width="38"
        fill="#f2f5e9" fill-opacity="0.5" stroke="#606060" stroke-width="1.0"/>
   <path id="arrow"
     d="M 11.500037,31.436501 C 11.940474,20.09759 22.043105,11.32322 32.158766,21.979434 L 37.068811,17.246167 C 37.068811,17.246167 37.088388,32 37.088388,32 L 22.160133,31.978069 C 22.160133,31.978069 26.997745,27.140456 26.997745,27.140456 C 18.528582,18.264221 13.291696,25.230495 11.500037,31.436501 z"
     style="fill:#404040;"/>
  </a>
 </g>
</svg>

<style type='text/css'>
<![CDATA[
[data-mouse-over-selected='false'] { opacity: 0.7; }
[data-mouse-over-selected='true']  { opacity: 1.0; }
]]>
</style>
<script type="application/ecmascript"><![CDATA[
document.addEventListener('DOMContentLoaded', (event) => {
  highlightEdges();
  highlightAdjacentNodes();
});
]]></script>
</svg>
