<?xml version="1.0" encoding="UTF-8" standalone="no"?>
<!DOCTYPE svg PUBLIC "-//W3C//DTD SVG 1.1//EN"
 "http://www.w3.org/Graphics/SVG/1.1/DTD/svg11.dtd">
<!-- Generated by graphviz version 9.0.0 (20230911.1827)
 -->
<!-- Title: src/updater/implementation/updater_impl.cpp Pages: 1 -->
<!--zoomable 105 -->

<svg id="main" version="1.1" xmlns="http://www.w3.org/2000/svg" xmlns:xlink="http://www.w3.org/1999/xlink" xml:space="preserve" onload="init(evt)">
<style type="text/css"><![CDATA[
.node, .edge {opacity: 0.7;}
.node.selected, .edge.selected {opacity: 1;}
.edge:hover path { stroke: red; }
.edge:hover polygon { stroke: red; fill: red; }
]]></style>

<defs>
  <circle id="rim" cx="0" cy="0" r="7"/>
  <circle id="rim2" cx="0" cy="0" r="3.5"/>
  <g id="zoomPlus">
    <use xlink:href="#rim" fill="#404040"><set attributeName="fill" to="#808080" begin="zoomplus.mouseover" end="zoomplus.mouseout"/></use>
    <path d="M-4,0h8M0,-4v8" fill="none" stroke="white" stroke-width="1.5" pointer-events="none"/>
  </g>
  <g id="zoomMin">
    <use xlink:href="#rim" fill="#404040"><set attributeName="fill" to="#808080" begin="zoomminus.mouseover" end="zoomminus.mouseout"/></use>
    <path d="M-4,0h8" fill="none" stroke="white" stroke-width="1.5" pointer-events="none"/>
  </g>
  <g id="arrowUp" transform="translate(30 24)">
    <use xlink:href="#rim"/>
    <path pointer-events="none" fill="none" stroke="white" stroke-width="1.5" d="M0,-3.0v7 M-2.5,-0.5L0,-3.0L2.5,-0.5"/>
  </g>
  <g id="arrowRight" transform="rotate(90) translate(36 -43)">
    <use xlink:href="#rim"/>
    <path pointer-events="none" fill="none" stroke="white" stroke-width="1.5" d="M0,-3.0v7 M-2.5,-0.5L0,-3.0L2.5,-0.5"/>
  </g>
  <g id="arrowDown" transform="rotate(180) translate(-30 -48)">
    <use xlink:href="#rim"/>
    <path pointer-events="none" fill="none" stroke="white" stroke-width="1.5" d="M0,-3.0v7 M-2.5,-0.5L0,-3.0L2.5,-0.5"/>
  </g>
  <g id="arrowLeft" transform="rotate(270) translate(-36 17)">
    <use xlink:href="#rim"/>
    <path pointer-events="none" fill="none" stroke="white" stroke-width="1.5" d="M0,-3.0v7 M-2.5,-0.5L0,-3.0L2.5,-0.5"/>
  </g>
  <g id="resetDef">
    <use xlink:href="#rim2" fill="#404040"><set attributeName="fill" to="#808080" begin="reset.mouseover" end="reset.mouseout"/></use>
  </g>
</defs>
<script type="application/ecmascript">
var viewWidth = 1073;
var viewHeight = 105;
var sectionId = 'dynsection-0';
</script>
<script type="application/ecmascript" xlink:href="../../svg.min.js"/>
<svg id="graph" class="graph">
<g id="viewport">
<title>src/updater/implementation/updater_impl.cpp</title>
<!-- Node1 -->
<g id="Node000001" class="node">
<title>Node1</title>
<g id="a_Node000001"><a xlink:title=" ">
<polygon fill="#999999" stroke="#666666" points="516.62,-97 382.88,-97 382.88,-66.5 516.62,-66.5 516.62,-97"/>
<text text-anchor="start" x="390.88" y="-83.5" font-family="Helvetica,sans-Serif" font-size="10.00">src/updater/implementation</text>
<text text-anchor="middle" x="449.75" y="-72.25" font-family="Helvetica,sans-Serif" font-size="10.00">/updater_impl.cpp</text>
</a>
</g>
</g>
<!-- Node2 -->
<g id="Node000002" class="node">
<title>Node2</title>
<g id="a_Node000002"><a xlink:href="../../dc/df6/updater__impl_8hpp.html" target="_top" xlink:title=" ">
<polygon fill="#fff0f0" stroke="red" points="89.5,-24.88 0,-24.88 0,-5.63 89.5,-5.63 89.5,-24.88"/>
<text text-anchor="middle" x="44.75" y="-11.38" font-family="Helvetica,sans-Serif" font-size="10.00">updater_impl.hpp</text>
</a>
</g>
</g>
<!-- Node1&#45;&gt;Node2 -->
<g id="edge1_Node000001_Node000002" class="edge">
<title>Node1&#45;&gt;Node2</title>
<g id="a_edge1_Node000001_Node000002"><a xlink:title=" ">
<path fill="none" stroke="#63b8ff" d="M382.39,-73.46C311.44,-65.23 196.64,-50.35 98.75,-30.5 95.14,-29.77 91.41,-28.94 87.68,-28.06"/>
<polygon fill="#63b8ff" stroke="#63b8ff" points="88.6,-24.68 78.06,-25.67 86.92,-31.48 88.6,-24.68"/>
</a>
</g>
</g>
<!-- Node10 -->
<g id="Node000010" class="node">
<title>Node10</title>
<g id="a_Node000010"><a xlink:title=" ">
<polygon fill="#e0e0e0" stroke="#999999" points="155.88,-24.88 107.62,-24.88 107.62,-5.63 155.88,-5.63 155.88,-24.88"/>
<text text-anchor="middle" x="131.75" y="-11.38" font-family="Helvetica,sans-Serif" font-size="10.00">cassert</text>
</a>
</g>
</g>
<!-- Node1&#45;&gt;Node10 -->
<g id="edge2_Node000001_Node000010" class="edge">
<title>Node1&#45;&gt;Node10</title>
<g id="a_edge2_Node000001_Node000010"><a xlink:title=" ">
<path fill="none" stroke="#63b8ff" d="M382.5,-73.39C324.09,-65.93 237.67,-52.34 164.75,-30.5 163.58,-30.15 162.4,-29.77 161.22,-29.37"/>
<polygon fill="#63b8ff" stroke="#63b8ff" points="162.67,-26.18 152.08,-25.85 160.15,-32.71 162.67,-26.18"/>
</a>
</g>
</g>
<!-- Node11 -->
<g id="Node000011" class="node">
<title>Node11</title>
<g id="a_Node000011"><a xlink:title=" ">
<polygon fill="#e0e0e0" stroke="#999999" points="203.5,-24.88 174,-24.88 174,-5.63 203.5,-5.63 203.5,-24.88"/>
<text text-anchor="middle" x="188.75" y="-11.38" font-family="Helvetica,sans-Serif" font-size="10.00">set</text>
</a>
</g>
</g>
<!-- Node1&#45;&gt;Node11 -->
<g id="edge3_Node000001_Node000011" class="edge">
<title>Node1&#45;&gt;Node11</title>
<g id="a_edge3_Node000001_Node000011"><a xlink:title=" ">
<path fill="none" stroke="#63b8ff" d="M382.53,-72.89C333.84,-65.7 267.11,-52.7 211.75,-30.5 211.64,-30.46 211.53,-30.41 211.42,-30.37"/>
<polygon fill="#63b8ff" stroke="#63b8ff" points="213.3,-27.4 202.81,-25.91 210.08,-33.62 213.3,-27.4"/>
</a>
</g>
</g>
<!-- Node12 -->
<g id="Node000012" class="node">
<title>Node12</title>
<g id="a_Node000012"><a xlink:title=" ">
<polygon fill="#e0e0e0" stroke="#999999" points="288.25,-24.88 221.25,-24.88 221.25,-5.63 288.25,-5.63 288.25,-24.88"/>
<text text-anchor="middle" x="254.75" y="-11.38" font-family="Helvetica,sans-Serif" font-size="10.00">QJsonArray</text>
</a>
</g>
</g>
<!-- Node1&#45;&gt;Node12 -->
<g id="edge4_Node000001_Node000012" class="edge">
<title>Node1&#45;&gt;Node12</title>
<g id="a_edge4_Node000001_Node000012"><a xlink:title=" ">
<path fill="none" stroke="#63b8ff" d="M405.19,-66.03C374.89,-56.01 333.9,-42.46 297.75,-30.5 296.16,-29.97 294.54,-29.44 292.91,-28.9"/>
<polygon fill="#63b8ff" stroke="#63b8ff" points="294.08,-25.6 283.48,-25.77 291.87,-32.24 294.08,-25.6"/>
</a>
</g>
</g>
<!-- Node13 -->
<g id="Node000013" class="node">
<title>Node13</title>
<g id="a_Node000013"><a xlink:title=" ">
<polygon fill="#e0e0e0" stroke="#999999" points="395.12,-24.88 306.38,-24.88 306.38,-5.63 395.12,-5.63 395.12,-24.88"/>
<text text-anchor="middle" x="350.75" y="-11.38" font-family="Helvetica,sans-Serif" font-size="10.00">QJsonDocument</text>
</a>
</g>
</g>
<!-- Node1&#45;&gt;Node13 -->
<g id="edge5_Node000001_Node000013" class="edge">
<title>Node1&#45;&gt;Node13</title>
<g id="a_edge5_Node000001_Node000013"><a xlink:title=" ">
<path fill="none" stroke="#63b8ff" d="M427.29,-66.11C411.32,-55.71 389.93,-41.78 373.83,-31.29"/>
<polygon fill="#63b8ff" stroke="#63b8ff" points="376.14,-28.61 365.85,-26.09 372.32,-34.48 376.14,-28.61"/>
</a>
</g>
</g>
<!-- Node14 -->
<g id="Node000014" class="node">
<title>Node14</title>
<g id="a_Node000014"><a xlink:title=" ">
<polygon fill="#e0e0e0" stroke="#999999" points="486.25,-24.88 413.25,-24.88 413.25,-5.63 486.25,-5.63 486.25,-24.88"/>
<text text-anchor="middle" x="449.75" y="-11.38" font-family="Helvetica,sans-Serif" font-size="10.00">QJsonObject</text>
</a>
</g>
</g>
<!-- Node1&#45;&gt;Node14 -->
<g id="edge6_Node000001_Node000014" class="edge">
<title>Node1&#45;&gt;Node14</title>
<g id="a_edge6_Node000001_Node000014"><a xlink:title=" ">
<path fill="none" stroke="#63b8ff" d="M449.75,-66.11C449.75,-57.33 449.75,-46.02 449.75,-36.4"/>
<polygon fill="#63b8ff" stroke="#63b8ff" points="453.25,-36.59 449.75,-26.59 446.25,-36.59 453.25,-36.59"/>
</a>
</g>
</g>
<!-- Node15 -->
<g id="Node000015" class="node">
<title>Node15</title>
<g id="a_Node000015"><a xlink:title=" ">
<polygon fill="#e0e0e0" stroke="#999999" points="652.75,-24.88 504.75,-24.88 504.75,-5.63 652.75,-5.63 652.75,-24.88"/>
<text text-anchor="middle" x="578.75" y="-11.38" font-family="Helvetica,sans-Serif" font-size="10.00">cpp_restapi/qt_connection.hpp</text>
</a>
</g>
</g>
<!-- Node1&#45;&gt;Node15 -->
<g id="edge7_Node000001_Node000015" class="edge">
<title>Node1&#45;&gt;Node15</title>
<g id="a_edge7_Node000001_Node000015"><a xlink:title=" ">
<path fill="none" stroke="#63b8ff" d="M479.02,-66.11C500.42,-55.42 529.28,-40.99 550.44,-30.4"/>
<polygon fill="#63b8ff" stroke="#63b8ff" points="552,-33.54 559.38,-25.94 548.87,-27.28 552,-33.54"/>
</a>
</g>
</g>
<!-- Node16 -->
<g id="Node000016" class="node">
<title>Node16</title>
<g id="a_Node000016"><a xlink:title=" ">
<polygon fill="#e0e0e0" stroke="#999999" points="788.75,-30.5 670.75,-30.5 670.75,0 788.75,0 788.75,-30.5"/>
<text text-anchor="start" x="678.75" y="-17" font-family="Helvetica,sans-Serif" font-size="10.00">cpp_restapi/github</text>
<text text-anchor="middle" x="729.75" y="-5.75" font-family="Helvetica,sans-Serif" font-size="10.00">/connection_builder.hpp</text>
</a>
</g>
</g>
<!-- Node1&#45;&gt;Node16 -->
<g id="edge8_Node000001_Node000016" class="edge">
<title>Node1&#45;&gt;Node16</title>
<g id="a_edge8_Node000001_Node000016"><a xlink:title=" ">
<path fill="none" stroke="#63b8ff" d="M513.64,-66.03C557.08,-56.02 614.58,-42.78 659.35,-32.47"/>
<polygon fill="#63b8ff" stroke="#63b8ff" points="660.01,-35.91 668.97,-30.25 658.44,-29.09 660.01,-35.91"/>
</a>
</g>
</g>
<!-- Node17 -->
<g id="Node000017" class="node">
<title>Node17</title>
<g id="a_Node000017"><a xlink:title=" ">
<polygon fill="#e0e0e0" stroke="#999999" points="902.5,-30.5 807,-30.5 807,0 902.5,0 902.5,-30.5"/>
<text text-anchor="start" x="815" y="-17" font-family="Helvetica,sans-Serif" font-size="10.00">cpp_restapi/github</text>
<text text-anchor="middle" x="854.75" y="-5.75" font-family="Helvetica,sans-Serif" font-size="10.00">/request.hpp</text>
</a>
</g>
</g>
<!-- Node1&#45;&gt;Node17 -->
<g id="edge9_Node000001_Node000017" class="edge">
<title>Node1&#45;&gt;Node17</title>
<g id="a_edge9_Node000001_Node000017"><a xlink:title=" ">
<path fill="none" stroke="#63b8ff" d="M516.81,-73.12C584.66,-64.94 692.79,-50.63 795.43,-30.83"/>
<polygon fill="#63b8ff" stroke="#63b8ff" points="796,-34.29 805.14,-28.94 794.65,-27.42 796,-34.29"/>
</a>
</g>
</g>
<!-- Node18 -->
<g id="Node000018" class="node">
<title>Node18</title>
<g id="a_Node000018"><a xlink:title=" ">
<polygon fill="#e0e0e0" stroke="#999999" points="980.5,-24.88 921,-24.88 921,-5.63 980.5,-5.63 980.5,-24.88"/>
<text text-anchor="middle" x="950.75" y="-11.38" font-family="Helvetica,sans-Serif" font-size="10.00">config.hpp</text>
</a>
</g>
</g>
<!-- Node1&#45;&gt;Node18 -->
<g id="edge10_Node000001_Node000018" class="edge">
<title>Node1&#45;&gt;Node18</title>
<g id="a_edge10_Node000001_Node000018"><a xlink:title=" ">
<path fill="none" stroke="#63b8ff" d="M516.78,-78.53C607.43,-74.39 773.66,-62.73 911.75,-30.5 913.77,-30.03 915.83,-29.48 917.89,-28.89"/>
<polygon fill="#63b8ff" stroke="#63b8ff" points="918.9,-32.24 927.32,-25.81 916.73,-25.58 918.9,-32.24"/>
</a>
</g>
</g>
<!-- Node19 -->
<g id="Node000019" class="node">
<title>Node19</title>
<g id="a_Node000019"><a xlink:href="../../d7/dad/version_8hpp.html" target="_top" xlink:title=" ">
<polygon fill="#fff0f0" stroke="red" points="1064.5,-24.88 999,-24.88 999,-5.63 1064.5,-5.63 1064.5,-24.88"/>
<text text-anchor="middle" x="1031.75" y="-11.38" font-family="Helvetica,sans-Serif" font-size="10.00">version.hpp</text>
</a>
</g>
</g>
<!-- Node1&#45;&gt;Node19 -->
<g id="edge11_Node000001_Node000019" class="edge">
<title>Node1&#45;&gt;Node19</title>
<g id="a_edge11_Node000001_Node000019"><a xlink:title=" ">
<path fill="none" stroke="#63b8ff" d="M517.01,-79.53C619.92,-76.54 822.15,-66.21 989.75,-30.5 992.2,-29.98 994.7,-29.36 997.21,-28.68"/>
<polygon fill="#63b8ff" stroke="#63b8ff" points="998.04,-32.08 1006.59,-25.82 996,-25.39 998.04,-32.08"/>
</a>
</g>
</g>
</g>
</svg>

<g id="navigator" transform="translate(0 0)" fill="#404254">
  <rect fill="#f2f5e9" fill-opacity="0.5" stroke="#606060" stroke-width=".5" x="0" y="0" width="60" height="60"/>
  <use id="zoomplus" xlink:href="#zoomPlus" x="17" y="9" onmousedown="handleZoom(evt,'in')"/>
  <use id="zoomminus" xlink:href="#zoomMin" x="42" y="9" onmousedown="handleZoom(evt,'out')"/>
  <use id="reset" xlink:href="#resetDef" x="30" y="36" onmousedown="handleReset()"/>
   <use id="arrowup" xlink:href="#arrowUp" x="0" y="0" onmousedown="handlePan(0,-1)"/>
  <use id="arrowright" xlink:href="#arrowRight" x="0" y="0" onmousedown="handlePan(1,0)"/>
  <use id="arrowdown" xlink:href="#arrowDown" x="0" y="0" onmousedown="handlePan(0,1)"/>
  <use id="arrowleft" xlink:href="#arrowLeft" x="0" y="0" onmousedown="handlePan(-1,0)"/>
</g>
<svg viewBox="0 0 15 15" width="100%" height="30px" preserveAspectRatio="xMaxYMin meet">
 <g id="arrow_out" transform="scale(0.3 0.3)">
  <a xlink:href="updater__impl_8cpp__incl_org.svg" target="_base">
   <rect id="button" ry="5" rx="5" y="6" x="6" height="38" width="38"
        fill="#f2f5e9" fill-opacity="0.5" stroke="#606060" stroke-width="1.0"/>
   <path id="arrow"
     d="M 11.500037,31.436501 C 11.940474,20.09759 22.043105,11.32322 32.158766,21.979434 L 37.068811,17.246167 C 37.068811,17.246167 37.088388,32 37.088388,32 L 22.160133,31.978069 C 22.160133,31.978069 26.997745,27.140456 26.997745,27.140456 C 18.528582,18.264221 13.291696,25.230495 11.500037,31.436501 z"
     style="fill:#404040;"/>
  </a>
 </g>
</svg>

<style type='text/css'>
<![CDATA[
[data-mouse-over-selected='false'] { opacity: 0.7; }
[data-mouse-over-selected='true']  { opacity: 1.0; }
]]>
</style>
<script type="application/ecmascript"><![CDATA[
document.addEventListener('DOMContentLoaded', (event) => {
  highlightEdges();
  highlightAdjacentNodes();
});
]]></script>
</svg>
