<?xml version="1.0" encoding="UTF-8" standalone="no"?>
<!DOCTYPE svg PUBLIC "-//W3C//DTD SVG 1.1//EN"
 "http://www.w3.org/Graphics/SVG/1.1/DTD/svg11.dtd">
<!-- Generated by graphviz version 7.0.5 (20221223.1930)
 -->
<!-- Title: src/updater/implementation/updater_impl.cpp Pages: 1 -->
<svg width="1081pt" height="104pt"
 viewBox="0.00 0.00 1081.00 104.00" xmlns="http://www.w3.org/2000/svg" xmlns:xlink="http://www.w3.org/1999/xlink">
<g id="graph0" class="graph" transform="scale(1 1) rotate(0) translate(4 100)">
<title>src/updater/implementation/updater_impl.cpp</title>
<!-- Node1 -->
<g id="node1" class="node">
<title>Node1</title>
<g id="a_node1"><a xlink:title=" ">
<polygon fill="#999999" stroke="#666666" points="522,-96 388,-96 388,-66 522,-66 522,-96"/>
<text text-anchor="start" x="396" y="-84" font-family="Helvetica,sans-Serif" font-size="10.00">src/updater/implementation</text>
<text text-anchor="middle" x="455" y="-73" font-family="Helvetica,sans-Serif" font-size="10.00">/updater_impl.cpp</text>
</a>
</g>
</g>
<!-- Node2 -->
<g id="node2" class="node">
<title>Node2</title>
<g id="a_node2"><a xlink:href="../../dc/df6/updater__impl_8hpp.html" target="_top" xlink:title=" ">
<polygon fill="#fff0f0" stroke="red" points="90,-24.5 0,-24.5 0,-5.5 90,-5.5 90,-24.5"/>
<text text-anchor="middle" x="45" y="-12.5" font-family="Helvetica,sans-Serif" font-size="10.00">updater_impl.hpp</text>
</a>
</g>
</g>
<!-- Node1&#45;&gt;Node2 -->
<g id="edge1" class="edge">
<title>Node1&#45;&gt;Node2</title>
<path fill="none" stroke="#63b8ff" d="M387.69,-72.87C315.82,-64.71 198.77,-49.87 99,-30 95.44,-29.29 91.76,-28.49 88.08,-27.64"/>
<polygon fill="#63b8ff" stroke="#63b8ff" points="89.14,-24.29 78.6,-25.33 87.49,-31.09 89.14,-24.29"/>
</g>
<!-- Node10 -->
<g id="node3" class="node">
<title>Node10</title>
<g id="a_node3"><a xlink:title=" ">
<polygon fill="#e0e0e0" stroke="#999999" points="157.5,-24.5 108.5,-24.5 108.5,-5.5 157.5,-5.5 157.5,-24.5"/>
<text text-anchor="middle" x="133" y="-12.5" font-family="Helvetica,sans-Serif" font-size="10.00">cassert</text>
</a>
</g>
</g>
<!-- Node1&#45;&gt;Node10 -->
<g id="edge2" class="edge">
<title>Node1&#45;&gt;Node10</title>
<path fill="none" stroke="#63b8ff" d="M387.72,-72.55C328.74,-65.02 241.11,-51.41 167,-30 165.65,-29.61 164.29,-29.19 162.92,-28.73"/>
<polygon fill="#63b8ff" stroke="#63b8ff" points="164.53,-25.6 153.94,-25.41 162.1,-32.16 164.53,-25.6"/>
</g>
<!-- Node11 -->
<g id="node4" class="node">
<title>Node11</title>
<g id="a_node4"><a xlink:title=" ">
<polygon fill="#e0e0e0" stroke="#999999" points="206,-24.5 176,-24.5 176,-5.5 206,-5.5 206,-24.5"/>
<text text-anchor="middle" x="191" y="-12.5" font-family="Helvetica,sans-Serif" font-size="10.00">set</text>
</a>
</g>
</g>
<!-- Node1&#45;&gt;Node11 -->
<g id="edge3" class="edge">
<title>Node1&#45;&gt;Node11</title>
<path fill="none" stroke="#63b8ff" d="M387.65,-71.9C338.61,-64.59 271.22,-51.59 215,-30 214.89,-29.96 214.78,-29.92 214.67,-29.87"/>
<polygon fill="#63b8ff" stroke="#63b8ff" points="216.46,-26.85 205.94,-25.6 213.38,-33.14 216.46,-26.85"/>
</g>
<!-- Node12 -->
<g id="node5" class="node">
<title>Node12</title>
<g id="a_node5"><a xlink:title=" ">
<polygon fill="#e0e0e0" stroke="#999999" points="292,-24.5 224,-24.5 224,-5.5 292,-5.5 292,-24.5"/>
<text text-anchor="middle" x="258" y="-12.5" font-family="Helvetica,sans-Serif" font-size="10.00">QJsonArray</text>
</a>
</g>
</g>
<!-- Node1&#45;&gt;Node12 -->
<g id="edge4" class="edge">
<title>Node1&#45;&gt;Node12</title>
<path fill="none" stroke="#63b8ff" d="M410.52,-65.57C379.76,-55.59 337.89,-41.99 301,-30 299.41,-29.48 297.79,-28.96 296.16,-28.43"/>
<polygon fill="#63b8ff" stroke="#63b8ff" points="297.33,-25.13 286.73,-25.36 295.16,-31.78 297.33,-25.13"/>
</g>
<!-- Node13 -->
<g id="node6" class="node">
<title>Node13</title>
<g id="a_node6"><a xlink:title=" ">
<polygon fill="#e0e0e0" stroke="#999999" points="399.5,-24.5 310.5,-24.5 310.5,-5.5 399.5,-5.5 399.5,-24.5"/>
<text text-anchor="middle" x="355" y="-12.5" font-family="Helvetica,sans-Serif" font-size="10.00">QJsonDocument</text>
</a>
</g>
</g>
<!-- Node1&#45;&gt;Node13 -->
<g id="edge5" class="edge">
<title>Node1&#45;&gt;Node13</title>
<path fill="none" stroke="#63b8ff" d="M432.81,-65.8C416.61,-55.43 394.69,-41.4 378.25,-30.88"/>
<polygon fill="#63b8ff" stroke="#63b8ff" points="380.4,-28.1 370.09,-25.66 376.63,-34 380.4,-28.1"/>
</g>
<!-- Node14 -->
<g id="node7" class="node">
<title>Node14</title>
<g id="a_node7"><a xlink:title=" ">
<polygon fill="#e0e0e0" stroke="#999999" points="492,-24.5 418,-24.5 418,-5.5 492,-5.5 492,-24.5"/>
<text text-anchor="middle" x="455" y="-12.5" font-family="Helvetica,sans-Serif" font-size="10.00">QJsonObject</text>
</a>
</g>
</g>
<!-- Node1&#45;&gt;Node14 -->
<g id="edge6" class="edge">
<title>Node1&#45;&gt;Node14</title>
<path fill="none" stroke="#63b8ff" d="M455,-65.8C455,-57.09 455,-45.81 455,-36.18"/>
<polygon fill="#63b8ff" stroke="#63b8ff" points="458.5,-36.36 455,-26.36 451.5,-36.36 458.5,-36.36"/>
</g>
<!-- Node15 -->
<g id="node8" class="node">
<title>Node15</title>
<g id="a_node8"><a xlink:title=" ">
<polygon fill="#e0e0e0" stroke="#999999" points="659.5,-24.5 510.5,-24.5 510.5,-5.5 659.5,-5.5 659.5,-24.5"/>
<text text-anchor="middle" x="585" y="-12.5" font-family="Helvetica,sans-Serif" font-size="10.00">cpp_restapi/qt_connection.hpp</text>
</a>
</g>
</g>
<!-- Node1&#45;&gt;Node15 -->
<g id="edge7" class="edge">
<title>Node1&#45;&gt;Node15</title>
<path fill="none" stroke="#63b8ff" d="M484.17,-65.64C505.82,-54.98 535.17,-40.53 556.63,-29.97"/>
<polygon fill="#63b8ff" stroke="#63b8ff" points="557.96,-33.21 565.39,-25.65 554.87,-26.93 557.96,-33.21"/>
</g>
<!-- Node16 -->
<g id="node9" class="node">
<title>Node16</title>
<g id="a_node9"><a xlink:title=" ">
<polygon fill="#e0e0e0" stroke="#999999" points="796.5,-30 677.5,-30 677.5,0 796.5,0 796.5,-30"/>
<text text-anchor="start" x="685.5" y="-18" font-family="Helvetica,sans-Serif" font-size="10.00">cpp_restapi/github</text>
<text text-anchor="middle" x="737" y="-7" font-family="Helvetica,sans-Serif" font-size="10.00">/connection_builder.hpp</text>
</a>
</g>
</g>
<!-- Node1&#45;&gt;Node16 -->
<g id="edge8" class="edge">
<title>Node1&#45;&gt;Node16</title>
<path fill="none" stroke="#63b8ff" d="M518.64,-65.56C562.61,-55.58 621.12,-42.3 666.51,-32"/>
<polygon fill="#63b8ff" stroke="#63b8ff" points="667,-35.48 675.97,-29.85 665.45,-28.65 667,-35.48"/>
</g>
<!-- Node17 -->
<g id="node10" class="node">
<title>Node17</title>
<g id="a_node10"><a xlink:title=" ">
<polygon fill="#e0e0e0" stroke="#999999" points="911,-30 815,-30 815,0 911,0 911,-30"/>
<text text-anchor="start" x="823" y="-18" font-family="Helvetica,sans-Serif" font-size="10.00">cpp_restapi/github</text>
<text text-anchor="middle" x="863" y="-7" font-family="Helvetica,sans-Serif" font-size="10.00">/request.hpp</text>
</a>
</g>
</g>
<!-- Node1&#45;&gt;Node17 -->
<g id="edge9" class="edge">
<title>Node1&#45;&gt;Node17</title>
<path fill="none" stroke="#63b8ff" d="M522.29,-72.43C590.7,-64.28 699.94,-50.02 803.29,-30.41"/>
<polygon fill="#63b8ff" stroke="#63b8ff" points="803.92,-33.85 813.08,-28.53 802.6,-26.98 803.92,-33.85"/>
</g>
<!-- Node18 -->
<g id="node11" class="node">
<title>Node18</title>
<g id="a_node11"><a xlink:title=" ">
<polygon fill="#e0e0e0" stroke="#999999" points="989,-24.5 929,-24.5 929,-5.5 989,-5.5 989,-24.5"/>
<text text-anchor="middle" x="959" y="-12.5" font-family="Helvetica,sans-Serif" font-size="10.00">config.hpp</text>
</a>
</g>
</g>
<!-- Node1&#45;&gt;Node18 -->
<g id="edge10" class="edge">
<title>Node1&#45;&gt;Node18</title>
<path fill="none" stroke="#63b8ff" d="M522.44,-77.76C613.65,-73.6 780.93,-61.96 920,-30 922.02,-29.54 924.07,-29 926.13,-28.41"/>
<polygon fill="#63b8ff" stroke="#63b8ff" points="927.11,-31.78 935.56,-25.39 924.97,-25.11 927.11,-31.78"/>
</g>
<!-- Node19 -->
<g id="node12" class="node">
<title>Node19</title>
<g id="a_node12"><a xlink:href="../../d7/dad/version_8hpp.html" target="_top" xlink:title=" ">
<polygon fill="#fff0f0" stroke="red" points="1073,-24.5 1007,-24.5 1007,-5.5 1073,-5.5 1073,-24.5"/>
<text text-anchor="middle" x="1040" y="-12.5" font-family="Helvetica,sans-Serif" font-size="10.00">version.hpp</text>
</a>
</g>
</g>
<!-- Node1&#45;&gt;Node19 -->
<g id="edge11" class="edge">
<title>Node1&#45;&gt;Node19</title>
<path fill="none" stroke="#63b8ff" d="M522.19,-78.76C625.5,-75.75 829.14,-65.42 998,-30 1000.44,-29.49 1002.95,-28.88 1005.45,-28.21"/>
<polygon fill="#63b8ff" stroke="#63b8ff" points="1006.25,-31.62 1014.82,-25.4 1004.24,-24.92 1006.25,-31.62"/>
</g>
</g>
</svg>
