<?xml version="1.0" encoding="UTF-8" standalone="no"?>
<!DOCTYPE svg PUBLIC "-//W3C//DTD SVG 1.1//EN"
 "http://www.w3.org/Graphics/SVG/1.1/DTD/svg11.dtd">
<!-- Generated by graphviz version 7.0.5 (20221223.1930)
 -->
<!-- Title: Database::IDatabase Pages: 1 -->
<svg width="240pt" height="137pt"
 viewBox="0.00 0.00 239.50 137.00" xmlns="http://www.w3.org/2000/svg" xmlns:xlink="http://www.w3.org/1999/xlink">
<g id="graph0" class="graph" transform="scale(1 1) rotate(0) translate(4 133)">
<title>Database::IDatabase</title>
<!-- Node1 -->
<g id="node1" class="node">
<title>Node1</title>
<g id="a_node1"><a xlink:title=" ">
<polygon fill="#999999" stroke="#666666" points="181,-74 74,-74 74,-55 181,-55 181,-74"/>
<text text-anchor="middle" x="127.5" y="-62" font-family="Helvetica,sans-Serif" font-size="10.00">Database::IDatabase</text>
</a>
</g>
</g>
<!-- Node3 -->
<g id="node3" class="node">
<title>Node3</title>
<g id="a_node3"><a xlink:href="../../dc/dc0/class_database_1_1_async_database.html" target="_top" xlink:title=" ">
<polygon fill="white" stroke="#666666" points="131,-19 0,-19 0,0 131,0 131,-19"/>
<text text-anchor="middle" x="65.5" y="-7" font-family="Helvetica,sans-Serif" font-size="10.00">Database::AsyncDatabase</text>
</a>
</g>
</g>
<!-- Node1&#45;&gt;Node3 -->
<g id="edge2" class="edge">
<title>Node1&#45;&gt;Node3</title>
<path fill="none" stroke="#63b8ff" d="M108.3,-47.09C97.6,-37.94 84.69,-26.9 75.86,-19.36"/>
<polygon fill="#63b8ff" stroke="#63b8ff" points="105.96,-49.69 115.83,-53.53 110.51,-44.37 105.96,-49.69"/>
</g>
<!-- Node4 -->
<g id="node4" class="node">
<title>Node4</title>
<g id="a_node4"><a xlink:href="../../d4/dd4/struct_mock_database.html" target="_top" xlink:title=" ">
<polygon fill="white" stroke="#666666" points="231.5,-19 149.5,-19 149.5,0 231.5,0 231.5,-19"/>
<text text-anchor="middle" x="190.5" y="-7" font-family="Helvetica,sans-Serif" font-size="10.00">MockDatabase</text>
</a>
</g>
</g>
<!-- Node1&#45;&gt;Node4 -->
<g id="edge3" class="edge">
<title>Node1&#45;&gt;Node4</title>
<path fill="none" stroke="#63b8ff" d="M146.68,-47.37C157.62,-38.16 170.91,-26.98 179.97,-19.36"/>
<polygon fill="#63b8ff" stroke="#63b8ff" points="144.74,-44.42 139.35,-53.53 149.25,-49.78 144.74,-44.42"/>
</g>
<!-- Node2 -->
<g id="node2" class="node">
<title>Node2</title>
<g id="a_node2"><a xlink:href="../../d4/d9f/struct_database_1_1_i_database_thread.html" target="_top" xlink:title=" ">
<polygon fill="white" stroke="#666666" points="196,-129 59,-129 59,-110 196,-110 196,-129"/>
<text text-anchor="middle" x="127.5" y="-117" font-family="Helvetica,sans-Serif" font-size="10.00">Database::IDatabaseThread</text>
</a>
</g>
</g>
<!-- Node2&#45;&gt;Node1 -->
<g id="edge1" class="edge">
<title>Node2&#45;&gt;Node1</title>
<path fill="none" stroke="#63b8ff" d="M127.5,-98.35C127.5,-90.1 127.5,-80.97 127.5,-74.44"/>
<polygon fill="#63b8ff" stroke="#63b8ff" points="124,-98.23 127.5,-108.23 131,-98.23 124,-98.23"/>
</g>
</g>
</svg>
