<?xml version="1.0" encoding="UTF-8" standalone="no"?>
<!DOCTYPE svg PUBLIC "-//W3C//DTD SVG 1.1//EN"
 "http://www.w3.org/Graphics/SVG/1.1/DTD/svg11.dtd">
<!-- Generated by graphviz version 7.0.5 (20221223.1930)
 -->
<!-- Title: src/core/base_tags.hpp Pages: 1 -->
<!--zoomable 104 -->
<svg id="main" version="1.1" xmlns="http://www.w3.org/2000/svg" xmlns:xlink="http://www.w3.org/1999/xlink" xml:space="preserve" onload="init(evt)">
<style type="text/css"><![CDATA[
.edge:hover path { stroke: red; }
.edge:hover polygon { stroke: red; fill: red; }
]]></style>
<script type="text/javascript"><![CDATA[
var edges = document.getElementsByTagName('g');
if (edges && edges.length) {
  for (var i=0;i<edges.length;i++) {
    if (edges[i].id.substr(0,4)=='edge') {
      edges[i].setAttribute('class','edge');
    }
  }
}
]]></script>
        <defs>
                <circle id="rim" cx="0" cy="0" r="7"/>
                <circle id="rim2" cx="0" cy="0" r="3.5"/>
                <g id="zoomPlus">
                        <use xlink:href="#rim" fill="#404040">
                                <set attributeName="fill" to="#808080" begin="zoomplus.mouseover" end="zoomplus.mouseout"/>
                        </use>
                        <path d="M-4,0h8M0,-4v8" fill="none" stroke="white" stroke-width="1.5" pointer-events="none"/>
                </g>
                <g id="zoomMin">
                        <use xlink:href="#rim" fill="#404040">
                                <set attributeName="fill" to="#808080" begin="zoomminus.mouseover" end="zoomminus.mouseout"/>
                        </use>
                        <path d="M-4,0h8" fill="none" stroke="white" stroke-width="1.5" pointer-events="none"/>
                </g>
                <g id="dirArrow">
                        <path fill="none" stroke="white" stroke-width="1.5" d="M0,-3.0v7 M-2.5,-0.5L0,-3.0L2.5,-0.5"/>
                </g>
               <g id="resetDef">
                       <use xlink:href="#rim2" fill="#404040">
                               <set attributeName="fill" to="#808080" begin="reset.mouseover" end="reset.mouseout"/>
                       </use>
               </g>
        </defs>

<script type="text/javascript">
var viewWidth = 1942;
var viewHeight = 104;
var sectionId = 'dynsection-1';
</script>
<script xlink:href="../../svgpan.js"/>
<svg id="graph" class="graph">
<g id="viewport">
<title>src/core/base_tags.hpp</title>
<!-- Node1 -->
<g id="node1" class="node">
<title>Node1</title>
<g id="a_node1"><a xlink:title=" ">
<polygon fill="#999999" stroke="#666666" points="989.5,-96 871.5,-96 871.5,-77 989.5,-77 989.5,-96"/>
<text text-anchor="middle" x="930.5" y="-84" font-family="Helvetica,sans-Serif" font-size="10.00">src/core/base_tags.hpp</text>
</a>
</g>
</g>
<!-- Node2 -->
<g id="node2" class="node">
<title>Node2</title>
<g id="a_node2"><a xlink:href="../../d0/d68/aexif__reader_8cpp.html" target="_top" xlink:title=" ">
<polygon fill="white" stroke="#666666" points="121,-35.5 0,-35.5 0,-5.5 121,-5.5 121,-35.5"/>
<text text-anchor="start" x="8" y="-23.5" font-family="Helvetica,sans-Serif" font-size="10.00">src/core/implementation</text>
<text text-anchor="middle" x="60.5" y="-12.5" font-family="Helvetica,sans-Serif" font-size="10.00">/aexif_reader.cpp</text>
</a>
</g>
</g>
<!-- Node1&#45;&gt;Node2 -->
<g id="edge1" class="edge">
<title>Node1&#45;&gt;Node2</title>
<path fill="none" stroke="#63b8ff" d="M859.6,-83.56C690.83,-78.62 268.92,-64.28 129.5,-41 121.89,-39.73 113.92,-37.93 106.2,-35.93"/>
<polygon fill="#63b8ff" stroke="#63b8ff" points="859.46,-87.06 869.56,-83.85 859.66,-80.06 859.46,-87.06"/>
</g>
<!-- Node3 -->
<g id="node3" class="node">
<title>Node3</title>
<g id="a_node3"><a xlink:href="../../d7/dcd/base__tags_8cpp.html" target="_top" xlink:title=" ">
<polygon fill="white" stroke="#666666" points="260,-35.5 139,-35.5 139,-5.5 260,-5.5 260,-35.5"/>
<text text-anchor="start" x="147" y="-23.5" font-family="Helvetica,sans-Serif" font-size="10.00">src/core/implementation</text>
<text text-anchor="middle" x="199.5" y="-12.5" font-family="Helvetica,sans-Serif" font-size="10.00">/base_tags.cpp</text>
</a>
</g>
</g>
<!-- Node1&#45;&gt;Node3 -->
<g id="edge2" class="edge">
<title>Node1&#45;&gt;Node3</title>
<path fill="none" stroke="#63b8ff" d="M859.76,-85.56C738.05,-84.59 481.54,-77.85 268.5,-41 261.02,-39.71 253.18,-37.92 245.59,-35.95"/>
<polygon fill="#63b8ff" stroke="#63b8ff" points="859.58,-89.06 869.6,-85.62 859.63,-82.06 859.58,-89.06"/>
</g>
<!-- Node4 -->
<g id="node4" class="node">
<title>Node4</title>
<g id="a_node4"><a xlink:href="../../d1/df4/exiv2__exif__reader_8cpp.html" target="_top" xlink:title=" ">
<polygon fill="white" stroke="#666666" points="399,-35.5 278,-35.5 278,-5.5 399,-5.5 399,-35.5"/>
<text text-anchor="start" x="286" y="-23.5" font-family="Helvetica,sans-Serif" font-size="10.00">src/core/implementation</text>
<text text-anchor="middle" x="338.5" y="-12.5" font-family="Helvetica,sans-Serif" font-size="10.00">/exiv2_exif_reader.cpp</text>
</a>
</g>
</g>
<!-- Node1&#45;&gt;Node4 -->
<g id="edge3" class="edge">
<title>Node1&#45;&gt;Node4</title>
<path fill="none" stroke="#63b8ff" d="M859.92,-83.75C758.91,-80.3 567.63,-70.16 407.5,-41 400.15,-39.66 392.46,-37.88 384.98,-35.94"/>
<polygon fill="#63b8ff" stroke="#63b8ff" points="859.57,-87.24 869.68,-84.08 859.8,-80.25 859.57,-87.24"/>
</g>
<!-- Node5 -->
<g id="node5" class="node">
<title>Node5</title>
<g id="a_node5"><a xlink:href="../../dd/d72/tag_8cpp.html" target="_top" xlink:title=" ">
<polygon fill="white" stroke="#666666" points="538,-35.5 417,-35.5 417,-5.5 538,-5.5 538,-35.5"/>
<text text-anchor="start" x="425" y="-23.5" font-family="Helvetica,sans-Serif" font-size="10.00">src/core/implementation</text>
<text text-anchor="middle" x="477.5" y="-12.5" font-family="Helvetica,sans-Serif" font-size="10.00">/tag.cpp</text>
</a>
</g>
</g>
<!-- Node1&#45;&gt;Node5 -->
<g id="edge4" class="edge">
<title>Node1&#45;&gt;Node5</title>
<path fill="none" stroke="#63b8ff" d="M860.12,-80.74C782.71,-74.72 654.9,-62.45 546.5,-41 539.42,-39.6 532,-37.83 524.77,-35.93"/>
<polygon fill="#63b8ff" stroke="#63b8ff" points="859.42,-84.2 869.66,-81.47 859.95,-77.22 859.42,-84.2"/>
</g>
<!-- Node6 -->
<g id="node6" class="node">
<title>Node6</title>
<g id="a_node6"><a xlink:href="../../d4/dad/actions_8hpp.html" target="_top" xlink:title=" ">
<polygon fill="#fff0f0" stroke="red" points="681,-30 556,-30 556,-11 681,-11 681,-30"/>
<text text-anchor="middle" x="618.5" y="-18" font-family="Helvetica,sans-Serif" font-size="10.00">src/database/actions.hpp</text>
</a>
</g>
</g>
<!-- Node1&#45;&gt;Node6 -->
<g id="edge5" class="edge">
<title>Node1&#45;&gt;Node6</title>
<path fill="none" stroke="#63b8ff" d="M862.92,-74.61C814.44,-66.41 747.67,-54.33 689.5,-41 676.04,-37.92 661.3,-33.96 648.76,-30.42"/>
<polygon fill="#63b8ff" stroke="#63b8ff" points="862.29,-78.05 872.73,-76.26 863.44,-71.15 862.29,-78.05"/>
</g>
<!-- Node33 -->
<g id="node7" class="node">
<title>Node33</title>
<g id="a_node7"><a xlink:href="../../da/d74/sql__backend_8cpp.html" target="_top" xlink:title=" ">
<polygon fill="white" stroke="#666666" points="854,-35.5 699,-35.5 699,-5.5 854,-5.5 854,-35.5"/>
<text text-anchor="start" x="707" y="-23.5" font-family="Helvetica,sans-Serif" font-size="10.00">src/database/backends</text>
<text text-anchor="middle" x="776.5" y="-12.5" font-family="Helvetica,sans-Serif" font-size="10.00">/sql_backends/sql_backend.cpp</text>
</a>
</g>
</g>
<!-- Node1&#45;&gt;Node33 -->
<g id="edge6" class="edge">
<title>Node1&#45;&gt;Node33</title>
<path fill="none" stroke="#63b8ff" d="M898.52,-72.21C873.07,-61.63 837.5,-46.85 811.34,-35.98"/>
<polygon fill="#63b8ff" stroke="#63b8ff" points="897.11,-75.41 907.69,-76.02 899.8,-68.95 897.11,-75.41"/>
</g>
<!-- Node49 -->
<g id="node8" class="node">
<title>Node49</title>
<g id="a_node8"><a xlink:href="../../d8/d41/tag__info__collector_8cpp.html" target="_top" xlink:title=" ">
<polygon fill="white" stroke="#666666" points="988.5,-41 872.5,-41 872.5,0 988.5,0 988.5,-41"/>
<text text-anchor="start" x="880.5" y="-29" font-family="Helvetica,sans-Serif" font-size="10.00">src/database/database</text>
<text text-anchor="start" x="880.5" y="-18" font-family="Helvetica,sans-Serif" font-size="10.00">_tools/implementation</text>
<text text-anchor="middle" x="930.5" y="-7" font-family="Helvetica,sans-Serif" font-size="10.00">/tag_info_collector.cpp</text>
</a>
</g>
</g>
<!-- Node1&#45;&gt;Node49 -->
<g id="edge7" class="edge">
<title>Node1&#45;&gt;Node49</title>
<path fill="none" stroke="#63b8ff" d="M930.5,-65.14C930.5,-57.54 930.5,-48.93 930.5,-41.38"/>
<polygon fill="#63b8ff" stroke="#63b8ff" points="927,-65.09 930.5,-75.09 934,-65.09 927,-65.09"/>
</g>
<!-- Node50 -->
<g id="node9" class="node">
<title>Node50</title>
<g id="a_node9"><a xlink:href="../../d3/dde/aphoto__change__log__operator_8cpp.html" target="_top" xlink:title=" ">
<polygon fill="white" stroke="#666666" points="1168.5,-35.5 1006.5,-35.5 1006.5,-5.5 1168.5,-5.5 1168.5,-35.5"/>
<text text-anchor="start" x="1014.5" y="-23.5" font-family="Helvetica,sans-Serif" font-size="10.00">src/database/implementation</text>
<text text-anchor="middle" x="1087.5" y="-12.5" font-family="Helvetica,sans-Serif" font-size="10.00">/aphoto_change_log_operator.cpp</text>
</a>
</g>
</g>
<!-- Node1&#45;&gt;Node50 -->
<g id="edge8" class="edge">
<title>Node1&#45;&gt;Node50</title>
<path fill="none" stroke="#63b8ff" d="M962.76,-72.35C988.73,-61.76 1025.19,-46.9 1051.98,-35.98"/>
<polygon fill="#63b8ff" stroke="#63b8ff" points="961.67,-69.01 953.73,-76.03 964.31,-75.5 961.67,-69.01"/>
</g>
<!-- Node46 -->
<g id="node10" class="node">
<title>Node46</title>
<g id="a_node10"><a xlink:href="../../dd/d27/tag__info__collector__tests_8cpp.html" target="_top" xlink:title=" ">
<polygon fill="white" stroke="#666666" points="1328,-35.5 1187,-35.5 1187,-5.5 1328,-5.5 1328,-35.5"/>
<text text-anchor="start" x="1195" y="-23.5" font-family="Helvetica,sans-Serif" font-size="10.00">src/database/unit_tests</text>
<text text-anchor="middle" x="1257.5" y="-12.5" font-family="Helvetica,sans-Serif" font-size="10.00">/tag_info_collector_tests.cpp</text>
</a>
</g>
</g>
<!-- Node1&#45;&gt;Node46 -->
<g id="edge9" class="edge">
<title>Node1&#45;&gt;Node46</title>
<path fill="none" stroke="#63b8ff" d="M996.89,-74.67C1046.74,-66.26 1116.6,-53.9 1177.5,-41 1184.77,-39.46 1192.39,-37.74 1199.92,-35.98"/>
<polygon fill="#63b8ff" stroke="#63b8ff" points="996.4,-71.2 987.12,-76.31 997.56,-78.1 996.4,-71.2"/>
</g>
<!-- Node21 -->
<g id="node11" class="node">
<title>Node21</title>
<g id="a_node11"><a xlink:href="../../d7/d06/photos__change__log__tests_8cpp.html" target="_top" xlink:title=" ">
<polygon fill="white" stroke="#666666" points="1495,-41 1346,-41 1346,0 1495,0 1495,-41"/>
<text text-anchor="start" x="1354" y="-29" font-family="Helvetica,sans-Serif" font-size="10.00">src/database/unit_tests</text>
<text text-anchor="start" x="1354" y="-18" font-family="Helvetica,sans-Serif" font-size="10.00">_for_backends/photos_change</text>
<text text-anchor="middle" x="1420.5" y="-7" font-family="Helvetica,sans-Serif" font-size="10.00">_log_tests.cpp</text>
</a>
</g>
</g>
<!-- Node1&#45;&gt;Node21 -->
<g id="edge10" class="edge">
<title>Node1&#45;&gt;Node21</title>
<path fill="none" stroke="#63b8ff" d="M1000.9,-80.42C1082.33,-73.94 1220.24,-61.11 1337.5,-41 1340.27,-40.52 1343.09,-40.01 1345.93,-39.47"/>
<polygon fill="#63b8ff" stroke="#63b8ff" points="1000.99,-76.9 991.3,-81.18 1001.54,-83.88 1000.99,-76.9"/>
</g>
<!-- Node51 -->
<g id="node12" class="node">
<title>Node51</title>
<g id="a_node12"><a xlink:href="../../db/d3f/tags__model_8cpp.html" target="_top" xlink:title=" ">
<polygon fill="white" stroke="#666666" points="1631.5,-35.5 1513.5,-35.5 1513.5,-5.5 1631.5,-5.5 1631.5,-35.5"/>
<text text-anchor="start" x="1521.5" y="-23.5" font-family="Helvetica,sans-Serif" font-size="10.00">src/gui/desktop/models</text>
<text text-anchor="middle" x="1572.5" y="-12.5" font-family="Helvetica,sans-Serif" font-size="10.00">/tags_model.cpp</text>
</a>
</g>
</g>
<!-- Node1&#45;&gt;Node51 -->
<g id="edge11" class="edge">
<title>Node1&#45;&gt;Node51</title>
<path fill="none" stroke="#63b8ff" d="M1001.14,-84.6C1110.04,-82.18 1325.12,-73.33 1504.5,-41 1511.75,-39.69 1519.34,-37.93 1526.71,-35.99"/>
<polygon fill="#63b8ff" stroke="#63b8ff" points="1001.11,-81.1 991.18,-84.81 1001.25,-88.1 1001.11,-81.1"/>
</g>
<!-- Node52 -->
<g id="node13" class="node">
<title>Node52</title>
<g id="a_node13"><a xlink:href="../../de/d58/tag__value__model_8cpp.html" target="_top" xlink:title=" ">
<polygon fill="white" stroke="#666666" points="1761,-35.5 1650,-35.5 1650,-5.5 1761,-5.5 1761,-35.5"/>
<text text-anchor="start" x="1658" y="-23.5" font-family="Helvetica,sans-Serif" font-size="10.00">src/gui/desktop/utils</text>
<text text-anchor="middle" x="1705.5" y="-12.5" font-family="Helvetica,sans-Serif" font-size="10.00">/tag_value_model.cpp</text>
</a>
</g>
</g>
<!-- Node1&#45;&gt;Node52 -->
<g id="edge12" class="edge">
<title>Node1&#45;&gt;Node52</title>
<path fill="none" stroke="#63b8ff" d="M1001.16,-86.39C1129.54,-86.83 1409.19,-82.38 1640.5,-41 1647.69,-39.71 1655.21,-37.91 1662.48,-35.91"/>
<polygon fill="#63b8ff" stroke="#63b8ff" points="1001.48,-82.89 991.47,-86.34 1001.45,-89.89 1001.48,-82.89"/>
</g>
<!-- Node53 -->
<g id="node14" class="node">
<title>Node53</title>
<g id="a_node14"><a xlink:href="../../db/d98/project__manager_8cpp.html" target="_top" xlink:title=" ">
<polygon fill="white" stroke="#666666" points="1934,-35.5 1779,-35.5 1779,-5.5 1934,-5.5 1934,-35.5"/>
<text text-anchor="start" x="1787" y="-23.5" font-family="Helvetica,sans-Serif" font-size="10.00">src/project_utils/implementation</text>
<text text-anchor="middle" x="1856.5" y="-12.5" font-family="Helvetica,sans-Serif" font-size="10.00">/project_manager.cpp</text>
</a>
</g>
</g>
<!-- Node1&#45;&gt;Node53 -->
<g id="edge13" class="edge">
<title>Node1&#45;&gt;Node53</title>
<path fill="none" stroke="#63b8ff" d="M1001.24,-85.8C1146.26,-85.52 1487.42,-80.3 1770.5,-41 1779.75,-39.72 1789.47,-37.94 1798.92,-35.97"/>
<polygon fill="#63b8ff" stroke="#63b8ff" points="1001.41,-82.3 991.41,-85.81 1001.41,-89.3 1001.41,-82.3"/>
</g>
</g>
</svg>
        <g id="navigator" transform="translate(0 0)" fill="#404254">
                <rect fill="#f2f5e9" fill-opacity="0.5" stroke="#606060" stroke-width=".5" x="0" y="0" width="60" height="60"/>
                <use id="zoomplus" xlink:href="#zoomPlus" x="17" y="9" onmousedown="handleZoom(evt,'in')"/>
                <use id="zoomminus" xlink:href="#zoomMin" x="42" y="9" onmousedown="handleZoom(evt,'out')"/>
                <use id="reset" xlink:href="#resetDef" x="30" y="36" onmousedown="handleReset()"/>
                <g id="arrowUp" xlink:href="#dirArrow" transform="translate(30 24)" onmousedown="handlePan(0,-1)">
                  <use xlink:href="#rim" fill="#404040">
                        <set attributeName="fill" to="#808080" begin="arrowUp.mouseover" end="arrowUp.mouseout"/>
                  </use>
                  <path fill="none" stroke="white" stroke-width="1.5" d="M0,-3.0v7 M-2.5,-0.5L0,-3.0L2.5,-0.5"/>
                </g>
                <g id="arrowRight" xlink:href="#dirArrow" transform="rotate(90) translate(36 -43)" onmousedown="handlePan(1,0)">
                  <use xlink:href="#rim" fill="#404040">
                        <set attributeName="fill" to="#808080" begin="arrowRight.mouseover" end="arrowRight.mouseout"/>
                  </use>
                  <path fill="none" stroke="white" stroke-width="1.5" d="M0,-3.0v7 M-2.5,-0.5L0,-3.0L2.5,-0.5"/>
                </g>
                <g id="arrowDown" xlink:href="#dirArrow" transform="rotate(180) translate(-30 -48)" onmousedown="handlePan(0,1)">
                  <use xlink:href="#rim" fill="#404040">
                        <set attributeName="fill" to="#808080" begin="arrowDown.mouseover" end="arrowDown.mouseout"/>
                  </use>
                  <path fill="none" stroke="white" stroke-width="1.5" d="M0,-3.0v7 M-2.5,-0.5L0,-3.0L2.5,-0.5"/>
                </g>
                <g id="arrowLeft" xlink:href="#dirArrow" transform="rotate(270) translate(-36 17)" onmousedown="handlePan(-1,0)">
                  <use xlink:href="#rim" fill="#404040">
                        <set attributeName="fill" to="#808080" begin="arrowLeft.mouseover" end="arrowLeft.mouseout"/>
                  </use>
                  <path fill="none" stroke="white" stroke-width="1.5" d="M0,-3.0v7 M-2.5,-0.5L0,-3.0L2.5,-0.5"/>
                </g>
        </g>
        <svg viewBox="0 0 15 15" width="100%" height="30px" preserveAspectRatio="xMaxYMin meet">
         <g id="arrow_out" transform="scale(0.3 0.3)">
          <a xlink:href="base__tags_8hpp__dep__incl_org.svg" target="_base">
           <rect id="button" ry="5" rx="5" y="6" x="6" height="38" width="38"
                fill="#f2f5e9" fill-opacity="0.5" stroke="#606060" stroke-width="1.0"/>
           <path id="arrow"
             d="M 11.500037,31.436501 C 11.940474,20.09759 22.043105,11.32322 32.158766,21.979434 L 37.068811,17.246167 C 37.068811,17.246167 37.088388,32 37.088388,32 L 22.160133,31.978069 C 22.160133,31.978069 26.997745,27.140456 26.997745,27.140456 C 18.528582,18.264221 13.291696,25.230495 11.500037,31.436501 z"
             style="fill:#404040;"/>
          </a>
         </g>
        </svg>
</svg>
