<?xml version="1.0" encoding="UTF-8" standalone="no"?>
<!DOCTYPE svg PUBLIC "-//W3C//DTD SVG 1.1//EN"
 "http://www.w3.org/Graphics/SVG/1.1/DTD/svg11.dtd">
<!-- Generated by graphviz version 7.0.5 (20221223.1930)
 -->
<!-- Title: src/database/backends/sql_backends/sql_query_executor.hpp Pages: 1 -->
<svg width="306pt" height="126pt"
 viewBox="0.00 0.00 305.50 126.00" xmlns="http://www.w3.org/2000/svg" xmlns:xlink="http://www.w3.org/1999/xlink">
<g id="graph0" class="graph" transform="scale(1 1) rotate(0) translate(4 122)">
<title>src/database/backends/sql_backends/sql_query_executor.hpp</title>
<!-- Node1 -->
<g id="node1" class="node">
<title>Node1</title>
<g id="a_node1"><a xlink:title=" ">
<polygon fill="#999999" stroke="#666666" points="218.5,-118 94.5,-118 94.5,-77 218.5,-77 218.5,-118"/>
<text text-anchor="start" x="102.5" y="-106" font-family="Helvetica,sans-Serif" font-size="10.00">src/database/backends</text>
<text text-anchor="start" x="102.5" y="-95" font-family="Helvetica,sans-Serif" font-size="10.00">/sql_backends/sql_query</text>
<text text-anchor="middle" x="156.5" y="-84" font-family="Helvetica,sans-Serif" font-size="10.00">_executor.hpp</text>
</a>
</g>
</g>
<!-- Node2 -->
<g id="node2" class="node">
<title>Node2</title>
<g id="a_node2"><a xlink:href="../../df/df4/sql__backend_8hpp.html" target="_top" xlink:title=" ">
<polygon fill="#fff0f0" stroke="red" points="155,-35.5 0,-35.5 0,-5.5 155,-5.5 155,-35.5"/>
<text text-anchor="start" x="8" y="-23.5" font-family="Helvetica,sans-Serif" font-size="10.00">src/database/backends</text>
<text text-anchor="middle" x="77.5" y="-12.5" font-family="Helvetica,sans-Serif" font-size="10.00">/sql_backends/sql_backend.hpp</text>
</a>
</g>
</g>
<!-- Node1&#45;&gt;Node2 -->
<g id="edge1" class="edge">
<title>Node1&#45;&gt;Node2</title>
<path fill="none" stroke="#63b8ff" d="M127.44,-68.92C115.63,-57.7 102.47,-45.21 92.63,-35.86"/>
<polygon fill="#63b8ff" stroke="#63b8ff" points="124.98,-71.41 134.65,-75.75 129.8,-66.33 124.98,-71.41"/>
</g>
<!-- Node20 -->
<g id="node3" class="node">
<title>Node20</title>
<g id="a_node3"><a xlink:href="../../d0/d41/sql__query__executor_8cpp.html" target="_top" xlink:title=" ">
<polygon fill="white" stroke="#666666" points="297.5,-41 173.5,-41 173.5,0 297.5,0 297.5,-41"/>
<text text-anchor="start" x="181.5" y="-29" font-family="Helvetica,sans-Serif" font-size="10.00">src/database/backends</text>
<text text-anchor="start" x="181.5" y="-18" font-family="Helvetica,sans-Serif" font-size="10.00">/sql_backends/sql_query</text>
<text text-anchor="middle" x="235.5" y="-7" font-family="Helvetica,sans-Serif" font-size="10.00">_executor.cpp</text>
</a>
</g>
</g>
<!-- Node1&#45;&gt;Node20 -->
<g id="edge2" class="edge">
<title>Node1&#45;&gt;Node20</title>
<path fill="none" stroke="#63b8ff" d="M185.45,-69.02C195.11,-59.84 205.68,-49.81 214.61,-41.33"/>
<polygon fill="#63b8ff" stroke="#63b8ff" points="183.2,-66.33 178.35,-75.75 188.02,-71.41 183.2,-66.33"/>
</g>
</g>
</svg>
