<?xml version="1.0" encoding="UTF-8" standalone="no"?>
<!DOCTYPE svg PUBLIC "-//W3C//DTD SVG 1.1//EN"
 "http://www.w3.org/Graphics/SVG/1.1/DTD/svg11.dtd">
<!-- Generated by graphviz version 12.2.0 (20241103.1931)
 -->
<!-- Title: ContextMenuManager::setSelection Pages: 1 -->
<svg width="296pt" height="88pt"
 viewBox="0.00 0.00 295.75 87.50" xmlns="http://www.w3.org/2000/svg" xmlns:xlink="http://www.w3.org/1999/xlink">
<g id="graph0" class="graph" transform="scale(1 1) rotate(0) translate(4 83.5)">
<title>ContextMenuManager::setSelection</title>
<!-- Node1 -->
<g id="Node000001" class="node">
<title>Node1</title>
<g id="a_Node000001"><a xlink:title=" ">
<polygon fill="#999999" stroke="#666666" points="110.5,-54.5 0,-54.5 0,-24 110.5,-24 110.5,-54.5"/>
<text text-anchor="start" x="8" y="-41" font-family="Helvetica,sans-Serif" font-size="10.00">ContextMenuManager</text>
<text text-anchor="middle" x="55.25" y="-29.75" font-family="Helvetica,sans-Serif" font-size="10.00">::setSelection</text>
</a>
</g>
</g>
<!-- Node2 -->
<g id="Node000002" class="node">
<title>Node2</title>
<g id="a_Node000002"><a xlink:href="../../d7/dfc/class_gui_1_1_utils_1_1_photo_delta_fetcher_binding.html#a01ab0a4a9d67d4822f17a7c758826c5d" target="_top" xlink:title=" ">
<polygon fill="white" stroke="#666666" points="287.75,-79.5 146.5,-79.5 146.5,-49 287.75,-49 287.75,-79.5"/>
<text text-anchor="start" x="154.5" y="-66" font-family="Helvetica,sans-Serif" font-size="10.00">Gui::Utils::PhotoDeltaFetcher</text>
<text text-anchor="middle" x="217.12" y="-54.75" font-family="Helvetica,sans-Serif" font-size="10.00">Binding::fetchIds</text>
</a>
</g>
</g>
<!-- Node1&#45;&gt;Node2 -->
<g id="edge1_Node000001_Node000002" class="edge">
<title>Node1&#45;&gt;Node2</title>
<g id="a_edge1_Node000001_Node000002"><a xlink:title=" ">
<path fill="none" stroke="#63b8ff" d="M110.82,-47.78C118.66,-49.01 126.86,-50.29 135.07,-51.58"/>
<polygon fill="#63b8ff" stroke="#63b8ff" points="134.33,-55 144.76,-53.09 135.42,-48.09 134.33,-55"/>
</a>
</g>
</g>
<!-- Node3 -->
<g id="Node000003" class="node">
<title>Node3</title>
<g id="a_Node000003"><a xlink:href="../../de/db3/class_context_menu_manager.html#abb2515c03aa693a699736a797d1997ca" target="_top" xlink:title=" ">
<polygon fill="white" stroke="#666666" points="272.38,-30.5 161.88,-30.5 161.88,0 272.38,0 272.38,-30.5"/>
<text text-anchor="start" x="169.88" y="-17" font-family="Helvetica,sans-Serif" font-size="10.00">ContextMenuManager</text>
<text text-anchor="middle" x="217.12" y="-5.75" font-family="Helvetica,sans-Serif" font-size="10.00">::selectionChanged</text>
</a>
</g>
</g>
<!-- Node1&#45;&gt;Node3 -->
<g id="edge2_Node000001_Node000003" class="edge">
<title>Node1&#45;&gt;Node3</title>
<g id="a_edge2_Node000001_Node000003"><a xlink:title=" ">
<path fill="none" stroke="#63b8ff" d="M110.82,-31.06C123.49,-29.16 137.1,-27.11 150.19,-25.15"/>
<polygon fill="#63b8ff" stroke="#63b8ff" points="150.66,-28.62 160.03,-23.67 149.62,-21.69 150.66,-28.62"/>
</a>
</g>
</g>
</g>
</svg>
