<?xml version="1.0" encoding="UTF-8" standalone="no"?>
<!DOCTYPE svg PUBLIC "-//W3C//DTD SVG 1.1//EN"
 "http://www.w3.org/Graphics/SVG/1.1/DTD/svg11.dtd">
<!-- Generated by graphviz version 12.2.0 (20241103.1931)
 -->
<!-- Title: ContextMenuManager::removeGroupOf Pages: 1 -->
<svg width="279pt" height="64pt"
 viewBox="0.00 0.00 278.50 64.25" xmlns="http://www.w3.org/2000/svg" xmlns:xlink="http://www.w3.org/1999/xlink">
<g id="graph0" class="graph" transform="scale(1 1) rotate(0) translate(4 60.25)">
<title>ContextMenuManager::removeGroupOf</title>
<!-- Node1 -->
<g id="Node000001" class="node">
<title>Node1</title>
<g id="a_Node000001"><a xlink:title=" ">
<polygon fill="#999999" stroke="#666666" points="110.5,-42.88 0,-42.88 0,-12.37 110.5,-12.37 110.5,-42.88"/>
<text text-anchor="start" x="8" y="-29.38" font-family="Helvetica,sans-Serif" font-size="10.00">ContextMenuManager</text>
<text text-anchor="middle" x="55.25" y="-18.12" font-family="Helvetica,sans-Serif" font-size="10.00">::removeGroupOf</text>
</a>
</g>
</g>
<!-- Node2 -->
<g id="Node000002" class="node">
<title>Node2</title>
<g id="a_Node000002"><a xlink:href="../../d9/d6e/class_project.html#a6d94d817c1233702908c063886bb5701" target="_top" xlink:title=" ">
<polygon fill="white" stroke="#666666" points="261.5,-56.25 155.5,-56.25 155.5,-37 261.5,-37 261.5,-56.25"/>
<text text-anchor="middle" x="208.5" y="-42.75" font-family="Helvetica,sans-Serif" font-size="10.00">Project::getDatabase</text>
</a>
</g>
</g>
<!-- Node1&#45;&gt;Node2 -->
<g id="edge1_Node000001_Node000002" class="edge">
<title>Node1&#45;&gt;Node2</title>
<g id="a_edge1_Node000001_Node000002"><a xlink:title=" ">
<path fill="none" stroke="#63b8ff" d="M110.85,-34.48C121.59,-35.83 132.95,-37.26 143.95,-38.64"/>
<polygon fill="#63b8ff" stroke="#63b8ff" points="143.39,-42.1 153.75,-39.87 144.26,-35.15 143.39,-42.1"/>
</a>
</g>
</g>
<!-- Node3 -->
<g id="Node000003" class="node">
<title>Node3</title>
<g id="a_Node000003"><a xlink:href="../../df/d40/namespace_groups_manager.html#ab262024260dcb1a060e7756e1e315e1c" target="_top" xlink:title=" ">
<polygon fill="#fff0f0" stroke="red" points="270.5,-19.25 146.5,-19.25 146.5,0 270.5,0 270.5,-19.25"/>
<text text-anchor="middle" x="208.5" y="-5.75" font-family="Helvetica,sans-Serif" font-size="10.00">GroupsManager::ungroup</text>
</a>
</g>
</g>
<!-- Node1&#45;&gt;Node3 -->
<g id="edge2_Node000001_Node000003" class="edge">
<title>Node1&#45;&gt;Node3</title>
<g id="a_edge2_Node000001_Node000003"><a xlink:title=" ">
<path fill="none" stroke="#63b8ff" d="M110.85,-21.13C118.62,-20.2 126.7,-19.24 134.75,-18.28"/>
<polygon fill="#63b8ff" stroke="#63b8ff" points="135.03,-21.77 144.55,-17.12 134.2,-14.82 135.03,-21.77"/>
</a>
</g>
</g>
</g>
</svg>
