<?xml version="1.0" encoding="UTF-8" standalone="no"?>
<!DOCTYPE svg PUBLIC "-//W3C//DTD SVG 1.1//EN"
 "http://www.w3.org/Graphics/SVG/1.1/DTD/svg11.dtd">
<!-- Generated by graphviz version 12.2.0 (20241103.1931)
 -->
<!-- Title: ContextMenuManager::groupPhotosAction Pages: 1 -->
<svg width="285pt" height="76pt"
 viewBox="0.00 0.00 284.50 75.88" xmlns="http://www.w3.org/2000/svg" xmlns:xlink="http://www.w3.org/1999/xlink">
<g id="graph0" class="graph" transform="scale(1 1) rotate(0) translate(4 71.88)">
<title>ContextMenuManager::groupPhotosAction</title>
<!-- Node1 -->
<g id="Node000001" class="node">
<title>Node1</title>
<g id="a_Node000001"><a xlink:title=" ">
<polygon fill="#999999" stroke="#666666" points="110.5,-51.5 0,-51.5 0,-21 110.5,-21 110.5,-51.5"/>
<text text-anchor="start" x="8" y="-38" font-family="Helvetica,sans-Serif" font-size="10.00">ContextMenuManager</text>
<text text-anchor="middle" x="55.25" y="-26.75" font-family="Helvetica,sans-Serif" font-size="10.00">::groupPhotosAction</text>
</a>
</g>
</g>
<!-- Node2 -->
<g id="Node000002" class="node">
<title>Node2</title>
<g id="a_Node000002"><a xlink:href="../../d4/d50/namespace_photo.html#a594c3d326153119c0f9358f4277d62b9" target="_top" xlink:title=" ">
<polygon fill="white" stroke="#666666" points="244.25,-67.88 178.75,-67.88 178.75,-48.62 244.25,-48.62 244.25,-67.88"/>
<text text-anchor="middle" x="211.5" y="-54.38" font-family="Helvetica,sans-Serif" font-size="10.00">Photo::EDV</text>
</a>
</g>
</g>
<!-- Node1&#45;&gt;Node2 -->
<g id="edge1_Node000001_Node000002" class="edge">
<title>Node1&#45;&gt;Node2</title>
<g id="a_edge1_Node000001_Node000002"><a xlink:title=" ">
<path fill="none" stroke="#63b8ff" d="M110.63,-44.01C129.19,-46.65 149.67,-49.57 167.23,-52.08"/>
<polygon fill="#63b8ff" stroke="#63b8ff" points="166.68,-55.54 177.08,-53.48 167.67,-48.61 166.68,-55.54"/>
</a>
</g>
</g>
<!-- Node3 -->
<g id="Node000003" class="node">
<title>Node3</title>
<g id="a_Node000003"><a xlink:href="../../df/d40/namespace_groups_manager.html#a641e41f272b8c7c01a4bdf7c0bcfb3cb" target="_top" xlink:title=" ">
<polygon fill="#fff0f0" stroke="red" points="276.5,-30.5 146.5,-30.5 146.5,0 276.5,0 276.5,-30.5"/>
<text text-anchor="start" x="154.5" y="-17" font-family="Helvetica,sans-Serif" font-size="10.00">GroupsManager::groupInto</text>
<text text-anchor="middle" x="211.5" y="-5.75" font-family="Helvetica,sans-Serif" font-size="10.00">Unified</text>
</a>
</g>
</g>
<!-- Node1&#45;&gt;Node3 -->
<g id="edge2_Node000001_Node000003" class="edge">
<title>Node1&#45;&gt;Node3</title>
<g id="a_edge2_Node000001_Node000003"><a xlink:title=" ">
<path fill="none" stroke="#63b8ff" d="M110.63,-28.85C118.41,-27.79 126.54,-26.68 134.64,-25.58"/>
<polygon fill="#63b8ff" stroke="#63b8ff" points="135.11,-29.05 144.54,-24.23 134.16,-22.11 135.11,-29.05"/>
</a>
</g>
</g>
</g>
</svg>
