<?xml version="1.0" encoding="UTF-8" standalone="no"?>
<!DOCTYPE svg PUBLIC "-//W3C//DTD SVG 1.1//EN"
 "http://www.w3.org/Graphics/SVG/1.1/DTD/svg11.dtd">
<!-- Generated by graphviz version 9.0.0 (20230911.1827)
 -->
<!-- Title: src/database/database_tools/implementation/tag_info_collector.cpp Pages: 1 -->
<svg width="376pt" height="160pt"
 viewBox="0.00 0.00 376.00 160.25" xmlns="http://www.w3.org/2000/svg" xmlns:xlink="http://www.w3.org/1999/xlink">
<g id="graph0" class="graph" transform="scale(1 1) rotate(0) translate(4 156.25)">
<title>src/database/database_tools/implementation/tag_info_collector.cpp</title>
<!-- Node1 -->
<g id="Node000001" class="node">
<title>Node1</title>
<g id="a_Node000001"><a xlink:title=" ">
<polygon fill="#999999" stroke="#666666" points="242.5,-152.25 127.5,-152.25 127.5,-110.5 242.5,-110.5 242.5,-152.25"/>
<text text-anchor="start" x="135.5" y="-138.75" font-family="Helvetica,sans-Serif" font-size="10.00">src/database/database</text>
<text text-anchor="start" x="135.5" y="-127.5" font-family="Helvetica,sans-Serif" font-size="10.00">_tools/implementation</text>
<text text-anchor="middle" x="185" y="-116.25" font-family="Helvetica,sans-Serif" font-size="10.00">/tag_info_collector.cpp</text>
</a>
</g>
</g>
<!-- Node2 -->
<g id="Node000002" class="node">
<title>Node2</title>
<g id="a_Node000002"><a xlink:href="../../df/d46/tag__info__collector_8hpp.html" target="_top" xlink:title=" ">
<polygon fill="#fff0f0" stroke="red" points="118,-74.5 0,-74.5 0,-55.25 118,-55.25 118,-74.5"/>
<text text-anchor="middle" x="59" y="-61" font-family="Helvetica,sans-Serif" font-size="10.00">../tag_info_collector.hpp</text>
</a>
</g>
</g>
<!-- Node1&#45;&gt;Node2 -->
<g id="edge1_Node000001_Node000002" class="edge">
<title>Node1&#45;&gt;Node2</title>
<g id="a_edge1_Node000001_Node000002"><a xlink:title=" ">
<path fill="none" stroke="#63b8ff" d="M145.48,-110.14C126.35,-100.35 103.86,-88.84 86.61,-80.01"/>
<polygon fill="#63b8ff" stroke="#63b8ff" points="88.46,-77.03 77.97,-75.58 85.27,-83.26 88.46,-77.03"/>
</a>
</g>
</g>
<!-- Node5 -->
<g id="Node000005" class="node">
<title>Node5</title>
<g id="a_Node000005"><a xlink:title=" ">
<polygon fill="#e0e0e0" stroke="#999999" points="263.25,-19.25 212.75,-19.25 212.75,0 263.25,0 263.25,-19.25"/>
<text text-anchor="middle" x="238" y="-5.75" font-family="Helvetica,sans-Serif" font-size="10.00">memory</text>
</a>
</g>
</g>
<!-- Node1&#45;&gt;Node5 -->
<g id="edge2_Node000001_Node000005" class="edge">
<title>Node1&#45;&gt;Node5</title>
<g id="a_edge2_Node000001_Node000005"><a xlink:title=" ">
<path fill="none" stroke="#63b8ff" d="M171.76,-110.2C163.22,-94.46 155.36,-72.44 165,-55.25 173.13,-40.76 188.09,-30.41 202.36,-23.35"/>
<polygon fill="#63b8ff" stroke="#63b8ff" points="203.46,-26.7 211.14,-19.4 200.59,-20.31 203.46,-26.7"/>
</a>
</g>
</g>
<!-- Node25 -->
<g id="Node000025" class="node">
<title>Node25</title>
<g id="a_Node000025"><a xlink:href="../../d9/d1e/base__tags_8hpp.html" target="_top" xlink:title=" ">
<polygon fill="#fff0f0" stroke="red" points="274.38,-74.5 173.62,-74.5 173.62,-55.25 274.38,-55.25 274.38,-74.5"/>
<text text-anchor="middle" x="224" y="-61" font-family="Helvetica,sans-Serif" font-size="10.00">core/base_tags.hpp</text>
</a>
</g>
</g>
<!-- Node1&#45;&gt;Node25 -->
<g id="edge3_Node000001_Node000025" class="edge">
<title>Node1&#45;&gt;Node25</title>
<g id="a_edge3_Node000001_Node000025"><a xlink:title=" ">
<path fill="none" stroke="#63b8ff" d="M197.13,-110.32C202.1,-102.09 207.83,-92.62 212.71,-84.54"/>
<polygon fill="#63b8ff" stroke="#63b8ff" points="215.55,-86.61 217.73,-76.24 209.56,-82.99 215.55,-86.61"/>
</a>
</g>
</g>
<!-- Node27 -->
<g id="Node000027" class="node">
<title>Node27</title>
<g id="a_Node000027"><a xlink:href="../../d7/d2b/idatabase_8hpp.html" target="_top" xlink:title=" ">
<polygon fill="#fff0f0" stroke="red" points="368,-74.5 292,-74.5 292,-55.25 368,-55.25 368,-74.5"/>
<text text-anchor="middle" x="330" y="-61" font-family="Helvetica,sans-Serif" font-size="10.00">idatabase.hpp</text>
</a>
</g>
</g>
<!-- Node1&#45;&gt;Node27 -->
<g id="edge4_Node000001_Node000027" class="edge">
<title>Node1&#45;&gt;Node27</title>
<g id="a_edge4_Node000001_Node000027"><a xlink:title=" ">
<path fill="none" stroke="#63b8ff" d="M230.48,-110.14C252.91,-100.17 279.35,-88.4 299.35,-79.51"/>
<polygon fill="#63b8ff" stroke="#63b8ff" points="300.63,-82.77 308.34,-75.51 297.78,-76.38 300.63,-82.77"/>
</a>
</g>
</g>
<!-- Node27&#45;&gt;Node5 -->
<g id="edge5_Node000027_Node000005" class="edge">
<title>Node27&#45;&gt;Node5</title>
<g id="a_edge5_Node000027_Node000005"><a xlink:title=" ">
<path fill="none" stroke="#63b8ff" d="M314.39,-54.84C300.38,-46.73 279.57,-34.68 263.2,-25.21"/>
<polygon fill="#63b8ff" stroke="#63b8ff" points="265.4,-22.44 254.99,-20.46 261.89,-28.5 265.4,-22.44"/>
</a>
</g>
</g>
</g>
</svg>
