<?xml version="1.0" encoding="UTF-8" standalone="no"?>
<!DOCTYPE svg PUBLIC "-//W3C//DTD SVG 1.1//EN"
 "http://www.w3.org/Graphics/SVG/1.1/DTD/svg11.dtd">
<!-- Generated by graphviz version 12.2.0 (20241103.1931)
 -->
<!-- Title: ILogger Pages: 1 -->
<svg width="146pt" height="83pt"
 viewBox="0.00 0.00 145.50 82.50" xmlns="http://www.w3.org/2000/svg" xmlns:xlink="http://www.w3.org/1999/xlink">
<g id="graph0" class="graph" transform="scale(1 1) rotate(0) translate(4 78.5)">
<title>ILogger</title>
<!-- Node1 -->
<g id="Node000001" class="node">
<title>Node1</title>
<g id="a_Node000001"><a xlink:title=" ">
<polygon fill="#999999" stroke="#666666" points="100,-74.5 51,-74.5 51,-55.25 100,-55.25 100,-74.5"/>
<text text-anchor="middle" x="75.5" y="-61" font-family="Helvetica,sans-Serif" font-size="10.00">ILogger</text>
</a>
</g>
</g>
<!-- Node2 -->
<g id="Node000002" class="node">
<title>Node2</title>
<g id="a_Node000002"><a xlink:href="../../d3/ddb/class_empty_logger.html" target="_top" xlink:title=" ">
<polygon fill="white" stroke="#666666" points="73,-19.25 0,-19.25 0,0 73,0 73,-19.25"/>
<text text-anchor="middle" x="36.5" y="-5.75" font-family="Helvetica,sans-Serif" font-size="10.00">EmptyLogger</text>
</a>
</g>
</g>
<!-- Node1&#45;&gt;Node2 -->
<g id="edge1_Node000001_Node000002" class="edge">
<title>Node1&#45;&gt;Node2</title>
<g id="a_edge1_Node000001_Node000002"><a xlink:title=" ">
<path fill="none" stroke="#63b8ff" d="M62.36,-45.94C55.88,-37.09 48.34,-26.79 43.08,-19.61"/>
<polygon fill="#63b8ff" stroke="#63b8ff" points="59.43,-47.86 68.17,-53.86 65.08,-43.73 59.43,-47.86"/>
</a>
</g>
</g>
<!-- Node3 -->
<g id="Node000003" class="node">
<title>Node3</title>
<g id="a_Node000003"><a xlink:href="../../d3/d42/class_logger.html" target="_top" xlink:title=" ">
<polygon fill="white" stroke="#666666" points="137.5,-19.25 91.5,-19.25 91.5,0 137.5,0 137.5,-19.25"/>
<text text-anchor="middle" x="114.5" y="-5.75" font-family="Helvetica,sans-Serif" font-size="10.00">Logger</text>
</a>
</g>
</g>
<!-- Node1&#45;&gt;Node3 -->
<g id="edge2_Node000001_Node000003" class="edge">
<title>Node1&#45;&gt;Node3</title>
<g id="a_edge2_Node000001_Node000003"><a xlink:title=" ">
<path fill="none" stroke="#63b8ff" d="M88.64,-45.94C95.12,-37.09 102.66,-26.79 107.92,-19.61"/>
<polygon fill="#63b8ff" stroke="#63b8ff" points="85.92,-43.73 82.83,-53.86 91.57,-47.86 85.92,-43.73"/>
</a>
</g>
</g>
</g>
</svg>
