<?xml version="1.0" encoding="UTF-8" standalone="no"?>
<!DOCTYPE svg PUBLIC "-//W3C//DTD SVG 1.1//EN"
 "http://www.w3.org/Graphics/SVG/1.1/DTD/svg11.dtd">
<!-- Generated by graphviz version 12.2.0 (20241103.1931)
 -->
<!-- Title: src/database/database_tools/implementation/photos_analyzer_p.hpp Pages: 1 -->
<svg width="868pt" height="238pt"
 viewBox="0.00 0.00 868.47 238.00" xmlns="http://www.w3.org/2000/svg" xmlns:xlink="http://www.w3.org/1999/xlink">
<g id="graph0" class="graph" transform="scale(1 1) rotate(0) translate(4 234)">
<title>src/database/database_tools/implementation/photos_analyzer_p.hpp</title>
<!-- Node1 -->
<g id="Node000001" class="node">
<title>Node1</title>
<g id="a_Node000001"><a xlink:title=" ">
<polygon fill="#999999" stroke="#666666" points="382.59,-230 265.34,-230 265.34,-188.25 382.59,-188.25 382.59,-230"/>
<text text-anchor="start" x="273.34" y="-216.5" font-family="Helvetica,sans-Serif" font-size="10.00">src/database/database</text>
<text text-anchor="start" x="273.34" y="-205.25" font-family="Helvetica,sans-Serif" font-size="10.00">_tools/implementation</text>
<text text-anchor="middle" x="323.97" y="-194" font-family="Helvetica,sans-Serif" font-size="10.00">/photos_analyzer_p.hpp</text>
</a>
</g>
</g>
<!-- Node2 -->
<g id="Node000002" class="node">
<title>Node2</title>
<g id="a_Node000002"><a xlink:title=" ">
<polygon fill="#e0e0e0" stroke="#999999" points="53.97,-19.25 1.97,-19.25 1.97,0 53.97,0 53.97,-19.25"/>
<text text-anchor="middle" x="27.97" y="-5.75" font-family="Helvetica,sans-Serif" font-size="10.00">QObject</text>
</a>
</g>
</g>
<!-- Node1&#45;&gt;Node2 -->
<g id="edge1_Node000001_Node000002" class="edge">
<title>Node1&#45;&gt;Node2</title>
<g id="a_edge1_Node000001_Node000002"><a xlink:title=" ">
<path fill="none" stroke="#63b8ff" d="M265.03,-199.92C217.97,-191.9 151.17,-177.18 96.97,-152.25 50.8,-131.02 27.21,-130.94 3.97,-85.75 -5.59,-67.17 4.77,-44.05 14.7,-28.41"/>
<polygon fill="#63b8ff" stroke="#63b8ff" points="17.31,-30.79 20.09,-20.57 11.54,-26.82 17.31,-30.79"/>
</a>
</g>
</g>
<!-- Node3 -->
<g id="Node000003" class="node">
<title>Node3</title>
<g id="a_Node000003"><a xlink:href="../../d1/dcc/accumulative__queue_8hpp.html" target="_top" xlink:title=" ">
<polygon fill="#fff0f0" stroke="red" points="294.47,-80.12 149.47,-80.12 149.47,-60.88 294.47,-60.88 294.47,-80.12"/>
<text text-anchor="middle" x="221.97" y="-66.62" font-family="Helvetica,sans-Serif" font-size="10.00">core/accumulative_queue.hpp</text>
</a>
</g>
</g>
<!-- Node1&#45;&gt;Node3 -->
<g id="edge2_Node000001_Node000003" class="edge">
<title>Node1&#45;&gt;Node3</title>
<g id="a_edge2_Node000001_Node000003"><a xlink:title=" ">
<path fill="none" stroke="#63b8ff" d="M265.26,-207.67C222.71,-203.87 167.77,-191.04 138.97,-152.25 130.89,-141.37 132.31,-133.56 138.97,-121.75 148.49,-104.86 166.23,-93 182.87,-85.06"/>
<polygon fill="#63b8ff" stroke="#63b8ff" points="183.87,-88.44 191.62,-81.22 181.06,-82.03 183.87,-88.44"/>
</a>
</g>
</g>
<!-- Node6 -->
<g id="Node000006" class="node">
<title>Node6</title>
<g id="a_Node000006"><a xlink:href="../../d7/d76/itasks__view_8hpp.html" target="_top" xlink:title=" ">
<polygon fill="#fff0f0" stroke="red" points="459.72,-146.62 352.22,-146.62 352.22,-127.38 459.72,-127.38 459.72,-146.62"/>
<text text-anchor="middle" x="405.97" y="-133.12" font-family="Helvetica,sans-Serif" font-size="10.00">core/itasks_view.hpp</text>
</a>
</g>
</g>
<!-- Node1&#45;&gt;Node6 -->
<g id="edge3_Node000001_Node000006" class="edge">
<title>Node1&#45;&gt;Node6</title>
<g id="a_edge3_Node000001_Node000006"><a xlink:title=" ">
<path fill="none" stroke="#63b8ff" d="M347.68,-187.84C360.23,-177.12 375.41,-164.14 387.13,-154.11"/>
<polygon fill="#63b8ff" stroke="#63b8ff" points="389.2,-156.94 394.52,-147.79 384.65,-151.62 389.2,-156.94"/>
</a>
</g>
</g>
<!-- Node8 -->
<g id="Node000008" class="node">
<title>Node8</title>
<g id="a_Node000008"><a xlink:href="../../d3/d1f/iview__task_8hpp.html" target="_top" xlink:title=" ">
<polygon fill="#fff0f0" stroke="red" points="580.09,-146.62 477.84,-146.62 477.84,-127.38 580.09,-127.38 580.09,-146.62"/>
<text text-anchor="middle" x="528.97" y="-133.12" font-family="Helvetica,sans-Serif" font-size="10.00">core/iview_task.hpp</text>
</a>
</g>
</g>
<!-- Node1&#45;&gt;Node8 -->
<g id="edge4_Node000001_Node000008" class="edge">
<title>Node1&#45;&gt;Node8</title>
<g id="a_edge4_Node000001_Node000008"><a xlink:title=" ">
<path fill="none" stroke="#63b8ff" d="M382.99,-187.94C418.07,-175.94 461.49,-161.08 491.82,-150.71"/>
<polygon fill="#63b8ff" stroke="#63b8ff" points="492.6,-154.14 500.93,-147.59 490.33,-147.52 492.6,-154.14"/>
</a>
</g>
</g>
<!-- Node9 -->
<g id="Node000009" class="node">
<title>Node9</title>
<g id="a_Node000009"><a xlink:href="../../d0/d21/media__information_8hpp.html" target="_top" xlink:title=" ">
<polygon fill="#fff0f0" stroke="red" points="733.59,-146.62 598.34,-146.62 598.34,-127.38 733.59,-127.38 733.59,-146.62"/>
<text text-anchor="middle" x="665.97" y="-133.12" font-family="Helvetica,sans-Serif" font-size="10.00">core/media_information.hpp</text>
</a>
</g>
</g>
<!-- Node1&#45;&gt;Node9 -->
<g id="edge5_Node000001_Node000009" class="edge">
<title>Node1&#45;&gt;Node9</title>
<g id="a_edge5_Node000001_Node000009"><a xlink:title=" ">
<path fill="none" stroke="#63b8ff" d="M382.76,-196.07C446.58,-182.98 547.75,-162.24 610.32,-149.41"/>
<polygon fill="#63b8ff" stroke="#63b8ff" points="610.96,-152.85 620.05,-147.41 609.55,-145.99 610.96,-152.85"/>
</a>
</g>
</g>
<!-- Node17 -->
<g id="Node000017" class="node">
<title>Node17</title>
<g id="a_Node000017"><a xlink:href="../../d5/d23/observable__task__executor_8hpp.html" target="_top" xlink:title=" ">
<polygon fill="#fff0f0" stroke="red" points="860.47,-152.25 751.47,-152.25 751.47,-121.75 860.47,-121.75 860.47,-152.25"/>
<text text-anchor="start" x="759.47" y="-138.75" font-family="Helvetica,sans-Serif" font-size="10.00">core/observable_task</text>
<text text-anchor="middle" x="805.97" y="-127.5" font-family="Helvetica,sans-Serif" font-size="10.00">_executor.hpp</text>
</a>
</g>
</g>
<!-- Node1&#45;&gt;Node17 -->
<g id="edge6_Node000001_Node000017" class="edge">
<title>Node1&#45;&gt;Node17</title>
<g id="a_edge6_Node000001_Node000017"><a xlink:title=" ">
<path fill="none" stroke="#63b8ff" d="M382.86,-201.96C461.96,-193.31 607.08,-176.13 739.88,-152.72"/>
<polygon fill="#63b8ff" stroke="#63b8ff" points="740.33,-156.19 749.56,-150.99 739.1,-149.3 740.33,-156.19"/>
</a>
</g>
</g>
<!-- Node23 -->
<g id="Node000023" class="node">
<title>Node23</title>
<g id="a_Node000023"><a xlink:href="../../d4/d20/task__executor__utils_8hpp.html" target="_top" xlink:title=" ">
<polygon fill="#fff0f0" stroke="red" points="411.22,-85.75 312.72,-85.75 312.72,-55.25 411.22,-55.25 411.22,-85.75"/>
<text text-anchor="start" x="320.72" y="-72.25" font-family="Helvetica,sans-Serif" font-size="10.00">core/task_executor</text>
<text text-anchor="middle" x="361.97" y="-61" font-family="Helvetica,sans-Serif" font-size="10.00">_utils.hpp</text>
</a>
</g>
</g>
<!-- Node1&#45;&gt;Node23 -->
<g id="edge7_Node000001_Node000023" class="edge">
<title>Node1&#45;&gt;Node23</title>
<g id="a_edge7_Node000001_Node000023"><a xlink:title=" ">
<path fill="none" stroke="#63b8ff" d="M327.53,-188.02C330.86,-170.38 336.32,-144.12 342.97,-121.75 345.46,-113.36 348.68,-104.38 351.75,-96.36"/>
<polygon fill="#63b8ff" stroke="#63b8ff" points="354.94,-97.82 355.36,-87.23 348.43,-95.24 354.94,-97.82"/>
</a>
</g>
</g>
<!-- Node30 -->
<g id="Node000030" class="node">
<title>Node30</title>
<g id="a_Node000030"><a xlink:href="../../d7/d2b/idatabase_8hpp.html" target="_top" xlink:title=" ">
<polygon fill="#fff0f0" stroke="red" points="131.34,-80.12 12.59,-80.12 12.59,-60.88 131.34,-60.88 131.34,-80.12"/>
<text text-anchor="middle" x="71.97" y="-66.62" font-family="Helvetica,sans-Serif" font-size="10.00">database/idatabase.hpp</text>
</a>
</g>
</g>
<!-- Node1&#45;&gt;Node30 -->
<g id="edge8_Node000001_Node000030" class="edge">
<title>Node1&#45;&gt;Node30</title>
<g id="a_edge8_Node000001_Node000030"><a xlink:title=" ">
<path fill="none" stroke="#63b8ff" d="M264.9,-201.69C223.71,-194.83 169.16,-180.8 128.97,-152.25 106.72,-136.45 90.12,-109.13 80.74,-90.69"/>
<polygon fill="#63b8ff" stroke="#63b8ff" points="83.99,-89.39 76.49,-81.9 77.69,-92.43 83.99,-89.39"/>
</a>
</g>
</g>
<!-- Node66 -->
<g id="Node000066" class="node">
<title>Node66</title>
<g id="a_Node000066"><a xlink:href="../../d7/dfc/database__queue_8hpp.html" target="_top" xlink:title=" ">
<polygon fill="#fff0f0" stroke="red" points="295.97,-146.62 147.97,-146.62 147.97,-127.38 295.97,-127.38 295.97,-146.62"/>
<text text-anchor="middle" x="221.97" y="-133.12" font-family="Helvetica,sans-Serif" font-size="10.00">database/database_queue.hpp</text>
</a>
</g>
</g>
<!-- Node1&#45;&gt;Node66 -->
<g id="edge10_Node000001_Node000066" class="edge">
<title>Node1&#45;&gt;Node66</title>
<g id="a_edge10_Node000001_Node000066"><a xlink:title=" ">
<path fill="none" stroke="#63b8ff" d="M294.46,-187.84C278.5,-176.86 259.09,-163.52 244.37,-153.4"/>
<polygon fill="#63b8ff" stroke="#63b8ff" points="246.51,-150.62 236.28,-147.84 242.54,-156.39 246.51,-150.62"/>
</a>
</g>
</g>
<!-- Node30&#45;&gt;Node2 -->
<g id="edge9_Node000030_Node000002" class="edge">
<title>Node30&#45;&gt;Node2</title>
<g id="a_edge9_Node000030_Node000002"><a xlink:title=" ">
<path fill="none" stroke="#63b8ff" d="M65.28,-60.56C59.02,-52.17 49.46,-39.38 41.58,-28.84"/>
<polygon fill="#63b8ff" stroke="#63b8ff" points="44.41,-26.78 35.62,-20.86 38.8,-30.97 44.41,-26.78"/>
</a>
</g>
</g>
<!-- Node66&#45;&gt;Node3 -->
<g id="edge11_Node000066_Node000003" class="edge">
<title>Node66&#45;&gt;Node3</title>
<g id="a_edge11_Node000066_Node000003"><a xlink:title=" ">
<path fill="none" stroke="#63b8ff" d="M221.97,-127.03C221.97,-117.98 221.97,-103.7 221.97,-91.88"/>
<polygon fill="#63b8ff" stroke="#63b8ff" points="225.47,-91.91 221.97,-81.91 218.47,-91.91 225.47,-91.91"/>
</a>
</g>
</g>
<!-- Node66&#45;&gt;Node23 -->
<g id="edge12_Node000066_Node000023" class="edge">
<title>Node66&#45;&gt;Node23</title>
<g id="a_edge12_Node000066_Node000023"><a xlink:title=" ">
<path fill="none" stroke="#63b8ff" d="M241.73,-126.9C261.93,-117.59 293.94,-102.84 319.85,-90.9"/>
<polygon fill="#63b8ff" stroke="#63b8ff" points="321.18,-94.15 328.8,-86.78 318.25,-87.79 321.18,-94.15"/>
</a>
</g>
</g>
<!-- Node66&#45;&gt;Node30 -->
<g id="edge13_Node000066_Node000030" class="edge">
<title>Node66&#45;&gt;Node30</title>
<g id="a_edge13_Node000066_Node000030"><a xlink:title=" ">
<path fill="none" stroke="#63b8ff" d="M200.79,-126.9C175.44,-116 132.76,-97.64 103.52,-85.07"/>
<polygon fill="#63b8ff" stroke="#63b8ff" points="104.99,-81.89 94.42,-81.16 102.23,-88.32 104.99,-81.89"/>
</a>
</g>
</g>
</g>
</svg>
