<?xml version="1.0" encoding="UTF-8" standalone="no"?>
<!DOCTYPE svg PUBLIC "-//W3C//DTD SVG 1.1//EN"
 "http://www.w3.org/Graphics/SVG/1.1/DTD/svg11.dtd">
<!-- Generated by graphviz version 9.0.0 (20230911.1827)
 -->
<!-- Title: src/core/ifeatures_manager.hpp Pages: 1 -->
<svg width="236pt" height="94pt"
 viewBox="0.00 0.00 235.62 93.75" xmlns="http://www.w3.org/2000/svg" xmlns:xlink="http://www.w3.org/1999/xlink">
<g id="graph0" class="graph" transform="scale(1 1) rotate(0) translate(4 89.75)">
<title>src/core/ifeatures_manager.hpp</title>
<!-- Node1 -->
<g id="Node000001" class="node">
<title>Node1</title>
<g id="a_Node000001"><a xlink:title=" ">
<polygon fill="#999999" stroke="#666666" points="155.62,-85.75 63.88,-85.75 63.88,-55.25 155.62,-55.25 155.62,-85.75"/>
<text text-anchor="start" x="71.88" y="-72.25" font-family="Helvetica,sans-Serif" font-size="10.00">src/core/ifeatures</text>
<text text-anchor="middle" x="109.75" y="-61" font-family="Helvetica,sans-Serif" font-size="10.00">_manager.hpp</text>
</a>
</g>
</g>
<!-- Node2 -->
<g id="Node000002" class="node">
<title>Node2</title>
<g id="a_Node000002"><a xlink:title=" ">
<polygon fill="#e0e0e0" stroke="#999999" points="65.5,-19.25 0,-19.25 0,0 65.5,0 65.5,-19.25"/>
<text text-anchor="middle" x="32.75" y="-5.75" font-family="Helvetica,sans-Serif" font-size="10.00">QStringList</text>
</a>
</g>
</g>
<!-- Node1&#45;&gt;Node2 -->
<g id="edge1_Node000001_Node000002" class="edge">
<title>Node1&#45;&gt;Node2</title>
<g id="a_edge1_Node000001_Node000002"><a xlink:title=" ">
<path fill="none" stroke="#63b8ff" d="M90.72,-54.95C79.44,-46.33 65.15,-35.4 53.58,-26.55"/>
<polygon fill="#63b8ff" stroke="#63b8ff" points="55.89,-23.91 45.82,-20.62 51.64,-29.48 55.89,-23.91"/>
</a>
</g>
</g>
<!-- Node3 -->
<g id="Node000003" class="node">
<title>Node3</title>
<g id="a_Node000003"><a xlink:title=" ">
<polygon fill="#e0e0e0" stroke="#999999" points="135.75,-19.25 83.75,-19.25 83.75,0 135.75,0 135.75,-19.25"/>
<text text-anchor="middle" x="109.75" y="-5.75" font-family="Helvetica,sans-Serif" font-size="10.00">QObject</text>
</a>
</g>
</g>
<!-- Node1&#45;&gt;Node3 -->
<g id="edge2_Node000001_Node000003" class="edge">
<title>Node1&#45;&gt;Node3</title>
<g id="a_edge2_Node000001_Node000003"><a xlink:title=" ">
<path fill="none" stroke="#63b8ff" d="M109.75,-54.95C109.75,-47.71 109.75,-38.84 109.75,-30.94"/>
<polygon fill="#63b8ff" stroke="#63b8ff" points="113.25,-31.21 109.75,-21.21 106.25,-31.21 113.25,-31.21"/>
</a>
</g>
</g>
<!-- Node4 -->
<g id="Node000004" class="node">
<title>Node4</title>
<g id="a_Node000004"><a xlink:title=" ">
<polygon fill="#e0e0e0" stroke="#999999" points="227.62,-19.25 153.88,-19.25 153.88,0 227.62,0 227.62,-19.25"/>
<text text-anchor="middle" x="190.75" y="-5.75" font-family="Helvetica,sans-Serif" font-size="10.00">core_export.h</text>
</a>
</g>
</g>
<!-- Node1&#45;&gt;Node4 -->
<g id="edge3_Node000001_Node000004" class="edge">
<title>Node1&#45;&gt;Node4</title>
<g id="a_edge3_Node000001_Node000004"><a xlink:title=" ">
<path fill="none" stroke="#63b8ff" d="M129.77,-54.95C141.75,-46.24 156.97,-35.18 169.21,-26.28"/>
<polygon fill="#63b8ff" stroke="#63b8ff" points="171.01,-29.3 177.04,-20.59 166.89,-23.64 171.01,-29.3"/>
</a>
</g>
</g>
</g>
</svg>
