<?xml version="1.0" encoding="UTF-8" standalone="no"?>
<!DOCTYPE svg PUBLIC "-//W3C//DTD SVG 1.1//EN"
 "http://www.w3.org/Graphics/SVG/1.1/DTD/svg11.dtd">
<!-- Generated by graphviz version 7.0.5 (20221223.1930)
 -->
<!-- Title: src/gui/desktop/widgets/project_creator/project_creator_dialog.cpp Pages: 1 -->
<!--zoomable 236 -->
<svg id="main" version="1.1" xmlns="http://www.w3.org/2000/svg" xmlns:xlink="http://www.w3.org/1999/xlink" xml:space="preserve" onload="init(evt)">
<style type="text/css"><![CDATA[
.edge:hover path { stroke: red; }
.edge:hover polygon { stroke: red; fill: red; }
]]></style>
<script type="text/javascript"><![CDATA[
var edges = document.getElementsByTagName('g');
if (edges && edges.length) {
  for (var i=0;i<edges.length;i++) {
    if (edges[i].id.substr(0,4)=='edge') {
      edges[i].setAttribute('class','edge');
    }
  }
}
]]></script>
        <defs>
                <circle id="rim" cx="0" cy="0" r="7"/>
                <circle id="rim2" cx="0" cy="0" r="3.5"/>
                <g id="zoomPlus">
                        <use xlink:href="#rim" fill="#404040">
                                <set attributeName="fill" to="#808080" begin="zoomplus.mouseover" end="zoomplus.mouseout"/>
                        </use>
                        <path d="M-4,0h8M0,-4v8" fill="none" stroke="white" stroke-width="1.5" pointer-events="none"/>
                </g>
                <g id="zoomMin">
                        <use xlink:href="#rim" fill="#404040">
                                <set attributeName="fill" to="#808080" begin="zoomminus.mouseover" end="zoomminus.mouseout"/>
                        </use>
                        <path d="M-4,0h8" fill="none" stroke="white" stroke-width="1.5" pointer-events="none"/>
                </g>
                <g id="dirArrow">
                        <path fill="none" stroke="white" stroke-width="1.5" d="M0,-3.0v7 M-2.5,-0.5L0,-3.0L2.5,-0.5"/>
                </g>
               <g id="resetDef">
                       <use xlink:href="#rim2" fill="#404040">
                               <set attributeName="fill" to="#808080" begin="reset.mouseover" end="reset.mouseout"/>
                       </use>
               </g>
        </defs>

<script type="text/javascript">
var viewWidth = 1598;
var viewHeight = 236;
var sectionId = 'dynsection-0';
</script>
<script xlink:href="../../svgpan.js"/>
<svg id="graph" class="graph">
<g id="viewport">
<title>src/gui/desktop/widgets/project_creator/project_creator_dialog.cpp</title>
<!-- Node1 -->
<g id="node1" class="node">
<title>Node1</title>
<g id="a_node1"><a xlink:title=" ">
<polygon fill="#999999" stroke="#666666" points="840,-228 720,-228 720,-187 840,-187 840,-228"/>
<text text-anchor="start" x="728" y="-216" font-family="Helvetica,sans-Serif" font-size="10.00">src/gui/desktop/widgets</text>
<text text-anchor="start" x="728" y="-205" font-family="Helvetica,sans-Serif" font-size="10.00">/project_creator/project</text>
<text text-anchor="middle" x="780" y="-194" font-family="Helvetica,sans-Serif" font-size="10.00">_creator_dialog.cpp</text>
</a>
</g>
</g>
<!-- Node2 -->
<g id="node2" class="node">
<title>Node2</title>
<g id="a_node2"><a xlink:href="../../db/d06/project__creator__dialog_8hpp.html" target="_top" xlink:title=" ">
<polygon fill="#fff0f0" stroke="red" points="130,-145.5 0,-145.5 0,-126.5 130,-126.5 130,-145.5"/>
<text text-anchor="middle" x="65" y="-133.5" font-family="Helvetica,sans-Serif" font-size="10.00">project_creator_dialog.hpp</text>
</a>
</g>
</g>
<!-- Node1&#45;&gt;Node2 -->
<g id="edge1" class="edge">
<title>Node1&#45;&gt;Node2</title>
<path fill="none" stroke="#63b8ff" d="M719.68,-203.31C605.8,-196.83 351.47,-180.22 139,-151 132.61,-150.12 125.94,-149.06 119.32,-147.92"/>
<polygon fill="#63b8ff" stroke="#63b8ff" points="120.26,-144.54 109.8,-146.22 119.03,-151.43 120.26,-144.54"/>
</g>
<!-- Node15 -->
<g id="node3" class="node">
<title>Node15</title>
<g id="a_node3"><a xlink:title=" ">
<polygon fill="#e0e0e0" stroke="#999999" points="178,-145.5 148,-145.5 148,-126.5 178,-126.5 178,-145.5"/>
<text text-anchor="middle" x="163" y="-133.5" font-family="Helvetica,sans-Serif" font-size="10.00">set</text>
</a>
</g>
</g>
<!-- Node1&#45;&gt;Node15 -->
<g id="edge2" class="edge">
<title>Node1&#45;&gt;Node15</title>
<path fill="none" stroke="#63b8ff" d="M719.96,-204.17C589.71,-198.58 285.08,-182.49 187,-151 186.64,-150.88 186.28,-150.76 185.91,-150.63"/>
<polygon fill="#63b8ff" stroke="#63b8ff" points="187.62,-147.57 177.09,-146.44 184.62,-153.89 187.62,-147.57"/>
</g>
<!-- Node51 -->
<g id="node4" class="node">
<title>Node51</title>
<g id="a_node4"><a xlink:title=" ">
<polygon fill="#e0e0e0" stroke="#999999" points="273.5,-145.5 196.5,-145.5 196.5,-126.5 273.5,-126.5 273.5,-145.5"/>
<text text-anchor="middle" x="235" y="-133.5" font-family="Helvetica,sans-Serif" font-size="10.00">QHBoxLayout</text>
</a>
</g>
</g>
<!-- Node1&#45;&gt;Node51 -->
<g id="edge3" class="edge">
<title>Node1&#45;&gt;Node51</title>
<path fill="none" stroke="#63b8ff" d="M719.67,-203.26C625.46,-197.42 438.02,-182.67 282,-151 279.05,-150.4 276.02,-149.7 272.99,-148.94"/>
<polygon fill="#63b8ff" stroke="#63b8ff" points="274.16,-145.63 263.59,-146.38 272.32,-152.38 274.16,-145.63"/>
</g>
<!-- Node52 -->
<g id="node5" class="node">
<title>Node52</title>
<g id="a_node5"><a xlink:title=" ">
<polygon fill="#e0e0e0" stroke="#999999" points="368.5,-145.5 291.5,-145.5 291.5,-126.5 368.5,-126.5 368.5,-145.5"/>
<text text-anchor="middle" x="330" y="-133.5" font-family="Helvetica,sans-Serif" font-size="10.00">QVBoxLayout</text>
</a>
</g>
</g>
<!-- Node1&#45;&gt;Node52 -->
<g id="edge4" class="edge">
<title>Node1&#45;&gt;Node52</title>
<path fill="none" stroke="#63b8ff" d="M719.76,-201.1C640.53,-193.34 497.28,-177.04 377,-151 374.06,-150.36 371.03,-149.64 368,-148.85"/>
<polygon fill="#63b8ff" stroke="#63b8ff" points="369.19,-145.55 358.61,-146.26 367.32,-152.3 369.19,-145.55"/>
</g>
<!-- Node53 -->
<g id="node6" class="node">
<title>Node53</title>
<g id="a_node6"><a xlink:title=" ">
<polygon fill="#e0e0e0" stroke="#999999" points="461.5,-145.5 386.5,-145.5 386.5,-126.5 461.5,-126.5 461.5,-145.5"/>
<text text-anchor="middle" x="424" y="-133.5" font-family="Helvetica,sans-Serif" font-size="10.00">QPushButton</text>
</a>
</g>
</g>
<!-- Node1&#45;&gt;Node53 -->
<g id="edge5" class="edge">
<title>Node1&#45;&gt;Node53</title>
<path fill="none" stroke="#63b8ff" d="M719.55,-197.85C656.75,-188.35 555.85,-171.67 470,-151 467.56,-150.41 465.06,-149.77 462.54,-149.09"/>
<polygon fill="#63b8ff" stroke="#63b8ff" points="463.62,-145.76 453.04,-146.39 461.7,-152.49 463.62,-145.76"/>
</g>
<!-- Node54 -->
<g id="node7" class="node">
<title>Node54</title>
<g id="a_node7"><a xlink:title=" ">
<polygon fill="#e0e0e0" stroke="#999999" points="538.5,-145.5 479.5,-145.5 479.5,-126.5 538.5,-126.5 538.5,-145.5"/>
<text text-anchor="middle" x="509" y="-133.5" font-family="Helvetica,sans-Serif" font-size="10.00">QLineEdit</text>
</a>
</g>
</g>
<!-- Node1&#45;&gt;Node54 -->
<g id="edge6" class="edge">
<title>Node1&#45;&gt;Node54</title>
<path fill="none" stroke="#63b8ff" d="M719.62,-194.19C672.27,-184.03 604.92,-168.5 547,-151 545.44,-150.53 543.86,-150.03 542.26,-149.51"/>
<polygon fill="#63b8ff" stroke="#63b8ff" points="543.78,-146.33 533.19,-146.38 541.5,-152.95 543.78,-146.33"/>
</g>
<!-- Node55 -->
<g id="node8" class="node">
<title>Node55</title>
<g id="a_node8"><a xlink:title=" ">
<polygon fill="#e0e0e0" stroke="#999999" points="623.5,-145.5 556.5,-145.5 556.5,-126.5 623.5,-126.5 623.5,-145.5"/>
<text text-anchor="middle" x="590" y="-133.5" font-family="Helvetica,sans-Serif" font-size="10.00">QFileDialog</text>
</a>
</g>
</g>
<!-- Node1&#45;&gt;Node55 -->
<g id="edge7" class="edge">
<title>Node1&#45;&gt;Node55</title>
<path fill="none" stroke="#63b8ff" d="M725.55,-186.58C693.22,-174.76 653.17,-160.11 625.02,-149.81"/>
<polygon fill="#63b8ff" stroke="#63b8ff" points="626.49,-146.62 615.9,-146.47 624.09,-153.2 626.49,-146.62"/>
</g>
<!-- Node56 -->
<g id="node9" class="node">
<title>Node56</title>
<g id="a_node9"><a xlink:title=" ">
<polygon fill="#e0e0e0" stroke="#999999" points="738,-145.5 642,-145.5 642,-126.5 738,-126.5 738,-145.5"/>
<text text-anchor="middle" x="690" y="-133.5" font-family="Helvetica,sans-Serif" font-size="10.00">QDialogButtonBox</text>
</a>
</g>
</g>
<!-- Node1&#45;&gt;Node56 -->
<g id="edge8" class="edge">
<title>Node1&#45;&gt;Node56</title>
<path fill="none" stroke="#63b8ff" d="M754.45,-186.77C740.54,-176.02 723.55,-162.91 710.51,-152.84"/>
<polygon fill="#63b8ff" stroke="#63b8ff" points="712.67,-150.09 702.62,-146.74 708.39,-155.63 712.67,-150.09"/>
</g>
<!-- Node57 -->
<g id="node10" class="node">
<title>Node57</title>
<g id="a_node10"><a xlink:title=" ">
<polygon fill="#e0e0e0" stroke="#999999" points="804,-145.5 756,-145.5 756,-126.5 804,-126.5 804,-145.5"/>
<text text-anchor="middle" x="780" y="-133.5" font-family="Helvetica,sans-Serif" font-size="10.00">QLabel</text>
</a>
</g>
</g>
<!-- Node1&#45;&gt;Node57 -->
<g id="edge9" class="edge">
<title>Node1&#45;&gt;Node57</title>
<path fill="none" stroke="#63b8ff" d="M780,-186.77C780,-177.5 780,-166.46 780,-157.14"/>
<polygon fill="#63b8ff" stroke="#63b8ff" points="783.5,-157.33 780,-147.33 776.5,-157.33 783.5,-157.33"/>
</g>
<!-- Node58 -->
<g id="node11" class="node">
<title>Node58</title>
<g id="a_node11"><a xlink:title=" ">
<polygon fill="#e0e0e0" stroke="#999999" points="893.5,-145.5 822.5,-145.5 822.5,-126.5 893.5,-126.5 893.5,-145.5"/>
<text text-anchor="middle" x="858" y="-133.5" font-family="Helvetica,sans-Serif" font-size="10.00">QComboBox</text>
</a>
</g>
</g>
<!-- Node1&#45;&gt;Node58 -->
<g id="edge10" class="edge">
<title>Node1&#45;&gt;Node58</title>
<path fill="none" stroke="#63b8ff" d="M802.14,-186.77C813.97,-176.24 828.35,-163.42 839.56,-153.43"/>
<polygon fill="#63b8ff" stroke="#63b8ff" points="841.83,-156.09 846.97,-146.83 837.18,-150.87 841.83,-156.09"/>
</g>
<!-- Node59 -->
<g id="node12" class="node">
<title>Node59</title>
<g id="a_node12"><a xlink:title=" ">
<polygon fill="#e0e0e0" stroke="#999999" points="978.5,-145.5 911.5,-145.5 911.5,-126.5 978.5,-126.5 978.5,-145.5"/>
<text text-anchor="middle" x="945" y="-133.5" font-family="Helvetica,sans-Serif" font-size="10.00">QGroupBox</text>
</a>
</g>
</g>
<!-- Node1&#45;&gt;Node59 -->
<g id="edge11" class="edge">
<title>Node1&#45;&gt;Node59</title>
<path fill="none" stroke="#63b8ff" d="M827.28,-186.58C854.86,-174.97 888.91,-160.62 913.28,-150.36"/>
<polygon fill="#63b8ff" stroke="#63b8ff" points="914.49,-153.65 922.35,-146.54 911.77,-147.2 914.49,-153.65"/>
</g>
<!-- Node60 -->
<g id="node13" class="node">
<title>Node60</title>
<g id="a_node13"><a xlink:title=" ">
<polygon fill="#e0e0e0" stroke="#999999" points="1085.5,-145.5 996.5,-145.5 996.5,-126.5 1085.5,-126.5 1085.5,-145.5"/>
<text text-anchor="middle" x="1041" y="-133.5" font-family="Helvetica,sans-Serif" font-size="10.00">QStackedLayout</text>
</a>
</g>
</g>
<!-- Node1&#45;&gt;Node60 -->
<g id="edge12" class="edge">
<title>Node1&#45;&gt;Node60</title>
<path fill="none" stroke="#63b8ff" d="M840.21,-190.47C887.88,-177.77 953.4,-160.33 996.45,-148.86"/>
<polygon fill="#63b8ff" stroke="#63b8ff" points="997.2,-152.29 1005.96,-146.33 995.4,-145.52 997.2,-152.29"/>
</g>
<!-- Node7 -->
<g id="node14" class="node">
<title>Node7</title>
<g id="a_node14"><a xlink:title=" ">
<polygon fill="#e0e0e0" stroke="#999999" points="1178,-19 1128,-19 1128,0 1178,0 1178,-19"/>
<text text-anchor="middle" x="1153" y="-7" font-family="Helvetica,sans-Serif" font-size="10.00">QString</text>
</a>
</g>
</g>
<!-- Node1&#45;&gt;Node7 -->
<g id="edge13" class="edge">
<title>Node1&#45;&gt;Node7</title>
<path fill="none" stroke="#63b8ff" d="M840.37,-202.71C920.38,-196.54 1055.9,-181.8 1094,-151 1129.81,-122.04 1114.89,-97.34 1133,-55 1136.58,-46.63 1140.68,-37.44 1144.23,-29.6"/>
<polygon fill="#63b8ff" stroke="#63b8ff" points="1147.33,-31.25 1148.29,-20.7 1140.96,-28.35 1147.33,-31.25"/>
</g>
<!-- Node61 -->
<g id="node15" class="node">
<title>Node61</title>
<g id="a_node15"><a xlink:href="../../da/d21/idatabase__plugin_8hpp.html" target="_top" xlink:title=" ">
<polygon fill="#fff0f0" stroke="red" points="1243.5,-85 1142.5,-85 1142.5,-55 1243.5,-55 1243.5,-85"/>
<text text-anchor="start" x="1150.5" y="-73" font-family="Helvetica,sans-Serif" font-size="10.00">database/idatabase</text>
<text text-anchor="middle" x="1193" y="-62" font-family="Helvetica,sans-Serif" font-size="10.00">_plugin.hpp</text>
</a>
</g>
</g>
<!-- Node1&#45;&gt;Node61 -->
<g id="edge14" class="edge">
<title>Node1&#45;&gt;Node61</title>
<path fill="none" stroke="#63b8ff" d="M840.47,-202.07C926.79,-194.87 1080.17,-178.59 1128,-151 1150.78,-137.86 1168.83,-113.44 1180.07,-95.02"/>
<polygon fill="#63b8ff" stroke="#63b8ff" points="1182.98,-96.97 1184.98,-86.57 1176.93,-93.45 1182.98,-96.97"/>
</g>
<!-- Node62 -->
<g id="node16" class="node">
<title>Node62</title>
<g id="a_node16"><a xlink:href="../../de/dc7/iplugin__loader_8hpp.html" target="_top" xlink:title=" ">
<polygon fill="#fff0f0" stroke="red" points="1308,-145.5 1180,-145.5 1180,-126.5 1308,-126.5 1308,-145.5"/>
<text text-anchor="middle" x="1244" y="-133.5" font-family="Helvetica,sans-Serif" font-size="10.00">plugins/iplugin_loader.hpp</text>
</a>
</g>
</g>
<!-- Node1&#45;&gt;Node62 -->
<g id="edge16" class="edge">
<title>Node1&#45;&gt;Node62</title>
<path fill="none" stroke="#63b8ff" d="M840.27,-198.49C916.31,-188.24 1051.04,-169.58 1166,-151 1171.94,-150.04 1178.13,-149 1184.31,-147.93"/>
<polygon fill="#63b8ff" stroke="#63b8ff" points="1184.62,-151.43 1193.87,-146.26 1183.42,-144.54 1184.62,-151.43"/>
</g>
<!-- Node63 -->
<g id="node17" class="node">
<title>Node63</title>
<g id="a_node17"><a xlink:href="../../d2/dee/iproject__manager_8hpp.html" target="_top" xlink:title=" ">
<polygon fill="#fff0f0" stroke="red" points="1430,-151 1326,-151 1326,-121 1430,-121 1430,-151"/>
<text text-anchor="start" x="1334" y="-139" font-family="Helvetica,sans-Serif" font-size="10.00">project_utils/iproject</text>
<text text-anchor="middle" x="1378" y="-128" font-family="Helvetica,sans-Serif" font-size="10.00">_manager.hpp</text>
</a>
</g>
</g>
<!-- Node1&#45;&gt;Node63 -->
<g id="edge17" class="edge">
<title>Node1&#45;&gt;Node63</title>
<path fill="none" stroke="#63b8ff" d="M840.32,-202.69C937.98,-195.99 1136.88,-180.14 1314.39,-151.31"/>
<polygon fill="#63b8ff" stroke="#63b8ff" points="1314.72,-154.8 1324.02,-149.72 1313.58,-147.89 1314.72,-154.8"/>
</g>
<!-- Node64 -->
<g id="node18" class="node">
<title>Node64</title>
<g id="a_node18"><a xlink:href="../../d5/dcf/qtext__choosefile_8hpp.html" target="_top" xlink:title=" ">
<polygon fill="#fff0f0" stroke="red" points="1589.5,-145.5 1448.5,-145.5 1448.5,-126.5 1589.5,-126.5 1589.5,-145.5"/>
<text text-anchor="middle" x="1519" y="-133.5" font-family="Helvetica,sans-Serif" font-size="10.00">widgets/qtext_choosefile.hpp</text>
</a>
</g>
</g>
<!-- Node1&#45;&gt;Node64 -->
<g id="edge19" class="edge">
<title>Node1&#45;&gt;Node64</title>
<path fill="none" stroke="#63b8ff" d="M840.16,-203.24C956.28,-196.54 1219.24,-179.43 1439,-151 1445.97,-150.1 1453.27,-149.02 1460.49,-147.86"/>
<polygon fill="#63b8ff" stroke="#63b8ff" points="1460.94,-151.33 1470.23,-146.24 1459.8,-144.43 1460.94,-151.33"/>
</g>
<!-- Node61&#45;&gt;Node7 -->
<g id="edge15" class="edge">
<title>Node61&#45;&gt;Node7</title>
<path fill="none" stroke="#63b8ff" d="M1183.11,-54.54C1177.72,-46.65 1170.99,-36.81 1165.26,-28.44"/>
<polygon fill="#63b8ff" stroke="#63b8ff" points="1168.32,-26.7 1159.79,-20.42 1162.54,-30.65 1168.32,-26.7"/>
</g>
<!-- Node63&#45;&gt;Node61 -->
<g id="edge18" class="edge">
<title>Node63&#45;&gt;Node61</title>
<path fill="none" stroke="#63b8ff" d="M1336.48,-120.64C1309.56,-111.32 1274.26,-99.11 1245.41,-89.13"/>
<polygon fill="#63b8ff" stroke="#63b8ff" points="1246.72,-85.88 1236.13,-85.92 1244.44,-92.5 1246.72,-85.88"/>
</g>
</g>
</svg>
        <g id="navigator" transform="translate(0 0)" fill="#404254">
                <rect fill="#f2f5e9" fill-opacity="0.5" stroke="#606060" stroke-width=".5" x="0" y="0" width="60" height="60"/>
                <use id="zoomplus" xlink:href="#zoomPlus" x="17" y="9" onmousedown="handleZoom(evt,'in')"/>
                <use id="zoomminus" xlink:href="#zoomMin" x="42" y="9" onmousedown="handleZoom(evt,'out')"/>
                <use id="reset" xlink:href="#resetDef" x="30" y="36" onmousedown="handleReset()"/>
                <g id="arrowUp" xlink:href="#dirArrow" transform="translate(30 24)" onmousedown="handlePan(0,-1)">
                  <use xlink:href="#rim" fill="#404040">
                        <set attributeName="fill" to="#808080" begin="arrowUp.mouseover" end="arrowUp.mouseout"/>
                  </use>
                  <path fill="none" stroke="white" stroke-width="1.5" d="M0,-3.0v7 M-2.5,-0.5L0,-3.0L2.5,-0.5"/>
                </g>
                <g id="arrowRight" xlink:href="#dirArrow" transform="rotate(90) translate(36 -43)" onmousedown="handlePan(1,0)">
                  <use xlink:href="#rim" fill="#404040">
                        <set attributeName="fill" to="#808080" begin="arrowRight.mouseover" end="arrowRight.mouseout"/>
                  </use>
                  <path fill="none" stroke="white" stroke-width="1.5" d="M0,-3.0v7 M-2.5,-0.5L0,-3.0L2.5,-0.5"/>
                </g>
                <g id="arrowDown" xlink:href="#dirArrow" transform="rotate(180) translate(-30 -48)" onmousedown="handlePan(0,1)">
                  <use xlink:href="#rim" fill="#404040">
                        <set attributeName="fill" to="#808080" begin="arrowDown.mouseover" end="arrowDown.mouseout"/>
                  </use>
                  <path fill="none" stroke="white" stroke-width="1.5" d="M0,-3.0v7 M-2.5,-0.5L0,-3.0L2.5,-0.5"/>
                </g>
                <g id="arrowLeft" xlink:href="#dirArrow" transform="rotate(270) translate(-36 17)" onmousedown="handlePan(-1,0)">
                  <use xlink:href="#rim" fill="#404040">
                        <set attributeName="fill" to="#808080" begin="arrowLeft.mouseover" end="arrowLeft.mouseout"/>
                  </use>
                  <path fill="none" stroke="white" stroke-width="1.5" d="M0,-3.0v7 M-2.5,-0.5L0,-3.0L2.5,-0.5"/>
                </g>
        </g>
        <svg viewBox="0 0 15 15" width="100%" height="30px" preserveAspectRatio="xMaxYMin meet">
         <g id="arrow_out" transform="scale(0.3 0.3)">
          <a xlink:href="project__creator__dialog_8cpp__incl_org.svg" target="_base">
           <rect id="button" ry="5" rx="5" y="6" x="6" height="38" width="38"
                fill="#f2f5e9" fill-opacity="0.5" stroke="#606060" stroke-width="1.0"/>
           <path id="arrow"
             d="M 11.500037,31.436501 C 11.940474,20.09759 22.043105,11.32322 32.158766,21.979434 L 37.068811,17.246167 C 37.068811,17.246167 37.088388,32 37.088388,32 L 22.160133,31.978069 C 22.160133,31.978069 26.997745,27.140456 26.997745,27.140456 C 18.528582,18.264221 13.291696,25.230495 11.500037,31.436501 z"
             style="fill:#404040;"/>
          </a>
         </g>
        </svg>
</svg>
