<?xml version="1.0" encoding="UTF-8" standalone="no"?>
<!DOCTYPE svg PUBLIC "-//W3C//DTD SVG 1.1//EN"
 "http://www.w3.org/Graphics/SVG/1.1/DTD/svg11.dtd">
<!-- Generated by graphviz version 7.0.5 (20221223.1930)
 -->
<!-- Title: src/core/task_executor.hpp Pages: 1 -->
<svg width="298pt" height="137pt"
 viewBox="0.00 0.00 298.00 137.00" xmlns="http://www.w3.org/2000/svg" xmlns:xlink="http://www.w3.org/1999/xlink">
<g id="graph0" class="graph" transform="scale(1 1) rotate(0) translate(4 133)">
<title>src/core/task_executor.hpp</title>
<!-- Node1 -->
<g id="node1" class="node">
<title>Node1</title>
<g id="a_node1"><a xlink:title=" ">
<polygon fill="#999999" stroke="#666666" points="177,-129 43,-129 43,-110 177,-110 177,-129"/>
<text text-anchor="middle" x="110" y="-117" font-family="Helvetica,sans-Serif" font-size="10.00">src/core/task_executor.hpp</text>
</a>
</g>
</g>
<!-- Node2 -->
<g id="node2" class="node">
<title>Node2</title>
<g id="a_node2"><a xlink:title=" ">
<polygon fill="#e0e0e0" stroke="#999999" points="44,-74 0,-74 0,-55 44,-55 44,-74"/>
<text text-anchor="middle" x="22" y="-62" font-family="Helvetica,sans-Serif" font-size="10.00">thread</text>
</a>
</g>
</g>
<!-- Node1&#45;&gt;Node2 -->
<g id="edge1" class="edge">
<title>Node1&#45;&gt;Node2</title>
<path fill="none" stroke="#63b8ff" d="M95.07,-109.51C81.72,-101.47 61.89,-89.53 46.26,-80.11"/>
<polygon fill="#63b8ff" stroke="#63b8ff" points="48.38,-77.3 38,-75.14 44.76,-83.3 48.38,-77.3"/>
</g>
<!-- Node3 -->
<g id="node3" class="node">
<title>Node3</title>
<g id="a_node3"><a xlink:title=" ">
<polygon fill="#e0e0e0" stroke="#999999" points="147,-19 73,-19 73,0 147,0 147,-19"/>
<text text-anchor="middle" x="110" y="-7" font-family="Helvetica,sans-Serif" font-size="10.00">core_export.h</text>
</a>
</g>
</g>
<!-- Node1&#45;&gt;Node3 -->
<g id="edge2" class="edge">
<title>Node1&#45;&gt;Node3</title>
<path fill="none" stroke="#63b8ff" d="M104.4,-109.59C97.44,-97.41 86.94,-74.84 91,-55 92.79,-46.26 96.36,-37.12 99.93,-29.41"/>
<polygon fill="#63b8ff" stroke="#63b8ff" points="102.94,-31.22 104.27,-20.71 96.67,-28.09 102.94,-31.22"/>
</g>
<!-- Node4 -->
<g id="node4" class="node">
<title>Node4</title>
<g id="a_node4"><a xlink:href="../../d5/d80/itask__executor_8hpp.html" target="_top" xlink:title=" ">
<polygon fill="#fff0f0" stroke="red" points="198,-74 100,-74 100,-55 198,-55 198,-74"/>
<text text-anchor="middle" x="149" y="-62" font-family="Helvetica,sans-Serif" font-size="10.00">itask_executor.hpp</text>
</a>
</g>
</g>
<!-- Node1&#45;&gt;Node4 -->
<g id="edge3" class="edge">
<title>Node1&#45;&gt;Node4</title>
<path fill="none" stroke="#63b8ff" d="M116.44,-109.75C121.66,-102.66 129.19,-92.42 135.69,-83.59"/>
<polygon fill="#63b8ff" stroke="#63b8ff" points="138.42,-85.79 141.52,-75.66 132.78,-81.64 138.42,-85.79"/>
</g>
<!-- Node7 -->
<g id="node5" class="node">
<title>Node7</title>
<g id="a_node5"><a xlink:href="../../de/d19/ts__queue_8hpp.html" target="_top" xlink:title=" ">
<polygon fill="#fff0f0" stroke="red" points="290,-74 216,-74 216,-55 290,-55 290,-74"/>
<text text-anchor="middle" x="253" y="-62" font-family="Helvetica,sans-Serif" font-size="10.00">ts_queue.hpp</text>
</a>
</g>
</g>
<!-- Node1&#45;&gt;Node7 -->
<g id="edge5" class="edge">
<title>Node1&#45;&gt;Node7</title>
<path fill="none" stroke="#63b8ff" d="M134.26,-109.51C157.41,-100.93 192.51,-87.92 218.56,-78.27"/>
<polygon fill="#63b8ff" stroke="#63b8ff" points="219.52,-81.64 227.68,-74.88 217.09,-75.08 219.52,-81.64"/>
</g>
<!-- Node4&#45;&gt;Node3 -->
<g id="edge4" class="edge">
<title>Node4&#45;&gt;Node3</title>
<path fill="none" stroke="#63b8ff" d="M142.56,-54.75C137.34,-47.66 129.81,-37.42 123.31,-28.59"/>
<polygon fill="#63b8ff" stroke="#63b8ff" points="126.22,-26.64 117.48,-20.66 120.58,-30.79 126.22,-26.64"/>
</g>
</g>
</svg>
