<?xml version="1.0" encoding="UTF-8" standalone="no"?>
<!DOCTYPE svg PUBLIC "-//W3C//DTD SVG 1.1//EN"
 "http://www.w3.org/Graphics/SVG/1.1/DTD/svg11.dtd">
<!-- Generated by graphviz version 12.2.0 (20241103.1931)
 -->
<!-- Title: AnimationGenerator::stabilize Pages: 1 -->
<svg width="273pt" height="137pt"
 viewBox="0.00 0.00 273.25 136.50" xmlns="http://www.w3.org/2000/svg" xmlns:xlink="http://www.w3.org/1999/xlink">
<g id="graph0" class="graph" transform="scale(1 1) rotate(0) translate(4 132.5)">
<title>AnimationGenerator::stabilize</title>
<!-- Node1 -->
<g id="Node000001" class="node">
<title>Node1</title>
<g id="a_Node000001"><a xlink:title=" ">
<polygon fill="#999999" stroke="#666666" points="102.25,-79.5 0,-79.5 0,-49 102.25,-49 102.25,-79.5"/>
<text text-anchor="start" x="8" y="-66" font-family="Helvetica,sans-Serif" font-size="10.00">AnimationGenerator</text>
<text text-anchor="middle" x="51.12" y="-54.75" font-family="Helvetica,sans-Serif" font-size="10.00">::stabilize</text>
</a>
</g>
</g>
<!-- Node2 -->
<g id="Node000002" class="node">
<title>Node2</title>
<g id="a_Node000002"><a xlink:href="../../dc/dc9/class_generator_utils_1_1_breakable_task.html#a942a17c818a3d5f88dd2428d8b82d611" target="_top" xlink:title=" ">
<polygon fill="white" stroke="#666666" points="265.25,-128.5 138.25,-128.5 138.25,-98 265.25,-98 265.25,-128.5"/>
<text text-anchor="start" x="146.25" y="-115" font-family="Helvetica,sans-Serif" font-size="10.00">GeneratorUtils::Breakable</text>
<text text-anchor="middle" x="201.75" y="-103.75" font-family="Helvetica,sans-Serif" font-size="10.00">Task::operation</text>
</a>
</g>
</g>
<!-- Node1&#45;&gt;Node2 -->
<g id="edge1_Node000001_Node000002" class="edge">
<title>Node1&#45;&gt;Node2</title>
<g id="a_edge1_Node000001_Node000002"><a xlink:title=" ">
<path fill="none" stroke="#63b8ff" d="M99.56,-79.89C113.17,-84.37 128.16,-89.32 142.35,-94"/>
<polygon fill="#63b8ff" stroke="#63b8ff" points="140.97,-97.23 151.56,-97.03 143.16,-90.58 140.97,-97.23"/>
</a>
</g>
</g>
<!-- Node3 -->
<g id="Node000003" class="node">
<title>Node3</title>
<g id="a_Node000003"><a xlink:href="../../de/de4/namespace_generator_utils.html#adebf1af3c026b5fd867309f44e9b273c" target="_top" xlink:title=" ">
<polygon fill="#fff0f0" stroke="red" points="261.12,-79.5 142.38,-79.5 142.38,-49 261.12,-49 261.12,-79.5"/>
<text text-anchor="start" x="150.38" y="-66" font-family="Helvetica,sans-Serif" font-size="10.00">GeneratorUtils::stabilize</text>
<text text-anchor="middle" x="201.75" y="-54.75" font-family="Helvetica,sans-Serif" font-size="10.00">Images</text>
</a>
</g>
</g>
<!-- Node1&#45;&gt;Node3 -->
<g id="edge2_Node000001_Node000003" class="edge">
<title>Node1&#45;&gt;Node3</title>
<g id="a_edge2_Node000001_Node000003"><a xlink:title=" ">
<path fill="none" stroke="#63b8ff" d="M102.44,-64.25C111.48,-64.25 121.05,-64.25 130.54,-64.25"/>
<polygon fill="#63b8ff" stroke="#63b8ff" points="130.5,-67.75 140.5,-64.25 130.5,-60.75 130.5,-67.75"/>
</a>
</g>
</g>
<!-- Node6 -->
<g id="Node000006" class="node">
<title>Node6</title>
<g id="a_Node000006"><a xlink:href="../../dc/dc9/class_generator_utils_1_1_breakable_task.html#a1ee903cd64deb4d6d26867a72d8ca8f9" target="_top" xlink:title=" ">
<polygon fill="white" stroke="#666666" points="265.25,-30.5 138.25,-30.5 138.25,0 265.25,0 265.25,-30.5"/>
<text text-anchor="start" x="146.25" y="-17" font-family="Helvetica,sans-Serif" font-size="10.00">GeneratorUtils::Breakable</text>
<text text-anchor="middle" x="201.75" y="-5.75" font-family="Helvetica,sans-Serif" font-size="10.00">Task::tmpDirPath</text>
</a>
</g>
</g>
<!-- Node1&#45;&gt;Node6 -->
<g id="edge3_Node000001_Node000006" class="edge">
<title>Node1&#45;&gt;Node6</title>
<g id="a_edge3_Node000001_Node000006"><a xlink:title=" ">
<path fill="none" stroke="#63b8ff" d="M99.56,-48.61C113.17,-44.13 128.16,-39.18 142.35,-34.5"/>
<polygon fill="#63b8ff" stroke="#63b8ff" points="143.16,-37.92 151.56,-31.47 140.97,-31.27 143.16,-37.92"/>
</a>
</g>
</g>
</g>
</svg>
