<?xml version="1.0" encoding="UTF-8" standalone="no"?>
<!DOCTYPE svg PUBLIC "-//W3C//DTD SVG 1.1//EN"
 "http://www.w3.org/Graphics/SVG/1.1/DTD/svg11.dtd">
<!-- Generated by graphviz version 12.2.0 (20241103.1931)
 -->
<!-- Title: AnimationGenerator::generateAnimation Pages: 1 -->
<svg width="286pt" height="125pt"
 viewBox="0.00 0.00 286.00 124.88" xmlns="http://www.w3.org/2000/svg" xmlns:xlink="http://www.w3.org/1999/xlink">
<g id="graph0" class="graph" transform="scale(1 1) rotate(0) translate(4 120.88)">
<title>AnimationGenerator::generateAnimation</title>
<!-- Node1 -->
<g id="Node000001" class="node">
<title>Node1</title>
<g id="a_Node000001"><a xlink:title=" ">
<polygon fill="#999999" stroke="#666666" points="102.25,-79.5 0,-79.5 0,-49 102.25,-49 102.25,-79.5"/>
<text text-anchor="start" x="8" y="-66" font-family="Helvetica,sans-Serif" font-size="10.00">AnimationGenerator</text>
<text text-anchor="middle" x="51.12" y="-54.75" font-family="Helvetica,sans-Serif" font-size="10.00">::generateAnimation</text>
</a>
</g>
</g>
<!-- Node2 -->
<g id="Node000002" class="node">
<title>Node2</title>
<g id="a_Node000002"><a xlink:href="../../dc/ddb/struct_system.html#ad5581178d3fe12a658fe8af70c4e4a9c" target="_top" xlink:title="generate unique file name">
<polygon fill="white" stroke="#666666" points="278,-116.88 138.25,-116.88 138.25,-97.62 278,-97.62 278,-116.88"/>
<text text-anchor="middle" x="208.12" y="-103.38" font-family="Helvetica,sans-Serif" font-size="10.00">System::getUniqueFileName</text>
</a>
</g>
</g>
<!-- Node1&#45;&gt;Node2 -->
<g id="edge1_Node000001_Node000002" class="edge">
<title>Node1&#45;&gt;Node2</title>
<g id="a_edge1_Node000001_Node000002"><a xlink:title=" ">
<path fill="none" stroke="#63b8ff" d="M102.67,-78.36C114.35,-81.61 126.73,-85.06 138.25,-88.25 145.15,-90.16 152.45,-92.18 159.6,-94.16"/>
<polygon fill="#63b8ff" stroke="#63b8ff" points="158.63,-97.52 169.2,-96.81 160.49,-90.77 158.63,-97.52"/>
</a>
</g>
</g>
<!-- Node3 -->
<g id="Node000003" class="node">
<title>Node3</title>
<g id="a_Node000003"><a xlink:href="../../dc/dc9/class_generator_utils_1_1_breakable_task.html#a942a17c818a3d5f88dd2428d8b82d611" target="_top" xlink:title=" ">
<polygon fill="white" stroke="#666666" points="271.62,-79.5 144.62,-79.5 144.62,-49 271.62,-49 271.62,-79.5"/>
<text text-anchor="start" x="152.62" y="-66" font-family="Helvetica,sans-Serif" font-size="10.00">GeneratorUtils::Breakable</text>
<text text-anchor="middle" x="208.12" y="-54.75" font-family="Helvetica,sans-Serif" font-size="10.00">Task::operation</text>
</a>
</g>
</g>
<!-- Node1&#45;&gt;Node3 -->
<g id="edge2_Node000001_Node000003" class="edge">
<title>Node1&#45;&gt;Node3</title>
<g id="a_edge2_Node000001_Node000003"><a xlink:title=" ">
<path fill="none" stroke="#63b8ff" d="M102.45,-64.25C112.25,-64.25 122.72,-64.25 133.1,-64.25"/>
<polygon fill="#63b8ff" stroke="#63b8ff" points="132.79,-67.75 142.79,-64.25 132.79,-60.75 132.79,-67.75"/>
</a>
</g>
</g>
<!-- Node4 -->
<g id="Node000004" class="node">
<title>Node4</title>
<g id="a_Node000004"><a xlink:href="../../dc/dc9/class_generator_utils_1_1_breakable_task.html#a9ff152425e4a7563a10b24f2c37de1a8" target="_top" xlink:title=" ">
<polygon fill="white" stroke="#666666" points="271.62,-30.5 144.62,-30.5 144.62,0 271.62,0 271.62,-30.5"/>
<text text-anchor="start" x="152.62" y="-17" font-family="Helvetica,sans-Serif" font-size="10.00">GeneratorUtils::Breakable</text>
<text text-anchor="middle" x="208.12" y="-5.75" font-family="Helvetica,sans-Serif" font-size="10.00">Task::progress</text>
</a>
</g>
</g>
<!-- Node1&#45;&gt;Node4 -->
<g id="edge3_Node000001_Node000004" class="edge">
<title>Node1&#45;&gt;Node4</title>
<g id="a_edge3_Node000001_Node000004"><a xlink:title=" ">
<path fill="none" stroke="#63b8ff" d="M101.59,-48.61C115.92,-44.08 131.73,-39.08 146.65,-34.37"/>
<polygon fill="#63b8ff" stroke="#63b8ff" points="147.41,-37.8 155.89,-31.45 145.3,-31.13 147.41,-37.8"/>
</a>
</g>
</g>
</g>
</svg>
