<?xml version="1.0" encoding="UTF-8" standalone="no"?>
<!DOCTYPE svg PUBLIC "-//W3C//DTD SVG 1.1//EN"
 "http://www.w3.org/Graphics/SVG/1.1/DTD/svg11.dtd">
<!-- Generated by graphviz version 12.2.0 (20241103.1931)
 -->
<!-- Title: GeneratorUtils::BreakableTask::preparePhotos Pages: 1 -->
<svg width="291pt" height="64pt"
 viewBox="0.00 0.00 291.25 64.25" xmlns="http://www.w3.org/2000/svg" xmlns:xlink="http://www.w3.org/1999/xlink">
<g id="graph0" class="graph" transform="scale(1 1) rotate(0) translate(4 60.25)">
<title>GeneratorUtils::BreakableTask::preparePhotos</title>
<!-- Node1 -->
<g id="Node000001" class="node">
<title>Node1</title>
<g id="a_Node000001"><a xlink:title=" ">
<polygon fill="#999999" stroke="#666666" points="283.25,-42.88 156.25,-42.88 156.25,-12.37 283.25,-12.37 283.25,-42.88"/>
<text text-anchor="start" x="164.25" y="-29.38" font-family="Helvetica,sans-Serif" font-size="10.00">GeneratorUtils::Breakable</text>
<text text-anchor="middle" x="219.75" y="-18.12" font-family="Helvetica,sans-Serif" font-size="10.00">Task::preparePhotos</text>
</a>
</g>
</g>
<!-- Node2 -->
<g id="Node000002" class="node">
<title>Node2</title>
<g id="a_Node000002"><a xlink:href="../../d6/d1f/class_animation_generator.html#a4e178172e1714a2e201deb2076085ba3" target="_top" xlink:title=" ">
<polygon fill="white" stroke="#666666" points="120.25,-56.25 0,-56.25 0,-37 120.25,-37 120.25,-56.25"/>
<text text-anchor="middle" x="60.12" y="-42.75" font-family="Helvetica,sans-Serif" font-size="10.00">AnimationGenerator::run</text>
</a>
</g>
</g>
<!-- Node1&#45;&gt;Node2 -->
<g id="edge1_Node000001_Node000002" class="edge">
<title>Node1&#45;&gt;Node2</title>
<g id="a_edge1_Node000001_Node000002"><a xlink:title=" ">
<path fill="none" stroke="#63b8ff" d="M144.66,-36.56C136.59,-37.53 128.45,-38.51 120.58,-39.46"/>
<polygon fill="#63b8ff" stroke="#63b8ff" points="144.99,-40.04 154.5,-35.37 144.15,-33.09 144.99,-40.04"/>
</a>
</g>
</g>
<!-- Node3 -->
<g id="Node000003" class="node">
<title>Node3</title>
<g id="a_Node000003"><a xlink:href="../../de/def/class_h_d_r_generator.html#a9e42f118789e311753bf6e3d4ce66682" target="_top" xlink:title=" ">
<polygon fill="white" stroke="#666666" points="109,-19.25 11.25,-19.25 11.25,0 109,0 109,-19.25"/>
<text text-anchor="middle" x="60.12" y="-5.75" font-family="Helvetica,sans-Serif" font-size="10.00">HDRGenerator::run</text>
</a>
</g>
</g>
<!-- Node1&#45;&gt;Node3 -->
<g id="edge2_Node000001_Node000003" class="edge">
<title>Node1&#45;&gt;Node3</title>
<g id="a_edge2_Node000001_Node000003"><a xlink:title=" ">
<path fill="none" stroke="#63b8ff" d="M144.9,-19.19C132.73,-17.8 120.4,-16.39 109.08,-15.1"/>
<polygon fill="#63b8ff" stroke="#63b8ff" points="144.16,-22.63 154.5,-20.29 144.96,-15.68 144.16,-22.63"/>
</a>
</g>
</g>
</g>
</svg>
