<?xml version="1.0" encoding="UTF-8" standalone="no"?>
<!DOCTYPE svg PUBLIC "-//W3C//DTD SVG 1.1//EN"
 "http://www.w3.org/Graphics/SVG/1.1/DTD/svg11.dtd">
<!-- Generated by graphviz version 7.0.5 (20221223.1930)
 -->
<!-- Title: GeneratorUtils::BreakableTask::preparePhotos Pages: 1 -->
<svg width="288pt" height="101pt"
 viewBox="0.00 0.00 288.00 101.00" xmlns="http://www.w3.org/2000/svg" xmlns:xlink="http://www.w3.org/1999/xlink">
<g id="graph0" class="graph" transform="scale(1 1) rotate(0) translate(4 97)">
<title>GeneratorUtils::BreakableTask::preparePhotos</title>
<!-- Node1 -->
<g id="node1" class="node">
<title>Node1</title>
<g id="a_node1"><a xlink:title=" ">
<polygon fill="#999999" stroke="#666666" points="128,-61.5 0,-61.5 0,-31.5 128,-31.5 128,-61.5"/>
<text text-anchor="start" x="8" y="-49.5" font-family="Helvetica,sans-Serif" font-size="10.00">GeneratorUtils::Breakable</text>
<text text-anchor="middle" x="64" y="-38.5" font-family="Helvetica,sans-Serif" font-size="10.00">Task::preparePhotos</text>
</a>
</g>
</g>
<!-- Node2 -->
<g id="node2" class="node">
<title>Node2</title>
<g id="a_node2"><a xlink:href="../../d5/db6/class_oriented_image.html#a1b407afa9fabdcd03a5964a54ccfa6b5" target="_top" xlink:title=" ">
<polygon fill="white" stroke="#666666" points="271,-93 173,-93 173,-74 271,-74 271,-93"/>
<text text-anchor="middle" x="222" y="-81" font-family="Helvetica,sans-Serif" font-size="10.00">OrientedImage::get</text>
</a>
</g>
</g>
<!-- Node1&#45;&gt;Node2 -->
<g id="edge1" class="edge">
<title>Node1&#45;&gt;Node2</title>
<path fill="none" stroke="#63b8ff" d="M128.45,-61.55C141.63,-64.68 155.38,-67.94 168.13,-70.96"/>
<polygon fill="#63b8ff" stroke="#63b8ff" points="167.03,-74.3 177.57,-73.2 168.65,-67.49 167.03,-74.3"/>
</g>
<!-- Node3 -->
<g id="node3" class="node">
<title>Node3</title>
<g id="a_node3"><a xlink:href="../../db/d10/struct_i_exif_reader_factory.html#a6f4cc75439d6811b6a1d16adde249c48" target="_top" xlink:title=" ">
<polygon fill="white" stroke="#666666" points="280,-56 164,-56 164,-37 280,-37 280,-56"/>
<text text-anchor="middle" x="222" y="-44" font-family="Helvetica,sans-Serif" font-size="10.00">IExifReaderFactory::get</text>
</a>
</g>
</g>
<!-- Node1&#45;&gt;Node3 -->
<g id="edge2" class="edge">
<title>Node1&#45;&gt;Node3</title>
<path fill="none" stroke="#63b8ff" d="M128.45,-46.5C136.27,-46.5 144.3,-46.5 152.19,-46.5"/>
<polygon fill="#63b8ff" stroke="#63b8ff" points="152.12,-50 162.12,-46.5 152.12,-43 152.12,-50"/>
</g>
<!-- Node4 -->
<g id="node4" class="node">
<title>Node4</title>
<g id="a_node4"><a xlink:href="../../d5/dab/namespace_image.html#ac3d1e76edb2d4aedafbee5c8745fcdee" target="_top" xlink:title=" ">
<polygon fill="white" stroke="#666666" points="269.5,-19 174.5,-19 174.5,0 269.5,0 269.5,-19"/>
<text text-anchor="middle" x="222" y="-7" font-family="Helvetica,sans-Serif" font-size="10.00">Image::normalized</text>
</a>
</g>
</g>
<!-- Node1&#45;&gt;Node4 -->
<g id="edge3" class="edge">
<title>Node1&#45;&gt;Node4</title>
<path fill="none" stroke="#63b8ff" d="M128.45,-31.45C141.63,-28.32 155.38,-25.06 168.13,-22.04"/>
<polygon fill="#63b8ff" stroke="#63b8ff" points="168.65,-25.51 177.57,-19.8 167.03,-18.7 168.65,-25.51"/>
</g>
</g>
</svg>
