<?xml version="1.0" encoding="UTF-8" standalone="no"?>
<!DOCTYPE svg PUBLIC "-//W3C//DTD SVG 1.1//EN"
 "http://www.w3.org/Graphics/SVG/1.1/DTD/svg11.dtd">
<!-- Generated by graphviz version 12.2.0 (20241103.1931)
 -->
<!-- Title: GeneratorUtils::BreakableTask::preparePhotos Pages: 1 -->
<svg width="298pt" height="248pt"
 viewBox="0.00 0.00 298.00 247.88" xmlns="http://www.w3.org/2000/svg" xmlns:xlink="http://www.w3.org/1999/xlink">
<g id="graph0" class="graph" transform="scale(1 1) rotate(0) translate(4 243.88)">
<title>GeneratorUtils::BreakableTask::preparePhotos</title>
<!-- Node1 -->
<g id="Node000001" class="node">
<title>Node1</title>
<g id="a_Node000001"><a xlink:title=" ">
<polygon fill="#999999" stroke="#666666" points="127,-149.5 0,-149.5 0,-119 127,-119 127,-149.5"/>
<text text-anchor="start" x="8" y="-136" font-family="Helvetica,sans-Serif" font-size="10.00">GeneratorUtils::Breakable</text>
<text text-anchor="middle" x="63.5" y="-124.75" font-family="Helvetica,sans-Serif" font-size="10.00">Task::preparePhotos</text>
</a>
</g>
</g>
<!-- Node2 -->
<g id="Node000002" class="node">
<title>Node2</title>
<g id="a_Node000002"><a xlink:href="../../db/d10/struct_i_exif_reader_factory.html#a6f4cc75439d6811b6a1d16adde249c48" target="_top" xlink:title=" ">
<polygon fill="white" stroke="#666666" points="284.38,-239.88 168.62,-239.88 168.62,-220.62 284.38,-220.62 284.38,-239.88"/>
<text text-anchor="middle" x="226.5" y="-226.38" font-family="Helvetica,sans-Serif" font-size="10.00">IExifReaderFactory::get</text>
</a>
</g>
</g>
<!-- Node1&#45;&gt;Node2 -->
<g id="edge1_Node000001_Node000002" class="edge">
<title>Node1&#45;&gt;Node2</title>
<g id="a_edge1_Node000001_Node000002"><a xlink:title=" ">
<path fill="none" stroke="#63b8ff" d="M80.19,-149.94C98.56,-167.47 130.61,-195.59 163,-212.25 165.73,-213.65 168.58,-214.96 171.51,-216.18"/>
<polygon fill="#63b8ff" stroke="#63b8ff" points="170.27,-219.46 180.87,-219.67 172.72,-212.9 170.27,-219.46"/>
</a>
</g>
</g>
<!-- Node3 -->
<g id="Node000003" class="node">
<title>Node3</title>
<g id="a_Node000003"><a xlink:href="../../d5/db6/class_oriented_image.html#a1b407afa9fabdcd03a5964a54ccfa6b5" target="_top" xlink:title=" ">
<polygon fill="white" stroke="#666666" points="275.38,-202.88 177.62,-202.88 177.62,-183.62 275.38,-183.62 275.38,-202.88"/>
<text text-anchor="middle" x="226.5" y="-189.38" font-family="Helvetica,sans-Serif" font-size="10.00">OrientedImage::get</text>
</a>
</g>
</g>
<!-- Node1&#45;&gt;Node3 -->
<g id="edge2_Node000001_Node000003" class="edge">
<title>Node1&#45;&gt;Node3</title>
<g id="a_edge2_Node000001_Node000003"><a xlink:title=" ">
<path fill="none" stroke="#63b8ff" d="M99.23,-149.84C117.92,-157.95 141.5,-167.71 163,-175.25 167.5,-176.83 172.21,-178.37 176.94,-179.86"/>
<polygon fill="#63b8ff" stroke="#63b8ff" points="175.9,-183.2 186.49,-182.75 177.93,-176.5 175.9,-183.2"/>
</a>
</g>
</g>
<!-- Node4 -->
<g id="Node000004" class="node">
<title>Node4</title>
<g id="a_Node000004"><a xlink:href="../../d5/dab/namespace_image.html#ac3d1e76edb2d4aedafbee5c8745fcdee" target="_top" xlink:title=" ">
<polygon fill="white" stroke="#666666" points="273.5,-165.88 179.5,-165.88 179.5,-146.62 273.5,-146.62 273.5,-165.88"/>
<text text-anchor="middle" x="226.5" y="-152.38" font-family="Helvetica,sans-Serif" font-size="10.00">Image::normalized</text>
</a>
</g>
</g>
<!-- Node1&#45;&gt;Node4 -->
<g id="edge3_Node000001_Node000004" class="edge">
<title>Node1&#45;&gt;Node4</title>
<g id="a_edge3_Node000001_Node000004"><a xlink:title=" ">
<path fill="none" stroke="#63b8ff" d="M127.21,-142.82C140.59,-144.65 154.67,-146.57 167.85,-148.37"/>
<polygon fill="#63b8ff" stroke="#63b8ff" points="167.29,-151.83 177.67,-149.71 168.23,-144.89 167.29,-151.83"/>
</a>
</g>
</g>
<!-- Node5 -->
<g id="Node000005" class="node">
<title>Node5</title>
<g id="a_Node000005"><a xlink:href="../../dc/dc9/class_generator_utils_1_1_breakable_task.html#a942a17c818a3d5f88dd2428d8b82d611" target="_top" xlink:title=" ">
<polygon fill="white" stroke="#666666" points="290,-128.5 163,-128.5 163,-98 290,-98 290,-128.5"/>
<text text-anchor="start" x="171" y="-115" font-family="Helvetica,sans-Serif" font-size="10.00">GeneratorUtils::Breakable</text>
<text text-anchor="middle" x="226.5" y="-103.75" font-family="Helvetica,sans-Serif" font-size="10.00">Task::operation</text>
</a>
</g>
</g>
<!-- Node1&#45;&gt;Node5 -->
<g id="edge4_Node000001_Node000005" class="edge">
<title>Node1&#45;&gt;Node5</title>
<g id="a_edge4_Node000001_Node000005"><a xlink:title=" ">
<path fill="none" stroke="#63b8ff" d="M127.21,-126.07C135.13,-125.04 143.29,-123.97 151.37,-122.92"/>
<polygon fill="#63b8ff" stroke="#63b8ff" points="151.73,-126.4 161.2,-121.64 150.83,-119.46 151.73,-126.4"/>
</a>
</g>
</g>
<!-- Node6 -->
<g id="Node000006" class="node">
<title>Node6</title>
<g id="a_Node000006"><a xlink:href="../../dc/dc9/class_generator_utils_1_1_breakable_task.html#a9ff152425e4a7563a10b24f2c37de1a8" target="_top" xlink:title=" ">
<polygon fill="white" stroke="#666666" points="290,-79.5 163,-79.5 163,-49 290,-49 290,-79.5"/>
<text text-anchor="start" x="171" y="-66" font-family="Helvetica,sans-Serif" font-size="10.00">GeneratorUtils::Breakable</text>
<text text-anchor="middle" x="226.5" y="-54.75" font-family="Helvetica,sans-Serif" font-size="10.00">Task::progress</text>
</a>
</g>
</g>
<!-- Node1&#45;&gt;Node6 -->
<g id="edge5_Node000001_Node000006" class="edge">
<title>Node1&#45;&gt;Node6</title>
<g id="a_edge5_Node000001_Node000006"><a xlink:title=" ">
<path fill="none" stroke="#63b8ff" d="M97.61,-118.65C116.64,-109.8 141.05,-98.65 163,-89.25 166.82,-87.61 170.79,-85.95 174.79,-84.29"/>
<polygon fill="#63b8ff" stroke="#63b8ff" points="176.04,-87.57 183.97,-80.54 173.39,-81.09 176.04,-87.57"/>
</a>
</g>
</g>
<!-- Node7 -->
<g id="Node000007" class="node">
<title>Node7</title>
<g id="a_Node000007"><a xlink:href="../../dc/dc9/class_generator_utils_1_1_breakable_task.html#a1ee903cd64deb4d6d26867a72d8ca8f9" target="_top" xlink:title=" ">
<polygon fill="white" stroke="#666666" points="290,-30.5 163,-30.5 163,0 290,0 290,-30.5"/>
<text text-anchor="start" x="171" y="-17" font-family="Helvetica,sans-Serif" font-size="10.00">GeneratorUtils::Breakable</text>
<text text-anchor="middle" x="226.5" y="-5.75" font-family="Helvetica,sans-Serif" font-size="10.00">Task::tmpDirPath</text>
</a>
</g>
</g>
<!-- Node1&#45;&gt;Node7 -->
<g id="edge6_Node000001_Node000007" class="edge">
<title>Node1&#45;&gt;Node7</title>
<g id="a_edge6_Node000001_Node000007"><a xlink:title=" ">
<path fill="none" stroke="#63b8ff" d="M77.39,-118.69C94.95,-98.33 128.2,-62.62 163,-40.25 165.37,-38.73 167.84,-37.27 170.38,-35.88"/>
<polygon fill="#63b8ff" stroke="#63b8ff" points="171.69,-39.14 179.06,-31.53 168.55,-32.88 171.69,-39.14"/>
</a>
</g>
</g>
</g>
</svg>
