<?xml version="1.0" encoding="UTF-8" standalone="no"?>
<!DOCTYPE svg PUBLIC "-//W3C//DTD SVG 1.1//EN"
 "http://www.w3.org/Graphics/SVG/1.1/DTD/svg11.dtd">
<!-- Generated by graphviz version 12.2.0 (20241103.1931)
 -->
<!-- Title: GeneratorUtils::BreakableTask::progress Pages: 1 -->
<svg width="454pt" height="260pt"
 viewBox="0.00 0.00 454.25 259.50" xmlns="http://www.w3.org/2000/svg" xmlns:xlink="http://www.w3.org/1999/xlink">
<g id="graph0" class="graph" transform="scale(1 1) rotate(0) translate(4 255.5)">
<title>GeneratorUtils::BreakableTask::progress</title>
<!-- Node1 -->
<g id="Node000001" class="node">
<title>Node1</title>
<g id="a_Node000001"><a xlink:title=" ">
<polygon fill="#999999" stroke="#666666" points="446.25,-143.5 319.25,-143.5 319.25,-113 446.25,-113 446.25,-143.5"/>
<text text-anchor="start" x="327.25" y="-130" font-family="Helvetica,sans-Serif" font-size="10.00">GeneratorUtils::Breakable</text>
<text text-anchor="middle" x="382.75" y="-118.75" font-family="Helvetica,sans-Serif" font-size="10.00">Task::progress</text>
</a>
</g>
</g>
<!-- Node2 -->
<g id="Node000002" class="node">
<title>Node2</title>
<g id="a_Node000002"><a xlink:href="../../d6/d1f/class_animation_generator.html#a322f031d4781fc24c3e669bd77c642b9" target="_top" xlink:title=" ">
<polygon fill="white" stroke="#666666" points="270.88,-251.5 168.62,-251.5 168.62,-221 270.88,-221 270.88,-251.5"/>
<text text-anchor="start" x="176.62" y="-238" font-family="Helvetica,sans-Serif" font-size="10.00">AnimationGenerator</text>
<text text-anchor="middle" x="219.75" y="-226.75" font-family="Helvetica,sans-Serif" font-size="10.00">::generateAnimation</text>
</a>
</g>
</g>
<!-- Node1&#45;&gt;Node2 -->
<g id="edge1_Node000001_Node000002" class="edge">
<title>Node1&#45;&gt;Node2</title>
<g id="a_edge1_Node000001_Node000002"><a xlink:title=" ">
<path fill="none" stroke="#63b8ff" d="M356.46,-151.38C337.29,-168.19 309.78,-190.79 283.25,-207.25 275.52,-212.04 266.88,-216.54 258.54,-220.51"/>
<polygon fill="#63b8ff" stroke="#63b8ff" points="358.63,-154.14 363.78,-144.88 353.98,-148.9 358.63,-154.14"/>
</a>
</g>
</g>
<!-- Node3 -->
<g id="Node000003" class="node">
<title>Node3</title>
<g id="a_Node000003"><a xlink:href="../../d6/d1f/class_animation_generator.html#a4e178172e1714a2e201deb2076085ba3" target="_top" xlink:title=" ">
<polygon fill="white" stroke="#666666" points="120.25,-202.88 0,-202.88 0,-183.62 120.25,-183.62 120.25,-202.88"/>
<text text-anchor="middle" x="60.12" y="-189.38" font-family="Helvetica,sans-Serif" font-size="10.00">AnimationGenerator::run</text>
</a>
</g>
</g>
<!-- Node1&#45;&gt;Node3 -->
<g id="edge6_Node000001_Node000003" class="edge">
<title>Node1&#45;&gt;Node3</title>
<g id="a_edge6_Node000001_Node000003"><a xlink:title=" ">
<path fill="none" stroke="#63b8ff" d="M345.05,-149.16C327,-158.45 304.59,-168.55 283.25,-174.25 229.41,-188.64 165.85,-192.85 120.55,-193.78"/>
<polygon fill="#63b8ff" stroke="#63b8ff" points="346.59,-152.3 353.79,-144.53 343.32,-146.12 346.59,-152.3"/>
</a>
</g>
</g>
<!-- Node4 -->
<g id="Node000004" class="node">
<title>Node4</title>
<g id="a_Node000004"><a xlink:href="../../dc/dc9/class_generator_utils_1_1_breakable_task.html#a32d1b87cb6dcd42a9d9a860d3fcae8f3" target="_top" xlink:title=" ">
<polygon fill="white" stroke="#666666" points="283.25,-165.5 156.25,-165.5 156.25,-135 283.25,-135 283.25,-165.5"/>
<text text-anchor="start" x="164.25" y="-152" font-family="Helvetica,sans-Serif" font-size="10.00">GeneratorUtils::Breakable</text>
<text text-anchor="middle" x="219.75" y="-140.75" font-family="Helvetica,sans-Serif" font-size="10.00">Task::preparePhotos</text>
</a>
</g>
</g>
<!-- Node1&#45;&gt;Node4 -->
<g id="edge3_Node000001_Node000004" class="edge">
<title>Node1&#45;&gt;Node4</title>
<g id="a_edge3_Node000001_Node000004"><a xlink:title=" ">
<path fill="none" stroke="#63b8ff" d="M307.72,-138.37C299.64,-139.47 291.47,-140.59 283.55,-141.67"/>
<polygon fill="#63b8ff" stroke="#63b8ff" points="308.11,-141.85 317.54,-137.02 307.16,-134.91 308.11,-141.85"/>
</a>
</g>
</g>
<!-- Node5 -->
<g id="Node000005" class="node">
<title>Node5</title>
<g id="a_Node000005"><a xlink:href="../../de/def/class_h_d_r_generator.html#a9e42f118789e311753bf6e3d4ce66682" target="_top" xlink:title=" ">
<polygon fill="white" stroke="#666666" points="109,-138.88 11.25,-138.88 11.25,-119.62 109,-119.62 109,-138.88"/>
<text text-anchor="middle" x="60.12" y="-125.38" font-family="Helvetica,sans-Serif" font-size="10.00">HDRGenerator::run</text>
</a>
</g>
</g>
<!-- Node1&#45;&gt;Node5 -->
<g id="edge7_Node000001_Node000005" class="edge">
<title>Node1&#45;&gt;Node5</title>
<g id="a_edge7_Node000001_Node000005"><a xlink:title=" ">
<path fill="none" stroke="#63b8ff" d="M307.47,-126.58C299.29,-126.44 291.1,-126.33 283.25,-126.25 226.81,-125.68 212.69,-125.36 156.25,-126.25 140.89,-126.49 124.13,-126.95 109.02,-127.44"/>
<polygon fill="#63b8ff" stroke="#63b8ff" points="307.39,-130.08 317.45,-126.76 307.51,-123.08 307.39,-130.08"/>
</a>
</g>
</g>
<!-- Node6 -->
<g id="Node000006" class="node">
<title>Node6</title>
<g id="a_Node000006"><a xlink:href="../../de/de4/namespace_generator_utils.html#adebf1af3c026b5fd867309f44e9b273c" target="_top" xlink:title=" ">
<polygon fill="#fff0f0" stroke="red" points="279.12,-79.5 160.38,-79.5 160.38,-49 279.12,-49 279.12,-79.5"/>
<text text-anchor="start" x="168.38" y="-66" font-family="Helvetica,sans-Serif" font-size="10.00">GeneratorUtils::stabilize</text>
<text text-anchor="middle" x="219.75" y="-54.75" font-family="Helvetica,sans-Serif" font-size="10.00">Images</text>
</a>
</g>
</g>
<!-- Node1&#45;&gt;Node6 -->
<g id="edge8_Node000001_Node000006" class="edge">
<title>Node1&#45;&gt;Node6</title>
<g id="a_edge8_Node000001_Node000006"><a xlink:title=" ">
<path fill="none" stroke="#63b8ff" d="M331.76,-108.38C308.76,-99.23 281.85,-88.54 260.29,-79.97"/>
<polygon fill="#63b8ff" stroke="#63b8ff" points="330.37,-111.59 340.96,-112.03 332.96,-105.09 330.37,-111.59"/>
</a>
</g>
</g>
<!-- Node8 -->
<g id="Node000008" class="node">
<title>Node8</title>
<g id="a_Node000008"><a xlink:href="../../d0/d4e/class_photos_grouping_dialog.html#ad0966fe1525c441947ec6b56b1213cdf" target="_top" xlink:title=" ">
<polygon fill="#fff0f0" stroke="red" points="276.12,-30.5 163.38,-30.5 163.38,0 276.12,0 276.12,-30.5"/>
<text text-anchor="start" x="171.38" y="-17" font-family="Helvetica,sans-Serif" font-size="10.00">PhotosGroupingDialog</text>
<text text-anchor="middle" x="219.75" y="-5.75" font-family="Helvetica,sans-Serif" font-size="10.00">::startTask</text>
</a>
</g>
</g>
<!-- Node1&#45;&gt;Node8 -->
<g id="edge9_Node000001_Node000008" class="edge">
<title>Node1&#45;&gt;Node8</title>
<g id="a_edge9_Node000001_Node000008"><a xlink:title=" ">
<path fill="none" stroke="#63b8ff" d="M359.79,-104.48C340.96,-85.16 312.32,-58.27 283.25,-40.25 277.69,-36.8 271.57,-33.67 265.4,-30.87"/>
<polygon fill="#63b8ff" stroke="#63b8ff" points="357.23,-106.86 366.68,-111.66 362.29,-102.02 357.23,-106.86"/>
</a>
</g>
</g>
<!-- Node2&#45;&gt;Node3 -->
<g id="edge2_Node000002_Node000003" class="edge">
<title>Node2&#45;&gt;Node3</title>
<g id="a_edge2_Node000002_Node000003"><a xlink:title=" ">
<path fill="none" stroke="#63b8ff" d="M157.48,-219.54C137.39,-214.05 115.69,-208.13 97.98,-203.3"/>
<polygon fill="#63b8ff" stroke="#63b8ff" points="156.41,-222.87 166.98,-222.13 158.26,-216.12 156.41,-222.87"/>
</a>
</g>
</g>
<!-- Node4&#45;&gt;Node3 -->
<g id="edge4_Node000004_Node000003" class="edge">
<title>Node4&#45;&gt;Node3</title>
<g id="a_edge4_Node000004_Node000003"><a xlink:title=" ">
<path fill="none" stroke="#63b8ff" d="M150.34,-168.91C132.38,-173.81 113.68,-178.91 98.07,-183.17"/>
<polygon fill="#63b8ff" stroke="#63b8ff" points="151.21,-172.3 159.94,-166.29 149.37,-165.55 151.21,-172.3"/>
</a>
</g>
</g>
<!-- Node4&#45;&gt;Node5 -->
<g id="edge5_Node000004_Node000005" class="edge">
<title>Node4&#45;&gt;Node5</title>
<g id="a_edge5_Node000004_Node000005"><a xlink:title=" ">
<path fill="none" stroke="#63b8ff" d="M144.9,-140.41C132.73,-138.79 120.4,-137.15 109.08,-135.64"/>
<polygon fill="#63b8ff" stroke="#63b8ff" points="144.12,-143.84 154.5,-141.69 145.05,-136.9 144.12,-143.84"/>
</a>
</g>
</g>
</g>
</svg>
