<?xml version="1.0" encoding="UTF-8" standalone="no"?>
<!DOCTYPE svg PUBLIC "-//W3C//DTD SVG 1.1//EN"
 "http://www.w3.org/Graphics/SVG/1.1/DTD/svg11.dtd">
<!-- Generated by graphviz version 7.0.5 (20221223.1930)
 -->
<!-- Title: GeneratorUtils::BreakableTask::finished Pages: 1 -->
<svg width="442pt" height="138pt"
 viewBox="0.00 0.00 442.00 137.93" xmlns="http://www.w3.org/2000/svg" xmlns:xlink="http://www.w3.org/1999/xlink">
<g id="graph0" class="graph" transform="scale(1 1) rotate(0) translate(4 133.93)">
<title>GeneratorUtils::BreakableTask::finished</title>
<!-- Node1 -->
<g id="node1" class="node">
<title>Node1</title>
<g id="a_node1"><a xlink:title=" ">
<polygon fill="#999999" stroke="#666666" points="434,-99 306,-99 306,-69 434,-69 434,-99"/>
<text text-anchor="start" x="314" y="-87" font-family="Helvetica,sans-Serif" font-size="10.00">GeneratorUtils::Breakable</text>
<text text-anchor="middle" x="370" y="-76" font-family="Helvetica,sans-Serif" font-size="10.00">Task::finished</text>
</a>
</g>
</g>
<!-- Node2 -->
<g id="node2" class="node">
<title>Node2</title>
<g id="a_node2"><a xlink:href="../../d6/d1f/class_animation_generator.html#a4e178172e1714a2e201deb2076085ba3" target="_top" xlink:title=" ">
<polygon fill="white" stroke="#666666" points="121,-112.5 0,-112.5 0,-93.5 121,-93.5 121,-112.5"/>
<text text-anchor="middle" x="60.5" y="-100.5" font-family="Helvetica,sans-Serif" font-size="10.00">AnimationGenerator::run</text>
</a>
</g>
</g>
<!-- Node1&#45;&gt;Node2 -->
<g id="edge1" class="edge">
<title>Node1&#45;&gt;Node2</title>
<path fill="none" stroke="#63b8ff" d="M330.21,-104.21C312.38,-112.41 290.65,-120.89 270,-125 209.49,-137.03 137.7,-123.49 96.1,-112.96"/>
<polygon fill="#63b8ff" stroke="#63b8ff" points="331.6,-107.43 339.12,-99.98 328.59,-101.11 331.6,-107.43"/>
</g>
<!-- Node3 -->
<g id="node3" class="node">
<title>Node3</title>
<g id="a_node3"><a xlink:href="../../de/def/class_h_d_r_generator.html#a9e42f118789e311753bf6e3d4ce66682" target="_top" xlink:title=" ">
<polygon fill="white" stroke="#666666" points="262.5,-115.5 164.5,-115.5 164.5,-96.5 262.5,-96.5 262.5,-115.5"/>
<text text-anchor="middle" x="213.5" y="-103.5" font-family="Helvetica,sans-Serif" font-size="10.00">HDRGenerator::run</text>
</a>
</g>
</g>
<!-- Node1&#45;&gt;Node3 -->
<g id="edge2" class="edge">
<title>Node1&#45;&gt;Node3</title>
<path fill="none" stroke="#63b8ff" d="M294.53,-94.6C283.74,-96.14 272.88,-97.69 262.79,-99.12"/>
<polygon fill="#63b8ff" stroke="#63b8ff" points="294.81,-98.1 304.21,-93.23 293.82,-91.17 294.81,-98.1"/>
</g>
<!-- Node4 -->
<g id="node4" class="node">
<title>Node4</title>
<g id="a_node4"><a xlink:href="../../d6/d1f/class_animation_generator.html#a3d975f14d70a629b7ac06db1b63d4a45" target="_top" xlink:title=" ">
<polygon fill="white" stroke="#666666" points="265,-78 162,-78 162,-48 265,-48 265,-78"/>
<text text-anchor="start" x="170" y="-66" font-family="Helvetica,sans-Serif" font-size="10.00">AnimationGenerator</text>
<text text-anchor="middle" x="213.5" y="-55" font-family="Helvetica,sans-Serif" font-size="10.00">::stabilize</text>
</a>
</g>
</g>
<!-- Node1&#45;&gt;Node4 -->
<g id="edge3" class="edge">
<title>Node1&#45;&gt;Node4</title>
<path fill="none" stroke="#63b8ff" d="M294.54,-73.88C284.59,-72.53 274.58,-71.17 265.17,-69.89"/>
<polygon fill="#63b8ff" stroke="#63b8ff" points="293.83,-77.32 304.21,-75.19 294.78,-70.38 293.83,-77.32"/>
</g>
<!-- Node5 -->
<g id="node5" class="node">
<title>Node5</title>
<g id="a_node5"><a xlink:href="../../d0/d4e/class_photos_grouping_dialog.html#ad0966fe1525c441947ec6b56b1213cdf" target="_top" xlink:title=" ">
<polygon fill="#fff0f0" stroke="red" points="270,-30 157,-30 157,0 270,0 270,-30"/>
<text text-anchor="start" x="165" y="-18" font-family="Helvetica,sans-Serif" font-size="10.00">PhotosGroupingDialog</text>
<text text-anchor="middle" x="213.5" y="-7" font-family="Helvetica,sans-Serif" font-size="10.00">::startTask</text>
</a>
</g>
</g>
<!-- Node1&#45;&gt;Node5 -->
<g id="edge5" class="edge">
<title>Node1&#45;&gt;Node5</title>
<path fill="none" stroke="#63b8ff" d="M325.3,-63.93C308.1,-56.08 288.15,-47.05 270,-39 263.67,-36.19 256.91,-33.24 250.37,-30.4"/>
<polygon fill="#63b8ff" stroke="#63b8ff" points="323.69,-67.04 334.24,-68.01 326.6,-60.67 323.69,-67.04"/>
</g>
<!-- Node4&#45;&gt;Node2 -->
<g id="edge4" class="edge">
<title>Node4&#45;&gt;Node2</title>
<path fill="none" stroke="#63b8ff" d="M150.99,-79.29C133.35,-83.97 114.65,-88.92 98.93,-93.08"/>
<polygon fill="#63b8ff" stroke="#63b8ff" points="151.57,-82.76 160.34,-76.82 149.77,-76 151.57,-82.76"/>
</g>
</g>
</svg>
