<?xml version="1.0" encoding="UTF-8" standalone="no"?>
<!DOCTYPE svg PUBLIC "-//W3C//DTD SVG 1.1//EN"
 "http://www.w3.org/Graphics/SVG/1.1/DTD/svg11.dtd">
<!-- Generated by graphviz version 9.0.0 (20230911.1827)
 -->
<!-- Title: src/gui/desktop/ui/mainwindow.cpp Pages: 1 -->
<svg width="4604pt" height="227pt"
 viewBox="0.00 0.00 4603.75 226.75" xmlns="http://www.w3.org/2000/svg" xmlns:xlink="http://www.w3.org/1999/xlink">
<g id="graph0" class="graph" transform="scale(1 1) rotate(0) translate(4 222.75)">
<title>src/gui/desktop/ui/mainwindow.cpp</title>
<!-- Node1 -->
<g id="Node000001" class="node">
<title>Node1</title>
<g id="a_Node000001"><a xlink:title=" ">
<polygon fill="#999999" stroke="#666666" points="1955.62,-218.75 1862.38,-218.75 1862.38,-188.25 1955.62,-188.25 1955.62,-218.75"/>
<text text-anchor="start" x="1870.38" y="-205.25" font-family="Helvetica,sans-Serif" font-size="10.00">src/gui/desktop/ui</text>
<text text-anchor="middle" x="1909" y="-194" font-family="Helvetica,sans-Serif" font-size="10.00">/mainwindow.cpp</text>
</a>
</g>
</g>
<!-- Node2 -->
<g id="Node000002" class="node">
<title>Node2</title>
<g id="a_Node000002"><a xlink:href="../../df/d50/mainwindow_8hpp.html" target="_top" xlink:title=" ">
<polygon fill="#fff0f0" stroke="red" points="217,-146.62 129,-146.62 129,-127.38 217,-127.38 217,-146.62"/>
<text text-anchor="middle" x="173" y="-133.12" font-family="Helvetica,sans-Serif" font-size="10.00">mainwindow.hpp</text>
</a>
</g>
</g>
<!-- Node1&#45;&gt;Node2 -->
<g id="edge1_Node000001_Node000002" class="edge">
<title>Node1&#45;&gt;Node2</title>
<g id="a_edge1_Node000001_Node000002"><a xlink:title=" ">
<path fill="none" stroke="#63b8ff" d="M1861.9,-202.43C1624.62,-201.88 558.77,-196.91 231,-152.25 226.01,-151.57 220.83,-150.64 215.7,-149.57"/>
<polygon fill="#63b8ff" stroke="#63b8ff" points="216.68,-146.2 206.15,-147.4 215.13,-153.03 216.68,-146.2"/>
</a>
</g>
</g>
<!-- Node5 -->
<g id="Node000005" class="node">
<title>Node5</title>
<g id="a_Node000005"><a xlink:href="../../db/dc1/ifeatures__manager_8hpp.html" target="_top" xlink:title=" ">
<polygon fill="#fff0f0" stroke="red" points="136,-80.12 0,-80.12 0,-60.88 136,-60.88 136,-80.12"/>
<text text-anchor="middle" x="68" y="-66.62" font-family="Helvetica,sans-Serif" font-size="10.00">core/ifeatures_manager.hpp</text>
</a>
</g>
</g>
<!-- Node1&#45;&gt;Node5 -->
<g id="edge15_Node000001_Node000005" class="edge">
<title>Node1&#45;&gt;Node5</title>
<g id="a_edge15_Node000001_Node000005"><a xlink:title=" ">
<path fill="none" stroke="#63b8ff" d="M1862.05,-202.41C1587.39,-201.75 198.03,-196.24 120,-152.25 96.66,-139.09 82.14,-110.65 74.56,-91.28"/>
<polygon fill="#63b8ff" stroke="#63b8ff" points="77.91,-90.27 71.23,-82.04 71.32,-92.64 77.91,-90.27"/>
</a>
</g>
</g>
<!-- Node9 -->
<g id="Node000009" class="node">
<title>Node9</title>
<g id="a_Node000009"><a xlink:href="../../d7/d2b/idatabase_8hpp.html" target="_top" xlink:title=" ">
<polygon fill="#fff0f0" stroke="red" points="634.38,-80.12 515.62,-80.12 515.62,-60.88 634.38,-60.88 634.38,-80.12"/>
<text text-anchor="middle" x="575" y="-66.62" font-family="Helvetica,sans-Serif" font-size="10.00">database/idatabase.hpp</text>
</a>
</g>
</g>
<!-- Node1&#45;&gt;Node9 -->
<g id="edge24_Node000001_Node000009" class="edge">
<title>Node1&#45;&gt;Node9</title>
<g id="a_edge24_Node000001_Node000009"><a xlink:title=" ">
<path fill="none" stroke="#63b8ff" d="M1862.18,-202.3C1652.01,-201.14 801.12,-193.92 690,-152.25 669.72,-144.65 669.53,-134.46 652,-121.75 634.72,-109.22 614.48,-96.07 599.1,-86.37"/>
<polygon fill="#63b8ff" stroke="#63b8ff" points="601.38,-83.67 591.05,-81.33 597.67,-89.6 601.38,-83.67"/>
</a>
</g>
</g>
<!-- Node11 -->
<g id="Node000011" class="node">
<title>Node11</title>
<g id="a_Node000011"><a xlink:title=" ">
<polygon fill="#e0e0e0" stroke="#999999" points="323,-19.25 265,-19.25 265,0 323,0 323,-19.25"/>
<text text-anchor="middle" x="294" y="-5.75" font-family="Helvetica,sans-Serif" font-size="10.00">functional</text>
</a>
</g>
</g>
<!-- Node1&#45;&gt;Node11 -->
<g id="edge5_Node000001_Node000011" class="edge">
<title>Node1&#45;&gt;Node11</title>
<g id="a_edge5_Node000001_Node000011"><a xlink:title=" ">
<path fill="none" stroke="#63b8ff" d="M1862.05,-202.58C1606.4,-202.83 391.2,-201.42 330,-152.25 293.5,-122.92 290.92,-62.27 292.32,-30.7"/>
<polygon fill="#63b8ff" stroke="#63b8ff" points="295.79,-31.18 292.95,-20.98 288.81,-30.73 295.79,-31.18"/>
</a>
</g>
</g>
<!-- Node86 -->
<g id="Node000086" class="node">
<title>Node86</title>
<g id="a_Node000086"><a xlink:title=" ">
<polygon fill="#e0e0e0" stroke="#999999" points="1495.62,-146.62 1450.38,-146.62 1450.38,-127.38 1495.62,-127.38 1495.62,-146.62"/>
<text text-anchor="middle" x="1473" y="-133.12" font-family="Helvetica,sans-Serif" font-size="10.00">ranges</text>
</a>
</g>
</g>
<!-- Node1&#45;&gt;Node86 -->
<g id="edge6_Node000001_Node000086" class="edge">
<title>Node1&#45;&gt;Node86</title>
<g id="a_edge6_Node000001_Node000086"><a xlink:title=" ">
<path fill="none" stroke="#63b8ff" d="M1862.08,-201.14C1785.86,-197.93 1630.97,-187.3 1505,-152.25 1503.83,-151.92 1502.64,-151.56 1501.46,-151.17"/>
<polygon fill="#63b8ff" stroke="#63b8ff" points="1502.93,-147.99 1492.34,-147.64 1500.4,-154.52 1502.93,-147.99"/>
</a>
</g>
</g>
<!-- Node87 -->
<g id="Node000087" class="node">
<title>Node87</title>
<g id="a_Node000087"><a xlink:title=" ">
<polygon fill="#e0e0e0" stroke="#999999" points="1580.12,-146.62 1513.88,-146.62 1513.88,-127.38 1580.12,-127.38 1580.12,-146.62"/>
<text text-anchor="middle" x="1547" y="-133.12" font-family="Helvetica,sans-Serif" font-size="10.00">QFileDialog</text>
</a>
</g>
</g>
<!-- Node1&#45;&gt;Node87 -->
<g id="edge7_Node000001_Node000087" class="edge">
<title>Node1&#45;&gt;Node87</title>
<g id="a_edge7_Node000001_Node000087"><a xlink:title=" ">
<path fill="none" stroke="#63b8ff" d="M1862.13,-197.69C1799.33,-190.66 1684.7,-175.81 1589,-152.25 1586.72,-151.69 1584.39,-151.06 1582.05,-150.39"/>
<polygon fill="#63b8ff" stroke="#63b8ff" points="1583.25,-147.09 1572.67,-147.46 1581.17,-153.78 1583.25,-147.09"/>
</a>
</g>
</g>
<!-- Node88 -->
<g id="Node000088" class="node">
<title>Node88</title>
<g id="a_Node000088"><a xlink:title=" ">
<polygon fill="#e0e0e0" stroke="#999999" points="1677.88,-146.62 1598.12,-146.62 1598.12,-127.38 1677.88,-127.38 1677.88,-146.62"/>
<text text-anchor="middle" x="1638" y="-133.12" font-family="Helvetica,sans-Serif" font-size="10.00">QMessageBox</text>
</a>
</g>
</g>
<!-- Node1&#45;&gt;Node88 -->
<g id="edge8_Node000001_Node000088" class="edge">
<title>Node1&#45;&gt;Node88</title>
<g id="a_edge8_Node000001_Node000088"><a xlink:title=" ">
<path fill="none" stroke="#63b8ff" d="M1862.03,-192.73C1816.96,-183.15 1747.07,-167.77 1687,-152.25 1684.43,-151.59 1681.79,-150.88 1679.13,-150.16"/>
<polygon fill="#63b8ff" stroke="#63b8ff" points="1680.27,-146.84 1669.7,-147.51 1678.38,-153.58 1680.27,-146.84"/>
</a>
</g>
</g>
<!-- Node89 -->
<g id="Node000089" class="node">
<title>Node89</title>
<g id="a_Node000089"><a xlink:title=" ">
<polygon fill="#e0e0e0" stroke="#999999" points="1803.75,-146.62 1696.25,-146.62 1696.25,-127.38 1803.75,-127.38 1803.75,-146.62"/>
<text text-anchor="middle" x="1750" y="-133.12" font-family="Helvetica,sans-Serif" font-size="10.00">QtQuick/QQuickItem</text>
</a>
</g>
</g>
<!-- Node1&#45;&gt;Node89 -->
<g id="edge9_Node000001_Node000089" class="edge">
<title>Node1&#45;&gt;Node89</title>
<g id="a_edge9_Node000001_Node000089"><a xlink:title=" ">
<path fill="none" stroke="#63b8ff" d="M1872.92,-187.86C1845.82,-176.87 1809.02,-161.94 1782.76,-151.29"/>
<polygon fill="#63b8ff" stroke="#63b8ff" points="1784.2,-148.09 1773.61,-147.58 1781.56,-154.58 1784.2,-148.09"/>
</a>
</g>
</g>
<!-- Node79 -->
<g id="Node000079" class="node">
<title>Node79</title>
<g id="a_Node000079"><a xlink:title=" ">
<polygon fill="#e0e0e0" stroke="#999999" points="1310.12,-80.12 1261.88,-80.12 1261.88,-60.88 1310.12,-60.88 1310.12,-80.12"/>
<text text-anchor="middle" x="1286" y="-66.62" font-family="Helvetica,sans-Serif" font-size="10.00">QTimer</text>
</a>
</g>
</g>
<!-- Node1&#45;&gt;Node79 -->
<g id="edge10_Node000001_Node000079" class="edge">
<title>Node1&#45;&gt;Node79</title>
<g id="a_edge10_Node000001_Node000079"><a xlink:title=" ">
<path fill="none" stroke="#63b8ff" d="M1862.22,-200.58C1755.01,-195.73 1494.43,-181.24 1412,-152.25 1388.51,-143.99 1385.95,-135.21 1365,-121.75 1346.49,-109.86 1325.47,-96.49 1309.77,-86.54"/>
<polygon fill="#63b8ff" stroke="#63b8ff" points="1311.9,-83.74 1301.58,-81.35 1308.15,-89.66 1311.9,-83.74"/>
</a>
</g>
</g>
<!-- Node90 -->
<g id="Node000090" class="node">
<title>Node90</title>
<g id="a_Node000090"><a xlink:href="../../d3/dad/constants_8hpp.html" target="_top" xlink:title=" ">
<polygon fill="#fff0f0" stroke="red" points="1920.25,-146.62 1821.75,-146.62 1821.75,-127.38 1920.25,-127.38 1920.25,-146.62"/>
<text text-anchor="middle" x="1871" y="-133.12" font-family="Helvetica,sans-Serif" font-size="10.00">core/constants.hpp</text>
</a>
</g>
</g>
<!-- Node1&#45;&gt;Node90 -->
<g id="edge11_Node000001_Node000090" class="edge">
<title>Node1&#45;&gt;Node90</title>
<g id="a_edge11_Node000001_Node000090"><a xlink:title=" ">
<path fill="none" stroke="#63b8ff" d="M1900.38,-187.86C1894.91,-178.58 1887.79,-166.5 1881.93,-156.55"/>
<polygon fill="#63b8ff" stroke="#63b8ff" points="1885.06,-154.97 1876.97,-148.13 1879.03,-158.52 1885.06,-154.97"/>
</a>
</g>
</g>
<!-- Node92 -->
<g id="Node000092" class="node">
<title>Node92</title>
<g id="a_Node000092"><a xlink:href="../../df/dfe/iconfiguration_8hpp.html" target="_top" xlink:title=" ">
<polygon fill="#fff0f0" stroke="red" points="266.38,-80.12 153.62,-80.12 153.62,-60.88 266.38,-60.88 266.38,-80.12"/>
<text text-anchor="middle" x="210" y="-66.62" font-family="Helvetica,sans-Serif" font-size="10.00">core/iconfiguration.hpp</text>
</a>
</g>
</g>
<!-- Node1&#45;&gt;Node92 -->
<g id="edge12_Node000001_Node000092" class="edge">
<title>Node1&#45;&gt;Node92</title>
<g id="a_edge12_Node000001_Node000092"><a xlink:title=" ">
<path fill="none" stroke="#63b8ff" d="M1862.24,-202.22C1602.01,-200.53 341.29,-190.36 269,-152.25 244.08,-139.11 227.05,-110.19 217.92,-90.77"/>
<polygon fill="#63b8ff" stroke="#63b8ff" points="221.19,-89.51 213.96,-81.77 214.78,-92.33 221.19,-89.51"/>
</a>
</g>
</g>
<!-- Node58 -->
<g id="Node000058" class="node">
<title>Node58</title>
<g id="a_Node000058"><a xlink:href="../../d6/d1f/icore__factory__accessor_8hpp.html" target="_top" xlink:title=" ">
<polygon fill="white" stroke="#666666" points="819.62,-85.75 726.38,-85.75 726.38,-55.25 819.62,-55.25 819.62,-85.75"/>
<text text-anchor="start" x="734.38" y="-72.25" font-family="Helvetica,sans-Serif" font-size="10.00">core/icore_factory</text>
<text text-anchor="middle" x="773" y="-61" font-family="Helvetica,sans-Serif" font-size="10.00">_accessor.hpp</text>
</a>
</g>
</g>
<!-- Node1&#45;&gt;Node58 -->
<g id="edge14_Node000001_Node000058" class="edge">
<title>Node1&#45;&gt;Node58</title>
<g id="a_edge14_Node000001_Node000058"><a xlink:title=" ">
<path fill="none" stroke="#63b8ff" d="M1861.99,-201.86C1672.56,-199.05 970.99,-186.42 878,-152.25 844.91,-140.09 813.79,-113.53 794.16,-94.18"/>
<polygon fill="#63b8ff" stroke="#63b8ff" points="796.8,-91.88 787.29,-87.22 791.81,-96.79 796.8,-91.88"/>
</a>
</g>
</g>
<!-- Node93 -->
<g id="Node000093" class="node">
<title>Node93</title>
<g id="a_Node000093"><a xlink:href="../../d4/d57/ilogger__factory_8hpp.html" target="_top" xlink:title=" ">
<polygon fill="#fff0f0" stroke="red" points="2094.38,-146.62 1975.62,-146.62 1975.62,-127.38 2094.38,-127.38 2094.38,-146.62"/>
<text text-anchor="middle" x="2035" y="-133.12" font-family="Helvetica,sans-Serif" font-size="10.00">core/ilogger_factory.hpp</text>
</a>
</g>
</g>
<!-- Node1&#45;&gt;Node93 -->
<g id="edge16_Node000001_Node000093" class="edge">
<title>Node1&#45;&gt;Node93</title>
<g id="a_edge16_Node000001_Node000093"><a xlink:title=" ">
<path fill="none" stroke="#63b8ff" d="M1937.59,-187.86C1958.49,-177.17 1986.68,-162.74 2007.35,-152.15"/>
<polygon fill="#63b8ff" stroke="#63b8ff" points="2008.75,-155.37 2016.05,-147.7 2005.56,-149.14 2008.75,-155.37"/>
</a>
</g>
</g>
<!-- Node75 -->
<g id="Node000075" class="node">
<title>Node75</title>
<g id="a_Node000075"><a xlink:href="../../d7/dfc/ilogger_8hpp.html" target="_top" xlink:title=" ">
<polygon fill="#fff0f0" stroke="red" points="2033.12,-80.12 1948.88,-80.12 1948.88,-60.88 2033.12,-60.88 2033.12,-80.12"/>
<text text-anchor="middle" x="1991" y="-66.62" font-family="Helvetica,sans-Serif" font-size="10.00">core/ilogger.hpp</text>
</a>
</g>
</g>
<!-- Node1&#45;&gt;Node75 -->
<g id="edge18_Node000001_Node000075" class="edge">
<title>Node1&#45;&gt;Node75</title>
<g id="a_edge18_Node000001_Node000075"><a xlink:title=" ">
<path fill="none" stroke="#63b8ff" d="M1918.09,-187.98C1933.04,-164.09 1962.81,-116.53 1979.31,-90.17"/>
<polygon fill="#63b8ff" stroke="#63b8ff" points="1982.16,-92.22 1984.5,-81.88 1976.23,-88.5 1982.16,-92.22"/>
</a>
</g>
</g>
<!-- Node94 -->
<g id="Node000094" class="node">
<title>Node94</title>
<g id="a_Node000094"><a xlink:href="../../db/ddc/media__types_8hpp.html" target="_top" xlink:title=" ">
<polygon fill="#fff0f0" stroke="red" points="2223.25,-146.62 2112.75,-146.62 2112.75,-127.38 2223.25,-127.38 2223.25,-146.62"/>
<text text-anchor="middle" x="2168" y="-133.12" font-family="Helvetica,sans-Serif" font-size="10.00">core/media_types.hpp</text>
</a>
</g>
</g>
<!-- Node1&#45;&gt;Node94 -->
<g id="edge19_Node000001_Node000094" class="edge">
<title>Node1&#45;&gt;Node94</title>
<g id="a_edge19_Node000001_Node000094"><a xlink:title=" ">
<path fill="none" stroke="#63b8ff" d="M1955.9,-190.82C2002.5,-179.22 2073.58,-161.51 2120.41,-149.85"/>
<polygon fill="#63b8ff" stroke="#63b8ff" points="2121.15,-153.27 2130.01,-147.46 2119.46,-146.48 2121.15,-153.27"/>
</a>
</g>
</g>
<!-- Node95 -->
<g id="Node000095" class="node">
<title>Node95</title>
<g id="a_Node000095"><a xlink:href="../../d6/d8d/observables__registry_8hpp.html" target="_top" xlink:title=" ">
<polygon fill="#fff0f0" stroke="red" points="2386.5,-146.62 2241.5,-146.62 2241.5,-127.38 2386.5,-127.38 2386.5,-146.62"/>
<text text-anchor="middle" x="2314" y="-133.12" font-family="Helvetica,sans-Serif" font-size="10.00">core/observables_registry.hpp</text>
</a>
</g>
</g>
<!-- Node1&#45;&gt;Node95 -->
<g id="edge20_Node000001_Node000095" class="edge">
<title>Node1&#45;&gt;Node95</title>
<g id="a_edge20_Node000001_Node000095"><a xlink:title=" ">
<path fill="none" stroke="#63b8ff" d="M1956.11,-195.44C2019.05,-185.94 2134.01,-168.39 2232,-152.25 2238.3,-151.21 2244.87,-150.11 2251.43,-148.99"/>
<polygon fill="#63b8ff" stroke="#63b8ff" points="2251.65,-152.5 2260.92,-147.37 2250.47,-145.61 2251.65,-152.5"/>
</a>
</g>
</g>
<!-- Node98 -->
<g id="Node000098" class="node">
<title>Node98</title>
<g id="a_Node000098"><a xlink:href="../../d4/d20/task__executor__utils_8hpp.html" target="_top" xlink:title=" ">
<polygon fill="#fff0f0" stroke="red" points="444.25,-85.75 345.75,-85.75 345.75,-55.25 444.25,-55.25 444.25,-85.75"/>
<text text-anchor="start" x="353.75" y="-72.25" font-family="Helvetica,sans-Serif" font-size="10.00">core/task_executor</text>
<text text-anchor="middle" x="395" y="-61" font-family="Helvetica,sans-Serif" font-size="10.00">_utils.hpp</text>
</a>
</g>
</g>
<!-- Node1&#45;&gt;Node98 -->
<g id="edge21_Node000001_Node000098" class="edge">
<title>Node1&#45;&gt;Node98</title>
<g id="a_edge21_Node000001_Node000098"><a xlink:title=" ">
<path fill="none" stroke="#63b8ff" d="M1862.13,-202.81C1606.94,-204.28 394.27,-208.29 340,-152.25 322.55,-134.23 343.61,-110.09 364.51,-92.9"/>
<polygon fill="#63b8ff" stroke="#63b8ff" points="366.43,-95.85 372.16,-86.94 362.12,-90.33 366.43,-95.85"/>
</a>
</g>
</g>
<!-- Node104 -->
<g id="Node000104" class="node">
<title>Node104</title>
<g id="a_Node000104"><a xlink:href="../../d2/def/database__builder_8hpp.html" target="_top" xlink:title=" ">
<polygon fill="#fff0f0" stroke="red" points="2555.12,-146.62 2404.88,-146.62 2404.88,-127.38 2555.12,-127.38 2555.12,-146.62"/>
<text text-anchor="middle" x="2480" y="-133.12" font-family="Helvetica,sans-Serif" font-size="10.00">database/database_builder.hpp</text>
</a>
</g>
</g>
<!-- Node1&#45;&gt;Node104 -->
<g id="edge22_Node000001_Node000104" class="edge">
<title>Node1&#45;&gt;Node104</title>
<g id="a_edge22_Node000001_Node000104"><a xlink:title=" ">
<path fill="none" stroke="#63b8ff" d="M1955.79,-198.69C2042.72,-191.4 2234.93,-174.2 2396,-152.25 2403.39,-151.24 2411.12,-150.08 2418.77,-148.86"/>
<polygon fill="#63b8ff" stroke="#63b8ff" points="2419.09,-152.36 2428.4,-147.29 2417.96,-145.45 2419.09,-152.36"/>
</a>
</g>
</g>
<!-- Node105 -->
<g id="Node000105" class="node">
<title>Node105</title>
<g id="a_Node000105"><a xlink:href="../../d5/dfe/photos__analyzer_8hpp.html" target="_top" xlink:title=" ">
<polygon fill="#fff0f0" stroke="red" points="2698.38,-152.25 2573.62,-152.25 2573.62,-121.75 2698.38,-121.75 2698.38,-152.25"/>
<text text-anchor="start" x="2581.62" y="-138.75" font-family="Helvetica,sans-Serif" font-size="10.00">database/database_tools</text>
<text text-anchor="middle" x="2636" y="-127.5" font-family="Helvetica,sans-Serif" font-size="10.00">/photos_analyzer.hpp</text>
</a>
</g>
</g>
<!-- Node1&#45;&gt;Node105 -->
<g id="edge23_Node000001_Node000105" class="edge">
<title>Node1&#45;&gt;Node105</title>
<g id="a_edge23_Node000001_Node000105"><a xlink:title=" ">
<path fill="none" stroke="#63b8ff" d="M1956.06,-200.81C2062.3,-196.58 2328.94,-183.66 2562.17,-152.38"/>
<polygon fill="#63b8ff" stroke="#63b8ff" points="2562.31,-155.89 2571.75,-151.08 2561.37,-148.96 2562.31,-155.89"/>
</a>
</g>
</g>
<!-- Node106 -->
<g id="Node000106" class="node">
<title>Node106</title>
<g id="a_Node000106"><a xlink:href="../../d9/d8f/igroup__operator_8hpp.html" target="_top" xlink:title=" ">
<polygon fill="#fff0f0" stroke="red" points="2859.75,-146.62 2716.25,-146.62 2716.25,-127.38 2859.75,-127.38 2859.75,-146.62"/>
<text text-anchor="middle" x="2788" y="-133.12" font-family="Helvetica,sans-Serif" font-size="10.00">database/igroup_operator.hpp</text>
</a>
</g>
</g>
<!-- Node1&#45;&gt;Node106 -->
<g id="edge25_Node000001_Node000106" class="edge">
<title>Node1&#45;&gt;Node106</title>
<g id="a_edge25_Node000001_Node000106"><a xlink:title=" ">
<path fill="none" stroke="#63b8ff" d="M1955.94,-201.37C2079.36,-198 2423.04,-186.06 2707,-152.25 2714.53,-151.35 2722.41,-150.22 2730.19,-148.98"/>
<polygon fill="#63b8ff" stroke="#63b8ff" points="2730.66,-152.45 2739.95,-147.35 2729.51,-145.54 2730.66,-152.45"/>
</a>
</g>
</g>
<!-- Node107 -->
<g id="Node000107" class="node">
<title>Node107</title>
<g id="a_Node000107"><a xlink:href="../../da/d1a/photo__utils_8hpp.html" target="_top" xlink:title=" ">
<polygon fill="#fff0f0" stroke="red" points="3002,-146.62 2878,-146.62 2878,-127.38 3002,-127.38 3002,-146.62"/>
<text text-anchor="middle" x="2940" y="-133.12" font-family="Helvetica,sans-Serif" font-size="10.00">database/photo_utils.hpp</text>
</a>
</g>
</g>
<!-- Node1&#45;&gt;Node107 -->
<g id="edge26_Node000001_Node000107" class="edge">
<title>Node1&#45;&gt;Node107</title>
<g id="a_edge26_Node000001_Node000107"><a xlink:title=" ">
<path fill="none" stroke="#63b8ff" d="M1955.67,-202.46C2095.01,-201.83 2520.02,-196.17 2869,-152.25 2875.47,-151.44 2882.24,-150.37 2888.91,-149.18"/>
<polygon fill="#63b8ff" stroke="#63b8ff" points="2889.32,-152.66 2898.5,-147.37 2888.03,-145.78 2889.32,-152.66"/>
</a>
</g>
</g>
<!-- Node109 -->
<g id="Node000109" class="node">
<title>Node109</title>
<g id="a_Node000109"><a xlink:href="../../dc/de9/database__executor__traits_8hpp.html" target="_top" xlink:title=" ">
<polygon fill="white" stroke="#666666" points="489.25,-152.25 348.75,-152.25 348.75,-121.75 489.25,-121.75 489.25,-152.25"/>
<text text-anchor="start" x="356.75" y="-138.75" font-family="Helvetica,sans-Serif" font-size="10.00">database/database_executor</text>
<text text-anchor="middle" x="419" y="-127.5" font-family="Helvetica,sans-Serif" font-size="10.00">_traits.hpp</text>
</a>
</g>
</g>
<!-- Node1&#45;&gt;Node109 -->
<g id="edge27_Node000001_Node000109" class="edge">
<title>Node1&#45;&gt;Node109</title>
<g id="a_edge27_Node000001_Node000109"><a xlink:title=" ">
<path fill="none" stroke="#63b8ff" d="M1861.88,-201.73C1651.31,-198.14 794.28,-182.04 501.01,-152.44"/>
<polygon fill="#63b8ff" stroke="#63b8ff" points="501.38,-148.96 491.07,-151.4 500.65,-155.92 501.38,-148.96"/>
</a>
</g>
</g>
<!-- Node110 -->
<g id="Node000110" class="node">
<title>Node110</title>
<g id="a_Node000110"><a xlink:href="../../d2/dee/iproject__manager_8hpp.html" target="_top" xlink:title=" ">
<polygon fill="#fff0f0" stroke="red" points="3123.5,-152.25 3020.5,-152.25 3020.5,-121.75 3123.5,-121.75 3123.5,-152.25"/>
<text text-anchor="start" x="3028.5" y="-138.75" font-family="Helvetica,sans-Serif" font-size="10.00">project_utils/iproject</text>
<text text-anchor="middle" x="3072" y="-127.5" font-family="Helvetica,sans-Serif" font-size="10.00">_manager.hpp</text>
</a>
</g>
</g>
<!-- Node1&#45;&gt;Node110 -->
<g id="edge30_Node000001_Node000110" class="edge">
<title>Node1&#45;&gt;Node110</title>
<g id="a_edge30_Node000001_Node000110"><a xlink:title=" ">
<path fill="none" stroke="#63b8ff" d="M1955.87,-201.51C2135.42,-197.55 2780.41,-181.67 3008.99,-152.28"/>
<polygon fill="#63b8ff" stroke="#63b8ff" points="3009.26,-155.78 3018.71,-150.98 3008.33,-148.84 3009.26,-155.78"/>
</a>
</g>
</g>
<!-- Node61 -->
<g id="Node000061" class="node">
<title>Node61</title>
<g id="a_Node000061"><a xlink:href="../../d1/d8e/project_8hpp.html" target="_top" xlink:title=" ">
<polygon fill="#fff0f0" stroke="red" points="978.38,-80.12 859.62,-80.12 859.62,-60.88 978.38,-60.88 978.38,-80.12"/>
<text text-anchor="middle" x="919" y="-66.62" font-family="Helvetica,sans-Serif" font-size="10.00">project_utils/project.hpp</text>
</a>
</g>
</g>
<!-- Node1&#45;&gt;Node61 -->
<g id="edge31_Node000001_Node000061" class="edge">
<title>Node1&#45;&gt;Node61</title>
<g id="a_edge31_Node000001_Node000061"><a xlink:title=" ">
<path fill="none" stroke="#63b8ff" d="M1861.88,-201.97C1665.66,-199.53 921.98,-187.94 888,-152.25 871.16,-134.56 888.23,-106.75 902.92,-88.82"/>
<polygon fill="#63b8ff" stroke="#63b8ff" points="905.28,-91.44 909.2,-81.6 900,-86.85 905.28,-91.44"/>
</a>
</g>
</g>
<!-- Node112 -->
<g id="Node000112" class="node">
<title>Node112</title>
<g id="a_Node000112"><a xlink:href="../../dd/d90/system_8hpp.html" target="_top" xlink:title=" ">
<polygon fill="#fff0f0" stroke="red" points="3242,-146.62 3142,-146.62 3142,-127.38 3242,-127.38 3242,-146.62"/>
<text text-anchor="middle" x="3192" y="-133.12" font-family="Helvetica,sans-Serif" font-size="10.00">system/system.hpp</text>
</a>
</g>
</g>
<!-- Node1&#45;&gt;Node112 -->
<g id="edge32_Node000001_Node000112" class="edge">
<title>Node1&#45;&gt;Node112</title>
<g id="a_edge32_Node000001_Node000112"><a xlink:title=" ">
<path fill="none" stroke="#63b8ff" d="M1955.99,-201.8C2151.28,-198.71 2899.34,-184.94 3133,-152.25 3138.01,-151.55 3143.21,-150.61 3148.36,-149.55"/>
<polygon fill="#63b8ff" stroke="#63b8ff" points="3148.98,-153 3157.97,-147.4 3147.45,-146.16 3148.98,-153"/>
</a>
</g>
</g>
<!-- Node114 -->
<g id="Node000114" class="node">
<title>Node114</title>
<g id="a_Node000114"><a xlink:title=" ">
<polygon fill="#e0e0e0" stroke="#999999" points="3329.62,-146.62 3260.38,-146.62 3260.38,-127.38 3329.62,-127.38 3329.62,-146.62"/>
<text text-anchor="middle" x="3295" y="-133.12" font-family="Helvetica,sans-Serif" font-size="10.00">features.hpp</text>
</a>
</g>
</g>
<!-- Node1&#45;&gt;Node114 -->
<g id="edge33_Node000001_Node000114" class="edge">
<title>Node1&#45;&gt;Node114</title>
<g id="a_edge33_Node000001_Node000114"><a xlink:title=" ">
<path fill="none" stroke="#63b8ff" d="M1955.99,-202.47C2162.97,-202.09 2994.45,-197.69 3251,-152.25 3254.01,-151.72 3257.1,-151.03 3260.17,-150.24"/>
<polygon fill="#63b8ff" stroke="#63b8ff" points="3261.02,-153.64 3269.64,-147.48 3259.06,-146.92 3261.02,-153.64"/>
</a>
</g>
</g>
<!-- Node115 -->
<g id="Node000115" class="node">
<title>Node115</title>
<g id="a_Node000115"><a xlink:title=" ">
<polygon fill="#e0e0e0" stroke="#999999" points="3406.75,-146.62 3347.25,-146.62 3347.25,-127.38 3406.75,-127.38 3406.75,-146.62"/>
<text text-anchor="middle" x="3377" y="-133.12" font-family="Helvetica,sans-Serif" font-size="10.00">config.hpp</text>
</a>
</g>
</g>
<!-- Node1&#45;&gt;Node115 -->
<g id="edge34_Node000001_Node000115" class="edge">
<title>Node1&#45;&gt;Node115</title>
<g id="a_edge34_Node000001_Node000115"><a xlink:title=" ">
<path fill="none" stroke="#63b8ff" d="M1955.84,-202.88C2170.97,-204.32 3065.39,-206.84 3339,-152.25 3341.18,-151.82 3343.39,-151.27 3345.61,-150.65"/>
<polygon fill="#63b8ff" stroke="#63b8ff" points="3346.61,-154.01 3355.01,-147.56 3344.42,-147.36 3346.61,-154.01"/>
</a>
</g>
</g>
<!-- Node116 -->
<g id="Node000116" class="node">
<title>Node116</title>
<g id="a_Node000116"><a xlink:href="../../dd/d20/config__keys_8hpp.html" target="_top" xlink:title=" ">
<polygon fill="white" stroke="#666666" points="3509.5,-146.62 3424.5,-146.62 3424.5,-127.38 3509.5,-127.38 3509.5,-146.62"/>
<text text-anchor="middle" x="3467" y="-133.12" font-family="Helvetica,sans-Serif" font-size="10.00">config_keys.hpp</text>
</a>
</g>
</g>
<!-- Node1&#45;&gt;Node116 -->
<g id="edge35_Node000001_Node000116" class="edge">
<title>Node1&#45;&gt;Node116</title>
<g id="a_edge35_Node000001_Node000116"><a xlink:title=" ">
<path fill="none" stroke="#63b8ff" d="M1956.02,-202.44C2178.24,-201.95 3124.45,-197.18 3416,-152.25 3420.05,-151.63 3424.25,-150.79 3428.4,-149.82"/>
<polygon fill="#63b8ff" stroke="#63b8ff" points="3428.92,-153.3 3437.74,-147.44 3427.18,-146.52 3428.92,-153.3"/>
</a>
</g>
</g>
<!-- Node117 -->
<g id="Node000117" class="node">
<title>Node117</title>
<g id="a_Node000117"><a xlink:href="../../d1/dcc/main__tab_8hpp.html" target="_top" xlink:title=" ">
<polygon fill="#fff0f0" stroke="red" points="3654.12,-146.62 3527.88,-146.62 3527.88,-127.38 3654.12,-127.38 3654.12,-146.62"/>
<text text-anchor="middle" x="3591" y="-133.12" font-family="Helvetica,sans-Serif" font-size="10.00">config_tabs/main_tab.hpp</text>
</a>
</g>
</g>
<!-- Node1&#45;&gt;Node117 -->
<g id="edge36_Node000001_Node000117" class="edge">
<title>Node1&#45;&gt;Node117</title>
<g id="a_edge36_Node000001_Node000117"><a xlink:title=" ">
<path fill="none" stroke="#63b8ff" d="M1956.06,-202.07C2187.28,-199.83 3204.5,-188.03 3519,-152.25 3525.81,-151.47 3532.95,-150.4 3539.96,-149.17"/>
<polygon fill="#63b8ff" stroke="#63b8ff" points="3540.51,-152.63 3549.71,-147.37 3539.24,-145.75 3540.51,-152.63"/>
</a>
</g>
</g>
<!-- Node120 -->
<g id="Node000120" class="node">
<title>Node120</title>
<g id="a_Node000120"><a xlink:href="../../df/d3f/tools__tab_8hpp.html" target="_top" xlink:title=" ">
<polygon fill="#fff0f0" stroke="red" points="3798.12,-146.62 3671.88,-146.62 3671.88,-127.38 3798.12,-127.38 3798.12,-146.62"/>
<text text-anchor="middle" x="3735" y="-133.12" font-family="Helvetica,sans-Serif" font-size="10.00">config_tabs/tools_tab.hpp</text>
</a>
</g>
</g>
<!-- Node1&#45;&gt;Node120 -->
<g id="edge37_Node000001_Node000120" class="edge">
<title>Node1&#45;&gt;Node120</title>
<g id="a_edge37_Node000001_Node000120"><a xlink:title=" ">
<path fill="none" stroke="#63b8ff" d="M1955.77,-202.22C2198.67,-200.58 3318.27,-191.03 3663,-152.25 3669.82,-151.48 3676.95,-150.41 3683.96,-149.19"/>
<polygon fill="#63b8ff" stroke="#63b8ff" points="3684.51,-152.65 3693.71,-147.38 3683.24,-145.77 3684.51,-152.65"/>
</a>
</g>
</g>
<!-- Node122 -->
<g id="Node000122" class="node">
<title>Node122</title>
<g id="a_Node000122"><a xlink:href="../../de/d3d/flat__model_8hpp.html" target="_top" xlink:title=" ">
<polygon fill="#fff0f0" stroke="red" points="1454.38,-80.12 1341.62,-80.12 1341.62,-60.88 1454.38,-60.88 1454.38,-80.12"/>
<text text-anchor="middle" x="1398" y="-66.62" font-family="Helvetica,sans-Serif" font-size="10.00">models/flat_model.hpp</text>
</a>
</g>
</g>
<!-- Node1&#45;&gt;Node122 -->
<g id="edge38_Node000001_Node000122" class="edge">
<title>Node1&#45;&gt;Node122</title>
<g id="a_edge38_Node000001_Node000122"><a xlink:title=" ">
<path fill="none" stroke="#63b8ff" d="M1862.12,-202.91C1757.51,-202.96 1508.88,-198.11 1441,-152.25 1420.06,-138.1 1408.53,-110.34 1402.81,-91.35"/>
<polygon fill="#63b8ff" stroke="#63b8ff" points="1406.23,-90.58 1400.25,-81.84 1399.47,-92.41 1406.23,-90.58"/>
</a>
</g>
</g>
<!-- Node125 -->
<g id="Node000125" class="node">
<title>Node125</title>
<g id="a_Node000125"><a xlink:href="../../db/d06/project__creator__dialog_8hpp.html" target="_top" xlink:title=" ">
<polygon fill="#fff0f0" stroke="red" points="1029.12,-152.25 896.88,-152.25 896.88,-121.75 1029.12,-121.75 1029.12,-152.25"/>
<text text-anchor="start" x="904.88" y="-138.75" font-family="Helvetica,sans-Serif" font-size="10.00">widgets/project_creator</text>
<text text-anchor="middle" x="963" y="-127.5" font-family="Helvetica,sans-Serif" font-size="10.00">/project_creator_dialog.hpp</text>
</a>
</g>
</g>
<!-- Node1&#45;&gt;Node125 -->
<g id="edge39_Node000001_Node000125" class="edge">
<title>Node1&#45;&gt;Node125</title>
<g id="a_edge39_Node000001_Node000125"><a xlink:title=" ">
<path fill="none" stroke="#63b8ff" d="M1862.07,-201.94C1732.7,-199.93 1359.93,-191.07 1040.91,-152.5"/>
<polygon fill="#63b8ff" stroke="#63b8ff" points="1041.44,-149.04 1031.09,-151.3 1040.59,-155.99 1041.44,-149.04"/>
</a>
</g>
</g>
<!-- Node127 -->
<g id="Node000127" class="node">
<title>Node127</title>
<g id="a_Node000127"><a xlink:href="../../d7/d12/config__dialog__manager_8hpp.html" target="_top" xlink:title=" ">
<polygon fill="#fff0f0" stroke="red" points="3922,-152.25 3816,-152.25 3816,-121.75 3922,-121.75 3922,-152.25"/>
<text text-anchor="start" x="3824" y="-138.75" font-family="Helvetica,sans-Serif" font-size="10.00">ui_utils/config_dialog</text>
<text text-anchor="middle" x="3869" y="-127.5" font-family="Helvetica,sans-Serif" font-size="10.00">_manager.hpp</text>
</a>
</g>
</g>
<!-- Node1&#45;&gt;Node127 -->
<g id="edge41_Node000001_Node000127" class="edge">
<title>Node1&#45;&gt;Node127</title>
<g id="a_edge41_Node000001_Node000127"><a xlink:title=" ">
<path fill="none" stroke="#63b8ff" d="M1955.81,-202.53C2208.18,-202.48 3409.59,-199.78 3804.52,-152.34"/>
<polygon fill="#63b8ff" stroke="#63b8ff" points="3804.69,-155.85 3814.19,-151.15 3803.83,-148.9 3804.69,-155.85"/>
</a>
</g>
</g>
<!-- Node128 -->
<g id="Node000128" class="node">
<title>Node128</title>
<g id="a_Node000128"><a xlink:href="../../d8/ddc/collection__scanner_8hpp.html" target="_top" xlink:title=" ">
<polygon fill="#fff0f0" stroke="red" points="643,-146.62 507,-146.62 507,-127.38 643,-127.38 643,-146.62"/>
<text text-anchor="middle" x="575" y="-133.12" font-family="Helvetica,sans-Serif" font-size="10.00">utils/collection_scanner.hpp</text>
</a>
</g>
</g>
<!-- Node1&#45;&gt;Node128 -->
<g id="edge42_Node000001_Node000128" class="edge">
<title>Node1&#45;&gt;Node128</title>
<g id="a_edge42_Node000001_Node000128"><a xlink:title=" ">
<path fill="none" stroke="#63b8ff" d="M1861.94,-202.84C1696.31,-203.58 1125.05,-202.09 657,-152.25 648.9,-151.39 640.39,-150.21 632.05,-148.91"/>
<polygon fill="#63b8ff" stroke="#63b8ff" points="632.75,-145.48 622.31,-147.31 631.61,-152.38 632.75,-145.48"/>
</a>
</g>
</g>
<!-- Node133 -->
<g id="Node000133" class="node">
<title>Node133</title>
<g id="a_Node000133"><a xlink:href="../../dc/db1/groups__manager_8hpp.html" target="_top" xlink:title=" ">
<polygon fill="#fff0f0" stroke="red" points="1174.5,-146.62 1047.5,-146.62 1047.5,-127.38 1174.5,-127.38 1174.5,-146.62"/>
<text text-anchor="middle" x="1111" y="-133.12" font-family="Helvetica,sans-Serif" font-size="10.00">utils/groups_manager.hpp</text>
</a>
</g>
</g>
<!-- Node1&#45;&gt;Node133 -->
<g id="edge44_Node000001_Node000133" class="edge">
<title>Node1&#45;&gt;Node133</title>
<g id="a_edge44_Node000001_Node000133"><a xlink:title=" ">
<path fill="none" stroke="#63b8ff" d="M1862.08,-201.3C1746.29,-197.91 1437.86,-186.15 1183,-152.25 1176.61,-151.4 1169.93,-150.33 1163.33,-149.16"/>
<polygon fill="#63b8ff" stroke="#63b8ff" points="1164.31,-145.78 1153.84,-147.39 1163.03,-152.66 1164.31,-145.78"/>
</a>
</g>
</g>
<!-- Node135 -->
<g id="Node000135" class="node">
<title>Node135</title>
<g id="a_Node000135"><a xlink:href="../../d9/de7/collage__generator_8hpp.html" target="_top" xlink:title=" ">
<polygon fill="#fff0f0" stroke="red" points="4053.75,-152.25 3940.25,-152.25 3940.25,-121.75 4053.75,-121.75 4053.75,-152.25"/>
<text text-anchor="start" x="3948.25" y="-138.75" font-family="Helvetica,sans-Serif" font-size="10.00">utils/grouppers/collage</text>
<text text-anchor="middle" x="3997" y="-127.5" font-family="Helvetica,sans-Serif" font-size="10.00">_generator.hpp</text>
</a>
</g>
</g>
<!-- Node1&#45;&gt;Node135 -->
<g id="edge46_Node000001_Node000135" class="edge">
<title>Node1&#45;&gt;Node135</title>
<g id="a_edge46_Node000001_Node000135"><a xlink:title=" ">
<path fill="none" stroke="#63b8ff" d="M1955.79,-202.53C2217.88,-202.52 3506.87,-200.08 3928.56,-152.34"/>
<polygon fill="#63b8ff" stroke="#63b8ff" points="3928.84,-155.83 3938.37,-151.2 3928.03,-148.88 3928.84,-155.83"/>
</a>
</g>
</g>
<!-- Node136 -->
<g id="Node000136" class="node">
<title>Node136</title>
<g id="a_Node000136"><a xlink:href="../../de/d97/model__index__utils_8hpp.html" target="_top" xlink:title=" ">
<polygon fill="#fff0f0" stroke="red" points="4204.12,-146.62 4071.88,-146.62 4071.88,-127.38 4204.12,-127.38 4204.12,-146.62"/>
<text text-anchor="middle" x="4138" y="-133.12" font-family="Helvetica,sans-Serif" font-size="10.00">utils/model_index_utils.hpp</text>
</a>
</g>
</g>
<!-- Node1&#45;&gt;Node136 -->
<g id="edge47_Node000001_Node000136" class="edge">
<title>Node1&#45;&gt;Node136</title>
<g id="a_edge47_Node000001_Node000136"><a xlink:title=" ">
<path fill="none" stroke="#63b8ff" d="M1956.1,-202.46C2231.34,-202.04 3634.29,-197.67 4063,-152.25 4070.35,-151.47 4078.06,-150.36 4085.62,-149.09"/>
<polygon fill="#63b8ff" stroke="#63b8ff" points="4086.2,-152.54 4095.43,-147.33 4084.97,-145.65 4086.2,-152.54"/>
</a>
</g>
</g>
<!-- Node138 -->
<g id="Node000138" class="node">
<title>Node138</title>
<g id="a_Node000138"><a xlink:href="../../d0/d41/qml__utils_8hpp.html" target="_top" xlink:title=" ">
<polygon fill="#fff0f0" stroke="red" points="4316,-146.62 4222,-146.62 4222,-127.38 4316,-127.38 4316,-146.62"/>
<text text-anchor="middle" x="4269" y="-133.12" font-family="Helvetica,sans-Serif" font-size="10.00">utils/qml_utils.hpp</text>
</a>
</g>
</g>
<!-- Node1&#45;&gt;Node138 -->
<g id="edge48_Node000001_Node000138" class="edge">
<title>Node1&#45;&gt;Node138</title>
<g id="a_edge48_Node000001_Node000138"><a xlink:title=" ">
<path fill="none" stroke="#63b8ff" d="M1955.86,-202.12C2262.91,-199.53 3982.08,-183.73 4213,-152.25 4217.7,-151.61 4222.57,-150.72 4227.39,-149.7"/>
<polygon fill="#63b8ff" stroke="#63b8ff" points="4228.02,-153.14 4236.96,-147.46 4226.43,-146.33 4228.02,-153.14"/>
</a>
</g>
</g>
<!-- Node140 -->
<g id="Node000140" class="node">
<title>Node140</title>
<g id="a_Node000140"><a xlink:href="../../df/dab/objects__accessor_8hpp.html" target="_top" xlink:title=" ">
<polygon fill="#fff0f0" stroke="red" points="802.5,-152.25 699.5,-152.25 699.5,-121.75 802.5,-121.75 802.5,-152.25"/>
<text text-anchor="start" x="707.5" y="-138.75" font-family="Helvetica,sans-Serif" font-size="10.00">quick_items/objects</text>
<text text-anchor="middle" x="751" y="-127.5" font-family="Helvetica,sans-Serif" font-size="10.00">_accessor.hpp</text>
</a>
</g>
</g>
<!-- Node1&#45;&gt;Node140 -->
<g id="edge49_Node000001_Node000140" class="edge">
<title>Node1&#45;&gt;Node140</title>
<g id="a_edge49_Node000001_Node000140"><a xlink:title=" ">
<path fill="none" stroke="#63b8ff" d="M1861.93,-203.13C1709.93,-204.55 1218.81,-204.5 817,-152.25 815.98,-152.12 814.96,-151.98 813.93,-151.83"/>
<polygon fill="#63b8ff" stroke="#63b8ff" points="814.66,-148.4 804.23,-150.26 813.55,-155.32 814.66,-148.4"/>
</a>
</g>
</g>
<!-- Node141 -->
<g id="Node000141" class="node">
<title>Node141</title>
<g id="a_Node000141"><a xlink:href="../../d8/d4e/photos__model__controller__component_8hpp.html" target="_top" xlink:title=" ">
<polygon fill="#fff0f0" stroke="red" points="1355.88,-152.25 1192.12,-152.25 1192.12,-121.75 1355.88,-121.75 1355.88,-152.25"/>
<text text-anchor="start" x="1200.12" y="-138.75" font-family="Helvetica,sans-Serif" font-size="10.00">quick_items/photos</text>
<text text-anchor="middle" x="1274" y="-127.5" font-family="Helvetica,sans-Serif" font-size="10.00">_model_controller_component.hpp</text>
</a>
</g>
</g>
<!-- Node1&#45;&gt;Node141 -->
<g id="edge53_Node000001_Node000141" class="edge">
<title>Node1&#45;&gt;Node141</title>
<g id="a_edge53_Node000001_Node000141"><a xlink:title=" ">
<path fill="none" stroke="#63b8ff" d="M1862.05,-198.99C1768.33,-191.78 1551.48,-174.16 1370,-152.25 1369.15,-152.15 1368.3,-152.04 1367.45,-151.94"/>
<polygon fill="#63b8ff" stroke="#63b8ff" points="1368.04,-148.49 1357.68,-150.69 1367.16,-155.43 1368.04,-148.49"/>
</a>
</g>
</g>
<!-- Node143 -->
<g id="Node000143" class="node">
<title>Node143</title>
<g id="a_Node000143"><a xlink:href="../../d3/dde/selection__manager__component_8hpp.html" target="_top" xlink:title=" ">
<polygon fill="#fff0f0" stroke="red" points="4464,-152.25 4334,-152.25 4334,-121.75 4464,-121.75 4464,-152.25"/>
<text text-anchor="start" x="4342" y="-138.75" font-family="Helvetica,sans-Serif" font-size="10.00">quick_items/selection</text>
<text text-anchor="middle" x="4399" y="-127.5" font-family="Helvetica,sans-Serif" font-size="10.00">_manager_component.hpp</text>
</a>
</g>
</g>
<!-- Node1&#45;&gt;Node143 -->
<g id="edge57_Node000001_Node000143" class="edge">
<title>Node1&#45;&gt;Node143</title>
<g id="a_edge57_Node000001_Node000143"><a xlink:title=" ">
<path fill="none" stroke="#63b8ff" d="M1955.96,-202.61C2247.8,-203.13 3817.04,-203.5 4322.35,-152.37"/>
<polygon fill="#63b8ff" stroke="#63b8ff" points="4322.63,-155.86 4332.21,-151.35 4321.91,-148.9 4322.63,-155.86"/>
</a>
</g>
</g>
<!-- Node145 -->
<g id="Node000145" class="node">
<title>Node145</title>
<g id="a_Node000145"><a xlink:href="../../db/de6/thumbnail__image__provider_8hpp.html" target="_top" xlink:title=" ">
<polygon fill="#fff0f0" stroke="red" points="4595.75,-152.25 4482.25,-152.25 4482.25,-121.75 4595.75,-121.75 4595.75,-152.25"/>
<text text-anchor="start" x="4490.25" y="-138.75" font-family="Helvetica,sans-Serif" font-size="10.00">quick_items/thumbnail</text>
<text text-anchor="middle" x="4539" y="-127.5" font-family="Helvetica,sans-Serif" font-size="10.00">_image_provider.hpp</text>
</a>
</g>
</g>
<!-- Node1&#45;&gt;Node145 -->
<g id="edge58_Node000001_Node000145" class="edge">
<title>Node1&#45;&gt;Node145</title>
<g id="a_edge58_Node000001_Node000145"><a xlink:title=" ">
<path fill="none" stroke="#63b8ff" d="M1956.03,-202.13C2279.04,-199.48 4165.32,-182.88 4470.88,-152.23"/>
<polygon fill="#63b8ff" stroke="#63b8ff" points="4470.81,-155.76 4480.37,-151.2 4470.05,-148.8 4470.81,-155.76"/>
</a>
</g>
</g>
<!-- Node2&#45;&gt;Node5 -->
<g id="edge2_Node000002_Node000005" class="edge">
<title>Node2&#45;&gt;Node5</title>
<g id="a_edge2_Node000002_Node000005"><a xlink:title=" ">
<path fill="none" stroke="#63b8ff" d="M158.4,-127.03C141.34,-116.55 112.83,-99.04 92.39,-86.48"/>
<polygon fill="#63b8ff" stroke="#63b8ff" points="94.46,-83.64 84.1,-81.39 90.79,-89.61 94.46,-83.64"/>
</a>
</g>
</g>
<!-- Node2&#45;&gt;Node9 -->
<g id="edge3_Node000002_Node000009" class="edge">
<title>Node2&#45;&gt;Node9</title>
<g id="a_edge3_Node000002_Node000009"><a xlink:title=" ">
<path fill="none" stroke="#63b8ff" d="M217.17,-128.91C287.2,-117.68 424.23,-95.69 506.9,-82.43"/>
<polygon fill="#63b8ff" stroke="#63b8ff" points="507.38,-85.89 516.7,-80.85 506.27,-78.98 507.38,-85.89"/>
</a>
</g>
</g>
<!-- Node9&#45;&gt;Node11 -->
<g id="edge4_Node000009_Node000011" class="edge">
<title>Node9&#45;&gt;Node11</title>
<g id="a_edge4_Node000009_Node000011"><a xlink:title=" ">
<path fill="none" stroke="#63b8ff" d="M531.71,-60.43C477.89,-49.15 386.76,-30.06 334.35,-19.08"/>
<polygon fill="#63b8ff" stroke="#63b8ff" points="335.14,-15.67 324.63,-17.04 333.7,-22.52 335.14,-15.67"/>
</a>
</g>
</g>
<!-- Node92&#45;&gt;Node11 -->
<g id="edge13_Node000092_Node000011" class="edge">
<title>Node92&#45;&gt;Node11</title>
<g id="a_edge13_Node000092_Node000011"><a xlink:title=" ">
<path fill="none" stroke="#63b8ff" d="M222.76,-60.56C235.83,-51.39 256.41,-36.97 272.1,-25.98"/>
<polygon fill="#63b8ff" stroke="#63b8ff" points="273.7,-29.13 279.88,-20.52 269.68,-23.39 273.7,-29.13"/>
</a>
</g>
</g>
<!-- Node93&#45;&gt;Node75 -->
<g id="edge17_Node000093_Node000075" class="edge">
<title>Node93&#45;&gt;Node75</title>
<g id="a_edge17_Node000093_Node000075"><a xlink:title=" ">
<path fill="none" stroke="#63b8ff" d="M2028.88,-127.03C2022.31,-117.4 2011.7,-101.85 2003.38,-89.65"/>
<polygon fill="#63b8ff" stroke="#63b8ff" points="2006.45,-87.93 1997.92,-81.64 2000.66,-91.88 2006.45,-87.93"/>
</a>
</g>
</g>
<!-- Node109&#45;&gt;Node9 -->
<g id="edge29_Node000109_Node000009" class="edge">
<title>Node109&#45;&gt;Node9</title>
<g id="a_edge29_Node000109_Node000009"><a xlink:title=" ">
<path fill="none" stroke="#63b8ff" d="M454.4,-121.36C480.99,-110.37 517.1,-95.44 542.86,-84.79"/>
<polygon fill="#63b8ff" stroke="#63b8ff" points="543.91,-88.14 551.81,-81.09 541.23,-81.67 543.91,-88.14"/>
</a>
</g>
</g>
<!-- Node109&#45;&gt;Node98 -->
<g id="edge28_Node000109_Node000098" class="edge">
<title>Node109&#45;&gt;Node98</title>
<g id="a_edge28_Node000109_Node000098"><a xlink:title=" ">
<path fill="none" stroke="#63b8ff" d="M413.55,-121.36C410.85,-114.11 407.51,-105.13 404.42,-96.81"/>
<polygon fill="#63b8ff" stroke="#63b8ff" points="407.72,-95.65 400.95,-87.5 401.16,-98.09 407.72,-95.65"/>
</a>
</g>
</g>
<!-- Node125&#45;&gt;Node61 -->
<g id="edge40_Node000125_Node000061" class="edge">
<title>Node125&#45;&gt;Node61</title>
<g id="a_edge40_Node000125_Node000061"><a xlink:title=" ">
<path fill="none" stroke="#63b8ff" d="M953.02,-121.36C946.62,-111.98 938.26,-99.74 931.44,-89.73"/>
<polygon fill="#63b8ff" stroke="#63b8ff" points="934.4,-87.86 925.87,-81.57 928.62,-91.81 934.4,-87.86"/>
</a>
</g>
</g>
<!-- Node128&#45;&gt;Node9 -->
<g id="edge43_Node000128_Node000009" class="edge">
<title>Node128&#45;&gt;Node9</title>
<g id="a_edge43_Node000128_Node000009"><a xlink:title=" ">
<path fill="none" stroke="#63b8ff" d="M575,-127.03C575,-117.98 575,-103.7 575,-91.88"/>
<polygon fill="#63b8ff" stroke="#63b8ff" points="578.5,-91.91 575,-81.91 571.5,-91.91 578.5,-91.91"/>
</a>
</g>
</g>
<!-- Node133&#45;&gt;Node61 -->
<g id="edge45_Node000133_Node000061" class="edge">
<title>Node133&#45;&gt;Node61</title>
<g id="a_edge45_Node000133_Node000061"><a xlink:title=" ">
<path fill="none" stroke="#63b8ff" d="M1083.9,-126.9C1050.59,-115.71 993.9,-96.66 956.45,-84.08"/>
<polygon fill="#63b8ff" stroke="#63b8ff" points="957.99,-80.91 947.4,-81.04 955.76,-87.54 957.99,-80.91"/>
</a>
</g>
</g>
<!-- Node140&#45;&gt;Node9 -->
<g id="edge51_Node000140_Node000009" class="edge">
<title>Node140&#45;&gt;Node9</title>
<g id="a_edge51_Node000140_Node000009"><a xlink:title=" ">
<path fill="none" stroke="#63b8ff" d="M711.06,-121.36C680.76,-110.26 639.48,-95.13 610.36,-84.46"/>
<polygon fill="#63b8ff" stroke="#63b8ff" points="611.86,-81.28 601.26,-81.12 609.45,-87.85 611.86,-81.28"/>
</a>
</g>
</g>
<!-- Node140&#45;&gt;Node58 -->
<g id="edge50_Node000140_Node000058" class="edge">
<title>Node140&#45;&gt;Node58</title>
<g id="a_edge50_Node000140_Node000058"><a xlink:title=" ">
<path fill="none" stroke="#63b8ff" d="M755.99,-121.36C758.47,-114.11 761.53,-105.13 764.37,-96.81"/>
<polygon fill="#63b8ff" stroke="#63b8ff" points="767.62,-98.11 767.54,-87.51 761,-95.85 767.62,-98.11"/>
</a>
</g>
</g>
<!-- Node140&#45;&gt;Node61 -->
<g id="edge52_Node000140_Node000061" class="edge">
<title>Node140&#45;&gt;Node61</title>
<g id="a_edge52_Node000140_Node000061"><a xlink:title=" ">
<path fill="none" stroke="#63b8ff" d="M789.12,-121.36C818.01,-110.27 857.34,-95.17 885.13,-84.5"/>
<polygon fill="#63b8ff" stroke="#63b8ff" points="886.04,-87.9 894.12,-81.05 883.53,-81.37 886.04,-87.9"/>
</a>
</g>
</g>
<!-- Node141&#45;&gt;Node9 -->
<g id="edge55_Node000141_Node000009" class="edge">
<title>Node141&#45;&gt;Node9</title>
<g id="a_edge55_Node000141_Node000009"><a xlink:title=" ">
<path fill="none" stroke="#63b8ff" d="M1191.7,-122.82C1188.77,-122.44 1185.86,-122.08 1183,-121.75 976.67,-97.66 923.91,-104.12 717,-85.75 693.88,-83.7 668.67,-81.24 645.99,-78.95"/>
<polygon fill="#63b8ff" stroke="#63b8ff" points="646.54,-75.48 636.24,-77.95 645.84,-82.45 646.54,-75.48"/>
</a>
</g>
</g>
<!-- Node141&#45;&gt;Node79 -->
<g id="edge54_Node000141_Node000079" class="edge">
<title>Node141&#45;&gt;Node79</title>
<g id="a_edge54_Node000141_Node000079"><a xlink:title=" ">
<path fill="none" stroke="#63b8ff" d="M1276.72,-121.36C1278.38,-112.48 1280.51,-101.02 1282.31,-91.33"/>
<polygon fill="#63b8ff" stroke="#63b8ff" points="1285.69,-92.28 1284.08,-81.81 1278.81,-91 1285.69,-92.28"/>
</a>
</g>
</g>
<!-- Node141&#45;&gt;Node122 -->
<g id="edge56_Node000141_Node000122" class="edge">
<title>Node141&#45;&gt;Node122</title>
<g id="a_edge56_Node000141_Node000122"><a xlink:title=" ">
<path fill="none" stroke="#63b8ff" d="M1302.14,-121.36C1322.61,-110.71 1350.19,-96.37 1370.51,-85.8"/>
<polygon fill="#63b8ff" stroke="#63b8ff" points="1372.08,-88.93 1379.34,-81.21 1368.85,-82.72 1372.08,-88.93"/>
</a>
</g>
</g>
</g>
</svg>
