<?xml version="1.0" encoding="UTF-8" standalone="no"?>
<!DOCTYPE svg PUBLIC "-//W3C//DTD SVG 1.1//EN"
 "http://www.w3.org/Graphics/SVG/1.1/DTD/svg11.dtd">
<!-- Generated by graphviz version 9.0.0 (20230911.1827)
 -->
<!-- Title: src/core/constants.hpp Pages: 1 -->
<svg width="1670pt" height="105pt"
 viewBox="0.00 0.00 1670.12 105.00" xmlns="http://www.w3.org/2000/svg" xmlns:xlink="http://www.w3.org/1999/xlink">
<g id="graph0" class="graph" transform="scale(1 1) rotate(0) translate(4 101)">
<title>src/core/constants.hpp</title>
<!-- Node1 -->
<g id="Node000001" class="node">
<title>Node1</title>
<g id="a_Node000001"><a xlink:title=" ">
<polygon fill="#999999" stroke="#666666" points="906.62,-97 791.62,-97 791.62,-77.75 906.62,-77.75 906.62,-97"/>
<text text-anchor="middle" x="849.12" y="-83.5" font-family="Helvetica,sans-Serif" font-size="10.00">src/core/constants.hpp</text>
</a>
</g>
</g>
<!-- Node2 -->
<g id="Node000002" class="node">
<title>Node2</title>
<g id="a_Node000002"><a xlink:href="../../df/d22/configuration_8cpp.html" target="_top" xlink:title=" ">
<polygon fill="white" stroke="#666666" points="120.25,-36.12 0,-36.12 0,-5.62 120.25,-5.62 120.25,-36.12"/>
<text text-anchor="start" x="8" y="-22.62" font-family="Helvetica,sans-Serif" font-size="10.00">src/core/implementation</text>
<text text-anchor="middle" x="60.12" y="-11.38" font-family="Helvetica,sans-Serif" font-size="10.00">/configuration.cpp</text>
</a>
</g>
</g>
<!-- Node1&#45;&gt;Node2 -->
<g id="edge1_Node000001_Node000002" class="edge">
<title>Node1&#45;&gt;Node2</title>
<g id="a_edge1_Node000001_Node000002"><a xlink:title=" ">
<path fill="none" stroke="#63b8ff" d="M779.99,-87.08C651.02,-87.31 365.42,-82.6 129.12,-41.75 121.51,-40.43 113.53,-38.59 105.82,-36.55"/>
<polygon fill="#63b8ff" stroke="#63b8ff" points="779.73,-90.59 789.72,-87.06 779.71,-83.59 779.73,-90.59"/>
</a>
</g>
</g>
<!-- Node3 -->
<g id="Node000003" class="node">
<title>Node3</title>
<g id="a_Node000003"><a xlink:href="../../d6/d80/constants_8cpp.html" target="_top" xlink:title=" ">
<polygon fill="white" stroke="#666666" points="258.25,-36.12 138,-36.12 138,-5.62 258.25,-5.62 258.25,-36.12"/>
<text text-anchor="start" x="146" y="-22.62" font-family="Helvetica,sans-Serif" font-size="10.00">src/core/implementation</text>
<text text-anchor="middle" x="198.12" y="-11.38" font-family="Helvetica,sans-Serif" font-size="10.00">/constants.cpp</text>
</a>
</g>
</g>
<!-- Node1&#45;&gt;Node3 -->
<g id="edge2_Node000001_Node000003" class="edge">
<title>Node1&#45;&gt;Node3</title>
<g id="a_edge2_Node000001_Node000003"><a xlink:title=" ">
<path fill="none" stroke="#63b8ff" d="M780.14,-85.52C670.74,-83.18 451.12,-74.42 268.12,-41.75 260.54,-40.4 252.59,-38.56 244.89,-36.55"/>
<polygon fill="#63b8ff" stroke="#63b8ff" points="779.75,-89.02 789.82,-85.72 779.89,-82.02 779.75,-89.02"/>
</a>
</g>
</g>
<!-- Node4 -->
<g id="Node000004" class="node">
<title>Node4</title>
<g id="a_Node000004"><a xlink:href="../../d1/d26/thumbnail__generator_8cpp.html" target="_top" xlink:title=" ">
<polygon fill="white" stroke="#666666" points="401.5,-36.12 276.75,-36.12 276.75,-5.62 401.5,-5.62 401.5,-36.12"/>
<text text-anchor="start" x="284.75" y="-22.62" font-family="Helvetica,sans-Serif" font-size="10.00">src/core/implementation</text>
<text text-anchor="middle" x="339.12" y="-11.38" font-family="Helvetica,sans-Serif" font-size="10.00">/thumbnail_generator.cpp</text>
</a>
</g>
</g>
<!-- Node1&#45;&gt;Node4 -->
<g id="edge3_Node000001_Node000004" class="edge">
<title>Node1&#45;&gt;Node4</title>
<g id="a_edge3_Node000001_Node000004"><a xlink:title=" ">
<path fill="none" stroke="#63b8ff" d="M779.84,-83.01C692.88,-77.95 539.43,-66.23 410.12,-41.75 402.7,-40.35 394.93,-38.53 387.37,-36.57"/>
<polygon fill="#63b8ff" stroke="#63b8ff" points="779.45,-86.5 789.63,-83.57 779.85,-79.51 779.45,-86.5"/>
</a>
</g>
</g>
<!-- Node5 -->
<g id="Node000005" class="node">
<title>Node5</title>
<g id="a_Node000005"><a xlink:href="../../da/d25/video__media__information_8cpp.html" target="_top" xlink:title=" ">
<polygon fill="white" stroke="#666666" points="564.62,-36.12 419.62,-36.12 419.62,-5.62 564.62,-5.62 564.62,-36.12"/>
<text text-anchor="start" x="427.62" y="-22.62" font-family="Helvetica,sans-Serif" font-size="10.00">src/core/implementation</text>
<text text-anchor="middle" x="492.12" y="-11.38" font-family="Helvetica,sans-Serif" font-size="10.00">/video_media_information.cpp</text>
</a>
</g>
</g>
<!-- Node1&#45;&gt;Node5 -->
<g id="edge4_Node000001_Node000005" class="edge">
<title>Node1&#45;&gt;Node5</title>
<g id="a_edge4_Node000001_Node000005"><a xlink:title=" ">
<path fill="none" stroke="#63b8ff" d="M780.05,-76.67C724.27,-68.47 643.87,-55.84 574.12,-41.75 566.37,-40.18 558.24,-38.39 550.24,-36.54"/>
<polygon fill="#63b8ff" stroke="#63b8ff" points="779.32,-80.1 789.72,-78.08 780.33,-73.17 779.32,-80.1"/>
</a>
</g>
</g>
<!-- Node6 -->
<g id="Node000006" class="node">
<title>Node6</title>
<g id="a_Node000006"><a xlink:href="../../d5/daa/tables_8cpp.html" target="_top" xlink:title=" ">
<polygon fill="white" stroke="#666666" points="709.25,-36.12 583,-36.12 583,-5.62 709.25,-5.62 709.25,-36.12"/>
<text text-anchor="start" x="591" y="-22.62" font-family="Helvetica,sans-Serif" font-size="10.00">src/database/backends</text>
<text text-anchor="middle" x="646.12" y="-11.38" font-family="Helvetica,sans-Serif" font-size="10.00">/sql_backends/tables.cpp</text>
</a>
</g>
</g>
<!-- Node1&#45;&gt;Node6 -->
<g id="edge5_Node000001_Node000006" class="edge">
<title>Node1&#45;&gt;Node6</title>
<g id="a_edge5_Node000001_Node000006"><a xlink:title=" ">
<path fill="none" stroke="#63b8ff" d="M809.67,-73.84C776.03,-63.15 727.64,-47.78 692.23,-36.52"/>
<polygon fill="#63b8ff" stroke="#63b8ff" points="808.44,-77.12 819.03,-76.81 810.56,-70.45 808.44,-77.12"/>
</a>
</g>
</g>
<!-- Node7 -->
<g id="Node000007" class="node">
<title>Node7</title>
<g id="a_Node000007"><a xlink:href="../../dd/d2e/tools__tab_8cpp.html" target="_top" xlink:title=" ">
<polygon fill="white" stroke="#666666" points="838.75,-36.12 727.5,-36.12 727.5,-5.62 838.75,-5.62 838.75,-36.12"/>
<text text-anchor="start" x="735.5" y="-22.62" font-family="Helvetica,sans-Serif" font-size="10.00">src/gui/desktop/config</text>
<text text-anchor="middle" x="783.12" y="-11.38" font-family="Helvetica,sans-Serif" font-size="10.00">_tabs/tools_tab.cpp</text>
</a>
</g>
</g>
<!-- Node1&#45;&gt;Node7 -->
<g id="edge6_Node000001_Node000007" class="edge">
<title>Node1&#45;&gt;Node7</title>
<g id="a_edge6_Node000001_Node000007"><a xlink:title=" ">
<path fill="none" stroke="#63b8ff" d="M831.86,-69.5C821.27,-59.16 807.87,-46.06 797.8,-36.22"/>
<polygon fill="#63b8ff" stroke="#63b8ff" points="829.27,-71.86 838.87,-76.35 834.16,-66.86 829.27,-71.86"/>
</a>
</g>
</g>
<!-- Node8 -->
<g id="Node000008" class="node">
<title>Node8</title>
<g id="a_Node000008"><a xlink:href="../../d4/d46/gui_8cpp.html" target="_top" xlink:title=" ">
<polygon fill="white" stroke="#666666" points="973.38,-30.5 856.88,-30.5 856.88,-11.25 973.38,-11.25 973.38,-30.5"/>
<text text-anchor="middle" x="915.12" y="-17" font-family="Helvetica,sans-Serif" font-size="10.00">src/gui/desktop/gui.cpp</text>
</a>
</g>
</g>
<!-- Node1&#45;&gt;Node8 -->
<g id="edge7_Node000001_Node000008" class="edge">
<title>Node1&#45;&gt;Node8</title>
<g id="a_edge7_Node000001_Node000008"><a xlink:title=" ">
<path fill="none" stroke="#63b8ff" d="M866.31,-69.58C879.02,-57.16 895.81,-40.75 906.03,-30.77"/>
<polygon fill="#63b8ff" stroke="#63b8ff" points="864.09,-66.86 859.38,-76.35 868.98,-71.86 864.09,-66.86"/>
</a>
</g>
</g>
<!-- Node9 -->
<g id="Node000009" class="node">
<title>Node9</title>
<g id="a_Node000009"><a xlink:href="../../d8/dd9/mainwindow_8cpp.html" target="_top" xlink:title=" ">
<polygon fill="white" stroke="#666666" points="1084.75,-36.12 991.5,-36.12 991.5,-5.62 1084.75,-5.62 1084.75,-36.12"/>
<text text-anchor="start" x="999.5" y="-22.62" font-family="Helvetica,sans-Serif" font-size="10.00">src/gui/desktop/ui</text>
<text text-anchor="middle" x="1038.12" y="-11.38" font-family="Helvetica,sans-Serif" font-size="10.00">/mainwindow.cpp</text>
</a>
</g>
</g>
<!-- Node1&#45;&gt;Node9 -->
<g id="edge8_Node000001_Node000009" class="edge">
<title>Node1&#45;&gt;Node9</title>
<g id="a_edge8_Node000001_Node000009"><a xlink:title=" ">
<path fill="none" stroke="#63b8ff" d="M887.45,-73.71C914.06,-64.87 950.3,-52.74 982.12,-41.75 986.9,-40.1 991.9,-38.35 996.87,-36.61"/>
<polygon fill="#63b8ff" stroke="#63b8ff" points="886.51,-70.34 878.12,-76.81 888.71,-76.98 886.51,-70.34"/>
</a>
</g>
</g>
<!-- Node10 -->
<g id="Node000010" class="node">
<title>Node10</title>
<g id="a_Node000010"><a xlink:href="../../d3/d90/photos__grouping__dialog_8cpp.html" target="_top" xlink:title=" ">
<polygon fill="white" stroke="#666666" points="1241.62,-36.12 1102.62,-36.12 1102.62,-5.62 1241.62,-5.62 1241.62,-36.12"/>
<text text-anchor="start" x="1110.62" y="-22.62" font-family="Helvetica,sans-Serif" font-size="10.00">src/gui/desktop/ui</text>
<text text-anchor="middle" x="1172.12" y="-11.38" font-family="Helvetica,sans-Serif" font-size="10.00">/photos_grouping_dialog.cpp</text>
</a>
</g>
</g>
<!-- Node1&#45;&gt;Node10 -->
<g id="edge9_Node000001_Node000010" class="edge">
<title>Node1&#45;&gt;Node10</title>
<g id="a_edge9_Node000001_Node000010"><a xlink:title=" ">
<path fill="none" stroke="#63b8ff" d="M916.47,-75.4C965.83,-67.05 1034.36,-54.79 1094.12,-41.75 1101.36,-40.17 1108.94,-38.39 1116.42,-36.57"/>
<polygon fill="#63b8ff" stroke="#63b8ff" points="916.07,-71.92 906.79,-77.03 917.23,-78.82 916.07,-71.92"/>
</a>
</g>
</g>
<!-- Node11 -->
<g id="Node000011" class="node">
<title>Node11</title>
<g id="a_Node000011"><a xlink:href="../../d4/ddb/features__manager_8cpp.html" target="_top" xlink:title=" ">
<polygon fill="white" stroke="#666666" points="1374.62,-36.12 1259.62,-36.12 1259.62,-5.62 1374.62,-5.62 1374.62,-36.12"/>
<text text-anchor="start" x="1267.62" y="-22.62" font-family="Helvetica,sans-Serif" font-size="10.00">src/gui/desktop/utils</text>
<text text-anchor="middle" x="1317.12" y="-11.38" font-family="Helvetica,sans-Serif" font-size="10.00">/features_manager.cpp</text>
</a>
</g>
</g>
<!-- Node1&#45;&gt;Node11 -->
<g id="edge10_Node000001_Node000011" class="edge">
<title>Node1&#45;&gt;Node11</title>
<g id="a_edge10_Node000001_Node000011"><a xlink:title=" ">
<path fill="none" stroke="#63b8ff" d="M918.36,-82.53C998.94,-77.17 1135.71,-65.33 1251.12,-41.75 1258.04,-40.34 1265.28,-38.52 1272.32,-36.56"/>
<polygon fill="#63b8ff" stroke="#63b8ff" points="918.15,-79.03 908.4,-83.17 918.6,-86.02 918.15,-79.03"/>
</a>
</g>
</g>
<!-- Node12 -->
<g id="Node000012" class="node">
<title>Node12</title>
<g id="a_Node000012"><a xlink:href="../../d2/d8c/thumbnail__manager_8cpp.html" target="_top" xlink:title=" ">
<polygon fill="white" stroke="#666666" points="1514,-36.12 1392.25,-36.12 1392.25,-5.62 1514,-5.62 1514,-36.12"/>
<text text-anchor="start" x="1400.25" y="-22.62" font-family="Helvetica,sans-Serif" font-size="10.00">src/gui/desktop/utils</text>
<text text-anchor="middle" x="1453.12" y="-11.38" font-family="Helvetica,sans-Serif" font-size="10.00">/thumbnail_manager.cpp</text>
</a>
</g>
</g>
<!-- Node1&#45;&gt;Node12 -->
<g id="edge11_Node000001_Node000012" class="edge">
<title>Node1&#45;&gt;Node12</title>
<g id="a_edge11_Node000001_Node000012"><a xlink:title=" ">
<path fill="none" stroke="#63b8ff" d="M918.44,-84.95C1021,-81.86 1218.85,-72.14 1384.12,-41.75 1391.48,-40.4 1399.18,-38.59 1406.66,-36.61"/>
<polygon fill="#63b8ff" stroke="#63b8ff" points="918.43,-81.45 908.53,-85.23 918.63,-88.44 918.43,-81.45"/>
</a>
</g>
</g>
<!-- Node13 -->
<g id="Node000013" class="node">
<title>Node13</title>
<g id="a_Node000013"><a xlink:href="../../d5/d72/thumbnails__manager__tests_8cpp.html" target="_top" xlink:title=" ">
<polygon fill="white" stroke="#666666" points="1662.12,-41.75 1532.12,-41.75 1532.12,0 1662.12,0 1662.12,-41.75"/>
<text text-anchor="start" x="1540.12" y="-28.25" font-family="Helvetica,sans-Serif" font-size="10.00">src/gui/unit_tests</text>
<text text-anchor="start" x="1540.12" y="-17" font-family="Helvetica,sans-Serif" font-size="10.00">/utils/thumbnails_manager</text>
<text text-anchor="middle" x="1597.12" y="-5.75" font-family="Helvetica,sans-Serif" font-size="10.00">_tests.cpp</text>
</a>
</g>
</g>
<!-- Node1&#45;&gt;Node13 -->
<g id="edge12_Node000001_Node000013" class="edge">
<title>Node1&#45;&gt;Node13</title>
<g id="a_edge12_Node000001_Node000013"><a xlink:title=" ">
<path fill="none" stroke="#63b8ff" d="M918.24,-86.26C1040.89,-85.05 1304.3,-78.02 1523.12,-41.75 1526.01,-41.27 1528.95,-40.73 1531.91,-40.14"/>
<polygon fill="#63b8ff" stroke="#63b8ff" points="918.3,-82.75 908.33,-86.34 918.36,-89.75 918.3,-82.75"/>
</a>
</g>
</g>
</g>
</svg>
