<?xml version="1.0" encoding="UTF-8" standalone="no"?>
<!DOCTYPE svg PUBLIC "-//W3C//DTD SVG 1.1//EN"
 "http://www.w3.org/Graphics/SVG/1.1/DTD/svg11.dtd">
<!-- Generated by graphviz version 9.0.0 (20230911.1827)
 -->
<!-- Title: src/unit_tests_utils/printers.hpp Pages: 1 -->
<svg width="341pt" height="94pt"
 viewBox="0.00 0.00 341.25 93.75" xmlns="http://www.w3.org/2000/svg" xmlns:xlink="http://www.w3.org/1999/xlink">

<svg id="main" version="1.1" xmlns="http://www.w3.org/2000/svg" xmlns:xlink="http://www.w3.org/1999/xlink" xml:space="preserve" onload="init(evt)">
<style type="text/css"><![CDATA[
.node, .edge {opacity: 0.7;}
.node.selected, .edge.selected {opacity: 1;}
.edge:hover path { stroke: red; }
.edge:hover polygon { stroke: red; fill: red; }
]]></style>
<script type="application/ecmascript" xlink:href="../../svg.min.js"/>
<svg id="graph" class="graph">
<g id="graph0" class="graph" transform="scale(1 1) rotate(0) translate(4 89.75)">
<title>src/unit_tests_utils/printers.hpp</title>
<!-- Node1 -->
<g id="Node000001" class="node">
<title>Node1</title>
<g id="a_Node000001"><a xlink:title=" ">
<polygon fill="#999999" stroke="#666666" points="233,-85.75 134.5,-85.75 134.5,-55.25 233,-55.25 233,-85.75"/>
<text text-anchor="start" x="142.5" y="-72.25" font-family="Helvetica,sans-Serif" font-size="10.00">src/unit_tests_utils</text>
<text text-anchor="middle" x="183.75" y="-61" font-family="Helvetica,sans-Serif" font-size="10.00">/printers.hpp</text>
</a>
</g>
</g>
<!-- Node2 -->
<g id="Node000002" class="node">
<title>Node2</title>
<g id="a_Node000002"><a xlink:title=" ">
<polygon fill="#e0e0e0" stroke="#999999" points="53.5,-19.25 0,-19.25 0,0 53.5,0 53.5,-19.25"/>
<text text-anchor="middle" x="26.75" y="-5.75" font-family="Helvetica,sans-Serif" font-size="10.00">iostream</text>
</a>
</g>
</g>
<!-- Node1&#45;&gt;Node2 -->
<g id="edge1_Node000001_Node000002" class="edge">
<title>Node1&#45;&gt;Node2</title>
<g id="a_edge1_Node000001_Node000002"><a xlink:title=" ">
<path fill="none" stroke="#63b8ff" d="M144.54,-54.8C119.02,-45.23 86.04,-32.86 61.47,-23.64"/>
<polygon fill="#63b8ff" stroke="#63b8ff" points="62.84,-20.42 52.24,-20.19 60.38,-26.97 62.84,-20.42"/>
</a>
</g>
</g>
<!-- Node3 -->
<g id="Node000003" class="node">
<title>Node3</title>
<g id="a_Node000003"><a xlink:title=" ">
<polygon fill="#e0e0e0" stroke="#999999" points="144.25,-19.25 71.25,-19.25 71.25,0 144.25,0 144.25,-19.25"/>
<text text-anchor="middle" x="107.75" y="-5.75" font-family="Helvetica,sans-Serif" font-size="10.00">QModelIndex</text>
</a>
</g>
</g>
<!-- Node1&#45;&gt;Node3 -->
<g id="edge2_Node000001_Node000003" class="edge">
<title>Node1&#45;&gt;Node3</title>
<g id="a_edge2_Node000001_Node000003"><a xlink:title=" ">
<path fill="none" stroke="#63b8ff" d="M164.96,-54.95C153.84,-46.33 139.73,-35.4 128.31,-26.55"/>
<polygon fill="#63b8ff" stroke="#63b8ff" points="130.71,-23.99 120.66,-20.63 126.42,-29.52 130.71,-23.99"/>
</a>
</g>
</g>
<!-- Node4 -->
<g id="Node000004" class="node">
<title>Node4</title>
<g id="a_Node000004"><a xlink:title=" ">
<polygon fill="#e0e0e0" stroke="#999999" points="205.62,-19.25 161.88,-19.25 161.88,0 205.62,0 205.62,-19.25"/>
<text text-anchor="middle" x="183.75" y="-5.75" font-family="Helvetica,sans-Serif" font-size="10.00">QRect</text>
</a>
</g>
</g>
<!-- Node1&#45;&gt;Node4 -->
<g id="edge3_Node000001_Node000004" class="edge">
<title>Node1&#45;&gt;Node4</title>
<g id="a_edge3_Node000001_Node000004"><a xlink:title=" ">
<path fill="none" stroke="#63b8ff" d="M183.75,-54.95C183.75,-47.71 183.75,-38.84 183.75,-30.94"/>
<polygon fill="#63b8ff" stroke="#63b8ff" points="187.25,-31.21 183.75,-21.21 180.25,-31.21 187.25,-31.21"/>
</a>
</g>
</g>
<!-- Node5 -->
<g id="Node000005" class="node">
<title>Node5</title>
<g id="a_Node000005"><a xlink:title=" ">
<polygon fill="#e0e0e0" stroke="#999999" points="265.88,-19.25 223.62,-19.25 223.62,0 265.88,0 265.88,-19.25"/>
<text text-anchor="middle" x="244.75" y="-5.75" font-family="Helvetica,sans-Serif" font-size="10.00">QSize</text>
</a>
</g>
</g>
<!-- Node1&#45;&gt;Node5 -->
<g id="edge4_Node000001_Node000005" class="edge">
<title>Node1&#45;&gt;Node5</title>
<g id="a_edge4_Node000001_Node000005"><a xlink:title=" ">
<path fill="none" stroke="#63b8ff" d="M198.83,-54.95C207.4,-46.67 218.18,-36.27 227.14,-27.62"/>
<polygon fill="#63b8ff" stroke="#63b8ff" points="229.49,-30.22 234.26,-20.75 224.63,-25.18 229.49,-30.22"/>
</a>
</g>
</g>
<!-- Node6 -->
<g id="Node000006" class="node">
<title>Node6</title>
<g id="a_Node000006"><a xlink:title=" ">
<polygon fill="#e0e0e0" stroke="#999999" points="333.25,-19.25 284.25,-19.25 284.25,0 333.25,0 333.25,-19.25"/>
<text text-anchor="middle" x="308.75" y="-5.75" font-family="Helvetica,sans-Serif" font-size="10.00">QString</text>
</a>
</g>
</g>
<!-- Node1&#45;&gt;Node6 -->
<g id="edge5_Node000001_Node000006" class="edge">
<title>Node1&#45;&gt;Node6</title>
<g id="a_edge5_Node000001_Node000006"><a xlink:title=" ">
<path fill="none" stroke="#63b8ff" d="M214.97,-54.8C234.65,-45.53 259.9,-33.63 279.24,-24.52"/>
<polygon fill="#63b8ff" stroke="#63b8ff" points="280.66,-27.73 288.21,-20.3 277.67,-21.39 280.66,-27.73"/>
</a>
</g>
</g>
</g>
</svg>
</svg>

<style type='text/css'>
<![CDATA[
[data-mouse-over-selected='false'] { opacity: 0.7; }
[data-mouse-over-selected='true']  { opacity: 1.0; }
]]>
</style>
<script type="application/ecmascript"><![CDATA[
document.addEventListener('DOMContentLoaded', (event) => {
  highlightEdges();
  highlightAdjacentNodes();
});
]]></script>
</svg>
