<?xml version="1.0" encoding="UTF-8" standalone="no"?>
<!DOCTYPE svg PUBLIC "-//W3C//DTD SVG 1.1//EN"
 "http://www.w3.org/Graphics/SVG/1.1/DTD/svg11.dtd">
<!-- Generated by graphviz version 12.2.0 (20241103.1931)
 -->
<!-- Title: src/gui/desktop/ui/photos_grouping_dialog.hpp Pages: 1 -->
<svg width="632pt" height="160pt"
 viewBox="0.00 0.00 631.88 160.25" xmlns="http://www.w3.org/2000/svg" xmlns:xlink="http://www.w3.org/1999/xlink">
<g id="graph0" class="graph" transform="scale(1 1) rotate(0) translate(4 156.25)">
<title>src/gui/desktop/ui/photos_grouping_dialog.hpp</title>
<!-- Node1 -->
<g id="Node000001" class="node">
<title>Node1</title>
<g id="a_Node000001"><a xlink:title=" ">
<polygon fill="#999999" stroke="#666666" points="362.75,-152.25 223.75,-152.25 223.75,-121.75 362.75,-121.75 362.75,-152.25"/>
<text text-anchor="start" x="231.75" y="-138.75" font-family="Helvetica,sans-Serif" font-size="10.00">src/gui/desktop/ui</text>
<text text-anchor="middle" x="293.25" y="-127.5" font-family="Helvetica,sans-Serif" font-size="10.00">/photos_grouping_dialog.hpp</text>
</a>
</g>
</g>
<!-- Node2 -->
<g id="Node000002" class="node">
<title>Node2</title>
<g id="a_Node000002"><a xlink:title=" ">
<polygon fill="#e0e0e0" stroke="#999999" points="50.5,-80.12 0,-80.12 0,-60.88 50.5,-60.88 50.5,-80.12"/>
<text text-anchor="middle" x="25.25" y="-66.62" font-family="Helvetica,sans-Serif" font-size="10.00">QDialog</text>
</a>
</g>
</g>
<!-- Node1&#45;&gt;Node2 -->
<g id="edge1_Node000001_Node000002" class="edge">
<title>Node1&#45;&gt;Node2</title>
<g id="a_edge1_Node000001_Node000002"><a xlink:title=" ">
<path fill="none" stroke="#63b8ff" d="M223.26,-124.48C176.3,-115.9 113.36,-102.74 59.25,-85.75 58.09,-85.39 56.91,-85 55.73,-84.59"/>
<polygon fill="#63b8ff" stroke="#63b8ff" points="57.16,-81.39 46.57,-81.11 54.67,-87.93 57.16,-81.39"/>
</a>
</g>
</g>
<!-- Node3 -->
<g id="Node000003" class="node">
<title>Node3</title>
<g id="a_Node000003"><a xlink:title=" ">
<polygon fill="#e0e0e0" stroke="#999999" points="176.38,-80.12 68.12,-80.12 68.12,-60.88 176.38,-60.88 176.38,-80.12"/>
<text text-anchor="middle" x="122.25" y="-66.62" font-family="Helvetica,sans-Serif" font-size="10.00">QStandardItemModel</text>
</a>
</g>
</g>
<!-- Node1&#45;&gt;Node3 -->
<g id="edge2_Node000001_Node000003" class="edge">
<title>Node1&#45;&gt;Node3</title>
<g id="a_edge2_Node000001_Node000003"><a xlink:title=" ">
<path fill="none" stroke="#63b8ff" d="M254.45,-121.36C225.04,-110.27 185.01,-95.17 156.73,-84.5"/>
<polygon fill="#63b8ff" stroke="#63b8ff" points="158.14,-81.3 147.55,-81.04 155.67,-87.85 158.14,-81.3"/>
</a>
</g>
</g>
<!-- Node4 -->
<g id="Node000004" class="node">
<title>Node4</title>
<g id="a_Node000004"><a xlink:title=" ">
<polygon fill="#e0e0e0" stroke="#999999" points="308,-80.12 194.5,-80.12 194.5,-60.88 308,-60.88 308,-80.12"/>
<text text-anchor="middle" x="251.25" y="-66.62" font-family="Helvetica,sans-Serif" font-size="10.00">QSortFilterProxyModel</text>
</a>
</g>
</g>
<!-- Node1&#45;&gt;Node4 -->
<g id="edge3_Node000001_Node000004" class="edge">
<title>Node1&#45;&gt;Node4</title>
<g id="a_edge3_Node000001_Node000004"><a xlink:title=" ">
<path fill="none" stroke="#63b8ff" d="M283.72,-121.36C277.61,-111.98 269.64,-99.74 263.12,-89.73"/>
<polygon fill="#63b8ff" stroke="#63b8ff" points="266.21,-88.06 257.82,-81.59 260.34,-91.88 266.21,-88.06"/>
</a>
</g>
</g>
<!-- Node5 -->
<g id="Node000005" class="node">
<title>Node5</title>
<g id="a_Node000005"><a xlink:title=" ">
<polygon fill="#e0e0e0" stroke="#999999" points="474.5,-19.25 424,-19.25 424,0 474.5,0 474.5,-19.25"/>
<text text-anchor="middle" x="449.25" y="-5.75" font-family="Helvetica,sans-Serif" font-size="10.00">memory</text>
</a>
</g>
</g>
<!-- Node1&#45;&gt;Node5 -->
<g id="edge4_Node000001_Node000005" class="edge">
<title>Node1&#45;&gt;Node5</title>
<g id="a_edge4_Node000001_Node000005"><a xlink:title=" ">
<path fill="none" stroke="#63b8ff" d="M301.44,-121.49C311.98,-103.89 331.74,-74.25 355.25,-55.25 372.44,-41.36 394.66,-30.56 413.18,-23.06"/>
<polygon fill="#63b8ff" stroke="#63b8ff" points="414.39,-26.35 422.46,-19.47 411.87,-19.82 414.39,-26.35"/>
</a>
</g>
</g>
<!-- Node6 -->
<g id="Node000006" class="node">
<title>Node6</title>
<g id="a_Node000006"><a xlink:href="../../d8/d0e/explicit__photo__delta_8hpp.html" target="_top" xlink:title=" ">
<polygon fill="#fff0f0" stroke="red" points="482.25,-85.75 364.25,-85.75 364.25,-55.25 482.25,-55.25 482.25,-85.75"/>
<text text-anchor="start" x="372.25" y="-72.25" font-family="Helvetica,sans-Serif" font-size="10.00">database/explicit_photo</text>
<text text-anchor="middle" x="423.25" y="-61" font-family="Helvetica,sans-Serif" font-size="10.00">_delta.hpp</text>
</a>
</g>
</g>
<!-- Node1&#45;&gt;Node6 -->
<g id="edge5_Node000001_Node000006" class="edge">
<title>Node1&#45;&gt;Node6</title>
<g id="a_edge5_Node000001_Node000006"><a xlink:title=" ">
<path fill="none" stroke="#63b8ff" d="M322.75,-121.36C340.78,-112.42 364.08,-100.86 383.7,-91.12"/>
<polygon fill="#63b8ff" stroke="#63b8ff" points="385.11,-94.33 392.51,-86.75 382,-88.06 385.11,-94.33"/>
</a>
</g>
</g>
<!-- Node36 -->
<g id="Node000036" class="node">
<title>Node36</title>
<g id="a_Node000036"><a xlink:href="../../de/da5/generator__utils_8hpp.html" target="_top" xlink:title=" ">
<polygon fill="#fff0f0" stroke="red" points="623.88,-85.75 500.62,-85.75 500.62,-55.25 623.88,-55.25 623.88,-85.75"/>
<text text-anchor="start" x="508.62" y="-72.25" font-family="Helvetica,sans-Serif" font-size="10.00">utils/grouppers/generator</text>
<text text-anchor="middle" x="562.25" y="-61" font-family="Helvetica,sans-Serif" font-size="10.00">_utils.hpp</text>
</a>
</g>
</g>
<!-- Node1&#45;&gt;Node36 -->
<g id="edge6_Node000001_Node000036" class="edge">
<title>Node1&#45;&gt;Node36</title>
<g id="a_edge6_Node000001_Node000036"><a xlink:title=" ">
<path fill="none" stroke="#63b8ff" d="M354.63,-121.28C394.91,-111.62 447.77,-98.95 490.07,-88.81"/>
<polygon fill="#63b8ff" stroke="#63b8ff" points="490.76,-92.24 499.66,-86.51 489.12,-85.43 490.76,-92.24"/>
</a>
</g>
</g>
<!-- Node36&#45;&gt;Node5 -->
<g id="edge7_Node000036_Node000005" class="edge">
<title>Node36&#45;&gt;Node5</title>
<g id="a_edge7_Node000036_Node000005"><a xlink:title=" ">
<path fill="none" stroke="#63b8ff" d="M534.03,-54.8C516.49,-45.66 494.05,-33.97 476.66,-24.91"/>
<polygon fill="#63b8ff" stroke="#63b8ff" points="478.41,-21.87 467.92,-20.35 475.17,-28.08 478.41,-21.87"/>
</a>
</g>
</g>
</g>
</svg>
