<?xml version="1.0" encoding="UTF-8" standalone="no"?>
<!DOCTYPE svg PUBLIC "-//W3C//DTD SVG 1.1//EN"
 "http://www.w3.org/Graphics/SVG/1.1/DTD/svg11.dtd">
<!-- Generated by graphviz version 12.2.0 (20241103.1931)
 -->
<!-- Title: src/core/image_aligner.hpp Pages: 1 -->
<svg width="400pt" height="138pt"
 viewBox="0.00 0.00 399.88 137.75" xmlns="http://www.w3.org/2000/svg" xmlns:xlink="http://www.w3.org/1999/xlink">
<g id="graph0" class="graph" transform="scale(1 1) rotate(0) translate(4 133.75)">
<title>src/core/image_aligner.hpp</title>
<!-- Node1 -->
<g id="Node000001" class="node">
<title>Node1</title>
<g id="a_Node000001"><a xlink:title=" ">
<polygon fill="#999999" stroke="#666666" points="264.88,-129.75 132.62,-129.75 132.62,-110.5 264.88,-110.5 264.88,-129.75"/>
<text text-anchor="middle" x="198.75" y="-116.25" font-family="Helvetica,sans-Serif" font-size="10.00">src/core/image_aligner.hpp</text>
</a>
</g>
</g>
<!-- Node2 -->
<g id="Node000002" class="node">
<title>Node2</title>
<g id="a_Node000002"><a xlink:title=" ">
<polygon fill="#e0e0e0" stroke="#999999" points="65.5,-74.5 0,-74.5 0,-55.25 65.5,-55.25 65.5,-74.5"/>
<text text-anchor="middle" x="32.75" y="-61" font-family="Helvetica,sans-Serif" font-size="10.00">QStringList</text>
</a>
</g>
</g>
<!-- Node1&#45;&gt;Node2 -->
<g id="edge1_Node000001_Node000002" class="edge">
<title>Node1&#45;&gt;Node2</title>
<g id="a_edge1_Node000001_Node000002"><a xlink:title=" ">
<path fill="none" stroke="#63b8ff" d="M170.59,-110.09C143.4,-101.37 102.01,-88.09 71.68,-78.36"/>
<polygon fill="#63b8ff" stroke="#63b8ff" points="73.08,-75.14 62.49,-75.41 70.94,-81.8 73.08,-75.14"/>
</a>
</g>
</g>
<!-- Node3 -->
<g id="Node000003" class="node">
<title>Node3</title>
<g id="a_Node000003"><a xlink:title=" ">
<polygon fill="#e0e0e0" stroke="#999999" points="127.62,-74.5 83.88,-74.5 83.88,-55.25 127.62,-55.25 127.62,-74.5"/>
<text text-anchor="middle" x="105.75" y="-61" font-family="Helvetica,sans-Serif" font-size="10.00">QRect</text>
</a>
</g>
</g>
<!-- Node1&#45;&gt;Node3 -->
<g id="edge2_Node000001_Node000003" class="edge">
<title>Node1&#45;&gt;Node3</title>
<g id="a_edge2_Node000001_Node000003"><a xlink:title=" ">
<path fill="none" stroke="#63b8ff" d="M182.97,-110.09C168.81,-101.98 147.77,-89.93 131.22,-80.46"/>
<polygon fill="#63b8ff" stroke="#63b8ff" points="133.33,-77.64 122.92,-75.7 129.86,-83.71 133.33,-77.64"/>
</a>
</g>
</g>
<!-- Node4 -->
<g id="Node000004" class="node">
<title>Node4</title>
<g id="a_Node000004"><a xlink:title=" ">
<polygon fill="#e0e0e0" stroke="#999999" points="251.38,-74.5 146.12,-74.5 146.12,-55.25 251.38,-55.25 251.38,-74.5"/>
<text text-anchor="middle" x="198.75" y="-61" font-family="Helvetica,sans-Serif" font-size="10.00">opencv2/opencv.hpp</text>
</a>
</g>
</g>
<!-- Node1&#45;&gt;Node4 -->
<g id="edge3_Node000001_Node000004" class="edge">
<title>Node1&#45;&gt;Node4</title>
<g id="a_edge3_Node000001_Node000004"><a xlink:title=" ">
<path fill="none" stroke="#63b8ff" d="M198.75,-110.33C198.75,-103.82 198.75,-94.67 198.75,-86.37"/>
<polygon fill="#63b8ff" stroke="#63b8ff" points="202.25,-86.37 198.75,-76.37 195.25,-86.37 202.25,-86.37"/>
</a>
</g>
</g>
<!-- Node5 -->
<g id="Node000005" class="node">
<title>Node5</title>
<g id="a_Node000005"><a xlink:title=" ">
<polygon fill="#e0e0e0" stroke="#999999" points="351.62,-19.25 277.88,-19.25 277.88,0 351.62,0 351.62,-19.25"/>
<text text-anchor="middle" x="314.75" y="-5.75" font-family="Helvetica,sans-Serif" font-size="10.00">core_export.h</text>
</a>
</g>
</g>
<!-- Node1&#45;&gt;Node5 -->
<g id="edge4_Node000001_Node000005" class="edge">
<title>Node1&#45;&gt;Node5</title>
<g id="a_edge4_Node000001_Node000005"><a xlink:title=" ">
<path fill="none" stroke="#63b8ff" d="M213.29,-110.12C226.37,-101.7 245.76,-88.37 260.75,-74.5 276.04,-60.36 291.15,-42.01 301.48,-28.61"/>
<polygon fill="#63b8ff" stroke="#63b8ff" points="304.23,-30.78 307.46,-20.69 298.64,-26.56 304.23,-30.78"/>
</a>
</g>
</g>
<!-- Node6 -->
<g id="Node000006" class="node">
<title>Node6</title>
<g id="a_Node000006"><a xlink:href="../../d7/dfc/ilogger_8hpp.html" target="_top" xlink:title=" ">
<polygon fill="#fff0f0" stroke="red" points="391.88,-74.5 307.62,-74.5 307.62,-55.25 391.88,-55.25 391.88,-74.5"/>
<text text-anchor="middle" x="349.75" y="-61" font-family="Helvetica,sans-Serif" font-size="10.00">core/ilogger.hpp</text>
</a>
</g>
</g>
<!-- Node1&#45;&gt;Node6 -->
<g id="edge5_Node000001_Node000006" class="edge">
<title>Node1&#45;&gt;Node6</title>
<g id="a_edge5_Node000001_Node000006"><a xlink:title=" ">
<path fill="none" stroke="#63b8ff" d="M224.37,-110.09C248.77,-101.49 285.76,-88.44 313.25,-78.75"/>
<polygon fill="#63b8ff" stroke="#63b8ff" points="314.32,-82.08 322.58,-75.46 311.99,-75.48 314.32,-82.08"/>
</a>
</g>
</g>
<!-- Node6&#45;&gt;Node5 -->
<g id="edge6_Node000006_Node000005" class="edge">
<title>Node6&#45;&gt;Node5</title>
<g id="a_edge6_Node000006_Node000005"><a xlink:title=" ">
<path fill="none" stroke="#63b8ff" d="M343.97,-55.08C339.34,-48.03 332.68,-37.9 326.88,-29.08"/>
<polygon fill="#63b8ff" stroke="#63b8ff" points="329.9,-27.31 321.49,-20.87 324.05,-31.15 329.9,-27.31"/>
</a>
</g>
</g>
</g>
</svg>
