<?xml version="1.0" encoding="UTF-8" standalone="no"?>
<!DOCTYPE svg PUBLIC "-//W3C//DTD SVG 1.1//EN"
 "http://www.w3.org/Graphics/SVG/1.1/DTD/svg11.dtd">
<!-- Generated by graphviz version 7.0.5 (20221223.1930)
 -->
<!-- Title: src/unit_tests_utils/mock_backend.hpp Pages: 1 -->
<svg width="876pt" height="159pt"
 viewBox="0.00 0.00 876.00 159.00" xmlns="http://www.w3.org/2000/svg" xmlns:xlink="http://www.w3.org/1999/xlink">
<g id="graph0" class="graph" transform="scale(1 1) rotate(0) translate(4 155)">
<title>src/unit_tests_utils/mock_backend.hpp</title>
<!-- Node1 -->
<g id="node1" class="node">
<title>Node1</title>
<g id="a_node1"><a xlink:title=" ">
<polygon fill="#999999" stroke="#666666" points="400,-151 296,-151 296,-121 400,-121 400,-151"/>
<text text-anchor="start" x="304" y="-139" font-family="Helvetica,sans-Serif" font-size="10.00">src/unit_tests_utils</text>
<text text-anchor="middle" x="348" y="-128" font-family="Helvetica,sans-Serif" font-size="10.00">/mock_backend.hpp</text>
</a>
</g>
</g>
<!-- Node2 -->
<g id="node2" class="node">
<title>Node2</title>
<g id="a_node2"><a xlink:title=" ">
<polygon fill="#e0e0e0" stroke="#999999" points="86,-79.5 0,-79.5 0,-60.5 86,-60.5 86,-79.5"/>
<text text-anchor="middle" x="43" y="-67.5" font-family="Helvetica,sans-Serif" font-size="10.00">gmock/gmock.h</text>
</a>
</g>
</g>
<!-- Node1&#45;&gt;Node2 -->
<g id="edge1" class="edge">
<title>Node1&#45;&gt;Node2</title>
<path fill="none" stroke="#63b8ff" d="M295.61,-125.1C245.33,-115.44 167.3,-100.04 100,-85 96.63,-84.25 93.15,-83.45 89.65,-82.63"/>
<polygon fill="#63b8ff" stroke="#63b8ff" points="90.53,-79.24 79.99,-80.32 88.91,-86.05 90.53,-79.24"/>
</g>
<!-- Node3 -->
<g id="node3" class="node">
<title>Node3</title>
<g id="a_node3"><a xlink:href="../../d1/dd2/filter_8hpp.html" target="_top" xlink:title=" ">
<polygon fill="#fff0f0" stroke="red" points="247.5,-19 152.5,-19 152.5,0 247.5,0 247.5,-19"/>
<text text-anchor="middle" x="200" y="-7" font-family="Helvetica,sans-Serif" font-size="10.00">database/filter.hpp</text>
</a>
</g>
</g>
<!-- Node1&#45;&gt;Node3 -->
<g id="edge2" class="edge">
<title>Node1&#45;&gt;Node3</title>
<path fill="none" stroke="#63b8ff" d="M295.58,-130.19C238.59,-123.74 152.93,-110.1 133,-85 124.71,-74.56 126.7,-66.75 133,-55 140.13,-41.7 153.19,-31.69 165.89,-24.58"/>
<polygon fill="#63b8ff" stroke="#63b8ff" points="167.22,-27.83 174.54,-20.17 164.04,-21.59 167.22,-27.83"/>
</g>
<!-- Node31 -->
<g id="node4" class="node">
<title>Node31</title>
<g id="a_node4"><a xlink:href="../../da/d2a/ibackend_8hpp.html" target="_top" xlink:title=" ">
<polygon fill="#fff0f0" stroke="red" points="258,-79.5 142,-79.5 142,-60.5 258,-60.5 258,-79.5"/>
<text text-anchor="middle" x="200" y="-67.5" font-family="Helvetica,sans-Serif" font-size="10.00">database/ibackend.hpp</text>
</a>
</g>
</g>
<!-- Node1&#45;&gt;Node31 -->
<g id="edge3" class="edge">
<title>Node1&#45;&gt;Node31</title>
<path fill="none" stroke="#63b8ff" d="M314.79,-120.64C289.81,-109.83 255.81,-95.13 231.3,-84.54"/>
<polygon fill="#63b8ff" stroke="#63b8ff" points="232.74,-81.34 222.17,-80.59 229.96,-87.77 232.74,-81.34"/>
</g>
<!-- Node42 -->
<g id="node5" class="node">
<title>Node42</title>
<g id="a_node5"><a xlink:href="../../d9/d8f/igroup__operator_8hpp.html" target="_top" xlink:title=" ">
<polygon fill="#fff0f0" stroke="red" points="420,-79.5 276,-79.5 276,-60.5 420,-60.5 420,-79.5"/>
<text text-anchor="middle" x="348" y="-67.5" font-family="Helvetica,sans-Serif" font-size="10.00">database/igroup_operator.hpp</text>
</a>
</g>
</g>
<!-- Node1&#45;&gt;Node42 -->
<g id="edge5" class="edge">
<title>Node1&#45;&gt;Node42</title>
<path fill="none" stroke="#63b8ff" d="M348,-120.8C348,-112.09 348,-100.81 348,-91.18"/>
<polygon fill="#63b8ff" stroke="#63b8ff" points="351.5,-91.36 348,-81.36 344.5,-91.36 351.5,-91.36"/>
</g>
<!-- Node43 -->
<g id="node6" class="node">
<title>Node43</title>
<g id="a_node6"><a xlink:href="../../d1/d44/iphoto__change__log__operator_8hpp.html" target="_top" xlink:title=" ">
<polygon fill="#fff0f0" stroke="red" points="560,-85 438,-85 438,-55 560,-55 560,-85"/>
<text text-anchor="start" x="446" y="-73" font-family="Helvetica,sans-Serif" font-size="10.00">database/iphoto_change</text>
<text text-anchor="middle" x="499" y="-62" font-family="Helvetica,sans-Serif" font-size="10.00">_log_operator.hpp</text>
</a>
</g>
</g>
<!-- Node1&#45;&gt;Node43 -->
<g id="edge6" class="edge">
<title>Node1&#45;&gt;Node43</title>
<path fill="none" stroke="#63b8ff" d="M381.89,-120.64C403.38,-111.53 431.41,-99.65 454.66,-89.79"/>
<polygon fill="#63b8ff" stroke="#63b8ff" points="455.73,-93.14 463.57,-86.02 453,-86.7 455.73,-93.14"/>
</g>
<!-- Node45 -->
<g id="node7" class="node">
<title>Node45</title>
<g id="a_node7"><a xlink:href="../../d4/d3c/iphoto__operator_8hpp.html" target="_top" xlink:title=" ">
<polygon fill="#fff0f0" stroke="red" points="722,-79.5 578,-79.5 578,-60.5 722,-60.5 722,-79.5"/>
<text text-anchor="middle" x="650" y="-67.5" font-family="Helvetica,sans-Serif" font-size="10.00">database/iphoto_operator.hpp</text>
</a>
</g>
</g>
<!-- Node1&#45;&gt;Node45 -->
<g id="edge7" class="edge">
<title>Node1&#45;&gt;Node45</title>
<path fill="none" stroke="#63b8ff" d="M400.26,-123.93C455.22,-112.28 541.27,-94.04 596.64,-82.31"/>
<polygon fill="#63b8ff" stroke="#63b8ff" points="597.09,-85.79 606.15,-80.29 595.64,-78.94 597.09,-85.79"/>
</g>
<!-- Node49 -->
<g id="node8" class="node">
<title>Node49</title>
<g id="a_node8"><a xlink:href="../../d3/d41/project__info_8hpp.html" target="_top" xlink:title=" ">
<polygon fill="white" stroke="#666666" points="868,-79.5 740,-79.5 740,-60.5 868,-60.5 868,-79.5"/>
<text text-anchor="middle" x="804" y="-67.5" font-family="Helvetica,sans-Serif" font-size="10.00">database/project_info.hpp</text>
</a>
</g>
</g>
<!-- Node1&#45;&gt;Node49 -->
<g id="edge9" class="edge">
<title>Node1&#45;&gt;Node49</title>
<path fill="none" stroke="#63b8ff" d="M400.49,-129.15C474.41,-120.69 613.32,-103.95 731,-85 736.67,-84.09 742.57,-83.07 748.45,-82.01"/>
<polygon fill="#63b8ff" stroke="#63b8ff" points="748.99,-85.47 758.19,-80.21 747.72,-78.59 748.99,-85.47"/>
</g>
<!-- Node31&#45;&gt;Node3 -->
<g id="edge4" class="edge">
<title>Node31&#45;&gt;Node3</title>
<path fill="none" stroke="#63b8ff" d="M200,-60.37C200,-52.5 200,-40.6 200,-30.39"/>
<polygon fill="#63b8ff" stroke="#63b8ff" points="203.5,-30.68 200,-20.68 196.5,-30.68 203.5,-30.68"/>
</g>
<!-- Node45&#45;&gt;Node3 -->
<g id="edge8" class="edge">
<title>Node45&#45;&gt;Node3</title>
<path fill="none" stroke="#63b8ff" d="M600.37,-60.01C590.02,-58.25 579.17,-56.49 569,-55 459.92,-39.01 332.07,-24.54 259.1,-16.69"/>
<polygon fill="#63b8ff" stroke="#63b8ff" points="259.69,-13.23 249.38,-15.64 258.95,-20.19 259.69,-13.23"/>
</g>
</g>
</svg>
