<?xml version="1.0" encoding="UTF-8" standalone="no"?>
<!DOCTYPE svg PUBLIC "-//W3C//DTD SVG 1.1//EN"
 "http://www.w3.org/Graphics/SVG/1.1/DTD/svg11.dtd">
<!-- Generated by graphviz version 12.2.0 (20241103.1931)
 -->
<!-- Title: ProjectInfo::getInternalLocation Pages: 1 -->
<svg width="475pt" height="103pt"
 viewBox="0.00 0.00 474.50 103.25" xmlns="http://www.w3.org/2000/svg" xmlns:xlink="http://www.w3.org/1999/xlink">

<svg id="main" version="1.1" xmlns="http://www.w3.org/2000/svg" xmlns:xlink="http://www.w3.org/1999/xlink" xml:space="preserve">

<style type="text/css"><![CDATA[
.node, .edge {opacity: 0.7;}
.node.selected, .edge.selected {opacity: 1;}
.edge:hover path { stroke: red; }
.edge:hover polygon { stroke: red; fill: red; }
]]></style>
<script type="application/ecmascript" xlink:href="../../svg.min.js"/>
<svg id="graph" class="graph">
<g id="graph0" class="graph" transform="scale(1 1) rotate(0) translate(4 99.25)">
<title>ProjectInfo::getInternalLocation</title>
<!-- Node1 -->
<g id="Node000001" class="node">
<title>Node1</title>
<g id="a_Node000001"><a xlink:title=" ">
<polygon fill="#999999" stroke="#666666" points="466.5,-62.88 353,-62.88 353,-32.38 466.5,-32.38 466.5,-62.88"/>
<text text-anchor="start" x="361" y="-49.38" font-family="Helvetica,sans-Serif" font-size="10.00">ProjectInfo::getInternal</text>
<text text-anchor="middle" x="409.75" y="-38.12" font-family="Helvetica,sans-Serif" font-size="10.00">Location</text>
</a>
</g>
</g>
<!-- Node2 -->
<g id="Node000002" class="node">
<title>Node2</title>
<g id="a_Node000002"><a xlink:href="../../d7/d93/class_project_manager.html#aea9b42030084afc5ff2582a006e936ad" target="_top" xlink:title=" ">
<polygon fill="#fff0f0" stroke="red" points="317,-95.25 158.5,-95.25 158.5,-76 317,-76 317,-95.25"/>
<text text-anchor="middle" x="237.75" y="-81.75" font-family="Helvetica,sans-Serif" font-size="10.00">ProjectManager::createIgnoreFile</text>
</a>
</g>
</g>
<!-- Node1&#45;&gt;Node2 -->
<g id="edge1_Node000001_Node000002" class="edge">
<title>Node1&#45;&gt;Node2</title>
<g id="a_edge1_Node000001_Node000002"><a xlink:title=" ">
<path fill="none" stroke="#63b8ff" d="M341.41,-62.68C322.07,-67 301.45,-71.61 283.81,-75.55"/>
<polygon fill="#63b8ff" stroke="#63b8ff" points="342.14,-66.1 351.14,-60.5 340.61,-59.27 342.14,-66.1"/>
</a>
</g>
</g>
<!-- Node3 -->
<g id="Node000003" class="node">
<title>Node3</title>
<g id="a_Node000003"><a xlink:href="../../d7/d93/class_project_manager.html#a1b1d9f731deac51d3d9dbb7ef892131a" target="_top" xlink:title=" ">
<polygon fill="white" stroke="#666666" points="122.5,-76.25 0,-76.25 0,-57 122.5,-57 122.5,-76.25"/>
<text text-anchor="middle" x="61.25" y="-62.75" font-family="Helvetica,sans-Serif" font-size="10.00">ProjectManager::new_prj</text>
</a>
</g>
</g>
<!-- Node1&#45;&gt;Node3 -->
<g id="edge3_Node000001_Node000003" class="edge">
<title>Node1&#45;&gt;Node3</title>
<g id="a_edge3_Node000001_Node000003"><a xlink:title=" ">
<path fill="none" stroke="#63b8ff" d="M341.23,-51.33C277.86,-54.8 183.92,-59.95 122.89,-63.3"/>
<polygon fill="#63b8ff" stroke="#63b8ff" points="341.39,-54.82 351.18,-50.78 341.01,-47.83 341.39,-54.82"/>
</a>
</g>
</g>
<!-- Node6 -->
<g id="Node000006" class="node">
<title>Node6</title>
<g id="a_Node000006"><a xlink:href="../../d9/d6e/class_project.html#a5be4ce232325efd851b856a99053e7cd" target="_top" xlink:title=" ">
<polygon fill="white" stroke="#666666" points="278.75,-19.25 196.75,-19.25 196.75,0 278.75,0 278.75,-19.25"/>
<text text-anchor="middle" x="237.75" y="-5.75" font-family="Helvetica,sans-Serif" font-size="10.00">Project::Project</text>
</a>
</g>
</g>
<!-- Node1&#45;&gt;Node6 -->
<g id="edge4_Node000001_Node000006" class="edge">
<title>Node1&#45;&gt;Node6</title>
<g id="a_edge4_Node000001_Node000006"><a xlink:title=" ">
<path fill="none" stroke="#63b8ff" d="M341.44,-32.58C320.39,-27.87 297.82,-22.83 279.22,-18.67"/>
<polygon fill="#63b8ff" stroke="#63b8ff" points="340.61,-35.98 351.14,-34.75 342.14,-29.15 340.61,-35.98"/>
</a>
</g>
</g>
<!-- Node2&#45;&gt;Node3 -->
<g id="edge2_Node000002_Node000003" class="edge">
<title>Node2&#45;&gt;Node3</title>
<g id="a_edge2_Node000002_Node000003"><a xlink:title=" ">
<path fill="none" stroke="#63b8ff" d="M146.75,-75.83C138.67,-74.95 130.61,-74.07 122.87,-73.22"/>
<polygon fill="#63b8ff" stroke="#63b8ff" points="146.35,-79.3 156.67,-76.91 147.11,-72.34 146.35,-79.3"/>
</a>
</g>
</g>
</g>
</svg>
</svg>

<style type='text/css'>
<![CDATA[
[data-mouse-over-selected='false'] { opacity: 0.7; }
[data-mouse-over-selected='true']  { opacity: 1.0; }
]]>
</style>
<script type="application/ecmascript"><![CDATA[
document.addEventListener('DOMContentLoaded', (event) => {
  highlightEdges();
  highlightAdjacentNodes();
});
]]></script>
</svg>
