<?xml version="1.0" encoding="UTF-8" standalone="no"?>
<!DOCTYPE svg PUBLIC "-//W3C//DTD SVG 1.1//EN"
 "http://www.w3.org/Graphics/SVG/1.1/DTD/svg11.dtd">
<!-- Generated by graphviz version 7.0.5 (20221223.1930)
 -->
<!-- Title: ProjectInfo::getBaseDir Pages: 1 -->
<svg width="291pt" height="175pt"
 viewBox="0.00 0.00 291.00 175.00" xmlns="http://www.w3.org/2000/svg" xmlns:xlink="http://www.w3.org/1999/xlink">
<g id="graph0" class="graph" transform="scale(1 1) rotate(0) translate(4 171)">
<title>ProjectInfo::getBaseDir</title>
<!-- Node1 -->
<g id="node1" class="node">
<title>Node1</title>
<g id="a_node1"><a xlink:title=" ">
<polygon fill="#999999" stroke="#666666" points="283,-93 167,-93 167,-74 283,-74 283,-93"/>
<text text-anchor="middle" x="225" y="-81" font-family="Helvetica,sans-Serif" font-size="10.00">ProjectInfo::getBaseDir</text>
</a>
</g>
</g>
<!-- Node2 -->
<g id="node2" class="node">
<title>Node2</title>
<g id="a_node2"><a xlink:href="../../d3/d3d/class_photos_collector.html#aa402bcaf9beb1d5eb6b9f0e380c33363" target="_top" xlink:title=" ">
<polygon fill="#fff0f0" stroke="red" points="125,-167 6,-167 6,-148 125,-148 125,-167"/>
<text text-anchor="middle" x="65.5" y="-155" font-family="Helvetica,sans-Serif" font-size="10.00">PhotosCollector::collect</text>
</a>
</g>
</g>
<!-- Node1&#45;&gt;Node2 -->
<g id="edge1" class="edge">
<title>Node1&#45;&gt;Node2</title>
<path fill="none" stroke="#63b8ff" d="M200.66,-99.99C182.4,-112.28 156,-128.72 131,-139.5 123.85,-142.58 116.02,-145.29 108.36,-147.6"/>
<polygon fill="#63b8ff" stroke="#63b8ff" points="202.63,-102.88 208.9,-94.34 198.67,-97.11 202.63,-102.88"/>
</g>
<!-- Node4 -->
<g id="node3" class="node">
<title>Node4</title>
<g id="a_node3"><a xlink:href="../../d9/d6e/class_project.html#aebd58bf011ee6412677d72d5d0b6a88a" target="_top" xlink:title=" ">
<polygon fill="#fff0f0" stroke="red" points="131,-130 0,-130 0,-111 131,-111 131,-130"/>
<text text-anchor="middle" x="65.5" y="-118" font-family="Helvetica,sans-Serif" font-size="10.00">Project::makePathRelative</text>
</a>
</g>
</g>
<!-- Node1&#45;&gt;Node4 -->
<g id="edge2" class="edge">
<title>Node1&#45;&gt;Node4</title>
<path fill="none" stroke="#63b8ff" d="M170.86,-95.98C150.65,-100.73 127.91,-106.07 108.82,-110.56"/>
<polygon fill="#63b8ff" stroke="#63b8ff" points="171.38,-99.46 180.32,-93.76 169.78,-92.64 171.38,-99.46"/>
</g>
<!-- Node10 -->
<g id="node4" class="node">
<title>Node10</title>
<g id="a_node4"><a xlink:href="../../d7/d93/class_project_manager.html#a1b1d9f731deac51d3d9dbb7ef892131a" target="_top" xlink:title=" ">
<polygon fill="white" stroke="#666666" points="127,-93 4,-93 4,-74 127,-74 127,-93"/>
<text text-anchor="middle" x="65.5" y="-81" font-family="Helvetica,sans-Serif" font-size="10.00">ProjectManager::new_prj</text>
</a>
</g>
</g>
<!-- Node1&#45;&gt;Node10 -->
<g id="edge3" class="edge">
<title>Node1&#45;&gt;Node10</title>
<path fill="none" stroke="#63b8ff" d="M155.47,-83.5C146.15,-83.5 136.65,-83.5 127.48,-83.5"/>
<polygon fill="#63b8ff" stroke="#63b8ff" points="155.18,-87 165.18,-83.5 155.18,-80 155.18,-87"/>
</g>
<!-- Node11 -->
<g id="node5" class="node">
<title>Node11</title>
<g id="a_node5"><a xlink:href="../../d7/d93/class_project_manager.html#ac970236f08b83d3edbae94ba2e8947bc" target="_top" xlink:title=" ">
<polygon fill="#fff0f0" stroke="red" points="120.5,-56 10.5,-56 10.5,-37 120.5,-37 120.5,-56"/>
<text text-anchor="middle" x="65.5" y="-44" font-family="Helvetica,sans-Serif" font-size="10.00">ProjectManager::open</text>
</a>
</g>
</g>
<!-- Node1&#45;&gt;Node11 -->
<g id="edge4" class="edge">
<title>Node1&#45;&gt;Node11</title>
<path fill="none" stroke="#63b8ff" d="M170.86,-71.02C150.65,-66.27 127.91,-60.93 108.82,-56.44"/>
<polygon fill="#63b8ff" stroke="#63b8ff" points="169.78,-74.36 180.32,-73.24 171.38,-67.54 169.78,-74.36"/>
</g>
<!-- Node13 -->
<g id="node6" class="node">
<title>Node13</title>
<g id="a_node6"><a xlink:href="../../d9/dc6/class_main_window.html#aabba421121a791ec3aa10a742f37790a" target="_top" xlink:title=" ">
<polygon fill="#fff0f0" stroke="red" points="129.5,-19 1.5,-19 1.5,0 129.5,0 129.5,-19"/>
<text text-anchor="middle" x="65.5" y="-7" font-family="Helvetica,sans-Serif" font-size="10.00">MainWindow::openProject</text>
</a>
</g>
</g>
<!-- Node1&#45;&gt;Node13 -->
<g id="edge5" class="edge">
<title>Node1&#45;&gt;Node13</title>
<path fill="none" stroke="#63b8ff" d="M200.25,-67.22C181.96,-55.24 155.7,-39.24 131,-28.5 123.08,-25.05 114.35,-22.01 105.94,-19.43"/>
<polygon fill="#63b8ff" stroke="#63b8ff" points="198.26,-70.1 208.52,-72.73 202.14,-64.27 198.26,-70.1"/>
</g>
</g>
</svg>
