<?xml version="1.0" encoding="UTF-8" standalone="no"?>
<!DOCTYPE svg PUBLIC "-//W3C//DTD SVG 1.1//EN"
 "http://www.w3.org/Graphics/SVG/1.1/DTD/svg11.dtd">
<!-- Generated by graphviz version 9.0.0 (20230911.1827)
 -->
<!-- Title: ProjectInfo::getBaseDir Pages: 1 -->
<svg width="291pt" height="175pt"
 viewBox="0.00 0.00 290.50 175.25" xmlns="http://www.w3.org/2000/svg" xmlns:xlink="http://www.w3.org/1999/xlink">

<svg id="main" version="1.1" xmlns="http://www.w3.org/2000/svg" xmlns:xlink="http://www.w3.org/1999/xlink" xml:space="preserve" onload="init(evt)">
<style type="text/css"><![CDATA[
.node, .edge {opacity: 0.7;}
.node.selected, .edge.selected {opacity: 1;}
.edge:hover path { stroke: red; }
.edge:hover polygon { stroke: red; fill: red; }
]]></style>
<script type="application/ecmascript" xlink:href="../../svg.min.js"/>
<svg id="graph" class="graph">
<g id="graph0" class="graph" transform="scale(1 1) rotate(0) translate(4 171.25)">
<title>ProjectInfo::getBaseDir</title>
<!-- Node1 -->
<g id="Node000001" class="node">
<title>Node1</title>
<g id="a_Node000001"><a xlink:title=" ">
<polygon fill="#999999" stroke="#666666" points="282.5,-93.25 166.75,-93.25 166.75,-74 282.5,-74 282.5,-93.25"/>
<text text-anchor="middle" x="224.62" y="-79.75" font-family="Helvetica,sans-Serif" font-size="10.00">ProjectInfo::getBaseDir</text>
</a>
</g>
</g>
<!-- Node2 -->
<g id="Node000002" class="node">
<title>Node2</title>
<g id="a_Node000002"><a xlink:href="../../d3/d3d/class_photos_collector.html#aa402bcaf9beb1d5eb6b9f0e380c33363" target="_top" xlink:title=" ">
<polygon fill="#fff0f0" stroke="red" points="124.38,-167.25 6.38,-167.25 6.38,-148 124.38,-148 124.38,-167.25"/>
<text text-anchor="middle" x="65.38" y="-153.75" font-family="Helvetica,sans-Serif" font-size="10.00">PhotosCollector::collect</text>
</a>
</g>
</g>
<!-- Node1&#45;&gt;Node2 -->
<g id="edge1_Node000001_Node000002" class="edge">
<title>Node1&#45;&gt;Node2</title>
<g id="a_edge1_Node000001_Node000002"><a xlink:title=" ">
<path fill="none" stroke="#63b8ff" d="M200.31,-100.11C182.08,-112.4 155.72,-128.84 130.75,-139.62 123.82,-142.62 116.27,-145.25 108.84,-147.51"/>
<polygon fill="#63b8ff" stroke="#63b8ff" points="202.28,-103.01 208.54,-94.47 198.32,-97.24 202.28,-103.01"/>
</a>
</g>
</g>
<!-- Node4 -->
<g id="Node000004" class="node">
<title>Node4</title>
<g id="a_Node000004"><a xlink:href="../../d9/d6e/class_project.html#aebd58bf011ee6412677d72d5d0b6a88a" target="_top" xlink:title=" ">
<polygon fill="#fff0f0" stroke="red" points="130.75,-130.25 0,-130.25 0,-111 130.75,-111 130.75,-130.25"/>
<text text-anchor="middle" x="65.38" y="-116.75" font-family="Helvetica,sans-Serif" font-size="10.00">Project::makePathRelative</text>
</a>
</g>
</g>
<!-- Node1&#45;&gt;Node4 -->
<g id="edge2_Node000001_Node000004" class="edge">
<title>Node1&#45;&gt;Node4</title>
<g id="a_edge2_Node000001_Node000004"><a xlink:title=" ">
<path fill="none" stroke="#63b8ff" d="M169.66,-96.32C149.94,-100.96 127.92,-106.14 109.29,-110.53"/>
<polygon fill="#63b8ff" stroke="#63b8ff" points="170.25,-99.78 179.18,-94.08 168.65,-92.97 170.25,-99.78"/>
</a>
</g>
</g>
<!-- Node10 -->
<g id="Node000010" class="node">
<title>Node10</title>
<g id="a_Node000010"><a xlink:href="../../d7/d93/class_project_manager.html#a1b1d9f731deac51d3d9dbb7ef892131a" target="_top" xlink:title=" ">
<polygon fill="white" stroke="#666666" points="126.62,-93.25 4.12,-93.25 4.12,-74 126.62,-74 126.62,-93.25"/>
<text text-anchor="middle" x="65.38" y="-79.75" font-family="Helvetica,sans-Serif" font-size="10.00">ProjectManager::new_prj</text>
</a>
</g>
</g>
<!-- Node1&#45;&gt;Node10 -->
<g id="edge3_Node000001_Node000010" class="edge">
<title>Node1&#45;&gt;Node10</title>
<g id="a_edge3_Node000001_Node000010"><a xlink:title=" ">
<path fill="none" stroke="#63b8ff" d="M155.12,-83.62C145.76,-83.62 136.2,-83.62 126.99,-83.62"/>
<polygon fill="#63b8ff" stroke="#63b8ff" points="154.9,-87.13 164.9,-83.63 154.9,-80.13 154.9,-87.13"/>
</a>
</g>
</g>
<!-- Node11 -->
<g id="Node000011" class="node">
<title>Node11</title>
<g id="a_Node000011"><a xlink:href="../../d7/d93/class_project_manager.html#ac970236f08b83d3edbae94ba2e8947bc" target="_top" xlink:title=" ">
<polygon fill="#fff0f0" stroke="red" points="120.25,-56.25 10.5,-56.25 10.5,-37 120.25,-37 120.25,-56.25"/>
<text text-anchor="middle" x="65.38" y="-42.75" font-family="Helvetica,sans-Serif" font-size="10.00">ProjectManager::open</text>
</a>
</g>
</g>
<!-- Node1&#45;&gt;Node11 -->
<g id="edge4_Node000001_Node000011" class="edge">
<title>Node1&#45;&gt;Node11</title>
<g id="a_edge4_Node000001_Node000011"><a xlink:title=" ">
<path fill="none" stroke="#63b8ff" d="M169.66,-70.93C149.94,-66.29 127.92,-61.11 109.29,-56.72"/>
<polygon fill="#63b8ff" stroke="#63b8ff" points="168.65,-74.28 179.18,-73.17 170.25,-67.47 168.65,-74.28"/>
</a>
</g>
</g>
<!-- Node13 -->
<g id="Node000013" class="node">
<title>Node13</title>
<g id="a_Node000013"><a xlink:href="../../d9/dc6/class_main_window.html#aabba421121a791ec3aa10a742f37790a" target="_top" xlink:title=" ">
<polygon fill="#fff0f0" stroke="red" points="129.25,-19.25 1.5,-19.25 1.5,0 129.25,0 129.25,-19.25"/>
<text text-anchor="middle" x="65.38" y="-5.75" font-family="Helvetica,sans-Serif" font-size="10.00">MainWindow::openProject</text>
</a>
</g>
</g>
<!-- Node1&#45;&gt;Node13 -->
<g id="edge5_Node000001_Node000013" class="edge">
<title>Node1&#45;&gt;Node13</title>
<g id="a_edge5_Node000001_Node000013"><a xlink:title=" ">
<path fill="none" stroke="#63b8ff" d="M200.31,-67.14C182.08,-54.85 155.72,-38.41 130.75,-27.62 123.82,-24.63 116.27,-22 108.84,-19.74"/>
<polygon fill="#63b8ff" stroke="#63b8ff" points="198.32,-70.01 208.54,-72.78 202.28,-64.24 198.32,-70.01"/>
</a>
</g>
</g>
</g>
</svg>
</svg>

<style type='text/css'>
<![CDATA[
[data-mouse-over-selected='false'] { opacity: 0.7; }
[data-mouse-over-selected='true']  { opacity: 1.0; }
]]>
</style>
<script type="application/ecmascript"><![CDATA[
document.addEventListener('DOMContentLoaded', (event) => {
  highlightEdges();
  highlightAdjacentNodes();
});
]]></script>
</svg>
