<?xml version="1.0" encoding="UTF-8" standalone="no"?>
<!DOCTYPE svg PUBLIC "-//W3C//DTD SVG 1.1//EN"
 "http://www.w3.org/Graphics/SVG/1.1/DTD/svg11.dtd">
<!-- Generated by graphviz version 7.0.5 (20221223.1930)
 -->
<!-- Title: src/gui/desktop/models/tags_model.hpp Pages: 1 -->
<svg width="412pt" height="159pt"
 viewBox="0.00 0.00 411.50 159.00" xmlns="http://www.w3.org/2000/svg" xmlns:xlink="http://www.w3.org/1999/xlink">
<g id="graph0" class="graph" transform="scale(1 1) rotate(0) translate(4 155)">
<title>src/gui/desktop/models/tags_model.hpp</title>
<!-- Node1 -->
<g id="node1" class="node">
<title>Node1</title>
<g id="a_node1"><a xlink:title=" ">
<polygon fill="#999999" stroke="#666666" points="240.5,-151 122.5,-151 122.5,-121 240.5,-121 240.5,-151"/>
<text text-anchor="start" x="130.5" y="-139" font-family="Helvetica,sans-Serif" font-size="10.00">src/gui/desktop/models</text>
<text text-anchor="middle" x="181.5" y="-128" font-family="Helvetica,sans-Serif" font-size="10.00">/tags_model.hpp</text>
</a>
</g>
</g>
<!-- Node2 -->
<g id="node2" class="node">
<title>Node2</title>
<g id="a_node2"><a xlink:title=" ">
<polygon fill="#e0e0e0" stroke="#999999" points="107,-79.5 0,-79.5 0,-60.5 107,-60.5 107,-79.5"/>
<text text-anchor="middle" x="53.5" y="-67.5" font-family="Helvetica,sans-Serif" font-size="10.00">QAbstractItemModel</text>
</a>
</g>
</g>
<!-- Node1&#45;&gt;Node2 -->
<g id="edge1" class="edge">
<title>Node1&#45;&gt;Node2</title>
<path fill="none" stroke="#63b8ff" d="M152.77,-120.64C131.56,-110.03 102.82,-95.66 81.73,-85.11"/>
<polygon fill="#63b8ff" stroke="#63b8ff" points="83.33,-82 72.83,-80.66 80.2,-88.27 83.33,-82"/>
</g>
<!-- Node3 -->
<g id="node3" class="node">
<title>Node3</title>
<g id="a_node3"><a xlink:href="../../d7/d2b/idatabase_8hpp.html" target="_top" xlink:title=" ">
<polygon fill="#fff0f0" stroke="red" points="287,-19 168,-19 168,0 287,0 287,-19"/>
<text text-anchor="middle" x="227.5" y="-7" font-family="Helvetica,sans-Serif" font-size="10.00">database/idatabase.hpp</text>
</a>
</g>
</g>
<!-- Node1&#45;&gt;Node3 -->
<g id="edge2" class="edge">
<title>Node1&#45;&gt;Node3</title>
<path fill="none" stroke="#63b8ff" d="M169.85,-120.75C157.84,-104.22 142.44,-76.47 154.5,-55 162.26,-41.18 176.25,-31.15 189.92,-24.15"/>
<polygon fill="#63b8ff" stroke="#63b8ff" points="191.23,-27.39 198.83,-20.01 188.28,-21.05 191.23,-27.39"/>
</g>
<!-- Node46 -->
<g id="node4" class="node">
<title>Node46</title>
<g id="a_node4"><a xlink:href="../../dc/d99/id__to__data__converter_8hpp.html" target="_top" xlink:title=" ">
<polygon fill="#fff0f0" stroke="red" points="291.5,-85 163.5,-85 163.5,-55 291.5,-55 291.5,-85"/>
<text text-anchor="start" x="171.5" y="-73" font-family="Helvetica,sans-Serif" font-size="10.00">database/database_tools</text>
<text text-anchor="middle" x="227.5" y="-62" font-family="Helvetica,sans-Serif" font-size="10.00">/id_to_data_converter.hpp</text>
</a>
</g>
</g>
<!-- Node1&#45;&gt;Node46 -->
<g id="edge3" class="edge">
<title>Node1&#45;&gt;Node46</title>
<path fill="none" stroke="#63b8ff" d="M191.71,-120.8C197.31,-113.01 204.39,-103.16 210.77,-94.28"/>
<polygon fill="#63b8ff" stroke="#63b8ff" points="213.44,-96.56 216.44,-86.39 207.76,-92.47 213.44,-96.56"/>
</g>
<!-- Node53 -->
<g id="node5" class="node">
<title>Node53</title>
<g id="a_node5"><a xlink:href="../../d3/dc3/tags__operator_8hpp.html" target="_top" xlink:title=" ">
<polygon fill="#fff0f0" stroke="red" points="403.5,-79.5 309.5,-79.5 309.5,-60.5 403.5,-60.5 403.5,-79.5"/>
<text text-anchor="middle" x="356.5" y="-67.5" font-family="Helvetica,sans-Serif" font-size="10.00">tags_operator.hpp</text>
</a>
</g>
</g>
<!-- Node1&#45;&gt;Node53 -->
<g id="edge5" class="edge">
<title>Node1&#45;&gt;Node53</title>
<path fill="none" stroke="#63b8ff" d="M220.77,-120.64C250.98,-109.59 292.33,-94.47 321.43,-83.83"/>
<polygon fill="#63b8ff" stroke="#63b8ff" points="322.32,-87.23 330.51,-80.51 319.91,-80.65 322.32,-87.23"/>
</g>
<!-- Node46&#45;&gt;Node3 -->
<g id="edge4" class="edge">
<title>Node46&#45;&gt;Node3</title>
<path fill="none" stroke="#63b8ff" d="M227.5,-54.54C227.5,-47.34 227.5,-38.53 227.5,-30.68"/>
<polygon fill="#63b8ff" stroke="#63b8ff" points="231,-30.69 227.5,-20.69 224,-30.69 231,-30.69"/>
</g>
<!-- Node53&#45;&gt;Node3 -->
<g id="edge6" class="edge">
<title>Node53&#45;&gt;Node3</title>
<path fill="none" stroke="#63b8ff" d="M336.91,-60.12C315.79,-50.54 281.91,-35.18 257.45,-24.08"/>
<polygon fill="#63b8ff" stroke="#63b8ff" points="259.21,-21.04 248.66,-20.09 256.32,-27.41 259.21,-21.04"/>
</g>
</g>
</svg>
