<?xml version="1.0" encoding="UTF-8" standalone="no"?>
<!DOCTYPE svg PUBLIC "-//W3C//DTD SVG 1.1//EN"
 "http://www.w3.org/Graphics/SVG/1.1/DTD/svg11.dtd">
<!-- Generated by graphviz version 12.2.0 (20241103.1931)
 -->
<!-- Title: src/main.cpp Pages: 1 -->
<!--zoomable 149 -->

<svg id="main" version="1.1" xmlns="http://www.w3.org/2000/svg" xmlns:xlink="http://www.w3.org/1999/xlink" xml:space="preserve" onload="init(evt)">

<style type="text/css"><![CDATA[
.node, .edge {opacity: 0.7;}
.node.selected, .edge.selected {opacity: 1;}
.edge:hover path { stroke: red; }
.edge:hover polygon { stroke: red; fill: red; }
]]></style>

<defs>
  <circle id="rim" cx="0" cy="0" r="7"/>
  <circle id="rim2" cx="0" cy="0" r="3.5"/>
  <g id="zoomPlus">
    <use xlink:href="#rim" fill="#404040"><set attributeName="fill" to="#808080" begin="zoomplus.mouseover" end="zoomplus.mouseout"/></use>
    <path d="M-4,0h8M0,-4v8" fill="none" stroke="white" stroke-width="1.5" pointer-events="none"/>
  </g>
  <g id="zoomMin">
    <use xlink:href="#rim" fill="#404040"><set attributeName="fill" to="#808080" begin="zoomminus.mouseover" end="zoomminus.mouseout"/></use>
    <path d="M-4,0h8" fill="none" stroke="white" stroke-width="1.5" pointer-events="none"/>
  </g>
  <g id="arrowUp" transform="translate(30 24)">
    <use xlink:href="#rim"/>
    <path pointer-events="none" fill="none" stroke="white" stroke-width="1.5" d="M0,-3.0v7 M-2.5,-0.5L0,-3.0L2.5,-0.5"/>
  </g>
  <g id="arrowRight" transform="rotate(90) translate(36 -43)">
    <use xlink:href="#rim"/>
    <path pointer-events="none" fill="none" stroke="white" stroke-width="1.5" d="M0,-3.0v7 M-2.5,-0.5L0,-3.0L2.5,-0.5"/>
  </g>
  <g id="arrowDown" transform="rotate(180) translate(-30 -48)">
    <use xlink:href="#rim"/>
    <path pointer-events="none" fill="none" stroke="white" stroke-width="1.5" d="M0,-3.0v7 M-2.5,-0.5L0,-3.0L2.5,-0.5"/>
  </g>
  <g id="arrowLeft" transform="rotate(270) translate(-36 17)">
    <use xlink:href="#rim"/>
    <path pointer-events="none" fill="none" stroke="white" stroke-width="1.5" d="M0,-3.0v7 M-2.5,-0.5L0,-3.0L2.5,-0.5"/>
  </g>
  <g id="resetDef">
    <use xlink:href="#rim2" fill="#404040"><set attributeName="fill" to="#808080" begin="reset.mouseover" end="reset.mouseout"/></use>
  </g>
</defs>
<script type="application/ecmascript">
var viewWidth = 2942;
var viewHeight = 149;
var sectionId = 'dynsection-0';
</script>
<script type="application/ecmascript" xlink:href="../../svg.min.js"/>
<svg id="graph" class="graph">
<g id="viewport">
<title>src/main.cpp</title>
<!-- Node1 -->
<g id="Node000001" class="node">
<title>Node1</title>
<g id="a_Node000001"><a xlink:title=" ">
<polygon fill="#999999" stroke="#666666" points="1462.88,-141 1391.38,-141 1391.38,-121.75 1462.88,-121.75 1462.88,-141"/>
<text text-anchor="middle" x="1427.12" y="-127.5" font-family="Helvetica,sans-Serif" font-size="10.00">src/main.cpp</text>
</a>
</g>
</g>
<!-- Node2 -->
<g id="Node000002" class="node">
<title>Node2</title>
<g id="a_Node000002"><a xlink:title=" ">
<polygon fill="#e0e0e0" stroke="#999999" points="48.25,-80.12 0,-80.12 0,-60.88 48.25,-60.88 48.25,-80.12"/>
<text text-anchor="middle" x="24.12" y="-66.62" font-family="Helvetica,sans-Serif" font-size="10.00">cassert</text>
</a>
</g>
</g>
<!-- Node1&#45;&gt;Node2 -->
<g id="edge1_Node000001_Node000002" class="edge">
<title>Node1&#45;&gt;Node2</title>
<g id="a_edge1_Node000001_Node000002"><a xlink:title=" ">
<path fill="none" stroke="#63b8ff" d="M1391.07,-130C1187.93,-127.81 190.51,-115.59 57.12,-85.75 55.53,-85.39 53.91,-84.96 52.29,-84.47"/>
<polygon fill="#63b8ff" stroke="#63b8ff" points="53.88,-81.32 43.29,-81.13 51.45,-87.89 53.88,-81.32"/>
</a>
</g>
</g>
<!-- Node3 -->
<g id="Node000003" class="node">
<title>Node3</title>
<g id="a_Node000003"><a xlink:title=" ">
<polygon fill="#e0e0e0" stroke="#999999" points="119.88,-80.12 66.38,-80.12 66.38,-60.88 119.88,-60.88 119.88,-80.12"/>
<text text-anchor="middle" x="93.12" y="-66.62" font-family="Helvetica,sans-Serif" font-size="10.00">iostream</text>
</a>
</g>
</g>
<!-- Node1&#45;&gt;Node3 -->
<g id="edge2_Node000001_Node000003" class="edge">
<title>Node1&#45;&gt;Node3</title>
<g id="a_edge2_Node000001_Node000003"><a xlink:title=" ">
<path fill="none" stroke="#63b8ff" d="M1391.07,-129.87C1194.42,-127.02 255.49,-112.11 129.12,-85.75 127.22,-85.35 125.3,-84.87 123.37,-84.31"/>
<polygon fill="#63b8ff" stroke="#63b8ff" points="124.58,-81.03 113.99,-81.08 122.3,-87.65 124.58,-81.03"/>
</a>
</g>
</g>
<!-- Node4 -->
<g id="Node000004" class="node">
<title>Node4</title>
<g id="a_Node000004"><a xlink:title=" ">
<polygon fill="#e0e0e0" stroke="#999999" points="1447.12,-19.25 1407.12,-19.25 1407.12,0 1447.12,0 1447.12,-19.25"/>
<text text-anchor="middle" x="1427.12" y="-5.75" font-family="Helvetica,sans-Serif" font-size="10.00">string</text>
</a>
</g>
</g>
<!-- Node1&#45;&gt;Node4 -->
<g id="edge3_Node000001_Node000004" class="edge">
<title>Node1&#45;&gt;Node4</title>
<g id="a_edge3_Node000001_Node000004"><a xlink:title=" ">
<path fill="none" stroke="#63b8ff" d="M1418.07,-121.42C1410.29,-113.04 1399.62,-99.73 1395.12,-85.75 1390.98,-72.84 1390.98,-68.16 1395.12,-55.25 1398.28,-45.42 1404.5,-35.92 1410.61,-28.24"/>
<polygon fill="#63b8ff" stroke="#63b8ff" points="1413.21,-30.58 1417.09,-20.72 1407.91,-26.01 1413.21,-30.58"/>
</a>
</g>
</g>
<!-- Node5 -->
<g id="Node000005" class="node">
<title>Node5</title>
<g id="a_Node000005"><a xlink:title=" ">
<polygon fill="#e0e0e0" stroke="#999999" points="260.62,-19.25 217.62,-19.25 217.62,0 260.62,0 260.62,-19.25"/>
<text text-anchor="middle" x="239.12" y="-5.75" font-family="Helvetica,sans-Serif" font-size="10.00">vector</text>
</a>
</g>
</g>
<!-- Node1&#45;&gt;Node5 -->
<g id="edge4_Node000001_Node000005" class="edge">
<title>Node1&#45;&gt;Node5</title>
<g id="a_edge4_Node000001_Node000005"><a xlink:title=" ">
<path fill="none" stroke="#63b8ff" d="M1390.88,-130.69C1209,-132.01 400.6,-135.06 301.12,-85.75 277.03,-73.81 258.95,-47.72 248.71,-29.66"/>
<polygon fill="#63b8ff" stroke="#63b8ff" points="251.87,-28.16 244.07,-20.99 245.7,-31.46 251.87,-28.16"/>
</a>
</g>
</g>
<!-- Node6 -->
<g id="Node000006" class="node">
<title>Node6</title>
<g id="a_Node000006"><a xlink:title=" ">
<polygon fill="#e0e0e0" stroke="#999999" points="381.88,-80.12 310.38,-80.12 310.38,-60.88 381.88,-60.88 381.88,-80.12"/>
<text text-anchor="middle" x="346.12" y="-66.62" font-family="Helvetica,sans-Serif" font-size="10.00">QApplication</text>
</a>
</g>
</g>
<!-- Node1&#45;&gt;Node6 -->
<g id="edge5_Node000001_Node000006" class="edge">
<title>Node1&#45;&gt;Node6</title>
<g id="a_edge5_Node000001_Node000006"><a xlink:title=" ">
<path fill="none" stroke="#63b8ff" d="M1391.08,-130.13C1231.58,-128.83 588.43,-121.45 390.12,-85.75 387.12,-85.21 384.03,-84.51 380.96,-83.72"/>
<polygon fill="#63b8ff" stroke="#63b8ff" points="382.07,-80.4 371.49,-80.96 380.11,-87.12 382.07,-80.4"/>
</a>
</g>
</g>
<!-- Node7 -->
<g id="Node000007" class="node">
<title>Node7</title>
<g id="a_Node000007"><a xlink:title=" ">
<polygon fill="#e0e0e0" stroke="#999999" points="514.62,-80.12 399.62,-80.12 399.62,-60.88 514.62,-60.88 514.62,-80.12"/>
<text text-anchor="middle" x="457.12" y="-66.62" font-family="Helvetica,sans-Serif" font-size="10.00">QCommandLineParser</text>
</a>
</g>
</g>
<!-- Node1&#45;&gt;Node7 -->
<g id="edge6_Node000001_Node000007" class="edge">
<title>Node1&#45;&gt;Node7</title>
<g id="a_edge6_Node000001_Node000007"><a xlink:title=" ">
<path fill="none" stroke="#63b8ff" d="M1391.19,-130.7C1268.99,-131.36 858.46,-129.93 523.12,-85.75 517.17,-84.97 510.95,-83.92 504.82,-82.76"/>
<polygon fill="#63b8ff" stroke="#63b8ff" points="505.92,-79.41 495.42,-80.86 504.53,-86.27 505.92,-79.41"/>
</a>
</g>
</g>
<!-- Node8 -->
<g id="Node000008" class="node">
<title>Node8</title>
<g id="a_Node000008"><a xlink:title=" ">
<polygon fill="#e0e0e0" stroke="#999999" points="647.62,-80.12 532.62,-80.12 532.62,-60.88 647.62,-60.88 647.62,-80.12"/>
<text text-anchor="middle" x="590.12" y="-66.62" font-family="Helvetica,sans-Serif" font-size="10.00">QCommandLineOption</text>
</a>
</g>
</g>
<!-- Node1&#45;&gt;Node8 -->
<g id="edge7_Node000001_Node000008" class="edge">
<title>Node1&#45;&gt;Node8</title>
<g id="a_edge7_Node000001_Node000008"><a xlink:title=" ">
<path fill="none" stroke="#63b8ff" d="M1391.2,-130.27C1280.88,-129.51 937.44,-124.03 656.12,-85.75 650.39,-84.97 644.42,-83.96 638.5,-82.84"/>
<polygon fill="#63b8ff" stroke="#63b8ff" points="639.27,-79.42 628.78,-80.88 637.89,-86.29 639.27,-79.42"/>
</a>
</g>
</g>
<!-- Node9 -->
<g id="Node000009" class="node">
<title>Node9</title>
<g id="a_Node000009"><a xlink:title=" ">
<polygon fill="#e0e0e0" stroke="#999999" points="700.88,-80.12 665.38,-80.12 665.38,-60.88 700.88,-60.88 700.88,-80.12"/>
<text text-anchor="middle" x="683.12" y="-66.62" font-family="Helvetica,sans-Serif" font-size="10.00">QDir</text>
</a>
</g>
</g>
<!-- Node1&#45;&gt;Node9 -->
<g id="edge8_Node000001_Node000009" class="edge">
<title>Node1&#45;&gt;Node9</title>
<g id="a_edge8_Node000001_Node000009"><a xlink:title=" ">
<path fill="none" stroke="#63b8ff" d="M1391.27,-130.21C1264.68,-129.29 839.29,-123.42 709.12,-85.75 708.48,-85.56 707.83,-85.36 707.17,-85.13"/>
<polygon fill="#63b8ff" stroke="#63b8ff" points="708.87,-82.06 698.32,-81.15 706,-88.44 708.87,-82.06"/>
</a>
</g>
</g>
<!-- Node10 -->
<g id="Node000010" class="node">
<title>Node10</title>
<g id="a_Node000010"><a xlink:title=" ">
<polygon fill="#e0e0e0" stroke="#999999" points="799.75,-80.12 718.5,-80.12 718.5,-60.88 799.75,-60.88 799.75,-80.12"/>
<text text-anchor="middle" x="759.12" y="-66.62" font-family="Helvetica,sans-Serif" font-size="10.00">QImageReader</text>
</a>
</g>
</g>
<!-- Node1&#45;&gt;Node10 -->
<g id="edge9_Node000001_Node000010" class="edge">
<title>Node1&#45;&gt;Node10</title>
<g id="a_edge9_Node000001_Node000010"><a xlink:title=" ">
<path fill="none" stroke="#63b8ff" d="M1390.93,-130.35C1295.18,-129.72 1027.61,-124.35 809.12,-85.75 805.53,-85.11 801.81,-84.32 798.11,-83.44"/>
<polygon fill="#63b8ff" stroke="#63b8ff" points="799.21,-80.11 788.65,-80.97 797.44,-86.88 799.21,-80.11"/>
</a>
</g>
</g>
<!-- Node11 -->
<g id="Node000011" class="node">
<title>Node11</title>
<g id="a_Node000011"><a xlink:title=" ">
<polygon fill="#e0e0e0" stroke="#999999" points="866.25,-80.12 818,-80.12 818,-60.88 866.25,-60.88 866.25,-80.12"/>
<text text-anchor="middle" x="842.12" y="-66.62" font-family="Helvetica,sans-Serif" font-size="10.00">QTimer</text>
</a>
</g>
</g>
<!-- Node1&#45;&gt;Node11 -->
<g id="edge10_Node000001_Node000011" class="edge">
<title>Node1&#45;&gt;Node11</title>
<g id="a_edge10_Node000001_Node000011"><a xlink:title=" ">
<path fill="none" stroke="#63b8ff" d="M1391.08,-129C1284.72,-124.69 973.55,-110.27 875.12,-85.75 873.73,-85.4 872.32,-85 870.9,-84.56"/>
<polygon fill="#63b8ff" stroke="#63b8ff" points="872.27,-81.33 861.67,-81.12 869.82,-87.89 872.27,-81.33"/>
</a>
</g>
</g>
<!-- Node12 -->
<g id="Node000012" class="node">
<title>Node12</title>
<g id="a_Node000012"><a xlink:href="../../d3/d98/core__factory__accessor_8hpp.html" target="_top" xlink:title=" ">
<polygon fill="#fff0f0" stroke="red" points="1038.12,-80.12 884.12,-80.12 884.12,-60.88 1038.12,-60.88 1038.12,-80.12"/>
<text text-anchor="middle" x="961.12" y="-66.62" font-family="Helvetica,sans-Serif" font-size="10.00">core/core_factory_accessor.hpp</text>
</a>
</g>
</g>
<!-- Node1&#45;&gt;Node12 -->
<g id="edge11_Node000001_Node000012" class="edge">
<title>Node1&#45;&gt;Node12</title>
<g id="a_edge11_Node000001_Node000012"><a xlink:title=" ">
<path fill="none" stroke="#63b8ff" d="M1390.9,-126.7C1323.23,-119.7 1173.08,-103.57 1047.12,-85.75 1039.86,-84.72 1032.26,-83.57 1024.72,-82.38"/>
<polygon fill="#63b8ff" stroke="#63b8ff" points="1025.29,-78.93 1014.86,-80.8 1024.18,-85.84 1025.29,-78.93"/>
</a>
</g>
</g>
<!-- Node15 -->
<g id="Node000015" class="node">
<title>Node15</title>
<g id="a_Node000015"><a xlink:href="../../d2/d0c/exif__reader__factory_8hpp.html" target="_top" xlink:title=" ">
<polygon fill="#fff0f0" stroke="red" points="1193.88,-80.12 1056.38,-80.12 1056.38,-60.88 1193.88,-60.88 1193.88,-80.12"/>
<text text-anchor="middle" x="1125.12" y="-66.62" font-family="Helvetica,sans-Serif" font-size="10.00">core/exif_reader_factory.hpp</text>
</a>
</g>
</g>
<!-- Node1&#45;&gt;Node15 -->
<g id="edge12_Node000001_Node000015" class="edge">
<title>Node1&#45;&gt;Node15</title>
<g id="a_edge12_Node000001_Node000015"><a xlink:title=" ">
<path fill="none" stroke="#63b8ff" d="M1391,-123.33C1339.41,-113.27 1244.11,-94.7 1182.72,-82.73"/>
<polygon fill="#63b8ff" stroke="#63b8ff" points="1183.65,-79.34 1173.16,-80.86 1182.31,-86.21 1183.65,-79.34"/>
</a>
</g>
</g>
<!-- Node26 -->
<g id="Node000026" class="node">
<title>Node26</title>
<g id="a_Node000026"><a xlink:href="../../db/dc1/ifeatures__manager_8hpp.html" target="_top" xlink:title=" ">
<polygon fill="#fff0f0" stroke="red" points="1348.12,-80.12 1212.12,-80.12 1212.12,-60.88 1348.12,-60.88 1348.12,-80.12"/>
<text text-anchor="middle" x="1280.12" y="-66.62" font-family="Helvetica,sans-Serif" font-size="10.00">core/ifeatures_manager.hpp</text>
</a>
</g>
</g>
<!-- Node1&#45;&gt;Node26 -->
<g id="edge13_Node000001_Node000026" class="edge">
<title>Node1&#45;&gt;Node26</title>
<g id="a_edge13_Node000001_Node000026"><a xlink:title=" ">
<path fill="none" stroke="#63b8ff" d="M1404.48,-121.3C1380.02,-111.51 1340.83,-95.81 1312.98,-84.66"/>
<polygon fill="#63b8ff" stroke="#63b8ff" points="1314.55,-81.52 1303.96,-81.05 1311.94,-88.01 1314.55,-81.52"/>
</a>
</g>
</g>
<!-- Node29 -->
<g id="Node000029" class="node">
<title>Node29</title>
<g id="a_Node000029"><a xlink:href="../../d7/dfc/ilogger_8hpp.html" target="_top" xlink:title=" ">
<polygon fill="#fff0f0" stroke="red" points="1874.25,-19.25 1790,-19.25 1790,0 1874.25,0 1874.25,-19.25"/>
<text text-anchor="middle" x="1832.12" y="-5.75" font-family="Helvetica,sans-Serif" font-size="10.00">core/ilogger.hpp</text>
</a>
</g>
</g>
<!-- Node1&#45;&gt;Node29 -->
<g id="edge14_Node000001_Node000029" class="edge">
<title>Node1&#45;&gt;Node29</title>
<g id="a_edge14_Node000001_Node000029"><a xlink:title=" ">
<path fill="none" stroke="#63b8ff" d="M1463.15,-122.2C1491.39,-114.95 1531.12,-102.84 1563.12,-85.75 1582.54,-75.39 1582.1,-64.38 1602.12,-55.25 1658.88,-29.38 1730.18,-18.49 1778.22,-13.92"/>
<polygon fill="#63b8ff" stroke="#63b8ff" points="1778.45,-17.41 1788.1,-13.04 1777.84,-10.44 1778.45,-17.41"/>
</a>
</g>
</g>
<!-- Node31 -->
<g id="Node000031" class="node">
<title>Node31</title>
<g id="a_Node000031"><a xlink:href="../../d5/df1/logger__factory_8hpp.html" target="_top" xlink:title=" ">
<polygon fill="#fff0f0" stroke="red" points="2140.38,-80.12 2023.88,-80.12 2023.88,-60.88 2140.38,-60.88 2140.38,-80.12"/>
<text text-anchor="middle" x="2082.12" y="-66.62" font-family="Helvetica,sans-Serif" font-size="10.00">core/logger_factory.hpp</text>
</a>
</g>
</g>
<!-- Node1&#45;&gt;Node31 -->
<g id="edge15_Node000001_Node000031" class="edge">
<title>Node1&#45;&gt;Node31</title>
<g id="a_edge15_Node000001_Node000031"><a xlink:title=" ">
<path fill="none" stroke="#63b8ff" d="M1463.37,-129.27C1555.68,-126.09 1806.95,-115.2 2014.12,-85.75 2019.87,-84.93 2025.87,-83.92 2031.8,-82.81"/>
<polygon fill="#63b8ff" stroke="#63b8ff" points="2032.46,-86.25 2041.6,-80.89 2031.11,-79.38 2032.46,-86.25"/>
</a>
</g>
</g>
<!-- Node35 -->
<g id="Node000035" class="node">
<title>Node35</title>
<g id="a_Node000035"><a xlink:href="../../dc/dc0/task__executor_8hpp.html" target="_top" xlink:title=" ">
<polygon fill="#fff0f0" stroke="red" points="254.38,-80.12 137.88,-80.12 137.88,-60.88 254.38,-60.88 254.38,-80.12"/>
<text text-anchor="middle" x="196.12" y="-66.62" font-family="Helvetica,sans-Serif" font-size="10.00">core/task_executor.hpp</text>
</a>
</g>
</g>
<!-- Node1&#45;&gt;Node35 -->
<g id="edge17_Node000001_Node000035" class="edge">
<title>Node1&#45;&gt;Node35</title>
<g id="a_edge17_Node000001_Node000035"><a xlink:title=" ">
<path fill="none" stroke="#63b8ff" d="M1391.01,-129.75C1220.33,-126.67 493.49,-112.22 268.12,-85.75 261.4,-84.96 254.36,-83.88 247.42,-82.67"/>
<polygon fill="#63b8ff" stroke="#63b8ff" points="248.27,-79.27 237.8,-80.89 247,-86.15 248.27,-79.27"/>
</a>
</g>
</g>
<!-- Node44 -->
<g id="Node000044" class="node">
<title>Node44</title>
<g id="a_Node000044"><a xlink:href="../../d5/d23/observable__task__executor_8hpp.html" target="_top" xlink:title=" ">
<polygon fill="#fff0f0" stroke="red" points="1719.62,-85.75 1610.62,-85.75 1610.62,-55.25 1719.62,-55.25 1719.62,-85.75"/>
<text text-anchor="start" x="1618.62" y="-72.25" font-family="Helvetica,sans-Serif" font-size="10.00">core/observable_task</text>
<text text-anchor="middle" x="1665.12" y="-61" font-family="Helvetica,sans-Serif" font-size="10.00">_executor.hpp</text>
</a>
</g>
</g>
<!-- Node1&#45;&gt;Node44 -->
<g id="edge19_Node000001_Node000044" class="edge">
<title>Node1&#45;&gt;Node44</title>
<g id="a_edge19_Node000001_Node000044"><a xlink:title=" ">
<path fill="none" stroke="#63b8ff" d="M1463.27,-121.43C1499.28,-112.53 1555.38,-98.65 1599.31,-87.78"/>
<polygon fill="#63b8ff" stroke="#63b8ff" points="1600.14,-91.18 1609.01,-85.38 1598.46,-84.39 1600.14,-91.18"/>
</a>
</g>
</g>
<!-- Node49 -->
<g id="Node000049" class="node">
<title>Node49</title>
<g id="a_Node000049"><a xlink:href="../../d6/d8d/observables__registry_8hpp.html" target="_top" xlink:title=" ">
<polygon fill="#fff0f0" stroke="red" points="1882.62,-80.12 1737.62,-80.12 1737.62,-60.88 1882.62,-60.88 1882.62,-80.12"/>
<text text-anchor="middle" x="1810.12" y="-66.62" font-family="Helvetica,sans-Serif" font-size="10.00">core/observables_registry.hpp</text>
</a>
</g>
</g>
<!-- Node1&#45;&gt;Node49 -->
<g id="edge20_Node000001_Node000049" class="edge">
<title>Node1&#45;&gt;Node49</title>
<g id="a_edge20_Node000001_Node000049"><a xlink:title=" ">
<path fill="none" stroke="#63b8ff" d="M1462.97,-125.4C1519.58,-117.48 1633.12,-101.29 1729.12,-85.75 1735.45,-84.73 1742.04,-83.63 1748.61,-82.5"/>
<polygon fill="#63b8ff" stroke="#63b8ff" points="1748.86,-86.01 1758.12,-80.87 1747.67,-79.12 1748.86,-86.01"/>
</a>
</g>
</g>
<!-- Node51 -->
<g id="Node000051" class="node">
<title>Node51</title>
<g id="a_Node000051"><a xlink:href="../../dd/d9a/crash__catcher_8hpp.html" target="_top" xlink:title=" ">
<polygon fill="#fff0f0" stroke="red" points="2005.38,-85.75 1900.88,-85.75 1900.88,-55.25 2005.38,-55.25 2005.38,-85.75"/>
<text text-anchor="start" x="1908.88" y="-72.25" font-family="Helvetica,sans-Serif" font-size="10.00">crash_catcher/crash</text>
<text text-anchor="middle" x="1953.12" y="-61" font-family="Helvetica,sans-Serif" font-size="10.00">_catcher.hpp</text>
</a>
</g>
</g>
<!-- Node1&#45;&gt;Node51 -->
<g id="edge21_Node000001_Node000051" class="edge">
<title>Node1&#45;&gt;Node51</title>
<g id="a_edge21_Node000001_Node000051"><a xlink:title=" ">
<path fill="none" stroke="#63b8ff" d="M1463.22,-128.56C1539.91,-124.35 1724.91,-112.33 1889.34,-86.06"/>
<polygon fill="#63b8ff" stroke="#63b8ff" points="1889.84,-89.53 1899.15,-84.47 1888.72,-82.62 1889.84,-89.53"/>
</a>
</g>
</g>
<!-- Node53 -->
<g id="Node000053" class="node">
<title>Node53</title>
<g id="a_Node000053"><a xlink:href="../../d2/def/database__builder_8hpp.html" target="_top" xlink:title=" ">
<polygon fill="#fff0f0" stroke="red" points="1554.25,-80.12 1404,-80.12 1404,-60.88 1554.25,-60.88 1554.25,-80.12"/>
<text text-anchor="middle" x="1479.12" y="-66.62" font-family="Helvetica,sans-Serif" font-size="10.00">database/database_builder.hpp</text>
</a>
</g>
</g>
<!-- Node1&#45;&gt;Node53 -->
<g id="edge22_Node000001_Node000053" class="edge">
<title>Node1&#45;&gt;Node53</title>
<g id="a_edge22_Node000001_Node000053"><a xlink:title=" ">
<path fill="none" stroke="#63b8ff" d="M1435.02,-121.43C1442.58,-112.87 1454.19,-99.73 1463.61,-89.07"/>
<polygon fill="#63b8ff" stroke="#63b8ff" points="1466.15,-91.47 1470.15,-81.66 1460.91,-86.84 1466.15,-91.47"/>
</a>
</g>
</g>
<!-- Node85 -->
<g id="Node000085" class="node">
<title>Node85</title>
<g id="a_Node000085"><a xlink:href="../../dc/d7c/gui_8hpp.html" target="_top" xlink:title=" ">
<polygon fill="#fff0f0" stroke="red" points="2221.38,-80.12 2158.88,-80.12 2158.88,-60.88 2221.38,-60.88 2221.38,-80.12"/>
<text text-anchor="middle" x="2190.12" y="-66.62" font-family="Helvetica,sans-Serif" font-size="10.00">gui/gui.hpp</text>
</a>
</g>
</g>
<!-- Node1&#45;&gt;Node85 -->
<g id="edge24_Node000001_Node000085" class="edge">
<title>Node1&#45;&gt;Node85</title>
<g id="a_edge24_Node000001_Node000085"><a xlink:title=" ">
<path fill="none" stroke="#63b8ff" d="M1462.99,-129.45C1589.65,-125.99 2015.53,-112.57 2149.12,-85.75 2151.59,-85.26 2154.1,-84.65 2156.61,-83.97"/>
<polygon fill="#63b8ff" stroke="#63b8ff" points="2157.48,-87.36 2166,-81.06 2155.41,-80.68 2157.48,-87.36"/>
</a>
</g>
</g>
<!-- Node87 -->
<g id="Node000087" class="node">
<title>Node87</title>
<g id="a_Node000087"><a xlink:href="../../d1/d2f/plugin__loader_8hpp.html" target="_top" xlink:title=" ">
<polygon fill="#fff0f0" stroke="red" points="2364.5,-80.12 2239.75,-80.12 2239.75,-60.88 2364.5,-60.88 2364.5,-80.12"/>
<text text-anchor="middle" x="2302.12" y="-66.62" font-family="Helvetica,sans-Serif" font-size="10.00">plugins/plugin_loader.hpp</text>
</a>
</g>
</g>
<!-- Node1&#45;&gt;Node87 -->
<g id="edge25_Node000001_Node000087" class="edge">
<title>Node1&#45;&gt;Node87</title>
<g id="a_edge25_Node000001_Node000087"><a xlink:title=" ">
<path fill="none" stroke="#63b8ff" d="M1463.3,-130.16C1576.79,-129.11 1935.75,-122.87 2230.12,-85.75 2236.69,-84.92 2243.54,-83.85 2250.31,-82.65"/>
<polygon fill="#63b8ff" stroke="#63b8ff" points="2250.87,-86.11 2260.06,-80.84 2249.58,-79.23 2250.87,-86.11"/>
</a>
</g>
</g>
<!-- Node89 -->
<g id="Node000089" class="node">
<title>Node89</title>
<g id="a_Node000089"><a xlink:href="../../d1/d9a/project__manager_8hpp.html" target="_top" xlink:title=" ">
<polygon fill="#fff0f0" stroke="red" points="2483.5,-85.75 2382.75,-85.75 2382.75,-55.25 2483.5,-55.25 2483.5,-85.75"/>
<text text-anchor="start" x="2390.75" y="-72.25" font-family="Helvetica,sans-Serif" font-size="10.00">project_utils/project</text>
<text text-anchor="middle" x="2433.12" y="-61" font-family="Helvetica,sans-Serif" font-size="10.00">_manager.hpp</text>
</a>
</g>
</g>
<!-- Node1&#45;&gt;Node89 -->
<g id="edge26_Node000001_Node000089" class="edge">
<title>Node1&#45;&gt;Node89</title>
<g id="a_edge26_Node000001_Node000089"><a xlink:title=" ">
<path fill="none" stroke="#63b8ff" d="M1463.19,-129.57C1610.85,-126.15 2170.53,-111.81 2371.23,-85.75"/>
<polygon fill="#63b8ff" stroke="#63b8ff" points="2371.57,-89.24 2381.01,-84.42 2370.63,-82.3 2371.57,-89.24"/>
</a>
</g>
</g>
<!-- Node93 -->
<g id="Node000093" class="node">
<title>Node93</title>
<g id="a_Node000093"><a xlink:title=" ">
<polygon fill="#e0e0e0" stroke="#999999" points="2560.88,-80.12 2501.38,-80.12 2501.38,-60.88 2560.88,-60.88 2560.88,-80.12"/>
<text text-anchor="middle" x="2531.12" y="-66.62" font-family="Helvetica,sans-Serif" font-size="10.00">config.hpp</text>
</a>
</g>
</g>
<!-- Node1&#45;&gt;Node93 -->
<g id="edge27_Node000001_Node000093" class="edge">
<title>Node1&#45;&gt;Node93</title>
<g id="a_edge27_Node000001_Node000093"><a xlink:title=" ">
<path fill="none" stroke="#63b8ff" d="M1463.36,-130.35C1625.91,-130.01 2288.83,-126.13 2492.12,-85.75 2494.45,-85.29 2496.81,-84.71 2499.17,-84.06"/>
<polygon fill="#63b8ff" stroke="#63b8ff" points="2500.13,-87.43 2508.57,-81.02 2497.98,-80.76 2500.13,-87.43"/>
</a>
</g>
</g>
<!-- Node94 -->
<g id="Node000094" class="node">
<title>Node94</title>
<g id="a_Node000094"><a xlink:href="../../df/db0/config__storage_8hpp.html" target="_top" xlink:title=" ">
<polygon fill="#fff0f0" stroke="red" points="2675.62,-80.12 2578.62,-80.12 2578.62,-60.88 2675.62,-60.88 2675.62,-80.12"/>
<text text-anchor="middle" x="2627.12" y="-66.62" font-family="Helvetica,sans-Serif" font-size="10.00">config_storage.hpp</text>
</a>
</g>
</g>
<!-- Node1&#45;&gt;Node94 -->
<g id="edge28_Node000001_Node000094" class="edge">
<title>Node1&#45;&gt;Node94</title>
<g id="a_edge28_Node000001_Node000094"><a xlink:title=" ">
<path fill="none" stroke="#63b8ff" d="M1463.34,-129.96C1632.83,-127.89 2348.84,-117.39 2570.12,-85.75 2574.84,-85.08 2579.73,-84.17 2584.58,-83.15"/>
<polygon fill="#63b8ff" stroke="#63b8ff" points="2585.26,-86.58 2594.22,-80.93 2583.69,-79.76 2585.26,-86.58"/>
</a>
</g>
</g>
<!-- Node97 -->
<g id="Node000097" class="node">
<title>Node97</title>
<g id="a_Node000097"><a xlink:href="../../d7/d57/features_8hpp.html" target="_top" xlink:title=" ">
<polygon fill="white" stroke="#666666" points="2762.75,-80.12 2693.5,-80.12 2693.5,-60.88 2762.75,-60.88 2762.75,-80.12"/>
<text text-anchor="middle" x="2728.12" y="-66.62" font-family="Helvetica,sans-Serif" font-size="10.00">features.hpp</text>
</a>
</g>
</g>
<!-- Node1&#45;&gt;Node97 -->
<g id="edge29_Node000001_Node000097" class="edge">
<title>Node1&#45;&gt;Node97</title>
<g id="a_edge29_Node000001_Node000097"><a xlink:title=" ">
<path fill="none" stroke="#63b8ff" d="M1463.09,-130.48C1642.45,-130.77 2441.26,-129.56 2685.12,-85.75 2687.97,-85.24 2690.88,-84.58 2693.79,-83.83"/>
<polygon fill="#63b8ff" stroke="#63b8ff" points="2694.74,-87.2 2703.33,-81 2692.75,-80.49 2694.74,-87.2"/>
</a>
</g>
</g>
<!-- Node98 -->
<g id="Node000098" class="node">
<title>Node98</title>
<g id="a_Node000098"><a xlink:title=" ">
<polygon fill="#e0e0e0" stroke="#999999" points="2839.12,-80.12 2781.12,-80.12 2781.12,-60.88 2839.12,-60.88 2839.12,-80.12"/>
<text text-anchor="middle" x="2810.12" y="-66.62" font-family="Helvetica,sans-Serif" font-size="10.00">paths.hpp</text>
</a>
</g>
</g>
<!-- Node1&#45;&gt;Node98 -->
<g id="edge30_Node000001_Node000098" class="edge">
<title>Node1&#45;&gt;Node98</title>
<g id="a_edge30_Node000001_Node000098"><a xlink:title=" ">
<path fill="none" stroke="#63b8ff" d="M1463.15,-129.88C1663.95,-127.02 2640.64,-111.85 2772.12,-85.75 2774.3,-85.32 2776.52,-84.78 2778.73,-84.16"/>
<polygon fill="#63b8ff" stroke="#63b8ff" points="2779.73,-87.51 2788.14,-81.07 2777.54,-80.86 2779.73,-87.51"/>
</a>
</g>
</g>
<!-- Node99 -->
<g id="Node000099" class="node">
<title>Node99</title>
<g id="a_Node000099"><a xlink:title=" ">
<polygon fill="#e0e0e0" stroke="#999999" points="2933.5,-80.12 2856.75,-80.12 2856.75,-60.88 2933.5,-60.88 2933.5,-80.12"/>
<text text-anchor="middle" x="2895.12" y="-66.62" font-family="Helvetica,sans-Serif" font-size="10.00">broom.system</text>
</a>
</g>
</g>
<!-- Node1&#45;&gt;Node99 -->
<g id="edge31_Node000001_Node000099" class="edge">
<title>Node1&#45;&gt;Node99</title>
<g id="a_edge31_Node000001_Node000099"><a xlink:title=" ">
<path fill="none" stroke="#63b8ff" d="M1463.16,-130.52C1656.24,-131.13 2569.86,-131.48 2848.12,-85.75 2851.55,-85.19 2855.07,-84.44 2858.57,-83.59"/>
<polygon fill="#63b8ff" stroke="#63b8ff" points="2859.38,-87 2868.1,-80.98 2857.53,-80.25 2859.38,-87"/>
</a>
</g>
</g>
<!-- Node31&#45;&gt;Node29 -->
<g id="edge16_Node000031_Node000029" class="edge">
<title>Node31&#45;&gt;Node29</title>
<g id="a_edge16_Node000031_Node000029"><a xlink:title=" ">
<path fill="none" stroke="#63b8ff" d="M2043.61,-60.43C2000.12,-50.19 1929.23,-33.49 1881.65,-22.29"/>
<polygon fill="#63b8ff" stroke="#63b8ff" points="1882.69,-18.94 1872.16,-20.05 1881.09,-25.75 1882.69,-18.94"/>
</a>
</g>
</g>
<!-- Node35&#45;&gt;Node5 -->
<g id="edge18_Node000035_Node000005" class="edge">
<title>Node35&#45;&gt;Node5</title>
<g id="a_edge18_Node000035_Node000005"><a xlink:title=" ">
<path fill="none" stroke="#63b8ff" d="M202.66,-60.56C208.78,-52.17 218.12,-39.38 225.82,-28.84"/>
<polygon fill="#63b8ff" stroke="#63b8ff" points="228.57,-31.01 231.64,-20.87 222.92,-26.88 228.57,-31.01"/>
</a>
</g>
</g>
<!-- Node53&#45;&gt;Node4 -->
<g id="edge23_Node000053_Node000004" class="edge">
<title>Node53&#45;&gt;Node4</title>
<g id="a_edge23_Node000053_Node000004"><a xlink:title=" ">
<path fill="none" stroke="#63b8ff" d="M1471.23,-60.56C1463.67,-52 1452.06,-38.85 1442.64,-28.2"/>
<polygon fill="#63b8ff" stroke="#63b8ff" points="1445.34,-25.96 1436.1,-20.79 1440.1,-30.6 1445.34,-25.96"/>
</a>
</g>
</g>
</g>
</svg>

<g id="navigator" transform="translate(0 0)" fill="#404254">
  <rect fill="#f2f5e9" fill-opacity="0.5" stroke="#606060" stroke-width=".5" x="0" y="0" width="60" height="60"/>
  <use id="zoomplus" xlink:href="#zoomPlus" x="17" y="9" onmousedown="handleZoom(evt,'in')"/>
  <use id="zoomminus" xlink:href="#zoomMin" x="42" y="9" onmousedown="handleZoom(evt,'out')"/>
  <use id="reset" xlink:href="#resetDef" x="30" y="36" onmousedown="handleReset()"/>
   <use id="arrowup" xlink:href="#arrowUp" x="0" y="0" onmousedown="handlePan(0,-1)"/>
  <use id="arrowright" xlink:href="#arrowRight" x="0" y="0" onmousedown="handlePan(1,0)"/>
  <use id="arrowdown" xlink:href="#arrowDown" x="0" y="0" onmousedown="handlePan(0,1)"/>
  <use id="arrowleft" xlink:href="#arrowLeft" x="0" y="0" onmousedown="handlePan(-1,0)"/>
</g>
<svg viewBox="0 0 15 15" width="100%" height="30px" preserveAspectRatio="xMaxYMin meet">
 <g id="arrow_out" transform="scale(0.3 0.3)">
  <a xlink:href="main_8cpp__incl_org.svg" target="_base">
   <rect id="button" ry="5" rx="5" y="6" x="6" height="38" width="38"
        fill="#f2f5e9" fill-opacity="0.5" stroke="#606060" stroke-width="1.0"/>
   <path id="arrow"
     d="M 11.500037,31.436501 C 11.940474,20.09759 22.043105,11.32322 32.158766,21.979434 L 37.068811,17.246167 C 37.068811,17.246167 37.088388,32 37.088388,32 L 22.160133,31.978069 C 22.160133,31.978069 26.997745,27.140456 26.997745,27.140456 C 18.528582,18.264221 13.291696,25.230495 11.500037,31.436501 z"
     style="fill:#404040;"/>
  </a>
 </g>
</svg>

<style type='text/css'>
<![CDATA[
[data-mouse-over-selected='false'] { opacity: 0.7; }
[data-mouse-over-selected='true']  { opacity: 1.0; }
]]>
</style>
<script type="application/ecmascript"><![CDATA[
document.addEventListener('DOMContentLoaded', (event) => {
  highlightEdges();
  highlightAdjacentNodes();
});
]]></script>
</svg>
