<?xml version="1.0" encoding="UTF-8" standalone="no"?>
<!DOCTYPE svg PUBLIC "-//W3C//DTD SVG 1.1//EN"
 "http://www.w3.org/Graphics/SVG/1.1/DTD/svg11.dtd">
<!-- Generated by graphviz version 9.0.0 (20230911.1827)
 -->
<!-- Title: src/main.cpp Pages: 1 -->
<svg width="2911pt" height="149pt"
 viewBox="0.00 0.00 2910.75 149.00" xmlns="http://www.w3.org/2000/svg" xmlns:xlink="http://www.w3.org/1999/xlink">
<g id="graph0" class="graph" transform="scale(1 1) rotate(0) translate(4 145)">
<title>src/main.cpp</title>
<!-- Node1 -->
<g id="Node000001" class="node">
<title>Node1</title>
<g id="a_Node000001"><a xlink:title=" ">
<polygon fill="#999999" stroke="#666666" points="1469.88,-141 1398.38,-141 1398.38,-121.75 1469.88,-121.75 1469.88,-141"/>
<text text-anchor="middle" x="1434.12" y="-127.5" font-family="Helvetica,sans-Serif" font-size="10.00">src/main.cpp</text>
</a>
</g>
</g>
<!-- Node2 -->
<g id="Node000002" class="node">
<title>Node2</title>
<g id="a_Node000002"><a xlink:title=" ">
<polygon fill="#e0e0e0" stroke="#999999" points="48.25,-80.12 0,-80.12 0,-60.88 48.25,-60.88 48.25,-80.12"/>
<text text-anchor="middle" x="24.12" y="-66.62" font-family="Helvetica,sans-Serif" font-size="10.00">cassert</text>
</a>
</g>
</g>
<!-- Node1&#45;&gt;Node2 -->
<g id="edge1_Node000001_Node000002" class="edge">
<title>Node1&#45;&gt;Node2</title>
<g id="a_edge1_Node000001_Node000002"><a xlink:title=" ">
<path fill="none" stroke="#63b8ff" d="M1397.89,-130.01C1193.71,-127.84 191.2,-115.73 57.12,-85.75 55.53,-85.39 53.91,-84.96 52.29,-84.47"/>
<polygon fill="#63b8ff" stroke="#63b8ff" points="53.88,-81.32 43.29,-81.13 51.45,-87.89 53.88,-81.32"/>
</a>
</g>
</g>
<!-- Node3 -->
<g id="Node000003" class="node">
<title>Node3</title>
<g id="a_Node000003"><a xlink:title=" ">
<polygon fill="#e0e0e0" stroke="#999999" points="119.88,-80.12 66.38,-80.12 66.38,-60.88 119.88,-60.88 119.88,-80.12"/>
<text text-anchor="middle" x="93.12" y="-66.62" font-family="Helvetica,sans-Serif" font-size="10.00">iostream</text>
</a>
</g>
</g>
<!-- Node1&#45;&gt;Node3 -->
<g id="edge2_Node000001_Node000003" class="edge">
<title>Node1&#45;&gt;Node3</title>
<g id="a_edge2_Node000001_Node000003"><a xlink:title=" ">
<path fill="none" stroke="#63b8ff" d="M1397.88,-129.87C1200.17,-127.05 256.18,-112.24 129.12,-85.75 127.22,-85.35 125.3,-84.87 123.37,-84.31"/>
<polygon fill="#63b8ff" stroke="#63b8ff" points="124.58,-81.03 113.99,-81.09 122.3,-87.65 124.58,-81.03"/>
</a>
</g>
</g>
<!-- Node4 -->
<g id="Node000004" class="node">
<title>Node4</title>
<g id="a_Node000004"><a xlink:title=" ">
<polygon fill="#e0e0e0" stroke="#999999" points="844.12,-19.25 804.12,-19.25 804.12,0 844.12,0 844.12,-19.25"/>
<text text-anchor="middle" x="824.12" y="-5.75" font-family="Helvetica,sans-Serif" font-size="10.00">string</text>
</a>
</g>
</g>
<!-- Node1&#45;&gt;Node4 -->
<g id="edge3_Node000001_Node000004" class="edge">
<title>Node1&#45;&gt;Node4</title>
<g id="a_edge3_Node000001_Node000004"><a xlink:title=" ">
<path fill="none" stroke="#63b8ff" d="M1434.89,-121.25C1435.68,-105.11 1434.69,-71.7 1415.12,-55.25 1372.1,-19.07 971.92,-12.14 855.66,-10.89"/>
<polygon fill="#63b8ff" stroke="#63b8ff" points="855.96,-7.39 845.92,-10.79 855.89,-14.39 855.96,-7.39"/>
</a>
</g>
</g>
<!-- Node5 -->
<g id="Node000005" class="node">
<title>Node5</title>
<g id="a_Node000005"><a xlink:title=" ">
<polygon fill="#e0e0e0" stroke="#999999" points="349.62,-80.12 306.62,-80.12 306.62,-60.88 349.62,-60.88 349.62,-80.12"/>
<text text-anchor="middle" x="328.12" y="-66.62" font-family="Helvetica,sans-Serif" font-size="10.00">vector</text>
</a>
</g>
</g>
<!-- Node1&#45;&gt;Node5 -->
<g id="edge4_Node000001_Node000005" class="edge">
<title>Node1&#45;&gt;Node5</title>
<g id="a_edge4_Node000001_Node000005"><a xlink:title=" ">
<path fill="none" stroke="#63b8ff" d="M1398.07,-129.74C1222.43,-126.51 460.78,-111.14 358.12,-85.75 356.95,-85.46 355.77,-85.12 354.58,-84.74"/>
<polygon fill="#63b8ff" stroke="#63b8ff" points="356.18,-81.61 345.59,-81.14 353.57,-88.11 356.18,-81.61"/>
</a>
</g>
</g>
<!-- Node6 -->
<g id="Node000006" class="node">
<title>Node6</title>
<g id="a_Node000006"><a xlink:title=" ">
<polygon fill="#e0e0e0" stroke="#999999" points="438.88,-80.12 367.38,-80.12 367.38,-60.88 438.88,-60.88 438.88,-80.12"/>
<text text-anchor="middle" x="403.12" y="-66.62" font-family="Helvetica,sans-Serif" font-size="10.00">QApplication</text>
</a>
</g>
</g>
<!-- Node1&#45;&gt;Node6 -->
<g id="edge5_Node000001_Node000006" class="edge">
<title>Node1&#45;&gt;Node6</title>
<g id="a_edge5_Node000001_Node000006"><a xlink:title=" ">
<path fill="none" stroke="#63b8ff" d="M1398.06,-130C1243.44,-128.21 636.03,-119.16 448.12,-85.75 444.95,-85.19 441.68,-84.46 438.43,-83.63"/>
<polygon fill="#63b8ff" stroke="#63b8ff" points="439.62,-80.33 429.05,-80.94 437.7,-87.06 439.62,-80.33"/>
</a>
</g>
</g>
<!-- Node7 -->
<g id="Node000007" class="node">
<title>Node7</title>
<g id="a_Node000007"><a xlink:title=" ">
<polygon fill="#e0e0e0" stroke="#999999" points="492.88,-80.12 457.38,-80.12 457.38,-60.88 492.88,-60.88 492.88,-80.12"/>
<text text-anchor="middle" x="475.12" y="-66.62" font-family="Helvetica,sans-Serif" font-size="10.00">QDir</text>
</a>
</g>
</g>
<!-- Node1&#45;&gt;Node7 -->
<g id="edge6_Node000001_Node000007" class="edge">
<title>Node1&#45;&gt;Node7</title>
<g id="a_edge6_Node000001_Node000007"><a xlink:title=" ">
<path fill="none" stroke="#63b8ff" d="M1398.04,-130.81C1248.13,-132.28 674.29,-134.53 501.12,-85.75 500.47,-85.57 499.82,-85.36 499.17,-85.15"/>
<polygon fill="#63b8ff" stroke="#63b8ff" points="500.87,-82.07 490.31,-81.18 498.01,-88.46 500.87,-82.07"/>
</a>
</g>
</g>
<!-- Node8 -->
<g id="Node000008" class="node">
<title>Node8</title>
<g id="a_Node000008"><a xlink:title=" ">
<polygon fill="#e0e0e0" stroke="#999999" points="591.75,-80.12 510.5,-80.12 510.5,-60.88 591.75,-60.88 591.75,-80.12"/>
<text text-anchor="middle" x="551.12" y="-66.62" font-family="Helvetica,sans-Serif" font-size="10.00">QImageReader</text>
</a>
</g>
</g>
<!-- Node1&#45;&gt;Node8 -->
<g id="edge7_Node000001_Node000008" class="edge">
<title>Node1&#45;&gt;Node8</title>
<g id="a_edge7_Node000001_Node000008"><a xlink:title=" ">
<path fill="none" stroke="#63b8ff" d="M1398.14,-129.55C1259.14,-126.19 757.19,-112.43 600.12,-85.75 596.54,-85.14 592.85,-84.36 589.18,-83.48"/>
<polygon fill="#63b8ff" stroke="#63b8ff" points="590.36,-80.18 579.8,-81 588.57,-86.94 590.36,-80.18"/>
</a>
</g>
</g>
<!-- Node9 -->
<g id="Node000009" class="node">
<title>Node9</title>
<g id="a_Node000009"><a xlink:title=" ">
<polygon fill="#e0e0e0" stroke="#999999" points="724.62,-80.12 609.62,-80.12 609.62,-60.88 724.62,-60.88 724.62,-80.12"/>
<text text-anchor="middle" x="667.12" y="-66.62" font-family="Helvetica,sans-Serif" font-size="10.00">QCommandLineParser</text>
</a>
</g>
</g>
<!-- Node1&#45;&gt;Node9 -->
<g id="edge8_Node000001_Node000009" class="edge">
<title>Node1&#45;&gt;Node9</title>
<g id="a_edge8_Node000001_Node000009"><a xlink:title=" ">
<path fill="none" stroke="#63b8ff" d="M1398.19,-129.97C1294.52,-128.41 986.17,-120.92 733.12,-85.75 727.46,-84.96 721.57,-83.96 715.73,-82.85"/>
<polygon fill="#63b8ff" stroke="#63b8ff" points="716.62,-79.46 706.13,-80.91 715.24,-86.32 716.62,-79.46"/>
</a>
</g>
</g>
<!-- Node10 -->
<g id="Node000010" class="node">
<title>Node10</title>
<g id="a_Node000010"><a xlink:title=" ">
<polygon fill="#e0e0e0" stroke="#999999" points="857.62,-80.12 742.62,-80.12 742.62,-60.88 857.62,-60.88 857.62,-80.12"/>
<text text-anchor="middle" x="800.12" y="-66.62" font-family="Helvetica,sans-Serif" font-size="10.00">QCommandLineOption</text>
</a>
</g>
</g>
<!-- Node1&#45;&gt;Node10 -->
<g id="edge9_Node000001_Node000010" class="edge">
<title>Node1&#45;&gt;Node10</title>
<g id="a_edge9_Node000001_Node000010"><a xlink:title=" ">
<path fill="none" stroke="#63b8ff" d="M1398.12,-129.18C1308.16,-125.83 1066.47,-114.67 867.12,-85.75 861.46,-84.93 855.56,-83.91 849.7,-82.8"/>
<polygon fill="#63b8ff" stroke="#63b8ff" points="850.56,-79.41 840.07,-80.88 849.19,-86.27 850.56,-79.41"/>
</a>
</g>
</g>
<!-- Node11 -->
<g id="Node000011" class="node">
<title>Node11</title>
<g id="a_Node000011"><a xlink:title=" ">
<polygon fill="#e0e0e0" stroke="#999999" points="924.25,-80.12 876,-80.12 876,-60.88 924.25,-60.88 924.25,-80.12"/>
<text text-anchor="middle" x="900.12" y="-66.62" font-family="Helvetica,sans-Serif" font-size="10.00">QTimer</text>
</a>
</g>
</g>
<!-- Node1&#45;&gt;Node11 -->
<g id="edge10_Node000001_Node000011" class="edge">
<title>Node1&#45;&gt;Node11</title>
<g id="a_edge10_Node000001_Node000011"><a xlink:title=" ">
<path fill="none" stroke="#63b8ff" d="M1397.94,-131.05C1314.56,-131.78 1103.05,-128.82 933.12,-85.75 931.73,-85.4 930.32,-84.99 928.9,-84.55"/>
<polygon fill="#63b8ff" stroke="#63b8ff" points="930.27,-81.32 919.68,-81.09 927.82,-87.88 930.27,-81.32"/>
</a>
</g>
</g>
<!-- Node12 -->
<g id="Node000012" class="node">
<title>Node12</title>
<g id="a_Node000012"><a xlink:href="../../d3/d98/core__factory__accessor_8hpp.html" target="_top" xlink:title=" ">
<polygon fill="#fff0f0" stroke="red" points="1096.12,-80.12 942.12,-80.12 942.12,-60.88 1096.12,-60.88 1096.12,-80.12"/>
<text text-anchor="middle" x="1019.12" y="-66.62" font-family="Helvetica,sans-Serif" font-size="10.00">core/core_factory_accessor.hpp</text>
</a>
</g>
</g>
<!-- Node1&#45;&gt;Node12 -->
<g id="edge11_Node000001_Node000012" class="edge">
<title>Node1&#45;&gt;Node12</title>
<g id="a_edge11_Node000001_Node000012"><a xlink:title=" ">
<path fill="none" stroke="#63b8ff" d="M1398.05,-125.83C1337.46,-118.13 1211.43,-101.76 1105.12,-85.75 1098.15,-84.7 1090.87,-83.56 1083.62,-82.4"/>
<polygon fill="#63b8ff" stroke="#63b8ff" points="1084.23,-78.95 1073.8,-80.8 1083.11,-85.86 1084.23,-78.95"/>
</a>
</g>
</g>
<!-- Node15 -->
<g id="Node000015" class="node">
<title>Node15</title>
<g id="a_Node000015"><a xlink:href="../../d2/d0c/exif__reader__factory_8hpp.html" target="_top" xlink:title=" ">
<polygon fill="#fff0f0" stroke="red" points="1251.88,-80.12 1114.38,-80.12 1114.38,-60.88 1251.88,-60.88 1251.88,-80.12"/>
<text text-anchor="middle" x="1183.12" y="-66.62" font-family="Helvetica,sans-Serif" font-size="10.00">core/exif_reader_factory.hpp</text>
</a>
</g>
</g>
<!-- Node1&#45;&gt;Node15 -->
<g id="edge12_Node000001_Node000015" class="edge">
<title>Node1&#45;&gt;Node15</title>
<g id="a_edge12_Node000001_Node000015"><a xlink:title=" ">
<path fill="none" stroke="#63b8ff" d="M1397.9,-121.88C1354.44,-111.68 1281.39,-94.55 1232.72,-83.13"/>
<polygon fill="#63b8ff" stroke="#63b8ff" points="1233.83,-79.8 1223.29,-80.92 1232.23,-86.61 1233.83,-79.8"/>
</a>
</g>
</g>
<!-- Node26 -->
<g id="Node000026" class="node">
<title>Node26</title>
<g id="a_Node000026"><a xlink:href="../../db/dc1/ifeatures__manager_8hpp.html" target="_top" xlink:title=" ">
<polygon fill="#fff0f0" stroke="red" points="1406.12,-80.12 1270.12,-80.12 1270.12,-60.88 1406.12,-60.88 1406.12,-80.12"/>
<text text-anchor="middle" x="1338.12" y="-66.62" font-family="Helvetica,sans-Serif" font-size="10.00">core/ifeatures_manager.hpp</text>
</a>
</g>
</g>
<!-- Node1&#45;&gt;Node26 -->
<g id="edge13_Node000001_Node000026" class="edge">
<title>Node1&#45;&gt;Node26</title>
<g id="a_edge13_Node000001_Node000026"><a xlink:title=" ">
<path fill="none" stroke="#63b8ff" d="M1419.54,-121.43C1404.46,-112.18 1380.64,-97.57 1362.65,-86.54"/>
<polygon fill="#63b8ff" stroke="#63b8ff" points="1364.49,-83.56 1354.13,-81.32 1360.83,-89.53 1364.49,-83.56"/>
</a>
</g>
</g>
<!-- Node29 -->
<g id="Node000029" class="node">
<title>Node29</title>
<g id="a_Node000029"><a xlink:href="../../d7/dfc/ilogger_8hpp.html" target="_top" xlink:title=" ">
<polygon fill="#fff0f0" stroke="red" points="1879.25,-19.25 1795,-19.25 1795,0 1879.25,0 1879.25,-19.25"/>
<text text-anchor="middle" x="1837.12" y="-5.75" font-family="Helvetica,sans-Serif" font-size="10.00">core/ilogger.hpp</text>
</a>
</g>
</g>
<!-- Node1&#45;&gt;Node29 -->
<g id="edge14_Node000001_Node000029" class="edge">
<title>Node1&#45;&gt;Node29</title>
<g id="a_edge14_Node000001_Node000029"><a xlink:title=" ">
<path fill="none" stroke="#63b8ff" d="M1469.97,-129.44C1609.82,-125.62 2112.15,-110.23 2135.12,-85.75 2144.4,-75.86 2143.97,-65.52 2135.12,-55.25 2104.23,-19.39 1968.11,-11.93 1890.97,-10.64"/>
<polygon fill="#63b8ff" stroke="#63b8ff" points="1891.13,-7.14 1881.09,-10.5 1891.04,-14.14 1891.13,-7.14"/>
</a>
</g>
</g>
<!-- Node31 -->
<g id="Node000031" class="node">
<title>Node31</title>
<g id="a_Node000031"><a xlink:href="../../d5/df1/logger__factory_8hpp.html" target="_top" xlink:title=" ">
<polygon fill="#fff0f0" stroke="red" points="1578.38,-80.12 1461.88,-80.12 1461.88,-60.88 1578.38,-60.88 1578.38,-80.12"/>
<text text-anchor="middle" x="1520.12" y="-66.62" font-family="Helvetica,sans-Serif" font-size="10.00">core/logger_factory.hpp</text>
</a>
</g>
</g>
<!-- Node1&#45;&gt;Node31 -->
<g id="edge15_Node000001_Node000031" class="edge">
<title>Node1&#45;&gt;Node31</title>
<g id="a_edge15_Node000001_Node000031"><a xlink:title=" ">
<path fill="none" stroke="#63b8ff" d="M1447.19,-121.43C1460.57,-112.27 1481.64,-97.84 1497.7,-86.85"/>
<polygon fill="#63b8ff" stroke="#63b8ff" points="1499.42,-89.92 1505.69,-81.38 1495.46,-84.14 1499.42,-89.92"/>
</a>
</g>
</g>
<!-- Node35 -->
<g id="Node000035" class="node">
<title>Node35</title>
<g id="a_Node000035"><a xlink:href="../../dc/dc0/task__executor_8hpp.html" target="_top" xlink:title=" ">
<polygon fill="#fff0f0" stroke="red" points="1713.38,-80.12 1596.88,-80.12 1596.88,-60.88 1713.38,-60.88 1713.38,-80.12"/>
<text text-anchor="middle" x="1655.12" y="-66.62" font-family="Helvetica,sans-Serif" font-size="10.00">core/task_executor.hpp</text>
</a>
</g>
</g>
<!-- Node1&#45;&gt;Node35 -->
<g id="edge17_Node000001_Node000035" class="edge">
<title>Node1&#45;&gt;Node35</title>
<g id="a_edge17_Node000001_Node000035"><a xlink:title=" ">
<path fill="none" stroke="#63b8ff" d="M1468.17,-121.3C1506.21,-111.17 1567.97,-94.72 1610.01,-83.52"/>
<polygon fill="#63b8ff" stroke="#63b8ff" points="1610.81,-86.93 1619.58,-80.97 1609.01,-80.16 1610.81,-86.93"/>
</a>
</g>
</g>
<!-- Node43 -->
<g id="Node000043" class="node">
<title>Node43</title>
<g id="a_Node000043"><a xlink:href="../../d5/d23/observable__task__executor_8hpp.html" target="_top" xlink:title=" ">
<polygon fill="#fff0f0" stroke="red" points="1840.62,-85.75 1731.62,-85.75 1731.62,-55.25 1840.62,-55.25 1840.62,-85.75"/>
<text text-anchor="start" x="1739.62" y="-72.25" font-family="Helvetica,sans-Serif" font-size="10.00">core/observable_task</text>
<text text-anchor="middle" x="1786.12" y="-61" font-family="Helvetica,sans-Serif" font-size="10.00">_executor.hpp</text>
</a>
</g>
</g>
<!-- Node1&#45;&gt;Node43 -->
<g id="edge18_Node000001_Node000043" class="edge">
<title>Node1&#45;&gt;Node43</title>
<g id="a_edge18_Node000001_Node000043"><a xlink:title=" ">
<path fill="none" stroke="#63b8ff" d="M1470.17,-125.56C1522.81,-118.36 1624.01,-103.9 1720.26,-86.02"/>
<polygon fill="#63b8ff" stroke="#63b8ff" points="1720.69,-89.5 1729.87,-84.22 1719.4,-82.62 1720.69,-89.5"/>
</a>
</g>
</g>
<!-- Node45 -->
<g id="Node000045" class="node">
<title>Node45</title>
<g id="a_Node000045"><a xlink:href="../../d6/d8d/observables__registry_8hpp.html" target="_top" xlink:title=" ">
<polygon fill="#fff0f0" stroke="red" points="2003.62,-80.12 1858.62,-80.12 1858.62,-60.88 2003.62,-60.88 2003.62,-80.12"/>
<text text-anchor="middle" x="1931.12" y="-66.62" font-family="Helvetica,sans-Serif" font-size="10.00">core/observables_registry.hpp</text>
</a>
</g>
</g>
<!-- Node1&#45;&gt;Node45 -->
<g id="edge19_Node000001_Node000045" class="edge">
<title>Node1&#45;&gt;Node45</title>
<g id="a_edge19_Node000001_Node000045"><a xlink:title=" ">
<path fill="none" stroke="#63b8ff" d="M1470.12,-127.34C1542.35,-121.06 1710.06,-105.56 1850.12,-85.75 1856.91,-84.79 1864,-83.69 1871.03,-82.54"/>
<polygon fill="#63b8ff" stroke="#63b8ff" points="1871.61,-85.99 1880.89,-80.87 1870.44,-79.09 1871.61,-85.99"/>
</a>
</g>
</g>
<!-- Node47 -->
<g id="Node000047" class="node">
<title>Node47</title>
<g id="a_Node000047"><a xlink:href="../../dd/d9a/crash__catcher_8hpp.html" target="_top" xlink:title=" ">
<polygon fill="#fff0f0" stroke="red" points="2126.38,-85.75 2021.88,-85.75 2021.88,-55.25 2126.38,-55.25 2126.38,-85.75"/>
<text text-anchor="start" x="2029.88" y="-72.25" font-family="Helvetica,sans-Serif" font-size="10.00">crash_catcher/crash</text>
<text text-anchor="middle" x="2074.12" y="-61" font-family="Helvetica,sans-Serif" font-size="10.00">_catcher.hpp</text>
</a>
</g>
</g>
<!-- Node1&#45;&gt;Node47 -->
<g id="edge20_Node000001_Node000047" class="edge">
<title>Node1&#45;&gt;Node47</title>
<g id="a_edge20_Node000001_Node000047"><a xlink:title=" ">
<path fill="none" stroke="#63b8ff" d="M1470.26,-129.5C1560.06,-126.93 1800.71,-117.55 2010.43,-86.01"/>
<polygon fill="#63b8ff" stroke="#63b8ff" points="2010.8,-89.49 2020.16,-84.52 2009.74,-82.57 2010.8,-89.49"/>
</a>
</g>
</g>
<!-- Node49 -->
<g id="Node000049" class="node">
<title>Node49</title>
<g id="a_Node000049"><a xlink:href="../../d2/def/database__builder_8hpp.html" target="_top" xlink:title=" ">
<polygon fill="#fff0f0" stroke="red" points="288.25,-80.12 138,-80.12 138,-60.88 288.25,-60.88 288.25,-80.12"/>
<text text-anchor="middle" x="213.12" y="-66.62" font-family="Helvetica,sans-Serif" font-size="10.00">database/database_builder.hpp</text>
</a>
</g>
</g>
<!-- Node1&#45;&gt;Node49 -->
<g id="edge21_Node000001_Node000049" class="edge">
<title>Node1&#45;&gt;Node49</title>
<g id="a_edge21_Node000001_Node000049"><a xlink:title=" ">
<path fill="none" stroke="#63b8ff" d="M1398.16,-130.65C1257.2,-131.35 728.91,-130.66 297.12,-85.75 288.74,-84.88 279.92,-83.69 271.28,-82.36"/>
<polygon fill="#63b8ff" stroke="#63b8ff" points="271.99,-78.93 261.57,-80.8 270.88,-85.84 271.99,-78.93"/>
</a>
</g>
</g>
<!-- Node81 -->
<g id="Node000081" class="node">
<title>Node81</title>
<g id="a_Node000081"><a xlink:href="../../dc/d7c/gui_8hpp.html" target="_top" xlink:title=" ">
<polygon fill="#fff0f0" stroke="red" points="2244.38,-80.12 2181.88,-80.12 2181.88,-60.88 2244.38,-60.88 2244.38,-80.12"/>
<text text-anchor="middle" x="2213.12" y="-66.62" font-family="Helvetica,sans-Serif" font-size="10.00">gui/gui.hpp</text>
</a>
</g>
</g>
<!-- Node1&#45;&gt;Node81 -->
<g id="edge23_Node000001_Node000081" class="edge">
<title>Node1&#45;&gt;Node81</title>
<g id="a_edge23_Node000001_Node000081"><a xlink:title=" ">
<path fill="none" stroke="#63b8ff" d="M1470.11,-129.36C1598.24,-125.56 2031.78,-111.08 2168.12,-85.75 2171.12,-85.19 2174.19,-84.5 2177.26,-83.72"/>
<polygon fill="#63b8ff" stroke="#63b8ff" points="2178.06,-87.13 2186.72,-81.01 2176.14,-80.4 2178.06,-87.13"/>
</a>
</g>
</g>
<!-- Node83 -->
<g id="Node000083" class="node">
<title>Node83</title>
<g id="a_Node000083"><a xlink:href="../../d1/d2f/plugin__loader_8hpp.html" target="_top" xlink:title=" ">
<polygon fill="#fff0f0" stroke="red" points="2387.5,-80.12 2262.75,-80.12 2262.75,-60.88 2387.5,-60.88 2387.5,-80.12"/>
<text text-anchor="middle" x="2325.12" y="-66.62" font-family="Helvetica,sans-Serif" font-size="10.00">plugins/plugin_loader.hpp</text>
</a>
</g>
</g>
<!-- Node1&#45;&gt;Node83 -->
<g id="edge24_Node000001_Node000083" class="edge">
<title>Node1&#45;&gt;Node83</title>
<g id="a_edge24_Node000001_Node000083"><a xlink:title=" ">
<path fill="none" stroke="#63b8ff" d="M1470.21,-130.22C1585.05,-129.34 1952.18,-123.54 2253.12,-85.75 2259.69,-84.93 2266.54,-83.85 2273.31,-82.66"/>
<polygon fill="#63b8ff" stroke="#63b8ff" points="2273.87,-86.12 2283.06,-80.85 2272.59,-79.24 2273.87,-86.12"/>
</a>
</g>
</g>
<!-- Node85 -->
<g id="Node000085" class="node">
<title>Node85</title>
<g id="a_Node000085"><a xlink:href="../../d1/d9a/project__manager_8hpp.html" target="_top" xlink:title=" ">
<polygon fill="#fff0f0" stroke="red" points="2506.5,-85.75 2405.75,-85.75 2405.75,-55.25 2506.5,-55.25 2506.5,-85.75"/>
<text text-anchor="start" x="2413.75" y="-72.25" font-family="Helvetica,sans-Serif" font-size="10.00">project_utils/project</text>
<text text-anchor="middle" x="2456.12" y="-61" font-family="Helvetica,sans-Serif" font-size="10.00">_manager.hpp</text>
</a>
</g>
</g>
<!-- Node1&#45;&gt;Node85 -->
<g id="edge25_Node000001_Node000085" class="edge">
<title>Node1&#45;&gt;Node85</title>
<g id="a_edge25_Node000001_Node000085"><a xlink:title=" ">
<path fill="none" stroke="#63b8ff" d="M1470.28,-129.6C1619.72,-126.27 2190.41,-112.17 2394.35,-85.74"/>
<polygon fill="#63b8ff" stroke="#63b8ff" points="2394.57,-89.24 2404.01,-84.43 2393.63,-82.3 2394.57,-89.24"/>
</a>
</g>
</g>
<!-- Node89 -->
<g id="Node000089" class="node">
<title>Node89</title>
<g id="a_Node000089"><a xlink:href="../../dd/d90/system_8hpp.html" target="_top" xlink:title=" ">
<polygon fill="#fff0f0" stroke="red" points="2624.12,-80.12 2524.12,-80.12 2524.12,-60.88 2624.12,-60.88 2624.12,-80.12"/>
<text text-anchor="middle" x="2574.12" y="-66.62" font-family="Helvetica,sans-Serif" font-size="10.00">system/system.hpp</text>
</a>
</g>
</g>
<!-- Node1&#45;&gt;Node89 -->
<g id="edge26_Node000001_Node000089" class="edge">
<title>Node1&#45;&gt;Node89</title>
<g id="a_edge26_Node000001_Node000089"><a xlink:title=" ">
<path fill="none" stroke="#63b8ff" d="M1470.26,-129.83C1633.9,-127.24 2306.55,-114.96 2515.12,-85.75 2520.13,-85.05 2525.34,-84.11 2530.49,-83.05"/>
<polygon fill="#63b8ff" stroke="#63b8ff" points="2531.1,-86.49 2540.1,-80.9 2529.58,-79.66 2531.1,-86.49"/>
</a>
</g>
</g>
<!-- Node91 -->
<g id="Node000091" class="node">
<title>Node91</title>
<g id="a_Node000091"><a xlink:title=" ">
<polygon fill="#e0e0e0" stroke="#999999" points="2700.12,-80.12 2642.12,-80.12 2642.12,-60.88 2700.12,-60.88 2700.12,-80.12"/>
<text text-anchor="middle" x="2671.12" y="-66.62" font-family="Helvetica,sans-Serif" font-size="10.00">paths.hpp</text>
</a>
</g>
</g>
<!-- Node1&#45;&gt;Node91 -->
<g id="edge27_Node000001_Node000091" class="edge">
<title>Node1&#45;&gt;Node91</title>
<g id="a_edge27_Node000001_Node000091"><a xlink:title=" ">
<path fill="none" stroke="#63b8ff" d="M1470.16,-130.59C1644.58,-131.38 2402.34,-132.05 2633.12,-85.75 2635.3,-85.31 2637.52,-84.77 2639.73,-84.15"/>
<polygon fill="#63b8ff" stroke="#63b8ff" points="2640.73,-87.5 2649.13,-81.05 2638.54,-80.86 2640.73,-87.5"/>
</a>
</g>
</g>
<!-- Node92 -->
<g id="Node000092" class="node">
<title>Node92</title>
<g id="a_Node000092"><a xlink:href="../../df/db0/config__storage_8hpp.html" target="_top" xlink:title=" ">
<polygon fill="#fff0f0" stroke="red" points="2815.62,-80.12 2718.62,-80.12 2718.62,-60.88 2815.62,-60.88 2815.62,-80.12"/>
<text text-anchor="middle" x="2767.12" y="-66.62" font-family="Helvetica,sans-Serif" font-size="10.00">config_storage.hpp</text>
</a>
</g>
</g>
<!-- Node1&#45;&gt;Node92 -->
<g id="edge28_Node000001_Node000092" class="edge">
<title>Node1&#45;&gt;Node92</title>
<g id="a_edge28_Node000001_Node000092"><a xlink:title=" ">
<path fill="none" stroke="#63b8ff" d="M1470.22,-130.12C1651.11,-128.66 2460.26,-120.3 2709.12,-85.75 2714.05,-85.07 2719.17,-84.14 2724.24,-83.08"/>
<polygon fill="#63b8ff" stroke="#63b8ff" points="2724.69,-86.57 2733.66,-80.94 2723.14,-79.74 2724.69,-86.57"/>
</a>
</g>
</g>
<!-- Node95 -->
<g id="Node000095" class="node">
<title>Node95</title>
<g id="a_Node000095"><a xlink:href="../../d7/d57/features_8hpp.html" target="_top" xlink:title=" ">
<polygon fill="white" stroke="#666666" points="2902.75,-80.12 2833.5,-80.12 2833.5,-60.88 2902.75,-60.88 2902.75,-80.12"/>
<text text-anchor="middle" x="2868.12" y="-66.62" font-family="Helvetica,sans-Serif" font-size="10.00">features.hpp</text>
</a>
</g>
</g>
<!-- Node1&#45;&gt;Node95 -->
<g id="edge29_Node000001_Node000095" class="edge">
<title>Node1&#45;&gt;Node95</title>
<g id="a_edge29_Node000001_Node000095"><a xlink:title=" ">
<path fill="none" stroke="#63b8ff" d="M1470.36,-130.62C1661.47,-131.7 2553.79,-134.01 2825.12,-85.75 2827.97,-85.24 2830.89,-84.59 2833.79,-83.84"/>
<polygon fill="#63b8ff" stroke="#63b8ff" points="2834.74,-87.21 2843.33,-81.02 2832.75,-80.5 2834.74,-87.21"/>
</a>
</g>
</g>
<!-- Node31&#45;&gt;Node29 -->
<g id="edge16_Node000031_Node000029" class="edge">
<title>Node31&#45;&gt;Node29</title>
<g id="a_edge16_Node000031_Node000029"><a xlink:title=" ">
<path fill="none" stroke="#63b8ff" d="M1562.53,-60.41C1571,-58.66 1579.84,-56.86 1588.12,-55.25 1655.32,-42.19 1732.99,-28.49 1783.47,-19.77"/>
<polygon fill="#63b8ff" stroke="#63b8ff" points="1784.01,-23.23 1793.27,-18.09 1782.82,-16.33 1784.01,-23.23"/>
</a>
</g>
</g>
<!-- Node49&#45;&gt;Node4 -->
<g id="edge22_Node000049_Node000004" class="edge">
<title>Node49&#45;&gt;Node4</title>
<g id="a_edge22_Node000049_Node000004"><a xlink:title=" ">
<path fill="none" stroke="#63b8ff" d="M262.33,-60.45C273.72,-58.54 285.83,-56.68 297.12,-55.25 484.27,-31.49 710.46,-17.13 792.49,-12.38"/>
<polygon fill="#63b8ff" stroke="#63b8ff" points="792.66,-15.87 802.45,-11.81 792.26,-8.89 792.66,-15.87"/>
</a>
</g>
</g>
</g>
</svg>
