<?xml version="1.0" encoding="UTF-8" standalone="no"?>
<!DOCTYPE svg PUBLIC "-//W3C//DTD SVG 1.1//EN"
 "http://www.w3.org/Graphics/SVG/1.1/DTD/svg11.dtd">
<!-- Generated by graphviz version 7.0.5 (20221223.1930)
 -->
<!-- Title: src/core/tags_utils.hpp Pages: 1 -->
<svg width="123pt" height="137pt"
 viewBox="0.00 0.00 123.00 137.00" xmlns="http://www.w3.org/2000/svg" xmlns:xlink="http://www.w3.org/1999/xlink">
<g id="graph0" class="graph" transform="scale(1 1) rotate(0) translate(4 133)">
<title>src/core/tags_utils.hpp</title>
<!-- Node1 -->
<g id="node1" class="node">
<title>Node1</title>
<g id="a_node1"><a xlink:title=" ">
<polygon fill="#999999" stroke="#666666" points="115,-129 0,-129 0,-110 115,-110 115,-129"/>
<text text-anchor="middle" x="57.5" y="-117" font-family="Helvetica,sans-Serif" font-size="10.00">src/core/tags_utils.hpp</text>
</a>
</g>
</g>
<!-- Node2 -->
<g id="node2" class="node">
<title>Node2</title>
<g id="a_node2"><a xlink:href="../../d1/d74/tag_8hpp.html" target="_top" xlink:title=" ">
<polygon fill="#fff0f0" stroke="red" points="55.5,-74 7.5,-74 7.5,-55 55.5,-55 55.5,-74"/>
<text text-anchor="middle" x="31.5" y="-62" font-family="Helvetica,sans-Serif" font-size="10.00">tag.hpp</text>
</a>
</g>
</g>
<!-- Node1&#45;&gt;Node2 -->
<g id="edge1" class="edge">
<title>Node1&#45;&gt;Node2</title>
<path fill="none" stroke="#63b8ff" d="M53.21,-109.75C49.88,-102.96 45.14,-93.3 40.94,-84.73"/>
<polygon fill="#63b8ff" stroke="#63b8ff" points="44.1,-83.24 36.55,-75.8 37.82,-86.32 44.1,-83.24"/>
</g>
<!-- Node11 -->
<g id="node3" class="node">
<title>Node11</title>
<g id="a_node3"><a xlink:title=" ">
<polygon fill="#e0e0e0" stroke="#999999" points="94.5,-19 20.5,-19 20.5,0 94.5,0 94.5,-19"/>
<text text-anchor="middle" x="57.5" y="-7" font-family="Helvetica,sans-Serif" font-size="10.00">core_export.h</text>
</a>
</g>
</g>
<!-- Node1&#45;&gt;Node11 -->
<g id="edge3" class="edge">
<title>Node1&#45;&gt;Node11</title>
<path fill="none" stroke="#63b8ff" d="M59.48,-109.89C62.05,-97.69 66.04,-74.68 64.5,-55 63.87,-46.91 62.6,-38.07 61.31,-30.41"/>
<polygon fill="#63b8ff" stroke="#63b8ff" points="64.8,-30.02 59.57,-20.81 57.91,-31.27 64.8,-30.02"/>
</g>
<!-- Node2&#45;&gt;Node11 -->
<g id="edge2" class="edge">
<title>Node2&#45;&gt;Node11</title>
<path fill="none" stroke="#63b8ff" d="M35.79,-54.75C39.12,-47.96 43.86,-38.3 48.06,-29.73"/>
<polygon fill="#63b8ff" stroke="#63b8ff" points="51.18,-31.32 52.45,-20.8 44.9,-28.24 51.18,-31.32"/>
</g>
</g>
</svg>
