<?xml version="1.0" encoding="UTF-8" standalone="no"?>
<!DOCTYPE svg PUBLIC "-//W3C//DTD SVG 1.1//EN"
 "http://www.w3.org/Graphics/SVG/1.1/DTD/svg11.dtd">
<!-- Generated by graphviz version 9.0.0 (20230911.1827)
 -->
<!-- Title: src/gui/desktop/models/series_model.hpp Pages: 1 -->
<svg width="1008pt" height="160pt"
 viewBox="0.00 0.00 1008.12 160.25" xmlns="http://www.w3.org/2000/svg" xmlns:xlink="http://www.w3.org/1999/xlink">
<g id="graph0" class="graph" transform="scale(1 1) rotate(0) translate(4 156.25)">
<title>src/gui/desktop/models/series_model.hpp</title>
<!-- Node1 -->
<g id="Node000001" class="node">
<title>Node1</title>
<g id="a_Node000001"><a xlink:title=" ">
<polygon fill="#999999" stroke="#666666" points="455.62,-152.25 338.38,-152.25 338.38,-121.75 455.62,-121.75 455.62,-152.25"/>
<text text-anchor="start" x="346.38" y="-138.75" font-family="Helvetica,sans-Serif" font-size="10.00">src/gui/desktop/models</text>
<text text-anchor="middle" x="397" y="-127.5" font-family="Helvetica,sans-Serif" font-size="10.00">/series_model.hpp</text>
</a>
</g>
</g>
<!-- Node2 -->
<g id="Node000002" class="node">
<title>Node2</title>
<g id="a_Node000002"><a xlink:title=" ">
<polygon fill="#e0e0e0" stroke="#999999" points="106,-80.12 0,-80.12 0,-60.88 106,-60.88 106,-80.12"/>
<text text-anchor="middle" x="53" y="-66.62" font-family="Helvetica,sans-Serif" font-size="10.00">QAbstractItemModel</text>
</a>
</g>
</g>
<!-- Node1&#45;&gt;Node2 -->
<g id="edge1_Node000001_Node000002" class="edge">
<title>Node1&#45;&gt;Node2</title>
<g id="a_edge1_Node000001_Node000002"><a xlink:title=" ">
<path fill="none" stroke="#63b8ff" d="M337.97,-126.36C280.8,-116.81 191.75,-101.4 115,-85.75 110.92,-84.92 106.69,-84.02 102.46,-83.1"/>
<polygon fill="#63b8ff" stroke="#63b8ff" points="103.3,-79.7 92.78,-80.94 101.78,-86.53 103.3,-79.7"/>
</a>
</g>
</g>
<!-- Node3 -->
<g id="Node000003" class="node">
<title>Node3</title>
<g id="a_Node000003"><a xlink:title=" ">
<polygon fill="#e0e0e0" stroke="#999999" points="175.62,-80.12 124.38,-80.12 124.38,-60.88 175.62,-60.88 175.62,-80.12"/>
<text text-anchor="middle" x="150" y="-66.62" font-family="Helvetica,sans-Serif" font-size="10.00">QFuture</text>
</a>
</g>
</g>
<!-- Node1&#45;&gt;Node3 -->
<g id="edge2_Node000001_Node000003" class="edge">
<title>Node1&#45;&gt;Node3</title>
<g id="a_edge2_Node000001_Node000003"><a xlink:title=" ">
<path fill="none" stroke="#63b8ff" d="M338.12,-123.42C296.46,-114.11 239.43,-100.51 190,-85.75 188.28,-85.24 186.54,-84.69 184.77,-84.13"/>
<polygon fill="#63b8ff" stroke="#63b8ff" points="186.01,-80.85 175.41,-80.98 183.78,-87.49 186.01,-80.85"/>
</a>
</g>
</g>
<!-- Node4 -->
<g id="Node000004" class="node">
<title>Node4</title>
<g id="a_Node000004"><a xlink:title=" ">
<polygon fill="#e0e0e0" stroke="#999999" points="605,-19.25 541,-19.25 541,0 605,0 605,-19.25"/>
<text text-anchor="middle" x="573" y="-5.75" font-family="Helvetica,sans-Serif" font-size="10.00">stop_token</text>
</a>
</g>
</g>
<!-- Node1&#45;&gt;Node4 -->
<g id="edge3_Node000001_Node000004" class="edge">
<title>Node1&#45;&gt;Node4</title>
<g id="a_edge3_Node000001_Node000004"><a xlink:title=" ">
<path fill="none" stroke="#63b8ff" d="M338.05,-129.08C274.07,-119.28 185.69,-97.61 223,-55.25 242.95,-32.59 439.75,-18.37 529.18,-13.02"/>
<polygon fill="#63b8ff" stroke="#63b8ff" points="529.26,-16.52 539.04,-12.45 528.85,-9.54 529.26,-16.52"/>
</a>
</g>
</g>
<!-- Node5 -->
<g id="Node000005" class="node">
<title>Node5</title>
<g id="a_Node000005"><a xlink:href="../../d6/d1f/icore__factory__accessor_8hpp.html" target="_top" xlink:title=" ">
<polygon fill="white" stroke="#666666" points="325.62,-85.75 232.38,-85.75 232.38,-55.25 325.62,-55.25 325.62,-85.75"/>
<text text-anchor="start" x="240.38" y="-72.25" font-family="Helvetica,sans-Serif" font-size="10.00">core/icore_factory</text>
<text text-anchor="middle" x="279" y="-61" font-family="Helvetica,sans-Serif" font-size="10.00">_accessor.hpp</text>
</a>
</g>
</g>
<!-- Node1&#45;&gt;Node5 -->
<g id="edge4_Node000001_Node000005" class="edge">
<title>Node1&#45;&gt;Node5</title>
<g id="a_edge4_Node000001_Node000005"><a xlink:title=" ">
<path fill="none" stroke="#63b8ff" d="M370.22,-121.36C354.08,-112.54 333.29,-101.18 315.64,-91.53"/>
<polygon fill="#63b8ff" stroke="#63b8ff" points="317.45,-88.53 307,-86.8 314.09,-94.67 317.45,-88.53"/>
</a>
</g>
</g>
<!-- Node6 -->
<g id="Node000006" class="node">
<title>Node6</title>
<g id="a_Node000006"><a xlink:href="../../d7/d76/itasks__view_8hpp.html" target="_top" xlink:title=" ">
<polygon fill="#fff0f0" stroke="red" points="450.75,-80.12 343.25,-80.12 343.25,-60.88 450.75,-60.88 450.75,-80.12"/>
<text text-anchor="middle" x="397" y="-66.62" font-family="Helvetica,sans-Serif" font-size="10.00">core/itasks_view.hpp</text>
</a>
</g>
</g>
<!-- Node1&#45;&gt;Node6 -->
<g id="edge5_Node000001_Node000006" class="edge">
<title>Node1&#45;&gt;Node6</title>
<g id="a_edge5_Node000001_Node000006"><a xlink:title=" ">
<path fill="none" stroke="#63b8ff" d="M397,-121.36C397,-112.58 397,-101.27 397,-91.65"/>
<polygon fill="#63b8ff" stroke="#63b8ff" points="400.5,-91.84 397,-81.84 393.5,-91.84 400.5,-91.84"/>
</a>
</g>
</g>
<!-- Node8 -->
<g id="Node000008" class="node">
<title>Node8</title>
<g id="a_Node000008"><a xlink:href="../../d7/d2b/idatabase_8hpp.html" target="_top" xlink:title=" ">
<polygon fill="#fff0f0" stroke="red" points="587.38,-80.12 468.62,-80.12 468.62,-60.88 587.38,-60.88 587.38,-80.12"/>
<text text-anchor="middle" x="528" y="-66.62" font-family="Helvetica,sans-Serif" font-size="10.00">database/idatabase.hpp</text>
</a>
</g>
</g>
<!-- Node1&#45;&gt;Node8 -->
<g id="edge6_Node000001_Node000008" class="edge">
<title>Node1&#45;&gt;Node8</title>
<g id="a_edge6_Node000001_Node000008"><a xlink:title=" ">
<path fill="none" stroke="#63b8ff" d="M426.73,-121.36C448.55,-110.62 478.03,-96.11 499.55,-85.51"/>
<polygon fill="#63b8ff" stroke="#63b8ff" points="500.92,-88.74 508.34,-81.18 497.83,-82.46 500.92,-88.74"/>
</a>
</g>
</g>
<!-- Node50 -->
<g id="Node000050" class="node">
<title>Node50</title>
<g id="a_Node000050"><a xlink:href="../../d7/dcd/series__candidate_8hpp.html" target="_top" xlink:title=" ">
<polygon fill="#fff0f0" stroke="red" points="730.38,-85.75 605.62,-85.75 605.62,-55.25 730.38,-55.25 730.38,-85.75"/>
<text text-anchor="start" x="613.62" y="-72.25" font-family="Helvetica,sans-Serif" font-size="10.00">database/database_tools</text>
<text text-anchor="middle" x="668" y="-61" font-family="Helvetica,sans-Serif" font-size="10.00">/series_candidate.hpp</text>
</a>
</g>
</g>
<!-- Node1&#45;&gt;Node50 -->
<g id="edge7_Node000001_Node000050" class="edge">
<title>Node1&#45;&gt;Node50</title>
<g id="a_edge7_Node000001_Node000050"><a xlink:title=" ">
<path fill="none" stroke="#63b8ff" d="M455.8,-122C496.76,-112.26 551.66,-99.19 595.35,-88.79"/>
<polygon fill="#63b8ff" stroke="#63b8ff" points="596.1,-92.21 605.02,-86.49 594.48,-85.4 596.1,-92.21"/>
</a>
</g>
</g>
<!-- Node51 -->
<g id="Node000051" class="node">
<title>Node51</title>
<g id="a_Node000051"><a xlink:href="../../d1/d8e/project_8hpp.html" target="_top" xlink:title=" ">
<polygon fill="#fff0f0" stroke="red" points="867.38,-80.12 748.62,-80.12 748.62,-60.88 867.38,-60.88 867.38,-80.12"/>
<text text-anchor="middle" x="808" y="-66.62" font-family="Helvetica,sans-Serif" font-size="10.00">project_utils/project.hpp</text>
</a>
</g>
</g>
<!-- Node1&#45;&gt;Node51 -->
<g id="edge8_Node000001_Node000051" class="edge">
<title>Node1&#45;&gt;Node51</title>
<g id="a_edge8_Node000001_Node000051"><a xlink:title=" ">
<path fill="none" stroke="#63b8ff" d="M455.87,-128.4C524.15,-119.35 640.01,-103.23 739,-85.75 744.22,-84.83 749.65,-83.81 755.07,-82.75"/>
<polygon fill="#63b8ff" stroke="#63b8ff" points="755.5,-86.24 764.63,-80.85 754.14,-79.37 755.5,-86.24"/>
</a>
</g>
</g>
<!-- Node55 -->
<g id="Node000055" class="node">
<title>Node55</title>
<g id="a_Node000055"><a xlink:href="../../d2/d72/aheavy__list__model_8hpp.html" target="_top" xlink:title=" ">
<polygon fill="#fff0f0" stroke="red" points="1000.12,-80.12 885.88,-80.12 885.88,-60.88 1000.12,-60.88 1000.12,-80.12"/>
<text text-anchor="middle" x="943" y="-66.62" font-family="Helvetica,sans-Serif" font-size="10.00">aheavy_list_model.hpp</text>
</a>
</g>
</g>
<!-- Node1&#45;&gt;Node55 -->
<g id="edge9_Node000001_Node000055" class="edge">
<title>Node1&#45;&gt;Node55</title>
<g id="a_edge9_Node000001_Node000055"><a xlink:title=" ">
<path fill="none" stroke="#63b8ff" d="M455.88,-131.83C546.51,-124.95 725.49,-109.58 876,-85.75 881.37,-84.9 886.96,-83.9 892.52,-82.83"/>
<polygon fill="#63b8ff" stroke="#63b8ff" points="893.21,-86.26 902.32,-80.86 891.83,-79.4 893.21,-86.26"/>
</a>
</g>
</g>
<!-- Node55&#45;&gt;Node4 -->
<g id="edge10_Node000055_Node000004" class="edge">
<title>Node55&#45;&gt;Node4</title>
<g id="a_edge10_Node000055_Node000004"><a xlink:title=" ">
<path fill="none" stroke="#63b8ff" d="M902.34,-60.42C893.66,-58.61 884.54,-56.79 876,-55.25 784.01,-38.71 675.49,-23.84 616.51,-16.15"/>
<polygon fill="#63b8ff" stroke="#63b8ff" points="617.26,-12.72 606.9,-14.91 616.36,-19.66 617.26,-12.72"/>
</a>
</g>
</g>
</g>
</svg>
