<?xml version="1.0" encoding="UTF-8" standalone="no"?>
<!DOCTYPE svg PUBLIC "-//W3C//DTD SVG 1.1//EN"
 "http://www.w3.org/Graphics/SVG/1.1/DTD/svg11.dtd">
<!-- Generated by graphviz version 7.0.5 (20221223.1930)
 -->
<!-- Title: src/core/implementation/configuration_p.hpp Pages: 1 -->
<svg width="320pt" height="104pt"
 viewBox="0.00 0.00 319.50 104.00" xmlns="http://www.w3.org/2000/svg" xmlns:xlink="http://www.w3.org/1999/xlink">
<g id="graph0" class="graph" transform="scale(1 1) rotate(0) translate(4 100)">
<title>src/core/implementation/configuration_p.hpp</title>
<!-- Node1 -->
<g id="node1" class="node">
<title>Node1</title>
<g id="a_node1"><a xlink:title=" ">
<polygon fill="#999999" stroke="#666666" points="182,-96 61,-96 61,-66 182,-66 182,-96"/>
<text text-anchor="start" x="69" y="-84" font-family="Helvetica,sans-Serif" font-size="10.00">src/core/implementation</text>
<text text-anchor="middle" x="121.5" y="-73" font-family="Helvetica,sans-Serif" font-size="10.00">/configuration_p.hpp</text>
</a>
</g>
</g>
<!-- Node2 -->
<g id="node2" class="node">
<title>Node2</title>
<g id="a_node2"><a xlink:title=" ">
<polygon fill="#e0e0e0" stroke="#999999" points="59,-24.5 0,-24.5 0,-5.5 59,-5.5 59,-24.5"/>
<text text-anchor="middle" x="29.5" y="-12.5" font-family="Helvetica,sans-Serif" font-size="10.00">functional</text>
</a>
</g>
</g>
<!-- Node1&#45;&gt;Node2 -->
<g id="edge1" class="edge">
<title>Node1&#45;&gt;Node2</title>
<path fill="none" stroke="#63b8ff" d="M101.08,-65.8C86.32,-55.53 66.4,-41.67 51.32,-31.18"/>
<polygon fill="#63b8ff" stroke="#63b8ff" points="53.66,-28.55 43.46,-25.71 49.67,-34.29 53.66,-28.55"/>
</g>
<!-- Node3 -->
<g id="node3" class="node">
<title>Node3</title>
<g id="a_node3"><a xlink:title=" ">
<polygon fill="#e0e0e0" stroke="#999999" points="107.5,-24.5 77.5,-24.5 77.5,-5.5 107.5,-5.5 107.5,-24.5"/>
<text text-anchor="middle" x="92.5" y="-12.5" font-family="Helvetica,sans-Serif" font-size="10.00">set</text>
</a>
</g>
</g>
<!-- Node1&#45;&gt;Node3 -->
<g id="edge2" class="edge">
<title>Node1&#45;&gt;Node3</title>
<path fill="none" stroke="#63b8ff" d="M115.06,-65.8C110.99,-56.8 105.66,-45.04 101.21,-35.22"/>
<polygon fill="#63b8ff" stroke="#63b8ff" points="104.45,-33.89 97.13,-26.22 98.07,-36.78 104.45,-33.89"/>
</g>
<!-- Node4 -->
<g id="node4" class="node">
<title>Node4</title>
<g id="a_node4"><a xlink:title=" ">
<polygon fill="#e0e0e0" stroke="#999999" points="175,-24.5 126,-24.5 126,-5.5 175,-5.5 175,-24.5"/>
<text text-anchor="middle" x="150.5" y="-12.5" font-family="Helvetica,sans-Serif" font-size="10.00">QTimer</text>
</a>
</g>
</g>
<!-- Node1&#45;&gt;Node4 -->
<g id="edge3" class="edge">
<title>Node1&#45;&gt;Node4</title>
<path fill="none" stroke="#63b8ff" d="M127.94,-65.8C132.01,-56.8 137.34,-45.04 141.79,-35.22"/>
<polygon fill="#63b8ff" stroke="#63b8ff" points="144.93,-36.78 145.87,-26.22 138.55,-33.89 144.93,-36.78"/>
</g>
<!-- Node5 -->
<g id="node5" class="node">
<title>Node5</title>
<g id="a_node5"><a xlink:title=" ">
<polygon fill="#e0e0e0" stroke="#999999" points="311.5,-30 193.5,-30 193.5,0 311.5,0 311.5,-30"/>
<text text-anchor="start" x="201.5" y="-18" font-family="Helvetica,sans-Serif" font-size="10.00">CsLibGuarded/cs_plain</text>
<text text-anchor="middle" x="252.5" y="-7" font-family="Helvetica,sans-Serif" font-size="10.00">_guarded.h</text>
</a>
</g>
</g>
<!-- Node1&#45;&gt;Node5 -->
<g id="edge4" class="edge">
<title>Node1&#45;&gt;Node5</title>
<path fill="none" stroke="#63b8ff" d="M150.9,-65.64C169.19,-56.7 192.94,-45.1 212.87,-35.36"/>
<polygon fill="#63b8ff" stroke="#63b8ff" points="214.39,-38.51 221.84,-30.98 211.32,-32.22 214.39,-38.51"/>
</g>
</g>
</svg>
