<?xml version="1.0" encoding="UTF-8" standalone="no"?>
<!DOCTYPE svg PUBLIC "-//W3C//DTD SVG 1.1//EN"
 "http://www.w3.org/Graphics/SVG/1.1/DTD/svg11.dtd">
<!-- Generated by graphviz version 7.0.5 (20221223.1930)
 -->
<!-- Title: MediaViewCtrl Pages: 1 -->
<svg width="293pt" height="104pt"
 viewBox="0.00 0.00 292.50 104.00" xmlns="http://www.w3.org/2000/svg" xmlns:xlink="http://www.w3.org/1999/xlink">
<g id="graph0" class="graph" transform="scale(1 1) rotate(0) translate(4 100)">
<title>MediaViewCtrl</title>
<!-- Node1 -->
<g id="node1" class="node">
<title>Node1</title>
<g id="a_node1"><a xlink:title=" ">
<polygon fill="#999999" stroke="#666666" points="158.5,-19 78.5,-19 78.5,0 158.5,0 158.5,-19"/>
<text text-anchor="middle" x="118.5" y="-7" font-family="Helvetica,sans-Serif" font-size="10.00">MediaViewCtrl</text>
</a>
</g>
</g>
<!-- Node2 -->
<g id="node2" class="node">
<title>Node2</title>
<g id="a_node2"><a xlink:title=" ">
<polygon fill="white" stroke="#666666" points="53,-90.5 0,-90.5 0,-71.5 53,-71.5 53,-90.5"/>
<text text-anchor="middle" x="26.5" y="-78.5" font-family="Helvetica,sans-Serif" font-size="10.00">QObject</text>
</a>
</g>
</g>
<!-- Node2&#45;&gt;Node1 -->
<g id="edge1" class="edge">
<title>Node2&#45;&gt;Node1</title>
<path fill="none" stroke="#63b8ff" d="M47.17,-64.38C65.5,-50.54 91.64,-30.79 106.65,-19.45"/>
<polygon fill="#63b8ff" stroke="#63b8ff" points="45.23,-61.46 39.36,-70.29 49.45,-67.05 45.23,-61.46"/>
</g>
<!-- Node3 -->
<g id="node3" class="node">
<title>Node3</title>
<g id="a_node3"><a xlink:href="../../d2/d3a/classsafe__callback__ctrl.html" target="_top" xlink:title=" ">
<polygon fill="white" stroke="#666666" points="166,-90.5 71,-90.5 71,-71.5 166,-71.5 166,-90.5"/>
<text text-anchor="middle" x="118.5" y="-78.5" font-family="Helvetica,sans-Serif" font-size="10.00">safe_callback_ctrl</text>
</a>
</g>
</g>
<!-- Node3&#45;&gt;Node1 -->
<g id="edge2" class="edge">
<title>Node3&#45;&gt;Node1</title>
<path fill="none" stroke="#9a32cd" stroke-dasharray="5,2" d="M118.5,-59.8C118.5,-46.44 118.5,-29.59 118.5,-19.45"/>
<polygon fill="#9a32cd" stroke="#9a32cd" points="115,-59.68 118.5,-69.68 122,-59.68 115,-59.68"/>
<text text-anchor="middle" x="152" y="-40" font-family="Helvetica,sans-Serif" font-size="10.00"> m_callbackCtrl</text>
</g>
<!-- Node4 -->
<g id="node4" class="node">
<title>Node4</title>
<g id="a_node4"><a xlink:href="../../db/dfb/class_id.html" target="_top" xlink:title=" ">
<polygon fill="white" stroke="#666666" points="284.5,-96 184.5,-96 184.5,-66 284.5,-66 284.5,-96"/>
<text text-anchor="start" x="192.5" y="-84" font-family="Helvetica,sans-Serif" font-size="10.00">Id&lt; int, struct photo</text>
<text text-anchor="middle" x="234.5" y="-73" font-family="Helvetica,sans-Serif" font-size="10.00">_tag &gt;</text>
</a>
</g>
</g>
<!-- Node4&#45;&gt;Node1 -->
<g id="edge3" class="edge">
<title>Node4&#45;&gt;Node1</title>
<path fill="none" stroke="#9a32cd" stroke-dasharray="5,2" d="M214.43,-57.45C207.13,-50.21 198.45,-42.61 189.5,-37 177.57,-29.52 163.21,-23.67 150.54,-19.38"/>
<polygon fill="#9a32cd" stroke="#9a32cd" points="211.81,-59.78 221.27,-64.57 216.86,-54.93 211.81,-59.78"/>
<text text-anchor="middle" x="214.5" y="-40" font-family="Helvetica,sans-Serif" font-size="10.00"> m_id</text>
</g>
</g>
</svg>
