<?xml version="1.0" encoding="UTF-8" standalone="no"?>
<!DOCTYPE svg PUBLIC "-//W3C//DTD SVG 1.1//EN"
 "http://www.w3.org/Graphics/SVG/1.1/DTD/svg11.dtd">
<!-- Generated by graphviz version 12.2.0 (20241103.1931)
 -->
<!-- Title: MediaViewCtrl Pages: 1 -->
<svg width="384pt" height="161pt"
 viewBox="0.00 0.00 383.62 161.25" xmlns="http://www.w3.org/2000/svg" xmlns:xlink="http://www.w3.org/1999/xlink">

<svg id="main" version="1.1" xmlns="http://www.w3.org/2000/svg" xmlns:xlink="http://www.w3.org/1999/xlink" xml:space="preserve">

<style type="text/css"><![CDATA[
.node, .edge {opacity: 0.7;}
.node.selected, .edge.selected {opacity: 1;}
.edge:hover path { stroke: red; }
.edge:hover polygon { stroke: red; fill: red; }
]]></style>
<script type="application/ecmascript" xlink:href="../../svg.min.js"/>
<svg id="graph" class="graph">
<g id="graph0" class="graph" transform="scale(1 1) rotate(0) translate(4 157.25)">
<title>MediaViewCtrl</title>
<!-- Node1 -->
<g id="Node000001" class="node">
<title>Node1</title>
<g id="a_Node000001"><a xlink:title=" ">
<polygon fill="#999999" stroke="#666666" points="202.5,-19.25 123.5,-19.25 123.5,0 202.5,0 202.5,-19.25"/>
<text text-anchor="middle" x="163" y="-5.75" font-family="Helvetica,sans-Serif" font-size="10.00">MediaViewCtrl</text>
</a>
</g>
</g>
<!-- Node2 -->
<g id="Node000002" class="node">
<title>Node2</title>
<g id="a_Node000002"><a xlink:title=" ">
<polygon fill="white" stroke="#666666" points="52,-153.25 0,-153.25 0,-134 52,-134 52,-153.25"/>
<text text-anchor="middle" x="26" y="-139.75" font-family="Helvetica,sans-Serif" font-size="10.00">QObject</text>
</a>
</g>
</g>
<!-- Node2&#45;&gt;Node1 -->
<g id="edge1_Node000001_Node000002" class="edge">
<title>Node2&#45;&gt;Node1</title>
<g id="a_edge1_Node000001_Node000002"><a xlink:title=" ">
<path fill="none" stroke="#63b8ff" d="M22.58,-122.5C20.91,-105.92 21.31,-82.59 33,-66.5 54.08,-37.48 93.4,-23.39 123.3,-16.64"/>
<polygon fill="#63b8ff" stroke="#63b8ff" points="19.08,-122.71 23.91,-132.14 26.01,-121.75 19.08,-122.71"/>
</a>
</g>
</g>
<!-- Node3 -->
<g id="Node000003" class="node">
<title>Node3</title>
<g id="a_Node000003"><a xlink:href="../../d8/d6f/class_property_awaiter.html" target="_top" xlink:title=" ">
<polygon fill="white" stroke="#666666" points="127.5,-91.38 42.5,-91.38 42.5,-72.12 127.5,-72.12 127.5,-91.38"/>
<text text-anchor="middle" x="85" y="-77.88" font-family="Helvetica,sans-Serif" font-size="10.00">PropertyAwaiter</text>
</a>
</g>
</g>
<!-- Node2&#45;&gt;Node3 -->
<g id="edge3_Node000003_Node000002" class="edge">
<title>Node2&#45;&gt;Node3</title>
<g id="a_edge3_Node000003_Node000002"><a xlink:title=" ">
<path fill="none" stroke="#63b8ff" d="M42.96,-125.41C53.87,-114.34 67.6,-100.41 76.34,-91.54"/>
<polygon fill="#63b8ff" stroke="#63b8ff" points="40.55,-122.87 36.02,-132.45 45.54,-127.79 40.55,-122.87"/>
</a>
</g>
</g>
<!-- Node3&#45;&gt;Node1 -->
<g id="edge2_Node000001_Node000003" class="edge">
<title>Node3&#45;&gt;Node1</title>
<g id="a_edge2_Node000001_Node000003"><a xlink:title=" ">
<path fill="none" stroke="#9a32cd" stroke-dasharray="5,2" d="M97.89,-62.5C104.22,-54.25 112.31,-44.7 120.75,-37.25 128.42,-30.48 138,-24.3 146.09,-19.6"/>
<polygon fill="#9a32cd" stroke="#9a32cd" points="95.12,-60.35 92.01,-70.48 100.76,-64.5 95.12,-60.35"/>
</a>
</g>
<text text-anchor="middle" x="147.38" y="-39" font-family="Helvetica,sans-Serif" font-size="10.00" fill="grey"> m_initializer</text>
</g>
<!-- Node4 -->
<g id="Node000004" class="node">
<title>Node4</title>
<g id="a_Node000004"><a xlink:href="../../d5/da9/struct_i_core_factory_accessor.html" target="_top" xlink:title=" ">
<polygon fill="white" stroke="#666666" points="258.38,-91.38 145.62,-91.38 145.62,-72.12 258.38,-72.12 258.38,-91.38"/>
<text text-anchor="middle" x="202" y="-77.88" font-family="Helvetica,sans-Serif" font-size="10.00">ICoreFactoryAccessor</text>
</a>
</g>
</g>
<!-- Node4&#45;&gt;Node1 -->
<g id="edge4_Node000001_Node000004" class="edge">
<title>Node4&#45;&gt;Node1</title>
<g id="a_edge4_Node000001_Node000004"><a xlink:title=" ">
<path fill="none" stroke="#9a32cd" stroke-dasharray="5,2" d="M191.58,-62.02C183.96,-48.31 173.95,-30.31 168.02,-19.66"/>
<polygon fill="#9a32cd" stroke="#9a32cd" points="188.41,-63.51 196.32,-70.55 194.52,-60.11 188.41,-63.51"/>
</a>
</g>
<text text-anchor="middle" x="200.92" y="-39" font-family="Helvetica,sans-Serif" font-size="10.00" fill="grey"> m_core</text>
</g>
<!-- Node5 -->
<g id="Node000005" class="node">
<title>Node5</title>
<g id="a_Node000005"><a xlink:href="../../db/dfb/class_id.html" target="_top" xlink:title=" ">
<polygon fill="white" stroke="#666666" points="375.62,-97 276.38,-97 276.38,-66.5 375.62,-66.5 375.62,-97"/>
<text text-anchor="start" x="284.38" y="-83.5" font-family="Helvetica,sans-Serif" font-size="10.00">Id&lt; int, struct photo</text>
<text text-anchor="middle" x="326" y="-72.25" font-family="Helvetica,sans-Serif" font-size="10.00">_tag &gt;</text>
</a>
</g>
</g>
<!-- Node5&#45;&gt;Node1 -->
<g id="edge5_Node000001_Node000005" class="edge">
<title>Node5&#45;&gt;Node1</title>
<g id="a_edge5_Node000001_Node000005"><a xlink:title=" ">
<path fill="none" stroke="#9a32cd" stroke-dasharray="5,2" d="M281.49,-61.6C249.84,-47.98 208.73,-30.3 184.19,-19.74"/>
<polygon fill="#9a32cd" stroke="#9a32cd" points="279.87,-64.71 290.44,-65.45 282.64,-58.28 279.87,-64.71"/>
</a>
</g>
<text text-anchor="middle" x="261.01" y="-39" font-family="Helvetica,sans-Serif" font-size="10.00" fill="grey"> m_id</text>
</g>
</g>
</svg>
</svg>

<style type='text/css'>
<![CDATA[
[data-mouse-over-selected='false'] { opacity: 0.7; }
[data-mouse-over-selected='true']  { opacity: 1.0; }
]]>
</style>
<script type="application/ecmascript"><![CDATA[
document.addEventListener('DOMContentLoaded', (event) => {
  highlightEdges();
  highlightAdjacentNodes();
});
]]></script>
</svg>
