<?xml version="1.0" encoding="UTF-8" standalone="no"?>
<!DOCTYPE svg PUBLIC "-//W3C//DTD SVG 1.1//EN"
 "http://www.w3.org/Graphics/SVG/1.1/DTD/svg11.dtd">
<!-- Generated by graphviz version 12.2.0 (20241103.1931)
 -->
<!-- Title: src/database/group.hpp Pages: 1 -->
<!--zoomable 227 -->

<svg id="main" version="1.1" xmlns="http://www.w3.org/2000/svg" xmlns:xlink="http://www.w3.org/1999/xlink" xml:space="preserve" onload="init(evt)">

<style type="text/css"><![CDATA[
.node, .edge {opacity: 0.7;}
.node.selected, .edge.selected {opacity: 1;}
.edge:hover path { stroke: red; }
.edge:hover polygon { stroke: red; fill: red; }
]]></style>

<defs>
  <circle id="rim" cx="0" cy="0" r="7"/>
  <circle id="rim2" cx="0" cy="0" r="3.5"/>
  <g id="zoomPlus">
    <use xlink:href="#rim" fill="#404040"><set attributeName="fill" to="#808080" begin="zoomplus.mouseover" end="zoomplus.mouseout"/></use>
    <path d="M-4,0h8M0,-4v8" fill="none" stroke="white" stroke-width="1.5" pointer-events="none"/>
  </g>
  <g id="zoomMin">
    <use xlink:href="#rim" fill="#404040"><set attributeName="fill" to="#808080" begin="zoomminus.mouseover" end="zoomminus.mouseout"/></use>
    <path d="M-4,0h8" fill="none" stroke="white" stroke-width="1.5" pointer-events="none"/>
  </g>
  <g id="arrowUp" transform="translate(30 24)">
    <use xlink:href="#rim"/>
    <path pointer-events="none" fill="none" stroke="white" stroke-width="1.5" d="M0,-3.0v7 M-2.5,-0.5L0,-3.0L2.5,-0.5"/>
  </g>
  <g id="arrowRight" transform="rotate(90) translate(36 -43)">
    <use xlink:href="#rim"/>
    <path pointer-events="none" fill="none" stroke="white" stroke-width="1.5" d="M0,-3.0v7 M-2.5,-0.5L0,-3.0L2.5,-0.5"/>
  </g>
  <g id="arrowDown" transform="rotate(180) translate(-30 -48)">
    <use xlink:href="#rim"/>
    <path pointer-events="none" fill="none" stroke="white" stroke-width="1.5" d="M0,-3.0v7 M-2.5,-0.5L0,-3.0L2.5,-0.5"/>
  </g>
  <g id="arrowLeft" transform="rotate(270) translate(-36 17)">
    <use xlink:href="#rim"/>
    <path pointer-events="none" fill="none" stroke="white" stroke-width="1.5" d="M0,-3.0v7 M-2.5,-0.5L0,-3.0L2.5,-0.5"/>
  </g>
  <g id="resetDef">
    <use xlink:href="#rim2" fill="#404040"><set attributeName="fill" to="#808080" begin="reset.mouseover" end="reset.mouseout"/></use>
  </g>
</defs>
<script type="application/ecmascript">
var viewWidth = 630;
var viewHeight = 227;
var sectionId = 'dynsection-1';
</script>
<script type="application/ecmascript" xlink:href="../../svg.min.js"/>
<svg id="graph" class="graph">
<g id="viewport">
<title>src/database/group.hpp</title>
<!-- Node1 -->
<g id="Node000001" class="node">
<title>Node1</title>
<g id="a_Node000001"><a xlink:title=" ">
<polygon fill="#999999" stroke="#666666" points="317.58,-218.75 200.33,-218.75 200.33,-199.5 317.58,-199.5 317.58,-218.75"/>
<text text-anchor="middle" x="258.95" y="-205.25" font-family="Helvetica,sans-Serif" font-size="10.00">src/database/group.hpp</text>
</a>
</g>
</g>
<!-- Node2 -->
<g id="Node000002" class="node">
<title>Node2</title>
<g id="a_Node000002"><a xlink:href="../../d9/d71/series__detector_8hpp.html" target="_top" xlink:title=" ">
<polygon fill="#fff0f0" stroke="red" points="198.95,-30.5 68.95,-30.5 68.95,0 198.95,0 198.95,-30.5"/>
<text text-anchor="start" x="76.95" y="-17" font-family="Helvetica,sans-Serif" font-size="10.00">src/database/database</text>
<text text-anchor="middle" x="133.95" y="-5.75" font-family="Helvetica,sans-Serif" font-size="10.00">_tools/series_detector.hpp</text>
</a>
</g>
</g>
<!-- Node1&#45;&gt;Node2 -->
<g id="edge1_Node000001_Node000002" class="edge">
<title>Node1&#45;&gt;Node2</title>
<g id="a_edge1_Node000001_Node000002"><a xlink:title=" ">
<path fill="none" stroke="#63b8ff" d="M188.38,-205.23C123.21,-200.9 33.22,-190.13 10.95,-163.5 -29.64,-114.95 57.77,-57.35 105.55,-30.88"/>
<polygon fill="#63b8ff" stroke="#63b8ff" points="188.12,-208.72 198.32,-205.85 188.56,-201.73 188.12,-208.72"/>
</a>
</g>
</g>
<!-- Node6 -->
<g id="Node000006" class="node">
<title>Node6</title>
<g id="a_Node000006"><a xlink:href="../../da/d2a/ibackend_8hpp.html" target="_top" xlink:title=" ">
<polygon fill="#fff0f0" stroke="red" points="152.08,-157.88 19.83,-157.88 19.83,-138.62 152.08,-138.62 152.08,-157.88"/>
<text text-anchor="middle" x="85.95" y="-144.38" font-family="Helvetica,sans-Serif" font-size="10.00">src/database/ibackend.hpp</text>
</a>
</g>
</g>
<!-- Node1&#45;&gt;Node6 -->
<g id="edge2_Node000001_Node000006" class="edge">
<title>Node1&#45;&gt;Node6</title>
<g id="a_edge2_Node000001_Node000006"><a xlink:title=" ">
<path fill="none" stroke="#63b8ff" d="M221.76,-195.47C188.92,-184.29 141.85,-168.27 112.63,-158.33"/>
<polygon fill="#63b8ff" stroke="#63b8ff" points="220.27,-198.66 230.87,-198.57 222.53,-192.03 220.27,-198.66"/>
</a>
</g>
</g>
<!-- Node39 -->
<g id="Node000039" class="node">
<title>Node39</title>
<g id="a_Node000039"><a xlink:href="../../d7/d2b/idatabase_8hpp.html" target="_top" xlink:title=" ">
<polygon fill="#fff0f0" stroke="red" points="201.58,-91.38 66.33,-91.38 66.33,-72.12 201.58,-72.12 201.58,-91.38"/>
<text text-anchor="middle" x="133.95" y="-77.88" font-family="Helvetica,sans-Serif" font-size="10.00">src/database/idatabase.hpp</text>
</a>
</g>
</g>
<!-- Node1&#45;&gt;Node39 -->
<g id="edge5_Node000001_Node000039" class="edge">
<title>Node1&#45;&gt;Node39</title>
<g id="a_edge5_Node000001_Node000039"><a xlink:title=" ">
<path fill="none" stroke="#63b8ff" d="M235.39,-192.69C223.86,-184.63 210.09,-174.22 198.95,-163.5 174.57,-140.04 150.95,-107.49 140.11,-91.85"/>
<polygon fill="#63b8ff" stroke="#63b8ff" points="233.34,-195.53 243.58,-198.27 237.28,-189.74 233.34,-195.53"/>
</a>
</g>
</g>
<!-- Node120 -->
<g id="Node000120" class="node">
<title>Node120</title>
<g id="a_Node000120"><a xlink:href="../../d9/d8f/igroup__operator_8hpp.html" target="_top" xlink:title=" ">
<polygon fill="#fff0f0" stroke="red" points="309.7,-163.5 208.2,-163.5 208.2,-133 309.7,-133 309.7,-163.5"/>
<text text-anchor="start" x="216.2" y="-150" font-family="Helvetica,sans-Serif" font-size="10.00">src/database/igroup</text>
<text text-anchor="middle" x="258.95" y="-138.75" font-family="Helvetica,sans-Serif" font-size="10.00">_operator.hpp</text>
</a>
</g>
</g>
<!-- Node1&#45;&gt;Node120 -->
<g id="edge6_Node000001_Node000120" class="edge">
<title>Node1&#45;&gt;Node120</title>
<g id="a_edge6_Node000001_Node000120"><a xlink:title=" ">
<path fill="none" stroke="#63b8ff" d="M258.95,-187.92C258.95,-179.99 258.95,-171.06 258.95,-163.78"/>
<polygon fill="#63b8ff" stroke="#63b8ff" points="255.45,-187.67 258.95,-197.67 262.45,-187.67 255.45,-187.67"/>
</a>
</g>
</g>
<!-- Node122 -->
<g id="Node000122" class="node">
<title>Node122</title>
<g id="a_Node000122"><a xlink:href="../../d1/d44/iphoto__change__log__operator_8hpp.html" target="_top" xlink:title=" ">
<polygon fill="#fff0f0" stroke="red" points="456.58,-163.5 327.33,-163.5 327.33,-133 456.58,-133 456.58,-163.5"/>
<text text-anchor="start" x="335.33" y="-150" font-family="Helvetica,sans-Serif" font-size="10.00">src/database/iphoto</text>
<text text-anchor="middle" x="391.95" y="-138.75" font-family="Helvetica,sans-Serif" font-size="10.00">_change_log_operator.hpp</text>
</a>
</g>
</g>
<!-- Node1&#45;&gt;Node122 -->
<g id="edge7_Node000001_Node000122" class="edge">
<title>Node1&#45;&gt;Node122</title>
<g id="a_edge7_Node000001_Node000122"><a xlink:title=" ">
<path fill="none" stroke="#63b8ff" d="M289.87,-194.44C310.52,-185.3 337.65,-173.29 358.76,-163.94"/>
<polygon fill="#63b8ff" stroke="#63b8ff" points="288.55,-191.19 280.83,-198.44 291.39,-197.59 288.55,-191.19"/>
</a>
</g>
</g>
<!-- Node126 -->
<g id="Node000126" class="node">
<title>Node126</title>
<g id="a_Node000126"><a xlink:href="../../db/d39/photo__data_8hpp.html" target="_top" xlink:title=" ">
<polygon fill="#fff0f0" stroke="red" points="426.58,-97 327.33,-97 327.33,-66.5 426.58,-66.5 426.58,-97"/>
<text text-anchor="start" x="335.33" y="-83.5" font-family="Helvetica,sans-Serif" font-size="10.00">src/database/photo</text>
<text text-anchor="middle" x="376.95" y="-72.25" font-family="Helvetica,sans-Serif" font-size="10.00">_data.hpp</text>
</a>
</g>
</g>
<!-- Node1&#45;&gt;Node126 -->
<g id="edge8_Node000001_Node000126" class="edge">
<title>Node1&#45;&gt;Node126</title>
<g id="a_edge8_Node000001_Node000126"><a xlink:title=" ">
<path fill="none" stroke="#63b8ff" d="M329.38,-202.29C382.44,-196.26 448.87,-184.65 465.95,-163.5 486.86,-137.61 447.16,-112.63 414.27,-97.48"/>
<polygon fill="#63b8ff" stroke="#63b8ff" points="329.01,-198.81 319.44,-203.36 329.76,-205.77 329.01,-198.81"/>
</a>
</g>
</g>
<!-- Node81 -->
<g id="Node000081" class="node">
<title>Node81</title>
<g id="a_Node000081"><a xlink:href="../../dc/db1/groups__manager_8hpp.html" target="_top" xlink:title=" ">
<polygon fill="#fff0f0" stroke="red" points="622.45,-163.5 513.45,-163.5 513.45,-133 622.45,-133 622.45,-163.5"/>
<text text-anchor="start" x="521.45" y="-150" font-family="Helvetica,sans-Serif" font-size="10.00">src/gui/desktop/utils</text>
<text text-anchor="middle" x="567.95" y="-138.75" font-family="Helvetica,sans-Serif" font-size="10.00">/groups_manager.hpp</text>
</a>
</g>
</g>
<!-- Node1&#45;&gt;Node81 -->
<g id="edge10_Node000001_Node000081" class="edge">
<title>Node1&#45;&gt;Node81</title>
<g id="a_edge10_Node000001_Node000081"><a xlink:title=" ">
<path fill="none" stroke="#63b8ff" d="M320.83,-196.97C369.33,-188.14 438.5,-175.36 498.95,-163.5 503.51,-162.61 508.24,-161.66 512.98,-160.7"/>
<polygon fill="#63b8ff" stroke="#63b8ff" points="320.28,-193.51 311.06,-198.74 321.53,-200.4 320.28,-193.51"/>
</a>
</g>
</g>
<!-- Node6&#45;&gt;Node39 -->
<g id="edge3_Node000006_Node000039" class="edge">
<title>Node6&#45;&gt;Node39</title>
<g id="a_edge3_Node000006_Node000039"><a xlink:title=" ">
<path fill="none" stroke="#63b8ff" d="M99.26,-129.37C108.39,-117.1 120.12,-101.33 127.33,-91.64"/>
<polygon fill="#63b8ff" stroke="#63b8ff" points="96.69,-126.96 93.53,-137.07 102.31,-131.13 96.69,-126.96"/>
</a>
</g>
</g>
<!-- Node39&#45;&gt;Node2 -->
<g id="edge4_Node000039_Node000002" class="edge">
<title>Node39&#45;&gt;Node2</title>
<g id="a_edge4_Node000039_Node000002"><a xlink:title=" ">
<path fill="none" stroke="#63b8ff" d="M133.95,-60.37C133.95,-50.69 133.95,-39.35 133.95,-30.59"/>
<polygon fill="#63b8ff" stroke="#63b8ff" points="130.45,-60.27 133.95,-70.27 137.45,-60.27 130.45,-60.27"/>
</a>
</g>
</g>
<!-- Node126&#45;&gt;Node2 -->
<g id="edge9_Node000126_Node000002" class="edge">
<title>Node126&#45;&gt;Node2</title>
<g id="a_edge9_Node000126_Node000002"><a xlink:title=" ">
<path fill="none" stroke="#63b8ff" d="M316.25,-64.64C277.36,-54.31 227.28,-41.02 189.45,-30.98"/>
<polygon fill="#63b8ff" stroke="#63b8ff" points="314.87,-67.89 325.43,-67.08 316.67,-61.13 314.87,-67.89"/>
</a>
</g>
</g>
</g>
</svg>

<g id="navigator" transform="translate(0 0)" fill="#404254">
  <rect fill="#f2f5e9" fill-opacity="0.5" stroke="#606060" stroke-width=".5" x="0" y="0" width="60" height="60"/>
  <use id="zoomplus" xlink:href="#zoomPlus" x="17" y="9" onmousedown="handleZoom(evt,'in')"/>
  <use id="zoomminus" xlink:href="#zoomMin" x="42" y="9" onmousedown="handleZoom(evt,'out')"/>
  <use id="reset" xlink:href="#resetDef" x="30" y="36" onmousedown="handleReset()"/>
   <use id="arrowup" xlink:href="#arrowUp" x="0" y="0" onmousedown="handlePan(0,-1)"/>
  <use id="arrowright" xlink:href="#arrowRight" x="0" y="0" onmousedown="handlePan(1,0)"/>
  <use id="arrowdown" xlink:href="#arrowDown" x="0" y="0" onmousedown="handlePan(0,1)"/>
  <use id="arrowleft" xlink:href="#arrowLeft" x="0" y="0" onmousedown="handlePan(-1,0)"/>
</g>
<svg viewBox="0 0 15 15" width="100%" height="30px" preserveAspectRatio="xMaxYMin meet">
 <g id="arrow_out" transform="scale(0.3 0.3)">
  <a xlink:href="group_8hpp__dep__incl_org.svg" target="_base">
   <rect id="button" ry="5" rx="5" y="6" x="6" height="38" width="38"
        fill="#f2f5e9" fill-opacity="0.5" stroke="#606060" stroke-width="1.0"/>
   <path id="arrow"
     d="M 11.500037,31.436501 C 11.940474,20.09759 22.043105,11.32322 32.158766,21.979434 L 37.068811,17.246167 C 37.068811,17.246167 37.088388,32 37.088388,32 L 22.160133,31.978069 C 22.160133,31.978069 26.997745,27.140456 26.997745,27.140456 C 18.528582,18.264221 13.291696,25.230495 11.500037,31.436501 z"
     style="fill:#404040;"/>
  </a>
 </g>
</svg>

<style type='text/css'>
<![CDATA[
[data-mouse-over-selected='false'] { opacity: 0.7; }
[data-mouse-over-selected='true']  { opacity: 1.0; }
]]>
</style>
<script type="application/ecmascript"><![CDATA[
document.addEventListener('DOMContentLoaded', (event) => {
  highlightEdges();
  highlightAdjacentNodes();
});
]]></script>
</svg>
