<?xml version="1.0" encoding="UTF-8" standalone="no"?>
<!DOCTYPE svg PUBLIC "-//W3C//DTD SVG 1.1//EN"
 "http://www.w3.org/Graphics/SVG/1.1/DTD/svg11.dtd">
<!-- Generated by graphviz version 7.0.5 (20221223.1930)
 -->
<!-- Title: src/database/database_tools/implementation/json_to_backend.cpp Pages: 1 -->
<svg width="1121pt" height="159pt"
 viewBox="0.00 0.00 1121.00 159.00" xmlns="http://www.w3.org/2000/svg" xmlns:xlink="http://www.w3.org/1999/xlink">
<g id="graph0" class="graph" transform="scale(1 1) rotate(0) translate(4 155)">
<title>src/database/database_tools/implementation/json_to_backend.cpp</title>
<!-- Node1 -->
<g id="node1" class="node">
<title>Node1</title>
<g id="a_node1"><a xlink:title=" ">
<polygon fill="#999999" stroke="#666666" points="492,-151 376,-151 376,-110 492,-110 492,-151"/>
<text text-anchor="start" x="384" y="-139" font-family="Helvetica,sans-Serif" font-size="10.00">src/database/database</text>
<text text-anchor="start" x="384" y="-128" font-family="Helvetica,sans-Serif" font-size="10.00">_tools/implementation</text>
<text text-anchor="middle" x="434" y="-117" font-family="Helvetica,sans-Serif" font-size="10.00">/json_to_backend.cpp</text>
</a>
</g>
</g>
<!-- Node2 -->
<g id="node2" class="node">
<title>Node2</title>
<g id="a_node2"><a xlink:title=" ">
<polygon fill="#e0e0e0" stroke="#999999" points="46,-74 0,-74 0,-55 46,-55 46,-74"/>
<text text-anchor="middle" x="23" y="-62" font-family="Helvetica,sans-Serif" font-size="10.00">ranges</text>
</a>
</g>
</g>
<!-- Node1&#45;&gt;Node2 -->
<g id="edge1" class="edge">
<title>Node1&#45;&gt;Node2</title>
<path fill="none" stroke="#63b8ff" d="M375.53,-123.04C303.03,-114.57 175.55,-98.14 57.38,-74.29"/>
<polygon fill="#63b8ff" stroke="#63b8ff" points="58.33,-70.91 47.83,-72.33 56.93,-77.77 58.33,-70.91"/>
</g>
<!-- Node3 -->
<g id="node3" class="node">
<title>Node3</title>
<g id="a_node3"><a xlink:title=" ">
<polygon fill="#e0e0e0" stroke="#999999" points="108,-74 64,-74 64,-55 108,-55 108,-74"/>
<text text-anchor="middle" x="86" y="-62" font-family="Helvetica,sans-Serif" font-size="10.00">QDate</text>
</a>
</g>
</g>
<!-- Node1&#45;&gt;Node3 -->
<g id="edge2" class="edge">
<title>Node1&#45;&gt;Node3</title>
<path fill="none" stroke="#63b8ff" d="M375.74,-120.13C312.92,-109.8 210.09,-92.22 122,-74 121.17,-73.83 120.34,-73.65 119.5,-73.47"/>
<polygon fill="#63b8ff" stroke="#63b8ff" points="120.43,-70.1 109.9,-71.33 118.9,-76.93 120.43,-70.1"/>
</g>
<!-- Node4 -->
<g id="node4" class="node">
<title>Node4</title>
<g id="a_node4"><a xlink:title=" ">
<polygon fill="#e0e0e0" stroke="#999999" points="224.5,-19 135.5,-19 135.5,0 224.5,0 224.5,-19"/>
<text text-anchor="middle" x="180" y="-7" font-family="Helvetica,sans-Serif" font-size="10.00">QJsonDocument</text>
</a>
</g>
</g>
<!-- Node1&#45;&gt;Node4 -->
<g id="edge3" class="edge">
<title>Node1&#45;&gt;Node4</title>
<path fill="none" stroke="#63b8ff" d="M375.8,-126.36C302.38,-121.03 182.37,-107.36 155,-74 143.89,-60.46 153.95,-41.37 164.44,-27.67"/>
<polygon fill="#63b8ff" stroke="#63b8ff" points="166.84,-30.26 170.54,-20.34 161.46,-25.78 166.84,-30.26"/>
</g>
<!-- Node5 -->
<g id="node5" class="node">
<title>Node5</title>
<g id="a_node5"><a xlink:title=" ">
<polygon fill="#e0e0e0" stroke="#999999" points="710,-19 636,-19 636,0 710,0 710,-19"/>
<text text-anchor="middle" x="673" y="-7" font-family="Helvetica,sans-Serif" font-size="10.00">QJsonObject</text>
</a>
</g>
</g>
<!-- Node1&#45;&gt;Node5 -->
<g id="edge4" class="edge">
<title>Node1&#45;&gt;Node5</title>
<path fill="none" stroke="#63b8ff" d="M492.35,-121.24C549.09,-112.09 630.01,-95.72 653,-74 664.84,-62.82 669.7,-44.71 671.69,-30.69"/>
<polygon fill="#63b8ff" stroke="#63b8ff" points="675.16,-31.08 672.66,-20.78 668.2,-30.39 675.16,-31.08"/>
</g>
<!-- Node6 -->
<g id="node6" class="node">
<title>Node6</title>
<g id="a_node6"><a xlink:title=" ">
<polygon fill="#e0e0e0" stroke="#999999" points="343.5,-74 300.5,-74 300.5,-55 343.5,-55 343.5,-74"/>
<text text-anchor="middle" x="322" y="-62" font-family="Helvetica,sans-Serif" font-size="10.00">QMap</text>
</a>
</g>
</g>
<!-- Node1&#45;&gt;Node6 -->
<g id="edge5" class="edge">
<title>Node1&#45;&gt;Node6</title>
<path fill="none" stroke="#63b8ff" d="M399.18,-109.6C382.38,-100 362.59,-88.7 347.26,-79.94"/>
<polygon fill="#63b8ff" stroke="#63b8ff" points="349.19,-77 338.77,-75.08 345.71,-83.08 349.19,-77"/>
</g>
<!-- Node7 -->
<g id="node7" class="node">
<title>Node7</title>
<g id="a_node7"><a xlink:title=" ">
<polygon fill="#e0e0e0" stroke="#999999" points="428,-74 362,-74 362,-55 428,-55 428,-74"/>
<text text-anchor="middle" x="395" y="-62" font-family="Helvetica,sans-Serif" font-size="10.00">QStringList</text>
</a>
</g>
</g>
<!-- Node1&#45;&gt;Node7 -->
<g id="edge6" class="edge">
<title>Node1&#45;&gt;Node7</title>
<path fill="none" stroke="#63b8ff" d="M421.87,-109.6C416.84,-101.33 411.03,-91.8 406.1,-83.72"/>
<polygon fill="#63b8ff" stroke="#63b8ff" points="409.26,-82.17 401.07,-75.45 403.28,-85.82 409.26,-82.17"/>
</g>
<!-- Node8 -->
<g id="node8" class="node">
<title>Node8</title>
<g id="a_node8"><a xlink:title=" ">
<polygon fill="#e0e0e0" stroke="#999999" points="501.5,-74 446.5,-74 446.5,-55 501.5,-55 501.5,-74"/>
<text text-anchor="middle" x="474" y="-62" font-family="Helvetica,sans-Serif" font-size="10.00">QVariant</text>
</a>
</g>
</g>
<!-- Node1&#45;&gt;Node8 -->
<g id="edge7" class="edge">
<title>Node1&#45;&gt;Node8</title>
<path fill="none" stroke="#63b8ff" d="M446.44,-109.6C451.6,-101.33 457.56,-91.8 462.61,-83.72"/>
<polygon fill="#63b8ff" stroke="#63b8ff" points="465.45,-85.78 467.78,-75.45 459.52,-82.07 465.45,-85.78"/>
</g>
<!-- Node9 -->
<g id="node9" class="node">
<title>Node9</title>
<g id="a_node9"><a xlink:href="../../de/d87/containers__utils_8hpp.html" target="_top" xlink:title=" ">
<polygon fill="#fff0f0" stroke="red" points="644.5,-74 519.5,-74 519.5,-55 644.5,-55 644.5,-74"/>
<text text-anchor="middle" x="582" y="-62" font-family="Helvetica,sans-Serif" font-size="10.00">core/containers_utils.hpp</text>
</a>
</g>
</g>
<!-- Node1&#45;&gt;Node9 -->
<g id="edge8" class="edge">
<title>Node1&#45;&gt;Node9</title>
<path fill="none" stroke="#63b8ff" d="M480.02,-109.6C503.18,-99.59 530.63,-87.72 551.21,-78.81"/>
<polygon fill="#63b8ff" stroke="#63b8ff" points="552.4,-82.11 560.19,-74.93 549.62,-75.69 552.4,-82.11"/>
</g>
<!-- Node15 -->
<g id="node10" class="node">
<title>Node15</title>
<g id="a_node10"><a xlink:href="../../d2/dc1/json__serializer_8hpp.html" target="_top" xlink:title=" ">
<polygon fill="#fff0f0" stroke="red" points="282,-74 164,-74 164,-55 282,-55 282,-74"/>
<text text-anchor="middle" x="223" y="-62" font-family="Helvetica,sans-Serif" font-size="10.00">core/json_serializer.hpp</text>
</a>
</g>
</g>
<!-- Node1&#45;&gt;Node15 -->
<g id="edge9" class="edge">
<title>Node1&#45;&gt;Node15</title>
<path fill="none" stroke="#63b8ff" d="M375.5,-111.76C339.72,-100.9 294.87,-87.3 263.09,-77.66"/>
<polygon fill="#63b8ff" stroke="#63b8ff" points="264.47,-74.42 253.88,-74.87 262.43,-81.12 264.47,-74.42"/>
</g>
<!-- Node20 -->
<g id="node11" class="node">
<title>Node20</title>
<g id="a_node11"><a xlink:href="../../d3/dcf/json__to__backend_8hpp.html" target="_top" xlink:title=" ">
<polygon fill="#fff0f0" stroke="red" points="817,-74 701,-74 701,-55 817,-55 817,-74"/>
<text text-anchor="middle" x="759" y="-62" font-family="Helvetica,sans-Serif" font-size="10.00">../json_to_backend.hpp</text>
</a>
</g>
</g>
<!-- Node1&#45;&gt;Node20 -->
<g id="edge12" class="edge">
<title>Node1&#45;&gt;Node20</title>
<path fill="none" stroke="#63b8ff" d="M492.48,-117.98C551.97,-106.27 643.55,-88.24 702.36,-76.65"/>
<polygon fill="#63b8ff" stroke="#63b8ff" points="702.69,-80.16 711.82,-74.79 701.34,-73.29 702.69,-80.16"/>
</g>
<!-- Node44 -->
<g id="node12" class="node">
<title>Node44</title>
<g id="a_node12"><a xlink:href="../../da/d2a/ibackend_8hpp.html" target="_top" xlink:title=" ">
<polygon fill="#fff0f0" stroke="red" points="951,-74 835,-74 835,-55 951,-55 951,-74"/>
<text text-anchor="middle" x="893" y="-62" font-family="Helvetica,sans-Serif" font-size="10.00">database/ibackend.hpp</text>
</a>
</g>
</g>
<!-- Node1&#45;&gt;Node44 -->
<g id="edge14" class="edge">
<title>Node1&#45;&gt;Node44</title>
<path fill="none" stroke="#63b8ff" d="M492.13,-121.39C576.57,-109.62 732.91,-87.82 823.38,-75.21"/>
<polygon fill="#63b8ff" stroke="#63b8ff" points="823.7,-78.7 833.12,-73.85 822.73,-71.76 823.7,-78.7"/>
</g>
<!-- Node57 -->
<g id="node13" class="node">
<title>Node57</title>
<g id="a_node13"><a xlink:href="../../d9/d8f/igroup__operator_8hpp.html" target="_top" xlink:title=" ">
<polygon fill="#fff0f0" stroke="red" points="1113,-74 969,-74 969,-55 1113,-55 1113,-74"/>
<text text-anchor="middle" x="1041" y="-62" font-family="Helvetica,sans-Serif" font-size="10.00">database/igroup_operator.hpp</text>
</a>
</g>
</g>
<!-- Node1&#45;&gt;Node57 -->
<g id="edge15" class="edge">
<title>Node1&#45;&gt;Node57</title>
<path fill="none" stroke="#63b8ff" d="M492.48,-123.33C600.67,-111.93 832.41,-87.49 957.25,-74.33"/>
<polygon fill="#63b8ff" stroke="#63b8ff" points="957.53,-77.82 967.11,-73.29 956.8,-70.86 957.53,-77.82"/>
</g>
<!-- Node15&#45;&gt;Node4 -->
<g id="edge10" class="edge">
<title>Node15&#45;&gt;Node4</title>
<path fill="none" stroke="#63b8ff" d="M215.9,-54.75C210.08,-47.58 201.67,-37.2 194.44,-28.3"/>
<polygon fill="#63b8ff" stroke="#63b8ff" points="197.23,-26.18 188.21,-20.62 191.79,-30.59 197.23,-26.18"/>
</g>
<!-- Node15&#45;&gt;Node5 -->
<g id="edge11" class="edge">
<title>Node15&#45;&gt;Node5</title>
<path fill="none" stroke="#63b8ff" d="M282.33,-56.05C285.26,-55.7 288.17,-55.34 291,-55 410.86,-40.53 551.99,-24.3 624.53,-16.01"/>
<polygon fill="#63b8ff" stroke="#63b8ff" points="624.53,-19.54 634.07,-14.93 623.74,-12.58 624.53,-19.54"/>
</g>
<!-- Node20&#45;&gt;Node5 -->
<g id="edge13" class="edge">
<title>Node20&#45;&gt;Node5</title>
<path fill="none" stroke="#63b8ff" d="M744.41,-54.51C731.48,-46.54 712.36,-34.75 697.15,-25.38"/>
<polygon fill="#63b8ff" stroke="#63b8ff" points="699.01,-22.42 688.66,-20.15 695.34,-28.38 699.01,-22.42"/>
</g>
</g>
</svg>
