<?xml version="1.0" encoding="UTF-8" standalone="no"?>
<!DOCTYPE svg PUBLIC "-//W3C//DTD SVG 1.1//EN"
 "http://www.w3.org/Graphics/SVG/1.1/DTD/svg11.dtd">
<!-- Generated by graphviz version 12.2.0 (20241103.1931)
 -->
<!-- Title: src/database/database_tools/implementation/json_to_backend.cpp Pages: 1 -->
<!--zoomable 160 -->

<svg id="main" version="1.1" xmlns="http://www.w3.org/2000/svg" xmlns:xlink="http://www.w3.org/1999/xlink" xml:space="preserve" onload="init(evt)">

<style type="text/css"><![CDATA[
.node, .edge {opacity: 0.7;}
.node.selected, .edge.selected {opacity: 1;}
.edge:hover path { stroke: red; }
.edge:hover polygon { stroke: red; fill: red; }
]]></style>

<defs>
  <circle id="rim" cx="0" cy="0" r="7"/>
  <circle id="rim2" cx="0" cy="0" r="3.5"/>
  <g id="zoomPlus">
    <use xlink:href="#rim" fill="#404040"><set attributeName="fill" to="#808080" begin="zoomplus.mouseover" end="zoomplus.mouseout"/></use>
    <path d="M-4,0h8M0,-4v8" fill="none" stroke="white" stroke-width="1.5" pointer-events="none"/>
  </g>
  <g id="zoomMin">
    <use xlink:href="#rim" fill="#404040"><set attributeName="fill" to="#808080" begin="zoomminus.mouseover" end="zoomminus.mouseout"/></use>
    <path d="M-4,0h8" fill="none" stroke="white" stroke-width="1.5" pointer-events="none"/>
  </g>
  <g id="arrowUp" transform="translate(30 24)">
    <use xlink:href="#rim"/>
    <path pointer-events="none" fill="none" stroke="white" stroke-width="1.5" d="M0,-3.0v7 M-2.5,-0.5L0,-3.0L2.5,-0.5"/>
  </g>
  <g id="arrowRight" transform="rotate(90) translate(36 -43)">
    <use xlink:href="#rim"/>
    <path pointer-events="none" fill="none" stroke="white" stroke-width="1.5" d="M0,-3.0v7 M-2.5,-0.5L0,-3.0L2.5,-0.5"/>
  </g>
  <g id="arrowDown" transform="rotate(180) translate(-30 -48)">
    <use xlink:href="#rim"/>
    <path pointer-events="none" fill="none" stroke="white" stroke-width="1.5" d="M0,-3.0v7 M-2.5,-0.5L0,-3.0L2.5,-0.5"/>
  </g>
  <g id="arrowLeft" transform="rotate(270) translate(-36 17)">
    <use xlink:href="#rim"/>
    <path pointer-events="none" fill="none" stroke="white" stroke-width="1.5" d="M0,-3.0v7 M-2.5,-0.5L0,-3.0L2.5,-0.5"/>
  </g>
  <g id="resetDef">
    <use xlink:href="#rim2" fill="#404040"><set attributeName="fill" to="#808080" begin="reset.mouseover" end="reset.mouseout"/></use>
  </g>
</defs>
<script type="application/ecmascript">
var viewWidth = 1114;
var viewHeight = 160;
var sectionId = 'dynsection-0';
</script>
<script type="application/ecmascript" xlink:href="../../svg.min.js"/>
<svg id="graph" class="graph">
<g id="viewport">
<title>src/database/database_tools/implementation/json_to_backend.cpp</title>
<!-- Node1 -->
<g id="Node000001" class="node">
<title>Node1</title>
<g id="a_Node000001"><a xlink:title=" ">
<polygon fill="#999999" stroke="#666666" points="489.12,-152.25 374.12,-152.25 374.12,-110.5 489.12,-110.5 489.12,-152.25"/>
<text text-anchor="start" x="382.12" y="-138.75" font-family="Helvetica,sans-Serif" font-size="10.00">src/database/database</text>
<text text-anchor="start" x="382.12" y="-127.5" font-family="Helvetica,sans-Serif" font-size="10.00">_tools/implementation</text>
<text text-anchor="middle" x="431.62" y="-116.25" font-family="Helvetica,sans-Serif" font-size="10.00">/json_to_backend.cpp</text>
</a>
</g>
</g>
<!-- Node2 -->
<g id="Node000002" class="node">
<title>Node2</title>
<g id="a_Node000002"><a xlink:title=" ">
<polygon fill="#e0e0e0" stroke="#999999" points="45.25,-74.5 0,-74.5 0,-55.25 45.25,-55.25 45.25,-74.5"/>
<text text-anchor="middle" x="22.62" y="-61" font-family="Helvetica,sans-Serif" font-size="10.00">ranges</text>
</a>
</g>
</g>
<!-- Node1&#45;&gt;Node2 -->
<g id="edge1_Node000001_Node000002" class="edge">
<title>Node1&#45;&gt;Node2</title>
<g id="a_edge1_Node000001_Node000002"><a xlink:title=" ">
<path fill="none" stroke="#63b8ff" d="M373.77,-123.92C301.71,-115.41 174.68,-98.87 56.65,-74.7"/>
<polygon fill="#63b8ff" stroke="#63b8ff" points="57.6,-71.33 47.1,-72.72 56.18,-78.18 57.6,-71.33"/>
</a>
</g>
</g>
<!-- Node3 -->
<g id="Node000003" class="node">
<title>Node3</title>
<g id="a_Node000003"><a xlink:title=" ">
<polygon fill="#e0e0e0" stroke="#999999" points="107.5,-74.5 63.75,-74.5 63.75,-55.25 107.5,-55.25 107.5,-74.5"/>
<text text-anchor="middle" x="85.62" y="-61" font-family="Helvetica,sans-Serif" font-size="10.00">QDate</text>
</a>
</g>
</g>
<!-- Node1&#45;&gt;Node3 -->
<g id="edge2_Node000001_Node000003" class="edge">
<title>Node1&#45;&gt;Node3</title>
<g id="a_edge2_Node000001_Node000003"><a xlink:title=" ">
<path fill="none" stroke="#63b8ff" d="M373.73,-120.95C311.31,-110.55 209.13,-92.85 121.62,-74.5 120.63,-74.29 119.63,-74.08 118.62,-73.86"/>
<polygon fill="#63b8ff" stroke="#63b8ff" points="119.67,-70.51 109.14,-71.7 118.11,-77.33 119.67,-70.51"/>
</a>
</g>
</g>
<!-- Node4 -->
<g id="Node000004" class="node">
<title>Node4</title>
<g id="a_Node000004"><a xlink:title=" ">
<polygon fill="#e0e0e0" stroke="#999999" points="224,-19.25 135.25,-19.25 135.25,0 224,0 224,-19.25"/>
<text text-anchor="middle" x="179.62" y="-5.75" font-family="Helvetica,sans-Serif" font-size="10.00">QJsonDocument</text>
</a>
</g>
</g>
<!-- Node1&#45;&gt;Node4 -->
<g id="edge3_Node000001_Node000004" class="edge">
<title>Node1&#45;&gt;Node4</title>
<g id="a_edge3_Node000001_Node000004"><a xlink:title=" ">
<path fill="none" stroke="#63b8ff" d="M373.83,-127.09C300.93,-121.59 181.77,-107.67 154.62,-74.5 143.47,-60.87 153.55,-41.68 164.04,-27.89"/>
<polygon fill="#63b8ff" stroke="#63b8ff" points="166.47,-30.44 170.16,-20.51 161.08,-25.98 166.47,-30.44"/>
</a>
</g>
</g>
<!-- Node5 -->
<g id="Node000005" class="node">
<title>Node5</title>
<g id="a_Node000005"><a xlink:title=" ">
<polygon fill="#e0e0e0" stroke="#999999" points="704.12,-19.25 631.12,-19.25 631.12,0 704.12,0 704.12,-19.25"/>
<text text-anchor="middle" x="667.62" y="-5.75" font-family="Helvetica,sans-Serif" font-size="10.00">QJsonObject</text>
</a>
</g>
</g>
<!-- Node1&#45;&gt;Node5 -->
<g id="edge4_Node000001_Node000005" class="edge">
<title>Node1&#45;&gt;Node5</title>
<g id="a_edge4_Node000001_Node000005"><a xlink:title=" ">
<path fill="none" stroke="#63b8ff" d="M489.52,-122.02C545.81,-112.78 626.04,-96.26 648.62,-74.5 660.36,-63.19 664.93,-44.99 666.67,-30.9"/>
<polygon fill="#63b8ff" stroke="#63b8ff" points="670.16,-31.19 667.48,-20.94 663.18,-30.63 670.16,-31.19"/>
</a>
</g>
</g>
<!-- Node6 -->
<g id="Node000006" class="node">
<title>Node6</title>
<g id="a_Node000006"><a xlink:title=" ">
<polygon fill="#e0e0e0" stroke="#999999" points="341.75,-74.5 299.5,-74.5 299.5,-55.25 341.75,-55.25 341.75,-74.5"/>
<text text-anchor="middle" x="320.62" y="-61" font-family="Helvetica,sans-Serif" font-size="10.00">QMap</text>
</a>
</g>
</g>
<!-- Node1&#45;&gt;Node6 -->
<g id="edge5_Node000001_Node000006" class="edge">
<title>Node1&#45;&gt;Node6</title>
<g id="a_edge5_Node000001_Node000006"><a xlink:title=" ">
<path fill="none" stroke="#63b8ff" d="M396.81,-110.14C380.28,-100.54 360.89,-89.27 345.81,-80.51"/>
<polygon fill="#63b8ff" stroke="#63b8ff" points="347.86,-77.65 337.46,-75.65 344.34,-83.71 347.86,-77.65"/>
</a>
</g>
</g>
<!-- Node7 -->
<g id="Node000007" class="node">
<title>Node7</title>
<g id="a_Node000007"><a xlink:title=" ">
<polygon fill="#e0e0e0" stroke="#999999" points="425.38,-74.5 359.88,-74.5 359.88,-55.25 425.38,-55.25 425.38,-74.5"/>
<text text-anchor="middle" x="392.62" y="-61" font-family="Helvetica,sans-Serif" font-size="10.00">QStringList</text>
</a>
</g>
</g>
<!-- Node1&#45;&gt;Node7 -->
<g id="edge6_Node000001_Node000007" class="edge">
<title>Node1&#45;&gt;Node7</title>
<g id="a_edge6_Node000001_Node000007"><a xlink:title=" ">
<path fill="none" stroke="#63b8ff" d="M419.5,-110.32C414.52,-102.09 408.8,-92.62 403.91,-84.54"/>
<polygon fill="#63b8ff" stroke="#63b8ff" points="407.06,-82.99 398.89,-76.24 401.07,-86.61 407.06,-82.99"/>
</a>
</g>
</g>
<!-- Node8 -->
<g id="Node000008" class="node">
<title>Node8</title>
<g id="a_Node000008"><a xlink:title=" ">
<polygon fill="#e0e0e0" stroke="#999999" points="497.75,-74.5 443.5,-74.5 443.5,-55.25 497.75,-55.25 497.75,-74.5"/>
<text text-anchor="middle" x="470.62" y="-61" font-family="Helvetica,sans-Serif" font-size="10.00">QVariant</text>
</a>
</g>
</g>
<!-- Node1&#45;&gt;Node8 -->
<g id="edge7_Node000001_Node000008" class="edge">
<title>Node1&#45;&gt;Node8</title>
<g id="a_edge7_Node000001_Node000008"><a xlink:title=" ">
<path fill="none" stroke="#63b8ff" d="M443.75,-110.32C448.73,-102.09 454.45,-92.62 459.34,-84.54"/>
<polygon fill="#63b8ff" stroke="#63b8ff" points="462.18,-86.61 464.36,-76.24 456.19,-82.99 462.18,-86.61"/>
</a>
</g>
</g>
<!-- Node9 -->
<g id="Node000009" class="node">
<title>Node9</title>
<g id="a_Node000009"><a xlink:href="../../de/d87/containers__utils_8hpp.html" target="_top" xlink:title=" ">
<polygon fill="#fff0f0" stroke="red" points="639.62,-74.5 515.62,-74.5 515.62,-55.25 639.62,-55.25 639.62,-74.5"/>
<text text-anchor="middle" x="577.62" y="-61" font-family="Helvetica,sans-Serif" font-size="10.00">core/containers_utils.hpp</text>
</a>
</g>
</g>
<!-- Node1&#45;&gt;Node9 -->
<g id="edge8_Node000001_Node000009" class="edge">
<title>Node1&#45;&gt;Node9</title>
<g id="a_edge8_Node000001_Node000009"><a xlink:title=" ">
<path fill="none" stroke="#63b8ff" d="M477.42,-110.14C500,-100.17 526.63,-88.4 546.76,-79.51"/>
<polygon fill="#63b8ff" stroke="#63b8ff" points="548.09,-82.75 555.82,-75.51 545.26,-76.35 548.09,-82.75"/>
</a>
</g>
</g>
<!-- Node17 -->
<g id="Node000017" class="node">
<title>Node17</title>
<g id="a_Node000017"><a xlink:href="../../d2/dc1/json__serializer_8hpp.html" target="_top" xlink:title=" ">
<polygon fill="#fff0f0" stroke="red" points="281.25,-74.5 164,-74.5 164,-55.25 281.25,-55.25 281.25,-74.5"/>
<text text-anchor="middle" x="222.62" y="-61" font-family="Helvetica,sans-Serif" font-size="10.00">core/json_serializer.hpp</text>
</a>
</g>
</g>
<!-- Node1&#45;&gt;Node17 -->
<g id="edge9_Node000001_Node000017" class="edge">
<title>Node1&#45;&gt;Node17</title>
<g id="a_edge9_Node000001_Node000017"><a xlink:title=" ">
<path fill="none" stroke="#63b8ff" d="M373.68,-112.49C338.5,-101.64 294.47,-88.05 263.04,-78.35"/>
<polygon fill="#63b8ff" stroke="#63b8ff" points="264.1,-75.01 253.51,-75.41 262.04,-81.7 264.1,-75.01"/>
</a>
</g>
</g>
<!-- Node22 -->
<g id="Node000022" class="node">
<title>Node22</title>
<g id="a_Node000022"><a xlink:href="../../d3/dcf/json__to__backend_8hpp.html" target="_top" xlink:title=" ">
<polygon fill="#fff0f0" stroke="red" points="811.12,-74.5 696.12,-74.5 696.12,-55.25 811.12,-55.25 811.12,-74.5"/>
<text text-anchor="middle" x="753.62" y="-61" font-family="Helvetica,sans-Serif" font-size="10.00">../json_to_backend.hpp</text>
</a>
</g>
</g>
<!-- Node1&#45;&gt;Node22 -->
<g id="edge12_Node000001_Node000022" class="edge">
<title>Node1&#45;&gt;Node22</title>
<g id="a_edge12_Node000001_Node000022"><a xlink:title=" ">
<path fill="none" stroke="#63b8ff" d="M489.56,-118.77C548.3,-107 638.6,-88.92 696.89,-77.24"/>
<polygon fill="#63b8ff" stroke="#63b8ff" points="697.51,-80.69 706.62,-75.29 696.13,-73.82 697.51,-80.69"/>
</a>
</g>
</g>
<!-- Node46 -->
<g id="Node000046" class="node">
<title>Node46</title>
<g id="a_Node000046"><a xlink:href="../../da/d2a/ibackend_8hpp.html" target="_top" xlink:title=" ">
<polygon fill="#fff0f0" stroke="red" points="944.5,-74.5 828.75,-74.5 828.75,-55.25 944.5,-55.25 944.5,-74.5"/>
<text text-anchor="middle" x="886.62" y="-61" font-family="Helvetica,sans-Serif" font-size="10.00">database/ibackend.hpp</text>
</a>
</g>
</g>
<!-- Node1&#45;&gt;Node46 -->
<g id="edge14_Node000001_Node000046" class="edge">
<title>Node1&#45;&gt;Node46</title>
<g id="a_edge14_Node000001_Node000046"><a xlink:title=" ">
<path fill="none" stroke="#63b8ff" d="M489.25,-122.21C572.84,-110.36 727.51,-88.43 817.24,-75.71"/>
<polygon fill="#63b8ff" stroke="#63b8ff" points="817.48,-79.21 826.89,-74.34 816.5,-72.28 817.48,-79.21"/>
</a>
</g>
</g>
<!-- Node58 -->
<g id="Node000058" class="node">
<title>Node58</title>
<g id="a_Node000058"><a xlink:href="../../d9/d8f/igroup__operator_8hpp.html" target="_top" xlink:title=" ">
<polygon fill="#fff0f0" stroke="red" points="1106.38,-74.5 962.88,-74.5 962.88,-55.25 1106.38,-55.25 1106.38,-74.5"/>
<text text-anchor="middle" x="1034.62" y="-61" font-family="Helvetica,sans-Serif" font-size="10.00">database/igroup_operator.hpp</text>
</a>
</g>
</g>
<!-- Node1&#45;&gt;Node58 -->
<g id="edge15_Node000001_Node000058" class="edge">
<title>Node1&#45;&gt;Node58</title>
<g id="a_edge15_Node000001_Node000058"><a xlink:title=" ">
<path fill="none" stroke="#63b8ff" d="M489.44,-124.19C596.78,-112.71 827.2,-88.06 951.33,-74.78"/>
<polygon fill="#63b8ff" stroke="#63b8ff" points="951.56,-78.28 961.13,-73.74 950.82,-71.32 951.56,-78.28"/>
</a>
</g>
</g>
<!-- Node17&#45;&gt;Node4 -->
<g id="edge10_Node000017_Node000004" class="edge">
<title>Node17&#45;&gt;Node4</title>
<g id="a_edge10_Node000017_Node000004"><a xlink:title=" ">
<path fill="none" stroke="#63b8ff" d="M215.52,-55.08C209.71,-47.88 201.29,-37.46 194.07,-28.51"/>
<polygon fill="#63b8ff" stroke="#63b8ff" points="196.84,-26.37 187.83,-20.79 191.39,-30.77 196.84,-26.37"/>
</a>
</g>
</g>
<!-- Node17&#45;&gt;Node5 -->
<g id="edge11_Node000017_Node000005" class="edge">
<title>Node17&#45;&gt;Node5</title>
<g id="a_edge11_Node000017_Node000005"><a xlink:title=" ">
<path fill="none" stroke="#63b8ff" d="M281.59,-56.37C284.65,-55.99 287.67,-55.61 290.62,-55.25 408.68,-40.78 547.62,-24.53 619.35,-16.21"/>
<polygon fill="#63b8ff" stroke="#63b8ff" points="619.66,-19.7 629.19,-15.07 618.85,-12.74 619.66,-19.7"/>
</a>
</g>
</g>
<!-- Node22&#45;&gt;Node5 -->
<g id="edge13_Node000022_Node000005" class="edge">
<title>Node22&#45;&gt;Node5</title>
<g id="a_edge13_Node000022_Node000005"><a xlink:title=" ">
<path fill="none" stroke="#63b8ff" d="M739.04,-54.84C726.19,-46.89 707.21,-35.14 692.05,-25.75"/>
<polygon fill="#63b8ff" stroke="#63b8ff" points="693.92,-22.79 683.57,-20.5 690.23,-28.74 693.92,-22.79"/>
</a>
</g>
</g>
</g>
</svg>

<g id="navigator" transform="translate(0 0)" fill="#404254">
  <rect fill="#f2f5e9" fill-opacity="0.5" stroke="#606060" stroke-width=".5" x="0" y="0" width="60" height="60"/>
  <use id="zoomplus" xlink:href="#zoomPlus" x="17" y="9" onmousedown="handleZoom(evt,'in')"/>
  <use id="zoomminus" xlink:href="#zoomMin" x="42" y="9" onmousedown="handleZoom(evt,'out')"/>
  <use id="reset" xlink:href="#resetDef" x="30" y="36" onmousedown="handleReset()"/>
   <use id="arrowup" xlink:href="#arrowUp" x="0" y="0" onmousedown="handlePan(0,-1)"/>
  <use id="arrowright" xlink:href="#arrowRight" x="0" y="0" onmousedown="handlePan(1,0)"/>
  <use id="arrowdown" xlink:href="#arrowDown" x="0" y="0" onmousedown="handlePan(0,1)"/>
  <use id="arrowleft" xlink:href="#arrowLeft" x="0" y="0" onmousedown="handlePan(-1,0)"/>
</g>
<svg viewBox="0 0 15 15" width="100%" height="30px" preserveAspectRatio="xMaxYMin meet">
 <g id="arrow_out" transform="scale(0.3 0.3)">
  <a xlink:href="json__to__backend_8cpp__incl_org.svg" target="_base">
   <rect id="button" ry="5" rx="5" y="6" x="6" height="38" width="38"
        fill="#f2f5e9" fill-opacity="0.5" stroke="#606060" stroke-width="1.0"/>
   <path id="arrow"
     d="M 11.500037,31.436501 C 11.940474,20.09759 22.043105,11.32322 32.158766,21.979434 L 37.068811,17.246167 C 37.068811,17.246167 37.088388,32 37.088388,32 L 22.160133,31.978069 C 22.160133,31.978069 26.997745,27.140456 26.997745,27.140456 C 18.528582,18.264221 13.291696,25.230495 11.500037,31.436501 z"
     style="fill:#404040;"/>
  </a>
 </g>
</svg>

<style type='text/css'>
<![CDATA[
[data-mouse-over-selected='false'] { opacity: 0.7; }
[data-mouse-over-selected='true']  { opacity: 1.0; }
]]>
</style>
<script type="application/ecmascript"><![CDATA[
document.addEventListener('DOMContentLoaded', (event) => {
  highlightEdges();
  highlightAdjacentNodes();
});
]]></script>
</svg>
