<?xml version="1.0" encoding="UTF-8" standalone="no"?>
<!DOCTYPE svg PUBLIC "-//W3C//DTD SVG 1.1//EN"
 "http://www.w3.org/Graphics/SVG/1.1/DTD/svg11.dtd">
<!-- Generated by graphviz version 7.0.5 (20221223.1930)
 -->
<!-- Title: src/database/photo_data_fields.hpp Pages: 1 -->
<svg width="138pt" height="148pt"
 viewBox="0.00 0.00 138.00 148.00" xmlns="http://www.w3.org/2000/svg" xmlns:xlink="http://www.w3.org/1999/xlink">
<g id="graph0" class="graph" transform="scale(1 1) rotate(0) translate(4 144)">
<title>src/database/photo_data_fields.hpp</title>
<!-- Node1 -->
<g id="node1" class="node">
<title>Node1</title>
<g id="a_node1"><a xlink:title=" ">
<polygon fill="#999999" stroke="#666666" points="100,-140 0,-140 0,-110 100,-110 100,-140"/>
<text text-anchor="start" x="8" y="-128" font-family="Helvetica,sans-Serif" font-size="10.00">src/database/photo</text>
<text text-anchor="middle" x="50" y="-117" font-family="Helvetica,sans-Serif" font-size="10.00">_data_fields.hpp</text>
</a>
</g>
</g>
<!-- Node2 -->
<g id="node2" class="node">
<title>Node2</title>
<g id="a_node2"><a xlink:href="../../dc/d82/photo__types_8hpp.html" target="_top" xlink:title=" ">
<polygon fill="#fff0f0" stroke="red" points="93.5,-19 6.5,-19 6.5,0 93.5,0 93.5,-19"/>
<text text-anchor="middle" x="50" y="-7" font-family="Helvetica,sans-Serif" font-size="10.00">photo_types.hpp</text>
</a>
</g>
</g>
<!-- Node1&#45;&gt;Node2 -->
<g id="edge1" class="edge">
<title>Node1&#45;&gt;Node2</title>
<path fill="none" stroke="#63b8ff" d="M42.76,-109.57C36.68,-95.68 29.49,-74.05 33,-55 34.57,-46.47 37.71,-37.45 40.87,-29.79"/>
<polygon fill="#63b8ff" stroke="#63b8ff" points="44,-31.36 44.86,-20.8 37.6,-28.52 44,-31.36"/>
</g>
<!-- Node12 -->
<g id="node3" class="node">
<title>Node12</title>
<g id="a_node3"><a xlink:href="../../d9/d0f/person__data_8hpp.html" target="_top" xlink:title=" ">
<polygon fill="#fff0f0" stroke="red" points="130,-74 42,-74 42,-55 130,-55 130,-74"/>
<text text-anchor="middle" x="86" y="-62" font-family="Helvetica,sans-Serif" font-size="10.00">person_data.hpp</text>
</a>
</g>
</g>
<!-- Node1&#45;&gt;Node12 -->
<g id="edge2" class="edge">
<title>Node1&#45;&gt;Node12</title>
<path fill="none" stroke="#63b8ff" d="M58.9,-109.54C63.7,-101.74 69.68,-92.03 74.79,-83.71"/>
<polygon fill="#63b8ff" stroke="#63b8ff" points="77.61,-85.82 79.87,-75.46 71.65,-82.15 77.61,-85.82"/>
</g>
<!-- Node12&#45;&gt;Node2 -->
<g id="edge3" class="edge">
<title>Node12&#45;&gt;Node2</title>
<path fill="none" stroke="#63b8ff" d="M80.06,-54.75C75.29,-47.73 68.44,-37.64 62.48,-28.87"/>
<polygon fill="#63b8ff" stroke="#63b8ff" points="65.44,-27 56.92,-20.69 59.65,-30.93 65.44,-27"/>
</g>
</g>
</svg>
