<?xml version="1.0" encoding="UTF-8" standalone="no"?>
<!DOCTYPE svg PUBLIC "-//W3C//DTD SVG 1.1//EN"
 "http://www.w3.org/Graphics/SVG/1.1/DTD/svg11.dtd">
<!-- Generated by graphviz version 12.2.0 (20241103.1931)
 -->
<!-- Title: TagInfoCollector::set Pages: 1 -->
<svg width="410pt" height="212pt"
 viewBox="0.00 0.00 410.00 211.50" xmlns="http://www.w3.org/2000/svg" xmlns:xlink="http://www.w3.org/1999/xlink">
<g id="graph0" class="graph" transform="scale(1 1) rotate(0) translate(4 207.5)">
<title>TagInfoCollector::set</title>
<!-- Node1 -->
<g id="Node000001" class="node">
<title>Node1</title>
<g id="a_Node000001"><a xlink:title=" ">
<polygon fill="#999999" stroke="#666666" points="105.25,-116.88 0,-116.88 0,-97.62 105.25,-97.62 105.25,-116.88"/>
<text text-anchor="middle" x="52.62" y="-103.38" font-family="Helvetica,sans-Serif" font-size="10.00">TagInfoCollector::set</text>
</a>
</g>
</g>
<!-- Node2 -->
<g id="Node000002" class="node">
<title>Node2</title>
<g id="a_Node000002"><a xlink:href="../../d7/da9/struct_database_1_1_i_database.html#a0b95fea80210ee6657d79a0f8a266aa7" target="_top" xlink:title=" ">
<polygon fill="white" stroke="#666666" points="254.75,-203.5 148.75,-203.5 148.75,-173 254.75,-173 254.75,-203.5"/>
<text text-anchor="start" x="156.75" y="-190" font-family="Helvetica,sans-Serif" font-size="10.00">Database::IDatabase</text>
<text text-anchor="middle" x="201.75" y="-178.75" font-family="Helvetica,sans-Serif" font-size="10.00">::backend</text>
</a>
</g>
</g>
<!-- Node1&#45;&gt;Node2 -->
<g id="edge1_Node000001_Node000002" class="edge">
<title>Node1&#45;&gt;Node2</title>
<g id="a_edge1_Node000001_Node000002"><a xlink:title=" ">
<path fill="none" stroke="#63b8ff" d="M67.09,-117.19C83.87,-129.3 113.72,-149.92 141.25,-164.25 143.63,-165.49 146.08,-166.7 148.58,-167.89"/>
<polygon fill="#63b8ff" stroke="#63b8ff" points="147.06,-171.05 157.62,-171.98 149.95,-164.67 147.06,-171.05"/>
</a>
</g>
</g>
<!-- Node3 -->
<g id="Node000003" class="node">
<title>Node3</title>
<g id="a_Node000003"><a xlink:href="../../dc/dfa/signal__postponer_8hpp.html#a07a9380d3812074d4bdcd7346b60a184" target="_top" xlink:title="blocks slot invocation until previous invocation is complete.">
<polygon fill="#fff0f0" stroke="red" points="246.5,-154.88 157,-154.88 157,-135.62 246.5,-135.62 246.5,-154.88"/>
<text text-anchor="middle" x="201.75" y="-141.38" font-family="Helvetica,sans-Serif" font-size="10.00">blocked_connect</text>
</a>
</g>
</g>
<!-- Node1&#45;&gt;Node3 -->
<g id="edge2_Node000001_Node000003" class="edge">
<title>Node1&#45;&gt;Node3</title>
<g id="a_edge2_Node000001_Node000003"><a xlink:title=" ">
<path fill="none" stroke="#63b8ff" d="M92.67,-117.33C110.44,-121.93 131.7,-127.42 150.64,-132.31"/>
<polygon fill="#63b8ff" stroke="#63b8ff" points="149.76,-135.69 160.32,-134.81 151.51,-128.92 149.76,-135.69"/>
</a>
</g>
</g>
<!-- Node5 -->
<g id="Node000005" class="node">
<title>Node5</title>
<g id="a_Node000005"><a xlink:href="../../d8/da6/class_signal_blocker.html#a04b4aed681630b681cc37f6726844bf9" target="_top" xlink:title=" ">
<polygon fill="#fff0f0" stroke="red" points="402,-135.88 298.25,-135.88 298.25,-116.62 402,-116.62 402,-135.88"/>
<text text-anchor="middle" x="350.12" y="-122.38" font-family="Helvetica,sans-Serif" font-size="10.00">SignalBlocker::notify</text>
</a>
</g>
</g>
<!-- Node1&#45;&gt;Node5 -->
<g id="edge4_Node000001_Node000005" class="edge">
<title>Node1&#45;&gt;Node5</title>
<g id="a_edge4_Node000001_Node000005"><a xlink:title=" ">
<path fill="none" stroke="#63b8ff" d="M105.44,-110.58C155.86,-113.82 232.56,-118.75 286.4,-122.22"/>
<polygon fill="#63b8ff" stroke="#63b8ff" points="286.16,-125.71 296.36,-122.86 286.6,-118.72 286.16,-125.71"/>
</a>
</g>
</g>
<!-- Node8 -->
<g id="Node000008" class="node">
<title>Node8</title>
<g id="a_Node000008"><a xlink:href="../../d2/ddd/struct_database_1_1_i_backend.html#a5d5cd941849fe3dcc48b738414b14190" target="_top" xlink:title="emited after photos removal">
<polygon fill="white" stroke="#666666" points="253.25,-79.5 150.25,-79.5 150.25,-49 253.25,-49 253.25,-79.5"/>
<text text-anchor="start" x="158.25" y="-66" font-family="Helvetica,sans-Serif" font-size="10.00">Database::IBackend</text>
<text text-anchor="middle" x="201.75" y="-54.75" font-family="Helvetica,sans-Serif" font-size="10.00">::photosModified</text>
</a>
</g>
</g>
<!-- Node1&#45;&gt;Node8 -->
<g id="edge5_Node000001_Node000008" class="edge">
<title>Node1&#45;&gt;Node8</title>
<g id="a_edge5_Node000001_Node000008"><a xlink:title=" ">
<path fill="none" stroke="#63b8ff" d="M88.12,-97.17C103.38,-92.71 121.81,-87.32 139.29,-82.21"/>
<polygon fill="#63b8ff" stroke="#63b8ff" points="139.95,-85.67 148.57,-79.5 137.99,-78.95 139.95,-85.67"/>
</a>
</g>
</g>
<!-- Node9 -->
<g id="Node000009" class="node">
<title>Node9</title>
<g id="a_Node000009"><a xlink:href="../../d6/d99/class_tag_info_collector.html#aa99a183e321edaa603824bd547fafeb1" target="_top" xlink:title=" ">
<polygon fill="#fff0f0" stroke="red" points="262.25,-30.5 141.25,-30.5 141.25,0 262.25,0 262.25,-30.5"/>
<text text-anchor="start" x="149.25" y="-17" font-family="Helvetica,sans-Serif" font-size="10.00">TagInfoCollector::update</text>
<text text-anchor="middle" x="201.75" y="-5.75" font-family="Helvetica,sans-Serif" font-size="10.00">AllTags</text>
</a>
</g>
</g>
<!-- Node1&#45;&gt;Node9 -->
<g id="edge6_Node000001_Node000009" class="edge">
<title>Node1&#45;&gt;Node9</title>
<g id="a_edge6_Node000001_Node000009"><a xlink:title=" ">
<path fill="none" stroke="#63b8ff" d="M64.86,-97.14C80.92,-83.06 111.76,-57.34 141.25,-40.25 143.84,-38.75 146.54,-37.29 149.3,-35.87"/>
<polygon fill="#63b8ff" stroke="#63b8ff" points="150.58,-39.14 158.07,-31.65 147.54,-32.83 150.58,-39.14"/>
</a>
</g>
</g>
<!-- Node3&#45;&gt;Node5 -->
<g id="edge3_Node000003_Node000005" class="edge">
<title>Node3&#45;&gt;Node5</title>
<g id="a_edge3_Node000003_Node000005"><a xlink:title=" ">
<path fill="none" stroke="#63b8ff" d="M246.67,-139.55C259.23,-137.92 273.18,-136.11 286.63,-134.36"/>
<polygon fill="#63b8ff" stroke="#63b8ff" points="286.8,-137.87 296.27,-133.11 285.9,-130.93 286.8,-137.87"/>
</a>
</g>
</g>
</g>
</svg>
