<?xml version="1.0" encoding="UTF-8" standalone="no"?>
<!DOCTYPE svg PUBLIC "-//W3C//DTD SVG 1.1//EN"
 "http://www.w3.org/Graphics/SVG/1.1/DTD/svg11.dtd">
<!-- Generated by graphviz version 7.0.5 (20221223.1930)
 -->
<!-- Title: TagInfoCollector::updateValuesFor Pages: 1 -->
<svg width="288pt" height="134pt"
 viewBox="0.00 0.00 288.00 134.00" xmlns="http://www.w3.org/2000/svg" xmlns:xlink="http://www.w3.org/1999/xlink">
<g id="graph0" class="graph" transform="scale(1 1) rotate(0) translate(4 130)">
<title>TagInfoCollector::updateValuesFor</title>
<!-- Node1 -->
<g id="node1" class="node">
<title>Node1</title>
<g id="a_node1"><a xlink:title=" ">
<polygon fill="#999999" stroke="#666666" points="122,-78 0,-78 0,-48 122,-48 122,-78"/>
<text text-anchor="start" x="8" y="-66" font-family="Helvetica,sans-Serif" font-size="10.00">TagInfoCollector::update</text>
<text text-anchor="middle" x="61" y="-55" font-family="Helvetica,sans-Serif" font-size="10.00">ValuesFor</text>
</a>
</g>
</g>
<!-- Node2 -->
<g id="node2" class="node">
<title>Node2</title>
<g id="a_node2"><a xlink:href="../../d7/da9/struct_database_1_1_i_database.html#ac86cb641a8f5a37a00873df333bb12bb" target="_top" xlink:title=" ">
<polygon fill="#fff0f0" stroke="red" points="272.5,-126 165.5,-126 165.5,-96 272.5,-96 272.5,-126"/>
<text text-anchor="start" x="173.5" y="-114" font-family="Helvetica,sans-Serif" font-size="10.00">Database::IDatabase</text>
<text text-anchor="middle" x="219" y="-103" font-family="Helvetica,sans-Serif" font-size="10.00">::exec</text>
</a>
</g>
</g>
<!-- Node1&#45;&gt;Node2 -->
<g id="edge1" class="edge">
<title>Node1&#45;&gt;Node2</title>
<path fill="none" stroke="#63b8ff" d="M112.22,-78.45C126.55,-82.86 142.33,-87.72 157.22,-92.3"/>
<polygon fill="#63b8ff" stroke="#63b8ff" points="155.84,-95.54 166.43,-95.13 157.9,-88.85 155.84,-95.54"/>
</g>
<!-- Node5 -->
<g id="node3" class="node">
<title>Node5</title>
<g id="a_node3"><a xlink:href="../../d6/d99/class_tag_info_collector.html#abf40d1de87194feee9c0b1a23172ff12" target="_top" xlink:title=" ">
<polygon fill="white" stroke="#666666" points="280,-78 158,-78 158,-48 280,-48 280,-78"/>
<text text-anchor="start" x="166" y="-66" font-family="Helvetica,sans-Serif" font-size="10.00">TagInfoCollector::gotTag</text>
<text text-anchor="middle" x="219" y="-55" font-family="Helvetica,sans-Serif" font-size="10.00">Values</text>
</a>
</g>
</g>
<!-- Node1&#45;&gt;Node5 -->
<g id="edge2" class="edge">
<title>Node1&#45;&gt;Node5</title>
<path fill="none" stroke="#63b8ff" d="M122.31,-63C130.18,-63 138.3,-63 146.33,-63"/>
<polygon fill="#63b8ff" stroke="#63b8ff" points="146.08,-66.5 156.08,-63 146.08,-59.5 146.08,-66.5"/>
</g>
<!-- Node6 -->
<g id="node4" class="node">
<title>Node6</title>
<g id="a_node4"><a xlink:href="../../d2/ddd/struct_database_1_1_i_backend.html#a566e5e93d90f9747fd65b028d47812c5" target="_top" xlink:title="list all values of tag for photos matching provided filter">
<polygon fill="white" stroke="#666666" points="271,-30 167,-30 167,0 271,0 271,-30"/>
<text text-anchor="start" x="175" y="-18" font-family="Helvetica,sans-Serif" font-size="10.00">Database::IBackend</text>
<text text-anchor="middle" x="219" y="-7" font-family="Helvetica,sans-Serif" font-size="10.00">::listTagValues</text>
</a>
</g>
</g>
<!-- Node1&#45;&gt;Node6 -->
<g id="edge3" class="edge">
<title>Node1&#45;&gt;Node6</title>
<path fill="none" stroke="#63b8ff" d="M112.22,-47.55C126.55,-43.14 142.33,-38.28 157.22,-33.7"/>
<polygon fill="#63b8ff" stroke="#63b8ff" points="157.9,-37.15 166.43,-30.87 155.84,-30.46 157.9,-37.15"/>
</g>
</g>
</svg>
