<?xml version="1.0" encoding="UTF-8" standalone="no"?>
<!DOCTYPE svg PUBLIC "-//W3C//DTD SVG 1.1//EN"
 "http://www.w3.org/Graphics/SVG/1.1/DTD/svg11.dtd">
<!-- Generated by graphviz version 7.0.5 (20221223.1930)
 -->
<!-- Title: TagInfoCollector::updateAllTags Pages: 1 -->
<svg width="288pt" height="76pt"
 viewBox="0.00 0.00 288.00 75.50" xmlns="http://www.w3.org/2000/svg" xmlns:xlink="http://www.w3.org/1999/xlink">
<g id="graph0" class="graph" transform="scale(1 1) rotate(0) translate(4 71.5)">
<title>TagInfoCollector::updateAllTags</title>
<!-- Node1 -->
<g id="node1" class="node">
<title>Node1</title>
<g id="a_node1"><a xlink:title=" ">
<polygon fill="#999999" stroke="#666666" points="122,-51 0,-51 0,-21 122,-21 122,-51"/>
<text text-anchor="start" x="8" y="-39" font-family="Helvetica,sans-Serif" font-size="10.00">TagInfoCollector::update</text>
<text text-anchor="middle" x="61" y="-28" font-family="Helvetica,sans-Serif" font-size="10.00">AllTags</text>
</a>
</g>
</g>
<!-- Node2 -->
<g id="node2" class="node">
<title>Node2</title>
<g id="a_node2"><a xlink:href="../../de/dd4/class_base_tags.html#a3ce04bcde2b5c25532fe7ba17717e48e" target="_top" xlink:title="get list of all possible tag types">
<polygon fill="white" stroke="#666666" points="264,-67.5 174,-67.5 174,-48.5 264,-48.5 264,-67.5"/>
<text text-anchor="middle" x="219" y="-55.5" font-family="Helvetica,sans-Serif" font-size="10.00">BaseTags::getAll</text>
</a>
</g>
</g>
<!-- Node1&#45;&gt;Node2 -->
<g id="edge1" class="edge">
<title>Node1&#45;&gt;Node2</title>
<path fill="none" stroke="#63b8ff" d="M122.31,-44.51C135.58,-46.38 149.56,-48.35 162.62,-50.19"/>
<polygon fill="#63b8ff" stroke="#63b8ff" points="161.92,-53.63 172.31,-51.56 162.9,-46.69 161.92,-53.63"/>
</g>
<!-- Node3 -->
<g id="node3" class="node">
<title>Node3</title>
<g id="a_node3"><a xlink:href="../../d6/d99/class_tag_info_collector.html#ac9a9d5cb67ed21da76ad389a5de0f565" target="_top" xlink:title=" ">
<polygon fill="#fff0f0" stroke="red" points="280,-30 158,-30 158,0 280,0 280,-30"/>
<text text-anchor="start" x="166" y="-18" font-family="Helvetica,sans-Serif" font-size="10.00">TagInfoCollector::update</text>
<text text-anchor="middle" x="219" y="-7" font-family="Helvetica,sans-Serif" font-size="10.00">ValuesFor</text>
</a>
</g>
</g>
<!-- Node1&#45;&gt;Node3 -->
<g id="edge2" class="edge">
<title>Node1&#45;&gt;Node3</title>
<path fill="none" stroke="#63b8ff" d="M122.31,-27.88C130.18,-26.82 138.3,-25.73 146.33,-24.65"/>
<polygon fill="#63b8ff" stroke="#63b8ff" points="146.65,-28.14 156.09,-23.33 145.71,-21.2 146.65,-28.14"/>
</g>
</g>
</svg>
