<?xml version="1.0" encoding="UTF-8" standalone="no"?>
<!DOCTYPE svg PUBLIC "-//W3C//DTD SVG 1.1//EN"
 "http://www.w3.org/Graphics/SVG/1.1/DTD/svg11.dtd">
<!-- Generated by graphviz version 7.0.5 (20221223.1930)
 -->
<!-- Title: ExecutorTraits::exec Pages: 1 -->
<svg width="201pt" height="64pt"
 viewBox="0.00 0.00 201.00 64.00" xmlns="http://www.w3.org/2000/svg" xmlns:xlink="http://www.w3.org/1999/xlink">
<g id="graph0" class="graph" transform="scale(1 1) rotate(0) translate(4 60)">
<title>ExecutorTraits::exec</title>
<!-- Node1 -->
<g id="node1" class="node">
<title>Node1</title>
<g id="a_node1"><a xlink:title=" ">
<polygon fill="#999999" stroke="#666666" points="193,-37 89,-37 89,-18 193,-18 193,-37"/>
<text text-anchor="middle" x="141" y="-25" font-family="Helvetica,sans-Serif" font-size="10.00">ExecutorTraits::exec</text>
</a>
</g>
</g>
<!-- Node2 -->
<g id="node2" class="node">
<title>Node2</title>
<g id="a_node2"><a xlink:href="../../d4/d20/task__executor__utils_8hpp.html#ab600807ae28e81f2270dbd0213fd64bd" target="_top" xlink:title=" ">
<polygon fill="#fff0f0" stroke="red" points="53,-56 0,-56 0,-37 53,-37 53,-56"/>
<text text-anchor="middle" x="26.5" y="-44" font-family="Helvetica,sans-Serif" font-size="10.00">evaluate</text>
</a>
</g>
</g>
<!-- Node1&#45;&gt;Node2 -->
<g id="edge1" class="edge">
<title>Node1&#45;&gt;Node2</title>
<path fill="none" stroke="#63b8ff" d="M77.44,-38.07C68.91,-39.51 60.59,-40.91 53.25,-42.15"/>
<polygon fill="#63b8ff" stroke="#63b8ff" points="77.92,-41.53 87.2,-36.42 76.75,-34.63 77.92,-41.53"/>
</g>
<!-- Node5 -->
<g id="node3" class="node">
<title>Node5</title>
<g id="a_node3"><a xlink:href="../../d4/d20/task__executor__utils_8hpp.html#a865cfc2f4876f4fec6dea07219b07a7d" target="_top" xlink:title=" ">
<polygon fill="#fff0f0" stroke="red" points="51.5,-19 1.5,-19 1.5,0 51.5,0 51.5,-19"/>
<text text-anchor="middle" x="26.5" y="-7" font-family="Helvetica,sans-Serif" font-size="10.00">execute</text>
</a>
</g>
</g>
<!-- Node1&#45;&gt;Node5 -->
<g id="edge2" class="edge">
<title>Node1&#45;&gt;Node5</title>
<path fill="none" stroke="#63b8ff" d="M77.51,-17.5C68.38,-16.04 59.48,-14.62 51.77,-13.38"/>
<polygon fill="#63b8ff" stroke="#63b8ff" points="76.77,-20.93 87.19,-19.05 77.87,-14.01 76.77,-20.93"/>
</g>
</g>
</svg>
