<?xml version="1.0" encoding="UTF-8" standalone="no"?>
<!DOCTYPE svg PUBLIC "-//W3C//DTD SVG 1.1//EN"
 "http://www.w3.org/Graphics/SVG/1.1/DTD/svg11.dtd">
<!-- Generated by graphviz version 9.0.0 (20230911.1827)
 -->
<!-- Title: src/gui/desktop/utils/grouppers/hdr_generator.cpp Pages: 1 -->
<svg width="427pt" height="94pt"
 viewBox="0.00 0.00 427.25 93.75" xmlns="http://www.w3.org/2000/svg" xmlns:xlink="http://www.w3.org/1999/xlink">

<svg id="main" version="1.1" xmlns="http://www.w3.org/2000/svg" xmlns:xlink="http://www.w3.org/1999/xlink" xml:space="preserve" onload="init(evt)">
<style type="text/css"><![CDATA[
.node, .edge {opacity: 0.7;}
.node.selected, .edge.selected {opacity: 1;}
.edge:hover path { stroke: red; }
.edge:hover polygon { stroke: red; fill: red; }
]]></style>
<script type="application/ecmascript" xlink:href="../../svg.min.js"/>
<svg id="graph" class="graph">
<g id="graph0" class="graph" transform="scale(1 1) rotate(0) translate(4 89.75)">
<title>src/gui/desktop/utils/grouppers/hdr_generator.cpp</title>
<!-- Node1 -->
<g id="Node000001" class="node">
<title>Node1</title>
<g id="a_Node000001"><a xlink:title=" ">
<polygon fill="#999999" stroke="#666666" points="262.25,-85.75 120.25,-85.75 120.25,-55.25 262.25,-55.25 262.25,-85.75"/>
<text text-anchor="start" x="128.25" y="-72.25" font-family="Helvetica,sans-Serif" font-size="10.00">src/gui/desktop/utils</text>
<text text-anchor="middle" x="191.25" y="-61" font-family="Helvetica,sans-Serif" font-size="10.00">/grouppers/hdr_generator.cpp</text>
</a>
</g>
</g>
<!-- Node2 -->
<g id="Node000002" class="node">
<title>Node2</title>
<g id="a_Node000002"><a xlink:title=" ">
<polygon fill="#e0e0e0" stroke="#999999" points="50.5,-19.25 0,-19.25 0,0 50.5,0 50.5,-19.25"/>
<text text-anchor="middle" x="25.25" y="-5.75" font-family="Helvetica,sans-Serif" font-size="10.00">QImage</text>
</a>
</g>
</g>
<!-- Node1&#45;&gt;Node2 -->
<g id="edge1_Node000001_Node000002" class="edge">
<title>Node1&#45;&gt;Node2</title>
<g id="a_edge1_Node000001_Node000002"><a xlink:title=" ">
<path fill="none" stroke="#63b8ff" d="M149.79,-54.8C122.56,-45.14 87.31,-32.63 61.26,-23.4"/>
<polygon fill="#63b8ff" stroke="#63b8ff" points="62.73,-20.2 52.13,-20.16 60.39,-26.8 62.73,-20.2"/>
</a>
</g>
</g>
<!-- Node3 -->
<g id="Node000003" class="node">
<title>Node3</title>
<g id="a_Node000003"><a xlink:title=" ">
<polygon fill="#e0e0e0" stroke="#999999" points="189.75,-19.25 68.75,-19.25 68.75,0 189.75,0 189.75,-19.25"/>
<text text-anchor="middle" x="129.25" y="-5.75" font-family="Helvetica,sans-Serif" font-size="10.00">opencv2/imgcodecs.hpp</text>
</a>
</g>
</g>
<!-- Node1&#45;&gt;Node3 -->
<g id="edge2_Node000001_Node000003" class="edge">
<title>Node1&#45;&gt;Node3</title>
<g id="a_edge2_Node000001_Node000003"><a xlink:title=" ">
<path fill="none" stroke="#63b8ff" d="M175.92,-54.95C167.21,-46.67 156.25,-36.27 147.15,-27.62"/>
<polygon fill="#63b8ff" stroke="#63b8ff" points="149.57,-25.09 139.91,-20.74 144.75,-30.17 149.57,-25.09"/>
</a>
</g>
</g>
<!-- Node4 -->
<g id="Node000004" class="node">
<title>Node4</title>
<g id="a_Node000004"><a xlink:href="../../de/d14/hdr__generator_8hpp.html" target="_top" xlink:title=" ">
<polygon fill="#fff0f0" stroke="red" points="300.88,-19.25 207.62,-19.25 207.62,0 300.88,0 300.88,-19.25"/>
<text text-anchor="middle" x="254.25" y="-5.75" font-family="Helvetica,sans-Serif" font-size="10.00">hdr_generator.hpp</text>
</a>
</g>
</g>
<!-- Node1&#45;&gt;Node4 -->
<g id="edge3_Node000001_Node000004" class="edge">
<title>Node1&#45;&gt;Node4</title>
<g id="a_edge3_Node000001_Node000004"><a xlink:title=" ">
<path fill="none" stroke="#63b8ff" d="M206.82,-54.95C215.77,-46.59 227.04,-36.05 236.35,-27.35"/>
<polygon fill="#63b8ff" stroke="#63b8ff" points="238.52,-30.12 243.43,-20.73 233.74,-25.01 238.52,-30.12"/>
</a>
</g>
</g>
<!-- Node17 -->
<g id="Node000017" class="node">
<title>Node17</title>
<g id="a_Node000017"><a xlink:href="../../dd/d90/system_8hpp.html" target="_top" xlink:title=" ">
<polygon fill="#fff0f0" stroke="red" points="419.25,-19.25 319.25,-19.25 319.25,0 419.25,0 419.25,-19.25"/>
<text text-anchor="middle" x="369.25" y="-5.75" font-family="Helvetica,sans-Serif" font-size="10.00">system/system.hpp</text>
</a>
</g>
</g>
<!-- Node1&#45;&gt;Node17 -->
<g id="edge4_Node000001_Node000017" class="edge">
<title>Node1&#45;&gt;Node17</title>
<g id="a_edge4_Node000001_Node000017"><a xlink:title=" ">
<path fill="none" stroke="#63b8ff" d="M235.71,-54.8C265.07,-45.08 303.15,-32.49 331.13,-23.23"/>
<polygon fill="#63b8ff" stroke="#63b8ff" points="331.86,-26.68 340.25,-20.22 329.66,-20.03 331.86,-26.68"/>
</a>
</g>
</g>
</g>
</svg>
</svg>

<style type='text/css'>
<![CDATA[
[data-mouse-over-selected='false'] { opacity: 0.7; }
[data-mouse-over-selected='true']  { opacity: 1.0; }
]]>
</style>
<script type="application/ecmascript"><![CDATA[
document.addEventListener('DOMContentLoaded', (event) => {
  highlightEdges();
  highlightAdjacentNodes();
});
]]></script>
</svg>
