<?xml version="1.0" encoding="UTF-8" standalone="no"?>
<!DOCTYPE svg PUBLIC "-//W3C//DTD SVG 1.1//EN"
 "http://www.w3.org/Graphics/SVG/1.1/DTD/svg11.dtd">
<!-- Generated by graphviz version 12.2.0 (20241103.1931)
 -->
<!-- Title: src/gui/desktop/utils/grouppers/hdr_generator.cpp Pages: 1 -->
<svg width="645pt" height="94pt"
 viewBox="0.00 0.00 645.00 93.75" xmlns="http://www.w3.org/2000/svg" xmlns:xlink="http://www.w3.org/1999/xlink">
<g id="graph0" class="graph" transform="scale(1 1) rotate(0) translate(4 89.75)">
<title>src/gui/desktop/utils/grouppers/hdr_generator.cpp</title>
<!-- Node1 -->
<g id="Node000001" class="node">
<title>Node1</title>
<g id="a_Node000001"><a xlink:title=" ">
<polygon fill="#999999" stroke="#666666" points="404.25,-85.75 262.25,-85.75 262.25,-55.25 404.25,-55.25 404.25,-85.75"/>
<text text-anchor="start" x="270.25" y="-72.25" font-family="Helvetica,sans-Serif" font-size="10.00">src/gui/desktop/utils</text>
<text text-anchor="middle" x="333.25" y="-61" font-family="Helvetica,sans-Serif" font-size="10.00">/grouppers/hdr_generator.cpp</text>
</a>
</g>
</g>
<!-- Node2 -->
<g id="Node000002" class="node">
<title>Node2</title>
<g id="a_Node000002"><a xlink:title=" ">
<polygon fill="#e0e0e0" stroke="#999999" points="50.5,-19.25 0,-19.25 0,0 50.5,0 50.5,-19.25"/>
<text text-anchor="middle" x="25.25" y="-5.75" font-family="Helvetica,sans-Serif" font-size="10.00">QImage</text>
</a>
</g>
</g>
<!-- Node1&#45;&gt;Node2 -->
<g id="edge1_Node000001_Node000002" class="edge">
<title>Node1&#45;&gt;Node2</title>
<g id="a_edge1_Node000001_Node000002"><a xlink:title=" ">
<path fill="none" stroke="#63b8ff" d="M262.02,-57.79C209.17,-48.78 135.1,-35.52 61.66,-19.67"/>
<polygon fill="#63b8ff" stroke="#63b8ff" points="62.82,-16.34 52.31,-17.63 61.33,-23.18 62.82,-16.34"/>
</a>
</g>
</g>
<!-- Node3 -->
<g id="Node000003" class="node">
<title>Node3</title>
<g id="a_Node000003"><a xlink:title=" ">
<polygon fill="#e0e0e0" stroke="#999999" points="189.75,-19.25 68.75,-19.25 68.75,0 189.75,0 189.75,-19.25"/>
<text text-anchor="middle" x="129.25" y="-5.75" font-family="Helvetica,sans-Serif" font-size="10.00">opencv2/imgcodecs.hpp</text>
</a>
</g>
</g>
<!-- Node1&#45;&gt;Node3 -->
<g id="edge2_Node000001_Node000003" class="edge">
<title>Node1&#45;&gt;Node3</title>
<g id="a_edge2_Node000001_Node000003"><a xlink:title=" ">
<path fill="none" stroke="#63b8ff" d="M282.3,-54.8C248.2,-44.95 203.85,-32.15 171.67,-22.87"/>
<polygon fill="#63b8ff" stroke="#63b8ff" points="172.87,-19.57 162.29,-20.16 170.93,-26.3 172.87,-19.57"/>
</a>
</g>
</g>
<!-- Node4 -->
<g id="Node000004" class="node">
<title>Node4</title>
<g id="a_Node000004"><a xlink:href="../../d6/d1d/image__aligner_8hpp.html" target="_top" xlink:title=" ">
<polygon fill="#fff0f0" stroke="red" points="323.12,-19.25 207.38,-19.25 207.38,0 323.12,0 323.12,-19.25"/>
<text text-anchor="middle" x="265.25" y="-5.75" font-family="Helvetica,sans-Serif" font-size="10.00">core/image_aligner.hpp</text>
</a>
</g>
</g>
<!-- Node1&#45;&gt;Node4 -->
<g id="edge3_Node000001_Node000004" class="edge">
<title>Node1&#45;&gt;Node4</title>
<g id="a_edge3_Node000001_Node000004"><a xlink:title=" ">
<path fill="none" stroke="#63b8ff" d="M316.44,-54.95C306.68,-46.5 294.37,-35.83 284.26,-27.08"/>
<polygon fill="#63b8ff" stroke="#63b8ff" points="286.73,-24.59 276.88,-20.69 282.15,-29.88 286.73,-24.59"/>
</a>
</g>
</g>
<!-- Node13 -->
<g id="Node000013" class="node">
<title>Node13</title>
<g id="a_Node000013"><a xlink:href="../../d8/d68/hdr__assembler_8hpp.html" target="_top" xlink:title=" ">
<polygon fill="#fff0f0" stroke="red" points="461,-19.25 341.5,-19.25 341.5,0 461,0 461,-19.25"/>
<text text-anchor="middle" x="401.25" y="-5.75" font-family="Helvetica,sans-Serif" font-size="10.00">core/hdr_assembler.hpp</text>
</a>
</g>
</g>
<!-- Node1&#45;&gt;Node13 -->
<g id="edge4_Node000001_Node000013" class="edge">
<title>Node1&#45;&gt;Node13</title>
<g id="a_edge4_Node000001_Node000013"><a xlink:title=" ">
<path fill="none" stroke="#63b8ff" d="M350.06,-54.95C359.82,-46.5 372.13,-35.83 382.24,-27.08"/>
<polygon fill="#63b8ff" stroke="#63b8ff" points="384.35,-29.88 389.62,-20.69 379.77,-24.59 384.35,-29.88"/>
</a>
</g>
</g>
<!-- Node14 -->
<g id="Node000014" class="node">
<title>Node14</title>
<g id="a_Node000014"><a xlink:href="../../de/d14/hdr__generator_8hpp.html" target="_top" xlink:title=" ">
<polygon fill="#fff0f0" stroke="red" points="571.88,-19.25 478.62,-19.25 478.62,0 571.88,0 571.88,-19.25"/>
<text text-anchor="middle" x="525.25" y="-5.75" font-family="Helvetica,sans-Serif" font-size="10.00">hdr_generator.hpp</text>
</a>
</g>
</g>
<!-- Node1&#45;&gt;Node14 -->
<g id="edge5_Node000001_Node000014" class="edge">
<title>Node1&#45;&gt;Node14</title>
<g id="a_edge5_Node000001_Node000014"><a xlink:title=" ">
<path fill="none" stroke="#63b8ff" d="M381.2,-54.8C413.02,-45.04 454.31,-32.38 484.53,-23.11"/>
<polygon fill="#63b8ff" stroke="#63b8ff" points="485.54,-26.46 494.08,-20.18 483.49,-19.77 485.54,-26.46"/>
</a>
</g>
</g>
<!-- Node21 -->
<g id="Node000021" class="node">
<title>Node21</title>
<g id="a_Node000021"><a xlink:title=" ">
<polygon fill="#e0e0e0" stroke="#999999" points="637,-19.25 589.5,-19.25 589.5,0 637,0 637,-19.25"/>
<text text-anchor="middle" x="613.25" y="-5.75" font-family="Helvetica,sans-Serif" font-size="10.00">system</text>
</a>
</g>
</g>
<!-- Node1&#45;&gt;Node21 -->
<g id="edge6_Node000001_Node000021" class="edge">
<title>Node1&#45;&gt;Node21</title>
<g id="a_edge6_Node000001_Node000021"><a xlink:title=" ">
<path fill="none" stroke="#63b8ff" d="M404.6,-56.29C451.58,-47.3 514.68,-34.69 578.16,-19.88"/>
<polygon fill="#63b8ff" stroke="#63b8ff" points="578.77,-23.33 587.71,-17.63 577.17,-16.52 578.77,-23.33"/>
</a>
</g>
</g>
</g>
</svg>
