<?xml version="1.0" encoding="UTF-8" standalone="no"?>
<!DOCTYPE svg PUBLIC "-//W3C//DTD SVG 1.1//EN"
 "http://www.w3.org/Graphics/SVG/1.1/DTD/svg11.dtd">
<!-- Generated by graphviz version 9.0.0 (20230911.1827)
 -->
<!-- Title: MediaTypes::isVideoFile Pages: 1 -->
<svg width="323pt" height="205pt"
 viewBox="0.00 0.00 322.75 205.25" xmlns="http://www.w3.org/2000/svg" xmlns:xlink="http://www.w3.org/1999/xlink">
<g id="graph0" class="graph" transform="scale(1 1) rotate(0) translate(4 201.25)">
<title>MediaTypes::isVideoFile</title>
<!-- Node1 -->
<g id="Node000001" class="node">
<title>Node1</title>
<g id="a_Node000001"><a xlink:title=" ">
<polygon fill="#999999" stroke="#666666" points="314.75,-117.25 193.75,-117.25 193.75,-98 314.75,-98 314.75,-117.25"/>
<text text-anchor="middle" x="254.25" y="-103.75" font-family="Helvetica,sans-Serif" font-size="10.00">MediaTypes::isVideoFile</text>
</a>
</g>
</g>
<!-- Node2 -->
<g id="Node000002" class="node">
<title>Node2</title>
<g id="a_Node000002"><a xlink:href="../../d8/d50/class_media_information.html#aab77a8cbe906790ee43dcec11d6ebe18" target="_top" xlink:title=" ">
<polygon fill="white" stroke="#666666" points="157.75,-197.25 0,-197.25 0,-178 157.75,-178 157.75,-197.25"/>
<text text-anchor="middle" x="78.88" y="-183.75" font-family="Helvetica,sans-Serif" font-size="10.00">MediaInformation::getInformation</text>
</a>
</g>
</g>
<!-- Node1&#45;&gt;Node2 -->
<g id="edge1_Node000001_Node000002" class="edge">
<title>Node1&#45;&gt;Node2</title>
<g id="a_edge1_Node000001_Node000002"><a xlink:title=" ">
<path fill="none" stroke="#63b8ff" d="M232.05,-124.51C213.47,-138.52 185.2,-157.97 157.75,-169.62 150.47,-172.72 142.57,-175.32 134.69,-177.51"/>
<polygon fill="#63b8ff" stroke="#63b8ff" points="234.09,-127.35 239.88,-118.48 229.82,-121.81 234.09,-127.35"/>
</a>
</g>
</g>
<!-- Node3 -->
<g id="Node000003" class="node">
<title>Node3</title>
<g id="a_Node000003"><a xlink:href="../../de/db8/class_file_analyzer.html#a004f88967bb5ec6246d12cacc1ff8354" target="_top" xlink:title=" ">
<polygon fill="#fff0f0" stroke="red" points="140.12,-160.25 17.62,-160.25 17.62,-141 140.12,-141 140.12,-160.25"/>
<text text-anchor="middle" x="78.88" y="-146.75" font-family="Helvetica,sans-Serif" font-size="10.00">FileAnalyzer::isMediaFile</text>
</a>
</g>
</g>
<!-- Node1&#45;&gt;Node3 -->
<g id="edge2_Node000001_Node000003" class="edge">
<title>Node1&#45;&gt;Node3</title>
<g id="a_edge2_Node000001_Node000003"><a xlink:title=" ">
<path fill="none" stroke="#63b8ff" d="M202.54,-120.44C188.08,-124.07 172.3,-128.02 157.75,-131.62 146,-134.54 133.24,-137.66 121.52,-140.52"/>
<polygon fill="#63b8ff" stroke="#63b8ff" points="202.99,-123.93 211.84,-118.1 201.29,-117.14 202.99,-123.93"/>
</a>
</g>
</g>
<!-- Node5 -->
<g id="Node000005" class="node">
<title>Node5</title>
<g id="a_Node000005"><a xlink:href="../../d7/d27/class_thumbnail_generator.html#ac140a6ac8e145da51818e8bc6ae4e97c" target="_top" xlink:title=" ">
<polygon fill="#fff0f0" stroke="red" points="130.75,-122.88 27,-122.88 27,-92.38 130.75,-92.38 130.75,-122.88"/>
<text text-anchor="start" x="35" y="-109.38" font-family="Helvetica,sans-Serif" font-size="10.00">ThumbnailGenerator</text>
<text text-anchor="middle" x="78.88" y="-98.12" font-family="Helvetica,sans-Serif" font-size="10.00">::readFrame</text>
</a>
</g>
</g>
<!-- Node1&#45;&gt;Node5 -->
<g id="edge3_Node000001_Node000005" class="edge">
<title>Node1&#45;&gt;Node5</title>
<g id="a_edge3_Node000001_Node000005"><a xlink:title=" ">
<path fill="none" stroke="#63b8ff" d="M182.42,-107.62C165.19,-107.62 147.09,-107.62 130.98,-107.62"/>
<polygon fill="#63b8ff" stroke="#63b8ff" points="182.07,-111.13 192.07,-107.63 182.07,-104.13 182.07,-111.13"/>
</a>
</g>
</g>
<!-- Node7 -->
<g id="Node000007" class="node">
<title>Node7</title>
<g id="a_Node000007"><a xlink:href="../../de/d4c/class_media_preview.html#a4aa614d60c4c1c0858ed4cc44016bba3" target="_top" xlink:title=" ">
<polygon fill="#fff0f0" stroke="red" points="139.75,-74.25 18,-74.25 18,-55 139.75,-55 139.75,-74.25"/>
<text text-anchor="middle" x="78.88" y="-60.75" font-family="Helvetica,sans-Serif" font-size="10.00">MediaPreview::setMedia</text>
</a>
</g>
</g>
<!-- Node1&#45;&gt;Node7 -->
<g id="edge4_Node000001_Node000007" class="edge">
<title>Node1&#45;&gt;Node7</title>
<g id="a_edge4_Node000001_Node000007"><a xlink:title=" ">
<path fill="none" stroke="#63b8ff" d="M202.54,-94.81C188.08,-91.18 172.3,-87.23 157.75,-83.62 146,-80.71 133.24,-77.59 121.52,-74.73"/>
<polygon fill="#63b8ff" stroke="#63b8ff" points="201.29,-98.11 211.84,-97.15 202.99,-91.32 201.29,-98.11"/>
</a>
</g>
</g>
<!-- Node19 -->
<g id="Node000019" class="node">
<title>Node19</title>
<g id="a_Node000019"><a xlink:href="../../d3/d07/class_media_view_ctrl.html#aa24ae0b96b7ddfdd731a382f759d429f" target="_top" xlink:title=" ">
<polygon fill="#fff0f0" stroke="red" points="137.5,-19.25 20.25,-19.25 20.25,0 137.5,0 137.5,-19.25"/>
<text text-anchor="middle" x="78.88" y="-5.75" font-family="Helvetica,sans-Serif" font-size="10.00">MediaViewCtrl::setPath</text>
</a>
</g>
</g>
<!-- Node1&#45;&gt;Node19 -->
<g id="edge5_Node000001_Node000019" class="edge">
<title>Node1&#45;&gt;Node19</title>
<g id="a_edge5_Node000001_Node000019"><a xlink:title=" ">
<path fill="none" stroke="#63b8ff" d="M229.75,-91.02C210.77,-77.94 183.13,-59.63 157.75,-45.62 140.15,-35.91 119.45,-26.43 103.82,-19.64"/>
<polygon fill="#63b8ff" stroke="#63b8ff" points="227.63,-93.81 237.84,-96.65 231.63,-88.06 227.63,-93.81"/>
</a>
</g>
</g>
<!-- Node19&#45;&gt;Node19 -->
<g id="edge6_Node000019_Node000019" class="edge">
<title>Node19&#45;&gt;Node19</title>
<g id="a_edge6_Node000019_Node000019"><a xlink:title=" ">
<path fill="none" stroke="#63b8ff" d="M110.32,-30.32C106.7,-34.37 96.22,-37.25 78.88,-37.25 48.05,-37.25 38.9,-28.15 51.42,-19.54"/>
<polygon fill="#63b8ff" stroke="#63b8ff" points="113.61,-29.12 106.86,-20.96 107.05,-31.55 113.61,-29.12"/>
</a>
</g>
</g>
</g>
</svg>
