<?xml version="1.0" encoding="UTF-8" standalone="no"?>
<!DOCTYPE svg PUBLIC "-//W3C//DTD SVG 1.1//EN"
 "http://www.w3.org/Graphics/SVG/1.1/DTD/svg11.dtd">
<!-- Generated by graphviz version 9.0.0 (20230911.1827)
 -->
<!-- Title: MediaTypes::isAnimatedImageFile Pages: 1 -->
<svg width="330pt" height="82pt"
 viewBox="0.00 0.00 330.25 82.25" xmlns="http://www.w3.org/2000/svg" xmlns:xlink="http://www.w3.org/1999/xlink">

<svg id="main" version="1.1" xmlns="http://www.w3.org/2000/svg" xmlns:xlink="http://www.w3.org/1999/xlink" xml:space="preserve" onload="init(evt)">
<style type="text/css"><![CDATA[
.node, .edge {opacity: 0.7;}
.node.selected, .edge.selected {opacity: 1;}
.edge:hover path { stroke: red; }
.edge:hover polygon { stroke: red; fill: red; }
]]></style>
<script type="application/ecmascript" xlink:href="../../svg.min.js"/>
<svg id="graph" class="graph">
<g id="graph0" class="graph" transform="scale(1 1) rotate(0) translate(4 78.25)">
<title>MediaTypes::isAnimatedImageFile</title>
<!-- Node1 -->
<g id="Node000001" class="node">
<title>Node1</title>
<g id="a_Node000001"><a xlink:title=" ">
<polygon fill="#999999" stroke="#666666" points="322.25,-46.25 157.75,-46.25 157.75,-27 322.25,-27 322.25,-46.25"/>
<text text-anchor="middle" x="240" y="-32.75" font-family="Helvetica,sans-Serif" font-size="10.00">MediaTypes::isAnimatedImageFile</text>
</a>
</g>
</g>
<!-- Node2 -->
<g id="Node000002" class="node">
<title>Node2</title>
<g id="a_Node000002"><a xlink:href="../../de/d4c/class_media_preview.html#a4aa614d60c4c1c0858ed4cc44016bba3" target="_top" xlink:title=" ">
<polygon fill="#fff0f0" stroke="red" points="121.75,-74.25 0,-74.25 0,-55 121.75,-55 121.75,-74.25"/>
<text text-anchor="middle" x="60.88" y="-60.75" font-family="Helvetica,sans-Serif" font-size="10.00">MediaPreview::setMedia</text>
</a>
</g>
</g>
<!-- Node1&#45;&gt;Node2 -->
<g id="edge1_Node000001_Node000002" class="edge">
<title>Node1&#45;&gt;Node2</title>
<g id="a_edge1_Node000001_Node000002"><a xlink:title=" ">
<path fill="none" stroke="#63b8ff" d="M163.99,-48.48C150.04,-50.69 135.62,-52.97 122.18,-55.09"/>
<polygon fill="#63b8ff" stroke="#63b8ff" points="164.23,-51.99 173.56,-46.97 163.13,-45.07 164.23,-51.99"/>
</a>
</g>
</g>
<!-- Node14 -->
<g id="Node000014" class="node">
<title>Node14</title>
<g id="a_Node000014"><a xlink:href="../../d3/d07/class_media_view_ctrl.html#aa24ae0b96b7ddfdd731a382f759d429f" target="_top" xlink:title=" ">
<polygon fill="#fff0f0" stroke="red" points="119.5,-19.25 2.25,-19.25 2.25,0 119.5,0 119.5,-19.25"/>
<text text-anchor="middle" x="60.88" y="-5.75" font-family="Helvetica,sans-Serif" font-size="10.00">MediaViewCtrl::setPath</text>
</a>
</g>
</g>
<!-- Node1&#45;&gt;Node14 -->
<g id="edge2_Node000001_Node000014" class="edge">
<title>Node1&#45;&gt;Node14</title>
<g id="a_edge2_Node000001_Node000014"><a xlink:title=" ">
<path fill="none" stroke="#63b8ff" d="M161.65,-24.83C147.62,-22.7 133.21,-20.5 119.85,-18.46"/>
<polygon fill="#63b8ff" stroke="#63b8ff" points="160.88,-28.26 171.3,-26.3 161.94,-21.34 160.88,-28.26"/>
</a>
</g>
</g>
<!-- Node14&#45;&gt;Node14 -->
<g id="edge3_Node000014_Node000014" class="edge">
<title>Node14&#45;&gt;Node14</title>
<g id="a_edge3_Node000014_Node000014"><a xlink:title=" ">
<path fill="none" stroke="#63b8ff" d="M93.29,-29.98C89.88,-34.21 79.08,-37.25 60.88,-37.25 29.39,-37.25 20.04,-28.15 32.83,-19.54"/>
<polygon fill="#63b8ff" stroke="#63b8ff" points="96.59,-28.81 89.5,-20.93 90.13,-31.51 96.59,-28.81"/>
</a>
</g>
</g>
</g>
</svg>
</svg>

<style type='text/css'>
<![CDATA[
[data-mouse-over-selected='false'] { opacity: 0.7; }
[data-mouse-over-selected='true']  { opacity: 1.0; }
]]>
</style>
<script type="application/ecmascript"><![CDATA[
document.addEventListener('DOMContentLoaded', (event) => {
  highlightEdges();
  highlightAdjacentNodes();
});
]]></script>
</svg>
